<svg xmlns="http://www.w3.org/2000/svg" width="520" height="520" viewBox="0 0 520 520"><defs><style>.cls-1{fill:#231f20;}</style></defs><title>notioly upgrade</title><g id="n.106_Business_plan" data-name="n.106 Business plan"><path class="cls-1" d="M214.12,298l-.47,4s-21.71-.23-23.48-.66C190.17,301.33,212.75,300,214.12,298Z"/><path class="cls-1" d="M127,358c3.16-14.7,5.93-29.5,8.78-44.3,1.05-5.41,2-10.83,3.22-16.22a141.45,141.45,0,0,1,3.77-14.22,36,36,0,0,1,1.41-3.53,11.48,11.48,0,0,1,2.33-3.5l.48-.42.43-.27.85-.52c.28-.18.56-.36.85-.52l.92-.4a10.32,10.32,0,0,1,1.88-.69,11.86,11.86,0,0,1,1.94-.45,22.41,22.41,0,0,1,7.72.19c2.48.44,4.84,1.12,7.15,1.68a16,16,0,0,0,6.58.58c2.28-.54,4.6-1.26,6.92-1.94a126.83,126.83,0,0,1,12.62-3.28,40.25,40.25,0,0,1,6.61-.69,18.82,18.82,0,0,1,6.71,1.06,16.57,16.57,0,0,1,3.95,2,12.37,12.37,0,0,1,3.15,3.26,16,16,0,0,1,2.38,8.46,38.44,38.44,0,0,1-.88,8.42c-.56,2.72-1.29,5.38-1.89,8-.37,1.64-.59,2.33-.82,2.26s-.43-.93-.47-2.43c-.13-3,.52-8.41.82-14.32a16,16,0,0,0-1.2-7.26,9.55,9.55,0,0,0-4.84-4.67,15.74,15.74,0,0,0-7.17-1.34,45.36,45.36,0,0,0-7.88,1.05c-5.33,1.12-10.57,2.91-16.15,4.37-.36.08-.69.18-1.07.26l-1.3.19a7.69,7.69,0,0,1-1.26,0,7.91,7.91,0,0,1-1.21-.06l-1.17-.13-1.12-.21c-.75-.13-1.44-.32-2.15-.48-2.8-.71-5.42-1.5-8.05-1.89a14.83,14.83,0,0,0-9,1.08,22.62,22.62,0,0,0-2,1.16,5.71,5.71,0,0,0-1.2,1.51,26.73,26.73,0,0,0-1.92,4.47,180.32,180.32,0,0,0-4.89,20c-3,14.84-5.68,29.8-8.72,44.69-1.87,9.16-3.85,18.31-6,27.41-3.28,13.79-7,27.54-11.52,40.89a237.59,237.59,0,0,1-12.07,30.22c-.53,1.08-1,2.14-1.6,3.19s-1.1,2.11-1.7,3.16c-4.43,7.81-6.59,9.85-8.25,11a10.9,10.9,0,0,1-1.11.75c-.45.19-.23-.51.51-1.94L91.82,461c.6-1.08,1.32-2.32,2.12-3.71a190.42,190.42,0,0,0,12.45-26.49c3.6-9.29,6.81-18.9,9.64-28.65,4.22-14.49,7.74-29.27,10.87-44.11Z"/><path class="cls-1" d="M145.12,193.78s-1.6-16.33,12.53-22.34,42.2-12.59,53-21.56,20.67-36.45,5.77-54c0,0-23.26-24.83-63.27,1.87,0,0-17.55,18.45-25.49,33.11,0,0-36.9-8.39-52,18.94s-12.15,34.85-8.71,58.9c0,0,1.47,9.24-3.83,24.05S45,279,73.3,294.42c0,0,15.66,15.14,60.67,1.92,0,0,25-8.15,26.66-32a13.67,13.67,0,0,0-.11-2.86c-.66-5.16-3.86-26-10.79-35.73,0,0-12.59,5.36-20.53-7.48-4-6.54-3.61-13.74-.1-20.58C131.72,192.55,136.49,190.39,145.12,193.78Z"/><path class="cls-1" d="M208.23,179.57c.08-.33.16-.66.21-1,0-.12,0-.22,0-.34.08-.42.29-.86.36-1.28a1,1,0,0,0,0-.53c-.07-.21-.23-.4,0-.67a4.31,4.31,0,0,1,2.25-.19,1.75,1.75,0,0,1,.15,1.37c-.11.3.09.55.09.83s0,.64,0,.95a5.81,5.81,0,0,0,0,.59,2.74,2.74,0,0,0,.1.86c.08.2.33.37.51.56,0,0,.11.07.14.12s-.13.27-1,.49l-.57.14a3,3,0,0,1-1.43.11,1.13,1.13,0,0,1-.86-1.06c0-.31,0-.63,0-.95Z"/><path class="cls-1" d="M203.59,242.25a27.16,27.16,0,0,0,7.34-7.35,25.56,25.56,0,0,0,1.7-3.39,23.24,23.24,0,0,0,1.85-6.49,57,57,0,0,0,.62-7c.06-2.08,0-4.19-.11-6.27-.09-1.33-.17-2.68-.26-4a36.64,36.64,0,0,1,.15-4.05c.09-.85.55-.74,1.09-.05a8,8,0,0,1,1.47,3.49,72.9,72.9,0,0,1-.17,16.69c-.27,1.68-.5,3.4-.92,5.14a25.16,25.16,0,0,1-1.79,5.06,27.85,27.85,0,0,1-7.28,9,32.63,32.63,0,0,1-2.84,2.11l-1.47,1-1.54.87a51.91,51.91,0,0,1-9.77,4.05,76.1,76.1,0,0,1-7.84,2.09c-.58.09-1.16.19-1.76.26-2.22.31-3-.24-3.45-.78a2.55,2.55,0,0,1-.32-.37c-.11-.21.05-.4.43-.65a5.22,5.22,0,0,1,1.74-.74,97.42,97.42,0,0,0,13.68-3.77,42,42,0,0,0,9.4-4.9Z"/><path class="cls-1" d="M226.62,195.88a6.18,6.18,0,0,1-.4,2.74,7.27,7.27,0,0,1-1.4,2.15,7.83,7.83,0,0,1-1.25,1.2,16.7,16.7,0,0,1-5.09,2.28l-2.25.7a7.62,7.62,0,0,1-2.95.52c-.32,0-.36-.5-.2-1a2,2,0,0,1,1-1.32c1.82-.62,3.61-1.09,5.38-1.68a7.3,7.3,0,0,0,2.72-1.79,4.58,4.58,0,0,0,1.55-2.7,3.59,3.59,0,0,0-.31-1.91,6.94,6.94,0,0,0-2.09-2.61,10.64,10.64,0,0,0-2.43-1.22c-.19-.08-.38-.12-.56-.21-.68-.3-.78-.64-.58-1.42,0-.18.08-.37.14-.54a1.2,1.2,0,0,1,1.37-.81,9.14,9.14,0,0,1,5.15,3,8.32,8.32,0,0,1,2.27,4.68Z"/><path class="cls-1" d="M219,186.52a14,14,0,0,1-2.25,4.56,11.37,11.37,0,0,1-4,3.3,20.67,20.67,0,0,1-2.24.94,21.4,21.4,0,0,1-2.28.67,16.42,16.42,0,0,1-4.8.45,14.54,14.54,0,0,1-6.77-2,21.4,21.4,0,0,1-6-5.62c-.81-1.08-1.55-2.2-2.24-3.32a16,16,0,0,0-1.69-2.57,16.43,16.43,0,0,0-2.67.81l-3.31,1.2c-3.15,1.14-6.31,2.34-9.51,3.34a52.84,52.84,0,0,1-6.3,1.61,11.74,11.74,0,0,1-6.67-.34c-.68-.32-.86-.66-.77-.73s.48,0,1.05,0a9,9,0,0,0,2.2-.25c.89-.2,1.92-.45,3.07-.67a87.7,87.7,0,0,0,11.3-3.47l5.66-2.08,2.88-1,1.48-.49.4-.12a5.33,5.33,0,0,1,.66-.17,3.37,3.37,0,0,1,1.3-.05c1,.33,1.69,1.68,2,2.05a34,34,0,0,0,4.51,6.31,15.45,15.45,0,0,0,6.11,4.15,13.11,13.11,0,0,0,7.94.12,19.93,19.93,0,0,0,2-.68,12.24,12.24,0,0,0,1.82-.85,8.41,8.41,0,0,0,2.75-2.69c1.76-2.74,2.09-6.35,1.84-9.8a36.06,36.06,0,0,0-1.48-7.87,26,26,0,0,0-1.41-3.7,8.45,8.45,0,0,0-.44-.8,1.2,1.2,0,0,0-.42-.42,3.11,3.11,0,0,0-1.48-.37,17.61,17.61,0,0,0-5.78,1.35c-1.94.71-3.9,1.49-5.94,2.16-.9.29-1.79.59-2.74.81a10.45,10.45,0,0,1-3.88.33,2.56,2.56,0,0,1-1.71-.84,2.89,2.89,0,0,1-.44-.56c-.21-.63,1.13-.8,3.4-1.37,3.42-.75,6.84-2.32,10.61-3.67.95-.33,1.92-.66,3-.93a13.84,13.84,0,0,1,3.46-.51,6.9,6.9,0,0,1,2.15.34,4.81,4.81,0,0,1,2.28,1.54,10,10,0,0,1,1,1.7c.25.51.47,1,.67,1.5a39,39,0,0,1,2.38,9.1,25.33,25.33,0,0,1,.23,4.78,21.83,21.83,0,0,1-.73,4.88Z"/><path class="cls-1" d="M210.8,87.92a30.91,30.91,0,0,1,8.07,7.16,38.24,38.24,0,0,1,5.23,9.21,46.37,46.37,0,0,1,1.67,5l.58,2.56c.2.85.28,1.72.42,2.58a43.14,43.14,0,0,1,.18,10.47,38.76,38.76,0,0,1-4.79,14.47,39.85,39.85,0,0,1-8.59,10.21,52.48,52.48,0,0,1-11,7.18,73.85,73.85,0,0,1-12.17,4.65c-4.16,1.2-8.3,2.16-12.4,3.29-7.26,2-14.52,4.34-20.7,8.35a32.46,32.46,0,0,0-5.48,4.35,16.19,16.19,0,0,0-3.51,5.76,22,22,0,0,0-1.29,6.72c0,.58,0,1.15,0,1.72s.08,1.14.18,1.71.14,1.13.29,1.68l.19.84.26.82c.44,1.35.64,2,.41,2s-.83-.41-1.6-1.51a12.91,12.91,0,0,1-2.15-5.17,17.75,17.75,0,0,1,.33-8.06,20.12,20.12,0,0,1,3.56-7.25l.65-.8c.23-.26.48-.5.73-.75a15,15,0,0,1,1.47-1.34c1-.88,2-1.61,3.08-2.39a60.15,60.15,0,0,1,13.68-6.73c4.75-1.7,9.58-3,14.37-4.26a119.1,119.1,0,0,0,14-4.28,58.3,58.3,0,0,0,7.86-3.85,47.49,47.49,0,0,0,7.1-5.19,40.57,40.57,0,0,0,5.77-6.59,39.62,39.62,0,0,0,4-7.74,35.2,35.2,0,0,0,2-9.29,37.47,37.47,0,0,0-.41-9.57,40.44,40.44,0,0,0-2.71-9.21A32.77,32.77,0,0,0,215,96.62c-5-6-12.89-9.11-20.81-9.83a54.5,54.5,0,0,0-18.14,1.5,60.93,60.93,0,0,0-16.88,6.9c-8.13,4.85-14.7,11.64-20.15,19.19-.62.82-1.2,1.65-1.76,2.5s-1.16,1.68-1.7,2.57c-2.11,3.22-3.42,5.4-4.45,6.88a11.13,11.13,0,0,1-2.52,2.82,9.76,9.76,0,0,1-1,.73c-.45.2-.42-.46,0-1.87a33.58,33.58,0,0,1,2.54-6.12,88.41,88.41,0,0,1,6.8-11.3,75.59,75.59,0,0,1,9-10.17,64.9,64.9,0,0,1,23.73-14.33,62.91,62.91,0,0,1,20.6-3.51,41,41,0,0,1,20.6,5.25Z"/><path class="cls-1" d="M69.84,295a40.24,40.24,0,0,1-10.5-9.79A33.19,33.19,0,0,1,53.51,272a46,46,0,0,1-.43-14.22A78.93,78.93,0,0,1,56,244.09c1.92-6.47,4.42-12.74,6.82-18.84.51-1.34,1-2.67,1.38-4,.16-.66.36-1.32.49-2s.27-1.35.35-2a35.67,35.67,0,0,0,.08-8.33c-.54-5.62-2.07-11.26-3-17.13a52.33,52.33,0,0,1-.11-18,60.27,60.27,0,0,1,5.61-17,63.94,63.94,0,0,1,8.73-13.27A55.61,55.61,0,0,1,82,137.94a51.6,51.6,0,0,1,6.45-4.67,47.54,47.54,0,0,1,19.25-6.57,44.39,44.39,0,0,1,10.24,0,29.25,29.25,0,0,1,5.06,1,21.58,21.58,0,0,1,4.84,1.94c1.93,1.14,2.46,2.18,2.22,2.29s-.45,0-.91-.18-1.16-.35-2-.54a42.3,42.3,0,0,0-7-.79,83.5,83.5,0,0,0-9.77.13,46,46,0,0,0-32.77,17.6c-8,10.14-13.11,23-12.79,36.11.13,7.8,2.9,15.77,3.8,24.35a36.7,36.7,0,0,1-.78,13.06,51.23,51.23,0,0,1-2.07,6.13l-2.28,5.83c-3.28,8.45-6.14,17.11-7,26a39.36,39.36,0,0,0,.84,13.14,28.83,28.83,0,0,0,2.29,6.11c.26.47.48,1,.78,1.43l.9,1.38.9,1.38,1,1.28A38.72,38.72,0,0,0,76,294.43a56.77,56.77,0,0,0,15.7,5,72.18,72.18,0,0,0,12.55,1.08c2.1,0,4.21-.08,6.3-.28s4.2-.48,6.3-.73,4.17-.69,6.23-1.12,4.11-.92,6.1-1.58,4-1.32,5.93-2.05a55.75,55.75,0,0,0,5.61-2.71,45,45,0,0,0,4.08-2.55c.64-.46,1.25-1,1.88-1.47.31-.25.63-.48.92-.74l.87-.82a37.46,37.46,0,0,0,3.24-3.43l1.4-1.89c.48-.62.83-1.33,1.26-2a36,36,0,0,0,4.7-17.93,57.71,57.71,0,0,0-.59-8.27c-.75-5.15-1.64-8.49-2.15-10.87-.25-1.19-.44-2.14-.54-3a14,14,0,0,1,0-2.12,16.23,16.23,0,0,1,0-1.64c.12-.6.73.05,1.76,1.78a36.67,36.67,0,0,1,3.27,8.51,56.64,56.64,0,0,1,1.94,18.14A38.22,38.22,0,0,1,157,281.89a35.71,35.71,0,0,1-6.3,7.41l-.9.82-1,.75c-.64.49-1.27,1-1.92,1.48l-2,1.33-1,.66-1.06.58a66.65,66.65,0,0,1-17.89,6.61l-1.72.4-1.73.31-3.46.61c-2.33.29-4.62.65-7,.85a78.9,78.9,0,0,1-14.17,0c-9.4-.88-18.87-3.43-27-8.66Z"/><path class="cls-1" d="M129.11,203.42a19.14,19.14,0,0,0,.64,9.51c.19.55.44,1.08.66,1.61s.56,1,.8,1.53a16.54,16.54,0,0,0,4,4.67,16.78,16.78,0,0,0,5.6,2.94,19.18,19.18,0,0,0,5.68.82,49.46,49.46,0,0,0,7.35-.8c.77-.1.87.47.38,1.23a5,5,0,0,1-1.17,1.22,6.24,6.24,0,0,1-2,.9,21.73,21.73,0,0,1-8.43.18,20,20,0,0,1-8-3.12,26.12,26.12,0,0,1-4-3.38,17.28,17.28,0,0,1-3-4.37c-.37-.89-.74-1.8-1-2.69s-.48-1.82-.66-2.74a22.19,22.19,0,0,1-.35-5.64,16.51,16.51,0,0,1,1.9-6.75,14.65,14.65,0,0,1,1.5-2.22l.85-1,.94-.93a14.6,14.6,0,0,1,4.44-2.89,12.63,12.63,0,0,1,4.08-.93,11.73,11.73,0,0,1,4.19.64,8.65,8.65,0,0,1,1.7.76,6.12,6.12,0,0,1,1.18.85,3.06,3.06,0,0,1,.66.73,2.1,2.1,0,0,1,.21,1.32,3.34,3.34,0,0,1-.1.53c-.1.25-.38.3-.82.25a5.34,5.34,0,0,1-1.64-.52,11.49,11.49,0,0,0-5.55-1.32,9.38,9.38,0,0,0-5.2,2.09l-.85.73-.81.83-.76.89c-.24.3-.44.61-.66.91a12.17,12.17,0,0,0-1.68,4.18Z"/><path class="cls-1" d="M238.7,298.68q-6.18,1.5-12.45,2.65c-1.52.27-3,.61-4.58.8a123.93,123.93,0,0,1-16.33,1.17c-1.21,0-2.42,0-3.63,0s-2.42-.08-3.62-.2c-1.54-.11-3.08-.29-4.62-.52a38.53,38.53,0,0,1-4.5-1.15c-.92-.29-.73-.47.11-.54a14.92,14.92,0,0,1,1.71,0c.7,0,1.52,0,2.38.06a76.29,76.29,0,0,0,9.2.45c3.07,0,6.17-.14,9.28-.32A94.42,94.42,0,0,0,223,299.38q6.22-1.11,12.38-2.6c2.52-.61,5-1.27,7.54-2,3.78-1.09,7.57-2.23,11.26-3.54,2.87-1,5.6-2.23,8.38-3.38.61-.25,1.2-.53,1.82-.77,2.31-.9,3.12-1,3.88-.49a2.34,2.34,0,0,1,.5.35c.42.45-.35,1.24-2,2.06a108,108,0,0,1-15.69,6.18c-4.06,1.31-8.19,2.46-12.34,3.53Z"/><path class="cls-1" d="M294.93,257.22c-2.56,2-5.1,4.13-7.61,6.25-.92.78-1.77,1.62-2.68,2.41-3.2,2.76-6.35,5.57-9.33,8.56-1.34,1.31-2.58,2.73-3.78,4.14-1.53,1.83-2.91,3.77-4.56,5.5-.52.54-.84.21-.87-.6a5.71,5.71,0,0,1,1-3.29,67.5,67.5,0,0,1,10.07-11c2.25-2,4.39-4.2,6.65-6.23q3.74-3.36,7.61-6.53,2.38-2,4.83-3.86c2.46-1.92,5-3.74,7.58-5.51,2-1.38,3.89-2.8,5.92-4.09.45-.29.87-.58,1.34-.84,1.71-1,2.42-1,3.12-.53a2.83,2.83,0,0,1,.47.34c.4.41-.06,1.27-1.22,2.05-3.45,2.37-7.09,4.72-10.65,7.3-2.64,1.91-5.27,3.9-7.82,6Z"/><path class="cls-1" d="M337.75,267a58.08,58.08,0,0,1,4.42,24.75L342,294l-1.71,1.53c-.75.66-1.48,1.35-2.22,2.05-1.48,1.37-2.94,2.8-4.41,4.2l-8.76,8.55c-4.27,4.16-8.5,8.38-12.86,12.45-3.86,3.59-7.77,7.12-11.82,10.53l-3.09,2.51L294,338.27c-1.09.78-2.23,1.51-3.34,2.27l-1.81,1c-.6.34-1.21.67-1.79.93-4.72,2.27-9.45,4.62-14.34,6.67-2.44,1-4.92,2-7.47,2.8a73.26,73.26,0,0,1-7.74,2c-4.59.95-9.23,1.72-13.87,2.37s-9.31,1.06-14,1.31a133.09,133.09,0,0,1-18-.17,66,66,0,0,1-17.62-3.76c-3.52-1.3-2.83-1.59.31-1.17,3.1.61,8.81,1,15.45,1.74,11.86,1.16,23.9.21,35.78-1.44a135.54,135.54,0,0,0,17.57-3.51,124.78,124.78,0,0,0,16.68-6.76l5-2.37c.82-.41,1.7-.8,2.42-1.24a24.21,24.21,0,0,0,2.28-1.34l2.24-1.53,2.19-1.67c1.47-1.09,2.86-2.33,4.31-3.49,5.66-4.82,11.12-10,16.51-15.17,5.93-5.67,11.77-11.46,17.69-17.19q2.22-2.15,4.5-4.26l1.93-1.74a7.16,7.16,0,0,0,.08-.93l0-1.5a52.88,52.88,0,0,0-1.15-12,64.66,64.66,0,0,0-12.95-26.58q-1.76-2.22-3.66-4.3l-1-1L319,244.88a5.18,5.18,0,0,1-.62-.76,3,3,0,0,1-.17-.72.34.34,0,0,0,0-.09.11.11,0,0,1,0-.05h0l-.2,0h0l0,0,.14-.16.28-.31.56-.64,1.28-.9c.25-.17.32-.24.48-.36l.43-.32c.56-.44,1.13-.86,1.69-1.31,1.11-.9,2.22-1.8,3.3-2.74,2.18-1.87,4.3-3.8,6.39-5.77,4.17-3.93,8.2-8,12.07-12.18a85.15,85.15,0,0,1,6.66-6,69.11,69.11,0,0,1,7.22-5.23,42.9,42.9,0,0,1,3.93-2.19,28.08,28.08,0,0,1,4.25-1.69,17.91,17.91,0,0,1,4.66-.8,11.22,11.22,0,0,1,4.87.94,5.23,5.23,0,0,1,1,.51c.31.19.67.39.92.57.53.38,1.07.74,1.59,1.14,1.06.77,2.1,1.59,3.11,2.48a21.74,21.74,0,0,1,4.29,4.89,8.55,8.55,0,0,1,1,2.57,4.78,4.78,0,0,1,.07,1.51,3.37,3.37,0,0,1-.42,1.31,3.11,3.11,0,0,1-1.75,1.43,3.85,3.85,0,0,1-1.78.13,3.79,3.79,0,0,1-1.93-1,4.29,4.29,0,0,1-.91-1.22c-.08-.26.08-.33.42-.27a10.51,10.51,0,0,0,1.6.27,3.15,3.15,0,0,0,1-.08,1.07,1.07,0,0,0,.64-.44,1,1,0,0,0,0-.83,6.81,6.81,0,0,0-.83-1.65,24.7,24.7,0,0,0-5.17-5.14c-1-.79-2-1.54-3.1-2.28a7.67,7.67,0,0,0-2.89-1.23,13.46,13.46,0,0,0-6.82.91,37.11,37.11,0,0,0-6.83,3.45,78.1,78.1,0,0,0-12.42,10l-2.82,3-2.92,3q-2.93,3-5.94,5.88-3.32,3.19-6.81,6.25-1.76,1.53-3.57,3c-.6.51-1.24,1-1.85,1.46l-.87.67-.05,0s0,0,0,.06c.91,1,1.81,1.93,2.69,2.94,1.75,2,3.41,4.09,5,6.26a71,71,0,0,1,7.8,14Z"/><path class="cls-1" d="M381.91,224.46a26.49,26.49,0,0,0-3-4.81c-.43-.56-.95-1-1.41-1.54a17.72,17.72,0,0,0-2.67-2.4,6.25,6.25,0,0,0-3.06-1.23c-.79-.06-2.16.38-3.32.47-.76.08-1.49.18-2.16.24s-1.34.08-2,.15c-.43,0-.57-.42-.36-1a2.72,2.72,0,0,1,1.79-1.7,12.67,12.67,0,0,1,2.32-.29,19.18,19.18,0,0,0,2-.26l.26-.05.38-.05.77-.07a11.65,11.65,0,0,1,1.46.13c.45.14.91.27,1.33.44s.8.39,1.17.62a25.07,25.07,0,0,1,4.64,3.72,31.57,31.57,0,0,1,3.83,5,20.08,20.08,0,0,1,1.75,3.54c.17.46.34.93.48,1.41s.25.92.37,1.54c.22,1.3.27,2.72-.69,3.56-1.53,1.17-4.12-.21-5.25-.76-.29-.16-.61-.29-.89-.48a4.51,4.51,0,0,1-.62-.47,1.27,1.27,0,0,1-.3-.48,1.1,1.1,0,0,1-.07-.47,3.06,3.06,0,0,1,.14-.56c.06-.16.09-.33.14-.45a1.56,1.56,0,0,1,1.82-.38l1.7.76c.58.26,1,.42,1,.32a.08.08,0,0,0,0-.12h0c0-.09,0-.2-.1-.45-.11-.41-.24-.84-.38-1.28a18.41,18.41,0,0,0-1-2.54Z"/><path class="cls-1" d="M368.76,231.79a9.14,9.14,0,0,1,1.16-.78c.24-.1.47-.23.71-.31a4.89,4.89,0,0,1,.74-.16,3.32,3.32,0,0,1,2.7,1.07,1.35,1.35,0,0,1,.28.25l.12.12.24.24.51.44a10.19,10.19,0,0,0,1.08.78,7.51,7.51,0,0,0,2.29,1,4.66,4.66,0,0,0,.55.09.75.75,0,0,0,.2,0,.63.63,0,0,0,.37-.19.51.51,0,0,0,.08-.37.94.94,0,0,0,0-.25c-.07-.2-.1-.4-.19-.62a14.84,14.84,0,0,0-1.2-2.53,23.59,23.59,0,0,0-3.47-4.73A7.51,7.51,0,0,0,373,224.3a6.72,6.72,0,0,0-2.29-.7,18.11,18.11,0,0,0-3.3,0,24.88,24.88,0,0,1-3.54-.08c-.76-.1-.63-.57,0-1.11a6.33,6.33,0,0,1,3-1.52,18.34,18.34,0,0,1,3.89-.15,9.59,9.59,0,0,1,4.17,1.26,14.2,14.2,0,0,1,3.12,2.64,22.33,22.33,0,0,1,2.34,3.06,27.82,27.82,0,0,1,2.26,4.2,5.31,5.31,0,0,1,.22.6,3.61,3.61,0,0,1,.22.75l.18.91c0,.29,0,.59,0,.88a2.92,2.92,0,0,1-2,2.57,5.6,5.6,0,0,1-.83.21l-.86.08a6.91,6.91,0,0,1-1.47-.16,9.21,9.21,0,0,1-2.32-.88,11.67,11.67,0,0,1-2-1.3c-.32-.23-.59-.51-.89-.76a5.29,5.29,0,0,1-.41-.41,3,3,0,0,1-.3-.32.79.79,0,0,0-.45-.31,1,1,0,0,0-.64.18l-.16.11-.26.19c-.18.13-.35.3-.53.44a25.39,25.39,0,0,0-2.05,2.09,41.54,41.54,0,0,1-7,6,21.43,21.43,0,0,1-6.58,3.12,8,8,0,0,1-1.6.32,6.38,6.38,0,0,1-1.29,0,2.62,2.62,0,0,1-.87-.15,2,2,0,0,1-.91-.8,3.87,3.87,0,0,1-.24-.41c-.08-.23.08-.42.42-.64a4.39,4.39,0,0,1,1.48-.61c.94-.22,1.85-.55,2.75-.81a21.49,21.49,0,0,0,2.62-1.12,26.31,26.31,0,0,0,4.85-3.3c1.15-1,2.25-2,3.36-3.17.55-.57,1.16-1.1,1.77-1.67s1.17-1.22,1.94-1.84Z"/><path class="cls-1" d="M210.34,410.25c.22-3.33.41-6.68.54-10,.05-1.22,0-2.45.06-3.67.17-4.3.34-8.62.43-12.93,0-1.92,0-3.84,0-5.74l-.06-3.67c0-1.22.12-2.45.26-3.67.1-.76.51-.66,1,0a7.09,7.09,0,0,1,1.16,3.23c.12,2.49.17,5,.2,7.47s-.1,5-.25,7.52c-.17,3,0,6.14-.08,9.22-.05,3.38-.16,6.77-.3,10.16l-.31,6.25c-.16,3.16-.41,6.32-.6,9.46-.16,2.43-.16,4.83-.3,7.25,0,.53,0,1.06-.07,1.59-.22,2-.57,2.58-1.34,2.91a3.24,3.24,0,0,1-.53.21c-.58.12-1-.74-1-2.2-.07-4.3.25-8.77.51-13.28.24-3.34.49-6.71.65-10.08Z"/><path class="cls-1" d="M175,412.61a104.48,104.48,0,0,1-16.17-3.23l-2.89-.81c-1-.3-1.92-.6-2.87-.93a86.92,86.92,0,0,1-18.89-9.45l-2-1.29-1.91-1.36c-1.3-.87-2.5-1.88-3.75-2.8a45.94,45.94,0,0,1-8.51-8.38c-.77-1-.24-1.21.89-.84a14.91,14.91,0,0,1,4.57,2.72A103.84,103.84,0,0,0,142.63,400a71.66,71.66,0,0,0,13.48,5.55,97.82,97.82,0,0,0,15.71,3.63,93.9,93.9,0,0,0,9.91,1,92.27,92.27,0,0,0,15.06-.41A72.27,72.27,0,0,0,208,407.45c.81-.22,1.59-.5,2.39-.74,3-.89,4-1.07,4.89-.51a4.2,4.2,0,0,1,.63.38c.51.48-.52,1.49-2.75,2.4-6.62,2.66-14.08,3.85-21.54,4.25a103.06,103.06,0,0,1-16.66-.54Z"/><path class="cls-1" d="M210.24,408.27s1,8.6-12.84,10.47c-11,1.47-43.45-4.12-55.79,2.47s-32.29,33.72-35.28,37.36c-4.06,4.94-16.31,7.52-13.94,3.91s21.58-37.71,23.55-52.74,7-20.87,7-20.87,19.91,16.59,33.18,19.4C156.1,408.27,186.87,416.33,210.24,408.27Z"/><path class="cls-1" d="M320.33,59.15q4.56.14,9.13.05c1.11,0,2.21-.13,3.32-.15,3.91-.15,7.83-.25,11.74-.6,1.73-.15,3.45-.43,5.15-.66,1.09-.18,2.18-.37,3.26-.59a24.78,24.78,0,0,0,3.16-.81c.61-.23.65-.06.21.41a7,7,0,0,1-2.65,1.58,42,42,0,0,1-6.72,1.72,68.5,68.5,0,0,1-6.86.75c-2.75.18-5.61.47-8.42.63-3.09.15-6.19.22-9.29.23-1.9,0-3.81,0-5.72-.07-2.88-.08-5.78-.26-8.65-.46-2.23-.16-4.44-.22-6.69-.56a13.24,13.24,0,0,1-1.49-.25,5.21,5.21,0,0,1-1.87-.85,1.66,1.66,0,0,1-.53-1,2,2,0,0,1-.05-.46c0-.22.24-.32.61-.38a4.53,4.53,0,0,1,1.48,0c3.62.52,7.67.87,11.73,1.1,3,.18,6.09.28,9.15.33Z"/><path class="cls-1" d="M357.69,102.76c-.64,3-1.44,5.89-2.34,8.79l-.88,2.62-.16.47-.08.24c-.05.06,0,.21-.13.18l-1,.15-1.56.2c-1.47.18-2.93.39-4.4.6l-6.43,1c-7.58,1.11-15.26,2.22-23.05,1.9-3.44-.18-6.86-.49-10.22-.94A61.45,61.45,0,0,1,294.71,115c-1.27-.5-1-.69.18-.6.58,0,1.39.13,2.36.26s2.11.26,3.32.46c2.16.36,4.33.61,6.5.84s4.35.5,6.53.66a76.08,76.08,0,0,0,13.07,0c5.27-.41,10.71-1.46,16.09-2.36,3-.49,5.93-1,8.93-1.38l.46-.05c.09-.09.11-.27.17-.4.19-.6.46-1.37.66-2.06.41-1.42.82-2.85,1.16-4.29a103.42,103.42,0,0,0,2-10.78,114.05,114.05,0,0,0,1.05-16.6,113.13,113.13,0,0,0-1-12.66c-.1-.92-.29-1.82-.4-2.75-.34-3.46-.36-4.57.26-5.44a3.88,3.88,0,0,1,.37-.56c.42-.42,1.16.91,1.81,3.45a52,52,0,0,1,1.1,5.77q.44,2.94.65,6a115.53,115.53,0,0,1,.08,12.21,119.46,119.46,0,0,1-2.31,18.16Z"/><path class="cls-1" d="M332.43,121.42c-3,.3-6.06.54-9.11.66-1.12,0-2.23.11-3.35.09a84.43,84.43,0,0,1-11.7-1.13c-1.71-.26-3.44-.52-5.13-.83a45.84,45.84,0,0,1-6.42-1.66c-1.3-.47.54-.52,3-.17,1.1.18,2.21.32,3.31.48s2.2.36,3.3.51c2.21.32,4.42.6,6.66.86a54.48,54.48,0,0,0,8.19.29c3-.09,6-.33,9.05-.65,1.86-.19,3.71-.42,5.56-.67,2.81-.39,5.63-.79,8.41-1.27,2.15-.38,4.25-.87,6.38-1.27.47-.09.93-.19,1.41-.27,1.77-.21,2.36-.13,2.8.28a1.89,1.89,0,0,1,.29.26c.21.28-.46.72-1.72,1.07a99.88,99.88,0,0,1-11.83,2.29c-3,.45-6.06.84-9.11,1.18Z"/><path class="cls-1" d="M301.89,81.78c-.27,2.73-.61,5.44-1,8.14-.14,1-.25,2-.42,3-.62,3.46-1.39,6.88-2.21,10.29-.35,1.52-.7,3-1.05,4.55a26.68,26.68,0,0,1-1.86,5.69c-.27.57-.67.33-.95-.32a4.64,4.64,0,0,1-.22-2.77c.81-3.86,1.77-7.7,2.74-11.62a69.05,69.05,0,0,0,1.19-7.28c.38-2.68.74-5.37,1-8.06.16-1.66.33-3.32.42-5a65.68,65.68,0,0,0,.1-7.55,24.77,24.77,0,0,0-.32-2.86c-.16-.93-.26-1.88-.5-2.78-.09-.4-.2-.79-.27-1.2-.32-1.48-.35-1.95.17-2.5.09-.12.17-.25.24-.33.2-.25,1,.16,1.5,1.32a22.47,22.47,0,0,1,1.49,5.38c.17.93.19,1.86.27,2.8s.1,1.87.09,2.81v2.09l-.09,2.08c-.05,1.39-.16,2.77-.26,4.15Z"/><path class="cls-1" d="M363.24,83.14c-.21,2.71-.54,5.41-.91,8.1l-.42,2.94c-.6,3.44-1.38,6.84-2.27,10.21-.4,1.49-.8,3-1.19,4.47a54.88,54.88,0,0,1-1.9,5.59c-.46,1.14-.54-.53-.09-2.74l.65-2.92.72-2.89q.71-2.9,1.39-5.82c.54-2.34.91-4.81,1.23-7.24.39-2.67.67-5.35.89-8,.11-1.66.23-3.32.26-5,.07-2.51.09-5-.08-7.54-.11-1.94-.45-3.82-.69-5.72-.05-.41-.15-.82-.2-1.24-.15-1.57-.06-2.08.35-2.49a2.17,2.17,0,0,1,.27-.26c.29-.2.7.4,1,1.54a42.9,42.9,0,0,1,1.26,10.78c0,1.37,0,2.75,0,4.13s-.12,2.74-.21,4.12Z"/><path class="cls-1" d="M423.1,57.56c3,0,6.09,0,9.13-.13,1.11,0,2.22-.17,3.33-.22,3.9-.22,7.83-.41,11.73-.84,1.73-.17,3.45-.49,5.15-.75,1.08-.19,2.17-.41,3.25-.64a27,27,0,0,0,3.15-.85c.62-.23.66-.06.22.41a7.24,7.24,0,0,1-2.64,1.61A44,44,0,0,1,449.73,58c-2.26.39-4.55.69-6.85.88-2.75.23-5.59.58-8.41.79-3.09.22-6.19.35-9.28.42-1.91,0-3.82.05-5.73,0-2.89,0-5.79-.15-8.67-.29-2.24-.12-4.45-.14-6.71-.46a13.18,13.18,0,0,1-1.49-.24,5,5,0,0,1-1.89-.83,1.73,1.73,0,0,1-.54-1,2.58,2.58,0,0,1-.05-.45c0-.22.25-.33.62-.39a5,5,0,0,1,1.47,0c3.62.49,7.67.77,11.74.93,3,.11,6.09.16,9.16.15Z"/><path class="cls-1" d="M461.35,101.33a88.36,88.36,0,0,1-2.22,9l-.9,2.73-.16.48-.08.24c0,.09-.15,0-.23.08l-1,.15-1.5.19c-1.48.2-3,.44-4.45.69-2.17.37-4.33.84-6.51,1.23-7.67,1.35-15.45,2.85-23.41,2.66-3.51-.13-7-.47-10.42-.91a61.56,61.56,0,0,1-13-3.09c-1.3-.51-1-.7.17-.6.59,0,1.42.14,2.41.27s2.14.26,3.38.47c2.19.37,4.41.62,6.62.85s4.43.5,6.65.66c1.11.08,2.22.14,3.33.19s2.18,0,3.28,0c2.2-.07,4.43-.25,6.66-.51,5.34-.59,10.84-1.86,16.3-2.93,3-.58,6-1.16,9.09-1.59l.53-.06c.1,0,.08-.11.12-.16l.07-.22.32-1c.11-.35.24-.71.33-1.07.4-1.45.8-2.91,1.11-4.38a97.29,97.29,0,0,0,1.79-11,121.47,121.47,0,0,0,.62-16.94A128.1,128.1,0,0,0,459,63.86c-.11-.94-.3-1.85-.43-2.8-.36-3.53-.38-4.67.23-5.54a3.66,3.66,0,0,1,.37-.58c.42-.42,1.16.93,1.83,3.51a56.2,56.2,0,0,1,1.15,5.86q.46,3,.74,6c.32,4.09.43,8.25.35,12.42a122.07,122.07,0,0,1-1.84,18.55Z"/><path class="cls-1" d="M435.91,119.78c-3.08.41-6.17.76-9.28,1-1.14.05-2.27.18-3.41.17a76.48,76.48,0,0,1-12-1c-1.75-.27-3.51-.53-5.23-.84a46.44,46.44,0,0,1-6.56-1.69c-1.32-.47.55-.51,3.08-.15,1.13.18,2.25.33,3.38.49s2.24.36,3.36.51c2.25.33,4.52.6,6.79.86a48.34,48.34,0,0,0,8.34.2c3.07-.16,6.14-.51,9.2-.94q2.83-.39,5.66-.86c2.84-.49,5.71-1,8.53-1.55,2.19-.44,4.31-1,6.49-1.43.48-.1.94-.21,1.43-.29,1.81-.25,2.42-.16,2.87.24a1.89,1.89,0,0,1,.29.26c.21.28-.47.72-1.75,1.08-3.8,1.08-7.87,1.85-12,2.59-3.06.54-6.15,1-9.24,1.49Z"/><path class="cls-1" d="M404.64,81q-.39,4.17-1,8.3c-.14,1-.24,2-.42,3-.61,3.53-1.38,7-2.2,10.5l-1.05,4.64a27.34,27.34,0,0,1-1.87,5.81c-.28.58-.67.33-.95-.32a4.8,4.8,0,0,1-.21-2.82c.81-3.93,1.77-7.86,2.74-11.86a72.13,72.13,0,0,0,1.18-7.42c.38-2.74.73-5.48,1-8.23.16-1.69.33-3.39.42-5.08a68.32,68.32,0,0,0,.11-7.7,25.32,25.32,0,0,0-.32-2.92c-.17-.95-.26-1.93-.5-2.85-.09-.41-.2-.8-.27-1.22-.32-1.51-.35-2,.16-2.54.1-.12.17-.26.25-.34.2-.25,1,.17,1.5,1.36a22.58,22.58,0,0,1,1.49,5.48c.17,1,.19,1.9.27,2.85s.09,1.91.09,2.87v2.12L405,76.73c0,1.42-.16,2.83-.26,4.23Z"/><path class="cls-1" d="M466.29,81.2c-.13,2.77-.39,5.52-.68,8.27l-.33,3c-.49,3.52-1.17,7-2,10.45-.37,1.53-.71,3.07-1.1,4.58a47.19,47.19,0,0,1-1.87,5.72c-.46,1.16-.53-.54-.08-2.77l.6-3c.22-1,.48-2,.68-3,.43-2,.83-4,1.23-6,.47-2.4.76-4.92,1-7.41.31-2.72.51-5.46.66-8.21.07-1.69.14-3.38.14-5.07,0-2.56,0-5.14-.22-7.67-.14-2-.49-3.89-.75-5.82-.06-.43-.16-.84-.21-1.27-.16-1.6-.07-2.12.34-2.53a3.43,3.43,0,0,1,.26-.27c.29-.2.71.41,1,1.57a46.62,46.62,0,0,1,1.38,10.94c0,1.39.07,2.79,0,4.19s-.06,2.79-.11,4.19Z"/><path class="cls-1" d="M418.61,145.9c3,.32,6.06.57,9.1.73,1.11.07,2.22,0,3.33.1,3.92.14,7.84.33,11.76.27,1.74,0,3.48-.16,5.2-.26,1.1-.09,2.2-.2,3.29-.33a25.91,25.91,0,0,0,3.23-.55c.63-.17.65,0,.17.43a7.29,7.29,0,0,1-2.77,1.36,43.53,43.53,0,0,1-6.84,1.19c-2.29.18-4.59.27-6.9.23-2.76,0-5.63.05-8.45,0-3.09-.08-6.19-.24-9.28-.47-1.91-.14-3.81-.3-5.71-.5-2.87-.29-5.75-.69-8.6-1.11-2.21-.33-4.41-.56-6.63-1.09a11.35,11.35,0,0,1-1.47-.38,5.18,5.18,0,0,1-1.8-1,1.7,1.7,0,0,1-.44-1.08,2.35,2.35,0,0,1,0-.46c0-.21.27-.3.64-.32a4.52,4.52,0,0,1,1.47.13c3.55.83,7.57,1.48,11.6,2,3,.4,6.05.74,9.1,1Z"/><path class="cls-1" d="M453.31,190c-.71,2.79-1.57,5.54-2.53,8.26-.51,1.36-1,2.71-1.6,4L448,205s0,.08-.05.1h-.35l-.47,0-.94,0-1.16,0c-2,.1-4.08.31-6.13.47-7.23.56-14.53,1.28-21.88,1.19a50.19,50.19,0,0,1-9.78-.88,122.59,122.59,0,0,1-11.94-3.37c-1.23-.4-1-.61.14-.61a34,34,0,0,1,5.46.68c2.05.44,4.11.83,6.14,1.19a37.33,37.33,0,0,0,6.06.76,118.43,118.43,0,0,0,12.47-.21c5-.28,10.26-1,15.46-1.47,1.42-.12,2.86-.22,4.3-.29l.49,0h.4l.08-.18.09-.19.19-.44.41-1a78.9,78.9,0,0,0,2.72-8,102.72,102.72,0,0,0,2.35-10.17,122.42,122.42,0,0,0,1.85-15.7c.19-4.08,0-8.08-.13-12.09-.06-.89-.11-1.75-.17-2.64,0-3.31.07-4.37.76-5.14a3.8,3.8,0,0,1,.43-.5c.45-.36,1,1,1.47,3.41a90.09,90.09,0,0,1,.13,22.81,122,122,0,0,1-3,17.12Z"/><path class="cls-1" d="M428.79,208.81c-2.66.13-5.33.21-8,.24-1,0-1.95.07-2.93,0A50.29,50.29,0,0,1,407.59,208l-4.42-1.12c-1.87-.49-3.71-1.09-5.55-1.65-.57-.18-.45-.33.09-.4a10.61,10.61,0,0,1,2.61.14c3.92.61,7.61,2,11.45,2.29a59.1,59.1,0,0,0,7.19.19c2.65,0,5.31-.16,8-.31,1.64-.1,3.28-.21,4.91-.34,2.48-.19,5-.38,7.43-.64,1.91-.2,3.78-.51,5.67-.71.42,0,.83-.11,1.25-.14,1.57-.05,2.09.1,2.44.54a1.94,1.94,0,0,1,.23.29c.16.3-.46.67-1.58.89a90.88,90.88,0,0,1-10.46,1.28c-2.65.22-5.34.38-8,.55Z"/><path class="cls-1" d="M398.72,161.66c-.36,2-.74,4-1.23,6-.17.72-.26,1.46-.45,2.17-.65,2.52-1.42,5-2.14,7.49-.34,1.09-.57,2.22-.87,3.32a22,22,0,0,1-1.34,4.19c-.2.42-.62.23-1-.27a3,3,0,0,1-.5-2.14,57.48,57.48,0,0,1,2.29-8.58,48.91,48.91,0,0,0,1.21-5.32c.4-2,.82-3.92,1.18-5.89.22-1.21.43-2.42.58-3.64a43.24,43.24,0,0,0,.45-5.54,31.31,31.31,0,0,0-.44-4.17c-.05-.3-.12-.59-.16-.89-.15-1.1-.09-1.46.47-1.87l.29-.25c.23-.19.94.12,1.3,1a16.35,16.35,0,0,1,1,4.06,31,31,0,0,1,0,4.2c-.1,2.07-.37,4.13-.67,6.16Z"/><path class="cls-1" d="M459.37,173.52c-.39,2.74-.91,5.45-1.46,8.16l-.61,3c-.82,3.45-1.83,6.86-3,10.22-.5,1.49-1,3-1.52,4.46a47.3,47.3,0,0,1-2.4,5.51c-.57,1.12-.48-.58.18-2.77l.88-2.9c.31-1,.66-1.91.95-2.88.62-1.92,1.2-3.86,1.8-5.82.69-2.33,1.22-4.82,1.7-7.27.57-2.69,1-5.4,1.43-8.11.23-1.68.46-3.36.62-5,.25-2.55.47-5.12.51-7.66,0-2-.12-3.92-.2-5.87,0-.42-.07-.84-.09-1.28,0-1.6.13-2.12.58-2.48a2.05,2.05,0,0,1,.29-.25c.31-.17.67.47.88,1.66a46.47,46.47,0,0,1,.33,11q-.12,2.09-.36,4.17c-.13,1.39-.31,2.78-.5,4.16Z"/><path class="cls-1" d="M309.46,144.68c3,.32,6.06.57,9.1.74,1.11.06,2.22,0,3.33.09,3.91.15,7.84.33,11.76.28,1.74,0,3.48-.17,5.19-.27,1.11-.08,2.21-.2,3.3-.33a26.06,26.06,0,0,0,3.22-.54c.64-.18.66,0,.18.43a7.28,7.28,0,0,1-2.78,1.35,43.41,43.41,0,0,1-6.83,1.19q-3.45.28-6.9.23c-2.76,0-5.63.05-8.45,0-3.1-.08-6.19-.24-9.29-.46q-2.85-.21-5.7-.5c-2.88-.3-5.75-.7-8.6-1.12-2.22-.33-4.42-.56-6.64-1.08a13.67,13.67,0,0,1-1.46-.38,5.07,5.07,0,0,1-1.8-1,1.68,1.68,0,0,1-.44-1.08,2.32,2.32,0,0,1,0-.45c.05-.22.28-.3.65-.33a4.82,4.82,0,0,1,1.47.13c3.55.83,7.56,1.49,11.6,2,3,.4,6.05.74,9.1,1Z"/><path class="cls-1" d="M343.39,191.87a85.72,85.72,0,0,1-3.06,8.76l-1.15,2.63-.21.47-.1.23c0,.08-.16,0-.23,0l-1,.06-1.51.05c-1.49.06-3,.15-4.5.26-2.19.17-4.38.43-6.59.61-7.77.62-15.65,1.37-23.56.43-3.48-.46-6.91-1.12-10.28-1.89a61.5,61.5,0,0,1-12.63-4.3c-1.24-.63-.94-.79.23-.58.59.1,1.4.27,2.37.5s2.11.46,3.32.78c2.15.58,4.34,1,6.52,1.48s4.36.91,6.55,1.28c1.1.19,2.2.35,3.3.5s2.16.26,3.27.31c2.2.13,4.43.16,6.67.12,5.38-.08,11-.83,16.51-1.38,3.05-.29,6.11-.58,9.2-.72H337c.1,0,.09-.1.13-.15l.1-.21.41-1c.15-.35.31-.69.43-1,.54-1.41,1.07-2.81,1.52-4.26a96.81,96.81,0,0,0,2.83-10.8,124.05,124.05,0,0,0,2.22-16.8c.25-4.36.15-8.65,0-13,0-.95-.13-1.88-.16-2.83,0-3.55.06-4.68.75-5.5a4.23,4.23,0,0,1,.42-.54c.46-.37,1.07,1.05,1.49,3.67a58.18,58.18,0,0,1,.59,5.95q.19,3,.16,6.09c-.06,4.1-.35,8.25-.82,12.4a122.16,122.16,0,0,1-3.59,18.29Z"/><path class="cls-1" d="M315.27,207.91c-3,.08-6,.1-9.06,0-1.11-.06-2.21-.06-3.32-.18a79.32,79.32,0,0,1-11.45-2.21c-1.67-.42-3.34-.84-5-1.3a46.55,46.55,0,0,1-6.18-2.25c-1.24-.59.58-.47,3,.11,1.07.28,2.15.52,3.22.78s2.13.56,3.21.82c2.14.52,4.31,1,6.48,1.47a47.17,47.17,0,0,0,8.05,1c3,.16,6,.13,9,0,1.85-.06,3.71-.14,5.55-.25,2.81-.18,5.62-.36,8.4-.64,2.16-.22,4.27-.56,6.4-.81.47-.06.93-.13,1.4-.18,1.77-.1,2.35,0,2.76.45a3.43,3.43,0,0,1,.27.28c.19.3-.5.69-1.77,1a91.3,91.3,0,0,1-11.86,1.46c-3,.22-6.06.37-9.1.49Z"/><path class="cls-1" d="M288.87,166.23q-.8,4.13-1.81,8.17c-.24,1-.44,2-.71,3-.94,3.45-2,6.86-3.18,10.25q-.75,2.26-1.48,4.52a28,28,0,0,1-2.42,5.61c-.33.54-.7.26-.92-.42a4.86,4.86,0,0,1,.06-2.82c1.18-3.84,2.51-7.66,3.85-11.55a71.19,71.19,0,0,0,1.88-7.28c.64-2.69,1.25-5.38,1.81-8.09.32-1.67.64-3.34.9-5a71.14,71.14,0,0,0,.83-7.66,26,26,0,0,0,0-2.93c-.08-1-.08-1.94-.23-2.88-.05-.42-.12-.82-.16-1.24-.17-1.54-.15-2,.41-2.52.11-.11.19-.24.28-.31.22-.23.95.26,1.36,1.5a22.9,22.9,0,0,1,1,5.59c.07,1,0,1.91,0,2.86s-.08,1.91-.18,2.86l-.2,2.12-.28,2.1c-.18,1.41-.43,2.8-.66,4.19Z"/><path class="cls-1" d="M350.53,172.22c-.33,2.74-.77,5.46-1.24,8.17l-.52,3c-.73,3.47-1.64,6.89-2.68,10.27-.48,1.49-.93,3-1.44,4.47a44.06,44.06,0,0,1-2.34,5.53c-.57,1.11-.48-.59.16-2.77l.84-2.9c.29-1,.63-1.9.9-2.88.57-1.92,1.11-3.87,1.65-5.83.63-2.35,1.08-4.84,1.49-7.29.49-2.69.87-5.41,1.21-8.13.18-1.67.37-3.35.49-5,.2-2.55.36-5.11.36-7.65,0-2-.16-3.91-.26-5.85,0-.43-.06-.85-.1-1.28,0-1.6.13-2.11.58-2.48a2,2,0,0,1,.29-.24c.3-.17.66.47.88,1.65a49.83,49.83,0,0,1,.45,11c-.06,1.38-.14,2.77-.27,4.16s-.25,2.77-.41,4.15Z"/><path class="cls-1" d="M378,207.27c10.74-8,20.4-17.41,31.24-25.29,1.93-1.41.06-4.66-1.9-3.24-10.84,7.88-20.5,17.27-31.23,25.29-1.91,1.43,0,4.68,1.89,3.24Z"/><path class="cls-1" d="M381.84,88.09C380.92,88,380,88,379.06,88c-.34,0-.67.06-1,.06-1.2,0-2.42,0-3.62,0a12.27,12.27,0,0,0-1.6.2,6.35,6.35,0,0,1-2,.25c-.44,0-.15-1.77.63-1.94a17.2,17.2,0,0,1,4.25-.34c.87,0,1.75-.14,2.63-.16s1.93,0,2.9,0l1.78.1c.91,0,1.81.16,2.7.23.7.07,1.39,0,2.09.13a3.41,3.41,0,0,1,.46,0c.57.12.72.28.73.75,0,.1,0,.21,0,.31a.72.72,0,0,1-.73.61,26,26,0,0,1-3.64,0c-.91-.06-1.83-.14-2.75-.16Z"/><path class="cls-1" d="M391.1,89.3a3.48,3.48,0,0,0,1-1.77,1.55,1.55,0,0,0-.15-.59,5.2,5.2,0,0,0-2.19-2.34,13.88,13.88,0,0,0-1.48-.79,4.58,4.58,0,0,1-1.9-1.23c-.16-.2.17-.52.59-.76s.91-.44,1.23-.27A15.92,15.92,0,0,1,392,83.93a6.9,6.9,0,0,1,2,2.54,3.4,3.4,0,0,1,0,2,5.35,5.35,0,0,1-.81,1.58,11.83,11.83,0,0,1-1.34,1.47c-.7.67-1.48,1.24-2.21,1.82-.58.44-1.11.94-1.69,1.37a2.66,2.66,0,0,1-.38.28c-.5.32-.74.29-1.08,0a2.39,2.39,0,0,1-.23-.22.75.75,0,0,1,.11-1,20.21,20.21,0,0,1,2.68-2.71,17,17,0,0,0,1.95-1.8Z"/><path class="cls-1" d="M371.06,172.36c1,.08,1.94.19,2.89.31.35,0,.7,0,1.05.09,1.22.2,2.43.48,3.63.73a14.47,14.47,0,0,0,1.61.21,6.17,6.17,0,0,1,2,.36c.41.18-.38,1.73-1.17,1.66A23.34,23.34,0,0,1,377,175a16.47,16.47,0,0,0-2.54-.31c-.93-.11-1.86-.22-2.8-.29-.58,0-1.15-.08-1.73-.09a20.42,20.42,0,0,0-2.6.08,14,14,0,0,0-1.94.45l-.41.12c-.52.12-.71,0-.94-.37a2.49,2.49,0,0,1-.15-.28.68.68,0,0,1,.4-.86,9.54,9.54,0,0,1,3.81-1.11c1-.06,2,0,3,0Z"/><path class="cls-1" d="M359.63,177.77a8,8,0,0,1-.84-1.59,4.16,4.16,0,0,1-.27-2,3.49,3.49,0,0,1,.46-1.46,7.45,7.45,0,0,1,3.44-2.57,16.47,16.47,0,0,0,1.51-.78,12.52,12.52,0,0,1,1.76-1c.19-.07.48.29.6.76a1.29,1.29,0,0,1-.34,1.34,27.32,27.32,0,0,1-3.86,1.94,2.88,2.88,0,0,0-1.41,1.53,2.46,2.46,0,0,0,.34,2,7.85,7.85,0,0,0,1,1.35,12.91,12.91,0,0,0,2,1.81,19,19,0,0,0,1.78,1.06c.13.08.27.13.4.22.47.31.56.51.43,1a2.29,2.29,0,0,1-.09.31c-.13.33-.48.46-.93.35a9.62,9.62,0,0,1-3.71-1.83,13.23,13.23,0,0,1-2.27-2.38Z"/><path class="cls-1" d="M322.9,73.74c1.32,0,2.64-.06,4-.14.48,0,.95-.12,1.44-.15,1.7-.11,3.4-.22,5.11-.38.75-.08,1.51-.19,2.25-.31a14.8,14.8,0,0,1,2.89-.33c.62,0,.06,1.54-1,1.79s-1.94.37-2.93.51-2,.16-3,.18c-1.2,0-2.43.26-3.65.36s-2.7.2-4.05.26c-.83,0-1.67,0-2.5.06-1.26,0-2.53,0-3.79,0-1,0-1.94.07-2.91,0a4.73,4.73,0,0,1-.65,0c-.79-.13-1-.35-1.13-.74a1.31,1.31,0,0,1-.06-.27c0-.28.32-.48.9-.59.85-.1,1.71-.15,2.58-.21l2.61,0c1.31,0,2.63,0,3.95,0Z"/><path class="cls-1" d="M329.66,83.52l-2.38,0c-.29,0-.57.08-.86.08-1,0-2.06,0-3.09-.06a10.24,10.24,0,0,0-1.36.08,4.48,4.48,0,0,1-1.75,0c-.36-.09,0-1.57.69-1.67a15.49,15.49,0,0,1,3.48-.16,17.35,17.35,0,0,0,2.15-.13l2.39-.12,1.48-.07c.74,0,1.49-.06,2.23-.15.58-.08,1.13-.26,1.71-.38.13,0,.25-.07.38-.08.48,0,.64.08.75.62,0,.12,0,.24.06.37a.82.82,0,0,1-.46.89,11,11,0,0,1-3,.61c-.78.07-1.58.1-2.37.16Z"/><path class="cls-1" d="M432.49,74.63l-4.58.16c-.56,0-1.11.1-1.67.1-2,0-3.94,0-5.91-.07-.88,0-1.76,0-2.63,0a9.46,9.46,0,0,1-3.43-.36c-.36-.14-.17-.49.2-.81a2.34,2.34,0,0,1,.64-.41,1.66,1.66,0,0,1,.83-.19c2.14.08,4.4,0,6.66.12,1.36.06,2.76-.11,4.15-.16l4.59-.2,2.82-.16c1.42-.1,2.85-.18,4.26-.34,1.09-.13,2.15-.4,3.23-.55l.71-.11a2.38,2.38,0,0,1,1,0,1,1,0,0,1,.47.44c0,.09.12.17.16.26s0,.28-.15.44a1.48,1.48,0,0,1-.7.44,21.78,21.78,0,0,1-2.94.73c-1,.15-2,.27-3.06.37-1.53.14-3.07.23-4.61.33Z"/><path class="cls-1" d="M429.92,83l-3.27,0c-.4,0-.8,0-1.19,0-1.41,0-2.82-.07-4.23-.14-.62,0-1.25,0-1.86,0a11.92,11.92,0,0,1-2.39-.05c-.5-.08.13-1.12,1-1.21a37.27,37.27,0,0,1,4.85-.13,27,27,0,0,0,3,0l3.3,0h2c1,0,2.06,0,3.07,0,.8,0,1.57-.1,2.35-.13a4.51,4.51,0,0,1,.52,0c.64,0,.85.14,1,.38,0,.06.07.11.09.16s-.2.34-.67.46a28.89,28.89,0,0,1-4.31.67,11.19,11.19,0,0,1-1.64.08l-1.65,0Z"/><path class="cls-1" d="M316.39,161.79c-1.33,0-2.68.06-4,.05-.49,0-1,.07-1.48,0a38.37,38.37,0,0,1-5.23-.48l-2.32-.32-1.48-.25a5.87,5.87,0,0,1-1.41-.54c-.28-.15-.09-.58.3-.94a1.69,1.69,0,0,1,1.44-.57c1.82.38,3.68.59,5.61.91a19.36,19.36,0,0,0,3.58.1c1.32,0,2.65,0,4-.08l2.47-.1c1.25-.07,2.52-.07,3.76-.15,1-.05,1.92-.2,2.89-.26.22,0,.43-.05.64,0,.8,0,1.06.17,1.21.6,0,.1.08.2.1.3.06.33-.27.6-.84.73-1.67.35-3.41.56-5.18.78-1.32.18-2.66.17-4,.27Z"/><path class="cls-1" d="M312.83,169.61l-3-.23c-.36,0-.73,0-1.1,0-1.29-.09-2.59-.26-3.88-.39-.57-.05-1.15-.05-1.72-.05a7.39,7.39,0,0,1-2.2-.13c-.46-.12.17-1.56,1-1.6a24.83,24.83,0,0,1,4.47.2c.9.13,1.84.07,2.76.11l3,.17,1.87.1c.94.07,1.89.15,2.83.16.73,0,1.45-.07,2.17-.08.16,0,.32,0,.48,0,.59,0,.78.15.89.53a2.58,2.58,0,0,1,.08.26c0,.29-.21.52-.65.62-.64.15-1.3.26-2,.35s-1.35.08-2,.1c-1,0-2,0-3,0Z"/><path class="cls-1" d="M310.57,178.64c-.35-.06-.7-.18-1.07-.26-.13,0-.26,0-.4,0a7.72,7.72,0,0,0-1.44-.23,2,2,0,0,0-.63.08,1.18,1.18,0,0,1-.81.12c-.19-.07-.34-1.63,0-1.74a3.33,3.33,0,0,1,1.88-.05,6.21,6.21,0,0,0,1.14,0,7.41,7.41,0,0,1,1.24.18l.74.19,1.11.3c.28.07.58.06.87.11l.2,0c.22.08.27.2.21.54l-.05.24a.64.64,0,0,1-.4.49,4.74,4.74,0,0,1-1.54.19l-1.07-.15Z"/><path class="cls-1" d="M421.23,162.71c1.32.17,2.65.29,4,.37.49,0,1,0,1.47,0l5.2.26c.77,0,1.55,0,2.31,0a12.83,12.83,0,0,1,3,0c.61.1-.17,1.61-1.28,1.7a38.06,38.06,0,0,1-6,0c-1.22-.13-2.48,0-3.73-.07s-2.75-.14-4.12-.27c-.85-.08-1.69-.18-2.54-.28-1.28-.16-2.55-.41-3.81-.61-1-.18-2-.26-2.95-.45-.22,0-.44-.06-.65-.12-.79-.23-1-.45-1-1,0-.13,0-.26,0-.38.08-.42.5-.64,1.07-.57,1.69.18,3.38.55,5.14.81,1.3.21,2.61.4,3.94.52Z"/><path class="cls-1" d="M422.59,175.55a16.35,16.35,0,0,0,2,.33c.24,0,.49,0,.73,0,.87.06,1.75.05,2.65,0,.4,0,.8,0,1.2-.08a5.6,5.6,0,0,1,1.53,0c.32.05-.09.8-.64.88a29.64,29.64,0,0,1-3,.28c-.62,0-1.27.16-1.92.19a15.41,15.41,0,0,1-2.15,0c-.44,0-.88-.07-1.31-.13-.66-.09-1.3-.23-1.95-.3s-1-.07-1.5-.13a1.86,1.86,0,0,1-.33,0c-.4-.08-.51-.21-.53-.57,0-.09,0-.17,0-.25a.59.59,0,0,1,.53-.53,8,8,0,0,1,2.75,0c.67.09,1.34.19,2,.33Z"/><path class="cls-1" d="M214.75,220.94c-2.52-.15-5.27,0-6.82-2.32-1.14-1.74-4-.11-2.8,1.64,2.3,3.51,5.78,3.71,9.62,3.93,2.09.12,2.08-3.13,0-3.25Z"/><path class="cls-1" d="M208.17,156.17c.5-.11.82.43.85,1.29a2.32,2.32,0,0,1-.39,1.11c-.26.17-.49.35-.69.47a11.42,11.42,0,0,0-2.53.73,12.19,12.19,0,0,1-1.81.64c-1.25.36-2.55.75-3.83,1.23a3.9,3.9,0,0,1-.9.19,7.61,7.61,0,0,0-3.05,1c-.15.08-.33.13-.43.35a13.19,13.19,0,0,1-3.15,1.69c-1,.14-1.88.46-2.85.67-.14,0-.24.13-.44,0a.94.94,0,0,0-1,0,9.11,9.11,0,0,1-1.22.36,2.38,2.38,0,0,1-.76-.1c-.24,0-.46-.55-.44-.64.07-.25-.2-.39-.34-.58a1.86,1.86,0,0,1-.14-.2,15.1,15.1,0,0,1,1.67-2.61c0-.15,3.06-2.12,3.41-2.36a1.32,1.32,0,0,1,.63-.18c.1,0,2.6-1.57,2.73-1.6a3.38,3.38,0,0,1,1.79-.45.56.56,0,0,0,.36-.09,14.79,14.79,0,0,1,3-.89c.52-.13,1-.34,1.57-.47a1.07,1.07,0,0,1,.31,0,1.22,1.22,0,0,0,.38,0c1.25-.38,2.61-.31,3.95-.57.33,0,1.85.34,2.24.38C207.37,155.59,208,156.2,208.17,156.17Z"/><path class="cls-1" d="M210.24,180.19c.06.23.11-.77.08-1.44a19.21,19.21,0,0,0-.24-2.23,1.82,1.82,0,0,0-.1-.41.72.72,0,0,1,0-.21s0-.16-.05-.14h-.47l-.35.06-.7.13-2.78.54a26.3,26.3,0,0,0-2.65.66,19.28,19.28,0,0,1-3.35.91c-.37,0-.49-.44-.37-1a2.2,2.2,0,0,1,1.15-1.54,24.88,24.88,0,0,1,7-1.92l.78-.12.38-.09.5-.12c.86-.24,1.74-.51,2.63-.78a18.23,18.23,0,0,1,.68,1.85,16.92,16.92,0,0,1,.66,3,15.84,15.84,0,0,1,.19,2.6c0,.22,0,.7-.07,1a8.21,8.21,0,0,1-.26,1.06,2.47,2.47,0,0,1-2.63,1.87,2.29,2.29,0,0,1-.73-.13,2.49,2.49,0,0,1-.62-.39,2.43,2.43,0,0,1-.52-.54,3.37,3.37,0,0,1-.44-.65,8.59,8.59,0,0,1-.63-1.33,23.57,23.57,0,0,1-1.12-3.55,8,8,0,0,1-.15-.83,3.72,3.72,0,0,1,0-.68,1.28,1.28,0,0,1,.22-.47.86.86,0,0,1,.34-.28,2.23,2.23,0,0,1,.51-.12,2.47,2.47,0,0,1,.43,0,1.16,1.16,0,0,1,.65.31,1,1,0,0,1,.32.3,1.5,1.5,0,0,1,.22.39c.24.87.5,1.8.78,2.7.14.45.3.88.45,1.3,0,.11.09.2.13.29h0s0,.13.1,0Z"/><path class="cls-1" d="M337,270.65c-.33-1.27-.66-2.55-1.08-3.79-.2-.63-.39-1.26-.6-1.88l-.7-1.85c-.32-.91-.78-1.76-1.16-2.64-.63-1.58-1.41-3.09-2.11-4.65s-1.58-3-2.51-4.46a41.94,41.94,0,0,0-2.63-3.7l-1.86-2.22c-.63-.74-1.29-1.44-1.9-2.2-.77-.94,1.1-.69,2.88.82a36.3,36.3,0,0,1,7.44,9.69c1.18,2.14,2.46,4.35,3.5,6.63.58,1.25,1.06,2.54,1.58,3.81s.94,2.59,1.33,3.91l.72,2.43.62,2.46c.61,2.48,1,5,1.41,7.53.26,2,.7,3.86.84,5.83a11.34,11.34,0,0,1,.08,1.3c-.06,1.62-.33,2.14-1,2.45a2.06,2.06,0,0,1-.42.21c-.47.13-.88-.53-1.14-1.66-.74-3.34-1-6.81-1.66-10.29-.24-1.28-.51-2.57-.78-3.86s-.56-2.58-1-3.85Z"/><path class="cls-1" d="M220.05,358.93q-3.45-.07-6.89-.34c-.83-.07-1.67-.1-2.51-.18a74,74,0,0,1-8.75-1.48l-1.92-.45-1.9-.48a28.33,28.33,0,0,1-4.75-1.63c-1-.43.66-.9,2.44-.34,3.19,1,6.46,1.65,9.78,2.32a56.62,56.62,0,0,0,6.16.74c2.28.19,4.56.32,6.85.37,1.41,0,2.82,0,4.23,0,2.14,0,4.28-.09,6.4-.25,1.64-.13,3.25-.34,4.87-.52l1.06-.13c1.34-.13,1.77-.08,2.1.23a2.08,2.08,0,0,1,.21.21c.16.24-.37.52-1.34.71-1.44.3-2.94.53-4.45.73s-3.08.29-4.63.37c-2.31.12-4.64.13-7,.12Z"/></g></svg>