<svg xmlns="http://www.w3.org/2000/svg" width="520" height="520" viewBox="0 0 520 520"><defs><style>.cls-1{fill:#231f20;}</style></defs><title>Notioly New upgrade</title><g id="n.119_Build" data-name="n.119 Build"><path class="cls-1" d="M306.34,227.9a43.49,43.49,0,0,1-16.21,13.68,47.63,47.63,0,0,1-6.56,2.71,41.35,41.35,0,0,1-10.21,2,44.93,44.93,0,0,1-17.81-3,64.51,64.51,0,0,1-27.36-19.17,53,53,0,0,1-5.76-8.38c-.39-.75-.74-1.53-1.11-2.29a19.48,19.48,0,0,1-1-2.36l-.86-2.39c-.21-.82-.35-1.66-.52-2.49-.34-2.09.08-1.88,1.24-.42.3.36.63.8,1,1.3.1.12.18.26.3.38l.27.42c.2.28.4.58.62.88.42.62.84,1.29,1.25,2s.93,1.45,1.36,2.25c6.09,11.41,16.33,20.42,28.34,25.9a47.43,47.43,0,0,0,11.45,3.55,41.75,41.75,0,0,0,6,.5,41.08,41.08,0,0,0,6-.44,39.89,39.89,0,0,0,12.46-4.28,39.35,39.35,0,0,0,10.55-8A56.29,56.29,0,0,0,309,216.62a117.79,117.79,0,0,0,8.46-23.84c1.59-6.36,2.66-12.72,3.82-19.13.26-1.41.47-2.8.78-4.21a35.68,35.68,0,0,1,1.46-5.53,5.37,5.37,0,0,1,1.54-2.25,5,5,0,0,1,.75-.6c.38-.17.57.31.63,1.32a21.55,21.55,0,0,1-.31,4.48c-1.72,11.46-3.89,23.65-7.58,35.64a107.71,107.71,0,0,1-5,13.13,69,69,0,0,1-7.15,12.31Z"/><path class="cls-1" d="M289,174a96.83,96.83,0,0,1-12.16.31,116,116,0,0,1-12.08-1.06l-4.37-.67c-1.45-.27-2.89-.55-4.33-.84a134.59,134.59,0,0,1-14.93-4.26c-4.89-1.65-9.68-3.51-14.44-5.48-4.21-1.76-8.42-3.61-12.5-5.6-5.22-2.58-10.49-5.21-15.14-8.75-1.31-1.34-1.06-1.26.57-1a26.53,26.53,0,0,1,7.22,2.82A224.77,224.77,0,0,0,239,164a120,120,0,0,0,20.9,5.57,110.68,110.68,0,0,0,23.69,1.81,92.05,92.05,0,0,0,14.54-1.73A77.47,77.47,0,0,0,319,162.31a58.35,58.35,0,0,0,7.14-4.54,44.13,44.13,0,0,0,6.19-5.5,13.43,13.43,0,0,0,1-1.31,4.88,4.88,0,0,0,.53-1.31,27.45,27.45,0,0,0,.6-4.45,4.57,4.57,0,0,1,.67-2.19c.16-.25.27-.58.42-.76.41-.62,1.85,1.24,1.8,5a12.94,12.94,0,0,1-.74,4.34l-.25.58q-.17.3-.36.6c-.23.35-.45.64-.68.94-.46.56-.93,1.08-1.41,1.58a46.85,46.85,0,0,1-6.3,5.31A70,70,0,0,1,313,168.43a87.32,87.32,0,0,1-24,5.64Z"/><path class="cls-1" d="M264.9,81.1a23,23,0,0,0-11.76.15A44,44,0,0,0,241.78,86a53.83,53.83,0,0,0-7.36,5.3c-8.22,6.91-14.81,15.76-20.25,25.15a119.4,119.4,0,0,0-6.44,13c-1.2,2.83-2.29,5.72-3.3,8.62s-2.09,5.82-2.74,8.69a5.33,5.33,0,0,1-.23.85c-.1,0-.1.17-.2.21a.35.35,0,0,1-.42-.18,2.76,2.76,0,0,1-.37-1,18.39,18.39,0,0,1,.86-8.45,126.61,126.61,0,0,1,7.58-17.68,116.26,116.26,0,0,1,10.25-16.35c4.66-6.15,9.93-12.36,16.33-17.17a52.38,52.38,0,0,1,11.43-6.52,34.8,34.8,0,0,1,12.93-2.8A20.53,20.53,0,0,1,268,79.21a16.76,16.76,0,0,1,6.64,5l.95,1.27.8,1.36a9.15,9.15,0,0,1,.7,1.4,15.23,15.23,0,0,1,.62,1.44,32.06,32.06,0,0,1,1.58,6,60.3,60.3,0,0,1,.57,12.13,156.87,156.87,0,0,1-2,18.36c-.22,1.33-.41,2.64-.65,4-.9,5-1.34,6.37-2.16,7.32a3.79,3.79,0,0,0-.45.76c-.12.2-.25.26-.46,0a1.52,1.52,0,0,1-.3-.49,5.37,5.37,0,0,1-.2-.69,15,15,0,0,1,.11-4.37c.76-5.45,1.76-10.91,2.42-16.48a83.11,83.11,0,0,0,.64-16.74c-.05-1-.23-2-.35-3s-.34-2-.62-3A21.16,21.16,0,0,0,273.68,88a17.66,17.66,0,0,0-1.63-2.36l-1-1a9.29,9.29,0,0,0-1.08-.91l-.55-.44-.61-.37c-.42-.22-.8-.51-1.24-.7a17.83,17.83,0,0,0-2.7-1Z"/><path class="cls-1" d="M294.37,100.64a75.81,75.81,0,0,0-.29-13.82,34.92,34.92,0,0,0-1-4.84,22.25,22.25,0,0,0-1.43-4,13.54,13.54,0,0,0-2.35-3.36A17.34,17.34,0,0,0,282,70.37a19.41,19.41,0,0,0-7.61-.68,27.79,27.79,0,0,0-4.79,1c-.75.3-1.55.5-2.29.86-.37.17-.76.31-1.14.46l-1.12.54c-.94.43-1.13,0-.65-1a7.1,7.1,0,0,1,3.65-3.37,23.31,23.31,0,0,1,2.69-1c.46-.13.93-.2,1.4-.29a9.8,9.8,0,0,1,1.41-.21,23.13,23.13,0,0,1,5.7,0,23.51,23.51,0,0,1,5.51,1.48,20,20,0,0,1,4.92,3,18.21,18.21,0,0,1,4.48,5.41,25,25,0,0,1,2.28,6.47,64,64,0,0,1,1.07,14.5q-.12,4.44-.53,8.84c-.41,4.44-1.05,8.87-1.68,13.24-.49,3.4-.89,6.75-1.45,10.1-.13.74-.26,1.46-.44,2.2s-.31,1.24-.45,1.71a8.66,8.66,0,0,1-.52,1.12,3.1,3.1,0,0,1-.93,1.13,3.8,3.8,0,0,1-.42.3c-.4.17-.44-1-.43-3.07.19-1.5.28-3,.51-4.55s.43-3.05.65-4.6c.44-3.09.87-6.22,1.25-9.37.56-4.66,1-9.36,1.22-14Z"/><path class="cls-1" d="M322.05,118.18a86,86,0,0,0-3.31-9.28c-.47-1.1-1.05-2.14-1.56-3.21a35.75,35.75,0,0,0-6.94-10.28,17.23,17.23,0,0,0-4.43-3.09,38.68,38.68,0,0,0-6.57-2.06c-.72-.2-.65-.57,0-1.06a6.86,6.86,0,0,1,1.45-.81,4.66,4.66,0,0,1,2.14-.23,14.28,14.28,0,0,1,4,1.16,15.79,15.79,0,0,1,3.54,2.11,24.15,24.15,0,0,1,5.39,5.91,71.17,71.17,0,0,1,4.87,8.14,81.31,81.31,0,0,1,3.72,9.6c.65,2,1.23,4,1.8,6,.84,3,1.55,6.16,2.32,9.19.61,2.31,1.53,4.5,2.32,6.79.18.51.38,1,.53,1.52.57,1.93.46,2.67-.24,3.23a2.74,2.74,0,0,1-.49.37c-.58.28-1.19-.39-1.72-1.69-.77-1.94-1.58-4-2.31-6.11-.36-1.07-.71-2.17-1-3.31s-.57-2.18-.86-3.27c-.84-3.23-1.7-6.46-2.72-9.62Z"/><path class="cls-1" d="M300,158.42A85.24,85.24,0,0,1,284.87,160c-1.85,0-3.7.12-5.54,0a114.45,114.45,0,0,1-19.22-2.67c-2.81-.58-5.59-1.29-8.36-2-1.75-.48-3.51-1-5.26-1.51a46.32,46.32,0,0,1-5.09-2c-1-.47-.78-.74.27-.85a16.66,16.66,0,0,1,2.09,0,10.57,10.57,0,0,1,2.8.45c1.77.48,3.56.86,5.32,1.38l5.32,1.33,5.37,1.17c1.8.32,3.6.71,5.42,1a81,81,0,0,0,13.44.91,88,88,0,0,0,14.77-1.18,79.71,79.71,0,0,0,8.9-2.06,69.48,69.48,0,0,0,12.8-5.19,64.54,64.54,0,0,0,8.76-5.9c.61-.48,1.19-1,1.84-1.42a11.46,11.46,0,0,1,2.72-1.6,2.82,2.82,0,0,1,.91-.21,2.54,2.54,0,0,1,.77.12,2.18,2.18,0,0,1,.55.21c.17.16,0,.39-.2.86a8.74,8.74,0,0,1-1.53,1.88,58.41,58.41,0,0,1-16.92,11.1,74.81,74.81,0,0,1-14.75,4.66Z"/><path class="cls-1" d="M179.36,173.46a22,22,0,0,1,.21-10.78,19.41,19.41,0,0,1,.5-1.89,15.33,15.33,0,0,1,.65-1.83,24.53,24.53,0,0,1,8.41-10.56,34.7,34.7,0,0,1,5.12-3.07,28.37,28.37,0,0,1,3.49-1.49,22.08,22.08,0,0,1,3.69-.81c.77-.11.75.3.24.89a6.56,6.56,0,0,1-1.1,1,7.7,7.7,0,0,1-1.64,1,15.28,15.28,0,0,1-1.67.72l-1.64.75-1.59.82-1.54.9a30.31,30.31,0,0,0-5.55,4.44,16.54,16.54,0,0,0-2.58,3.52,26.29,26.29,0,0,0-1.76,4.08,21.59,21.59,0,0,0-1.14,9.58l.22,1.48c.13.49.27,1,.41,1.45a19,19,0,0,0,1.07,2.8,23.06,23.06,0,0,0,5.65,7.23,30.77,30.77,0,0,0,5.95,3.86l1.39.68c1.75.85,2.23,1.25,2.34,2.07a3.64,3.64,0,0,1,.07.54c0,.54-1,.66-2.41.16a29.52,29.52,0,0,1-11.59-7.89,23.3,23.3,0,0,1-5.26-9.62Z"/><path class="cls-1" d="M192.83,173.67a12.54,12.54,0,0,1,1.44-3.08,6.44,6.44,0,0,1,.5-.74,6.11,6.11,0,0,1,.67-.74l.7-.61.71-.49a15.09,15.09,0,0,1,6.23-2.23,12.16,12.16,0,0,1,4.9.26,11.09,11.09,0,0,1,1,.4,4.22,4.22,0,0,1,1,.49l.95.59c.29.22.56.48.84.72a9.73,9.73,0,0,1,1.44,1.64,18.69,18.69,0,0,1,1.08,1.83,3,3,0,0,0,2,1.75,1.14,1.14,0,0,0,1-.22,2.57,2.57,0,0,0,.7-1.17,11.16,11.16,0,0,0,.45-3.13,30.39,30.39,0,0,0-.1-3.3c-.22-2.84-.75-5.68-1-8.55-.07-.9.51-.88,1.2-.23a6.77,6.77,0,0,1,1.78,3.65,40.68,40.68,0,0,1,.65,9.16,16,16,0,0,1-.36,2.47,7,7,0,0,1-.44,1.32,3.81,3.81,0,0,1-.35.7,3.67,3.67,0,0,1-.52.69A3.75,3.75,0,0,1,216,176a5,5,0,0,1-2.71-1.47,5.7,5.7,0,0,1-1-1.43l-.62-1.11a4.7,4.7,0,0,0-.68-1l-.38-.46a5.46,5.46,0,0,0-.44-.38,7.43,7.43,0,0,0-4.25-1.79,11.73,11.73,0,0,0-5.33.76,11.22,11.22,0,0,0-2.4,1.27,4.15,4.15,0,0,0-.52.39,3.54,3.54,0,0,0-.44.42,6.18,6.18,0,0,0-.74,1.05,11.94,11.94,0,0,0-1.51,6.58,16.59,16.59,0,0,0,3.88,9.72,14.8,14.8,0,0,0,6.76,4.25l1.7.52c2.16.62,2.83,1,3.2,1.74a3.07,3.07,0,0,1,.24.48c.14.48-.89.76-2.69.62a18,18,0,0,1-7.88-2.8,18.43,18.43,0,0,1-7.35-19.73Z"/><path class="cls-1" d="M343.11,173.36a24.9,24.9,0,0,1-2.56,8.95l-.38.77-.45.78a13.72,13.72,0,0,1-1,1.42,43.91,43.91,0,0,1-8.68,7.61c-1.39.94-2.79,1.91-4.24,2.76a18.41,18.41,0,0,1-6,2.5c-.68.12-.7-.4-.33-1.05a4.93,4.93,0,0,1,.83-1,4.44,4.44,0,0,1,1.3-1A72,72,0,0,0,332,188.25a23.85,23.85,0,0,0,5.07-5.61c.19-.27.33-.55.5-.83s.29-.61.43-.92.3-.62.43-.94l.35-1a23.61,23.61,0,0,0,1-4,23.87,23.87,0,0,0,.28-5.14,23.2,23.2,0,0,0-1.67-7.64,20.41,20.41,0,0,0-3.16-5c-.25-.36-.59-.62-.86-1-1-1.26-1.23-1.73-.92-2.57a4.42,4.42,0,0,1,.16-.51c.17-.43,1.13-.41,2.24.4a18.14,18.14,0,0,1,4,4.64,22.71,22.71,0,0,1,2.47,5.82,27,27,0,0,1,.87,9.39Z"/><path class="cls-1" d="M281.94,270.83a43.76,43.76,0,0,1-12.47-.29c-.75-.14-1.5-.22-2.24-.36s-1.48-.32-2.2-.5a60.82,60.82,0,0,1-14.41-6.28c-1-.56-2-1.14-3-1.74s-2-1.17-2.94-1.79c-1.24-.77-2.52-1.51-3.69-2.39a27.65,27.65,0,0,1-3.26-3c-.64-.67-.32-.89.6-.85a10.89,10.89,0,0,1,1.79.22,7.6,7.6,0,0,1,2.22.73c5,3,9.8,6.21,15,8.87a38.57,38.57,0,0,0,10,3.38,40.74,40.74,0,0,0,11.55.89c.6-.06,1.2-.06,1.79-.15l1.78-.26a30.75,30.75,0,0,0,3.53-.74,25.12,25.12,0,0,0,5.08-1.83,43.16,43.16,0,0,0,4.83-2.61,42.32,42.32,0,0,0,6.56-5.19c.45-.42.82-.87,1.26-1.28,1.7-1.44,2.14-1.87,3.19-1.73.21,0,.44,0,.61,0s.38.33.37.89a4.28,4.28,0,0,1-.84,2,14.75,14.75,0,0,1-2.69,3.14,33.8,33.8,0,0,1-3.17,2.66,49.75,49.75,0,0,1-7.09,4.4,36.75,36.75,0,0,1-5.93,2.49,50.35,50.35,0,0,1-6.23,1.3Z"/><path class="cls-1" d="M78.26,269.39a21.54,21.54,0,0,1,3.27-4.46,30.76,30.76,0,0,1,4-3.6,55.09,55.09,0,0,1,9-5.46,111,111,0,0,1,19.32-7.1c4.81-1.34,9.65-2.52,14.53-3.43a242.14,242.14,0,0,1,52.23-3.71,231.73,231.73,0,0,1,23.16,1.9c9.77,1.36,19.68,3.33,28.73,7.54,2.77,1.41,2.17,1.65-.44,1.21-1.31-.2-3.13-.57-5.29-1s-4.69-.93-7.39-1.65a171.32,171.32,0,0,0-29.4-4.44,272.83,272.83,0,0,0-30-.38,209,209,0,0,0-36.49,4.77A143.86,143.86,0,0,0,104,255.13c-6.27,2.37-12.45,5.24-17.58,9.4-3.12,2.56-5.78,5.72-6.79,9.53A15.77,15.77,0,0,0,81,285.52,32.32,32.32,0,0,0,86.3,293a61.22,61.22,0,0,0,6.93,6.33A118.62,118.62,0,0,0,109,309.63,247.64,247.64,0,0,0,135.3,321.8l5.9,2.34c3.69,1.48,6.12,2.47,7.78,3.3a11.16,11.16,0,0,1,3.2,2.15,6.67,6.67,0,0,1,.84.91c.24.41-.43.41-1.85.08a58.75,58.75,0,0,1-6.34-2c-8.15-3-16.45-6.29-24.68-10.13A166.44,166.44,0,0,1,96.05,305a85.82,85.82,0,0,1-8.25-6.43,47.38,47.38,0,0,1-7.21-7.86,24.18,24.18,0,0,1-4.36-10.18,18,18,0,0,1,2-11.15Z"/><path class="cls-1" d="M424.3,311.78a272.26,272.26,0,0,0-25.3-17c-3.18-1.92-6.48-3.63-9.72-5.45a348.66,348.66,0,0,0-35.52-16.88c-2.7-1.1-5.42-2.17-8.16-3.16s-5.49-2-8.22-2.92c-3.51-1.21-7.08-2.29-10.61-3.47s-7.07-2.31-10.52-3.76c-2.12-1-1.74-1.19.33-1.26a39.83,39.83,0,0,1,4.22.14,31.81,31.81,0,0,1,5.74,1.19c3.68,1.05,7.29,2.3,10.9,3.55s7.2,2.58,10.77,4c7.13,2.8,14.21,5.78,21.15,9.14,8.31,4,17,8.08,25.22,12.69a278.06,278.06,0,0,1,26.25,16.66c5.19,3.71,10.25,7.62,15.12,11.76,3.68,3.14,7.25,6.42,10.62,9.93a46.61,46.61,0,0,1,8.58,11.88,29,29,0,0,1,1.9,5.44,22.4,22.4,0,0,1,.53,5.78,17.05,17.05,0,0,1-1.18,5.8,13.39,13.39,0,0,1-3.62,4.9,18.25,18.25,0,0,1-4.45,2.81,20.24,20.24,0,0,1-6.53,1.69,5.08,5.08,0,0,1-3-.54,4.84,4.84,0,0,1-.93-.57c-.66-.74,1.78-1.43,5.79-2.6a17.42,17.42,0,0,0,7.68-4.31c2-2,2.75-4.75,2.85-7.86a19.89,19.89,0,0,0-1.89-9,37.06,37.06,0,0,0-5.36-8.14,109.17,109.17,0,0,0-10.74-10.65c-3.83-3.38-7.82-6.59-11.91-9.67Z"/><path class="cls-1" d="M161.37,312.62a26.13,26.13,0,0,1,6-8.66l1.46-1.27c.5-.41,1-.78,1.57-1.14A24.32,24.32,0,0,1,183.22,298a39.08,39.08,0,0,1,5.83.33,17.39,17.39,0,0,1,7.13,2.3c.69.49.28.79-.49.92a8.41,8.41,0,0,1-3.22-.07c-1.13-.26-2.29-.43-3.44-.58s-2.32-.27-3.49-.31a33.37,33.37,0,0,0-7,.41,17.86,17.86,0,0,0-7.74,3.48,21.25,21.25,0,0,0-6,7.24,25.47,25.47,0,0,0-1.25,2.7c-.38.92-.65,1.89-1,2.84a44.35,44.35,0,0,0-1.49,9c0,1.18,0,2.36,0,3.53l.23,3.5c0,.52.1,1,.13,1.54s0,.88,0,1.22a4.29,4.29,0,0,1-.14.85,1.91,1.91,0,0,1-.56,1,3.13,3.13,0,0,1-.33.31c-.35.22-.79-.54-1.24-2a38.53,38.53,0,0,1-.83-6.62c0-1.14-.06-2.28,0-3.44l.3-3.47a40.1,40.1,0,0,1,2.66-10.16Z"/><path class="cls-1" d="M425.26,347.23a39.16,39.16,0,0,0-.2-6.51c-.1-.78-.32-1.52-.48-2.27-.51-2.64-1.57-5.19-3.66-6.67a6.79,6.79,0,0,0-3.22-1,37.4,37.4,0,0,0-4.62.39c-.49,0-.61-.52-.33-1.17a3.06,3.06,0,0,1,.72-1,2.4,2.4,0,0,1,1.29-.67,10.77,10.77,0,0,1,5.83.22,8.83,8.83,0,0,1,2.72,1.5,9.43,9.43,0,0,1,1.95,2.3,21.37,21.37,0,0,1,2.65,6.26,36.42,36.42,0,0,1,.72,7.08c0,1.45,0,2.88-.06,4.31-.08,2.16-.29,4.32-.41,6.45-.1,1.65,0,3.29,0,4.92a9.37,9.37,0,0,1,0,1.06c-.14,1.32-.45,1.65-1.28,1.92-.19.06-.38.14-.56.18-.62.16-1.17-.47-1.4-1.52a21.66,21.66,0,0,1-.3-4.53c0-1.5.09-3,.21-4.51.16-2.23.35-4.46.37-6.67Z"/><path class="cls-1" d="M356.81,327.34c2-.93,3.93-1.82,6-2.64,1-.41,2-.8,3.18-1.14a13.26,13.26,0,0,1,3.6-.45,20.52,20.52,0,0,1,5,.6,27.43,27.43,0,0,1,4.1,1.38l3.77,1.7a72.16,72.16,0,0,0,7.62,2.78,58.7,58.7,0,0,0,7,1.59c1.52.26,3.06.45,4.6.69A17.62,17.62,0,0,1,406.3,333c1,.45.6.81-.31,1.07a13.56,13.56,0,0,1-1.77.43,9.72,9.72,0,0,1-1.15.15,9.31,9.31,0,0,1-1.27-.08c-3.12-.41-6.34-.89-9.5-1.63a52.83,52.83,0,0,1-9.29-3c-.89-.41-1.81-.77-2.71-1.19l-1.36-.61c-.45-.19-.86-.38-1.3-.55a26.29,26.29,0,0,0-5.39-1.48,12.73,12.73,0,0,0-5.81.19,60.92,60.92,0,0,0-5.86,2.37c-2.38,1.1-4.75,2.25-7.06,3.51-1.74.95-3.48,1.93-5.15,3a29.91,29.91,0,0,0-4.66,3.51,7.74,7.74,0,0,0-.7.76,2.79,2.79,0,0,0-.35.52,1.3,1.3,0,0,0-.14.57.8.8,0,0,0,.4.41,1.54,1.54,0,0,0,1.08,0,11.49,11.49,0,0,0,1.93-.68c.59-.25,1.15-.56,1.74-.85s1-.5,1.41-.67a6.28,6.28,0,0,1,1.05-.34,2.32,2.32,0,0,1,1.38,0,1.78,1.78,0,0,1,.48.22c.17.16.07.38-.23.73a10.27,10.27,0,0,1-1.59,1.43A28.22,28.22,0,0,1,346.4,343a11.15,11.15,0,0,1-1.11.44l-.6.19-.42.1a4.61,4.61,0,0,1-.5.07,4,4,0,0,1-3.5-1,4.23,4.23,0,0,1-.54-.72,1.51,1.51,0,0,1-.31-.82,3.25,3.25,0,0,1,0-.44l.05-.44a2.81,2.81,0,0,1,.27-.9,4.32,4.32,0,0,1,.19-.45l.28-.43a8.07,8.07,0,0,1,.59-.85l.49-.56.44-.44a27.65,27.65,0,0,1,3.61-2.92,91.32,91.32,0,0,1,11.46-6.54Z"/><path class="cls-1" d="M353.61,347.48a18.43,18.43,0,0,1-5.59,1.26,8.13,8.13,0,0,1-1.61-.11,4.71,4.71,0,0,1-1.91-.74,3,3,0,0,1-1.28-1.8,3.46,3.46,0,0,1,.28-2.19c.13-.21.26-.49.38-.66s.24-.34.39-.51.31-.32.48-.47l.41-.34a16.67,16.67,0,0,1,1.63-1.18,123.94,123.94,0,0,1,11.9-6.52l1.39-.65.74-.3a6,6,0,0,1,.89-.24l3-.5c1.26-.2,2.52-.43,3.82-.52.65,0,1.3-.05,2,0l1,.09a7.29,7.29,0,0,1,1,.34c.46.18.61.43.52.58s-.38.29-.72.5a12.9,12.9,0,0,1-1.33.8,6.27,6.27,0,0,1-1.82.54c-1.22.18-2.47.27-3.72.46l-1.88.25-.94.14a5.29,5.29,0,0,0-.74.13,14.48,14.48,0,0,0-1.52.61l-1.71.8-3.46,1.68a60.67,60.67,0,0,0-8,4.91c-1.41,1-1.65,1.67-1,2.05a1.82,1.82,0,0,0,.32.12c.16,0,.31.08.49.1a5.84,5.84,0,0,0,1.11,0c.38,0,.78-.1,1.18-.15s.79-.19,1.19-.28a32.6,32.6,0,0,0,5.8-2.37c1.43-.72,2.86-1.5,4.29-2.29s2.85-1.59,4.4-2.3a8.36,8.36,0,0,1,1-.39,5,5,0,0,1,.54-.16l.64-.09,1.88,0,3.74-.07c.54,0,1.08,0,1.64,0a7.29,7.29,0,0,1,2.16.24,1.91,1.91,0,0,1,.94.81,3.3,3.3,0,0,1,.27.47c.09.25-.08.47-.46.69a3.85,3.85,0,0,1-1.72.47c-2.23.17-4.51.23-6.83.23h-1.64c0,.1,0-.86,0-.45h0v.37c0,.11,0,.09,0,.09h-.07l-.25.08-.28.1-.34.15c-.92.4-1.94.95-2.95,1.51a81,81,0,0,1-9.59,4.81Z"/><path class="cls-1" d="M369.27,347.26c-1.37.53-2.88,1.19-4.39,1.75-.56.2-1.07.49-1.66.66a14.49,14.49,0,0,1-6.5.73,3.44,3.44,0,0,1-.76-.16,7.25,7.25,0,0,1-.76-.22,5.46,5.46,0,0,1-1.41-.8l-.42-.32-.31-.26a3,3,0,0,1-.76-.9,2.36,2.36,0,0,1-.26-1.29,2.81,2.81,0,0,1,.3-1c.19-.37.7-.11,1.18.31l.68.62a1.37,1.37,0,0,0,.27.19.12.12,0,0,0,.09,0h0l-.07,0,0,0c.07,0,.06,0,.07,0l.12.1a6.61,6.61,0,0,0,.59.48,3,3,0,0,0,.91.48,8.45,8.45,0,0,0,2.71.27,11.56,11.56,0,0,0,3.85-1c1.43-.52,2.85-1.13,4.3-1.77a16.18,16.18,0,0,1,2.94-1,23.57,23.57,0,0,1,4.61-.47c1.16,0,2.3-.19,3.43-.27.25,0,.49-.07.74-.07.91,0,1.19.28,1.36,1a5.2,5.2,0,0,1,.11.51,1.24,1.24,0,0,1-1,1.27,36.42,36.42,0,0,1-6,.49,12.9,12.9,0,0,0-3.95.78Z"/><path class="cls-1" d="M198.32,326.43A16.31,16.31,0,0,0,204.9,328a16.84,16.84,0,0,0,1.73,0,8.06,8.06,0,0,1,2.35.18,7.73,7.73,0,0,1,4,2.38l.27.32.22.28.44.55.87,1.12a22.5,22.5,0,0,1,1.62,2.41,11,11,0,0,1,.62,1.24,4.55,4.55,0,0,1,.42,1.72,20,20,0,0,1-.31,2.64,28.67,28.67,0,0,0-.53,4.56,3.28,3.28,0,0,0,.31,1.53,2.3,2.3,0,0,0,.33.37.46.46,0,0,0,.45.16,1,1,0,0,0,.39-.32l.15-.21.26-.41.57-1a10.07,10.07,0,0,0,.47-1,27.49,27.49,0,0,0,1.6-8.09l0-.4v-.2l-.44-.83-.59-1.07c-.41-.7-.83-1.4-1.27-2.07a19.69,19.69,0,0,0-2.8-3.61c-.33-.28-.4-.54-.28-.82a1.3,1.3,0,0,1,1.18-.5,6.24,6.24,0,0,1,4.51,3q.75,1.17,1.41,2.37l.64,1.21.3.62.51,1.08-.07,1.07-.05.57-.12,1.11c-.09.74-.2,1.47-.33,2.21a27.15,27.15,0,0,1-1.13,4.45,14.61,14.61,0,0,1-1,2.23,18.83,18.83,0,0,1-1.44,2.28,6.32,6.32,0,0,1-.64.72,4,4,0,0,1-.74.49,2.39,2.39,0,0,1-1.7.19,3.35,3.35,0,0,1-1.52-.93,6.3,6.3,0,0,1-1.18-1.48,6,6,0,0,1-.53-2.24,15.09,15.09,0,0,1,0-1.92c.1-1.22.29-2.38.45-3.52.08-.56.16-1.12.2-1.63a1.67,1.67,0,0,0-.14-1.07,16.31,16.31,0,0,0-1.61-2.69c-.35-.5-.71-1-1.09-1.48a16.07,16.07,0,0,0-1.08-1.33,5,5,0,0,0-3.39-1.41c-.25,0-.5,0-.87,0a19.25,19.25,0,0,1-2,0,19.23,19.23,0,0,1-8.57-2.38,20.17,20.17,0,0,1-2.07-1.32l-1.88-1.45a30.13,30.13,0,0,0-12.23-6,32.74,32.74,0,0,0-10.45-.27l-2.28.32c-2.86.41-3.79.46-4.56-.22a3.37,3.37,0,0,1-.52-.45c-.4-.53.69-1.26,2.85-1.8a37.68,37.68,0,0,1,10.16-1,30.6,30.6,0,0,1,10.5,2.21,34,34,0,0,1,7,3.91c.55.38,1.07.79,1.59,1.2l1.45,1.11a17.6,17.6,0,0,0,2.94,1.71Z"/><path class="cls-1" d="M227.41,344a4.33,4.33,0,0,0,.63-1.93,18.38,18.38,0,0,0,.19-2.73c0-.69-.11-1.39-.13-2.09l-.06-1.88,0-1c0-.31,0-.7-.05-.86a8,8,0,0,0-1.24-3,16.39,16.39,0,0,0-2-2.54,24,24,0,0,1-2.88-3.08c-.24-.36.31-.89,1.1-1.16a2.39,2.39,0,0,1,2.42.34,27.52,27.52,0,0,1,3,3.53,13.2,13.2,0,0,1,2.16,4.47,6.14,6.14,0,0,1,.16.85,7.79,7.79,0,0,1,.08.81c0,.44.06.89.1,1.34.09.91.2,1.84.24,2.76s0,2.06,0,3.1a12.63,12.63,0,0,1-.52,3.24,5.22,5.22,0,0,1-.72,1.49,3.69,3.69,0,0,1-.68.69,6.32,6.32,0,0,1-.86.44,6.15,6.15,0,0,1-1.34.22,3.36,3.36,0,0,1-1.85-.47,3.67,3.67,0,0,1-1.25-1.33,9.24,9.24,0,0,1-.94-3c-.26-1.49-.49-2.94-.62-4.37,0-.32-.08-.63-.09-.94,0-1.16.14-1.44.9-1.73.17-.07.34-.17.51-.23.58-.23,1.17.34,1.34,1.23.27,1.3.39,2.56.54,3.79a14.55,14.55,0,0,0,.64,3.28,1.57,1.57,0,0,0,.45.73.27.27,0,0,0,.21.06,2.09,2.09,0,0,0,.53-.07s0,0,.08-.05Z"/><path class="cls-1" d="M228.34,315.58a12.09,12.09,0,0,1,4,4.23,27.13,27.13,0,0,1,2.27,4.83c.43,1.19.89,2.37,1.21,3.59a45.32,45.32,0,0,1,1.13,6.2,30.52,30.52,0,0,1,.2,3.19,15.54,15.54,0,0,1-.06,1.65,5.76,5.76,0,0,1-.19,1.05,1.74,1.74,0,0,1-.19.54,3,3,0,0,1-.27.5,3.85,3.85,0,0,1-.74.66,2.78,2.78,0,0,1-2,.37,4.34,4.34,0,0,1-1.82-.86,9.42,9.42,0,0,1-2.09-2.47,15.67,15.67,0,0,1-2.37-7.27c-.05-.79.72-.78,1.56-.29a5,5,0,0,1,2.12,2.67,15,15,0,0,0,1.85,4.11,6.35,6.35,0,0,0,.6.72,1.56,1.56,0,0,0,.29.25c.1.09.07.08.08.09s.1.08.2.06.06-.06.09-.1a.58.58,0,0,0,0-.13,1.46,1.46,0,0,0,0-.22l.05-.47c.06-.65.06-1.36.06-2.06a32.62,32.62,0,0,0-1.69-8.68c-1-3.07-2.21-6.2-4.27-8.43a5.88,5.88,0,0,0-2.13-1.51c-.84-.31-1.93-.59-2.9-.87-3-.85-6.07-1.78-9.06-2.78a58.15,58.15,0,0,1-6.9-2.58,16,16,0,0,1-1.48-.77c-1.79-1.1-2.16-1.82-1.94-2.67a2.19,2.19,0,0,1,.16-.57.75.75,0,0,1,.85-.31,5.13,5.13,0,0,1,1.47.59,68.49,68.49,0,0,0,11.87,4.58c1.58.47,3.18.94,4.79,1.39l2.44.68,1.24.36a8.34,8.34,0,0,1,1.56.67Z"/><path class="cls-1" d="M185.72,340.41c0-.65,0-1.26,0-2a5.35,5.35,0,0,1,.28-1.26,4,4,0,0,1,.61-1,6.22,6.22,0,0,1,.74-.72,9,9,0,0,1,.74-.52,13.61,13.61,0,0,1,2.88-1.24,28,28,0,0,1,2.73-.79,77.26,77.26,0,0,1,9.6-1.14c1.41-.09,2.82-.22,4.22-.35a21.91,21.91,0,0,1,5.43-.11c.57.11.48.6,0,1.16a3.49,3.49,0,0,1-2.29,1.3c-3.58.37-7.16.76-10.79.9a32.78,32.78,0,0,0-6.45,1.22,18.24,18.24,0,0,0-3.15,1.1,4.94,4.94,0,0,0-1.21.77c-.32.3-.46.48-.47.76,0,.05,0,.12,0,.2a42.21,42.21,0,0,0,.22,4.45c.23,2.28.51,4.58.89,6.84.3,1.76.77,3.45,1.14,5.21.08.38.19.76.24,1.15.22,1.47,0,2-.76,2.36a3.15,3.15,0,0,1-.52.21c-.58.12-1.14-.39-1.39-1.38a76.67,76.67,0,0,1-1.9-9.54c-.18-1.23-.33-2.47-.47-3.73s-.27-2.52-.37-3.81Z"/><path class="cls-1" d="M255.43,335.31a19.46,19.46,0,0,0-1.35-5.21,6.53,6.53,0,0,0-.93-1.46,3.27,3.27,0,0,0-2.38-1.24,7.56,7.56,0,0,0-1.64,0l-.92.11c-.32,0-.64.06-1,.07-1.13.07-2.24.13-3.31.22-.69.05-1.37.14-2,.23s-1.33.1-2,.2c-.41.05-.5-.28-.25-.76a3.12,3.12,0,0,1,1.67-1.4,33.41,33.41,0,0,1,4.34-.6c.69-.06,1.36-.13,2-.22a14.61,14.61,0,0,1,2.27-.19,8.32,8.32,0,0,1,3.1.54,5.6,5.6,0,0,1,2.5,2.05,12.59,12.59,0,0,1,1.4,2.86,28.51,28.51,0,0,1,.85,2.88c.32,1.19.55,2.38.78,3.57.33,1.8.54,3.62.79,5.42.19,1.39.54,2.75.78,4.14,0,.31.13.61.16.92a1.37,1.37,0,0,1-1.15,1.78,4,4,0,0,1-.57.16,1.11,1.11,0,0,1-.88-.23,1.74,1.74,0,0,1-.69-.91,22.49,22.49,0,0,1-.75-3.63c-.17-1.23-.32-2.48-.38-3.73-.12-1.87-.25-3.75-.53-5.58Z"/><path class="cls-1" d="M234.4,358.19c-3.34.65-6.69,1.19-10,1.73-1.23.18-2.44.46-3.66.62q-6.49.88-13,1.45l-2.89.28c-1,.1-1.93.21-2.89.27a35.65,35.65,0,0,1-7.45.09c-.77-.09-.64-.55,0-1a7.13,7.13,0,0,1,3.2-1.06c4.91-.47,9.86-.9,14.87-1.34,3-.24,6.08-.88,9.12-1.38,3.33-.57,6.67-1.17,10-1.83,2-.42,4.09-.83,6.12-1.3,3.06-.73,6.19-1.46,9.23-2.25,2.36-.62,4.64-1.39,6.86-2.21l1.42-.58c1.77-.66,2.29-.67,3-.31.16.06.34.09.46.15s.17.31,0,.78a3.24,3.24,0,0,1-1.33,1.38,16.26,16.26,0,0,1-3.14,1.47c-1.07.4-2.16.75-3.25,1.07-2.18.64-4.4,1.18-6.61,1.73-3.26.82-6.66,1.61-10,2.31Z"/><path class="cls-1" d="M391.73,373.44q-11.31-.07-22.62,0c-2.75,0-5.5.13-8.25.16-9.69.12-19.39.27-29.07.56-4.3.13-8.62.34-12.88.59-5.47.3-11,.75-16.38,1-1.54.17-1.57-.22-.18-1a18.2,18.2,0,0,1,2.93-1.07,24.33,24.33,0,0,1,4.26-.72c5.61-.47,11.21-.78,16.83-1s11.24-.32,16.89-.35c6.76,0,13.79-.36,20.7-.49q11.4-.23,22.81-.31l14-.06c7.09,0,14.21.07,21.24.11,5.48,0,10.84-.06,16.28.08,1.19,0,2.37.07,3.57.13s2.06.18,2.83.27a16.06,16.06,0,0,1,1.92.44,4,4,0,0,1,2,1.12,5.49,5.49,0,0,1,.54.53c.3.45-1.52.68-4.71.65-9.54-.23-19.72-.39-29.91-.52-7.58-.09-15.2-.16-22.81-.16Z"/><path class="cls-1" d="M451.81,396.92c.1-1.63.2-3.25.23-4.88,0-.59,0-1.18,0-1.77,0-1,0-2.09,0-3.14s0-2.09,0-3.14a24.86,24.86,0,0,0-.29-2.75c-.18-1.17-.41-2.33-.49-3.52,0-.37.25-.39.62-.16a3.08,3.08,0,0,1,1.09,1.4,24.15,24.15,0,0,1,1.24,7.34c0,1.49.18,3,.23,4.54,0,1.67,0,3.33,0,5l-.08,3.06c0,1.55-.15,3.1-.13,4.63,0,1.19.17,2.35.26,3.53,0,.26.06.51.06.77-.1,1-.33,1.27-.92,1.47-.14,0-.27.1-.4.13-.44.08-.82-.32-1.07-1a11.51,11.51,0,0,1-.49-3.24c-.06-1.09-.06-2.19,0-3.3,0-1.64.12-3.29.17-4.93Z"/><path class="cls-1" d="M418.33,412.2c-4.28-.06-8.56-.13-12.83-.13-1.56,0-3.11.08-4.64.12-5.5.17-11,.26-16.55.31-2.45,0-4.9.11-7.34.17a43.4,43.4,0,0,1-9.44-.32c-1.11-.28-.72-.73.11-1.15a9.63,9.63,0,0,1,4.1-1.05c6.29,0,12.64-.2,19-.16,1.91,0,3.87-.07,5.82-.18s3.93-.27,5.93-.33c4.33-.1,8.65-.09,13-.1h8c4,0,8.06,0,12.05-.12,3.1-.1,6.13-.38,9.18-.61l2-.18c2.51-.16,3.24,0,3.84.7.15.17.35.33.47.5s.08.59-.4.9a6.07,6.07,0,0,1-2.17.7,118.72,118.72,0,0,1-17.11,1c-4.32,0-8.65,0-13,0Z"/><path class="cls-1" d="M359.53,412.89l-.42.21c-.11-.22,0-.06-.06-.11h-.38l-.4,0-.73,0-.82,0-1.64,0-3.29.07-6.58.16-4.9.19c-5.77.12-11.54.2-17.3.46-2.56.1-5.12.27-7.66.45l-2.44.18a14.3,14.3,0,0,1-2.54,0,35.52,35.52,0,0,0-4.72-.23c-.85.12-1-.34-.2-1a7,7,0,0,1,4.48-1,16.18,16.18,0,0,0,2.31,0l2.49-.19,5-.32c3.33-.2,6.68-.35,10-.43,4,0,8.2-.3,12.3-.44l13.56-.44,1.32,0,.6,0h.31l0-.06.37,0c.11,0,.07-.2.1-.3l0-.34,0-.56c0-.94,0-1.89,0-2.83,0-4.2-.16-8.41-.55-12.58-.24-3.25-.6-6.41-1-9.58-.09-.7-.18-1.39-.28-2.09-.3-2.61-.19-3.46.46-4.11a3.41,3.41,0,0,1,.44-.42c.5-.31,1.12.7,1.48,2.63.53,2.85.89,5.81,1.14,8.8.11,1.49.22,3,.34,4.5s.24,3,.31,4.56c.12,2.28.19,4.55.22,6.84,0,1.14,0,2.28,0,3.43v1.32l0,.82a2.53,2.53,0,0,1-.33,1.46,1,1,0,0,1-.25.21l-.13.09-.07,0,0,0c.07.07-.15-.16.16.16h0l0,0-.59.31Z"/><path class="cls-1" d="M295,401.84l0-5.72c0-.69,0-1.39,0-2.09.1-2.46.23-4.91.28-7.36,0-1.09,0-2.18,0-3.26a19.85,19.85,0,0,1,0-4.15c.06-.43.46-.37.88,0a3,3,0,0,1,1,1.82,65.93,65.93,0,0,1,.13,8.44c-.1,1.7.07,3.45.11,5.19l.17,5.72c0,1.18.08,2.35.15,3.52.1,1.77.18,3.56.42,5.3a38.06,38.06,0,0,0,.88,3.93c.08.27.18.54.25.82.27,1,.18,1.3-.4,1.77-.13.11-.26.24-.39.33a.7.7,0,0,1-.76,0,1.82,1.82,0,0,1-.73-.86,22.47,22.47,0,0,1-1.7-7.63c-.16-1.93-.23-3.86-.3-5.79Z"/><path class="cls-1" d="M434.29,445.71l-14.88.48c-1.79.07-3.68.18-5.49.13-3.22-.07-6.39-.24-9.53-.21l-1.17,0-.75,0h-.23a1.06,1.06,0,0,0-.23-.05,1.2,1.2,0,0,1-.46-.11,3,3,0,0,1-1.3-1.31,8.75,8.75,0,0,1-.55-1.29,28.7,28.7,0,0,1-1-4.87c-.34-2.85-.58-5.7-.81-8.5-.39-3.59-.4-7.24-.58-10.77-.09-1.06.23-1,.8-.15a13.27,13.27,0,0,1,1.61,4.69l.4,2.75c.12.91.16,1.83.25,2.74l.48,5.46c.18,1.81.38,3.62.65,5.36a18.36,18.36,0,0,0,.54,2.5l.18.53a3.2,3.2,0,0,1,.15.36c0,.09.11.2.22.21l.1,0h3l3.43,0c2.29,0,4.57,0,6.81,0,4.92-.13,10-.34,14.94-.53,3.07-.13,6.14-.25,9.2-.43,2.32-.13,4.64-.27,6.94-.47l1.72-.18.83-.11a3.86,3.86,0,0,0,.49-.09.39.39,0,0,0,.34-.32,3.69,3.69,0,0,0,.1-.5c.07-.5.1-1.09.13-1.64.07-1.76,0-3.53-.13-5.28s-.25-3.51-.39-5.27c-.08-.77-.15-1.53-.22-2.31-.22-2.89-.13-3.8.69-4.51a3.53,3.53,0,0,1,.51-.46c.56-.35,1.34.79,1.65,2.95a84.3,84.3,0,0,1,.89,9.82,49.24,49.24,0,0,1-.16,5.12c0,.44-.07.88-.13,1.34l-.05.35a4,4,0,0,1-.07.42,11.08,11.08,0,0,1-.29,1.17c-.08.18-.17.36-.26.53l-.38.44a2,2,0,0,1-1,.6,6.68,6.68,0,0,1-1.21.29l-.72.11c-2.59.32-5.08.47-7.6.63l-7.52.39Z"/><path class="cls-1" d="M357.33,448.56l-16.88,0c-2.05,0-4.11.09-6.16.08l-8.18-.11-4.1-.08-2.06-.06c-.71,0-1.38-.1-2.16-.12a3.36,3.36,0,0,1-1.85-.92,4.88,4.88,0,0,1-1-1.5,12.88,12.88,0,0,1-.78-2.86c-.26-1.67-.38-3.31-.47-4.93s-.14-3.24-.16-4.83q-.07-3.06-.14-6.12c0-2,0-4.06-.17-6-.13-1.21.24-1.19.94-.21a13.84,13.84,0,0,1,1.93,5.37c.2,1.84.28,3.68.39,5.5s.2,3.62.24,5.4a47.65,47.65,0,0,0,.41,5.19,11,11,0,0,0,.54,2.21,3.49,3.49,0,0,0,.31.61c0,.05.09.13.17.12.87.14,2,.23,3,.3,5,.38,10.24.13,15.38.13l17-.09,10.46-.13c5.27-.09,10.58-.16,15.81-.39,4.07-.17,8.05-.53,12.05-.86l2.64-.23c3.29-.24,4.31-.11,5.1.69a6.78,6.78,0,0,1,.52.45c.19.25,0,.5-.62.85a7.08,7.08,0,0,1-2.75.78c-7.21,1-14.79,1.26-22.42,1.5-5.67.16-11.36.24-17,.33Z"/><path class="cls-1" d="M277.47,413.12h9.07c1.1,0,2.2-.07,3.3-.05,3.89.06,7.78.14,11.67.3,1.72.07,3.46.07,5.18.09,1.1,0,2.21,0,3.32.13a13.89,13.89,0,0,1,3.38.65c.88.41.35.67-.24.95a6.88,6.88,0,0,1-2.89.77c-2.19.11-4.41,0-6.64,0s-4.47-.09-6.72-.26c-2.7-.18-5.5,0-8.26,0l-9.11.06-5.61.08c-2.83.06-5.67.1-8.48.27-2.18.14-4.3.43-6.45.68-.47.06-.93.14-1.4.18-1.77.16-2.32,0-2.76-.68-.1-.16-.23-.31-.31-.47-.25-.52.48-1.13,1.78-1.37a82.29,82.29,0,0,1,12-1.16c3-.12,6.09-.17,9.14-.23Z"/><path class="cls-1" d="M253,437.63l-.1-3.8c0-.46-.1-.92-.1-1.38,0-1.64.12-3.28.18-4.9,0-.72,0-1.45-.05-2.16a10.29,10.29,0,0,1,.21-2.76c.08-.28.46-.25.87,0a2,2,0,0,1,1,1.2l.23,1.38c.05.46,0,.92.05,1.38a26,26,0,0,1-.12,2.78,26.1,26.1,0,0,0,.15,3.41l.16,3.77c0,.77.09,1.55.15,2.32.1,1.17.18,2.35.37,3.5.13.9.48,1.75.65,2.63a5.4,5.4,0,0,1,.11.58,1.19,1.19,0,0,1-.11.8,1.6,1.6,0,0,1-.58.44l-.31.15a.66.66,0,0,1-.53-.09,1.3,1.3,0,0,1-.6-.54,11.82,11.82,0,0,1-1.34-4.88c-.16-1.26-.24-2.53-.34-3.81Z"/><path class="cls-1" d="M292.49,450.11l-8.37.16c-1,0-2,.1-3.06.11q-5.38.06-10.78,0l-4.8,0c-1,0-2.05,0-3.09-.13a12.34,12.34,0,0,1-1.57-.22,4.24,4.24,0,0,1-1.62-.64c-.37-.26-.43-.65-.28-.68a6.61,6.61,0,0,0,.71-.13,5.93,5.93,0,0,1,2.6-.48l12.27.33c2.5.09,5.08-.12,7.63-.2l8.42-.29,5.18-.2c2.61-.12,5.24-.21,7.83-.39,2-.14,4-.44,6-.62.44,0,.87-.1,1.32-.12,1.65-.15,2.19.24,2.55.79a3.36,3.36,0,0,1,.24.38c.07.2-.05.39-.35.59a3.54,3.54,0,0,1-1.34.54,95.18,95.18,0,0,1-11,1l-8.43.32Z"/><path class="cls-1" d="M80,375.28c0-.87-.08-1.75-.14-2.63,0-.33-.11-.63-.12-1,0-1.15,0-2.32,0-3.48,0-.52,0-1,0-1.55a4.12,4.12,0,0,1,.32-2c.09-.2.47-.09.84.15s.76.57.77.89a21.54,21.54,0,0,1,.11,3.62,10.13,10.13,0,0,0,.28,2.31c.11.87.23,1.74.34,2.6.07.55.13,1.09.2,1.63.11.82.16,1.66.29,2.48.1.64.35,1.26.5,1.92a2.09,2.09,0,0,1,.11.43c0,.55-.13.73-.9.81l-.5.06a1.31,1.31,0,0,1-1.22-.55,10.18,10.18,0,0,1-.75-3.19c-.1-.83-.13-1.69-.22-2.55Z"/><path class="cls-1" d="M116.8,361.08c-2.74-.3-5.48-.57-8.23-.78-1-.08-2-.08-3-.15-3.53-.26-7.07-.47-10.6-.45a39.77,39.77,0,0,0-4.66.33c-1,.15-2,.32-2.88.55a11.91,11.91,0,0,0-2.53.84c-.34.19-.83-.08-.7-.89a3.19,3.19,0,0,1,2.32-2.12,31.59,31.59,0,0,1,6.37-.85,57.33,57.33,0,0,1,6.29.09c2.49.17,5.09.12,7.63.26,2.8.15,5.59.37,8.37.62l5.14.49c2.6.25,5.19.57,7.77.8,2,.17,4,.21,6,.33.43,0,.87,0,1.31.08,1.63.14,2.12.41,2.38,1.13a2.54,2.54,0,0,1,.16.49c.09.52-.63.89-1.83.89-3.55,0-7.25-.38-11-.75-2.76-.28-5.53-.6-8.3-.85Z"/><path class="cls-1" d="M137.83,374.44c0-.84,0-1.69,0-2.54,0-.31-.1-.61-.1-.92,0-1.09,0-2.21-.09-3.3a13.92,13.92,0,0,0-.23-1.44,5.15,5.15,0,0,1-.23-1.84c0-.2.44-.29.9-.23a1.51,1.51,0,0,1,1.16.58,7.68,7.68,0,0,1,.62,1.88,9.33,9.33,0,0,1,.1,2,19.27,19.27,0,0,0,.27,2.38q.09,1.32.12,2.64c0,.54,0,1.09,0,1.63,0,.82,0,1.64.06,2.46a18.39,18.39,0,0,0,.35,1.89,2,2,0,0,1,0,.42.67.67,0,0,1-.22.55,1.48,1.48,0,0,1-.69.21l-.38,0a1.21,1.21,0,0,1-.59-.14,1,1,0,0,1-.49-.44,3.66,3.66,0,0,1-.33-.8,5.66,5.66,0,0,1-.16-.82,15.07,15.07,0,0,1-.13-1.66c0-.84-.05-1.69-.07-2.53Z"/><path class="cls-1" d="M96.27,383q-3.84,0-7.68.08l-2.8.13c-3.3.06-6.6.12-9.89.23l-4.39.21a36.56,36.56,0,0,1-5.64.08c-.6-.07-.49-.41,0-.77a5.2,5.2,0,0,1,2.42-.88c1.88-.18,3.78-.37,5.67-.52s3.82-.15,5.74-.15c2.3,0,4.68-.26,7-.38,2.58-.12,5.17-.21,7.76-.29l4.78-.13,7.24-.09c1.87,0,3.71-.16,5.6-.12.41,0,.83,0,1.26.05a3.84,3.84,0,0,1,1,.2,2.09,2.09,0,0,1,.67.31,1.33,1.33,0,0,1,.4.38,1.81,1.81,0,0,1,.14.53,1.52,1.52,0,0,1,0,.41c0,.19-.24.28-.53.42a2.69,2.69,0,0,1-1.16.2L104,383c-2.56,0-5.14,0-7.72.06Z"/><path class="cls-1" d="M63.26,404.47l-.16-4.12c0-.5-.12-1-.13-1.5-.06-1.77-.07-3.56-.07-5.34,0-.79-.06-1.58-.12-2.37a9.94,9.94,0,0,1,.07-3c.15-.63,2.06.22,2.13,1.32a48.22,48.22,0,0,1,.07,6,26.19,26.19,0,0,0,.26,3.73l.3,4.13.17,2.56c.09,1.29.14,2.59.27,3.87.1,1,.34,2,.49,3,0,.22.09.43.11.66.06.82-.13,1.08-.82,1.26a4,4,0,0,1-.47.11,1,1,0,0,1-1.16-.82,26,26,0,0,1-.75-5.33c-.08-1.37-.16-2.74-.25-4.11Z"/><path class="cls-1" d="M101.3,420.51l-8.45,0c-1,0-2,.07-3.08.07-3.63,0-7.26-.14-10.89-.29L74,420.15a27.3,27.3,0,0,1-3.11-.24,8.57,8.57,0,0,1-3.15-1c-.69-.52-.19-.68.41-.8a7.92,7.92,0,0,1,2.65-.33c4,.28,8.16.32,12.34.52,2.51.11,5.12-.08,7.69-.13l8.48-.19,5.22-.14c2.64-.1,5.29-.15,7.91-.3,2-.12,4-.4,6-.58.45,0,.88-.1,1.33-.13,1.68-.08,2.23.13,2.57.91a3,3,0,0,1,.22.53c.14.59-.53,1.08-1.72,1.24a104.11,104.11,0,0,1-11.12.83c-2.82.1-5.66.14-8.5.21Z"/><path class="cls-1" d="M119.22,405.55c0-1.46,0-2.93,0-4.4,0-.53-.09-1.06-.09-1.6,0-1.88,0-3.78-.09-5.67,0-.83-.12-1.67-.18-2.5a18.08,18.08,0,0,1-.13-3.21c0-.33.32-.31.65-.06a2.36,2.36,0,0,1,.86,1.34,32.84,32.84,0,0,1,.73,6.49c0,1.32.28,2.67.41,4s.25,2.95.34,4.43l.12,2.73c.07,1.38.08,2.77.2,4.14.08,1.07.33,2.11.43,3.17,0,.23.08.46.09.69,0,.88-.21,1.16-.86,1.34a3.81,3.81,0,0,1-.45.13c-.5.08-.94-.27-1.17-.89a18.27,18.27,0,0,1-.6-2.83c-.1-1-.15-1.94-.19-2.92,0-1.46-.09-2.92-.14-4.39Z"/><path class="cls-1" d="M164.85,382.27c-3.65-.09-7.31-.17-11-.21l-4,0-14.11-.15c-2.09,0-4.18,0-6.25.08-2.66.07-5.33.21-8,.08-.83,0-.73-.44,0-.86a8,8,0,0,1,3.5-1c5.43-.28,10.86-.54,16.35-.31,3.28.11,6.69-.05,10-.05,3.69,0,7.38,0,11.07.06l6.81.1,10.3.21c2.66.05,5.27,0,7.92.08.58,0,1.16,0,1.75.08a9.32,9.32,0,0,1,1.4.19,3.46,3.46,0,0,1,1,.28,1.7,1.7,0,0,1,.9.94,1.13,1.13,0,0,1,.11.47c0,.22-.29.33-.61.41a5.19,5.19,0,0,1-.7.11,8.12,8.12,0,0,1-1,0c-2.24-.09-4.64-.09-7.06-.12l-7.34-.15-11.05-.23Z"/><path class="cls-1" d="M195.06,406.45c0-1.5,0-3,0-4.49,0-.55-.1-1.08-.1-1.63,0-1.92-.06-3.84-.18-5.75a19,19,0,0,0-.36-2.51c-.12-.51-.19-1.05-.31-1.56a6.34,6.34,0,0,1-.13-.78c-.05-.24-.1-.49-.13-.75s.31-.46.79-.34a2.14,2.14,0,0,1,1.38,1.17,14.47,14.47,0,0,1,.57,1.68c.14.57.23,1.13.32,1.69a20.63,20.63,0,0,1,.24,3.42c0,1.36.24,2.75.33,4.13s.15,3,.2,4.56l.07,2.8c0,1.42,0,2.84.16,4.24.08,1.09.34,2.15.49,3.23,0,.24.1.47.12.71.08.9-.2,1.19-.94,1.38a4.77,4.77,0,0,1-.51.13,1.22,1.22,0,0,1-1.31-.91,22.61,22.61,0,0,1-.73-5.9l-.06-4.52Z"/><path class="cls-1" d="M177.45,420.63l-13.17-.17c-1.6,0-3.2,0-4.8,0-5.64-.12-11.28-.34-16.92-.55-2.51-.09-5-.12-7.51-.15a47.73,47.73,0,0,1-9.63-.79,1.5,1.5,0,0,1-.61-.26c-.12-.1-.14-.18-.1-.25a2.63,2.63,0,0,1,.84-.39,15.5,15.5,0,0,1,4.23-.81c.8,0,1.62-.09,2.42-.07l2.43.05,4.87.11c3.25.08,6.51.19,9.79.36,3.92.2,8,.1,12,.12l13.24.07,8.15,0c4.11-.05,8.24-.08,12.32-.27,3.16-.16,6.26-.5,9.36-.84l2-.24a9.69,9.69,0,0,1,2.71-.06,2.7,2.7,0,0,1,1.29.65,4.09,4.09,0,0,1,.42.39c.16.21,0,.45-.45.75a5.57,5.57,0,0,1-2.11.85,119.45,119.45,0,0,1-17.52,1.44c-4.42.12-8.86.13-13.3.15Z"/><path class="cls-1" d="M91.51,451.75c-3.78,0-7.57,0-11.36-.11-1.39,0-2.77,0-4.16-.11-1.23-.08-2.46-.18-3.7-.36a16.75,16.75,0,0,1-1.89-.34,6.21,6.21,0,0,1-1-.31,2.58,2.58,0,0,1-1.08-.7,5.65,5.65,0,0,1-1-1.9,16,16,0,0,1-.49-1.86,33.67,33.67,0,0,1-.5-3.69c-.2-2.16-.34-4.33-.48-6.47-.08-1.37-.16-2.74-.25-4.11s0-2.75-.14-4.06c-.08-.76.23-.81.74-.14a8.49,8.49,0,0,1,1.23,3.59c.24,2.82.36,5.6.57,8.36.11,1.39.23,2.76.41,4.11a20.54,20.54,0,0,0,.79,3.87,3.91,3.91,0,0,0,.44.87.92.92,0,0,0,.59.4,11.91,11.91,0,0,0,2.33.44c1.67.17,3.4.22,5.11.27,3.77.12,7.56.1,11.35.05l7-.14c3.54-.1,7.09-.18,10.6-.36,2.73-.14,5.41-.42,8.12-.6.59,0,1.18-.1,1.78-.12,2.25,0,3,.32,3.44.89a2.35,2.35,0,0,1,.29.4c.18.42-.72.74-2.32,1-4.76.56-9.85.74-15,.92-3.8.13-7.62.19-11.43.25Z"/><path class="cls-1" d="M118.63,442.06c.15-.87.25-1.77.33-2.66,0-.33,0-.66,0-1l.13-1.74c.06-.59.1-1.17.12-1.76a13.56,13.56,0,0,0-.06-1.56,7.34,7.34,0,0,1-.08-2c0-.21.36-.22.71-.08a1.3,1.3,0,0,1,.82.81,15.29,15.29,0,0,1,.38,4.11c-.06.84,0,1.7,0,2.55s-.07,1.88-.14,2.81l-.18,1.73c-.09.87-.26,1.74-.34,2.61-.08.67-.05,1.36-.11,2a3.44,3.44,0,0,1,0,.46c-.13.55-.33.68-1,.62-.13,0-.26,0-.38,0a1,1,0,0,1-.84-.8,12.35,12.35,0,0,1,.15-3.49c.13-.87.29-1.75.38-2.64Z"/><path class="cls-1" d="M187.68,450.57c-5.51.08-11.09.27-16.64.4-2,0-4,.17-6.08.2-7.16.1-14.3.14-21.48-.11-3.19-.14-6.37-.32-9.5-.42-2-.07-4-.1-6-.09a22.62,22.62,0,0,1-6.19-.44c-.65-.19-.89-.43-.81-.57s.44-.24,1-.36l2.16-.44a18.8,18.8,0,0,1,3.08-.44c4.23-.12,8.35.11,12.47.31,2,.09,4.1.19,6.15.26L152,449c5,.11,10.12-.18,15.2-.35L184,448l10.34-.28c2.61-.07,5.21-.14,7.81-.26,1.29-.06,2.59-.13,3.88-.23l1.93-.15a2.45,2.45,0,0,0,1.35-.42,3.4,3.4,0,0,0,.69-2.18c.08-1,.16-2,.16-2.9a49.94,49.94,0,0,0-.41-5.81c-.1-.86-.2-1.71-.27-2.6a15.88,15.88,0,0,1,0-3.54,3.19,3.19,0,0,1,.74-1.58,2.66,2.66,0,0,1,.42-.45c.24-.15.44.11.64.69a12,12,0,0,1,.63,2.65A56.44,56.44,0,0,1,213,442c0,.49-.06,1-.09,1.49l-.14,1.43a10.78,10.78,0,0,1-.31,1.69,4.53,4.53,0,0,1-1.24,2.08A5.87,5.87,0,0,1,207.4,450l-2.85.2c-5.64.32-11.27.33-16.86.47Z"/><path class="cls-1" d="M359.74,399.55l-.17-4.89c0-.6-.13-1.18-.16-1.77-.07-2.11-.23-4.2-.43-6.29a22.25,22.25,0,0,0-.49-2.73c-.13-.58-.29-1.14-.45-1.7s-.28-1.11-.38-1.67c-.05-.36.35-.51.88-.38a2.16,2.16,0,0,1,1.45,1.26,25.12,25.12,0,0,1,1.5,7.35c.05,1.5.41,3,.57,4.52.17,1.66.3,3.32.36,5l.11,3.08c.05,1.55,0,3.12.11,4.67,0,1.2.22,2.39.27,3.62,0,.28,0,.56,0,.84a4.8,4.8,0,0,1-.09.66,1.59,1.59,0,0,1-.24.47,1,1,0,0,1-.82.3,2.74,2.74,0,0,1-.5,0,1.29,1.29,0,0,1-.95-1.15c-.23-1.92-.33-4.08-.43-6.26-.07-1.61-.11-3.25-.21-4.89Z"/><path class="cls-1" d="M419.41,411.26q-6.41.15-12.83.37c-1.56.05-3.12.18-4.68.23l-8.27.21c-2.8.06-5.57-.1-8.33-.25-2.44-.13-4.89-.22-7.3-.24-1.55,0-3.1,0-4.64.07l-4.62.13c-1,0-.89-.37-.12-.88a9.48,9.48,0,0,1,4.09-1.34c6.48-.45,12.84.09,19.15.2,3.76.08,7.79-.32,11.69-.48l12.94-.53,8-.27,6-.16c2-.05,4-.06,6-.21,3.07-.21,6.09-.69,9.22-.87.69,0,1.36-.09,2.06-.09a7.11,7.11,0,0,1,2.74.35,2.29,2.29,0,0,1,.7.37,3.9,3.9,0,0,1,.43.54c.1.16.25.3.31.4.2.26-.92.94-2.69,1-2.66.09-5.38.37-8.21.63s-5.8.48-8.71.52c-4.29.1-8.61.19-12.92.34Z"/><path class="cls-1" d="M396.75,436.3c-.06-1.21-.1-2.41-.11-3.6,0-.43-.08-.86-.07-1.3,0-1.53.18-3.06.26-4.57.05-.67,0-1.35.05-2a13,13,0,0,1,.14-2.57c.05-.27.32-.23.6,0a1.87,1.87,0,0,1,.65,1.13,27.54,27.54,0,0,1,.2,5.21c-.06,1.05.09,2.12.12,3.18s.1,2.34.2,3.5c0,.72.12,1.43.21,2.14a28.16,28.16,0,0,0,.57,3.2,15.29,15.29,0,0,0,.94,2.29l.24.48a.83.83,0,0,1-.31,1.22,3.19,3.19,0,0,1-.32.23.89.89,0,0,1-1.16-.34,12.51,12.51,0,0,1-1.78-4.55,34.38,34.38,0,0,1-.49-3.63Z"/><path class="cls-1" d="M294.24,447.46l-8.35-.12c-1,0-2,.05-3,0-3.59-.15-7.16-.47-10.71-.73-1.58-.11-3.17-.18-4.73-.23-2-.08-4-.17-6-.39-.63-.07-.54-.3,0-.57a7.38,7.38,0,0,1,2.69-.66c1-.05,2.07-.1,3.11-.11l3.09.1q3.09.12,6.18.38c2.47.2,5,.14,7.56.11h13.5c2.6,0,5.2-.15,7.8-.24,2-.08,4-.25,6.08-.15.45,0,.9,0,1.36.08a8.81,8.81,0,0,1,1.06.2,2.66,2.66,0,0,1,.68.36,1.58,1.58,0,0,1,.61.82,2.43,2.43,0,0,1,.12.39c0,.37-.69.53-1.86.65a98.31,98.31,0,0,0-10.7.05c-2.76.17-5.61.09-8.41.1Z"/><path class="cls-1" d="M100.65,382l-4.86-.17c-.59,0-1.18,0-1.77,0-2.09-.1-4.18-.2-6.27-.26-.93,0-1.86,0-2.78,0a19.24,19.24,0,0,1-3.56,0c-.74-.11.2-1.64,1.55-1.71a67.3,67.3,0,0,1,7.24,0c1.46.11,3,0,4.46,0,1.64,0,3.28,0,4.92.07l3,.09c1.53,0,3.07.12,4.58.13,1.19,0,2.35-.1,3.52-.14.26,0,.52,0,.78,0a1.8,1.8,0,0,1,1,.27,1,1,0,0,1,.41.55,2.56,2.56,0,0,1,.12.32c.07.34-.34.63-1,.85a37.14,37.14,0,0,1-6.44.23l-4.88-.12Z"/><path class="cls-1" d="M139.36,380a129.19,129.19,0,0,0-15.47,1"/><path class="cls-1" d="M101.84,419.38c-2.6,0-5.2,0-7.79-.07-.94,0-1.89,0-2.83,0-3.28-.12-6.6-.12-9.92-.14l-4.43.05a25.74,25.74,0,0,1-5.67-.45c-.58-.13-.47-.42.06-.71a5.88,5.88,0,0,1,2.51-.64c1.88-.07,3.76-.06,5.67-.08s3.82,0,5.76,0c2.3.05,4.74-.09,7.11,0,2.58,0,5.17.06,7.76,0,1.59,0,3.19-.06,4.78-.14,2.4-.12,4.83-.26,7.2-.54,1.85-.22,3.64-.6,5.44-1,.4-.08.78-.18,1.18-.25a5.28,5.28,0,0,1,1.6-.13,1.5,1.5,0,0,1,.81.51,3.73,3.73,0,0,1,.28.31c.1.18,0,.37-.23.6a2.65,2.65,0,0,1-1.18.65,53,53,0,0,1-10.24,1.71c-2.61.22-5.24.31-7.86.38Z"/><path class="cls-1" d="M119.49,443.54c.17-.78.33-1.57.47-2.35.05-.29,0-.58.09-.87.18-1,.36-2,.45-3.05a7.6,7.6,0,0,0,0-1.35,5.29,5.29,0,0,1,0-1.73c.09-.37,1.76-.05,1.86.65a11.5,11.5,0,0,1-.18,3.7,18.61,18.61,0,0,0-.18,2.24c-.09.82-.21,1.64-.34,2.45-.07.49-.15,1-.23,1.49-.1.75-.25,1.5-.29,2.25a12.89,12.89,0,0,0,.1,1.76c0,.13,0,.25,0,.38,0,.48-.19.61-.79.65l-.41,0a.88.88,0,0,1-.92-.6,7.7,7.7,0,0,1-.06-3.24c.11-.81.28-1.6.4-2.4Z"/><path class="cls-1" d="M184.5,448l-10.49.44-3.82.21q-6.74.24-13.49.35c-2,0-4,.13-6,.21a75.28,75.28,0,0,1-7.66,0c-.81-.09-.67-.23,0-.41a18.58,18.58,0,0,1,3.35-.67l3.87-.36,3.88-.23c2.6-.15,5.2-.27,7.81-.33,3.13,0,6.37-.32,9.57-.49l10.54-.57,6.48-.4c3.27-.23,6.55-.44,9.79-.78,2.51-.26,5-.66,7.41-1.08l1.59-.31a6.54,6.54,0,0,1,1.27-.15,8.51,8.51,0,0,1,.86,0,2.71,2.71,0,0,1,1,.22,1.48,1.48,0,0,0,.38.09c.09,0,.13.07.09.19a1.09,1.09,0,0,1-.34.43,5.7,5.7,0,0,1-1.65.9,10,10,0,0,1-1.68.47c-.56.13-1.13.24-1.7.34-1.14.21-2.29.39-3.46.54-2.32.32-4.68.55-7,.76-3.51.32-7.05.49-10.57.71Z"/><path class="cls-1" d="M235.34,359.34c-2.86.44-5.73.85-8.59,1.26-1.05.14-2.08.36-3.13.5-3.69.45-7.4.8-11.09,1.2-1.64.18-3.27.41-4.89.63a50.74,50.74,0,0,1-6.27.7c-.66,0-.62-.43-.13-.95a5.06,5.06,0,0,1,2.63-1.31c4.21-.73,8.43-1.36,12.72-1.78,2.57-.23,5.19-.83,7.79-1.23,2.86-.44,5.73-.9,8.58-1.38,1.76-.3,3.52-.61,5.27-1,2.64-.51,5.31-1,7.91-1.68,2-.52,3.94-1.22,5.88-1.89.43-.15.83-.32,1.27-.46,1.6-.53,2.2-.35,2.76.24a4.73,4.73,0,0,1,.38.41c.31.48-.21,1.16-1.34,1.78A56.77,56.77,0,0,1,244,357.77c-2.85.62-5.74,1.13-8.62,1.63Z"/><path class="cls-1" d="M256,189.12c-1.22,1.61-1.52,4.5-1.38,6.44a4.39,4.39,0,0,0,1.24,3.06,3.05,3.05,0,0,0,3.9-.08c2.05-1.58,2.83-5.28,2.2-7.72a5,5,0,0,0-1.94-3.18c-1.71-.94-3,.41-3.58,1.92-.85,2.27,2.77,3.24,3.61,1-.93.63-1.65.67-2.14.13.08.14.16.29.23.44s.12.38.17.57a2.25,2.25,0,0,1,.07,1.29,7.06,7.06,0,0,1-.5,1.92,7.35,7.35,0,0,0-.4.67c-.05-.29,1,.29.91.29.11,0,.07,0,.07.07a3.58,3.58,0,0,0-.1-.63,7.67,7.67,0,0,1,.08-1.66,6.09,6.09,0,0,1,.79-2.64c1.45-1.93-1.8-3.8-3.23-1.89Z"/><path class="cls-1" d="M284.76,191.28c-1.22,1.61-1.52,4.5-1.38,6.44a4.37,4.37,0,0,0,1.24,3.06,3.05,3.05,0,0,0,3.9-.07c2.05-1.59,2.83-5.29,2.2-7.72a4.94,4.94,0,0,0-1.94-3.18c-1.71-.95-3,.41-3.58,1.92-.85,2.26,2.77,3.24,3.61,1-.93.63-1.65.68-2.15.14a3.09,3.09,0,0,1,.24.44c.05.19.11.37.17.56a2.26,2.26,0,0,1,.07,1.29,7.22,7.22,0,0,1-.5,1.93,6.12,6.12,0,0,0-.4.66c-.05-.28,1,.29.91.29.1,0,.07.06.07.07a3.58,3.58,0,0,0-.1-.63,7.7,7.7,0,0,1,.08-1.66,6.09,6.09,0,0,1,.79-2.64c1.45-1.93-1.8-3.8-3.23-1.89Z"/><path class="cls-1" d="M281.08,186.06c-.44,1.88-.77,3.83-1.05,5.82-.1.72-.1,1.47-.21,2.2a34.29,34.29,0,0,0-.46,3.72,29.72,29.72,0,0,0,.05,3.77c.1,1.13.26,2.27.43,3.39a14.36,14.36,0,0,1,.25,4.45c0,.47-.38.45-.85.12a4.55,4.55,0,0,1-1.48-1.73,10.62,10.62,0,0,1-.4-1.07l-.27-1.09c-.17-.74-.34-1.48-.47-2.24a26.06,26.06,0,0,1-.13-4.69l.15-2.92c.06-1,.13-1.86.22-2.8.22-2,.47-4.07.83-6.12q.33-1.89.81-3.78a29.94,29.94,0,0,1,2.06-5.53,21.76,21.76,0,0,1,2.29-4c.24-.26.45-.53.7-.77a2.48,2.48,0,0,1,1.17-.73,1.42,1.42,0,0,1,.93.21c.14.08.28.14.39.22a.74.74,0,0,1,.21.68,2,2,0,0,1-.32,1.05c-.58,1-1.16,2.08-1.74,3.14a24.65,24.65,0,0,0-1.47,3.3,39.08,39.08,0,0,0-1.56,5.44Z"/><path class="cls-1" d="M240.63,174.7c-.25.39-.68-.07-1.24-1a4.4,4.4,0,0,1-.41-1.51,4.53,4.53,0,0,1,.38-.91,28.2,28.2,0,0,1,2.5-1.52,6.5,6.5,0,0,1,1.87-.69c1.33-.3,2.62-.65,4.13-.86a3.17,3.17,0,0,1,1,0,13.68,13.68,0,0,0,3.34.21.75.75,0,0,0,.53-.12c.32-.28,3.15,0,3.46.15.85.4,1.68.69,2.5,1,.12.05.25,0,.35.2.21.47.48.41.73.47a4.22,4.22,0,0,1,1.06.34,1.94,1.94,0,0,1,.5.55,1.31,1.31,0,0,1,0,.92c-.18.2-.06.52,0,.8a1.38,1.38,0,0,1,0,.29,8.83,8.83,0,0,1-2.56,1.15c-.08,0-3.25.05-3.58.11a1,1,0,0,1-.53-.17c-.1-.05-2.47.18-2.54.19-.47-.06-.93.11-1.39-.28-.09-.08-.18-.05-.27,0-.8.09-1.52,0-2.31.05a9.34,9.34,0,0,0-1.24.24c-.07,0-.16,0-.24,0a1.1,1.1,0,0,0-.31,0,18,18,0,0,0-3,.75c-.22.1-1.46-.07-1.72.07S240.73,174.55,240.63,174.7Z"/><path class="cls-1" d="M291.92,175.81c-.28.39-.7-.09-1.27-1.07a4,4,0,0,1-.38-1.52,5.51,5.51,0,0,1,.46-.91,23.06,23.06,0,0,1,2.9-1.46,6.62,6.62,0,0,1,2.17-.56c1.5-.18,3-.36,4.51-.4a3.18,3.18,0,0,1,1,.12,11.63,11.63,0,0,0,3.41.37.78.78,0,0,0,.57-.1c.33-.29,3.42.09,3.79.3.94.47,1.88.84,2.79,1.3.13.06.29,0,.37.25.19.5.5.5.78.6a4.72,4.72,0,0,1,1.14.58,2.16,2.16,0,0,1,.44.67c.12.23-.16.84-.24.89-.23.15-.18.49-.24.76a1.87,1.87,0,0,1-.08.28,13.3,13.3,0,0,1-2.73.66,3.32,3.32,0,0,0-.54-.06l-1.15-.1c-.86,0-1.74-.07-1.93,0a1,1,0,0,1-.54-.19c-.09-.07-2.64.1-2.74.1-.52-.09-1,.08-1.55-.34a.44.44,0,0,0-.31-.06,20.57,20.57,0,0,1-2.71-.13,12.79,12.79,0,0,0-1.38.09c-.08,0-.17-.05-.26-.07a1.13,1.13,0,0,0-.32-.05,14.82,14.82,0,0,0-3.24.47,17.22,17.22,0,0,0-1.77,0C292.73,176.23,292,175.65,291.92,175.81Z"/><path class="cls-1" d="M269.33,223c3,4.06,7.68,4,11.18.54,1.49-1.47-.8-3.77-2.3-2.3-1.87,1.85-4.31,2.5-6.08.12-1.23-1.66-4.05,0-2.8,1.64Z"/><path class="cls-1" d="M213.31,337.78c-.9,3.32-1.22,9.21,1.38,11.9,4.21,4.36,7.52-3.51,9.12-6.35l-1.63-.45c.14,2.83,1.91,6.12,5.32,5.26,3.12-.79,3.87-4.68,4-7.42h-1.75c.66,5.63,6.24,3.66,6.8-1,.14-1.11-1.61-1.1-1.75,0l-3.3,1a.88.88,0,0,0-1.75,0,10.53,10.53,0,0,1-.36,2.61q-.79,4.57-5.46-.45a.88.88,0,0,0-1.63-.44c-.48.86-2.2,4.79-3,5.08l-4.37-1.06a11.18,11.18,0,0,1-.2-1.73,20.16,20.16,0,0,1,.31-6.49.88.88,0,0,0-1.69-.46Z"/><path class="cls-1" d="M218.25,157.27s1.84,12.7,0,15-2.93,1.46-7.65-3.34-17.1-.83-16.66,6,2.27,11.86,3.44,13.29-11.61-.67-15.45-12.25,1.62-23.1,9.42-28,9.47-4.11,9.47-4.11l1.28,5.41Z"/><path class="cls-1" d="M325.73,161c-.21.63-6.58,36-6.58,36s18-6.38,20.9-17.7-2.09-25.63-5.74-24.58S325.73,161,325.73,161Z"/><path class="cls-1" d="M176.63,316.22c0,6.32-6.64,16.78-16.11,16.78,0,0-1.14-11.78,1.32-13.67S176.63,316.22,176.63,316.22Z"/><path class="cls-1" d="M383.61,350.08a18.62,18.62,0,0,1,2.52-1.66,6.12,6.12,0,0,1,1.72-.66,7.65,7.65,0,0,1,1.72-.1c1.87.08,3.66.15,5.48.12,1.31,0,2.62-.16,3.91-.28a22.2,22.2,0,0,0,6.54-1.5,10.92,10.92,0,0,0,1.44-.75c.22-.15.46-.28.68-.44l.77-.62c.16-.19.42-.19.64-.25l.53-.1.88-.16,1.77-.31c2.1-.35,4.21-.7,6.32-.93,2.7-.29,5.54-.54,8.3.38.85.32.52.77-.27,1.09a9.77,9.77,0,0,1-3.47.65,49.7,49.7,0,0,0-7.89.77c-1.33.21-2.66.45-4,.69l-1,.19-.25.05-.16,0h-.09l0,0-.23.18c-.16.12-.31.25-.47.36l-1,.6a26,26,0,0,1-10.27,2.73c-1.91.13-3.8.14-5.68.1l-2.77-.07a3.35,3.35,0,0,0-1.07.11,5.21,5.21,0,0,0-1.06.5c-1.81,1-3.47,2.78-5.61,3.94-1.49.87-3,1.76-4.65,2.5a16,16,0,0,1-2.57,1c-1,.3-2.5.4-3.28-.49a2.38,2.38,0,0,1-.31-2.53,4.12,4.12,0,0,1,.3-.64,6,6,0,0,1,.35-.57c.21-.31.43-.59.65-.87a26,26,0,0,1,2.92-2.92c.46-.39.89-.78,1.37-1.14,1.77-1.34,2.44-1.55,3.22-1.25a3.79,3.79,0,0,1,.54.2c.52.3,0,1.25-1.17,2.28a52.75,52.75,0,0,0-5,4.75q-.25.31-.45.6c0,.08,0,0,0,.07l0,0h0a9.63,9.63,0,0,0,1-.31,33.22,33.22,0,0,0,4.69-2.36l1.24-.71a11.57,11.57,0,0,0,1-.65c.69-.48,1.39-1.06,2.15-1.65Z"/><path class="cls-1" d="M426.64,361.28c-13.1-4.4-13.33-15.82-13.33-15.82s12.55-2.78,13.33.57Z"/><path class="cls-1" d="M413.13,393.53c1.91-1.41,3.91-2.62,5.88-3.83a59.06,59.06,0,0,0,5.67-3.72,7.92,7.92,0,0,0,.84-.77,1.28,1.28,0,0,0,.18-.22.33.33,0,0,0,.07-.13.2.2,0,0,0,0-.15,1.48,1.48,0,0,0-.13-.08.86.86,0,0,0-.46-.09,7.56,7.56,0,0,0-3.7,1.19,43,43,0,0,0-3.68,2.35c-2.41,1.7-4.78,3.51-7.32,5.11a20.15,20.15,0,0,1-7.38,3.13,10,10,0,0,1-1.67.08s-.1,0-.1,0l0-.11.06-.22a3.39,3.39,0,0,1,.11-.43c.13-.26.27-.61.39-.8a7.84,7.84,0,0,1,1.69-2,24,24,0,0,1,4.17-2.87c.91-.52.81-.41.1.12a41.57,41.57,0,0,0-3.48,2.72,8.72,8.72,0,0,0-1.54,1.92c-.1.17-.17.36-.26.53l0,.1h0l.52-.09a4.51,4.51,0,0,0,.58-.15,10.31,10.31,0,0,0,1.15-.38,16.62,16.62,0,0,0,2.21-1.07,98.6,98.6,0,0,0,8.4-5.75c1.68-1.21,3.37-2.51,5.25-3.64a12.31,12.31,0,0,1,3.12-1.4,5,5,0,0,1,1.9-.15c.13,0,.44.08.63.14s.38.19.58.28a1.66,1.66,0,0,1,.5.35l.44.4a2.76,2.76,0,0,1-.17,1.3l-.13.31-.2.3a3,3,0,0,1-.4.52,10.84,10.84,0,0,1-1.4,1.26c-1,.74-2,1.38-3,2-2,1.25-4,2.42-5.91,3.68a38.78,38.78,0,0,0-3.44,2.45,20.42,20.42,0,0,0-1.54,1.38c-.23.25-.46.5-.66.76s-.21.27-.29.4l-.22.36a1.94,1.94,0,0,0-.28.88c.64.3,2.82-.33,4.44-1s3.39-1.49,5.05-2.31c3-1.48,5.84-3.12,8.92-4.45.68-.3,1.34-.59,2-.84,2.65-.86,3.62-.8,4.25-.54a2.78,2.78,0,0,1,.42.2c.28.26-.78.52-2.58,1.24-5.35,2.14-10.63,5.39-16.48,8a28.17,28.17,0,0,1-3.24,1.2c-.29.08-.57.17-.88.23l-.45.09-.66.09a5.23,5.23,0,0,1-.79,0,3.05,3.05,0,0,1-.75-.05l-1.44-.3c.07-.55.12-1.1.21-1.62,0-.13,0-.26.06-.39l.16-.41c.11-.27.18-.54.32-.81l.34-.55a4.73,4.73,0,0,1,.31-.43c.21-.29.44-.54.66-.79a21.25,21.25,0,0,1,2.92-2.58Z"/><path class="cls-1" d="M155.46,442.11a3.91,3.91,0,0,1-1.57-.42l-.37-.23a3.52,3.52,0,0,1-.42-.39l-.22-.22s0-.08,0-.13l0-.15a2.48,2.48,0,0,1,.27-.57,3.29,3.29,0,0,1,.61-.59c.19-.15.39-.29.59-.42.41-.26.82-.48,1.22-.72,1.62-.94,3.28-1.75,4.93-2.59,1.2-.61,2.39-1.23,3.56-1.89.51-.29,1-.59,1.5-.92.24-.16.47-.34.69-.52l.27-.26a.76.76,0,0,0,.08-.11s-.08,0-.12,0l-.36-.1a4,4,0,0,0-.85-.1,9.21,9.21,0,0,0-1.74.06,26.2,26.2,0,0,0-6.73,2.12,62.88,62.88,0,0,0-5.61,2.86c-2.34,1.33-4.62,2.77-6.89,4.21-1.41.9.2-.52,2.82-2.19,2.33-1.46,4.69-2.87,7.15-4.12a37,37,0,0,1,7.74-3l1.24-.24c.42-.07.85-.08,1.28-.12a9.42,9.42,0,0,1,1.3.05,3,3,0,0,1,.65.13c.18.07.75.12.81.31a2.39,2.39,0,0,1-.27.43l-.15.21-.12.12a5.08,5.08,0,0,1-.5.44c-.35.27-.71.51-1.07.74-.73.47-1.47.88-2.22,1.29l-5,2.58c-.82.44-1.64.88-2.42,1.36a13.26,13.26,0,0,0-1.12.8,2.65,2.65,0,0,0-.73.78c0,.19.59.46,1.06.52a6.58,6.58,0,0,0,1.59-.06,16.39,16.39,0,0,0,3.21-1,86.62,86.62,0,0,0,9.24-4.63c2.33-1.31,4.57-2.69,6.91-4,.51-.28,1-.55,1.56-.81,2-.93,2.76-1,3.32-.82a1.68,1.68,0,0,1,.38.14c.28.21-.47.69-1.85,1.44-4.08,2.23-8.4,4.72-12.87,7a53.42,53.42,0,0,1-5.15,2.36,15.91,15.91,0,0,1-5.71,1.38Z"/><path class="cls-1" d="M253.68,425.64s-3.05-2.26-4.58,2.42-1.1,17.54,1,18.58a7.85,7.85,0,0,0,5.41.16Z"/><path class="cls-1" d="M138.7,366.82s3.45-1,4.08,1.9,2.85,12.13,0,12.26c-1.9.08-3.31-.22-3.42-4.29S138.7,366.82,138.7,366.82Z"/><path class="cls-1" d="M295.84,382.59s-4.11.27-4.74,3.63-2.91,26.74-1,27.68,7.11,1.47,7.13-2S295.84,382.59,295.84,382.59Z"/><path class="cls-1" d="M120,405.05l.05-3.52c0-.42-.06-.84-.05-1.27,0-1.49.05-3,0-4.46a15.76,15.76,0,0,0-.26-1.95,12.17,12.17,0,0,1-.43-2.47c0-.53,1.74-.27,2,.73a19.7,19.7,0,0,1,.49,5.3c0,1.07.12,2.15.15,3.23l.07,3.52c0,.73,0,1.45,0,2.16,0,1.09.08,2.18.22,3.25.14.82.37,1.62.54,2.42l.09.53a1.51,1.51,0,0,1,0,.73,1.2,1.2,0,0,1-.36.41,1.82,1.82,0,0,1-.19.14c-.1.06-.2,0-.36-.07a1.33,1.33,0,0,1-.48-.49,9.48,9.48,0,0,1-.93-2.23,20.86,20.86,0,0,1-.37-2.39c-.12-1.19-.16-2.39-.21-3.57Z"/><path class="cls-1" d="M196.31,390.4a14.66,14.66,0,0,1,2.79,5.4c1,4.42,2.48,20.61.94,21.47a4.16,4.16,0,0,1-2.83.52Z"/><path class="cls-1" d="M228.21,286.3a68.61,68.61,0,0,0-1.67-7.8c-.25-.94-.6-1.86-.88-2.79a82.43,82.43,0,0,0-3.54-9.72c-.64-1.39-1.34-2.76-2.09-4.07-.5-.84-1-1.65-1.56-2.45s-1-1.64-1.52-2.4c-.32-.48,0-.74.66-.66a4.21,4.21,0,0,1,2.6,1.42,37.92,37.92,0,0,1,3.35,5.29,47.5,47.5,0,0,1,2.32,5.74c.78,2.35,1.8,4.7,2.55,7.11a79.89,79.89,0,0,1,2,8.06c.34,1.68.59,3.37.8,5.07a54.42,54.42,0,0,1,.35,7.76,34.75,34.75,0,0,1-.51,6,6.7,6.7,0,0,1-.33,1.3q-.21.6-.39,1a3,3,0,0,1-.42.62,1.29,1.29,0,0,1-.85.47,2.35,2.35,0,0,1-.42.06c-.42,0-.49-.79-.31-1.89l.18-1.24c.05-.41.07-.84.15-1.24s.11-.83.15-1.26.1-.83.11-1.26a43,43,0,0,0,.06-5.21,64.36,64.36,0,0,0-.89-7.89Z"/><path class="cls-1" d="M243.28,276.68q.91,3.13,1.69,6.32c.18.78.44,1.54.61,2.31a83.6,83.6,0,0,1,1.31,8.34c.18,1.24.23,2.5.36,3.74.05.8.06,1.62.06,2.43a4,4,0,0,1-.15,1.22c-.09.4-.19.8-.31,1.19s-.52.35-.93-.13a3.92,3.92,0,0,1-1-2.07c-.06-.76-.11-1.51-.15-2.26s-.2-1.53-.28-2.29c-.14-1.54-.25-3.1-.43-4.69a16.7,16.7,0,0,0-.5-2.85c-.22-.95-.46-1.9-.72-2.84-.51-2.09-1.06-4.17-1.68-6.23-.37-1.28-.77-2.54-1.19-3.8-.64-1.91-1.3-3.82-2.09-5.65a41.29,41.29,0,0,0-2.15-4.06c-.16-.29-.33-.56-.47-.86-.54-1.12-.54-1.5-.23-2a3.82,3.82,0,0,1,.21-.36c.26-.34.86-.1,1.58.65a16.75,16.75,0,0,1,2.4,3.66c.69,1.3,1.28,2.66,1.85,4,.82,2,1.58,4.12,2.24,6.22Z"/><path class="cls-1" d="M310.33,285.22c-1.09,2.36-2.12,4.76-3.05,7.2-.33.89-.58,1.81-.9,2.7-1.15,3.15-2.3,6.32-3.13,9.57a32.89,32.89,0,0,0-.76,4.36c-.12.93-.19,1.86-.22,2.77a15.31,15.31,0,0,0,.06,2.64c.07.49-.32.68-.94.32a3.5,3.5,0,0,1-1.45-2.59,22.09,22.09,0,0,1-.06-3.14,27.4,27.4,0,0,1,.4-3,41.72,41.72,0,0,1,1.51-5.84c.77-2.27,1.31-4.7,2.12-7,.89-2.54,1.87-5,2.92-7.51.65-1.52,1.33-3,2-4.52,1.05-2.27,2.22-4.49,3.39-6.69.92-1.71,1.75-3.45,2.84-5.1a11.08,11.08,0,0,1,.78-1.06c1.1-1.24,1.7-1.44,2.42-1.14a4.15,4.15,0,0,1,.47.2c.42.3.28,1.05-.25,2l-2.37,4.31c-.78,1.51-1.58,3-2.38,4.57-1.17,2.29-2.32,4.65-3.36,7.05Z"/><path class="cls-1" d="M290.94,294.89l-2.14,5.52a40.29,40.29,0,0,1-2.56,5.56,5.56,5.56,0,0,1-.9,1.17,2.49,2.49,0,0,1-.77.52,3.07,3.07,0,0,1-.93.15c-.78,0-1.4,0-2.13.09-5,.24-10,.9-15.15,1a50.6,50.6,0,0,1-6.84-.26,18.26,18.26,0,0,1-2.18-.34,12.61,12.61,0,0,1-2.17-.57l-1.07-.37c-.34-.16-.68-.35-1-.53a8.64,8.64,0,0,1-1-.57l-.89-.73c-.73-.62-.25-.91.65-.89a11.17,11.17,0,0,1,1.6.23,7.09,7.09,0,0,1,1,.22l.49.17.53.15a27.07,27.07,0,0,0,8.13,1.24c2.82.08,5.71-.08,8.63-.21,3.5-.15,7.11-.79,10.81-.9h.55a.31.31,0,0,0,.23-.09,3.94,3.94,0,0,0,.59-.85,24.27,24.27,0,0,0,1.22-2.56c.76-1.79,1.45-3.64,2.15-5.49.85-2.29,1.71-4.57,2.57-6.86,1.32-3.46,2.75-6.9,4.29-10.26a58.48,58.48,0,0,1,4-7.64c.36-.53.71-1.07,1.12-1.58,1.58-1.89,2.47-2.22,3.26-2a2,2,0,0,1,.54.2c.48.34,0,1.14-1,2.33a37.52,37.52,0,0,0-3.9,6.2c-1.18,2.24-2.26,4.61-3.3,7-1.52,3.58-2.94,7.26-4.31,11Z"/><path class="cls-1" d="M222.22,266.48c-.52-.48-.43-1.17,0-2,.13-.26.76-.61.95-.5a10.07,10.07,0,0,1,1.07.73c.21.15,2.46,3.26,3.22,4.34a24.58,24.58,0,0,1,1.94,3.28c1.13,2.32,2.26,4.66,3.2,7.1a8,8,0,0,1,.47,1.67c.38,2,.92,3.88,1.43,5.83a2.21,2.21,0,0,0,.36.95,12.83,12.83,0,0,1,.79,3.25,23.55,23.55,0,0,1,.26,3.49c-.15.92-.28,1.82-.4,2.72s-.37,1.8-.57,2.68c-.05.26,0,.54-.28.74a2.34,2.34,0,0,0-.73,1.55,7.74,7.74,0,0,1-.86,2.14,3.64,3.64,0,0,1-.88.87c-.3.25-.94-.18-1-.31-.13-.39-.53-.26-.83-.34a1.13,1.13,0,0,1-.31-.1,10,10,0,0,1-.19-2.14c-.07-1.05-.22-2.12-.16-2.31a28.61,28.61,0,0,0,.17-2.87,27.63,27.63,0,0,0-.24-3.3,2.79,2.79,0,0,1,.08-1,39.79,39.79,0,0,0-.94-4.72,10.4,10.4,0,0,1-.31-2.81,1.22,1.22,0,0,0-.07-.57c-.45-1.56-.74-3.19-1.18-4.79a22.45,22.45,0,0,0-.82-2.39,2.49,2.49,0,0,1-.09-.46,3.63,3.63,0,0,0-.13-.57,49.59,49.59,0,0,0-2.38-5.57c-.21-.41-.86-2.58-1.17-3C222.43,267.8,222.43,266.67,222.22,266.48Z"/><path class="cls-1" d="M257.09,308.73a4.1,4.1,0,0,1-2.64-1.28c-.22-.22-.09-.74.23-.77.63-.06,1.27-.13,1.9-.17.4,0,6.44.13,8.43.2s3.89.11,5.81.14a49.75,49.75,0,0,0,5.75-.2,24,24,0,0,0,5.22-.87l.49-.16.46-.2a9.46,9.46,0,0,0,.94-.4c2.16-1,3.83-3.22,5-5.76a3.88,3.88,0,0,0,.46-1.34c0-.38.79-2.37,1.44-4.51s1.31-4.38,1.55-4.87c1.07-2.46,2-5,3.16-7.57a3.17,3.17,0,0,1,.56-1.06,6.61,6.61,0,0,0,1.33-2.23,18.58,18.58,0,0,1,2-3,11.5,11.5,0,0,1,1.44-1.17c.44-.33.58.14.53.31-.18.51.23.29.4.35s.13.06.16.11-.14.42-.31,1-.41,1.4-.61,2.22c-.36,1.66-.71,3.39-.84,3.71,0,0-.2.62-.46,1.49s-.58,2.06-.89,3.29c-.59,2.5-1.21,5.11-1.34,5.64a9.13,9.13,0,0,1-.64,1.64c-.05.13-.57,2.11-1.23,4.11a39,39,0,0,1-1.61,4.17,13.74,13.74,0,0,1-3.1,4.43c-.29.24-.49.55-.76.82a13,13,0,0,1-3.88,3.07,14.5,14.5,0,0,1-4.73,1.5c-1.51.18-3,.42-4.47.45a7,7,0,0,1-.8-.05c-.34,0-.67-.08-1-.08a95.38,95.38,0,0,1-10.22-.82c-.79-.07-4.4-1-5.26-1.2C259.05,309.56,257.54,308.75,257.09,308.73Z"/><path class="cls-1" d="M310.28,154.35c-1.48.57-3,1.07-4.48,1.57s-3,.93-4.57,1.26c-1.12.25-2.22.6-3.35.82-2,.29-4,.69-6,.78l-3,.24-3,.06c-1.78.09-3.57.06-5.34,0h-1.71l-1.7-.14a32.31,32.31,0,0,1-3.38-.47c-.7-.14-.55-.58.09-1a5.58,5.58,0,0,1,3-.91c1.13,0,2.26,0,3.38,0s2.25,0,3.37,0,2.25-.06,3.38-.06h1.7l1.7-.09a47.44,47.44,0,0,0,8.2-1.31c1.49-.36,3-.66,4.45-1.13l2.2-.64,2.17-.78,1.33-.47,1.31-.54c.87-.38,1.76-.71,2.61-1.13a71.78,71.78,0,0,0,7.6-4c1.89-1.18,3.62-2.52,5.42-3.82.4-.29.77-.59,1.18-.87,1.55-1,2.18-1.09,2.87-.7a2.53,2.53,0,0,1,.46.27c.42.37,0,1.15-1,2a65.29,65.29,0,0,1-10.22,7,79.37,79.37,0,0,1-8.62,4.14Z"/><path class="cls-1" d="M275.09,105.54a47,47,0,0,0-1-8.53c-.24-1-.57-2-.87-3a26.2,26.2,0,0,0-5-9.65,13.62,13.62,0,0,0-3.67-3.06,17.89,17.89,0,0,0-5.76-1.93c-.63-.12-.57-.52,0-.94a4.33,4.33,0,0,1,3.17-.61A14.62,14.62,0,0,1,268.56,81a17.56,17.56,0,0,1,2.55,2.55,20.43,20.43,0,0,1,1.92,3,46,46,0,0,1,3.39,7.79,46.23,46.23,0,0,1,1.64,9.06c.18,1.87.21,3.75.21,5.62,0,2.83-.26,5.66-.49,8.44-.11,1.08-.15,2.16-.24,3.24s-.23,2.13-.42,3.19c-.07.47-.13.93-.22,1.4-.4,1.72-.71,2.24-1.39,2.47a2.14,2.14,0,0,1-.44.16c-.46.07-.74-.72-.71-2,.06-1.9.09-3.84.13-5.79s.32-3.87.45-5.83a86.86,86.86,0,0,0,.07-8.69Z"/><path class="cls-1" d="M368.2,101.07a124.43,124.43,0,0,1,11.1-10.19c1.49-1.24-1.12-3.86-2.4-2.79a129,129,0,0,0-11.64,10.65c-1.2,1.27,1.71,3.63,2.94,2.33Z"/><path class="cls-1" d="M151.45,97.3a71.58,71.58,0,0,0,14.32,7.63c1,.37,3.79-2.14,3-2.42a71.5,71.5,0,0,1-14.31-7.63c-.82-.53-3.89,1.86-3,2.42Z"/><path class="cls-1" d="M184.86,84.61a56.85,56.85,0,0,0,6.87,8.89,5.15,5.15,0,0,0,3.1,1.71c.87.07,1.39-.45.67-1.22a52.47,52.47,0,0,1-6.39-8.16,4.82,4.82,0,0,0-2.82-2c-.49-.13-2-.25-1.43.74Z"/><path class="cls-1" d="M321.21,168.67c-1.29.45-2.58.82-3.85,1.19-.46.14-.9.34-1.37.46-1.67.34-3.37.55-5,.85-.73.14-1.45.33-2.15.53a9.59,9.59,0,0,1-2.76.6c-.31,0-.39-.46-.28-1a1.86,1.86,0,0,1,.9-1.36,28.61,28.61,0,0,1,5.4-1.75,27.61,27.61,0,0,0,3.26-1.18c1.21-.38,2.41-.78,3.6-1.22.72-.28,1.46-.54,2.15-.88.52-.26,1.07-.49,1.57-.78a8.73,8.73,0,0,0,1.45-.93,4.22,4.22,0,0,0,.9-.94l.39-.51.33-.54a3.35,3.35,0,0,1,.27-.45c.16-.27.3-.4.55-.4a3.12,3.12,0,0,1,1,.36c.21.1.43.19.63.3a1.67,1.67,0,0,1,.73.71,1.15,1.15,0,0,1,.09,1,8.89,8.89,0,0,1-4,4.25,25.41,25.41,0,0,1-3.78,1.78Z"/><path class="cls-1" d="M377.12,445c1-3.75,3.93-6.23,6.68-8.74.31-.29-1.36-.16-1.44-.15a4.84,4.84,0,0,0-2.39.65c-2.8,2.56-5.78,5.12-6.79,8.93,0-.06,3.7.21,3.94-.69Z"/><path class="cls-1" d="M375.39,443.16a22.84,22.84,0,0,0-6-5.27c-1.33-.87-4.63,1.18-2.84,2.35a20.42,20.42,0,0,1,5.4,4.83c1,1.29,4.57-.38,3.42-1.91Z"/><path class="cls-1" d="M375.25,443.34c2.79,0,.29-.55-1-.55-2.79,0-.29.55,1,.55Z"/><path class="cls-1" d="M376.76,442.87c-.82-2.5.9-5.92,2.56-7.73s-1.52-2.88-2.86-1.42c-2.47,2.69-4.55,7.15-3.34,10.8.59,1.78,4.25.19,3.64-1.65Z"/><path class="cls-1" d="M96.3,444.23c1.45.37,2,4.36,2.54,5.69.49,1.12,4.27,2,3.57.39s-.91-3.36-1.76-4.88A7.15,7.15,0,0,0,96,442.11c-.55-.14-1.75-.27-1.74.57s1.43,1.39,2,1.55Z"/><path class="cls-1" d="M97,439.36c3.15,2.48,5.59,5.67,4.36,9.85-.4,1.33,2,2,2.34.75,1.46-4.94-1-8.8-4.8-11.82-1-.78-3.12.25-1.9,1.22Z"/><path class="cls-1" d="M397.17,434.69s-.39,0-.81,3.11c0,.32-.05,1.19,0,2.13a3.15,3.15,0,0,1-3.1,3.19c-11.78.22-52.65,1.12-56.42,2.84-4.42,2,0,1.36,0,1.36l62-2.63Z"/><path class="cls-1" d="M451,431.72c-.68,1-1.11,2.71-1.74,5.66s-1.26,3.57-3.36,3.68-39.16,2-42.95,3.05c-2,.56,42.72.22,46.31-1.05s2.74-4.39,2.74-4.39Z"/><path class="cls-1" d="M67.68,437.48s1.89.42,2.74,3.69-1.16,7.2,4.63,7.7,40.84-.76,40.84-.76c1,2.43-4.39,1.65-8.78,2.64s-37.75,1.58-38.83-2.64S67.68,437.48,67.68,437.48Z"/></g></svg>