<svg xmlns="http://www.w3.org/2000/svg" width="520" height="520" viewBox="0 0 520 520"><defs><style>.cls-1{fill:#231f20;}</style></defs><title>Notioly New upgrade</title><g id="n.123_Idea" data-name="n.123 Idea"><path class="cls-1" d="M234.28,203.92a18.13,18.13,0,0,1-1.13,10,16.68,16.68,0,0,1-.75,1.67l-.41.82-.5.76a20.94,20.94,0,0,1-9.92,7.75,54.83,54.83,0,0,1-5.33,1.69,18.12,18.12,0,0,1-7.1.47c-.73-.24-.61-.42,0-.87a5.69,5.69,0,0,1,1.24-.64,5.24,5.24,0,0,1,1.74-.45l1.7-.18c.56,0,1.12-.19,1.68-.24a15.94,15.94,0,0,0,3.36-.63,25.34,25.34,0,0,0,6.25-2.78,16.31,16.31,0,0,0,5.63-6.11,15.88,15.88,0,0,0,2.17-8.87,19.27,19.27,0,0,0-1.47-5.53,37.57,37.57,0,0,0-4.54-7.59c-1.38-1.84-2.89-3.53-4.35-5.31-.33-.38-.65-.76-1-1.17-1.12-1.53-1.28-2.18-1.1-2.79,0-.13,0-.28.06-.36s.21-.08.59.07a3.77,3.77,0,0,1,1.26,1,73.46,73.46,0,0,1,8,10,26.49,26.49,0,0,1,3.95,9.28Z"/><path class="cls-1" d="M55,209.14a15.58,15.58,0,0,1-2.23-6.8,20.41,20.41,0,0,1-.12-2.59,37.52,37.52,0,0,1,1.51-8.85c.36-1.27.71-2.56,1.16-3.8a15.22,15.22,0,0,1,2.31-4.54c.33-.41.44-.25.4.24a9.19,9.19,0,0,1-.48,2.2,80.92,80.92,0,0,0-3,9.59,26.69,26.69,0,0,0-.66,6.12,14.88,14.88,0,0,0,1.34,6.53,14.08,14.08,0,0,0,2.39,3.36A13.94,13.94,0,0,0,62.88,214a40.09,40.09,0,0,0,4.71,1.32l1,.27a6.94,6.94,0,0,1,1.36.49,1.83,1.83,0,0,1,.53.48c0,.08.11.15.14.21s-.09.14-.35.16a3.94,3.94,0,0,1-1.15,0,27.26,27.26,0,0,1-8.9-2.74,14.89,14.89,0,0,1-5.31-5Z"/><path class="cls-1" d="M144.47,187.15c-1.1.78-11.33,2.92-14.31,2.84s-3.74-8.49,0-12.6C134.48,172.63,141.93,186,144.47,187.15Z"/><path class="cls-1" d="M76.68,157.32s-10.82,1.61-11.27.26,2.33-8.43,4.91-7.64S75.4,158.07,76.68,157.32Z"/><path class="cls-1" d="M395.18,92.57c-12-11.75-65.54-49.26-113.2-35.67C271.05,60,259.81,67.57,254.85,78.31a32,32,0,0,0,6,36.17c6.75,6.85,16,10.59,25.34,12.12,4.68.77,9.22.43,13.88.71,39.54,2.37,85.06-25.3,85.06-25.3v2.68c-2.35,29,23.4,58.33,23.4,58.33s8.22-27,27.49-12.39c0,0,17.15-26.9,13.57-51.56,0,0-3-11.19-11.85-18.13C418.9,66.2,394.65,91.94,395.18,92.57Z"/><path class="cls-1" d="M402,399.71a26.75,26.75,0,0,0-.22-3.2c-.06-.39-.15-.77-.19-1.17a33,33,0,0,0-.75-4.16,15.46,15.46,0,0,0-.59-1.78,17.86,17.86,0,0,1-.89-2.23c-.06-.25.22-.36.59-.31a1.6,1.6,0,0,1,1.1.7,14.82,14.82,0,0,1,1.85,4.75c.18,1,.56,2,.79,3a26.27,26.27,0,0,1,.42,3.44c.05.71,0,1.43.05,2.14,0,.54-.06,1.09-.09,1.64s-.12,1.09-.24,1.63-.1.86-.23,1.29a3.84,3.84,0,0,1-.45,1.28,5.86,5.86,0,0,1-.3.55c-.51.61-.85.66-1.28.38a3.06,3.06,0,0,1-.29-.21,1,1,0,0,1-.2-1.08c.21-.56.24-1.15.41-1.72a16.65,16.65,0,0,0,.33-1.88,19.63,19.63,0,0,0,.12-3.09Z"/><path class="cls-1" d="M360.66,355.4a4.8,4.8,0,0,0-.72,6.32,2.57,2.57,0,0,0,3.42.9c1-.66,1.75-2.31.9-3.42-.09-.11-.51-.87-.23-.28l0-.18c0,.36.06.4.05.12,0,.68.16-.17-.09.38.15-.23.13-.23-.05,0a2.83,2.83,0,0,1,.3-.3,2.5,2.5,0,1,0-3.54-3.54Z"/><path class="cls-1" d="M312.9,357.38a5.8,5.8,0,0,0-1.3,2.15,3.65,3.65,0,0,0,1,3.34,2.5,2.5,0,0,0,2.44.64,3.87,3.87,0,0,0,2.88-2.48,4.33,4.33,0,0,0-.2-2.88,2.67,2.67,0,0,0-1.15-1.49,2.49,2.49,0,0,0-3.67,2.82c.09.21.15.43.22.65.12.4,0-.21,0-.3,0,.24-.14.52.06-.3-.08.35.28-.56.14-.32s.45-.52.19-.26c.37-.27.47-.35.3-.25s-.06.05.33-.13c-.13,0-.28.09-.4.12l2.43.64c.18.26.23.32.14.17s-.06-.08.12.3v1c-.2.4-.24.52-.15.34a1.34,1.34,0,0,0,.17-.27l-.21.28.2-.25a2.71,2.71,0,0,0,.73-1.77,2.52,2.52,0,0,0-.73-1.76c-.9-.83-2.67-1.1-3.54,0Z"/><path class="cls-1" d="M390.13,377.68a12.86,12.86,0,0,1,2.9,2.85l.45-1.71c-3.26,2-7.52,1-10.93,3a1.25,1.25,0,0,0,1.26,2.16c3.39-1.92,7.59-.88,10.93-3a1.26,1.26,0,0,0,.45-1.71,16.49,16.49,0,0,0-3.8-3.75c-1.29-1-2.54,1.21-1.26,2.16Z"/><path class="cls-1" d="M422.71,467.32c-5.32.56-10.63,1.06-16,1.32-1.95.07-3.89.3-5.84.29-6.87.17-13.75-.12-20.59-.59l-4.56-.44c-1.52-.13-3-.25-4.53-.48-1.92-.28-3.87-.45-5.78-.81s-3.79-.92-5.66-1.44c-1.17-.33-.93-.61.15-.79a20.12,20.12,0,0,1,5.2,0l5.8.73c1,.12,1.93.28,2.9.37l2.93.25c3.88.41,7.81.56,11.75.8,2.36.07,4.77.11,7.19,0s4.86-.2,7.28-.34c5.31-.34,10.63-.68,15.93-1.27,3.26-.33,6.52-.75,9.77-1.19l7.39-1.09c2.45-.42,4.91-.81,7.33-1.29,3.78-.71,7.43-1.67,11.16-2.43.82-.18,1.61-.37,2.44-.53a18.47,18.47,0,0,1,3.31-.43,3,3,0,0,1,1.58.43,4.13,4.13,0,0,1,.51.33c.19.2,0,.46-.53.77a9.63,9.63,0,0,1-2.46,1c-3.28.9-6.65,1.86-10.13,2.58s-7,1.41-10.57,2c-5.29.92-10.64,1.65-16,2.32Z"/><path class="cls-1" d="M386,416.69c-3.42,2.16-6.78,4.44-10.17,6.71-1.23.83-2.44,1.7-3.69,2.51-4.43,2.86-9,5.42-13.42,8.18-2,1.22-3.91,2.51-5.8,3.82-1.21.84-2.41,1.71-3.61,2.57s-2.45,1.66-3.67,2.49c-.77.51-.77.31-.29-.34a19.43,19.43,0,0,1,2.74-2.9,147.71,147.71,0,0,1,15.17-10.13c3.18-1.82,6.31-3.89,9.38-6,3.39-2.29,6.75-4.64,10.18-6.92,2.11-1.4,4.24-2.77,6.41-4.08a92.46,92.46,0,0,1,10.2-5.34,55.89,55.89,0,0,1,8.3-3.08c.63-.15,1.25-.32,1.9-.44a9.06,9.06,0,0,1,1.53-.2c.43,0,.77,0,1.06,0a2.34,2.34,0,0,1,1.17.27,1.93,1.93,0,0,1,.36.2c.25.22-.69.62-2.37,1a64.79,64.79,0,0,0-14.84,5.58c-3.59,1.84-7.07,3.95-10.51,6.15Z"/><path class="cls-1" d="M243.83,470.74l-4.68-1c-.57-.12-1.16-.15-1.72-.29l-6-1.59c-.88-.23-1.79-.36-2.67-.56a11.17,11.17,0,0,1-3.43-1c-.38-.21-.1-.63.34-1.05a2.36,2.36,0,0,1,1.69-.81,29,29,0,0,1,3.47.39,32.4,32.4,0,0,1,3.42.88,33.13,33.13,0,0,0,4.27.76l4.68.92c1,.18,1.93.36,2.89.52,1.47.23,2.93.49,4.4.59a31.36,31.36,0,0,0,3.37-.11,6.11,6.11,0,0,1,.73-.05c.89,0,1.16.2,1.37,1,.05.19.11.38.14.57a1.2,1.2,0,0,1-1,1.38,16.8,16.8,0,0,1-6.51.26c-1.61-.19-3.2-.49-4.8-.76Z"/><path class="cls-1" d="M338.32,413a24,24,0,0,1,.36-3.07c.06-.37.05-.74.13-1.11.29-1.28.65-2.54,1-3.77a16.18,16.18,0,0,0,.46-1.65,5.63,5.63,0,0,1,.71-2.05c.26-.39,1.72.67,1.64,1.45a16.18,16.18,0,0,1-1,4.1,10.45,10.45,0,0,0-.41,2.56c-.13.94-.2,1.89-.27,2.84,0,.58-.08,1.17-.07,1.75a15.54,15.54,0,0,0,.22,2.65,11.09,11.09,0,0,0,.68,1.91c.05.14.14.27.18.41.16.52,0,.76-.45,1.05l-.3.2a.9.9,0,0,1-1.1-.26,8.5,8.5,0,0,1-1.71-3.85,19.77,19.77,0,0,1-.23-3.16Z"/><path class="cls-1" d="M256.92,422c3.74-.47,6.54-2.25,9.34-4.69,3-2.57,6.47-6.3,10.69-6.48,1.76-.07,1.77-2.82,0-2.75-8.38.35-12.12,10.18-20,11.17-1.73.22-1.75,3,0,2.75Z"/><path class="cls-1" d="M290.44,168.92a28.71,28.71,0,0,1-2.24-4.2c-.21-.54-.46-1.06-.66-1.59a34.51,34.51,0,0,1-1.39-5.87c-.09-.89-.27-1.76-.35-2.64-.05-.56-.14-1.12-.17-1.68a13.74,13.74,0,0,1,0-1.7c.06-.7,1.15.19,1.24,1.43a64.7,64.7,0,0,0,.94,6.6,20.11,20.11,0,0,0,1.3,3.88,26.21,26.21,0,0,0,2.05,4,23.83,23.83,0,0,0,1.63,2.25,18.48,18.48,0,0,0,3,3,15.68,15.68,0,0,0,2.79,1.57c.21.1.42.19.64.27.8.33,1,.61.95,1.13a2,2,0,0,1,0,.35c-.06.37-.53.5-1.21.32a14.33,14.33,0,0,1-5.45-3.34,22.64,22.64,0,0,1-3.11-3.73Z"/><path class="cls-1" d="M187.81,160.89c-.18.31,13.27-3.11,14.78-3.95s-5.14-10.39-9-9.07S189.42,158.12,187.81,160.89Z"/><path class="cls-1" d="M358.39,255.08a25.07,25.07,0,0,1-2.7.49l-2.73.28c-.91.12-1.84,0-2.75.07a19.4,19.4,0,0,1-2.75-.11l-2.71-.27c-.9-.13-1.79-.34-2.68-.51a46.69,46.69,0,0,1-5.22-1.4,48,48,0,0,1-7.25-3,48.86,48.86,0,0,1-11.12-8.08,56.64,56.64,0,0,1-4.66-5c-.71-.89-1.34-1.85-2-2.76a24.14,24.14,0,0,1-1.89-2.84,54.54,54.54,0,0,1-2.94-5.28l-1.29-2.72-.33-.67-.26-.71-.52-1.4c-.44-1.2-.91-2.39-1.33-3.6s-.66-2.47-1-3.71l-.44-1.86c-.14-.63-.19-1.27-.28-1.9-.16-1.27-.3-2.53-.42-3.79-.14-1.58.4-1.42,1.21-.21a18.15,18.15,0,0,1,1.36,2.51c.5,1,.86,2.29,1.38,3.61,3,9.5,7.37,18.36,14,25.82a43.43,43.43,0,0,0,14.74,10.46,45.06,45.06,0,0,0,9.53,3,37.48,37.48,0,0,0,4.95.66c.83.06,1.66,0,2.49,0H352c.41,0,.83-.09,1.24-.13a34.81,34.81,0,0,0,11.89-3.14,42.6,42.6,0,0,0,8.1-4.83,49.78,49.78,0,0,0,7-6.35,70,70,0,0,0,8.46-11.84l1.56-2.78c2-3.48,2.73-4.5,4.1-4.77a4.61,4.61,0,0,1,.92-.17c.91,0,.76,1.82-.5,4.59a64.93,64.93,0,0,1-16.88,22.54,48.44,48.44,0,0,1-9.11,6.13,22.8,22.8,0,0,1-2.49,1.2c-.86.36-1.7.73-2.57,1.07a45.11,45.11,0,0,1-5.34,1.52Z"/><path class="cls-1" d="M392.22,144q-2.24-5-4.07-10.07c-.44-1.24-1-2.45-1.37-3.71a73.22,73.22,0,0,1-3-13.67c-.27-2-.51-4.13-.59-6.2a18.82,18.82,0,0,1,1-8c.32-.8.81-.49,1.22.31a8.07,8.07,0,0,1,.76,3.44,44.94,44.94,0,0,0,.52,7.46c.33,2.5.79,5,1.27,7.58.31,1.53.74,3.06,1.21,4.6s1,3,1.57,4.55c1.16,3.33,2.46,6.63,3.89,9.86q1.33,3,2.82,5.91a80.46,80.46,0,0,0,5,8.56,50,50,0,0,0,4.8,5.79c.37.4.78.75,1.14,1.16,1.38,1.47,1.66,2.05,1.27,3.09a5.69,5.69,0,0,1-.26.7c-.38.71-1.48.57-2.75-.45a44.67,44.67,0,0,1-9.3-11.24,98,98,0,0,1-5.22-9.67Z"/><path class="cls-1" d="M434.06,170.12l.6-1.47a11.23,11.23,0,0,0,.45-1.43,18.27,18.27,0,0,0,.48-3.09,23.06,23.06,0,0,0-.46-6.36,16.1,16.1,0,0,0-1.61-4.27,9.51,9.51,0,0,0-2.39-3,7.15,7.15,0,0,0-3.44-1.38,12.56,12.56,0,0,0-4,.31c-.69.16-1.37.34-2,.55a16.56,16.56,0,0,0-2,.79,14.34,14.34,0,0,0-3.14,2,16,16,0,0,0-2.5,2.76,21.59,21.59,0,0,0-2.26,4.25c-.66,1.48-1.26,3-1.92,4.57-.44.95-.83.74-1.2-.28a7.94,7.94,0,0,1-.12-4.93,22.3,22.3,0,0,1,2.56-5.06,18.2,18.2,0,0,1,4-4.21,17.51,17.51,0,0,1,5.13-2.69,11.31,11.31,0,0,1,1.37-.41c.46-.11.92-.25,1.38-.32a22.75,22.75,0,0,1,2.86-.37,11.54,11.54,0,0,1,7.06,1.92,13.44,13.44,0,0,1,4.56,5.57,21.13,21.13,0,0,1,1.82,7.34,23.84,23.84,0,0,1-.58,7.51,29.8,29.8,0,0,1-3.9,8.25,36.15,36.15,0,0,1-9.58,9.6,32.62,32.62,0,0,1-9.44,4.66,21.89,21.89,0,0,1-2.29.57c-2.94.46-3.92-.05-4.48-1.05a4.4,4.4,0,0,1-.37-.71c-.21-.78.92-1.47,2.74-1.79a31.32,31.32,0,0,0,15-7.57,33.71,33.71,0,0,0,4.39-4.77,29.31,29.31,0,0,0,3.24-5.57Z"/><path class="cls-1" d="M261,120a42.52,42.52,0,0,1-5-4.57,36.1,36.1,0,0,1-4.19-5.4,34,34,0,0,1-4.85-12.75,36,36,0,0,1,.37-13.56,40.69,40.69,0,0,1,5-12.46l1.3-2.08,1.44-2,.73-1,.79-.93,1.6-1.85,1.72-1.72.87-.86.93-.79,1.86-1.57,2-1.43c1.14-.87,2.42-1.53,3.63-2.29.6-.39,1.28-.67,1.92-1a20.46,20.46,0,0,1,2-.91,53.24,53.24,0,0,1,8.09-2.68A85.44,85.44,0,0,1,297.73,48a127.66,127.66,0,0,1,33,3.23c4.78,1.09,9.52,2.4,14.18,3.94a138.77,138.77,0,0,1,13.65,5.4,109.82,109.82,0,0,1,16.4,9.23c1.29.9,2.58,1.8,3.79,2.81s2.48,2,3.63,3a56.6,56.6,0,0,1,6.6,6.72c2.5,3,1.61,3.05-1.26,1.32s-7.83-5-13.53-8.93a119.52,119.52,0,0,0-33-16.33,135.18,135.18,0,0,0-36.63-6.49,85,85,0,0,0-11.27.31,72,72,0,0,0-11.2,1.89,44.46,44.46,0,0,0-10.43,4.05,46.91,46.91,0,0,0-8.94,6.7A38.66,38.66,0,0,0,251,85.94,31.33,31.33,0,0,0,251.25,98a29.53,29.53,0,0,0,4.84,11.09,37.65,37.65,0,0,0,11.11,10.2,46.09,46.09,0,0,0,14.18,5.7,85.63,85.63,0,0,0,23.43,2.06q5.91-.28,11.78-1.13t11.59-2.24c5.95-1.41,11.74-3.21,17.47-5.16s11.35-4.1,16.88-6.5c2.42-1.08,4.76-2.18,7.15-3.37,8.83-4.43,11.42-6.12,13.91-6.24.55-.07,1.21-.24,1.56-.24.59,0,.12.7-1.16,2.1a32.54,32.54,0,0,1-6.86,5c-9.54,5.67-20.13,9.92-31,13.53a160.52,160.52,0,0,1-34,7.81,99.34,99.34,0,0,1-26.39-.5l-3.28-.62c-1.09-.19-2.16-.5-3.25-.75a48,48,0,0,1-6.47-2,54,54,0,0,1-6.16-2.89,51,51,0,0,1-5.71-3.75Z"/><path class="cls-1" d="M450,99.31c-.06-.75-.06-1.52-.18-2.27l-.31-2.23a32.24,32.24,0,0,0-1.15-4.34,23.71,23.71,0,0,0-4.27-7.73A9.52,9.52,0,0,0,443,81.57l-1.16-1.13c-.86-.66-1.74-1.3-2.59-2a26.37,26.37,0,0,0-10.7-4.24,31.21,31.21,0,0,0-11.78.45c-.85.23-1.73.37-2.57.67l-2.51.89a37,37,0,0,0-4.75,2.39c-.48.3-1,.56-1.45.89l-1.38,1c-.45.34-.94.64-1.36,1s-.86.74-1.3,1.1a33.89,33.89,0,0,0-2.54,2.26c-.87.74-1.59,1.62-2.39,2.44-1,1-1.35.57-1.08-.79a12,12,0,0,1,.92-2.64,15.66,15.66,0,0,1,2.26-3.15A37.14,37.14,0,0,1,411.3,72.6a33.21,33.21,0,0,1,15-2.13,40.09,40.09,0,0,1,4.58.66c.77.13,1.51.4,2.27.59a16.18,16.18,0,0,1,2.24.71l2.19.89a22,22,0,0,1,2.09,1.1l1,.58.51.3.48.35,1.88,1.42A27.62,27.62,0,0,1,450.15,85a33.93,33.93,0,0,1,3.25,9.65,48.35,48.35,0,0,1,.44,12.3,70,70,0,0,1-1.45,9.13c-.69,3-1.57,5.94-2.52,8.83A91.05,91.05,0,0,1,444.53,138c-.48.92-.93,1.84-1.48,2.74a12.5,12.5,0,0,1-2.52,3.28,2.9,2.9,0,0,1-2,.82,3.69,3.69,0,0,1-.88,0c-.85-.19-.43-1.81.78-4.23a111.18,111.18,0,0,0,5.32-11,93,93,0,0,0,4.06-11.85,58.43,58.43,0,0,0,2.09-18.39Z"/><path class="cls-1" d="M291.79,185.85a17.29,17.29,0,0,1,1.64-3.49,36.22,36.22,0,0,1,2-3.06,45,45,0,0,1,4.66-5.43c1.21-1.23,2.41-2.44,3.69-3.56,4.55-3.89,9.39-7.15,13.66-11a34.79,34.79,0,0,0,5-5.64,38.3,38.3,0,0,0,2.42-4.05c.35-.7.67-1.4.95-2.12s.66-1.41.89-2.16c.33-.91.81-.8,1.33.18a7.54,7.54,0,0,1,.68,2.12,6.4,6.4,0,0,1-.38,2.9,20.51,20.51,0,0,1-2.61,4.87,38.42,38.42,0,0,1-3.44,4.13,60.59,60.59,0,0,1-7.93,6.82c-3.31,2.46-6.51,5.2-9.53,7.94a40.92,40.92,0,0,0-8.42,10.17A12.37,12.37,0,0,0,295,188a7.19,7.19,0,0,0,0,3.57,6,6,0,0,0,3.6,3.74,10.84,10.84,0,0,0,5.76.39,26.76,26.76,0,0,0,8.67-3.54c.6-.35,1.16-.73,1.75-1.1,2.18-1.38,2.92-1.7,4-1.24a4.91,4.91,0,0,1,.7.3c.66.42.17,1.65-1.45,2.94a31.28,31.28,0,0,1-8.17,4.7,20.31,20.31,0,0,1-10.2,1.46,10.17,10.17,0,0,1-7.33-4.77A9.08,9.08,0,0,1,291,190a13.33,13.33,0,0,1,.66-4.16Z"/><path class="cls-1" d="M288.59,136.27s0,0-.06.16l-.18.69L288,138.5c-.22.93-.38,1.87-.58,2.81a49.26,49.26,0,0,0-.68,5.7,16.2,16.2,0,0,0,0,2.09c0,.7,0,1.4,0,2.1a38.3,38.3,0,0,0,2.85,14.36,20.1,20.1,0,0,0,1.53,2.86l.9,1.35c.33.42.7.81,1,1.22l.68.77.76.68.77.67a4.43,4.43,0,0,0,.79.64c.56.39,1.1.79,1.64,1.22s1.15.71,1.72,1.11.33,1.19-.7,1.55a5.08,5.08,0,0,1-4.39-.64,22.92,22.92,0,0,1-6.75-7.05A27.09,27.09,0,0,1,284.2,161a65,65,0,0,1-1.43-11.31,54.42,54.42,0,0,1,1.36-12.35l.46-1.85c0-.17.09-.42.15-.63a4.59,4.59,0,0,1,.28-.64,3.13,3.13,0,0,1,.9-1,3.27,3.27,0,0,1,.58-.39,4,4,0,0,1,.57-.3,9.08,9.08,0,0,1,1-.39,19.07,19.07,0,0,1,2-.51,59.85,59.85,0,0,1,11.52-.6c2.94,0,5.84,0,8.81.31.65.07,1.3.11,2,.24,2.45.49,3.24,1.19,3.24,2.46a4,4,0,0,1,0,.85c-.26.89-1.25,1.15-2.79,1-2.34-.27-4.86-.42-7.4-.55s-5.15-.2-7.74-.15a51.35,51.35,0,0,0-5.63.37,17.46,17.46,0,0,0-2.5.51,3.91,3.91,0,0,0-.49.18l-.21.08-.05,0a.09.09,0,0,0-.07,0Z"/><path class="cls-1" d="M371.28,179.42a22.22,22.22,0,0,0,9-5.17,30.21,30.21,0,0,0,6.3-8.82,47.85,47.85,0,0,0,2.77-7.66,68.77,68.77,0,0,0,2.46-14.39l.1-1.84,0-.42c0-.06,0-.13,0-.18l-.12-.13a1.83,1.83,0,0,0-.28-.27c-.2-.14-.39-.34-.63-.48l-.69-.45-.75-.41a30,30,0,0,0-6.74-2.37,68,68,0,0,0-13-1.58c-2.8-.13-5.62-.06-8.42,0s-5.65,0-8.36.16c-.84,0-1.11-.1-1.22-.41s.21-.83.93-1.35a15.13,15.13,0,0,1,7.53-2.42,82,82,0,0,1,8.87,0c2.95.12,5.92.38,8.88.79a54.41,54.41,0,0,1,8.9,2,27.53,27.53,0,0,1,4.4,1.83,18.83,18.83,0,0,1,2.13,1.34l.51.41a5.86,5.86,0,0,1,.7.63l.68.68.34.33.17.17a1.92,1.92,0,0,1,0,.24l-.06,2.15-.08,1.35c-.06.91-.13,1.81-.21,2.72q-.22,2.73-.62,5.46a59.18,59.18,0,0,1-2.51,10.8,41.77,41.77,0,0,1-5.54,11,28.56,28.56,0,0,1-9.25,8.3A26.55,26.55,0,0,1,370.3,184l-1.88.34-1.89.21a22,22,0,0,1-3.89-.05,22.94,22.94,0,0,1-18.26-12.83,38.11,38.11,0,0,1-3.79-17,37.11,37.11,0,0,1,.12-3.8c.51-4.72,1.19-6.12,2.44-6.89a4.38,4.38,0,0,1,.87-.5c.93-.26,1.21,1.71,1,5a58,58,0,0,0,.78,14.45,28.54,28.54,0,0,0,2.27,6.71l.82,1.56c.32.47.57,1,.92,1.41a19.14,19.14,0,0,0,2.22,2.55,19.4,19.4,0,0,0,8.91,4.74,16.82,16.82,0,0,0,5,.39,27.6,27.6,0,0,0,5.22-.95Z"/><path class="cls-1" d="M337.06,149.52a18.44,18.44,0,0,0-10.76-.06c-2.42.83-1.38,4.7,1.07,3.86a14.44,14.44,0,0,1,8.63.06c2.49.64,3.56-3.21,1.06-3.86Z"/><path class="cls-1" d="M391.33,286.62c-7.58-6.66-16-12.71-25.77-14.5A54.12,54.12,0,0,0,350.71,271a55.55,55.55,0,0,0-14.59,3.15,71.84,71.84,0,0,0-13.49,6.7A104.49,104.49,0,0,0,310.46,290a188.37,188.37,0,0,0-21.18,22.26c-2.41,2.89-4.71,5.86-7,8.81s-4.57,6-6.75,9q-6.62,9.14-12.64,18.66a283.44,283.44,0,0,0-18.94,34.84A184.88,184.88,0,0,0,231.22,421a97.66,97.66,0,0,0-1.56,9.69,61.92,61.92,0,0,0-.38,9.7,23.25,23.25,0,0,0,2,9,37.85,37.85,0,0,0,5.47,7.82,34.47,34.47,0,0,0,16.12,9.84,54.78,54.78,0,0,0,19.29,1.61,84.54,84.54,0,0,0,17.13-3.28,139.06,139.06,0,0,0,16.39-6.29A275.18,275.18,0,0,0,336.42,442L355.57,430,365.2,424c3.19-2,6.39-4,9.63-6a122.13,122.13,0,0,1,20.38-10.4,71.16,71.16,0,0,1,11.09-3.15,41,41,0,0,1,11.61-.67,16.34,16.34,0,0,1,5.2,1.4c1,.6,1.39.93,1.26,1s-.77-.08-1.85-.31a22.14,22.14,0,0,0-4.58-.39c-3.91.07-9.36,1.2-15.67,3.31a111.63,111.63,0,0,0-20.72,9.81c-6.57,3.79-13,8-19.63,12s-13,8.1-19.56,12.19c-13.06,8.17-26.42,16.25-41,22.16-1.82.71-3.63,1.47-5.5,2.09s-3.7,1.32-5.61,1.87a97,97,0,0,1-11.57,2.66,75,75,0,0,1-11.9,1,56.19,56.19,0,0,1-12-1.18,38.9,38.9,0,0,1-21.13-11.87l-1-1.15-.94-1.21a29.21,29.21,0,0,1-1.78-2.51,28.12,28.12,0,0,1-1.59-2.62,18.25,18.25,0,0,1-1.41-2.94,34.92,34.92,0,0,1-1.5-12.28c.31-9.6,2.42-18.93,5.08-28.09,1.36-4.57,2.93-9.09,4.6-13.57s3.55-8.9,5.53-13.27a303.32,303.32,0,0,1,28.77-49.69q9.09-12.85,19.25-24.87A172.39,172.39,0,0,1,310.87,285c8.18-6.66,17.42-12.36,27.73-15.35a55.59,55.59,0,0,1,15.85-2.28,59.11,59.11,0,0,1,15.82,2.26A55.22,55.22,0,0,1,387.59,279a117.87,117.87,0,0,1,14.34,13.17,189.29,189.29,0,0,1,12.5,14.81q5.9,7.68,11.27,15.72a390.07,390.07,0,0,1,28.72,51c2.05,4.43,4,8.91,5.74,13.5a66.42,66.42,0,0,1,2.25,7.05l1.8,7.07a138.75,138.75,0,0,1,2.89,14.36,60.46,60.46,0,0,1,.44,14.73,33.59,33.59,0,0,1-3.05,11.16,28.53,28.53,0,0,1-3.1,4.95,30,30,0,0,1-4.05,4.14,58.63,58.63,0,0,1-19.62,11.24c-.88.35-1.79.61-2.68.89s-1.8.57-2.71.82c-1.82.44-3.63,1-5.47,1.33l-2.76.57-2.77.46c-1.85.34-3.71.52-5.57.77a166.15,166.15,0,0,1-22.41.83c-6.55-.18-13-.39-19.6-1-12.28-1.13-20.3-3.05-25.76-4.8a38.93,38.93,0,0,1-10.6-5c-1-.73-2.31-1.62-2.84-2.11s-.2-.49.67-.28,2.33.79,4.43,1.43a135,135,0,0,0,19.37,5c12.87,2.28,26.3,2.8,39.76,2.95a148.51,148.51,0,0,0,20.09-1.29,89.75,89.75,0,0,0,19.45-4.83,53.14,53.14,0,0,0,17-10.11A23.74,23.74,0,0,0,458.6,444a26.93,26.93,0,0,0,2.51-4,30.54,30.54,0,0,0,1.71-4.45,37.71,37.71,0,0,0,1-4.75c.84-6.51.07-13.33-1.21-20.06-.65-3.37-1.44-6.74-2.29-10.12L459,395.6l-.33-1.28-.34-1.19c-.21-.78-.5-1.59-.77-2.39-1.64-4.78-3.72-9.54-5.84-14.24s-4.45-9.36-6.82-14c-4.74-9.24-9.88-18.29-15.32-27.14S418.3,317.91,412,309.68c-3.14-4.13-6.44-8.11-9.84-12a149.67,149.67,0,0,0-10.85-11Z"/><path class="cls-1" d="M251.15,422.32l-1.43-.61a2.1,2.1,0,0,1-1.14-.93,3.72,3.72,0,0,1-.43-1.43,6,6,0,0,1,.1-1.57,15.47,15.47,0,0,1,1.3-3.61,36.89,36.89,0,0,1,3.79-6,40,40,0,0,1,3.33-3.91,32.92,32.92,0,0,1,3.47-3c.62-.45,1.25-.88,1.92-1.28a9.71,9.71,0,0,1,1.12-.6c.39-.17.76-.3,1.14-.43a55,55,0,0,1,8.73-1.84c2.58-.35,5.18-.65,7.76-.86a36.47,36.47,0,0,1,5-.16,14.76,14.76,0,0,1,2.54.29,11.33,11.33,0,0,1,2.52.89c.51.27.66.56.56.66s-.42.14-.88.22a16.42,16.42,0,0,0-1.79.43c-.36.1-.75.24-1.16.32s-.83.1-1.28.13c-3.17.23-6.44.48-9.68.91s-6.53.76-9.7,1.43a14.19,14.19,0,0,0-2.65.78,12.14,12.14,0,0,0-1.15.67c-.4.27-.8.55-1.18.85a33,33,0,0,0-4.33,4,38,38,0,0,0-4,5.2,27.28,27.28,0,0,0-1.58,2.84c-.23.48-.43,1-.61,1.46-.08.24-.16.48-.22.72a2.37,2.37,0,0,0-.08.34c0,.05,0,.11,0,.18,0,.28,0,.72.35.79a1.83,1.83,0,0,0,.51.15,7.45,7.45,0,0,0,.84.09,7.86,7.86,0,0,0,3.54-1,22.7,22.7,0,0,0,5-3.48c1.57-1.37,2.93-2.86,4.43-4.45a12,12,0,0,1,4.48-2.88,18.64,18.64,0,0,1,5.09-1c.74,0,1.45-.1,2.18-.1,2.69,0,3.48.28,4,1.15a4.06,4.06,0,0,1,.38.61c.26.67-.86,1.24-2.82,1.39-2.89.23-5.78.3-8,1.19a8.94,8.94,0,0,0-2.93,1.91,10,10,0,0,0-.73.73l-.81.83c-.54.56-1.11,1.12-1.69,1.67a31.42,31.42,0,0,1-5.77,4.44,16.71,16.71,0,0,1-3.59,1.59,9.54,9.54,0,0,1-4.42.21Z"/><path class="cls-1" d="M271.48,431.48a5.06,5.06,0,0,1-.85-2.29,7.8,7.8,0,0,1,0-1.93,17.51,17.51,0,0,1,.72-3.3,22.9,22.9,0,0,1,.69-2.22,48.47,48.47,0,0,1,3.72-7.07c.62-1,1.2-2,1.79-3,.39-.64.76-1.31,1.21-1.93a5.4,5.4,0,0,1,.77-.9,6.14,6.14,0,0,1,1.06-.72c.57-.27.75.33.93,1a9.42,9.42,0,0,1,.24,1.2,3.26,3.26,0,0,1,0,.62,1.28,1.28,0,0,1-.21.51c-.74,1.14-1.47,2.37-2.21,3.59l-1.12,1.85L277,418.73a21.46,21.46,0,0,0-2.17,4.84,20.34,20.34,0,0,0-.83,2.7,7.57,7.57,0,0,0-.22,2.53c.14.91.45,1.21,1.43,1.29a4.57,4.57,0,0,0,2.15-.67,8.88,8.88,0,0,0,2-1.64,12.18,12.18,0,0,0,2.08-3.47c.12-.26.18-.55.3-.81.41-1,.76-1.16,1.8-1,.24,0,.48.05.71.1a1.25,1.25,0,0,1,.85.63,1.63,1.63,0,0,1,.13,1.25,13,13,0,0,1-5.35,7.14,9.77,9.77,0,0,1-3.64,1.62,5.84,5.84,0,0,1-2.45-.11,4.33,4.33,0,0,1-2.38-1.6Z"/><path class="cls-1" d="M294.3,426.29a39.08,39.08,0,0,1-2.73,3.27,14.53,14.53,0,0,1-3.63,2.87,6.39,6.39,0,0,1-1.85.61,4.58,4.58,0,0,1-2-.14,7.06,7.06,0,0,1-1.14-.5,3.26,3.26,0,0,1-1.32-1.5,4.57,4.57,0,0,1-.33-1.6,10.28,10.28,0,0,1,.28-2.67,28.44,28.44,0,0,1,1.56-4.67c.6-1.45,1.21-2.89,1.86-4.29a21.08,21.08,0,0,1,1.38-2.67,10.12,10.12,0,0,1,2-2.43c.63-.48.81.11.9.83a4.67,4.67,0,0,1-.35,2.7,80.19,80.19,0,0,0-4.66,10.43,7.92,7.92,0,0,0-.39,2.29,2.91,2.91,0,0,0,.14.89.61.61,0,0,0,.27.35,2.78,2.78,0,0,0,1.25.28,4.45,4.45,0,0,0,2.73-1.44A19,19,0,0,0,290.6,426c.91-1.32,1.79-2.71,2.64-4.12,1.27-2.16,2.56-4.34,3.8-6.55a39,39,0,0,1,3.09-5.19,9.63,9.63,0,0,1,.95-1.09,3.14,3.14,0,0,1,1.82-1,1.45,1.45,0,0,1,1.21.53,2.83,2.83,0,0,1,.39.48,1.27,1.27,0,0,1,0,1,3.36,3.36,0,0,1-.51,1.07c-.4.53-.81,1.15-1.21,1.81-.2.33-.4.66-.6,1l-.65,1-2.73,4.44c-1.39,2.28-2.81,4.62-4.43,6.93Z"/><path class="cls-1" d="M310,418.49c-.66,1.15-1.32,2.31-2.07,3.44a13.27,13.27,0,0,1-.79,1.27,11.55,11.55,0,0,1-.86,1,8.88,8.88,0,0,1-1,1,6.23,6.23,0,0,1-2.57,1.45,3,3,0,0,1-1.53,0,2.7,2.7,0,0,1-1.28-.83,3.43,3.43,0,0,1-.83-3.24c.1-.34.58-.18,1,.09s1,.61,1.07.93a2.07,2.07,0,0,0,.38.7,1.31,1.31,0,0,0,.3.22.69.69,0,0,0,.57-.07,3.68,3.68,0,0,0,1-.44,8,8,0,0,0,2-2.48c.67-1.05,1.31-2.15,1.9-3.3.37-.7.73-1.41,1.07-2.13.54-1.09,1.09-2.18,1.57-3.31.37-.87.62-1.79,1-2.7a2.72,2.72,0,0,1,.33-.57,1.46,1.46,0,0,1,.7-.62.9.9,0,0,1,.68.05l.32.14a1.16,1.16,0,0,1,.31,1.17,7.37,7.37,0,0,1-.23,1.19c-.12.39-.27.75-.41,1.15-.29.78-.61,1.58-1,2.38-.5,1.18-1.07,2.38-1.68,3.56Z"/><path class="cls-1" d="M367.42,389.57a103.05,103.05,0,0,0-11.93,5.88c-1.42.81-2.78,1.71-4.2,2.54s-2.52,1.47-3.86,2.16-2.64,1.3-4,1.93c-2.67,1.22-5.38,2.36-8.15,3.36a69,69,0,0,1-7.52,2.35,22.71,22.71,0,0,1-5.11.66,12,12,0,0,1-2.65-.29,6.92,6.92,0,0,1-2.46-1.22c-.9-.76-.46-.92.5-.94a10.41,10.41,0,0,0,1.82-.28,15.24,15.24,0,0,1,2.25-.21,22.67,22.67,0,0,0,4.53-.64,46.48,46.48,0,0,0,4.62-1.24c3.09-1,6.17-2.18,9.25-3.45a50.7,50.7,0,0,0,5.45-2.66c1.74-1,3.5-2.11,5.28-3.16a125,125,0,0,1,12.17-6.45c1.3-.56,2.58-1.17,3.92-1.65s2.64-1,4-1.46c2-.73,4.13-1.23,6.2-1.79,2.12-.41,4.2-.92,6.33-1.16l2.45-.38,2.46-.24c.82-.07,1.64-.21,2.47-.22l2.47-.05c.73,0,1.45-.08,2.18,0,2.74.14,3.53.85,4,1.56a3.35,3.35,0,0,1,.3.48c.09.24-.15.43-.66.63a6.49,6.49,0,0,1-2.24.47,78.28,78.28,0,0,0-17.25,1.59,71.15,71.15,0,0,0-12.61,4Z"/><path class="cls-1" d="M401,391.66c-.25-.92-.64-1.78-1-2.69a27.6,27.6,0,0,0-1.28-2.55c-.37-.59-.77-1.17-1.18-1.74a29.07,29.07,0,0,0-4.93-5.68,27.25,27.25,0,0,0-2.69-2.09,25.38,25.38,0,0,1-3.56-2.61c-.33-.33,0-.75.66-1a2.77,2.77,0,0,1,2.3.09,37.64,37.64,0,0,1,3.87,2.52,18.34,18.34,0,0,1,1.79,1.53,20.62,20.62,0,0,1,1.64,1.72c.64.7,1.25,1.45,1.94,2.14s1.31,1.46,1.86,2.26a24.82,24.82,0,0,1,1.68,2.74c.25.47.53.93.74,1.42l.63,1.47a15,15,0,0,1,.68,1.84c.2.62.43,1.23.6,1.86.24.95.48,1.91.69,2.86s.33,1.93.54,2.88c.21,1.48.69,2.92.89,4.41,0,.33.12.65.15,1,.1,1.23-.14,1.63-1.08,1.89-.22.06-.44.13-.65.17a1.49,1.49,0,0,1-1.62-1.21c-.36-1.25-.58-2.52-.84-3.78-.11-.63-.18-1.28-.27-1.92s-.23-1.26-.34-1.9a35.69,35.69,0,0,0-1.34-5.58Z"/><path class="cls-1" d="M356.15,313.41a55.35,55.35,0,0,1-7.5,2.61,41.19,41.19,0,0,1-7.92,1.17A45.72,45.72,0,0,1,325,315.85a30.84,30.84,0,0,1-9.39-4.08,20,20,0,0,1-3.56-3,17.52,17.52,0,0,1-1.48-1.84c-.22-.33-.41-.68-.61-1l-.3-.52-.24-.54a13.48,13.48,0,0,1-1.29-5.9,10.46,10.46,0,0,1,.1-1.49,9,9,0,0,1,.23-1.47l.34-1.42c.16-.46.32-.92.52-1.36.54-1.1,1-.72,1.55.41a12.62,12.62,0,0,1,.63,2.12,9.93,9.93,0,0,1,.19,1.27,6.61,6.61,0,0,1,.11,1.34,14.49,14.49,0,0,0,.87,4.57,11.23,11.23,0,0,0,2.54,3.8,23.87,23.87,0,0,0,8.77,5.05c4.05,1.47,8.7,1.77,13.16,1.76a48.52,48.52,0,0,0,7.34-.55,33.83,33.83,0,0,0,3.55-.75c1.18-.38,2.37-.71,3.52-1.17a57.3,57.3,0,0,0,8.35-3.86,58.48,58.48,0,0,0,11.35-8.09,41.3,41.3,0,0,0,6.66-8.18l1.15-2c1.45-2.42,2-3.13,3.22-3.28a5,5,0,0,1,.82-.11c.84,0,1,1.44.18,3.66a30.45,30.45,0,0,1-5.56,8.89,53.52,53.52,0,0,1-7.81,7.3,67.45,67.45,0,0,1-13.68,8.08Z"/><path class="cls-1" d="M355.62,353.4c.07-.88.14-1.75.24-2.61l.2-1.58c.14-.93.27-1.86.45-2.79q.51-2.78,1.15-5.52c.33-1.33.55-2.68,1-4a69.71,69.71,0,0,1,5.45-13.41c.47-1,1.06-1.88,1.58-2.81.28-.47.52-.95.82-1.39l.89-1.34c.4-.56.74-1.16,1.17-1.71l1.31-1.61.67-.79a8.51,8.51,0,0,1,.76-.71c.52-.46,1.06-.91,1.61-1.33s1,.08.95,1.06a5.27,5.27,0,0,1-.4,1.65,7.63,7.63,0,0,1-1.05,1.73,59.17,59.17,0,0,0-8.08,13.46,53.88,53.88,0,0,0-2.87,9.45,103.32,103.32,0,0,0-1.92,10.77l-.21,1.62-.06.54a1.37,1.37,0,0,0,0,.28,1,1,0,0,0,.25,0c.33-.07.69-.14,1-.18l.55,0a6.4,6.4,0,0,1,.76,0,5.83,5.83,0,0,1,1.6.27,3.71,3.71,0,0,1,1.55.94,3.33,3.33,0,0,1,.57.74c.15.26.23.46.35.69a7.64,7.64,0,0,1,.15,5.9,6.89,6.89,0,0,1-3.11,3.62,5.54,5.54,0,0,1-2.52.64,5.86,5.86,0,0,1-2.56-.58,7.4,7.4,0,0,1-1.83-1.19,5,5,0,0,1-1.53-2.21,1.59,1.59,0,0,1,.3-1.46,4.63,4.63,0,0,1,.46-.59c.62-.54,1.54,0,2.49.9a5.06,5.06,0,0,0,2.13,1.33,2,2,0,0,0,1.59-.25,3.24,3.24,0,0,0,1.22-1.53,3.81,3.81,0,0,0,.19-2.17,4.8,4.8,0,0,0-.24-.82l-.19-.4s0,0,0-.06,0,0-.15,0a2.42,2.42,0,0,0-.64-.1h-.59l-.3,0-.67.11a8.26,8.26,0,0,1-2.58.39,1.47,1.47,0,0,1-.46-.13.93.93,0,0,1-.26-.3l-.21-.3-.05-.08,0,0h0c.05-.07-.47.53-.25.27h0v0l-.12-.17a2.55,2.55,0,0,1-.64-1.77l0-.24Z"/><path class="cls-1" d="M310.79,356.18l-.15-.2-.07-.1,0,0h0l-.08.08h0l0-.06-.23-.44a3.26,3.26,0,0,1-.39-.95l-.22-1.1-.13-.67-.34-2.43-.22-2.42-.13-2.42c0-1.18-.18-2.35-.11-3.52a79.94,79.94,0,0,1,1.56-12.21c.33-1.78.67-3.56,1-5.31a29.46,29.46,0,0,1,2-6.62c.3-.66.79-.39,1.15.35a5.26,5.26,0,0,1,.39,3.2c-.9,4.46-1.68,8.9-2.36,13.43a45.57,45.57,0,0,0-.21,8.35,54.42,54.42,0,0,0,.91,9.12,3.83,3.83,0,0,1,.07.43l.06.33a1.13,1.13,0,0,0,0,.18.41.41,0,0,0,.15.07l.33.09.45.12.76.21a13.56,13.56,0,0,1,1.53.57,6.57,6.57,0,0,1,2.18,1.56,4.84,4.84,0,0,1,1.2,2.6,6.7,6.7,0,0,1-.23,2.63,10.41,10.41,0,0,1-.4,1.19,4.27,4.27,0,0,1-.82,1.23,6.26,6.26,0,0,1-1.66,1.24,6.05,6.05,0,0,1-2,.68,6.18,6.18,0,0,1-4.14-.84,4.88,4.88,0,0,1-1.51-1.37,3.49,3.49,0,0,1-.39-.87,2.49,2.49,0,0,1-.15-.77,2.73,2.73,0,0,1,.17-1.16,1.43,1.43,0,0,1,1-.88,1.7,1.7,0,0,1,.51-.1c.52,0,.58,1,1.2,1.53a2.27,2.27,0,0,0,.28.26,1.85,1.85,0,0,1,.33.21,2.62,2.62,0,0,0,.73.36,2.89,2.89,0,0,0,1.66.08,3,3,0,0,0,1.34-.81.45.45,0,0,0,.1-.17s0,0,0,0l.07-.24a4.82,4.82,0,0,0,.22-1,1.61,1.61,0,0,0-.12-.89,1.59,1.59,0,0,0-.63-.63,7.39,7.39,0,0,0-1.5-.67l-.47-.15-.72-.17a5.06,5.06,0,0,1-2-.75Z"/><path class="cls-1" d="M283.47,384.14c-.48,1.07-1,2.12-1.52,3.17-.2.38-.32.79-.55,1.16a43.54,43.54,0,0,1-2.55,3.76c-.21.27-.4.55-.59.82l-.61.81a5.91,5.91,0,0,1-1.85,1.84c-.25.13-.49-.22-.62-.69a1.67,1.67,0,0,1,.09-1.38c.47-.62.91-1.26,1.36-1.91s.93-1.31,1.44-2a14,14,0,0,0,1.39-2.7c.49-1,1-2,1.43-3.06.28-.64.55-1.28.79-1.94.37-1,.73-2,1-3,.21-.79.25-1.61.42-2.39,0-.18.05-.35.09-.52.17-.64.37-.82.89-.85a2.17,2.17,0,0,1,.36,0c.38,0,.65.35.7.88a10.26,10.26,0,0,1,0,2.35,19,19,0,0,1-.45,2.32c-.34,1.12-.77,2.23-1.2,3.33Z"/><path class="cls-1" d="M340.45,414.12a46.68,46.68,0,0,1,.25-4.73c.08-.58.06-1.16.16-1.73a21.71,21.71,0,0,1,2-5.82c.22-.4.39-.82.6-1.22l.65-1.19a15.75,15.75,0,0,1,1-1.4,11.14,11.14,0,0,1,1.45-1c.3-.19.5.1.6.59a5.6,5.6,0,0,1,0,1.84,24,24,0,0,1-1.26,2.65c-.18.45-.41.88-.62,1.33s-.4.92-.63,1.38a11.58,11.58,0,0,0-.67,3.74,32.06,32.06,0,0,0-.17,4.29c0,.89.06,1.79.18,2.68a26.2,26.2,0,0,0,.67,4,20.74,20.74,0,0,0,1.18,2.94,4,4,0,0,1,.29.63c.25.82,0,1.18-.76,1.61-.18.1-.36.21-.54.29a1.44,1.44,0,0,1-1.74-.44,9.54,9.54,0,0,1-1.48-2.71,16.3,16.3,0,0,1-.81-3,35.11,35.11,0,0,1-.46-4.71Z"/><path class="cls-1" d="M134.43,193.41c1.09-.14,2.2-.24,3.3-.44.41-.07.78-.23,1.19-.29,1.43-.23,2.87-.48,4.3-.77a14.59,14.59,0,0,0,1.86-.51,7.87,7.87,0,0,1,2.41-.58c.27,0,.36.4.29.89a1.75,1.75,0,0,1-.71,1.29,14.29,14.29,0,0,1-4.73,1.72,22.18,22.18,0,0,0-3,.94c-1.1.32-2.21.61-3.34.86-.7.16-1.41.27-2.1.42-1.07.21-2.15.35-3.22.56-.41.1-.82.23-1.23.37a7.7,7.7,0,0,1-1.27.36,5.27,5.27,0,0,1-.57.14c-.74,0-1-.22-1.07-1.18,0-.22-.06-.44-.06-.66a1.71,1.71,0,0,1,.7-1.58,9.12,9.12,0,0,1,1.94-.77c.65-.14,1.35-.26,2-.36,1-.15,2.12-.3,3.2-.49Z"/><path class="cls-1" d="M201.18,155.55v-.06s0-.1-.11-.21a6.43,6.43,0,0,0-.47-.68,13.39,13.39,0,0,0-1.17-1.38,23.33,23.33,0,0,0-2.9-2.51,18,18,0,0,0-2.35-1.32,5.72,5.72,0,0,0-.86-.38,2.07,2.07,0,0,0-.43-.09,2.81,2.81,0,0,0-.49,0,3.64,3.64,0,0,0-1.78.28,6.33,6.33,0,0,0-2.75,3.26,19.83,19.83,0,0,0-1.27,4.38c-.42,1.94-.59,4-1.68,6-.36.62-1,.22-1.5-.5a4.35,4.35,0,0,1-1-2.91,36.51,36.51,0,0,1,1.22-6.26,17.29,17.29,0,0,1,1.36-3.25,9.43,9.43,0,0,1,2.53-3,8,8,0,0,1,4.76-1.66,8.05,8.05,0,0,1,1.21.05,5.09,5.09,0,0,1,.68.1,5.43,5.43,0,0,1,.61.17,11.4,11.4,0,0,1,2.05.9,24.65,24.65,0,0,1,3.72,2.59,21.94,21.94,0,0,1,3.21,3.25,10.94,10.94,0,0,1,.73,1.06,7.17,7.17,0,0,1,.74,1.53,3.76,3.76,0,0,1-.17,3.1,3.81,3.81,0,0,1-.7.69,7.09,7.09,0,0,1-1.25.67c-.21.1-.44.2-.65.28l-.49.18c-.65.23-1.29.43-1.92.63l-3.79,1.19c-1.94.62-3.78,1.46-5.65,2.18-.42.16-.81.36-1.23.5-1.56.51-2.11.37-2.8-.71-.15-.24-.33-.47-.46-.71-.43-.82,0-1.82,1.13-2.39a51.52,51.52,0,0,1,10.39-3.81c.9-.26,1.8-.51,2.65-.77l.61-.2s0,0,0,0H201a.08.08,0,0,0,0-.1Z"/><path class="cls-1" d="M199.78,165c-.89.25-1.77.52-2.68.75-.32.09-.63.24-1,.33l-3.51.84a15.83,15.83,0,0,0-1.52.49,4.85,4.85,0,0,1-2,.51c-.44,0-.34-1.84.32-2.11a20.83,20.83,0,0,1,3.86-1.16,14.8,14.8,0,0,0,2.35-.87c.87-.32,1.75-.61,2.64-.89l1.64-.54c.82-.27,1.66-.54,2.47-.85.63-.24,1.18-.66,1.84-.84a3,3,0,0,1,.42-.14c.56-.11.77,0,1,.42a2.09,2.09,0,0,1,.16.29.88.88,0,0,1-.3,1,8.06,8.06,0,0,1-1.45,1.18,15.58,15.58,0,0,1-1.65.78c-.86.32-1.74.59-2.62.89Z"/><path class="cls-1" d="M219.28,224.83A31.27,31.27,0,0,1,207.19,227a19.61,19.61,0,0,1-11.8-3.84,15.08,15.08,0,0,1-5.18-7.68,29.49,29.49,0,0,1-.94-7.81,71.18,71.18,0,0,1,.5-7.63l.93-7.45c.29-2.46.47-4.92.57-7.4,0-1,.07-2,.08-3a23.76,23.76,0,0,0-.09-2.94c-.1-1-.24-2-.43-2.95l-.28-1.49-.07-.38c0-.13,0-.24-.09-.46l-.17-1.16c0-.14,0-.29,0-.42l.07-.38c.05-.11,0-.26.12-.34a.7.7,0,0,1,.24-.32,5,5,0,0,1,1.37-.7,7.33,7.33,0,0,1,.72-.23l.52-.15,2.07-.56,4.07-1.12,4-1.17a26.59,26.59,0,0,0,3.72-1.44c.74-.3,1.1-.41,1.24-.23s0,.65-.41,1.42a12.36,12.36,0,0,1-6.57,4.55c-1.76.52-3.52,1-5.25,1.39l-2.53.64c-.07,0,0,0-.05,0h0l0,.58.15,1.48c.09,1,.28,2,.36,3.09a24.69,24.69,0,0,1,.08,3.2c0,1,0,2-.1,3a110.76,110.76,0,0,1-1.28,12.13,64.74,64.74,0,0,0-.84,10.4,21.87,21.87,0,0,0,2.06,9.78,13.17,13.17,0,0,0,8.38,6.28,22.54,22.54,0,0,0,11.13,0,25.68,25.68,0,0,0,12.15-6.4,15.93,15.93,0,0,0,4.85-8.89,16.12,16.12,0,0,0-2-9.93c-2.57-4.84-6.43-8.81-9.88-13.27-.76-1-1.53-1.95-2.24-3-2.52-4.06-2.55-5.89-2.07-7,.09-.26.14-.59.21-.74s.41.05,1,.7a22.29,22.29,0,0,1,2.12,3c1.34,2,2.82,3.89,4.4,5.84s3.25,3.9,4.88,6a43.88,43.88,0,0,1,4.49,6.86,21.23,21.23,0,0,1,2.49,8.4,17.22,17.22,0,0,1-.92,6.66,19.09,19.09,0,0,1-3.29,5.76,26.18,26.18,0,0,1-10.37,7.25Z"/><path class="cls-1" d="M152.34,264.46a35.87,35.87,0,0,1-14.11.57,22.49,22.49,0,0,1-12.85-6.2,17.27,17.27,0,0,1-4.72-9.54,34.2,34.2,0,0,1,.14-9,76,76,0,0,1,1.75-8.62l2.2-8.36c.71-2.76,1.3-5.55,1.81-8.36.2-1.14.38-2.29.55-3.44a24.55,24.55,0,0,0,.35-3.37c0-1.13,0-2.27,0-3.43l-.09-1.76,0-.44c0-.16,0-.26,0-.52,0-.45,0-.89,0-1.35a3.5,3.5,0,0,1,.06-.48l.13-.41a1.76,1.76,0,0,1,.16-.4A1.39,1.39,0,0,1,128,199a9.42,9.42,0,0,1,3.14-.83l2.45-.32c1.61-.2,3.22-.41,4.81-.64l4.72-.72a30.73,30.73,0,0,0,4.47-1.07c.9-.23,1.32-.31,1.45-.09s-.07.75-.69,1.55c-1.24,1.57-4.39,3.48-8.2,4.14-2.09.32-4.16.55-6.2.77-1,.11-2,.21-3,.34h-.09s0,0,0,0h0l0,.69-.06,1.71c0,1.16,0,2.36-.06,3.58a28.46,28.46,0,0,1-.4,3.66c-.18,1.15-.37,2.31-.59,3.46q-.63,3.45-1.47,6.89c-.58,2.29-1.22,4.53-1.86,6.75a75.19,75.19,0,0,0-2.56,11.74,25.19,25.19,0,0,0,.83,11.49,15.17,15.17,0,0,0,8.61,8.47,26.06,26.06,0,0,0,12.7,1.76,29.64,29.64,0,0,0,14.86-5.42A17.1,17.1,0,0,0,167,235.87c-2.18-5.92-6-11.05-9.22-16.67-.71-1.25-1.44-2.47-2.07-3.8-2.26-5-2-7.1-1.3-8.35.15-.29.25-.65.35-.82s.45.12,1,1a26.26,26.26,0,0,1,1.95,3.78c1.22,2.44,2.6,4.87,4.11,7.34s3.1,5,4.63,7.61a50.62,50.62,0,0,1,4.06,8.51,24.42,24.42,0,0,1,1.54,10,19.74,19.74,0,0,1-2.08,7.44,21.51,21.51,0,0,1-4.63,6,30.07,30.07,0,0,1-12.93,6.67Z"/><path class="cls-1" d="M203.9,204.63a18.13,18.13,0,0,0-.78,4.22c0,.35,0,.69,0,1a3.79,3.79,0,0,0,0,.49c0,.16.05.33,0,.31,0,.14.1.36.3.32a.27.27,0,0,0,.15,0,.32.32,0,0,0,.14-.16.27.27,0,0,0,.06-.11l.11-.31a9.86,9.86,0,0,0,.32-1.55,30.7,30.7,0,0,0,.08-6.15c-.15-2.09-.41-4.19-.75-6.28a50.59,50.59,0,0,0-1.25-5.48c-.73-2.26-1.29-4.61-2.21-6.72-.31-.61-.06-.75.59-.38a6.46,6.46,0,0,1,2.21,2.63c.26.58.52,1.17.76,1.75s.4,1.2.58,1.81c.35,1.21.66,2.42.93,3.65a51.74,51.74,0,0,1,1.1,7.47c.1,1.51.23,3.05.27,4.62a17.46,17.46,0,0,1-.37,4.84,5.08,5.08,0,0,1-.26.81,3.27,3.27,0,0,1-.22.49l-.33.49a2.62,2.62,0,0,1-1.88,1.11,2,2,0,0,1-1.28-.25,2.59,2.59,0,0,1-.88-1,4.6,4.6,0,0,1-.25-.65,4.66,4.66,0,0,1-.16-.65,8.84,8.84,0,0,1-.09-1,16,16,0,0,1,.38-3.75,18.14,18.14,0,0,1,2.33-6,7.29,7.29,0,0,1,1.71-1.9,4.08,4.08,0,0,1,1.21-.67c.43-.11.85-.19,1.28-.28a7.08,7.08,0,0,1,4.85,1.4,15.07,15.07,0,0,1,4.84,5.84,10.85,10.85,0,0,1,.62,1.62c.07.27.13.51.18.74s.05.46.06.66a2.47,2.47,0,0,1-.09,1,1.25,1.25,0,0,1-.92,1,1.53,1.53,0,0,1-.58.11.9.9,0,0,1-.69-.57,5.07,5.07,0,0,1-.22-.53c-.07-.21-.1-.44-.19-.74a11.56,11.56,0,0,0-1-2.59,19,19,0,0,0-1.47-2.5c-1.12-1.55-2.58-2.94-4.2-3.24a6.82,6.82,0,0,0-.9-.07l-.91.15a2.87,2.87,0,0,0-1.32,1,12.46,12.46,0,0,0-1.9,4Z"/><path class="cls-1" d="M63.45,155.57a11.06,11.06,0,0,1,1.07-3.2,14.87,14.87,0,0,1,1.74-2.71A9.41,9.41,0,0,1,68,147.91a5,5,0,0,1,2.2-1,9.3,9.3,0,0,1,1.16-.06,11,11,0,0,1,1.15.17A6.92,6.92,0,0,1,76,149.51a25.85,25.85,0,0,1,2,2.86A37.28,37.28,0,0,1,80,156c.18.36-.17.63-.76.59a2.62,2.62,0,0,1-1.93-1.09c-.75-1.18-1.51-2.35-2.27-3.53a8.27,8.27,0,0,0-2.48-2.57,3,3,0,0,0-1.93-.28,3.93,3.93,0,0,0-1.7,1.07,11.56,11.56,0,0,0-2.77,4.53,7.44,7.44,0,0,0-.2.78,4.84,4.84,0,0,0-.09.63c0,.27,0,.69.36.75a12.68,12.68,0,0,0,2.28.1c.9,0,1.8-.06,2.7-.13,1.4-.11,2.76-.4,4.14-.63.3-.05.6-.12.91-.16,1.14-.13,1.55,0,1.83.77a5,5,0,0,1,.18.5c.11.55-.3,1.06-1.12,1.27a31.94,31.94,0,0,1-7.75,1c-.51,0-1,0-1.53,0l-.78,0-.4,0-.64-.07a4.15,4.15,0,0,1-1.28-.4,2,2,0,0,1-1-.9,3.46,3.46,0,0,1-.41-1.31c0-.24-.05-.47,0-.71a5,5,0,0,1,0-.59Z"/><path class="cls-1" d="M69.35,160.83c.8,0,1.6-.07,2.41-.08.29,0,.58-.08.87-.08,1,0,2.09,0,3.12,0a12.47,12.47,0,0,0,1.37-.15,4.57,4.57,0,0,1,1.77-.11c.37.08,0,1.68-.6,1.82a15.75,15.75,0,0,1-3.52.3,12.5,12.5,0,0,0-2.17.27c-.8.1-1.6.16-2.41.22l-1.49.11c-.75.07-1.51.12-2.25.22-.58.07-1.13.33-1.72.35-.12,0-.25,0-.38,0a.68.68,0,0,1-.78-.57c0-.09-.06-.19-.08-.28a.77.77,0,0,1,.43-.8,6.59,6.59,0,0,1,1.47-.75A10.3,10.3,0,0,1,67,161c.79-.1,1.59-.14,2.39-.22Z"/><path class="cls-1" d="M69.58,214.17a21.06,21.06,0,0,0,9.47-.48,14,14,0,0,0,7.61-5.11,10.4,10.4,0,0,0,1.44-3,14.07,14.07,0,0,0,.48-3.31c.06-4.06-1.33-8.2-2.89-12.2s-3.45-8-4.81-12.24c-.55-1.67-1.09-3.27-1.58-5a25.16,25.16,0,0,1-.5-2.65l-.2-1.26-.16-.84-.06-.29c0-.1-.17-.08-.25-.09a3.37,3.37,0,0,0-.45,0l-.84.06L75,167.9c-1.24.09-2.49.18-3.74.22a23,23,0,0,1-3.8-.1,13.11,13.11,0,0,1-3.84-.84c-.78-.39-1-.76-.91-.9s.56-.17,1.25-.31,1.58-.28,2.65-.47c.54-.09,1.11-.18,1.73-.26l1-.13,1,0c1.55,0,3.11-.12,4.71-.21.8,0,1.6-.1,2.44-.11a7.69,7.69,0,0,1,2.15.25,3.51,3.51,0,0,1,.48.22c0,.07.12.13.17.2l0,.06h0c0,.05.07-.07.06-.06h0l0,0,.07.1a2.17,2.17,0,0,1,.49.89l.19,1.29.07.81.1,1.31a17.09,17.09,0,0,0,.39,2.36c.18.73.45,1.58.69,2.39l.78,2.44c1,3.25,2.31,6.38,3.62,9.63A91.67,91.67,0,0,1,90,195.57a20,20,0,0,1,.64,9.8,12.68,12.68,0,0,1-2.4,5A15,15,0,0,1,84.06,214a22.66,22.66,0,0,1-10.23,2.87,23.63,23.63,0,0,1-12.65-2.92,15.88,15.88,0,0,1-6.7-7.37,17.18,17.18,0,0,1-.77-9.88c.93-5,2.81-9.54,4.24-14.11.31-1,.57-2,.84-3,.54-1.85.8-3.06,1.05-3.91a9.91,9.91,0,0,1,.42-1c.18-.28.34-.51.49-.72s.26-.45.36-.57.32.1.64.86a7.77,7.77,0,0,1,.27,3.55,32.84,32.84,0,0,1-1.51,6.68c-.68,2.16-1.45,4.28-2.15,6.39-1.39,4.18-2.68,8.46-2,12.37A12.23,12.23,0,0,0,61,210.49a18.66,18.66,0,0,0,8.57,3.62Z"/><path class="cls-1" d="M140.64,237.23a9.5,9.5,0,0,0-3.61,3.59,5.29,5.29,0,0,0-.58,4.46l.15.37.08.13a.85.85,0,0,0,.17.2.25.25,0,0,0,.23.09.37.37,0,0,0,.18-.17,2.17,2.17,0,0,0,.29-.77c.16-.56.28-1.16.39-1.76.22-1.21.37-2.45.49-3.7a63,63,0,0,0,.14-7.54,64.69,64.69,0,0,0-.61-6.69c-.39-2.83-1.06-5.62-1.51-8.45-.14-.88.15-.84.67-.19a8.84,8.84,0,0,1,1.69,3.56,67.75,67.75,0,0,1,1.77,17.81c-.11,1.83-.22,3.64-.45,5.52-.06.46-.13.93-.22,1.41a14.09,14.09,0,0,1-.38,1.61,4.21,4.21,0,0,1-1,1.86,2.14,2.14,0,0,1-.8.49,1.88,1.88,0,0,1-1,0,2.87,2.87,0,0,1-.93-.52c-.27-.29-.56-.54-.8-.85a10.81,10.81,0,0,1-.65-1,5.54,5.54,0,0,1-.37-.83,6.59,6.59,0,0,1-.23-3.54,11,11,0,0,1,3.28-5.65,11.84,11.84,0,0,1,7.08-3.47,7.46,7.46,0,0,1,3.13.4,7.91,7.91,0,0,1,2.67,1.65,13.88,13.88,0,0,1,3.3,5,18,18,0,0,1,1.06,3.58,9.87,9.87,0,0,1,.22,2,3.21,3.21,0,0,1-.27,1.37,2,2,0,0,1-.9.92,2.07,2.07,0,0,1-1.36.12l.7,0a6.65,6.65,0,0,1-.78.1,6.55,6.55,0,0,1-.74-.1l-.63-.24a4.4,4.4,0,0,1-.52-.3A6,6,0,0,1,148.3,246c-1.42-2.33-1.11-3.46-.36-4.13a1.52,1.52,0,0,1,.56-.36.7.7,0,0,1,.45.06,1.69,1.69,0,0,1,.44.28,5.76,5.76,0,0,1,1.09,1.33,6.69,6.69,0,0,0,1.23,1.45,2,2,0,0,0,.46.3s0,0,0,0h0l-.05.11a2,2,0,0,0-.07.23.42.42,0,0,0,0,.1.51.51,0,0,0,0,.13v.07h0l.61.4a.77.77,0,0,0-.08.27c0,.1,0,.23,0,.2s0,0,0,0a.32.32,0,0,0-.13-.15s-.15-.11-.27-.18a1.88,1.88,0,0,0-.38-.15,3.18,3.18,0,0,0-.57-.19l-.14,0h0a6,6,0,0,0,0-.8,15.89,15.89,0,0,0-.37-2.26,11.66,11.66,0,0,0-1.93-4.16,7.15,7.15,0,0,0-1.63-1.62,4.24,4.24,0,0,0-1.89-.74,7.23,7.23,0,0,0-4.54,1.14Z"/><path class="cls-1" d="M68.16,196a13.2,13.2,0,0,0-1.73,3.21,13.84,13.84,0,0,0-.52,1.74c-.06.3-.1.58-.14.87v.1h0v.18a.41.41,0,0,0,.12.32.23.23,0,0,0,.31,0,.69.69,0,0,0,.2-.24l0-.07.06-.15c.08-.18.15-.36.22-.55a20.74,20.74,0,0,0,.69-2.4,48.08,48.08,0,0,0,.87-5,24.16,24.16,0,0,0,0-4.5c-.17-1.92-.5-3.84-.75-5.77-.08-.61.1-.56.38-.09a8.77,8.77,0,0,1,.95,2.46,33.66,33.66,0,0,1,.83,6,21.31,21.31,0,0,1-.09,3.09c-.12,1-.27,2-.45,3-.23,1.2-.45,2.44-.79,3.69l-.14.47-.2.58a6.24,6.24,0,0,1-.71,1.33,2.29,2.29,0,0,1-1,.83,1.81,1.81,0,0,1-.6.18,2.79,2.79,0,0,1-.64-.07,2.59,2.59,0,0,1-1.46-2.34,6.75,6.75,0,0,1,0-1.48,7.51,7.51,0,0,1,.21-1.09,14.83,14.83,0,0,1,1.63-4,12,12,0,0,1,1.55-2.15,6.05,6.05,0,0,1,2.25-1.62,5.89,5.89,0,0,1,2-.51,3.7,3.7,0,0,1,2.16.55A6.41,6.41,0,0,1,75.86,196a33.24,33.24,0,0,1,1.35,5.77c.06.42.14.84.19,1.26.1,1.58,0,2.06-.5,2.46a3.54,3.54,0,0,1-.32.27c-.35.21-.83-.42-1.09-1.57-.42-1.7-.58-3.42-.93-5.08A10.49,10.49,0,0,0,73,194.74a1.85,1.85,0,0,0-.94-.64,2.54,2.54,0,0,0-1.3.05,4.81,4.81,0,0,0-.78.27,2,2,0,0,0-.61.36A5.8,5.8,0,0,0,68.21,196Z"/><path class="cls-1" d="M150.11,128.32a30.34,30.34,0,0,1-5.08,9.73c-.37.55-.83,1-1.23,1.55a13.3,13.3,0,0,1-1.31,1.49,51.54,51.54,0,0,0-4.55,4.59,19.82,19.82,0,0,0-3.11,5.36,14.74,14.74,0,0,0-1,5.4,29.05,29.05,0,0,0,1.22,7c.17.73-.42.91-1.23.51a4.6,4.6,0,0,1-1.33-1,5.63,5.63,0,0,1-1-1.9,19.09,19.09,0,0,1-.35-8.38,18.26,18.26,0,0,1,3.46-7.59,47.94,47.94,0,0,1,3.21-3.81l.87-.89.78-.82c.51-.55,1.06-1.08,1.52-1.67a27.91,27.91,0,0,0,5.11-8.37l.52-1.43.39-1.47a25.17,25.17,0,0,0,.56-3,25.8,25.8,0,0,0-.57-9.22c-.08-.3-.14-.59-.22-.88l-.31-.84c-.2-.56-.41-1.12-.64-1.67l-.78-1.6-.36-.81-.42-.78c-.24-.47-.5-.9-.73-1.38-.91-1.72-1-2.4-.44-3.21a4.78,4.78,0,0,1,.37-.55c.45-.51,1.35-.07,2.36,1.13a24.17,24.17,0,0,1,3.55,6.17,29.59,29.59,0,0,1,1.73,7.23,29.1,29.1,0,0,1-.92,11.17Z"/><path class="cls-1" d="M198.4,115.54a29.68,29.68,0,0,1-2.07,5.74c-.3.65-.51,1.33-.83,2a53.16,53.16,0,0,0-3.2,6.47,11.79,11.79,0,0,0-.66,3,30.2,30.2,0,0,0,.12,3.81c0,.4-.52.54-1.15.31a2.59,2.59,0,0,1-1-.61,2.35,2.35,0,0,1-.56-1.15,15.36,15.36,0,0,1,1.78-8.92c.8-1.57,1.33-3.27,2-4.85a36.45,36.45,0,0,0,2-5.14,13.31,13.31,0,0,0,.54-3.22,9.43,9.43,0,0,0-1-4.7,10.56,10.56,0,0,0-2.43-2.86c-.21-.19-.43-.35-.63-.55-.72-.75-.76-1.22-.52-1.87a2.63,2.63,0,0,1,.16-.45c.22-.44.85-.48,1.73-.16a3.11,3.11,0,0,1,.9.48c.29.19.57.39.85.59a12,12,0,0,1,1.53,1.5,11.78,11.78,0,0,1,2.24,3.93,12,12,0,0,1,.53,3.41,16.94,16.94,0,0,1-.32,3.3Z"/><path class="cls-1" d="M84.11,117.73a12.69,12.69,0,0,1-3.88,4.84c-.55.48-1.13.9-1.71,1.32a15.6,15.6,0,0,0-5,4.9,8.85,8.85,0,0,0-1,6.86c.1.4-.06.41-.33.11a3.36,3.36,0,0,1-.78-1.78,9.22,9.22,0,0,1,.57-4.44,12.61,12.61,0,0,1,2.29-3.81c.59-.67,1.2-1.34,1.86-2,.33-.32.67-.62,1-.91l1-.84a16,16,0,0,0,3.56-4,8.82,8.82,0,0,0,1.06-3.07,22.34,22.34,0,0,0,.11-5.18c-.08-1.37-.34-2.71-.42-4.09a5.5,5.5,0,0,1,0-.91c.1-1.13.28-1.5.7-1.73a1.28,1.28,0,0,1,.27-.16c.3-.11.58.35.82,1.16a19.54,19.54,0,0,1,.75,3.65,28.47,28.47,0,0,1,.32,3.88,15.32,15.32,0,0,1-1,6.2Z"/><path class="cls-1" d="M78.22,105.54c-.68,0-1.35,0-2,0-.25,0-.49,0-.74,0a19.51,19.51,0,0,1-2.62-.4c-.38-.07-.76-.13-1.15-.17a2.93,2.93,0,0,1-1.44-.41c-.25-.19.61-1.58,1.07-1.48.87.18,1.72.35,2.64.62a6.07,6.07,0,0,0,1.71.08c.63,0,1.28,0,1.93,0l1.2-.07c.61,0,1.22-.1,1.83-.17s.92-.19,1.39-.26l.31,0c.39,0,.52.08.64.42a2,2,0,0,1,.07.23.59.59,0,0,1-.33.65c-.4.21-.8.41-1.21.58a3.87,3.87,0,0,1-1.27.38c-.66.07-1.33.1-2,.14Z"/><path class="cls-1" d="M202.29,99.68c-.87,0-1.74.08-2.59.18-.32,0-.61.15-.92.19a25.57,25.57,0,0,0-3.27.51,6.32,6.32,0,0,0-1.35.53,4.64,4.64,0,0,1-1.7.75c-.42,0-1.05-2.17-.34-2.58a9.69,9.69,0,0,1,4-1.2,22.64,22.64,0,0,0,2.44-.55c.9-.17,1.8-.28,2.69-.38L202.9,97c.83-.06,1.67-.08,2.48-.21.63-.1,1.23-.33,1.84-.49a3.06,3.06,0,0,1,.41-.1c.51-.05.7.08.89.58l.13.34a.86.86,0,0,1-.4,1,10,10,0,0,1-3.36,1.27,15.36,15.36,0,0,1-2.59.42Z"/><path class="cls-1" d="M135.66,104.23a22.42,22.42,0,0,0,3.1.16c.39,0,.76-.13,1.15-.15a30.67,30.67,0,0,0,4.2-.57c.62-.15,1.23-.33,1.84-.52a8.14,8.14,0,0,1,2.42-.56c.27,0,.35.38.28.84a1.89,1.89,0,0,1-.7,1.29,22.81,22.81,0,0,1-2.25,1.17,13.09,13.09,0,0,1-2.53.56c-1,.11-2,.55-3.12.74a20.36,20.36,0,0,1-3.58.31,20.72,20.72,0,0,1-2.23-.17,11.77,11.77,0,0,1-1.66-.29c-.55-.11-1.1-.22-1.64-.38-.84-.19-1.69-.36-2.55-.59a1.62,1.62,0,0,1-.52-.23,1,1,0,0,1-.47-1.38,3,3,0,0,1,.14-.42,1.36,1.36,0,0,1,1.17-.74l.58,0a4.38,4.38,0,0,1,.52,0c.35,0,.68.06,1,.11s.66.07,1,.13.62.16,1,.2.94.21,1.43.26a12.13,12.13,0,0,0,1.49.15Z"/><path class="cls-1" d="M131.08,176.82a14,14,0,0,0-3,6.79,15.2,15.2,0,0,0-.1,2.77c0,.37,0,.71.06,1.06l.07.47c0,.1,0,.14,0,.21a.53.53,0,0,0,.43.48,1.48,1.48,0,0,0,.38,0,8.15,8.15,0,0,0,.91-.12c1.29-.23,2.69-.62,4.12-1a35,35,0,0,1,5.05-.91,29,29,0,0,1,6.14-.13c.49,0,.76.5.34,1.3a4.22,4.22,0,0,1-1.09,1.18,4.06,4.06,0,0,1-.79.5,3.32,3.32,0,0,1-.89.22c-2.16.22-4.13.41-6,.72s-3.87,1-6.21,1.33c-.41.05-.74.11-1.24.15a5.18,5.18,0,0,1-.88,0,4,4,0,0,1-.85-.09,3.44,3.44,0,0,1-1.53-.69,3.05,3.05,0,0,1-.55-.64c-.08-.12-.15-.24-.23-.35l-.19-.39-.25-.73c0-.13-.06-.24-.09-.36l-.06-.27a10.5,10.5,0,0,1-.17-1.08,14.58,14.58,0,0,1-.06-2.08,19,19,0,0,1,2.75-8.93,13.18,13.18,0,0,1,1.85-2.32,5.82,5.82,0,0,1,2.8-1.68,6.61,6.61,0,0,1,4.65.83,19.05,19.05,0,0,1,3.47,2.52,50.9,50.9,0,0,1,4.56,4.49c.31.36.63.69.92,1.07,1.07,1.41,1.06,2.11.54,2.83a3.59,3.59,0,0,1-.37.48c-.47.44-1.25.12-2.11-.72-1.2-1.3-2.42-2.65-3.69-3.91a25,25,0,0,0-4-3.34,5.34,5.34,0,0,0-2.72-1,1.68,1.68,0,0,0-.89.26,5.66,5.66,0,0,0-1.06,1Z"/><path class="cls-1" d="M314.09,151.23a4.42,4.42,0,0,1,.32,2.45,5.32,5.32,0,0,1-.57,1.74c-.1.19-.17.39-.26.59a2.56,2.56,0,0,1-.4.63,3,3,0,0,1-.55.5,3,3,0,0,1-.7.43,3,3,0,0,1-1.7.29,3.21,3.21,0,0,1-2.29-1.42,5.59,5.59,0,0,1-.86-1.75c-.24-.75-.34-1.79.4-2.28.22-.17,1.07.37,1.94.87a9.15,9.15,0,0,0,1.21.61l.24.09.1,0h0l-.08,0c-.23,0-.2,0-.28,0a1,1,0,0,0-.41.61c-.05.13.05.27-.07,0l0,0-.08-.11a1,1,0,0,0-.19-.17c-.07,0-.2-.17-.3-.23h0l.12-.12.12-.19c.08-.12.12-.18.18-.21a.91.91,0,0,0,.34-.15s0,.22,0,.12a.12.12,0,0,0-.13,0c-.09.11.1.44.25.65,0,.05.1.11.1.14.05.18-.34.16-1.62.09l-.87,0c-1,0-1.78-.31-2-.84a3.17,3.17,0,0,1,.12-2.63,4.35,4.35,0,0,1,2.71-2.25,4.7,4.7,0,0,1,3.1.24,4.8,4.8,0,0,1,2.33,2.2Z"/><path class="cls-1" d="M307.69,146.3c2.46-1.17,5.6.8,7.74,1.89s4.05-2.14,1.89-3.24c-3.62-1.83-7.53-3.78-11.52-1.89-2.18,1-.28,4.26,1.89,3.24Z"/><path class="cls-1" d="M356.51,153a4.56,4.56,0,0,1,.33,2.46,5.93,5.93,0,0,1-.57,1.74,6.28,6.28,0,0,0-.27.59,2.51,2.51,0,0,1-.4.62,3.06,3.06,0,0,1-.55.51,3.36,3.36,0,0,1-2.4.72,3.27,3.27,0,0,1-2.29-1.42,5.94,5.94,0,0,1-.86-1.75c-.23-.76-.34-1.79.4-2.29.22-.17,1.08.38,1.94.88a9.87,9.87,0,0,0,1.22.61l.23.09.11,0h0l-.08,0c-.23,0-.2,0-.28,0a1,1,0,0,0-.41.61c-.05.13.05.27-.07,0l0,0-.08-.11a.75.75,0,0,0-.19-.17c-.06,0-.2-.17-.3-.23s0,0,0,0a1,1,0,0,1,.11-.12l.12-.18c.08-.12.12-.19.18-.21.31-.07.39-.22.34-.15s0,.22,0,.11-.09,0-.13.06.1.44.25.65c0,0,.1.11.1.14.06.18-.33.16-1.61.09l-.88,0c-1,0-1.78-.32-2-.84a3.19,3.19,0,0,1,.12-2.64,4.38,4.38,0,0,1,2.71-2.25,4.83,4.83,0,0,1,3.1.24,4.89,4.89,0,0,1,2.34,2.21Z"/><path class="cls-1" d="M349.11,148c3.84-2.07,6.64-.15,9.36,2.61,1.7,1.71,4.36-.94,2.66-2.66-4-4-8.57-6.07-13.91-3.18-2.12,1.14-.23,4.38,1.89,3.23Z"/><path class="cls-1" d="M352.21,126.87c-.15-.7,0-1.09.28-1.27a2.55,2.55,0,0,0,.45-.52c.12-.14.22-.32.37-.36a2.4,2.4,0,0,0,1.13-.89,2.82,2.82,0,0,1,1-.65,12.62,12.62,0,0,1,1.65-.64,21.25,21.25,0,0,1,2.5-.28c.3,0,.92-.07,1.49-.13a3,3,0,0,0,1.23-.25c.3-.29,1.81-.17,2.2-.4a.67.67,0,0,1,.48,0c.7.1,1.36-.82,2.07-.71a7.94,7.94,0,0,0,1.29,0c.1,0,.21,0,.31,0,1.09.35,2.21-.07,3.3.14l.67.14c.14,0,.28.1.42,0a3.42,3.42,0,0,1,2.29.39c.1,0,.19.15.3.09.61-.36,1.13.14,1.71.1a1.52,1.52,0,0,1,.54.13c.14,0,.26.16.41.13a6.24,6.24,0,0,1,1.92.23s.08,0,.12,0c.77-.25,1.34.33,1.93.87.36.32.72.59,1.24.31.11-.06.22-.08.28,0a5,5,0,0,0,1,1.1s0,.08,0,.11a11.5,11.5,0,0,1-.47,1.66c-.11.24-1.57,3.49-1.66,3.63a2.58,2.58,0,0,1-.22.23c-.19.09-.41.3-.71.92-.17.33-.28.44-.35.4-.47-.55-1.21-.42-1.81-.73a3.12,3.12,0,0,0-.86-.11c-.7-.13-1.45-.23-2.17-.38s-1.47-.22-2.21-.31a1.42,1.42,0,0,1-.77-.31,1.35,1.35,0,0,0-.73-.29c-.42-.06-.85,0-1.28,0l-1.81-.13c-1-.08-2-.12-3-.14,0,0-.08,0-.11,0-.59.63-2.44.45-2.56.47a12.18,12.18,0,0,1-1.59.23,13.28,13.28,0,0,1-1.54.22,3.55,3.55,0,0,0-1.3.27c-.06,0-.12.07-.18.06h-.38a2.94,2.94,0,0,0-.52,0c-.38,0-.83,0-1.27,0a8.61,8.61,0,0,0-1.68.33c-.07,0-.18-.05-.36-.23a5.19,5.19,0,0,0-.45-.37c-.16-.15-.38-.42-.53-.53s-.25-.09-.39-.16a1.92,1.92,0,0,1-.59-.65C353.11,128.27,352.4,127.2,352.21,126.87Z"/><path class="cls-1" d="M318.7,131.3c-.59.58-.84.78-.91.72s-.2.06-.29.09-.17.1-.2,0-.32-.07-.58.1-.66,0-1.05-.16-.79-.42-.88-.45-1-.45-1.17-.25-.75-.28-1-.07a.13.13,0,0,1-.22,0c-.25-.28-.85.73-1.11.51a1.14,1.14,0,0,0-.56-.19s-.1,0-.14,0c-.4-.53-1-.11-1.47-.37l-.29-.18c-.06,0-.11-.13-.19-.07-.42.34-.71-.1-1-.4,0,0-.07-.17-.13-.09-.17.25-.3.24-.42.16s-.24-.24-.38-.2-.16-.08-.24-.14-.11-.17-.18-.12c-.32.18-.58-.11-.87-.08,0,0,0,0-.06,0-.34.4-.6-.16-.88-.67-.17-.34-.35-.6-.54-.24,0,.07-.08.11-.11,0-.17-.41-.36-.45-.55-.62a.37.37,0,0,0,0-.09c0-.07-.08-1.6-.09-1.93s.11-4.29.15-4.44a1,1,0,0,1,.1-.3,2.3,2.3,0,0,0,.3-1.12c0-.38.12-.51.18-.47a.92.92,0,0,0,.76,0,2.92,2.92,0,0,1,.38-.14,1.14,1.14,0,0,1,.37.05c.21.09.43-.06.64-.07.53,0,1.05,0,1.57,0h.78c.26,0,.51.08.77.11a.67.67,0,0,1,.49.38.64.64,0,0,0,.45.35c.28.07.58,0,.87.06a12,12,0,0,1,1.18.3c.66.2,1.32.41,2,.65,0,0,0,0,.07,0,.6-.65,1.77.09,1.85.1a4,4,0,0,1,1.13.33c.33.23.75.28,1,.62a3.25,3.25,0,0,0,.92.56s.11,0,.15.06a13.14,13.14,0,0,0,1.3,1.37l1.2,1.2c.06,0,0,.21-.1.48s-.12.4-.24.64-.33.58-.42.78a2.06,2.06,0,0,0-.09.41,4.26,4.26,0,0,1-.6.86Z"/><path class="cls-1" d="M325,219.49c7.2,2.67,11.82-3.7,15.72-8.7,1.46-1.88-1.17-4.55-2.66-2.65-2.94,3.79-6.46,9.81-12.07,7.73-2.26-.84-3.24,2.78-1,3.62Z"/><path class="cls-1" d="M368.86,182.93A25.44,25.44,0,0,0,378,180l1.51-.9,1.42-1.06a10.26,10.26,0,0,0,1.2-1l1.17-1,1.07-1.14.54-.57.48-.62,1-1.24c.3-.43.59-.87.88-1.31a29.38,29.38,0,0,0,1.6-2.72c.44-.83.8-1.7,1.19-2.55s.67-1.75,1-2.63c.35-1.15.71-2.3,1-3.46l.93-3.49c.21-.72.46-.57.62.11a7.86,7.86,0,0,1-.07,3.3,36.58,36.58,0,0,1-6.2,13.74,28.44,28.44,0,0,1-6.61,6.57,27.48,27.48,0,0,1-12.54,4.44,10.31,10.31,0,0,1-1.58.13,13.88,13.88,0,0,1-1.58,0,22.62,22.62,0,0,1-9.18-2.44,24,24,0,0,1-6-4.2,15.6,15.6,0,0,1-1.11-1.18c-1.27-1.59-1.46-2.25-1.36-2.8a2.61,2.61,0,0,1,.08-.37c.18-.31.76.26,1.65,1.33a23.19,23.19,0,0,0,10.3,7.11,19.24,19.24,0,0,0,9.47.82Z"/><path class="cls-1" d="M367.84,291.3a2.78,2.78,0,0,1,2.52-1.08c.35,0,.91.53.81.83-.2.57-.41,1.15-.67,1.71a29.93,29.93,0,0,1-2.06,2.73c-.57.64-1.18,1.32-1.76,1.89s-1.08,1.1-1.43,1.44a29.34,29.34,0,0,1-4.44,3.5,61,61,0,0,1-10.13,5.46,15.94,15.94,0,0,1-2.45.8c-2.86.68-5.7,1.4-8.62,2a5.24,5.24,0,0,0-1.45.37,18.31,18.31,0,0,1-4.92.56A22.15,22.15,0,0,1,328,311a24.26,24.26,0,0,1-7.55-3.59,2.34,2.34,0,0,1-.89-.82,6.73,6.73,0,0,0-1.68-2c-.37-.46-.72-.94-1.06-1.42a8.25,8.25,0,0,1-.77-1.58,16.11,16.11,0,0,1-.14-1.8c0-.51.42-.45.56-.35.38.33.4-.11.54-.22a.49.49,0,0,1,.18-.11s.35.25.84.58c.22.17.55.32.83.51s.55.42.85.62c.61.37,1.23.71,1.72,1s.84.45,1,.52a6.89,6.89,0,0,0,1,.62,14.43,14.43,0,0,0,2.43,1,17.85,17.85,0,0,0,4.46.76,7.28,7.28,0,0,1,1.36.27,24.45,24.45,0,0,0,3.37-.16c1.64-.17,3.28-.52,3.4-.53a22,22,0,0,1,4-.49,2.51,2.51,0,0,0,.8-.15c2.24-.63,4.53-1.2,6.77-2a34.75,34.75,0,0,0,3.31-1.47c.2-.09.43-.13.63-.21a5.24,5.24,0,0,0,.78-.3,42.48,42.48,0,0,0,7.32-4.56,40.42,40.42,0,0,0,3.78-2.64C366.17,292.16,367.62,291.64,367.84,291.3Z"/><path class="cls-1" d="M106.63,264c-2.29,2.15-3.93,4.89-6.31,6.94-1.84,1.58.83,4.22,2.65,2.66,2.38-2.06,4-4.8,6.31-6.95,1.77-1.66-.89-4.31-2.65-2.65Z"/><path class="cls-1" d="M149.1,285.71a29.26,29.26,0,0,0-.7,8.7c.21,2.39,4,2.41,3.75,0a26,26,0,0,1,.56-7.71c.49-2.35-3.12-3.36-3.61-1Z"/><path class="cls-1" d="M189.24,247.19a26.72,26.72,0,0,0,7.34,3.32c2,.61,2.86-2.52.86-3.14a23,23,0,0,1-6.56-3c-1.72-1.19-3.35,1.62-1.64,2.81Z"/><path class="cls-1" d="M244.74,208a18.62,18.62,0,0,1,7-1.42,1.38,1.38,0,0,0,0-2.75A20.63,20.63,0,0,0,244,205.3c-1.61.66-.91,3.32.73,2.65Z"/><path class="cls-1" d="M397.61,85.45c-.14-4.47.78-8.74,4.51-11.56.49-.37-1.75-.15-2.22.21-3.88,2.92-4.9,7.36-4.75,12,0,.39,2.48,0,2.46-.66Z"/><path class="cls-1" d="M80,108.6a16,16,0,0,1-2.06-.32,6.18,6.18,0,0,1-.75-.13,8.43,8.43,0,0,1-2.41-1.27c-.33-.22-.65-.46-1-.68s-.41-.31-.6-.48a1.86,1.86,0,0,1-.4-.66c0-.16.3-.38.7-.54s.85-.3,1-.17c.59.44,1.19.78,1.85,1.27a4.06,4.06,0,0,0,1.44.41,10.51,10.51,0,0,0,1.71.26,7.9,7.9,0,0,0,1.09,0,8.6,8.6,0,0,0,1.68-.14,7.35,7.35,0,0,0,1.19-.51l.25-.11c.33-.1.48,0,.72.43l.16.29a.77.77,0,0,1-.1.9,4.88,4.88,0,0,1-2.43,1.29,6.78,6.78,0,0,1-1,.17c-.35,0-.69,0-1,0Z"/></g></svg>