<svg xmlns="http://www.w3.org/2000/svg" width="520" height="520" viewBox="0 0 520 520"><defs><style>.cls-1,.cls-2,.cls-4,.cls-5,.cls-6,.cls-7{fill:#231f20;}.cls-1,.cls-7{opacity:0.3;}.cls-3,.cls-5{opacity:0.4;}.cls-4{opacity:0.6;}.cls-6{opacity:0.7;}.cls-7{stroke:#231f20;stroke-miterlimit:10;}</style></defs><title>Notioly New upgrade</title><g id="n.121_Webflow" data-name="n.121 Webflow"><path class="cls-1" d="M283.78,196.27,314.26,176l30.48,21.63S310.3,228.64,283.78,196.27Z"/><path class="cls-2" d="M47.55,346.41,47.93,327c0-2.36,0-4.72,0-7.07.14-8.32.35-16.63.38-24.94,0-3.69-.05-7.4-.18-11.06-.06-2.34-.23-4.7-.22-7.05,0-1.18,0-2.36.05-3.54s.21-2.36.33-3.53c.2-1.48.7-1.3,1.45-.08a21.84,21.84,0,0,1,1.31,2.53,13.85,13.85,0,0,1,.86,3.66c.09,1.2.26,2.4.29,3.6l.1,3.61c.06,2.4.11,4.81.13,7.22,0,4.82-.12,9.65-.35,14.5-.27,5.81-.06,11.84-.12,17.77q-.16,9.78-.31,19.56-.09,6-.19,12c-.07,6.07-.18,12.18-.08,18.2.09,4.68.41,9.27.74,13.86l.25,3a17.4,17.4,0,0,1-.06,4,3.65,3.65,0,0,1-.91,1.87,4.86,4.86,0,0,1-.55.61c-.31.22-.64,0-1-.7a9.39,9.39,0,0,1-1.08-3.16c-.38-2.09-.57-4.21-.75-6.33s-.29-4.29-.4-6.45c-.19-4.34-.25-8.72-.27-13.11,0-6.52.07-13.07.12-19.6Z"/><path class="cls-2" d="M46.61,147.08c0-1.58.08-3.16.08-4.75,0-.57-.08-1.15-.07-1.73,0-2,.08-4.08.06-6.12a27,27,0,0,0-.17-2.71,14.59,14.59,0,0,1-.15-1.74,8.65,8.65,0,0,1,0-.88,3.71,3.71,0,0,1,.25-.89c.15-.38.49-.33,1,0a10.41,10.41,0,0,1,.87.59,1.66,1.66,0,0,1,.56.86,7.33,7.33,0,0,1,.27,1.74c0,.59.08,1.17.1,1.77a25.34,25.34,0,0,1-.14,3.58,40.15,40.15,0,0,0,.08,4.38c0,1.6,0,3.21,0,4.82l-.05,3c0,1.5-.07,3,0,4.49,0,1.15.23,2.29.34,3.43,0,.25.08.5.09.75a1.53,1.53,0,0,1-.22,1,1.47,1.47,0,0,1-.74.43c-.15,0-.29.1-.42.13a.77.77,0,0,1-.64-.21,1.64,1.64,0,0,1-.56-.79,27.86,27.86,0,0,1-.61-6.29v-4.77Z"/><path class="cls-2" d="M298.51,123.53q-30.39-.11-60.77,0l-22.16.21q-39.08.11-78.14.37c-11.55.1-23.17.32-34.64.57l-22.12.53c-7.38.11-14.76.15-22.13,0-4.62-.24-4-1-.12-1.94a100.15,100.15,0,0,1,19.49-2.45c30.08-.75,60.15-1.2,90.5-1.08,18.14.07,37-.41,55.58-.56q30.62-.25,61.24-.29h37.69c19,0,38.14.17,57,.27,14.68.09,29.08,0,43.62.25,3.2,0,6.34.11,9.58.24,3,.1,5.48.3,7.57.48,1,.09,2,.18,2.83.29s1.63.24,2.32.39a26.25,26.25,0,0,1,3.34.91,11.23,11.23,0,0,1,2.16,1.21,11,11,0,0,1,1.51,1.1c.46.54-.56.79-2.69.87-1.05,0-2.43.07-4.09.08q-1.25,0-2.67-.06l-3.06-.08c-12.86-.44-26.17-.5-39.66-.63l-40.89-.29c-20.38-.12-40.86-.22-61.3-.21Z"/><path class="cls-2" d="M460.73,352.76l-.18-17.94c0-2.18-.18-4.36-.2-6.54-.06-7.7,0-15.4,0-23.1,0-3.42-.12-6.85-.23-10.24q-.15-3.26-.13-6.54a62.47,62.47,0,0,1,.45-6.54c.15-1.36.74-1.18,1.43,0a17.6,17.6,0,0,1,1.09,2.36c.19.49.37,1,.53,1.59l.23.87c0,.3.07.6.09.92l.21,3.32.1,1.66,0,1.66.06,6.66q0,6.66-.15,13.38c-.16,5.35.22,10.92.33,16.4q.13,9,.28,18.08l.12,11.14c.06,5.63,0,11.28-.05,16.88,0,4.36.05,8.64-.29,13-.09,1-.13,1.91-.3,2.9a16.73,16.73,0,0,1-.49,2.28,6.29,6.29,0,0,1-.62,1.52,2.35,2.35,0,0,1-1.62,1.29,3.55,3.55,0,0,1-.85.17c-.42,0-.65-.43-.73-1.09a6.49,6.49,0,0,1,0-1.19c0-.46.1-1,.17-1.6a112.7,112.7,0,0,0,.71-11.32c.09-3.92.12-7.92.12-11.94,0-6-.05-12-.16-18Z"/><path class="cls-2" d="M460.35,166c.1-2,.21-4.1.24-6.14,0-.75-.08-1.49-.06-2.23a73.4,73.4,0,0,0-.16-7.85c-.1-1.17-.29-2.36-.45-3.55a16.08,16.08,0,0,1-.18-2.3,9,9,0,0,1,.35-2.3c.12-.48.58-.41,1.13,0a6.11,6.11,0,0,1,.85.8,4.45,4.45,0,0,1,.42.53c.07.09.11.19.18.29a2.63,2.63,0,0,1,.08.3l.18,1.09.1.55.05.54.2,2.21a38,38,0,0,1,.18,4.69c-.07,1.9.21,3.84.2,5.75,0,2.11-.05,4.2-.13,6.29l-.16,3.85c-.05,1.95-.19,3.9-.18,5.82,0,1.5.19,3,.29,4.46,0,.33.08.65.08,1,0,1.22-.19,1.6-1.07,1.83a4.47,4.47,0,0,1-.57.16c-.62.09-1.22-.42-1.37-1.31a41.45,41.45,0,0,1-.46-8.22l.18-6.21Z"/><path class="cls-2" d="M291.25,410.84l-55.57.5-20.27.27q-35.73.21-71.45.14l-31.69,0c-6.74,0-13.49,0-20.25-.14-3.38-.07-6.77-.18-10.15-.38a76.21,76.21,0,0,1-10.2-1.1,5.05,5.05,0,0,1-2.57-1.11.5.5,0,0,1-.16-.39.47.47,0,0,1,.12-.22c.12-.09.21-.18.28-.24s.08-.11.09-.09.09.21.38.25a11.05,11.05,0,0,0,2.1-.05,154.68,154.68,0,0,1,17.76-.64c13.7.32,27.44.34,41.21.39l41.42.13c16.58.08,33.84-.38,50.8-.63l56-.81,34.44-.52c17.38-.29,34.85-.53,52.11-.94,13.41-.32,26.55-.9,39.82-1.32,2.92-.09,5.78-.22,8.73-.27,10.92-.21,14.44.14,16.77,1.45a7.48,7.48,0,0,1,1.51.93c.47.52-.36.87-2.32,1.18a84,84,0,0,1-9,.71c-23.66,1-48.66,1.58-73.76,2l-56.06.91Z"/><path class="cls-2" d="M233,237.16l-.16-19.53c0-2.37-.14-4.74-.15-7.12l-.07-25.1c0-3.72-.09-7.45-.18-11.13a107.92,107.92,0,0,1,.34-14.26c.16-1.51.43-1.25.81,0a35.78,35.78,0,0,1,1.29,6.24l.26,3.61.12,1.81.06,1.81c.05,2.42.11,4.83.17,7.25.1,4.84.13,9.69,0,14.56-.1,5.83.2,11.89.29,17.85q.15,9.83.28,19.67.09,6,.17,12.1c.11,6.11.17,12.25.37,18.31.15,4.71.49,9.33.74,14,0,1,.14,2,.17,3.07.14,3.83,0,5.08-.9,5.91a3.9,3.9,0,0,1-.53.54c-.56.36-1.23-1.18-1.45-4-.75-8.31-1.08-17.09-1.32-25.9-.14-6.55-.28-13.13-.41-19.7Z"/><path class="cls-2" d="M256.13,221.27l-.23-19.82c0-2.41-.14-4.82-.16-7.23q-.06-12.75,0-25.49c0-3.77,0-7.56,0-11.31a80.12,80.12,0,0,1,.82-14.48c.39-1.57.61-1.2.82.06.14.65.29,1.54.5,2.63l.29,1.76.13,1,.05,1,.16,3.66.1,1.83v1.83q0,3.67.08,7.35c.05,4.9.07,9.82-.05,14.77-.12,5.91.18,12.06.29,18.11q.15,10,.32,20l.21,12.28c.13,6.2.22,12.43.44,18.58.17,4.79.51,9.47.76,14.2.05,1,.13,2.06.16,3.11.11,3.91-.07,5.17-1,6a5.5,5.5,0,0,1-.55.54c-.57.34-1.19-1.21-1.39-4.05-.69-8.41-1.06-17.32-1.33-26.27-.16-6.64-.33-13.32-.49-20Z"/><path class="cls-2" d="M180.66,296.44l-20.18-.05c-2.46,0-4.91.1-7.36.07l-26-.28c-3.84,0-7.7,0-11.51,0-4.9,0-9.81.1-14.72-.33-1.53-.12-1.3-.59,0-1.06a22.8,22.8,0,0,1,6.48-1c10-.29,19.94-.33,30-.19,6,.1,12.29-.17,18.45-.26l20.33-.16,12.51-.12c6.31-.07,12.66-.11,18.92-.27,4.88-.13,9.65-.47,14.47-.69,1.06-.05,2.09-.14,3.17-.16,4-.11,5.27.14,6.1,1.09a4.42,4.42,0,0,1,.55.65c.33.74-1.24,1.3-4.12,1.54-8.58.71-17.66,1-26.78,1.14l-20.36.16Z"/><path class="cls-2" d="M361.64,277.86,338,277.69l-8.62,0-30.4-.29c-4.49,0-9,0-13.47.06-5.74.05-11.47.25-17.25-.14-1.82-.13-1.51-.72,0-1.27a25.13,25.13,0,0,1,7.58-1.15c11.68-.13,23.38-.23,35.17,0,7.06.14,14.4-.1,21.61-.15l23.81-.1,14.66,0c7.39-.05,14.82,0,22.16-.19,5.71-.11,11.3-.43,16.94-.65,1.24,0,2.46-.14,3.71-.17,4.64-.12,6.14.12,7.13,1.06a3.71,3.71,0,0,1,.66.65c.45.73-1.44,1.34-4.83,1.58-10.07.7-20.71.87-31.38,1l-23.85.07Z"/><path class="cls-2" d="M428.69,172.72c.23-3.38.46-6.76.64-10.14.06-1.23,0-2.47.09-3.7.24-4.34.43-8.68.51-13,0-1.92-.06-3.85-.25-5.74-.23-2.41-.6-4.83-1-7.07-.13-.71.3-.86,1-.42a4.81,4.81,0,0,1,1.19,1.12,5.86,5.86,0,0,1,.88,1.9,55.13,55.13,0,0,1,.91,7.7c.07,1.28.11,2.55.1,3.83s0,2.55-.12,3.83c-.2,3.05-.07,6.22-.16,9.33-.1,3.42-.26,6.84-.41,10.25l-.3,6.31c-.14,3.17-.33,6.37-.36,9.53,0,2.45.15,4.86.24,7.29,0,.53.08,1.05.09,1.59,0,2-.2,2.63-1.14,3a4.47,4.47,0,0,1-.59.28c-.62.18-1.29-.65-1.44-2.11a93.33,93.33,0,0,1-.37-13.54c.1-3.42.25-6.84.43-10.26Z"/><path class="cls-2" d="M297.65,144.74a36.33,36.33,0,0,0-18.3,26.68,35.34,35.34,0,0,0,4.72,22.17,32.78,32.78,0,0,0,7,8.21,37.59,37.59,0,0,0,9.31,5.59c.83.37,1.72.6,2.57.91l1.3.44,1.34.31c.89.19,1.77.43,2.67.58L311,210a19.69,19.69,0,0,0,2.43.14c.81,0,1.63.08,2.44,0a37.77,37.77,0,0,0,4.86-.51c.8-.15,1.6-.27,2.39-.44l2.35-.66,1.16-.33,1.13-.45,2.25-.89a35.82,35.82,0,0,0,10.07-7.06c.69-.76,1.44-1.46,2.09-2.26l1.86-2.45a32.11,32.11,0,0,0,3.1-5.32c.55-1.16.92-1.63,1.19-1.49s.41.87.3,2.06a15.78,15.78,0,0,1-1.28,4.72,17.76,17.76,0,0,1-1.6,2.88,16.61,16.61,0,0,1-2.26,3l-1.19,1.25a10,10,0,0,1-1.24,1.2l-2.65,2.2-2.88,1.9a11,11,0,0,1-1.5.84l-1.53.79a40.44,40.44,0,0,1-26.71,3,37,37,0,0,1-12.56-5.29,41.13,41.13,0,0,1-6.4-5.2,36.86,36.86,0,0,1-10.43-22.32,37.32,37.32,0,0,1,2.79-17.91,39.55,39.55,0,0,1,10.6-14.63,39,39,0,0,1,9.43-6A36.57,36.57,0,0,1,310,137.8a39,39,0,0,1,16.68,1.78,35,35,0,0,1,14.12,8.92,39,39,0,0,1,7.35,10.57,42.1,42.1,0,0,1,3.72,12.3c.11.95.21,1.89.32,2.83s0,1.89.05,2.85a17.09,17.09,0,0,1-.14,2.46q-.12,1.11-.21,2c-.24,1.22-.49,2.19-.72,3a6.82,6.82,0,0,1-.79,1.86,7.68,7.68,0,0,1-1.64,1.9c-.38.22-.49-.4-.34-1.63.05-.62.23-1.38.36-2.3s.25-2,.42-3.2a39.7,39.7,0,0,0-3.94-21.36,34.31,34.31,0,0,0-15.27-15.75,36.29,36.29,0,0,0-16.21-3.58,33.84,33.84,0,0,0-16,4.31Z"/><path class="cls-2" d="M309.73,160.05c0-1.66.09-3.33.1-5,0-.61-.07-1.22-.06-1.83,0-2.14.08-4.3.06-6.45,0-1-.05-1.91-.12-2.85a16.5,16.5,0,0,1-.11-3.65c.06-.39.56-.37,1.09-.08a2.27,2.27,0,0,1,1.19,1.54,34.36,34.36,0,0,1,.35,7.46c-.1,1.51.11,3.06.15,4.59.05,1.69.06,3.38.07,5.07V162c0,1.57,0,3.15,0,4.71.05,1.22.26,2.4.4,3.6a4.29,4.29,0,0,1,.07.79,4.82,4.82,0,0,1-.06.63,1.38,1.38,0,0,1-.22.42,1.41,1.41,0,0,1-.67.47,3.57,3.57,0,0,1-.38.14c-.38.09-.8-.31-1.17-1a12.64,12.64,0,0,1-.59-3.27c-.1-1.1-.14-2.22-.17-3.35,0-1.67,0-3.35,0-5Z"/><path class="cls-2" d="M317.36,158.42c0-1.61.06-3.22,0-4.84,0-.59-.07-1.18-.07-1.77l0-6.26c0-.93,0-1.86-.08-2.78a19.13,19.13,0,0,1,0-3.55c.09-.74,1.51.17,1.64,1.51a54,54,0,0,1,.24,7.21c-.06,1.45.12,3,.18,4.44.05,1.64.09,3.28.09,4.92v3c0,1.53-.06,3.06-.1,4.58,0,1.18.08,2.34.1,3.52a5,5,0,0,1,0,.77,1.93,1.93,0,0,1-.29,1,1,1,0,0,1-.53.4,1.31,1.31,0,0,1-.29.11c-.28.07-.56-.35-.77-1.06a17.49,17.49,0,0,1-.21-3.16c0-1.07,0-2.15,0-3.23,0-1.61,0-3.23,0-4.85Z"/><path class="cls-2" d="M296.47,176.28l-4.71-.05c-.57,0-1.14.06-1.72.05l-6.08-.13c-.9,0-1.8,0-2.69.07a14.76,14.76,0,0,1-3.45-.09c-.36-.07-.31-.48,0-.91a2.27,2.27,0,0,1,1.5-1,30.91,30.91,0,0,1,3.47-.19c1.17,0,2.33,0,3.51.09,1.41.09,2.87-.06,4.31-.1l4.75-.05h2.93c1.48,0,3,0,4.44-.06,1.14,0,2.26-.22,3.4-.32.25,0,.49-.07.75-.07.93,0,1.23.14,1.41.8a3.54,3.54,0,0,1,.11.44c.08.5-.31.92-1,1a37,37,0,0,1-6.19.47l-4.73,0Z"/><path class="cls-2" d="M336.91,183.23l-4.3-2.66c-.53-.32-1.07-.61-1.59-.94-1.83-1.18-3.64-2.39-5.44-3.61-.8-.54-1.62-1.08-2.43-1.59a20.42,20.42,0,0,1-3-2.17c-.57-.51.93-.91,2.11-.19,2.11,1.29,4.23,2.55,6.29,4,1.23.87,2.65,1.54,4,2.3,1.48.83,2.94,1.7,4.4,2.56l2.7,1.59c1.37.79,2.73,1.63,4.1,2.4,1.07.61,2.17,1.11,3.25,1.68.24.12.48.23.71.37.86.52,1.05.81.91,1.4,0,.13-.05.28-.09.4-.16.41-.71.5-1.38.21a54.62,54.62,0,0,1-5.89-3.1l-4.35-2.59Z"/><path class="cls-2" d="M320.67,182.52l-4.58-3.13c-.38-.26-.76-.51-1.14-.74l-.29-.19s-.08-.07-.12-.07a.56.56,0,0,0-.13.07l-.41.24-1.2.72c-1.16.7-2.29,1.46-3.46,2.15L297,188.89c-1.81,1.1-3.62,2.25-5.4,3.37a64.09,64.09,0,0,1-7,4.15c-.77.37-.84,0-.44-.69a9.45,9.45,0,0,1,.93-1.32,7,7,0,0,1,1.58-1.47c2.29-1.57,4.56-3.15,6.91-4.63s4.74-2.88,7.17-4.25c2.9-1.64,5.77-3.61,8.67-5.42l2.39-1.48,1.19-.74.91-.56.49-.27.12-.07.12.06.26.13c.33.17.67.33,1,.52l.67.4c.42.25.81.52,1.21.77.8.51,1.58,1,2.37,1.56l5.73,3.93,8.61,6c2.23,1.54,4.5,2.92,6.73,4.42.49.34,1,.65,1.47,1a8.73,8.73,0,0,1,1.73,1.64,1.86,1.86,0,0,1,.32,1.26,3.58,3.58,0,0,1,0,.49c-.06.21-.32.22-.77.15a5,5,0,0,1-1.71-.71c-4-2.45-8.15-5.32-12.29-8.18-3.07-2.12-6.15-4.29-9.25-6.38Z"/><path class="cls-2" d="M352.75,238,340.2,238c-1.52,0-3,.12-4.57.13l-16.14.11c-2.39,0-4.79.1-7.15.18a67,67,0,0,1-9.18,0c-1-.09-.8-.61,0-1.12a8.75,8.75,0,0,1,4-1.07c6.17-.22,12.37-.48,18.64-.38,3.74,0,7.64-.23,11.46-.34l12.64-.3,7.79-.15,11.77-.24c3-.1,6-.35,9-.48.67,0,1.32-.09,2-.1a8,8,0,0,1,2.64.26,1.82,1.82,0,0,1,1.13.89,3.27,3.27,0,0,1,.32.57c.2.62-.83,1.12-2.61,1.3-5.3.4-10.92.53-16.57.6l-12.64.16Z"/><path class="cls-2" d="M162.23,353.91l-12.85,0c-1.56,0-3.12.12-4.68.12l-16.54.05c-2.44,0-4.9.09-7.33.18a65.71,65.71,0,0,1-9.41,0c-1-.1-.81-.69,0-1.26a8.18,8.18,0,0,1,4.09-1.23c6.32-.23,12.68-.5,19.1-.35,3.83.07,7.82-.23,11.74-.33l13-.28,8-.14c4-.08,8.07-.1,12.07-.23,3.1-.1,6.15-.39,9.24-.54.68,0,1.35-.1,2-.11a7.55,7.55,0,0,1,2.71.28,1.91,1.91,0,0,1,1.16,1,4.24,4.24,0,0,1,.32.64c.2.72-.86,1.29-2.68,1.5-5.42.47-11.17.6-17,.67l-12.95.13Z"/><path class="cls-2" d="M355.08,248.4c-2.16-.07-4.33-.12-6.49-.15-.79,0-1.58.07-2.37.05-2.78-.05-5.57-.13-8.36-.13-1.24,0-2.48,0-3.71.1a22.94,22.94,0,0,1-4.76,0c-.5-.08-.42-.61,0-1.15a3,3,0,0,1,2.05-1.2c1.59-.13,3.19-.25,4.8-.32s3.23,0,4.86.09c1.95.13,4-.09,5.95-.12,2.18,0,4.37,0,6.56,0h4c2,0,4.09.05,6.12,0,1.58,0,3.13-.22,4.71-.28a9.2,9.2,0,0,1,1.05,0c1.32.11,1.73.4,1.91,1.15a3.1,3.1,0,0,1,.11.51c.05.57-.53,1-1.43,1.13a56,56,0,0,1-8.49.45c-2.17,0-4.35-.06-6.53-.07Z"/><path class="cls-2" d="M172.86,371.11c-2.16-.07-4.33-.13-6.49-.15-.79,0-1.58.06-2.37.05-2.78-.05-5.57-.13-8.36-.14-1.24,0-2.48,0-3.71.11a23.65,23.65,0,0,1-4.76,0c-.5-.08-.42-.61,0-1.16a3,3,0,0,1,2-1.19c1.59-.14,3.19-.26,4.8-.32s3.23,0,4.86.09c1.95.12,4-.09,5.95-.12,2.18,0,4.37,0,6.56,0l4,0c2,0,4.09.05,6.12,0,1.58,0,3.13-.21,4.71-.27a9.21,9.21,0,0,1,1,0c1.32.11,1.74.4,1.91,1.15a3.21,3.21,0,0,1,.11.52c.05.56-.53,1-1.43,1.12a57.33,57.33,0,0,1-8.49.46c-2.17,0-4.35-.07-6.53-.07Z"/><path class="cls-2" d="M399.79,142.73c-2.62-.07-5.24-.13-7.87-.16-.95,0-1.91.07-2.87.05-3.37-.05-6.75-.14-10.12-.15-1.5,0-3,0-4.49.11a34.61,34.61,0,0,1-5.76,0c-.6-.07-.51-.61,0-1.15a3.89,3.89,0,0,1,2.49-1.2c1.94-.14,3.89-.26,5.84-.32s3.91,0,5.88.09c2.35.13,4.8-.08,7.2-.11l7.94,0h4.89c2.47,0,5,.06,7.41,0,1.9,0,3.78-.22,5.69-.29.42,0,.83-.05,1.26,0,1.58.09,2.11.41,2.34,1.16a3.63,3.63,0,0,1,.15.51c.07.57-.62,1-1.7,1.11a84.76,84.76,0,0,1-10.34.48l-7.91-.06Z"/><g class="cls-3"><path class="cls-2" d="M399.09,148.64c.91.06,1.83.07,2.76.06.34,0,.68-.09,1-.09l3.66,0a14.53,14.53,0,0,0,1.62-.11,4.85,4.85,0,0,1,2.11,0c.22.06.18.55,0,1.05s-.48,1-.85,1a15.9,15.9,0,0,1-4.1.22,16,16,0,0,0-2.57.2c-.95.06-1.92.09-2.88.11l-1.79,0c-.91,0-1.82-.1-2.74-.12-.71,0-1.43.06-2.18,0a2.83,2.83,0,0,1-.5,0c-.61-.11-.72-.44-.6-1.13,0-.15,0-.3.08-.44a1.37,1.37,0,0,1,.9-1,16.52,16.52,0,0,1,3.37,0c.87,0,1.76.11,2.68.1Z"/></g><g class="cls-3"><path class="cls-2" d="M163.77,208.59c.91.06,1.84.07,2.77.06.34,0,.67-.09,1-.09l3.66,0a14.87,14.87,0,0,0,1.63-.11,4.8,4.8,0,0,1,2.1,0c.22.06.19.55,0,1.05s-.48,1-.85,1a16.24,16.24,0,0,1-4.09.23,15.09,15.09,0,0,0-2.58.19c-1,.06-1.91.09-2.88.11l-1.79,0c-.91,0-1.82-.1-2.73-.12-.71,0-1.44.07-2.18,0a2.75,2.75,0,0,1-.5,0c-.62-.11-.73-.44-.61-1.13,0-.15,0-.3.08-.44a1.41,1.41,0,0,1,.9-1,16.52,16.52,0,0,1,3.37,0c.88,0,1.77.11,2.68.1Z"/></g><path class="cls-2" d="M154.88,162.33c-4.89-4.44-11.25,5.4-5.29,7.84,6.27,2.57,10.35-8.43,2.77-8.16"/><path class="cls-2" d="M153.79,171.84a6.12,6.12,0,0,1-3.25.21,6.66,6.66,0,0,1-2.84-1.32,4.77,4.77,0,0,1-1.52-1.93,5.48,5.48,0,0,1,.11-4,7.38,7.38,0,0,1,2.08-2.94,6.74,6.74,0,0,1,2.85-1.57,4.36,4.36,0,0,1,2.21,0,3.38,3.38,0,0,1,1.77,1.19c.28.35-.19.7-.78,1a4.59,4.59,0,0,1-1.62.5,2.71,2.71,0,0,0-1.92.38,6.69,6.69,0,0,0-1.93,1.81,2.81,2.81,0,0,0-.49,1.55,2.41,2.41,0,0,0,.38,1.36,3.51,3.51,0,0,0,3.13,1.38,3.67,3.67,0,0,0,2.12-1,4.32,4.32,0,0,0,1.49-3.33,1.82,1.82,0,0,0-.49-1.12,2.06,2.06,0,0,0-1-.49l-.51-.08c-.67-.13-.92-.23-1.12-1.07,0-.18-.11-.35-.14-.5a1.11,1.11,0,0,1,1.15-1.25,4.47,4.47,0,0,1,2.15.26,4.32,4.32,0,0,1,2,1.62,4.92,4.92,0,0,1,.79,2.44,6.35,6.35,0,0,1-.3,2.29,7.3,7.3,0,0,1-1.62,2.79,6.9,6.9,0,0,1-2.72,1.85Z"/><path class="cls-2" d="M178.64,162.33c-4.89-4.44-11.25,5.4-5.29,7.84,6.27,2.57,10.35-8.43,2.77-8.16"/><path class="cls-2" d="M177.56,171.84a6.16,6.16,0,0,1-3.26.21,6.66,6.66,0,0,1-2.84-1.32A4.66,4.66,0,0,1,170,168.8a5.48,5.48,0,0,1,.1-4,7.38,7.38,0,0,1,2.08-2.94,6.74,6.74,0,0,1,2.85-1.57,4.36,4.36,0,0,1,2.21,0,3.38,3.38,0,0,1,1.77,1.19c.28.35-.19.7-.78,1a4.59,4.59,0,0,1-1.62.5,2.71,2.71,0,0,0-1.92.38,6.54,6.54,0,0,0-1.92,1.81,2.74,2.74,0,0,0-.5,1.55,2.41,2.41,0,0,0,.38,1.36,3.52,3.52,0,0,0,3.14,1.38,3.68,3.68,0,0,0,2.11-1,4.32,4.32,0,0,0,1.49-3.33,1.71,1.71,0,0,0-.49-1.12,2.06,2.06,0,0,0-.95-.49l-.51-.08c-.66-.13-.92-.23-1.12-1.07,0-.18-.11-.35-.14-.5a1.11,1.11,0,0,1,1.15-1.25,4.47,4.47,0,0,1,2.15.26,4.32,4.32,0,0,1,2,1.62,4.92,4.92,0,0,1,.79,2.44,6.35,6.35,0,0,1-.3,2.29,7.3,7.3,0,0,1-1.62,2.79,6.9,6.9,0,0,1-2.72,1.85Z"/><path class="cls-2" d="M100.69,203.34c.8-.71,1.53-1.31,2.4-2a28.59,28.59,0,0,1,2.73-1.81c1.79-1.06,3.58-2,5.37-2.9,3.58-1.83,7.16-3.54,10.62-5.37,1.26-.68,2.48-1.39,3.64-2.14a17.26,17.26,0,0,0,3-2.31c.21-.27.24-.28.27-.43s0-.38,0-.55a5.47,5.47,0,0,0,0-.59,2.42,2.42,0,0,0-.37-1,4.1,4.1,0,0,0-2.07-1.42,18.2,18.2,0,0,0-6.57-.67,40.2,40.2,0,0,0-6.94,1,34.24,34.24,0,0,0-3.37,1c-.54.19-1.08.4-1.58.62l-.71.36-.78.45c-4,2.3-8.06,4.46-12.2,6.35-2.67,1.22-5.37,2.37-8.12,3.37a62.48,62.48,0,0,1-8.47,2.33c-1.79.36-1.73-.41-.48-1.56a23.76,23.76,0,0,1,6.69-4,138.66,138.66,0,0,0,15.9-7c1.29-.67,2.56-1.35,3.84-2.06l2-1.1a17,17,0,0,1,2.35-1A40.38,40.38,0,0,1,117,179a31,31,0,0,1,9,.23,12.39,12.39,0,0,1,2.37.78,7.31,7.31,0,0,1,2.27,1.54,5.9,5.9,0,0,1,1.48,2.56l.16.71.06.71a3.1,3.1,0,0,1,0,.68l0,.76a5.78,5.78,0,0,1-.29,1,4.14,4.14,0,0,1-.5.85,5.63,5.63,0,0,1-.51.62,5.1,5.1,0,0,1-.52.52,17.09,17.09,0,0,1-2.11,1.65,102.92,102.92,0,0,1-10.68,5.95c-3.57,1.82-7.2,3.56-10.5,5.57-.51.32-1,.64-1.45,1s-.9.72-1.36,1.11c-.93.78-1.82,1.58-2.66,2.41a17,17,0,0,0-2.23,2.64,32.67,32.67,0,0,1-2.23,3.09,46.38,46.38,0,0,1-4,4.14,29.46,29.46,0,0,1-4.74,3.44A48.53,48.53,0,0,1,78,225.46a61.67,61.67,0,0,1-17.29,2.72c-1.28,0-2.55,0-3.85-.08a19.93,19.93,0,0,1-5-.89,3.74,3.74,0,0,1-2-1.44,4.82,4.82,0,0,1-.53-.76c-.3-.73,1.72-1.17,5-.94a72.65,72.65,0,0,0,15-.64A50.26,50.26,0,0,0,83.77,219a34.36,34.36,0,0,0,4.78-2.83c.36-.27.73-.53,1.08-.81s.66-.54,1-.87c.71-.66,1.41-1.32,2.07-2a26.4,26.4,0,0,0,1.83-2.05c.56-.69,1-1.4,1.64-2.3a20.61,20.61,0,0,1,2.12-2.66c.76-.81,1.54-1.56,2.32-2.25Z"/><path class="cls-2" d="M63.12,152.09a38.73,38.73,0,0,1,8.12-5.85,23.51,23.51,0,0,1,4.85-1.9,21.55,21.55,0,0,1,5.18-.68,43.78,43.78,0,0,1,9.82,1.13c3.16.69,6.16,1.42,9.25,2.17,4.47,1.1,9,2.16,13.39,3.46,3.91,1.15,7.8,2.39,11.65,3.85,1.92.72,3.83,1.51,5.71,2.41a27.33,27.33,0,0,1,5.53,3.34,9.47,9.47,0,0,1,1.28,1.26,5.62,5.62,0,0,1,1.06,1.81,3.89,3.89,0,0,1,.06,2.41,5.22,5.22,0,0,1-1.13,1.9,8.07,8.07,0,0,1-3.14,1.95,16,16,0,0,1-3.23.8,23.4,23.4,0,0,1-6.42.1c-2-.24-4-.51-6.08-.88a35.29,35.29,0,0,1-6.23-1.62c-1-.38-2-.85-2.94-1.31l-2.64-1.34a.92.92,0,0,0-.58,0l-1.11.11c-.76.08-1.54.15-2.31.21-1.54.11-3.08.18-4.63.18A54.74,54.74,0,0,1,90.7,165c-.66-.08-1.31-.2-2-.32s-1.3-.24-1.94-.4-1.29-.3-1.93-.49l-1-.29-.47-.15-.24-.07s-.06,0-.07-.06a1,1,0,0,0-.57.16c-.4.2-.84.46-1.28.71-.88.49-1.8,1-2.75,1.41a18.77,18.77,0,0,1-6.08,1.63,5.39,5.39,0,0,1-1.64,0c-.34-.07-.49-.16-.47-.27s.75-.49,1.87-1a25,25,0,0,0,4.23-2.25c.82-.54,1.69-1.14,2.61-1.82l1.51-1.07.48-.3a4.69,4.69,0,0,1,.84-.41,1.17,1.17,0,0,1,.45-.13,3.4,3.4,0,0,1,.46-.06c.16,0,.31.07.47,0l.24,0,.12,0h.1s0-.07,0,.08l0-.08h.12l.55.15.35.09.71.18c.47.12,1,.22,1.43.3l1.43.33,1.44.26a49.19,49.19,0,0,0,5.81.66,54.53,54.53,0,0,0,5.86,0c1-.06,2-.13,3-.23l1.52-.15.41,0a3,3,0,0,1,.68,0,3.65,3.65,0,0,1,.74.08l.18,0h0c0-.1,0,0,0,0h0l.09,0,.35.13,2,1c.58.3,1.15.59,1.71.85a24.91,24.91,0,0,0,3.34,1.32,50.3,50.3,0,0,0,7.37,1.5l1.93.26c.61.07,1.36.18,1.84.22a22.62,22.62,0,0,0,3.58-.07,15.12,15.12,0,0,0,3.37-.71,7,7,0,0,0,1.31-.64c.31-.26.63-.51.71-.75a.52.52,0,0,0,.08-.52,3.55,3.55,0,0,0-.79-1.08,15.24,15.24,0,0,0-3.12-2.18,54.55,54.55,0,0,0-7.66-3.35c-5.35-1.94-10.91-3.49-16.44-5-3-.81-6.1-1.57-9.17-2.31s-6.16-1.49-9.19-2.09a36.14,36.14,0,0,0-9-.77A18.73,18.73,0,0,0,72,150.09a43.74,43.74,0,0,0-8.74,7.14,70.47,70.47,0,0,0-7.3,8.86c-6.81,9.54-13.06,19.65-19.5,29.45-5,7.63-9.81,15.2-15.61,22.26l-2,2.27c-.68.73-1.35,1.48-2.08,2.2a29.43,29.43,0,0,1-6.35,5c-.4.21-.74.41-1.08.56s-.65.24-.94.33a4.26,4.26,0,0,1-1.49.26,7,7,0,0,1-1.14,0c-.41-.09,0-.54,1.11-1.23a43.94,43.94,0,0,0,4.51-3.85,83.56,83.56,0,0,0,7.67-9.13c2.47-3.21,4.84-6.58,7.18-10,4.71-6.84,9.29-14,13.89-21.14,3.42-5.32,6.86-10.66,10.45-16,1.81-2.65,3.67-5.28,5.7-7.85,1-1.28,2.09-2.56,3.24-3.79s2.28-2.33,3.5-3.45Z"/><path class="cls-2" d="M122.52,171a3.7,3.7,0,0,0-3.14,4c.3,2.73,4.12,4.73,6.55,5C132.27,180.84,138.52,172,122.52,171Z"/><path class="cls-2" d="M133.63,178.22a6.75,6.75,0,0,1-2.65,2.29,8.67,8.67,0,0,1-3.11.9,7.85,7.85,0,0,1-2.37,0,10.92,10.92,0,0,1-3.59-1.55,8.62,8.62,0,0,1-2.77-2.8,4.54,4.54,0,0,1-.48-3.7,4.9,4.9,0,0,1,1.24-2,3.29,3.29,0,0,1,2.23-.95c.55,0,.4.51.17,1a11.13,11.13,0,0,1-.63,1.5,2.68,2.68,0,0,0-.53,1.1,2.72,2.72,0,0,0-.06.55,1.48,1.48,0,0,0,0,.47,4.53,4.53,0,0,0,1.56,2.33,6.9,6.9,0,0,0,3.88,1.55,5.87,5.87,0,0,0,4.2-1.34,2.35,2.35,0,0,0,1-2.06c-.19-1.08-1.62-2.05-3.09-2.46a12.72,12.72,0,0,0-3.65-.35c-.27,0-.54,0-.81,0a1.76,1.76,0,0,1-1-.32,1.78,1.78,0,0,1-.42-1c0-.19-.09-.37-.11-.55a1,1,0,0,1,.28-.82,1.58,1.58,0,0,1,1-.56,10.22,10.22,0,0,1,3.81.09,11.76,11.76,0,0,1,4,1.51,6.12,6.12,0,0,1,2.58,2.91,4.55,4.55,0,0,1,.28,2.28,5.14,5.14,0,0,1-.73,2Z"/><path class="cls-2" d="M164,200l-7.51-.18c-.91,0-1.82,0-2.74,0-3.22-.1-6.44-.21-9.66-.26-1.43,0-2.86,0-4.28.05a37.14,37.14,0,0,1-5.48-.05c-.58-.07-.5-.51,0-1a4,4,0,0,1,2.39-1c1.85-.13,3.71-.25,5.57-.31s3.72,0,5.6.1c2.25.12,4.58-.07,6.87-.1h12.23c2.36,0,4.72.05,7.06,0,1.81-.05,3.6-.27,5.41-.39.39,0,.79-.08,1.2-.08,1.49-.05,2.05.28,2.26,1.09a3.06,3.06,0,0,1,.14.56c.05.61-.57,1.11-1.58,1.24a77.69,77.69,0,0,1-9.89.47L164,200Z"/><path class="cls-2" d="M164,255.88c-3.45,2.94-6.92,5.89-10.45,8.79-1.29,1.06-2.53,2.19-3.87,3.21-1.06.8-2.14,1.59-3.29,2.34-.59.38-1.15.73-1.88,1.11a3.33,3.33,0,0,1-3,.4l-.87-.47c-.29-.18-.45-.31-.63-.43-.36-.25-.71-.5-1-.77-.66-.52-1.29-1.05-1.91-1.59-1.23-1.07-2.43-2.17-3.62-3.26L127.63,260c-1.22-1.12-2.46-2.22-3.65-3.37a33.62,33.62,0,0,1-3.33-3.71c-.64-.84-.12-1.13,1-1a9.06,9.06,0,0,1,4.28,1.82c2.52,2.21,5.12,4.33,7.53,6.65s4.88,4.61,7.33,6.74c.32.27.65.56,1,.79l.43.32.17.13a.34.34,0,0,0,.35,0,2.41,2.41,0,0,0,.53-.27,22.33,22.33,0,0,0,1.89-1.27c1.26-.93,2.51-2,3.76-3,3.53-2.83,7-5.78,10.44-8.77l3.18-2.77,1.6-1.39,1-.86a3.48,3.48,0,0,1,1.24-.78.75.75,0,0,1,.51-.09,5.08,5.08,0,0,1,.51.17,4.86,4.86,0,0,1,1,.51c.77.46,1.08.69,1.56,1l2.64,1.84,5.22,3.68c2.71,1.87,5.47,3.54,8.19,5.35.59.4,1.2.76,1.79,1.18a9.23,9.23,0,0,1,2.15,1.89,2.32,2.32,0,0,1,.35,1.62,4.69,4.69,0,0,1-.06.7c-.1.33-.44.42-1,.4a4.74,4.74,0,0,1-2.2-.75c-5-2.91-10-6.43-15-9.94L169.19,255l-1.38-1-.68-.46-.13-.09h0s0,0,0,0h-.05l-.31.27L164,256Z"/><path class="cls-2" d="M291,348.41,290.94,337c0-1.38-.12-2.76-.13-4.15V318.22c0-2.17-.1-4.35-.19-6.5-.06-1.38-.16-2.76-.19-4.15a30.74,30.74,0,0,1,.21-4.17c.1-.86.65-.74,1.26,0a7.3,7.3,0,0,1,1.46,3.62c.31,5.61.51,11.24.37,16.93-.1,3.4.17,6.93.26,10.41l.21,11.47.12,7.07c.07,3.56.11,7.15.24,10.69.1,2.75.39,5.44.55,8.17,0,.61.1,1.2.11,1.81A6,6,0,0,1,295,376a1.77,1.77,0,0,1-.88,1,3.73,3.73,0,0,1-.55.3c-.61.18-1.13-.75-1.39-2.35-.56-4.8-.85-9.91-1-15-.08-3.82-.15-7.65-.23-11.48Z"/><path class="cls-2" d="M339,377.92q-5.21,0-10.41,0c-1.27,0-2.53.11-3.8.12l-13.4.07c-2,0-4,.13-5.94.25a43.83,43.83,0,0,1-7.6.12c-.8-.08-.71-.68-.06-1.32a5.76,5.76,0,0,1,3.28-1.53c1.28-.15,2.57-.22,3.86-.28l3.87-.15c2.59-.08,5.18-.08,7.79,0,3.12.11,6.35-.16,9.54-.22,3.5-.06,7-.09,10.52-.11l6.47,0,9.8,0c2.52,0,5-.23,7.52-.28.55,0,1.1,0,1.66,0,2.08.07,2.75.34,3.1,1.23a3.68,3.68,0,0,1,.23.56c.14.56-.75,1.16-2.22,1.2-4.38.29-9,.36-13.72.39l-10.48.07Z"/><path class="cls-2" d="M470.91,224.63a135.65,135.65,0,0,1-10.3-22.16c-1-2.82-1.94-5.61-2.74-8.44-2.85-10-4.91-20.12-8.29-29.78a92,92,0,0,0-5.32-12.44,21.75,21.75,0,0,0-2.38-3.37,19.62,19.62,0,0,0-3-2.74,32.37,32.37,0,0,0-7.44-3.87c-1.67-.66-1.28-1.18.4-1.36a13.15,13.15,0,0,1,3.4.18,13.66,13.66,0,0,1,4.63,1.67,20,20,0,0,1,6.95,7c.45.69.81,1.4,1.2,2.12l1,2.06c.68,1.37,1.25,2.78,1.87,4.18A120.2,120.2,0,0,1,456.33,175c1.73,7,3.73,14.22,5.86,21.2a112.83,112.83,0,0,0,4,11.3c1.5,3.7,3.27,7.3,5.11,10.87,2.33,4.35,4.79,8.66,7.53,12.77a137.16,137.16,0,0,0,13.69,17.77c1.92,2.15,4,4.08,6.1,6s4.31,3.68,6.62,5.32l1.49,1.1c.51.34,1,.66,1.56,1,1,.63,1.75,1.18,2.39,1.67s1.21.81,1.63,1.15a4.62,4.62,0,0,1,1.52,1.8,5,5,0,0,1,.34.8c.15.74-1.81.29-5-1.26a70.59,70.59,0,0,1-13-9.52,121.59,121.59,0,0,1-11.28-12,160.48,160.48,0,0,1-14-20.29Z"/><path class="cls-2" d="M427.13,224.18a21.89,21.89,0,0,0-7.45-5.8,36.74,36.74,0,0,0-9.47-2.9c-2.47-.46-5-.77-7.61-1.39a35.06,35.06,0,0,1-6.74-2.24,15.14,15.14,0,0,1-6-4.63,9,9,0,0,1-1-1.74,5.79,5.79,0,0,1-.62-2.13,4.43,4.43,0,0,1,.51-2.54,5.24,5.24,0,0,1,1.64-1.75,10.44,10.44,0,0,1,3.63-1.47,26,26,0,0,1,3.53-.54,85.77,85.77,0,0,1,12.21,0c2.57.19,5.13.42,7.69.8,1.27.2,2.55.4,3.81.72.63.16,1.26.33,1.88.52s1.22.54,1.85.78c.78.31,1.12.71,1,.94s-.64.38-1.36.57a15.94,15.94,0,0,1-6.85.72c-2.52-.32-5-.57-7.57-.75s-5-.42-7.54-.47a39.91,39.91,0,0,0-7.25.38,9,9,0,0,0-2.82.9,1.65,1.65,0,0,0-.55.45c-.09.1-.14.3-.09.67a5.79,5.79,0,0,0,.63,1.56l.53.78c.2.25.45.47.67.71a12.11,12.11,0,0,0,3.54,2.25A41.91,41.91,0,0,0,406.2,211l5.18.94a47.23,47.23,0,0,1,5.31,1.3,29.34,29.34,0,0,1,9.83,5.08,26.09,26.09,0,0,1,4.68,5c.34.45.63.94.95,1.41.15.23.31.49.46.77l.39.74c.5,1,1,1.93,1.49,2.86a45.49,45.49,0,0,0,12,14.8,34.16,34.16,0,0,0,13.06,6c1,.27,2.06.38,3.1.59s1.78.29,2.47.4a16.51,16.51,0,0,1,1.68.37,5.13,5.13,0,0,1,1.12.4,4.26,4.26,0,0,1,.75.59c.2.19.46.36.58.5s-.12.45-.89.79a9.26,9.26,0,0,1-3.57.51,33.13,33.13,0,0,1-14.05-3.23,39.5,39.5,0,0,1-11.94-9,52.09,52.09,0,0,1-6.53-8.94c-.93-1.58-1.78-3.22-2.58-4.77a19.25,19.25,0,0,0-2.65-3.91Z"/><path class="cls-2" d="M479.35,284.52c-1.49-2-2.9-4-4.3-6-.52-.73-1.08-1.41-1.58-2.15-1.75-2.6-3.4-5.26-5.11-7.86-.76-1.16-1.61-2.26-2.45-3.34a35,35,0,0,1-3.16-4.21c-.54-1,2.17-1.39,3.53.18A69,69,0,0,1,472.6,270c1.11,1.88,2.54,3.63,3.82,5.43,1.41,2,2.82,4,4.29,5.88.91,1.19,1.82,2.37,2.78,3.5a56.63,56.63,0,0,0,4.58,5c.65.57,1.33,1.09,2,1.61s1.42,1,2.11,1.44c.3.21.62.4.93.6,1.15.77,1.38,1.2,1.16,2.08-.06.19-.09.41-.16.59-.25.62-1,.72-2,.24a28.22,28.22,0,0,1-7.92-6.08c-1.74-1.82-3.35-3.75-4.89-5.7Z"/><path class="cls-2" d="M41.06,244.88c1.87-2.11,3.8-4.19,5.76-6.23.71-.75,1.37-1.55,2.11-2.27a78.27,78.27,0,0,1,8.38-7.13c1.32-1,2.67-1.93,4.06-2.82l1.4-.82c.49-.23,1-.5,1.49-.69a8.12,8.12,0,0,1,1.64-.46c.28-.05.57-.09.85-.12s.59,0,.89,0c.74.07.54.84.07,1.62a8.56,8.56,0,0,1-.85,1.13,2.81,2.81,0,0,1-.52.46,2.49,2.49,0,0,1-.62.35,24.66,24.66,0,0,0-4.9,2.71c-1.63,1.1-3.24,2.32-4.88,3.55a49.58,49.58,0,0,0-5.42,5.25c-1.94,2-3.84,4.06-5.69,6.16-1.14,1.29-2.27,2.6-3.37,3.93-1.66,2-3.35,4.05-4.87,6.16-1.2,1.63-2.16,3.38-3.27,5.06-.25.37-.46.75-.72,1.11-1,1.35-1.51,1.64-2.41,1.37a3.63,3.63,0,0,1-.61-.19c-.61-.31-.63-1.15-.09-2.22a56.57,56.57,0,0,1,6.11-9.38c1.72-2.25,3.55-4.44,5.39-6.62Z"/><path class="cls-2" d="M427.1,248.25v-3.88c0-.47-.1-.93-.09-1.41,0-1.67.14-3.35.17-5,0-.75,0-1.5-.05-2.23a8.34,8.34,0,0,1,.09-2.86c.08-.3.61-.26,1.15,0s1.12.68,1.2,1.2c.15.93.27,1.87.35,2.81a16.37,16.37,0,0,1-.08,2.88,30.22,30.22,0,0,0,.15,3.54l.07,3.91,0,2.42c0,1.22,0,2.45.09,3.67,0,.94.28,1.88.27,2.85,0,.22,0,.43,0,.65a1.46,1.46,0,0,1-.3.87,1,1,0,0,1-.72.27,3.27,3.27,0,0,1-.44,0,1.18,1.18,0,0,1-1-.9,17.85,17.85,0,0,1-.87-4.9c-.06-1.28-.07-2.57-.12-3.86Z"/><path class="cls-2" d="M433.47,161.47l-.73,8.62c-.09,1-.1,2.1-.19,3.14-.31,3.7-.66,7.39-.94,11.09-.12,1.64-.19,3.29-.24,4.92a32.79,32.79,0,0,1-.43,6.26c-.12.65-.55.56-1,0a5,5,0,0,1-1.14-2.83c0-2.14.06-4.29.16-6.43s.35-4.29.61-6.44c.33-2.57.34-5.26.52-7.9.2-2.9.43-5.8.67-8.7l.44-5.35c.2-2.7.46-5.41.61-8.1.12-2.08.1-4.14.17-6.22,0-.46,0-.91.05-1.37.09-1.72.45-2.27,1.15-2.52a2.62,2.62,0,0,1,.46-.17c.24-.05.43.12.61.45a2.85,2.85,0,0,1,.29,1.43c.08,3.66-.11,7.55-.36,11.43-.21,2.89-.41,5.8-.62,8.69Z"/><path class="cls-2" d="M429.09,246.57c.05-.88,0-1.76,0-2.66,0-.33-.1-.65-.11-1,0-1.18-.07-2.37-.14-3.56a13.3,13.3,0,0,0-.21-1.56,5.21,5.21,0,0,1-.14-2c0-.21.42-.23.83-.11a1.42,1.42,0,0,1,1,.75,15.34,15.34,0,0,1,.55,4,18.12,18.12,0,0,0,.39,2.49,23.83,23.83,0,0,1,.25,2.82c0,.58,0,1.17,0,1.75,0,.88-.05,1.75,0,2.62a17.33,17.33,0,0,0,.32,2,3.35,3.35,0,0,1,.07.44c0,.55-.15.71-.89.79a4.4,4.4,0,0,1-.51,0,1.11,1.11,0,0,1-1.17-.61,9.67,9.67,0,0,1-.39-3.57c0-.89.07-1.78,0-2.66Z"/><path class="cls-2" d="M318.68,140.8v29.89l29.11,17.75c2.89-8.22,8.41-30.75-13.47-42.7C334.32,145.74,324.54,139.64,318.68,140.8Z"/><path class="cls-2" d="M363.9,279.71l-21.57.11-7.87.11-27.74.06c-4.1,0-8.22.08-12.29.15-5.23.08-10.49.24-15.72.06-3.25-.11.88-1.76,6.89-1.87,10.67-.18,21.34-.34,32.11-.29,6.44,0,13.14-.21,19.72-.31l21.73-.31,13.37-.18c6.75-.11,13.53-.19,20.23-.37,5.21-.14,10.31-.42,15.46-.64l3.38-.15c4.24-.13,5.6,0,6.52.72a3.49,3.49,0,0,1,.6.48c.4.54-1.31,1-4.41,1.18-9.18.6-18.89.84-28.63,1l-21.77.3Z"/><path class="cls-2" d="M181.83,298.56l-18.55.17c-2.26,0-4.52.14-6.77.14H132.65c-3.53,0-7.08.06-10.58.14-4.5.05-9,.15-13.52-.1-1.4-.08-1.21-.49,0-.92a20.85,20.85,0,0,1,6-1c9.16-.35,18.33-.48,27.59-.46,5.54,0,11.3-.26,17-.4l18.68-.35,11.5-.23c5.8-.13,11.63-.24,17.39-.44,4.48-.17,8.86-.51,13.29-.75,1-.05,1.93-.13,2.92-.17a22.85,22.85,0,0,1,3.88.09,2.84,2.84,0,0,1,1.74.82,2.8,2.8,0,0,1,.5.56c.31.65-1.12,1.12-3.77,1.36-7.88.68-16.23,1-24.6,1.25l-18.72.36Z"/><path class="cls-2" d="M234.77,237.18l.26-17.92,0-6.54.42-23c.06-3.4.06-6.83,0-10.21,0-4.34,0-8.71.37-13.05.1-1.36.3-1.18.59,0a33.41,33.41,0,0,1,.94,5.74c.26,4.44.25,8.87.24,13.32s-.07,8.9-.23,13.37c-.18,5.35-.08,10.92-.12,16.39q-.1,9-.19,18.06L237,244.38c0,5.61-.12,11.24-.09,16.81,0,4.33.18,8.57.27,12.85,0,.94,0,1.86.08,2.81,0,3.52-.11,4.64-.75,5.4a3.79,3.79,0,0,1-.4.5c-.41.33-.9-1.1-1-3.68-.41-7.64-.47-15.71-.48-23.8,0-6,.06-12.05.09-18.08Z"/><path class="cls-2" d="M484.17,269.15a27.82,27.82,0,0,0,3.32-2.95c.37-.4.65-.88,1-1.29a30.86,30.86,0,0,0,3.47-4.74,13.35,13.35,0,0,0,1-2.4c.17-.54.3-1.08.47-1.61a4.76,4.76,0,0,1,.66-1.54c.2-.31,1-.06,1.64.44s1.24,1.3,1.06,2a18.69,18.69,0,0,1-3.41,6.65,22,22,0,0,0-1.31,1.85,18.59,18.59,0,0,1-1.31,1.88,29,29,0,0,1-3.47,3.62c-.8.65-1.58,1.32-2.44,1.9l-1,.67-1,.6c-.65.43-1.37.74-2,1.14a24.93,24.93,0,0,1-3.28,1.61,4,4,0,0,1-.76.27c-1,.18-1.37,0-1.68-.75a3.28,3.28,0,0,1-.2-.52,1.36,1.36,0,0,1,.69-1.52c1.66-1.06,3.23-2,4.91-2.88a27.8,27.8,0,0,0,3.54-2.47Z"/><path class="cls-2" d="M496.93,280.89a8,8,0,0,1-.88-.76l-.55-.53c-.3-.33-.63-.66-.92-1-.6-.67-1.15-1.35-1.69-2l-1.53-2a19.65,19.65,0,0,0-1.45-1.68,10.39,10.39,0,0,0-1.45-1.28l-.2-.12h0l0-.07,0-.14c.06-.18.12-.31.16-.48l.1-.43c0-.12,0-.27,0-.34,0-.43-.17-.44.06-.27a1.52,1.52,0,0,0,.55.22,5,5,0,0,0,1,.18h.07v.18a3.47,3.47,0,0,0,.05.39q.08.47.21,1l.07.26.07.18a2,2,0,0,0,.15.39,9.46,9.46,0,0,0,.47,1c1,2,2.47,3.95,3.71,6,.88,1.54,3.77,5.84,3.6,8a4.24,4.24,0,0,1-.21,1.71,3.17,3.17,0,0,1-1,1.59,2.74,2.74,0,0,1-1.7.56,5.17,5.17,0,0,1-1.73-.28,12.93,12.93,0,0,1-3.92-2.37c-.33-.26-.66-.53-1-.81l-.48-.42-.24-.21-.16-.15L487,286c-1.54-1.53-3-3.1-4.47-4.67l-1.93-2.08-.47-.49-.23-.23-.1-.1,0,0h0l.14-.19c.05-.06.11-.15.15-.19a.43.43,0,0,0,.12,0,.8.8,0,0,0,.21-.15.62.62,0,0,0,.2-.42v-.17c.3,2.85.08.79.15,1.42h0a.37.37,0,0,1-.06-.14.6.6,0,0,0-.07-.2c-.2-.31-.16-.13.09-.09,0,0,.21.07.3.07h0s0,.08,0,.12a2.72,2.72,0,0,0,.11.43,7,7,0,0,0,.49,1.06,20.6,20.6,0,0,0,1.42,2.21c2.75,3.73,6.18,7.11,9.07,10.84.89,1.14.4,1.51-1.13,1.27a12.28,12.28,0,0,1-2.83-.93,11.86,11.86,0,0,1-3.16-2.3,47.43,47.43,0,0,1-5-5.81,26.13,26.13,0,0,1-2.19-3.47,9.21,9.21,0,0,1-.89-2.46,7.06,7.06,0,0,1-.1-1c0-.22,0-.44.07-.67s0-.21.06-.33.09-.27.14-.41a4.24,4.24,0,0,1,.41-.79,5.47,5.47,0,0,1,.66-.7,3.6,3.6,0,0,1,.7-.45,3.31,3.31,0,0,1,.67-.26l.58-.12.15,0h.15a2.88,2.88,0,0,1,.65,0,2.93,2.93,0,0,1,1.22.53l.11.09,0,0c.28.25.37.36.51.49l.67.71,1.26,1.37,2.47,2.68c.82.88,1.65,1.75,2.5,2.59l1.19,1.17a3.61,3.61,0,0,0,.28.37,3,3,0,0,0,1.14.89.53.53,0,0,0,.37,0,.41.41,0,0,0,.21-.26.9.9,0,0,0-.05-.68c-.1-.22-.21-.44-.33-.65l-.19-.32-.27-.43-2.25-3.59c-.88-1.44-1.77-2.87-2.59-4.48a11.56,11.56,0,0,1-1-2.76,10.13,10.13,0,0,1-.26-1.5,5.76,5.76,0,0,1,0-.94,3.19,3.19,0,0,1,.42-1.41,2.37,2.37,0,0,1,.86-.87,2.32,2.32,0,0,1,.6-.25,2.43,2.43,0,0,1,.55-.08,3,3,0,0,1,1.38.27,6.6,6.6,0,0,1,1.46.88,17.06,17.06,0,0,1,2,1.9c.61.65,1.2,1.35,1.72,2s1,1.29,1.53,1.91,1.28,1.49,2,2.17l.44.43a3.2,3.2,0,0,0,.27.25,3.93,3.93,0,0,0,.59.47,2,2,0,0,0,1.45.42,1.55,1.55,0,0,0,.69-.37,1,1,0,0,0,.26-.71,4.7,4.7,0,0,0-1-2.17,42.28,42.28,0,0,0-2.87-3.45l-1.57-1.72c-.27-.3-.53-.59-.82-.95a10.11,10.11,0,0,1-.74-1.1,21.85,21.85,0,0,1-1.17-2.19,14.74,14.74,0,0,1-.59-1.46,9.12,9.12,0,0,1-.41-1.55,5.34,5.34,0,0,1,0-2.29,2.7,2.7,0,0,1,1.36-1.74,5.43,5.43,0,0,1,4.57.15,15.8,15.8,0,0,1,2.14,1.23c.53.35,1,.71,1.51,1.06,1,.7,1.91,1.4,2.84,2a18.09,18.09,0,0,0,2.41,1.37,10.2,10.2,0,0,0,2.67.82,6.93,6.93,0,0,1,1.69.58c.29.12.65.19.91.32.43.22.5.74-.06,1.54a3.54,3.54,0,0,1-1.5,1.15A5.66,5.66,0,0,1,509,269a10.6,10.6,0,0,1-3.86-1.19,25.1,25.1,0,0,1-3.06-1.86c-.94-.65-1.81-1.31-2.66-1.92l-.62-.44-.31-.21-.2-.13c-.16-.1-.1,0-.14-.06h-.05a.1.1,0,0,0-.06.18h0l.1.19.31.63c.22.42.46.84.71,1.23l.28.42.42.48c1,1.13,2.26,2.4,3.4,3.74l.86,1,.42.54.21.28.12.15.18.25a13.51,13.51,0,0,1,2.16,4.14,5.51,5.51,0,0,1-.13,3.71,4.91,4.91,0,0,1-1.06,1.56,6.09,6.09,0,0,1-1.59,1.07,5.57,5.57,0,0,1-3.69.34,9.91,9.91,0,0,1-3.89-2.11Z"/><path class="cls-2" d="M27.43,244.54a54.08,54.08,0,0,1-4.49-5.61c-.5-.7-1.07-1.36-1.52-2.09a77.92,77.92,0,0,1-4.31-8c-.58-1.21-1.21-2.4-1.75-3.63a21.51,21.51,0,0,1-1-2.42,6.08,6.08,0,0,1-.34-2.87c.24-.91.8-.29,1.41.08a3.45,3.45,0,0,1,1.72,1.57c.57,1.43,1.35,2.88,2,4.37s1.4,3,2.1,4.55a34.13,34.13,0,0,0,3.35,5.18A59.83,59.83,0,0,0,28.8,241,33.87,33.87,0,0,0,31.73,244a18.58,18.58,0,0,0,5.12,3.38,10.5,10.5,0,0,0,5.27.48c1.14-.06,1.55,0,2.08.58.12.12.26.23.35.34.29.34,0,1.09-1.06,1.71a8.3,8.3,0,0,1-5.3.73,13.14,13.14,0,0,1-5-1.84,29.15,29.15,0,0,1-5.82-4.75Z"/><path class="cls-2" d="M271.4,132.26l-46.62-.35-17,0c-20-.15-40-.32-59.94-.37-8.87,0-17.78,0-26.58.16l-17,.26c-5.66.05-11.32.12-17,.06-3.53-.1-3.07-.51-.1-1.12a95,95,0,0,1,15-1.5c23.1-.44,46.17-.48,69.44-.18,13.92.18,28.41,0,42.65.1l47,.2,28.91.11c14.59,0,29.25.07,43.73,0,11.26-.09,22.29-.35,33.42-.59l7.32-.17c4.57-.09,7.59-.1,9.71,0a15.28,15.28,0,0,1,4.34.75,13.78,13.78,0,0,1,1.3.47c.45.26-.26.51-1.92.78a63.1,63.1,0,0,1-7.62.64c-19.9.75-40.89.95-62,1l-47.06-.11Z"/><g class="cls-3"><path class="cls-2" d="M271.76,397.88l-44.36.34-16.18.16-57,.1-25.28.11-16.16.07c-5.38,0-10.77,0-16.14-.23-3.36-.12-2.9-.59-.06-1.07a89.71,89.71,0,0,1,14.25-1l66,0c13.24,0,27-.23,40.56-.37l44.67-.5,27.5-.36c13.87-.22,27.82-.42,41.59-.77,10.7-.27,21.19-.7,31.77-1.12l7-.28c8.7-.32,11.48-.22,13.37.44a8.21,8.21,0,0,1,1.25.46c.86.53-2.68,1.1-9.06,1.44-18.91,1-38.87,1.5-58.91,1.91-14.88.28-29.83.48-44.75.69Z"/></g><path class="cls-2" d="M58,345.18l0-13.6-.08-5,0-17.49c0-2.58-.06-5.18-.14-7.75a65.46,65.46,0,0,1,.12-9.9c.11-1,.4-.9.84,0a16.78,16.78,0,0,1,.74,1.78,10.67,10.67,0,0,1,.49,2.57c.4,6.73.38,13.45.19,20.25-.12,4.06.06,8.28.09,12.43l.06,13.7,0,8.43c0,4.26.05,8.54.16,12.76.09,3.28.31,6.5.48,9.74l.11,2.13c.1,2.67-.2,3.53-.72,4.11a2.79,2.79,0,0,1-.34.39c-.19.13-.37-.08-.56-.56a8.44,8.44,0,0,1-.52-2.21c-.57-5.8-.72-11.92-.86-18.06-.06-4.56-.12-9.15-.18-13.72Z"/><path class="cls-2" d="M449.8,346.5l.28-12.88,0-4.69.43-16.57c0-2.44,0-4.91,0-7.34a70,70,0,0,1,.31-9.38c.09-1,.43-.84.82,0a12.82,12.82,0,0,1,.62,1.7c.1.35.2.74.29,1.15,0,.2.09.41.13.62l0,.67c.17,3.19.13,6.38.08,9.57s-.16,6.4-.32,9.62c-.19,3.85-.09,7.85-.16,11.79l-.22,13c0,2.66-.09,5.33-.14,8-.05,4-.13,8.08-.11,12.09,0,3.11.17,6.16.27,9.24l.07,2c0,2.53-.12,3.33-.76,3.86a2.24,2.24,0,0,1-.42.36c-.45.23-.9-.81-1-2.66-.4-5.51-.44-11.31-.43-17.13.05-4.32.09-8.66.13-13Z"/><path class="cls-2" d="M187,92.68c-.23,1.6-1.77,3.3-3.47,1.89-1.38-1.14.25-4.1,1.89-4C186.76,90.61,187.18,91.62,187,92.68Z"/><path class="cls-4" d="M132.61,110.39c-.23,1.6-1.77,3.3-3.47,1.89-1.38-1.14.25-4.1,1.88-4C132.34,108.32,132.75,109.33,132.61,110.39Z"/><path class="cls-2" d="M396,425.59c-.22,1.61-1.77,3.31-3.47,1.9-1.38-1.15.25-4.11,1.89-4A1.66,1.66,0,0,1,396,425.59Z"/><path class="cls-5" d="M211.27,105.63c-.14,1-1.12,2.09-2.19,1.2-.88-.72.15-2.6,1.19-2.55A1,1,0,0,1,211.27,105.63Z"/><path class="cls-5" d="M330.3,421.66c-.15,1-1.12,2.1-2.2,1.2-.88-.72.16-2.6,1.19-2.55A1.06,1.06,0,0,1,330.3,421.66Z"/><path class="cls-6" d="M351.56,427.92c-.14,1-1.12,2.1-2.2,1.2-.87-.72.16-2.6,1.2-2.55C351.39,426.61,351.65,427.25,351.56,427.92Z"/><path class="cls-5" d="M108.82,102c-.14,1-1.12,2.1-2.2,1.2-.87-.72.16-2.59,1.2-2.55A1.06,1.06,0,0,1,108.82,102Z"/><path class="cls-2" d="M270.73,400.22q-21.81.33-43.61.46l-15.9.17q-28,.07-56.07-.18l-24.86-.23-7.94-.08-7.94-.17c-5.3-.1-10.6-.32-15.87-.69-3.29-.22-2.82-.68,0-1.07a57.67,57.67,0,0,1,5.79-.49c2.39-.08,5.2-.11,8.24-.06,21.55.52,43.11.67,64.87.88,13,.11,26.55-.11,39.86-.25q21.94-.24,43.91-.59,13.5-.23,27-.52c13.63-.31,27.34-.65,40.87-1.14,10.52-.4,20.82-1,31.21-1.57l6.83-.39c8.54-.49,11.27-.45,13.15.18a8.75,8.75,0,0,1,1.24.43c.85.52-2.61,1.15-8.88,1.62-18.57,1.37-38.19,2.12-57.88,2.73-14.63.42-29.33.74-44,1Z"/><path class="cls-2" d="M284.4,156.08a48,48,0,0,1,5.24-5.88c.71-.64,1.36-1.35,2.11-1.95a36.21,36.21,0,0,1,8.62-5.24c1.39-.55,2.77-1.13,4.21-1.54a12.77,12.77,0,0,1,1.38-.38,9.7,9.7,0,0,1,1.4-.3l1.44-.12c.48,0,1,0,1.44,0s.51.49.06,1a5.43,5.43,0,0,1-2.24,1.32,40,40,0,0,0-5.12,1.5c-1.67.65-3.31,1.4-4.95,2.23a26.1,26.1,0,0,0-5.4,4,44.21,44.21,0,0,0-5.12,5.47,35.92,35.92,0,0,0-2.66,3.8,31.13,31.13,0,0,0-3.05,6.28,18.28,18.28,0,0,0-.93,5.14v1.11a6.37,6.37,0,0,1-.17,1.46,1.34,1.34,0,0,1-.48.75,4.2,4.2,0,0,1-.32.29c-.19.12-.39.05-.62-.2a3.21,3.21,0,0,1-.63-1.29,12.33,12.33,0,0,1,0-5.44,21.87,21.87,0,0,1,1.68-5.17,39.18,39.18,0,0,1,4.07-6.91Z"/><g class="cls-3"><path class="cls-2" d="M56.35,346.35l.13-13.15,0-4.79.23-16.9c0-2.5,0-5,0-7.49a60,60,0,0,1,.22-9.57c.13-1,.42-.86.84,0a16.44,16.44,0,0,1,.73,1.73,11,11,0,0,1,.46,2.48c.31,6.5.22,13,0,19.56-.16,3.93,0,8-.05,12l-.09,13.24,0,8.15c0,4.11,0,8.24,0,12.32,0,3.17.24,6.28.37,9.41l.09,2.07c.07,2.58-.23,3.4-.76,4a4.27,4.27,0,0,1-.35.37c-.19.13-.37-.07-.55-.54a7.36,7.36,0,0,1-.49-2.14c-.52-5.6-.6-11.51-.66-17.45l0-13.26Z"/></g><g class="cls-3"><path class="cls-2" d="M451.47,346.43l.49-12.11.08-4.42c.19-5.19.42-10.38.54-15.57.06-2.3.05-4.62,0-6.91,0-1.46,0-2.94,0-4.41s.19-2.94.29-4.41c.09-.92.43-.8.82,0a12.13,12.13,0,0,1,.63,1.6q.17.49.3,1.08l.13.59.05.62c.19,3,.14,6,.09,9s-.17,6-.35,9.05c-.21,3.62-.14,7.39-.25,11.09l-.42,12.22c-.1,2.5-.19,5-.29,7.51-.13,3.79-.31,7.6-.37,11.37-.06,2.93,0,5.8.07,8.69,0,.64,0,1.26,0,1.91,0,2.38-.17,3.13-.82,3.63a3.82,3.82,0,0,1-.43.33c-.45.22-.88-.76-1-2.51-.31-5.19-.21-10.65-.07-16.12q.19-6.11.4-12.22Z"/></g><g class="cls-3"><path class="cls-2" d="M272.29,134l-45.11-.56-16.44-.11c-19.33-.24-38.66-.5-58-.62-8.57,0-17.2,0-25.7.06l-16.42.23c-5.47,0-10.94.1-16.4,0-3.41-.11-3-.52-.1-1.13a90.67,90.67,0,0,1,14.48-1.48c22.35-.4,44.67-.34,67.18.05,13.46.23,27.47.17,41.24.28l45.44.42,28,.22c14.11.08,28.29.18,42.29.12,10.89-.06,21.57-.3,32.33-.53l7.07-.16c4.43-.08,7.35-.08,9.4,0a14.73,14.73,0,0,1,4.2.76,12,12,0,0,1,1.26.47c.43.26-.26.51-1.86.78a59.59,59.59,0,0,1-7.38.63c-19.24.74-39.55.89-59.93.84-15.14,0-30.34-.17-45.52-.28Z"/></g><polygon class="cls-7" points="300.74 325.64 301.26 371.71 310.95 371.71 310.95 325.64 300.74 325.64"/><polygon class="cls-2" points="319.21 335.37 319.74 371.44 329.42 371.44 329.42 335.37 319.21 335.37"/><polygon class="cls-1" points="336.54 349.37 337.06 371.44 346.75 371.44 346.75 349.37 336.54 349.37"/><path class="cls-2" d="M16,257.49a4.75,4.75,0,0,1-.58-3.2,9.46,9.46,0,0,1,1.51-3.77c1-1.57,2.61-3.38,3.78-5l.7-1a1.46,1.46,0,0,0,.17-.38.66.66,0,0,0-.1-.58c-.15-.16-.39-.1-.56-.07l-.32.08-.19.07c-.11.05-.16.06-.4.18-.76.37-1.55.79-2.37,1.21s-1.65.85-2.61,1.24a10,10,0,0,1-2,.6,3.79,3.79,0,0,1-2-.25A4.09,4.09,0,0,1,9,244.76a4.77,4.77,0,0,1-.44-2.64,9,9,0,0,1,.53-2.25,18.89,18.89,0,0,1,.77-1.77c.62-1.25,1.3-2.44,2-3.6s1.38-2.32,1.91-3.38a4,4,0,0,0,.08-3.5,1.25,1.25,0,0,0-.85-.69,3,3,0,0,0-1.58.23c-.77.32-1.34-.39-1-1.67a3.16,3.16,0,0,1,1.85-1.92,3.2,3.2,0,0,1,1-.24,5.49,5.49,0,0,1,.58,0c.2,0,.41.06.62.11a4.72,4.72,0,0,1,1.23.49,4.11,4.11,0,0,1,1,.87,6.6,6.6,0,0,1,1.48,3.86,8.2,8.2,0,0,1-.1,1.86,6.4,6.4,0,0,1-.2.89l-.12.44c-.06.16-.13.35-.2.49a13.74,13.74,0,0,1-.7,1.39l-.67,1.16L14.93,237a28,28,0,0,0-2.11,4.14c-.06.16-.12.32-.16.47s-.09.35-.1.28a.73.73,0,0,0-.09.22.57.57,0,0,0,.16.55,0,0,0,0,0,0,0,.5.5,0,0,0,.38.09.93.93,0,0,0,.22,0l.06,0,.14-.06a2.84,2.84,0,0,0,.32-.14,29.9,29.9,0,0,0,2.66-1.46l1.42-.82.37-.21.52-.28c.34-.19.79-.4,1.18-.58,1.64-.69,3.22-.95,4.53-.22,1.52.89,1.82,2.74,1.67,4.48a7.55,7.55,0,0,1-.83,2.62l-.34.63-.27.43c-.05.09-.08.12-.09.15l-.07.08-.12.16c-.56.73-1.36,1.48-2,2.49a2.77,2.77,0,0,0-.44,1.06,1.38,1.38,0,0,0,.27,1.08c.09.14.16.34.32.41a.53.53,0,0,0,.46,0,2.59,2.59,0,0,0,.8-.53c.76-.69,1.46-1.52,2.32-2.37l.32-.31c.2-.17.39-.36.64-.57a8.51,8.51,0,0,1,1.86-1.22,3.75,3.75,0,0,1,2-.35,2.73,2.73,0,0,1,1.75,1,5.63,5.63,0,0,1,.83,1.4c0,.14.14.24.14.4a3.26,3.26,0,0,1,.18.38,2.48,2.48,0,0,1,.16.81,5.66,5.66,0,0,1-.23,1.7c-.11.28-.19.58-.31.86l-.33.79c-.69,1.61-1.47,3.09-2.11,4.52-.14.31-.25.61-.35.89a3.52,3.52,0,0,0-.16.64v0h-.2l-.16,0a1.71,1.71,0,0,0-.62.05.57.57,0,0,0-.27.09s0,0,0,0a.43.43,0,0,0,.09-.26,1.78,1.78,0,0,0,.11-.52,2.17,2.17,0,0,0,0-.26.71.71,0,0,1,0-.15h.06c.17,0,.53,0,.8,0a2.37,2.37,0,0,1,1.5.49,6.62,6.62,0,0,1,.64.47c.29.3.26.72-.1,1.21a3.69,3.69,0,0,1-.8.76,4.39,4.39,0,0,1-1.64.71,3.7,3.7,0,0,1-.51.07,4.49,4.49,0,0,1-.73-.06,2.69,2.69,0,0,1-1-.47,2.6,2.6,0,0,1-.77-1,2.55,2.55,0,0,1-.18-.53c0-.14,0-.26-.06-.39s0-.26,0-.38l0-.27a5.23,5.23,0,0,1,.14-.94,17.25,17.25,0,0,1,.87-2.53c.31-.74.63-1.45.94-2.14s.62-1.4.83-1.94c0-.11-.08-.11-.11-.1s0,0,0,0,0,0,0,0l-.26.25-.89,1-2.17,2.43a26.63,26.63,0,0,1-2.1,2.13,10.94,10.94,0,0,1-.93.75,9.15,9.15,0,0,1-.83.52,4.41,4.41,0,0,1-2.42.58,3.73,3.73,0,0,1-1.19-.24,3,3,0,0,1-.81-.43,3,3,0,0,1-.38-.3.86.86,0,0,1-.32-.38,6.79,6.79,0,0,1-1.08-1.29Z"/></g></svg>