<svg xmlns="http://www.w3.org/2000/svg" width="520" height="520" viewBox="0 0 520 520"><defs><style>.cls-1{fill:#231f20;}</style></defs><title>Notioly New</title><g id="_146._Erasing" data-name="146. Erasing"><path class="cls-1" d="M149.21,179.59a3.53,3.53,0,0,1,.43-.28l.4-.25s0,0,.1.08a1.58,1.58,0,0,1,.24.3c0,.06.06.11.05.13a.39.39,0,0,1-.08.14l-.14.14c-.05,0-.11.05-.13.11s-.13.1-.16.19-.1.13-.14.2a2.41,2.41,0,0,1-.21.24s0,.07,0,.09-.08,0-.11.07l-.11.13-.18.17s0,0,0,.06a.25.25,0,0,1-.09,0l-.1.1v0a.14.14,0,0,1-.06.14l-.19.16-1,.66h0s-.05,0,0,.07,0,0,0,0,0,0,0,0,0,0,0,0-.14-.07-.11,0,0,0,0,0-.08,0-.07.12,0,0-.06,0,0,0,0,0,0,.06-.06.06-.06,0-.08.06l-.08.07-.1.07s0,0,0,.05-.05.06-.08.08,0,0-.06,0l-.23.14s0,.05-.08.06a.29.29,0,0,0-.17.07s-.09,0-.14,0l-.15,0c-.07,0-.29-.34-.28-.36a2.93,2.93,0,0,0,.22-.35,3.72,3.72,0,0,1,.24-.33l.21-.18.13-.15.14-.13a.32.32,0,0,0,.08-.14h0s0,0,0,0v0s0,0,0,0a.07.07,0,0,0,.1,0h0c0-.07,0-.18.13-.18s0,0,0-.05,0,0,0,0,.05-.07.09-.09.05-.07.1-.08.05-.08.08-.1a2.28,2.28,0,0,0,.22-.22l.1-.07.22-.21.25-.26C148.29,180.14,149.17,179.65,149.21,179.59Z"/><path class="cls-1" d="M150.87,182.84a5.14,5.14,0,0,1,.6-.3l.55-.25s0,0,.08.05a.8.8,0,0,1,.12.22.16.16,0,0,1,0,.1.93.93,0,0,1-.14.14l-.21.13a.71.71,0,0,0-.18.12c-.06.09-.18.11-.24.2s-.15.13-.22.21l-.3.26a.73.73,0,0,1-.08.09,1,1,0,0,1-.13.09,1.06,1.06,0,0,0-.15.15l-.24.2s0,.06-.06.07a.53.53,0,0,1-.1.06.74.74,0,0,0-.13.12s0,0,0,0a.19.19,0,0,1-.1.15l-.23.2c-.06,0-1.18.86-1.2.91h0s-.06,0,0,.07,0,0,0,0,0,0,0,0,0,0,0,0-.14,0-.11,0,0,0,0,0-.09.06-.08.15-.05,0-.08,0h0c0,.05,0,.07-.06.08s-.06.06-.09.09l-.08.1a.63.63,0,0,0-.11.12s0,0,0,.05a1.25,1.25,0,0,1-.08.12s0,0-.06,0l-.25.23s-.05.08-.09.1a.32.32,0,0,0-.16.14s-.09.06-.14.09l-.15.1c-.09,0-.51-.46-.49-.47s.51-.8.59-.85l.26-.25.16-.19a1.45,1.45,0,0,0,.19-.17,1,1,0,0,0,.1-.17l0,0,0,0,0,0v0s0,0,0,0,.09,0,.12-.06l0,0c0-.09.08-.2.18-.23s0,0,0,0,0,0,0,0,.06-.09.11-.12.07-.08.12-.1.07-.09.12-.12l.29-.28.13-.1.3-.25c.12-.1.23-.21.36-.3S150.8,182.88,150.87,182.84Z"/><path class="cls-1" d="M149,188.65l.39-.33.36-.3s0,0,.08,0a.66.66,0,0,1,.19.18s.05.08,0,.09a.61.61,0,0,1-.07.14l-.14.15s-.09.06-.11.12-.12.12-.15.2-.1.13-.14.2a2.43,2.43,0,0,1-.2.25s0,.07-.05.09l-.1.08-.1.14-.18.18s0,0,0,.06-.06,0-.08.06l-.1.1v0a.2.2,0,0,1-.08.13l-.18.17c0,.05-1,.72-1,.73h0s0,0,0,.06,0,0,0,0,0,0,0,0,0,0,0,0-.11,0-.1,0,0,0,0,0-.07,0-.08.11,0,0-.06,0,0,0,0,0,0,0-.06,0-.06,0-.09.07l-.07.06-.12.08s0,0,0,0l-.09.08a.07.07,0,0,1-.06,0l-.24.14s-.06.05-.1.06a.31.31,0,0,0-.15.08s-.09,0-.13,0l-.14,0c-.08,0-.26-.47-.24-.48a5.37,5.37,0,0,0,.6-.49l.23-.14.15-.12.16-.1.09-.12,0,0h0l0,0v0h0a.1.1,0,0,0,.1,0s0,0,0,0,.06-.14.14-.16,0,0,0,0l0,0c.06,0,.05-.06.08-.08s.06-.07.1-.08.05-.07.09-.09l.21-.21.09-.08.21-.2.25-.26C148.19,189.31,149,188.71,149,188.65Z"/><path class="cls-1" d="M143.63,203.3a1.43,1.43,0,0,1,.21-.11l0,0,.14.13,0,.06s0,0,0,0,0,0,0,0,0,0,0,0,0,0,0,.06,0,0,0,.06l0,.06s0,0,0,0,0,0,0,0a.06.06,0,0,0,0,0l0,0s0,0,0,0h0l0,0h0s0,0,0,0l0,0-.26.14h0s0,0,0,0h0s0,0,0,0-.06,0,0,0h0s0,0,0,0h0s0,0,0,0,0,0,0,0l0,0a0,0,0,0,0,0,0h0a0,0,0,0,1,0,0h0l-.05,0s0,0,0,0,0,0,0,0h-.07a2.34,2.34,0,0,1-.22-.23A1.42,1.42,0,0,1,143,204l0,0,0,0s0,0,0,0a.06.06,0,0,0,0,0h0s0,0,0,0h0s0-.06,0-.05,0,0,0,0,0,0,0,0,0,0,0,0,0,0,0,0,0,0,0,0,0,0,0-.06h0l0-.06,0-.07S143.63,203.32,143.63,203.3Z"/><path class="cls-1" d="M145,210.38a1.44,1.44,0,0,1,.33-.08s0,0,.08.09a3.72,3.72,0,0,1,.22.31l.07.11a.26.26,0,0,1,0,.07s0,0,0,0,0,0,0,0,0,0,0,.07,0,0,0,.08,0,.05,0,.08,0,0,0,0h0s0,0,0,0l0,0s0,0,0,0h0l0,0h0c0,.05,0,.06,0,.06l0,0a2.24,2.24,0,0,0-.27.13h0s0,0,0,0,0,0,0,0l0,0s0,0,0,0-.13-.06-.06,0h0s0,0,0,.05,0,0,0,0h0s0,0,0,0,0,0,0,0,0,0,0,0,0,0,0,0l0,0v0h0a.15.15,0,0,0-.06,0s0,0,0,0,0,0,0,0,0,0-.06,0H145s-.65-.23-.65-.23-.06-.27-.05-.29l.05-.08s0,0,0-.06l0,0a.21.21,0,0,0,0-.07h0v0h0c.05,0,.05,0,.05,0h0s-.06-.09,0-.08,0,0,0,0,0,0,0,0,0,0,0,0,0,0,0,0,0,0,0,0a1,1,0,0,0,0-.1l0,0,.05-.09.06-.11A4,4,0,0,1,145,210.38Z"/><path class="cls-1" d="M148.92,212.88s.6-.5.6-.5,0,0,.06,0a.46.46,0,0,1,.12.12.21.21,0,0,1,0,.06l-.06.11-.09.11s-.07.06-.08.1-.08.09-.1.16a.53.53,0,0,1-.08.17l-.11.21s0,.05,0,.07l-.06.08-.05.12-.09.16s0,0,0,.06l-.05,0a.31.31,0,0,0,0,.1h0a.15.15,0,0,1,0,.12,1.4,1.4,0,0,0-.1.16s-.59.71-.61.74h0s0,0,0,0,0,0,0,0,0,0,0,0,0,0,0,0-.12,0-.08,0,0,0,0,0-.05,0,0,.11,0,0-.05,0,0,0,0,0,0,0,0,0,0,.05-.05.07l0,.07-.08.08a.06.06,0,0,1,0,0s0,.06-.05.08l0,0-.19.13s0,.05-.07.06a.2.2,0,0,0-.12.08s-.07,0-.11,0l-.12,0c-.07,0-.3-.38-.3-.4a4.26,4.26,0,0,0,.32-.5l.13-.15.09-.11.1-.1s0-.08,0-.12h0a0,0,0,0,1,0,0h0v0c.06,0,.07,0,.08,0h0c0-.06,0-.14.07-.15s0,0,0,0,0,0,0,0,0-.06,0-.08,0-.05.06-.07,0-.06.05-.08l.13-.2.06-.07.13-.19.17-.22Z"/><path class="cls-1" d="M150.68,217.58a5,5,0,0,1,.58-.32s0,0,.11.09a2.12,2.12,0,0,1,.3.3.66.66,0,0,1,.09.12.21.21,0,0,1,0,.12.39.39,0,0,1-.08.1s-.08,0-.08.08-.08.07-.07.16-.05.1-.07.15a.85.85,0,0,1-.1.19s0,.06,0,.08l-.07,0s0,.07-.05.1l-.1.13s0,0,0,.05l-.07,0-.06.07,0,0c0,.08,0,.1,0,.12a.52.52,0,0,0-.1.11s-.62.42-.62.44h0s0,0,0,.06,0,0,0,0,0,0,0,0,0,0,0,0-.16-.08-.09,0,0,0,0,0-.06,0,0,.1,0,0-.06,0h0c0,.05,0,.06,0,.05s0,0,0,0,0,0,0,.06,0,0,0,.06v0s0,.05,0,.07,0,0,0,0a.4.4,0,0,0-.12.1s0,0,0,.05-.08,0-.08.07-.07,0-.1,0l-.11,0a1.71,1.71,0,0,1-.39-.21c-.18-.11-.35-.24-.35-.24a3.06,3.06,0,0,1,.11-.59l.13-.15s0-.08.07-.12a.81.81,0,0,0,.1-.09.57.57,0,0,0,0-.13h0v0s0,0,0,0,.08,0,.08,0h0c0-.07,0-.16.05-.15s0,0,0,0,0,0,0,0,0-.06,0-.07,0-.06.06-.06,0-.07.05-.08.1-.14.13-.17l.06-.05.14-.15.15-.2S150.66,217.62,150.68,217.58Z"/><path class="cls-1" d="M152.59,222.34a3.65,3.65,0,0,1,.29-.29l.27-.26s0,0,.12,0a2.43,2.43,0,0,1,.29.19c.05,0,.09.08.09.1a.32.32,0,0,1,0,.14,1,1,0,0,1-.08.14s-.08.06-.07.12-.08.11-.08.19-.05.13-.06.2a1.75,1.75,0,0,1-.11.24s0,.07,0,.09-.06,0-.08.08,0,.09-.06.13l-.1.18s0,.05,0,.06-.05,0-.06.05a.36.36,0,0,0-.07.1v0a.1.1,0,0,1,0,.13,1,1,0,0,0-.12.17c0,.05-.69.67-.7.7h0s-.05,0,0,.06,0,0,0,0,0,0,0,0,0,0,0,0-.16-.07-.1,0,0,0,0,0-.07,0,0,.11,0,0-.07,0h0c0,.05,0,.06,0,.06s0,0,0,.06a.25.25,0,0,0,0,.07s-.06,0-.07.08,0,0,0,0a.47.47,0,0,0,0,.09s0,0,0,0l-.16.15s0,0-.05.06a.14.14,0,0,0-.1.1s-.07,0-.11,0L151,226a2.56,2.56,0,0,1-.63-.48s.2-.59.24-.63l.15-.18.08-.13c0-.05.07-.08.1-.13a.59.59,0,0,0,0-.14h0v-.06s0,0,0,0,.08,0,.09,0h0c0-.07,0-.17.08-.17s0,0,0,0,0,0,0,0,0-.07.05-.08,0-.07.07-.08,0-.07.06-.09.11-.17.14-.2l.07-.07.14-.19.17-.24C151.91,222.89,152.57,222.4,152.59,222.34Z"/><path class="cls-1" d="M146.08,185.25c0-.05,0-.7,0-.7a.65.65,0,0,1,.16-.09,3.2,3.2,0,0,1,.49-.17.43.43,0,0,1,.18,0,.27.27,0,0,1,.12.09.59.59,0,0,1,.06.14s0,.1,0,.12,0,.13.12.17.08.11.13.16a2.39,2.39,0,0,1,.13.21s.06,0,.07.07,0,.07,0,.1l.07.11.07.18s0,0,0,.05,0,0,0,.07a.29.29,0,0,0,0,.1h0c.1,0,.11,0,.11.08s0,.11,0,.17,0,.85,0,.87h0s0,0,.07,0,0,0,0,0,0,0,0,0,0,0,0,0-.19.1-.07.08,0,0,0,0,0,.06.1.06,0,0,0,.05,0,0,0,0,.06,0,0,0,0,0,0,.06l0,.06s0,.06,0,.08h.05s.05,0,.07.05,0,0,0,0l0,.18s0,0,0,.05,0,.09,0,.1,0,.07,0,.1a.5.5,0,0,0,0,.12,6,6,0,0,1-1,.53s-.46-.43-.47-.5l-.06-.22a.54.54,0,0,0-.07-.13c0-.05,0-.11,0-.16a.53.53,0,0,0-.11-.09v0s0,0,0,0l0,0h0c.07-.05.05-.07,0-.09s0,0,0,0-.18-.07-.11-.15,0,0,0,0,0,0,0,0,0-.06,0-.09,0-.06,0-.1-.05,0,0-.09a1,1,0,0,0-.09-.22s0-.07,0-.1l-.06-.21-.09-.25C146,186,146.11,185.29,146.08,185.25Z"/><path class="cls-1" d="M148,182a2.45,2.45,0,0,1,0-.52V181s0,0,.14-.06a1.6,1.6,0,0,1,.41-.07h.15a.55.55,0,0,1,.09.14,1.33,1.33,0,0,1,.05.19c0,.05,0,.11,0,.16s0,.16.11.23.06.14.11.21a2.52,2.52,0,0,1,.12.29s.05,0,.06.09,0,.08,0,.13a1,1,0,0,0,.07.15l.07.23s0,0,0,.07,0,.07,0,.1a.65.65,0,0,0,0,.13h0a.13.13,0,0,1,.1.12,2.1,2.1,0,0,0,.06.24s.06,1.19.06,1.22v0s0,0,.06,0,0,0,0,0,0,0,0,0,0,0,0,0-.17.09-.06.1,0,0,0,0,0,.09.09.12,0,0,0,.06,0,0,0,0,.06,0,0,.08,0,.07,0,.1l0,.1s0,.09,0,.13,0,0,0,0,0,.08.05.12,0,0,0,.06v.28s0,.07,0,.1a.17.17,0,0,0,0,.18s0,.09-.05.13a.88.88,0,0,0-.05.15,1.31,1.31,0,0,1-.54.06,4.78,4.78,0,0,1-.51,0c0-.06-.25-.67-.25-.74a2.44,2.44,0,0,0,0-.27,1.16,1.16,0,0,0,0-.18,1.09,1.09,0,0,0,0-.18s-.06-.09-.09-.14v0a0,0,0,0,0,0,0l0,0h0s0,0,0,0,.05-.07,0-.1,0,0,0,0-.15-.12-.09-.21,0,0,0,0,0,0,0,0,0-.08,0-.12,0-.07,0-.12,0-.07,0-.12-.06-.23-.07-.29l0-.12-.06-.28-.09-.34C148,183.06,148.06,182,148,182Z"/><path class="cls-1" d="M143.52,209.21c0-.07-.39-1-.41-1s0,0,.07-.09a1,1,0,0,1,.29-.19c.05,0,.1-.05.12,0l.14.11a1.27,1.27,0,0,1,.13.19c0,.05,0,.11.1.15s.1.16.19.21a.88.88,0,0,1,.18.21,1.93,1.93,0,0,1,.22.28s.07,0,.09.08a1.21,1.21,0,0,0,.05.14s.08.09.11.15l.14.24s.05,0,.06.06,0,.07,0,.1l.07.14h0a.15.15,0,0,1,.12.11c0,.08.08.16.13.24s.4,1.24.42,1.26h0s0,.06.07,0,0,0,0,0,0,0,0,0,0,0,0,0-.13.12,0,.11,0,0,0,0,0,.1.11.1,0,.05,0,.07,0,0,0,0,.06,0,0,.06,0,.07.05.11l.06.09s0,.09.06.12l0,0s.07.06.09.09,0,.05,0,.07l.09.27s.06.05.06.09a.18.18,0,0,0,.07.17s0,.09,0,.14l0,.16c0,.08-.81.43-.82.41s-.51-.64-.54-.72l-.11-.29a1.62,1.62,0,0,0-.1-.18,1.19,1.19,0,0,0-.08-.2c0-.05-.08-.09-.12-.13v0a0,0,0,0,0,0,0l0,0h0s0,0,0,0,0-.09,0-.11,0,0,0,0-.17-.1-.14-.2,0,0,0,0,0,0,0,0-.05-.08-.06-.12-.05-.08-.05-.13-.06-.08-.07-.12a2.79,2.79,0,0,0-.15-.3l0-.13-.13-.28-.18-.35C143.85,210.3,143.58,209.26,143.52,209.21Z"/><path class="cls-1" d="M147.34,211.63l-.33-.82-.19-.51-.09-.24s0,0,0-.07a.14.14,0,0,1,.12-.07s.07,0,.08,0l.16.21c.06.1.12.2.17.3s.08.17.14.25.13.25.23.37a4,4,0,0,1,.22.34l.29.46.1.14.09.2.16.25.21.37a.87.87,0,0,0,.08.1l.06.16.12.21s0,0,0,0a.38.38,0,0,1,.16.19l.2.37s.24.51.43,1,.35.92.37,1v0s0,.07.07.07,0,0,0,0,0,0,0,0,0,0,0,0-.09.15,0,.16,0,0,0,.05,0,.14.13.18,0,.07,0,.1,0,0,0,0a.09.09,0,0,1,.06.11c0,.07.05.12.07.17l.08.16a1.31,1.31,0,0,0,.08.21l0,.06c0,.06.07.12.09.18s0,.07,0,.1l.12.45a1.22,1.22,0,0,1,.07.17.7.7,0,0,0,.08.29c0,.06,0,.15,0,.22l0,.25c0,.13-.64.22-.65.18s-.58-1.09-.63-1.2l-.18-.44-.13-.3c0-.1-.07-.21-.12-.31a1.42,1.42,0,0,0-.14-.23,0,0,0,0,1,0,0,.11.11,0,0,1,0-.05l-.05-.06v0h0a.17.17,0,0,0,0-.17s0,0,0,0-.19-.19-.19-.33,0,0,0-.06,0,0,0,0-.07-.12-.09-.19a1.67,1.67,0,0,1-.08-.2c0-.08-.08-.13-.1-.2s-.17-.39-.21-.48l-.07-.2-.2-.46-.25-.57C148,213.36,147.41,211.73,147.34,211.63Z"/><path class="cls-1" d="M151.93,218a1.84,1.84,0,0,1-.11-.46c0-.21-.09-.42-.09-.42s.05-.05.16-.12a4.8,4.8,0,0,1,.52-.25.71.71,0,0,1,.19-.06.37.37,0,0,1,.14.08.51.51,0,0,1,.09.16s0,.1.08.12.06.14.16.17.11.1.18.15a1.24,1.24,0,0,1,.19.21s.08,0,.1.06,0,.08,0,.12.08.07.11.11l.12.19s.06,0,.06,0,0,.07,0,.1a.6.6,0,0,0,.06.11h0c.1,0,.12,0,.14.07a.75.75,0,0,0,.1.2c0,.05.26,1.07.28,1.1h0s0,0,.09,0,0,0,0,0,0,0,0,0,0,0,0,0-.19.15,0,.12,0,0,0,0,0,.09.12.07,0,0,0,.08,0,0,0,0,.08,0,.05.06,0,.06,0,.09a.18.18,0,0,1,.05.07s0,.08,0,.11l.06,0s.06.05.08.08,0,0,0,.06l0,.26s0,.05,0,.09,0,.12,0,.16,0,.09,0,.14a.77.77,0,0,0,0,.15,2.1,2.1,0,0,1-.56.23l-.56.16c0-.05-.47-.49-.49-.54a2.17,2.17,0,0,0-.07-.24,1.1,1.1,0,0,0-.09-.14,1,1,0,0,0,0-.16s-.09-.06-.13-.09,0,0,0,0,0,0,0,0l0,0h0c.07-.06,0-.08,0-.1a0,0,0,0,1,0,0c-.08,0-.21-.05-.15-.15s0,0-.05,0-.05,0,0,0-.06-.06-.06-.1-.06,0,0-.1-.07-.05-.07-.09a2.22,2.22,0,0,0-.15-.23s0-.07,0-.1l-.12-.23-.18-.27C152.08,219,152,218.08,151.93,218Z"/><path class="cls-1" d="M150.87,226c0-.08-.45-1-.48-1s0-.05.07-.1a1,1,0,0,1,.26-.2.38.38,0,0,1,.12,0l.16.12.15.2c0,.06,0,.13.12.17s.11.17.2.23.13.15.2.23a2.34,2.34,0,0,1,.24.31l.09.09c0,.05,0,.11.06.15a1,1,0,0,0,.12.17l.15.27s0,.05.06.07,0,.09,0,.12a.8.8,0,0,0,.08.16h0a.17.17,0,0,1,.13.13l.12.27c0,.07.39,1.38.41,1.41h0s0,.05.07,0,0,0,0,0,0,0,0,0,0,0,0,0-.13.12,0,.12,0,0,0,0,0,.1.12.12,0,0,0,.07,0,0,0,0,.07,0,.05.08,0,.08,0,.12a.93.93,0,0,1,.05.1.58.58,0,0,0,.05.14s0,0,0,0,.06.07.08.11,0,0,0,.07,0,.21.08.31.05.06.05.11a.22.22,0,0,0,.06.18s0,.11,0,.16v.17c0,.09-.85.37-.85.34s-.51-.74-.53-.83l-.1-.32-.09-.21c0-.07,0-.15-.07-.22s-.08-.1-.12-.15v-.07s0,0,0,0h0s0,0,0,0a.09.09,0,0,0,0-.13s0,0,0,0-.16-.12-.13-.23,0,0,0,0,0,0,0,0,0-.08,0-.13-.05-.09,0-.14-.06-.09-.07-.14a3,3,0,0,0-.14-.33l0-.14-.12-.32-.18-.38A9.42,9.42,0,0,0,150.87,226Z"/><path class="cls-1" d="M155.3,236.1a2.34,2.34,0,0,1-.18-.35l.08-.09.25-.25.09-.08s.07,0,.08,0,0,0,.06,0,0,.05,0,0,0,.06.1,0,.06,0,.1,0l.11,0h.05s0,0,0,0l.07,0,.07.06h0v0l.05,0h0c.06,0,.07,0,.08,0l.07.06s.21.41.22.43h0s0,0,0,0,0,0,0,0,0,0,0,0,0,0,0,0-.08.11,0,.07,0,0,0,0,0,0,.06,0,0,0,0,0,0,0,0,0,0,0,0,0,0,0,0,0l0,0s0,0,0,0a0,0,0,0,0,0,0l.05,0s0,0,0,0l0,.1s0,0,0,0,0,.05,0,.05,0,0,0,.07v.06a3.17,3.17,0,0,1-.41.41s-.29-.1-.31-.12l-.07-.08-.07,0s0,0-.05,0h-.08v0h0s0,0,0-.05h0c-.05,0-.11,0-.1,0s0,0,0,0h0c0-.06,0,0,0,0s0,0,0,0,0,0,0,0-.08-.05-.1-.07l0,0-.09-.07-.11-.08S155.33,236.11,155.3,236.1Z"/><path class="cls-1" d="M147,190.39a4.55,4.55,0,0,1-.07-.45s0,0,.07-.05a1.15,1.15,0,0,1,.23-.1l.08,0a.13.13,0,0,1,.07,0l.05.09s0,.05,0,.07,0,.07.08.1.05.06.08.09a.54.54,0,0,1,.09.12l0,0s0,.05,0,.07l0,.06.05.11s0,0,0,0,0,0,0,0,0,0,0,.06h0c.05,0,.06,0,.06.05l.05.1s.1.54.12.55h0s0,0,0,0,0,0,0,0h0s0,0,0,0-.1.06,0,.05,0,0,0,0,0,0,.06,0,0,0,0,0,0,0,0,0,0,0,0,0,0,0,0,0,0,0,0,0,0,0,0,0,0,0,0,0,0,0,0,0v0s0,.08,0,.12,0,0,0,0,0,.06,0,.08,0,0,0,.06v.08a2.21,2.21,0,0,1-.48.25s-.28-.25-.3-.29l0-.12-.06-.08,0-.08s-.05,0-.07-.06h0l0,0h0s0-.05,0-.06h0s-.1,0-.07-.09,0,0,0,0,0,0,0,0,0,0,0-.05,0,0,0-.06,0,0,0,0-.06-.11-.07-.14v-.06l0-.13L147,191S147,190.42,147,190.39Z"/><path class="cls-1" d="M144.17,211.25s-.47.15-.47.17-.06,0-.14-.12a4.53,4.53,0,0,1-.38-.38.7.7,0,0,1-.12-.14.18.18,0,0,1,0-.13.34.34,0,0,1,.08-.09s.08,0,.07-.07.08-.06.07-.15.05-.09.06-.15a1.11,1.11,0,0,1,.11-.16s0-.07,0-.08.06,0,.08,0,0-.06.06-.09l.1-.1s0,0,0-.05h.07l.06-.05v0c0-.09,0-.11,0-.12s.08-.05.12-.07.65-.16.65-.18h0s0,0,0-.07,0,0,0,0,0,0,0,0,0,0,0,0,.14.15.09.05,0,0,0,0,.05,0,0-.08,0,0,0,0h0c0-.06,0-.06,0,0s0,0,0,0l0,0s.05,0,.06,0v0s0,0,0-.06h0l.13,0s0,0,0,0,.09,0,.1,0,.06,0,.1,0h.1a3.59,3.59,0,0,1,.29.29c.13.14.25.3.25.3s-.14.49-.19.5l-.14.1-.07.09s-.07,0-.09.06,0,.08,0,.12h0a.06.06,0,0,1,0,0h0s0,0,0,0-.07,0-.08,0,0,0,0,0,0,.17-.07.13,0,0,0,0,0,0,0,0,0,0-.05,0,0,.05-.06,0,0,0-.05.06-.09.09-.12.12l-.06,0-.12.1-.13.13S144.18,211.21,144.17,211.25Z"/><path class="cls-1" d="M154.42,216.26l-.24-.43s0,0,0,0a.63.63,0,0,1,.13-.11l.06,0a.18.18,0,0,1,.07.05l.07.08s0,.05.05.06,0,.07.09.09.06.06.09.09a1.31,1.31,0,0,1,.11.12l0,0,0,.06.06.06.07.11s0,0,0,0l0,0,0,.06h0a.06.06,0,0,1,.06,0l.07.11s.23.56.24.58h0s0,0,0,0,0,0,0,0h0s-.05.05,0,.05h0s0,.05,0,.05,0,0,0,0v0s0,0,0,0,0,0,0,.05l0,0s0,0,0,.06l0,0,0,0s0,0,0,0l0,.13s0,0,0,.05a.11.11,0,0,0,0,.08s0,.05,0,.07v.07s-.31.14-.32.13a3.15,3.15,0,0,0-.22-.33l0-.13-.05-.08a.36.36,0,0,0,0-.09.12.12,0,0,0-.05-.05h0v0h0a0,0,0,0,0,0-.05h0s-.08-.05-.07-.09,0,0,0,0,0,0,0,0,0,0,0,0,0,0,0-.06,0,0,0-.05a1.48,1.48,0,0,1-.08-.13l0-.05-.08-.12-.1-.15S154.45,216.28,154.42,216.26Z"/><path class="cls-1" d="M151.46,214.78s-.64.35-.64.37l-.13-.09a2.05,2.05,0,0,1-.33-.33.88.88,0,0,1-.1-.13.29.29,0,0,1,0-.14.63.63,0,0,1,.11-.12s.09,0,.09-.1.11-.09.12-.18.07-.12.1-.19a1.66,1.66,0,0,1,.16-.21s0-.07,0-.09.08,0,.1,0,.06-.08.09-.11l.15-.14s0-.05,0-.06l.09,0,.09-.08v0c0-.09,0-.11.05-.13l.17-.12s.93-.37,1-.38h0s0,0,0-.07,0,0,0,0,0,0,0,0,0,0,0,0,.13.13.1,0,0,0,0,0,.08,0,.06-.11,0,0,.07,0,0,0,0,0,0-.05,0,0,.06,0,.09,0l.07,0s.08,0,.1,0,0,0,0,0,.05,0,.08-.06,0,0,.06,0l.23,0s.06,0,.09,0a.19.19,0,0,0,.15,0s.08,0,.12,0h.13c.07,0,.23.57.22.58s-.39.45-.44.48l-.18.1-.11.11s-.09,0-.12.07a.47.47,0,0,0-.07.12h0s0,0,0,0h0s0,0,0,0-.07,0-.09,0h0c0,.06,0,.17-.11.13s0,0,0,0,0,0,0,0,0,0-.07.06,0,0-.08,0,0,.06-.07.07a2.09,2.09,0,0,0-.17.14l-.09,0-.17.13-.2.18A7.27,7.27,0,0,0,151.46,214.78Z"/><path class="cls-1" d="M153.51,224.55c0-.05-.38-.68-.4-.68s0,0,0-.07a.87.87,0,0,1,.15-.13l.08,0,.11.08.11.13s0,.08.08.11.09.12.15.16.09.1.14.14.11.14.17.21l.07.06,0,.1.09.11.12.18,0,0s0,.05,0,.07l.07.11h0a.16.16,0,0,1,.09.09l.1.18s.36.92.38.94h0s0,0,.05,0,0,0,0,0,0,0,0,0,0,0,0,0-.07.08,0,.08,0,0,0,0,0,.07.08.09,0,0,0,.05h0s0,0,0,.06,0,.05,0,.08l0,.06s0,.07.05.1l0,0,.06.07s0,0,0,0l.08.21a.43.43,0,0,1,0,.07.21.21,0,0,0,.05.13s0,.07,0,.1l0,.12c0,.06-.48.24-.48.22s-.35-.49-.37-.55l-.09-.22-.07-.14a.84.84,0,0,1-.06-.14.43.43,0,0,0-.09-.1v0a0,0,0,0,0,0,0l0,0v0h0s0-.06,0-.08v0c-.05-.05-.12-.08-.11-.15s0,0,0,0,0,0,0,0,0-.06-.05-.09,0-.06,0-.1,0-.05-.05-.09l-.12-.22,0-.09-.11-.21-.15-.26C153.84,225.34,153.55,224.59,153.51,224.55Z"/><path class="cls-1" d="M145.08,198s-.66.43-.66.43,0,0-.1-.07a1.41,1.41,0,0,1-.24-.25.41.41,0,0,1-.06-.1.5.5,0,0,1,0-.13s.08-.07.11-.11.08,0,.09-.1.1-.08.12-.17.07-.11.1-.17a1.49,1.49,0,0,1,.15-.2s0-.07,0-.08.07,0,.09-.06l.08-.12.13-.14s0-.05,0-.06.06,0,.08,0l.08-.09v0a.11.11,0,0,1,0-.12l.14-.14s.83-.51.85-.53h0s0,0,0-.06,0,0,0,0,0,0,0,0,0,0,0,0,.13.08.1,0,0,0,0,0,.07,0,0-.11,0,0,.06,0h0c0-.05,0-.06,0-.05s.05,0,.07-.06l.06-.06.09-.06a.06.06,0,0,1,0,0l.06-.09h0l.2-.1s0,0,.08,0a.13.13,0,0,0,.13-.06s.08,0,.12,0l.13,0s.13.16.21.32a1.9,1.9,0,0,1,.16.33s-.37.45-.42.48l-.18.1-.11.1s-.1,0-.13.08,0,.07-.06.11h0s0,0,0,0h0s0,0,0,0-.07,0-.08,0h0c0,.07,0,.16-.11.15s0,0,0,0,0,0,0,0,0,0-.07.06,0,.06-.08.06,0,.06-.07.08-.13.13-.17.16l-.07.06-.17.15-.2.21C145.82,197.59,145.11,198,145.08,198Z"/><path class="cls-1" d="M146.13,203.56s-.14.07-.14.07l-.05,0-.13-.14,0,0a0,0,0,0,1,0,0l0,0h0s0,0,0-.05,0,0,0,0,0,0,0-.05,0,0,0,0h0s0,0,0,0l0,0v0h0l0,0h0s0,0,0,0l0,0,.18-.08h0s0,0,0,0h0s0,0,0,0,0,0,0,0h0s0,0,0,0h0s0,0,0,0,0,0,0,0h0l0,0h0v0h0l0,0h0s0,0,0,0h.05a2.28,2.28,0,0,1,.22.22s0,.12,0,.13l0,0a0,0,0,0,1,0,0s0,0,0,0,0,0,0,0h0s0,0,0,0h0s0,0,0,0,0,0,0,0h0s0,0,0,0h0s0,0,0,0l0,0h0l0,0,0,.05Z"/><path class="cls-1" d="M144.77,199.11c-.05-.12-.71-1.48-.75-1.48s0-.06,0-.11a.46.46,0,0,1,.23-.17c.05,0,.1,0,.12,0a1.8,1.8,0,0,1,.2.19,3,3,0,0,1,.22.28,1.31,1.31,0,0,0,.17.24c.13.09.16.25.28.35a1.7,1.7,0,0,1,.27.33c.12.14.22.3.33.45a1.49,1.49,0,0,1,.12.14c0,.06.06.14.1.21l.17.24.22.39a.87.87,0,0,1,.08.1,1,1,0,0,1,.05.16l.12.23h0a.31.31,0,0,1,.16.2l.19.39c.06.1.64,2,.65,2v0s0,.07.08.06,0,0,0,0,0,0,0,0,0,0,0,0-.13.15,0,.17,0,0,0,.05,0,.15.14.19,0,.07,0,.1,0,0,0,0a.1.1,0,0,1,.06.12c0,.08,0,.12.06.18l.07.16a1,1,0,0,0,.08.22l.05.06.09.18s0,.08,0,.11l.08.47c0,.06.06.11,0,.18a.58.58,0,0,0,.06.29c0,.07,0,.15,0,.23v.26c0,.13-.88.23-.88.19s-.54-1.13-.58-1.24l-.13-.46-.11-.31c0-.11-.05-.22-.09-.32s-.1-.16-.14-.23a.06.06,0,0,1,0,0,.09.09,0,0,0,0,0l0-.06,0,0s0,0,0,0a.13.13,0,0,0,0-.18s0,0,0,0-.2-.19-.18-.34,0-.05-.05-.05,0,0,0,0-.07-.12-.08-.19-.07-.13-.07-.21-.07-.13-.09-.2a4.5,4.5,0,0,0-.2-.48l-.07-.2-.19-.46-.27-.56A17.63,17.63,0,0,0,144.77,199.11Z"/><path class="cls-1" d="M148.16,208.57a11,11,0,0,0-.69-1.12s0,0,0-.07a.37.37,0,0,1,.13-.12h.08l.17.15.18.21a.85.85,0,0,0,.14.19c.09.08.14.19.22.27a1.71,1.71,0,0,1,.21.26c.1.12.17.24.26.36a.87.87,0,0,0,.09.11l.08.17.12.19.17.31s0,.05.06.09l.05.12.09.18h0a.38.38,0,0,1,.12.16l.14.31c.05.08.56,1.54.58,1.57v0s0,.05,0,.05,0,0,0,0,0,0,0,0,0,0,0,0-.07.11,0,.13,0,0,0,0,0,.12.1.15,0,.06,0,.08,0,0,0,0,0,.05,0,.09a.29.29,0,0,0,.05.14l.06.12a.85.85,0,0,0,.06.17l0,.05.08.13s0,0,0,.08a3.42,3.42,0,0,0,.13.34c0,.05,0,.08.05.13a.5.5,0,0,0,.09.21.84.84,0,0,1,0,.17l.05.18c0,.1-.41.22-.42.19s-.55-.85-.58-.95l-.16-.35-.12-.24-.1-.25a1.88,1.88,0,0,0-.12-.18,0,0,0,0,0,0,0,.06.06,0,0,0,0,0l0-.05v0h0a.16.16,0,0,0,0-.14s0,0,0,0-.14-.16-.14-.28,0,0,0,0,0,0,0,0-.05-.1-.06-.16-.05-.1-.06-.16,0-.11-.07-.16-.13-.31-.16-.39l-.06-.16-.15-.37-.2-.44A13.36,13.36,0,0,0,148.16,208.57Z"/><path class="cls-1" d="M152.44,217.79s-.8.33-.8.35,0,0-.12-.11a2.53,2.53,0,0,1-.31-.37c0-.07-.08-.14-.07-.15a.34.34,0,0,1,.06-.16l.15-.12s.11,0,.13-.1.13-.09.16-.19.1-.13.15-.2a2.28,2.28,0,0,1,.22-.22s0-.08.06-.09.08,0,.12-.05a1.31,1.31,0,0,1,.12-.11.9.9,0,0,1,.2-.14s0-.06.05-.07h.1l.11-.08v0a.12.12,0,0,1,.09-.13l.21-.12c.05,0,1.14-.3,1.16-.31h0s0,0,0-.08,0,0,0,0,0,0,0,0,0,0,0,0,.12.17.11,0,0,0,0,0,.09,0,.09-.11,0,0,.07,0,0,0,0,0,0-.06.06,0,.07,0,.1,0l.09,0s.09,0,.12,0l0-.05s.06-.06.1-.07,0,0,.06,0l.27,0s.06,0,.1,0a.15.15,0,0,0,.17,0s.09,0,.13,0l.15,0a1.32,1.32,0,0,1,.14.51,4.91,4.91,0,0,1,.07.5,6.92,6.92,0,0,0-.61.39l-.24,0a1.11,1.11,0,0,1-.16.07,1,1,0,0,0-.16.05s-.07.07-.11.11h0l0,0h0v0c-.06-.07-.08-.05-.1,0a0,0,0,0,1,0,0c-.05.07-.07.18-.16.13s0,0,0,0,0,0,0,0,0,.06-.09.06-.06,0-.1,0-.06.06-.1.07-.18.11-.23.13l-.1,0-.23.12-.26.17A8.1,8.1,0,0,0,152.44,217.79Z"/><path class="cls-1" d="M153.2,221.57c0,.06-.9.52-.91.54s0,0-.13-.09a2.48,2.48,0,0,1-.32-.35c-.05-.07-.09-.13-.08-.15a.44.44,0,0,1,.07-.17c0-.06.11-.11.16-.16s.12-.05.14-.13.14-.11.17-.23.11-.14.16-.23a1.94,1.94,0,0,1,.23-.27s0-.08.06-.11l.13-.07A1.49,1.49,0,0,0,153,220l.22-.19s0-.06,0-.07l.11,0,.13-.1v0a.17.17,0,0,1,.08-.16l.23-.16c0-.06,1.21-.57,1.24-.59h0s.06,0,0-.08,0,0,0,0,0,0,0,0,0,0,0,0,.16.14.13,0,0,0,0,0,.1,0,.09-.13,0,0,.08,0,0,0,0,0,0-.07.07-.06.07,0,.1,0l.09-.07a.27.27,0,0,0,.13-.07l0,0s.06-.07.09-.09.05,0,.07,0l.29-.1s.06,0,.1,0,.14,0,.18-.08.1,0,.16,0l.16,0c.09,0,.46.87.44.88s-.59.55-.65.59a2.24,2.24,0,0,0-.27.13l-.16.13a1.74,1.74,0,0,0-.19.1s-.06.1-.1.15H156l0,0v0s0,0,0,0-.09,0-.11,0h0c0,.08-.06.2-.17.17s0,0,0,.06,0,0,0,0-.06.06-.11.07-.06.07-.11.07-.06.08-.1.09a2.26,2.26,0,0,0-.26.2l-.12.06-.25.19-.3.24C154.25,221.1,153.24,221.5,153.2,221.57Z"/><path class="cls-1" d="M154.67,226.26s-.49.24-.49.25-.05,0-.13-.09-.25-.22-.33-.31l-.1-.12a.41.41,0,0,1,0-.12.34.34,0,0,1,.08-.09s.07,0,.06-.07.08-.07.06-.15,0-.09.06-.15a.91.91,0,0,1,.09-.17s0-.06,0-.07.06,0,.08,0,0-.06,0-.09l.1-.11s0,0,0-.05h.06l.06-.06v0c0-.08,0-.09,0-.11a.35.35,0,0,0,.11-.1s.66-.29.67-.3h0s.05,0,0-.06,0,0,0,0,0,0,0,0,0,0,0,0,.13.13.09,0,0,0,0,0,.06,0,0-.1,0,0,.06,0,0,0,0,0,0,0,0,0,0,0,.05,0l0,0s.06,0,.07,0,0,0,0,0,0,0,0-.07,0,0,0,0l.15-.06s0,0,0,0,.08,0,.09,0,.07,0,.1,0h.1a3.06,3.06,0,0,1,.3.4l.25.4s-.22.39-.26.41l-.13.07-.08.08s-.07,0-.09,0,0,.07,0,.1a0,0,0,0,1,0,0h0a0,0,0,0,1,0,0h0s0,0,0,0-.07,0-.07,0h0c0,.07,0,.16-.06.12s0,0,0,0,0,0,0,0,0,.05-.05.05,0,.05-.06,0,0,.06,0,.06a.75.75,0,0,0-.11.13l-.06,0-.11.11-.13.15S154.68,226.22,154.67,226.26Z"/><path class="cls-1" d="M151.17,221.71c0-.05-.14-.4-.25-.74s-.2-.66-.21-.67,0-.05.07-.08a.44.44,0,0,1,.25-.1.17.17,0,0,1,.11,0,1.37,1.37,0,0,1,.13.2c0,.09.08.18.12.27s.05.16.11.22.09.23.18.32a1.44,1.44,0,0,1,.19.31c.09.13.16.26.25.4s.07.07.09.11,0,.13.07.18l.14.21.18.32.07.09s0,.09,0,.13l.11.19h0a.26.26,0,0,1,.14.15l.18.32c.05.08.75,1.59.78,1.63h0s0,.07.08.05,0,0,0,0,0,0,0,0,0,0,0,0-.08.15,0,.14,0,0,0,0,0,.12.14.14,0,.06,0,.09,0,0,0,0,.07,0,.07.09,0,.09.08.14l.09.11a.59.59,0,0,0,.1.17l.06,0a.74.74,0,0,0,.12.13s0,.06,0,.09l.18.36s.08.08.09.13a.34.34,0,0,0,.12.22c.05.05,0,.13.05.19l.06.21c0,.11-.78.45-.79.42s-.67-.86-.72-1l-.18-.38-.15-.25c-.05-.08-.08-.18-.13-.26a1.37,1.37,0,0,0-.16-.18,0,0,0,0,1,0,0l0,0,0,0,0,0s0,0,0,0,0-.11,0-.15,0,0,0,0-.2-.15-.2-.28,0,0,0,0a0,0,0,0,1,0,0c0-.08-.07-.1-.09-.16s-.07-.1-.08-.17-.08-.1-.11-.17-.18-.33-.22-.4l-.08-.18-.2-.4-.25-.48C151.67,223.25,151.22,221.8,151.17,221.71Z"/><path class="cls-1" d="M154.1,231.31s-.59.13-.59.15l-.11-.13c-.1-.14-.22-.31-.29-.43s-.08-.14-.07-.16a.16.16,0,0,1,0-.12.35.35,0,0,1,.1-.08s.09,0,.09-.07.1-.05.11-.14.07-.09.1-.14.1-.11.15-.17,0-.06,0-.07.06,0,.09,0,.05-.07.08-.09a.67.67,0,0,1,.14-.09s0-.05,0-.06.05,0,.07,0a.26.26,0,0,0,.09,0v0c0-.09,0-.1.06-.11l.15-.08s.82-.11.83-.12h0s0,0,0-.06,0,0,0,0,0,0,0,0,0,0,0,0,.1.18.08.07,0,0,0,0,.07,0,.06-.08,0,0,.06.05,0,0,0,0,0-.06.05,0,.05,0,.07,0l.06,0s.06,0,.09,0v0s.05,0,.07-.05,0,0,0,0l.19,0s0,0,.07,0,.09,0,.12,0,.06,0,.1.05l.1,0a3.59,3.59,0,0,1,.19.75s-.36.35-.4.37l-.16.05-.1.07s-.08,0-.11,0a.54.54,0,0,0-.06.11h0l0,0v0s0,0,0,0-.06,0-.07,0h0c0,.06,0,.17-.1.11s0,0,0,0,0,0,0,0,0,0-.06,0,0,0-.07,0,0,0-.06,0-.12.08-.15.1l-.07,0-.16.08-.17.12S154.13,231.27,154.1,231.31Z"/><path class="cls-1" d="M155,233.49l-.44.22s0,0,0,0a.34.34,0,0,1-.09-.12s0,0,0-.05a.16.16,0,0,1,0-.07l.08-.06s.05,0,.07,0,.07-.05.09-.09.06-.06.08-.09a1.36,1.36,0,0,1,.12-.12l0,0,.06,0,.06-.06.1-.08,0,0h0l.06-.05h0a.08.08,0,0,1,.05-.06l.1-.08s.55-.25.57-.26h0s0,0,0,0h0s0,0,0,0,0,0,0,0,.07.06.06,0h0s.05,0,.05-.06h0s0,0,0,0,0,0,0,0a.06.06,0,0,0,.05,0l0,0,.06,0,0,0s0,0,0,0,0,0,0,0l.13-.05s0,0,0,0a.08.08,0,0,0,.08,0s.05,0,.07,0h.08a1.54,1.54,0,0,1,.17.43,3.19,3.19,0,0,0-.32.23l-.13,0-.08.05a.25.25,0,0,0-.09,0l-.06.06h0l0,0h0a0,0,0,0,0-.06,0h0s0,.08-.08.07,0,0,0,0,0,0,0,0,0,0-.06,0l-.05,0s0,0,0,0l-.13.08-.06,0-.12.07-.15.1S155.05,233.46,155,233.49Z"/><path class="cls-1" d="M154,228.84a3.86,3.86,0,0,1-.16-.41l-.15-.37s0,0,.05-.06a.5.5,0,0,1,.17-.1s.07,0,.08,0l.1.09.1.15a.21.21,0,0,0,.08.11c.06,0,.07.13.13.17s.1.11.15.16.11.14.17.21l.07.05s0,.08.05.11a.87.87,0,0,0,.09.11l.13.17,0,.05s0,0,0,.08a.33.33,0,0,0,.06.1h0a.12.12,0,0,1,.1.08,1.74,1.74,0,0,0,.11.18s.38.95.4,1h0s0,0,.05,0,0,0,0,0,0,0,0,0,0,0,0,0-.08.1,0,.09,0,0,0,0,0,.08.09.08,0,0,0,.06a0,0,0,0,0,0,0s.05,0,0,.05,0,.06,0,.08l0,.07a1.17,1.17,0,0,0,.05.11l0,0,.07.08s0,0,0,.05l.08.22s0,0,0,.08a.19.19,0,0,0,.05.14s0,.07,0,.11v.13c0,.07-.61.27-.61.25s-.37-.5-.39-.56l-.08-.22-.08-.14c0-.05,0-.1-.07-.15a.43.43,0,0,0-.09-.1s0,0,0,0v0l0,0h0s0-.07,0-.09v0c-.06,0-.13-.08-.12-.15s0,0,0,0,0,0,0,0,0-.06,0-.09-.05-.06-.05-.1,0-.05-.06-.09a1.79,1.79,0,0,0-.13-.22l0-.1-.12-.22-.16-.26C154.31,229.72,154.08,228.89,154,228.84Z"/><path class="cls-1" d="M410.08,462s.23-.17.43-.31l.41-.27s0,0,.09.05a1,1,0,0,1,.19.22l0,.1a.5.5,0,0,1-.1.14,1,1,0,0,1-.15.14c-.05,0-.11.06-.13.12s-.14.11-.18.19-.12.13-.17.19-.16.16-.23.24l-.07.09s-.08,0-.11.07l-.12.13-.2.17s0,0,0,.06l-.09.05a.48.48,0,0,0-.11.09v0a.12.12,0,0,1-.08.12,1.66,1.66,0,0,0-.21.16c-.06,0-1.05.65-1.07.68h0s0,0,0,.05,0,0,0,0,0,0,0,0,0,0,0,0-.1,0-.1,0h0c0,.05-.08.05-.09.11s0,0-.06,0h0a.07.07,0,0,1-.06.06s-.06,0-.09.07l-.07.07-.11.08,0,0-.08.09-.05,0-.22.17a.71.71,0,0,1-.09.07.47.47,0,0,0-.13.11s-.08.05-.11.07l-.13.09c-.06,0-.21-.22-.19-.24l.54-.64.21-.2.14-.15.15-.14s.06-.09.1-.13,0,0,0,0l0,0,0,0h0s0,0,0,0a.09.09,0,0,0,.09-.05l0,0c0-.07.07-.15.15-.18s0,0,0,0,0,0,0,0,0-.07.09-.09.06-.07.1-.09,0-.07.09-.1.18-.19.23-.23l.1-.09.22-.22.27-.26C409.14,462.64,410,462.09,410.08,462Z"/><path class="cls-1" d="M413.05,461.81l.48-.26.43-.23s0,0,.06,0a.21.21,0,0,1,.07.13s0,0,0,.06l-.13.11-.18.11a.75.75,0,0,0-.15.09c-.07.06-.16.09-.22.15s-.14.09-.21.15l-.27.18-.09.07-.12.06-.14.1-.22.14-.06.05-.1.05-.12.08h0a.35.35,0,0,1-.11.1l-.22.14c-.06,0-1.06.65-1.08.68h0s0,0,0,0l0,0s0,0,0,0h0s-.08,0-.08,0h0s-.07.05-.09.1,0,0-.06,0h0l-.06.06s-.06,0-.09.07l-.08.07-.11.08,0,0-.09.09,0,0-.22.17-.08.07a.81.81,0,0,0-.14.12l-.11.08-.11.09c-.07,0-.14-.14-.13-.15s.51-.59.57-.64l.23-.2.15-.14.16-.13a.63.63,0,0,0,.12-.11l0,0,0,0,0,0h0a.15.15,0,0,0,.09-.06h0a.58.58,0,0,1,.19-.16l0,0,0,0c.05,0,.06-.06.1-.08l.11-.08.11-.08.27-.2.11-.07.26-.18.32-.22Z"/><path class="cls-1" d="M415.34,461.74l.72-.41.63-.38s0,0,.07,0,.07.05.06.08a.12.12,0,0,1,0,.07l-.19.17-.25.19a1.73,1.73,0,0,0-.21.17c-.1.09-.22.15-.32.25s-.19.16-.29.25l-.39.32-.12.11-.18.11-.21.16-.33.23a.71.71,0,0,1-.09.07l-.13.07-.19.13s0,0,0,0a.59.59,0,0,1-.17.15l-.33.22c-.08,0-1.6,1-1.63,1l0,0s-.05,0-.05.06,0,0,0,0,0,0,0,0,0,0,0,0-.13,0-.14.06,0,0,0,0-.12.07-.15.14-.05,0-.08,0,0,0,0,0-.05.06-.09.08a.64.64,0,0,0-.13.1l-.12.1-.16.13,0,.06-.13.13-.08.05-.33.26a.63.63,0,0,1-.12.11.89.89,0,0,0-.22.16.71.71,0,0,1-.17.11c-.07,0-.12.09-.19.11s-.24-.25-.23-.29l.41-.48c.2-.22.41-.43.46-.47l.36-.28.23-.19.26-.19.18-.18,0,0,0,0,0-.05,0,0s0,0,0,0a.2.2,0,0,0,.14-.08l0,0a1,1,0,0,1,.28-.23s0,0,.05,0a0,0,0,0,1,0,0c.07,0,.1-.08.16-.11a1,1,0,0,1,.17-.12c.06,0,.1-.09.16-.12l.41-.29.17-.1.39-.27.49-.33C413.83,462.52,415.25,461.8,415.34,461.74Z"/><path class="cls-1" d="M417,461.71l.69-.36.64-.32s.05,0,.09.05a.48.48,0,0,1,.14.22.19.19,0,0,1,0,.11,1.37,1.37,0,0,1-.18.16l-.25.17a.7.7,0,0,0-.21.14c-.09.1-.22.13-.3.23a3.22,3.22,0,0,1-.28.24l-.37.29s-.07.08-.11.11l-.17.1-.2.16-.3.22a.6.6,0,0,1-.08.08l-.13.07-.17.13v0a.35.35,0,0,1-.14.17,3.3,3.3,0,0,0-.3.22c-.08.05-1.48,1-1.51,1l0,0s-.06,0,0,.08,0,0,0,0,0,0,0,0,0,0,0,0-.15-.06-.13,0,0,0,0,0-.11.07-.11.16-.06,0-.09,0h0a.08.08,0,0,1-.07.09c-.07,0-.09.07-.12.11l-.11.1a.93.93,0,0,0-.15.13s0,0,0,.06-.06.1-.1.14l-.08,0-.33.24s-.07.08-.12.1a.45.45,0,0,0-.2.16s-.12,0-.19.07a.57.57,0,0,1-.24,0c-.14,0-.34-.36-.36-.42a5.93,5.93,0,0,1,.75-1l.34-.26.22-.2a2.15,2.15,0,0,0,.24-.18,1,1,0,0,0,.16-.19h0l0,0,0-.05,0,0s0,0,0,0,.11,0,.15-.06l0,0c.07-.09.12-.21.24-.24s.05,0,0-.06a0,0,0,0,1,0,0c.09,0,.09-.09.15-.12s.09-.09.16-.11.09-.09.15-.13.31-.23.38-.28l.16-.1.38-.27.45-.32C415.51,462.44,416.89,461.77,417,461.71Z"/><path class="cls-1" d="M420.3,461.14a8.51,8.51,0,0,0,.81-.62s0,0,.06,0a.14.14,0,0,1,.09.08.15.15,0,0,1,0,.06l-.09.14L421,461a1.42,1.42,0,0,0-.12.13c0,.09-.12.13-.17.21a1.06,1.06,0,0,1-.16.21c-.06.09-.14.17-.21.26s0,.07-.07.09l-.1.09-.12.14-.19.19,0,.07-.08.05-.12.1v0a.18.18,0,0,1-.09.13l-.21.17c0,.05-1.06.66-1.09.68h0s0,0,0,.06,0,0,0,0,0,0,0,0,0,0,0,0-.11-.06-.1,0,0,0,0,0-.08,0-.08.12,0,0-.06,0h0a.05.05,0,0,1-.06.06s-.06,0-.08.06l-.08.07a.48.48,0,0,0-.11.09s0,0,0,0a.73.73,0,0,1-.08.09s0,0-.05,0l-.24.15s-.05.06-.09.07a.25.25,0,0,0-.15.1s-.08,0-.13,0l-.14.06c-.07,0-.4-.55-.38-.55s.54-.56.61-.6l.25-.15.16-.12.18-.11.11-.13h.05l0,0h0v0c.06,0,.08,0,.11,0h0c.05-.07.08-.16.17-.16s0,0,0,0,0,0,0,0,.07-.06.11-.08.06-.06.11-.07.06-.06.1-.08.21-.16.26-.19l.11-.07L419,462l.29-.24A8.25,8.25,0,0,0,420.3,461.14Z"/><path class="cls-1" d="M410.42,463c-.06,0-.47.06-.86.15l-.53.13-.24.08s-.05,0-.1-.08a.81.81,0,0,1-.13-.29c0-.06,0-.12,0-.13a.78.78,0,0,1,.24-.16,1.51,1.51,0,0,1,.35-.14,1.11,1.11,0,0,0,.29-.1c.13-.1.29-.08.43-.16a3,3,0,0,1,.42-.16c.18-.06.37-.09.56-.15l.18-.06h.24l.3-.07.46-.05a.5.5,0,0,1,.13,0,1.09,1.09,0,0,1,.18,0l.25,0,0,0a.35.35,0,0,1,.25-.07l.45,0c.12,0,2.14.16,2.19.17h0s.06,0,.1,0,0,0,0,0,0,0,0,0,0,0,0,0,.09.16.15.07,0,0,0,0,.15,0,.23-.05.06,0,.09.06,0,0,0,0a.1.1,0,0,1,.14,0c.06,0,.12,0,.19,0h.17a1.93,1.93,0,0,0,.24,0l.07,0,.21,0s.06,0,.1,0l.47.05a1.09,1.09,0,0,1,.18,0,.76.76,0,0,0,.3,0c.08,0,.15,0,.22.05l.25.05c.13,0,0,.81-.05.8s-1.3.13-1.43.12l-.5,0h-.34c-.12,0-.23,0-.35,0a1.28,1.28,0,0,0-.27.05h-.2s0,0,0,0a.16.16,0,0,0-.18-.05h0c-.13,0-.26.1-.39,0s0,0-.08,0,0,0,0,0-.15,0-.22,0a1.62,1.62,0,0,1-.22,0c-.08,0-.15,0-.23,0s-.43,0-.54,0H413l-.63,0A14.47,14.47,0,0,0,410.42,463Z"/><path class="cls-1" d="M409.7,464.77a7.91,7.91,0,0,1-.87-.08l-.79-.08s0,0-.05-.09a.48.48,0,0,1,0-.29.21.21,0,0,1,.06-.1,1.17,1.17,0,0,1,.26,0h.34a1.31,1.31,0,0,0,.28,0c.14,0,.28,0,.42,0a1.9,1.9,0,0,1,.41,0,4.55,4.55,0,0,1,.53,0l.16,0,.22,0,.28,0h.43l.12,0,.16,0h.24l0,0a.39.39,0,0,1,.23-.05h.42l2.05.15h0s.06,0,.09,0,0,0,0,0,0,0,0,0,0,0,0,0,.1.14.15.06,0,0,.05,0,.14,0,.22-.05.06,0,.08,0,0,0,0,0a.11.11,0,0,1,.13,0c.06,0,.12,0,.18,0h.17a1.62,1.62,0,0,0,.22,0l.07,0,.2,0,.1,0,.45.05h.18a.58.58,0,0,0,.29,0,.54.54,0,0,1,.21.05l.24.05c.13,0,0,.64-.06.64s-1.22.12-1.35.12h-1.12a2.34,2.34,0,0,0-.26,0h-.19l0,0a.16.16,0,0,0-.17-.05s0,0,0,0-.26.09-.38,0a0,0,0,0,0-.07,0s0,0-.05,0-.13,0-.2,0-.15,0-.21,0-.15,0-.22,0h-1.85C411.49,465,409.82,464.76,409.7,464.77Z"/><path class="cls-1" d="M386.28,459.94l.45-.22.4-.2s0,0,.09.06a1.43,1.43,0,0,1,.19.26c0,.05,0,.1,0,.11a.43.43,0,0,1-.09.13.83.83,0,0,1-.16.12c-.05,0-.11.05-.14.1s-.14.09-.18.17-.12.12-.18.18a2.31,2.31,0,0,1-.24.2s0,.06-.07.08-.08,0-.12.06l-.13.1-.21.14s0,0-.05.06a.38.38,0,0,0-.1,0l-.12.07v0a.18.18,0,0,1-.1.12l-.21.12c-.06,0-1.11.43-1.14.44h0s-.05,0,0,0,0,0,0,0,0,0,0,0,0,0,0,0-.1-.09-.1,0,0,0,0,0-.08,0-.09.09-.05,0-.07,0h0s0,.05-.06,0-.07,0-.1,0l-.09.05a.61.61,0,0,0-.12,0l0,0s-.06.05-.09.07h-.06l-.26.08s-.06,0-.09,0a.32.32,0,0,0-.17.06s-.08,0-.13,0l-.14,0c-.08,0-.25-.58-.23-.58s.59-.41.65-.44l.25-.11.17-.09.17-.08.11-.11h.05l0,0h0s0,0,0,0,.07,0,.1,0h0c.05-.07.08-.16.17-.14s0,0,0,0,0,0,0,0,.06-.05.1-.06.06-.05.11-.05.06-.06.11-.07a2.36,2.36,0,0,0,.25-.15l.11-.05.25-.14.29-.19A10.74,10.74,0,0,0,386.28,459.94Z"/><path class="cls-1" d="M385,459.85l.86-.42.77-.39a.08.08,0,0,1,.07,0,.09.09,0,0,1,.06.11.13.13,0,0,1,0,.07l-.22.17-.32.2c-.08.06-.17.1-.25.17s-.27.17-.38.27-.24.17-.36.26l-.48.34-.14.12-.22.12-.25.17-.4.24-.11.08-.16.07-.23.14,0,0a.54.54,0,0,1-.21.16l-.4.23c-.09.07-2,.93-2.06.94l0,0s-.07,0-.07.07,0,0,0,0,0,0,0,0,0,0,0,0-.15-.06-.17,0,0,0-.05,0-.15.05-.2.14-.07,0-.1,0,0,0,0,0a.16.16,0,0,1-.13.07c-.07,0-.12.05-.18.08l-.16.08a1.63,1.63,0,0,0-.23.11l-.06.05-.19.11-.11,0a3.9,3.9,0,0,1-.48.17,1.34,1.34,0,0,1-.18.07,1.11,1.11,0,0,0-.31.09.68.68,0,0,1-.25,0l-.27,0c-.14,0-.15-.45-.12-.48s1.17-.65,1.3-.68l.48-.18.32-.15.33-.13.24-.15,0,0h.05l.07-.05h0s0,0,0,0a.27.27,0,0,0,.18-.05l0,0a.8.8,0,0,1,.36-.2.06.06,0,0,0,.06,0s0,0,0,0,.13-.08.2-.11.13-.07.21-.09a1.39,1.39,0,0,0,.21-.11l.5-.26.21-.1.48-.25.59-.32C383.14,460.64,384.84,459.92,385,459.85Z"/><path class="cls-1" d="M380.81,461.78c-.06,0-.84-.24-.84-.24s0,0,0-.05a.29.29,0,0,1,0-.14.12.12,0,0,1,.05-.05h.13l.17,0c.05,0,.09,0,.14,0s.14,0,.22,0a.75.75,0,0,1,.21,0l.27,0h.08l.12,0h.14l.22,0h.06l.08,0H382a.17.17,0,0,1,.12,0l.21,0,1.06.19h0s0,0,0,0h0s0,0,0,0,0,0,0,0,0,.07.07,0h0s.07,0,.11,0,0,0,0,0h0a.06.06,0,0,1,.07,0s.06,0,.1,0H384l.12,0h.14l.05,0,.23.07a.32.32,0,0,1,.09,0l.15.05s.07,0,.1,0l.12.06c.06,0-.08.28-.1.27s-.63,0-.69-.06l-.23-.05-.17,0-.16,0h-.24a.11.11,0,0,0-.09,0h0a.41.41,0,0,1-.19,0h-.06s-.07,0-.11,0l-.11,0h-.11l-.27,0-.1,0-.26,0-.32,0Z"/><path class="cls-1" d="M357.26,462.14l.46-.16.43-.13s0,0,.06.06a.68.68,0,0,1,.11.23.16.16,0,0,1,0,.1.52.52,0,0,1-.11.1l-.17.08c-.05,0-.11,0-.14.07s-.15.06-.2.13a.72.72,0,0,1-.19.13,1.4,1.4,0,0,1-.26.16l-.07.07-.12,0-.14.08-.21.11,0,.05-.09,0-.12.06v0a.16.16,0,0,1-.1.1l-.21.1L355,464h0s0,0,0,.05,0,0,0,0,0,0,0,0,0,0,0,0-.1-.07-.1,0,0,0,0,0-.08,0-.1.09,0,0-.05,0h0s0,0-.06,0-.06,0-.09,0l-.08,0s-.09,0-.12.05,0,0,0,0l-.09.07h-.06l-.24.08-.09,0a.3.3,0,0,0-.16,0s-.08,0-.12,0l-.14,0c-.07,0-.21-.5-.19-.51s.58-.39.64-.42l.24-.1.16-.09.17-.07.12-.1h0l0,0h0v0a.07.07,0,0,0,.1,0h0c.06-.05.1-.13.18-.12s0,0,0,0,0,0,0,0,.06-.05.1-.05.07,0,.11,0,.07-.05.11-.06a2.26,2.26,0,0,0,.26-.14l.11,0,.25-.12.31-.16C356.28,462.43,357.21,462.18,357.26,462.14Z"/><path class="cls-1" d="M353.73,462.38s.25-.08.47-.13l.43-.1s0,0,0,0a.22.22,0,0,1,0,.13.08.08,0,0,1,0,.05.38.38,0,0,1-.13.06l-.18.06a.58.58,0,0,0-.14,0c-.07.05-.15.05-.21.1s-.13.06-.2.1l-.26.13-.08,0-.11.05-.14.07-.2.1-.06,0-.08,0-.12.06h0a.35.35,0,0,1-.1.08l-.21.11-1,.45h0s0,0,0,0,0,0,0,0,0,0,0,0h0s-.07,0-.09,0h0s-.08,0-.1.07,0,0-.05,0h0a.08.08,0,0,1-.07,0,.18.18,0,0,0-.09,0l-.08,0-.12.05,0,0-.1.06h-.05l-.25.08-.09,0a.43.43,0,0,0-.16,0s-.08,0-.12,0l-.13,0c-.08,0-.11-.37-.09-.37s.6-.28.66-.31l.24-.09.16-.07.17-.07.12-.08h.05l0,0h0v0a.07.07,0,0,0,.09,0h0a.38.38,0,0,1,.18-.11s0,0,0,0,0,0,0,0,.07,0,.1,0l.11-.05a.6.6,0,0,0,.11-.06l.25-.13.11,0,.25-.13.31-.15C352.76,462.69,353.67,462.4,353.73,462.38Z"/><path class="cls-1" d="M352.46,461.76a4.39,4.39,0,0,1,.58-.14l.54-.09a.05.05,0,0,1,0,0,.11.11,0,0,1,0,.11l0,.05-.16.07-.22.07a1.27,1.27,0,0,0-.18.06c-.08.05-.18.06-.27.11l-.25.1-.33.14-.1.05-.14,0-.18.08-.26.11-.08,0-.1,0-.15.06h0a.31.31,0,0,1-.14.09l-.26.1-1.31.48h0s-.05,0-.05.05h0s0,0,0,0h0s-.09-.05-.1,0h0s-.1,0-.13.08,0,0-.06,0h0a.09.09,0,0,1-.08,0,.26.26,0,0,0-.12,0l-.1.05-.14.06s0,0,0,0l-.11.07-.07,0-.29.1s-.07,0-.11,0a.62.62,0,0,0-.19.07s-.09,0-.14,0l-.16,0c-.09,0-.17-.44-.14-.44s.74-.38.82-.41l.3-.1.2-.09.21-.08L349,463h.06l0,0h0v0a.13.13,0,0,0,.12,0h0c.07,0,.14-.11.23-.11s0,0,0,0,0,0,0,0,.08,0,.13-.05l.13,0c.05,0,.09-.05.14-.06l.33-.13.14-.05.32-.12.39-.15Z"/><path class="cls-1" d="M349.36,462.86a7.9,7.9,0,0,1-.77-.24s0,0,0-.06a.42.42,0,0,1,.05-.17.15.15,0,0,1,0-.06h.13l.15,0a.27.27,0,0,0,.13,0c.07,0,.12,0,.19,0a.6.6,0,0,1,.19,0h.33l.1,0H350l.2,0h.06l.07,0h.12a.17.17,0,0,1,.12,0l.19,0,1,.15h0s0,0,0,0,0,0,0,0,0,0,0,0h0s0,.08.07,0,0,0,0,0,.07,0,.11,0,0,0,0,0,0,0,0,0,.05,0,.07,0,0,0,.08,0h.36l.22.05s.06,0,.09,0a.19.19,0,0,0,.13,0,.19.19,0,0,1,.1.05l.11,0c.06,0-.08.43-.1.42s-.57,0-.62,0l-.22,0h-.15l-.16,0-.12,0h-.1a.08.08,0,0,0-.08,0h0c-.06,0-.13,0-.18,0s0,0,0,0h0s-.06,0-.1,0-.06,0-.1,0-.07,0-.1,0h-.25l-.09,0-.24,0-.3,0C350.2,463.09,349.42,462.87,349.36,462.86Z"/><path class="cls-1" d="M349.27,463.84a4.31,4.31,0,0,1-.79-.17,4.22,4.22,0,0,1-.47-.16l-.22-.07a.09.09,0,0,1,0-.06.15.15,0,0,1,0-.13.11.11,0,0,1,.07,0l.23,0,.29.05a2.29,2.29,0,0,0,.25,0c.13,0,.24,0,.37,0a2.08,2.08,0,0,1,.35,0l.47,0,.14,0h.2l.24,0,.37-.05.1,0H351l.21,0,0,0a.26.26,0,0,1,.2-.07l.36-.06,1.83-.19h0s0,0,.07,0,0,0,0,0,0,0,0,0,0,0,0,0,.1.12.14,0,0,0,0,0,.14,0,.19-.08.06,0,.09,0h0c0-.05.07-.05.12,0s.11,0,.16,0l.15,0,.21,0s0,0,.06,0l.18,0s.06,0,.09,0h.43a1,1,0,0,1,.17,0,.62.62,0,0,0,.27,0c.07,0,.14,0,.2.05l.23.06c.12,0-.06.85-.09.84a10,10,0,0,0-1.16.15h-.41l-.28,0h-.29l-.23.07H354l-.06,0s0,0,0,0l0,0c-.05-.06-.1,0-.15,0s0,0,0,0-.21.12-.33.07,0,0-.06,0,0,0,0,0-.12,0-.18,0-.13,0-.19,0-.13,0-.2,0l-.47.06h-.19l-.45,0-.57,0C350.93,464.05,349.37,463.87,349.27,463.84Z"/><path class="cls-1" d="M377.05,464.73a6.09,6.09,0,0,1-.65-.05l-.59-.06s0,0,0-.1a.7.7,0,0,1,0-.29c0-.05,0-.1.05-.11a.65.65,0,0,1,.19,0h.25a.74.74,0,0,0,.21,0c.11-.05.21,0,.32,0a1.57,1.57,0,0,1,.3,0l.39,0a.5.5,0,0,1,.13,0,.86.86,0,0,0,.16,0l.21,0h.31l.09,0,.13,0h.17l0,0a.25.25,0,0,1,.18-.05h.31l1.52.11h0s0,0,.06,0,0,0,0,0,0,0,0,0,0,0,0,0,.07.12.11.05,0,0,0,0,.11,0,.16,0,0,0,.06,0,0,0,0,0,.06,0,.1,0,.09,0,.13,0h.12a1,1,0,0,0,.17,0l0,0H382l.07,0,.34,0c.05,0,.09,0,.13,0a.57.57,0,0,0,.22,0c.05,0,.1,0,.16.06l.18.06c.09,0,0,.45,0,.46l-1,.17h-.35l-.24,0a1.93,1.93,0,0,0-.24,0,1.42,1.42,0,0,0-.2,0s0,0,0,0h0l-.06,0h0v0a.11.11,0,0,0-.13,0h0c-.09,0-.18.09-.28,0s0,0-.05,0,0,0,0,0-.11,0-.16,0-.1,0-.15,0-.11,0-.17,0-.31,0-.39,0H379l-.46,0C378.39,464.89,377.13,464.72,377.05,464.73Z"/><path class="cls-1" d="M355.13,464.37h-1s0,0-.05-.09a.61.61,0,0,1,0-.26s0-.1,0-.1a.51.51,0,0,1,.15-.07l.2,0c.06,0,.11,0,.17,0s.17,0,.25-.06a.73.73,0,0,1,.24-.07,1.65,1.65,0,0,1,.32-.07s.06,0,.09,0h.14c.06,0,.11,0,.17,0l.25,0s.05,0,.08,0l.1,0h.14l0,0a.16.16,0,0,1,.14-.06h.25c.06,0,1.2.09,1.24.09h0s0,0,.05,0,0,0,0,0,0,0,0,0,0,0,0,0,.06.13.09.06,0,0,0,0,.09,0,.13,0,0,0,0,0,0,0,0,0,.06,0,.08,0,.07,0,.11,0h.23l.05,0,.11,0s0,0,.06,0l.27,0h.11a.2.2,0,0,0,.17,0s.08,0,.12.05l.15.05c.07,0,0,.57,0,.57s-.73.18-.81.16h-.47a1.34,1.34,0,0,1-.2,0l-.15.05h-.11s0,0,0,0a.08.08,0,0,0-.1,0h0c-.07,0-.15.09-.22,0s0,0,0,0,0,0,0,0-.08,0-.12,0-.09,0-.13,0-.08,0-.13,0-.25,0-.3,0h-.42l-.36,0C356.19,464.47,355.2,464.35,355.13,464.37Z"/><path class="cls-1" d="M406.36,467.44c-.08,0-1.06.11-1.07.14s0,0-.08-.1a1.13,1.13,0,0,1-.13-.33.27.27,0,0,1,0-.13.42.42,0,0,1,.16-.11.92.92,0,0,1,.23-.09c.07,0,.14,0,.2-.06s.2,0,.28-.12a1.08,1.08,0,0,1,.28-.11,2.59,2.59,0,0,1,.37-.11.6.6,0,0,1,.11-.06h.17l.2-.05.3,0,.09,0,.12,0h.17l0,0a.18.18,0,0,1,.17-.07h.3a11.41,11.41,0,0,1,1.48.26h0s0,0,.07,0,0,0,0,0,0,0,0,0,0,0,0,0,.05.17.1.09,0,0,0,0,.1,0,.17,0,0,0,.05.06,0,0,0,0,.07,0,.09,0,.09,0,.13,0l.12,0a.43.43,0,0,0,.16.05h.06s.09,0,.14,0,0,0,.06,0l.31.16a.45.45,0,0,1,.12.06.36.36,0,0,0,.18.13c.05,0,.08.09.12.14l.13.13c.07.07-.29.5-.31.5a6.07,6.07,0,0,0-.87-.13c-.1,0-.19-.07-.29-.09l-.21,0a1.55,1.55,0,0,0-.21,0l-.18,0h0l0,0h-.07v0a.08.08,0,0,0-.1-.06h0c-.08,0-.17.08-.25,0s0,0,0,0,0,0,0,0-.1,0-.14,0-.09,0-.13,0-.1,0-.15,0H408l-.4,0A11.05,11.05,0,0,0,406.36,467.44Z"/><path class="cls-1" d="M402.57,469.83c-.06,0-.43,0-.79-.08l-.7-.11s0,0-.05-.05a.17.17,0,0,1,0-.14s0,0,.06,0l.24,0h.3a1,1,0,0,0,.24,0c.13,0,.25,0,.38,0a2.2,2.2,0,0,1,.36,0l.47,0,.14,0h.2l.24,0,.38,0,.1,0h.15l.21,0,0,0a.31.31,0,0,1,.2-.06l.37-.06,1.83-.06h0s.06,0,.08,0,0,0,0,0,0,0,0,0,0,0,0,0,.09.12.14,0,0,0,0,0,.13,0,.19-.06.05,0,.08,0,0,0,0,0a.09.09,0,0,1,.12,0c.06,0,.11,0,.16,0l.15,0a1.23,1.23,0,0,0,.2,0l.07,0,.17,0s.06,0,.09,0l.42,0s.1,0,.16,0a.57.57,0,0,0,.26,0,.56.56,0,0,1,.2.08l.21.07c.12,0,0,.47,0,.48l-1.19.23h-.41l-.29,0h-.29a2,2,0,0,0-.23.06h-.08l-.06,0h0a.19.19,0,0,0-.16,0h0a.49.49,0,0,1-.33.06s-.05,0-.06,0,0,0,0,0-.13,0-.19,0-.12,0-.19,0-.13,0-.19,0l-.47.05h-.19l-.45,0-.55,0Z"/><path class="cls-1" d="M400.82,471.85a6.51,6.51,0,0,1-.69-.07l-.63-.07s0,0,0-.11a1,1,0,0,1,0-.34.19.19,0,0,1,.05-.12.49.49,0,0,1,.2-.05H400a.6.6,0,0,0,.23,0c.11-.05.22,0,.33,0a1.28,1.28,0,0,1,.33-.06c.14,0,.28,0,.42-.05l.13,0c.06,0,.12,0,.18,0l.22,0h.34s.06,0,.1,0a.5.5,0,0,0,.13,0h.19l0,0a.22.22,0,0,1,.18-.06h.33l1.64.12h0s.05,0,.07,0,0,0,0,0,0,0,0,0,0,0,0,0,.08.14.12.06,0,0,0,0,.11,0,.17-.05.05,0,.07,0,0,0,0,0a.06.06,0,0,1,.1,0c.05,0,.1,0,.15,0h.31l0,0h.16l.08,0,.36.06c.05,0,.1,0,.14,0a.4.4,0,0,0,.23,0c.06,0,.12.05.17.07l.19.06c.11,0,0,.54,0,.54s-1,.23-1.07.22h-.9l-.21.06H405l-.05,0h0v0a.11.11,0,0,0-.14,0h0c-.1,0-.2.11-.3.05s0,0-.05,0,0,0,0,0-.11,0-.17,0-.11,0-.16,0-.12,0-.18,0-.34,0-.41,0h-.57l-.49,0C402.26,472,400.92,471.83,400.82,471.85Z"/><path class="cls-1" d="M398.3,473.2l-1-.06s0,0,0-.05a.28.28,0,0,1,0-.18.11.11,0,0,1,0-.07l.15,0,.21,0a.33.33,0,0,0,.17,0c.08,0,.17,0,.25,0a1,1,0,0,1,.25-.05,3,3,0,0,1,.32-.06l.09,0h.14l.17,0,.25,0,.08,0h.1l.14,0,0,0a.19.19,0,0,1,.14-.05l.25,0c.06,0,1.22,0,1.25,0h0s0,0,.05,0,0,0,0,0,0,0,0,0,0,0,0,0,.06.1.09,0,0,0,0,0,.09,0,.13-.05,0,0,.06,0,0,0,0,0a0,0,0,0,1,.08,0s.07,0,.11,0l.1,0h.14l0,0,.12,0,.06,0,.28,0a.17.17,0,0,1,.1,0,.37.37,0,0,0,.18,0,.35.35,0,0,1,.13.05l.15,0c.07,0,0,.43,0,.44s-.73.23-.81.21h-.28l-.2,0a1.21,1.21,0,0,0-.19,0l-.16,0h0l-.05,0h0a.08.08,0,0,0-.11,0h0c-.08,0-.15.09-.23.05s0,0,0,0l0,0c-.05-.05-.09,0-.13,0s-.08,0-.13,0-.09,0-.13,0-.25,0-.31,0h-.43l-.37,0C399.4,473.3,398.37,473.18,398.3,473.2Z"/><path class="cls-1" d="M376.09,466.93s-.59-.18-.6-.17,0-.05,0-.15a2.36,2.36,0,0,1,0-.45.42.42,0,0,1,0-.16.24.24,0,0,1,.1-.08h.14s.08,0,.12,0,.11,0,.17,0,.12,0,.17-.06a.64.64,0,0,1,.23-.05s.05,0,.07,0l.09,0,.12,0h.18l.06,0s0,0,.06,0h.1v0c.05-.07.08-.07.11-.06l.18,0c.05,0,.78.35.79.35h0s0,.05.05,0,0,0,0,0,0,0,0,0,0,0,0,0,0,.18,0,.09,0,0,0,0,.05,0,.1,0,0,0,0,.07h0c0-.05.05,0,.06,0s.05,0,.07,0h.07s.06,0,.09,0l0,0s.06,0,.08,0,0,0,0,0l.17.09s.05,0,.07,0,.06.07.1.06,0,.06.06.08a.36.36,0,0,0,.08.09,1.94,1.94,0,0,1-.13.45c-.08.21-.17.41-.17.41s-.51.07-.55,0l-.16-.07h-.13l-.11-.05a.27.27,0,0,0-.11.05h0s0,0,0,0l0,0h0l0,0c0-.07,0-.07-.05-.06h0c-.06,0-.12.11-.15,0s0,0,0,0,0,0,0,0-.06,0-.08,0,0,0-.07,0-.06,0-.08,0h-.2l-.07,0-.18,0h-.22S376.14,466.91,376.09,466.93Z"/><path class="cls-1" d="M373.29,469.57a3.7,3.7,0,0,1-.5-.05l-.46-.06s0,0,0-.1a1,1,0,0,1,0-.29c0-.05,0-.1,0-.1a.42.42,0,0,1,.14-.06h.2c.05,0,.11,0,.16,0s.16,0,.25-.05a.86.86,0,0,1,.23,0,2.87,2.87,0,0,1,.31-.05l.09,0a.53.53,0,0,1,.13,0,.76.76,0,0,0,.16,0l.25,0,.07,0,.1,0h.14v0a.15.15,0,0,1,.14-.06,2.08,2.08,0,0,0,.25,0c.06,0,1.17.17,1.2.17h0s0,0,.06,0,0,0,0,0,0,0,0,0,0,0,0,0,0,.14.08.06,0,0,0,0,.09,0,.14,0,0,0,0,0,0,0,0,0,.06,0,.08,0,.07,0,.11,0h.1a.53.53,0,0,0,.13,0l.05,0,.12,0s0,0,.05,0l.27.07s.07,0,.1,0a.27.27,0,0,0,.17,0c.05,0,.08,0,.12.07l.13.07c.07,0-.17.79-.18.77s-.7,0-.77,0a2,2,0,0,0-.26-.06h-.18l-.18,0-.15,0h-.05l0,0h0v0c0-.06-.06-.06-.09,0h0c-.07,0-.15.09-.21,0s0,0,0,0,0,0,0,0-.08,0-.12,0-.08,0-.12,0-.08,0-.12,0h-.29l-.12,0h-.63C374.32,469.75,373.36,469.55,373.29,469.57Z"/><path class="cls-1" d="M408.22,466.35a8.08,8.08,0,0,1,.88-.5,4.71,4.71,0,0,1,.57-.27l.26-.13s.07,0,.12.09a.84.84,0,0,1,.19.34c0,.07,0,.14,0,.16a1.31,1.31,0,0,1-.21.2c-.11.07-.22.12-.32.19a.93.93,0,0,0-.26.18c-.1.13-.27.16-.36.3a2.3,2.3,0,0,1-.33.3,5.48,5.48,0,0,1-.44.4s-.07.1-.12.15-.14.08-.2.13-.14.15-.22.22l-.34.32s-.05.08-.08.11l-.16.1a1.62,1.62,0,0,0-.19.18s0,0,0,0a.33.33,0,0,1-.15.22c-.12.1-.22.21-.33.32s-1.68,1.47-1.71,1.53v0s-.08,0,0,.11,0,0,0,0,0,0,0,.05,0,0,0,0-.19,0-.16.08,0,0,0,0-.13.1-.13.21-.07,0-.1,0,0,0,0,0,0,.1-.09.12-.09.09-.13.15l-.12.14a1.53,1.53,0,0,0-.18.18s0,.06,0,.08-.08.13-.12.18l-.1.07-.37.35a1,1,0,0,1-.14.15.66.66,0,0,0-.24.23c0,.06-.13.09-.2.14l-.22.17c-.11.09-.51-.44-.49-.48s.73-1.2.83-1.3l.36-.4.23-.29.25-.29a2.2,2.2,0,0,0,.15-.26s0,0,0,0l0,0a.2.2,0,0,0,0-.08l0,0v0a.17.17,0,0,0,.17-.11l0,0c.07-.14.11-.29.26-.35s0,0,0-.08,0,0,0,0,.1-.13.16-.18.1-.13.17-.17.1-.14.17-.2.33-.35.41-.43l.18-.17.42-.41.51-.49C406.42,467.47,408.1,466.42,408.22,466.35Z"/><path class="cls-1" d="M379.5,466.08s.39-.25.71-.46l.65-.42s.06,0,.12.06a.84.84,0,0,1,.23.28c0,.06,0,.11,0,.13a.87.87,0,0,1-.17.21l-.25.22c-.07.06-.16.09-.21.18s-.23.16-.3.29a2,2,0,0,1-.29.29c-.12.13-.25.24-.38.36a1.5,1.5,0,0,1-.11.13c-.06,0-.13.07-.19.12l-.2.19-.33.26a.73.73,0,0,1-.08.09.71.71,0,0,1-.15.08l-.18.14s0,0,0,0a.27.27,0,0,1-.15.18l-.33.25c-.08.07-1.69,1-1.73,1.05h0s-.07,0,0,.09,0,0,0,0,0,0,0,0,0,0,0,0-.17-.08-.15,0,0,0,0,0-.14.06-.15.17-.06,0-.1,0,0,0,0,0a.09.09,0,0,1-.1.08c-.07,0-.1.06-.15.1l-.13.1a1.13,1.13,0,0,0-.18.12s0,.05,0,.06l-.14.13-.1,0-.39.22c-.05,0-.08.08-.14.1a.56.56,0,0,0-.25.14c0,.05-.14,0-.21.06l-.23.08c-.12,0-.42-.61-.39-.63s.87-.85,1-.92l.39-.25.25-.2a2.53,2.53,0,0,0,.27-.18c.06-.06.11-.13.17-.2l0,0,0,0,.05-.05,0,0s0,0,0,0a.15.15,0,0,0,.16-.06l0,0c.08-.1.13-.23.27-.25s.05,0,.05-.06,0,0,0,0,.1-.09.17-.12.1-.09.17-.11.1-.1.17-.14.33-.24.41-.3l.17-.11.4-.29.48-.36C378,467,379.42,466.17,379.5,466.08Z"/><path class="cls-1" d="M377.56,464.89c.07,0,.51-.27.95-.47l.6-.26.28-.12s.06,0,.09,0a.19.19,0,0,1,.08.16.23.23,0,0,1,0,.1l-.26.17-.35.2a2.75,2.75,0,0,0-.29.17c-.13.12-.29.17-.41.29s-.26.19-.39.29l-.51.39-.14.13-.23.15-.26.21-.4.3-.11.1-.17.09-.23.18s0,0,0,0a.48.48,0,0,1-.2.2l-.4.3c-.09.08-2,1.32-2.08,1.35l0,0s-.08,0-.06.09,0,0,0,0,0,0,0,0,0,0,0,0-.17-.05-.18.05,0,0-.05,0-.16.08-.2.19-.07,0-.11,0,0,0,0,0a.15.15,0,0,1-.13.1c-.08,0-.13.08-.19.12l-.16.12a1.82,1.82,0,0,0-.23.15l-.06.07a1.39,1.39,0,0,0-.19.15l-.12,0-.5.27a1.6,1.6,0,0,1-.19.11,1.33,1.33,0,0,0-.32.15.71.71,0,0,1-.26.06l-.29.08c-.16.05-.31-.67-.28-.69s1.2-.81,1.33-.89l.49-.26.32-.21c.11-.07.23-.12.34-.2a2.29,2.29,0,0,0,.23-.21l.05,0,.05,0,.06-.06,0,0s0,0,0,0a.21.21,0,0,0,.19-.08l0,0a.74.74,0,0,1,.35-.28s.06,0,.06-.06,0,0,0,0,.12-.11.2-.15a1.53,1.53,0,0,1,.21-.14c.09,0,.14-.11.21-.16s.41-.29.51-.36l.22-.14.49-.34.61-.43C375.59,465.88,377.43,465,377.56,464.89Z"/><path class="cls-1" d="M361.79,467.75a6.61,6.61,0,0,1-1.3-.13,5.49,5.49,0,0,1-.79-.22l-.36-.15s0-.05,0-.11a.34.34,0,0,1,.11-.25.19.19,0,0,1,.12-.06l.35.08c.15,0,.29.07.45.09a1.17,1.17,0,0,0,.38.05,5.61,5.61,0,0,0,.58,0,5.62,5.62,0,0,1,.56-.06l.74-.1.23-.05.32,0,.39-.08.6-.1a1.16,1.16,0,0,1,.18,0h.23l.35,0,0,0a.69.69,0,0,1,.34-.09l.62-.07a25.75,25.75,0,0,1,3,.23h0s.08,0,.12,0,0,0,.06,0,0,0,.05,0,0,0,0,0,.13.15.21.07.05,0,.07,0,.21,0,.32,0,.08,0,.12.06,0,0,.05,0a.18.18,0,0,1,.19,0c.08,0,.17,0,.26,0h.24l.31,0,.11,0h.28l.13,0,.65.08a2.11,2.11,0,0,1,.25,0,1.92,1.92,0,0,0,.41.05,1.63,1.63,0,0,1,.3.07l.34.07c.19,0,0,.5,0,.51l-1,.13c-.46,0-.91.06-1,.05l-.69,0c-.16,0-.31,0-.47,0s-.32,0-.48,0a2.3,2.3,0,0,0-.37,0h-.28l0,0a.26.26,0,0,0-.24-.06h-.05a1.1,1.1,0,0,1-.54,0,.07.07,0,0,0-.1,0s-.05,0-.07,0-.2,0-.3,0a1.51,1.51,0,0,1-.3,0c-.1,0-.2,0-.31,0h-1c-.23,0-.46,0-.69,0l-.86.09C364.46,467.72,362,467.78,361.79,467.75Z"/><path class="cls-1" d="M363.47,468.84l-1.84-.12s0,0-.06-.06a.17.17,0,0,1,0-.17s0-.06.07-.06a1.36,1.36,0,0,1,.29,0h.38a1.61,1.61,0,0,0,.31,0c.16,0,.32,0,.48,0s.3,0,.45,0l.59,0,.19,0,.25,0,.31,0h.61l.18,0h.3a.41.41,0,0,1,.26,0h.47c.12,0,2.22.18,2.28.18h0s.06,0,.1,0,0,0,0,0,0,0,0,0,0,0,0,0,.11.11.17,0,0,0,.05,0,.16,0,.25,0,.06,0,.09,0h0a.14.14,0,0,1,.14,0c.07,0,.14,0,.21,0h.43l.08,0,.22,0,.1,0,.51,0h.2a.86.86,0,0,0,.32,0c.08,0,.15,0,.23,0l.27,0c.14,0,0,.64-.05.63s-1.37.11-1.51.09l-.53,0h-.36l-.37,0-.29,0h-.23a.27.27,0,0,0-.19,0h0a.79.79,0,0,1-.43,0,.07.07,0,0,0-.08,0s0,0,0,0-.15,0-.23,0a1.93,1.93,0,0,1-.24,0,1.92,1.92,0,0,0-.24,0l-.58,0-.24,0-.55,0-.69,0C365.47,469.07,363.61,468.83,363.47,468.84Z"/><path class="cls-1" d="M371.5,465.59c.05-.06.48-.23.86-.43a4.63,4.63,0,0,0,.52-.29l.24-.14s.08,0,.18.11a2.09,2.09,0,0,1,.4.47.48.48,0,0,1,.08.2,1.12,1.12,0,0,1-.18.28,2.69,2.69,0,0,1-.32.27c-.1.06-.22.09-.28.2s-.28.19-.38.36-.25.22-.37.34a5,5,0,0,1-.52.39,1.14,1.14,0,0,1-.15.16c-.08,0-.17.05-.25.09s-.18.14-.28.2l-.45.25s-.07.08-.12.1l-.19,0a1.05,1.05,0,0,0-.26.13s0,0,0,0a.29.29,0,0,1-.21.21l-.46.2c-.12.07-2.3.63-2.37.63h0s-.09,0-.07.1,0,0-.05,0,0,0,0,.05,0,0,0,0-.19-.19-.2,0,0,0-.06,0-.17,0-.21.16-.08,0-.12,0,0,0-.05,0-.07.09-.13.07-.14,0-.2.06a.62.62,0,0,1-.19.07,1.14,1.14,0,0,0-.25.06s0,0-.07.05-.13.07-.21.1-.08,0-.12,0l-.53.08a1.17,1.17,0,0,1-.2,0,1,1,0,0,0-.34,0c-.08,0-.18,0-.27,0h-.3c-.16,0-.23-.64-.2-.68s.35-.24.65-.47l.69-.43.51-.21c.12,0,.22-.12.34-.16s.25-.07.37-.13a1.38,1.38,0,0,0,.25-.19h.1l.07,0,0,0s0,0,0,0a.14.14,0,0,0,.21,0h0c.12-.12.21-.28.38-.24s.06,0,.06-.07,0,0,0,0,.14-.08.22-.09.14-.09.23-.08.14-.1.22-.11.44-.2.54-.24l.23-.08.51-.23.62-.31A20.72,20.72,0,0,0,371.5,465.59Z"/><path class="cls-1" d="M366.61,465.35a4.8,4.8,0,0,1,.77,0l.71,0s0,0,.06.13a1.16,1.16,0,0,1,0,.41c0,.07,0,.14,0,.15l-.21.09-.28,0a.51.51,0,0,0-.24,0c-.11.07-.23,0-.34.1a1.44,1.44,0,0,1-.32.13c-.14.06-.29.09-.43.15s-.08.06-.13.07a1.1,1.1,0,0,0-.18,0,1.45,1.45,0,0,0-.22.09l-.34.1-.09.06h-.14a1.06,1.06,0,0,0-.19.06s0,0,0,0a.18.18,0,0,1-.16.13l-.34.11c-.08,0-1.64.33-1.69.36h0s-.07,0-.05.08,0,0,0,0,0,0,0,0,0,0,0,0-.15-.17-.15,0,0,0,0,0-.12,0-.15.13-.06,0-.09,0,0,0,0,0-.05.07-.1.05-.09,0-.14.06l-.12.06a.4.4,0,0,0-.18.07l-.05,0-.13.1s-.06,0-.09,0l-.38.11s-.08.05-.14.05a.26.26,0,0,0-.23.06c-.05,0-.13,0-.2,0h-.21c-.12,0-.4-1-.37-1s.89-.63,1-.65l.4-.12.26-.11c.09,0,.19-.05.28-.09a1.25,1.25,0,0,0,.19-.15h.07l.06,0,0,0s0,0,0,0,.11,0,.15,0h0c.09-.08.16-.2.29-.16s.05,0,.05-.05,0,0,0,0,.11-.06.17-.06.11-.06.18-.05.12-.06.18-.07.35-.12.44-.14l.18,0,.43-.12.53-.15C365,465.37,366.51,465.37,366.61,465.35Z"/><path class="cls-1" d="M423,460.9l-3.58.3c-.43,0-.87.12-1.31.15-1.54.1-3.09.17-4.65.17-.69,0-1.38,0-2.06.07a9.82,9.82,0,0,1-2.65-.1c-.54-.11.23-1.42,1.19-1.43,1.74,0,3.46-.13,5.25-.05a25.52,25.52,0,0,0,3.24-.25l3.59-.33,2.22-.22c1.12-.11,2.25-.19,3.36-.33.86-.09,1.71-.25,2.57-.35a5.51,5.51,0,0,1,.57-.06c.71,0,.94,0,1.1.43a1.36,1.36,0,0,1,.11.25c.07.29-.21.54-.71.66a38.39,38.39,0,0,1-4.66.76l-3.57.37Z"/><path class="cls-1" d="M348.39,460.25l2.89.14,1.06,0,3.72.19c.55,0,1.1,0,1.65,0a11.33,11.33,0,0,1,2.1,0c.44.07-.11,1-.92,1a36.57,36.57,0,0,1-4.31-.13c-.86-.08-1.76,0-2.65,0l-2.91-.07-1.8-.05c-.9,0-1.81,0-2.71,0-.7,0-1.38.09-2.08.08H342c-.57,0-.75-.11-.87-.34A.79.79,0,0,1,341,461c-.06-.18.18-.33.59-.42a14.12,14.12,0,0,1,3.85-.39l2.92.08Z"/><path class="cls-1" d="M258.92,266.93a46.87,46.87,0,0,0,14.1-1.22l2.4-.84,2.38-1.06a69.25,69.25,0,0,0,15.38-10.1,66.3,66.3,0,0,0,5.88-5.73,86.17,86.17,0,0,0,6.56-8.19c.64-.88.72-.67.37.21a19.37,19.37,0,0,1-2.31,4.11,67.1,67.1,0,0,1-15.45,15.28,68.52,68.52,0,0,1-11.61,6.7,16.65,16.65,0,0,1-1.75.67c-.59.19-1.18.43-1.78.59l-1.82.42-.91.21-.92.13c-1.23.17-2.45.36-3.69.42l-1.84.13-1.85,0a82.54,82.54,0,0,1-9-.44A118.87,118.87,0,0,1,239.54,266c-3.43-.77-6.8-1.55-10.12-2.65a22.29,22.29,0,0,1-2.17-.75,17.25,17.25,0,0,1-2.78-1.27,3.65,3.65,0,0,1-1.34-1.33c-.13-.35,1.05-.16,3,.51a184.37,184.37,0,0,0,18.46,4.69,97.48,97.48,0,0,0,14.33,1.72Z"/><path class="cls-1" d="M80.08,248.31c4.84-3.49,17.51-7,25.15,0h-3.45l-9.88.09Z"/><path class="cls-1" d="M370.5,171.11l1.6.12.84.06a5.24,5.24,0,0,1,.91.16,8.31,8.31,0,0,1,1.23.36,13.3,13.3,0,0,1,3.64,2.35c.48.42,1,.83,1.4,1.28a5.63,5.63,0,0,1,1.45,2c.09.24-.21.36-.59.37a1.59,1.59,0,0,1-1.12-.41,27.37,27.37,0,0,0-3.25-3,7.69,7.69,0,0,0-2.44-1.19,6,6,0,0,0-1.39-.31l-1.6-.07c-.66,0-1.32-.07-2-.08a24.5,24.5,0,0,0-3,.06,14.16,14.16,0,0,0-2.19.45l-.47.13c-.58.12-.77.07-1-.31l-.17-.25c-.15-.3,0-.63.48-.87a10.62,10.62,0,0,1,4.34-.9c1.1,0,2.2,0,3.29,0Z"/><path class="cls-1" d="M254.43,91.28A9.74,9.74,0,0,1,256,86.12c.79-1.42,1.92-3.35,3.43-4.11,1-.49.1-1.31-.7-.91-3.16,1.58-6.11,6.82-5.93,10.31.05.81,1.65.55,1.62-.13Z"/><path class="cls-1" d="M197.59,122.9c-.05,0-.05-.32.68-.78,1.94-1.24,6.61-3.45,10.95-2.68,1.71.3,4.38,1.71,3.69,3.55a2,2,0,0,1-2.14,1.2C209,124,201.24,120.6,197.59,122.9Z"/><path class="cls-1" d="M148.31,207.81a13.07,13.07,0,0,1-2-5.12,11.25,11.25,0,0,1-.06-2.78,10,10,0,0,1,.56-2.71,21.25,21.25,0,0,1,1.61-3.56c1.11-2,2.38-3.76,3.35-5.67a10.34,10.34,0,0,0,1.06-2.91,10.88,10.88,0,0,0-.07-3.11c-.12-.95-.3-1.95-.36-3a19.16,19.16,0,0,1,0-3,14.39,14.39,0,0,1,.84-3.8,9.34,9.34,0,0,1,2-3.31c.56-.59.65-.35.52.36-.09.42-.19.89-.29,1.38a15.65,15.65,0,0,1-.54,1.76,16.78,16.78,0,0,0-.9,7c.08,1.17.35,2.46.41,3.82a8.5,8.5,0,0,1-.79,4.14c-1.35,2.94-3.25,5.55-4.58,8.29a11.65,11.65,0,0,0-1.35,4.68,10.43,10.43,0,0,0,.85,4.76,18.84,18.84,0,0,0,3.49,5.09c2.14,2.36,4.59,4.48,6.65,7.06a3.41,3.41,0,0,1,.71,2,5.8,5.8,0,0,1-.45,2c-.48,1.19-1,2.25-1.44,3.35a9.55,9.55,0,0,0-.39,1.46c-.32,1.82-.19,2.42-.52,2.91a2.44,2.44,0,0,1-.15.32c-.08.12-.19,0-.4-.36a3.94,3.94,0,0,1-.45-1.77,9.46,9.46,0,0,1,.65-3.54c.41-1.12,1-2.17,1.31-3.12a4.08,4.08,0,0,0,.27-1.29,1.86,1.86,0,0,0-.37-1,27,27,0,0,0-2.18-2.49L151.71,212a28.46,28.46,0,0,1-3.43-4.15Z"/><path class="cls-1" d="M194.75,233c.11-.71.25-1.42.38-2.12.05-.26.05-.52.11-.78a26.08,26.08,0,0,1,.72-2.69l.36-1.19a3.21,3.21,0,0,1,.84-1.42c.13-.13.22,0,.29.22a2.53,2.53,0,0,1,.11.76c0,.22-.05.48-.08.72s-.09.48-.14.72a11.3,11.3,0,0,1-.37,1.47,10.59,10.59,0,0,0-.32,1.87c-.09.7-.19,1.39-.28,2.09-.05.43-.11.86-.14,1.29a18.41,18.41,0,0,0-.12,2c0,.5.15,1,.18,1.48,0,.1,0,.21,0,.31,0,.39-.2.53-.46.66l-.19.08c-.19.07-.43-.07-.67-.38a6,6,0,0,1-.48-2.89,17.32,17.32,0,0,1,.18-2.16Z"/><path class="cls-1" d="M256.93,187.6s.59-.88.95,2.48c.58,5.47,16.56-5.27,16.56-5.27-.69,2.79-16,15-18.94,10.69C253.72,192.87,256.93,187.6,256.93,187.6Z"/><path class="cls-1" d="M276.88,187.63a48.51,48.51,0,0,0,3.59-3.85l1.21-1.5a53.07,53.07,0,0,0,3.95-5.55c.54-.86,1-1.76,1.5-2.64.6-1.14,1.17-2.3,1.8-3.43.39-.7.46.45-.12,1.84a40.36,40.36,0,0,1-3.86,7c-.91,1.32-1.8,2.73-2.8,4a45,45,0,0,1-3.57,4.1c-.77.8-1.58,1.57-2.39,2.32-1.25,1.14-2.55,2.22-3.85,3.26-1,.83-2,1.63-3,2.42-.23.17-.45.33-.69.49-.88.59-1.21.7-1.58.55a1.75,1.75,0,0,1-.24-.11c-.22-.16,0-.57.62-1.06,1.75-1.44,3.65-2.85,5.48-4.37,1.36-1.12,2.68-2.3,3.93-3.55Z"/><path class="cls-1" d="M389.33,456.36c-1.08-3.43-10.69-3.72-13.59-3.29-3.84.58-9.22,1.88-11.94,4.82-3.49,3.78,2.15,5.19,5,5.19C377.41,463.08,386.6,456.3,389.33,456.36Z"/><path class="cls-1" d="M407.15,459.39c-1.62,7.74-13.26,13.56-17.82,14.21s-8.55-.63-7.92-4.73,18-14.59,18-14.59,8.17,2.33,8.69,1.64S407.15,459.39,407.15,459.39Z"/><path class="cls-1" d="M368.81,263.43s25-18.09,26.95-36.85,2.81-23.24,2.81-23.24,30.11,26.83,41,56.89,4.7,94.73-2.06,126.69a390.48,390.48,0,0,1-21.15,67.58s-11.2,2.2-20.6-1.4c0,0-6.46-1.52-5.6-6.17,0,0,7.49-36.69,5.34-67.92s-3.58-77.67-17.6-100.72Z"/><path class="cls-1" d="M250.74,97.82s4.41.65,6.46,6.56-1.29,16.66-2.35,22.44-1.71,15.4,3,10.41,4.43-11.85,4.43-11.85,2.89-6.47,7.55-3.87,6.93,2.84,7.33,8.84-9.52,12.55-11.11,12.43c0,0,.83,10.93,9,3.82s18.82-20.64,20.27-30.21,4.14-29.29-21.56-33.72c0,0-11.45-1.91-21.11,11.59Z"/><path class="cls-1" d="M253.3,91.22a81.5,81.5,0,0,0-20.86-20.51c-14.72-10-35.19-14.47-50.05-2.58-13.22,10.58-18.33,32.37-4.75,44.39,6,5.32,16.36,7.93,24.33,7.22,0,0,16.67-1.28,31.25-11s19.42-14.46,19.42-14.46Z"/><path class="cls-1" d="M245.64,181.47a29.25,29.25,0,0,1-4.83,1.56,25.31,25.31,0,0,1-5.05.58,16.49,16.49,0,0,1-1.86,0l-.92,0-.92-.12a22.71,22.71,0,0,1-6.23-1.84,30.76,30.76,0,0,1-2.86-1.46c-.89-.6-1.83-1.12-2.66-1.79s-1.52-1.12-2.23-1.74-1.45-1.2-2.11-1.86c-.43-.42-.88-.81-1.3-1.24l-1.22-1.32a16.59,16.59,0,0,1-2.11-2.89c-.39-.64-.08-.75.62-.5a6.83,6.83,0,0,1,2.7,1.75,44.25,44.25,0,0,0,10.8,8.74,20,20,0,0,0,8.14,2.25,23,23,0,0,0,9.28-1.22,26.88,26.88,0,0,0,5.31-2.45,32.61,32.61,0,0,0,7-5.55,32,32,0,0,0,4.07-5.47l.72-1.29c.92-1.61,1.31-2.06,2-2.21a2.47,2.47,0,0,1,.43-.11c.41,0,.41.85-.11,2.22a30.1,30.1,0,0,1-8,10.6,33.44,33.44,0,0,1-8.58,5.46Z"/><path class="cls-1" d="M204.29,167.9a4.6,4.6,0,0,1-1.86-.55,3.12,3.12,0,0,1-1.37-1.77,8.1,8.1,0,0,1-.17-3.15,13.29,13.29,0,0,1,.37-2.11,26.63,26.63,0,0,1,3.09-6.5c.57-.88,1.14-1.77,1.75-2.63a17.11,17.11,0,0,1,1.26-1.61,6.09,6.09,0,0,1,.79-.72,3,3,0,0,1,1.07-.57c.32-.06.51.07.48.23s-.13.38-.17.63a3.17,3.17,0,0,1-.58,1.6,60.31,60.31,0,0,0-4.19,6.36,14.37,14.37,0,0,0-1.6,4.4,9.3,9.3,0,0,0-.25,2.43,4.46,4.46,0,0,0,.19,1.07.94.94,0,0,0,.47.55,4.84,4.84,0,0,0,2.8.06,22.85,22.85,0,0,0,4.67-1.55c1.18-.52,2.25-1.22,3.38-1.85.25-.13.48-.29.74-.41,1-.46,1.39-.43,1.81,0a2.51,2.51,0,0,1,.28.29c.22.36,0,.82-.61,1.31a24.42,24.42,0,0,1-6.45,3.4,23.9,23.9,0,0,1-2.76.83,11.91,11.91,0,0,1-3.14.34Z"/><path class="cls-1" d="M265.31,124.25a9.09,9.09,0,0,0-1.53,1.45,9.7,9.7,0,0,0-.64.83c-.08.14-.2.3-.25.4s0,0,0,.08c-.06,3.42-.48,8.1-4,10.93a4.31,4.31,0,0,1-1.76.8,3.73,3.73,0,0,1-2-.17,3.07,3.07,0,0,1-1.68-1.38,4.84,4.84,0,0,1-.59-1.75,18.16,18.16,0,0,1,.28-5.42,32.26,32.26,0,0,1,1.37-5.08,75.66,75.66,0,0,0,2.64-9.75,22.37,22.37,0,0,0,.06-8.74,11.67,11.67,0,0,0-2.38-4.85,13,13,0,0,0-4.39-3.24c-1-.49-.85-.72.24-.67a8.11,8.11,0,0,1,5,2.16,12,12,0,0,1,3.26,5.55,19.54,19.54,0,0,1,.64,6.24A43,43,0,0,1,257,123.52c-.36,1.13-.73,2.27-1.1,3.42a19.36,19.36,0,0,0-.83,3.38,25.24,25.24,0,0,0-.31,3.49,3.78,3.78,0,0,0,.69,2.62,1.63,1.63,0,0,1,.17.11l.28.11a1.61,1.61,0,0,0,.57.06,2.17,2.17,0,0,0,1.15-.49,6.86,6.86,0,0,0,1.89-2.54,11.24,11.24,0,0,0,.91-3.26c.09-.57.14-1.15.18-1.74l0-.89,0-1a2.37,2.37,0,0,1,.32-1c.13-.23.26-.45.4-.65a11.78,11.78,0,0,1,3.86-3.6,7.27,7.27,0,0,1,5.35-.7,9.74,9.74,0,0,1,3.55,1.9,10.81,10.81,0,0,1,2.58,3,9.75,9.75,0,0,1,.63,7.78,13.78,13.78,0,0,1-8.18,8.47,12.64,12.64,0,0,1-2.6.71c-3.38.47-4.42-.43-5-1a3.9,3.9,0,0,1-.36-.41c-.1-.2.18-.31.75-.38.28,0,.64-.07,1.06-.13s.88-.09,1.41-.12a12.73,12.73,0,0,0,8.23-3.9c2.15-2.22,3.39-5.44,2.64-8.26a7.25,7.25,0,0,0-1.51-2.86,9.77,9.77,0,0,0-2.62-2.13,5.21,5.21,0,0,0-2.95-.6,5.86,5.86,0,0,0-2.89,1.27Z"/><path class="cls-1" d="M293.32,91.27a27,27,0,0,1,4.22,9.6,29,29,0,0,1,.21,10.37A41.56,41.56,0,0,1,296,118.5a69.48,69.48,0,0,1-5.59,11.7,98.41,98.41,0,0,1-7.18,10.7c-1.17,1.51-2.4,3-3.72,4.39a27.27,27.27,0,0,1-4.34,3.88,10.17,10.17,0,0,1-3.54,1.68,5.34,5.34,0,0,1-2.15.06,4.42,4.42,0,0,1-2-.94,5.84,5.84,0,0,1-1.37-1.58,9.12,9.12,0,0,1-.47-.94,5.16,5.16,0,0,1-.24-1,9.62,9.62,0,0,1,.13-3.85c.24-.81.69-1.11.74-1s0,.5.07,1.13a17.52,17.52,0,0,0,.6,2.47,7.55,7.55,0,0,0,.58,1.41,2.15,2.15,0,0,0,.18.23c.08.1.16.22.25.32a5.15,5.15,0,0,0,.51.61,2.34,2.34,0,0,0,2.09.83,4,4,0,0,0,1.31-.35,9.62,9.62,0,0,0,1.4-.7,25.62,25.62,0,0,0,5.18-4.56,87.79,87.79,0,0,0,8.66-11.65,60.18,60.18,0,0,0,7.36-16.17,31.64,31.64,0,0,0,1.18-9.55,23.56,23.56,0,0,0-9.84-18.17,22,22,0,0,0-17.1-3.49A22.37,22.37,0,0,0,257,90.68a13.09,13.09,0,0,0-1,1.12c-.31.37-.63.76-.92,1.17-1.19,1.43-1.88,2.47-2.44,3.15-.3.33-.54.59-.76.8a5.78,5.78,0,0,1-.68.48c-.2.11-.41.29-.55.34s-.24-.23-.13-1a10.26,10.26,0,0,1,1.18-3.19,21.2,21.2,0,0,1,4-5.44,24.66,24.66,0,0,1,5.57-4.21,24.94,24.94,0,0,1,13.88-3,24.42,24.42,0,0,1,10.24,3.14,22.65,22.65,0,0,1,4.35,3.17,24.74,24.74,0,0,1,3.57,4Z"/><path class="cls-1" d="M172.78,114.91c-.54-.55-1-1.17-1.49-1.75a14,14,0,0,1-1.31-1.87,19.2,19.2,0,0,1-1.17-1.94l-1-2a29.57,29.57,0,0,1-2.17-8.75,34.7,34.7,0,0,1,3.27-17.41,37.18,37.18,0,0,1,7.34-10.65,38,38,0,0,1,19.92-10.44,44.16,44.16,0,0,1,22.31,2A65.94,65.94,0,0,1,236,71.3c6.8,5,13,11.12,17.13,18.54,1.24,2.33.76,2.17-.76.53l-7.52-8A70.63,70.63,0,0,0,225,67.3c-7.43-3.73-15.71-6.1-24.07-5.65a34.29,34.29,0,0,0-14.53,4,36.2,36.2,0,0,0-6.36,4.36,33.11,33.11,0,0,0-2.78,2.65c-.43.47-.88.92-1.29,1.42l-1.19,1.5a34.8,34.8,0,0,0-4.24,7.27l-.43,1c-.12.32-.23.66-.35,1-.22.67-.48,1.32-.68,2A35.89,35.89,0,0,0,168.2,91a36.7,36.7,0,0,0-.42,4.19,30.8,30.8,0,0,0,.24,4.19,30.31,30.31,0,0,0,.81,4.12,27.2,27.2,0,0,0,1.53,3.9,21.9,21.9,0,0,0,6.35,8,23.19,23.19,0,0,0,9.36,4.17,43.69,43.69,0,0,0,15.84,0,83.52,83.52,0,0,0,15.41-4.24,111.84,111.84,0,0,0,21.77-11.25c1.5-1,2.92-2,4.38-3.09,5.36-4,6.88-5.41,8.27-6.1a9.31,9.31,0,0,1,.91-.48c.7-.31-.68,2.31-4.46,5.7a72,72,0,0,1-9.08,6.79,110.58,110.58,0,0,1-10,5.73A100.38,100.38,0,0,1,207,120.84a64.22,64.22,0,0,1-8.77,1.48,45.1,45.1,0,0,1-9,0c-6-.53-12.15-2.88-16.51-7.39Z"/><path class="cls-1" d="M277.9,183.85a56.88,56.88,0,0,1-7.76,7.11c-1,.81-2.09,1.5-3.15,2.21-1,.55-2,1.13-3,1.59a31.83,31.83,0,0,1-3.18,1.26,11.81,11.81,0,0,1-3.47.67,3.42,3.42,0,0,1-2-.49,2.56,2.56,0,0,1-1-1.87,8.13,8.13,0,0,1,.46-3.16,23.15,23.15,0,0,1,1.16-2.78c1.12-2.23,2.12-4.44,1.71-6.81-.11-.72.18-.74.63-.15a4.66,4.66,0,0,1,.69,3.54c-.58,2.81-2.11,5-2.69,7.17a7.44,7.44,0,0,0-.27,1.6,1.34,1.34,0,0,0,.25.93,1.57,1.57,0,0,0,1.06.27,7.36,7.36,0,0,0,1.68-.23,24.87,24.87,0,0,0,8.1-4,52.81,52.81,0,0,0,7.72-6.63c1.45-1.52,2.85-3.1,4.15-4.76a62.56,62.56,0,0,0,5.4-7.89,55,55,0,0,0,3.1-6.61c.18-.5.34-1,.54-1.49.72-1.84,1-2.4,1.73-2.62a3.72,3.72,0,0,1,.48-.15c.5,0,.59.86.22,2.35a44.85,44.85,0,0,1-6,12.6,70.72,70.72,0,0,1-6.47,8.39Z"/><path class="cls-1" d="M392,355.68q-1.26-18.75-4.18-37.33c-.32-2.26-.79-4.5-1.19-6.74l-.63-3.37-.71-3.34c-.79-3.93-1.72-7.84-2.82-11.67-.59-1.89-1.14-3.8-1.91-5.64l-1.09-2.79-1.23-2.73c-.78-1.84-1.77-3.57-2.68-5.34s-2-3.45-3-5.17a92.89,92.89,0,0,0-22.63-24.17c-7.22-5.49-15.2-9.91-23.2-14.23-2.47-1.42-2-1.49.37-.92a43.88,43.88,0,0,1,11.42,4.47,103.43,103.43,0,0,1,22.73,16.94,92.17,92.17,0,0,1,9.37,10.75c1.49,1.87,2.73,3.92,4.07,5.88s2.49,4.08,3.53,6.23a90.74,90.74,0,0,1,6.63,16.05c.48,1.39.79,2.81,1.17,4.22s.77,2.82,1.06,4.25l.93,4.26c.31,1.42.6,2.84.84,4.26,2.32,12.5,3.89,25.1,5,37.74.29,3.89.66,7.78.89,11.68s.47,7.79.61,11.69c.51,11.81.4,23.69,0,35.42-.45,9.11-.9,18.06-2.08,27-.26,2-.51,3.91-.77,5.9a63.67,63.67,0,0,1-1.62,7.74,10.9,10.9,0,0,1-1.35,3.3,9.88,9.88,0,0,1-.6.94c-.52.6-.47-2.48.41-7.79a344.15,344.15,0,0,0,3.83-49.62c.06-12.6-.35-25.26-1.26-37.87Z"/><path class="cls-1" d="M444.76,320.75a235.34,235.34,0,0,0-.46-31.2,147.4,147.4,0,0,0-2.24-15.39,93.4,93.4,0,0,0-4.21-14.9,133.15,133.15,0,0,0-10.36-20.15l-2.67-4.24c-.93-1.39-1.91-2.74-2.87-4.11l-1.44-2c-.48-.69-1-1.33-1.53-2l-3.08-3.95c-1.06-1.3-2.17-2.55-3.26-3.82l-1.63-1.9c-.55-.63-1.14-1.22-1.71-1.84l-3.45-3.65-3.6-3.5-1.8-1.74-1.88-1.67c-1.25-1.11-2.49-2.24-3.76-3.33-2.6-2.11-5.14-4.3-7.85-6.27s-5.41-4-8.16-5.88c-1.38-.95-2.8-1.84-4.2-2.76s-2.83-1.81-4.27-2.66a202.44,202.44,0,0,0-32-15.72,199.8,199.8,0,0,0-21.68-7c-3.68-1-7.39-1.77-11.13-2.43a61.16,61.16,0,0,0-11.25-1.09l-1.5.06c-.42,0-.74.09-1,.11-.52.05-.77,0-.75,0s.29-.2.82-.37a10.84,10.84,0,0,1,2.32-.49c4-.54,11.59-.09,20.22,1.84a192.6,192.6,0,0,1,44,16.13,194.85,194.85,0,0,1,20.35,11.83,188.36,188.36,0,0,1,18.77,14.33,175.85,175.85,0,0,1,20.1,20.53,147,147,0,0,1,16.28,24.07A118.44,118.44,0,0,1,440.6,260l1.26,3.8.32.95.25,1,.52,1.93c.74,2.56,1.23,5.18,1.78,7.78.3,1.3.45,2.62.67,3.93s.44,2.62.6,3.94l.45,4,.23,2,.15,2c.21,2.64.42,5.29.49,7.94l.16,4,0,4c.08,3.26-.06,6.52-.1,9.78s-.23,6.51-.49,9.76l-.33,4.87-.44,4.87c-.25,3.24-.68,6.47-1,9.7a469.93,469.93,0,0,1-10.86,58c-3.74,14.73-7.83,29.1-13.48,43.1-.64,1.54-1.29,3.05-1.95,4.56L417.8,454l-.31.66a4.78,4.78,0,0,1-.23.45c0,.07-.06.17-.13.21l-.23.11c-.31.13-.63.32-.92.41l-.73.18a22.8,22.8,0,0,1-4.46.33c-1.33,0-2.53-.06-3.61-.15a48.37,48.37,0,0,1-5.34-.7,18.44,18.44,0,0,1-5.66-1.82,9.42,9.42,0,0,1-1.53-.95c-.23-.2-.1-.24.34-.17s1.19.25,2.27.42a90.58,90.58,0,0,0,10.06,1,47.51,47.51,0,0,0,4.92,0,19.39,19.39,0,0,0,2.35-.27,4.33,4.33,0,0,0,.73-.21.12.12,0,0,0,.09-.09l.16-.35c.71-1.52,1.41-3.05,2-4.62s1.28-3.14,1.89-4.73c2.44-6.36,4.59-12.92,6.6-19.58,4.06-13.3,7.48-27,10.36-40.86a401.4,401.4,0,0,0,8.23-62.54Z"/><path class="cls-1" d="M407.08,397.65c1.11-7.27,2-14.58,2.67-21.9l.3-4,.24-4a225.39,225.39,0,0,0,.28-28.35c-.12-2.09-.33-4.18-.51-6.28s-.46-4.16-.83-6.21c-.23-1.31-.43-2.63-.7-3.94l-.84-3.92-.93-3.89c-.29-1.31-.73-2.57-1.08-3.86-.45-1.61-.18-1.48.54-.23.37.63.85,1.53,1.4,2.65s1,2.48,1.51,4a109.18,109.18,0,0,1,3,16.33c.13,1.38.28,2.76.39,4.14l.21,4.15c.08,1.38.08,2.77.11,4.16s.05,2.77,0,4.16c-.06,6.64-.14,13.56-.63,20.33-.52,7.44-1.32,14.86-2.33,22.24q-.94,6.82-2.12,13.6c-1.18,6.85-2.59,13.68-4.12,20.41-1.2,5.22-2.38,10.35-3.93,15.45-.34,1.13-.69,2.23-1.08,3.35-1.54,4.14-2.63,5.33-3.64,5.8a3.73,3.73,0,0,1-.64.27c-.27,0-.19-.37.1-1s.7-1.85,1.23-3.27c1.59-4.34,2.86-9,4.08-13.73s2.31-9.58,3.32-14.46c1.5-7.24,2.82-14.56,3.9-21.91Z"/><path class="cls-1" d="M391.07,475.64a30.19,30.19,0,0,1-5.74,1.1,13.89,13.89,0,0,1-3.08-.06,6,6,0,0,1-3.22-1.4,4.89,4.89,0,0,1-1.13-5,10.67,10.67,0,0,1,2-3.47,22.15,22.15,0,0,1,2.58-2.71,46.23,46.23,0,0,1,5.83-4.38c1.8-1.16,3.64-2.28,5.51-3.3a30.91,30.91,0,0,1,3.71-1.79,11.26,11.26,0,0,1,4.07-.94c.88-.08.79.29.19.81a10,10,0,0,1-2.91,2.18,71.77,71.77,0,0,0-13.76,8.14,18.7,18.7,0,0,0-3.39,3.38,6.79,6.79,0,0,0-1.66,3.9,2,2,0,0,0,.74,1.62,3.85,3.85,0,0,0,2.06.71,16.51,16.51,0,0,0,5.22-.49,39.25,39.25,0,0,0,6.37-2.1,19,19,0,0,0,4.37-2.41,38.67,38.67,0,0,0,3.84-3.38,21.45,21.45,0,0,0,4.39-6.19,5.39,5.39,0,0,0,.27-.73,4.89,4.89,0,0,0,.21-.72l.15-.6c0-.18.05-.34.08-.49s.07-.51.15-.71a3.94,3.94,0,0,1,.53-1c.11-.15.2-.33.31-.45s.43-.14.78.24a3,3,0,0,1,.78,2.12,8.9,8.9,0,0,1-1,4,18.4,18.4,0,0,1-2.13,3.36,36.88,36.88,0,0,1-5.48,5.55c-.38.3-.74.61-1.13.91l-.58.44c-.22.16-.47.34-.69.48a23.88,23.88,0,0,1-2.69,1.4,44.78,44.78,0,0,1-5.46,2Z"/><path class="cls-1" d="M365,465.4a16.07,16.07,0,0,1-2.88-.56,5.52,5.52,0,0,1-2.83-1.88,3.67,3.67,0,0,1-.74-1.83,4,4,0,0,1,.22-1.84,7.2,7.2,0,0,1,1.72-2.66,12.35,12.35,0,0,1,3.47-2.47,29.43,29.43,0,0,1,6.73-2.25,31.62,31.62,0,0,1,7-.73c1,0,2.08.06,3.12.09l1.56.15a13.59,13.59,0,0,1,1.54.22,24.88,24.88,0,0,1,3.87,1.05l1.82.85c.59.32,1.14.72,1.69,1.09s.37.74-.44.8a8.26,8.26,0,0,1-1.52-.06,12.28,12.28,0,0,1-1.92-.33c-.58-.21-1.2-.29-1.8-.45a13.73,13.73,0,0,0-1.81-.33,6.93,6.93,0,0,1-.91-.16c-.3-.06-.61-.08-.92-.12-.61-.07-1.22-.19-1.85-.2a40.8,40.8,0,0,0-7.56.18,22.63,22.63,0,0,0-4.53,1,21.54,21.54,0,0,0-4.23,1.89,8.47,8.47,0,0,0-1.89,1.45,4.94,4.94,0,0,0-1.16,1.85,1.58,1.58,0,0,0,.39,1.63,3.75,3.75,0,0,0,1.91,1,17.38,17.38,0,0,0,6.24.27,34.57,34.57,0,0,0,9.31-2.86c2.33-1,4.52-2.27,6.83-3.39.51-.24,1-.5,1.53-.73,2-.77,2.72-.79,3.32-.38a2.14,2.14,0,0,1,.4.27c.32.33-.36,1-1.68,1.68-2,1.08-4,2.1-6.13,3.17a61.13,61.13,0,0,1-6.68,2.9,34.88,34.88,0,0,1-5.42,1.46,22.18,22.18,0,0,1-5.76.24Z"/><path class="cls-1" d="M386.35,244.72a63,63,0,0,0,5.31-9.8c.53-1.26,1-2.54,1.44-3.82a65,65,0,0,0,3.48-14c.14-1.06.26-2.13.3-3.2s.11-2.14.08-3.21c0-2.73-.17-5.47-.23-8.22,0-.86.34-.79.8-.11a9.13,9.13,0,0,1,1.31,3.6l.25,2.15c.1.72.05,1.44.08,2.16.05,1.44,0,2.89-.11,4.33a49,49,0,0,1-1.29,8.58,94.21,94.21,0,0,1-2.91,10.2,66.38,66.38,0,0,1-5.05,10.51c-1.22,2.07-2.56,4-4,6a63.05,63.05,0,0,1-7.21,8.1,35.61,35.61,0,0,1-6.63,5.21,15.48,15.48,0,0,1-1.73.86,7.2,7.2,0,0,1-1.54.42,2.94,2.94,0,0,1-1.14,0,1.94,1.94,0,0,1-.74-.28,1.47,1.47,0,0,1-.43-.51,1.53,1.53,0,0,1-.21-.51c0-.26.21-.47.55-.62l.28-.11.35-.15a3.56,3.56,0,0,1,.39-.13l.46-.16a13.42,13.42,0,0,0,2.95-1.45,31.57,31.57,0,0,0,2.88-2,50.63,50.63,0,0,0,5.39-5,64.2,64.2,0,0,0,6.84-8.83Z"/><path class="cls-1" d="M276.29,228.73c.49-.64,1-1.29,1.4-2s.89-1.35,1.32-2c.31-.5.55-1,.84-1.56a49.83,49.83,0,0,0,2.9-5.57,24.86,24.86,0,0,0,.95-2.62,29.26,29.26,0,0,1,1.18-3.37c.16-.34.41-.23.62.15a3,3,0,0,1,.3,1.74,16.53,16.53,0,0,1-1,3.61,29.29,29.29,0,0,1-1.55,3.43c-.72,1.32-1.28,2.77-2,4.11-.4.74-.85,1.46-1.28,2.18l-1.39,2.12c-.61.84-1.2,1.69-1.86,2.5-.95,1.25-2.05,2.4-3.12,3.55-.44.43-.86.87-1.28,1.32a15,15,0,0,1-1.41,1.21c-.23.15-.45.32-.69.47a1.77,1.77,0,0,1-1.08.35.85.85,0,0,1-.62-.27,1.61,1.61,0,0,1-.23-.22c-.18-.26.08-.71.56-1.15.38-.28.74-.66,1.12-1a13.52,13.52,0,0,1,1.1-1c.36-.37.73-.73,1.11-1.09l1.09-1.16a44.57,44.57,0,0,0,3-3.75Z"/><path class="cls-1" d="M223.67,237.27a150.66,150.66,0,0,1-17.78-7.38c-2.11-1-4.2-2.1-6.24-3.25l-3.24-2-3.14-2.11-3-2.27c-.51-.39-1-.82-1.46-1.22l-1.54-1.32-.16-.17,0,0s0,0,0-.06l-.06-.1a1.69,1.69,0,0,1-.2-.43,2.31,2.31,0,0,1-.11-.47,3.15,3.15,0,0,1,0-.37c0-.44-.06-.85-.07-1.25l-.07-2.4c0-1.59-.13-3.16-.3-4.73a33.78,33.78,0,0,0-2.67-10.25,22.91,22.91,0,0,0-8.66-10.05c-1.19-.75-.9-1,.36-.69a12.24,12.24,0,0,1,5.55,3.15,25.76,25.76,0,0,1,6.85,12.92,46.57,46.57,0,0,1,1,7.2c.08,1.2.12,2.4.15,3.59l.05,1.74,0,.4,0,.33a.21.21,0,0,0,0,.18s0,0,0,0a52,52,0,0,0,6.7,5.16l1.81,1.17c.61.39,1.25.74,1.87,1.11l1.87,1.09,1.91,1a137.71,137.71,0,0,0,17.4,7.78c3.68,1.35,7.41,2.59,11.19,3.66a143.06,143.06,0,0,0,17.36,3.91,50.33,50.33,0,0,0,6.74.69c2.24,0,4.48,0,6.76-.1,1,0,2-.09,3-.1,3.79,0,5.05.36,5.77,1a3.1,3.1,0,0,1,.48.48c.27.52-1.24.6-3.92.68-4,.11-8.18.54-12.55.37a52,52,0,0,1-6.52-.69c-2.15-.29-4.29-.74-6.43-1.14a162.89,162.89,0,0,1-18.75-5.11Z"/><path class="cls-1" d="M259.83,268.15a52.85,52.85,0,0,0,8.72-.07,28.87,28.87,0,0,0,8.3-1.92,20.68,20.68,0,0,0,3.73-2c1.25-.77,2.44-1.62,3.63-2.48s2.31-1.8,3.48-2.7,2.25-1.89,3.31-2.91a88.85,88.85,0,0,0,8.76-9.43,92.16,92.16,0,0,0,12.07-19.18,69.23,69.23,0,0,0,3.95-10.62,42.58,42.58,0,0,0,1.66-11.12,20.82,20.82,0,0,0-2-9.54,13.43,13.43,0,0,0-7-6.26,9.79,9.79,0,0,0-5.92-.31,16.79,16.79,0,0,0-5.59,2.57,23.49,23.49,0,0,0-8,9.42c-.91,2.37-1.37,2-1.09-.39a14,14,0,0,1,1.76-4.62,19.3,19.3,0,0,1,4.67-5.36,20.44,20.44,0,0,1,6.22-3.45,13.18,13.18,0,0,1,7.35-.42,17.08,17.08,0,0,1,1.79.6l1.63.8c.54.28,1,.67,1.54,1a9.22,9.22,0,0,1,1.41,1.17,15.46,15.46,0,0,1,4,6,22.72,22.72,0,0,1,1.39,6.91,14.45,14.45,0,0,1,.05,1.74c0,.57,0,1.16,0,1.73-.1,1.14-.14,2.3-.34,3.43a58.08,58.08,0,0,1-3.62,13.13,96.09,96.09,0,0,1-17.44,27.91c-2,2.28-4.19,4.39-6.41,6.46a81,81,0,0,1-7.11,5.7c-1.21.91-2.51,1.71-3.79,2.54-.61.43-1.36.76-2,1.14s-1.43.61-2.15.92a33.25,33.25,0,0,1-9,1.78c-7.52.49-15-.58-22.23-2.06a193,193,0,0,1-32.08-10.07c-4-1.62-7.95-3.33-11.8-5.22-1-.48-1.91-1-2.85-1.48l-.71-.39-.51-.28c-.11,0-.14-.15-.18-.23l-.13-.28-.37-.82c-.11-.26-.19-.52-.29-.78a24.75,24.75,0,0,1-1.22-6.45,43.36,43.36,0,0,1,0-5.7,54.79,54.79,0,0,1,.94-7.46,17.82,17.82,0,0,1,.88-3.23c.13-.32.28-.76.38-.94.36-.62,0,2.23-.43,7.32a56.1,56.1,0,0,0,.15,11.37,19.8,19.8,0,0,0,1.43,5.36l.19.4,0,0,.17.09,1.29.68c.87.44,1.75.87,2.64,1.3a197.14,197.14,0,0,0,22.16,8.93c5.64,1.91,11.38,3.58,17.18,4.93a105.46,105.46,0,0,0,17.57,2.77Z"/><path class="cls-1" d="M176,224.78a33.16,33.16,0,0,1-1.72-9.42c-.08-1.14-.19-2.26-.24-3.37l-.42-11.88c-.07-1.76-.14-3.53-.2-5.28a46.11,46.11,0,0,1,.08-6.75c.08-.69.39-.59.71,0A7.6,7.6,0,0,1,175,191c.19,4.54.47,9.06.63,13.66.08,2.75.47,5.6.62,8.42a42.06,42.06,0,0,0,1.21,9c.12.44.25.89.4,1.33a6.28,6.28,0,0,0,.49,1.13,8.89,8.89,0,0,0,1.8,1.89,48.74,48.74,0,0,0,7.27,4.46c2,1.05,4,2,5.89,3.24a12.87,12.87,0,0,1,1.24.89,5.26,5.26,0,0,1,.89.86,2.87,2.87,0,0,1,.49.69,1.36,1.36,0,0,1,.1,1.08,2,2,0,0,1-.17.42c-.14.18-.39.17-.7,0a10.26,10.26,0,0,1-1.17-.81c-2.86-2.21-6.63-3.91-10.3-6a42.84,42.84,0,0,1-4.1-2.53,17.63,17.63,0,0,1-2-1.67A7.67,7.67,0,0,1,176,224.8Z"/><path class="cls-1" d="M150.34,208.14a15.27,15.27,0,0,1-2.51-4.34,11.13,11.13,0,0,1-.56-5.15,11.63,11.63,0,0,1,2-4.72c.9-1.36,1.88-2.56,2.73-3.77a11.83,11.83,0,0,0,1.48-2.71,7.51,7.51,0,0,0,.4-2.87c-.09-1.79-.66-3.73-.82-5.85a15.75,15.75,0,0,1,.76-6.24,12.25,12.25,0,0,1,3.42-5.32,9.31,9.31,0,0,1,5.88-2.44,7.56,7.56,0,0,1,5.47,1.65,13,13,0,0,1,3.33,4.44,61.66,61.66,0,0,1,2.56,6.3,20.36,20.36,0,0,0,1.32,2.9,5.37,5.37,0,0,0,.86,1.08,1.58,1.58,0,0,0,1.13.35c.55,0,.86-.12.91,0s0,.17-.14.31a1.7,1.7,0,0,1-.61.49,1.56,1.56,0,0,1-.54.2,2,2,0,0,1-.74.06,3.25,3.25,0,0,1-1.67-.66,8.07,8.07,0,0,1-2.29-3.17c-1-2.19-1.68-4.32-2.57-6.31a10.68,10.68,0,0,0-3.54-4.74,5.13,5.13,0,0,0-2.56-.78,8,8,0,0,0-2.87.41,7.15,7.15,0,0,0-2.55,1.45,8.79,8.79,0,0,0-2,2.34,12.39,12.39,0,0,0-1.62,7.49c.1,1.3.45,2.68.7,4.11a10.45,10.45,0,0,1,0,4.62,13.56,13.56,0,0,1-2.27,4.43c-.92,1.29-1.88,2.49-2.66,3.74a8.54,8.54,0,0,0-.73,8.1,16.87,16.87,0,0,0,3,4.53c1.24,1.41,2.61,2.74,3.92,4.16a31.56,31.56,0,0,1,2.8,3.46,11.85,11.85,0,0,1,1.09,2.07,5,5,0,0,1,.15,2.45,17.91,17.91,0,0,1-1.62,4.18,11.58,11.58,0,0,0-1.17,3.9,5.33,5.33,0,0,0,.59,2.87,7.31,7.31,0,0,0,2,2.26,16.89,16.89,0,0,0,5.67,2.66c.9.26,1.8.44,2.73.62,3.48.58,4.57.65,5.36,1.12.18.09.42.16.53.23.4.15-1.11.93-3.89.81a26.83,26.83,0,0,1-6.13-1.07,16.86,16.86,0,0,1-5.87-3,8.85,8.85,0,0,1-2.31-2.8,7.46,7.46,0,0,1-.75-3.74c.16-2.5,1.33-4.59,2.15-6.38.61-1.35,1-2.52.65-3.47a8.75,8.75,0,0,0-.91-1.7,21.39,21.39,0,0,0-1.32-1.73c-1.92-2.26-4.29-4.32-6.36-6.87Z"/><path class="cls-1" d="M269.53,204.08c.86.37,1.7.75,2.54,1.14.3.14.62.24.93.38,1.06.53,2.11,1.08,3.14,1.64.47.24.95.45,1.42.65a7.13,7.13,0,0,1,1.8.87c.34.25-.63,1.15-1.36.91a21.85,21.85,0,0,1-3.69-1.67,17.75,17.75,0,0,0-2.27-1c-.84-.35-1.68-.72-2.52-1.05-.52-.21-1-.42-1.57-.6a21.17,21.17,0,0,0-2.42-.76,15.48,15.48,0,0,0-1.92-.23c-.14,0-.28,0-.42,0-.52-.08-.66-.23-.69-.73,0-.11,0-.22,0-.33a.7.7,0,0,1,.7-.68,9.4,9.4,0,0,1,3.71.5c.9.27,1.78.61,2.66.95Z"/><path class="cls-1" d="M385.42,157.65A32,32,0,0,0,371,153.32a55.77,55.77,0,0,0-5.64-.09A101,101,0,0,0,345.51,156c-2.92.67-5.83,1.41-8.68,2.24-1.83.54-3.68,1.08-5.59,1.48a21.05,21.05,0,0,1-5.82.52c-1.22-.08-1-.36-.05-.75.49-.2,1.18-.45,2-.74a17.52,17.52,0,0,1,2.79-.82c3.68-.85,7.42-2.1,11.26-3s7.67-1.77,11.59-2.37a92.53,92.53,0,0,1,14.51-1.39,38.88,38.88,0,0,1,15.83,3.07,26.18,26.18,0,0,1,8.22,5.67,19.39,19.39,0,0,1,2.41,3,21.37,21.37,0,0,1,1.74,3.4,46.65,46.65,0,0,1,2.16,7.16c.86,3.74,1.62,7.39,2.43,11.06.18.81.36,1.6.55,2.41.64,3,.71,4,.31,4.77a2.2,2.2,0,0,1-.28.51c-.35.39-1-.76-1.61-3-.9-3.27-1.61-6.67-2.32-10.09A92.2,92.2,0,0,0,394.51,169a19.49,19.49,0,0,0-3.42-6.51,22.78,22.78,0,0,0-2.63-2.66,25.58,25.58,0,0,0-3.06-2.17Z"/><path class="cls-1" d="M370,170.12c.69,0,1.37-.07,2.08-.08a8.24,8.24,0,0,1,1.19.07,8.39,8.39,0,0,1,1.15.27,11.24,11.24,0,0,1,1.54.55,13.6,13.6,0,0,1,4.25,3.52,15.64,15.64,0,0,1,1.41,2,4.81,4.81,0,0,1,.84,3.08c0,.34-.44.27-.85,0a2.79,2.79,0,0,1-.59-.43,1.29,1.29,0,0,1-.42-.55,13.37,13.37,0,0,0-3-4.3,8.36,8.36,0,0,0-2.87-1.77A6.85,6.85,0,0,0,373,172a11,11,0,0,0-1.89,0c-.82.05-1.65.12-2.47.21a32.19,32.19,0,0,0-3.69.57,13,13,0,0,0-2.61,1c-.18.08-.33.19-.48.27s-.42.21-.53.18a1.64,1.64,0,0,0-.51-.17.91.91,0,0,0-.36,0c-.2,0-.41,0-.46-.38a1.41,1.41,0,0,1,.47-1.06,7.41,7.41,0,0,1,2.66-1.46,16.46,16.46,0,0,1,2.75-.67c1.37-.23,2.75-.36,4.13-.48Z"/><path class="cls-1" d="M111.71,144.16l12.85.18c1.56,0,3.12,0,4.69,0,5.51.14,11,.37,16.55.77,2.45.18,4.92.34,7.37.59a37.83,37.83,0,0,1,4.76.73,13.32,13.32,0,0,1,2.39.78,5.51,5.51,0,0,1,2.27,1.68,1.14,1.14,0,0,1,.26.73.32.32,0,0,1-.24.33,5.81,5.81,0,0,1-1.2,0,13.62,13.62,0,0,1-3.74-.29,62.55,62.55,0,0,0-9-1.33c-3.11-.3-6.27-.53-9.45-.79-3.81-.31-7.79-.18-11.7-.21l-12.93-.08-8,0c-4,0-8.06-.11-12.06-.15-3.12,0-6.17.05-9.29-.12-.69,0-1.37-.06-2.07-.14-2.58-.32-3.45-.86-3.73-1.75a2.58,2.58,0,0,1-.15-.61c0-.63,1-.69,2.74-.56,2.61.19,5.38.19,8.2.22h8.57c4.28,0,8.6,0,12.91,0Z"/><path class="cls-1" d="M121.78,270.74c-5.42-.19-10.81-.49-16.25-1.15l-1.37-.19a2.69,2.69,0,0,1-1-.3l-.23-.12-.11-.08,0,0,0,0h0s0-.06,0,.07h0c-.12-.13-.24-.25-.35-.39s-.24-.42-.35-.64l-.15-.32-.09-.24a7.65,7.65,0,0,1-.31-.92,10.84,10.84,0,0,1-.35-1.84,28.44,28.44,0,0,1,.68-8.35c.28-1.34.61-2.66,1-4l.45-1.66a2.73,2.73,0,0,0,.1-.41c0-.09,0-.11-.12-.12l-.19-.07-.29-.08-.39-.11-1.13-.28c-.75-.17-1.51-.34-2.27-.49a42.7,42.7,0,0,0-9-.84,26,26,0,0,0-10.92,2.35c-1,.48-1.29-.07-.66-1.1a5.18,5.18,0,0,1,1.66-1.71,8.4,8.4,0,0,1,1.36-.8,15.94,15.94,0,0,1,1.65-.55,33.81,33.81,0,0,1,10.68-.58,50.42,50.42,0,0,1,5.22.73c.86.17,1.72.35,2.58.55.43.1.85.22,1.28.33l1.9.53c.39.25.86.4,1,.78a2.27,2.27,0,0,1,.08,1.36c-.09.48-.25,1.1-.34,1.41l-.25.86a43,43,0,0,0-1.47,7,16.36,16.36,0,0,0,.37,6.81c0,.13.12.31.14.38l.08.17c0,.12.14.14.26.16l.23.05.45.06c.6.09,1.22.16,1.84.22,1.25.13,2.5.24,3.75.34,2.51.19,5,.32,7.54.42,3.32.12,6.65.18,10,.15,5-.05,10.09-.24,15.06-.73a109.06,109.06,0,0,0,11.35-1.81c.82-.15,1.62-.37,2.45-.54,3.06-.66,4.05-.77,4.88-.28a3,3,0,0,1,.56.34c.43.41-.72,1.19-3,1.88a95.07,95.07,0,0,1-21.39,3.57c-5.46.33-11,.37-16.42.26Z"/><path class="cls-1" d="M72.64,211.18,72.56,196c0-1.85-.11-3.7-.11-5.54q0-9.78.09-19.55c0-2.89,0-5.8,0-8.68A69.32,69.32,0,0,1,73,151.08c.18-1.16.74-.91,1.23.11a8.46,8.46,0,0,1,.62,2,12.49,12.49,0,0,1,.27,2.85c-.14,7.45,0,15-.23,22.54-.1,4.53.14,9.24.24,13.88l.28,15.29.18,9.42c.11,4.75.17,9.53.34,14.24.12,3.67.39,7.26.56,10.89,0,.8.1,1.58.12,2.38.07,3-.11,3.95-.8,4.6a2.66,2.66,0,0,1-.47.43c-.53.29-1-.92-1.21-3.1-.32-3.23-.59-6.55-.8-9.92s-.39-6.78-.46-10.21c-.15-5.1-.21-10.22-.29-15.33Z"/><path class="cls-1" d="M139.3,176.43a5.53,5.53,0,0,0-2.24-.41l-20.46.31-10,.15c-.67,0-16.43-1.08-13.56,1.56.62.57,9.87.42,10.72.43l33.42.13c1.09,0,3.06.76,3.15-.68A1.54,1.54,0,0,0,139.3,176.43Z"/><path class="cls-1" d="M133.55,208.79c-.67-.35-.58-.47-1.35-.45-5.88.1-7.76.2-13.64.3-2.16,0-20.67-.86-19.4,1.83.54,1.17,17.25.41,19.3.42,5.92,0,7.83.09,13.74.09.71,0,.44,0,1.09-.27s1.21.12,1.2-.59A1.5,1.5,0,0,0,133.55,208.79Z"/><path class="cls-1" d="M137.74,196.33c-5.81-.15-11.63-.1-17.45,0-3,.06-6-.22-8.93-.06-.81,0-15.64-.08-16.19.58s-.74,1.66.47,1.67l42,.16a.93.93,0,0,0,.92-.75l.1-.52A.93.93,0,0,0,137.74,196.33Z"/><path class="cls-1" d="M132.23,228.77c-5.81-.14-2.63-.09-8.45,0-3,.07-6-.21-8.94-.05-.8,0-3.63-.08-4.19.57s-.73,1.67.48,1.67l21,.17a.94.94,0,0,0,.92-.76l.1-.51A.94.94,0,0,0,132.23,228.77Z"/><path class="cls-1" d="M87.47,257.73c1.23.63,2.45,1.29,3.65,2,.43.26.9.47,1.33.75a30.8,30.8,0,0,1,4.29,3.38,19,19,0,0,1,1.67,1.8,5.76,5.76,0,0,1,1.38,2.86c0,.34-.3.37-.71.23a2.53,2.53,0,0,1-.65-.3,1.46,1.46,0,0,1-.56-.48,12.41,12.41,0,0,0-1.82-2c-.67-.62-1.36-1.27-2.09-1.92a17,17,0,0,0-3.08-1.89c-1.18-.64-2.38-1.26-3.59-1.89-.75-.38-1.5-.76-2.26-1.12-1.16-.55-2.31-1.13-3.49-1.63-.92-.4-1.86-.71-2.79-1.16a4,4,0,0,1-.62-.31c-.74-.46-.88-.81-.64-1.35a2.37,2.37,0,0,1,.17-.36,1,1,0,0,1,1.2-.27,47,47,0,0,1,4.89,1.81c1.24.54,2.49,1.14,3.75,1.73Z"/><path class="cls-1" d="M108,150.94l10.89.13c1.33,0,2.65,0,4,0q7,.1,14,.37l6.23.15a45.4,45.4,0,0,1,8,.62c.82.16.63.7-.12,1.15a6.46,6.46,0,0,1-3.55.76c-5.31-.34-10.68-.46-16.1-.78-3.25-.18-6.63,0-10-.06l-11,0-6.76-.06c-3.41,0-6.84-.13-10.24-.21-2.64-.07-5.23,0-7.87-.25-.58,0-1.16-.1-1.75-.16-2.18-.32-2.89-.76-3.14-1.45a2.53,2.53,0,0,1-.15-.47c0-.48.86-.48,2.33-.32,4.45.41,9.35.4,14.23.48l11,.1Z"/><path class="cls-1" d="M78.09,210,78,196.9l-.1-4.79q0-8.43,0-16.88c0-2.49,0-5,0-7.48a68.36,68.36,0,0,1,.37-9.59c.12-1,.58-.81,1,.06a10.51,10.51,0,0,1,.72,4.22c-.12,6.44-.06,12.92-.19,19.46-.08,3.92.13,8,.21,12l.25,13.21q.09,4.07.16,8.13c.1,4.1.15,8.22.29,12.3.09,3.16.3,6.26.43,9.4,0,.69.08,1.36.1,2.06,0,2.58-.09,3.4-.64,4a2.62,2.62,0,0,1-.38.37c-.42.25-.8-.8-1-2.68-.25-2.79-.47-5.66-.63-8.56s-.3-5.87-.37-8.83c-.12-4.39-.17-8.81-.25-13.22Z"/><path class="cls-1" d="M139,264.76c-2.66,0-5.3,0-8-.08-1,0-1.93,0-2.89,0-3.4-.11-6.8-.3-10.19-.48-1.5-.08-3-.11-4.51-.13a42.66,42.66,0,0,1-5.76-.29c-1.19-.18.41-1.92,2.61-1.87,3.91.11,7.8.29,11.73.61,2.36.19,4.81.11,7.22.13q4,0,7.94,0c1.63,0,3.26,0,4.89-.11,2.47-.08,4.94-.19,7.38-.42,1.9-.16,3.74-.51,5.59-.79l1.22-.21c1.52-.23,2-.15,2.44.34a2.61,2.61,0,0,1,.27.33c.21.39-.37.82-1.49,1.11A55.52,55.52,0,0,1,147,264.52c-2.67.18-5.36.25-8,.29Z"/><path class="cls-1" d="M190.28,235.1l5.1,2.82,2.49,12.32C190.12,247.88,189.79,236.55,190.28,235.1Z"/><path class="cls-1" d="M283.41,183.79a64.33,64.33,0,0,1-4.91,5.27c-.63.61-1.28,1.2-1.94,1.78a46.63,46.63,0,0,1-7.62,5.24c-.58.36-1.21.64-1.81,1s-1.2.65-1.84.9l-2.43,1c-.84.24-1.69.46-2.53.64-.54.12-.52-.13-.15-.5a5.63,5.63,0,0,1,2-1.21,56.36,56.36,0,0,0,9.11-4.82c.43-.28.87-.58,1.3-.88s.83-.68,1.24-1l1.22-1,1.16-1.11a61.73,61.73,0,0,0,4.9-5.07c.91-1.13,1.87-2.23,2.7-3.42l1-1.33.92-1.38c.62-.91,1.17-1.86,1.71-2.81a45.08,45.08,0,0,0,2.14-4.57l.42-1c.52-1.27.8-1.63,1.36-1.72a1.67,1.67,0,0,1,.38-.06c.39,0,.44.65.14,1.65a36.57,36.57,0,0,1-4.12,8.65,61.3,61.3,0,0,1-4.26,5.9Z"/><path class="cls-1" d="M220.12,133.6c-.07,3.82,1.13,12.38,6.65,11.7,4.43-.54,7.45-6.85,7.82-10.75.13-1.37-2-1.37-2.15,0-.27,2.82-2.51,7.59-5.43,8.51-4,1.27-4.78-7.05-4.74-9.46a1.08,1.08,0,0,0-2.15,0Z"/><path class="cls-1" d="M200.44,137.18c.07,3,1.19,8.66,5.28,8.37,4.42-.32,5.76-6.93,6.36-10.24.24-1.35-1.83-1.93-2.08-.57-.41,2.29-1.21,8-4.18,8.62-2.69.58-3.19-4.54-3.23-6.18a1.08,1.08,0,0,0-2.15,0Z"/><path class="cls-1" d="M228.11,168.09a2,2,0,0,0,.77,2.35,2.41,2.41,0,0,0,2.23-.05,2.2,2.2,0,0,0,1.29-1.8,2.5,2.5,0,0,0-1.43-2.16,1.15,1.15,0,0,0-1.36.18,4,4,0,0,0-1.29,1.91c-.44,1.38,1.74,2,2.17.59a2,2,0,0,1,.71-.91l-1.36.17s.38.29.2.13l.13.12c.09.1.08.08,0,0l.07.12c-.07-.17-.08-.21-.05-.1s0,.08,0-.12c0,.11,0,.07,0-.14-.08.27.12-.18,0,0s.17-.21,0,0-.27.15,0,0l-.21.12c-.14.12.26-.11,0,0s-.32,0,0,0a.91.91,0,0,1-.17,0c-.2,0,.31.08,0,0,.18.08.23.1.13.05s-.06,0,.1.09c-.07-.08-.05,0,.08.11,0-.1,0-.06.05.12,0-.15,0,.3,0,0,0-.13,0-.1,0,.06,0-.06,0-.12,0-.18a1.13,1.13,0,0,0-2.17-.6Z"/><path class="cls-1" d="M242.55,124.84c.21.55-2.1-.36-2.26-.43-1.45-.6-2.84-1.31-4.28-1.93a10.88,10.88,0,0,0-7.94,0c-1.52.55-5.69,3.48-7,1.47s1.05-4.62,2.66-5.26C232.09,115.38,240.75,119.9,242.55,124.84Z"/><path class="cls-1" d="M161.16,45.2c-.18-.13,0-.33.45-.59a1.65,1.65,0,0,1,.66-.17,2.13,2.13,0,0,1,.4.2c.07,0,.55.91.73,1.2a3.61,3.61,0,0,1,.36.89l.55,1.87a1.49,1.49,0,0,1,.05.43,4,4,0,0,0,.24,1.47.36.36,0,0,0,.13.22,4.35,4.35,0,0,1,.35,1.62c-.07.46-.09.91-.13,1.35,0,.07,0,.13-.07.2a.48.48,0,0,0-.14.43,3.83,3.83,0,0,1-.07.58,1.68,1.68,0,0,1-.15.3c-.05.09-.26.08-.28,0s-.17,0-.25,0h-.09a5,5,0,0,1-.4-.48c-.19-.25-.42-.5-.44-.55s-.54-1.46-.64-1.62,0-.18,0-.27-.49-1.17-.48-1.22c0-.25-.17-.48,0-.76a.29.29,0,0,0,0-.16,7.61,7.61,0,0,1-.23-1.28c0-.22-.11-.42-.16-.64,0,0,0-.08,0-.13a.75.75,0,0,0,0-.15,11.93,11.93,0,0,0-.41-1.53c-.05-.11,0-.72-.05-.85S161.23,45.26,161.16,45.2Z"/><path class="cls-1" d="M139.85,71.69c-.21.15-.4-.12-.56-.63a1.53,1.53,0,0,1,0-.74,3.18,3.18,0,0,1,.36-.37c.07-.06,1.24-.34,1.65-.46a4.71,4.71,0,0,1,1.18-.15c.8,0,1.62-.06,2.45,0a2,2,0,0,1,.54.09,7.16,7.16,0,0,0,1.89.29.54.54,0,0,0,.33,0,5,5,0,0,1,2.15.38c.52.33,1,.6,1.51.95.07.05.16.06.19.19s.24.32.39.42a2.74,2.74,0,0,1,.57.46,1.76,1.76,0,0,1,.18.39c0,.13-.17.37-.21.39s-.14.2-.2.32l-.07.12a4.71,4.71,0,0,1-.73,0,7.12,7.12,0,0,1-.78,0,1.61,1.61,0,0,0-.28-.06l-.61-.13a8.38,8.38,0,0,0-1-.12.65.65,0,0,1-.28-.13s-1.45-.06-1.5-.07c-.28-.08-.58,0-.85-.26a.22.22,0,0,0-.17,0,11.7,11.7,0,0,1-1.53-.21,7.06,7.06,0,0,0-.8,0l-.14,0a.59.59,0,0,0-.19,0,15.35,15.35,0,0,0-1.92,0c-.14,0-.86-.21-1-.17S139.94,71.63,139.85,71.69Z"/></g></svg>