<svg xmlns="http://www.w3.org/2000/svg" width="520" height="520" viewBox="0 0 520 520"><defs><style>.cls-1,.cls-2{fill:#231f20;}.cls-2{opacity:0.3;}</style></defs><title>Notioly New</title><g id="_147.Multitasking" data-name="147.Multitasking"><path class="cls-1" d="M445.83,214.79,438,216.38l-2.85.63c-3.36.7-6.72,1.4-10.07,2.15-1.48.34-3,.72-4.43,1.1-1.88.48-3.75,1-5.65,1.41-.59.12-.58-.12-.15-.48a6.91,6.91,0,0,1,2.36-1.18c3.81-1.13,7.67-2.06,11.59-2.86,2.35-.48,4.75-1.12,7.14-1.67l7.88-1.74,4.86-1.05,7.34-1.58c1.89-.43,3.72-.94,5.58-1.4l1.22-.32c1.54-.34,2.05-.33,2.47,0a1.79,1.79,0,0,1,.28.26c.22.31-.36.72-1.46,1-3.29,1-6.81,1.73-10.34,2.48l-7.91,1.62Z"/><path class="cls-1" d="M181.11,239s-3.75-13-3.33-14.77,26.92-.65,26.92-.65,6.31,30.33,5.79,29.21c-.23-.51-13-8.88-16.05-8.67s-8,2.22-8,2.22a4.45,4.45,0,0,1,1-3.06c1.11-1.09,8.26-8.45,7.53-10.21s-2.92-3.19-5.73-1.14S181.11,239,181.11,239Z"/><path class="cls-1" d="M207.67,256.33s3.17.65,3.38,0,3.77,18.9,3.77,18.9l-13.73,2s-2.87-10.12-6.18-10.1l1.19-.94,1.46-1s6.32,4.16,8.53,3.24,2.85-.9,2.43-1.68-1.68-3.13-1.68-3.13,2.92-.17,3.14-1.54S207.67,256.33,207.67,256.33Z"/><polygon class="cls-2" points="49.37 145.77 68.17 139.77 100.51 148.83 86.86 156.34 49.37 145.77"/><path class="cls-1" d="M266.08,266.46a14.8,14.8,0,0,0-1.35-2.32c-.19-.26-.42-.49-.63-.73a10.13,10.13,0,0,0-2.53-2.35,7.62,7.62,0,0,0-1.41-.68,16.71,16.71,0,0,1-1.91-.68c-.39-.19.39-1.11,1.22-.95a9.66,9.66,0,0,1,4,1.94,20.14,20.14,0,0,1,2.1,1.82,15.47,15.47,0,0,1,1.72,2.48c.32.52.56,1.08.84,1.62.39.83.71,1.68,1.07,2.51.28.64.63,1.24.91,1.88a3.75,3.75,0,0,1,.19.41c.2.54.14.75-.28,1l-.29.17a.74.74,0,0,1-.94-.31,17.42,17.42,0,0,1-1.69-3.3c-.34-.85-.69-1.69-1.1-2.5Z"/><path class="cls-1" d="M234.47,261.45c.76-.55,1.55-1.07,2.35-1.58.3-.18.56-.42.87-.59a16.47,16.47,0,0,1,3.47-1.4c.52-.18,1.09-.28,1.64-.44.36-.06.74-.12,1.12-.15a2.74,2.74,0,0,1,1.12.26c.22.11.05.63-.21,1.14s-.56,1-.81,1-.5.1-.74.13-.51.14-.78.19c-.53.11-1.11.21-1.73.35a6.53,6.53,0,0,0-2,1.08q-1.11.67-2.19,1.47c-.44.31-.87.66-1.29,1a18.43,18.43,0,0,0-1.84,1.69c-.43.49-.75,1.06-1.14,1.58a2.8,2.8,0,0,1-.25.35c-.36.4-.61.42-1.12.07l-.35-.24a1,1,0,0,1-.35-1.11,8.21,8.21,0,0,1,.86-1.63,11.54,11.54,0,0,1,1.23-1.39c.66-.66,1.4-1.26,2.13-1.86Z"/><path class="cls-1" d="M119.6,232.39c-.82.6-1.65,1.2-2.49,1.78-.31.22-.58.47-.89.67-1.1.74-2.24,1.41-3.4,2.06-.54.26-1,.61-1.58.84a5.81,5.81,0,0,1-1.08.44,3.51,3.51,0,0,1-.58.13,4.42,4.42,0,0,1-.63,0c-.26,0-.2-.27,0-.56a2.09,2.09,0,0,1,.72-.79l.44-.21.44-.27c.3-.16.59-.36.91-.52l1.95-1a18.38,18.38,0,0,0,2.23-1.57c.81-.6,1.63-1.2,2.43-1.82l1.48-1.15c.74-.59,1.5-1.17,2.2-1.8.54-.5,1-1,1.6-1.49.12-.11.23-.22.36-.32.49-.36.75-.35,1-.22.06,0,.12.06.17.1s.08.42-.16.8a15.58,15.58,0,0,1-2.71,3c-.76.67-1.55,1.32-2.36,2Z"/><path class="cls-1" d="M97.82,209.05,95,207c-.35-.26-.71-.49-1.05-.75-1.19-.92-2.37-1.86-3.49-2.9-.5-.45-1-.9-1.48-1.38a4.47,4.47,0,0,1-1.44-2.25c0-.31.16-.25.38-.09a3.86,3.86,0,0,1,.8.72,34,34,0,0,0,3.72,3.38c.77.68,1.69,1.26,2.55,1.88l2.87,2,1.78,1.24,2.7,1.89c.69.49,1.43.9,2.11,1.43l.43.38a1.43,1.43,0,0,1,.44.68.6.6,0,0,1,0,.46s0,.12-.08.16-.37,0-.8-.22-.61-.37-.93-.55l-.92-.63c-.63-.43-1.27-.86-1.91-1.32l-2.86-2.05Z"/><path class="cls-1" d="M68.57,150.73c2.86.89,5.72,1.76,8.59,2.59l3.15.85c1.84.51,3.7,1,5.54,1.39l.65.09.32,0a1.52,1.52,0,0,0,.23,0,7.9,7.9,0,0,0,1.24-.42c.86-.36,1.72-.78,2.57-1.21,1.52-.76,3-1.61,4.48-2.45a54.35,54.35,0,0,1,5.77-3.12c1.26-.53.38,1.54-1.79,2.74-1.94,1.07-3.88,2.16-5.86,3.2-1,.52-2,1-3,1.5-.52.24-1,.47-1.58.69a6.78,6.78,0,0,1-1.91.52,13.49,13.49,0,0,1-2.17-.35c-.69-.13-1.36-.3-2-.46-1.36-.31-2.7-.66-4-1-2.92-.8-5.81-1.68-8.7-2.55l-5.33-1.64-8-2.49c-2.08-.63-4.14-1.16-6.21-1.75l-1.35-.39c-1.69-.55-2.19-.84-2.42-1.33a1.36,1.36,0,0,1-.15-.33c-.06-.33.69-.32,1.94,0,3.73.88,7.59,2.07,11.47,3.24l8.66,2.65Z"/><path class="cls-1" d="M76.23,228.56q-4.08-1.45-8.11-3c-1-.37-2-.7-3-1.08-3.45-1.33-6.89-2.71-10.32-4.08-1.53-.61-3.07-1.2-4.59-1.77a55.64,55.64,0,0,1-5.8-2.45c-1.17-.59.76-.88,3-.1,4,1.44,8,3,11.93,4.69,2.37,1,4.92,1.84,7.38,2.75,2.72,1,5.44,2,8.17,2.93,1.68.6,3.36,1.18,5,1.71,1.28.41,2.57.82,3.85,1.15.32.07.66.18,1,.22a3.27,3.27,0,0,0,.8.08,8.36,8.36,0,0,0,1.7-.8,60.51,60.51,0,0,0,5.07-3.47l1.09-.8c1.38-1,1.88-1.2,2.43-1a1.61,1.61,0,0,1,.37.12c.33.19-.08.81-1,1.6-1.44,1.16-3,2.29-4.57,3.37-.81.54-1.63,1.07-2.5,1.57-.45.24-.88.49-1.4.72-.13.05-.25.11-.42.16a2,2,0,0,1-.56.13l-.35,0-.24,0-.43-.06A37,37,0,0,1,80.38,230c-1.39-.44-2.78-.91-4.16-1.38Z"/><path class="cls-2" d="M91.41,178.71a3.34,3.34,0,0,1,1.23-1.83c1.55-.44,1.5,2.74,1.85,3.54,1.08,2.42,2.17-1.54,2.06-1.67a1.79,1.79,0,0,1,.31.72c.5,2-3.29,7.85-4.29,5.5A22.36,22.36,0,0,1,91.41,178.71Z"/><path class="cls-1" d="M251.68,279.88a2.79,2.79,0,0,1,.3,1.77,3.5,3.5,0,0,1-.52,1.34l-.34.48a2.62,2.62,0,0,1-.48.4,2.45,2.45,0,0,1-1.85.15,3.26,3.26,0,0,1-1.23-.72,4.73,4.73,0,0,1-.84-1c-.06-.14-.14-.29-.2-.44s-.05-.29-.07-.43a2.16,2.16,0,0,1,.1-.44,1.25,1.25,0,0,1,.28-.37c.14-.15.63.15,1,.39a2.63,2.63,0,0,0,.94.34s0,0,0-.06v0h0l-.18.09h0l0,0s.12-.07.1-.07,0,0,0,0,.12.23.22.4.16.12.17.1,0,0,0,.06,0,0,0,0l-.07-.06h0a.37.37,0,0,1,.06-.1.48.48,0,0,1,0-.14s0,0,0-.08.06,0,0-.11a.69.69,0,0,0-.66,0,.14.14,0,0,0,0,.2,1.35,1.35,0,0,0-.15-.13c-.09,0,0,0,0,0a.33.33,0,0,0,.13,0,1.27,1.27,0,0,1,.18,0l.12,0s0,0-.05,0-.39.18-.75.37l-.44.26c-.43.28-1.1.43-1.44,0a1.77,1.77,0,0,1-.34-1.38,2,2,0,0,1,.25-.77,2.5,2.5,0,0,1,.21-.35l.23-.27a3.14,3.14,0,0,1,2.11-1,3.75,3.75,0,0,1,1.61.31,3.35,3.35,0,0,1,1.48,1.27Z"/><path class="cls-1" d="M58.66,387.21l4.52.1h1.65l5.8.1c.86,0,1.72,0,2.57,0,1.1,0,2.2-.09,3.29,0,.68,0-.18.72-1.44.81-2.23.12-4.46.21-6.71.18-1.35,0-2.75.08-4.12.12l-4.55.09-2.79.05c-1.41,0-2.83,0-4.23.07-1.09,0-2.15.21-3.23.23-.24,0-.47,0-.71,0-.88,0-1.17-.09-1.37-.38a1,1,0,0,1-.13-.2c-.1-.23.26-.43.9-.56a30.2,30.2,0,0,1,6-.56c1.51-.05,3-.05,4.56,0Z"/><path class="cls-1" d="M182.84,303.37c-.73-1.14-1.44-2.29-2.09-3.48-.24-.42-.52-.83-.74-1.28a40.79,40.79,0,0,1-2-4.79l-.77-2.16a12,12,0,0,1-.8-2.81c-.08-.61,1.33-.19,1.72.81.68,1.8,1.38,3.57,2,5.4a20.43,20.43,0,0,0,1.61,3.16c.66,1.13,1.33,2.26,2.08,3.34.44.68.92,1.33,1.4,2,.74,1,1.47,2,2.27,2.94.62.73,1.32,1.38,1.92,2.12a4.72,4.72,0,0,1,.41.48c.47.63.52.91.26,1.31a2.4,2.4,0,0,1-.18.26c-.23.26-.65.17-1.09-.2-.64-.57-1.31-1.13-1.91-1.77s-1.15-1.34-1.71-2c-.84-1-1.64-2.13-2.42-3.25Z"/><path class="cls-1" d="M281.56,396.59c.2-1.23.33-2.49.42-3.76,0-.46,0-.93,0-1.39q.12-2.46.18-4.95c0-.73,0-1.47,0-2.2a14.77,14.77,0,0,1,.05-2.82c.07-.59,1.13.15,1.24,1.22a34.28,34.28,0,0,1,.13,5.74c-.1,1.16,0,2.36,0,3.55s-.13,2.62-.26,3.93c-.1.81-.2,1.62-.36,2.42a29.83,29.83,0,0,1-.88,3.59,16.63,16.63,0,0,1-1,2.72,3.72,3.72,0,0,1-.27.57c-.44.68-.68.83-1.11.71a1.38,1.38,0,0,1-.29-.08c-.29-.13-.34-.55-.15-1l.23-.54.18-.57c.13-.38.28-.74.38-1.13.28-.75.51-1.53.73-2.32a28.75,28.75,0,0,0,.73-3.65Z"/><path class="cls-1" d="M400.65,388.89l-8-.25-2.91-.05-10.25-.39c-1.51,0-3,0-4.53.11a43.39,43.39,0,0,1-5.82.15c-.6,0-.52-.36,0-.7a5.51,5.51,0,0,1,2.52-.81q2.94-.26,5.94-.31c2,0,4,.09,6,.19,2.38.14,4.86.07,7.3.11l8,.18,4.94.12c2.5,0,5,.11,7.49.1,1.92,0,3.81-.12,5.72-.19.42,0,.83,0,1.25,0,1.57,0,2.07.16,2.4.61a1.43,1.43,0,0,1,.22.3c.15.35-.49.63-1.63.76a92.53,92.53,0,0,1-10.6.31l-8-.15Z"/><path class="cls-1" d="M378.93,298.83l1.27,3.39c.16.41.36.8.52,1.21.55,1.44,1.09,2.9,1.67,4.34.27.63.56,1.26.86,1.87a14.93,14.93,0,0,1,1.09,2.37c.08.26-.24.4-.66.37a1.62,1.62,0,0,1-1.22-.7c-.46-.79-.88-1.59-1.26-2.42a27,27,0,0,1-.92-2.57c-.32-1-.84-2-1.25-3.08l-1.32-3.41-.79-2.11c-.41-1.06-.79-2.14-1.23-3.18-.33-.81-.75-1.57-1.12-2.37a3.14,3.14,0,0,1-.23-.53,1.31,1.31,0,0,1-.07-.78.83.83,0,0,1,.24-.44l.16-.16c.17-.13.49.07.87.48a11.06,11.06,0,0,1,1.14,2.08c.33.73.65,1.48.95,2.24.44,1.12.89,2.25,1.34,3.38Z"/><path class="cls-1" d="M421.34,254.72c.24-.34.46-.69.69-1s.42-.72.61-1.09.23-.57.37-.84a19,19,0,0,0,1.14-3,7.46,7.46,0,0,0,.24-1.4c0-.61.14-1.19.18-1.81,0-.19.17-.19.35-.05a1.73,1.73,0,0,1,.55.84,2.79,2.79,0,0,1,.09,1,6.92,6.92,0,0,1-.11,1,7.65,7.65,0,0,1-.6,1.92c-.32.74-.54,1.53-.89,2.27a17.11,17.11,0,0,1-1.3,2.33c-.28.47-.64.9-1,1.35l-.81.94-.88.89c-.24.22-.46.45-.69.68l-.74.63a1.26,1.26,0,0,1-.36.24c-.5.22-.72.17-.91,0l-.13-.11c-.09-.1,0-.4.25-.67a14.8,14.8,0,0,1,1.18-1.07c.38-.37.79-.72,1.15-1.14a15.23,15.23,0,0,0,1.54-1.92Z"/><path class="cls-1" d="M411.56,238.18l-.57-3c-.07-.36-.17-.72-.23-1.08-.21-1.28-.43-2.56-.64-3.84-.11-.56-.23-1.13-.35-1.68a12.37,12.37,0,0,1-.4-2.17c0-.46,1-.08,1.24.73s.38,1.44.54,2.17.25,1.48.34,2.23c.1.9.36,1.8.55,2.7l.62,3,.41,1.82c.22.92.43,1.84.71,2.73.23.69.5,1.35.75,2,.06.15.12.29.17.44.19.55.17.76-.09,1l-.18.15c-.21.14-.48,0-.71-.41a16.08,16.08,0,0,1-.88-1.82,18.56,18.56,0,0,1-.61-2c-.26-1-.48-2-.7-3Z"/><path class="cls-1" d="M436.29,235.87l-4.79-1.45-1.75-.51-6.1-2c-.9-.31-1.82-.58-2.72-.85a23.39,23.39,0,0,1-3.45-1.18c-.68-.33.62-1.12,1.93-.69,2.33.76,4.67,1.54,7,2.42,1.39.53,2.89.91,4.35,1.36l4.8,1.44c1,.29,2,.58,3,.84,1.51.41,3,.82,4.53,1.15,1.18.26,2.35.43,3.52.6l.77.1c1,.14,1.25.3,1.4.66a1,1,0,0,1,.1.24c.06.25-.37.43-1.1.38a40.5,40.5,0,0,1-6.58-1.14c-1.64-.4-3.27-.85-4.89-1.3Z"/><path class="cls-1" d="M456.39,264.84c-1.38.41-2.78.73-4.18,1.07s-2.8.65-4.19,1c-1,.24-2,.51-3.07.71-3.61.77-7.27,1.32-10.94,1.78-1.63.19-3.26.42-4.89.55a27.64,27.64,0,0,1-3.16.15,17.65,17.65,0,0,1-3.16-.25c-.65-.1-.53-.32,0-.54a11.31,11.31,0,0,1,2.73-.55c4.13-.38,8.29-1,12.49-1.62,1.25-.2,2.53-.46,3.81-.72l3.82-.88c2.8-.65,5.58-1.32,8.36-2.05,1.71-.44,3.43-.87,5.13-1.35,2.58-.73,5.17-1.47,7.68-2.33,2-.66,3.83-1.45,5.72-2.2l1.25-.47a5,5,0,0,1,2.55-.55,1.72,1.72,0,0,1,.29.05c.22.09-.33.53-1.4,1.21-.81.46-1.64.88-2.49,1.33s-1.74.75-2.63,1.11c-1.78.71-3.61,1.4-5.45,2-2.73,1-5.51,1.79-8.3,2.61Z"/><path class="cls-1" d="M195.8,401.94h5.29s38.67.69,38.64,2.58c0,1.33-42.6,13.29-42.6,13.29Z"/><path class="cls-1" d="M180.44,343.64c-15.72-.89-94.6-7.82-96.1-5.44-2.44,3.87.84,13.17,2.74,26.92,3,21.7,6.24,48.8,6.24,48.8l97.83,6.13S184.12,343.84,180.44,343.64ZM139,376.3c-1.41,4.34-6,4.85-9.33,1.7-3-2.88-2.93-7.44,1-9.27,3.76-1.75,8.84.59,8.59,5.6A7.38,7.38,0,0,1,139,376.3Z"/><path class="cls-2" d="M108.38,228C93.94,239.31,98.1,241.2,98.1,241.2s10.2-2.24,12-3.25Z"/><path class="cls-2" d="M383.3,313.7s5.25,12.74,9.82,11.11c2.83-1-3.71-21.82-3.71-21.82Z"/><path class="cls-1" d="M274.57,403.05S264,422,267.87,423.86c2.2,1.06,10.36-6.7,12.71-15v-2.62Z"/><path class="cls-1" d="M186.44,307.89s8.83,10.8,10.72,9c3.42-3.21-6.66-15.94-6.66-15.94Z"/><path class="cls-1" d="M282.15,158s-2.69,17,.67,16.4,8-.3,9.6-15.46c0,0,4-5.16,7.57-3.18s4.19,2.86,4.19,2.86a38.21,38.21,0,0,0,7.34-15.15c1.13-5.53.93-12-1.85-16.83-8.57-15.06-35.77-27.57-47.38-22.35,0,0-4.2,15.7,2.14,27.55S282.15,158,282.15,158Z"/><path class="cls-1" d="M256.39,104.84c-37.67-18-72.17,7.63-73.71,21.84-2.25,20.79,17.81,25.17,27.3,25.72C234.28,153.8,256.39,128.52,256.39,104.84Z"/><path class="cls-1" d="M326.45,434.9s24.16,3,30.79-2-6.94-9-6.94-9-2.07,4.3-5,6S326.45,434.9,326.45,434.9Z"/><path class="cls-1" d="M91.14,405.6s-9.45,2-12.32,4.16c-10.36,7.78,39.71,6.54,39.71,6.54L93,412.92Z"/><path class="cls-1" d="M237.37,260.84c.31,0,3.86-1.51,5.1-.93s2.61,5.6,6,6.17c5.32.9,8.87-3.9,10.52-5.52s5.06,0,5.58.26-4.91-6.34-11.09-6.11c-6.91.25-13.15,2.57-15.35,4.54S237.37,260.84,237.37,260.84Z"/><path class="cls-1" d="M263.36,227.63a29.62,29.62,0,0,1-15.2,4.42,24.24,24.24,0,0,1-15.24-4.28,39.87,39.87,0,0,1-7.69-6.47,57.93,57.93,0,0,1-5.53-6.91,32.23,32.23,0,0,1-5-10.09c-.32-1.13.18-1.14,1.06-.45a12.08,12.08,0,0,1,1.57,1.49c.27.33.6.66.89,1a11.17,11.17,0,0,1,.78,1.26A68.51,68.51,0,0,0,225,216.8a44.24,44.24,0,0,0,7.68,7.73,23.76,23.76,0,0,0,12.15,4.87A28.2,28.2,0,0,0,259.19,227a29.93,29.93,0,0,0,7.6-5.09,42.85,42.85,0,0,0,8.51-11.09,60.19,60.19,0,0,0,4.15-9.94c.25-.75.45-1.5.69-2.26.88-2.81,1.29-3.67,2.19-4.08a3.78,3.78,0,0,1,.59-.27c.61-.13.77,1.19.25,3.36a57.13,57.13,0,0,1-8.38,18.85,40.8,40.8,0,0,1-11.39,11.17Z"/><path class="cls-1" d="M206.05,174.27c-.24-1.52-.42-3.07-.58-4.61-.06-.56-.18-1.12-.22-1.69-.13-2-.16-4-.11-6,0-.89,0-1.78,0-2.66a6.44,6.44,0,0,1,.43-3.38c.16-.34.62-.24,1.15.1a5.79,5.79,0,0,1,.82.66,2.61,2.61,0,0,1,.34.42,1.06,1.06,0,0,1,.11.45,23.94,23.94,0,0,1-.05,3.28c-.07,1.1-.15,2.2-.25,3.33a21.11,21.11,0,0,0,.25,4.11c.13,1.5.3,3,.48,4.53.13.94.25,1.87.41,2.8.25,1.4.51,2.82.87,4.19.28,1.07.71,2.08,1.09,3.12.08.23.19.45.26.68.26.87.13,1.19-.55,1.54a4.78,4.78,0,0,1-.45.23,1.08,1.08,0,0,1-1.38-.65,24,24,0,0,1-1.78-5.84c-.28-1.53-.57-3.06-.85-4.59Z"/><path class="cls-1" d="M219.23,200.13a8.74,8.74,0,0,1-4.39.7,5,5,0,0,1-2.41-1,5.2,5.2,0,0,1-1.47-2.07,7.65,7.65,0,0,1-.57-3.2,15.74,15.74,0,0,1,1.17-5.08,32.22,32.22,0,0,1,2.18-4.5c.74-1.26,1.48-2.51,2.23-3.73a27.08,27.08,0,0,1,3.08-4.52c.39-.42.75-.11.93.57a3.76,3.76,0,0,1-.31,2.69,94.42,94.42,0,0,0-5.52,9.35,11.81,11.81,0,0,0-1.16,6.11A3.61,3.61,0,0,0,214.1,198a3.4,3.4,0,0,0,2.81.41,13.47,13.47,0,0,0,4.07-1.65c2-1.15,4-2.46,6-3.65a25.79,25.79,0,0,1,5-2.54,8.57,8.57,0,0,1,1.28-.33l.58-.06.5.05a2,2,0,0,1,.74.23,1.15,1.15,0,0,1,.63.76,1.39,1.39,0,0,1,.09.38c0,.37-.66.5-1.51.73a15.53,15.53,0,0,0-4,1.55c-1.38.74-2.76,1.59-4.21,2.49a44.18,44.18,0,0,1-6.81,3.86Z"/><path class="cls-1" d="M264.64,103a35.28,35.28,0,0,0-1.71,17.86,53.52,53.52,0,0,0,6.18,17.31,89.22,89.22,0,0,0,7.58,11.34c1.22,1.61,2.49,3.17,3.78,4.74l1,1.2c.17.22.33.4.5.66a3.91,3.91,0,0,1,.58,1q.09.31.15.63c0,.21,0,.4,0,.57,0,.34,0,.6,0,.9-.06.55-.14,1.08-.22,1.59a48.19,48.19,0,0,0-.74,5.91,12.55,12.55,0,0,0,.79,5.45c.76,1.66,1.62,1.92,3.06.78a12.35,12.35,0,0,0,3.07-4.59,27.05,27.05,0,0,0,1.63-5.64c.18-1,.3-2,.4-2.94,0-.25,0-.5.05-.74a5.12,5.12,0,0,1,.13-1,3.13,3.13,0,0,1,.65-1,7.17,7.17,0,0,1,.66-.6,10.67,10.67,0,0,1,5.45-2.3,7.37,7.37,0,0,1,3.08.3,7.29,7.29,0,0,1,2.65,1.62,11.53,11.53,0,0,1,2.91,5.08,13.74,13.74,0,0,1,.41,5.73,18.83,18.83,0,0,1-7.13,12.36,16.87,16.87,0,0,1-3.17,1.88,14.77,14.77,0,0,1-3.57,1,13,13,0,0,1-7.24-1.06c-1.38-.64-1.83-1.16-1.69-1.31s.92,0,2.12.15a16,16,0,0,0,4.73.17,14.3,14.3,0,0,0,5.95-2.16,16.24,16.24,0,0,0,7.07-10.19,12.41,12.41,0,0,0,.29-3.09,10.38,10.38,0,0,0-.47-3c-.57-1.91-1.73-3.75-3.19-4.45a5.78,5.78,0,0,0-5.22.44,8,8,0,0,0-1.23.78,5.2,5.2,0,0,0-.46.41l-.05.06v.09l0,.47c0,.3-.05.61-.08.92-.06.61-.15,1.23-.24,1.84a30.3,30.3,0,0,1-2,7.2,18.79,18.79,0,0,1-1.88,3.38,11,11,0,0,1-1.3,1.55,7,7,0,0,1-1.78,1.32,4.11,4.11,0,0,1-3.14.33,4.49,4.49,0,0,1-2.3-2,11.91,11.91,0,0,1-1.38-4.67,35.3,35.3,0,0,1,.65-9,17.33,17.33,0,0,0,.21-2c0-.28,0-.32-.07-.44l-.21-.28c-.08-.12-.21-.27-.31-.4l-2.79-3.35c-1.88-2.27-3.68-4.61-5.36-7a71.2,71.2,0,0,1-9-17.21A42.9,42.9,0,0,1,260,110.24c.14-1,.31-2,.49-3s.45-2,.76-2.94.58-1.94,1-2.87l.58-1.4.3-.71a3.4,3.4,0,0,1,.59-.85,5.59,5.59,0,0,1,3.17-1.56A14.09,14.09,0,0,1,270,96.7a32.42,32.42,0,0,1,6,.79A64.66,64.66,0,0,1,292.86,104a58.6,58.6,0,0,1,14.36,10.87,34.34,34.34,0,0,1,7.51,11.79,25.59,25.59,0,0,1,1,14,29.21,29.21,0,0,1-6.23,12.83c-.6.66-1.09,1.16-1.52,1.55a12.7,12.7,0,0,1-1.23.85c-.33.2-.73.5-.93.61-.36.17-.1-.38.53-1.6s1.74-3,2.95-5.36a33.83,33.83,0,0,0,2.37-5.38,29.27,29.27,0,0,0,1.4-5.66,23.18,23.18,0,0,0-1.33-11.44,31.64,31.64,0,0,0-6.45-10,51.64,51.64,0,0,0-9.49-7.88A67,67,0,0,0,279,101.31a36.63,36.63,0,0,0-8.92-1.69,9.08,9.08,0,0,0-3.81.49,1.58,1.58,0,0,0-.46.3s-.08.07-.09.11,0,0-.05.08l-.11.26-.87,2.1Z"/><path class="cls-1" d="M182.54,129.38a19.34,19.34,0,0,0,2.12,7.41,23.48,23.48,0,0,0,4.83,6.3,28.4,28.4,0,0,0,14.33,7.2,41.88,41.88,0,0,0,12.09.21,39.54,39.54,0,0,0,10.35-2.62,44.51,44.51,0,0,0,9.45-5.11,51.45,51.45,0,0,0,8.08-7.18,56.92,56.92,0,0,0,6.4-8.77A40.54,40.54,0,0,0,254,118a36.4,36.4,0,0,0,1.45-9.42,33.35,33.35,0,0,0-2.06-11.94A57.8,57.8,0,0,0,251.05,91a21.61,21.61,0,0,0-1.44-2.64,10.73,10.73,0,0,0-1.82-2.26c-.43-.38-.75-.64-1-.8s-.28-.31-.23-.4.79-.26,1.89.26c2.2,1,5.28,4.46,7,9.11a43.83,43.83,0,0,1,2,6.38,35.78,35.78,0,0,1,.74,6.69,38.33,38.33,0,0,1-2.16,13.18,44.84,44.84,0,0,1-2.67,6.11l-.81,1.47-.87,1.4c-.59.93-1.15,1.88-1.83,2.76a52.16,52.16,0,0,1-22.62,18.17,44.2,44.2,0,0,1-15.92,3.33c-1.49,0-3-.1-4.47-.14-1.48-.22-3-.32-4.44-.62a30.93,30.93,0,0,1-8.52-3,28.53,28.53,0,0,1-12.62-12.67,21.43,21.43,0,0,1-1.89-11,24.22,24.22,0,0,1,3.94-10.37,46.66,46.66,0,0,1,11.57-11.71,58.48,58.48,0,0,1,14.38-7.75A60.09,60.09,0,0,1,234,92.83l2.75.23,2.74.39c1.71.26,3.1.64,4.27.9s2.08.64,2.83.92A7.63,7.63,0,0,1,249.43,97a5.74,5.74,0,0,1,.74.78c.21.37-.39.44-1.6.25-.61-.09-1.37-.27-2.28-.47s-2-.41-3.16-.68a62,62,0,0,0-21.84-.69,54.77,54.77,0,0,0-20.92,7.67,49.27,49.27,0,0,0-12.52,11,27,27,0,0,0-4.08,6.94,17.46,17.46,0,0,0-1.15,7.63Z"/><path class="cls-1" d="M269.28,221.94A21.32,21.32,0,0,1,265.45,234c-3,4.63-8.18,8.16-14,6.92-3.94-.84-5.78-3.75-5.38-7.24a15.54,15.54,0,0,1,.66-3.17s9.42-.42,12.33-3S269.28,221.94,269.28,221.94Z"/><path class="cls-1" d="M289.45,246.39a20.59,20.59,0,0,1,2,9.71c-.05.6,0,1.2-.1,1.8s-.19,1.19-.3,1.77a26.68,26.68,0,0,1-2.14,5.81,54.11,54.11,0,0,1-3,5.26c-.95,1.5-1.91,3-2.94,4.44a26.42,26.42,0,0,1-4.51,5.12c-.55.45-.76.09-.65-.63a7.14,7.14,0,0,1,1.2-2.82,132.83,132.83,0,0,0,7.24-11.24,21,21,0,0,0,2.47-7.61,17.39,17.39,0,0,0-1-8.56,9.11,9.11,0,0,0-.54-1.24c-.2-.4-.36-.83-.6-1.21a18.77,18.77,0,0,0-1.52-2.24,18.16,18.16,0,0,0-6.33-5.15,17.09,17.09,0,0,0-6-1.5c-.45,0-.9,0-1.35,0-1.67-.07-2.21-.23-2.64-1.06a4.2,4.2,0,0,1-.29-.55c-.23-.62.49-1.17,1.92-1.43a7.28,7.28,0,0,1,1.61-.12c.55,0,1.1,0,1.65,0l1.65.23c.28,0,.56.08.83.14l.82.23a18.21,18.21,0,0,1,6.14,3,21.4,21.4,0,0,1,6.47,7.82Z"/><path class="cls-1" d="M230.08,241.34a20.18,20.18,0,0,0-1.76,1.32l-.85.73-.79.8c-.39.39-.69.86-1.05,1.28a35.38,35.38,0,0,0-3.49,4.83,19.72,19.72,0,0,0-1.23,2.37,20,20,0,0,1-1.48,3.1c-.21.3-.62.09-.93-.37a2.14,2.14,0,0,1-.32-1.81,22.53,22.53,0,0,1,3.34-6.43c.9-1.17,1.67-2.49,2.62-3.66.53-.64,1.12-1.25,1.69-1.84a22.67,22.67,0,0,1,1.9-1.65c.42-.3.81-.64,1.26-.9l1.33-.8c.7-.35,1.41-.69,2.14-1l1.11-.37a6.89,6.89,0,0,1,1.12-.33c.58-.12,1.15-.34,1.74-.46l1.78-.32a4.14,4.14,0,0,1,.79-.05c1,0,1.3.22,1.45.85a3.29,3.29,0,0,1,.09.43c0,.47-.37.86-1,1-1,.18-1.9.41-2.84.56a23.23,23.23,0,0,0-2.74.79,16,16,0,0,0-3.82,1.95Z"/><path class="cls-1" d="M260.24,258.42a21.32,21.32,0,0,0-8.67-2.69,21.74,21.74,0,0,0-3.33.06,17.56,17.56,0,0,0-2.89.45,17.25,17.25,0,0,0-2.77,1,18.71,18.71,0,0,0-5,3.27,23.74,23.74,0,0,0-3.59,4c-.69.93-1.32,1.92-1.95,2.9s-1.38,1.9-2.13,2.83c-.47.57-.78.26-.85-.52a6.31,6.31,0,0,1,.69-3.3,37.72,37.72,0,0,1,4.52-6,21.92,21.92,0,0,1,6.09-4.64,20.8,20.8,0,0,1,9.06-2.44,24.78,24.78,0,0,1,10,2,16.31,16.31,0,0,1,5.24,3.53,20.6,20.6,0,0,1,4.64,8.18,63.56,63.56,0,0,1,1.86,6.87c.1.51.22,1,.3,1.53a5.57,5.57,0,0,1,.09,2.06,1.52,1.52,0,0,1-.57,1,3.12,3.12,0,0,1-.35.31c-.34.22-1-.5-1.32-1.86-.46-2-.86-4.07-1.38-6.09A32.44,32.44,0,0,0,266,265a15.61,15.61,0,0,0-2.36-3.76,15.23,15.23,0,0,0-1.54-1.57,15.58,15.58,0,0,0-1.84-1.24Z"/><path class="cls-1" d="M350.07,402.43a196.94,196.94,0,0,0-1.75-20.07c-.88-6.69-2-13.37-3.13-20-.84-4.87-1.8-9.73-2.69-14.58-1.57-8.56-3.26-17.09-5.31-25.52a181.62,181.62,0,0,0-7.69-24.8c-2.87-7.08-6.49-14-11.44-19.63-.77-.92-1.66-1.73-2.49-2.6L314.22,274l-.68-.59-.72-.53a29,29,0,0,0-6.12-3.6,30.17,30.17,0,0,0-3.35-1.17c-.57-.15-1.13-.36-1.71-.46l-1.75-.32a13.15,13.15,0,0,0-1.77-.21c-.6,0-1.19-.14-1.79-.15-1.19,0-2.4-.14-3.6,0-3,.14-2.72-.28-.18-1.17.32-.11.68-.24,1.07-.36l1.28-.29a14.56,14.56,0,0,1,3.15-.42,21.73,21.73,0,0,1,8.07,1l1.9.69c.62.27,1.22.58,1.83.87l.9.44.87.52c.57.35,1.15.69,1.71,1.06a37.69,37.69,0,0,1,3.17,2.45c.49.44,1,.86,1.49,1.32l1.39,1.42a55.55,55.55,0,0,1,8.92,12.82c4.77,9.19,7.86,19,10.38,28.9,3,11.85,5.65,24.26,7.83,36.51,2.38,13.45,4.78,27,6,40.66.34,4.21.6,8.44.54,12.7,0,2.12-.13,4.25-.24,6.37l-.36,3.19c-.08,1.06-.36,2.11-.53,3.17l-.23,1.2c-.1.4-.22.79-.33,1.18-.22.79-.43,1.58-.68,2.36a19.36,19.36,0,0,1-2.23,4.55,14,14,0,0,1-3.93,3.28,25.6,25.6,0,0,1-4.57,1.92,49.71,49.71,0,0,1-9.52,1.9c-3.19.35-6.39.5-9.58.53a161.82,161.82,0,0,1-29.22-2.57c-2.13-.39-4.2-.8-6.32-1.31-7.86-1.92-10.18-3.39-11.48-4.71a8,8,0,0,1-.84-.91c-.23-.41.45-.39,1.84,0s3.56.91,6.34,1.67a159,159,0,0,0,25.93,4.37c8.88.76,18,1,26.8-.46a30.71,30.71,0,0,0,9.07-2.91,11.28,11.28,0,0,0,3.27-2.71c.16-.28.33-.56.5-.83a10.33,10.33,0,0,0,.46-1.05c.27-.74.64-1.43.85-2.21l.66-2.33c.21-.78.31-1.6.47-2.4.36-1.59.44-3.27.66-4.91a93.21,93.21,0,0,0,.18-10Z"/><path class="cls-1" d="M229.79,364.61c7.46,1.41,14.68,3.44,21.87,5.54,2.62.77,5.26,1.48,7.86,2.29,9.18,2.85,18.26,6,27.44,8.73,4.07,1.24,8.19,2.36,12.28,3.35,5.26,1.27,10.57,2.27,15.84,3.29,1.64.34,1.41.7-.08,1.11a13.36,13.36,0,0,1-3.08.48,20.63,20.63,0,0,1-4.31-.27c-2.78-.45-5.52-1.06-8.23-1.73s-5.41-1.39-8.09-2.15c-5.37-1.53-10.69-3.21-16-5-6.35-2.13-13-4-19.56-6-7.18-2.18-14.38-4.31-21.67-6a78.65,78.65,0,0,0-13.54-2.08,22.78,22.78,0,0,0-5,.29,9.08,9.08,0,0,0-2.3.72,7.35,7.35,0,0,0-1,.6l-1.07.78c-2.85,2.05-5.71,4.06-8.38,6.24-.5.41-1.06.88-1.47,1.26a7.83,7.83,0,0,0-.75.78,1.63,1.63,0,0,0-.27.43.34.34,0,0,0,.15.45,1.52,1.52,0,0,0,1,0l.48-.14.6-.21c.6-.2,1.2-.46,1.8-.72,1.18-.54,2.35-1.13,3.52-1.75,1-.55,2-1.13,3-1.72,3.76-2.19,4.88-2.91,6.06-2.85.26,0,.55-.09.73-.1.33-.05.2.42-.32,1.14a11.63,11.63,0,0,1-2.89,2.44,68.48,68.48,0,0,1-6.36,3.74c-1.11.57-2.25,1.11-3.45,1.6l-.9.37-.46.18-.24.09a2.61,2.61,0,0,1-.38.14,9.26,9.26,0,0,1-3.3.53,3.09,3.09,0,0,1-1.2-.39,2.15,2.15,0,0,1-.86-.86,3.37,3.37,0,0,1-.29-.61l0-.57a2.28,2.28,0,0,1,.26-1.16,10.16,10.16,0,0,1,2.23-2.59l.47-.42.37-.33.75-.63c2-1.64,4-3.16,6.09-4.66l2.28-1.66,1.12-.83.29-.21.38-.25a6.25,6.25,0,0,1,.78-.45,15.28,15.28,0,0,1,6.22-1.36,55.63,55.63,0,0,1,11.63,1.07Z"/><path class="cls-1" d="M211,387.41l-2.25.84-.81.27-1,.27c-.34.08-.67.08-1,.13s-.63,0-.91,0a2.82,2.82,0,0,1-2.4-1.33,1.68,1.68,0,0,1-.07-1.29l.07-.31c0-.1.14-.23.2-.34l.43-.7a13.38,13.38,0,0,1,.89-1c.3-.35.61-.71.95-1s.81-.82,1.24-1.2c2.95-2.59,6-5,9.12-7.32l2.08-1.56a26.29,26.29,0,0,1,2.23-1.52,10.29,10.29,0,0,1,3.39-1.17,12,12,0,0,1,3.44,0c.71.11.59.59,0,1.11a7,7,0,0,1-2.63,1.48,13.93,13.93,0,0,0-2.65.93,25.58,25.58,0,0,0-2.46,1.71l-5.39,3.86a60.75,60.75,0,0,0-6.16,5.31l-.44.41c-.09.09-.2.18-.3.29s-.2.21-.3.33-.17.3-.05.4a1.19,1.19,0,0,0,.82.12,2.67,2.67,0,0,0,.47-.07,1,1,0,0,0,.23-.05l.52-.12a26.43,26.43,0,0,0,5-2.1,50.09,50.09,0,0,0,7-4.48,19.72,19.72,0,0,1,5.73-3.58,9.18,9.18,0,0,1,1.52-.42,4,4,0,0,1,2.1.1,1.29,1.29,0,0,1,.81.77,2.14,2.14,0,0,1,.17.46c.06.5-.7.71-1.8.93a11.78,11.78,0,0,0-4.73,1.93c-.78.51-1.46,1-2.32,1.7s-1.67,1.23-2.53,1.81a49.12,49.12,0,0,1-8.21,4.55Z"/><path class="cls-1" d="M219.46,391.39a17.54,17.54,0,0,1-3.88,1.71,6,6,0,0,1-2.44.23,2.84,2.84,0,0,1-2.44-1.89,2.79,2.79,0,0,1,.09-1.18l.2-.59.24-.44a9.29,9.29,0,0,1,.85-1.34,25,25,0,0,1,3.67-3.68q2-1.65,4-3.14c1.21-.89,2.43-1.79,3.66-2.63a14.91,14.91,0,0,1,5.24-2.61c.66-.11.62.34.29.88a5.48,5.48,0,0,1-1.78,1.86c-3.12,1.95-6.25,4.15-9.27,6.48a23.51,23.51,0,0,0-2.57,2.32,23.06,23.06,0,0,0-2.18,2.57,2.32,2.32,0,0,0-.22.36c-.05.09-.05.12-.08.18a.49.49,0,0,0,0,.34c0,.11.14.18.24.24a.58.58,0,0,0,.17.06.9.9,0,0,0,.31,0,7.4,7.4,0,0,0,3.27-1,30.44,30.44,0,0,0,4-2.48c2-1.4,3.87-2.92,5.73-4.49a26.88,26.88,0,0,1,2.28-1.84,12.66,12.66,0,0,1,2.67-1.43,11.27,11.27,0,0,1,1.28-.42c1.65-.37,2.18-.08,2.55.55a3.89,3.89,0,0,1,.24.44c.16.47-.45,1-1.45,1.26a13.16,13.16,0,0,0-4.07,1.85,11.17,11.17,0,0,0-.91.67l-1,.81-2,1.67a60.41,60.41,0,0,1-6.6,4.67Z"/><path class="cls-1" d="M242.72,387.19c-.14-.08-.3-.2-.41-.25l-.1,0s-.07,0-.11,0l-.2,0c-.1,0-.2.06-.29.07h0c.25-2.69.07-.74.12-1.33v.1l0,.14a2.72,2.72,0,0,0,0,.28,3.24,3.24,0,0,0,.11.83c0,.09,0,0,0,.05h.08c.09,0,0,0,0,0l-.09.06c-.5.26-1.28.59-2,.93-1.41.69-2.84,1.38-4.3,2-1.06.47-2.13,1-3.24,1.37a22.62,22.62,0,0,1-3.89,1c-.34.05-.67.11-1,.14l-1.06,0a1.9,1.9,0,0,1-.53,0l-.75-.08a8.35,8.35,0,0,1-1.41-.37,2.75,2.75,0,0,1-1.13-.88,1.63,1.63,0,0,1,0-1.43,4.57,4.57,0,0,1,.86-1.33l.6-.6.47-.43c1.43-1.19,2.89-2.25,4.36-3.27.95-.65,1.89-1.3,2.87-1.9l.74-.44.78-.36c.53-.23,1.06-.45,1.6-.65s.78.13.5.83a7.79,7.79,0,0,1-.68,1.28,6.49,6.49,0,0,1-.52.72l-.31.37-.38.28-5.5,3.71c-.45.3-.89.62-1.31.94s-.95.76-.87.66a.6.6,0,0,0-.24.18c-.09.13,0,.21.09.27l0,0s.08,0,.11.05a1.11,1.11,0,0,0,.13,0,4.71,4.71,0,0,0,.92,0,4.45,4.45,0,0,0,.94-.11c.33-.07.65-.1,1-.2a31.82,31.82,0,0,0,3.87-1.36c1.4-.59,2.79-1.25,4.18-1.95l2.09-1.06,1.08-.54a4.71,4.71,0,0,1,1.29-.49l.41-.05h.21l.12,0c.16.05.32.1.46.16a5.82,5.82,0,0,1,.79.4,12.09,12.09,0,0,1,1.34.77c.83.54,1.61,1.08,2.42,1.54a22.18,22.18,0,0,0,8,2.86,29.21,29.21,0,0,0,6.54.13c.48,0,1-.09,1.43-.11,1.79-.16,2.38,0,2.83.63a3.64,3.64,0,0,1,.3.42c.22.48-.49,1-1.85,1.25a28,28,0,0,1-12.87-.66,23.9,23.9,0,0,1-4.62-2c-1.44-.81-2.82-1.87-4-2.61Z"/><path class="cls-1" d="M273.15,402c-.9-.82-1.78-1.65-2.64-2.51-.32-.31-.68-.57-1-.88-1.1-1.13-2.21-2.22-3.26-3.38-.48-.51-1-1-1.47-1.46a15.13,15.13,0,0,1-1.8-1.95c-.16-.23,0-.32.29-.31a2.59,2.59,0,0,1,1.21.41,31.64,31.64,0,0,1,4.21,3.27,28.66,28.66,0,0,0,2.55,2.06c.94.75,1.88,1.51,2.79,2.3.57.48,1.14,1,1.72,1.43.88.7,1.74,1.43,2.67,2.06.72.49,1.54.81,2.28,1.25a2.36,2.36,0,0,1,.48.29c.54.46.61.75.38,1.33-.05.13-.09.27-.15.39a1.05,1.05,0,0,1-1.23.44,10.41,10.41,0,0,1-4.26-2.33c-1-.76-1.89-1.56-2.82-2.36Z"/><path class="cls-1" d="M271.8,420.29a28.18,28.18,0,0,0,6-8.48c.58-1.17,1-2.39,1.52-3.61a52.93,52.93,0,0,0,3.51-13.44,37.59,37.59,0,0,0,.24-6.18c0-.66-.07-1.31-.13-2s-.13-1.31-.18-2a27.27,27.27,0,0,1-.23-4c0-.84.38-.81,1-.2a10.58,10.58,0,0,1,1.11,1.31,5.71,5.71,0,0,1,.75,2.08,42.89,42.89,0,0,1-1.08,16.84,72.61,72.61,0,0,1-3.06,9.88,37.87,37.87,0,0,1-5.83,9.86,18.87,18.87,0,0,1-2.59,2.54,8.77,8.77,0,0,1-3.44,1.71,4.59,4.59,0,0,1-3.15-.45,3.69,3.69,0,0,1-1.27-1.2,4.3,4.3,0,0,1-.45-1.57,21,21,0,0,1,.32-5.42,41.82,41.82,0,0,1,1.94-7.92c.22-.57.42-1.14.7-1.7a5.59,5.59,0,0,1,1.44-2,1.86,1.86,0,0,1,.64-.35,2,2,0,0,1,.65,0,3.39,3.39,0,0,1,.52.05c.38.11.32,1.16-.26,2.47a36.44,36.44,0,0,0-2.16,6.45,33.71,33.71,0,0,0-1,6.85,10.18,10.18,0,0,0,.05,1.14c0,.17.05.32.07.45s0,.13,0,.16,0,0,0,0h0l.07.05c.05,0,.09.1.14.11a1.66,1.66,0,0,1,.27.13,1.53,1.53,0,0,1,.29.07,3,3,0,0,0,1.65-.41,8.77,8.77,0,0,0,1.88-1.35Z"/><path class="cls-1" d="M191.55,421.44l-25-1.41-9.1-.45-32.08-2-14.23-.86c-3-.18-6.06-.36-9.09-.59-1.52-.14-3-.24-4.55-.44l-2.26-.36a21.75,21.75,0,0,1-2.28-.44c-1.93-.47-1.49-.77.15-1a41.37,41.37,0,0,1,8-.34l18.49,1.2c6.18.44,12.37.88,18.59,1.37,7.43.59,15.19.87,22.81,1.3l25.14,1.41,7.74.46,1.94.12a2.2,2.2,0,0,0,.74,0,2.81,2.81,0,0,0,.4-.11l.47-.14,3.71-1.12,22.52-6.55,17.15-5.19,3.76-1.13c4.72-1.39,6.34-1.45,7.48-1.24a4.94,4.94,0,0,1,.75.15c.27.12-.06.37-.88.75a37.73,37.73,0,0,1-3.82,1.48c-10.15,3.22-20.93,6.43-31.76,9.62l-12.07,3.56-6,1.81-.74.23a3.91,3.91,0,0,1-1.21.21h-.32l-.19,0-.39,0-.79-.05-3.13-.17Z"/><path class="cls-1" d="M219.41,398.29l7.8.68c.95.07,1.91.09,2.86.17l10,.9c1.49.15,3,.24,4.46.33a28.32,28.32,0,0,1,5.72.75c.63.18.43.36-.11.54a9,9,0,0,1-2.53.55,28.25,28.25,0,0,1-2.91,0l-2.9-.12c-1.94-.06-3.87-.28-5.82-.51-2.32-.29-4.76-.32-7.14-.48l-7.88-.58-4.84-.38c-2.45-.19-4.9-.42-7.33-.58-1.89-.11-3.75-.13-5.63-.23-.42,0-.82,0-1.24-.05a5.35,5.35,0,0,1-1.62-.35,1.17,1.17,0,0,1-.66-.58,2.79,2.79,0,0,1-.19-.28c-.11-.23.57-.6,1.69-.63,3.33-.07,6.84.11,10.37.29,2.62.14,5.25.29,7.87.51Z"/><path class="cls-1" d="M192.58,388.52,191.36,376c-.15-1.52-.39-3-.54-4.56l-1.55-16.12c-.25-2.38-.56-4.77-.88-7.13a53.92,53.92,0,0,1-.8-9.21c0-1,.65-.83,1.3-.06a7.72,7.72,0,0,1,1.66,3.86c.47,3.07.75,6.17,1.08,9.27s.56,6.23.76,9.37c.24,3.76.83,7.63,1.24,11.45l1.3,12.63c.25,2.59.51,5.19.77,7.78.39,3.92.78,7.87,1.17,11.76.33,3,.74,6,1,9,.07.66.15,1.31.2,2a7.89,7.89,0,0,1-.1,2.67,2.32,2.32,0,0,1-.58,1.19,2.88,2.88,0,0,1-.35.35c-.35.23-.79-.77-1.14-2.53-.75-5.28-1.58-10.88-2.11-16.53-.44-4.2-.88-8.42-1.31-12.62Z"/><path class="cls-1" d="M87.26,381.67l-1.48-12.93c-.18-1.57-.44-3.13-.61-4.7l-1.81-16.63c-.28-2.46-.62-4.92-1-7.35a72.45,72.45,0,0,1-1-9.44c0-1,.53-.9,1.16-.13a8.73,8.73,0,0,1,1.64,4c.93,6.36,1.6,12.76,2.15,19.23.32,3.87,1,7.86,1.44,11.8l1.56,13q.5,4,1,8c.51,4,1,8.1,1.55,12.1.44,3.11,1,6.14,1.53,9.21.11.67.24,1.33.33,2a12.46,12.46,0,0,1,.2,2.71,2.23,2.23,0,0,1-.52,1.28,3,3,0,0,1-.37.41c-.21.14-.44,0-.69-.46a6.74,6.74,0,0,1-.71-2.05c-1.18-5.44-2-11.23-2.79-17.05-.55-4.33-1.1-8.68-1.64-13Z"/><path class="cls-1" d="M125.3,330.1l17.09,1,6.23.29,21.95,1.36c3.25.19,6.52.37,9.74.52a110.9,110.9,0,0,1,12.45.91c1.32.21,1.06.51-.06.83-.55.15-1.33.33-2.28.5a14.92,14.92,0,0,1-3.24.22c-4.23-.13-8.46-.27-12.7-.46s-8.47-.51-12.73-.84c-5.09-.4-10.4-.52-15.62-.77l-17.2-.87-10.59-.49c-5.35-.23-10.72-.48-16-.61-4.13-.08-8.18,0-12.25,0l-2.68.06c-3.36,0-4.34-.11-5.11-.8a4,4,0,0,1-.52-.47c-.18-.27.06-.52.67-.75a10.48,10.48,0,0,1,2.85-.48c7.35-.43,15-.23,22.78,0,5.74.2,11.5.48,17.25.75Z"/><path class="cls-1" d="M319.16,388.5a22.27,22.27,0,0,1,2.72,2.49c.31.32.64.62.92,1a24.32,24.32,0,0,1,2.53,3.85c.32.59.69,1.15,1,1.71a8.07,8.07,0,0,1,1.18,2.25c.15.52-1.64.75-2.2,0a47.53,47.53,0,0,1-2.64-4.2,10.61,10.61,0,0,0-1.89-2.34c-.36-.42-.77-.78-1.15-1.19s-.81-.74-1.25-1.08a15.25,15.25,0,0,0-1.68-1.17,14.4,14.4,0,0,0-2.78-1.38,17.28,17.28,0,0,0-2.33-.5,4.71,4.71,0,0,1-.52-.09c-.62-.17-.8-.37-.85-.87a2.21,2.21,0,0,1,0-.35c0-.37.32-.63.86-.69s.81-.09,1.22-.12a8.47,8.47,0,0,1,1.22.15,13.94,13.94,0,0,1,2.41.67,15.3,15.3,0,0,1,3.26,1.87Z"/><path class="cls-1" d="M300.82,362.2c-.26-1.65-.57-3.29-.93-4.93-.12-.6-.35-1.17-.48-1.76-.46-2.11-1-4.22-1.58-6.29-.28-.91-.61-1.81-1-2.69a18.64,18.64,0,0,1-1.33-3.39c-.08-.38.44-.59,1.09-.54a2.29,2.29,0,0,1,1.8,1,32.75,32.75,0,0,1,1.62,3.51,26.35,26.35,0,0,1,1,3.74c.28,1.52.89,3,1.29,4.52.44,1.67.81,3.36,1.16,5.05l.6,3.12c.3,1.58.52,3.18.8,4.76.2,1.23.56,2.41.76,3.66.05.27.12.53.16.81.07,1-.14,1.39-.89,1.61a4.84,4.84,0,0,1-.51.14,1.21,1.21,0,0,1-1.3-1,46,46,0,0,1-1.48-6.38c-.29-1.63-.53-3.29-.86-4.94Z"/><path class="cls-1" d="M178.74,277.35c-1.13-6.23-2.37-12.49-3.42-18.8-.38-2.3-.82-4.6-1.08-7-.06-.74-.16-1.46-.19-2.23l-.05-1.14,0-1.23a5,5,0,0,1,.58-1.68,12.46,12.46,0,0,1,.71-1.19c.5-.75,1-1.45,1.57-2.13,1.08-1.35,2.23-2.63,3.41-3.87a44.24,44.24,0,0,1,7.88-6.7,14,14,0,0,1,2.62-1.35,4.69,4.69,0,0,1,1.68-.33,4.13,4.13,0,0,1,.85.1,4.35,4.35,0,0,1,.82.22,4.76,4.76,0,0,1,.83.44,3.32,3.32,0,0,1,.7.75,1.53,1.53,0,0,1,.23.46,2.77,2.77,0,0,1,.15.49l.06.51a3.31,3.31,0,0,1,0,.45,7.43,7.43,0,0,1-1,2.93,27.18,27.18,0,0,1-4.46,5.65,19.84,19.84,0,0,1-5.78,4.26c-.72.31-1.17.25-1.18.07s.27-.51.64-1l1.53-2a31.7,31.7,0,0,1,2.32-2.6,29.2,29.2,0,0,0,4.21-5.13A11.33,11.33,0,0,0,193,234a3,3,0,0,0,.28-1.07v-.08h0s0,0,0,0a1.58,1.58,0,0,0-.71-.2,4.17,4.17,0,0,0-2.14.79,25.4,25.4,0,0,0-2.71,1.88c-1.76,1.42-3.53,2.93-5.23,4.52a43.22,43.22,0,0,0-3.47,3.68c-.54.65-1.05,1.32-1.52,2-.23.34-.44.68-.62,1a2.42,2.42,0,0,0-.3.75,21.87,21.87,0,0,0,.17,3.26c.11,1.13.27,2.28.43,3.41.91,6.29,2.12,12.59,3.29,18.89.36,1.94.72,3.88,1.06,5.84l.11.74.06.37a1.24,1.24,0,0,1,0,.54,3.05,3.05,0,0,1-.08.54l-.11.39c-.07.25-.15.49-.23.73-.31,1-.66,1.9-1,2.83a88.53,88.53,0,0,1-3.79,8.22c-1.44,2.64-2.92,5.26-4.55,7.76A115.17,115.17,0,0,1,164,312l-2,2.3c-2.53,2.82-3.67,3.39-4.57,3.62-.21.05-.45.15-.58.17s-.12-.29.21-.92a14.5,14.5,0,0,1,1.83-2.54,121.83,121.83,0,0,0,14.2-20.49c1.5-2.77,2.89-5.6,4.11-8.49.61-1.44,1.18-2.91,1.65-4.36.13-.36.24-.74.32-1,0-.05,0,0,0,0l-.08-.46c-.12-.76-.27-1.56-.41-2.33Z"/><path class="cls-1" d="M206,247.09a35,35,0,0,1,3.56,2.85,14.07,14.07,0,0,1,1.55,1.84,9.81,9.81,0,0,1,.67,1.16,4,4,0,0,1,.45,1.63,2.69,2.69,0,0,1-1.27,2.3,3.65,3.65,0,0,1-2.19.61,8.46,8.46,0,0,1-3.1-.82c-.91-.4-1.73-.87-2.55-1.33-1.63-.93-3.2-1.87-4.83-2.6a6.15,6.15,0,0,0-2.12-.6,8.46,8.46,0,0,0-2.2.08,2.84,2.84,0,0,0-.57.16c-.12,0,0,0-.2.12l-.37.22a12.34,12.34,0,0,1-1.5.75c-1,.41-2,.67-2.86,1-.54.23-.79-.19-.57-.94a4.22,4.22,0,0,1,2.11-2.3c.47-.23.92-.41,1.32-.63.2-.11.39-.22.57-.34l.13-.08.2-.1a1.88,1.88,0,0,1,.34-.14,3.62,3.62,0,0,1,.57-.17,8.9,8.9,0,0,1,3.81,0,6.66,6.66,0,0,1,1,.25l.48.17.4.18c.54.24,1,.51,1.53.78,1,.54,1.89,1.13,2.81,1.69a24.08,24.08,0,0,0,3.37,1.76,8.3,8.3,0,0,0,1.68.49,2.21,2.21,0,0,0,1.31-.07.52.52,0,0,0,.42-.58,1.65,1.65,0,0,0-.25-.6,5.07,5.07,0,0,0-.57-.71,24.52,24.52,0,0,0-3.08-2.67,40.13,40.13,0,0,0-4.4-2.82,30,30,0,0,0-7.19-3.11,4.4,4.4,0,0,0-1.3-.13,4.77,4.77,0,0,0-1.23.38,12.26,12.26,0,0,0-2.44,1.45c-.34.25-.66.53-1,.8-1.3,1-1.83,1.22-2.55.89a2.45,2.45,0,0,1-.49-.23c-.45-.32-.2-1.09.69-2a14.94,14.94,0,0,1,5-3.56c.27-.1.56-.19.85-.27l.45-.11a4.78,4.78,0,0,1,.59-.07,7.44,7.44,0,0,1,1.93.16,20.81,20.81,0,0,1,3.07.92,37.41,37.41,0,0,1,8,4.24Z"/><path class="cls-1" d="M205.44,254.69a23.63,23.63,0,0,1,2.9,2.7,10,10,0,0,1,1.19,1.8,6.24,6.24,0,0,1,.44,1.16,3,3,0,0,1,0,1.57,3.08,3.08,0,0,1-.27.65l-.44.56a3.42,3.42,0,0,1-2.66.91,7.81,7.81,0,0,1-2.63-.79,22.54,22.54,0,0,1-2.17-1.21c-1.37-.85-2.67-1.74-4-2.5a8.65,8.65,0,0,0-1.77-.8,2.14,2.14,0,0,0-.77-.13.72.72,0,0,0-.5.2l-2.19,1.52a19.71,19.71,0,0,1-2.36,1.26c-.51.22-.72-.21-.61-.88a3.81,3.81,0,0,1,1.34-2.27c.74-.54,1.51-1,2.27-1.55l.29-.19a2.88,2.88,0,0,1,.56-.3,2.82,2.82,0,0,1,1.3-.23,5.28,5.28,0,0,1,1.83.48,33.12,33.12,0,0,1,4.83,3.06,15.81,15.81,0,0,0,2.79,1.58,4.23,4.23,0,0,0,2.51.44,1.28,1.28,0,0,0,.31-.15.49.49,0,0,0,.16-.53,3.25,3.25,0,0,0-.62-1.06,20.58,20.58,0,0,0-2.14-2.14,28.7,28.7,0,0,0-3.57-2.58,20.23,20.23,0,0,0-6-2.72,2.8,2.8,0,0,0-1,0c-.4.08-.82.19-1.21.31a17.84,17.84,0,0,0-2.31.9c-.33.15-.63.33-.95.5-1.16.62-1.54.73-2.19.36a4.76,4.76,0,0,1-.45-.24c-.43-.31-.23-1.08.7-1.82a13.65,13.65,0,0,1,4.73-2.32,11.47,11.47,0,0,1,1.34-.32,5.94,5.94,0,0,1,1.81,0,14.2,14.2,0,0,1,2.74.78,27.48,27.48,0,0,1,6.8,3.93Z"/><path class="cls-1" d="M204.18,267.06a7.93,7.93,0,0,0,1.73.65.3.3,0,0,0,.43-.11.46.46,0,0,0,0-.24c0-.06-.06-.46-.08-.53a2.35,2.35,0,0,0-.42-.9,11.18,11.18,0,0,0-.85-1.05,24.7,24.7,0,0,0-2.09-2,19.82,19.82,0,0,0-2.09-1.55,19.6,19.6,0,0,1-2.75-1.91c-.26-.24,0-.55.45-.74a2.2,2.2,0,0,1,1.74,0,22.06,22.06,0,0,1,5.75,4.09c.5.53,1,1.06,1.57,1.66a6.62,6.62,0,0,1,.76,1.08,3.8,3.8,0,0,1,.29.74c.06.23.08.42.12.63a3.75,3.75,0,0,1-.17,1.81,2.16,2.16,0,0,1-1.26,1.25,3.34,3.34,0,0,1-1.76.13,6.55,6.55,0,0,1-1.31-.36,19.53,19.53,0,0,1-2.73-1.28c-1.31-.71-2.53-1.53-3.78-2.27l-.18-.1c-.24-.2-.54,0-.71.15l-.45.38c-.17.15-.33.31-.49.48s-.3.35-.47.52c-.61.62-1,.65-1.58.25a3,3,0,0,1-.41-.28,1.07,1.07,0,0,1,0-1.52,10.77,10.77,0,0,1,1.63-1.6,3.79,3.79,0,0,1,.54-.4,6.08,6.08,0,0,1,.92-.46,2.67,2.67,0,0,1,1-.16c.17,0,.32.11.5.09a3.08,3.08,0,0,1,.47.19l1.87,1.13A36.9,36.9,0,0,0,204.2,267Z"/><path class="cls-1" d="M213.13,274.6c.05,0,.17,0,.18-.09a9.16,9.16,0,0,0-.09-1.17c-.05-.55-.14-1.11-.21-1.67s-.24-1.22-.33-1.83c-.31-2.18-.6-4.37-1-6.55-.16-1-.33-1.94-.52-2.89-.11-.62-.29-1.22-.34-1.85s-.13-1.25-.11-1.9c0-.41.22-.37.51-.08a5,5,0,0,1,1,1.48,34.81,34.81,0,0,1,1.76,7.43c.2,1.53.65,3.07.95,4.62l.4,2.25.19,1.14.09.59c0,.29.09.59.11.89a2.18,2.18,0,0,1-.17.87,2.63,2.63,0,0,1-.89.76,4.34,4.34,0,0,1-.51.27l-.4.18c-.53.22-1.05.4-1.58.57a32,32,0,0,1-4.9,1,27.42,27.42,0,0,1-3.9.37,6.68,6.68,0,0,1-.89,0c-1.12-.16-1.44-.52-1.4-1.29a4.55,4.55,0,0,1,0-.53,1.2,1.2,0,0,1,1.29-.88,41.62,41.62,0,0,0,6.12-.55c.79-.14,1.57-.3,2.34-.5a13.64,13.64,0,0,0,2.21-.65Z"/><path class="cls-1" d="M193.38,293.28a52.31,52.31,0,0,0,3-5.44c.32-.68.54-1.39.8-2.07s.4-1.23.62-1.84a17.21,17.21,0,0,0,.38-1.87,10.86,10.86,0,0,0-.05-3.81,19.93,19.93,0,0,0-.91-3.41c-.53-1.42-1.09-2.83-1.5-4.31-.13-.46.2-.55.7-.33a3.55,3.55,0,0,1,1.62,1.56,15,15,0,0,1,1,2.22c.27.76.52,1.54.73,2.33a14.86,14.86,0,0,1,.56,5,22,22,0,0,1-1.35,6,44.21,44.21,0,0,1-2.85,5.87c-.65,1.16-1.34,2.29-2,3.41-1,1.71-2.13,3.38-3.12,5.08-.77,1.33-1.4,2.7-2.06,4a7.36,7.36,0,0,1-.44.89c-.61,1.06-1,1.3-1.62,1.26a2.67,2.67,0,0,1-.42,0c-.42-.08-.54-.73-.27-1.64a20,20,0,0,1,1.72-3.85c.68-1.25,1.42-2.47,2.17-3.69,1.12-1.8,2.27-3.58,3.33-5.4Z"/><path class="cls-1" d="M190.08,221.1c3.91,0,7.78.09,11.73.42a18.41,18.41,0,0,1,2.31.32,5,5,0,0,1,.86.34,2.83,2.83,0,0,1,.61.68,3.13,3.13,0,0,1,.23.37l.13.3a4.85,4.85,0,0,1,.22.55,59.74,59.74,0,0,1,1.73,7.43c.45,2.46.85,4.92,1.26,7.38.35,2.18.78,4.36,1.16,6.52a50,50,0,0,1,1,8.39c0,.88,0,.77-.35.09-.18-.34-.47-.82-.83-1.41a12.16,12.16,0,0,1-.87-2.07,163,163,0,0,1-3.13-17c-.26-1.7-.61-3.43-1-5.13-.21-.85-.43-1.7-.69-2.51-.13-.41-.27-.81-.41-1.18-.07-.17-.18-.38-.21-.44a.37.37,0,0,0-.13-.17l-.11-.05-.06,0-.14,0-.65-.1c-.46-.07-.93-.11-1.4-.15-.95-.08-1.91-.12-2.88-.17-1.93-.07-3.87-.09-5.81-.09-2.39,0-4.78.05-7.16.16-1.8.09-3.61.19-5.39.38-.44,0-.88.11-1.31.18a3.84,3.84,0,0,0-.76.19.25.25,0,0,0-.15.31c0,.13,0,.26,0,.39s.12.73.2,1.14c.55,2.71,1.33,5.36,2,8,.16.59.33,1.17.47,1.77.51,2.23.47,3-.1,3.63a2,2,0,0,1-.41.37c-.48.24-1-.52-1.47-2.11-.73-2.35-1.46-4.79-2.1-7.31-.33-1.25-.63-2.53-.87-3.85l-.17-1a8,8,0,0,1-.11-1.84,2.67,2.67,0,0,1,.29-.79,1.21,1.21,0,0,0,.09-.2l.15-.15a3.82,3.82,0,0,1,.32-.27,4.38,4.38,0,0,1,1.72-.66c.12,0,.25-.06.35-.07l.22,0,.4-.06.76-.1,1.51-.13c1-.08,2-.14,3-.18,2-.09,4-.12,5.92-.14Z"/><path class="cls-1" d="M194,317.74a25,25,0,0,1-6.61-6.07c-.67-.82-1.36-1.61-2-2.46a80.25,80.25,0,0,1-5.59-9.47c-.74-1.44-1.48-2.88-2.22-4.3-.45-.93-1-1.83-1.38-2.77a22.56,22.56,0,0,1-1-2.94c-.16-.62.24-.7.88-.39a6,6,0,0,1,2.21,1.94c1.9,3.67,3.88,7.23,5.72,11a41,41,0,0,0,4.22,6.25,34.34,34.34,0,0,0,5.59,5.94,10.26,10.26,0,0,0,2,1.26,3.93,3.93,0,0,0,1,.31.85.85,0,0,0,.64-.13.92.92,0,0,0,.3-.4,3.29,3.29,0,0,0,.21-.72A8,8,0,0,0,198,313a18,18,0,0,0-.75-3.71,33.47,33.47,0,0,0-2.37-5.41l-.63-1.13c-.75-1.42-.87-1.85-.43-2.55a4.76,4.76,0,0,1,.24-.45c.25-.43,1.22-.13,1.92,1a26.2,26.2,0,0,1,2.71,5,27.36,27.36,0,0,1,1.72,5.74,15.12,15.12,0,0,1,.24,2.4,7.85,7.85,0,0,1-.1,1.34,5.35,5.35,0,0,1-.16.73l-.11.38c-.07.16-.14.32-.22.48a3.43,3.43,0,0,1-1.37,1.5,3.6,3.6,0,0,1-2,.41,6.9,6.9,0,0,1-2.74-.88Z"/><path class="cls-1" d="M196,322.72l-2,2.41c-.24.29-.44.62-.69.91l-2.67,3a16.22,16.22,0,0,0-1.1,1.41,7.24,7.24,0,0,1-1.47,1.75c-.39.29-1.34-1.22-.89-2a18.92,18.92,0,0,1,2.86-3.61,17.37,17.37,0,0,0,1.72-2.25l1.92-2.48c.39-.51.79-1,1.16-1.54.57-.79,1.17-1.56,1.68-2.38a18.8,18.8,0,0,0,1-2,2.55,2.55,0,0,1,.23-.43.8.8,0,0,1,1.14-.38l.37.13a.91.91,0,0,1,.48,1.06,6.56,6.56,0,0,1-.69,2,17.8,17.8,0,0,1-1.07,1.83c-.59.87-1.25,1.7-1.89,2.54Z"/><path class="cls-1" d="M253.83,282.54a4.1,4.1,0,0,1-1.79,2.35,4.5,4.5,0,0,1-2.64.53,5.93,5.93,0,0,1-.91-.11,2.61,2.61,0,0,1-.91-.29,4,4,0,0,1-2.12-2.58,4.8,4.8,0,0,1,.23-3,4.67,4.67,0,0,1,1.51-2.12,3.42,3.42,0,0,1,.77-.44,4.27,4.27,0,0,1,.86-.19,4,4,0,0,1,.86.1,3.57,3.57,0,0,1,.74.34c.3.18.09.43-.25.67a4.76,4.76,0,0,1-.57.34c-.2.08-.36.25-.52.25-1.05.2-1.54,1.69-1.59,3a1.49,1.49,0,0,0,.37,1,2.61,2.61,0,0,0,.43.31c.19.05.31.19.54.2a3.5,3.5,0,0,0,1.4.1,1.51,1.51,0,0,0,1-.58,2.75,2.75,0,0,0,.38-1.75,3.73,3.73,0,0,0-1.23-2.64.71.71,0,0,0-.73-.11c-.23.08-.33.27-.55.5s-.16.25-.26.36a1.08,1.08,0,0,1-1.25.43,2.2,2.2,0,0,1-.37-.07c-.38-.1-.58-.54-.48-1.25a3.47,3.47,0,0,1,.76-1.49,3.09,3.09,0,0,1,2-1.05,3.33,3.33,0,0,1,2.34.68,4.72,4.72,0,0,1,1.3,1.45,6.66,6.66,0,0,1,.86,2.4,6.38,6.38,0,0,1-.11,2.63Z"/><path class="cls-1" d="M248.13,296.48a1.9,1.9,0,0,1,.22,1.17,2.41,2.41,0,0,1-.33.93l-.23.33a2.08,2.08,0,0,1-.32.27,1.73,1.73,0,0,1-1.26.14,2.79,2.79,0,0,1-1.55-1.21,1,1,0,0,1,.12-1.29c.1-.1.31.12.51.33a1.42,1.42,0,0,0,.46.36,2.43,2.43,0,0,0,.54.55.33.33,0,0,0,.44,0c.11,0,.22-.43.19-.59a.45.45,0,0,0-.19-.26.91.91,0,0,0-.76,0c-.21.08-.17.32-.1.29h.07a2.12,2.12,0,0,1-.48.32l-.24.15a.56.56,0,0,1-.8-.08,1.16,1.16,0,0,1-.18-.88,1.24,1.24,0,0,1,.16-.48,1.2,1.2,0,0,1,.29-.39,2.12,2.12,0,0,1,1.41-.63,2.31,2.31,0,0,1,2.06,1Z"/><path class="cls-1" d="M249.93,298.19a3.35,3.35,0,0,1-1.48,1.93,3.7,3.7,0,0,1-2.17.45,4,4,0,0,1-.75-.1,1.88,1.88,0,0,1-.75-.24,3.23,3.23,0,0,1-1.75-2.12,4,4,0,0,1,.18-2.47,3.89,3.89,0,0,1,1.25-1.76,3.23,3.23,0,0,1,.63-.36,4.41,4.41,0,0,1,.72-.16,5.51,5.51,0,0,1,.71.08,3.11,3.11,0,0,1,.61.29c.25.14.08.35-.21.54a2.73,2.73,0,0,1-.47.27c-.16.07-.3.2-.43.2-.89.17-1.3,1.42-1.34,2.51a1.24,1.24,0,0,0,.31.87,1.79,1.79,0,0,0,.82.43,2.9,2.9,0,0,0,1.17.08,1.32,1.32,0,0,0,.84-.49,2.33,2.33,0,0,0,.31-1.46,3.07,3.07,0,0,0-1-2.2.59.59,0,0,0-.61-.1,1.37,1.37,0,0,0-.47.42c-.07.09-.13.2-.21.3a.91.91,0,0,1-1,.37,2.65,2.65,0,0,1-.3-.06c-.31-.08-.47-.45-.38-1a2.87,2.87,0,0,1,.62-1.23,2.47,2.47,0,0,1,.67-.55,2.9,2.9,0,0,1,1-.31,2.59,2.59,0,0,1,1,.1,2.64,2.64,0,0,1,.9.46,4.09,4.09,0,0,1,1.07,1.19,5.6,5.6,0,0,1,.62,4.15Z"/><path class="cls-1" d="M143.88,260.49q2.64-1.11,5.26-2.32c.64-.29,1.26-.62,1.9-.91,2.29-1,4.61-1.91,7-2.7,1-.38,2.11-.68,3.16-1l2.07-.49c.7-.13,1.41-.18,2.11-.24.44,0,.4.13,0,.36a5.19,5.19,0,0,1-1.74.67,57.08,57.08,0,0,0-7.95,2.83c-1.58.64-3.13,1.54-4.69,2.33-1.73.86-3.47,1.73-5.23,2.56-1.07.53-2.18,1-3.27,1.5-.84.36-1.69.69-2.54,1l-2.57.93c-.67.23-1.33.47-2,.73s-1.34.44-2,.63a4.83,4.83,0,0,1-.91.22c-1.16.19-1.55.07-1.85-.44a2.33,2.33,0,0,1-.2-.34c-.14-.39.27-.81,1-1.09,2.27-.79,4.66-1.39,7-2.25,1.78-.6,3.55-1.3,5.32-2.06Z"/><path class="cls-1" d="M108.5,279.56c.4,1,.76,2,1.21,2.93l.65,1.44.71,1.4c.45.94,1,1.81,1.54,2.71a11.93,11.93,0,0,0,1.82,2.34A15.61,15.61,0,0,0,118,293a23.89,23.89,0,0,0,7.48,2.59,42.78,42.78,0,0,0,8.1.62,46.15,46.15,0,0,0,7.23-.74c3.05-.56,6.06-1.33,9.06-2.15.93-.25.93.1.26.7a10.8,10.8,0,0,1-3.78,2,48.65,48.65,0,0,1-9.58,2,38.47,38.47,0,0,1-9.88-.11c-3.9-.59-8.07-1.57-11.57-3.93a16,16,0,0,1-4.7-5l-.87-1.43c-.27-.49-.51-1-.77-1.48-.53-1-1-2-1.42-3-1.07-2.49-2-5-2.86-7.56-1.3-3.85-2.41-7.77-3.62-11.6-.94-3-2-5.83-3.14-8.66l-.77-1.85c-1-2.3-1.18-3.05-.94-3.79a2.72,2.72,0,0,1,.15-.48c.11-.2.36-.11.71.23a6.92,6.92,0,0,1,1.29,1.78A51.38,51.38,0,0,1,101.7,259c1,2.73,1.83,5.52,2.69,8.3,1.3,4.12,2.56,8.26,4.16,12.22Z"/><path class="cls-1" d="M123.2,189.45c.2,3.32.27,6.63.27,9.94,0,1.21,0,2.42,0,3.62-.12,4.23-.25,8.44-.09,12.64.08,1.87.25,3.74.49,5.57.34,2.34.73,4.68,1.23,7,.15.72-.14.73-.61.21a7.33,7.33,0,0,1-1.52-2.94,40.28,40.28,0,0,1-1.17-7.36c-.2-2.47-.26-5-.22-7.43,0-3,0-6,0-9.05,0-3.29,0-6.59-.19-9.89-.11-2-.26-4.05-.48-6.06a50.93,50.93,0,0,0-1.68-9,18.74,18.74,0,0,0-1.28-3.2,9.77,9.77,0,0,0-1.89-2.65,2.24,2.24,0,0,0-.51-.42,2.73,2.73,0,0,0-.53-.33l-.47-.23-.41-.12c-.24-.12-.46-.08-.63-.16a1.93,1.93,0,0,1-.85-.45,3.52,3.52,0,0,1-.35-.31c-.15-.19,0-.4.32-.62a2.9,2.9,0,0,1,1.91-.3,5.7,5.7,0,0,1,3.32,1.89,12.35,12.35,0,0,1,2,3,29.77,29.77,0,0,1,2.09,6.6,78,78,0,0,1,1.29,10Z"/><path class="cls-1" d="M112.78,167.46a42.81,42.81,0,0,1,1.57,4.11c.17.5.37,1,.52,1.5.51,1.79.92,3.61,1.25,5.43l.48,2.42a12.28,12.28,0,0,1,.35,3.15c0,.34-.31.3-.62,0a2.27,2.27,0,0,1-.75-1.27c-.38-2-.9-4-1.31-6.11a26,26,0,0,0-1.13-3.68c-.47-1.34-1-2.66-1.55-3.94a23.88,23.88,0,0,0-1.18-2.31,12.37,12.37,0,0,0-2.34-3.05,4.86,4.86,0,0,0-2.44-1.15,3,3,0,0,1-.53-.06c-.64,0-.85-.16-1.1-.72a3.27,3.27,0,0,1-.17-.31c-.07-.16,0-.31.11-.53a1.07,1.07,0,0,1,.8-.46,4,4,0,0,1,1.75,0,6,6,0,0,1,1.59.7,9.85,9.85,0,0,1,2.38,2.25,20,20,0,0,1,2.36,3.92Z"/><path class="cls-1" d="M87.39,194.39a5.06,5.06,0,0,1,4.38-.79,12.29,12.29,0,0,1,3.36,1.47c1,.59,1.89,1.23,2.78,1.83a13.93,13.93,0,0,0,2.6,1.48,3.76,3.76,0,0,0,3.48.22,5.27,5.27,0,0,0,1.75-2.93,22.82,22.82,0,0,0,.77-3.95,68.69,68.69,0,0,0,.5-8.25,49.33,49.33,0,0,0-.49-7.31,31.74,31.74,0,0,0-1-4.49,9.54,9.54,0,0,0-.86-2,3.85,3.85,0,0,0-.28-.45,2.74,2.74,0,0,0-.3-.43,1.23,1.23,0,0,0-.38-.34,1.49,1.49,0,0,0-.43-.23c-.37-.14-.57-.2-.55-.32s.24-.25.72-.26a3.38,3.38,0,0,1,1.85.73,5.65,5.65,0,0,1,1.61,2.22,19.21,19.21,0,0,1,1.34,4.87,48.17,48.17,0,0,1,.48,4.92,65.73,65.73,0,0,1-.27,9.82,42.53,42.53,0,0,1-.93,6,9.35,9.35,0,0,1-1.34,3,4.92,4.92,0,0,1-1.37,1.27,4.38,4.38,0,0,1-1.83.56,7.81,7.81,0,0,1-3.64-.73,15.48,15.48,0,0,1-1.57-.8c-.49-.3-1-.61-1.42-.91-1.8-1.18-3.61-2.43-5.43-2.76a3.09,3.09,0,0,0-1.5.13c-.47.23-.73.41-.78.75a1,1,0,0,0,.08.52,2.52,2.52,0,0,0,.16.34,2,2,0,0,0,.22.37,12,12,0,0,0,1.18,1.46,41.21,41.21,0,0,0,4.54,4c1.6,1.25,3.22,2.46,4.84,3.67,2.51,1.9,5,3.69,7.39,5.81.52.47,1,.93,1.52,1.45,1.8,1.94,2.07,2.89,1.9,3.61a2.45,2.45,0,0,1-.11.48c-.23.36-1-.37-2.15-1.67a51.17,51.17,0,0,0-6.23-5.43c-2.25-1.74-4.61-3.45-7-5.21-1.75-1.32-3.5-2.65-5.21-4.16a14.93,14.93,0,0,1-2.57-2.53,8.07,8.07,0,0,1-.58-.89,3.78,3.78,0,0,1-.25-.62,1.82,1.82,0,0,1-.18-.72,3.06,3.06,0,0,1,.17-1.56,4.66,4.66,0,0,1,.4-.68,6,6,0,0,1,.56-.57Z"/><path class="cls-1" d="M126.58,228l0-.21c0-.08-.08,0-.13.05l-.13.1-.39.37-.46.41c-.61.54-1.22,1.07-1.85,1.58-1.25,1-2.54,2-3.85,2.94s-2.6,1.89-4,2.74a57.62,57.62,0,0,1-7.53,4,23.24,23.24,0,0,1-8.39,2.14,6.46,6.46,0,0,1-2.06-.23,3,3,0,0,1-1.89-1.4,3.53,3.53,0,0,1-.3-2.26,8.78,8.78,0,0,1,.59-1.92A24.31,24.31,0,0,1,102,228.6c.75-.66.75-.45.34.3s-1.14,2.12-2,3.66a36.55,36.55,0,0,0-2.17,4.07,7,7,0,0,0-.55,2,2,2,0,0,0,.05.72.79.79,0,0,0,.22.32,2.67,2.67,0,0,0,1.45.4,7.28,7.28,0,0,0,1,0l.53,0,.55-.09,1.1-.19,1.11-.3c.74-.16,1.47-.48,2.22-.71a51,51,0,0,0,10.22-5.58c1.69-1.15,3.37-2.33,5-3.6.8-.64,1.6-1.28,2.37-2,.37-.34.77-.66,1.13-1l.76-.73.86-.89.6-.33.45-.25.22-.13h0c-.19.75-.06.21-.1.38h0l0,0,.06.07c.16.18.41.31.65.58a2.75,2.75,0,0,1,.14.3l.1.37.19.75.32,1.26,1,3.91c1,3.94,2,7.89,3.28,11.73.94,3,2.11,5.84,3.25,8.69.27.61.53,1.22.8,1.84a17.18,17.18,0,0,1,.95,2.48,3.29,3.29,0,0,1,.14,1.27,3.08,3.08,0,0,1-.05.47c-.09.37-1-.32-2.13-1.94-2.94-4.95-4.67-10.63-6.36-16.29q-.93-3.16-1.75-6.35l-1.46-5.7Z"/><path class="cls-1" d="M108.4,230.2c0-1-.06-2-.14-3.06,0-.37-.13-.73-.16-1.1a29.67,29.67,0,0,0-.47-3.9,10.16,10.16,0,0,0-.5-1.65c-.25-.69-.55-1.32-.78-2-.07-.22.15-.35.49-.33a1.54,1.54,0,0,1,1.14.56,9.23,9.23,0,0,1,1.65,4.56c.11,1,.42,1.89.55,2.85s.24,2.11.32,3.17l.12,1.95c.06,1,.07,2,.16,2.94.07.76.26,1.5.38,2.26a1.71,1.71,0,0,1,.06.5,1,1,0,0,1-.21.68,1.3,1.3,0,0,1-.62.26,2.46,2.46,0,0,1-.33.07.76.76,0,0,1-.52-.16,1,1,0,0,1-.45-.5,6.17,6.17,0,0,1-.47-2c-.08-.67-.11-1.35-.15-2,0-1-.06-2.05-.13-3.07Z"/><path class="cls-1" d="M84,221.35l.08-3.26c0-.4,0-.79,0-1.19,0-1.41.1-2.82.14-4.22,0-.63,0-1.26,0-1.88,0-.4,0-.8,0-1.2a3.44,3.44,0,0,1,.28-1.19c.1-.25.31-.21.61,0a4.5,4.5,0,0,1,.5.44,2.43,2.43,0,0,1,.26.29,1.43,1.43,0,0,0,.11.15,1,1,0,0,1,0,.17c.06.8.1,1.6.12,2.41s-.1,1.61-.2,2.43a24.84,24.84,0,0,0,0,3l0,3.31,0,2c0,1-.07,2.06,0,3.08,0,.8.14,1.58.22,2.38,0,.17,0,.34,0,.52a.89.89,0,0,1-.24.68,1,1,0,0,1-.55.27c-.1,0-.19.06-.27.07-.24,0-.68-.25-.86-.73a16.16,16.16,0,0,1-.15-4.29c0-1.08,0-2.17,0-3.27Z"/><path class="cls-1" d="M85.37,178.84c.06-1.71.09-3.44.11-5.16,0-.63,0-1.26,0-1.89l.12-6.69c0-1,0-2,0-3l0-1.9a3.39,3.39,0,0,1,.12-.95l.24-.94c.11-.39.32-.32.6,0a4.35,4.35,0,0,1,.47.71,3.33,3.33,0,0,1,.24.46c0,.09.06.17.1.26a2.11,2.11,0,0,1,0,.26c0,1.27,0,2.54,0,3.81s-.11,2.56-.21,3.85c-.11,1.55,0,3.16,0,4.75,0,1.74,0,3.49,0,5.24l-.1,3.23c-.06,1.63-.15,3.26-.18,4.88,0,1.26,0,2.5,0,3.75,0,.28,0,.55,0,.83a2,2,0,0,1-.29,1.06.92.92,0,0,1-.57.43,2.93,2.93,0,0,1-.28.12c-.24.08-.66-.38-.8-1.14a46.23,46.23,0,0,1,.14-6.84c.1-1.72.14-3.45.17-5.18Z"/><path class="cls-1" d="M76.7,227.68c-3-1.14-5.92-2.33-8.86-3.53-1.08-.43-2.17-.83-3.23-1.27l-11.27-4.8c-1.66-.71-3.35-1.39-5-2.06A53.7,53.7,0,0,1,42,213.16c-.65-.38-.38-.6.31-.63a7.91,7.91,0,0,1,3.07.54c2.2.82,4.37,1.72,6.54,2.64s4.34,1.85,6.5,2.83c2.59,1.16,5.37,2.16,8.07,3.23,3,1.17,5.93,2.34,8.92,3.47,1.83.7,3.67,1.38,5.52,2a33.67,33.67,0,0,0,4.17,1.23,2.15,2.15,0,0,0,.44.06l.16,0,.22-.09a7.94,7.94,0,0,0,1-.44c.64-.34,1.26-.71,1.88-1.1,1.93-1.22,3.71-2.6,5.53-3.95l1.19-.9c1.52-1.09,2.09-1.32,2.71-1.12a2.3,2.3,0,0,1,.42.14c.37.23-.07.93-1.13,1.8-1.57,1.29-3.24,2.56-5,3.78-.88.61-1.77,1.2-2.7,1.78a23.06,23.06,0,0,1-3,1.66l-.36.13a1.31,1.31,0,0,1-.46.12c-.19,0-.41.07-.57.07l-.39-.06a8.7,8.7,0,0,1-1.36-.29c-.8-.22-1.61-.45-2.37-.72-1.55-.5-3.05-1.06-4.57-1.61Z"/><path class="cls-1" d="M89.85,144.79l-5.43-1.64c-.66-.2-1.33-.35-2-.55l-7-2.12c-1-.31-2.09-.56-3.13-.8a33.77,33.77,0,0,1-4-1c-.81-.3.57-1.5,2.14-1.17a75.87,75.87,0,0,1,8.16,2.24c1.6.56,3.32.94,5,1.41l5.49,1.6,3.37,1c1.71.49,3.41,1,5.12,1.44,1.33.34,2.65.57,4,.85l.88.18c1.09.23,1.36.57,1.48,1a2.25,2.25,0,0,1,.08.33c0,.33-.5.5-1.34.47a57.73,57.73,0,0,1-7.36-1.64l-5.49-1.56Z"/><path class="cls-1" d="M39.64,184.93l.43-9.62.1-3.5.67-12.37c.09-1.82.15-3.67.21-5.48.11-2.33.19-4.68.5-7,.09-.72.26-.61.42,0a15.12,15.12,0,0,1,.36,3.11c.09,4.76-.1,9.51-.33,14.31-.17,2.87-.13,5.86-.24,8.8l-.36,9.69-.23,6c-.11,3-.25,6-.32,9-.06,2.32,0,4.6-.08,6.9l0,1.52c-.1,1.89-.28,2.49-.7,2.87a2,2,0,0,1-.26.25c-.26.17-.54-.62-.59-2-.06-2.05-.14-4.16-.12-6.3s.09-4.3.17-6.47c.11-3.22.23-6.46.35-9.7Z"/><path class="cls-1" d="M70,152.31l9.73,3c1.62.48,3.25,1,4.87,1.39.39.09.82.22,1.19.3l.54.11h.11c.05-.41,0,.57,0,.45v0l0-.11,0-.2c0-.06,0-.16,0-.13h0s0,0,.11,0a14.22,14.22,0,0,0,2.1-1c2.13-1.17,4.2-2.54,6.31-3.83L98.7,150l1.87-1.1,1-.54c.48-.27,1-.57,1.56-.83l.61-.07.3,0h.15l0,.09h0l.11.06c.28.14.42.67.43,1.28l0,.9v1.82l-.06,4.41-.17,8.8c-.08,3.87-.12,7.77-.16,11.62,0,4.94,0,9.9-.28,14.84-.18,3.07-1.86-.86-1.77-6.56.14-10.08.39-20.17.69-30.32,0-1.18.06-2.37.06-3.56v-1c0-.08,0-.22,0-.26l-.25.13-.62.34-1.22.72-2.44,1.49-4.86,3c-1.47.9-2.93,1.79-4.49,2.61-.38.21-.79.41-1.21.59-.19.1-.45.17-.68.26a2.53,2.53,0,0,1-.94.12c-1-.16-1.77-.4-2.62-.62-3.32-.91-6.59-1.91-9.87-2.9L61.67,151.6l-8.86-2.8-9.64-3.09-.71-.27a2.81,2.81,0,0,1-.5-.4l-.22-.2H42v0l0,0,0,0,.11-.09a2.19,2.19,0,0,0,.42-.39,2.37,2.37,0,0,1,.93-.43l4.26-1.28q3.48-1.06,6.92-2.21l3-1c3.76-1.3,4.88-1.74,5.84-1.73.22,0,.49,0,.64,0s.09.37-.52.85a14.47,14.47,0,0,1-3,1.62c-3.15,1.34-6.44,2.45-9.79,3.5l-4.43,1.34c-.05,0,0,0,0,0l3.92,1.24c6.52,2.05,13.07,4.12,19.62,6.12Z"/><path class="cls-1" d="M96,186a3.19,3.19,0,0,1-1.52.9,2.39,2.39,0,0,1-1.79-.28,3.1,3.1,0,0,1-.65-.5,3.26,3.26,0,0,1-.44-.53c-.13-.19-.26-.39-.37-.58l-.24-.58a7.46,7.46,0,0,1-.47-1.63,15.87,15.87,0,0,1,.36-5.52,14.31,14.31,0,0,1,.69-2.35,5.87,5.87,0,0,1,.33-.73,3.1,3.1,0,0,1,.44-.71,2.39,2.39,0,0,1,.6-.63,2.36,2.36,0,0,1,.36-.26,3.38,3.38,0,0,1,.44-.18c.37-.12.4.29.38.75a3.52,3.52,0,0,1-.2,1.3,9.35,9.35,0,0,0-.87,2.33c-.25.87-.46,1.77-.64,2.71a8.51,8.51,0,0,0,.2,3.38,4.7,4.7,0,0,0,.61,1.5c.36.43.54.54.87.48a1.36,1.36,0,0,0,.6-.47,5.26,5.26,0,0,0,.58-.93,10.48,10.48,0,0,0,1-3.46,8,8,0,0,0-.25-2.7c0-.19-.12-.35-.17-.52a2,2,0,0,1-.06-.68,3.67,3.67,0,0,1,.22-.53c0-.08.06-.17.09-.23s.16-.12.39-.09a1.13,1.13,0,0,1,.78.49,3.57,3.57,0,0,1,.67,1.44,7.81,7.81,0,0,1,.24,1.5,11.82,11.82,0,0,1-.2,3,12.59,12.59,0,0,1-.62,2.19A7.21,7.21,0,0,1,96,186Z"/><path class="cls-1" d="M411.93,238.35l-.62-3.76c-.08-.46-.21-.91-.28-1.37l-.78-4.85c-.13-.71-.28-1.43-.44-2.13a15.82,15.82,0,0,1-.51-2.73c0-.58,1.23-.1,1.54.92s.48,1.83.68,2.76.32,1.87.42,2.82c.13,1.14.45,2.28.67,3.43l.71,3.78.44,2.32c.23,1.17.44,2.36.72,3.51.22.9.51,1.76.74,2.64,0,.2.12.38.16.58.16.73.11,1-.24,1.22a1.67,1.67,0,0,1-.24.16c-.28.13-.59-.12-.81-.63-.33-.76-.63-1.56-.89-2.37s-.41-1.66-.59-2.5c-.26-1.26-.48-2.53-.72-3.79Z"/><path class="cls-1" d="M447.1,213.81q-4.5.85-9,1.79l-3.26.74c-3.85.81-7.69,1.62-11.51,2.55-1.69.41-3.38.91-5.05,1.36a49,49,0,0,0-6.22,2.13c-.61.27-.7,0-.32-.59a5.56,5.56,0,0,1,2.5-1.83,65.3,65.3,0,0,1,6.58-2q3.31-.9,6.69-1.6c2.69-.57,5.44-1.34,8.17-2,3-.71,6-1.36,9-2l5.57-1.18,8.44-1.78c2.16-.48,4.26-1.07,6.4-1.59.47-.12.93-.25,1.4-.36,1.77-.38,2.37-.33,2.86.18a2.12,2.12,0,0,1,.32.36c.25.42-.4.93-1.67,1.3-3.77,1.1-7.8,2-11.85,2.79l-9.07,1.81Z"/><path class="cls-1" d="M423.37,246a10.93,10.93,0,0,0,.25-2.93,4.72,4.72,0,0,0-.23-1.28c-.14-.37-.16-.38-.29-.46s-.17,0-.31.09a2.85,2.85,0,0,0-.56.56,29.46,29.46,0,0,0-2.3,3.36l-2.26,3.6c-.69,1.06-1.38,2.14-2.14,3.18-.24.33-.49.66-.76,1a8.39,8.39,0,0,1-.91.88,5.32,5.32,0,0,1-2.35,1.2c-.59.06-.48-.22-.18-.59s.66-1,1.13-1.69a10.42,10.42,0,0,0,.63-.91c.2-.32.45-.6.67-.91.44-.62.87-1.28,1.3-1.94.83-1.35,1.75-2.68,2.68-4.05.56-.81,1.07-1.68,1.61-2.56a10.76,10.76,0,0,1,2-2.66,3.5,3.5,0,0,1,1.14-.58,2,2,0,0,1,1.31.09,2.44,2.44,0,0,1,1,.83,5.54,5.54,0,0,1,.3.53l.19.48a9.26,9.26,0,0,1,.28,3.63,17.51,17.51,0,0,1-.95,4.15,23.24,23.24,0,0,1-2.95,5.63,28.08,28.08,0,0,1-3.05,3.82,5.4,5.4,0,0,1-.78.73c-1.07.83-1.6.82-2.06.65a2.09,2.09,0,0,1-.3-.11c-.13-.08-.12-.24,0-.5a2.85,2.85,0,0,1,.6-1c.83-1.12,1.81-2.05,2.66-3.14a25.09,25.09,0,0,0,2.34-3.41,18.34,18.34,0,0,0,2.18-5.72Z"/><path class="cls-1" d="M409.64,276a12.08,12.08,0,0,0,1.52-1.43,11.65,11.65,0,0,0,1.34-1.62,12.38,12.38,0,0,0,.8-1.31,17.7,17.7,0,0,0,2.13-5.06,11.78,11.78,0,0,0,.29-2.43,16.21,16.21,0,0,0-.25-3c0-.26.23-.47.68-.35a1.86,1.86,0,0,1,1.18,1.36,12.4,12.4,0,0,1-.78,7c-.27.65-.54,1.32-.79,2s-.61,1.32-1,1.94a18.81,18.81,0,0,1-3,3.68l-1.07,1a14,14,0,0,1-1.16.87,12.05,12.05,0,0,1-1.82,1.18c-.65.33-1.25.75-1.9,1s-1,.49-1.49.76l-.73.4-.77.31a5.74,5.74,0,0,1-.69.26,2.15,2.15,0,0,1-1,.11,1.11,1.11,0,0,1-.54-.44c-.07-.1-.15-.19-.2-.28a.59.59,0,0,1,.06-.55,1.52,1.52,0,0,1,.58-.61c1.64-1,3.42-1.56,5-2.53A14.25,14.25,0,0,0,408,277.2a12.77,12.77,0,0,0,1.65-1.28Z"/><path class="cls-1" d="M389.84,299.91c1.15-1.63,2.36-3.23,3.56-4.82.44-.59.85-1.19,1.3-1.76,1.62-2,3.29-4,5.07-5.84.39-.42.78-.84,1.18-1.25s.76-.86,1.2-1.24a19.44,19.44,0,0,1,1.69-1.44c.31-.22.61-.43.93-.64s.69-.33,1-.48.48.1.3.56a6,6,0,0,1-1.1,1.63c-1.93,2-3.93,4.09-5.93,6.24a45.19,45.19,0,0,0-3.31,4.26q-1.78,2.39-3.48,4.84-1.05,1.5-2.07,3c-1,1.55-2,3.12-2.94,4.72-.7,1.25-1.27,2.54-1.86,3.82a9.2,9.2,0,0,1-.4.84,3.46,3.46,0,0,1-.72,1,1.31,1.31,0,0,1-.72.25c-.11,0-.23,0-.33,0s-.24-.17-.28-.43a2.11,2.11,0,0,1,.09-1.05,34,34,0,0,1,3.48-7.19c1-1.73,2.14-3.42,3.25-5.1Z"/><path class="cls-1" d="M391.37,325.9a7.8,7.8,0,0,1-2.48-1.66,15.17,15.17,0,0,1-1.89-2c-.61-.68-1.05-1.44-1.58-2.15s-.9-1.5-1.36-2.24c-.58-1.12-1.25-2.2-1.73-3.36a117.34,117.34,0,0,1-4.46-12.38l-1.74-5.52c-.75-2.34-1.52-4.68-2.21-7-.21-.73.09-.75.61-.25a8.44,8.44,0,0,1,1.78,2.85c.89,2.37,1.73,4.73,2.54,7.11s1.53,4.76,2.3,7.16a62.88,62.88,0,0,0,3.6,8.42,24.84,24.84,0,0,0,5.7,8l.56.48.59.37c.2.1.39.19.59.27s.39.13.55.1c.67.08,1.24-.53,1.64-1.38a14.25,14.25,0,0,0,.94-4.41,34.62,34.62,0,0,0,.06-4.67,52.56,52.56,0,0,0-1-7.12l-.33-1.53c-.42-1.91-.29-2.55.11-3.1a2.81,2.81,0,0,1,.27-.36c.16-.15.38-.05.65.26a4.88,4.88,0,0,1,.82,1.57A46.08,46.08,0,0,1,397.55,317a21.31,21.31,0,0,1-.78,5.42,6.45,6.45,0,0,1-1.6,2.85,3.57,3.57,0,0,1-1.89.94,4.4,4.4,0,0,1-1,0,5.92,5.92,0,0,1-.9-.23Z"/><path class="cls-1" d="M393.43,272.49a132.12,132.12,0,0,1-10.36,12.26c-1.32,1.44-2.69,2.83-4.06,4.22a116.34,116.34,0,0,1-16,12.94c-2.55,1.66-5.1,3.36-7.77,4.79-.86.45-1.67,1-2.57,1.39L350,309.34l-1.32.61c-.46.18-.92.33-1.38.5-.93.32-1.85.62-2.78.91-1.16.37-1.12-.07-.29-.79a11.84,11.84,0,0,1,1.77-1.25c.74-.47,1.67-.84,2.63-1.36a102.91,102.91,0,0,0,19.72-12.39A105.64,105.64,0,0,0,379,285.82a137,137,0,0,0,10.51-11.94,91.75,91.75,0,0,0,5.61-8c.69-1,1.24-2.11,1.85-3.17s1-2.21,1.51-3.35c.94-2.29,1.81-4.61,2.64-6.93.67-1.82,1.19-3.58,1.9-5.45a20.7,20.7,0,0,1,3.11-5,24.15,24.15,0,0,1,1.76-1.89c2.39-2.19,3.45-2.53,4.25-2.51a2.92,2.92,0,0,1,.54,0c.44.18-.55,1-2.16,2.48a22.71,22.71,0,0,0-5.6,8c-.27.7-.56,1.62-.84,2.44s-.57,1.69-.86,2.54c-.59,1.69-1.19,3.39-1.82,5.09-.47,1.26-1,2.52-1.5,3.78-.27.63-.56,1.28-.88,1.92l-1,1.82a76.13,76.13,0,0,1-4.5,6.84Z"/><path class="cls-1" d="M368.53,340.57a34.44,34.44,0,0,0,4.66-3.24c.55-.44,1-.94,1.58-1.4,1.89-1.62,3.78-3.3,5.68-5l2.5-2.29a14.2,14.2,0,0,1,3.55-2.57c.42-.2.58.21.5.78a3,3,0,0,1-1,1.8c-2.12,1.79-4.16,3.81-6.42,5.7-1.34,1.14-2.58,2.51-4,3.71a44.55,44.55,0,0,1-4.79,3.7,30.81,30.81,0,0,1-3.26,1.86,21.31,21.31,0,0,1-5.45,1.76,18.55,18.55,0,0,1-4.4.34,8,8,0,0,1-1-.1,2.25,2.25,0,0,1-1.22-.43,1,1,0,0,1-.43-.62,2.23,2.23,0,0,1-.09-.32c0-.32.51-.52,1.35-.6a28.48,28.48,0,0,0,3.59-.24,33.57,33.57,0,0,0,3.51-.71,21.08,21.08,0,0,0,5-2.19Z"/><path class="cls-1" d="M436.78,235.42l-5.51-1.77c-.67-.22-1.35-.39-2-.61-2.35-.79-4.69-1.62-7-2.44-1-.37-2.1-.69-3.15-1a18.43,18.43,0,0,1-4-1.49c-.4-.23-.15-.59.35-.84a2.76,2.76,0,0,1,2-.12c2.65.93,5.35,1.85,8,2.93,1.6.64,3.34,1.08,5,1.61l5.54,1.75,3.42,1.05c1.74.51,3.47,1,5.21,1.47,1.35.34,2.7.57,4.05.83l.89.15c1.11.23,1.41.43,1.56.93a1.54,1.54,0,0,1,.1.33c0,.34-.48.56-1.33.49a49.17,49.17,0,0,1-7.56-1.58c-1.87-.51-3.74-1.08-5.61-1.63Z"/><path class="cls-1" d="M461,224.31l-2.89,3.5c-.35.43-.65.89-1,1.32-1.26,1.5-2.51,3-3.81,4.47-.57.66-1.11,1.34-1.64,2a14.19,14.19,0,0,1-2.21,2.5c-.54.44-1.12-1.24-.38-2.24a62.43,62.43,0,0,1,4.23-5.2,39.43,39.43,0,0,0,2.53-3.27l2.82-3.61,1.75-2.22c.88-1.12,1.81-2.22,2.66-3.35.68-.88,1.22-1.83,1.89-2.71.14-.19.26-.4.43-.59.58-.69.91-.78,1.46-.54a3.17,3.17,0,0,1,.37.17c.37.23.42.77.1,1.35a31.14,31.14,0,0,1-3.42,4.88l-2.84,3.55Z"/><path class="cls-1" d="M481.56,251.81c0,.34,0,.71-.05,1.06s-.07.61-.09,1.29a2.43,2.43,0,0,1-.9,1.35l-.34.24a2.33,2.33,0,0,1-.26.16l-.45.25c-.59.31-1.16.57-1.74.81-1.15.49-2.29.92-3.44,1.34-2.3.84-4.61,1.59-6.93,2.32-1.92.6-3.82,1.23-5.75,1.78q-10.23,2.89-20.67,4.84c-3.09.57-6.2,1.12-9.3,1.51a48.64,48.64,0,0,1-6,.42,14.11,14.11,0,0,1-6.07-1.07c-.6-.32-.76-.63-.68-.68s.41,0,.93.1a28,28,0,0,0,5.1.09c7.92-.45,15.89-2.22,23.85-4,4.77-1.07,9.66-2.51,14.44-4,2.63-.8,5.25-1.64,7.85-2.54a59.79,59.79,0,0,0,7.53-3l.31-.18.17-.11c.1-.07.21-.16.18-.3s.05-.56.08-.87a5.88,5.88,0,0,0,.06-1c0-.7,0-1.39,0-2.09l-.14-2.11c-.06-.7-.16-1.41-.24-2.11-.61-5.07-1.62-10.14-2.73-15.12-.86-3.87-1.9-7.62-2.82-11.44-.19-.85-.39-1.67-.56-2.53-.66-3.17-.59-4.26-.44-5,0-.16.07-.38.11-.48.16-.32.52.93,1.24,3.18l1.53,5.1c.47,1.74.94,3.5,1.41,5.26.92,3.55,1.8,7.16,2.6,10.81.58,2.72,1.12,5.45,1.55,8.22a56.3,56.3,0,0,1,.79,8.5Z"/><path class="cls-1" d="M401.18,388.39l-8.92-.35c-1.09,0-2.18,0-3.26-.06-3.82-.17-7.67-.42-11.45-.5-1.68,0-3.38.1-5.07.21a28.79,28.79,0,0,1-6.56,0c-.68-.11-.55-.57,0-1a5.35,5.35,0,0,1,2.83-1c2.16-.16,4.35-.26,6.58-.34a60.07,60.07,0,0,1,6.72.17c2.67.19,5.44.09,8.16.14,3,.05,6,.16,9,.24l5.54.15c2.79.05,5.59.15,8.37.13,2.15,0,4.26-.19,6.39-.3.47,0,.93-.08,1.4-.07,1.75,0,2.31.22,2.69.88a2.53,2.53,0,0,1,.25.45c.17.5-.54.92-1.82,1.11a81.27,81.27,0,0,1-11.86.49c-3,0-6-.13-9-.2Z"/><path class="cls-1" d="M58.23,385.53l5.37.21c.65,0,1.3,0,1.95,0l6.91.28c1,0,2,0,3.05,0a30,30,0,0,1,3.91.09c.81.08-.23,1.21-1.72,1.3-2.64.11-5.28.19-8,.08-1.6-.07-3.26.08-4.89.13l-5.39.11-3.32.07c-1.68,0-3.36,0-5,.11-1.29,0-2.55.34-3.83.38-.28,0-.56.05-.84.05-1.05,0-1.39-.16-1.64-.65a3.4,3.4,0,0,1-.16-.34c-.12-.38.3-.72,1.06-.94a18,18,0,0,1,3.49-.72c1.18-.12,2.39-.18,3.6-.22l2.7-.07c.9,0,1.81,0,2.71.05Z"/><path class="cls-1" d="M212.09,158.94c.56,4.46,1.7,15.71,8.87,13.84,5-1.3,6.68-9.18,7.41-13.47.3-1.73-2.35-2.47-2.65-.73-.59,3.46-1.55,8.4-4.3,10.82-4.75,4.18-6.27-8-6.58-10.46-.21-1.73-3-1.75-2.75,0Z"/><path class="cls-1" d="M241.83,159.58c-.89,5.49-1.7,17.74,7.13,16.86,6.57-.66,11.16-9.67,11.85-15.44.21-1.76-2.54-1.74-2.75,0-.52,4.37-3.92,10.89-8.31,12.45-7,2.49-5.86-9.51-5.27-13.14.28-1.73-2.37-2.48-2.65-.73Z"/><path class="cls-1" d="M237.75,205.24a3.78,3.78,0,0,0,1.09,4.84,3.27,3.27,0,0,0,4.55-1.38,3.16,3.16,0,0,0-1.19-4.07c-1.63-.95-3.36,0-4.13,1.56a1.53,1.53,0,0,0,.54,2.05,1.51,1.51,0,0,0,2-.54,2.68,2.68,0,0,1,.18-.33c.07-.12.19-.23,0-.07,0,0,.28-.25.1-.11s.1-.07.1-.05-.51.07-.17.1c0,0-.36-.06-.16,0s-.31-.15-.05,0-.07,0-.1-.08.11.1.15.15-.24-.15-.05,0,.11.31,0,.06,0,0,0,.08c0,.27,0-.28,0-.08s-.06.28,0-.08c0,.05-.08.33,0,.1s0,.08-.05.09.21-.21,0,0c0,0-.27.22-.12.11s-.17.09-.21.11c.22-.1-.1-.06.06,0s-.09,0-.15,0l.18,0c-.13,0-.13,0,0,0s-.2-.21.12.09c0,0-.27-.25-.12-.09s-.06-.11-.07-.13,0-.08,0,.05c0-.12-.07-.23-.1-.35s0-.07,0,0a1.48,1.48,0,0,0,0-.3c0-.14-.08.22,0,0s-.13.21,0-.11a1.5,1.5,0,0,0-2.59-1.51Z"/><path class="cls-1" d="M369.69,341.36c-1,.49-2,1-3,1.39-.37.15-.72.36-1.11.48a23.18,23.18,0,0,1-4.19,1c-.64,0-1.26.18-1.9.2-.41,0-.82.09-1.23.08a6.23,6.23,0,0,1-1.21-.27c-.25-.09-.15-.44.11-.79a1.64,1.64,0,0,1,1.05-.74,32.31,32.31,0,0,0,4.43-.32,11.56,11.56,0,0,0,2.68-.89c1-.4,1.94-.82,2.89-1.31.58-.29,1.16-.6,1.73-.93.87-.5,1.74-1,2.57-1.56.64-.45,1.24-.93,1.89-1.37.14-.1.28-.2.43-.29.57-.32.82-.32,1.11,0a1.7,1.7,0,0,1,.19.19c.17.23.06.56-.28.87a20.42,20.42,0,0,1-3.3,2.66c-.91.6-1.87,1.16-2.83,1.7Z"/><path class="cls-1" d="M149.78,312.05c1.15-1.63,2.39-3.17,3.67-4.66.47-.55.9-1.12,1.39-1.65a61.31,61.31,0,0,1,5.55-5.15l2.55-2.17a15,15,0,0,1,3.53-2.45c.42-.19.57.21.48.76a2.86,2.86,0,0,1-1,1.75c-2.16,1.74-4.22,3.64-6.36,5.51a41.76,41.76,0,0,0-3.56,3.82c-1.26,1.44-2.48,2.92-3.6,4.47-.68,1-1.36,1.92-2,2.94A24,24,0,0,0,148.2,320a13.23,13.23,0,0,0-.57,3.89c0,.28,0,.55,0,.83,0,1-.12,1.35-.59,1.69-.11.08-.21.17-.31.23-.34.2-.81-.19-1.14-1.1a9.07,9.07,0,0,1-.16-4.21,18.93,18.93,0,0,1,1.27-4,34.91,34.91,0,0,1,3-5.31Z"/><path class="cls-1" d="M74.68,146.24c2.36,1,4.8,1.8,7.15,2.91l.48.23.25.12a2.7,2.7,0,0,1,.37.23,2.42,2.42,0,0,1,.36.27c.13.1.08.19.15.3s0,.1,0,.16,0,.13,0,.18-.17.16-.25.26a2.14,2.14,0,0,1-1,.36,15.52,15.52,0,0,1-5-1.06c-1.58-.53-3.14-1.1-4.69-1.68-1.37-.52-2.75-1-4.12-1.5l-5.3-1.8c-1.11-.35.48-.58,2.58,0,3.68,1.08,7.28,2.35,10.87,3.66a27.93,27.93,0,0,0,3.15,1c.53.13,1.06.27,1.59.35a5.2,5.2,0,0,0,.77.09,2.55,2.55,0,0,0,.31,0l.13,0s.08,0,.09-.07-.11-.14-.24-.24a6.13,6.13,0,0,0-.84-.45c-.57-.28-1.17-.53-1.76-.78l-3.61-1.43a43.72,43.72,0,0,1-4.4-1.95,1.52,1.52,0,0,1-.39-.35.51.51,0,0,1-.08-.57,1.1,1.1,0,0,1,.55-.23,3.87,3.87,0,0,1,.48,0,10.06,10.06,0,0,1,1.83.22c1.19.23,2.36.53,3.53.82L83,146.48l1.17.27c1.46.37,1.9.55,2.16.9a2.25,2.25,0,0,1,.17.21c.12.17-.55.32-1.66.13a100.57,100.57,0,0,1-9.89-2.63c-.61-.17-1.23-.33-1.84-.45-.31,0-.61-.13-.9-.16a2,2,0,0,0-.41,0h0l0,0a2.39,2.39,0,0,0,.33.27,7.79,7.79,0,0,0,.81.46,17.57,17.57,0,0,0,1.78.75Z"/><path class="cls-1" d="M179.87,85.12c-.25-.13,0-.42.55-.82a2.76,2.76,0,0,1,.88-.33,3.47,3.47,0,0,1,.56.15c.09,0,.82,1,1.1,1.29a3.68,3.68,0,0,1,.61,1l1,2.11a1.53,1.53,0,0,1,.13.52,4.72,4.72,0,0,0,.59,1.74c.05.09.08.2.21.25a2.47,2.47,0,0,1,.51.89,3.74,3.74,0,0,1,.29,1c0,.59,0,1.16,0,1.73,0,.08.06.15,0,.25s-.15.38-.14.55a2.58,2.58,0,0,1,0,.73,1.47,1.47,0,0,1-.23.39c-.08.13-.43.15-.47.12s-.28,0-.42.09l-.15,0a10.24,10.24,0,0,1-1.21-1.11s-.2-.43-.42-.86a10,10,0,0,0-.53-.94c-.07-.09,0-.21-.05-.32s-.74-1.3-.76-1.36c-.08-.29-.3-.52-.19-.9,0-.07,0-.12,0-.18a8.23,8.23,0,0,1-.53-1.49,7,7,0,0,0-.33-.74.43.43,0,0,1,0-.16.58.58,0,0,0,0-.19,15.8,15.8,0,0,0-.8-1.79c-.09-.12-.09-.91-.2-1S180,85.17,179.87,85.12Z"/><path class="cls-1" d="M164,104c-.21,0-.19-.26,0-.78a2.5,2.5,0,0,1,.39-.66c.15-.08.29-.16.41-.21s.89.12,1.18.12a2.35,2.35,0,0,1,.75.18c.48.19,1,.32,1.55.49a1.13,1.13,0,0,1,.35.2A4.92,4.92,0,0,0,170,104a.34.34,0,0,0,.27,0,2,2,0,0,1,.82.38,2.59,2.59,0,0,1,.7.6,10.77,10.77,0,0,1,.58,1.27c0,.07.08.1,0,.21a.42.42,0,0,0,0,.45,2.16,2.16,0,0,1,.16.51.92.92,0,0,1-.06.35c0,.11-.29.24-.34.24s-.2.13-.29.2l-.11.08c-.05,0-1.1-.3-1.19-.32s-.27-.2-.53-.36-.53-.31-.59-.34-.07-.11-.1-.17a3.7,3.7,0,0,0-.82-.33c-.13-.11-.33-.09-.42-.37,0,0-.05,0-.09-.06a6.93,6.93,0,0,1-1-.48c-.17-.09-.37-.13-.57-.21,0,0-.06,0-.09-.08s-.07-.08-.12-.09c-.47-.15-.89-.46-1.39-.59-.11,0-.5-.5-.63-.53S164.12,104,164,104Z"/><path class="cls-1" d="M245.83,147.13c5.77-2.2,12.72-5.32,17.63.11,1.73,1.92,4.55-.92,2.83-2.83-6-6.64-14.26-3.91-21.53-1.14-2.38.91-1.34,4.77,1.07,3.86Z"/></g></svg>