<svg xmlns="http://www.w3.org/2000/svg" width="520" height="520" viewBox="0 0 520 520"><defs><style>.cls-1,.cls-2,.cls-3{fill:#231f20;}.cls-1{opacity:0.1;}.cls-3,.cls-4{opacity:0.15;}</style></defs><title>Notioly New</title><g id="_148.Strategy" data-name="148.Strategy"><path class="cls-1" d="M238.52,166.45s-8.53,9.17-5.94,18.71,10.85,19,23.25,16.69,16.47-14.45,16.77-16.69S272,164,258.33,161.88A28,28,0,0,0,238.52,166.45Z"/><path class="cls-1" d="M285.28,180.81s-13.45,6.62-14.62,18,10.37,18.21,18.91,15,15.44-14.75,12.21-24.23S285.28,180.81,285.28,180.81Z"/><path class="cls-2" d="M287.93,416.11l-49.68-8.18L220.13,405,156.3,394.27,128,389.61l-18.1-2.93c-3-.51-6-1-9-1.55l-9-1.79c-3.88-.86-3.1-1,.1-.83,1.59.09,3.91.23,6.66.47,1.38.12,2.88.25,4.47.44s3.25.46,5,.74c24.59,4.07,49.15,8.16,73.91,12.47,14.8,2.58,30.25,5,45.42,7.48l50.05,8.18,30.81,5c15.56,2.46,31.19,5,46.65,7.27,12,1.8,23.82,3.42,35.73,5l7.83,1.06,6.18.89c1.69.27,3.05.54,4.18.76a24.68,24.68,0,0,1,4.54,1.27c.46.19,1.08.4,1.34.55.89.52-3.16.37-10.38-.31-10.69-1.21-21.62-2.76-32.69-4.38s-22.3-3.38-33.53-5.13l-50.16-8.06Z"/><path class="cls-2" d="M272.32,325.09s-1,10.87-4.61,11.13-5.7-11.53-5.7-11.53Z"/><path class="cls-2" d="M333.94,293.48c-1.29.48-2.58,1-3.86,1.48-.47.19-.91.42-1.38.61l-4.95,2c-.73.3-1.44.65-2.14,1a12.31,12.31,0,0,1-2.76,1.19c-.31.08-.38-.14-.26-.5a2.34,2.34,0,0,1,.89-1.22,44.66,44.66,0,0,1,5.61-2.6c1.17-.41,2.31-1,3.48-1.52s2.57-1.08,3.86-1.61l2.38-1c1.2-.49,2.42-1,3.6-1.49.91-.41,1.77-.91,2.65-1.37l.57-.31c.75-.34,1-.34,1.39.08.08.09.16.17.22.25.2.28.05.78-.47,1.08a31,31,0,0,1-4.94,2.42L334,293.51Z"/><path class="cls-2" d="M118.23,368.73l-6.74,2.41-2.45.92c-2.89,1-5.8,2-8.71,2.94-1.29.43-2.57.9-3.84,1.38a40.16,40.16,0,0,1-4.92,1.68c-.52.13-.54-.12-.21-.53a5.43,5.43,0,0,1,1.91-1.46c3.3-1.31,6.61-2.53,10-3.61,2-.63,4.09-1.49,6.13-2.25l6.74-2.5,4.14-1.58c2.07-.82,4.17-1.63,6.2-2.52,1.58-.68,3.08-1.47,4.61-2.22.34-.17.66-.35,1-.51,1.27-.59,1.72-.68,2.21-.32a2.08,2.08,0,0,1,.31.22c.26.24-.1.84-1,1.33a74.21,74.21,0,0,1-8.62,4c-2.23.9-4.49,1.76-6.74,2.62Z"/><path class="cls-2" d="M255.34,183.07a12.1,12.1,0,0,1-1.05,1.9,1.76,1.76,0,0,0,.63,2.39,1.78,1.78,0,0,0,2.39-.62,13.13,13.13,0,0,0,1.06-1.9,1.8,1.8,0,0,0-.63-2.39,1.77,1.77,0,0,0-2.4.62Z"/><path class="cls-2" d="M277.27,197.6c.15-.35-.07.1-.09.13s-.32.42-.09.15a1.79,1.79,0,0,0,0,2.47,1.76,1.76,0,0,0,2.48,0,6.69,6.69,0,0,0,1.08-1.82,1.75,1.75,0,0,0-1.22-2.15,1.81,1.81,0,0,0-2.16,1.22Z"/><path class="cls-2" d="M460.39,355.71l-5.56-.81-2-.23-7.17-1c-1.06-.16-2.13-.26-3.19-.37l-2-.19c-.68-.11-1.35-.29-2-.44-.42-.11-.33-.34.06-.57a5.26,5.26,0,0,1,1.88-.56,60.23,60.23,0,0,1,8.32.88c1.66.3,3.41.39,5.12.59l5.63.72,3.46.47,5.24.71c1.36.17,2.7.24,4.05.39l.9.1c1.11.18,1.43.47,1.55,1a2.41,2.41,0,0,1,.07.35c0,.37-.5.59-1.3.58-2.36-.14-4.86-.41-7.36-.76l-5.6-.77Z"/><path class="cls-2" d="M398.35,349,392,347.86c-.78-.14-1.56-.21-2.32-.35q-4.06-.78-8.12-1.64c-1.2-.23-2.42-.46-3.62-.66-1.54-.33-3.13-.37-4.62-1.36-.45-.31-.18-.62.38-.94a7.33,7.33,0,0,1,1-.46,2,2,0,0,1,1.24-.13l4.59.85c1.54.34,3.08.72,4.64,1.13,1.85.5,3.83.69,5.76,1l6.37,1.1,3.92.64c2,.31,4,.62,6,.87,1.54.2,3.06.27,4.59.4.33,0,.66,0,1,.1,1.25.19,1.63.37,1.84.9a2.69,2.69,0,0,1,.13.32c.08.32-.47.64-1.41.67a55,55,0,0,1-8.55-.37c-2.14-.27-4.28-.61-6.42-.92Z"/><path class="cls-2" d="M341.52,338.7c2.74.45,5.5.87,8.25,1.26,1,.13,2,.2,3,.34,3.54.48,7.09,1,10.65,1.34,1.58.16,3.17.24,4.74.31,2,.07,4.08,0,5.91.17.57.07.67.43.21,1a3.73,3.73,0,0,1-1.11.87,3.38,3.38,0,0,1-1.64.46c-2.13,0-4.23,0-6.31-.19s-4.16-.48-6.24-.84c-2.48-.42-5.08-.57-7.62-.91-2.8-.35-5.59-.77-8.38-1.2l-5.13-.82c-2.6-.41-5.2-.87-7.77-1.34-2-.34-4-.62-6-1-.44-.1-.87-.18-1.31-.31a5.75,5.75,0,0,1-1.68-.67,1.24,1.24,0,0,1-.57-.74,1.3,1.3,0,0,1-.1-.36c0-.33.75-.47,1.86-.24,3.44.53,7.18.95,10.88,1.53,2.75.45,5.52.91,8.3,1.31Z"/><path class="cls-2" d="M373.48,367.25l-5.63-1-2.06-.32c-2.42-.42-4.82-.89-7.25-1.26l-3.23-.44c-.68-.1-1.37-.16-2.06-.28s-1.37-.27-2.06-.37c-.42-.08-.36-.18,0-.28a6.09,6.09,0,0,1,.77-.14,10.32,10.32,0,0,1,1.11-.15,38.18,38.18,0,0,1,4.28.14c1.41.18,2.82.39,4.23.66,1.69.31,3.46.52,5.19.8l5.69,1,3.5.63c1.77.31,3.54.65,5.29.92,1.37.21,2.73.33,4.09.49l.89.09c1.12.13,1.44.4,1.62.78a1.59,1.59,0,0,1,.12.27c.06.27-.43.45-1.27.47a65.29,65.29,0,0,1-7.56-.94l-5.69-1Z"/><path class="cls-2" d="M364.62,377.66,370,375.1c.65-.31,1.28-.67,1.94-1,2.32-1.07,4.68-2.1,7.05-3.06,1-.42,2.09-.87,3.12-1.33a24.72,24.72,0,0,1,4-1.61c.44-.11.49.15.27.58a3.4,3.4,0,0,1-1.43,1.46c-1.32.66-2.65,1.3-4,1.9-.67.31-1.35.6-2.05.86l-2.06.81c-1.65.64-3.25,1.54-4.89,2.33l-5.4,2.6-3.34,1.58c-1.7.8-3.42,1.55-5.12,2.3-1.32.58-2.59,1.21-3.93,1.74-.29.12-.57.24-.87.35-1.13.36-1.52.37-1.87.12a1.34,1.34,0,0,1-.23-.16c-.18-.21.2-.58,1-1,1.12-.59,2.28-1.16,3.46-1.73s2.36-1.17,3.57-1.71c1.79-.83,3.6-1.67,5.39-2.55Z"/><path class="cls-2" d="M323.63,361.27l-2.89-.62c-.35-.08-.71-.12-1.06-.2-1.24-.3-2.47-.59-3.69-1-.54-.17-1.08-.32-1.62-.47a14.93,14.93,0,0,1-2-.71c-.2-.09-.15-.16.06-.22a3.25,3.25,0,0,1,1-.05l2.16.3,1.07.17,1.05.29a24.92,24.92,0,0,0,2.63.49l2.91.51,1.79.29c.91.14,1.82.31,2.73.41.71.08,1.41.07,2.12.1a3.69,3.69,0,0,1,.47,0c.58,0,.74.23.8.62a1.26,1.26,0,0,1,0,.27c0,.3-.26.51-.69.57a19.14,19.14,0,0,1-3.9-.26c-1-.13-1.95-.31-2.93-.5Z"/><path class="cls-2" d="M305.81,371.23l5.81-2.48c.71-.31,1.39-.66,2.1-1l7.47-3.17c1.11-.47,2.19-1,3.25-1.54l2-1.06c.67-.32,1.43-.6,2.08-.85.41-.15.59.12.43.65a3.68,3.68,0,0,1-1.39,1.81A68.58,68.58,0,0,1,319,367.5c-1.77.66-3.52,1.56-5.29,2.34l-5.84,2.53-3.59,1.56c-1.8.81-3.63,1.58-5.41,2.4-1.38.65-2.69,1.38-4,2.05-.29.15-.58.31-.88.45-1.15.47-1.55.53-1.94.35a1.45,1.45,0,0,1-.25-.11c-.21-.16.14-.57.89-1.13a58,58,0,0,1,7.35-4.12c1.91-.94,3.87-1.76,5.81-2.64Z"/><path class="cls-2" d="M435.84,362.8s5.18-.11,6.41,1.68-8.66,2.85-11.08,2.85,3.65-2.52,3.65-2.52Z"/><path class="cls-2" d="M348.61,347.43a6.43,6.43,0,0,1-5.69,6c-2.94.49-4.58-.55-6.26-2.89-.65-.91-2.17,0-1.51.88,2.26,3.15,4.66,4.41,8.55,3.66a8.16,8.16,0,0,0,6.66-7.61c.09-1.12-1.66-1.12-1.75,0Z"/><path class="cls-2" d="M362,305.07c1,2.78,1.91,5,4.77,6.26a10.12,10.12,0,0,0,8.41,0c1.18-.51.16-2.24-1-1.73a8,8,0,0,1-7-.27c-2-1.05-2.55-2.83-3.28-4.8-.44-1.19-2.37-.68-1.92.54Z"/><path class="cls-2" d="M375.4,337.47c-2.71,2.45-15.33.68-15.84-1s2.22-7.43,2.22-7.43l3.13.91s-1.74,2.84.89,4.28,8.15.95,9.6-.1Z"/><path class="cls-2" d="M435.38,364.59c1.32-1.26-.63-8.41-.63-8.41s-2.93,1-4.41.83c0,0,.2,3.44-1,4.11-2.08,1.15-8.56,0-9.73-2.21a11.81,11.81,0,0,0-.65,3.89c.11,1.79,6.33,4.38,10.43,3.51A33.91,33.91,0,0,0,435.38,364.59Z"/><path class="cls-2" d="M332.36,378.64c-1.76-2.1,2.13-7.16,2.13-7.16s3.34,2.29,6.15,1.9c0,0-1.1,1.87-.07,2.63.79.58,6.82,1.54,7.95,0,0,0,.34,3.75-.66,4.33S335,381.75,332.36,378.64Z"/><path class="cls-2" d="M291.14,374.33c1.69-1.33-1.28-8.67-1.28-8.67s-2.59,1.34-4.56.67c0,0,1,2.8,0,3.89s-9.67.39-9.93-2c0,0-1.24,3.05-.59,5.1S289,376,291.14,374.33Z"/><path class="cls-2" d="M364.91,338.69s-9.27-.63-10.53-2.43,4.69-2,4.69-2l.05,2.34Z"/><path class="cls-2" d="M331.83,377s-5.4,0-5.4,1.35c0,3.26,10.79,3.42,10.79,3.42L331.83,379Z"/><path class="cls-2" d="M273.64,371.48s-8.31.86-5.94,2.83,14.59,1.7,14.59,1.7l-8.1-1.7Z"/><path class="cls-3" d="M320.59,336.26l23-11.39,17.27,1.72s-2.67,9.23-1.75,10,9.16,4.18,15.47,2.13a17,17,0,0,0,1.52-2.43c.69-1.35,0-6.31,0-6.31l19.2,3-24.17,10.66Z"/><path class="cls-3" d="M454.56,340.18l-20.46,10.4,1.28,1.67L475,356.64s16.67-10.44,14.78-11.54S454.56,340.18,454.56,340.18Z"/><polygon class="cls-3" points="345.7 355.8 347.59 362.8 389.89 368.25 420.68 353.94 420.68 350.58 371.14 343.57 345.7 355.8"/><path class="cls-3" d="M290.7,355.06l41.13,6.28-49.91,22.28s-54.35-5.74-52.3-9.92l49.87-21.45s-3.59,9.19-4.12,11.77l-.53,2.58s-2.09,5.91-.83,7,13.81,3.9,17.59.41c0,0,.15-8.31-1.48-10Z"/><polygon class="cls-3" points="337.22 392.55 389.89 368.25 442.53 374.31 396.77 399.64 337.22 392.55"/><path class="cls-2" d="M53.14,259.78C54.06,257.4,55,255,56,252.66c.37-.87.68-1.76,1.08-2.61a54.71,54.71,0,0,1,5-8.68,34.77,34.77,0,0,1,2.83-3.51l1.08-1a11.89,11.89,0,0,1,1.24-.86,6.21,6.21,0,0,1,1.39-.62l.75-.19.77-.05c.65,0,.55.39.17.92a8.5,8.5,0,0,1-1.69,1.72c-2.68,1.77-4.75,4.89-6.73,8a51.93,51.93,0,0,0-3,6.18c-1,2.32-2,4.68-3,7.06q-.87,2.21-1.7,4.41c-.84,2.25-1.69,4.5-2.52,6.73-.64,1.74-1.16,3.49-1.88,5.23-.16.38-.31.77-.5,1.15-.68,1.43-1.36,1.65-2,1.59a2.42,2.42,0,0,1-.41-.05c-.39-.14-.33-.83,0-1.84,1.17-2.84,2.3-6.05,3.5-9.25.89-2.4,1.79-4.81,2.68-7.22Z"/><path class="cls-2" d="M31.17,288.39c4.36,5.1,10.38,4.38,13.58,0,4.34-5.93,7.69-21,8.23-24.7,0,0-7.08,19.42-11.14,19.26s-9.67-5-9.67-5Z"/><path class="cls-2" d="M296.78,319.37c1.85-.77,3.68-1.57,5.45-2.49.64-.34,1.25-.74,1.87-1.09a22.08,22.08,0,0,0,6-4.58,10.36,10.36,0,0,0,1.72-2.79,13.21,13.21,0,0,0,.87-4c0-.44.26-.44.59-.08a3.29,3.29,0,0,1,.77,2.1,5.94,5.94,0,0,1-.11,1.27,12.11,12.11,0,0,1-.37,1.21,11.27,11.27,0,0,1-1.12,2.22,14.6,14.6,0,0,1-3.35,3.48,46.36,46.36,0,0,1-4.7,3.27,60,60,0,0,1-5.58,2.74c-1.16.51-2.33,1-3.5,1.46-1.77.72-3.56,1.39-5.29,2.15-1.34.59-2.61,1.27-3.87,1.95-.28.15-.54.32-.83.45-1,.52-1.44.56-1.86.34a2.43,2.43,0,0,1-.28-.14c-.13-.1-.11-.25,0-.48a2.67,2.67,0,0,1,.73-.78,35.42,35.42,0,0,1,7.24-3.81c1.88-.81,3.77-1.58,5.62-2.4Z"/><path class="cls-2" d="M165.14,363c1.62.21,3.25.39,4.88.49a37.75,37.75,0,0,0,4.87.05,53.59,53.59,0,0,0,9.66-1.4c2.33-.59,4.65-1.23,6.95-2,8.16-2.45,16.14-5.63,24.14-8.77l10.6-4.28c4.52-1.8,9.1-3.68,14-4.45,1.52-.23,1.36.09.23.82a20.29,20.29,0,0,1-2.36,1.33,26.8,26.8,0,0,1-3.44,1.54c-9.23,3.32-18.31,7.37-27.75,10.78-5.65,2-11.47,4.35-17.41,6.05a78.18,78.18,0,0,1-10,2.2l-2.55.35-2.59.12-1.29.06-1.28,0c-.86,0-1.71-.07-2.56-.12a74.21,74.21,0,0,1-12.41-2A72.26,72.26,0,0,1,139.15,357a135.79,135.79,0,0,1-12.2-7.77l-2.58-1.8c-3.19-2.29-4-3.23-4.45-4.13a4.26,4.26,0,0,1-.27-.61c-.05-.26.3-.23,1,0a18.38,18.38,0,0,1,3,1.51c3.65,2.29,7.2,4.86,10.9,7.24a71.48,71.48,0,0,0,30.63,11.44Z"/><path class="cls-2" d="M176.22,276.42c-1.57-.58-3.18-1-4.71-1.73l-2.31-1c-.78-.32-1.51-.72-2.27-1.07a35.65,35.65,0,0,1-3.27-1.64,60.76,60.76,0,0,1-10.52-7.4,56.82,56.82,0,0,1-4.11-3.95l-1.25-1.32A10.56,10.56,0,0,1,146.6,257c-.72-1-1.42-2-2.09-3-.41-.63-.19-.66.4-.31a12.34,12.34,0,0,1,2.48,2.06c.79.91,1.7,1.71,2.53,2.58l1.26,1.29c.42.43.91.8,1.35,1.2.92.78,1.74,1.67,2.68,2.43l2.82,2.31c1.16.87,2.42,1.67,3.67,2.49l3.93,2.18c1.49.69,3,1.46,4.47,2.09s3,1.3,4.6,1.8c1,.32,1.91.68,2.88,1l2.93.83c1.49.39,3,.72,4.5,1s3,.6,4.54.75a61.71,61.71,0,0,0,7,.44l1.54,0c1.93,0,2.54.19,3,.62a1.9,1.9,0,0,1,.28.29c.19.32-.6.59-2.05.74a55.59,55.59,0,0,1-13.27-.93c-1.66-.26-3.3-.68-4.95-1.05s-3.26-.88-4.88-1.38Z"/><path class="cls-2" d="M268.62,244.27a5,5,0,0,0,2.8-1.49,11.18,11.18,0,0,0,.71-1,7.28,7.28,0,0,0,1.12-4.35,6.91,6.91,0,0,0-.46-2,25.28,25.28,0,0,0-1.22-2.37c-.12-.25.14-.41.52-.39a1.65,1.65,0,0,1,1.23.76,8.48,8.48,0,0,1,1.15,6,10.92,10.92,0,0,1-1.31,3.56,6.84,6.84,0,0,1-1.39,1.62,5.21,5.21,0,0,1-.89.61,5.31,5.31,0,0,1-1,.45,7,7,0,0,1-2.55.45,6.4,6.4,0,0,1-3.72-1.14,6,6,0,0,1-2-2.35c-.09-.22-.18-.43-.25-.65-.22-.84-.06-1.14.4-1.33.11,0,.21-.09.32-.12a.82.82,0,0,1,.88.65,9.13,9.13,0,0,0,.44.94,5.1,5.1,0,0,0,.58.78,3.84,3.84,0,0,0,1.55,1.08,5.1,5.1,0,0,0,3.06.28Z"/><path class="cls-2" d="M190.69,207.14a8.57,8.57,0,0,0,4.14-2.43,3.66,3.66,0,0,0,.52-.72,4.44,4.44,0,0,0,.46-.75,7.34,7.34,0,0,0,.95-3,9.79,9.79,0,0,0-.19-3.32,8,8,0,0,0-1.17-2.73,7.82,7.82,0,0,0-2.74-2.47c-.33-.19-.22-.45.22-.59a2.38,2.38,0,0,1,2,.41,8.68,8.68,0,0,1,2.79,3.58,10.49,10.49,0,0,1,.88,4.38,13,13,0,0,1-.31,2.75c-.07.23-.12.46-.19.69l-.27.65a5.47,5.47,0,0,1-.64,1.25,10,10,0,0,1-4.59,3.85,9.91,9.91,0,0,1-1.74.59c-.3.07-.6.16-.9.2l-.91.1a11.11,11.11,0,0,1-5.4-.92,8.31,8.31,0,0,1-3.41-2.58c-.17-.27-.36-.52-.53-.79-.53-1.07-.48-1.5-.2-1.84a.9.9,0,0,1,.2-.23c.25-.19.68.12,1.09.72a8.87,8.87,0,0,0,5.16,3.35,9.63,9.63,0,0,0,4.76-.2Z"/><path class="cls-2" d="M259.7,135.64s34.19,39,56.78,39.74c16.7.54,32.2-13.8,34.27-30.28,1.74-13.91-7.91-28.08-18.84-35.87a52.23,52.23,0,0,0-26.84-9.1s-27.15,1.72-36.68,7.09c0,0-23.25-22.42-43.21-20.21,0,0-29.36-.77-40.69,13.76s-23.33,36.35-28.81,42.38S131,162,118.49,169.05,102.56,191,103.86,196.6s6.36,29.15,36.47,40.31c0,0-3.11-7.75,8.95-13s11.8-3.92,19.63-4.38c0,0,9.49-3.26,14.51-9.44,0,0-7.91-8.06-2.08-14.86s11.84-5.53,11.84-5.53-11.93-7.22-9.76-18.45,10.7-14.21,17.65-12.73c0,0,6,3.4,6.17,9.54s1.76,11.26,4.71,7.53,16.41-29.42,24.49-32.31C236.44,143.23,247.28,132.8,259.7,135.64Z"/><path class="cls-2" d="M239.92,246.1a34.53,34.53,0,0,1-11.25,0c-.68-.08-1.34-.22-2-.34a14.74,14.74,0,0,1-2-.46,44.44,44.44,0,0,1-12.83-6.1c-.89-.57-1.72-1.19-2.57-1.81s-1.68-1.23-2.49-1.87a39.49,39.49,0,0,1-3.06-2.56,30,30,0,0,1-2.67-3c-.52-.65-.17-.83.64-.66a8.93,8.93,0,0,1,3.28,1.52,97.91,97.91,0,0,0,12.77,9,31.82,31.82,0,0,0,9,3.27,32.88,32.88,0,0,0,10.47.7,29.44,29.44,0,0,0,6.36-1.3,30,30,0,0,0,8.8-4.42,26.65,26.65,0,0,0,5.27-5.34c.35-.42.65-.86,1-1.31,1.19-1.63,1.6-2.13,2.4-2.2a3.44,3.44,0,0,1,.53-.06c.5,0,.52,1-.23,2.51a22.46,22.46,0,0,1-1.93,3.16,27.7,27.7,0,0,1-2.51,2.81,30.5,30.5,0,0,1-6.14,4.58,34.08,34.08,0,0,1-5.21,2.39,34.66,34.66,0,0,1-5.55,1.47Z"/><path class="cls-2" d="M276.5,214.63a13.17,13.17,0,0,1,.66,3.6,5.6,5.6,0,0,1-1.43,4,6.75,6.75,0,0,1-2.3,1.69,14.33,14.33,0,0,1-8.73.71,23,23,0,0,1-3.67-1.05,10.6,10.6,0,0,1-2.21-1.1,5.52,5.52,0,0,1-.95-.8,5.65,5.65,0,0,1-.81-.95c-.3-.43.08-.64.68-.67a5.09,5.09,0,0,1,2.14.33,18.61,18.61,0,0,0,8.09,2.1,9,9,0,0,0,4.87-1.34,3,3,0,0,0,1.45-1.7,5.18,5.18,0,0,0-.07-2.58,25.68,25.68,0,0,0-1.22-3.58c-.75-1.82-1.52-3.7-2.18-5.62a18.63,18.63,0,0,1-1.19-4.7,6.87,6.87,0,0,1,0-1.11c.14-1.4.6-1.78,1.3-1.87a4.16,4.16,0,0,1,.44-.06c.42,0,.81.63.95,1.44a31.69,31.69,0,0,0,1.94,7.28c.72,1.89,1.6,3.82,2.34,6Z"/><path class="cls-2" d="M335.55,176a32.28,32.28,0,0,1-15,2.63A46.66,46.66,0,0,1,306,175.15c-9.22-3.71-17.35-9.32-24.9-15.44a187,187,0,0,1-15.64-14.38c-1.34-1.38-2.66-2.78-4-4.18l-1.95-2.1-1-1-.34-.35s-.1-.1-.17-.09l-1.67-.17c-.62-.09-1.24,0-1.86-.06h-.93l-.93.09a16.63,16.63,0,0,0-1.85.21,24.59,24.59,0,0,0-7.09,2.28,40.58,40.58,0,0,0-11.93,9.36,99,99,0,0,0-9.33,12.4c-1.42,2.19-2.8,4.4-4.2,6.63a72.39,72.39,0,0,1-4.5,6.58l-.72.83c-.25.27-.54.52-.82.79a7.94,7.94,0,0,1-1,.7,3.77,3.77,0,0,1-1.34.4,3.27,3.27,0,0,1-.76,0,3.07,3.07,0,0,1-.74-.25,3.15,3.15,0,0,1-1.1-1,6.39,6.39,0,0,1-.86-2.26c-.31-1.48-.32-2.87-.48-4.19a19.12,19.12,0,0,0-.75-3.86,8.6,8.6,0,0,0-1.78-3.24,7.31,7.31,0,0,0-3.08-1.93c-.3-.1-.6-.22-.9-.31l-.92-.19a10.8,10.8,0,0,0-1.88-.19,11.08,11.08,0,0,0-3.69.66,13.06,13.06,0,0,0-7.1,6.38,13.84,13.84,0,0,0-1,9.55,16.51,16.51,0,0,0,1.78,4.63,18.14,18.14,0,0,0,3,4,20.92,20.92,0,0,0,8.42,5.41c1,.35,1.74.54,2.21.68s.67.27.63.34-.33.11-.84.12h-1c-.36,0-.78-.1-1.25-.17a19.82,19.82,0,0,1-7.39-2.83,19.12,19.12,0,0,1-8.72-14.62,15.63,15.63,0,0,1,.68-5.94,16.11,16.11,0,0,1,7.44-9.13,13.68,13.68,0,0,1,11.86-.76,9.72,9.72,0,0,1,4.88,4.1,15.42,15.42,0,0,1,1.84,5.73c.14.94.22,1.86.3,2.78a18.74,18.74,0,0,0,.29,2.45,6,6,0,0,0,.28,1,2,2,0,0,0,.27.45s0,0,.1,0a1.4,1.4,0,0,0,.47-.18c.11-.09.23-.17.35-.25l.4-.37c.26-.23.52-.57.79-.86.52-.63,1-1.32,1.53-2,1-1.43,2-2.93,2.91-4.45,3.82-6.06,7.69-12.28,12.53-17.83a48,48,0,0,1,13-10.91,28,28,0,0,1,8.22-2.94L251,135l1.1-.11a16.15,16.15,0,0,1,2.2-.15c.73,0,1.47,0,2.21,0l2.37.23c.15.07.33,0,.46.17a1.86,1.86,0,0,1,.43.25c.26.22.53.47.65.59l.87.9,1.69,1.78,3.37,3.53q3.39,3.48,6.89,6.82a138.6,138.6,0,0,0,22.65,17.8,71,71,0,0,0,12.85,6.26,40.56,40.56,0,0,0,13.85,2.6,28.54,28.54,0,0,0,16.26-5,30.76,30.76,0,0,0,11.11-13c3.64-8,3.45-17.46.57-25.78a35.84,35.84,0,0,0-6.4-11.47,60.93,60.93,0,0,0-9.76-9L332.21,110,330,108.7a24.37,24.37,0,0,0-2.24-1.23c-.76-.37-1.5-.81-2.28-1.13a53.87,53.87,0,0,0-9.6-3.29,63.37,63.37,0,0,0-20.14-1.37,80.28,80.28,0,0,0-8.81,1.29c-5.48,1.08-9,2.2-11.51,2.86-1.25.32-2.25.57-3.1.74s-1.54.23-2.18.29-1.31.2-1.66.2c-.6,0,.1-.59,1.91-1.68a39.38,39.38,0,0,1,8.87-3.69,79.26,79.26,0,0,1,18.8-3.37,71.22,71.22,0,0,1,9.79.17,65.76,65.76,0,0,1,9.77,1.71,61.83,61.83,0,0,1,9.43,3.42,55.42,55.42,0,0,1,8.71,5.1c1.42.93,2.68,2.06,4,3.1s2.52,2.25,3.71,3.44,2.34,2.37,3.46,3.76a38.8,38.8,0,0,1,3,4.27,42.45,42.45,0,0,1,5.26,14.34,38.5,38.5,0,0,1-.36,15.34,32.76,32.76,0,0,1-6.94,13.79,35.67,35.67,0,0,1-5.64,5.28,33.16,33.16,0,0,1-6.64,4Z"/><path class="cls-2" d="M133.9,158.19a73.48,73.48,0,0,0,9-5.39,58.31,58.31,0,0,0,7.81-6.86A96.75,96.75,0,0,0,163.29,129c1.36-2.2,2.64-4.47,3.92-6.74s2.47-4.55,3.87-6.85A79.29,79.29,0,0,1,179.31,104a60.37,60.37,0,0,1,10.47-9.53,51.32,51.32,0,0,1,12.55-6.58A52,52,0,0,1,216.17,85a61.21,61.21,0,0,1,32,6.6c2.34,1.18,4.68,2.4,7,3.76a52.51,52.51,0,0,1,6.6,4.53,24.62,24.62,0,0,1,5.48,6,6.17,6.17,0,0,1,.82,1.67c.12.38.11.58,0,.62-.27.09-.89-.51-2-1.4A86.91,86.91,0,0,0,255,99.18c-2.21-1.34-4.51-2.58-6.85-3.77s-4.64-2.33-7-3.26a58,58,0,0,0-14.91-3.69,49.68,49.68,0,0,0-7.71-.3l-1.92,0c-.64.05-1.28.13-1.92.19l-1.92.19-1.89.33A47.91,47.91,0,0,0,196.26,94a21.23,21.23,0,0,0-2,1.17c-.66.42-1.34.82-2,1.26-1.26,1-2.59,1.81-3.77,2.88l-1.81,1.55L185,102.54l-.86.84-.81.89-1.62,1.78a74.59,74.59,0,0,0-5.76,7.79c-1.78,2.7-3.31,5.56-4.95,8.45a168,168,0,0,1-11.67,18.47,67.44,67.44,0,0,1-15.65,15.48,101.47,101.47,0,0,1-11.73,6.68c-4,2-7.92,4-11.65,6.31a47,47,0,0,0-7.87,5.94,25.11,25.11,0,0,0-5.61,7.85,23.78,23.78,0,0,0-2,9.44,35.71,35.71,0,0,0,1.28,9.68,47.23,47.23,0,0,0,6.29,13.72,50.08,50.08,0,0,0,10,11.14,45.56,45.56,0,0,0,5.35,3.77,46.68,46.68,0,0,0,4.56,2.4c.64.3,1.22.57,1.75.8s1,.46,1.45.63l1.19.52c.35.15.67.28,1,.42.57.31,1,.6,1.43.83s.89.44,1.11.59c.37.25-.29.29-1.9.34a13.29,13.29,0,0,1-3-.37c-.6-.14-1.25-.27-1.93-.49a19.38,19.38,0,0,1-2.15-.72A42.69,42.69,0,0,1,119,228.1a52.5,52.5,0,0,1-9.59-11.17,51.22,51.22,0,0,1-6.21-13.66A36.63,36.63,0,0,1,102,187.92a25.4,25.4,0,0,1,4.45-10.9,35.81,35.81,0,0,1,8.25-8.06c6.15-4.44,12.87-7.47,19.18-10.84Z"/><path class="cls-2" d="M231.26,186.76a23.7,23.7,0,0,1,0-10.4,21.32,21.32,0,0,1,10.64-14,22.79,22.79,0,0,1,6.27-2.18,21.83,21.83,0,0,1,6.6-.32,20.21,20.21,0,0,1,6.39,1.64,21.18,21.18,0,0,1,5.51,3.59,21.87,21.87,0,0,1,6.39,9.6,19.09,19.09,0,0,1,.91,7.39,18.89,18.89,0,0,1-.68,3.66,13.92,13.92,0,0,1-1.4,3.41c-.77,1.33-.95,1-.95-.36s.1-3.63.28-6.11a20,20,0,0,0-.56-6.56,18.76,18.76,0,0,0-2.88-5.91,21.32,21.32,0,0,0-4.75-4.73,18,18,0,0,0-6.08-2.83,19.74,19.74,0,0,0-16,3.3,17.83,17.83,0,0,0-5.86,7.05,21.18,21.18,0,0,0-.87,2.16,22.89,22.89,0,0,0-.58,2.27,20.91,20.91,0,0,0-.4,4.67A19.61,19.61,0,0,0,236.77,193a19.21,19.21,0,0,0,6.57,5.71,18.31,18.31,0,0,0,8.47,2.07,19.52,19.52,0,0,0,12.31-4.52,10.92,10.92,0,0,0,1.1-.94l1-1a19.71,19.71,0,0,0,1.51-1.72c.4-.48.77-.85,1-1.18a3.93,3.93,0,0,1,1.53-1.13A4.11,4.11,0,0,1,271,190c.3-.05.33.3.15,1a8.44,8.44,0,0,1-1.42,3.06,20.94,20.94,0,0,1-10.75,8.21c-.56.17-1.12.36-1.69.52l-1.75.33c-.3,0-.59.12-.88.16l-.9.06c-.59,0-1.19.08-1.79.09a24,24,0,0,1-3.58-.33c-.59-.12-1.19-.2-1.77-.35l-1.73-.55a20.93,20.93,0,0,1-8.83-5.95,19,19,0,0,1-1.68-2.11A21.73,21.73,0,0,1,233,191.8a22,22,0,0,1-1.81-5Z"/><path class="cls-2" d="M303.29,191.6a24.29,24.29,0,0,1-.38,8.51,21.48,21.48,0,0,1-3.46,7.78,19.45,19.45,0,0,1-4.27,4.51,17.41,17.41,0,0,1-10.27,3.48,14.89,14.89,0,0,1-5.37-1A15.31,15.31,0,0,1,275,212a15.52,15.52,0,0,1-4.74-8.1,15.26,15.26,0,0,1-.1-6,15,15,0,0,1,2.27-5.5c.69-1,.81-.72.57.3s-.7,2.81-1,4.85a13.87,13.87,0,0,0,2.29,10.24,13.23,13.23,0,0,0,8.71,5.63,12.2,12.2,0,0,0,6.48-.77,16.46,16.46,0,0,0,5.6-3.73,19.11,19.11,0,0,0,4.15-6.17,17.36,17.36,0,0,0,1.08-3.6,20,20,0,0,0,.41-3.78,16.66,16.66,0,0,0-2.12-8.91,10.5,10.5,0,0,0-5.12-4.43,11.6,11.6,0,0,0-6.8-.68c-3.52.83-6.3,3.37-8.57,6.18-.49.63-1,1.26-1.42,1.94-1.83,2.41-2.4,3.22-3.29,3.48-.19.07-.38.19-.51.22-.36.15-.32-1.29.77-3.38a23.49,23.49,0,0,1,2.86-4.54,19.47,19.47,0,0,1,4-4,15.87,15.87,0,0,1,5.42-2.57,14.59,14.59,0,0,1,6.17,0,13.67,13.67,0,0,1,7.8,4.71,17,17,0,0,1,3.46,8.22Z"/><path class="cls-2" d="M217.85,165.55l13.51,7.59c2,1.11,3.73-1.91,1.77-3l-13.51-7.59c-2-1.1-3.74,1.92-1.77,3Z"/><path class="cls-2" d="M189.84,211.71a12.22,12.22,0,0,1-5.25-1.24,11.92,11.92,0,0,1-4.27-3.2,8.57,8.57,0,0,1-1.79-3.59,9.18,9.18,0,0,1-.08-3.46,14.56,14.56,0,0,1,.86-3.19,18,18,0,0,1,1.47-2.9,11.63,11.63,0,0,1,2.21-2.47,13.32,13.32,0,0,1,5.13-2.73,8,8,0,0,1,3.86-.06,7.53,7.53,0,0,1,1,.31c.29.15.6.29.88.46a6.65,6.65,0,0,1,1.4,1.35c.49.64,0,.82-.75.79a26.83,26.83,0,0,1-2.79-.26,5.63,5.63,0,0,0-2.64.06,9.39,9.39,0,0,0-2.71,1,12.45,12.45,0,0,0-2.44,1.77A10,10,0,0,0,182,196.8a9.68,9.68,0,0,0-1.25,3.69,7.38,7.38,0,0,0,.5,3.66c1.06,2.44,3.85,4.13,6.65,4.73a7.52,7.52,0,0,0,5.07-.66,9.41,9.41,0,0,0,4.6-6.39,8.91,8.91,0,0,0-.79-6,3.61,3.61,0,0,0-.33-.53c-.11-.18-.21-.36-.33-.53a15.69,15.69,0,0,1-.91-1.41,2.44,2.44,0,0,1-.1-1.13c0-.17,0-.35,0-.48s.25-.3.71-.29a2.57,2.57,0,0,1,1.71.72,9.1,9.1,0,0,1,3.07,6.49,13.06,13.06,0,0,1-1.58,7.15A11.6,11.6,0,0,1,195.3,210a10.08,10.08,0,0,1-5.46,1.73Z"/><path class="cls-2" d="M180.81,214.69c-.76.56-1.53,1.12-2.32,1.66-.28.2-.53.44-.82.63-1,.67-2.07,1.31-3.1,2a15,15,0,0,0-1.31.95,5.88,5.88,0,0,1-1.73,1.13c-.42.14-.88-1.54-.27-2a26.29,26.29,0,0,1,3.45-2.26,15.08,15.08,0,0,0,2-1.53l2.25-1.69c.46-.35.93-.7,1.38-1.07.68-.55,1.37-1.09,2-1.7a17.37,17.37,0,0,0,1.29-1.55c.1-.12.18-.24.28-.35.39-.39.61-.41,1.07-.1.1.07.21.13.31.21a.79.79,0,0,1,.19,1.05,10.73,10.73,0,0,1-2.46,2.88c-.71.64-1.47,1.23-2.21,1.83Z"/><path class="cls-2" d="M189.39,240.82a68.88,68.88,0,0,0,8.48,7.17c1.11.77,2.27,1.45,3.42,2.12a27,27,0,0,0,6.3,2.92,10.88,10.88,0,0,0,3.26.43,4.44,4.44,0,0,0,2.78-1,2.36,2.36,0,0,0,.76-2.2,9.12,9.12,0,0,0-.86-2.8c-1.17-2.37-2.79-4.57-4.15-7-.42-.79,0-.92.82-.59a7.59,7.59,0,0,1,3,2.4,23.37,23.37,0,0,1,2.37,3.75,10.8,10.8,0,0,1,1.32,4.75,4.65,4.65,0,0,1-.08.74,2.68,2.68,0,0,1-.17.76q-.13.38-.3.75a7.25,7.25,0,0,1-.46.67,6.11,6.11,0,0,1-2.26,1.71,8.61,8.61,0,0,1-5,.45,26.57,26.57,0,0,1-5.29-1.6,32.6,32.6,0,0,1-4.82-2.46,64.86,64.86,0,0,1-9.26-7.09c-1.77-1.61-3.46-3.29-5.09-5a106.23,106.23,0,0,1-6.87-8.31,72.89,72.89,0,0,1-4.64-6.85c-.29-.53-.63-1-.89-1.59-1-2.06-1.05-2.83-.8-3.46a2,2,0,0,1,.18-.42c.26-.34.92.37,1.79,1.72a138.86,138.86,0,0,0,8.85,11.83,105.74,105.74,0,0,0,7.65,8.2Z"/><path class="cls-2" d="M158.61,264.5a65.55,65.55,0,0,1-13.15-14.11,48.46,48.46,0,0,1-3.58-6.12l-.66-1.41-.58-1.46c-.41-1-.71-2-1-3s-.53-2-.8-3a6,6,0,0,1-.15-.9,4.42,4.42,0,0,1,0-1,4.63,4.63,0,0,1,.12-.92,4.82,4.82,0,0,1,.22-.87,14.53,14.53,0,0,1,3.57-5.53,26.68,26.68,0,0,1,4.93-4A32.67,32.67,0,0,1,157.71,218a23.59,23.59,0,0,1,7.17-.52,16.72,16.72,0,0,1,3.56.75c.57.22,1.15.4,1.69.67a15.33,15.33,0,0,1,1.54,1c1.24.84.82,1.07-.48,1-.63-.07-1.6.08-2.57,0s-2.1-.11-3.29-.2a24,24,0,0,0-12.56,2.17,31.51,31.51,0,0,0-5.68,3.3,19.52,19.52,0,0,0-4.58,4.53,6.29,6.29,0,0,0-1.22,3.22,3.42,3.42,0,0,0,.06.77l.26,1a20.13,20.13,0,0,0,.56,2,41,41,0,0,0,3.36,7.69,55.93,55.93,0,0,0,11.64,14.44,69.52,69.52,0,0,0,9.18,7,68.65,68.65,0,0,0,15.73,7.57,49,49,0,0,0,13,2.34c1,.07,1.91,0,2.87,0l2.26-.09a10.13,10.13,0,0,1,1.54,0,3.75,3.75,0,0,1,1.8.45,5.51,5.51,0,0,1,.61.35c.23.22,0,.5-.65.83a8.92,8.92,0,0,1-1.26.54,15.71,15.71,0,0,1-1.85.38,39.46,39.46,0,0,1-12.75-.58,62.07,62.07,0,0,1-12.44-4,76.39,76.39,0,0,1-16.67-10Z"/><path class="cls-2" d="M220.66,254.92c.21.93.37,1.83.5,2.78,0,.34.14.67.17,1a16.63,16.63,0,0,1-.15,3.6c-.07.53-.13,1.05-.19,1.57a5,5,0,0,1-.55,1.95c-.11.19-.36.07-.59-.18a1.41,1.41,0,0,1-.42-1c.07-1.21-.05-2.42,0-3.67a8,8,0,0,0-.28-2.27,25.64,25.64,0,0,0-.57-2.5c-.15-.51-.3-1-.48-1.51a8.48,8.48,0,0,0-1-2.09,2.85,2.85,0,0,0-1.27-.89,2.25,2.25,0,0,1-.22-.11.32.32,0,0,1-.14-.12,1.83,1.83,0,0,1-.06-.25c0-.18-.09-.36-.13-.58l-.07-.3a.48.48,0,0,1,.13-.44,1.6,1.6,0,0,1,.69-.47,5.54,5.54,0,0,1,.7,0,6.45,6.45,0,0,1,.67.16,4.9,4.9,0,0,1,1,.71,6.75,6.75,0,0,1,1.29,1.75,13.63,13.63,0,0,1,1.07,2.74Z"/><path class="cls-2" d="M77.05,303.11a131.61,131.61,0,0,1,10.51-19.58c.76-1.12,1.45-2.28,2.22-3.39s1.54-2.22,2.34-3.31,1.46-1.88,2.2-2.82,1.47-1.87,2.26-2.76l2.33-2.7,2.44-2.61,1.22-1.3,1.27-1.25,2.55-2.49c.87-.81,1.77-1.59,2.65-2.38s1.75-1.6,2.68-2.34c3.23-2.7,6.52-5.36,9.89-7.81l3.26-2.36c1.11-.75,2.25-1.47,3.38-2.19a68.76,68.76,0,0,1,7-3.94c1.56-.62,1.52-.23.61,1a25.27,25.27,0,0,1-5.3,4.77l-3.3,2.31c-.56.37-1.09.79-1.62,1.19L124,250.33c-2.21,1.53-4.28,3.23-6.41,4.86-4.15,3.4-8.21,6.92-12.1,10.68A104.93,104.93,0,0,0,92.84,281.1a123.85,123.85,0,0,0-11,18.87,126.84,126.84,0,0,0-5.17,12.47A154,154,0,0,0,71,332.11c-1.1,5.17-1.81,10.29-2.51,15.47-.14,1.15-.29,2.26-.43,3.42-.59,4.26-1,5.6-1.87,6.4a3.38,3.38,0,0,1-.57.53c-.57.33-.81-1.47-.54-4.62a182.49,182.49,0,0,1,4.69-29c.89-3.61,2-7.19,3.17-10.74s2.51-7.06,4-10.5Z"/><path class="cls-2" d="M155.38,312.81c-1.29-1.09-2.56-2.2-3.9-3.22-.49-.38-1-.69-1.51-1.07-1.71-1.33-3.37-2.75-5.08-4.1-.75-.6-1.56-1.15-2.35-1.67a32.69,32.69,0,0,0-3-1.71c-.32-.15-.25-.46.15-.76a2.4,2.4,0,0,1,2-.32,7.06,7.06,0,0,1,1.89.84c.58.35,1.08.68,1.61,1,1.05.71,2.07,1.45,3.06,2.27,1.18,1,2.54,1.78,3.81,2.67s2.75,2,4.1,3.1l2.48,2c1.24,1,2.45,2.06,3.71,3,.48.38,1,.72,1.5,1.06s1,.71,1.48,1.08c.21.17.43.31.64.5a2.59,2.59,0,0,1,.64.89,1.4,1.4,0,0,1,0,.76,1.5,1.5,0,0,1-.1.32c-.07.16-.23.23-.48.24a2.06,2.06,0,0,1-.95-.17,22.89,22.89,0,0,1-3-1.55c-.92-.63-1.83-1.31-2.73-2-1.35-1-2.68-2.06-4-3.13Z"/><path class="cls-2" d="M201.11,285.64a4.43,4.43,0,0,1-.3-.67,5.64,5.64,0,0,1-.25-.94,2.7,2.7,0,0,1,.15-1c0-.15.12-.3.18-.45l.16-.3a15.73,15.73,0,0,1,1.3-1.95,27.12,27.12,0,0,1,3-3.29,19.5,19.5,0,0,1,2.53-2.07,15.7,15.7,0,0,1,5.33-2.36,10.16,10.16,0,0,1,3-.22,6.55,6.55,0,0,1,2.86,1,18.76,18.76,0,0,1,3.82,3.3,29.38,29.38,0,0,1,3.79,5c.65,1.12-1.42.56-2.89-1.25a31.86,31.86,0,0,0-4.15-4.42,9.41,9.41,0,0,0-2.36-1.49,4.17,4.17,0,0,0-1.2-.31,7.07,7.07,0,0,0-1.38,0,12.51,12.51,0,0,0-6.42,3.16,25,25,0,0,0-3,2.84,16.74,16.74,0,0,0-2.36,3.25,1.11,1.11,0,0,0-.1.29,1.16,1.16,0,0,0,.07.31,2.57,2.57,0,0,0,.49.83,2,2,0,0,0,1.78.46,11.31,11.31,0,0,0,3.49-1.28c1.15-.61,2.26-1.31,3.41-2l.35-.22.47-.26a1.76,1.76,0,0,1,1.81.21,11.3,11.3,0,0,1,1.25.82,23,23,0,0,1,2.12,1.79c.34.32.68.63,1,1,1.16,1.29,1.35,1.94,1,2.56a1.69,1.69,0,0,1-.23.42c-.34.34-.92,0-1.77-.79s-1.8-1.63-2.76-2.39c-.48-.38-1-.75-1.43-1.07l-.34-.22h0a0,0,0,0,0,0,0s0,0,0,0l-.36.21-.74.46-1.56.94a18,18,0,0,1-4.29,1.93,6.08,6.08,0,0,1-2.86.16,4,4,0,0,1-1.59-.73,4.44,4.44,0,0,1-1.08-1.28Z"/><path class="cls-2" d="M202.92,287.55a6.76,6.76,0,0,1,.89-1.09,3.84,3.84,0,0,1,1.51-.92c1.09-.26,2.09-.48,3.16-.65.64-.12,1.29-.26,2-.33a21.77,21.77,0,0,1,3.52,0,15.57,15.57,0,0,1,3.49.77,13.65,13.65,0,0,1,2.88,1.39,6.44,6.44,0,0,1,2.66,3c.16.4-.28.56-.86.55a3,3,0,0,1-1.75-.57,11.55,11.55,0,0,0-2.65-1.74,14.76,14.76,0,0,0-3.22-1,13.38,13.38,0,0,0-4.41.11,36.5,36.5,0,0,0-4,.76,1.14,1.14,0,0,0-.42.25,5,5,0,0,0-1.29,2.33,9,9,0,0,0-.05,4.44,10.82,10.82,0,0,0,1.46,3.16,4.37,4.37,0,0,1,.4.65c.46.84.47,1.19.07,1.71-.09.11-.17.24-.27.34-.32.34-.87.2-1.46-.37a11.17,11.17,0,0,1-2.94-6.89,10.64,10.64,0,0,1,.18-3,8.92,8.92,0,0,1,1.11-3Z"/><path class="cls-2" d="M235.24,320a43.48,43.48,0,0,1-11.85-9.92c-1.23-1.37-2.46-2.74-3.68-3.91a5.5,5.5,0,0,0-1.59-1.15,1.31,1.31,0,0,0-1.31.06,18.57,18.57,0,0,0-1.71,1.42,15.62,15.62,0,0,1-2.07,1.53,6.8,6.8,0,0,1-2.59,1,4.45,4.45,0,0,1-1.5,0,3.13,3.13,0,0,1-1.5-.7,2.86,2.86,0,0,1-.86-1.43,4.62,4.62,0,0,1-.13-1.46,9.72,9.72,0,0,1,.56-2.57,19.13,19.13,0,0,1,2-4,14,14,0,0,1,3-3.36,6.31,6.31,0,0,1,1.34-.79,7.51,7.51,0,0,1,1.48-.38,11,11,0,0,1,2.92-.07,9.81,9.81,0,0,1,5.34,2.19c.9.84.43,1-.55.75a40,40,0,0,0-4.41-.9,9.74,9.74,0,0,0-2.47-.06,9.09,9.09,0,0,0-1.18.21,2.19,2.19,0,0,0-.46.16,2.76,2.76,0,0,0-.44.24,12.12,12.12,0,0,0-3.25,3.72,12.76,12.76,0,0,0-1.82,4.64,1.32,1.32,0,0,0,1.88,1.71,6.69,6.69,0,0,0,2.55-1.4c.42-.33.82-.7,1.23-1.08l.64-.59a7.35,7.35,0,0,1,.85-.66,3.68,3.68,0,0,1,2.35-.54,5,5,0,0,1,2.06.83,16.52,16.52,0,0,1,2.74,2.47c1.75,1.87,3.38,3.75,5.16,5.47a41.73,41.73,0,0,0,5.71,4.67,32.78,32.78,0,0,0,8.13,4,43.35,43.35,0,0,0,13.68,2,104.77,104.77,0,0,1,10.89.55c.81.11,1.6.21,2.42.4a9.63,9.63,0,0,1,3.12,1.2,2.9,2.9,0,0,1,.69.64,1.79,1.79,0,0,1,.29.69,2.84,2.84,0,0,1,.08.61c-.05.29-.39.35-.89.26-.24-.06-.56-.12-.93-.22s-.79-.2-1.27-.34a48.89,48.89,0,0,0-9.39-1.11c-1.64-.07-3.3-.11-5-.15s-3.38-.06-5.16-.21A40.61,40.61,0,0,1,242.6,323a36.45,36.45,0,0,1-7.38-3Z"/><path class="cls-2" d="M265.29,277.34,262.77,276c-.31-.16-.64-.28-.94-.46-1.08-.62-2.13-1.29-3.16-2-.46-.3-.93-.6-1.41-.89a4.83,4.83,0,0,1-1.65-1.4c-.13-.19.2-.46.62-.65a1.32,1.32,0,0,1,1.2-.07c1,.76,2.16,1.46,3.28,2.3A14.18,14.18,0,0,0,263,274l2.55,1.24,1.6.75c.81.37,1.61.77,2.43,1.13.63.27,1.31.43,2,.69.14.06.29.09.44.16.52.26.61.48.44,1,0,.12-.08.24-.13.36a.82.82,0,0,1-.94.48,18.6,18.6,0,0,1-3.5-1.15c-.85-.39-1.69-.83-2.56-1.25Z"/><path class="cls-2" d="M304.55,313.77c3-1.91,5.82-4.34,6.87-7.48a7.29,7.29,0,0,0,.19-3.44,11.22,11.22,0,0,0-3.12-5.68,25.54,25.54,0,0,0-5.53-4.32,35.17,35.17,0,0,0-5.75-2.65c-1.27-.46-2.59-.78-3.87-1.19s-2.6-.74-3.93-1c-.82-.19-.7-.49.07-.79a8.35,8.35,0,0,1,3.88-.42c.72.12,1.45.2,2.16.39s1.4.4,2.1.64a32.21,32.21,0,0,1,4.06,1.64,28.93,28.93,0,0,1,7.33,4.95,21.6,21.6,0,0,1,3.57,4.22,10.37,10.37,0,0,1,1.71,5.54,10.79,10.79,0,0,1-2,6,18.48,18.48,0,0,1-4.23,4.32,41.58,41.58,0,0,1-6.16,3.73c-3.23,1.63-6.57,2.95-9.82,4.34a72.69,72.69,0,0,0-7.24,3.57c-.5.28-1,.61-1.45.89-.92.54-1.4.94-1.83,1.15a3.08,3.08,0,0,1-1,.36c-.15,0-.33.08-.46.09s-.3-.21-.2-.71a3.66,3.66,0,0,1,.36-.87,5.35,5.35,0,0,1,.78-.95,24.6,24.6,0,0,1,6.57-4.13c2.32-1.1,4.68-2.09,7-3.12a70.85,70.85,0,0,0,9.94-5.08Z"/><path class="cls-2" d="M267.5,291.58c1-.32,1.9-.68,2.89-1,.35-.11.68-.28,1.05-.38,1.28-.36,2.58-.68,3.89-.92l1.73-.35c.38,0,.75-.08,1.13-.1a7.31,7.31,0,0,1,1.14.1c.23,0,.19.21,0,.42a2,2,0,0,1-.9.6c-.69.23-1.35.45-2,.62s-1.37.39-2.07.57a14.36,14.36,0,0,0-2.47,1.06c-.9.43-1.82.81-2.75,1.21l-1.73.73c-.87.39-1.77.72-2.63,1.13-.68.31-1.29.75-2,1.11a2.42,2.42,0,0,1-.45.24c-.59.23-.84.1-1.13-.59a4.62,4.62,0,0,1-.19-.47,1.16,1.16,0,0,1,.28-1.32,14.93,14.93,0,0,1,3.4-1.67l2.79-1.06Z"/><path class="cls-2" d="M152.05,358.28A78.78,78.78,0,0,0,164,361c2,.29,4.06.52,6.09.63,1,.08,2,.08,3.06.11s2,0,3-.12a60.47,60.47,0,0,0,8.78-1.54c10.29-2.48,20.28-6.5,30.26-10.42,4.42-1.76,8.85-3.61,13.27-5.33,2.85-1.1,5.71-2.19,8.67-3.08a42.43,42.43,0,0,1,4.52-1.06,19.33,19.33,0,0,1,4.69-.33c2,.25,1.61.56,0,1s-4.23,1.57-7.47,2.64c-5.8,1.74-11.53,4.08-17.28,6.37s-11.52,4.68-17.45,6.77c-7.08,2.49-14.43,5.29-22.08,6.81a54.56,54.56,0,0,1-6.41.86,51.49,51.49,0,0,1-6.46-.06,80.34,80.34,0,0,1-12.64-1.9,75.46,75.46,0,0,1-14.88-5.06,104.54,104.54,0,0,1-10.34-5.84c-3.34-2.09-6.6-4.27-9.84-6.44-2.51-1.68-5-3.31-7.5-5.06l-7.28-5.2c-1.07-.76-2.14-1.46-3.22-2.2-4-2.71-5.22-3.68-5.86-4.71a6.05,6.05,0,0,1-.43-.69c-.1-.31.32-.3,1.22-.06a18.86,18.86,0,0,1,3.86,1.67c4.76,2.66,9.17,6,13.69,9.21,1.12.79,2.26,1.58,3.4,2.34l3.5,2.32c2.34,1.57,4.68,3.13,7,4.65,3.5,2.25,7.06,4.44,10.7,6.37a63.29,63.29,0,0,0,11.38,4.59Z"/><path class="cls-2" d="M189.41,317.76q-3.49.86-7,1.81c-.84.24-1.66.54-2.51.78-3,.82-6,1.67-8.88,2.67-1.3.42-2.56,1-3.8,1.51-.79.36-1.55.78-2.33,1.14s-1.56.73-2.23,1.06c-.46.18-.77-.17-.7-.86a3.21,3.21,0,0,1,.45-1.23,2.72,2.72,0,0,1,1.09-1,50.26,50.26,0,0,1,10.29-3.81c2.11-.55,4.22-1.38,6.35-2,2.34-.7,4.71-1.33,7.08-1.93,1.45-.38,2.92-.73,4.38-1.08,2.21-.54,4.45-1,6.66-1.51l2.56-.62a20.27,20.27,0,0,1,2.57-.56c.39-.06.76-.13,1.15-.18a4.32,4.32,0,0,1,1.58.08,1.42,1.42,0,0,1,.7.54,2.26,2.26,0,0,1,.21.28c.07.16-.05.31-.29.5a2.78,2.78,0,0,1-1.12.53c-2.9.9-6,1.51-9.18,2.26-2.33.55-4.69,1.1-7,1.72Z"/><path class="cls-2" d="M54.27,255.1c2-5.06,3.81-10.56,7.57-15.23a16.63,16.63,0,0,1,5-4.35,18,18,0,0,1,2.69-1.16c.47-.13.93-.29,1.41-.4s1-.21,1.46-.27a11.55,11.55,0,0,1,6,.79A12.86,12.86,0,0,1,83,238.11a20.61,20.61,0,0,1,2.9,4.8,45.36,45.36,0,0,1,2.91,9.21,40.83,40.83,0,0,1,1,12.16c-.11,1.27-.63,1.09-1.22,0a15,15,0,0,1-1.65-5.15,66.25,66.25,0,0,0-2.38-11.58,28.43,28.43,0,0,0-2.25-5.27,13.85,13.85,0,0,0-3.43-4.19,7.68,7.68,0,0,0-6-1.45,13.3,13.3,0,0,0-3.27,1,12.19,12.19,0,0,0-2.91,1.72A15,15,0,0,0,64,242.09a23.94,23.94,0,0,0-2.18,3.28,58.73,58.73,0,0,0-3.37,7.42c-1.23,3.18-2.48,6.38-3.79,9.55a127.46,127.46,0,0,1-6.74,14.1,25,25,0,0,1-3.57,5.09,9.81,9.81,0,0,1-2.65,2,7.77,7.77,0,0,1-1.7.6,6.17,6.17,0,0,1-1.87,0,6.84,6.84,0,0,1-3-1.07,6.43,6.43,0,0,1-1-.78,6,6,0,0,1-.76-.72,10.22,10.22,0,0,1-.86-1.28,2.9,2.9,0,0,1-.29-1.77,2.79,2.79,0,0,1,.12-.65c.12-.27.47-.19,1,.12a6.37,6.37,0,0,1,.91.65c.35.26.78.52,1.18.87A5.37,5.37,0,0,0,39,281.11a4,4,0,0,0,1.67-.58,8.4,8.4,0,0,0,1.66-1.4,21.69,21.69,0,0,0,2.89-4.08q1.34-2.35,2.55-4.82c2.39-4.87,4.51-10,6.45-15.15Z"/><path class="cls-2" d="M28.83,312.79l.84-16.72c.1-2,.09-4.07.18-6.1.31-7.17.63-14.33.68-21.49,0-3.18-.06-6.38-.17-9.53-.1-2-.17-4-.23-6.07s-.13-4.06-.07-6.09c0-1.26.62-1.13,1.27-.1A12.82,12.82,0,0,1,33,252c.17,2.08.3,4.16.41,6.24s.07,4.16.08,6.25q0,6.25-.34,12.53c-.26,5-.24,10.23-.42,15.34-.2,5.63-.47,11.25-.73,16.87q-.22,5.19-.47,10.37c-.21,5.24-.43,10.5-.48,15.69,0,4,.09,8,.18,12,0,.88.05,1.74.05,2.63A17.83,17.83,0,0,1,31,353.4a3.89,3.89,0,0,1-.59,1.57,4.21,4.21,0,0,1-.32.47c-.34.32-.72-1-1.11-3.42a164,164,0,0,1-.77-22.31c.1-5.63.33-11.28.53-16.91Z"/><path class="cls-2" d="M333.38,293.36c-1.41.49-2.81,1-4.21,1.53-.51.19-1,.46-1.49.65l-5.4,2c-.8.32-1.56.69-2.31,1.08l-1.44.76a6,6,0,0,1-1.58.5c-.35.06-.47-.28-.4-.78a2.53,2.53,0,0,1,.81-1.62,34.75,34.75,0,0,1,6.09-2.82,40.17,40.17,0,0,0,3.77-1.64c1.39-.59,2.8-1.15,4.2-1.71l2.59-1c1.31-.54,2.63-1,3.9-1.61,1-.45,1.89-1.05,2.83-1.59.21-.11.4-.25.61-.36.8-.38,1.12-.34,1.6.34a3.68,3.68,0,0,1,.31.41,1.16,1.16,0,0,1-.37,1.52,23.45,23.45,0,0,1-5.28,2.76c-1.39.57-2.8,1.08-4.2,1.64Z"/><path class="cls-2" d="M117.54,368.63l-7.15,2.44c-.87.3-1.71.66-2.58.95-3.08,1-6.17,2-9.25,2.94-1.36.44-2.71.94-4,1.44l-2.55,1a21.75,21.75,0,0,1-2.56.76c-.36.06-.7-.13-.42-.77a4.38,4.38,0,0,1,1.88-1.95,104.67,104.67,0,0,1,10.57-3.78c2.17-.6,4.32-1.53,6.48-2.32l7.12-2.57q2.19-.79,4.37-1.63c2.19-.84,4.4-1.68,6.54-2.62,1.66-.74,3.22-1.61,4.81-2.45.35-.19.68-.39,1-.57,1.33-.63,1.83-.67,2.45-.06a4.67,4.67,0,0,1,.39.37c.33.41,0,1.22-.91,1.78a55.67,55.67,0,0,1-9,4.4c-2.35.95-4.74,1.81-7.12,2.7Z"/><path class="cls-2" d="M295.31,415.07l-51.62-7.75-18.83-2.77-66.32-10.21c-9.81-1.51-19.68-2.95-29.42-4.38l-18.81-2.74c-3.13-.48-6.27-.91-9.39-1.48s-6.19-1.13-9.38-1.77c-4-.86-3.19-1.08.16-1,1.63,0,4.06.07,6.92.22,1.44.08,3,.16,4.65.32s3.38.4,5.18.67C134,388,159.53,391.84,185.24,396c15.38,2.47,31.44,4.72,47.2,7.06l52,7.73,32,4.68c16.16,2.31,32.41,4.64,48.47,6.79,12.5,1.64,24.77,3.06,37.14,4.46l8.13.88c2.55.3,4.65.55,6.42.79s3.17.52,4.33.7a21.51,21.51,0,0,1,4.74,1.22,14.77,14.77,0,0,1,1.42.59c.48.3-.32.47-2.2.54-.94,0-2.15.05-3.6,0l-2.35,0c-.84-.05-1.73-.08-2.66-.17-11.14-.89-22.49-2.32-34-3.77s-23.18-3.09-34.85-4.76l-52.12-7.6Z"/><path class="cls-2" d="M251.14,180c2.56,1.74,5.13,3.48,7.74,5.15,1.77,1.12,3.4-1.69,1.64-2.81-2.61-1.66-5.18-3.4-7.74-5.14-1.74-1.18-3.37,1.63-1.64,2.8Z"/><path class="cls-2" d="M254.74,180.59c-1.65,1.82-3.87,6.37-2.05,8.63,1.23,1.54,3.31,1,4.65-.06a19.88,19.88,0,0,0,3.76-4.61c1.18-1.74-1.63-3.37-2.8-1.65a26.76,26.76,0,0,1-2.15,2.92,16.08,16.08,0,0,0-1.21,1.06c-.24.35-.2-.19-.07.11,0,0,.55.37.44.4a21.33,21.33,0,0,1,.63-2.51,10.78,10.78,0,0,1,.64-1.27c.09-.16.18-.32.28-.47s.07-.13.18-.25c1.4-1.55-.89-3.85-2.3-2.3Z"/><path class="cls-2" d="M273.46,193.32c2.24,1.52,4.49,3.05,6.78,4.51,1.55,1,3-1.48,1.44-2.46-2.29-1.46-4.54-3-6.78-4.51-1.52-1-2.95,1.44-1.44,2.46Z"/><path class="cls-2" d="M276.62,194.85c-1.45,1.6-3.39,5.58-1.8,7.56,1.07,1.35,2.9.88,4.07,0a17.17,17.17,0,0,0,3.3-4c1-1.52-1.43-2.95-2.46-1.44a22.45,22.45,0,0,1-1.88,2.56,12.15,12.15,0,0,0-1.06.93c-.21.3-.17-.17-.06.09,0,0,.48.33.39.35a15,15,0,0,1,.55-2.2,11.45,11.45,0,0,1,.55-1.11c.08-.14.16-.28.25-.41s.06-.12.16-.22c1.23-1.36-.78-3.38-2-2Z"/><path class="cls-2" d="M270.86,192.05a14.45,14.45,0,0,0,1.51,1.2,1.65,1.65,0,0,0,2.23-.58,1.67,1.67,0,0,0-.59-2.23l-.29-.2c-.2-.12.28.25,0,0s-.37-.32-.56-.48a1.62,1.62,0,1,0-2.3,2.29Z"/><path class="cls-2" d="M243,225.92a10.76,10.76,0,0,0,6.11,7.65c1.89.87,3.54-1.93,1.64-2.8a7.82,7.82,0,0,1-4.62-5.72c-.36-2.05-3.5-1.18-3.13.87Z"/><path class="cls-2" d="M275.59,241.56a10.21,10.21,0,0,1-3.53,4.86c-.33.21-.67.44-1,.62a5.73,5.73,0,0,1-1.09.4,8.06,8.06,0,0,1-7.18-1.8,6.19,6.19,0,0,1-1.84-2.78,6.27,6.27,0,0,1,0-4.1c.13-.41.45-.26.74.14a3.75,3.75,0,0,1,.64,1.63,5.09,5.09,0,0,0,1.09,2.91,5.85,5.85,0,0,0,2.52,1.88,5.3,5.3,0,0,0,4-.13,2,2,0,0,0,.48-.24,2.29,2.29,0,0,0,.44-.3,8,8,0,0,0,.85-.79,5.4,5.4,0,0,0,.71-.94,5.31,5.31,0,0,0,.58-1,7.93,7.93,0,0,0,.76-2.87,7.55,7.55,0,0,0-.86-4.37,5.59,5.59,0,0,0-2.47-2.14c-.23-.09-.46-.14-.67-.23-.8-.33-1-.49-1-1.34,0-.18,0-.36,0-.52,0-.51.6-1,1.49-.8a6.93,6.93,0,0,1,3.61,2,8.45,8.45,0,0,1,2.09,3.76,10.7,10.7,0,0,1-.23,6.17Z"/><path class="cls-2" d="M271.94,157.65c-4.31-6.45-16.18-7.87-23.21-7.73-2.09,0-2.1,3.29,0,3.25a39.19,39.19,0,0,1,11.54,1.56c2.88.82,7.1,1.92,8.86,4.57,1.16,1.73,4,.1,2.81-1.65Z"/><path class="cls-2" d="M287.54,169.64c5,.2,8.8,3.9,13.07,6.14,1.85,1,3.5-1.83,1.64-2.8-4.9-2.58-8.91-6.36-14.71-6.59-2.09-.09-2.09,3.16,0,3.25Z"/><path class="cls-2" d="M208.32,295.47a2.73,2.73,0,0,1,.8-2.34,1.27,1.27,0,0,1,.71-.38,4.16,4.16,0,0,1,1.67.17,7.11,7.11,0,0,1,1.13.38,10.2,10.2,0,0,1,1,.41,1.51,1.51,0,0,1,1,1c0,.16-.35.39-.76.59s-.82.42-.93.37l-1.29-.61c-.22-.19-.31-.1-.49-.15s-.33.18-.38.38a1.5,1.5,0,0,0,0,.59,4.74,4.74,0,0,0,.29,1.29,3.08,3.08,0,0,0,.64.79c.05.06.12.09.16.14s0,.3-.4.71l-.31.28c-.35.3-.73.42-1,.25a3.42,3.42,0,0,1-1.41-1.89,5.93,5.93,0,0,1-.24-.85,9.18,9.18,0,0,1-.17-1.08Z"/><path class="cls-2" d="M157.86,233.57c.6-.52,1.21-1,1.85-1.51.23-.18.42-.41.67-.57a15.4,15.4,0,0,1,2.78-1.48c.41-.2.84-.4,1.25-.62s.55-.27.83-.39a2,2,0,0,1,.92-.11c.2,0,.27.56.24,1.1s-.13,1.11-.38,1.19c-.89.34-1.78.75-2.82,1.11a7.78,7.78,0,0,0-1.67,1.1c-.6.42-1.21.87-1.8,1.35-.37.3-.73.6-1.08.92a18.12,18.12,0,0,0-1.55,1.49,15.11,15.11,0,0,0-1,1.36,3.21,3.21,0,0,1-.21.3c-.31.35-.5.36-.93.07a2.9,2.9,0,0,1-.29-.19.78.78,0,0,1-.27-.93,10,10,0,0,1,1.73-2.54c.52-.58,1.09-1.13,1.66-1.69Z"/><g class="cls-4"><path class="cls-2" d="M168,247.31l1.1-1.08c.13-.13.22-.29.37-.42.51-.43,1.06-.82,1.61-1.21a5.35,5.35,0,0,0,.68-.58c.28-.26.54-.59,1-.62.26,0,.9,1.71.63,1.89a8.5,8.5,0,0,1-1.71,1,3.54,3.54,0,0,0-1,.85c-.34.33-.7.67-1,1s-.42.44-.62.67a10.3,10.3,0,0,0-.89,1.07c-.2.3-.32.65-.5,1,0,.08-.07.16-.11.23-.19.26-.36.25-.75,0l-.27-.2a.93.93,0,0,1-.38-.76,4.27,4.27,0,0,1,.87-1.69c.29-.39.62-.77,1-1.16Z"/></g><path class="cls-2" d="M200.74,251.26a52.81,52.81,0,0,1-7.12-4.3c-.83-.57-1.67-1.14-2.46-1.76a72.5,72.5,0,0,1-7.72-7.24c-1.06-1.15-2.14-2.29-3.16-3.45a32.67,32.67,0,0,1-3.7-4.68c-.66-1.05,1.62-.81,3.08.87q2,2.25,4,4.43c1.31,1.49,2.67,3,4.05,4.4a44.09,44.09,0,0,0,5.6,4.72,53.31,53.31,0,0,0,6.77,4.34c.73.39,1.46.78,2.22,1.11s1.51.68,2.28,1c.58.25,1.17.44,1.77.64l.89.3.87.23a4.79,4.79,0,0,0,3.3-.18,2.37,2.37,0,0,0,1.21-1.88,7.06,7.06,0,0,0-.21-2.56c-.09-.39-.24-.76-.34-1.14-.39-1.46-.45-2-.11-2.48a2.08,2.08,0,0,1,.21-.33c.26-.28.84.18,1.45,1.27a9.34,9.34,0,0,1,1,2.67,7.39,7.39,0,0,1,.06,3.19,4.49,4.49,0,0,1-2.21,3.06,6.24,6.24,0,0,1-3.48.63c-.39-.06-.79-.11-1.17-.18l-1.12-.28-2-.67-2-.78-1.93-.87Z"/><path class="cls-2" d="M189.79,260.72c.19-.33.4-.65.61-1a3.48,3.48,0,0,1,.2-.38,12.26,12.26,0,0,1,1.06-1.11,4.47,4.47,0,0,0,.44-.52c.18-.23.35-.52.7-.57.11,0,.32.33.49.69s.34.72.27.79a5.41,5.41,0,0,1-1.05.91c-.28.17-.36.49-.56.74s-.42.57-.62.87-.25.38-.36.57a7.76,7.76,0,0,0-.46.91,6.19,6.19,0,0,0-.19.77c0,.06,0,.12,0,.17-.09.2-.2.23-.52.14l-.21-.06a.59.59,0,0,1-.43-.42,3.33,3.33,0,0,1,.17-1.51c.13-.35.3-.69.46-1Z"/><path class="cls-2" d="M322.34,335.5l-7.86,3.21c-1,.39-1.89.83-2.85,1.2l-10.15,4c-1.5.59-3,1.23-4.46,1.86-.95.4-1.88.84-2.84,1.22s-1.94.7-2.92,1c-.62.19-.62-.05-.23-.5a8.59,8.59,0,0,1,2.23-1.74c1.87-.95,3.81-1.74,5.74-2.58s3.88-1.64,5.87-2.36c2.37-.88,4.76-2,7.14-3l7.88-3.29,4.84-2c2.43-1.06,4.88-2.1,7.25-3.23,1.85-.88,3.6-1.87,5.35-2.84.39-.22.75-.45,1.14-.66,1.43-.83,1.91-.92,2.47-.72a3,3,0,0,1,.39.13c.17.09.16.29,0,.59a3.25,3.25,0,0,1-1.05,1.06,70.45,70.45,0,0,1-10,5.31c-2.6,1.18-5.23,2.31-7.85,3.44Z"/><path class="cls-2" d="M260.4,361.75l-7.77,3.11L249.82,366l-10,3.93c-1.48.59-2.94,1.22-4.39,1.85-.93.4-1.85.84-2.79,1.21s-1.91.71-2.88,1c-.61.19-.62-.05-.23-.5a8.07,8.07,0,0,1,2.17-1.73c3.73-1.81,7.54-3.44,11.45-4.92,2.34-.87,4.69-2,7.05-3l7.79-3.21,4.8-2c2.41-1,4.85-2,7.22-3,1.85-.82,3.62-1.72,5.42-2.59l1.18-.58a6.5,6.5,0,0,1,1.64-.59,1.41,1.41,0,0,1,.92.17,3.19,3.19,0,0,1,.33.2c.15.13.09.33-.12.59a3.81,3.81,0,0,1-1.12.87c-3.15,1.72-6.58,3.25-10.05,4.75l-7.78,3.26Z"/><path class="cls-2" d="M459,356.33l-6.23-.9c-.76-.11-1.52-.16-2.28-.28l-8-1.23c-1.19-.18-2.38-.3-3.56-.41a15.81,15.81,0,0,1-4.52-.72c-.46-.17-.37-.44.08-.76a5.68,5.68,0,0,1,.89-.52,3.23,3.23,0,0,1,.59-.22,2.73,2.73,0,0,1,.64,0c3.09.33,6.17.75,9.26,1.36,1.84.37,3.79.5,5.69.75l6.28.84,3.86.5c1.95.21,3.91.46,5.86.6,1.51.11,3,.08,4.51.09.33,0,.65,0,1,0a2.56,2.56,0,0,1,1.29.3,1.24,1.24,0,0,1,.53.63c.05.13.12.25.15.36.09.37-.44.69-1.37.9a42.37,42.37,0,0,1-8.37-.42l-6.3-.82Z"/><path class="cls-2" d="M379.53,346.48l-15.66-2.3-5.71-.78-20.13-3c-3-.44-6-.84-8.93-1.22l-5.72-.75c-.95-.15-1.91-.27-2.85-.48s-1.88-.45-2.82-.72c-1.16-.37-.92-.6.14-.76.52-.08,1.26-.17,2.15-.23.44,0,.92-.07,1.42-.06s1,.08,1.57.16c7.73,1.1,15.49,2.2,23.28,3.48,4.66.78,9.54,1.34,14.32,2l15.78,2.24,9.71,1.37c4.9.67,9.83,1.37,14.7,2,3.79.47,7.53.8,11.28,1.17.83.09,1.64.14,2.47.26a15.21,15.21,0,0,1,3.25.63,3.29,3.29,0,0,1,1.38.77,2.86,2.86,0,0,1,.39.4c.26.4-1.05.59-3.34.57-6.75-.43-13.8-1.44-20.88-2.42l-15.8-2.27Z"/><path class="cls-2" d="M407.3,371.09l-14.7-1.9-5.37-.65L368.35,366c-2.8-.38-5.61-.71-8.39-1a85.53,85.53,0,0,1-10.68-1.52c-1.1-.25-.92-.51.07-.76a17.13,17.13,0,0,1,2-.37,11.11,11.11,0,0,1,1.35-.12,13,13,0,0,1,1.48.1c7.28.87,14.55,1.83,21.86,3,4.37.68,9,1.14,13.44,1.7l14.82,1.86,9.12,1.1c4.6.52,9.23,1.07,13.81,1.49,3.57.33,7.07.51,10.6.72.78,0,1.54.06,2.32.14s1.33.12,1.83.19a7.86,7.86,0,0,1,1.23.28,2.93,2.93,0,0,1,1.32.7,2.72,2.72,0,0,1,.38.38c.25.38-1,.64-3.12.73-6.35-.1-13-.84-19.65-1.58l-14.86-1.79Z"/><path class="cls-2" d="M316.3,359.66l-6.63-1.05-2.42-.32c-2.85-.42-5.68-1-8.51-1.49-1.26-.21-2.54-.38-3.79-.54a19.39,19.39,0,0,1-4.82-.87c-.48-.18-.37-.43.12-.71a5,5,0,0,1,1-.45,3.26,3.26,0,0,1,.63-.18,2.6,2.6,0,0,1,.68,0c3.29.43,6.55,1,9.82,1.68,2,.44,4,.64,6.07.91l6.68,1,4.12.6c2.08.27,4.16.58,6.24.8,1.61.17,3.2.21,4.81.29.35,0,.7,0,1.05.06a3,3,0,0,1,1.36.37,1.18,1.18,0,0,1,.55.62,1.88,1.88,0,0,1,.14.34c.09.35-.49.62-1.48.77a55.46,55.46,0,0,1-8.89-.78c-2.23-.32-4.46-.71-6.7-1Z"/><path class="cls-2" d="M328.69,392.56l-25-3.87-9.11-1.38-32.06-5.18c-4.73-.77-9.51-1.49-14.22-2.21l-9.09-1.38c-1.52-.25-3-.46-4.54-.77s-3-.62-4.53-1c-2-.53-1.48-.69.15-.75.79,0,2-.06,3.37,0,.7,0,1.46,0,2.26.09s1.64.19,2.51.32c12.34,1.95,24.68,3.92,37.09,6.07,7.43,1.28,15.2,2.37,22.82,3.54l25.14,3.84L339,392.14c7.82,1.12,15.67,2.27,23.45,3.25,6.05.79,12,1.38,18,2,1.32.12,2.61.22,3.94.38,4.92.5,6.45,1,7.47,1.55a5.81,5.81,0,0,1,.67.41c.45.4-1.6.57-5.26.5-5.4-.32-10.91-.94-16.49-1.61s-11.22-1.47-16.88-2.26l-25.21-3.73Z"/><path class="cls-2" d="M431.35,379,446,371.24l5.3-2.88c6.27-3.31,12.54-6.61,18.77-10,2.76-1.5,5.5-3.08,8.2-4.63,3.5-2,6.89-4.11,10.51-5.85,1.11-.57,1.11-.26.38.57-.36.43-.91,1-1.57,1.64-.33.32-.69.69-1.1,1s-.89.63-1.38.94c-6.94,4.4-14.18,8.24-21.53,12-4.4,2.25-8.86,4.81-13.3,7.2l-14.7,7.86-9,4.84c-4.56,2.45-9.15,4.89-13.63,7.4-3.48,1.95-6.83,4-10.2,6l-2.21,1.35c-.69.42-1.27.76-1.76,1s-.93.43-1.26.59a3.41,3.41,0,0,1-1.58.34,5.12,5.12,0,0,1-.57,0c-.23-.06-.11-.32.29-.8a10.89,10.89,0,0,1,2.09-1.83c5.92-3.95,12.41-7.59,18.95-11.22,4.86-2.68,9.78-5.31,14.68-7.94Z"/><path class="cls-2" d="M302.54,373l8.42-3.49,3.05-1.32,10.83-4.44c1.6-.66,3.18-1.39,4.75-2.08l3-1.33a18.86,18.86,0,0,1,3.14-1.11c.67-.17.66,0,.25.54-.21.25-.51.59-.89,1a6.23,6.23,0,0,1-1.45,1,126,126,0,0,1-12.43,5.39c-2.55,1-5.1,2.19-7.65,3.29L305.16,374,300,376.17c-2.61,1.14-5.25,2.26-7.81,3.45-2,.92-3.9,1.95-5.83,2.94-.43.22-.83.45-1.27.66-1.6.79-2.16.9-2.75.55a3.16,3.16,0,0,1-.41-.24c-.36-.3.15-1,1.29-1.66a110.1,110.1,0,0,1,10.89-5.34l8.44-3.63Z"/><path class="cls-2" d="M364.83,345.74l8.05-3.3,2.91-1.27L386.16,337c1.53-.62,3-1.32,4.55-2l2.91-1.25a14.75,14.75,0,0,1,3-1c.67-.14.63.06.23.55-.2.23-.49.56-.85.93a6.1,6.1,0,0,1-1.39.92,119.5,119.5,0,0,1-11.89,5.11c-2.44.92-4.87,2.09-7.31,3.14l-8.07,3.42-5,2.1c-2.5,1.08-5,2.13-7.48,3.26-1.91.87-3.74,1.84-5.6,2.77-.41.2-.8.42-1.22.62-1.54.73-2.1.82-2.67.43a2.81,2.81,0,0,1-.38-.26c-.32-.33.16-1,1.25-1.58a115.66,115.66,0,0,1,10.43-5l8.08-3.43Z"/><path class="cls-2" d="M368.16,376.49l12.48-5.26,4.53-2,16.06-6.72c2.37-1,4.73-2.07,7.07-3.09l4.52-2a39.53,39.53,0,0,1,4.62-1.75c1-.3.93-.08.25.54-.33.31-.82.73-1.42,1.21a13.41,13.41,0,0,1-2.22,1.31c-6,2.95-12.22,5.5-18.5,8-3.75,1.5-7.57,3.27-11.36,4.91l-12.53,5.39L364,380.44c-3.88,1.69-7.79,3.37-11.62,5.12-3,1.36-5.83,2.81-8.73,4.23l-1.9.95c-2.41,1.14-3.21,1.37-4,1.09a2.86,2.86,0,0,1-.52-.18c-.44-.27.39-1.13,2.12-2,5.11-2.75,10.67-5.24,16.27-7.72l12.54-5.43Z"/><path class="cls-2" d="M442.4,344.87c1-.4,2-.8,3-1.22.36-.15.7-.35,1.07-.5,1.28-.53,2.58-1,3.86-1.6.57-.24,1.11-.54,1.66-.82.36-.17.7-.36,1.07-.52a2.56,2.56,0,0,1,1.19-.3c.29,0,.3.18.21.51,0,.16-.09.38-.17.62a1.12,1.12,0,0,1-.42.51,17.26,17.26,0,0,1-4.35,2.08,28.66,28.66,0,0,0-2.7,1.26l-3,1.32L442,347c-.93.42-1.88.8-2.79,1.25-.7.35-1.35.8-2,1.2-.15.09-.29.19-.44.27-.57.3-.81.26-1.15-.18-.08-.1-.16-.19-.23-.29a.79.79,0,0,1,.27-1.07,18.24,18.24,0,0,1,3.76-2.07l3-1.29Z"/><path class="cls-2" d="M371.77,304.2c.05-.39,0,.27,0,0l0-.14c0-.19.05-.38.07-.57,0-.36,0-.72.05-1.08a1.4,1.4,0,0,0-2.8,0c0,.36-.05.72-.05,1.08,0,.13.07-.46,0-.1s-.07.55-.11.82a1.4,1.4,0,0,0,1.4,1.4,1.42,1.42,0,0,0,1.4-1.4Z"/><path class="cls-2" d="M422.61,350.43l-.31,2.15c-.06.36-.11.73-.2,1.14a3.94,3.94,0,0,1-.28.85l-.21.43a22,22,0,0,0-1.39,3.79,17,17,0,0,0-.63,3.95c0,.16,0,.33,0,.49v.3a.28.28,0,0,0,.13.19,5.67,5.67,0,0,0,1.6.66,28.83,28.83,0,0,0,5.94.82,36.18,36.18,0,0,0,4.54,0,16.21,16.21,0,0,0,2.17-.3,5.39,5.39,0,0,0,.91-.3c.17-.07.25-.14.29-.28l.06-.27c0-.12,0-.24.07-.37s.08-.48.11-.73a14.52,14.52,0,0,0,.08-1.48,13,13,0,0,0-.39-2.95c-.22-1-.58-1.95-.89-3s-.56-2.06-.81-3.1a68.06,68.06,0,0,1-1.75-9.74,13.28,13.28,0,0,1,.08-3.32,3.76,3.76,0,0,1,.29-.9,2.35,2.35,0,0,1,.72-.92,1.91,1.91,0,0,1,1.17-.31,3,3,0,0,1,1,.22,10.18,10.18,0,0,1,2.8,1.85,22,22,0,0,1,2.24,2.29c.84,1,.41,1.14-.62.62-.52-.26-1.21-.67-2-1.15s-1.69-1.06-2.59-1.52a3.25,3.25,0,0,0-.56-.24c-.17-.06-.36-.08-.3-.08s0,0,0,0h0a.39.39,0,0,0-.06.13,7.68,7.68,0,0,0-.22,2.59,43.63,43.63,0,0,0,.82,6.11c.4,2.05.87,4.11,1.41,6.13.13.51.27,1,.42,1.49s.33,1,.47,1.57a16.38,16.38,0,0,1,.6,3.38,14.74,14.74,0,0,1,0,2.1c0,.36-.07.71-.13,1.06l-.08.52-.13.63c-.05.19-.17.36-.24.55a1.9,1.9,0,0,1-.4.45,3.72,3.72,0,0,1-.93.54,9.52,9.52,0,0,1-1.59.44,23,23,0,0,1-3.05.34,38,38,0,0,1-6-.15,24.08,24.08,0,0,1-4.42-.85,9.38,9.38,0,0,1-1.13-.44,4.27,4.27,0,0,1-.58-.33,2.93,2.93,0,0,1-.65-.57,3.73,3.73,0,0,1-.23-.37,3.24,3.24,0,0,1-.13-.41,1.59,1.59,0,0,1-.06-.43v-.32a11,11,0,0,1,0-1.15,20.45,20.45,0,0,1,.79-4.44,21.83,21.83,0,0,1,1.63-4.2.5.5,0,0,1,0-.13l.06-.28c0-.19.08-.4.11-.62l.19-1.3.36-2.64c.25-1.76.52-3.52.84-5.28a57.88,57.88,0,0,1,1.94-7.92,23.49,23.49,0,0,1,1.62-3.83,8.44,8.44,0,0,1,3.07-3,7.91,7.91,0,0,1,3.22-1,4.22,4.22,0,0,1,1.79.26,8.42,8.42,0,0,1,1.52.71,10.63,10.63,0,0,1,2.55,2.06,17.19,17.19,0,0,1,2,2.55,22.88,22.88,0,0,1,1.36,2.41c1.47,3.11,1.73,4.09,1.64,5a4.48,4.48,0,0,1-.05.57c-.11.46-1.19-.6-2.36-2.78a48.76,48.76,0,0,0-2.84-4.6,10.83,10.83,0,0,0-3.61-3.44,7.46,7.46,0,0,0-1.08-.49,2.2,2.2,0,0,0-.85-.06,5.2,5.2,0,0,0-2.13.68,6.25,6.25,0,0,0-1.8,1.48,7.82,7.82,0,0,0-1.2,2.13,43,43,0,0,0-2.3,8c-.56,2.78-1,5.61-1.34,8.46Z"/><path class="cls-2" d="M427.93,329s3.76-3.36,3.68-4.34c0,0,1.22,0,1.43.91s-1,3-1,3Z"/><path class="cls-2" d="M429.6,357.64c-.82-.06-1.65-.15-2.47-.27-.3-.05-.6,0-.9-.09a16.89,16.89,0,0,1-3.07-1.06c-.44-.17-.88-.39-1.33-.56-.28-.15-.58-.27-.85-.44a2.76,2.76,0,0,1-.63-.77c-.1-.18.23-.44.63-.65s.9-.44,1.12-.35l2.7,1.22a6.67,6.67,0,0,0,2,.36,20.91,20.91,0,0,0,2.25.23,13.28,13.28,0,0,0,1.41,0,11.53,11.53,0,0,0,2.12-.19,14.23,14.23,0,0,0,1.51-.56c.1-.05.19-.11.29-.15.42-.07.52,0,.86.49l.21.29a.81.81,0,0,1-.14,1.07,4.91,4.91,0,0,1-1.5,1,7.25,7.25,0,0,1-1.66.37,20.9,20.9,0,0,1-2.5.1Z"/><path class="cls-2" d="M291.16,360.17l.09,2.12c0,.35,0,.69.07,1s0,.08,0,.18.15.37.21.56a23.54,23.54,0,0,1,1.11,4.39,19.66,19.66,0,0,1,.23,4.55,5.9,5.9,0,0,1-.06.59l0,.29a2.3,2.3,0,0,1-1.24,1.88,7.44,7.44,0,0,1-2.42.78,30.24,30.24,0,0,1-6.48.35,35.47,35.47,0,0,1-4.79-.54,15.77,15.77,0,0,1-2.41-.61,6.51,6.51,0,0,1-1.25-.57,2.85,2.85,0,0,1-.71-.61,2.09,2.09,0,0,1-.38-.86l-.06-.52,0-.42q0-.42,0-.84a13.85,13.85,0,0,1,.1-1.7,14.91,14.91,0,0,1,.78-3.26c.36-1,.85-2,1.23-3s.75-1.95,1.1-2.94a51.87,51.87,0,0,0,2.42-9.33,11.05,11.05,0,0,0,.09-2.91,1.49,1.49,0,0,0-.34-.91c-.19-.13-.33-.12-.8,0a10.17,10.17,0,0,0-2.54,1.33c-.83.57-1.64,1.19-2.42,1.84-1,.82-1.14.44-.61-.62a8.83,8.83,0,0,1,1.38-2,9.27,9.27,0,0,1,2.77-2.14,5.51,5.51,0,0,1,.92-.36,3.23,3.23,0,0,1,1.25-.17,4.78,4.78,0,0,1,.77.16,1.92,1.92,0,0,1,.65.44,2.18,2.18,0,0,1,.51.61,2.74,2.74,0,0,1,.27.59,8.89,8.89,0,0,1,.18,3.72,42,42,0,0,1-1.4,6.43c-.61,2.08-1.3,4.12-2.08,6.14-.2.51-.4,1-.63,1.53s-.43,1-.63,1.43a15.13,15.13,0,0,0-.89,2.85,10.65,10.65,0,0,0-.19,1.79,6.93,6.93,0,0,0,0,.91l0,.46,0,.37a.27.27,0,0,0,.09.2.53.53,0,0,0,.1.07,1.3,1.3,0,0,0,.21.12,7.32,7.32,0,0,0,1.2.44,21.74,21.74,0,0,0,2.76.51,40.65,40.65,0,0,0,5.73.27,22,22,0,0,0,4.11-.41,7.5,7.5,0,0,0,.91-.26,3.3,3.3,0,0,0,.37-.17.78.78,0,0,0,.18-.11.59.59,0,0,0,.1-.17l.05-.32c0-.33.06-.67.08-1a21.45,21.45,0,0,0-1.47-8.07,4.39,4.39,0,0,1-.13-.52c0-.14,0-.25-.05-.37s0-.48-.05-.7l-.07-1.34L289,358.7c-.08-1.77-.19-3.53-.35-5.28a55.61,55.61,0,0,0-1.19-7.86,21.25,21.25,0,0,0-1.2-3.69,6.92,6.92,0,0,0-2.41-2.71,6,6,0,0,0-2.58-1,2.82,2.82,0,0,0-1.23.14,6.9,6.9,0,0,0-1.28.56,9,9,0,0,0-2.22,1.73,15.45,15.45,0,0,0-1.83,2.26c-.5.71-.94,1.45-1.41,2.2-1.7,2.84-2.37,3.79-3.21,4.12a3,3,0,0,1-.52.22c-.43.07,0-1.2,1-3.45a30.07,30.07,0,0,1,2.8-5A13,13,0,0,1,278,336.8a11.74,11.74,0,0,1,1.56-.61,4.92,4.92,0,0,1,2-.11,8,8,0,0,1,3.27,1.23,8.88,8.88,0,0,1,2.5,2.35,7.47,7.47,0,0,1,.88,1.5c.27.55.38,1,.58,1.49a42.51,42.51,0,0,1,1.77,8.77c.34,2.93.49,5.85.63,8.74Z"/><path class="cls-2" d="M284.74,338.57s-3.5-3.63-3.34-4.61c0,0-1.23,0-1.5.8s.79,3.11.79,3.11Z"/><path class="cls-2" d="M281.29,364c.72.17,1.45.32,2.18.42.27,0,.54,0,.8,0a12.81,12.81,0,0,0,2.83.09,3.94,3.94,0,0,0,1.17-.34,4.36,4.36,0,0,1,1.36-.64c.18,0,.44.28.59.7a1.37,1.37,0,0,1-.14,1.31,5.86,5.86,0,0,1-3.81,1.08c-.77,0-1.53.13-2.29.08a20,20,0,0,1-2.45-.29c-.49-.08-1-.19-1.47-.29-.74-.14-1.47-.36-2.21-.5-.57-.1-1.17-.12-1.76-.26a2.92,2.92,0,0,1-.4-.1.7.7,0,0,1-.39-1,1.85,1.85,0,0,1,.12-.33,1.2,1.2,0,0,1,.79-.64,6.2,6.2,0,0,1,1.48-.09,11.94,11.94,0,0,1,1.43.26c.72.16,1.44.34,2.17.47Z"/><path class="cls-2" d="M372.7,313.29a8.44,8.44,0,0,1-2.48.25,8.57,8.57,0,0,1-1.17-.12,11,11,0,0,1-1.12-.2,9.5,9.5,0,0,1-1.64-.45,8.47,8.47,0,0,1-2.58-1.61,7.75,7.75,0,0,1-1.72-2.47,13,13,0,0,1-.77-2.46,6.21,6.21,0,0,1,0-3.23c.11-.33.54-.19.94.13a2.08,2.08,0,0,1,.85,1.29,8.91,8.91,0,0,0,1.67,4.83,5.14,5.14,0,0,0,2.77,1.62l.92.22a9.43,9.43,0,0,0,1,.14l.48.07h.46a7.09,7.09,0,0,0,.92-.05,5.72,5.72,0,0,0,2.11-.74,6.43,6.43,0,0,0,2.39-2.54,7.08,7.08,0,0,0,.65-2.66c0-.2,0-.4,0-.6.06-.73.29-.94,1-1.07a3.85,3.85,0,0,1,.41-.09c.36-.07.92.3,1,1a8.69,8.69,0,0,1-6.08,8.8Z"/><path class="cls-2" d="M372.08,305.56a17.6,17.6,0,0,1-3.1.12,8.92,8.92,0,0,1-1.16-.08,21.13,21.13,0,0,1-3.74-1,15.6,15.6,0,0,1-1.62-.74,3.33,3.33,0,0,1-1.66-1.65c-.1-.24.23-.37.62-.41a1.74,1.74,0,0,1,1.07.13,14.86,14.86,0,0,0,3.39,1.51,12.52,12.52,0,0,0,2.53.44,11.36,11.36,0,0,0,2.73,0c.58-.06,1.17-.14,1.76-.24.9-.15,1.82-.28,2.74-.41a21.88,21.88,0,0,1,2.21-.27,4.36,4.36,0,0,1,.51,0,.8.8,0,0,1,.62.3.83.83,0,0,1,.16.5,2.44,2.44,0,0,1,0,.27c0,.26-.33.48-.73.62-1.14.21-2.22.24-3.47.47l-2.86.46Z"/><path class="cls-2" d="M375.31,339.15a8.45,8.45,0,0,1-3,.84,19.73,19.73,0,0,1-2.86.12,34.29,34.29,0,0,1-5.54-.62,17.81,17.81,0,0,1-4-1.15c-.14-.06-.3-.16-.46-.24a4.69,4.69,0,0,1-.57-.4,2.26,2.26,0,0,1-.46-.57c-.16-.19-.13-.46-.19-.69a3.61,3.61,0,0,1,0-.68l.05-.45a8.44,8.44,0,0,1,.15-.9c.11-.6.24-1.18.39-1.75s.31-1.15.48-1.71c.68-2.24,1.49-4.42,2.27-6.6.69-1.93,1.35-3.87,1.91-5.81a49.11,49.11,0,0,0,1.61-7.53c.11-.77.48-.69.82,0a6.09,6.09,0,0,1,.3,3.63c-1.06,5.4-3.12,10.36-4.82,15.4a25.51,25.51,0,0,0-1.16,4.63,7.63,7.63,0,0,0-.13,1.16,1.09,1.09,0,0,0,0,.28.25.25,0,0,0,.1.17,3.57,3.57,0,0,0,.71.37,10.51,10.51,0,0,0,1.08.37,27.39,27.39,0,0,0,5.15,1,22.85,22.85,0,0,0,5.23,0,4.31,4.31,0,0,0,2.53-1,.92.92,0,0,0,.19-.4l.06-.8a14.37,14.37,0,0,0,0-1.61,55.15,55.15,0,0,0-1.39-9.89c-.53-2.55-1.17-5-1.52-7.66-.09-.57-.15-1.15-.2-1.73-.16-2.2.32-2.91.8-3.31a1.94,1.94,0,0,1,.35-.27c.39-.15.6.73.84,2.21.34,4.41,1.55,9,2.43,13.88a45.48,45.48,0,0,1,.7,5.55,13.57,13.57,0,0,1,0,1.43,14.15,14.15,0,0,1,0,1.45l-.05.74a3.11,3.11,0,0,1-1.77,2.62Z"/><path class="cls-2" d="M370.24,331.25a25.42,25.42,0,0,1-2.62-.17c-.32,0-.64,0-.95-.05a17.17,17.17,0,0,1-3.27-.94c-.46-.22-.95-.34-1.43-.59a2.24,2.24,0,0,1-1.54-1.46c-.07-.24.32-.39.78-.53l.68-.21a1,1,0,0,1,.49-.08,24.75,24.75,0,0,0,2.69,1.29,6.59,6.59,0,0,0,2.08.37,23.59,23.59,0,0,0,2.38.17,14.55,14.55,0,0,0,1.48,0,10.1,10.1,0,0,0,2.2-.35,5.41,5.41,0,0,0,1.45-.81,2.83,2.83,0,0,1,.28-.2c.37-.14.58,0,1,.33.08.08.17.16.25.25a.84.84,0,0,1,0,1.07,1.88,1.88,0,0,1-.7.7,3.91,3.91,0,0,1-.82.46,9.14,9.14,0,0,1-1.75.56,18.61,18.61,0,0,1-2.67.28Z"/><path class="cls-2" d="M345.4,355.92a8.37,8.37,0,0,1-2.48.25,7.22,7.22,0,0,1-1.16-.13,7.11,7.11,0,0,1-1.12-.2,8.65,8.65,0,0,1-1.64-.44,8.36,8.36,0,0,1-2.58-1.61,7.86,7.86,0,0,1-1.72-2.47,13.2,13.2,0,0,1-.77-2.46,6.31,6.31,0,0,1,0-3.23c.12-.33.54-.19.95.13a2,2,0,0,1,.84,1.28,9,9,0,0,0,1.67,4.84,5.28,5.28,0,0,0,2.77,1.62l.92.22c.31.08.64.09,1,.14l.48.07H343a4.59,4.59,0,0,0,.91-.05,5.75,5.75,0,0,0,2.12-.73,6.5,6.5,0,0,0,2.39-2.54,7.11,7.11,0,0,0,.64-2.67c0-.19,0-.39,0-.59.06-.73.29-.94,1-1.07l.4-.1a1.09,1.09,0,0,1,1.05,1,8.65,8.65,0,0,1-6.09,8.79Z"/><path class="cls-2" d="M344.78,348.18a17.49,17.49,0,0,1-3.09.12,8.92,8.92,0,0,1-1.16-.08,21.13,21.13,0,0,1-3.74-1,12.31,12.31,0,0,1-1.62-.74,3.33,3.33,0,0,1-1.66-1.65c-.1-.24.23-.36.62-.4a1.72,1.72,0,0,1,1.06.13,15,15,0,0,0,3.4,1.51,11.75,11.75,0,0,0,2.53.44,11.34,11.34,0,0,0,2.73,0c.58-.07,1.17-.15,1.76-.25.9-.15,1.82-.28,2.74-.41a21.88,21.88,0,0,1,2.21-.27,4.19,4.19,0,0,1,.5,0,.78.78,0,0,1,.62.3.78.78,0,0,1,.17.5c0,.09,0,.18,0,.26,0,.27-.33.48-.73.62-1.14.2-2.23.24-3.47.47l-2.87.46Z"/><path class="cls-2" d="M348,381.78a8.35,8.35,0,0,1-3,.84,21.23,21.23,0,0,1-2.86.11,33.19,33.19,0,0,1-5.54-.61,17.81,17.81,0,0,1-4-1.15,5.06,5.06,0,0,1-.46-.24,3.45,3.45,0,0,1-.57-.41,2.3,2.3,0,0,1-.47-.56c-.15-.19-.12-.47-.19-.69a4.5,4.5,0,0,1,.05-.68l.05-.46a8.89,8.89,0,0,1,.15-.9c.11-.59.23-1.18.39-1.75s.31-1.14.48-1.7c.68-2.25,1.48-4.42,2.27-6.6.69-1.93,1.35-3.88,1.91-5.82a49,49,0,0,0,1.61-7.52c.11-.78.48-.69.82,0a6.18,6.18,0,0,1,.3,3.63c-1.06,5.41-3.12,10.37-4.82,15.4a26.85,26.85,0,0,0-1.17,4.63c-.07.4-.1.78-.13,1.17,0,.2,0,.19,0,.28a.29.29,0,0,0,.1.16,3.53,3.53,0,0,0,.72.37,11.22,11.22,0,0,0,1.07.38,27.65,27.65,0,0,0,5.16,1,22.77,22.77,0,0,0,5.22,0,4.37,4.37,0,0,0,2.54-1,1,1,0,0,0,.19-.41l.06-.79a14.37,14.37,0,0,0,0-1.61,55.81,55.81,0,0,0-1.39-9.89c-.53-2.55-1.17-5.05-1.52-7.67-.1-.57-.15-1.14-.2-1.73-.16-2.19.31-2.9.79-3.31a3.16,3.16,0,0,1,.36-.26c.38-.16.6.73.83,2.21.35,4.4,1.55,9,2.44,13.88a47.26,47.26,0,0,1,.7,5.55,13.58,13.58,0,0,1,0,1.43,11.76,11.76,0,0,1,0,1.45l-.05.73a3.11,3.11,0,0,1-.27,1.08,3.33,3.33,0,0,1-1.51,1.55Z"/><path class="cls-2" d="M344.2,346.81c.05-.39,0,.24,0,0,0,0,0-.07,0-.11s.06-.37.08-.55c0-.34,0-.68,0-1a1.33,1.33,0,0,0-1.32-1.33,1.36,1.36,0,0,0-1.33,1.33c0,.34,0,.68,0,1s.06-.43,0-.07-.07.5-.11.76a1.33,1.33,0,0,0,1.33,1.32,1.35,1.35,0,0,0,1.32-1.32Z"/><path class="cls-2" d="M342.94,373.88c-.88,0-1.75-.07-2.61-.17-.32,0-.64,0-.95-.06a16.44,16.44,0,0,1-3.27-.93c-.47-.23-1-.34-1.43-.59a2.25,2.25,0,0,1-1.54-1.46c-.07-.24.32-.39.78-.53l.68-.21a1,1,0,0,1,.49-.08,25.74,25.74,0,0,0,2.69,1.29,6.49,6.49,0,0,0,2.08.37,20.83,20.83,0,0,0,2.38.16,12.19,12.19,0,0,0,1.48,0,10.65,10.65,0,0,0,2.19-.35,5.12,5.12,0,0,0,1.45-.81,2.43,2.43,0,0,1,.28-.2c.37-.15.59,0,1,.32l.26.25a.85.85,0,0,1,0,1.08,1.92,1.92,0,0,1-.7.69,3.72,3.72,0,0,1-.82.46,8.61,8.61,0,0,1-1.76.57,18.47,18.47,0,0,1-2.66.28Z"/><path class="cls-2" d="M353,327.36c-.78-.17-1.57-.31-2.35-.5-.29-.06-.58-.08-.87-.15l-3-.76c-.45-.11-.9-.19-1.35-.28a6,6,0,0,1-1.71-.45c-.34-.15.31-.87,1-.85a19.09,19.09,0,0,1,3.49.51,15.37,15.37,0,0,0,2.16.29c.8.1,1.59.25,2.39.39l1.47.26c.74.12,1.48.28,2.23.36.58.06,1.16,0,1.75,0h.38c.48.06.61.2.62.7,0,.11,0,.23,0,.34a.7.7,0,0,1-.62.69,11.2,11.2,0,0,1-3.16-.14c-.79-.11-1.58-.26-2.37-.39Z"/><path class="cls-2" d="M404.39,334.59l-6.32-1-2.31-.35-8.11-1.44c-1.2-.21-2.41-.39-3.61-.56a33.61,33.61,0,0,1-4.61-.85c-.48-.14-.35-.35.1-.51a5.13,5.13,0,0,1,2.11-.19c3.13.36,6.28.65,9.42,1.26,1.88.35,3.87.51,5.8.77,2.13.28,4.26.61,6.38.93l3.93.59c2,.28,4,.6,5.94.83,1.54.19,3.06.26,4.59.39.34,0,.67,0,1,.09,1.25.14,1.65.35,1.82.89a1.73,1.73,0,0,1,.11.37c.05.4-.51.63-1.41.59a83.88,83.88,0,0,1-8.45-.8l-6.39-.93Z"/><path class="cls-2" d="M470.51,343.33l-6.55-1-2.39-.35-8.41-1.44c-1.25-.21-2.5-.39-3.74-.56a35.74,35.74,0,0,1-4.78-.85c-.5-.15-.37-.36.1-.51a5.37,5.37,0,0,1,2.17-.2c3.25.37,6.52.66,9.77,1.27,1.95.35,4,.51,6,.77,2.21.28,4.41.6,6.62.93l4.07.59c2.05.28,4.11.6,6.16.83,1.59.18,3.17.26,4.75.39l1,.09c1.3.14,1.72.36,1.9.9a2.65,2.65,0,0,1,.12.37c0,.4-.53.63-1.46.59-2.83-.09-5.79-.43-8.76-.82l-6.62-.92Z"/><path class="cls-2" d="M236.05,270.89c-.11,2.06-.18,4.12-.16,6.15l.05,1.51.12,1.46.12.66a2.11,2.11,0,0,0,.16.6l.21.56.34.6a28.44,28.44,0,0,0,3.65,4.67c1.39,1.49,2.89,2.89,4.42,4.26a66.4,66.4,0,0,0,7.14,5.42l1.66,1,1.7.95c.58.27,1.15.57,1.73.8l1.89.68a20.66,20.66,0,0,1,6.87,4.9,28.26,28.26,0,0,1,7.3,14.66c.13.6.17,1.21.25,1.81s.19,1.21.19,1.82l.08,1.82a12.85,12.85,0,0,1,0,1.86,17.12,17.12,0,0,1-1.9,7.14,10.16,10.16,0,0,1-.73,1,5.1,5.1,0,0,1-1,.86,4.31,4.31,0,0,1-2.55.75,4.91,4.91,0,0,1-2.5-.78,6.76,6.76,0,0,1-1.83-1.74c-1.89-2.69-2.52-5.79-3.45-8.6-.3-.86-.41-1.17-.26-1.26s.55.22,1,.93a23.1,23.1,0,0,1,1.58,3c.59,1.24,1.22,2.68,2,4.06a5,5,0,0,0,2.73,2.43,5.58,5.58,0,0,0,.82.11c.26-.08.54,0,.76-.16a2.73,2.73,0,0,0,1.28-1,9.69,9.69,0,0,0,1.54-3.75,18.59,18.59,0,0,0,.46-4.31,34.56,34.56,0,0,0-1.33-8.83,26.63,26.63,0,0,0-3.91-8,21.16,21.16,0,0,0-3.67-4,16.53,16.53,0,0,0-4.55-2.81l-1.34-.46a12.12,12.12,0,0,1-1.43-.55c-.93-.39-1.8-.88-2.68-1.34a51.25,51.25,0,0,1-4.91-3.22,69.61,69.61,0,0,1-9.6-8.48,26,26,0,0,1-3.94-5.27,9.39,9.39,0,0,1-.82-3.39c-.07-.55-.09-1.09-.11-1.63s0-1.07,0-1.6c0-5.26.42-10.44.92-15.61.4-3.92.89-7.84,1.58-11.73l.27-1.37a1,1,0,0,0-.18-.79,1,1,0,0,0-.75-.3,1.52,1.52,0,0,0-.44.08,3,3,0,0,0-.52.24,5.64,5.64,0,0,0-1.78,1.82,12.78,12.78,0,0,0-1.21,2.49,56.19,56.19,0,0,0-2.5,8.52c-.63,2.9-1.13,5.81-1.55,8.75-.18,1.29-.31,2.56-.45,3.86-.52,4.84-.57,6.28-1.22,7.35a7.3,7.3,0,0,1-.4.75c-.24.29-.54-.05-.83-1a15.25,15.25,0,0,1-.32-4.24,90.8,90.8,0,0,1,2.36-16.48,58.75,58.75,0,0,1,2.5-8.27,14.27,14.27,0,0,1,2.32-4.19,7.2,7.2,0,0,1,2.23-1.75,7.05,7.05,0,0,1,.78-.3,4.73,4.73,0,0,1,1-.14,3.57,3.57,0,0,1,2,.5,3.19,3.19,0,0,1,1.51,2.52,5.18,5.18,0,0,1-.1,1.3l-.15.8c-.2,1.06-.37,2-.52,3.08-.32,2-.57,4.13-.82,6.2-.46,4.16-.84,8.34-1,12.5Z"/><path class="cls-2" d="M383.64,263.37c-.16-.18.05-.39.49-.61a1.42,1.42,0,0,1,.67-.1,3,3,0,0,1,.39.29c.06.06.5,1.11.68,1.46a4.74,4.74,0,0,1,.36,1c.16.72.41,1.42.63,2.12a1.93,1.93,0,0,1,.08.48,3.94,3.94,0,0,0,.39,1.62c0,.08.05.17.17.23a5.21,5.21,0,0,1,.69,1.65c0,.5.1.94.12,1.41,0,.07.07.11,0,.21a.36.36,0,0,0,0,.47,1.81,1.81,0,0,1,.1.58c0,.11-.07.28-.09.43a.5.5,0,0,1-.28.29c-.14,0-.19.14-.26.23l-.1.09a1,1,0,0,1-.28-.05,2.21,2.21,0,0,1-.61-.21,2.7,2.7,0,0,1-.78-.54l-.21-.29a5,5,0,0,1-.39-.63c-.26-.47-.48-1-.55-1.05a.68.68,0,0,1,0-.35c0-.06-.64-1.45-.62-1.52,0-.31-.2-.59-.05-.95a.31.31,0,0,0,0-.19,8.33,8.33,0,0,1-.2-1.58c0-.26-.1-.52-.14-.79a.41.41,0,0,1,0-.15,1.21,1.21,0,0,0,0-.19c-.14-.61-.15-1.25-.33-1.86,0-.14.06-.86,0-1S383.7,263.45,383.64,263.37Z"/><path class="cls-2" d="M402.44,274.45c-.1.37-.51.41-1.1.27-.19-.05-.59-.39-.59-.52a4,4,0,0,1,.05-.7c0-.13.95-1.79,1.23-2.38a11.76,11.76,0,0,1,1-1.59c.74-1,1.43-2.11,2.22-3.13a4.4,4.4,0,0,1,.59-.63,15,15,0,0,0,2-2.21,1,1,0,0,0,.26-.43,6.31,6.31,0,0,1,1-1.31,11.12,11.12,0,0,1,1.25-1.17l2.24-1.44c.11-.07.19-.18.34-.17a1.13,1.13,0,0,0,.76-.34,5.24,5.24,0,0,1,1-.55,2.9,2.9,0,0,1,.6-.11c.19,0,.31.27.28.33s.13.22.22.31a.48.48,0,0,1,.09.11,18.69,18.69,0,0,1-1.25,2.07,30,30,0,0,0-2.2,2.51,1.32,1.32,0,0,1-.4.34c-.07.05-1.49,1.93-1.53,2-.35.35-.58.79-1.06,1a.53.53,0,0,0-.21.21c-.5.68-1.09,1.3-1.66,2-.28.33-.53.69-.81,1-.05.06-.12.1-.18.16a1.55,1.55,0,0,0-.23.21c-.62.84-1.36,1.59-1.94,2.48-.13.21-1.06,1-1.21,1.2S402.47,274.3,402.44,274.45Z"/></g></svg>