<svg xmlns="http://www.w3.org/2000/svg" width="520" height="520" viewBox="0 0 520 520"><defs><style>.cls-1{fill:#231f20;}</style></defs><title>Notioly New september</title><g id="_160.Movie-Time" data-name="160.Movie-Time"><path class="cls-1" d="M406.14,143.6l.62-14.27.16-5.2.89-18.35c.12-2.71.19-5.44.24-8.13a103.24,103.24,0,0,1,.61-10.39c.14-1.08.31-.93.56,0,.13.46.28,1.11.45,1.9a12.11,12.11,0,0,1,.3,2.7l0,5.3c0,1.77-.09,3.54-.14,5.31-.12,3.54-.28,7.09-.5,10.65-.26,4.26-.28,8.7-.45,13.05l-.57,14.38q-.17,4.44-.34,8.85c-.15,4.47-.34,9-.43,13.39-.08,3.45,0,6.84,0,10.25,0,.75,0,1.48,0,2.24a18,18,0,0,1-.19,3,2.58,2.58,0,0,1-.63,1.31,2.8,2.8,0,0,1-.37.39c-.21.13-.38-.1-.54-.61a8.7,8.7,0,0,1-.33-2.34c-.21-6.11-.09-12.53.09-19,.17-4.79.33-9.6.49-14.4Z"/><path class="cls-1" d="M411.56,340.71c2.11,0,4.24,0,6.34-.15.78,0,1.54-.14,2.3-.25l2-.22,2-.36c.68-.1,1.31-.31,2-.47a13.74,13.74,0,0,0,1.91-.62,10.32,10.32,0,0,0,1.62-.74,13.3,13.3,0,0,0,1.5-.91,23,23,0,0,0,3.27-3.14c.37-.36.54-.09.51.42a3.58,3.58,0,0,1-.82,2.05,11.7,11.7,0,0,1-4,3.09,18,18,0,0,1-2.33.94c-.78.26-1.6.42-2.4.62-1,.18-1.94.36-2.92.58l-3,.43c-1.09.1-2.17.17-3.26.24s-2.18.06-3.26.09c-1.34.05-2.67,0-4,0-2,0-4-.19-6-.26-1.56,0-3.08-.06-4.62-.13l-1,0c-1.26-.09-1.65-.24-1.88-.68a1.47,1.47,0,0,1-.15-.31c-.09-.33.45-.56,1.38-.59,1.37,0,2.77,0,4.19,0l4.3.15c2.13.13,4.27.13,6.42.2Z"/><path class="cls-1" d="M440.63,315.55a37.76,37.76,0,0,0,1.71-4.05c.16-.51.27-1,.42-1.54a19,19,0,0,0,.87-5.48,7.54,7.54,0,0,0-.44-2.37,13.5,13.5,0,0,0-1.48-2.65c-.17-.27.1-.52.57-.55a2.17,2.17,0,0,1,.82.14,2.15,2.15,0,0,1,.77.63,9.74,9.74,0,0,1,1.43,7.12,40,40,0,0,1-.82,4.23,36.29,36.29,0,0,1-1.6,4.38c-.38.88-.8,1.73-1.21,2.58-.63,1.29-1.37,2.53-2.05,3.77-.53,1-1,2-1.52,2.92-.12.21-.22.43-.35.63-.49.77-.77.93-1.27.81a2.79,2.79,0,0,1-.34-.09c-.35-.15-.39-.62-.13-1.21.77-1.77,1.69-3.52,2.59-5.31.64-1.33,1.38-2.63,2-4Z"/><path class="cls-1" d="M408.24,341c-2.09,0-4.2,0-6.29-.15-.77-.05-1.54,0-2.3-.11a56.35,56.35,0,0,1-8-1.27c-1.17-.27-2.35-.58-3.5-1a8.77,8.77,0,0,1-4.05-2.46c-.33-.4,0-.56.54-.55a4.64,4.64,0,0,1,1.93.5,34.75,34.75,0,0,0,8.46,2.54,38.22,38.22,0,0,0,5.6.51q3.11.16,6.22.15c1.28,0,2.57,0,3.85-.08,1.93-.09,3.88-.19,5.8-.44,1.48-.2,2.92-.48,4.36-.75l.95-.19c1.19-.19,1.59-.11,1.92.12a2.3,2.3,0,0,1,.23.15c.17.17-.26.54-1.11.93a28.08,28.08,0,0,1-4,1.18,42.17,42.17,0,0,1-4.21.57c-2.11.21-4.23.3-6.35.37Z"/><path class="cls-1" d="M356.11,240.19c-.23.94-.87,4.58.61,7.52s97.1.06,97.1.06l-.05-7.58Z"/><path class="cls-1" d="M457.58,424.14q.32-8.81.51-17.62l.07-6.43c.13-7.55.24-15.11.24-22.66,0-3.35-.09-6.72-.16-10.05-.1-4.27-.33-8.55-.38-12.82,0-1.33.11-1.17.34-.05l.44,2.31a22.88,22.88,0,0,1,.42,3.32c.6,8.74.72,17.48.61,26.29-.05,5.27-.09,10.75-.14,16.14q-.13,8.88-.41,17.77l-.36,10.93c-.21,5.52-.45,11.06-.74,16.54-.22,4.26-.33,8.41-.88,12.68l-.12.83a1.71,1.71,0,0,1-.93,1.1,5.14,5.14,0,0,1-1,.44,14.35,14.35,0,0,1-2.24.47,13,13,0,0,1-1.51.16,3.08,3.08,0,0,1-1.68-.29,2.74,2.74,0,0,1-.5-.3c-.34-.37,1.06-.62,3.5-.9a12.84,12.84,0,0,0,1.9-.45,4.22,4.22,0,0,0,.83-.34c.28-.17.27-.2.29-.26.07-.67.18-1.48.27-2.21s.11-1.56.17-2.35c.14-1.56.19-3.17.3-4.76.18-3.21.35-6.46.49-9.72.27-5.9.49-11.84.68-17.76Z"/><path class="cls-1" d="M341.3,411.57c-.55-.13-1.09-.26-1.62-.36-.2,0-.4,0-.59,0l-2.16-.48a3,3,0,0,0-.9,0,3.17,3.17,0,0,1-1,.08,1.25,1.25,0,0,1-.27-.86c0-.43.15-.91.45-1a5.12,5.12,0,0,1,2.72.15,1.77,1.77,0,0,0,.71.1c.26,0,.53,0,.8,0,.58.06,1.14.16,1.71.25l1,.16a9,9,0,0,0,1.55.15,5.21,5.21,0,0,0,1.17-.26l.25-.09c.31-.05.41.13.5.73l.06.41a1.1,1.1,0,0,1-.32,1,4,4,0,0,1-2.34.35c-.58-.05-1.15-.16-1.7-.25Z"/><path class="cls-1" d="M341.08,382.09l-1.81-.16c-.22,0-.43,0-.65,0-.77-.1-1.54-.25-2.3-.39a4.91,4.91,0,0,0-1,0,2,2,0,0,1-1.29-.14c-.26-.17.24-2.2.7-2.23a6.13,6.13,0,0,1,2.49.31,5.1,5.1,0,0,0,1.56.08l1.72.08c.36,0,.72,0,1.07,0a9.54,9.54,0,0,0,1.61-.11,6.69,6.69,0,0,0,1.19-.47,1.51,1.51,0,0,1,.26-.12c.33-.08.46.08.63.74l.11.45a1.28,1.28,0,0,1-.2,1.16,3.75,3.75,0,0,1-2.27.83c-.59.06-1.2,0-1.8.06Z"/><path class="cls-1" d="M256.53,231.19c-2.9-.2-5.79-.48-8.67-.76l-3.16-.28c-3.7-.4-7.39-.93-11.08-1.38-1.63-.21-3.28-.38-4.91-.54-2.09-.21-4.19-.41-6.26-.8-.65-.12-.53-.39.05-.61a7,7,0,0,1,2.84-.36c4.29.28,8.54.78,12.83,1.35,2.56.35,5.25.51,7.88.76,2.89.27,5.78.52,8.68.73,1.78.12,3.56.23,5.35.29,2.7.11,5.41.12,8.08,0a46.94,46.94,0,0,0,6.09-.8l1.32-.26c1.65-.27,2.19-.29,2.64,0a2.6,2.6,0,0,1,.3.2c.23.23-.39.64-1.59,1.08a29.16,29.16,0,0,1-5.65,1.26,46.75,46.75,0,0,1-5.92.44c-3,0-5.9-.08-8.82-.26Z"/><path class="cls-1" d="M272.14,201.33a4.64,4.64,0,0,0-.92-.07,6.63,6.63,0,0,0-1,.16c-.23.08-.45.2-.68.28a8.63,8.63,0,0,0-2.34,1.42,6.19,6.19,0,0,0-.84.93,15.19,15.19,0,0,1-.95,1.25c-.12.12-.36,0-.55-.25a1.07,1.07,0,0,1-.16-1,6.38,6.38,0,0,1,2.46-2.71,21.76,21.76,0,0,1,1.93-1.21,6.18,6.18,0,0,1,1.21-.42,5.57,5.57,0,0,1,1.29-.18,3.61,3.61,0,0,1,.8,0,4.12,4.12,0,0,1,.78.14,7,7,0,0,1,1.11.4l1,.55a7.75,7.75,0,0,1,1.47,1,3.58,3.58,0,0,1,.29.26c.32.36.34.55.13.87a1.59,1.59,0,0,1-.15.21.69.69,0,0,1-.81.13c-.46-.19-.89-.41-1.3-.58a5.21,5.21,0,0,1-.56-.34c-.19-.12-.38-.18-.57-.28s-.27-.15-.41-.2l-.43-.13a4.34,4.34,0,0,0-.87-.18Z"/><path class="cls-1" d="M234,203.13a7.17,7.17,0,0,1,1.83-.32c.23,0,.44-.05.67,0a9.27,9.27,0,0,1,2.18.52c.31.09.6.17.9.24a1.78,1.78,0,0,1,1.08.48c.1.1-.08.51-.33.9s-.57.78-.76.76a6.45,6.45,0,0,1-1-.19,7.07,7.07,0,0,1-.93-.44,2.18,2.18,0,0,0-1.18-.12,6.6,6.6,0,0,0-1.32.11,5.08,5.08,0,0,0-.82.24,6.9,6.9,0,0,0-1.2.63c-.3.2-.5.53-.79.76a1.39,1.39,0,0,1-.19.15c-.27.16-.42.11-.7-.15-.06-.07-.13-.12-.18-.19a.73.73,0,0,1-.16-.73,3.77,3.77,0,0,1,1.3-1.8,6.35,6.35,0,0,1,1.59-.86Z"/><path class="cls-1" d="M237.12,196.79a9.29,9.29,0,0,1,1.62-2.77c.28-.28.53-.59.81-.85a7.15,7.15,0,0,1,.85-.59,4.07,4.07,0,0,1,.9-.47l.93-.38,1-.23a12.1,12.1,0,0,1,1.68-.31,4.73,4.73,0,0,1,2.15.09c.22.07.16.4,0,.76s-.52.76-.87.83c-1.27.23-2.42.39-3.62.7a2.36,2.36,0,0,0-1,.5l-.45.34c-.14.12-.25.27-.39.4a7,7,0,0,0-1.48,2,7.74,7.74,0,0,0-.5,1.52,6.37,6.37,0,0,0-.1,2.42,4.27,4.27,0,0,0,.77,1.62,3.08,3.08,0,0,1,.24.27c.27.33.27.47,0,.94l-.18.32c-.22.34-.61.41-1.05.09a5.35,5.35,0,0,1-1.76-4,9,9,0,0,1,.48-3.22Z"/><path class="cls-1" d="M278.91,215.46l.73.5.66.59a13.18,13.18,0,0,1,1.21,1.27c.25.33.54.64.77,1a14.18,14.18,0,0,1,1.51,4.06c.14.61.26,1.22.37,1.83a6.36,6.36,0,0,1,.09,2.38c-.05.24-.39.2-.73,0a1.44,1.44,0,0,1-.75-.94,27.91,27.91,0,0,0-.94-4.24,7.34,7.34,0,0,0-1.35-2.26,9.67,9.67,0,0,0-2-2.06,9.86,9.86,0,0,0-1.57-.91,8.58,8.58,0,0,0-2.67-.75,3.56,3.56,0,0,0-1.08,0c-.36,0-.72.06-1.07.12a3.94,3.94,0,0,1-.47.1c-.58.07-.77-.06-1-.63,0-.13-.09-.26-.12-.39a.78.78,0,0,1,.58-1,9.55,9.55,0,0,1,1.08-.3,10.55,10.55,0,0,1,1.14-.08,9.28,9.28,0,0,1,2.33.24,11.66,11.66,0,0,1,3.29,1.4Z"/><path class="cls-1" d="M265.61,212.64c-.23-.3-.48-.58-.73-.87s-.55-.53-.86-.77-.48-.3-.71-.47a10.07,10.07,0,0,0-2.75-1.25c-.22-.06-.44-.1-.67-.14l-.66,0a8.18,8.18,0,0,0-1.66.11c-.17,0-.23-.11-.15-.33a1.12,1.12,0,0,1,.73-.65,4.47,4.47,0,0,1,1-.18c.34,0,.67,0,1,.09a8.15,8.15,0,0,1,1.88.56,20,20,0,0,1,2.14,1,6.67,6.67,0,0,1,1.06.77,6.79,6.79,0,0,1,1,.9,10.25,10.25,0,0,1,1,1.26c.21.34.4.71.6,1.06s.3.75.47,1.12.21.58.33.87a5.87,5.87,0,0,1,.31.89c0,.14.07.27.1.41a.77.77,0,0,1-.07.55,1,1,0,0,1-.39.26l-.18.07a.4.4,0,0,1-.33-.08.9.9,0,0,1-.39-.36,3.38,3.38,0,0,1-.24-.72c-.06-.24-.17-.47-.23-.71a13.64,13.64,0,0,0-.49-1.4,8.7,8.7,0,0,0-1.11-1.94Z"/><path class="cls-1" d="M224.58,215.32A9.31,9.31,0,0,1,228,214.2c.43,0,.86-.09,1.29-.1a10,10,0,0,1,4.23,1.33c.57.3,1.1.67,1.64,1a8,8,0,0,1,1,.8,4.38,4.38,0,0,1,.65,1c.1.25-.24.43-.7.53a1.79,1.79,0,0,1-1.31-.09,17.27,17.27,0,0,0-3.32-2.17,5.17,5.17,0,0,0-2.47-.31,7.73,7.73,0,0,0-2.71.57,7.24,7.24,0,0,0-1.5.91,6.87,6.87,0,0,0-1.78,2,3.37,3.37,0,0,0-.4,1c-.08.34-.22.65-.3,1,0,.15-.05.31-.09.46-.16.55-.37.68-.88.68a1.93,1.93,0,0,1-.34,0c-.35,0-.61-.35-.6-.85a7.15,7.15,0,0,1,1.48-4.33,13.13,13.13,0,0,1,1.23-1.35,9.25,9.25,0,0,1,1.48-1.09Z"/><path class="cls-1" d="M238.69,212.84a10.57,10.57,0,0,1,1.91-2,5.41,5.41,0,0,1,.8-.63,9.2,9.2,0,0,1,3.31-1.18c.5-.08,1-.18,1.5-.21a7.53,7.53,0,0,1,.95,0c.32,0,.64.07,1,.13s-.11.7-.79.94a27,27,0,0,1-3.5.68,5.32,5.32,0,0,0-1.88,1,8.54,8.54,0,0,0-1.72,1.68,11.09,11.09,0,0,0-.9,1.23l-.6,1c-.17.35-.35.71-.5,1.06a15.8,15.8,0,0,0-.53,1.74c0,.13-.06.26-.1.38-.17.47-.31.59-.67.58h-.25c-.27-.05-.41-.31-.37-.69a10.27,10.27,0,0,1,1-3.35,16.86,16.86,0,0,1,1.35-2.36Z"/><path class="cls-1" d="M246.09,260.5c-2.32-11.16-1-29.26-1-29.26l-7.42-.74s-.85,25.06,2.1,36.95Z"/><path class="cls-1" d="M271.35,230.34s3.67,27,.93,33.27l3.56-.75s.32,1-1.47,3.32-.15,1.8-.15,1.8a1.18,1.18,0,0,1,1.12,1.24c0,1.15-2.93,3.7-2.93,3.7v1.32l7.62-3.42s2.43-24.84-2.1-40.95Z"/><path class="cls-1" d="M189.72,334.45s13.42,7.06,25.63,6.75c15.34-.38,20.18-3.33,24.12-5l27.85-.74a23.61,23.61,0,0,1-11.14,12c-11.72,5.74-50.05,7.26-70.31,5.42s-23.92-1.6-28.5-5.34-46.19-48.15-57.81-81.33-9.86-39.57,2.5-41.57c0,0,9.06,29.93,22.75,48s29.91,42.58,34.89,46.94,12.85,15.28,17.8,14.93S189.72,334.45,189.72,334.45Z"/><path class="cls-1" d="M381.58,308.85s28.09-.66,31.24,2.28,0,18.64,0,18.64-13.62,1.62-18.73,1-12.51-7-12.51-7,4.82-10.32,1.77-12S381.58,308.85,381.58,308.85Z"/><path class="cls-1" d="M242.72,332.48s98-.31,103.52-1.36-27.73-16.72-33.42-24.51l-36.93-.05Z"/><path class="cls-1" d="M163.06,304.57s12.13,21.51,34.21,30.07c14,5.44,29.45,3.33,39.13-.19s62-40.16,62-40.16S315.82,310.5,321,314.16s42.1,26.54,46.73,25.23,18.32-23.2,17.58-25.94S323.19,270.24,313.24,264c-7.86-4.94-33.57,7.78-35.61,8.77s-13.55,4.53-13.55,4.53,9.8.5,10,1.62-.46,3.9-10,3.63-15.69-.4-15.69-.4l-20.83,6.36s1,7.81-5.53,11c-3.21,1.58-39.31,4.59-48.05,5.06S163.06,304.57,163.06,304.57Z"/><path class="cls-1" d="M230.69,278.33c-.1.85-.2,1.7-.29,2.55,0,.31,0,.63-.09.93-.19,1.09-.39,2.18-.58,3.26-.1.48-.12,1-.2,1.46a5,5,0,0,1-.51,1.84c-.1.19-.34.08-.57-.15a1.47,1.47,0,0,1-.49-.91,12.87,12.87,0,0,1,.44-3.66,14.55,14.55,0,0,0,.21-2.29l.24-2.53c.05-.52.1-1,.12-1.56a23.32,23.32,0,0,0,.06-2.36,10,10,0,0,0-.32-1.76,2.37,2.37,0,0,1-.09-.36.63.63,0,0,1,.07-.45,1.63,1.63,0,0,0,.41-.28,1.24,1.24,0,0,0,.19-.22.36.36,0,0,1,.41-.11.62.62,0,0,1,.33.2.94.94,0,0,1,.2.27,3,3,0,0,1,.36.89,7.17,7.17,0,0,1,.17.88,13,13,0,0,1,.09,1.76c0,.87-.06,1.74-.11,2.6Z"/><path class="cls-1" d="M168,234.91q2.17,3,4.51,6c.57.71,1.18,1.39,1.76,2.1,2,2.49,4.07,5,6.21,7.42.95,1.06,1.91,2.14,2.88,3.18,1.24,1.33,2.52,2.64,3.72,4,.37.43.2.5-.27.29a8.25,8.25,0,0,1-2.05-1.38c-1.38-1.27-2.76-2.54-4.1-3.86s-2.54-2.76-3.75-4.21c-1.45-1.73-3.05-3.46-4.52-5.24-1.62-2-3.2-4-4.72-6-.93-1.26-1.85-2.53-2.74-3.82-1.35-2-2.62-4-3.83-6a46.8,46.8,0,0,1-2.53-4.87c-.14-.38-.29-.75-.43-1.14-.45-1.46-.36-2-.12-2.37a1.11,1.11,0,0,1,.16-.24c.18-.17.53.37.92,1.34a65.87,65.87,0,0,0,4.72,8.54c1.32,2.11,2.73,4.19,4.21,6.22Z"/><path class="cls-1" d="M149,300.09a32.73,32.73,0,0,1-5.11-3.26,43.47,43.47,0,0,1-4.33-4.13c-1-1.06-2-2.1-2.88-3.2-3.21-3.9-6.18-7.95-9-12.09l-3.79-5.49c-1.61-2.33-3.11-4.75-4.48-7.23-.43-.78-.2-.78.41-.28a17.82,17.82,0,0,1,2.6,2.77c1.78,2.28,3.4,4.65,5.06,7l5,7.08a95.48,95.48,0,0,0,6.66,8.23c1.29,1.45,2.61,2.87,4,4.18a24.62,24.62,0,0,0,4.52,3.48,36.81,36.81,0,0,0,6.4,3,56.58,56.58,0,0,0,10.48,2.69,67.78,67.78,0,0,0,8.27.67c.6,0,1.2,0,1.81,0a18.2,18.2,0,0,1,2.41.26,2.88,2.88,0,0,1,1.07.51,3.63,3.63,0,0,1,.32.25c.11.14-.07.25-.48.4a7.74,7.74,0,0,1-1.93.39,47.87,47.87,0,0,1-7.74-.15,63.45,63.45,0,0,1-7.9-1.22,50.3,50.3,0,0,1-11.41-3.9Z"/><path class="cls-1" d="M126,172.37a18.9,18.9,0,0,0,2.32,3.1c1.08,1.26,2.08,2.22,2.63,2.93,1.1,1.41.53-6,.53-6Z"/><path class="cls-1" d="M92,155.66s1.27,10.53-8.69,10.53c0,0-8.1-2.11-5.16-8.74l2.11-3.67a31,31,0,0,1-17-19.78c-4.39-15-6.71-26.93,12.76-38.9L89,95s-12-15,3.06-25.26c14-9.5,27.72,3.43,30.55,10.11,0,0,16.54-18.94,29.74-3.4,7.34,8.63,3.67,29.88-16.68,35.89,0,0-4.24,1.23-12.61-1.23s-15,.14-17,4.51-3.75,11.36-1.12,18.17,4.47,12.11,1.78,12.73-6.81-8.41-12.45-7.34-6.07,4.43-5.85,8.43S92,155.66,92,155.66Z"/><path class="cls-1" d="M147.82,168.18a18.87,18.87,0,0,1-10.25,5,26.56,26.56,0,0,1-4,.45,37.33,37.33,0,0,1-13.8-2.54,47.82,47.82,0,0,1-5.65-2.55,17,17,0,0,1-6.17-5c-.49-.69-.1-.83.67-.61a11.52,11.52,0,0,1,3.09,1.5,32.27,32.27,0,0,0,6.55,3.68,50,50,0,0,0,7.27,2.42,27.87,27.87,0,0,0,9.34.59,18.56,18.56,0,0,0,9.48-3.26,12.77,12.77,0,0,0,3.95-4.67,17.86,17.86,0,0,0,1.77-9.28,39.18,39.18,0,0,0-1.37-7.35c-.15-.53-.29-1.06-.43-1.6-.48-2-.44-2.72.07-3.31a2.64,2.64,0,0,1,.34-.39c.42-.31,1,.41,1.62,1.85a31.81,31.81,0,0,1,2.4,14.46,17.82,17.82,0,0,1-4.78,10.7Z"/><path class="cls-1" d="M145.06,110.14a44.42,44.42,0,0,1-7.42,3.08,20,20,0,0,1-8.27.41c-2.68-.37-5.22-1.06-7.72-1.6a21.82,21.82,0,0,0-7.25-.71,9,9,0,0,0-1.19.26c-.38.16-.75.25-1.13.45a14.11,14.11,0,0,0-2.19,1.37,12.93,12.93,0,0,0-3.33,3.85,13.62,13.62,0,0,0-1.54,4.28,19.56,19.56,0,0,0-.31,2.3,23.05,23.05,0,0,0,0,2.35l.07,1.18.17,1.18a21.55,21.55,0,0,0,.44,2.35c.16.78.42,1.55.62,2.33s.51,1.47.83,2.24a40.14,40.14,0,0,1,1.78,4.82A11.05,11.05,0,0,1,109,143a5.56,5.56,0,0,1-.69,2.9,5.06,5.06,0,0,1-.93,1.22,3.23,3.23,0,0,1-.58.47,3.49,3.49,0,0,1-.65.44,2.49,2.49,0,0,1-1.93.17,4.14,4.14,0,0,1-1.38-.84,35.6,35.6,0,0,1-3.3-3.95,12.41,12.41,0,0,0-3-2.86,4.1,4.1,0,0,0-3.61-.43c-2.43.79-3.72,3.79-3.7,6.35a5.2,5.2,0,0,0,.16,1.21,12.45,12.45,0,0,0,.42,1.21,9.11,9.11,0,0,0,1.3,2.21,12.1,12.1,0,0,0,4,3.23,15,15,0,0,0,5,1.49,10.22,10.22,0,0,0,5.15-.56c.53-.17.83-.41,1.09-.49s.38-.11.41,0,0,.22-.19.45a3.88,3.88,0,0,1-.84.89,8.9,8.9,0,0,1-4,1.82,7.56,7.56,0,0,1-1.46.2,6.5,6.5,0,0,1-1.59,0l-.83-.08-.83-.18a10.55,10.55,0,0,1-1.69-.51,14.25,14.25,0,0,1-5.4-3.54l-.56-.6-.48-.68-.48-.68c-.15-.24-.26-.49-.4-.74a8.31,8.31,0,0,1-.66-1.53,10.18,10.18,0,0,1-.48-1.66,9.5,9.5,0,0,1,.14-3.46,10.2,10.2,0,0,1,1.22-3.15,7.8,7.8,0,0,1,2.44-2.59,7.24,7.24,0,0,1,1.68-.74,6.54,6.54,0,0,1,5.34.67,11.74,11.74,0,0,1,2.53,2.1c1.42,1.5,2.54,3.19,3.7,4.43a4.21,4.21,0,0,0,.8.67c.24.14.24.1.25.11s.38-.28.64-.45a3.15,3.15,0,0,0,.56-.77,3.92,3.92,0,0,0,.31-2.05,13.8,13.8,0,0,0-.55-2.52c-.62-2.08-1.74-4.16-2.45-6.6a30,30,0,0,1-1.35-7.28,20.33,20.33,0,0,1,.94-7.52,15.39,15.39,0,0,1,4.2-6.41A15.67,15.67,0,0,1,110.8,110l.47-.24.52-.19c.35-.12.7-.26,1-.35a12.11,12.11,0,0,1,2.14-.3,28.31,28.31,0,0,1,8,1.12,58.58,58.58,0,0,0,7.56,1.47c.63.09,1.25.07,1.88.12s1.24-.05,1.86-.06,1.22-.17,1.82-.3,1.17-.29,1.77-.52c5.93-2.11,11.58-5.37,15.62-10.14a21.79,21.79,0,0,0,5.33-12.76A18.92,18.92,0,0,0,158,81a16.73,16.73,0,0,0-3.37-6,13,13,0,0,0-9.14-4.44A27.72,27.72,0,0,0,135,72.19a21.68,21.68,0,0,0-2.16.88,22.41,22.41,0,0,0-2.08,1,39,39,0,0,0-5.08,3.42,14.09,14.09,0,0,1-2.3,1.69c-.29.15-.62.41-.82.49s-.22-.33.23-1.44a12.73,12.73,0,0,1,3.32-4.22,25.6,25.6,0,0,1,9.3-5,28.23,28.23,0,0,1,10.86-1.37A14.54,14.54,0,0,1,152,69.26a16.75,16.75,0,0,1,4.65,3.65,20,20,0,0,1,4.76,10.46,23.3,23.3,0,0,1-3.88,16.17,32.66,32.66,0,0,1-12.41,10.64Z"/><path class="cls-1" d="M79,161.78a6.12,6.12,0,0,0,2.77,3.07,8.17,8.17,0,0,0,1.49.61,10,10,0,0,0,5.91-.06,9.29,9.29,0,0,0,1.25-.55c.38-.26.75-.52,1.11-.8a8.7,8.7,0,0,0,1.14-1.29,7,7,0,0,0,.51-.7c.15-.25.3-.5.47-.75s.5-.17.68.26a2.33,2.33,0,0,1,.16.87,2.1,2.1,0,0,1,0,.55,3.13,3.13,0,0,1-.23.54,8.83,8.83,0,0,1-7.1,4.49,13.16,13.16,0,0,1-5.2-.51,8.43,8.43,0,0,1-4.49-3.63,6,6,0,0,1-.44-.78l-.31-.83a6,6,0,0,1-.42-1.74,7.65,7.65,0,0,1,1.39-5.08,10.11,10.11,0,0,1,2.83-2.89,3.6,3.6,0,0,1,.79-.45,2.3,2.3,0,0,1,1.19-.23,1.38,1.38,0,0,1,.63.43,1.92,1.92,0,0,1,.2.23c.07.12,0,.27-.11.48a1.88,1.88,0,0,1-.61.66,15.63,15.63,0,0,0-2.22,1.88,7,7,0,0,0-1.47,2.35,4.65,4.65,0,0,0,.17,3.84Z"/><path class="cls-1" d="M59.47,127.13l-.37-1.75c-.09-.59-.16-1.18-.23-1.78a26.83,26.83,0,0,1-.23-3.59,13.71,13.71,0,0,1,.08-1.81c.05-.6.06-1.22.16-1.8l.28-1.76.37-1.74c.19-.84.43-1.68.65-2.52a25.59,25.59,0,0,1,.87-2.46,26.62,26.62,0,0,1,2.12-4.11,24.64,24.64,0,0,1,2.88-3.64,21.63,21.63,0,0,1,7.64-5.08,26.5,26.5,0,0,1,3.89-1.2,23.69,23.69,0,0,1,4-.52,22.32,22.32,0,0,1,5.16.32,15.71,15.71,0,0,1,4.84,1.76c.93.56.64.72-.28.63s-2.51-.25-4.31-.45a23.78,23.78,0,0,0-9.54.62A21.73,21.73,0,0,0,69,100.57a21,21,0,0,0-6.36,10,36.09,36.09,0,0,0-1.5,6.54L61,118.72l-.06.83,0,.83,0,1.68c.06.55.14,1.11.21,1.67l.12,1c.06.34.14.68.21,1,.15.67.27,1.36.44,2,.4,1.34.75,2.69,1.28,4a46.09,46.09,0,0,0,6,11.16A36.63,36.63,0,0,0,76,149.82c.57.41,1.11.84,1.69,1.22,2.16,1.45,2.86,1.83,3.12,2.64a3.32,3.32,0,0,1,.18.53c0,.26-.24.35-.76.27A7.38,7.38,0,0,1,78,153.7,27.44,27.44,0,0,1,70.64,148a43.06,43.06,0,0,1-5.77-7.61,44.71,44.71,0,0,1-5.45-13.22Z"/><path class="cls-1" d="M104.39,68.17a20.61,20.61,0,0,0-9.82,1.52,16.65,16.65,0,0,0-3.11,1.84C88.08,74,86.1,78.3,85.72,82.63a13.91,13.91,0,0,0,.63,5.71c.18.58.46,1.12.69,1.68.16.26.32.51.46.77a4.28,4.28,0,0,0,.47.77A10.66,10.66,0,0,0,89.08,93c.21.21.38.47.58.7l.65.65c.53.57.34.77-.46.7a5.5,5.5,0,0,1-1.63-.34,4.75,4.75,0,0,1-1.82-1.36,13.52,13.52,0,0,1-3-8.11,18.42,18.42,0,0,1,1.5-8.34,22.53,22.53,0,0,1,2.58-4.47,14.27,14.27,0,0,1,3.9-3.5,21.86,21.86,0,0,1,10.71-3,24.58,24.58,0,0,1,6.78.8,22,22,0,0,1,9,5,24.4,24.4,0,0,1,5,6.18c.26.52.55,1,.8,1.56.78,2,.74,2.78.32,3.37a2.1,2.1,0,0,1-.3.39c-.38.31-1-.41-1.61-1.74a32.53,32.53,0,0,0-3.43-5.61,19.62,19.62,0,0,0-14.22-7.57Z"/><path class="cls-1" d="M132.91,176c0,.52-.08,1-.09,1.56a5.23,5.23,0,0,1,0,.56,20.23,20.23,0,0,0-.17,2.05,5.16,5.16,0,0,0,.1.88,3.16,3.16,0,0,1,.13,1.09c0,.11-.28.21-.58.19a.9.9,0,0,1-.76-.36,5.47,5.47,0,0,1-.48-2.37,8.1,8.1,0,0,0-.23-1.45c-.05-.54,0-1.08,0-1.62,0-.34,0-.67,0-1,0-.51,0-1,0-1.52s-.19-.79-.24-1.23a2.71,2.71,0,0,1,0-.29c.07-.37.28-.49.8-.41l.36.06a1.52,1.52,0,0,1,.84.48,3.87,3.87,0,0,1,.27.43,3.43,3.43,0,0,1,.11.46,7.38,7.38,0,0,1,.06,1l0,1.53Z"/><path class="cls-1" d="M131.62,191.44a29.1,29.1,0,0,0,5.46,2,15.89,15.89,0,0,0,2,.33,9.42,9.42,0,0,0,3.44-.08A5.55,5.55,0,0,0,144,193c.5-.36.76-.47.9-1a2.53,2.53,0,0,0-.11-1.42,7.05,7.05,0,0,0-.66-1.46,20,20,0,0,0-2.57-3.34c-.29-.3-.07-.58.48-.61a2.74,2.74,0,0,1,2,.9,10.88,10.88,0,0,1,2.58,4.3,5.2,5.2,0,0,1,.2,1.46,6.41,6.41,0,0,1-.06.85,4.2,4.2,0,0,1-.31.88c-.09.13-.17.27-.27.4a1.7,1.7,0,0,1-.27.33,4.88,4.88,0,0,1-.53.49,6.84,6.84,0,0,1-1.25.67,12.67,12.67,0,0,1-6.18.74,25.3,25.3,0,0,1-6.17-1.74c-1.21-.48-2.38-1-3.54-1.59-1.75-.86-3.43-1.85-5.11-2.79-1.31-.73-2.65-1.35-4-2.1-.28-.16-.58-.3-.86-.48-1-.72-1.18-1.14-.92-1.89a3.68,3.68,0,0,1,.18-.5c.26-.52.94-.6,1.74-.25,2.38,1.06,4.61,2.48,7,3.77,1.74,1,3.49,1.91,5.3,2.69Z"/><path class="cls-1" d="M122,266.74a178.08,178.08,0,0,0,10.14,15.08c1.81,2.43,3.71,4.79,5.67,7.08a80.18,80.18,0,0,0,6.19,6.56,26.71,26.71,0,0,0,5,3.85c.22.11.42.24.66.34l.74.26,1.49.54c1,.32,2.08.53,3.12.82a87.35,87.35,0,0,0,11.49,1.66c3.87.36,7.78.52,11.69.6a183.26,183.26,0,0,0,23.42-1.07c6.87-.81,13.83-2,20.16-4.49.48-.2,1.07-.41,1.46-.6a2.89,2.89,0,0,0,.8-1,18,18,0,0,0,1.21-2.95,56.85,56.85,0,0,0,1.55-6.4c.4-2.16.71-4.35.93-6.54A42.38,42.38,0,0,0,228,274c-.1-1.34-.19-1.89,0-1.91s.53.6.84,1.77a32.71,32.71,0,0,1,.14,11.95,61.55,61.55,0,0,1-1.37,6.8,31.82,31.82,0,0,1-1.1,3.39,12.34,12.34,0,0,1-.85,1.71,5.6,5.6,0,0,1-.67.89,2.87,2.87,0,0,1-.54.46l-.35.21-.21.08-3.27,1.31-3.33,1c-1.11.37-2.24.56-3.36.84s-2.25.54-3.38.72a155.66,155.66,0,0,1-27.43,2.5c-5.5.08-11.13-.06-16.77-.47-1.42-.11-2.83-.2-4.24-.39s-2.83-.3-4.24-.58a41.38,41.38,0,0,1-4.22-.83l-2.1-.52-2.08-.75a12.12,12.12,0,0,1-2.25-1.07c-.67-.46-1.37-.9-2-1.4s-1.24-1-1.83-1.52-1.17-1.06-1.74-1.6c-2.25-2.17-4.35-4.47-6.37-6.83a165.46,165.46,0,0,1-11.14-14.87,188.66,188.66,0,0,1-11.53-19.72c-5.14-10.31-9.37-21.24-11.39-32.59a63.85,63.85,0,0,1-1-13.3,44.66,44.66,0,0,1,2.23-13.18,22.09,22.09,0,0,1,2.69-5.39,15.15,15.15,0,0,1,6.13-5.28,18.68,18.68,0,0,1,2.09-.6,6,6,0,0,1,1.48,0A5.48,5.48,0,0,1,116,185c.37.15-.14.52-1.29,1a17.48,17.48,0,0,0-4.73,2.92,15,15,0,0,0-3.36,4.27,23.6,23.6,0,0,0-2.11,5.21,39,39,0,0,0-1.17,5.67c-.26,1.93-.39,3.95-.47,5.9a72.39,72.39,0,0,0,3.81,23.67,154.5,154.5,0,0,0,15.45,33Z"/><path class="cls-1" d="M221.69,272.25c3.86-.52,7.71-1.09,11.5-1.87.95-.19,1.88-.4,2.82-.62l1.38-.35.67-.21.31-.09s.06,0,.08,0a.12.12,0,0,0,.05-.05l.2-.23.44-.56.88-1.16,1.8-2.35a53.15,53.15,0,0,1,5.8-6.53,18.41,18.41,0,0,1,2.78-2.1,8.72,8.72,0,0,1,1.69-.78,5.34,5.34,0,0,1,1-.23,7.73,7.73,0,0,1,1.36,0,2,2,0,0,1,1,.5,1.53,1.53,0,0,1,.46,1,2.72,2.72,0,0,1-.16,1.15c-.06.19-.16.38-.24.57a3,3,0,0,1-.2.4c-.52.94-1.09,1.75-1.64,2.56s-1.1,1.62-1.55,2.42a5.58,5.58,0,0,0-.51,1.15.48.48,0,0,0,.08.51,1.15,1.15,0,0,0,.71.11,4.34,4.34,0,0,0,1.21-.29,14.23,14.23,0,0,0,2.47-1.29c1.62-1,3.19-2.22,4.78-3.38a41.83,41.83,0,0,1,5.73-3.69,12.08,12.08,0,0,1,3.34-1.13,4.37,4.37,0,0,1,2.06,0,1.63,1.63,0,0,1,.93.74,1.8,1.8,0,0,1,.08,1.19,4.66,4.66,0,0,1-.62,1.23c-.22.34-.48.6-.71.9a16.68,16.68,0,0,1-1.59,1.56,31.52,31.52,0,0,1-3.54,2.54,38.16,38.16,0,0,0-6.86,4.89c-1.19,1.24-1.24,1-.45-.38a14.9,14.9,0,0,1,2-2.47,28.35,28.35,0,0,1,3.49-2.88c1.18-.86,2.37-1.65,3.46-2.5a13.63,13.63,0,0,0,2.76-2.83l.15-.27H271a5.69,5.69,0,0,0-.86.1,12.23,12.23,0,0,0-3.65,1.49c-2.39,1.41-4.67,3.2-7.07,4.9a32.12,32.12,0,0,1-3.84,2.43,8.87,8.87,0,0,1-2.32.87,3.83,3.83,0,0,1-.69.09,3.51,3.51,0,0,1-.78,0,2.58,2.58,0,0,1-1.64-.79,2.48,2.48,0,0,1-.24-2.29,8.93,8.93,0,0,1,.68-1.49c.51-.89,1.07-1.7,1.61-2.51s1.08-1.6,1.5-2.38l.13-.25,0-.11a.6.6,0,0,0,.06-.22c0-.18-.15-.29-.3-.28a1.58,1.58,0,0,0-.56.07,5.75,5.75,0,0,0-1,.36,11,11,0,0,0-1.89,1.24,28.72,28.72,0,0,0-3.43,3.29c-1.3,1.43-2.53,2.94-3.72,4.49l-1.78,2.35-.91,1.2-.25.3a3.08,3.08,0,0,1-.4.41,2.47,2.47,0,0,1-.93.41A84.12,84.12,0,0,1,227,273.48c-4.82.71-9.65,1.27-14.49,1.76-7.32.73-14.7,1.21-22,1.54-5.68.24-11.25.48-16.9.3-1.25,0-2.47-.09-3.73-.19-4.66-.46-6.17-1.16-6.94-2a3.52,3.52,0,0,1-.47-.58c-.18-.59,1.49-.08,4.78.22a137.59,137.59,0,0,0,15.17.43c5.19-.08,10.46-.29,15.73-.61,7.83-.48,15.7-1.14,23.49-2.13Z"/><path class="cls-1" d="M273.53,261.73a3.79,3.79,0,0,1,1.85-.54,1.72,1.72,0,0,1,1.24.6c.66,1.1.39,2.1-.45,3.38l-.51.68-.6.66a12,12,0,0,1-1,.9,43.94,43.94,0,0,1-6.23,4L265,273a12.91,12.91,0,0,1-3.89,1.59c-.45.08-.47-.28-.25-.73a3.24,3.24,0,0,1,1.35-1.39c2.44-1.16,4.83-2.54,7.23-3.92a21.23,21.23,0,0,0,3.9-3,3.14,3.14,0,0,0,.54-.55.94.94,0,0,0,.27-.83c0-.13-.16-.13-.24-.11a1.57,1.57,0,0,0-.29.08c-.21.09-.44.21-.68.34l-.19.1-.25.15-.74.46L267.23,268c-1.18.73-2.3,1.52-3.57,2.15a5.54,5.54,0,0,1-.87.37c-1.16.36-1.64.23-1.93-.21a1.59,1.59,0,0,1-.18-.3c-.12-.36.26-.67.91-1,1.92-1.09,4-2.34,6.14-3.71l2.38-1.53,1.22-.77,1-.65c.39-.23.79-.47,1.17-.67Z"/><path class="cls-1" d="M275.85,267.69a1.2,1.2,0,0,1,.28.27c.08.1.21.16.23.3a1.11,1.11,0,0,1,.2.71,2.51,2.51,0,0,1-.6,1.41,11.25,11.25,0,0,1-1.47,1.37l-.19.15-.13.1-.24.17-.48.35c-.47.32-.91.68-1.4,1-1.69,1.06-3.43,2-5.18,2.91-.78.41-1.54.85-2.3,1.27a13.68,13.68,0,0,1-3.08,1.36c-.35.08-.42-.22-.28-.63a2.43,2.43,0,0,1,1-1.25c1.9-1.13,3.88-2.15,5.88-3.2a27.46,27.46,0,0,0,3.44-2.25l.91-.67.76-.58a2.56,2.56,0,0,0,.74-.73.19.19,0,0,0-.09-.27.64.64,0,0,0-.29-.13,1.7,1.7,0,0,0-.67,0l-.27.07-.44.16c-.32.11-.65.24-1,.38-.64.28-1.28.59-1.91.92-1,.51-1.9,1.11-2.89,1.62a5.8,5.8,0,0,1-.66.33c-.85.37-1.19.33-1.52,0a1.43,1.43,0,0,1-.23-.26c-.19-.31.05-.72.59-1.06,1.62-1,3.33-2,5.21-3,.35-.18.72-.35,1.08-.52l.58-.24.29-.11.44-.15a5.55,5.55,0,0,1,1.07-.26l.53-.09a3.77,3.77,0,0,1,.48,0l.47,0,.4.13a2.73,2.73,0,0,1,.73.35Z"/><path class="cls-1" d="M261.36,281.87a43,43,0,0,0,6.22-.17c.74-.08,1.48-.23,2.21-.37a11.38,11.38,0,0,0,3.58-1.11,1.71,1.71,0,0,0,.47-.4c0-.07.06-.08,0-.25s-.06-.1-.15-.15a.32.32,0,0,0-.09,0,.77.77,0,0,0-.2,0,9.27,9.27,0,0,0-1-.13c-1.18-.11-2.41-.13-3.61-.16a15.15,15.15,0,0,1-4.73-.58c-.5-.19-.26-.55.22-.83a3.52,3.52,0,0,1,2-.48c1.51.13,3.08.17,4.66.27.8.05,1.58.1,2.46.24l.33.06a4.08,4.08,0,0,1,.51.16c.16.08.31.18.46.27a4.13,4.13,0,0,1,.37.41,1.93,1.93,0,0,1,.38,1.07,1.76,1.76,0,0,1-.33,1.1,4.09,4.09,0,0,1-1.46,1.17,12,12,0,0,1-1.46.62,18.71,18.71,0,0,1-2.95.8,40.9,40.9,0,0,1-6.51.64c-1.33,0-2.67,0-4-.06-2-.09-4-.32-6-.55-1.55-.18-3.08-.28-4.61-.51-.34-.05-.68-.09-1-.16-1.26-.23-1.59-.58-1.71-1.18a2.92,2.92,0,0,1-.07-.39c0-.21.14-.36.4-.47a2.06,2.06,0,0,1,1.1-.13c2.67.27,5.42.69,8.21,1a62.35,62.35,0,0,0,6.26.33Z"/><path class="cls-1" d="M241.41,285.09c-1.14.32-2.28.65-3.42,1-.41.13-.81.32-1.22.46l-4.4,1.41c-.65.21-1.29.48-1.91.75-.4.18-.81.37-1.22.54a3.55,3.55,0,0,1-1.37.21c-.31,0-.32-.33-.19-.75a3.54,3.54,0,0,1,.26-.67c.13-.21.26-.5.48-.57a33.51,33.51,0,0,1,5-1.75c1.06-.25,2.08-.74,3.13-1.09s2.31-.75,3.48-1.1l2.17-.62,3.31-.84c.86-.2,1.68-.51,2.57-.7a3.5,3.5,0,0,1,.58-.12c.75-.05,1,.07,1.16.54,0,.1.08.21.1.31.06.36-.22.68-.69.84-1.39.49-2.89.79-4.41,1.23-1.14.3-2.29.61-3.42,1Z"/><path class="cls-1" d="M145.66,254.89c1.1,1.74,2.25,3.46,3.52,5.1.45.61,1,1.14,1.45,1.73,1.68,2.07,3.4,4.14,5.25,6.09.83.87,1.71,1.68,2.58,2.49,1.11,1,2.27,2,3.29,3.19.31.36.08.52-.42.49a4.24,4.24,0,0,1-2-.78,42.93,42.93,0,0,1-7-6.38c-.64-.71-1.31-1.41-2-2.13s-1.34-1.43-2-2.17c-1.39-1.63-2.69-3.34-3.91-5.1-.76-1.08-1.47-2.2-2.17-3.31-1-1.71-2-3.48-2.92-5.22-.76-1.34-1.51-2.66-2.27-4a7.56,7.56,0,0,1-.45-.9c-.48-1.16-.47-1.6,0-2.06.1-.1.19-.23.29-.31.36-.27.9.05,1.42.8a36.17,36.17,0,0,1,2.12,3.5l2,3.61c1,1.79,2.11,3.55,3.22,5.31Z"/><path class="cls-1" d="M167.3,232Q170,236,173,239.91c.74.93,1.54,1.82,2.29,2.75l8.11,9.79,3.68,4.28c1.58,1.81,3.16,3.63,4.61,5.56.45.6.21.67-.41.38a11.35,11.35,0,0,1-2.67-1.88c-1.74-1.73-3.56-3.39-5.19-5.22s-3.26-3.68-4.83-5.59c-1.89-2.28-4-4.54-5.94-6.88-2.13-2.57-4.18-5.23-6.09-8-1.19-1.69-2.31-3.42-3.38-5.19a74,74,0,0,1-4.32-8.34c-.47-1.11-1-2.21-1.41-3.33a33.38,33.38,0,0,1-1.13-3.42c-.13-.51-.29-1-.41-1.53-.39-2-.29-2.61.09-3.09a2.24,2.24,0,0,1,.26-.32c.29-.23.77.49,1.19,1.83.27,1,.71,2,1,3s.85,1.95,1.2,2.95l1.28,3c.49,1,.92,2,1.44,2.91a75.24,75.24,0,0,0,4.92,8.43Z"/><path class="cls-1" d="M185.63,238.39c1.49,1.86,3.05,3.68,4.68,5.44.6.64,1.22,1.25,1.83,1.88,2.12,2.24,4.31,4.42,6.6,6.5,1,.93,2.1,1.78,3.16,2.62a49.68,49.68,0,0,1,4.08,3.35c.4.39.09.65-.53.7a4,4,0,0,1-2.41-.68,49.62,49.62,0,0,1-8.32-7c-1.52-1.58-3.25-3.06-4.81-4.65q-2.58-2.62-5-5.42c-1-1.15-2-2.29-2.89-3.48-1.46-1.77-2.79-3.63-4.2-5.41-1-1.42-2.17-2.73-3.19-4.15a10.6,10.6,0,0,1-.65-1c-.74-1.23-.85-1.71-.63-2.21a2,2,0,0,1,.16-.33c.21-.3.79,0,1.52.78,1.12,1.1,2,2.37,3.1,3.57.51.62,1,1.24,1.48,1.89l1.5,1.9c.72,1,1.47,1.9,2.24,2.83s1.51,1.88,2.3,2.79Z"/><path class="cls-1" d="M247.34,330.22a105.53,105.53,0,0,1-11.07,5.65c-1,.33-2.08.74-3.09,1s-2,.46-3,.66q-3,.63-6.14,1A63.89,63.89,0,0,1,215,339a53.9,53.9,0,0,1-15.73-2.78A57.53,57.53,0,0,1,185,329.06,76.1,76.1,0,0,1,174.28,320a73,73,0,0,1-10.92-14.2c-1-1.59-.62-1.5.5-.36.56.56,1.32,1.39,2.21,2.39s2,2.13,3.05,3.46c1.89,2.33,3.89,4.55,5.95,6.71a72.4,72.4,0,0,0,6.52,6.11,59.81,59.81,0,0,0,15.23,9.29,47.45,47.45,0,0,0,10.49,3,57.44,57.44,0,0,0,11,.61,69.1,69.1,0,0,0,12-1.6c1-.23,2-.44,3-.72l1.39-.48.69-.23.69-.31c.92-.43,1.85-.82,2.75-1.27l2.71-1.42c4.41-2.42,8.75-5,13-7.71,6.46-4.09,12.89-8.32,19.14-12.65,4.87-3.36,9.52-6.82,14.24-10.26l3.1-2.27c3.92-2.8,5.28-3.53,6.51-3.58a3.79,3.79,0,0,1,.82,0c.67.16-.7,1.61-3.5,3.76-8.27,6.4-17.32,12.72-26.55,18.87-6.86,4.56-13.82,9-21,13.21Z"/><path class="cls-1" d="M334.1,320.71c4.78,3.17,9.65,6.22,14.62,9.08,1.81,1,3.69,2,5.52,3a106.86,106.86,0,0,0,9.82,4.78c.41.18.81.29,1.21.43a4.58,4.58,0,0,0,.56.14l.26.06h.13s0,0,.08.06c0-.07.07,0,.11-.06l.26-.07a3.11,3.11,0,0,0,.54-.18,7.86,7.86,0,0,0,1.08-.55,20.32,20.32,0,0,0,4-3.39,52.85,52.85,0,0,0,5.92-7.7c2.23-3.5,4.28-7.15,6.23-10.77.54-1.13.83-.91.85.3a11.73,11.73,0,0,1-.27,2.43,14.21,14.21,0,0,1-1.13,3.18A67.44,67.44,0,0,1,377,332.54a38.93,38.93,0,0,1-4.49,5,19,19,0,0,1-2.8,2.14,7.17,7.17,0,0,1-.82.45,6.1,6.1,0,0,1-.9.39,5.73,5.73,0,0,1-1,.29,4.18,4.18,0,0,1-1.32,0,21.26,21.26,0,0,1-4.08-1.3c-1.27-.48-2.48-1.06-3.7-1.62-2.43-1.15-4.84-2.35-7.18-3.63-5.13-2.81-10.13-5.83-15-9-3-1.94-6-3.94-9-6-4.48-3.09-8.86-6.35-13.13-9.68-3.3-2.6-6.58-5.13-9.64-8-.68-.63-1.36-1.23-2-1.94a14.85,14.85,0,0,1-2.26-2.94,3.17,3.17,0,0,1-.32-1.81,3.52,3.52,0,0,1,.12-.67c.25-.55,1.45.27,3.17,2a161.9,161.9,0,0,0,17.28,14.52c4.61,3.43,9.37,6.74,14.22,9.9Z"/><path class="cls-1" d="M315,264.22c6.5,3.56,12.48,7.66,18.5,11.73,2.19,1.5,4.41,2.94,6.57,4.46,7.63,5.37,15.15,10.86,22.73,16.28,3.36,2.4,6.78,4.76,10.19,7,4.35,2.93,8.83,5.8,13.13,8.62,1.3.73,1.09,1.1-.45,1a15.88,15.88,0,0,1-3-.69A19.86,19.86,0,0,1,379,310.8c-4.6-2.87-9.05-5.92-13.44-9.05s-8.77-6.29-13.12-9.53c-5.21-3.87-10.82-7.62-16.29-11.36-6-4.11-12.05-8.21-18.26-11.94-1.92-1.13-3.86-2.22-5.83-3.18l-1.49-.66c-.49-.17-1-.38-1.47-.5l-.7-.14c-.25,0-.53,0-.79,0l-1.6,0a41.67,41.67,0,0,0-9.8,1.82,91.72,91.72,0,0,0-9.51,3.36c-4.85,2-9.44,4.27-14.18,6.42-1,.47-2.05,1-3.12,1.41-3.95,1.71-5.42,1.83-6.49,1.5a3.7,3.7,0,0,1-.71-.23c-.27-.17,0-.49.63-.94a11.83,11.83,0,0,1,1.28-.75c.52-.29,1.13-.62,1.83-.94,8.31-3.91,17.09-8.35,26.57-11.56a56,56,0,0,1,11-2.67,28.28,28.28,0,0,1,2.93-.18l1.5,0a5.16,5.16,0,0,1,.77,0l.88.17a17.8,17.8,0,0,1,2.9,1c.91.38,1.72.84,2.57,1.25Z"/><path class="cls-1" d="M292.83,241c.05,1.92.05,3.85,0,5.78,0,.71.06,1.41,0,2.12a66.56,66.56,0,0,1-.68,7.44c-.17,1.1-.27,2.22-.53,3.3a8.43,8.43,0,0,1-1.75,4c-.35.35-.5.09-.54-.38a6.55,6.55,0,0,1,.05-1.85c.3-1.26.28-2.63.5-4s.29-2.74.44-4.13a44.27,44.27,0,0,0,.06-5.16c0-1.91,0-3.82-.11-5.73,0-1.17-.1-2.35-.18-3.53-.14-1.77-.23-3.57-.46-5.33-.17-1.36-.55-2.68-.79-4-.05-.3-.12-.59-.15-.89-.14-1.1,0-1.48.54-1.81.12-.07.24-.16.36-.22.4-.17.87.23,1.18,1a27.67,27.67,0,0,1,1.65,7.51c.24,1.93.3,3.88.41,5.82Z"/><path class="cls-1" d="M220.92,226.75a7.9,7.9,0,0,1,1.94,0l1.08.14,2.12.31,4.2.6c2.8.39,5.6.75,8.4,1,2.05.21,4.1.33,6.15.49a144.36,144.36,0,0,0,21.71.23,86.24,86.24,0,0,0,9.53-1.26c2-.38,4-.85,6-1.37s4-1,5.93-1.57c1.23-.34,1.18,0,.29.71a17,17,0,0,1-1.94,1.32c-.42.24-.87.51-1.38.75l-.77.36-.84.28a82.79,82.79,0,0,1-25.38,3.2c-5.12-.07-10.44-.14-15.65-.56-5.72-.44-11.42-1.19-17.07-2-.87-.11-1.74-.24-2.59-.33a5,5,0,0,0-.65,0,.25.25,0,0,0-.15,0,.66.66,0,0,0,0,.15l-.05.31-.14,1.06-.14,1.29q-.12,1.31-.21,2.61a131.14,131.14,0,0,0,0,15.86,87.38,87.38,0,0,0,1.56,12c.17.86.39,1.69.6,2.53.39,1.57.72,2.54.89,3.22a5.41,5.41,0,0,1,.14,1.55c0,.19.06.43.06.6s-.07.23-.25.22a1.48,1.48,0,0,1-.75-.35,5.58,5.58,0,0,1-1.76-2.57,47.8,47.8,0,0,1-2.42-11.17c-.43-3.81-.66-7.68-.71-11.56q-.08-4.33.15-8.68c.07-1.45.18-2.9.31-4.35.08-.73.16-1.46.25-2.19a3.74,3.74,0,0,1,.17-.88l.3-.87.15-.43.07-.22,0-.11.08.08h0l0,0,0,0a1,1,0,0,1,.72-.42Z"/><path class="cls-1" d="M281,219.44a8.68,8.68,0,0,0-2.26-2.49,11,11,0,0,0-1.06-.59,7.43,7.43,0,0,0-4.29-.73,4.88,4.88,0,0,0-1,.18,6.6,6.6,0,0,0-1,.32c-.82.32-1.57.79-2.43,1.08-.27.09-.43-.23-.4-.66a1.64,1.64,0,0,1,.73-1.29,11.24,11.24,0,0,1,2.8-1.19,8.86,8.86,0,0,1,1.54-.27,8.48,8.48,0,0,1,1.59.08,11.42,11.42,0,0,1,3.69,1,9.92,9.92,0,0,1,3.12,2.7,13.17,13.17,0,0,1,1.33,2.09,15.81,15.81,0,0,1,1.28,3.5,11,11,0,0,1,.48,2.92,4.23,4.23,0,0,1-.06.7c-.21.89-.62,1.15-1.11,1a1.83,1.83,0,0,1-.33-.11.83.83,0,0,1-.34-.42,1.43,1.43,0,0,1-.1-.53,17.57,17.57,0,0,0-.78-4.19,12,12,0,0,0-1.46-3.1Z"/><path class="cls-1" d="M264.13,210.53l-.65-.48-.73-.37a3,3,0,0,0-.77-.3c-.26-.07-.53-.17-.8-.23s-.81,0-1.22-.1a8.88,8.88,0,0,0-4.3,1,7.78,7.78,0,0,0-1.62,1.23c-.68.56-1.14,1.31-1.84,1.89-.22.19-.48,0-.62-.42a1.78,1.78,0,0,1,.15-1.49,8.46,8.46,0,0,1,5-3.55c.63-.09,1.23-.31,1.87-.4a8.72,8.72,0,0,1,1.91-.12,9.24,9.24,0,0,1,4,1.15l1.07.72c.34.26.64.58.95.86a4,4,0,0,1,.63.74l.57.78a14.44,14.44,0,0,1,.83,1.73c.15.47.38.92.51,1.39l.35,1.45a4.76,4.76,0,0,1,.06.65c0,.82-.16,1.07-.75,1.17l-.4.06a1,1,0,0,1-.93-.83c-.09-.37-.09-.74-.21-1.09a10.05,10.05,0,0,1-.26-1,11.91,11.91,0,0,0-.8-2,8.64,8.64,0,0,0-.85-1.31l-.56-.56-.28-.29-.33-.22Z"/><path class="cls-1" d="M240.75,209.25a11.54,11.54,0,0,1,3.94-1.24,8.49,8.49,0,0,1,1.51-.15,7.6,7.6,0,0,1,4.86,1.94,8.65,8.65,0,0,1,1.51,1.7,5.79,5.79,0,0,1,1.06,2.61c0,.29-.2.31-.51.16a2.65,2.65,0,0,1-1-.83,7.7,7.7,0,0,0-3.46-3,3.83,3.83,0,0,0-1.39-.33,8.13,8.13,0,0,0-1.48,0,9.28,9.28,0,0,0-3.24.79,8.49,8.49,0,0,0-1.82,1.06,8.86,8.86,0,0,0-2.21,2.32,7.29,7.29,0,0,0-.82,2.3c0,.18,0,.36-.09.53-.16.63-.31.81-.92.86l-.4,0c-.45,0-.76-.35-.79-1a8.08,8.08,0,0,1,1.94-5.11,10.9,10.9,0,0,1,3.25-2.68Z"/><path class="cls-1" d="M229.11,215.47a8.07,8.07,0,0,0-3.59,1.06,2.73,2.73,0,0,0-.55.39c-.17.16-.36.28-.52.43a6.67,6.67,0,0,0-2.26,4.16,5.78,5.78,0,0,0,.14,2.23l.17.7.24.69c.12.47.34.91.43,1.41.07.31-.32.49-.83.43a1.85,1.85,0,0,1-1.47-.95,8.11,8.11,0,0,1,0-7.08,9.8,9.8,0,0,1,2.67-3.51,10,10,0,0,1,4.32-1.84l1.41-.18,1.4,0a7,7,0,0,1,6.29,4.17,4,4,0,0,1,.27.73c.22.95,0,1.28-.52,1.48a2.91,2.91,0,0,1-.39.12c-.45.08-.81-.25-1-.75a5.33,5.33,0,0,0-2.7-3.24,5.09,5.09,0,0,0-1.59-.4,7.06,7.06,0,0,0-.93,0,6.18,6.18,0,0,0-1,.05Z"/><path class="cls-1" d="M284.27,207.47a6.61,6.61,0,0,1,2.09,2.54,4.54,4.54,0,0,1,.43,1.13,6,6,0,0,1-.67,4c-.26.5-.54,1-.84,1.45a4.46,4.46,0,0,1-1.45,1.48c-.19.11-.39-.15-.51-.51a1.52,1.52,0,0,1,0-1.13,19.35,19.35,0,0,0,1.6-3,2.74,2.74,0,0,0-.15-1.93,4.46,4.46,0,0,0-1.23-1.87,4.42,4.42,0,0,0-1.2-.8,3.5,3.5,0,0,0-2.12-.31,2.24,2.24,0,0,0-1.2.86l-.17.26c-.22.32-.41.36-.92.24l-.34-.08c-.36-.1-.56-.45-.47-1a3.51,3.51,0,0,1,1.49-1.92,4.37,4.37,0,0,1,2.45-.57,6.31,6.31,0,0,1,3.25,1.15Z"/><path class="cls-1" d="M270,199a9.23,9.23,0,0,1,3.89.22,12,12,0,0,1,1.33.42,8.13,8.13,0,0,1,3.59,3.31,11.56,11.56,0,0,1,.9,1.92,6.49,6.49,0,0,1,.35,1.31,3.43,3.43,0,0,1-.19,1.35c-.1.27-.41.2-.78,0a5.15,5.15,0,0,1-.58-.41,1.56,1.56,0,0,1-.46-.51,10.84,10.84,0,0,0-1.82-3.58,4.21,4.21,0,0,0-2.18-1.32,8.62,8.62,0,0,0-2.93-.48,6.42,6.42,0,0,0-4.27,1.82,10,10,0,0,0-1.25,1.85c-.08.14-.15.29-.24.42s-.29.42-.47.49a1.55,1.55,0,0,1-.61,0,2.19,2.19,0,0,1-.28,0c-.14,0-.22-.13-.31-.31a1.07,1.07,0,0,1-.12-.72,6.73,6.73,0,0,1,2.74-4.18A8.84,8.84,0,0,1,270,198.9Z"/><path class="cls-1" d="M259.6,192.05a6,6,0,0,1,3.72,1.12,5.4,5.4,0,0,1,1.06.83,9.22,9.22,0,0,1,2.09,3.85,14.63,14.63,0,0,1,.44,1.85,3.93,3.93,0,0,1-.3,2.41c-.11.24-.39.11-.67-.15a2.16,2.16,0,0,1-.67-1c0-.32-.13-.63-.21-.94a7.72,7.72,0,0,0-.2-.93,13.9,13.9,0,0,0-.62-1.89,4.45,4.45,0,0,0-1.56-1.82,3.94,3.94,0,0,0-2.26-.93,4.55,4.55,0,0,0-1.58.16,5.49,5.49,0,0,0-2.25,1.24,6.77,6.77,0,0,0-1.14,1.65l-.19.39c-.28.45-.46.53-1.06.38l-.41-.1a.84.84,0,0,1-.57-1.05,5.32,5.32,0,0,1,1-2.16A7.55,7.55,0,0,1,256,193.3a7.63,7.63,0,0,1,3.62-1.31Z"/><path class="cls-1" d="M240.91,191.78a9.86,9.86,0,0,1,5.38-1.19,7.57,7.57,0,0,1,2,.35,9.83,9.83,0,0,1,5.13,4.39c.24.42.49.83.75,1.24l.61,1.29a9.27,9.27,0,0,1,1.09,3.46c.05.38-.17.39-.53.17a3.43,3.43,0,0,1-1.23-1.21,19.58,19.58,0,0,0-3.47-5.76,6.64,6.64,0,0,0-3.44-1.75,7.84,7.84,0,0,0-4.28.55,13,13,0,0,0-1.26.59,11.1,11.1,0,0,0-1.13.81,6.65,6.65,0,0,0-1.39,1.52l-.26.43-.24.51c-.14.34-.28.67-.39,1a4.06,4.06,0,0,0,.09,3c.08.21.2.41.29.62.3.83.33,1.17,0,1.56a1.74,1.74,0,0,1-.19.26c-.24.24-.69.06-1.2-.53a5.35,5.35,0,0,1-1.3-3.54,9.7,9.7,0,0,1,.9-3.65,7.79,7.79,0,0,1,.76-1.34,9.95,9.95,0,0,1,2.06-2,9.26,9.26,0,0,1,1.18-.78Z"/><path class="cls-1" d="M235.86,204a4.87,4.87,0,0,0-1.87.69,4.79,4.79,0,0,0-.53.48,5.56,5.56,0,0,0-1.54,2.21,2.55,2.55,0,0,0-.07,1.16,6.1,6.1,0,0,0,.53,1.35c.06.15-.16.38-.5.48a1,1,0,0,1-1.14-.34,3.45,3.45,0,0,1-.59-2.27,4.52,4.52,0,0,1,.7-2.07,9.73,9.73,0,0,1,1.54-2,6.46,6.46,0,0,1,2.45-1.3,7.17,7.17,0,0,1,1.66-.25,5.25,5.25,0,0,1,2.51.52,4.21,4.21,0,0,1,1.67,1.24,2.09,2.09,0,0,1,.27.39c.27.53.15.77-.26,1a1.64,1.64,0,0,1-.3.14.81.81,0,0,1-.87-.19,3.7,3.7,0,0,0-1.83-1.13,3.84,3.84,0,0,0-1.82,0Z"/><path class="cls-1" d="M425.16,329.28c1.57,0,3.13,0,4.71.1.4,0,.8,0,1.21.06s.78,0,1.27.11a6.53,6.53,0,0,1,1.46.34c.19.05.49.21.74.31a6.11,6.11,0,0,1,.88.54,2.84,2.84,0,0,1,1.13,1.55,2.53,2.53,0,0,1-.2,1.87,4.75,4.75,0,0,1-1.35,1.47,6.89,6.89,0,0,1-.64.44l-.56.33a26.52,26.52,0,0,1-4.52,1.9,61.24,61.24,0,0,1-6.67,1.86,83,83,0,0,1-24.09,1.63,43.82,43.82,0,0,1-5.34-.8,24.45,24.45,0,0,1-5.15-1.76,112.58,112.58,0,0,1-11.78-6.74c-1.18-.7-.91-.93.36-.77a16.36,16.36,0,0,1,5.67,2.2c4,2.31,7.88,4.6,12.2,5.25a65.27,65.27,0,0,0,13.52.68,79.33,79.33,0,0,0,16.56-2.63c1.48-.39,2.95-.82,4.39-1.33a21.52,21.52,0,0,0,4-1.84,6.76,6.76,0,0,0,.59-.43.88.88,0,0,0,.27-.38c.1-.34-.23-.57-.51-.71s-.22-.1-.4-.16a1.85,1.85,0,0,0-.47-.13,7.49,7.49,0,0,0-1-.12c-.74-.06-1.5-.1-2.28-.11-3.8-.1-7.65-.05-11.49,0-5.81.12-11.66.27-17.43.57l-3.35.2-1.73.12c-.2,0-.43.09-.61,0l-.54-.24-.77-.33c-2.05-.88-4.09-1.79-6.1-2.78-.89-.44-1.77-.85-2.65-1.33-3.26-1.78-4.1-2.76-4.31-3.82a4.48,4.48,0,0,1-.15-.68c0-.3.38-.32,1.05-.15a13.28,13.28,0,0,1,2.78,1.19c3.44,1.82,7.09,3.55,10.81,5.23l.35.15.17.08s0,0,0,0,0,0,.08,0l1.56-.09,3.13-.17,6.3-.28c6.25-.25,12.53-.41,18.82-.44Z"/><path class="cls-1" d="M412.79,311.33a4.33,4.33,0,0,0-1.44-.63,15.06,15.06,0,0,0-1.89-.37c-1.31-.19-2.67-.28-4-.34-1,0-2,0-3,0l-10.73-.13-4.79,0a26.93,26.93,0,0,1-6.13-.47c-.63-.14-.46-.62.13-1a4.43,4.43,0,0,1,2.72-.72c4,.23,8.13.19,12.29.37,2.5.09,5.09-.09,7.66-.07,1.41,0,2.83.05,4.25.16a21.92,21.92,0,0,1,4.33.65,7.64,7.64,0,0,1,1.36.53,3.35,3.35,0,0,1,1.28,1.07,2.37,2.37,0,0,1,.36.85c.05.26.07.48.11.72,0,.46.07.91.08,1.35.08,2.68-.13,5.31-.3,7.92-.15,2-.21,4-.49,6.06,0,.45-.11.9-.2,1.35-.33,1.68-.9,2.14-1.58,2.24a2.45,2.45,0,0,1-.41.08c-.35,0-.61-.78-.53-1.92.43-3.36.84-7,1.1-10.72.09-1.36.17-2.74.18-4.09,0-.67,0-1.34,0-2l-.06-.41v-.14s-.12,0,.28-.16l.21-.11.1-.06.05,0-.63.32h0s0,0,0-.05-.07-.09-.16-.14Z"/><path class="cls-1" d="M443.69,302.46a7.94,7.94,0,0,0-.63-2.56c0-.14-.2-.33-.35-.18a1.73,1.73,0,0,0-.21.19l-.44.51c-.29.37-.57.77-.84,1.18-.56.82-1.09,1.7-1.58,2.6-.73,1.32-1.34,2.72-2,4.1-2.37,4.86-4.4,9.91-7.15,14.77a14.05,14.05,0,0,1-1.08,1.6,4.26,4.26,0,0,1-.36.39,2.08,2.08,0,0,1-.46.39,2.3,2.3,0,0,1-.63.25,5,5,0,0,1-.55.05c-1.22.09-2.43.15-3.64.2-1.55.05-3.11.07-4.68,0a15.13,15.13,0,0,1-4.69-.85c-1-.5-.6-.66.22-.64s2.27-.15,4-.12c1.53,0,3.08,0,4.63-.14l2.32-.17,2-.19.08-.07a3.22,3.22,0,0,0,.26-.31,9.2,9.2,0,0,0,.55-.86c.37-.62.7-1.31,1-2,.67-1.38,1.31-2.82,2-4.25,1.59-3.43,3-7.15,4.63-10.71a45.15,45.15,0,0,1,3.16-5.76,13.47,13.47,0,0,1,1.05-1.37c.21-.24.36-.4.67-.7a6.82,6.82,0,0,1,1-.73,1.92,1.92,0,0,1,2.21.25,2.13,2.13,0,0,1,.43.42,2.21,2.21,0,0,1,.36.49,2.63,2.63,0,0,1,.3.54l.18.45a17.56,17.56,0,0,1,.58,8.23A37.56,37.56,0,0,1,442.3,319a58.52,58.52,0,0,1-4.59,8.05c-.39.55-.74,1.13-1.17,1.66a8.46,8.46,0,0,1-1.88,1.94,3.36,3.36,0,0,1-1.29.46c-.16,0-.35.06-.47.05s-.2-.28,0-.75a7,7,0,0,1,.92-1.92,66.1,66.1,0,0,0,8-14.26,33.56,33.56,0,0,0,1.63-5.86,20.71,20.71,0,0,0,.27-5.91Z"/><path class="cls-1" d="M306.78,333.29l-17-.13-6.19,0c-7.27,0-14.55-.1-21.81,0-3.22.05-6.46.22-9.65.41-2,.16-4.1.29-6.13.49l-3.06.23c-1,.06-2,.22-3,.31-1.26.11-1.21-.34-.22-1a11.71,11.71,0,0,1,2.15-1,15.46,15.46,0,0,1,3.19-.74c2.11-.33,4.22-.38,6.33-.55s4.22-.21,6.33-.3c4.22-.15,8.44-.2,12.69-.15,5.07.05,10.35-.16,15.54-.19h17.11l10.52,0c5.31,0,10.65,0,15.92-.09,4.1-.08,8.11-.34,12.15-.57.89-.05,1.76-.11,2.65-.14,3.32-.16,4.38.19,5.13.7a3.9,3.9,0,0,1,.5.34c.17.18-.07.37-.67.6a12.44,12.44,0,0,1-2.76.74c-1.81.2-3.65.41-5.51.53s-3.74.2-5.63.27c-3.78.12-7.61.18-11.44.21-5.71,0-11.43,0-17.14,0Z"/><path class="cls-1" d="M126,309.1c4,5.71,8.1,11.31,12.42,16.74a169.9,169.9,0,0,0,13.81,15.5,56.14,56.14,0,0,0,5.68,4.84,24.81,24.81,0,0,0,3,1.95,15.18,15.18,0,0,0,3.26,1.18,96.82,96.82,0,0,0,13.12,1.82c4.45.36,8.92.6,13.4.77q13.43.5,26.89.17c7.95-.19,15.95-.61,23.76-1.5,2.51-.31,5-.67,7.45-1.2a22.87,22.87,0,0,0,6.81-2.7c4.21-2.49,8.12-5.9,10.16-10.34.32-.69.47-1.21.6-1.54s.23-.47.3-.44.09.25.09.62a6.13,6.13,0,0,1-.17,1.6,14.25,14.25,0,0,1-2.27,5.31,16.46,16.46,0,0,1-1.13,1.51,17.11,17.11,0,0,1-1.35,1.52c-.47.52-1,1-1.56,1.47s-1.18.93-1.82,1.35a27.5,27.5,0,0,1-7.4,3.56,57.58,57.58,0,0,1-7.88,1.47c-5.21.68-10.42,1-15.63,1.33-10.43.53-20.88.62-31.36.34-6.28-.19-12.68-.4-19.12-.86-3.22-.23-6.45-.53-9.68-1a40.59,40.59,0,0,1-4.88-1,16.45,16.45,0,0,1-4.65-2.2,57.22,57.22,0,0,1-8.27-6.92c-2.54-2.5-5-5.1-7.29-7.76-4.66-5.34-9-10.89-13.24-16.56-5.18-7-10.06-14.18-14.71-21.51a298.08,298.08,0,0,1-19-34.5,141.36,141.36,0,0,1-5.64-14.07c-1.55-4.79-2.89-9.74-2.82-15a13.56,13.56,0,0,1,1.73-6.83,8.82,8.82,0,0,1,4.53-3.61,10.38,10.38,0,0,1,2.08-.48A8.65,8.65,0,0,1,97,222a13.52,13.52,0,0,1,1.36.07c.4.06.75.13,1.07.2a5.33,5.33,0,0,1,1.54.52,8.45,8.45,0,0,1,1.1.56c.35.27-.32.38-1.78.34a18.22,18.22,0,0,0-6.31.92,7,7,0,0,0-3.85,4.05,15.89,15.89,0,0,0-.69,6.17,51.69,51.69,0,0,0,2.94,13.09,173.79,173.79,0,0,0,11.51,25.42,353.28,353.28,0,0,0,22.23,35.69Z"/><path class="cls-1" d="M159.48,321.29l-2.85-3.35-2.76-3.42-2-2.49q-3.42-4.48-6.62-9.12c-1-1.35-1.89-2.75-2.82-4.12a30.58,30.58,0,0,1-3.17-5.58c-.25-.63,0-.61.45-.21a6.16,6.16,0,0,1,.82.85,9.56,9.56,0,0,1,1,1.28c1.19,1.76,2.49,3.47,3.77,5.19s2.52,3.5,3.79,5.26c1.5,2.11,3.27,4.16,5,6.19.92,1.13,1.87,2.24,2.82,3.34s1.91,2.2,2.89,3.29c1.18,1.35,2.41,2.65,3.65,4a77.63,77.63,0,0,0,5.89,5.6c.77.71,1.65,1.25,2.47,1.87.42.29.83.61,1.26.88l1.29.8c.38.24.76.45,1.13.7a4.68,4.68,0,0,1,1.42,1.05,1.74,1.74,0,0,1,.46.86,3.56,3.56,0,0,1,.09.39c0,.37-.74.34-2.05,0a12.3,12.3,0,0,1-2.66-1.28l-1.3-.75-1.22-.85a51.19,51.19,0,0,1-4.6-3.87c-1.07-1-2.11-2.09-3.16-3.15l-3-3.26Z"/><path class="cls-1" d="M216.9,392.5l2.62,14.42c.33,1.76.73,3.49,1,5.25l3.25,18.56c.45,2.75,1,5.5,1.49,8.22a73.19,73.19,0,0,1,1.56,10.63c0,1.18-.38,1-.9.08a16.36,16.36,0,0,1-1.75-4.43c-.8-3.53-1.53-7.07-2.27-10.62-.36-1.78-.73-3.56-1-5.35s-.6-3.59-.87-5.4c-.66-4.33-1.7-8.76-2.56-13.15l-2.79-14.49L213,387.3c-.89-4.49-1.75-9-2.71-13.46-.76-3.46-1.67-6.81-2.51-10.21-.18-.75-.39-1.48-.56-2.24-.63-2.81-.61-3.75.07-4.52a2.79,2.79,0,0,1,.46-.5c.54-.39,1.31.65,1.9,2.68,1.77,6,3.19,12.44,4.53,18.92,1,4.82,1.89,9.68,2.84,14.51Z"/><path class="cls-1" d="M209.65,426.16a17.45,17.45,0,0,1,6.36-4.68,13.46,13.46,0,0,1,8-.58,17.82,17.82,0,0,1,5.34,2.05,27.37,27.37,0,0,1,7.16,6.59,53.23,53.23,0,0,1,5.1,8c1.29,2.48,2.53,5,3.56,7.56.68,1.63,1.34,3.29,1.91,5a38.17,38.17,0,0,1,1.33,5.15c.2,1.09-.17,1-.84.27a16.77,16.77,0,0,1-2.52-4q-1-2.46-2-4.88l-2.22-4.78a67.88,67.88,0,0,0-5.11-9.17,23.06,23.06,0,0,0-9.34-8.2,15.54,15.54,0,0,0-3.18-1,12.67,12.67,0,0,0-3.3-.17,11.32,11.32,0,0,0-6,2.6,24.27,24.27,0,0,0-5.46,6.63A35,35,0,0,0,204.17,445a66.3,66.3,0,0,0-.43,10.25c0,.75,0,1.49.07,2.26a16,16,0,0,1-.21,3,2.58,2.58,0,0,1-.73,1.35,3.09,3.09,0,0,1-.43.4c-.24.14-.45-.08-.67-.59a8,8,0,0,1-.55-2.38,62.42,62.42,0,0,1-.21-9.61,49.11,49.11,0,0,1,1.51-10,33.49,33.49,0,0,1,7.07-13.58Z"/><path class="cls-1" d="M397.37,420.76l.14-18.88,0-6.89.22-24.28c0-3.59,0-7.2-.11-10.76-.06-2.29-.07-4.58-.06-6.88s0-4.58.23-6.87c.13-1.43.47-1.24.95,0a18.92,18.92,0,0,1,1.24,6.06l.16,3.5.08,1.76,0,1.75c0,2.34,0,4.67,0,7,0,4.68-.06,9.37-.18,14.08-.15,5.64,0,11.51.05,17.27q0,9.51,0,19,0,5.85,0,11.7c0,5.91,0,11.85.1,17.72.08,4.55.33,9,.51,13.53,0,1,.11,2,.13,3,.09,3.71-.07,4.89-.9,5.7a3.71,3.71,0,0,1-.51.53c-.52.36-1.18-1.15-1.34-3.86-.6-8.06-.72-16.55-.78-25.08,0-6.34,0-12.71,0-19.06Z"/><path class="cls-1" d="M396.24,285.5l.3-7.49c0-.91,0-1.82,0-2.73l.42-9.63c.05-1.42,0-2.85,0-4.27,0-.91,0-1.82,0-2.72a13.16,13.16,0,0,1,.29-2.72c.14-.56.48-.48.95,0a4.17,4.17,0,0,1,1.19,2.43l.13,1.39.07.7v.69c0,.93,0,1.85,0,2.78,0,1.85-.13,3.71-.29,5.57-.2,2.23-.06,4.56-.1,6.84l-.16,7.53-.09,4.64c0,2.34-.1,4.69-.05,7,.05,1.8.26,3.57.41,5.36,0,.39.09.77.11,1.17.05,1.47-.12,1.94-.95,2.26a5,5,0,0,1-.51.21c-.53.15-1.18-.45-1.32-1.52a60.42,60.42,0,0,1-.57-10c0-2.51.09-5,.14-7.56Z"/><path class="cls-1" d="M439.63,238.33l12.12,0H453a3.07,3.07,0,0,1,.68.06c.43.07.8.18,1.2.27a1.31,1.31,0,0,1,.95.68,5.77,5.77,0,0,1,.54,2.57c0,.58,0,1.11,0,1.65a22.54,22.54,0,0,1-.39,3.24c-.05.28-.12.56-.19.84s-.08.28-.13.44-.16.43-.24.64a2.78,2.78,0,0,1-1.78,1.77,5.59,5.59,0,0,1-1,.11l-.72,0-1.17,0-2.32,0-4.63,0c-4.07,0-8.14.1-12.2.09-14.33,0-28.65-.18-43-.31-6.36-.05-12.75,0-19.05,0-4.06,0-8.12,0-12.19,0l-1.53,0-.78,0-1.21-.07a4.21,4.21,0,0,1-1.12-.2.59.59,0,0,1-.35-.28,1.57,1.57,0,0,1-.12-.19v0l-.15.12h0v-.06l0-.07a1.84,1.84,0,0,1-.17-1,9.28,9.28,0,0,0,.1-1.26l0-1.56v-1.55a11,11,0,0,1,.42-3.34,2.83,2.83,0,0,1,.64-1.05,1.61,1.61,0,0,1,.93-.48c.56-.06.71.15.69.28s-.29.29-.5.56a1.69,1.69,0,0,0-.23,1.14c.07,1,.43,2.36.77,4.16.09.45.17.93.24,1.45l0,.18,0,0,0,0,.06,0s.11,0,.13,0l0,0,.79,0c8.2.19,16.49.21,24.76.32s16.59.22,24.92.4c10,.21,20.36,0,30.55,0l8.38,0,4.19,0,3.71-.07c.14,0,.25-.11.31-.23l.09-.18L453,247a13.74,13.74,0,0,0,.37-1.89c.08-.66.14-1.33.17-2,0-.33,0-.66,0-1v-.29l0-.23a.67.67,0,0,0-.13-.41,3.13,3.13,0,0,0-.44,0l-1.78,0H447l-20.72.15-31.35.21c-8.07.08-16,.27-24,.3-1.76,0-3.48,0-5.26,0-6.58-.1-8.68-.44-10-1.28a5,5,0,0,1-.9-.58c-.59-.64,2.1-1,6.88-1l44.33-.42,33.71-.31Z"/><path class="cls-1" d="M420.69,185.44l.65-21.94c.07-2.67.05-5.34.14-8l1-28.2c.12-4.17.19-8.37.24-12.51.09-5.32-.05-10.67.53-16,.16-1.66.56-1.42,1,0a26,26,0,0,1,.76,2.93c.12.61.26,1.26.33,2s.11,1.44.11,2.2c0,5.44,0,10.87-.07,16.31s-.31,10.89-.57,16.36c-.32,6.54-.26,13.36-.41,20.06q-.29,11-.58,22.1-.16,6.79-.34,13.6c-.16,6.86-.35,13.76-.41,20.58,0,5.3.09,10.49.15,15.73,0,1.16,0,2.29.05,3.45,0,4.31-.22,5.68-1.09,6.6a4.12,4.12,0,0,1-.55.6c-.56.41-1.18-1.35-1.29-4.51-.41-9.37-.34-19.25-.2-29.17.16-7.37.31-14.77.46-22.15Z"/><path class="cls-1" d="M414.63,136.24l2.14.3c.27,0,.52,0,.79,0,.93.12,1.88.27,2.82.38a8.86,8.86,0,0,0,1.26.06,3.34,3.34,0,0,1,1.59.17c.17.07.15.49,0,.92s-.39.92-.68,1a6.16,6.16,0,0,1-3.16.2,7.67,7.67,0,0,0-2,.06c-.73,0-1.47,0-2.21,0l-1.36-.08a20.44,20.44,0,0,0-2.07-.05c-.53,0-1.05.28-1.58.33a1.38,1.38,0,0,1-.35,0c-.42-.19-.55-.46-.62-1.07,0-.14,0-.28,0-.41a1.6,1.6,0,0,1,.49-1.17,3.33,3.33,0,0,1,2.82-.85c.7,0,1.4.11,2.12.14Z"/><path class="cls-1" d="M407.42,146.38l.82-16c.1-1.95.1-3.89.2-5.84L409.59,104c.16-3,.21-6.1.25-9.12a104.51,104.51,0,0,1,.64-11.61c.15-1.2.41-1.07.85-.06a21.06,21.06,0,0,1,.79,2.14,12.88,12.88,0,0,1,.38,1.43,13.5,13.5,0,0,1,.16,1.61l.18,6c0,2-.07,4-.13,6-.13,4-.33,8-.63,11.94-.34,4.77-.33,9.75-.55,14.63L410.8,143l-.45,9.91c-.2,5-.46,10-.56,15-.07,3.87,0,7.66.09,11.48,0,.84,0,1.67,0,2.52a14.62,14.62,0,0,1-.26,3.32,2.66,2.66,0,0,1-.92,1.46,4.89,4.89,0,0,1-.57.44c-.31.15-.59-.09-.84-.67a7.45,7.45,0,0,1-.55-2.65c-.42-6.86-.28-14.06-.06-21.29.16-5.37.41-10.76.62-16.14Z"/><path class="cls-1" d="M442.5,332.77l3.41.24c.41,0,.82,0,1.24,0,1.46.13,2.94.23,4.41.39.66.06,1.31.06,2,.06a9.07,9.07,0,0,1,2.49.14c.26.07.22.46,0,.87a1.62,1.62,0,0,1-1.1.91,20.4,20.4,0,0,1-5.06.1,21.68,21.68,0,0,0-3.12,0c-1.16,0-2.31-.05-3.46-.1l-2.13-.1c-1.07,0-2.14-.1-3.2-.06-.83,0-1.64.23-2.46.35a4.51,4.51,0,0,1-.53.08c-.67,0-.89-.15-1-.85,0-.16-.08-.32-.1-.48a1.06,1.06,0,0,1,.7-1.17,13.82,13.82,0,0,1,4.53-.56c1.15,0,2.3.06,3.44.09Z"/><path class="cls-1" d="M344,418l.13-18.42,0-6.72c.08-7.89.26-15.78.39-23.68.06-3.5,0-7,0-10.49V352c.06-2.23.15-4.47.35-6.7.13-1.39.41-1.2.82,0a24.43,24.43,0,0,1,1.17,5.92c.42,9.11.35,18.22.08,27.41-.17,5.49-.05,11.21-.06,16.83q0,9.27-.08,18.55v11.41c0,5.76,0,11.55.18,17.27.13,4.44.43,8.79.71,13.16.05,1,.11,1.91.16,2.88a29.45,29.45,0,0,1,0,3.8,4.9,4.9,0,0,1-.19,1,3.55,3.55,0,0,1-.36.73,5.4,5.4,0,0,1-.31.56c-.24.4-1-1-1.47-3.7-.24-2-.59-4-.69-6s-.28-4.05-.36-6.1c-.19-4.09-.3-8.25-.36-12.41-.11-6.19-.11-12.4-.14-18.59Z"/><path class="cls-1" d="M458.38,424.21q.22-9.87.33-19.75l0-7.21.05-12.7c0-4.23,0-8.47-.05-12.7,0-3.76-.23-7.53-.36-11.25-.25-4.77-.54-9.57-.86-14.31-.12-1.48.13-1.33.59-.13a25.21,25.21,0,0,1,1.64,6.25A252.11,252.11,0,0,1,461,381.89c-.06,5.91.11,12.06.1,18.1q0,10-.2,19.94-.12,6.12-.25,12.26c-.14,6.19-.36,12.41-.59,18.56-.1,1.91-.1,3.8-.22,5.7l-.14,2.85c0,.47-.1,1-.15,1.45l-.08.73,0,.36c0,.15,0,.33-.07.49a2.21,2.21,0,0,1-1.41,1.59,8.63,8.63,0,0,1-1.57.54,21.31,21.31,0,0,1-3.21.54c-1,.09-1.83.12-2.53.12a13.21,13.21,0,0,1-1.72,0,2.56,2.56,0,0,1-1.83-.8,2.91,2.91,0,0,1-.5-.59c-.29-.69,1.27-1,4-.92a28.8,28.8,0,0,0,3.95-.49,11.92,11.92,0,0,0,1.83-.47l.38-.15.07,0,0,0a.2.2,0,0,0,.06-.12,6.88,6.88,0,0,1,.06-.82l.11-1c.08-.68.08-1.44.13-2.15.09-1.45.18-2.91.23-4.4.13-3,.24-6,.33-9,.21-6.61.38-13.26.49-19.9Z"/><path class="cls-1" d="M405.73,469.17c-3.29-.09-6.59-.13-9.89-.17-1.2,0-2.4.07-3.6.05-4.25-.05-8.49-.11-12.74-.07-1.88,0-3.77.1-5.64.18-1.2,0-2.4.15-3.6.15s-2.42-.09-3.63-.2c-.75-.07-.66-.38,0-.8a9.35,9.35,0,0,1,3.12-1.29,14.36,14.36,0,0,1,1.83-.25l1.83-.17c1.23-.1,2.45-.2,3.68-.28,2.46-.07,4.92-.09,7.4,0,3,.09,6-.18,9.07-.24,3.33-.07,6.67-.07,10-.06l6.16,0c3.1,0,6.22.1,9.31.08,2.4,0,4.75-.2,7.14-.3.52,0,1-.06,1.56-.06,2,0,2.58.35,2.95,1.23a4.27,4.27,0,0,1,.24.61c.15.68-.67,1.22-2.09,1.42-4.22.39-8.64.38-13.1.34l-9.95-.11Z"/><path class="cls-1" d="M333.22,376.22l.34-6.42c.05-.78,0-1.56.07-2.34l.3-4.14.27-1.52a2.31,2.31,0,0,1,.17-.71,1.39,1.39,0,0,1,.63-.34,5.21,5.21,0,0,1,1.55-.15l.63,0,.53.05,3.69.36c.79.06,1.57.14,2.34.26.39.06.78.13,1.16.22a1.53,1.53,0,0,1,.56.24c.19.09.38.15.56.23.47.21.32.59-.16,1-.24.21-.56.39-1,.69a2.27,2.27,0,0,1-1.25.27c-1.57-.07-3.12-.28-4.65-.47l-2.23-.25a1,1,0,0,0-.21-.1.14.14,0,0,0-.2.09.54.54,0,0,0-.08.17s0,.15,0,.26l0,.37c0,.48-.09,1-.1,1.45,0,1-.06,2-.1,2.94l-.3,6.44-.17,4,0,.76,0,.62c0,.13-.07.28,0,.41a.7.7,0,0,0,.34.21c.13.05.26.08.4.12l.7.14a10.08,10.08,0,0,0,1.45.18,29.75,29.75,0,0,0,4.53-.15c.33,0,.66-.08,1-.09a3.32,3.32,0,0,1,1.27.11,1.38,1.38,0,0,1,.61.65l.25.4c.28.43-.35,1.07-1.3,1.25-2.87.57-5.7.17-8.83-.24a5.17,5.17,0,0,1-.68-.15,5.63,5.63,0,0,1-.76-.24,2.32,2.32,0,0,1-1.13-.9,1.63,1.63,0,0,1-.24-.62,6.76,6.76,0,0,1,0-.78v-1.06l.1-3.22Z"/><path class="cls-1" d="M333.22,406.45l.35-6.11c.05-.74,0-1.49.07-2.23l.16-2,.08-1,0-.25v-.12a1,1,0,0,1,0-.18l.14-.74.13-.71.06-.36c0-.12,0-.24.14-.31a2.43,2.43,0,0,1,1.35-.42,12.2,12.2,0,0,1,2.38.11c1.18.14,2.35.25,3.51.36.75.06,1.49.13,2.23.25.37.06.74.13,1.1.22a1.34,1.34,0,0,1,.54.23c.17.09.35.15.53.23.44.21.3.58-.16,1-.24.22-.54.4-.93.7a2.08,2.08,0,0,1-1.19.28c-1.49-.07-3-.26-4.43-.45l-2.17-.27-.26,0-.13,0h0l-.11-.06c-.06,0-.21-.09-.28,0a.79.79,0,0,0-.12.33c-.05.42-.09.91-.1,1.36,0,.93-.07,1.87-.1,2.8l-.32,6.13-.17,3.79,0,.55c0,.11,0,.22,0,.34s0,.12,0,.17a.25.25,0,0,0,.11.14,2.31,2.31,0,0,0,.67.24,12.58,12.58,0,0,0,2.47.37,29.62,29.62,0,0,0,4.32-.18c.31,0,.62-.09.93-.1a2.87,2.87,0,0,1,1.22.12,1.36,1.36,0,0,1,.58.64l.24.41c.27.42-.32,1.06-1.23,1.25-2.73.58-5.45.15-8.39-.15l-.43-.07-.24,0c-.12,0-.25,0-.38-.08a4.77,4.77,0,0,1-1.41-.55,2,2,0,0,1-.52-.47,2.06,2.06,0,0,1-.31-.58,2.44,2.44,0,0,1-.05-.73,1,1,0,0,1,.21-.78c-.27,0-.17,0-.18-.06v-.69l0-.74.05-1.5Z"/><path class="cls-1" d="M132.7,127.3c-.34,2,.56,4.69,3,4.63,2-.05,2.46-2.4,2.18-4-1-5.71-7.31-2.24-10.79-1.4-2,.49-1.17,3.62.87,3.13s3.85-1.21,5.81-1.67c.67-.16.59-.31.87.26.1.2,0,.6.08.76v.18c1.13.05,1.51-.29,1.12-1,.36-2-2.77-2.93-3.14-.87Z"/><path class="cls-1" d="M142.05,126.64c1,1.1,2.74,2.67,4.16,1.29a3.29,3.29,0,0,0,.43-3.43,3,3,0,0,0-3.47-2.22c-1,.16-2.06.63-3.08.88-1.72.4-1,3,.73,2.65.82-.2,1.62-.41,2.42-.69l.36-.14c-.38.15,0-.12.23,0s.24.48.3.67,0,0,0,.12,0,.27,0,.4,0,0,0,0,.92-1,1-.41c0-.06-1-.93-1.13-1.06-1.17-1.33-3.11.62-1.94,1.94Z"/><path class="cls-1" d="M120.28,123.71c1.08-3.86,5.62-3.34,8.71-2.53,2,.53,2.88-2.6.86-3.13-4.93-1.29-11.08-1-12.71,4.8-.57,2,2.57,2.87,3.14.86Z"/><path class="cls-1" d="M137.27,116a5.09,5.09,0,0,1,3.88-3.54c2-.38,1.18-3.51-.86-3.13a8.27,8.27,0,0,0-6.15,5.8c-.49,2,2.64,2.91,3.13.87Z"/><path class="cls-1" d="M149.74,139.12a2,2,0,0,0,.13-1.59,8.49,8.49,0,0,0-1-2.18,17.61,17.61,0,0,0-1.16-1.49,47.1,47.1,0,0,0-4.9-5l-2.4-2.11a12.65,12.65,0,0,1-2.79-3.08c-.23-.39.13-.56.67-.54a3.06,3.06,0,0,1,.89.18,2.36,2.36,0,0,1,.91.51c1,.88,2.05,1.68,3.09,2.57s2,1.85,3,2.87c1.17,1.23,2.55,2.35,3.69,3.75a12.21,12.21,0,0,1,1.62,2.56,6.29,6.29,0,0,1,.72,3.17,3.58,3.58,0,0,1-.84,2.07,4.61,4.61,0,0,1-1.72,1.19,13.41,13.41,0,0,1-5.52.62,25.43,25.43,0,0,1-4.17-.36,7.67,7.67,0,0,1-.92-.22c-1.13-.37-1.35-.89-1.3-1.51a2.46,2.46,0,0,1,0-.4.68.68,0,0,1,.48-.43,2.05,2.05,0,0,1,1-.14c2.22.11,4.5.62,6.74.6a8.72,8.72,0,0,0,2.31-.27,2.24,2.24,0,0,0,1.35-.79Z"/><path class="cls-1" d="M141.16,153.93a5.78,5.78,0,0,0,5.58.81c2-.63,1.14-3.77-.86-3.14-.68.22-1.78.55-2.42,0a1.67,1.67,0,0,0-2.3,0,1.64,1.64,0,0,0,0,2.3Z"/><path class="cls-1" d="M130.7,196.67c.57.25,1.14.51,1.73.71l.89.32.9.27c.43.14.88.2,1.33.3a24,24,0,0,0,2.36.46c.8.05,1.6.13,2.41.15a3.77,3.77,0,0,0,1.06-.15l.52-.11.49-.19.62-.24.57-.34c.41-.18.72-.48,1.12-.7.24-.14.43.06.43.43a1.67,1.67,0,0,1-.15.67,1.48,1.48,0,0,1-.53.67,6.59,6.59,0,0,1-1.42.79c-.25.1-.49.21-.75.3l-.77.19a8.43,8.43,0,0,1-3.1.36c-1.24-.12-2.51-.16-3.74-.38-.67-.14-1.33-.31-2-.5s-1.3-.41-1.93-.66-1.54-.62-2.29-1c-.57-.25-1.13-.54-1.68-.84s-1.11-.59-1.65-.89l-2.6-1.27c-.19-.11-.38-.2-.56-.32-.65-.47-.75-.75-.52-1.31.05-.13.1-.26.16-.38a1,1,0,0,1,1.24-.31,48,48,0,0,1,4.46,2.27c1.11.58,2.23,1.16,3.39,1.63Z"/><path class="cls-1" d="M300,307.68l-4.64-.18c-.56,0-1.12,0-1.68,0-2-.11-4-.23-6-.31l-2.64,0c-1.12,0-2.25,0-3.37-.14-.35,0-.3-.19,0-.38a4,4,0,0,1,1.49-.48c1.15-.1,2.29-.23,3.44-.27s2.3,0,3.45.08c1.39.07,2.83,0,4.24,0s3.11,0,4.66.06l2.87.05c1.45,0,2.91,0,4.35,0,1.12,0,2.21-.17,3.32-.26l.72-.08c.91,0,1.2.08,1.4.59,0,.11.1.23.13.34.09.39-.29.72-.95.83a36.62,36.62,0,0,1-6.15.39c-1.56,0-3.12-.05-4.67-.07Z"/><path class="cls-1" d="M246.65,221.66a2.09,2.09,0,0,1,.12-.9,1.78,1.78,0,0,1,.08-.31,3.13,3.13,0,0,1,.15-.32l.07-.15.16-.07a2.85,2.85,0,0,1,.64-.16l.46-.05a.64.64,0,0,1,.57.11,2.43,2.43,0,0,1-.44,1c-.18,0-.39,0-.47-.14s-.1,0-.14.12a2,2,0,0,0-.13.49.61.61,0,0,0,0,.27.79.79,0,0,0,.26.39,1.55,1.55,0,0,0,.41.19l.09,0c.11.07.1.15,0,.38l-.09.16a.57.57,0,0,1-.38.27,1.34,1.34,0,0,1-.93-.43,1.8,1.8,0,0,1-.44-.93Z"/><path class="cls-1" d="M261.82,221.91a1.8,1.8,0,0,0-.45-.42c-.06-.05-.13,0-.2-.08a2,2,0,0,0-.78-.27.83.83,0,0,0-.37.08c-.15.06-.27.18-.47.14s-.46-1-.2-1.14a1.91,1.91,0,0,1,1.41-.11c.27.1.57.08.84.19a2.77,2.77,0,0,1,.79.44c.15.11.28.24.42.36s.34.41.52.6a2.91,2.91,0,0,1,.43.43.76.76,0,0,1,.08.11c.06.16,0,.25-.18.39l-.13.1a.57.57,0,0,1-.46.08,3.9,3.9,0,0,1-.52-.18,2.85,2.85,0,0,1-.32-.27,3.41,3.41,0,0,1-.42-.43Z"/><path class="cls-1" d="M247.58,200.35a1.71,1.71,0,0,0-.2-.18s-.06,0-.08,0l-.28-.22a.4.4,0,0,0-.15,0c-.07,0-.15,0-.19,0s.17-.78.26-.76a.67.67,0,0,1,.43.27c.07.1.17.11.25.16l.26.2.14.13a1.81,1.81,0,0,0,.23.18,1.43,1.43,0,0,0,.22.08l.05,0s0,.08-.07.22l-.07.09a.43.43,0,0,1-.22.17.51.51,0,0,1-.38-.08c-.07,0-.13-.1-.2-.15Z"/><path class="cls-1" d="M208.19,467c-.05,2-2.77,3.65-4.71,3.65s-4.46-1.67-4.43-3.88a3.24,3.24,0,0,1,2-2.89C203.22,462.85,208.27,464,208.19,467Z"/><path class="cls-1" d="M245.7,461.77a3.71,3.71,0,0,0,4.14,3c2-.26,4.21-2.24,3.9-4.42a3.26,3.26,0,0,0-2.38-2.61C249.1,457,245.24,458.77,245.7,461.77Z"/><path class="cls-1" d="M345.71,417.93l.09-17v-6.2c.07-7.29.24-14.58.41-21.87.06-3.24.12-6.49.19-9.7.07-4.13.17-8.27.6-12.38.14-1.28.29-1.1.47,0a38.51,38.51,0,0,1,.45,5.48c0,8.4-.18,16.81-.42,25.29-.14,5.08-.1,10.36-.13,15.55l-.07,17.13q0,5.28,0,10.54c0,5.32.06,10.67.19,15.95.09,4.11.3,8.13.5,12.18,0,.89.07,1.76.11,2.66.1,3.34,0,4.4-.31,5.14-.07.16-.13.38-.19.48-.15.33-.57-1-.83-3.46-.17-1.81-.34-3.65-.45-5.51s-.16-3.73-.25-5.62c-.13-3.79-.22-7.62-.28-11.47-.09-5.71-.11-11.44-.14-17.17Z"/><path class="cls-1" d="M414.65,139.55h1.83c.22,0,.44,0,.67,0l2.34.14,1,0a3.86,3.86,0,0,1,1.31.1c.14,0,.12.27,0,.51a1,1,0,0,1-.58.55c-.44.08-.87.14-1.31.18a6.68,6.68,0,0,1-1.33-.1,8.9,8.9,0,0,0-1.63,0l-1.79.06-1.1.07c-.55.05-1.11.1-1.65.2a10.22,10.22,0,0,0-1.23.36l-.27.05a.49.49,0,0,1-.62-.33,1.11,1.11,0,0,1-.09-.19.53.53,0,0,1,.25-.61,6.3,6.3,0,0,1,.53-.37q.28-.14.57-.24a6.22,6.22,0,0,1,1.2-.31c.62-.08,1.24-.11,1.85-.14Z"/><path class="cls-1" d="M390.45,109.57c-.23-.23-.05-.55.36-.91a1.27,1.27,0,0,1,.7-.21,3.17,3.17,0,0,1,.51.32c.08.07.89,1.37,1.23,1.78a9.73,9.73,0,0,1,.78,1.26l1.52,2.66a3.15,3.15,0,0,1,.26.65,9.26,9.26,0,0,0,1,2.2.71.71,0,0,0,.27.33,8.43,8.43,0,0,1,1.22,2.5c.11.74.22,1.49.29,2.23,0,.1.07.2,0,.32a.76.76,0,0,0-.06.71,4.79,4.79,0,0,1,.06.93,1.45,1.45,0,0,1-.21.51c-.07.15-.47.16-.53.12s-.3,0-.46.09l-.17,0a13.1,13.1,0,0,1-1.22-1.58c0-.06-1-2.2-1.13-2.42a1,1,0,0,1-.1-.42c0-.07-1-1.71-1-1.78a2.58,2.58,0,0,1-.39-1.15.45.45,0,0,0-.08-.23,14.88,14.88,0,0,1-.88-1.94c-.14-.34-.34-.65-.5-1a.71.71,0,0,1,0-.21,1.17,1.17,0,0,0-.07-.25c-.39-.78-.64-1.65-1.05-2.43-.11-.18-.21-1.2-.33-1.4S390.54,109.66,390.45,109.57Z"/><path class="cls-1" d="M388.52,134.28c-.18.14-.31-.14-.41-.68a2.08,2.08,0,0,1,0-.77,3,3,0,0,1,.3-.37c.06-.06,1-.3,1.31-.41a3,3,0,0,1,.92-.12l1.86,0a1,1,0,0,1,.41.08,3.1,3.1,0,0,0,1.41.14c.08,0,.16,0,.24-.08a3.32,3.32,0,0,1,1.57-.05,11.42,11.42,0,0,0,1.22.48c.06,0,.13,0,.18.1s.25.21.37.25a2.14,2.14,0,0,1,.53.2,1.33,1.33,0,0,1,.26.3.68.68,0,0,1,0,.47c-.08.11,0,.27,0,.41a.38.38,0,0,1,0,.15,4.79,4.79,0,0,1-1.15.76l-.79.09-.9.13c-.09,0-.18,0-.27-.07s-1.24.15-1.28.14c-.25,0-.5,0-.74-.19a.17.17,0,0,0-.15,0,5.46,5.46,0,0,1-1.27-.16c-.22,0-.44,0-.65,0a.31.31,0,0,1-.12-.05.44.44,0,0,0-.15,0,11.27,11.27,0,0,0-1.54-.07c-.12,0-.67-.25-.81-.23S388.59,134.22,388.52,134.28Z"/><path class="cls-1" d="M388.89,155.82c0,.3-.38.26-1,0a2.09,2.09,0,0,1-.66-.55,3.32,3.32,0,0,1-.08-.59c0-.11.61-1.33.81-1.76a5,5,0,0,1,.73-1.12c.57-.7,1.13-1.42,1.72-2.11a2.54,2.54,0,0,1,.46-.4,6.37,6.37,0,0,0,1.51-1.42.53.53,0,0,0,.17-.31,7.13,7.13,0,0,1,1.51-1.7c.57-.28,1.09-.59,1.62-.9.08,0,.12-.13.25-.1.31.06.41-.1.56-.21a3.62,3.62,0,0,1,.65-.42,1.42,1.42,0,0,1,.48-.05c.15,0,.37.29.37.35s.19.22.3.32l.12.11a8.7,8.7,0,0,1-.59,1.71s-1.28,1.72-1.44,1.94-.21.15-.32.21-1.07,1.39-1.12,1.43c-.26.23-.43.55-.83.63a.33.33,0,0,0-.17.14,12.44,12.44,0,0,1-1.28,1.23c-.22.21-.39.46-.59.68a.75.75,0,0,1-.15.09.55.55,0,0,0-.17.13,15.86,15.86,0,0,0-1.39,1.66c-.09.14-.81.58-.9.76S388.9,155.71,388.89,155.82Z"/><path class="cls-1" d="M177.48,50c-.16-.24.12-.45.67-.64a1.71,1.71,0,0,1,.79,0,2.87,2.87,0,0,1,.39.39c.06.09.35,1.38.49,1.81a5.68,5.68,0,0,1,.2,1.28c.07.86.18,1.73.29,2.59a2.92,2.92,0,0,1,0,.59,5.79,5.79,0,0,0,.13,2,.5.5,0,0,0,.13.31,9,9,0,0,1,.43,2.17c-.06.6-.1,1.2-.13,1.8,0,.09,0,.17,0,.26s-.11.39-.1.57a4.92,4.92,0,0,1,0,.77,1.56,1.56,0,0,1-.16.42c-.06.13-.37.14-.41.11s-.24,0-.36.07l-.13,0a9.3,9.3,0,0,1-1-1.46l-.38-1.1c-.2-.55-.37-1.13-.41-1.25a.86.86,0,0,1,0-.39c0-.08-.45-1.76-.47-1.82a2.23,2.23,0,0,1,0-1.09.41.41,0,0,0,0-.22,11.43,11.43,0,0,1-.12-1.85c0-.32-.06-.63-.09-1a.55.55,0,0,1,0-.17.82.82,0,0,0,0-.22c-.08-.74,0-1.5-.16-2.24,0-.17.19-1,.15-1.2S177.54,50.12,177.48,50Z"/><path class="cls-1" d="M188.75,68.87c-.17.24-.48,0-.88-.44a1.73,1.73,0,0,1-.3-.8,2.75,2.75,0,0,1,.23-.55c.06-.09,1.24-.87,1.65-1.15a5,5,0,0,1,1.24-.63c.87-.34,1.75-.71,2.64-1a2.07,2.07,0,0,1,.62-.13,7.9,7.9,0,0,0,2.1-.53.67.67,0,0,0,.32-.19,7.74,7.74,0,0,1,2.3-.73l2,.07c.09,0,.18-.05.28,0a.69.69,0,0,0,.61.12,8,8,0,0,1,.84.11,3.25,3.25,0,0,1,.44.19c.13.06.1.31.07.35s0,.2,0,.3a.43.43,0,0,1,0,.11s-.34.27-.69.57a2.93,2.93,0,0,1-.78.6c-.05,0-2.06.84-2.29.92a1,1,0,0,1-.38,0c-.07,0-1.67.67-1.73.69-.35.07-.66.28-1.07.17a.34.34,0,0,0-.22,0,13.1,13.1,0,0,1-1.79.49c-.3.08-.59.22-.89.32a1,1,0,0,1-.18,0,.56.56,0,0,0-.22,0,16.24,16.24,0,0,0-2.1.81c-.16.08-1,.14-1.2.25S188.81,68.77,188.75,68.87Z"/></g></svg>