<svg xmlns="http://www.w3.org/2000/svg" width="520" height="520" viewBox="0 0 520 520"><defs><style>.cls-1,.cls-2,.cls-3{fill:#231f20;}.cls-2{opacity:0.2;}.cls-3{opacity:0.23;}</style></defs><title>Notioly New</title><g id="_166.Painting" data-name="166.Painting"><path class="cls-1" d="M174.79,449.42c-13.41.79-48.67-4.28-53.55-11.53-6.63-9.84,35.29-7.79,35.29-7.79s4.11,10.49,9.91,13.83A64.44,64.44,0,0,1,174.79,449.42Z"/><path class="cls-1" d="M333.28,294.11s6.85-3.05,3.25-7.16-17.6-12.49-17.6-12.49,19.59,7.22,21.79,14.8-4.27,7.58-4.27,7.58Z"/><path class="cls-1" d="M176.37,282.56c-.73,1.17-4.83-3.55-5.08-3.89-4.4-6,23.69-14.68,27-15.27,0,0-25,4.51-30.32,10.53s5.19,11.59,5.19,11.59A14.72,14.72,0,0,0,176.37,282.56Z"/><path class="cls-2" d="M217.9,271.94S180,279.1,176.53,284.26s50.58,19.1,60.65,18.13S217.9,271.94,217.9,271.94Z"/><path class="cls-1" d="M326.56,317.2s21.92-4.37,23.69-8.58-1.95-2.91-1.95-2.91l-24.32,8Z"/><path class="cls-1" d="M152.38,288.47a40.6,40.6,0,0,0,5.91,5.55c6.49,4.67,43,25.28,117.54,27.18l6.3-.43-2.95-4.54s-84.6,0-115.38-22.43Z"/><path class="cls-1" d="M267.7,425.85a183.54,183.54,0,0,1-23.22-13.46l-4-2.78c-1.34-.93-2.73-1.8-4-2.85l-6.72-5.4-6.4-5.78c-2.16-1.88-4.16-4-6.14-6l-5.9-6.17c-3.48-3.66-7-7.29-10.53-10.85q-3.42-3.41-6.74-6.91c-1.1-1.17-2.23-2.32-3.29-3.53l-3.16-3.65c-1.3-1.52-.85-1.61.75-.82.81.39,1.9,1,3.18,1.78.63.4,1.32.83,2,1.34s1.36,1.09,2.05,1.72l3.61,3.36,1.8,1.69,1.75,1.74,6.93,7,13.7,14.16c2.77,2.74,5.79,5.37,8.83,8l4.77,3.69c1.6,1.23,3.16,2.5,4.83,3.61l5.41,3.79c.89.66,1.84,1.22,2.77,1.81l2.81,1.75c3.69,2.43,7.63,4.43,11.47,6.6l7.32,3.58c2.47,1.16,5,2.17,7.49,3.25a166.17,166.17,0,0,0,23.47,7.56,127.79,127.79,0,0,0,18.61,2.61c1.37.08,2.71.12,4.08.22,2.54.09,4.22.17,5.4.34a6,6,0,0,1,2.47.87,5.62,5.62,0,0,1,.78.49c.29.28-.09.57-1,.93a13.21,13.21,0,0,1-4.41.93,78.28,78.28,0,0,1-8.81.13l-4.44-.36c-1.49-.14-3-.39-4.46-.58-3-.37-5.93-1.06-8.91-1.63-1.48-.33-2.95-.73-4.42-1.09s-3-.71-4.41-1.2a168,168,0,0,1-25.33-9.78Z"/><path class="cls-1" d="M294.65,317.52s6.41,3.48,10.13,3.79,3.1,10.59,6.25,8.84c3.34-1.85,11.22-8.95,10.58-13.92-1.06-8.31,5.8-1.56,3.54,6.12-1,3.27-7.87,2.28-8.83,7.84s2.61,11.69-5.34,12.48c-5.6.56-9.34-2.49-11.35-9.59-2.86-10.09-11.16-4.46-15.93-10.73-5.77-7.57-1.09-6.12-1.09-6.12Z"/><path class="cls-1" d="M119.45,457.1s9.16,3.17,7.48,5.59,8.21,2.09,11.58,2.09,10.63-2.73,14.84.64,6.79,3.77-2.16,4.09-28.12,1.15-30.66-1.26,4.07-4.05,1.2-5.56-4.71-1.62-11.12-2.24-12.15-4.23-8.69-4.68S119.45,457.1,119.45,457.1Z"/><path class="cls-1" d="M384,458.78s6.42.74,5.47,3.16,17.16,5.16,17.79,4-9.26-6.42-5.16-6.63,14.18,1.88,16,5.26,4.1,8.21-6.43,7.27-27.07-4.28-34.34-5.71-14.74-4.57-10.1-6.11S384,458.78,384,458.78Z"/><path class="cls-1" d="M329.35,439.22a44.42,44.42,0,0,1-22.66,16.62c-15.08,4.68-53.65,6.85-53.65,6.85s53.57.09,66.83-6.22,14.07-18,14.07-18Z"/><path class="cls-1" d="M329.35,413.05c17.19.95,32.37-1.42,35.37-15.63l-1.9-4.74A24,24,0,0,1,352.16,405C344.19,409.26,329.35,413.05,329.35,413.05Z"/><path class="cls-1" d="M152.91,195.82s2.79,3.15,4.41,1.79S196.46,175,195.8,173.37a8.81,8.81,0,0,0-2.14-2.93,25.64,25.64,0,0,0-5.4,4c-2.39,2.42-3.25,1.66-6.5,3.51s-6.28,4.5-8.94,6-6.53,2.6-8.53,4.68-.55,2.09-3.9,3.56S152.91,195.82,152.91,195.82Z"/><path class="cls-1" d="M207.12,218.57c-1.56,7-15,12.41-15,12.41l-4-4.06,19-12.24Z"/><path class="cls-1" d="M185.11,229.32s8.28,4.94,13.51,12.61,38.56,60.46,38.56,60.46l8.91,1.88s-45.17-67.8-49.78-72.47c-7-7-8.22-4.88-8.22-4.88Z"/><path class="cls-1" d="M289.37,120.26c1.29,1.85,1.85,4.82,2.42,6.94a48.86,48.86,0,0,1,1.77,16.4,32.19,32.19,0,0,1-4.82,15.31c-4.34,6.53-12,8.41-19.36,8.9,0,0,12.57,3.51,19.27-4.7s9.11-22.27,6.8-29.85A51,51,0,0,0,289.37,120.26Z"/><path class="cls-1" d="M278.77,172.21c-8,2.63-18-4.86-18-4.86l.56-2s11.44,7.41,17.44,5Z"/><path class="cls-1" d="M240,280.13s3.71-40.69,10.87-57.3,11.51-33.54,10.63-35.32l-2.93-2.61s-7.53,26.74-10.83,32.55-11,38.44-11.57,48.12.26,9.38.26,9.38Z"/><path class="cls-1" d="M271,191.93c-7.32.42-10.21-1.92-10.21-1.92l.63-3.64,12.85,2.89v.49C274.25,191.64,272.87,191.83,271,191.93Z"/><path class="cls-1" d="M362.66,173.36c-.29.37,2.85-11.45,0-9.51s2.92-9.39,4.38-8.47S364.56,171,362.66,173.36Z"/><path class="cls-1" d="M349.87,168.15s1.48-7-2.68-2.17,3-10.23,6.34-11.8,2.51,1.75,1.14,5.51A42.92,42.92,0,0,1,349.87,168.15Z"/><path class="cls-1" d="M328.07,160.15c.23-.47,2.88-14.42-1-10.94s-7.81,12.31-7.81,12.31,11.49-22.1,14-19.42S328.07,160.15,328.07,160.15Z"/><path class="cls-1" d="M300.58,208.65l-5.93-1.91s-4.83,11.63-1.28,18.88,9.27,9,9.27,9-27.35,64.66-28.11,71l4.24.09,29.86-70.95c.45-1.18-2.9-4.37-3.85-5.2C294.25,220.36,300.58,208.65,300.58,208.65Z"/><path class="cls-1" d="M348.08,231.8s-10.72-3.4-21.55-7.45c-14-5.21-26.76-13.47-28.39-13.79-3.16-.63,6.64-1,6.64-1s39.09,20,43.83,19.46S348.08,231.8,348.08,231.8Z"/><path class="cls-1" d="M212.94,461.25a185.9,185.9,0,0,1-25.56-6.2c-4.18-1.35-8.31-2.88-12.36-4.61-2-.87-4-1.8-6-2.77a18,18,0,0,1-5.64-4.37,34.81,34.81,0,0,1-5.29-8.46,64.78,64.78,0,0,1-3.31-9.16,134.4,134.4,0,0,1-3.44-16.6c-.82-5.57-1.42-11.15-1.87-16.74-.9-11.18-1.27-22.37-1.44-33.55-.14-9.92-.21-19.9-.21-29.73l-.06-19v-9.46c0-3.14-.05-6.3-.36-9.34-.19-1.9-.34-2.55,0-2.64.13,0,.36.13.66.51a8.75,8.75,0,0,1,.92,1.83c1.22,3.27,2.28,9.48,2.49,16.78.29,25.86-.51,51.56.76,77.45a232.14,232.14,0,0,0,2.3,23.43,109.79,109.79,0,0,0,5.71,22.86,31.54,31.54,0,0,0,6.43,10.63l1.12,1,1.2.88c.43.24.84.49,1.29.73l1.46.71c1.94.94,3.92,1.81,5.92,2.65a155.55,155.55,0,0,0,24.8,7.8,223.51,223.51,0,0,0,31.75,4.84,276.11,276.11,0,0,0,48.63-.27c6.24-.62,12.39-1.48,18.45-2.65A116.71,116.71,0,0,0,319,453.13a32.49,32.49,0,0,0,6.94-3.42,9.07,9.07,0,0,0,2.16-2.12c.63-.79,1.14-1.54,1.6-2.23a29.47,29.47,0,0,0,1.92-3.6c.89-2,1.33-3.23,1.92-4.25.27-.46.51-1.11.73-1.4.36-.5.79.3.84,2.3a17.47,17.47,0,0,1-2.56,8.71,26.12,26.12,0,0,1-2.59,3.66,14.76,14.76,0,0,1-3.82,3,45.61,45.61,0,0,1-8.15,3.48,123.51,123.51,0,0,1-17,4.15,244.09,244.09,0,0,1-35.22,3.4,276.47,276.47,0,0,1-52.8-3.44Z"/><path class="cls-1" d="M349.4,341.79,348,357.28c-.15,1.88-.24,3.77-.43,5.65q-1,10-2.19,19.91c-.33,2.94-.66,5.9-1,8.83-.19,1.88-.43,3.77-.72,5.65a38.77,38.77,0,0,1-1.23,5.59c-.32,1.14-.87.83-1.25-.27a8.68,8.68,0,0,1-.4-2.16,16.43,16.43,0,0,1,.1-2.92c1-7.52,1.69-15.16,2.62-22.85.55-4.6.72-9.42,1-14.15L345.79,345c.26-3.2.52-6.41.77-9.61.38-4.85.86-9.72,1.22-14.55.16-1.87.28-3.74.37-5.6s.27-3.72.46-5.59c.11-.82.2-1.63.34-2.46a18.55,18.55,0,0,1,.39-1.93,8.54,8.54,0,0,1,.54-1.3,2.25,2.25,0,0,1,1.22-1.19,3.42,3.42,0,0,1,.63-.25c.63-.08.91,1.29.64,3.37-.05,1.65-.25,3.26-.34,4.93s-.24,3.36-.37,5.07c-.29,3.42-.58,6.89-.87,10.36-.44,5.19-.87,10.4-1.31,15.59Z"/><path class="cls-1" d="M286.59,318c-8.33.33-16.67.38-25,.1s-16.64-.87-24.9-1.91c-3-.31-6-.75-9-1.17s-6-.92-9-1.46a255.91,255.91,0,0,1-31.13-7.84c-2.53-.87-5.09-1.66-7.6-2.59l-7.51-2.84a87.4,87.4,0,0,1-14.59-7,30,30,0,0,1-5.75-4.62,15.85,15.85,0,0,1-3.91-6.53,13.27,13.27,0,0,1,.11-7.72,17.69,17.69,0,0,1,4-6.42,35.4,35.4,0,0,1,7.3-5.89,55.23,55.23,0,0,1,8.26-4.19,51.54,51.54,0,0,1,17.93-4c1.93.05,2.76.31,2.71.51s-1,.48-2.52,1-3.68,1.16-6.2,2-5.42,2-8.55,3.13c-5.5,2.13-10.85,5-15,8.81a16.26,16.26,0,0,0-4.45,6.47,9.55,9.55,0,0,0-.4,3.62,9.73,9.73,0,0,0,1,3.57,18.29,18.29,0,0,0,5.41,6.06,45.36,45.36,0,0,0,7.58,4.53c2.7,1.32,5.51,2.47,8.37,3.64l8.6,3.31a238.32,238.32,0,0,0,43.73,10.79c4.1.58,8.2,1.22,12.32,1.62s8.26.8,12.39,1.15c2.07.15,4.14.22,6.21.34s4.15.22,6.22.24l6.23.13,6.22,0c10.22-.15,20.44-.77,30.59-1.9,3.84-.48,7.7-.88,11.51-1.5s7.62-1.32,11.36-2.22a89.06,89.06,0,0,0,11-3.35,40.73,40.73,0,0,0,9.94-5.27,15.1,15.1,0,0,0,5.18-6.4,10.71,10.71,0,0,0,.56-1.91,12.08,12.08,0,0,0,.11-2,12.89,12.89,0,0,0-.78-3.94,21.2,21.2,0,0,0-4.46-7A35.8,35.8,0,0,0,344.1,274a73.34,73.34,0,0,0-6.59-3.8c-4.23-2.23-7.15-3.57-9.1-4.71a13.61,13.61,0,0,1-3.76-2.86,11.39,11.39,0,0,1-1-1.18c-.26-.53.57-.51,2.29,0a60.65,60.65,0,0,1,7.67,2.8c2.45,1.06,4.92,2.2,7.35,3.49a65.84,65.84,0,0,1,7.12,4.41,37.14,37.14,0,0,1,6.4,5.92,23.06,23.06,0,0,1,4.38,8c.11.39.24.76.32,1.16l.2,1.2a14.56,14.56,0,0,1,.15,2.48,13.77,13.77,0,0,1-1.07,4.9,18.58,18.58,0,0,1-6,7.4,38,38,0,0,1-7.69,4.56,71.2,71.2,0,0,1-8.15,3.08,141.5,141.5,0,0,1-24.92,5l-6.27.75-6.29.59c-2.09.21-4.19.36-6.29.48s-4.2.29-6.3.38Z"/><path class="cls-1" d="M216.55,298.73c6.56,1.23,13.19,2.24,19.85,3.17s13.28,1.79,20,2.36c4.87.42,9.74.61,14.61.79a232.81,232.81,0,0,0,25.75-.43A181.23,181.23,0,0,0,322.18,301a58.34,58.34,0,0,0,10.73-3.41,18.55,18.55,0,0,0,4.55-2.77,6.54,6.54,0,0,0,1.46-1.81,3.08,3.08,0,0,0,.31-1.92A5.81,5.81,0,0,0,338,288.5l-.54-.62-.61-.64c-.4-.44-.84-.84-1.26-1.25a50,50,0,0,0-5.5-4.54,97.56,97.56,0,0,0-12.35-7.38c-2.68-1.36-1.94-2.13.84-1.95a27.62,27.62,0,0,1,12.51,4.8,55.34,55.34,0,0,1,6.19,4.86c1,.9,1.92,1.82,2.82,2.8a18.33,18.33,0,0,1,1.4,1.67,10.21,10.21,0,0,1,1.25,2.13,8.24,8.24,0,0,1,.67,2.71,7.39,7.39,0,0,1-.45,2.92,10,10,0,0,1-3.05,4.05,26.55,26.55,0,0,1-7.33,3.95,85.52,85.52,0,0,1-15,3.84c-5,.88-10.08,1.5-15.15,1.95a263.3,263.3,0,0,1-37.21.85c-6.82-.36-13.62-1-20.39-1.8s-13.47-1.79-20.21-2.85a242.54,242.54,0,0,1-24.68-5c-3.07-.82-6.14-1.71-9.17-2.74s-6-2.12-9-3.42a88.15,88.15,0,0,1-8.6-4.27,33.56,33.56,0,0,1-7.84-5.81,9.42,9.42,0,0,1-2.18-3.53,5.09,5.09,0,0,1-.21-2.31,6.68,6.68,0,0,1,.29-1.15c.16-.35.33-.69.52-1l.66-.88.76-.74a7.19,7.19,0,0,1,.81-.64c.25-.19.5-.37.76-.54,1-.72,2.06-1.38,3.12-2a75.8,75.8,0,0,1,13.36-6.16c2-.72,4-1.41,6.14-2a50.13,50.13,0,0,1,8.35-1.74,8,8,0,0,1,3.9.33,5.8,5.8,0,0,1,1.23.5c.44.33-.11.8-1.46,1.34s-3.52,1.17-6.29,1.91A121.43,121.43,0,0,0,182.87,268a73.51,73.51,0,0,0-11.63,5.57c-.92.54-1.81,1.13-2.67,1.73l-.64.47-.16.11,0,0-.18.18a3.91,3.91,0,0,0-.63.75,1.39,1.39,0,0,0-.12,1.21A5.8,5.8,0,0,0,168,280a24.2,24.2,0,0,0,4.72,3.8,61.75,61.75,0,0,0,5.71,3.2c2.93,1.46,6,2.81,9.05,4s6.29,2.19,9.49,3.15a195.53,195.53,0,0,0,19.6,4.53Z"/><path class="cls-1" d="M281.65,276.84c-1.15-.26-2.31-.51-3.48-.72-.43-.07-.87,0-1.29-.12-1.51-.28-3-.58-4.56-.78a11.62,11.62,0,0,0-2-.05,5.9,5.9,0,0,1-2.61-.09c-.53-.22.16-3.31,1.21-3.33a17.75,17.75,0,0,1,5.43.74,23.14,23.14,0,0,0,3.33.42c1.22.18,2.43.4,3.64.64l2.24.46,3.38.73c.88.15,1.79.17,2.7.29a3.21,3.21,0,0,1,.61.09c.74.2.89.49.72,1.34,0,.19-.07.38-.13.57a1.38,1.38,0,0,1-1.17,1.07,20.17,20.17,0,0,1-4.53-.51c-1.14-.21-2.29-.47-3.46-.67Z"/><path class="cls-1" d="M198.62,276.52a66.64,66.64,0,0,0-6.63,1.74c-.79.26-1.56.59-2.35.87a67.67,67.67,0,0,0-8.17,3.4,25.64,25.64,0,0,0-3.32,2.07,44.51,44.51,0,0,1-4,2.95c-.43.24-1-.37-1.19-1.27a2.8,2.8,0,0,1,.81-2.75,33.42,33.42,0,0,1,9.49-5.19c2.05-.71,4-1.75,6.09-2.48a71.83,71.83,0,0,1,6.9-2c1.44-.34,2.87-.69,4.32-.94,2.18-.48,4.4-.72,6.57-1.12,1.7-.21,3.34-.71,5-.94.37-.06.73-.14,1.11-.18,1.4-.15,1.86,0,2.19.87a4.45,4.45,0,0,1,.22.57c.16.65-.38,1.23-1.36,1.49-1.45.39-2.93.62-4.43.92-.75.14-1.51.26-2.27.37s-1.51.27-2.28.39c-1.13.19-2.26.37-3.38.62s-2.27.42-3.38.72Z"/><path class="cls-1" d="M220.4,389.51c-2.5-2.21-5-4.41-7.41-6.72l-3.64-3.42c-1.21-1.15-2.37-2.34-3.56-3.51l-3.54-3.51c-1.18-1.18-2.31-2.4-3.47-3.6l-3.45-3.61-1.69-1.76c-.57-.57-1.15-1.13-1.75-1.69-2.38-2.25-4.93-4.42-7.29-6.91a25.11,25.11,0,0,1-5.75-8.83,17,17,0,0,1-.29-10.82,12.72,12.72,0,0,1,2.91-4.87,13.65,13.65,0,0,1,4.69-3.13,15,15,0,0,1,8.06-.79,21.63,21.63,0,0,1,7.35,2.77,21.27,21.27,0,0,1,3.21,2.33,21.71,21.71,0,0,1,2.66,2.87c1.59,2,2.87,4.09,4.22,6,.6.84,1.21,1.64,1.85,2.38a22.3,22.3,0,0,0,2.14,2.07l4.81,4.19c3.18,2.82,6.48,5.5,9.71,8.26,6.58,5.38,13.19,10.72,20.05,15.73,13.66,10.06,28,19.37,43.34,26.49A114.64,114.64,0,0,0,314.72,407a70.34,70.34,0,0,0,11,1.83,48.2,48.2,0,0,0,11-.21c1.17-.11,2.3-.41,3.45-.6l1.7-.45c.56-.15,1.12-.31,1.67-.51a30.78,30.78,0,0,0,6.3-2.91,27,27,0,0,0,5.42-4.26,13.48,13.48,0,0,0,3.55-5.52,14.08,14.08,0,0,0,.42-6.56,27.32,27.32,0,0,0-2-6.58,50.62,50.62,0,0,0-3.3-6.26c-1.25-2-2.49-4.07-3.91-6-3.56-4.81-2.76-4.45.81-.77a64,64,0,0,1,6.89,8.19,34.91,34.91,0,0,1,3.56,6.48,20.61,20.61,0,0,1,1.57,8.59,16.37,16.37,0,0,1-.77,4.18,17,17,0,0,1-1.86,3.83,20.2,20.2,0,0,1-2.66,3.16,17,17,0,0,1-1.45,1.36c-.5.44-1,.88-1.53,1.27a29.66,29.66,0,0,1-6.84,4c-1.2.55-2.45.94-3.69,1.37-.62.19-1.26.34-1.89.51s-1.26.33-1.91.43a52.61,52.61,0,0,1-15.37.63,81.87,81.87,0,0,1-14.88-3c-2.43-.66-4.79-1.52-7.17-2.33s-4.7-1.76-7-2.8c-4.62-1.94-9.08-4.22-13.5-6.54a255.92,255.92,0,0,1-25.4-15.84c-9.76-6.87-19.41-14.27-28.86-22-2.35-1.95-4.69-3.92-7-5.88l-6.95-6c-.59-.52-1.13-1-1.75-1.55a19.18,19.18,0,0,1-1.7-1.8,45.79,45.79,0,0,1-2.8-3.81,34.77,34.77,0,0,0-5.4-6.83,19.4,19.4,0,0,0-8.17-4.11,11.55,11.55,0,0,0-8.59,1.3,9.78,9.78,0,0,0-4.81,7.06,15.34,15.34,0,0,0,1.49,9,29.25,29.25,0,0,0,5.87,7.56c2.34,2.32,4.88,4.48,7.3,6.89l6.94,7.24c2.3,2.41,4.72,4.7,7.07,7.06,1.44,1.46,3,2.83,4.45,4.24s3,2.82,4.51,4.18c3.07,2.71,6.1,5.48,9.28,8.06s6.36,5.17,9.58,7.7,6.55,4.92,10,7.19c5.08,3.56,10.38,6.81,15.75,9.92s10.95,5.84,16.61,8.35a126.82,126.82,0,0,0,35.48,10,87.48,87.48,0,0,0,14.18.51c2.35-.1,4.68-.37,7-.7a55.31,55.31,0,0,0,6.8-1.52c1.1-.35,2.19-.72,3.24-1.16s2.09-1,3.14-1.47,2-1.14,3-1.73l1.41-1a12.48,12.48,0,0,0,1.37-1,26,26,0,0,0,8.13-10.64A28.07,28.07,0,0,0,365,411a36.77,36.77,0,0,0,.45-6v-1.38q0-.67-.09-1.32t-.09-1.26c-.05-.41-.1-.82-.14-1.21-.1-.8-.18-1.54-.32-2.18s-.31-1.34-.48-2c-.71-2.53-1.42-4.57-2-6.24-1.15-3.36-1.82-5.27-2.3-6.9a19.5,19.5,0,0,0-.84-2.12c-.14-.4,0-.44.57-.09a9.19,9.19,0,0,1,2.18,2.34,43.47,43.47,0,0,1,5.57,12.12,28.82,28.82,0,0,1,.79,3.32c.12,1.1.32,2.18.39,3.29s.18,2.22.16,3.35c0,.56,0,1.12,0,1.68l-.1,1.69a29.42,29.42,0,0,1-13.53,23.12c-.49.32-.95.67-1.45,1l-1.51.84a28.62,28.62,0,0,1-3.08,1.55c-.53.24-1,.49-1.58.71L346,436c-1.1.36-2.21.71-3.33,1-8.95,2.23-18.19,2.3-27.24,1.29A126.23,126.23,0,0,1,288.85,432a162.22,162.22,0,0,1-18.64-8c-3-1.48-6-3.14-8.95-4.77l-4.35-2.58c-1.47-.85-2.89-1.75-4.31-2.67-5.73-3.57-11.19-7.55-16.6-11.57s-10.58-8.35-15.63-12.81Z"/><path class="cls-1" d="M293.6,260.3q-2.53,5.59-5,11.26c-.59,1.38-1.08,2.8-1.68,4.17-2.14,4.84-4.24,9.69-6.24,14.59-.89,2.17-1.64,4.41-2.44,6.59a81.07,81.07,0,0,1-3.25,8.38c-.41.85-.95.53-1.29-.43a7.32,7.32,0,0,1-.06-4.23,121.85,121.85,0,0,1,6.3-17.3c1.53-3.38,2.69-7,4.08-10.56,1.53-3.86,3.2-7.68,4.85-11.49l3.09-7c.8-1.76,1.61-3.53,2.41-5.3s1.64-3.52,2.4-5.28c1.25-2.73,2.24-5.52,3.57-8.2.29-.59.52-1.19.84-1.78a8.45,8.45,0,0,1,1.53-2.14,2.13,2.13,0,0,1,1.45-.49,3.78,3.78,0,0,1,.68,0c.34.07.5.39.54.92a4.75,4.75,0,0,1-.39,2.08c-.49,1.2-.95,2.44-1.43,3.69s-1,2.49-1.51,3.74c-1.11,2.48-2.24,5-3.36,7.51-1.69,3.74-3.4,7.51-5,11.31Z"/><path class="cls-1" d="M312.58,266.59q-2.41,5.09-4.7,10.23c-.55,1.26-1,2.55-1.58,3.8l-5.86,13.29c-.87,2-1.66,4-2.5,5.94-.53,1.27-1.07,2.54-1.69,3.78a28.67,28.67,0,0,1-2,3.62c-.48.73-.79.41-.85-.45a8.9,8.9,0,0,1,.65-3.67l.77-1.92c.24-.65.48-1.3.74-1.94l1.6-3.85c1.08-2.56,2.16-5.15,3.33-7.71,1.4-3.06,2.53-6.39,3.82-9.59q2.13-5.28,4.39-10.51c.92-2.15,1.88-4.28,2.85-6.42,1.46-3.23,3-6.42,4.56-9.6,1.22-2.47,2.23-5,3.52-7.41.28-.54.53-1.07.86-1.59,1.28-1.9,1.89-2.36,2.87-2.24a3.27,3.27,0,0,1,.66.1c.66.22.62,1.3-.05,2.74-.25.54-.52,1.05-.76,1.61s-.47,1.11-.75,1.64c-.54,1.08-1.1,2.15-1.63,3.27L319.13,253c-.55,1.12-1.1,2.25-1.66,3.38L315,261.49l-2.38,5.13Z"/><path class="cls-1" d="M345.45,200.44c2.67.95,5.35,1.86,8.08,3,.68.29,1.37.59,2.06.95a12.48,12.48,0,0,1,2.15,1.36,4.15,4.15,0,0,1,1.17,1.41,5.29,5.29,0,0,1,.32.89,7,7,0,0,1,.14.72,11.88,11.88,0,0,1,0,2.52,29.93,29.93,0,0,1-1.25,6.46A51.6,51.6,0,0,1,353.58,228a45.15,45.15,0,0,1-6.77,9,34,34,0,0,1-7.9,6.16,22,22,0,0,1-6.08,2.27,17.45,17.45,0,0,1-6.48.14c-1.33-.24-1-.87.1-1.43a23.32,23.32,0,0,1,5.06-1.66,23.65,23.65,0,0,0,10.13-5.2,43,43,0,0,0,7.87-9,42,42,0,0,0,5.89-13.69,21.93,21.93,0,0,0,.63-3.91A7.08,7.08,0,0,0,356,209a.92.92,0,0,0-.16-.39c0-.06-.08-.07-.16-.15a2.22,2.22,0,0,0-.32-.24,18.55,18.55,0,0,0-3.51-1.77c-1.29-.52-2.62-1-3.95-1.48l-9.94-3.48c-5-1.8-10-3.82-14.86-6-3.77-1.7-7.49-3.36-11.08-5.38-.8-.44-1.58-.87-2.35-1.36a13.11,13.11,0,0,1-2.87-2.19,3.93,3.93,0,0,1-.52-.91,3.84,3.84,0,0,1-.16-.85c0-.24-.1-.5-.1-.66s.35-.29,1.06-.24a6.29,6.29,0,0,1,2.66,1,167.76,167.76,0,0,0,19.86,9.67c5.18,2.12,10.51,4,15.92,5.82Z"/><path class="cls-1" d="M295.22,206.38a41,41,0,0,0-1.44,8,29.43,29.43,0,0,0,0,3,23.24,23.24,0,0,0,2.37,10.08,16.64,16.64,0,0,0,2.67,3.81,49,49,0,0,0,4.49,4c.48.43.17.8-.56.91a4.16,4.16,0,0,1-3-.75,19,19,0,0,1-7.75-10.94,35.9,35.9,0,0,1-1.35-8.11,38.61,38.61,0,0,1,.91-8.87c.4-1.77.9-3.52,1.46-5.23a76.86,76.86,0,0,1,3.05-7.58c.86-1.91,1.64-3.84,2.61-5.71.22-.41.4-.83.64-1.23.91-1.48,1.45-1.79,2.36-1.57a4.16,4.16,0,0,1,.63.17c.64.28.69,1.16.18,2.24-1.51,3.23-3.16,6.54-4.59,10a58.73,58.73,0,0,0-2.67,7.83Z"/><path class="cls-1" d="M366.79,184.23l-2,4.61c-.23.56-.41,1.15-.65,1.71-.87,2-1.78,3.92-2.71,5.87-.4.87-.79,1.75-1.15,2.63a13.7,13.7,0,0,1-1.79,3.21c-.24.3-.52.09-.71-.38a2.62,2.62,0,0,1-.09-1.81,30.87,30.87,0,0,1,1.37-3.37c.49-1.12,1-2.22,1.57-3.33a39.81,39.81,0,0,0,1.6-4.24l1.74-4.7,1.07-2.9c.51-1.47,1.1-2.93,1.57-4.41.37-1.16.59-2.34.94-3.49.08-.26.13-.51.22-.76.35-.94.64-1.16,1.36-1.09a2.52,2.52,0,0,1,.48.05c.53.11.79.65.7,1.37a30.37,30.37,0,0,1-.64,3.21c-.31,1.05-.68,2.1-1.06,3.15-.55,1.57-1.2,3.12-1.81,4.68Z"/><path class="cls-1" d="M367.71,152.59a2,2,0,0,1,.86,0,1.67,1.67,0,0,1,.91.66A5.29,5.29,0,0,1,370,156a14.68,14.68,0,0,1-.21,2.16l-.2,1.18c-.07.4-.18.81-.27,1.21l-.28,1.21-.22.77-.38,1.36c-.38,1.31-.73,2.62-1.16,3.91-1.54,4.53-3.28,9-5,13.39L360,187.07a67.62,67.62,0,0,1-3.29,7.39c-.41.75-.66.5-.71-.29a10.75,10.75,0,0,1,.52-3.62c1.59-5.24,3.64-10.28,5.67-15.41,1.23-3,2.16-6.35,3.11-9.56l.77-2.65.53-2a8.48,8.48,0,0,0,.4-2.52,1.17,1.17,0,0,0-.09-.42c-.13,0-.2.1-.29.17a7.09,7.09,0,0,0-.45.57c-.29.4-.58.86-.89,1.36l-.34.57-.63,1.1L363.06,164c-.85,1.51-1.67,3-2.44,4.56-1.21,2.38-2.21,4.8-3.29,7.2-.26.52-.48,1-.75,1.56-1,1.93-1.43,2.45-2.08,2.69a2.24,2.24,0,0,1-.41.17c-.21,0-.3-.19-.3-.63a6.44,6.44,0,0,1,.31-1.86c.35-1.16.71-2.32,1.11-3.48s.93-2.27,1.43-3.4c1-2.27,2.08-4.53,3.21-6.78.43-.83.85-1.67,1.3-2.49l1.52-2.64c.93-1.56,1.86-3.15,2.77-4.43a7.8,7.8,0,0,1,1.29-1.48,2.67,2.67,0,0,1,1-.52Z"/><path class="cls-1" d="M346.72,161.18c1.15-1.78,2.33-3.55,3.58-5.29a35.87,35.87,0,0,1,3-3.67,5,5,0,0,1,3-1.82,1.75,1.75,0,0,1,.81.11,1.58,1.58,0,0,1,.69.58,4.12,4.12,0,0,1,.38,1.27,5.33,5.33,0,0,1-.2,1.55l-.2.79-.28.84c-.17.57-.37,1.11-.57,1.65l-.5,1.32-.37,1-1.52,3.77-3.1,7.49c-.89,2.23-1.79,4.46-2.68,6.67L347,181.64c-.55,1.43-1.3,2.78-2,4.15-.45.84-.6.64-.57-.22a17.09,17.09,0,0,1,.14-1.73c0-.36.1-.74.17-1.14l.12-.62c.07-.2.13-.4.2-.61,1-2.94,2.05-5.88,3.16-8.79s2.31-5.8,3.53-8.69c.69-1.65,1.32-3.35,1.92-5.07l.67-2c.09-.28.19-.57.27-.85,0-.09,0-.13.07-.2a1,1,0,0,0,.06-.58c-.1-.21-.32-.06-.44,0a5.05,5.05,0,0,0-.78.76l-.39.47-.88,1.18c-.61.85-1.2,1.71-1.79,2.58-1.44,2.14-2.83,4.33-4.17,6.55-2,3.36-4,6.77-5.82,10.23-1.39,2.69-2.59,5.42-3.78,8.16-.26.6-.49,1.2-.79,1.79a16.72,16.72,0,0,1-1.25,2.29,2.54,2.54,0,0,1-1,.84,3.23,3.23,0,0,1-.46.19c-.22,0-.31-.2-.31-.69a7.66,7.66,0,0,1,.38-2.1,55.24,55.24,0,0,1,3.09-7.74c1.19-2.56,2.5-5.1,3.85-7.62,2-3.74,4.18-7.43,6.43-11.06Z"/><path class="cls-1" d="M339.78,160c-1.14,1.89-2.26,3.8-3.32,5.74-.39.71-.7,1.45-1.08,2.17-1.34,2.51-2.68,5-3.93,7.58-.57,1.13-1,2.31-1.54,3.45a29.92,29.92,0,0,1-2.19,4.34c-.29.43-.58.21-.77-.34a4.09,4.09,0,0,1-.07-2.34,43.52,43.52,0,0,1,3.78-9.14c.95-1.75,1.63-3.71,2.47-5.57.89-2,1.84-4.07,2.82-6.09.61-1.24,1.2-2.48,1.85-3.7,1-1.86,2-3.68,2.95-5.54.71-1.46,1.28-3,2.13-4.38.18-.32.33-.64.54-1,.8-1.13,1.31-1.33,2.12-1a4.48,4.48,0,0,1,.55.21c.56.32.66,1.09.34,1.93-.46,1.29-.94,2.62-1.47,4s-1.28,2.6-2,3.89l-1.53,2.92-.77,1.47-.83,1.44Z"/><path class="cls-1" d="M324.69,149.14c1.32-2,2.67-3.93,4.13-5.84l.55-.72c.1-.13.16-.22.29-.37l.39-.45.78-.9c.06-.07.12-.15.19-.22l.29-.22.57-.45a2.92,2.92,0,0,1,1.17-.65,3.09,3.09,0,0,1,1.2-.14,2.29,2.29,0,0,1,1.91,1.32,2.84,2.84,0,0,1,.2,1.66l-.47,1.51-.95,3-.21.67-.21.55-.4,1.06-.81,2.13-1.67,4.23c-1.15,2.81-2.31,5.61-3.51,8.39L325,171.15c-.67,1.58-1.3,3.16-1.93,4.74l-.9,2.35a12.06,12.06,0,0,0-.73,2.33c-.05.89-.26,1-.65,0a9.29,9.29,0,0,1-.12-3.37,9.53,9.53,0,0,1,.38-1.41c2.38-6.69,5.16-13,7.88-19.47.83-1.93,1.56-3.94,2.28-6l1.87-5.56.45-1.3.08-.25c0-.05,0-.1,0-.16a.59.59,0,0,0,0-.32.42.42,0,0,0-.54-.2,1.39,1.39,0,0,0-.54.36,5,5,0,0,0-.37.42l-.42.49-1.06,1.36c-.7.93-1.39,1.89-2.06,2.85-1.66,2.36-3.25,4.8-4.78,7.26a129.58,129.58,0,0,0-6.43,11.48,66,66,0,0,0-3.68,9.29c-.22.69-.47,1.36-.64,2.06-.77,2.58-.9,3.36-1.56,3.9a4.27,4.27,0,0,1-.42.36c-.21.12-.37-.11-.47-.64a6.51,6.51,0,0,1-.1-1,6.43,6.43,0,0,1,.09-1.41c.13-.77.24-1.55.39-2.33s.39-1.53.58-2.3.5-1.5.76-2.26.53-1.51.85-2.24c1.2-3,2.62-5.86,4.12-8.71,2.24-4.22,4.72-8.33,7.32-12.36Z"/><path class="cls-1" d="M316.87,214.11c2.8,1.37,5.61,2.71,8.45,4,1,.46,2.11.84,3.15,1.31,3.65,1.63,7.33,3.24,11,4.73,1.65.65,3.34,1.24,5,1.75,2.16.7,4.4,1.07,6.43,2.17.64.33.43.78-.3,1.2a6.63,6.63,0,0,1-1.45.57,4.66,4.66,0,0,1-.92.16,4,4,0,0,1-1-.13,72.71,72.71,0,0,1-13.27-4.78c-2.55-1.22-5.33-2.14-8-3.26-2.91-1.24-5.8-2.54-8.66-3.87l-5.29-2.49-7.95-3.86c-2.05-1-4.15-1.78-6.21-2.73a9.73,9.73,0,0,1-1.34-.65c-1.57-1-2-1.53-1.92-2.39,0-.18,0-.37,0-.52.07-.46,1-.64,2.34-.23a37.81,37.81,0,0,1,5.7,2.23c1.87.86,3.77,1.76,5.66,2.67,2.82,1.33,5.63,2.74,8.48,4.06Z"/><path class="cls-1" d="M306.4,201.11a15.11,15.11,0,0,1,.68-1.4c.08-.16.12-.35.21-.51.32-.57.66-1.12.95-1.68a3.26,3.26,0,0,0,.29-.79,2,2,0,0,1,.36-1c.17-.19,1.54.51,1.44.95a5.77,5.77,0,0,1-1,2.07,6.24,6.24,0,0,0-.57,1.23l-.63,1.35c-.13.27-.26.54-.37.82a7.44,7.44,0,0,0-.41,1.29,3.05,3.05,0,0,0,0,.52,2.15,2.15,0,0,1,0,.51c0,.08,0,.15,0,.22-.05.28-.19.36-.46.41l-.18,0a.51.51,0,0,1-.5-.34,3.07,3.07,0,0,1-.21-2.16,12.58,12.58,0,0,1,.42-1.55Z"/><path class="cls-1" d="M315.2,203.18c.17-.36.41-.69.59-1,.08-.13.11-.27.19-.39.26-.44.54-.87.79-1.31a3.12,3.12,0,0,0,.26-.62,1.61,1.61,0,0,1,.36-.77c.14-.14,1.09.53,1,.84a5.11,5.11,0,0,1-.81,1.55,5.4,5.4,0,0,0-.46,1c-.17.35-.35.7-.53,1.06l-.36.63a10.1,10.1,0,0,0-.49,1c-.11.26-.17.54-.26.8a1.27,1.27,0,0,0-.06.18c-.1.21-.24.23-.45.2l-.14,0a.42.42,0,0,1-.29-.38,3.9,3.9,0,0,1,.2-1.6c.13-.38.29-.74.44-1.11Z"/><path class="cls-1" d="M321.65,207.06c.15-.26.31-.51.46-.78.05-.1.06-.22.11-.32l.63-1a1.8,1.8,0,0,0,.17-.51c.06-.22,0-.49.29-.63s1.45.68,1.38.9a2.93,2.93,0,0,1-.67,1.14,2.29,2.29,0,0,0-.35.76c-.13.28-.27.57-.42.85L323,208c-.13.27-.31.52-.42.79s-.08.48-.2.68a.61.61,0,0,1-.07.14c-.12.15-.24.15-.53,0l-.19-.09a.76.76,0,0,1-.38-.44,1.84,1.84,0,0,1,.07-1.22,4.54,4.54,0,0,1,.35-.79Z"/><path class="cls-1" d="M338.06,214.76l.35-.52c0-.06,0-.14.08-.2.15-.22.33-.43.47-.65a.57.57,0,0,0,.09-.33c0-.15-.05-.33.16-.41s1.56.58,1.53.74a1.19,1.19,0,0,1-.51.76c-.17.12-.16.32-.25.49s-.2.35-.3.52-.13.22-.18.33-.17.34-.23.51a2.26,2.26,0,0,0,0,.45s0,.07,0,.1-.14.12-.51,0l-.24-.06a1.14,1.14,0,0,1-.57-.31,1.17,1.17,0,0,1-.19-.9,4.72,4.72,0,0,1,.24-.56Z"/><path class="cls-1" d="M267.48,266c1-5.68,1.67-11.41,2.27-17.16.25-2.1.3-4.21.51-6.31q1-11.12,1.48-22.31c.16-3.31.21-6.64.27-9.93a85.91,85.91,0,0,1,.83-12.7c.19-1.32.63-1.09,1,.06a19.64,19.64,0,0,1,.87,5.63c0,4.29-.14,8.59-.24,12.91s-.33,8.65-.66,13c-.37,5.2-.49,10.64-.9,16-.42,5.86-1.13,11.7-1.94,17.52-.24,1.79-.59,3.57-.87,5.36s-.57,3.57-1,5.34c-1,5.38-2.35,10.74-3.86,16l-1.75,6.07q-1,3-2.06,5.95a22.07,22.07,0,0,1-1,2.58c-.37.78-.7,1.43-1,2a9.62,9.62,0,0,1-.92,1.21,4,4,0,0,1-1.37,1.12,5.4,5.4,0,0,1-.54.27c-.24,0-.28-.27-.22-.93a19,19,0,0,1,.57-2.88c1.42-3.36,2.53-7,3.83-10.54,1-3.67,2.28-7.32,3.12-11.12l1.05-4.2.86-4.26c.28-1.43.62-2.84.85-4.27l.69-4.3Z"/><path class="cls-1" d="M239.12,238.35c1.31-4.65,2.76-9.25,4.26-13.82.54-1.67,1-3.35,1.6-5,2-5.85,4.28-11.6,6.5-17.35,1-2.55,1.91-5.15,2.81-7.7,1.09-3.31,2.38-6.57,3.67-9.76.4-1,.79-.76,1,.27a11.23,11.23,0,0,1-.31,4.8c-.92,3.48-2.23,6.79-3.43,10.14s-2.5,6.67-3.83,10c-1.58,4-2.9,8.24-4.28,12.39-1.53,4.57-3,9.15-4.34,13.77q-1.26,4.26-2.32,8.57a127.17,127.17,0,0,0-2.61,13.14,69.57,69.57,0,0,0-.5,10.16c0,.74.05,1.47.06,2.21,0,2.76,0,3.63-.67,4.31a4.68,4.68,0,0,1-.4.45c-.41.33-1.05-.76-1.44-2.88l-.36-2.37c-.07-.79-.09-1.6-.12-2.41,0-1.61,0-3.24.12-4.86a83,83,0,0,1,1.23-9.78c.86-4.81,2-9.57,3.28-14.28Z"/><path class="cls-1" d="M282.36,183.71a8.36,8.36,0,0,1-1.22,3.37,5.58,5.58,0,0,1-.6.78c-.24.24-.49.47-.74.69a5.65,5.65,0,0,1-1.8.87,7.46,7.46,0,0,1-1.71.32c-.54.06-1.06.08-1.59.09a26.17,26.17,0,0,1-3.08-.13,35.82,35.82,0,0,1-4.4-.61,35,35,0,0,1-7.41-2.45,15.66,15.66,0,0,1-6.34-4.83,6.49,6.49,0,0,1-1.17-3.6,10.61,10.61,0,0,1,.75-3.53,12.89,12.89,0,0,1,2.2-4,6,6,0,0,1,4.18-2.24c1,0,.8.51.17,1.09s-1.44,1.38-2.32,2.35a10.19,10.19,0,0,0-1.94,3.23,14.26,14.26,0,0,0-.62,1.88c-.09.34-.1.57-.16.84a4.92,4.92,0,0,0,0,.77,5.07,5.07,0,0,0,1.59,3,15.44,15.44,0,0,0,3.2,2.39,29.16,29.16,0,0,0,9.87,3,30.24,30.24,0,0,0,5.68.37,8.86,8.86,0,0,0,2.57-.38,3.29,3.29,0,0,0,1.64-1.47,7.39,7.39,0,0,0,.77-3.1,16.7,16.7,0,0,0-.17-3.45,18.47,18.47,0,0,0-.61-2.63c0-.08-.06-.16-.09-.25s0-.09-.06-.11l-.13,0a4.7,4.7,0,0,1-.51.12l-.87.13q-.51.06-1,.09a23.17,23.17,0,0,1-4-.13,22.81,22.81,0,0,1-8.44-2.44,14.5,14.5,0,0,1-1.69-1c-2-1.48-2.32-2.28-2.16-3.1a2.45,2.45,0,0,0,.06-.6c0-.09-.08-.16,0-.22s.16-.12.39,0a1.56,1.56,0,0,1,.57.1,8.54,8.54,0,0,1,1.65.92,22.42,22.42,0,0,0,6.37,3,23.07,23.07,0,0,0,7.15.83c.29,0,.57,0,.84-.08a8.22,8.22,0,0,0,1.18-.22,3.57,3.57,0,0,1,.47-.11l.42.07a2.68,2.68,0,0,1,.68.26l.27.12h0l.19-.36h0l0,0,.07.07.14.12.28.25.14.13.11.19a17.38,17.38,0,0,1,.66,1.84,11.55,11.55,0,0,1,.28,1.13,19.28,19.28,0,0,1,.36,2.15,17.09,17.09,0,0,1,0,4.46Z"/><path class="cls-1" d="M290.11,164a20.18,20.18,0,0,1-12.3,6.25,25.81,25.81,0,0,1-13.47-1.8,22.22,22.22,0,0,1-8.23-5.71c-4-4.46-5.58-11.22-3.31-16.86a38.35,38.35,0,0,1,3.9-7.63c1.57-2.4,3.32-4.57,5.05-6.75a93.18,93.18,0,0,0,8.43-11.93c3.05-5.32,4.71-11.46,3.26-17.34-.44-1.82.05-1.82,1.05-.36a10.09,10.09,0,0,1,.82,1.37c.23.57.46,1.22.7,2,.06.18.12.37.17.56l.09.61c.06.41.12.84.17,1.28a10.27,10.27,0,0,1-.08,2.81,29.94,29.94,0,0,1-3.35,9.57,66.36,66.36,0,0,1-5.39,8.27c-1.94,2.61-4,5.1-5.91,7.62-1,1.27-1.92,2.51-2.76,3.81s-1.65,2.65-2.36,4a21.11,21.11,0,0,0-2,5.13,9.63,9.63,0,0,0-.24,2.63,10.24,10.24,0,0,0,.09,1.36,8.83,8.83,0,0,0,.22,1.35,15.58,15.58,0,0,0,5.91,9A22.56,22.56,0,0,0,272,167.7a20.1,20.1,0,0,0,12-2.2c4.51-2.39,7.33-7.09,8.87-12a39.12,39.12,0,0,0,1.3-5.79,45.26,45.26,0,0,0,.42-5.94,36.68,36.68,0,0,0-1.76-11.66,80.94,80.94,0,0,0-8.05-16.42c-.71-1.13-1.46-2.2-2.23-3.3-1.41-2-2.43-3.27-3.07-4.17a14.3,14.3,0,0,1-1.18-2,4.58,4.58,0,0,0-.46-.69c-.08-.16,0-.26.21-.3a2.26,2.26,0,0,1,1.17.2,9.38,9.38,0,0,1,3.65,2.76,68.64,68.64,0,0,1,9.34,14.6,62.82,62.82,0,0,1,3.38,8.27,38,38,0,0,1,1.76,9,42,42,0,0,1,0,6.82,40.65,40.65,0,0,1-1,6.75,32.17,32.17,0,0,1-2.26,6.53,23.15,23.15,0,0,1-3.85,5.9Z"/><path class="cls-1" d="M279.14,116.51a15.61,15.61,0,0,0,.2-3c0-.37-.09-.73-.13-1.1a18.89,18.89,0,0,0-.7-3.91,8.29,8.29,0,0,0-.31-.83l-.41-.78a11.61,11.61,0,0,1-1.13-1.93c-.07-.23.34-.54.87-.68a1.47,1.47,0,0,1,1.51.3,10.08,10.08,0,0,1,2,4.8c.11,1,.47,2,.58,3.09a16.68,16.68,0,0,1,0,3.46,18.75,18.75,0,0,1-.28,2.11c-.14.52-.27,1-.43,1.55s-.34,1-.55,1.51-.29.78-.43,1.17-.37.74-.57,1.11a2.65,2.65,0,0,1-.31.46c-.45.52-.71.59-1.14.4a2.39,2.39,0,0,1-.28-.13.87.87,0,0,1-.23-1c.24-.63.33-1.32.55-1.91s.41-1.2.54-1.84a28,28,0,0,0,.56-2.84Z"/><path class="cls-1" d="M284.94,116.12a6,6,0,0,0,.09-1.94,6.15,6.15,0,0,0-.18-.71,9.9,9.9,0,0,0-1-2.56,5.83,5.83,0,0,0-.72-1,4.71,4.71,0,0,1-1-1.34c-.14-.34,1.26-1,1.78-.55a7.27,7.27,0,0,1,2.08,3c.22.74.67,1.39.85,2.18a7.47,7.47,0,0,1,.23,2.58,10,10,0,0,1-.23,1.55,15.58,15.58,0,0,1-.76,2.18c-.22.53-.34,1.11-.56,1.65-.05.12-.08.24-.14.36-.23.42-.44.47-.91.29a3,3,0,0,1-.32-.12.84.84,0,0,1-.49-.84,21.15,21.15,0,0,1,.69-2.77,9.7,9.7,0,0,1,.28-1c.07-.31.16-.63.2-1Z"/><path class="cls-1" d="M274,171.86a23.23,23.23,0,0,1-4.81-1c-.56-.19-1.15-.29-1.69-.53a23.83,23.83,0,0,1-2.79-1.34c-.46-.23-.89-.5-1.33-.76l-.65-.41-.3-.22a6.7,6.7,0,0,0-.61-.42c-.05,0,0,0-.06.08l0,.13-.05.27a3.24,3.24,0,0,0-.06.4,2.58,2.58,0,0,1-.1.51,6,6,0,0,1-.61,1.56c-.37.61-2.59-1-2.25-2.2l.7-2.38c.28-.92.57-1.84.86-2.76l1.68,1.26,1.6,1.15.39.25.23.16.38.27.76.55a15.15,15.15,0,0,0,3.65,1.62,24.21,24.21,0,0,0,4.26,1.09,16.19,16.19,0,0,0,2.7.16,7,7,0,0,0,1,0c.37,0,.58-.05,1.2-.15,1-.19,2-.5,2.95-.68-.08.77-.11,1.5-.14,2.3l0,1.23v.89c0,.24,0,.48,0,.73-.06.9-.27,1.16-1,1.27a2.74,2.74,0,0,1-.5.07c-.55,0-1-.39-1.05-1.07-.14-.87-.09-2.47-.21-2.09a.09.09,0,0,0-.1,0h0l-.18,0c-.43,0-.85.13-1.28.15a23.89,23.89,0,0,1-2.54,0Z"/><path class="cls-1" d="M205.54,188.21c1.93,3.69,3.81,7.37,5.56,11.19.22.48.43,1,.64,1.48a8.37,8.37,0,0,1,.3.89,6.39,6.39,0,0,1,.22.94,8,8,0,0,1,.06,1.89l-.09.92-.2.87a17.62,17.62,0,0,1-3,6,37.55,37.55,0,0,1-6.44,6.81,52.4,52.4,0,0,1-14,8.29,34.3,34.3,0,0,1-8,2.12,18,18,0,0,1-8.35-.7,15.24,15.24,0,0,1-1.75-.8c-.55-.31-1.07-.71-1.6-1.07s-1-.87-1.39-1.34-.78-1-1.15-1.45c-1.43-1.93-2.75-3.88-4.07-5.82-3.31-5-6.7-10.05-9.53-15.36-.86-1.67-.37-1.68.93-.63a26.78,26.78,0,0,1,5.32,6.06l5.09,7.64c1.69,2.51,3.38,5.14,5.14,7.42a11.91,11.91,0,0,0,1.34,1.4,9.67,9.67,0,0,0,1.62,1,10.39,10.39,0,0,0,1.83.72c.33.09.66.14,1,.22a5.7,5.7,0,0,0,1,.15,19.52,19.52,0,0,0,4.25,0,30.83,30.83,0,0,0,4.31-.89,39.53,39.53,0,0,0,10-4.46,50.39,50.39,0,0,0,8.75-6.8,29.43,29.43,0,0,0,3.89-4.56,14.14,14.14,0,0,0,2.36-5.18,5.82,5.82,0,0,0-.1-2.57,7.79,7.79,0,0,0-.49-1.32l-.63-1.4c-.88-1.86-1.81-3.72-2.75-5.57-2.33-4.54-4.73-9.06-7.32-13.44-.5-.82-1-1.65-1.51-2.44l-.39-.6-.35-.5a2.35,2.35,0,0,0-.49-.58,5,5,0,0,0-.71.32l-1.27.63L191,179c-3.42,1.81-6.82,3.67-10.16,5.57-5.19,3-10.17,6.06-15.15,9.23L162.42,196c-4.09,2.61-5.44,3.32-6.69,3.34a4,4,0,0,1-.84,0c-.7-.15.65-1.72,3.56-3.85a290.22,290.22,0,0,1,28.22-17.23c1.83-1,3.67-2,5.54-3l1.5-.77c.47-.22.94-.47,1.4-.63l.18-.06h.16a1.13,1.13,0,0,1,.32.06l.28.09.14,0h.06c.12-.47,0-.13.06-.23h0l.07.05,1.06.82a5.79,5.79,0,0,1,.93,1.14c.33.46.62.91.91,1.37,2.3,3.62,4.31,7.28,6.3,11Z"/><path class="cls-1" d="M184.35,168.94l-1.76-3.88-.67-1.4c-.76-1.65-1.53-3.31-2.36-4.93-.36-.72-.76-1.42-1.15-2.12-.52-.89-1.06-1.77-1.54-2.68-.3-.57.52-.12,1.19.87a54.38,54.38,0,0,1,3.16,5.5c.57,1.14,1.23,2.29,1.84,3.44l2,3.81,1.21,2.33c.62,1.17,1.25,2.35,1.93,3.48.54.87,1.16,1.67,1.77,2.47l.41.53c.49.67.53.95.21,1.37-.08.1-.15.2-.23.29-.28.27-.73.16-1.14-.32a23.35,23.35,0,0,1-3-4.85c-.64-1.29-1.24-2.6-1.86-3.89Z"/><path class="cls-1" d="M177.5,169.5c-.75-1.68-1.46-3.26-2.29-4.87-.3-.58-.66-1.13-1-1.72-1.06-2-2.15-4.11-3.25-6.16-.49-.91-1-1.8-1.54-2.69a21.72,21.72,0,0,1-1.8-3.53c-.29-.78,1.31-.42,2.09.85,1.34,2.29,2.73,4.54,4,6.94.75,1.44,1.73,2.82,2.57,4.25s1.81,3.18,2.65,4.82c.5,1,1,2,1.55,3,.8,1.49,1.59,3,2.44,4.47.66,1.14,1.42,2.2,2.11,3.33.15.25.32.49.46.75.38,1,.31,1.43-.18,1.88a4,4,0,0,1-.31.29c-.35.25-.94,0-1.46-.57a7.33,7.33,0,0,1-1-1.41c-.31-.49-.61-1-.9-1.51-.58-1-1.14-2.08-1.71-3.15q-1.26-2.4-2.48-4.89Z"/><path class="cls-1" d="M173.19,173.7c-.62-1.58-1.3-3.15-2.05-4.68-.26-.57-.59-1.1-.86-1.66-1-2-2-3.93-3.1-5.86-.49-.85-1-1.69-1.53-2.51a36.23,36.23,0,0,1-1.93-3.23c-.36-.7.9-.32,1.74.86a72.25,72.25,0,0,1,4.11,6.51c.74,1.35,1.65,2.69,2.44,4.07s1.68,3.07,2.44,4.64c.47,1,.91,2,1.34,2.94.66,1.5,1.22,3,1.82,4.55.46,1.17,1,2.31,1.45,3.48a8.15,8.15,0,0,1,.3.77,2.3,2.3,0,0,1,.16,1.09,1.19,1.19,0,0,1-.53.63,3.75,3.75,0,0,1-.36.24.69.69,0,0,1-.66-.06,1.47,1.47,0,0,1-.64-.7,60.73,60.73,0,0,1-2.4-6.27c-.54-1.6-1.13-3.21-1.78-4.79Z"/><path class="cls-1" d="M165.26,178.17c-.55-1.46-1.12-2.92-1.77-4.36-.23-.52-.54-1-.77-1.53-.85-1.84-1.63-3.73-2.58-5.54-.41-.81-.87-1.59-1.33-2.36a24.19,24.19,0,0,1-1.71-3c-.14-.33.12-.44.52-.33A2.61,2.61,0,0,1,159,162a42.46,42.46,0,0,1,3.87,6c.65,1.27,1.53,2.49,2.21,3.79s1.47,2.88,2.14,4.35l1.2,2.73c.56,1.4,1.13,2.79,1.69,4.18.46,1.06,1,2,1.58,3.09.12.22.25.44.35.67a1.54,1.54,0,0,1,.18,1,1.46,1.46,0,0,1-.63.69c-.15.1-.29.21-.44.29a1.08,1.08,0,0,1-.81.06,1.3,1.3,0,0,1-.77-.55,31.76,31.76,0,0,1-2.71-5.63c-.57-1.46-1.08-3-1.67-4.41Z"/><path class="cls-1" d="M159,179.33l-2.28-5c-.28-.6-.62-1.18-.9-1.78l-2.94-6.4c-.45-.93-.94-1.86-1.44-2.76-.64-1.15-1.31-2.3-1.86-3.5-.16-.38.09-.47.51-.32a3.24,3.24,0,0,1,1.46,1.19,56.4,56.4,0,0,1,4.1,7.06c.67,1.5,1.58,2.94,2.35,4.42l2.52,4.91,1.53,3c.79,1.52,1.55,3.07,2.39,4.55.66,1.14,1.44,2.19,2.18,3.28a6,6,0,0,1,.46.73c.49.95.48,1.34,0,1.86a3.68,3.68,0,0,1-.33.35c-.4.33-1,.15-1.54-.45a11.71,11.71,0,0,1-1.16-1.39c-.34-.5-.66-1-1-1.54-.61-1.05-1.18-2.14-1.73-3.25-.83-1.64-1.6-3.31-2.4-5Z"/><path class="cls-1" d="M153.38,185.4c-.7-1.5-1.43-3-2.21-4.46-.28-.53-.62-1-.9-1.57-1-1.92-1.9-3.86-2.9-5.76-.45-.84-.93-1.66-1.41-2.48a30.89,30.89,0,0,1-1.73-3.21c-.15-.35.06-.41.42-.25a3.54,3.54,0,0,1,1.28,1.11,73.63,73.63,0,0,1,4,6.23c.71,1.32,1.69,2.54,2.46,3.85s1.71,2.91,2.53,4.38l1.48,2.74c.74,1.39,1.43,2.82,2.18,4.19.58,1.07,1.29,2.05,1.87,3.12.14.23.28.45.4.69a1.62,1.62,0,0,1,.23,1.05,1.2,1.2,0,0,1-.47.7c-.12.11-.23.22-.35.31-.41.27-1,.08-1.52-.46a22.42,22.42,0,0,1-1.81-2.71c-.53-1-1-2-1.47-3-.71-1.49-1.41-3-2.16-4.48Z"/><path class="cls-1" d="M145.77,188.26q-1.23-2.14-2.41-4.32c-.3-.53-.64-1-.91-1.56-1-1.87-1.86-3.81-2.77-5.72-.4-.85-.85-1.68-1.29-2.49a17.44,17.44,0,0,1-1.55-3.23c-.23-.72,1.6-.58,2.31.58a71.09,71.09,0,0,1,3.38,6.41c.61,1.33,1.47,2.58,2.21,3.87s1.63,2.84,2.48,4.24c.52.86,1,1.73,1.59,2.57.82,1.29,1.64,2.59,2.56,3.8.72.93,1.51,1.79,2.27,2.67a7,7,0,0,1,.49.59c.55.79.59,1.14.26,1.65a1.9,1.9,0,0,1-.22.33c-.28.33-.81.24-1.39-.21a20.06,20.06,0,0,1-4.38-4.92c-.94-1.37-1.81-2.8-2.68-4.22Z"/><path class="cls-1" d="M178.46,150c-.33-.37-.66-.71-1-1.07l-.83-.83s-.07-.06-.1-.06h-.23l-.36,0c-.49,0-1-.06-1.43-.07a10.24,10.24,0,0,0-5.22,1.2,13.84,13.84,0,0,0-1.76,1.1l-.87.63-.44.32-.53.36a14.34,14.34,0,0,1-4,1.59,10.56,10.56,0,0,0-3.27,1.32,8,8,0,0,0-1.32,1.15L155.79,157a12.41,12.41,0,0,1-1.62,1.41,8.88,8.88,0,0,1-1.94,1c-2.37.87-4.73,1-6.63,1.93a16.35,16.35,0,0,0-6.15,5.65c-.53.74-.71.52-.61-.33a8.68,8.68,0,0,1,1.58-3.86,14.54,14.54,0,0,1,1.67-1.85c.31-.29.64-.56,1-.82a12.31,12.31,0,0,1,1.1-.66,17.79,17.79,0,0,1,4.62-1.57,12.42,12.42,0,0,0,3.74-1.36,21.83,21.83,0,0,0,3.14-2.84,13.9,13.9,0,0,1,1.19-1,9.26,9.26,0,0,1,1.37-.83,18.43,18.43,0,0,1,2.81-1,16.26,16.26,0,0,0,2.45-.92,7.14,7.14,0,0,0,1-.62l1.13-.82a13.71,13.71,0,0,1,9.22-3.06c.54,0,1.06,0,1.59.08l1.08.09c.29.23.64.5.88.71a59.84,59.84,0,0,1,5.14,5.74c2.43,3,4.65,6.15,6.77,9.33a83.46,83.46,0,0,1,4.67,7.53c.31.58.62,1.14.88,1.75s.39,1.06.53,1.46a8.78,8.78,0,0,1,.21,1.05,3,3,0,0,1,0,.73,2,2,0,0,1-.2.56c-.07.15-.12.33-.18.42-.15.28-1.05-.45-1.82-2-1.33-2.19-2.57-4.47-4-6.72s-2.92-4.48-4.49-6.68a114.78,114.78,0,0,0-7.53-9.43Z"/><path class="cls-1" d="M175.51,229.57l-.06,0h0l-.07-.07h0s-.05,0-.05,0a4.93,4.93,0,0,1,.13-.49s.06.05.08.12,0,0,.05.05l.06.06,0,0a.07.07,0,0,0,0,0l.06,0h0s0,0,0,.11v0a.93.93,0,0,1,0,.14.13.13,0,0,1-.11.07h-.06Z"/><path class="cls-1" d="M214.22,272c-2.52-4.54-5-9.09-7.53-13.57-.93-1.63-2-3.19-2.92-4.8-1.67-2.85-3.37-5.67-5.16-8.43a41.15,41.15,0,0,0-5.92-7.55,26.24,26.24,0,0,0-6.84-4.92,23.62,23.62,0,0,0-5-1.81c-.84-.24-1.7-.34-2.57-.51l-1.3-.14-1.33-.25c-1.13-.24-1.09-.61-.15-1.42A6.51,6.51,0,0,1,181,227l1.6.28c.52.11,1,.27,1.55.4a17,17,0,0,1,3,1.13,29.46,29.46,0,0,1,5.36,3.28,36.81,36.81,0,0,1,8.32,9l1,1.53.94,1.52,1.93,3c1.28,2,2.58,4.06,3.76,6.14,2.63,4.55,5.08,9.17,7.57,13.75,1.53,2.82,3,5.64,4.64,8.41,2.37,4.22,4.94,8.37,7.57,12.42,2.05,3.14,4.25,6.1,6.38,9.14.47.67.93,1.32,1.37,2,1.61,2.59,1.94,3.53,1.48,4.59a4.92,4.92,0,0,1-.24.66c-.27.52-1.66-.09-3-1.85-1.06-1.3-2.17-2.58-3.16-4s-2-2.77-3-4.19c-2-2.85-3.88-5.78-5.78-8.73-2.83-4.37-5.51-9-8.12-13.5Z"/><path class="cls-1" d="M231.18,269q-4.74-7.18-9.35-14.47c-1.11-1.79-2.31-3.51-3.39-5.31-1.91-3.17-3.78-6.36-5.55-9.62-.89-1.63-1.77-3.27-2.59-4.94a50.66,50.66,0,0,1-2.34-5.12,26.06,26.06,0,0,1-2-10,26.62,26.62,0,0,1,.91-6.44c.63-2.23,1.84-4,2.45-5.78.34-1.11.83-1,1.19.24a7.79,7.79,0,0,1,.11,2.55,28.16,28.16,0,0,1-.52,3.14c-.1.41-.15.94-.25,1.43s-.2,1-.3,1.47a24.06,24.06,0,0,0-.35,2.91,19.82,19.82,0,0,0,.46,5.74,33.35,33.35,0,0,0,1.94,5.67c.4.94.87,1.89,1.32,2.85s.88,1.92,1.37,2.86c2.22,4.58,5.15,9,7.89,13.49,3,4.9,6.14,9.75,9.29,14.58l5.88,8.88c3,4.46,6,9,9,13.35,2.37,3.41,4.82,6.67,7.2,10,.52.75,1.05,1.46,1.56,2.21,1.89,2.82,2.29,3.85,2,4.87a3.2,3.2,0,0,1-.19.68c-.33.58-1.48-.32-2.94-2.3-4.38-5.86-8.82-12.18-13.22-18.58-3.28-4.74-6.52-9.55-9.76-14.34Z"/><path class="cls-1" d="M259.36,178.09l.22-.41c0-.05,0-.11.06-.16s.22-.35.31-.51a.78.78,0,0,0,.07-.25c0-.11,0-.24.12-.31s.87.3.84.42a1.21,1.21,0,0,1-.36.6c-.11.11-.12.26-.18.38l-.22.42-.13.26a3.29,3.29,0,0,0-.17.39,2,2,0,0,0,0,.34v.07c0,.09-.09.1-.28,0l-.13,0a.41.41,0,0,1-.29-.19,1.21,1.21,0,0,1,0-.65c0-.15.12-.29.18-.43Z"/><path class="cls-1" d="M263.68,179.37l.28-.54c0-.07,0-.14.08-.2.14-.22.3-.43.44-.64a.7.7,0,0,0,.12-.3c0-.14,0-.3.2-.37s1.08.54,1,.67a1.31,1.31,0,0,1-.46.65c-.15.11-.15.28-.21.43s-.16.32-.24.48-.09.2-.12.3a1.7,1.7,0,0,0-.16.48,1.29,1.29,0,0,0,.08.38s0,.06,0,.08-.08.13-.36.14h-.19a.58.58,0,0,1-.46-.14,1.27,1.27,0,0,1-.23-.84,1.79,1.79,0,0,1,.13-.6Z"/><path class="cls-1" d="M273.76,181.18a2.58,2.58,0,0,0,0-.39s0-.08,0-.13a4.75,4.75,0,0,0,0-.54.31.31,0,0,0-.11-.18c-.08-.06-.22-.08-.12-.25s1.4-.88,1.5-.76a.77.77,0,0,1,.11.75c-.06.18.06.28.08.42a2.59,2.59,0,0,1,0,.48c0,.1,0,.2,0,.29a1.93,1.93,0,0,0,0,.42,1.42,1.42,0,0,0,.22.28s.05,0,.06.07-.07.13-.44.21l-.26.05a1.56,1.56,0,0,1-.64,0,.77.77,0,0,1-.51-.38c-.06-.1,0-.23,0-.35Z"/><path class="cls-1" d="M269.52,139.11a28.81,28.81,0,0,0-1.66,3.28,12,12,0,0,0-.42,1.28,13.24,13.24,0,0,0-.8,4.68,12.63,12.63,0,0,0,.24,2.13l.32,1.34c.15.44.27.88.38,1.34.06.29-.11.33-.38.18a2.63,2.63,0,0,1-1-1,12.56,12.56,0,0,1-1.05-2.88,5.73,5.73,0,0,1-.17-1.54,7.3,7.3,0,0,1,.08-1.55,29.51,29.51,0,0,1,.54-3.72c.18-.66.4-1.31.64-1.95a19.44,19.44,0,0,1,.88-1.84c.38-.75.82-1.45,1.25-2.16.67-1.05,1.4-2.07,2.14-3.05.57-.76,1.05-1.58,1.64-2.32a4.49,4.49,0,0,1,.41-.46c.57-.54.84-.63,1.23-.5a2,2,0,0,1,.26.08c.25.13.23.53,0,1.07l-.51,1.19c-.21.37-.43.73-.65,1.09-.42.73-.88,1.45-1.32,2.17-.72,1-1.4,2.07-2,3.15Z"/><path class="cls-1" d="M275.17,145a16.66,16.66,0,0,0-1,2.66c-.1.34-.12.68-.2,1a14,14,0,0,0-.39,3.66,9.11,9.11,0,0,0,.22,1.64c.14.69.38,1.35.48,2.07.07.44-.9.19-1.24-.62a11,11,0,0,1-.68-4.56c0-.48.05-.94.07-1.41a9.51,9.51,0,0,1,.16-1.41,16.47,16.47,0,0,1,.86-3c.22-.6.48-1.18.74-1.74.43-.86.9-1.68,1.35-2.51.35-.63.62-1.3,1-1.93.08-.14.15-.27.24-.41.33-.49.52-.59.86-.51a.86.86,0,0,1,.23.05c.24.09.28.41.14.82a30.5,30.5,0,0,1-1.59,3.55c-.44.86-.8,1.75-1.2,2.62Z"/><path class="cls-1" d="M165.33,207.07a3.32,3.32,0,0,0,2.69,2.29,2.74,2.74,0,0,0,3-2.08,1.87,1.87,0,0,0-3.61-1c-.08.3.08-.15.16-.24s.34-.29.29-.26,0,0,.24-.1l.32,0c-.31,0,.4.08.17,0-.06,0-.31-.08,0,0,.16.07.17.07,0,0l.22.17a1.06,1.06,0,0,0-.15-.15c.17.23.21.28.14.16s0-.06.08.2a1.92,1.92,0,0,0-2.31-1.31,1.9,1.9,0,0,0-1.31,2.3Z"/><path class="cls-1" d="M192.63,192.89a3.11,3.11,0,0,0,1.15,2.43,3.15,3.15,0,0,0,2.7.43,1.89,1.89,0,0,0,1.31-2.31,1.93,1.93,0,0,0-2.31-1.31c-.41.1.36,0,0,0,.32.05.38.06.19,0a.92.92,0,0,1,.39.21c.13.12.15.13,0,0a.65.65,0,0,1,.24.35c.06.16.07.17,0,0,0,.3,0,.34,0,.12a1.88,1.88,0,0,0-3.75,0Z"/><path class="cls-1" d="M286.45,265.12c-.76-.32-1.53-.62-2.32-.88-.29-.1-.6-.09-.88-.19-1-.33-2.05-.75-3.09-1a6.19,6.19,0,0,0-1.41-.18,4,4,0,0,1-1.81-.23c-.18-.1-.15-.67,0-1.24s.51-1.15.88-1.19a8.87,8.87,0,0,1,3.89.4,18,18,0,0,0,2.35.43c.85.19,1.7.43,2.54.68l1.55.49c.79.23,1.55.54,2.35.72.62.14,1.29.13,2,.23a1.06,1.06,0,0,1,.43.08c.47.27.52.58.27,1.38a5.6,5.6,0,0,1-.17.54,1.86,1.86,0,0,1-1.06,1.13,3.42,3.42,0,0,1-1.68.14,7,7,0,0,1-1.54-.39c-.76-.24-1.51-.56-2.3-.81Z"/><path class="cls-1" d="M326.35,291.41c-1.22-.86-2.49-1.69-3.8-2.45-.48-.27-1-.47-1.48-.74-1.71-1-3.42-2-5.23-2.74a15.8,15.8,0,0,0-2.45-.85c-1.06-.28-2.17-.53-3.09-.85-.23-.09-.31-.55,0-1a2,2,0,0,1,1.76-.77,16.68,16.68,0,0,1,3.49.88,22.06,22.06,0,0,1,3.25,1.39c1.26.66,2.66,1.09,4,1.73s2.81,1.48,4.17,2.3c.84.51,1.65,1.07,2.46,1.62,1.23.85,2.39,1.8,3.55,2.75a20.3,20.3,0,0,1,2.69,2.35,6.67,6.67,0,0,1,.53.64c.56.9.48,1.36-.13,1.8a2.47,2.47,0,0,1-.42.3,1.29,1.29,0,0,1-1.47-.28c-1.3-1.1-2.68-2.28-4.23-3.47-1.14-.87-2.36-1.74-3.63-2.53Z"/><path class="cls-1" d="M193.2,341.84a5.66,5.66,0,0,0,1.28,6.2c1.46,1.57,4,2.51,5.83.89a5.51,5.51,0,0,0,.8-6.49,5.15,5.15,0,0,0-5.24-2.3,3.51,3.51,0,0,0-2.86,4.72,1.93,1.93,0,0,0,2.31,1.31,1.88,1.88,0,0,0,1.31-2.3,3.09,3.09,0,0,0-.14-.46c.14.25,0,0,0,.33.09-.5-.13.28,0,0-.29.67-.12-.14,0,0s-.45.05,0,0c.1,0,.53,0,0,0h.42c.44,0-.36-.11.07,0l.42.12c-.48-.16.56.45.2.12a2.05,2.05,0,0,1,.32.34c-.25-.34,0,.09.05.15-.1-.41,0,.17,0,.19.08.56,0-.36,0,.25a2.69,2.69,0,0,1-.18,1.06c.1-.26-.13.2-.14.22.09-.24-.15,0,.13-.16s-.16,0,.3-.07c-.11,0-.55,0-.06,0-.11,0-.5-.2-.13,0a2.91,2.91,0,0,1-.42-.25c-.32-.21.14.16-.16-.14a4.68,4.68,0,0,1-.38-.39c.17.19,0,0-.09-.13a4.48,4.48,0,0,1-.28-.47,4.22,4.22,0,0,0-.19-.58c0,.2,0-.3,0-.36s0-.12,0,.07c.07-.21.06-.22,0,0a1.93,1.93,0,0,0-.67-2.56,1.88,1.88,0,0,0-2.57.67Z"/><path class="cls-1" d="M317.8,338.75a4.85,4.85,0,0,1-.86,2.34,5.41,5.41,0,0,1-1.77,1.52,8.78,8.78,0,0,1-3.68,1,13,13,0,0,1-6.71-1.55,12.3,12.3,0,0,1-3.91-3.15,13.58,13.58,0,0,1-1.21-1.87,15.91,15.91,0,0,1-.82-2c-.44-1.32-.7-2.6-1.11-3.69a6,6,0,0,0-1.82-2.73,2.29,2.29,0,0,0-.54-.36c-.26-.07-.47-.18-.78-.24-.57-.14-1.21-.24-1.84-.34a26.12,26.12,0,0,1-7-1.75A10.91,10.91,0,0,1,282,323a10.37,10.37,0,0,1-1.23-2.07,10.51,10.51,0,0,1-.44-1.1l-.28-1.13c-.21-1,.34-.92,1.08-.35a22.18,22.18,0,0,1,2.57,2.7c1.55,2,3.94,3,6.68,3.59,1.38.29,2.81.42,4.45.75l.62.14.7.23a4.73,4.73,0,0,1,1.41.83,8.06,8.06,0,0,1,1.77,2.09c1.11,1.9,1.42,3.83,2.06,5.43a9.74,9.74,0,0,0,2.72,4,10.24,10.24,0,0,0,4.79,2.35,7,7,0,0,0,5-.61,1.74,1.74,0,0,0,.72-.87,2.83,2.83,0,0,0,.09-1.33,23,23,0,0,0-1-3.44,10.11,10.11,0,0,1-.6-3.11,4.16,4.16,0,0,1,.43-1.79,5.23,5.23,0,0,1,1.12-1.4c1.76-1.47,3.75-1.82,5.34-2.59a5.84,5.84,0,0,0,1.61-1,8,8,0,0,0,1.22-1.5,7.11,7.11,0,0,0,1.06-3.52,9.19,9.19,0,0,0-.15-1.58c-.16-1-.4-1.59-.41-2.09a2.39,2.39,0,0,1,.4-1.33c.13-.19.23-.42.36-.58s.58-.25,1,0a3.72,3.72,0,0,1,1.38,1.87,9.45,9.45,0,0,1,.53,4.66,9.85,9.85,0,0,1-1.88,4.51,11.71,11.71,0,0,1-.76,1,10.66,10.66,0,0,1-.89.89,9.63,9.63,0,0,1-2.21,1.38c-1.42.64-2.73,1-3.7,1.52-.7.35-1.21.77-1.25,1.09a2,2,0,0,0,0,.52,4.36,4.36,0,0,0,.13,1c.17.81.51,1.75.82,2.79a10.23,10.23,0,0,1,.57,3.81Z"/><path class="cls-1" d="M270.41,395.8c0-.26-.05-.52-.07-.78a2.44,2.44,0,0,1-.06-.26c0-.33,0-.65-.07-1a.84.84,0,0,0-.15-.38c-.09-.15-.25-.26-.19-.48s1.29-.63,1.42-.4a2.06,2.06,0,0,1,.22,1.25,2.36,2.36,0,0,0,.11.72c0,.27.06.52.08.78s0,.32,0,.47a2.57,2.57,0,0,0,.14.68,3.4,3.4,0,0,0,.28.45l.07.09c0,.13,0,.2-.24.35l-.16.1a.5.5,0,0,1-.49.06,1.64,1.64,0,0,1-.73-.9c-.1-.26-.16-.53-.23-.78Z"/><path class="cls-1" d="M282.27,402.69c0-.34.08-.67.1-1,0-.12,0-.23,0-.34a8.81,8.81,0,0,0,.07-1.25,1.33,1.33,0,0,0-.13-.52c-.1-.2-.26-.37-.18-.64s1.52-.58,1.68-.29a2.61,2.61,0,0,1,.24,1.6,3.27,3.27,0,0,0,.1.94c0,.34,0,.68,0,1s0,.41,0,.61a4.66,4.66,0,0,0,0,.92l.22.66a.78.78,0,0,1,.05.14c0,.19-.08.27-.42.39l-.23.07a.71.71,0,0,1-.65-.07,1.94,1.94,0,0,1-.83-1.24,5.69,5.69,0,0,1-.12-1Z"/><path class="cls-1" d="M296.14,407.57l-.06-.8c0-.1-.06-.18-.06-.27,0-.34,0-.67,0-1a1.19,1.19,0,0,0-.14-.4c-.09-.16-.25-.28-.15-.5s1.47-.54,1.57-.32a2,2,0,0,1,.13,1.22,1.83,1.83,0,0,0,.1.7l.09.76c0,.16,0,.31.07.46a2.87,2.87,0,0,0,.18.67,2.73,2.73,0,0,0,.32.42l.08.09c.06.12,0,.2-.31.39l-.21.13a.76.76,0,0,1-.61.13,1.42,1.42,0,0,1-.82-.87,5.47,5.47,0,0,1-.19-.8Z"/><path class="cls-1" d="M309.82,413.09c.05-.29.1-.59.13-.88,0-.11-.05-.2,0-.3a8.85,8.85,0,0,0,.12-1.13.86.86,0,0,0-.15-.44c-.11-.18-.31-.3-.17-.57s2-.87,2.18-.6a1.9,1.9,0,0,1,.18,1.52c-.09.32.08.58.1.88s0,.63,0,.95v.57a3.35,3.35,0,0,0,0,.84,2.55,2.55,0,0,0,.35.59.42.42,0,0,1,.08.12c.05.16-.1.24-.65.38l-.39.09a1.53,1.53,0,0,1-1,0,1.59,1.59,0,0,1-.76-1.11,3,3,0,0,1-.08-.89Z"/><path class="cls-1" d="M327.55,414.89l0-.8c0-.09-.07-.17-.07-.27,0-.34,0-.68,0-1a.91.91,0,0,0-.14-.4c-.1-.16-.28-.28-.15-.51s1.8-.65,1.91-.43a1.66,1.66,0,0,1,.09,1.21c-.08.27.07.48.1.71s.05.52.08.77,0,.32.05.47a2.57,2.57,0,0,0,.15.69,2,2,0,0,0,.33.44s.06.05.07.09,0,.21-.4.41l-.25.13a1,1,0,0,1-.71.12,1.42,1.42,0,0,1-.87-.82,4.51,4.51,0,0,1-.21-.78Z"/><path class="cls-1" d="M420.39,470.47a7.34,7.34,0,0,1-.8.53c-.23.13-.47.27-.69.37a13.11,13.11,0,0,1-1.36.57,10.5,10.5,0,0,1-1.38.44c-.47.11-.93.26-1.39.32a23.8,23.8,0,0,1-5.49.33A60.49,60.49,0,0,1,399,471.46c-2.45-.54-4.8-1-7.21-1.45-4.27-.84-8.51-1.68-12.76-2.28-2.1-.3-4.3-.48-6.52-.89a23.49,23.49,0,0,1-3.34-.88,15.84,15.84,0,0,1-1.64-.7l-.84-.47c-.29-.18-.64-.48-1-.71a3.4,3.4,0,0,1-1.06-1.76,2.52,2.52,0,0,1,.51-1.94,5.71,5.71,0,0,1,1.59-1.39,13.65,13.65,0,0,1,1.41-.74,27.73,27.73,0,0,1,5.74-1.82,23.28,23.28,0,0,1,7.68-.44,18.31,18.31,0,0,1,7.3,2.44c1.36.89.87,1.16-.49,1l-2.69-.21-3.58-.19a32.67,32.67,0,0,0-6.91.41,25.82,25.82,0,0,0-3.36.85,17.47,17.47,0,0,0-3.09,1.26l-.32.19h0l-.05,0a.09.09,0,0,0-.06.1.09.09,0,0,0,0,.07l0,0s0,0,.12.08a8.62,8.62,0,0,0,1.33.68,28.62,28.62,0,0,0,6.9,1.6c3,.43,6.13.92,9.2,1.43s6.14,1,9.24,1.61c3.37.69,6.65,1.49,9.94,2a26.57,26.57,0,0,0,9.66,0,14.36,14.36,0,0,0,2.7-.94c.21-.1.4-.22.59-.32a3,3,0,0,0,.38-.27,1.11,1.11,0,0,0,.43-.61,1,1,0,0,0-.21-.72,2.44,2.44,0,0,0-.28-.31,5.8,5.8,0,0,0-.5-.41,16.81,16.81,0,0,0-2.5-1.48,43.52,43.52,0,0,0-4.26-1.77,18.12,18.12,0,0,1-4.69-1.9,4.44,4.44,0,0,1-1.12-1.16,3.18,3.18,0,0,1-.48-1.61c0-.53.05-.92,0-1.19a1.38,1.38,0,0,0-.19-.69c-.46-.92-1.9-1.51-3.29-1.84-1.12-.27-2.29-.42-3.52-.59s-2.36-.29-3.54-.38c-2.37-.16-4.74-.18-7.13-.14l-3.15.09c-4,.09-5.24-.11-6.11-1a3.61,3.61,0,0,1-.57-.63c-.4-.72,1.21-1.35,4.13-1.61a76.23,76.23,0,0,1,13.55-.18c1.17.09,2.34.25,3.51.42a34.92,34.92,0,0,1,3.54.62,10.74,10.74,0,0,1,4,1.82,5.62,5.62,0,0,1,1.78,2.3,4.54,4.54,0,0,1,.35,1.62,10,10,0,0,1,0,1.12c0,.33,0,.18,0,.21s0,0,.09.08a6.16,6.16,0,0,0,1.61.74c.71.25,1.48.45,2.39.74.21.06.51.17.71.24l.61.23,1.24.49a22.19,22.19,0,0,1,5,2.63,9.19,9.19,0,0,1,1.38,1.27,4.76,4.76,0,0,1,1.11,2.13,3.63,3.63,0,0,1-.26,2.32,5.44,5.44,0,0,1-1.53,1.85Z"/><path class="cls-1" d="M130.4,471.11c-1.55,0-3.22.16-4.94.14a23.67,23.67,0,0,1-2.63-.14,12.12,12.12,0,0,1-1.38-.24,7.68,7.68,0,0,1-1.58-.53,3.57,3.57,0,0,1-1.6-1.47,3.14,3.14,0,0,1-.27-2.11,5.78,5.78,0,0,1,1.77-2.81l.18-.17a.43.43,0,0,0,.09-.1.22.22,0,0,0,.06-.24.44.44,0,0,0-.18-.2l-.12-.08-.44-.21a17.94,17.94,0,0,0-6.45-1c-2.06-.09-4.18-.06-6.4-.33a14.62,14.62,0,0,1-3.33-.76l-.79-.29-.44-.18-.59-.25a6.23,6.23,0,0,1-2-1.33,2.27,2.27,0,0,1-.7-1.85,2.51,2.51,0,0,1,1.23-1.59,7.76,7.76,0,0,1,2.21-.86l.55-.15.42-.07a7.81,7.81,0,0,1,.82-.14,34,34,0,0,1,6.51-.18c1.89.09,3.75.23,5.59.27a23.36,23.36,0,0,0,2.66,0c.88-.08,1.78-.22,2.68-.37a27.36,27.36,0,0,1,7.4-.62,7.75,7.75,0,0,1,2,.51,4,4,0,0,1,1.84,1.47,3.17,3.17,0,0,1,.46,1.2,5.63,5.63,0,0,1,.05,1.06,7.94,7.94,0,0,0,0,1.57c.11.52.16.8-.05.93s-.66,0-1.14-.58a3.5,3.5,0,0,1-.58-1.21,9.07,9.07,0,0,0-.43-1.28c-.18-.33-.36-.27-.63-.36l-.25-.06a1.25,1.25,0,0,0-.31-.05l-.32-.1-.36-.07a10.65,10.65,0,0,0-3.06-.05c-1.1.11-2.25.31-3.44.52s-2.41.43-3.75.56a25.17,25.17,0,0,1-3.89,0c-2.48-.15-4.86-.39-7.18-.43a24,24,0,0,0-3.41.15,12.18,12.18,0,0,0-1.73.28c-.09,0-.2.1-.22.19a.28.28,0,0,0,.09.26,1.8,1.8,0,0,0,.52.34c.15.07.54.22.85.33s.66.21,1,.3a11.55,11.55,0,0,0,2,.35c2.82.28,5.87,0,9,.31a14.39,14.39,0,0,1,5.23,1.36c1.09.58,2.3,1.49,2.23,2.78a2.74,2.74,0,0,1-.75,1.68c-.46.53-.86.9-1.07,1.12a3.39,3.39,0,0,0-.58.69.76.76,0,0,0-.15.49.57.57,0,0,0,.22.43,1.76,1.76,0,0,0,.57.3,15.39,15.39,0,0,0,4.54.39c1,0,2-.1,3-.16l3.07-.1c2,0,4.07-.06,6.1-.05,3.08,0,6.17.09,9.24.2,1.53,0,3.11.15,4.57.17a13.74,13.74,0,0,0,2.1-.12,1.67,1.67,0,0,0,1.15-.52.87.87,0,0,0-.1-.94,2.6,2.6,0,0,0-.31-.41l-.48-.52a9.79,9.79,0,0,0-2.6-1.77,19.51,19.51,0,0,0-6.34-1.65c-1-.13-1.94-.16-2.94-.22-3.7-.12-4.89-.15-5.79-1-.2-.15-.46-.27-.58-.39s.07-.43.75-.83a8,8,0,0,1,3.26-.79,33.13,33.13,0,0,1,6.67.07,20.1,20.1,0,0,1,6.81,2.14,17.61,17.61,0,0,1,1.62,1l.76.64a6.49,6.49,0,0,1,.76.74c.26.29.51.59.76.89a7.26,7.26,0,0,1,.78,1.33,3.5,3.5,0,0,1,.07,2.85,3.7,3.7,0,0,1-2.17,1.92,8.11,8.11,0,0,1-1.58.39c-.44.06-.72.08-1.05.11a29.77,29.77,0,0,1-3.56-.05c-6.49-.3-13.09-.54-19.6-.37Z"/><path class="cls-2" d="M284.61,278.45c-6.44-5.79-17.12-4.52-17.12-4.52s-5.1,29-7.44,30.34,15,2.43,18.77,0S284.61,278.45,284.61,278.45Z"/><path class="cls-2" d="M295,304.27s9.49-21.9,10.86-22.64,23.22,8.29,28.24,16.09-38.83,8.74-38.83,8.74"/><path class="cls-1" d="M175.87,76.69c.09,5.56-9.16,6.16-9.16,0,0-5.59,8.43-6,9.12-.58C175.85,76.31,175.86,76.5,175.87,76.69Z"/><path class="cls-1" d="M321.53,51.65c.08,4.53-7.46,5-7.46,0,0-4.55,6.87-4.87,7.43-.46A3.71,3.71,0,0,1,321.53,51.65Z"/><path class="cls-1" d="M344.47,81c.07,3.65-6,4.05-6,0,0-3.68,5.54-3.94,6-.38C344.46,80.71,344.47,80.84,344.47,81Z"/><path class="cls-1" d="M223.18,87c0,2.8-4.6,3.1-4.6,0,0-2.81,4.24-3,4.58-.29C223.17,86.82,223.18,86.92,223.18,87Z"/><path class="cls-1" d="M378.61,109.16c.05,2.68-4.42,3-4.42,0,0-2.7,4.07-2.89,4.4-.27A2.64,2.64,0,0,1,378.61,109.16Z"/><path class="cls-1" d="M203.2,106c.07,4-6.55,4.41-6.55,0,0-4,6-4.28,6.52-.41A2.93,2.93,0,0,1,203.2,106Z"/><path class="cls-3" d="M274,166.85c-8.14-2.07-12.77-9.36-13.14-17.57-.4-9,7-15.82,12.08-22.34,4.93-6.31,2.86-16.92,2.86-16.92s-9.22,17.26-13.74,24.83c0,0-9.87,10.08-9,15.76s5.55,15.61,16.32,17.2S274,166.85,274,166.85Z"/><path class="cls-3" d="M191.82,177.63s16.35,21.72,12.38,27.75-11.27,15.28-34.93,18.72c0,0,3.07,2.6,9.46,3.91s27.45-10.92,30.77-18.49-7.63-24.33-7.63-24.33l-6-9.56Z"/><path class="cls-3" d="M308.63,212.63c8.25,4.19,30.12,11.37,34.88,7.58,3.22-2.58,6.15-13.94,5-16.06,0,0,7,1.36,8.6,5.37s-7.9,18.59-7.9,18.59Z"/></g></svg>