<?xml version="1.0" encoding="UTF-8"?>
<svg id="_179.Earth" data-name="179.Earth" xmlns="http://www.w3.org/2000/svg" viewBox="0 0 520 520">
  <defs>
    <style>
      .cls-1, .cls-2, .cls-3 {
        fill: #231f20;
      }

      .cls-2 {
        opacity: .25;
      }

      .cls-3 {
        opacity: .45;
      }
    </style>
  </defs>
  <path class="cls-3" d="M106.59,167.52s7.42,7.52,14.59,0,14.51-15.66,26.37-3.12c11.86,12.54,3.95,30.83-10.16,40.6s-11.29,20.69-1.69,29.91c9.6,9.22-10.73,23.01-24.28,19.22s-29.93,3.9-31.06,15.3,7.34,15.22,16.94,16.14c9.6,.91,6.78,10.24,7.91,15.18s19.54-1.32,27.56,6.89c8.02,8.21,11.41,31.37,28.91,31.37s23.04,20.02,21.26,30.45c-6.58,38.48-27.7,37.38-31.99,54.06-3.95,15.37,12.17,28.73,9.4,27.45s-43.37-21.03-55.27-33.26c-13.93-14.31-32.2-32.82-36.57-53.85-1.62-7.82,7.92-17.74,13.55-29.03,3.86-7.74-2.82-15.58,7.01-21.33,11.21-6.55,.33-22.71-8.71-21.47-9.04,1.24-15.69-16.53-16.31-19.5s-11.77,3.63-11.77,3.63c0,0,9.2-53.81,28.5-77.97s25.82-30.67,25.82-30.67Z"/>
  <path class="cls-3" d="M280.48,217.79s-24.93,3.76-20.48,24.94,32.7,21.69,46.53,22.56,26.44,18.28,20.7,25.95,11.68,21.71,17.07,19.95,16.88-12.52,17.64-17.77-5.56-17.24-5.56-17.24c0,0-12.08,.08-23.45-16.19-1.86-2.66-2.88,1.55-4.33,0-4.5-4.81-1.3-11.11-.92-12.58,.35-1.36-4.41,1.75-5.61,1.01-5.79-3.53-14.23-12.71-13.1-18.62s-21.96,9.52-28.49-12.02Z"/>
  <path class="cls-3" d="M341.33,417.61s2.34-11.4-18.36-9.67c-8.34,.7-7.98-11.24-20.96-9.16-19.73,3.16-15.91,30.96-24.19,33.41-4.49,1.33-12.21,.32-19.39,3.76-9.22,4.42-16.6,17.12-15.14,26.72,0,0,26.66-4.38,37.57-8.31s48-19.81,60.47-36.75Z"/>
  <path class="cls-2" d="M251.4,418.19c-.56,1.86,1,3.66,2.92,3.36,3.87-.61,10.12-1.23,12.58,.6,3.67,2.74,6.55-2.52,7.8-7.65s7.35-7.11,5.7-11.07c-1.22-2.91-7-4.99-12.65-1.4-8.28,5.27-1.98,9.1-5.36,9.77-2.82,.55-9.35,.96-10.98,6.39Z"/>
  <path class="cls-3" d="M185.86,164.49c2.71,2.05-1.69,12.37,10.45,12.14s12.52-15.09,18.55-12.71c4.47,1.77,17.67-7.62,15.29-15.45-2.55-8.36-11.51-4.54-22.41-2.93-4.6,.68-4.56-7.49-15.33-4.69-18.54,4.82-14.55,17.6-6.54,23.64Z"/>
  <path class="cls-3" d="M288.73,130.07c-1.72,5.93,5.92,4.89,8.77,7.15,1.8,1.43,0,6.74,3.75,6.72,4.35-.03,8.23-7.09,2.13-10.11-3.52-1.74-12.92-9.68-14.64-3.76Z"/>
  <path class="cls-2" d="M289.66,143.97c1.12,.11,2.56,.46,3.87,1.4,2.67,1.92,1.29,6.3-2,6.09-3.73-.24-1.43-5.88-3.65-5.04-.86,.33-.97-.11-.81-.7,.29-1.14,1.42-1.87,2.59-1.76Z"/>
  <path class="cls-2" d="M145.09,216.17c1.12,.11,2.56,.46,3.87,1.4,2.67,1.92,1.29,6.3-2,6.09-3.73-.24-1.43-5.88-3.65-5.04-.86,.33-.97-.11-.81-.7,.29-1.14,1.42-1.87,2.59-1.76Z"/>
  <path class="cls-1" d="M211.31,117.93c6.77-1,13.59-1.66,20.43-1.89l3.74-.12c1.25-.04,2.5-.02,3.74-.01,4.4,.08,8.8,.34,13.17,.86,4.38,.47,8.72,1.24,13.01,2.18,1.9,.46,3.82,.85,5.69,1.42,.94,.27,1.89,.51,2.82,.79,.93,.3,1.85,.6,2.77,.9,1.19,.36,2.36,.8,3.52,1.25,1.17,.44,2.34,.87,3.45,1.45l1.68,.83,1.64,.9,3.18,1.97c1.31,.82,1.08,.79-.18,.4-.69-.21-1.59-.48-2.61-.78-.54-.16-1.12-.33-1.76-.48-.32-.07-.63-.17-.97-.24-.32-.11-.64-.23-.97-.34-9.29-3.53-18.88-6.11-28.84-7.66-5.96-.91-12.25-1.09-18.42-1.03-6.79,.03-13.58,.53-20.33,1.38-4.16,.5-8.3,1.19-12.41,1.97-6.23,1.21-12.45,2.69-18.49,4.5-4.69,1.44-9.21,3.07-13.71,4.81-.99,.4-1.95,.79-2.95,1.19-3.69,1.49-4.89,1.88-5.88,1.79-.22-.02-.5,0-.65-.06-.25-.08-.04-.36,.56-.8,.6-.45,1.59-1.05,2.91-1.7,3.93-1.94,8.08-3.69,12.36-5.3,4.29-1.56,8.73-2.87,13.21-4.06,6.66-1.76,13.45-3.13,20.27-4.2l.02,.06Z"/>
  <path class="cls-1" d="M54.1,300.7c.23,5.34,.57,10.67,1.13,15.99,.21,1.94,.49,3.87,.76,5.79,.42,3.41,.99,6.79,1.61,10.17,.66,3.37,1.41,6.72,2.32,10.02,.83,2.92,1.78,5.84,2.98,8.59,1.52,3.56,3.4,6.91,5.4,10.18,.51,1.11,.29,1.11-.71,.57-1-.54-2.6-1.83-3.82-3.82-4.08-7.16-6.44-15.01-7.86-22.99-.87-4.77-1.81-9.72-2.42-14.63-.66-5.4-1.11-10.82-1.35-16.25-.17-3.34-.22-6.68-.26-10.02-.04-5.06,.11-10.14,.38-15.15,.21-3.9,.44-7.73,.97-11.57,.13-.85,.21-1.68,.39-2.53,.59-3.16,1.28-4.06,1.75-4.62,.12-.12,.25-.3,.34-.36,.33-.2,.08,1.06-.17,3.34-1.11,6.68-1.46,13.9-1.62,21.13-.09,5.37-.02,10.77,.24,16.16h-.05Z"/>
  <path class="cls-1" d="M192.91,459.09c-6.51-1.21-12.92-2.85-19.27-4.67-2.33-.63-4.62-1.39-6.91-2.11-1.01-.34-2.02-.64-3.02-1.01l-2.98-1.12-2.98-1.12-1.49-.56-1.47-.63-5.85-2.51-5.73-2.78c-.85-.39-1.69-.83-2.52-1.29l-2.5-1.33-2.5-1.32c-.81-.48-1.61-.97-2.41-1.45l-3.1-1.85c-1.01-.66-1.98-1.38-2.97-2.08l-1.47-1.06c-.49-.36-.99-.69-1.4-1.15l-2.58-2.55c-1.05-1.07-.83-1,.32-.4,1.14,.62,3.29,1.59,5.56,3.07,7.99,5.34,16.64,9.7,25.57,13.65,1.34,.59,2.69,1.19,4.06,1.75,1.4,.51,2.8,1.02,4.21,1.54,1.42,.49,2.82,1.05,4.26,1.48,1.43,.45,2.87,.9,4.3,1.35,6.27,2,12.66,3.61,19.09,5.03,1.98,.44,3.98,.75,5.97,1.14,1.99,.37,3.99,.75,6,.98,6.08,.87,12.22,1.55,18.31,1.71,2.37,.02,4.72,.12,7.05,.02,2.33-.13,4.66-.23,7-.32,1.03,0,2.03-.19,3.06-.27,3.83-.37,5.07-.34,5.94-.04,.2,.07,.46,.13,.58,.2,.41,.23-1.12,.68-3.94,1.13-4.18,.77-8.52,1.08-12.94,1.38-2.21,.08-4.43,.02-6.67,.02-1.12-.02-2.24,0-3.36-.05l-3.36-.22-5-.34c-1.66-.17-3.32-.38-4.98-.6-1.66-.23-3.32-.41-4.97-.69l-4.93-.89v-.06Z"/>
  <path class="cls-1" d="M213.63,264.28s1.35,1.79,2.23,.75-.72,6.21-.72,6.21c0,0-1.88-3.95-1.51-6.96Z"/>
  <path class="cls-1" d="M214.34,272.75c-.05,.28,2.16,3.39,1.32,3.95s-3.85-.16-4.89,.38,5.16,2.72,6.32,2.47,1.91-1.49,.41-3.39-3.15-3.41-3.15-3.41Z"/>
  <path class="cls-1" d="M198.57,311.2s1.22-2.59,2.35-3.34,1.46,.75,1.46,.75l-3.81,2.59Z"/>
  <path class="cls-1" d="M214.59,268.73c.22,.76,.45,1.54,.78,2.3,.13,.27,.29,.53,.42,.8,.46,.97,1.01,1.94,1.61,2.88,.29,.41,.58,.82,.86,1.23,.39,.52,.76,1.08,.87,1.81,.04,.22-.14,.24-.41,.19-.27-.07-.65-.14-.95-.35-.49-.38-.91-.86-1.36-1.32-.39-.53-.74-1.09-1.06-1.69-.37-.73-.92-1.36-1.33-2.09-.44-.81-.85-1.64-1.12-2.54-.19-.54-.31-1.1-.44-1.66-.17-.85-.24-1.72-.27-2.58-.04-.33-.03-.66-.04-1,0-.33-.05-.67-.01-1.01,.02-.15,.02-.29,.04-.44,.11-.54,.3-.68,.75-.68,.1,0,.21,0,.31,0,.33,.04,.57,.32,.65,.69,.09,1.09,.26,2.11,.31,3.14l.16,1.15c.09,.38,.17,.76,.28,1.15l-.05,.02Z"/>
  <path class="cls-1" d="M206.41,308.41c-.83,.31-1.65,.7-2.45,1.16-.3,.16-.53,.41-.83,.58-1.05,.59-2.07,1.27-3.05,2.01-.43,.34-.81,.73-1.19,1.12-.24,.25-.48,.51-.73,.75-.13,.12-.26,.23-.4,.34-.07,.05-.14,.1-.22,.15-.08,.05-.39-.13-.48-.09-.26,.05-.23,.04-.24-.22,.05-.08-.34-.64-.27-.79,0-.23,.03-.46,.15-.63,.21-.3,.42-.61,.66-.89,.26-.26,.52-.52,.8-.77,.53-.5,1.15-.94,1.78-1.35,.78-.46,1.41-1.16,2.18-1.68,.84-.56,1.74-1.06,2.67-1.49,.57-.27,1.16-.49,1.75-.71,.9-.32,1.81-.54,2.69-.82,.68-.19,1.31-.5,1.95-.73,.14-.04,.28-.1,.43-.13,.54-.12,.76-.02,1.02,.39,.06,.09,.13,.18,.17,.28,.16,.32,.03,.68-.33,.97-.27,.22-.54,.42-.83,.61-.29,.17-.58,.31-.88,.45-.59,.28-1.18,.52-1.78,.67-.87,.27-1.72,.53-2.53,.88l-.03-.05Z"/>
  <path class="cls-1" d="M372.06,394.37c.11,2.46,.13,4.92,.07,7.38-.01,.9,0,1.79-.04,2.69-.16,3.16-.59,6.29-1.06,9.41l-.28,2.08c-.08,.69-.16,1.39-.29,2.07-.15,.88-.29,1.76-.45,2.63-.24,.86-.6,1.71-.9,2.55-.21,.52-.24,.44-.36-.05-.09-.49-.43-1.42-.58-2.46,0-3.62,.49-7.13,.98-10.71,.3-2.14,.32-4.39,.41-6.59,.11-2.42,.2-4.85,.18-7.29-.01-1.5-.04-3-.13-4.49-.11-2.27-.3-4.54-.61-6.77-.26-1.73-.62-3.41-.98-5.1-.08-.37-.16-.74-.25-1.11-.29-1.39-.27-1.86,.07-2.25,.07-.09,.14-.2,.21-.26,.24-.2,.66,.31,1.01,1.31,1.02,2.99,1.89,6.22,2.31,9.54,.35,2.46,.57,4.94,.72,7.42h-.06Z"/>
  <path class="cls-1" d="M199.94,308s1.7,1.92,5.32,1.25c4.33-.8,11.29-6,12.05-6.1,.68-.09,5.22,2.82,13.44-.24,.19-.07,2.23-.8,2.23-.8l-5.1-.8-11.03-.56s-10.14,5.12-10.29,5.19-6.61,2.05-6.61,2.05Z"/>
  <path class="cls-1" d="M188.93,300.97s.6,1.82,4.32,1.82c2.75,0,10.34-2.67,11.35-3.25,2.96-1.69,2.53-2.82,2.53-2.82,0,0-14.57,4.02-14.67,4.13s-3.53,.12-3.53,.12Z"/>
  <path class="cls-1" d="M201.3,291.24c-.19,.05-12.2,2.96-13.66,5.93s1.48,3.67,1.48,3.67c0,0,1.9-2.98,1.81-2.92s14.33-6.68,14.33-6.68h-3.95Z"/>
  <path class="cls-1" d="M192.46,272.75s-1.32,3.2,.94,5.24,7.72,4.46,7.72,4.46c0,0-13.41-.56-17.04,3.15-2.83,2.91,.47,3.9,.47,3.9,0,0,.55-2.76,1.99-2.92s20.59-2.88,20.59-2.88l-7.69-5.33-6-4.87-.99-.74Z"/>
  <path class="cls-1" d="M250.88,301.48c-.47,1.11-1.04,2.18-1.63,3.22-.21,.38-.38,.78-.6,1.16-.8,1.31-1.63,2.59-2.48,3.85-.37,.56-.72,1.14-1.07,1.7-.38,.77-1.04,1.37-1.61,2.01-.19,.19-.19,.15-.16-.09,.04-.24,.05-.72,.16-1.22,.16-.91,.62-1.63,.97-2.41,.36-.78,.77-1.53,1.24-2.25,.55-.87,.9-1.89,1.32-2.86l1.36-3.18c.26-.66,.53-1.31,.75-1.99,.35-1.01,.68-2.04,.86-3.09,.14-.82,.1-1.64,.08-2.46,0-.18-.03-.36-.03-.54,0-.33,.06-.54,.25-.68,.15-.14,.41-.21,.75-.25,.15-.02,.29-.05,.42-.06,.4-.04,.95,.29,1.12,.84,.29,1.6,.02,3.26-.42,4.85-.32,1.18-.76,2.34-1.21,3.47l-.06-.02Z"/>
  <path class="cls-1" d="M370.34,408.7l-.92,7.09s36.87,2.75,57.41-24.86c0,0-9.69,7.56-19.09,10.01-9.4,2.45-37.41,7.76-37.41,7.76Z"/>
  <path class="cls-1" d="M371.01,343.02c2.81-1.59,5.44-3.47,8.01-5.43l2.69-2.3c3.13-2.74,6.08-5.71,8.8-8.89,1.14-1.46,2.34-2.9,3.34-4.45,.65-.99,1.36-1.94,2.02-2.93,.34-.49,.65-1,1.03-1.45,.39-.45,.78-.91,1.18-1.36,.5-.56,.55-.42,.44,.25-.06,.33-.15,.81-.27,1.37-.07,.28-.12,.6-.23,.9-.12,.3-.26,.6-.43,.9-.29,.54-.6,1.07-.94,1.59-.32,.53-.66,1.04-1.02,1.54l-1.07,1.51-1.15,1.45c-1.51,1.96-3.18,3.79-4.92,5.56-2.12,2.08-4.22,4.35-6.55,6.31l-1.92,1.61-2,1.51c-1.31,1.04-2.74,1.91-4.11,2.86-1.75,1.07-3.5,2.16-5.32,3.09-2.72,1.5-5.6,2.72-8.42,3.94-1.11,.45-2.21,.89-3.31,1.33-1.1,.44-2.21,.82-3.33,1.22-.49,.18-.97,.36-1.48,.48-.94,.26-1.58,.37-2.05,.36-.46,0-.75-.06-1-.2-.11-.06-.25-.11-.33-.17-.24-.2,.45-.68,1.73-1.32,3.88-1.58,7.94-3.12,11.93-4.89,2.94-1.35,5.88-2.76,8.65-4.47l.03,.04Z"/>
  <path class="cls-1" d="M238.77,304.8c-.19,.42-9.56,15.8-6.03,18.68,6.22,5.08,13.5-11.85,13.5-11.85l-7.47-6.83Z"/>
  <path class="cls-1" d="M468.51,265.29c-1.02-6.43-14.59-20.13-22.79-28.69-8.21-8.56-9.31-17.74-9.31-17.74-2.26-20.66-6.12-30.31-12.99-46.85-6.87-16.55-20.33-24.72-35.92-30.94-15.59-6.21-32.22-.18-41.23,6.85-9,7.03-11.4,20.1-11.4,20.1-4.97-2.41-12.81-3.41-12.81-3.41-23.42-.56-36.05,17.31-36.05,17.31-12.8,16.38-5.53,35.87-5.53,35.87,8.97,22.5,25.9,12.99,39.78,6.32,13.89-6.68,22.18-28.83,22.18-28.83,8.7-1.69,16.04,4.15,20.55,8.29,4.52,4.14,8.47,14.12,11.79,29.18,3.31,15.06,10.8,17.24,10.8,17.24-3.2,11.41-8.28,18.14-17.88,24.78-9.6,6.64-19.04,0-19.04,0,0,0-3.74,3.9-2.56,15.6,1.17,11.7,6.07,11.38,10.49,10.7,4.43-.68,4.33-2.63,9.42-9.6,5.08-6.96,13.74-14.49,22.6-13.98s15.08,10.89,15.08,10.89c11.71,12.71,15.29,7.8,24.14,3.39,8.85-4.41,12.7-8.36,12.7-8.36,0,0,15.83,3.55,21.82-1.1,5.99-4.65,7.19-10.6,6.16-17.02Zm-74.69-48.74c-.99,3.81-6.08,9.52-11.34,10.85,0,0,.12-8.33-3.3-13.01-3.42-4.68-3.86-5.3-1.46-7.4,2.4-2.1,4.93-2.53,9.27-1.33,4.33,1.2,7.82,7.09,6.83,10.89Z"/>
  <path class="cls-1" d="M370.63,274.17c-3.36,2.06-7.25,3.48-11.29,3.64-.73,.07-1.47,.01-2.2,.03-.73-.08-1.47-.08-2.19-.26-2.57-.51-4.87-1.48-7.07-2.61-2.2-1.14-4.25-2.53-6.15-4.08-1.69-1.37-3.28-2.88-4.74-4.47-.9-1.05-1.85-2.09-2.58-3.27-.74-1.18-1.35-2.45-1.72-3.8-.24-.84,.06-.84,.78-.42,.37,.21,.83,.52,1.39,.88,.55,.36,1.05,.85,1.56,1.39,3.21,4.1,7.04,7.62,11.47,10.51,1.33,.87,2.81,1.53,4.34,2.07,1.53,.55,3.05,.89,4.61,1.01,3.42,.33,6.93-.47,10.11-2.06,1.96-.98,3.81-2.22,5.51-3.66,2.57-2.18,4.88-4.74,6.79-7.53,1.48-2.17,2.62-4.5,3.58-6.88,.21-.52,.41-1.04,.62-1.57,.78-1.95,1.06-2.54,1.77-2.85,.16-.07,.32-.18,.47-.21,.47-.12,.7,.87,.41,2.53-.24,1.22-.53,2.45-.95,3.65-.44,1.19-.92,2.38-1.5,3.53-.56,1.16-1.2,2.29-1.89,3.4-.68,1.11-1.44,2.19-2.29,3.2-2.47,3.02-5.41,5.73-8.78,7.88l-.05-.06Z"/>
  <path class="cls-1" d="M329.28,253.64c-.12,.73-.18,1.44-.15,2.04,.04,.6,.16,1.03,.4,1.32,.14,.22,.59,.37,.64,.4,.37,.17,1.37,.07,2.26-.17,.92-.25,1.86-.62,2.76-1.11,.79-.43,1.52-.99,2.2-1.56,.44-.36,.82-.79,1.22-1.15,.43-.34,.86-.7,1.14-1.01,.18-.16,.5-.29,.83,.17,.34,.48,.48,1.5,.14,2.32-1.48,2.56-3.8,4.03-6.45,4.92-.79,.26-1.62,.54-2.53,.76-.51,.05-.95,.17-1.54,.1-.51,.01-1.23-.21-1.73-.48-.5-.29-.98-.69-1.36-1.16-.37-.48-.66-1.02-.82-1.55-.34-1.08-.32-2.07-.25-2.99,.1-1.14,.33-2.18,.55-3.22,.34-1.56,.77-3.06,.98-4.57,.08-.58,.11-1.17,.09-1.74,.02-.57,0-1.13-.01-1.69l-.05-.72c0-.22,0-.41,.02-.56,.03-.16,.1-.29,.17-.41,.15-.23,.33-.38,.58-.53,.11-.07,.21-.15,.31-.2,.17-.08,.35-.04,.57,.11,.21,.15,.52,.42,.69,.8,.41,1.14,.62,2.37,.68,3.58-.02,1.2-.18,2.38-.37,3.51-.28,1.68-.69,3.3-.86,4.79h-.08Z"/>
  <path class="cls-1" d="M369.45,213.2c1.75,3.96,3.1,8,4.42,11.99,.48,1.46,1.06,2.87,1.53,4.32,1.7,5.07,3.39,10.17,6.26,14.48,1.25,1.92,2.86,3.58,4.74,4.72,1.18,.78,2.52,1.23,3.87,1.64,1.36,.38,2.75,.63,4.23,1.01,.92,.25,.84,.46,.03,.94-.4,.24-1,.57-1.76,.94-.76,.26-1.68,.3-2.67,.25-3.52-.47-6.73-2.58-9.05-5.09-2.37-2.53-3.88-5.54-5.1-8.53-1.44-3.6-2.94-7.25-4.2-10.9-1.38-4.01-2.68-8-4.26-11.86-.95-2.39-2.05-4.69-3.29-6.91-1.91-3.32-4.24-6.46-7.22-8.76-2.32-1.78-4.98-2.9-7.72-3.62-.62-.12-1.23-.2-1.84-.34-1.12-.3-1.9-.35-2.41-.61-.52-.24-.8-.57-1.01-1.06-.1-.23-.24-.46-.29-.68-.18-.74,.89-1.2,2.83-1.14,2.83,.23,5.83,.86,8.54,2.3,2.73,1.38,5.24,3.3,7.32,5.57,3.09,3.38,5.28,7.33,7.11,11.28l-.07,.04Z"/>
  <path class="cls-1" d="M281.87,191.98c-1.4,4.21-2.05,8.68-1.99,13.16-.03,1.12,.13,2.24,.18,3.36,.1,1.11,.26,2.18,.49,3.26,.45,2.15,1.15,4.26,2.08,6.26,1.33,2.94,3.29,5.52,5.55,7.67,2.04,1.85,4.41,3.29,7.03,4.05,2.62,.76,5.44,.76,8.21,.24,5.58-1.07,10.8-4.13,15.46-7.71,4.15-3.22,7.9-7.02,11.29-11.02,4.35-5.16,8.05-10.85,11.53-16.53,.72-.8,1.07-1.15,1.2-1.07,.12,.08,.07,.61,.09,1.63,.05,.52-.08,1.09-.2,1.74-.13,.65-.32,1.37-.58,2.14-.5,1.54-1.28,3.25-2.4,4.93-3.92,5.96-8.45,11.47-13.64,16.4-2.6,2.46-5.4,4.75-8.41,6.77-3.01,2.02-6.27,3.77-9.82,4.93-4.18,1.43-9,2.01-13.6,.82-2.29-.58-4.45-1.64-6.36-2.97-1.91-1.35-3.58-3-4.99-4.8-3.07-3.99-4.98-8.7-5.87-13.56-.77-4.89-.72-9.76,.09-14.59,.55-2.95,1.37-5.85,2.52-8.62,1.18-2.75,2.65-5.38,4.38-7.81,2.66-3.66,5.91-6.89,9.61-9.48,3.71-2.57,7.79-4.56,12.06-5.89,6.64-2.04,13.64-2.55,20.47-1.33,.75,.15,1.5,.25,2.23,.44,.73,.19,1.47,.38,2.21,.58,1.36,.43,2.47,.84,3.39,1.22,.9,.42,1.61,.78,2.18,1.11,1.13,.68,1.65,1.32,1.99,1.95,.15,.29,.39,.61,.44,.83,.09,.37-.42,.4-1.42,.19-.51-.09-1.11-.3-1.81-.56-.72-.22-1.55-.51-2.46-.86-2.75-.93-5.59-1.64-8.51-2.06-2.91-.4-5.89-.48-8.85-.27-5.93,.4-11.83,2.2-17.04,5.21-7.77,4.44-13.81,11.78-16.63,20.27l-.08-.02Z"/>
  <path class="cls-1" d="M436.85,211.29c.78,4.92,1.77,9.73,3.61,14.19,.22,.56,.47,1.11,.72,1.65,.24,.55,.51,1.09,.8,1.61,.28,.53,.55,1.06,.87,1.57,.3,.49,.63,1.1,.91,1.45,.63,.85,1.5,1.78,2.33,2.67l2.6,2.71c3.5,3.62,7.03,7.29,10.28,11.24,3.25,3.94,6.32,8.12,8.58,12.88,1.62,3.44,2.87,7.35,2.47,11.48-.15,2.06-.89,4.09-1.96,5.84-1.04,1.81-2.53,3.21-4.07,4.48-1.4,1.09-3.02,1.95-4.72,2.53-1.71,.59-3.51,.79-5.25,.8-3.49,.02-6.73-.76-9.85-1.2-.78-.12-1.55-.2-2.32-.28l-1.14-.06c-.22-.02-.32,0-.44,0-.12-.01-.27,.04-.4,.06-1.16,.27-2.49,1.12-3.73,2.03-2.51,1.86-4.96,4.05-7.65,5.98-2.68,1.93-5.67,3.72-9.15,4.45-1.73,.36-3.57,.37-5.31,0-.44-.07-.87-.23-1.29-.38-.42-.16-.86-.28-1.26-.47-.76-.44-1.6-.8-2.26-1.34-2.83-2.01-4.98-4.55-7.14-6.94-2.15-2.41-4.29-4.76-6.78-6.6-4.29-3.32-10.28-4.59-15.08-1.83-2.42,1.25-4.63,3.01-6.65,4.94-2.03,1.94-3.91,4.04-5.7,6.22-1.31,1.59-2.57,3.23-3.81,4.89l-1.86,2.51-.93,1.26c-.33,.44-.58,.8-.99,1.3-.33,.39-.82,.7-1.11,.83-.33,.19-.66,.32-1,.47-.67,.27-1.36,.49-2.08,.64-1.42,.29-2.97,.32-4.45-.15-1.48-.45-2.8-1.45-3.65-2.67l-.34-.44-.27-.48-.52-.96c-.26-.66-.52-1.33-.74-1.99-.79-2.65-1-5.37-.98-8.05,.04-2.68,.35-5.36,1.02-7.95,.61-2.26,1.15-3.14,1.24-3.03,.12,.12-.16,1.22-.36,3.14-.21,1.91-.29,4.64,.08,7.84,.18,1.6,.52,3.32,.97,5.07,.21,.87,.46,1.77,.8,2.6,.18,.4,.33,.83,.53,1.22,.23,.35,.42,.76,.67,1.09,.49,.61,1,1.18,1.65,1.47,.29,.21,.65,.26,.98,.4,.37,.04,.71,.14,1.1,.12,.75,.02,1.57-.11,2.36-.37,.39-.13,.79-.28,1.15-.46,.2-.08,.34-.19,.52-.27l.08-.06h0s-.01,0,0,.01c-.04,.01,.05-.08,.11-.17l.17-.24,.36-.48,.72-.97,1.45-1.95c.97-1.3,1.96-2.6,2.98-3.89,2.03-2.57,4.16-5.1,6.52-7.47,2.37-2.36,4.94-4.61,8.05-6.32,1.55-.84,3.25-1.53,5.09-1.89,.91-.17,1.89-.27,2.81-.22,.9,.08,1.81,.1,2.71,.26,3.62,.62,6.85,2.51,9.45,4.73,2.64,2.23,4.8,4.77,6.95,7.16,2.14,2.39,4.29,4.73,6.78,6.09,1.23,.7,2.54,1.09,3.96,1.19,1.4,.08,2.83-.13,4.23-.57,1.94-.62,3.83-1.67,5.64-2.9,1.81-1.23,3.56-2.65,5.33-4.1,1.8-1.44,3.54-2.97,5.79-4.22,.56-.31,1.18-.58,1.87-.79,.35-.09,.71-.18,1.11-.21,.19-.01,.41-.03,.59-.03l.46,.02c1.22,.04,2.42,.18,3.59,.34,2.35,.32,4.6,.77,6.81,.97,2.21,.22,4.37,.18,6.37-.42,1.99-.57,3.82-1.67,5.36-3.14,1.55-1.44,2.77-3.16,3.38-5.1,.69-2.13,.66-4.48,.16-6.79-.5-2.31-1.43-4.57-2.56-6.74-2.27-4.35-5.35-8.34-8.58-12.16-3.26-3.82-6.78-7.43-10.31-11.08-.88-.92-1.77-1.84-2.63-2.81-.44-.49-.86-.98-1.28-1.55-.46-.6-.72-1.14-1.08-1.7-1.33-2.25-2.43-4.63-3.31-7.08-2.18-6.05-2.99-12.36-3.93-18.5-.88-6.17-2.09-12.22-3.95-18.12-2.76-8.93-6.86-17.51-12.47-24.97-2.81-3.72-6-7.15-9.54-10.17-3.54-3.01-7.44-5.58-11.56-7.67-6.41-3.22-13.39-5.19-20.44-5.44-7.03-.28-14.05,1.26-20.36,4.31-2.78,1.36-5.32,3-7.77,4.89-4.5,3.59-6.81,6.64-8.39,8.77-.82,1.05-1.39,1.94-1.91,2.65-.26,.36-.53,.67-.75,.96-.22,.3-.43,.57-.64,.82-.38,.46-.84,1.09-1.13,1.34-.49,.42-.36-.51,.33-2.63,.79-2.05,2.3-5.27,5.22-8.72,8.6-10.21,22.56-16.29,36.6-15.26,6.99,.4,13.86,2.42,20.16,5.51,6.32,3.09,12.04,7.36,17,12.36,3.64,3.77,6.85,7.92,9.58,12.36,2.71,4.45,5.03,9.14,6.88,13.99,1.85,4.85,3.35,9.83,4.44,14.89,1.12,5.07,1.78,10.17,2.58,15.13l-.07,.04Z"/>
  <path class="cls-1" d="M346.58,309.31c2.04-1.2,4-2.59,5.83-4.16,.67-.57,1.28-1.21,1.93-1.81,2.3-2.1,4.47-4.39,6.41-6.88,.84-1.11,1.66-2.26,2.4-3.44,.49-.75,.89-1.55,1.4-2.29,.55-.72,1.09-1.44,1.64-2.17,.35-.45,.46-.32,.51,.23,.03,.54,.11,1.58-.16,2.65-.07,.23-.12,.47-.2,.7l-.31,.64c-.2,.43-.42,.85-.64,1.27-.44,.84-.91,1.66-1.42,2.47-1.05,1.58-2.27,3.05-3.59,4.44-1.58,1.65-3.04,3.51-4.73,5.13-1.85,1.78-3.9,3.37-6.04,4.79-1.31,.89-2.7,1.67-4.11,2.39-2.14,1.09-4.42,1.93-6.71,2.6-1.78,.51-3.56,1.05-5.42,1.29-.41,.07-.81,.12-1.23,.11-.77,0-1.28-.1-1.62-.29-.34-.24-.53-.49-.66-.82-.06-.15-.15-.29-.18-.42-.05-.22,.08-.41,.35-.63,.27-.21,.69-.51,1.2-.57,1.51-.44,3-.57,4.5-.95,1.49-.36,3-.76,4.47-1.3,2.19-.79,4.33-1.82,6.35-3.07l.04,.06Z"/>
  <path class="cls-1" d="M278.13,299.26c1.71,.95,3.42,1.9,5.17,2.78l2.61,1.35,2.65,1.26c1.29,.63,2.63,1.11,3.94,1.68,2.29,1.05,4.64,1.97,6.97,2.92,2.36,.87,4.74,1.73,7.14,2.49,2.12,.74,4.32,1.2,6.48,1.71,.7,.15,1.4,.25,2.1,.38,.7,.14,1.4,.3,2.09,.47,.69,.2,1.4,.25,2.09,.48,.69,.23,1.38,.47,2.08,.66,.87,.27,.75,.33-.04,.51-.39,.1-.95,.21-1.64,.43-.34,.09-.72,.24-1.12,.31-.39,.04-.81,.07-1.23,.07l-2.25-.14c-.75-.05-1.49-.19-2.23-.29-1.47-.27-2.94-.58-4.41-.89-1.46-.34-2.9-.76-4.34-1.17-1.44-.43-2.82-1.03-4.23-1.56-3.34-1.34-6.88-2.5-10.26-3.93-1.85-.79-3.67-1.66-5.5-2.5-1.8-.91-3.61-1.78-5.38-2.74l-3.26-1.78-3.21-1.86c-3.25-1.87-6.39-3.94-9.52-5.94-2.41-1.59-4.88-3.01-7.25-4.65-.52-.36-1.08-.65-1.54-1.1-1.83-1.5-2.05-2.42-2.04-3.21,0-.19-.02-.39,.01-.53,.06-.24,.33-.27,.81-.2,.48,.08,1.21,.24,1.97,.64,2.25,1.19,4.35,2.65,6.53,4.05,1.09,.71,2.18,1.42,3.28,2.14,1.11,.7,2.22,1.41,3.34,2.12,1.68,1.02,3.36,2.04,5.04,3.06,1.72,.96,3.4,2,5.15,2.9l-.04,.08Z"/>
  <path class="cls-1" d="M309.44,347.58c8.91,2.33,18.01,3.97,27.13,4.14,1.66,0,3.32-.01,4.97-.16,1.66-.07,3.28-.33,4.92-.5,11.61-1.26,21.86-7.9,30.79-15.62,3.97-3.46,7.66-7.29,11.05-11.28,1.09-1.28,2.15-2.59,3.17-3.92,1.04-1.32,2.06-2.65,3.06-4,1-1.35,1.93-2.73,2.9-4.08,.48-.68,.95-1.36,1.4-2.05,.21-.35,.47-.67,.72-1.01,.25-.33,.42-.7,.71-1.01,1.25-1.64,.94-1.63,.98,.35-.01,1.97-.77,5.59-3.05,8.9-.98,1.49-2.01,2.93-3.06,4.35-1.06,1.42-2.2,2.77-3.34,4.12-2.3,2.68-4.71,5.26-7.24,7.73-5.06,4.93-10.58,9.47-16.73,13.19-3.69,2.17-7.57,4.28-11.82,5.73-4.24,1.41-8.62,2.28-12.99,2.64-4.81,.4-9.62,.25-14.37-.22-4.75-.47-9.45-1.26-14.09-2.25-5.71-1.23-11.34-2.78-16.9-4.48-8.43-2.57-16.7-5.67-24.88-8.66-6.36-2.32-12.64-4.49-18.96-6.53-1.39-.46-2.77-.82-4.16-1.31-2.58-.84-4.27-1.38-5.42-1.85-1.15-.52-1.79-.96-2.3-1.44-.23-.22-.56-.45-.69-.62-.23-.3,.22-.46,1.29-.59,.54-.09,1.21-.08,2.01-.04,.81,.02,1.71,.2,2.73,.39,6.02,1.18,11.85,3.27,17.74,5.3,5.85,2.1,11.78,4.22,17.72,6.35,8.82,3.09,17.68,6.12,26.71,8.37v.09Z"/>
  <path class="cls-1" d="M236.11,321.99c1.23-.9,2.41-2.13,3.5-3.43,1.09-1.31,2.09-2.72,3.02-4.19,.67-1.08,1.25-2.21,1.85-3.32,2.14-3.93,4.04-8.06,5.28-12.41,.56-1.92,.89-3.91,1.16-5.87,.16-1.26,.23-2.53,.28-3.8,.02-.63,.11-1.27,.13-1.9,.03-.64,.08-1.27,.23-1.93,.19-.82,.23-.73,.67-.09,.53,.63,1.31,1.9,1.51,3.47,.17,2.78,.02,5.58-.56,8.28-.58,2.7-1.42,5.34-2.51,7.87-1.29,3.02-2.56,6.19-4.24,9.11-1.85,3.19-3.96,6.26-6.64,8.93-.84,.81-1.74,1.59-2.81,2.23-.52,.32-1.18,.6-1.75,.75-.29,.09-.58,.18-.91,.23-.31,.06-.62,.12-.97,.12-.98,.08-2.24-.23-3.02-1.1-.79-.84-1.06-1.85-1.21-2.76-.26-1.85-.05-3.59,.2-5.28,.43-2.63,.94-5.17,1.76-7.66,.18-.55,.35-1.09,.58-1.63,.41-1,.76-1.64,1.11-2.04,.37-.39,.7-.55,1.06-.62,.17-.03,.34-.08,.47-.07,.22,.02,.29,.26,.28,.66,0,.41-.06,1.01-.29,1.72-.61,2.15-1.12,4.4-1.65,6.63-.48,2.23-.9,4.55-.85,6.63,.02,.76,.13,1.49,.33,1.95,.1,.22,.19,.4,.28,.45,.07,.1,.15,.1,.27,.16,.27,.1,.93,.02,1.6-.2,.37-.11,.62-.22,.9-.36l.44-.26,.45-.32,.05,.06Z"/>
  <path class="cls-1" d="M228.09,282.68c-.33-.33-.65-.71-.97-1.07-.31-.41-.68-.92-.86-1.24l-1.35-2.2c-.9-1.49-1.81-3-2.6-4.59-.58-1.16-1.19-2.32-1.64-3.57-.88-2.08-.92-5.27-1.58-5.6-.15-.14-.4-.14-.58-.02-.09,.04-.19,.16-.28,.25-.11,.17-.25,.34-.35,.55-.43,.82-.68,1.82-.77,2.82-.18,1.8,.31,3.66,.92,5.42,.39,1.14,.9,2.26,1.42,3.37,.51,1.12,1.12,2.19,1.28,3.52,.12,.82,.04,.76-.66,.39-.73-.35-2.16-.99-2.8-2.36-1.23-2.34-2.37-4.87-2.66-7.74-.16-1.43-.08-2.94,.3-4.39,.19-.73,.46-1.45,.86-2.14,.08-.17,.22-.35,.34-.52,.12-.17,.23-.33,.45-.53,.35-.38,.81-.75,1.32-.93,.61-.25,1.28-.21,1.88,.04,.27,.17,.56,.32,.77,.58,.19,.25,.46,.51,.58,.76l.35,.73,.22,.66c.17,.44,.21,.86,.32,1.29,.26,1.46,.82,2.82,1.46,4.22,1.43,3.04,3.25,5.95,5.09,8.94,.47,.75,1.2,1.5,1.94,2.2,.76,.7,1.57,1.37,2.4,2.01,2.53,1.92,5.27,3.66,8.12,5.05,2.23,1.06,4.53,1.81,6.84,2.44,.51,.12,1.01,.26,1.53,.36,.96,.18,1.57,.39,2,.58,.43,.19,.68,.4,.88,.65,.09,.12,.21,.23,.27,.33,.09,.17-.08,.31-.47,.43-.39,.1-1.02,.27-1.81,.28-2.33-.12-4.67-.65-6.93-1.43-2.25-.82-4.43-1.86-6.52-3.06-1.55-.89-3.07-1.85-4.53-2.91-1.47-1.05-2.88-2.17-4.23-3.49l.04-.05Z"/>
  <path class="cls-1" d="M192.34,273.26c-.12-.65-.07-1.24,.25-1.98,.17-.37,.5-.63,.75-.77,.28-.14,.55-.24,.87-.29,.58-.17,1.41-.11,2.36,.09,.98,.26,2.02,.66,3.02,1.07l1.52,.63c.42,.17,.84,.35,1.24,.55,2.86,1.41,5.65,2.86,8.54,4.08,1.27,.55,2.59,1,3.9,1.35,.84,.23,1.69,.39,2.53,.55,.42,.08,.82,.23,1.24,.33,.41,.09,.82,.33,1.24,.46,.53,.19,.5,.35,.02,.76-.24,.2-.6,.49-1.06,.79-.46,.26-1.01,.41-1.58,.43-3.95-.45-7.47-1.81-10.78-3.56-1.98-1.04-4.15-1.81-6.2-2.7l-.84-.36-.21-.09c-.08-.03-.14-.06-.15-.07l-.15-.07c-.2-.1-.43-.21-.67-.32-.24-.11-.51-.21-.8-.29-.14-.04-.3-.07-.45-.07-.17,0-.27,.12-.29,.25-.07,.32,.11,.61,.3,.87,.2,.27,.46,.53,.75,.78,.26,.25,1.39,1.09,2.3,1.67,.95,.62,1.93,1.19,2.94,1.71,1.57,.8,3.21,1.38,4.85,1.94,.36,.12,.73,.21,1.07,.38,.64,.31,1.05,.53,1.31,.79,.24,.31,.35,.57,.4,.88,.03,.14,.08,.28,.08,.39,0,.2-.15,.31-.47,.42-.32,.1-.82,.23-1.36,.12-1.68-.15-3.22-.8-4.79-1.44-1.55-.67-3.08-1.46-4.56-2.36-.55-.33-1.1-.68-1.64-1.04l-.8-.56-.4-.29-.69-.53c-.96-.75-1.89-1.54-2.55-2.33-.66-.79-.98-1.52-1.14-2.18l.09,.02Z"/>
  <path class="cls-1" d="M192.36,288.82c1.81,.05,3.63,.05,5.47,.04l3.85-.02c1.59,0,3.27-.05,4.59,.06,.29,.07,.68,.12,.88,.21l.49,.29c.34,.18,.46,.37,.62,.56,.03,0,.07,.17,.05,.23-.01,.07-.03,.12-.05,.17l-.14,.29c-.1,.19-.21,.39-.45,.63-.22,.23-.49,.5-.99,.8-.53,.29-1.16,.6-1.88,.9l-3.77,1.53-2.38,.95c-1.43,.57-2.86,1.16-4.26,1.78l-.5,.21-.43,.19c-.29,.14-.6,.29-.9,.5-.14,.11-.31,.22-.38,.39-.06,.2,.15,.28,.29,.31,.3,.07,.64,.05,.98,.03,.31-.03,.63-.07,.96-.13l.72-.14,1-.21c1.33-.3,2.65-.65,3.96-1.01,3.36-.95,6.65-2.19,10.11-2.83,1.09-.18,1.02,.01,.29,.72-.71,.77-2.14,1.91-4.05,2.67-3.42,1.2-6.89,2.25-10.48,3.05l-.68,.14-.55,.12-.65,.12c-.43,.08-.86,.16-1.28,.2-.42,.05-.85,.12-1.22,.12-1.58,.1-2.62-.18-3.14-.65-.32-.22-.59-.48-.76-1.05-.11-.57,.04-.88,.2-1.24,.19-.35,.47-.72,.92-1.11,.44-.39,1.05-.78,1.72-1.15,.8-.44,1.66-.86,2.52-1.25,.53-.23,1.06-.47,1.6-.7,1.02-.44,2.05-.87,3.08-1.31l2.24-.94,1.03-.41,.59-.24,.3-.14s.1-.05,.15-.09c.07-.05-.01-.08-.05-.07-.32-.06-.72-.06-1.05-.1h-1.53s-3.83,.1-3.83,.1c-1.5,.04-3.01,.05-4.53,.02-.76-.01-1.52-.05-2.29-.1-.82-.07-1.39-.09-2.62-.33-1.52-.32-2.75-.87-3.22-2.01-.08-.25-.14-.52-.06-.78,.06-.26,.2-.47,.34-.66,.32-.37,.72-.69,1.23-.96,.97-.54,2.44-.95,3.15-1.13,1.74-.44,3.47-.76,5.2-1.05,3.49-.58,6.9-1.15,10.39-1.52,.77-.08,1.52-.18,2.3-.22,2.89-.13,3.94,.25,4.49,1.11,.12,.2,.28,.43,.24,.62-.14,.26-.19,.48-.65,.63-.45,.16-1.22,.31-2.23,.43-2.99,.34-6.12,.7-9.26,1.12-3.14,.42-6.33,.91-9.37,1.57l-1.15,.29h0s-.02,0-.04,0c0,0,0,.02,.01,.03,0,0,.01,0,.02,.01h0s-.04,0,.08,.02c.16,.03,.34,.05,.51,.07,1.37,.17,2.84,.23,4.29,.26v.06Z"/>
  <path class="cls-1" d="M208.3,303.02l4.18-2.09c.71-.35,1.42-.71,2.18-1.05,.51-.19,2.25-1.2,3.42-.37,.14,.09,.28,.16,.41,.24l.2,.12c.13,.08,.29,.12,.43,.19,.97,.42,2.09,.54,3.24,.6,2.04,.08,4.18-.27,6.33-.81l.83-.21c.25-.06,.77-.2,1.21-.13,.49,.07,.77,.15,1.08,.27,.32,.1,.6,.22,.87,.35,1.11,.49,2.12,1.06,3.11,1.67,1.74,1.09,3.44,2.23,5.07,3.44,2.1,1.5,4.13,3.33,5.28,5.78,.35,.75,.25,.66-.33,.26-.28-.21-.72-.46-1.27-.71-.26-.14-.58-.25-.88-.41-.29-.16-.57-.35-.88-.54l-.79-.52c-.27-.17-.55-.32-.79-.53-.49-.39-1.01-.75-1.51-1.13-1.03-.73-2.08-1.45-3.15-2.11-1.07-.68-2.16-1.32-3.23-1.94-.54-.3-1.08-.61-1.61-.84-.27-.14-.52-.23-.76-.33-.14-.06-.24-.09-.31-.1-.03-.02-.07-.05-.11-.05-.03,0-.04,0-.1,0-.07,.01-.15,.03-.25,.05l-.57,.13-1.19,.3c-.81,.19-1.62,.39-2.46,.54-1.67,.31-3.43,.49-5.21,.25-.65-.07-1.3-.24-1.94-.41-.32-.11-.63-.24-.95-.36-.3-.09-.69-.36-.73-.37-.09-.07-.19-.13-.3-.09-.05,0-.11,.03-.16,.04l-.26,.1c-.5,.21-1.02,.46-1.54,.72l-3.15,1.61c-1.95,1-3.92,1.99-5.99,2.85l-.59,.24-.68,.26c-.57,.2-1.15,.39-1.72,.51-1.14,.24-2.11,.21-2.94-.18-.4-.21-.82-.57-.94-1.07-.11-.48-.01-.93,.14-1.37,.33-.87,1.02-1.75,1.81-2.6,1.84-1.89,3.64-3.74,5.46-5.61,.37-.39,.7-.8,1.05-1.19,.33-.36,.59-.65,.81-.87,.24-.22,.46-.35,.66-.46,.39-.21,.74-.25,1.19-.26,.2,0,.43-.05,.62-.05,.33,0,.54,.25,.57,.8,.02,.53-.15,1.28-.57,2.04-1.41,2.1-3.1,3.76-4.81,5.36l-1.28,1.16-.62,.57-.27,.26s0,0,0,0c0,.02,.02,.01,.02,.01,0,0-.03,.03,0,.04,1.48-.48,3.08-1.27,4.62-2.04l.04,.06Z"/>
  <path class="cls-1" d="M434.82,343.59c.65,2.81,1.36,5.6,1.91,8.42l.88,4.23,.77,4.25,.6,3.09c.18,1.03,.36,2.07,.51,3.1,.57,3.65,.98,7.33,1.35,11.01l.44,5.52c.16,1.84,.21,3.69,.33,5.53,.24,3.27,.32,6.56,.46,9.8,.04,2.09,.07,4.18,.11,6.27-.08,2.09-.33,4.18-.65,6.25-.21,1.29-.3,1.11-.62,.01-.19-.62-.42-1.4-.69-2.27-.26-.94-.49-2.04-.62-3.22-.15-2.11-.25-4.21-.36-6.31-.1-2.1-.33-4.2-.41-6.3-.24-4.21-.5-8.42-.82-12.66-.36-5.07-1.28-10.29-2.13-15.42-.48-2.82-1.01-5.63-1.55-8.44-.62-2.79-1.13-5.61-1.84-8.39l-1.26-5.14-1.4-5.1c-.72-2.57-1.54-5.12-2.31-7.68-.85-2.53-1.7-5.06-2.63-7.55-.75-1.92-1.54-3.8-2.34-5.67-.85-1.85-1.7-3.69-2.55-5.54-.38-.81-.76-1.6-1.15-2.42-.68-1.53-1.09-2.56-1.23-3.34-.11-.8-.03-1.33,.18-1.82,.1-.23,.17-.5,.28-.66,.19-.27,.54-.14,1.03,.31,.49,.45,1.16,1.2,1.75,2.3,3.65,6.43,6.56,13.68,9.07,21.08,.98,2.73,1.77,5.53,2.65,8.31,.79,2.8,1.59,5.6,2.31,8.41l-.08,.03Z"/>
  <path class="cls-1" d="M371.1,391.89c.14,3.04,.2,6.08,.19,9.12,.01,1.11,.08,2.21,.05,3.32-.12,3.9-.35,7.79-.74,11.66-.14,1.72-.26,3.45-.34,5.15-.08,1.1-.09,2.2-.21,3.29-.16,1.09-.33,2.18-.75,3.24-.4,.65-.5,.54-.99-.09-.25-.31-.5-.75-.76-1.27-.23-.52-.38-1.11-.4-1.74-.07-1.12,.08-2.21,.12-3.32l.21-3.31c.16-2.21,.32-4.42,.58-6.65,.32-2.66,.17-5.45,.18-8.18,0-3-.05-6.01-.2-9.01l-.15-2.77-.23-2.77c-.26-2.79-.57-5.59-1.07-8.33-.42-2.12-1.05-4.16-1.59-6.22-.13-.45-.25-.9-.38-1.35-.32-1.72-.21-2.33,.41-2.87,.14-.12,.26-.27,.4-.36,.43-.29,1.12,.29,1.7,1.5,.46,.89,.82,1.82,1.12,2.78,.3,.96,.65,1.92,.87,2.91,.46,1.98,.84,4.02,1.13,6.06,.24,1.52,.38,3.05,.56,4.58,.12,1.53,.28,3.07,.37,4.6h-.08Z"/>
  <path class="cls-1" d="M408.64,401.89c-3.28,1.28-6.62,2.41-9.99,3.41-1.23,.37-2.43,.81-3.68,1.12-4.39,1.09-8.85,1.89-13.37,2.25-2,.19-4.01,.33-6.01,.43-.64,0-1.29,.04-1.94,.02-.65-.01-1.29-.07-1.94-.12-1.29-.15-2.6-.32-3.76-1.07-.73-.44-.58-.52,.16-.89,.37-.17,.9-.54,1.47-.73,.29-.12,.61-.26,.93-.34,.32-.06,.65-.1,.99-.09,2.43-.08,4.87-.15,7.33-.33,2.46-.19,4.94-.47,7.46-.78,3.02-.33,6.05-1.3,9.03-2.17,3.29-.95,6.55-2.03,9.75-3.27,1.97-.77,3.93-1.57,5.85-2.46,2.91-1.34,5.79-2.79,8.46-4.49,2.09-1.3,3.9-2.93,5.7-4.46,.38-.35,.75-.7,1.13-1.05,.71-.66,1.25-.97,1.69-1.18,.42-.21,.78-.25,1.19-.2,.19,.02,.39,0,.54,.05,.26,.07,.33,.32,.28,.77-.04,.47-.28,1.09-.69,1.8-.61,1.07-1.43,1.93-2.23,2.84-.42,.43-.83,.88-1.28,1.27l-1.38,1.15c-1.89,1.48-3.89,2.85-6,4-3.12,1.74-6.38,3.22-9.66,4.59l-.04-.08Z"/>
  <path class="cls-1" d="M390.61,210.1c-1.46-2.15-4.14-3.48-6.97-3.48-.51-.04-1.02,.08-1.53,.12-.48,.14-1.01,.18-1.47,.37-.28,.1-.58,.16-.84,.29l-.79,.37-.71,.47c-.13,.07-.21,.18-.3,.28-.05,.07-.13,.03-.09,.11-.16,.03-.17,.16-.2,.27-.01,.06,0,.12,0,.18,.03,.08,.04,.21,.08,.33,.14,.51,.4,1.1,.68,1.69,.56,1.18,1.23,2.37,1.86,3.58,.83,1.65,1.73,3.29,2.45,5.04,.23,.56,.45,1.14,.64,1.72,.17,.6,.3,1.21,.37,1.85,.06,.63,.12,1.28,0,1.93-.12,.64-.33,1.27-.61,1.85-.4,.71-.58,.46-.82-.22-.13-.34-.3-.79-.56-1.26-.11-.23-.28-.48-.39-.73-.1-.25-.2-.51-.26-.78-.14-.49-.29-.97-.5-1.45-.19-.48-.35-.99-.56-1.48-.41-1-.9-2-1.43-3.01-1.07-2.02-2.18-4.07-3.14-6.49-.21-.55-.43-1.12-.58-1.86-.03-.19-.02-.45-.05-.67-.01-.23,.02-.46,.04-.68,.04-.47,.34-.83,.54-1.23,.23-.09,.31-.27,.48-.4l.36-.34c.2-.2,.43-.33,.64-.5l.66-.47,.7-.36c.46-.26,.96-.43,1.45-.59,.49-.19,.99-.27,1.49-.37,1.76-.3,3.56-.23,5.28,.19,1.73,.41,3.35,1.29,4.67,2.49,1.63,1.49,2.66,3.52,3.15,5.58,.13,.8,.34,1.55,.32,2.43,0,.85-.16,1.65-.36,2.44-.43,1.55-1.11,2.98-1.92,4.32-1.22,2.09-2.79,3.98-4.88,5.4-.49,.27-.92,.62-1.47,.81-.99,.38-1.74,.41-2.23,.37-.52-.17-.81-.37-1.03-.6-.1-.11-.22-.2-.28-.29-.09-.15,.06-.31,.36-.54,.31-.21,.73-.57,1.26-.83,1.56-.84,2.96-2.04,4.15-3.51,1.22-1.42,2.3-3.06,3.01-4.79l.34-.97c.07-.32,.17-.64,.23-.96,.02-.3,.12-.63,.09-.91v-.43c0-.15-.05-.33-.07-.5l-.16-1.02c-.07-.34-.2-.64-.29-.97l-.15-.48c-.06-.15-.15-.29-.23-.44-.17-.28-.3-.59-.5-.85l.05-.04Z"/>
  <path class="cls-1" d="M332.04,234.69c1.32,2.44,3.1,4.76,5.35,6.41,1.62,1.19,4,1.98,5.98,1.22,3.47-1.33,4.07-5.73,4.17-8.96,.05-1.68-.06-3.36-.3-5.03-.12-.8-1.13-1.24-1.85-1.05-.86,.24-1.16,1.04-1.05,1.85,.05,.38-.04-.38,0,.02,.01,.13,.03,.26,.05,.39,.03,.3,.06,.6,.08,.9,.05,.67,.07,1.34,.08,2,0,.78-.02,1.55-.1,2.32-.01,.16-.03,.31-.05,.47,0,.07-.07,.46,0,.07-.01,.08-.02,.15-.03,.23-.07,.38-.13,.75-.22,1.12-.08,.34-.18,.67-.3,1-.03,.1-.24,.56-.06,.18-.08,.17-.16,.34-.25,.5-.07,.13-.15,.26-.23,.38-.04,.07-.09,.13-.14,.2-.11,.17,.26-.26,.03-.05-.1,.09-.19,.2-.28,.3-.05,.05-.12,.1-.17,.15,.27-.27,.12-.08,.02-.02-.13,.08-.26,.14-.39,.22,.26-.16,.12-.05-.07,.01-.14,.04-.6,.08-.16,.06-.19,0-.37,.03-.57,.02-.11,0-.6-.09-.22,0-.2-.04-.4-.08-.6-.13-.56-.15-.72-.23-1.2-.51-2.11-1.26-3.76-3.59-4.93-5.77-.92-1.7-3.51-.19-2.59,1.51h0Z"/>
  <path class="cls-1" d="M315.8,242.46c.85,1.4,1.93,2.7,3.07,3.87,1.37,1.4,2.98,2.72,4.86,3.33s3.93,.12,5.2-1.42c1.46-1.76,1.53-4.13,1.24-6.29-.31-2.28-1.01-4.46-1.77-6.63-.27-.76-1.03-1.27-1.85-1.05-.74,.2-1.31,1.08-1.05,1.85,.57,1.65,1.13,3.31,1.5,5.03,.05,.23,.09,.47,.14,.7,.02,.1,.04,.21,.05,.31,0,.06,.05,.39,.02,.14,.06,.48,.1,.96,.1,1.44,0,.22,0,.44-.02,.66,0,.1-.08,.59-.02,.3-.04,.2-.07,.4-.13,.59-.03,.11-.07,.21-.1,.31-.08,.3,.11-.18-.04,.12-.08,.15-.17,.29-.25,.44-.19,.34,.12-.13-.03,.05-.06,.06-.11,.13-.17,.19-.08,.08-.49,.38-.21,.2-.16,.1-.32,.2-.49,.28,.36-.17-.11,0-.2,.03-.11,.03-.33,.02,.03,0-.07,0-.14,.02-.21,.01-.08,0-.56-.03-.34,0s-.02,0-.07-.02c-.11-.03-.22-.05-.33-.08-.17-.05-.33-.11-.5-.16-.26-.09-.02-.01,.03,.01-.09-.04-.19-.09-.28-.13-.36-.18-.71-.4-1.04-.63-.15-.1-.29-.21-.43-.31,.22,.17-.02-.01-.07-.06-.09-.07-.18-.14-.26-.22-.31-.27-.62-.55-.91-.84-.66-.64-1.27-1.33-1.84-2.05-.05-.06-.1-.13-.15-.19,.23,.29-.01-.02-.04-.06-.11-.14-.21-.29-.31-.43-.19-.27-.37-.54-.54-.82-1-1.65-3.6-.14-2.59,1.51h0Z"/>
  <path class="cls-1" d="M350.58,259.2c-.09,.27-.18,.54-.29,.81-.03,.08-.06,.15-.09,.23,.2-.55,.09-.22,.04-.09-.06,.14-.13,.28-.2,.42-.16,.31-.33,.61-.52,.9-.09,.14-.52,.65-.13,.2-.12,.14-.24,.29-.36,.42s-.26,.27-.4,.4c-.08,.07-.15,.14-.23,.2-.29,.24,.15-.1,.05-.04-.35,.22-.68,.44-1.05,.62-.34,.17,.32-.12,.03-.01-.11,.04-.22,.08-.33,.12-.22,.07-.44,.13-.67,.18-.11,.02-.22,.04-.33,.06-.18,.03-.13,.02,.14-.02-.07,0-.13,.02-.2,.02-.28,.03-.56,.04-.85,.04-.85,0-1.66,.75-1.62,1.62s.71,1.63,1.62,1.62c1.76,0,3.57-.45,5-1.52,1.18-.89,2.12-2.03,2.76-3.37,.3-.63,.57-1.29,.78-1.96,.26-.81-.3-1.81-1.13-2-.89-.2-1.72,.27-2,1.13h0Z"/>
  <path class="cls-1" d="M330,221.1c1.61-2.14,3.66-4.01,5.96-5.4,1.12-.68,2.34-1.25,3.68-1.25,1.46,0,2.88,.55,4.23,1.04,.83,.3,1.78-.33,2-1.13,.25-.9-.31-1.7-1.13-2-1.64-.59-3.33-1.15-5.1-1.15s-3.54,.65-5.08,1.55c-2.9,1.69-5.35,4.04-7.36,6.7-.53,.7-.11,1.82,.58,2.22,.83,.49,1.69,.12,2.22-.58h0Z"/>
  <path class="cls-1" d="M320.22,226.49c-2.29-1.18-5.09-.77-7.16,.72s-3.33,3.64-4.51,5.82c-.41,.75-.21,1.8,.58,2.22s1.79,.21,2.22-.58c.47-.87,.95-1.74,1.5-2.57,.14-.22,.29-.43,.45-.64,.17-.23-.03,.03,.08-.1,.08-.1,.16-.2,.25-.3,.33-.37,.69-.69,1.05-1.03,.19-.17-.18,.12,.02-.02,.1-.07,.2-.14,.3-.21,.21-.13,.42-.25,.64-.36,.09-.04,.18-.09,.27-.12-.28,.12,.03,0,.09-.02,.23-.08,.46-.15,.7-.2,.12-.03,.24-.05,.36-.07-.16,.02-.16,.02,0,.01,.24,0,.47,0,.71,0,.31,.01-.12-.05,.06,0,.11,.04,.23,.05,.34,.08,.09,.03,.18,.06,.27,.09-.31-.09,.07,.04,.13,.07,.75,.39,1.8,.22,2.22-.58,.39-.75,.22-1.81-.58-2.22h0Z"/>
  <path class="cls-1" d="M67.75,227.43c-8.3,18.87-13.08,39.28-14.02,59.9-.93,20.61,2.01,41.4,8.61,60.96,2.41,7.14,5.29,14.12,8.72,20.82,3.43,6.7,7.17,13.25,11.49,19.41,.9,1.4,1.91,2.71,2.89,4.05,1,1.32,1.94,2.7,2.98,3.98,2.1,2.57,4.13,5.19,6.39,7.63,4.35,5.01,9.14,9.63,14.08,14.05,10.01,8.71,20.97,16.38,32.83,22.43,11.82,6.1,24.34,10.85,37.22,14.27,12.9,3.36,26.16,5.32,39.49,5.95,23.63,1.08,47.71-2.3,69.66-10.66l5.26-2.08c1.75-.71,3.44-1.55,5.16-2.32l2.57-1.18c.86-.39,1.67-.87,2.51-1.3l5.01-2.63,4.85-2.9c.8-.49,1.62-.96,2.42-1.47l2.34-1.59c1.55-1.07,3.14-2.09,4.66-3.21l4.48-3.44c1.53-1.11,2.91-2.39,4.34-3.62l2.14-1.85,1.07-.92c.35-.32,.68-.66,1.01-.98l4.04-3.95c.69-.64,1.33-1.33,1.95-2.04l1.91-2.08c2.63-2.71,4.9-5.72,7.28-8.63,1.18-1.47,2.2-3.06,3.31-4.58,1.1-1.53,2.19-3.07,3.2-4.66,5.17-7.86,4.89-6.66,1.54,.73-.76,1.9-2.04,3.98-3.44,6.44-.36,.61-.72,1.24-1.1,1.89-.38,.65-.77,1.32-1.23,1.96-.9,1.31-1.85,2.69-2.84,4.12-.5,.72-1.01,1.46-1.55,2.19-.57,.71-1.16,1.43-1.75,2.17-1.21,1.46-2.42,3.02-3.76,4.53-2.81,2.91-5.74,6.07-9.18,8.93-2.91,2.7-6.14,5-9.25,7.45l-4.89,3.36c-.82,.55-1.63,1.13-2.46,1.66l-2.54,1.53c-6.71,4.21-13.87,7.65-21.15,10.73l-5.52,2.18c-1.85,.69-3.74,1.28-5.61,1.93l-2.81,.95-2.85,.81c-1.9,.53-3.8,1.09-5.71,1.6-3.86,.85-7.68,1.87-11.59,2.48-1.95,.33-3.88,.75-5.84,1l-5.88,.77c-7.85,.84-15.76,1.39-23.67,1.19-3.96,.04-7.9-.3-11.85-.49-1.97-.16-3.94-.38-5.9-.57l-2.95-.3-2.94-.42-5.87-.86-5.83-1.11c-.97-.19-1.95-.35-2.91-.58l-2.89-.69c-1.92-.47-3.86-.89-5.77-1.41-3.8-1.11-7.64-2.11-11.37-3.45l-2.82-.95c-.94-.31-1.88-.64-2.8-1.01l-5.54-2.16c-17.51-7.25-34.46-17.15-49.07-30.08-14.65-12.84-27.06-28.39-36.25-45.48-10.15-18.77-16.65-39.48-19.1-60.65-2.48-21.16-1.01-42.76,4.34-63.36,.36-1.6,.86-3.16,1.31-4.73,.47-1.57,.9-3.15,1.41-4.7l1.59-4.65c.27-.77,.52-1.55,.81-2.32l.9-2.28,1.8-4.57,2-4.48c1.27-3.02,2.86-5.88,4.31-8.81,6.03-11.6,13.27-22.57,21.6-32.63l2.38-2.85,1.19-1.43,1.27-1.36,5.07-5.43c1.72-1.78,3.56-3.44,5.34-5.17l2.69-2.56,2.82-2.41c7.42-6.57,15.54-12.31,23.93-17.52,2.12-1.27,4.22-2.58,6.37-3.8l6.55-3.48c2.15-1.21,4.44-2.17,6.66-3.23,2.25-1.02,4.45-2.14,6.76-3.01l6.86-2.76c2.3-.86,4.65-1.61,6.97-2.43l3.49-1.2,3.54-1.02c2.36-.67,4.71-1.37,7.08-2.01,14.79-3.77,29.88-5.75,44.97-5.79,15.08-.08,30.18,1.86,44.76,6.07,6.41,1.89,12.57,4.14,18.69,7.01,1.4,.69,2.77,1.32,4.04,1.99,1.26,.68,2.47,1.33,3.63,1.95,2.26,1.34,4.33,2.53,6.13,3.76,3.65,2.38,6.42,4.56,8.64,6.42,4.4,3.78,6.57,6.35,8.1,8.59,.68,1.04,1.62,2.35,1.93,3.02,.51,1.14-1.09,0-4.45-2.88-3.39-2.84-8.75-7.27-16.27-12-11.15-7.02-23.62-12.19-36.72-15.45-13.1-3.26-26.78-4.71-40.53-4.55-13.75,.16-27.58,2-41.07,5.36-13.49,3.43-26.71,8.2-39.24,14.41-9.27,4.69-18.18,10.07-26.6,16.17-8.41,6.12-16.18,13.09-23.41,20.56-7.27,7.45-13.66,15.72-19.45,24.36l-2.14,3.27-1.07,1.63c-.35,.55-.66,1.12-.99,1.68l-3.9,6.76c-1.24,2.29-2.36,4.64-3.55,6.95-.57,1.17-1.21,2.31-1.72,3.5l-1.58,3.56h-.11Z"/>
  <path class="cls-1" d="M267.03,319.02c-.54,1.01-1.16,1.99-1.84,2.92-.23,.35-.46,.7-.72,1.03-.96,1.14-2.16,2.05-3.34,2.89-.54,.36-1.05,.74-1.61,1.04-.36,.2-.69,.42-1.06,.59-.37,.16-.75,.3-1.14,.42-.24,.07-.28-.08-.19-.36,.09-.27,.28-.7,.61-1,.58-.54,1.13-1.08,1.65-1.64,.29-.24,.59-.47,.86-.72,.28-.25,.59-.47,.87-.73,.35-.29,.67-.63,.93-1.02,.29-.36,.55-.75,.83-1.13,.61-.82,1.16-1.71,1.65-2.63,.3-.57,.59-1.15,.83-1.76,.38-.91,.72-1.85,.99-2.81,.2-.75,.25-1.51,.36-2.27,.02-.17,.04-.33,.08-.5,.16-.61,.37-.77,.92-.79,.13,0,.25-.02,.37-.01,.41,.03,.69,.36,.76,.85,.12,.74,.1,1.49,.02,2.23-.1,.74-.18,1.5-.45,2.23-.35,1.08-.82,2.14-1.32,3.18l-.06-.02Z"/>
  <path class="cls-1" d="M125.16,83.24c-.02,.47-.48,.69-1.16,.79-.22,.03-.75-.19-.78-.34-.07-.29-.15-.59-.18-.87,0-.17,.37-2.63,.42-3.49,.07-.83,.23-1.62,.41-2.4l.28-1.2,.34-1.17,.68-2.35c.1-.35,.25-.68,.43-1,.63-1.09,1.01-2.27,1.27-3.49,.04-.2,.13-.4,.04-.64-.15-.39,.73-3.63,1.05-3.99,.64-.93,1.15-1.91,1.71-2.87,.08-.14,.07-.31,.29-.39,.5-.19,.52-.53,.68-.84,.21-.42,.43-.84,.71-1.25,.14-.2,.42-.35,.66-.52,.21-.15,.71,.11,.75,.19,.11,.25,.42,.16,.64,.21,.08,.02,.18,.04,.24,.06,.06,.03,.17,.77,.3,1.55,.06,.4,.11,.8,.16,1.11,.02,.31,.03,.55,0,.62,0,.04-.19,1.03-.39,2.07-.19,1.04-.39,2.13-.41,2.36-.02,.24-.18,.44-.31,.64-.05,.1-.77,3.19-.83,3.3-.27,.6-.34,1.27-.92,1.76-.11,.1-.14,.23-.18,.35-.33,1.08-.86,2.09-1.33,3.11-.24,.52-.4,1.08-.61,1.61-.04,.1-.12,.18-.18,.27-.07,.11-.17,.22-.21,.34-.47,1.28-1.23,2.44-1.67,3.73-.11,.29-1.05,1.54-1.15,1.88-.07,.19-.75,.64-.75,.83Z"/>
  <path class="cls-1" d="M88.89,102.56c.51,.14,.51,.76,.25,1.63-.08,.28-.62,.89-.8,.89-.35,.01-.71,.03-1.03,0-.19-.04-2.59-1.19-3.46-1.49-.83-.31-1.58-.73-2.31-1.17-.73-.46-1.51-.85-2.24-1.32l-2.18-1.38c-.32-.2-.61-.46-.87-.75-.89-1.01-1.99-1.73-3.17-2.32-.2-.1-.37-.24-.65-.19-.47,.1-3.43-1.85-3.76-2.2-.39-.46-.8-.88-1.22-1.31-.41-.44-.82-.87-1.23-1.31-.12-.13-.3-.16-.32-.43-.05-.61-.4-.73-.68-.95-.42-.27-.74-.71-1.06-1.16-.16-.22-.24-.58-.36-.86-.11-.26,.23-.64,.33-.67,.28-.04,.24-.36,.32-.56,.03-.07,.07-.16,.11-.21,.04-.05,.87-.05,1.81-.15,.89-.02,1.75,.11,1.9,.17,.04,.01,1.07,.4,2.16,.81,1.06,.45,2.16,.94,2.4,1.02,.25,.08,.41,.32,.59,.51,.09,.07,3.28,1.47,3.36,1.61,.56,.45,1.25,.7,1.57,1.5,.06,.16,.2,.22,.32,.29,1.04,.65,1.93,1.51,2.85,2.34,.47,.42,1,.75,1.5,1.13,.09,.07,.14,.19,.21,.28,.09,.11,.16,.26,.27,.35,1.15,.93,2.13,2.07,3.33,2.93,.28,.2,1.2,1.64,1.52,1.85,.18,.13,.33,1.07,.54,1.12Z"/>
</svg>