<?xml version="1.0" encoding="UTF-8"?>
<svg id="_149.Doctor" data-name="149.Doctor" xmlns="http://www.w3.org/2000/svg" viewBox="0 0 520 520">
  <defs>
    <style>
      .cls-1, .cls-2 {
        fill: #231f20;
      }

      .cls-3, .cls-2 {
        opacity: .3;
      }

      .cls-4 {
        opacity: .25;
      }

      .cls-5 {
        opacity: .4;
      }

      .cls-6 {
        opacity: .35;
      }
    </style>
  </defs>
  <g>
    <path class="cls-1" d="M257.23,295.98c1.49-.53,2.89-1.44,3.97-2.66,.42-.43,.67-.96,1.02-1.47,1.22-1.82,2.14-4.02,2.83-6.25,.31-.99,.55-2.02,.76-3.03,.2-1.31,.62-2.6,1.03-3.9,.13-.4,.14-.34,.21,.02,.05,.36,.24,1.05,.32,1.85,.01,.35,.08,.71,.04,1.05l-.11,1.04c-.08,.69-.17,1.38-.29,2.07-.23,1.38-.58,2.74-1.07,4.08-.61,1.58-1.06,3.33-2.03,4.92-1.15,1.71-2.7,3.1-4.48,4.04-1.1,.57-2.27,1-3.49,1.21-1.84,.35-3.78,.19-5.56-.44-1.36-.5-2.71-1.19-3.76-2.26-.21-.25-.44-.47-.64-.74-.2-.24-.32-.46-.38-.66-.07-.2-.11-.37-.12-.52-.02-.3,.09-.53,.3-.77,.1-.11,.19-.23,.29-.32,.36-.28,.94-.08,1.47,.41,.4,.36,.82,.68,1.21,.99,.44,.26,.82,.56,1.25,.79,.82,.49,1.72,.86,2.7,1,1.44,.26,3.04,.09,4.52-.5l.03,.06Z"/>
    <path class="cls-1" d="M217.66,289.11c.83,1.12,1.96,2.09,3.29,2.79,.24,.12,.5,.23,.75,.34,.26,.09,.52,.18,.77,.29,1.8,.72,3.81,1.08,5.77,.84,.87-.11,1.71-.4,2.46-.8,.92-.59,1.84-1.12,2.6-1.98,.25-.25,.4-.15,.44,.25,.05,.39,0,1.16-.46,1.83-.41,.58-.92,1.12-1.55,1.42-.6,.36-1.25,.62-1.9,.81-1.31,.39-2.67,.49-3.99,.35-1.57-.17-3.19-.36-4.71-.92-1.65-.61-3.2-1.53-4.5-2.76-.81-.74-1.48-1.65-2-2.61-.81-1.46-1.23-3.08-1.43-4.67-.19-1.24-.25-2.46-.18-3.69,.03-.27,.03-.53,.07-.8,.04-.51,.26-.8,.4-1.01,.16-.2,.33-.3,.56-.36,.11-.03,.21-.07,.31-.07,.31-.02,.52,.42,.64,1.13,.08,.52,.09,1.03,.13,1.54,.07,.5,.09,1.01,.18,1.5,.13,.99,.24,1.95,.5,2.86,.37,1.36,.96,2.63,1.89,3.67l-.04,.04Z"/>
    <path class="cls-1" d="M266.15,259.36s5.25,5.55,14.08,8.71c0,0,3.32,8.06,1.29,12.1s-9.18,10.21-6.8,17.58c0,0,1.14-4.52,4.64-9.02,3.5-4.5,7.67-9.14,5.45-16.1-2.23-6.96-3.27-7.36-3.27-7.36l-15.39-5.92Z"/>
    <path class="cls-1" d="M297.61,344.22s.97-4.74,2.85-2.52c1.01,1.19-1.52,5.25,2.26,7.67,9.43,6.04,46.95-8.76,47.25-24.88,.1-5.5-26.84-92.81-57.08-103.48-7.32-2.58-18.12,4.14-18.29,4.03,0,0-2.21-1.52,5.72-5.45,7.93-3.93,13.51-3.12,20.78,1.67,7.28,4.8,27.18,30.37,33.22,51.16,6.04,20.79,16.19,35.48,17.8,54.87,1.22,14.65-27.81,25.63-35.98,26.44s-23.17,3.42-18.55-9.51Z"/>
    <path class="cls-1" d="M231.63,326.47c2.09,3.18,4.62,6.12,7.63,8.49,.55,.44,1.11,.86,1.71,1.22,.59,.38,1.17,.77,1.78,1.11,4.18,2.62,9.06,4.14,14.07,4.43,2.22,.08,4.47-.07,6.64-.52l1.05-.19,1.04-.27c.69-.19,1.39-.32,2.07-.56l1.03-.32,1.07-.19c.7-.18,1.44-.28,2.16-.44,.92-.16,.81-.12,.21,.43-.3,.27-.72,.69-1.24,1.23-.26,.27-.55,.54-.88,.78-.16,.13-.34,.24-.51,.39-.19,.08-.39,.18-.59,.25-2.89,1.11-5.96,1.95-9.12,2.08-3.15,.16-6.33-.15-9.37-1-1.82-.48-3.64-1.1-5.44-1.79-1.77-.76-3.53-1.58-5.14-2.63-1.81-1.1-3.43-2.45-5-3.84-1.51-1.45-2.97-2.97-4.21-4.66-1.56-2.04-2.95-4.22-4.08-6.51-1.77-3.45-3.01-7.17-3.8-10.92-.64-2.91-1.16-5.81-1.23-8.79-.03-.65-.03-1.29,.01-1.95,.11-2.45,.61-3.18,1.31-3.6,.17-.09,.34-.23,.49-.27,.26-.08,.47,.14,.64,.59,.17,.45,.32,1.13,.32,1.97,.11,1.26,.15,2.51,.34,3.77,.08,1.26,.28,2.52,.44,3.78,.39,2.52,.99,5.03,1.77,7.49,1.16,3.64,2.73,7.2,4.9,10.36l-.06,.05Z"/>
    <path class="cls-1" d="M232.63,298.33c-1.46,1.72-2.85,3.48-4.04,5.27-.21,.33-.4,.66-.57,1-.17,.31-.36,.75-.39,.75-.1,.15-.25,.36-.23,.6,.04,.26,.3,.3,.53,.39,.08,.02,.08,.04,.24,.06l.5,.07c.33,.06,.68,.08,1.02,.13,.69,.06,1.4,.1,2.11,.12,1.27,.03,2.55-.09,3.83-.21,.82-.11,1.65-.13,2.5-.12l.64,.03,.64,.14c.43,.11,.85,.23,1.28,.38,.53,.2,.42,.39-.03,.76-.29,.24-.59,.49-.88,.73-.18,.14-.37,.3-.57,.45-.1,.08-.2,.13-.31,.23l-.33,.1-1.21,.29-.61,.15-.62,.06c-.83,.08-1.68,.15-2.54,.2-1.72,.08-3.48,.1-5.34-.24l-.42-.08-.61-.13c-.42-.1-.87-.15-1.23-.32-.79-.23-1.44-.68-1.8-1.41-.32-.73-.33-1.53-.12-2.36,.1-.41,.28-.81,.43-1.22,.21-.43,.31-.61,.46-.88,1.3-2.12,2.82-3.84,4.25-5.65l2.68-3.28c1.33-1.66,2.7-3.29,3.87-5.02,.9-1.35,1.6-2.79,2.21-4.2,.14-.31,.21-.62,.35-.92,.1-.28,.2-.49,.34-.66,.12-.16,.24-.28,.37-.38,.27-.2,.5-.28,.87-.36,.16-.03,.33-.1,.48-.12,.26-.03,.46,.09,.63,.41,.18,.33,.28,.82,.26,1.42-.25,1.69-1,3.13-1.75,4.51-.78,1.38-1.68,2.67-2.6,3.93-1.37,1.87-2.84,3.64-4.24,5.43l-.06-.04Z"/>
    <path class="cls-1" d="M225.39,268.92c1.12,.21,2.24,.44,3.36,.69,.41,.1,.83,.09,1.24,.21,1.44,.35,2.82,.99,4.19,1.57,.3,.14,.61,.24,.92,.37l.89,.42c.38,.19,.75,.39,1.11,.61,.36,.22,.68,.53,.97,.84,.18,.2-.02,.44-.39,.64-.37,.19-.92,.41-1.34,.33l-1.15-.2c-.38-.07-.78-.07-1.12-.22-.72-.24-1.43-.52-2.15-.85-.88-.38-1.88-.42-2.83-.62-1.06-.21-2.12-.42-3.21-.58-.66-.11-1.34-.2-2.01-.27-1.02-.1-2.05-.23-3.07-.21-.8,.03-1.58,.23-2.38,.29-.17,.02-.35,.06-.52,.06-.08,0-.16,0-.22-.01-.07-.03-.13-.07-.18-.11-.11-.08-.2-.16-.27-.25-.15-.19-.23-.42-.29-.73-.03-.14-.07-.28-.08-.41-.05-.43,.23-.84,.71-1.25,.18-.18,.36-.21,.54-.28,.18-.06,.36-.12,.54-.17,.37-.1,.73-.19,1.1-.26,.74-.06,1.5-.05,2.26-.02,1.13,.05,2.26,.21,3.4,.34v.08Z"/>
    <path class="cls-1" d="M219.05,292.19l.73,.57,.37,.29,.41,.23,.82,.47c.29,.13,.6,.23,.9,.35,1.2,.5,2.45,.67,3.68,.6,.45-.06,.91-.08,1.33-.26,.44-.13,.87-.26,1.29-.48,3.04-1.28,5.52-4.24,7.01-7.55,.68-1.47,1.15-3.06,1.39-4.65,.07-.39,.05-.67,.19-1.37-.04-.18,.06-.32,.09-.48,.03-.16,.11-.31,.23-.4,.23-.19,.53-.34,.88-.41,.35-.06,.72-.1,1.06-.12,.24-.01,.47-.02,.71-.01,.94,.01,1.88,.13,2.84,.59,.38,.19,.49,.45,.39,.53-.1,.09-.34,.1-.64,.21-.6,.16-1.56,.72-2.67,.92l-.27,.05-.13,.03s0,0,0,0h0s0,0,0,0h.02s.02,.01,.02,.01h0s0,0,0,0h0s0,0,0,0h0s0,0,0,0h0s.08,.03-.07-.03c.02,.01,.04,.02,.04,.02l-.02,.28c-.02,.25-.04,.49-.09,.73-.08,.48-.15,.97-.25,1.44-.22,.95-.48,1.89-.82,2.8-.67,1.83-1.67,3.54-2.91,5.08-.5,.53-.91,1.13-1.45,1.64l-.77,.8-.85,.74c-.54,.52-1.23,.9-1.85,1.34-.7,.33-1.36,.75-2.12,.93-.41,.11-.81,.28-1.24,.33l-1.27,.17c-.42,.05-.85,0-1.27,0-.43,0-.85-.03-1.26-.13l-1.23-.24c-.39-.12-.78-.27-1.17-.4-.79-.23-1.5-.66-2.23-1.04-1.74-1.05-3.2-2.53-4.27-4.22-1.57-2.61-2.19-5.61-2.27-8.51-.08-2.26,.08-4.5,.71-6.67,.12-.48,.24-.95,.44-1.42,.31-.88,.72-1.37,1.05-1.68,.33-.31,.62-.43,.96-.46,.16-.01,.32-.05,.45-.04,.43,.06,.45,.88,.2,2.09-.04,.47-.16,.9-.26,1.35-.12,.43-.15,.9-.23,1.34-.08,.44-.14,.89-.17,1.35-.02,.45-.11,.89-.12,1.35-.17,1.79-.08,3.61,.26,5.33,.08,.66,.33,1.25,.49,1.88,.11,.3,.24,.59,.36,.88,.12,.3,.24,.59,.41,.85,.54,1.15,1.36,2.08,2.24,2.94l-.05,.06Z"/>
    <path class="cls-1" d="M256.48,297.02c1.5-.43,2.94-1.34,4.18-2.64,1.24-1.29,2.29-2.9,3.13-4.64,.59-1.29,1.03-2.64,1.44-4.01,.39-1.2,.67-2.44,.91-3.68l.15-.94,.07-.44c0-.05,0-.1,.02-.16,.03-.21-.1-.56-.41-.94-.59-.76-1.65-1.48-2.74-2.06-1.11-.58-2.31-1.07-3.54-1.49-2.19-.77-4.51-1.15-6.79-1.57-1.47-.25-2.96-.39-4.44-.54-1.49-.16-2.97-.24-4.47-.2-.92,.05-.85-.03-.1-.44,.74-.4,2.23-1.05,4.05-1.3,1.61-.23,3.21-.2,4.82-.17,.8,.03,1.61,.06,2.41,.15,.8,.11,1.59,.25,2.38,.41,1.58,.32,3.16,.74,4.72,1.3,1.56,.57,3.1,1.26,4.59,2.33,.86,.67,1.81,1.41,2.47,2.76,.35,.63,.48,1.53,.42,2.27l-.17,1.51c-.28,2-.71,3.99-1.36,5.9-.72,2.1-1.65,4.14-2.9,6.04-1.25,1.88-2.83,3.65-4.85,4.92-2.48,1.62-5.66,2.03-8.45,1.47-2.14-.41-4.19-1.49-5.73-3.02-1.56-1.52-2.63-3.39-3.4-5.3-1.18-2.99-1.77-6.09-1.85-9.2,0-.68-.04-1.36,0-2.05,.33-2.55,.8-3.29,1.55-3.71,.17-.09,.34-.23,.5-.27,.5-.15,.84,.92,.97,2.67,.12,1.28,.25,2.57,.37,3.87,.16,1.28,.36,2.55,.67,3.77,.66,2.42,1.42,4.82,2.85,6.54,1.03,1.3,2.3,2.22,3.81,2.69,1.53,.48,3.22,.54,4.69,.07l.03,.09Z"/>
    <path class="cls-1" d="M248.4,255.88c-.93,.46-1.84,.93-2.8,1.29-.48,.19-.94,.4-1.42,.58l-1.45,.5c-.69,.26-1.38,.54-2.1,.72-2.53,.67-5.14,.96-7.72,1.01-.57,.04-1.14,.05-1.71,.06-.57,.01-1.14,.06-1.7,.06-.73-.01-1.45-.07-2.18-.14-.72-.08-1.42-.42-2.11-.65-.43-.18-.33-.36,.08-.66,.21-.15,.49-.33,.83-.53,.17-.1,.35-.19,.53-.28,.09-.05,.19-.07,.29-.13,.09-.01,.19-.03,.29-.04,.7-.07,1.39-.21,2.07-.26,.68,0,1.36-.09,2.04-.11,.68,0,1.36-.11,2.05-.15,.69-.03,1.37-.11,2.07-.17,1.67-.13,3.31-.74,4.93-1.26,.9-.27,1.76-.64,2.65-.96,.85-.4,1.74-.73,2.56-1.18l1.54-.82,1.48-.93c.75-.46,1.43-1.03,2.15-1.54,.69-.56,1.34-1.15,1.96-1.77,.46-.51,.86-1.05,1.26-1.59,.38-.55,.72-1.14,1.09-1.69,.17-.24,.29-.5,.44-.76,.35-.42,.62-.66,.94-.75,.36-.06,.68-.03,1.06,.07,.17,.05,.34,.07,.49,.12,.24,.09,.38,.29,.48,.61,.1,.32,.2,.8,.04,1.23-.81,2.64-2.73,4.83-4.89,6.63-.78,.7-1.66,1.27-2.5,1.9-.9,.54-1.76,1.13-2.68,1.62l-.05-.07Z"/>
    <path class="cls-1" d="M286.38,269.76c.58,2.71,.81,5.46,.53,8.29-.15,1.41-.46,2.85-1.05,4.25-.58,1.38-1.34,2.55-2.16,3.67-1.2,1.6-2.45,3.04-3.57,4.41-.99,1.2-1.85,2.47-2.38,3.81-.59,1.3-.79,2.67-.57,4.04,.42,2.79,2.45,5.37,4.4,8.05,.88,1.2,1.76,2.47,2.4,3.99,.17,.37,.27,.79,.41,1.19,.12,.39,.19,.97,.17,1.38-.01,.89-.18,1.7-.42,2.47-.32,.98-.74,1.92-1.28,2.78-.52,.87-1.16,1.68-1.88,2.39-.7,.74-1.57,1.31-2.47,1.78-.46,.21-.93,.41-1.41,.57-.5,.11-1,.19-1.5,.19-1.25-.01-1.04-.05-.2-.66,.84-.7,2.03-2.01,3.23-3.35,1.1-1.19,1.94-2.65,2.39-4.16,.21-.74,.37-1.51,.33-2.06,0-.16-.03-.22-.04-.3-.02-.1-.11-.3-.16-.45-.08-.32-.29-.66-.46-1-.77-1.36-1.87-2.88-2.97-4.49-1.1-1.62-2.24-3.39-2.94-5.48-.94-2.46-.86-5.52,.18-7.97,.97-2.46,2.59-4.49,4.1-6.29,1.66-1.95,3.23-3.87,4.01-5.99,.74-2.14,.84-4.64,.59-7.08-.15-1.51-.45-3.01-.86-4.46-.2-.72-.44-1.44-.74-2.09-.09-.19-.11-.26-.16-.35-.05-.08-.09-.19-.16-.26-.09-.05-.19-.08-.28-.12l-.44-.17c-.56-.23-1.15-.4-1.73-.59l-1.73-.61c-1.13-.46-2.25-.96-3.36-1.48-2.22-1.04-4.38-2.2-6.48-3.46-3.24-1.98-6.42-4.12-8.96-7.2-.56-.68-1.08-1.37-1.55-2.14-1.55-3-1.18-4.31-.5-5.1,.16-.19,.3-.41,.46-.52,.27-.19,.59,0,.98,.44,.19,.22,.39,.5,.66,.82,.26,.32,.44,.71,.72,1.13,2.98,5,8.45,8.79,14.4,11.75,1.11,.55,2.24,1.07,3.38,1.57,.57,.26,1.16,.47,1.72,.75l1.69,.86c.28,.14,.56,.32,.85,.43l.92,.33c.3,.1,.59,.23,.87,.37,.3,.12,.44,.4,.75,.51l.54,.76c.19,.22,.34,.59,.41,.73,.65,1.4,1.08,2.73,1.39,4.11l-.08,.03Z"/>
    <path class="cls-1" d="M201.51,280.56c1.63-4.19,3.43-8.31,5.42-12.33,2-4.03,4.15-7.93,6.39-11.8,1.64-2.82,3.27-5.65,5.07-8.37,3.17-4.8,6.63-9.43,10.4-13.8,1.87-2.19,3.86-4.29,5.91-6.33,2.02-2.04,4.24-4,6.61-5.72,2.11-1.52,4.37-2.9,6.81-3.93,2.44-1.03,5.07-1.73,7.76-1.83,.86-.08,1.73,.03,2.6,.06l1.29,.2c.43,.05,.86,.15,1.28,.27,1.7,.35,3.37,1.16,4.81,2.15,1.44,1.02,2.71,2.29,3.68,3.76,.49,.73,.89,1.53,1.2,2.36,.28,.83,.58,1.67,.58,2.56-.03,1.11-.23,1.57-.35,1.54-.17-.01-.32-.52-.86-1.25-.99-1.5-2.9-3.65-5.45-5.45-1.12-.83-2.4-1.39-3.68-1.83-1.35-.42-2.74-.71-4.15-.75-2.83-.08-5.73,.64-8.46,1.93-2.75,1.26-5.34,3.05-7.77,5.06-2.41,2.01-4.75,4.34-7.01,6.68-5.41,5.64-10.05,12.41-14.29,19.23-2.34,3.75-4.54,7.6-6.64,11.5-2.11,3.89-4.03,7.87-5.78,11.94-2.14,5-4.03,10.13-5.61,15.34-1.17,3.95-2.33,7.97-3.21,11.97-.89,4.01-1.42,8.08-1.24,12.09,.12,1.55,.26,3.09,.64,4.58,.14,.75,.41,1.47,.61,2.2,.27,.7,.51,1.4,.86,2.07,.65,1.34,1.46,2.61,2.41,3.76,.94,1.16,1.99,2.24,3.16,3.2,1.01,.86,2.09,1.59,3.22,2.3,2.11,1.32,3.6,2,4.6,2.6,1,.6,1.55,1.09,1.96,1.62,.18,.25,.45,.52,.55,.73,.16,.36-.3,.5-1.31,.44-1-.07-2.57-.36-4.4-1.19-2.73-1.18-5.33-2.84-7.65-4.92-1.15-1.05-2.23-2.21-3.2-3.48-.94-1.29-1.82-2.66-2.48-4.17-2.64-6.05-2.6-12.69-1.66-18.81,.7-4.58,1.88-8.99,3.07-13.3,1.22-4.37,2.6-8.71,4.22-12.94l.08,.02Z"/>
    <path class="cls-1" d="M334.73,268.43c5.12,11.06,9.59,22.41,13.24,34.05,1.32,4.25,2.63,8.52,3.59,12.88,.83,3.86,1.56,7.75,1.8,11.78,.11,2.02,.12,4.07-.38,6.25-.33,1.28-1,2.23-1.63,3.1-.67,.83-1.37,1.6-2.12,2.3-2.97,2.8-6.27,5.01-9.68,7.02-3.42,1.98-6.97,3.73-10.64,5.18-6.49,2.58-13.4,4.48-20.47,4.62-2.27,.01-4.55-.16-6.81-.61l-1.68-.39-1.66-.53c-.54-.16-1.32-.53-1.85-1.06-.56-.54-.94-1.23-1.14-1.91-.4-1.38-.27-2.68-.03-3.87,.26-1.19,.65-2.32,1.2-3.36,.53-1.04,1.15-2.03,1.83-2.96,.71-.92,1.56-1.71,2.45-2.44,1.14-.87,1.72-1.11,1.75-1.01,.05,.12-.43,.63-1,1.66-.59,1.02-1.17,2.6-1.87,4.33-.34,.88-.62,1.84-.9,2.83-.28,.97-.5,2.01-.51,2.92-.02,.83,.19,1.37,.46,1.59,.07,.06,.16,.12,.26,.18,.06,.02,.11,.05,.18,.08l.37,.12c.49,.16,.97,.34,1.46,.48,1.99,.57,4.09,.79,6.19,.87,2.11,.07,4.26-.07,6.39-.38,2.13-.3,4.26-.73,6.36-1.31,4.21-1.12,8.33-2.7,12.32-4.58,3.98-1.89,7.84-4.08,11.4-6.66,2.1-1.53,4.18-3.28,5.6-5.25,.17-.24,.35-.49,.46-.72l.19-.35,.11-.32c.16-.46,.25-1.13,.31-1.73,.11-1.26,.08-2.58,0-3.91-.42-5.35-1.74-10.77-3.14-16.07-3.13-11.67-7.33-23.1-12.12-34.25-2.96-6.86-6.18-13.62-9.73-20.18-2.7-4.96-5.54-9.88-8.69-14.56-3.15-4.68-6.54-9.2-10.38-13.22-3-3.09-6.27-5.91-9.94-7.81-1.83-.94-3.76-1.61-5.69-1.84-.48-.09-.96-.05-1.44-.08-.5,.02-1.01,.02-1.52,.08-1.01,.07-2.01,.25-2.99,.46-1.73,.4-3.34,1.05-4.9,1.87-2.89,1.56-4.44,3.13-5.65,4.1-.63,.48-1.11,.88-1.57,1.17-.48,.28-.89,.49-1.29,.67-.37,.16-.79,.42-1.06,.49-.45,.11-.37-.49,.12-1.8,.52-1.28,1.67-3.17,3.8-5.04,3.12-2.79,7.2-4.71,11.5-5.34,1.07-.16,2.16-.25,3.25-.27,.55-.01,1.16,.04,1.73,.06,.57,.08,1.15,.15,1.72,.26,2.25,.47,4.33,1.36,6.24,2.43,3.82,2.17,7,5.05,9.92,8.09,2.9,3.06,5.52,6.34,7.95,9.74,7.18,10.12,13.12,20.98,18.37,32.11l-.07,.05Z"/>
    <path class="cls-1" d="M236.28,281.87c-.01,1.24-.23,2.27-.63,3.31-.15,.37-.24,.8-.49,1.17-.21,.31-.45,.6-.74,.89-.3,.28-.66,.6-1.27,.81-.31,.1-.7,.15-1.08,.08-.36-.08-.71-.26-.96-.51-.5-.5-.6-1.01-.66-1.4-.1-.7-.04-1.29,.11-1.9,.15-.77,.61-1.48,1.32-1.84,.23-.11,.4,.12,.56,.47,.15,.35,.44,.83,.5,1.12,.1,.53,.15,.87,.3,1.21v.21s0,.04,0,.06c0,0,.01,0-.03,.02l-.25,.1c-.31,.14-.51,.31-.58,.39-.07,.1,0-.01-.03,.04,0-.02-.03-.29-.27-.64,0,0,.08-.03,.15-.11,.15-.16,.3-.43,.42-.66,.3-.53,.56-1.29,.61-1.98,0-.21,.01-.42-.01-.62-.02-.19-.02-.29-.07-.44-.06-.2-.17-.42-.35-.56-.2-.13-.38-.16-.81-.18-.59-.02-1.23,.25-1.9,.24-.15,0-.3,.04-.45,.02-.14-.03-.25-.08-.35-.14-.09-.08-.15-.2-.2-.3-.1-.23-.12-.49-.1-.83,0-.16,0-.31,.03-.45,.06-.46,.36-.88,.74-1.27,.27-.19,.53-.3,.8-.4,.27-.11,.55-.19,.84-.18,.3,0,.6,0,.94,.03,.17,.02,.34,.04,.55,.08,.25,.04,.56,.14,.83,.22,.84,.25,1.48,.9,1.93,1.63,.23,.37,.4,.78,.51,1.19,.08,.2,.09,.43,.13,.62,.03,.17,.04,.33,.05,.48h-.08Z"/>
    <path class="cls-1" d="M251.38,283.15c-.03,1.24-.26,2.27-.67,3.3-.15,.37-.25,.79-.51,1.16-.21,.31-.45,.6-.75,.89-.31,.28-.67,.59-1.28,.8-.31,.1-.7,.14-1.08,.06-.36-.09-.7-.27-.96-.52-.49-.51-.59-1.01-.64-1.41-.09-.7-.03-1.29,.13-1.9,.16-.76,.63-1.48,1.34-1.83,.23-.11,.39,.13,.56,.48,.15,.35,.43,.84,.49,1.13,.09,.53,.14,.87,.28,1.22v.21s0,.04-.01,.06c0,0,.01,0-.03,.01l-.25,.1c-.32,.14-.52,.3-.58,.39-.07,.1,0-.01-.03,.04,0-.02-.03-.29-.26-.64,0,0,.08-.03,.15-.1,.15-.16,.3-.43,.43-.65,.31-.53,.58-1.28,.63-1.97,.01-.21,.02-.42,0-.62-.02-.19-.01-.29-.06-.44-.06-.2-.17-.42-.35-.57-.2-.13-.38-.17-.8-.19-.59-.03-1.24,.23-1.91,.22-.15,0-.3,.04-.45,.01-.14-.03-.25-.08-.35-.15-.09-.08-.15-.2-.2-.31-.09-.23-.11-.49-.09-.84,0-.16,.01-.31,.03-.45,.07-.46,.37-.88,.76-1.26,.27-.18,.53-.29,.81-.39,.27-.1,.56-.19,.84-.17,.3,0,.6,0,.94,.05,.17,.02,.34,.04,.55,.08,.25,.04,.56,.14,.82,.23,.83,.26,1.47,.92,1.91,1.65,.22,.37,.39,.78,.49,1.2,.07,.2,.09,.43,.12,.62,.03,.17,.04,.33,.04,.48h-.08Z"/>
    <path class="cls-1" d="M250.81,322.77c-.88,.34-1.76,.6-2.66,.82-.33,.08-.64,.22-.98,.27-1.2,.19-2.47,.08-3.64-.21-.52-.13-1.04-.26-1.51-.49-.62-.26-1.22-.65-1.59-1.23-.11-.18,.06-.32,.35-.42,.29-.09,.7-.22,1-.17,.53,.12,1.05,.09,1.54,.14,.49,.08,.97,.15,1.5,.22,.64,.08,1.3-.17,1.96-.35,.73-.2,1.48-.45,2.19-.77,.44-.19,.88-.4,1.3-.65,.63-.37,1.27-.78,1.79-1.29,.41-.4,.66-.94,.94-1.43,.06-.11,.1-.23,.18-.32,.14-.17,.3-.24,.51-.2,.2,.03,.42,.12,.71,.28,.13,.07,.27,.14,.39,.21,.4,.25,.63,.68,.65,1.21-.08,.69-.42,1.22-.78,1.74-.38,.5-.82,.98-1.34,1.35-.77,.56-1.62,1-2.48,1.39l-.04-.06Z"/>
    <path class="cls-1" d="M252.69,260.54c-.27,.8,.16,2.15,1.38,1.89,1.59-.34,4.24-2.16,7.02-1.78,2.78,.38,4.77,2.88,5.81,1.64s-1.48-4.88-4.75-5.15c-2.66-.21-8.75,1.22-9.47,3.4Z"/>
    <path class="cls-1" d="M229.29,261.43c.16-.04,2.94-1.54,5.79-.73,2.85,.8,5.78,1.35,5.9-.1,.17-2.14-2.7-2.6-4.95-2.56-2.25,.04-7.58,1.55-7.94,2.15s.09,1.53,1.2,1.24Z"/>
    <path class="cls-1" d="M302.82,282.61c.95,1.37,1.48,2.86,1.78,4.33,.3,1.47,.41,2.94,.27,4.4-.03,.53-.11,1.06-.16,1.59-.12,.53-.18,1.06-.38,1.58-.17,.46-.33,.91-.58,1.36-.22,.46-.48,.87-.76,1.25-.54,.78-1.19,1.46-1.85,2.08-1.34,1.23-2.87,2.15-4.46,2.87-1.4,.65-2.86,1.18-4.35,1.53-.96,.23-1.95,.34-2.95,.34l-.75-.04c-.25-.04-.49-.11-.74-.19l-.72-.23-.69-.31c-.56-.28-.39-.5,.17-.81,.28-.17,.64-.32,1.06-.58,.21-.12,.42-.24,.64-.35,.11-.05,.22-.1,.33-.18,.11-.02,.22-.05,.34-.07,.81-.08,1.61-.32,2.4-.52,.79-.21,1.59-.43,2.36-.75,1.54-.61,3.05-1.38,4.39-2.36,.84-.56,1.5-1.35,2.01-2.17,.27-.42,.43-.84,.6-1.27l.2-.69c.06-.23,.09-.48,.15-.72,.2-1.07,.24-2.2,.14-3.32-.13-1.11-.41-2.2-.86-3.19-.56-1.21-1.4-2.24-2.49-2.85-.79-.51-1.83-.69-2.76-.75-.87,0-1.88,.35-2.76,.87-1.4,.85-2.38,2.23-3.2,3.59-.18,.3-.36,.6-.54,.9-.38,.54-.6,.91-.96,1.08-.38,.16-.76,.21-1.21,.18-.21,0-.42,0-.6-.02-.3-.04-.51-.25-.68-.63-.16-.38-.35-.98-.15-1.58,.21-.92,.53-1.83,.97-2.72,.49-.85,1.1-1.64,1.8-2.39,1.44-1.44,3.2-2.74,5.65-3.31,.47-.08,.93-.16,1.45-.16,.55-.02,.97,.05,1.39,.11,.86,.08,1.72,.38,2.56,.7,1.66,.74,3.05,1.96,4.02,3.33l-.08,.06Z"/>
    <path class="cls-1" d="M296.88,314.99c-.61,.55-1.31,.97-2.15,1.21-.83,.25-1.78,.25-2.64-.03-.42-.16-.82-.35-1.14-.6-.14-.12-.27-.24-.38-.38-.63-.8-.88-1.74-.98-2.88-.06-.56-.03-1.2,.04-1.84,.07-.64,.16-1.29,.32-1.95,.18-.61,.32-1.18,.52-1.78,.22-.59,.49-1.22,.81-1.77l.32-.53,.26-.39c.16-.25,.37-.48,.56-.72,.39-.47,.96-.77,1.51-1.02,.36-.15,.48,.13,.52,.61,0,.46,.09,1.25-.12,1.76-.13,.2-.23,.42-.35,.63l-.22,.46c-.04,.08-.04,.02-.1,.07-.1,.07-.31,.28-.64,.97-.19,.4-.24,.73-.22,.96,.02,.24,.09,.39,.2,.67l.02,.05c.26,.69,1.04,.98,1.53,.73,.31-.14,.56-.4,.76-.79,.31-.54,.66-1.29,.39-2.12-.1-.31-.31-.61-.53-.82-.11-.11-.23-.2-.34-.27-.08-.03-.28-.2-.45-.35-.16-.13-.33-.23-.48-.36-.54-.5-.56-.81,.05-1.79,.13-.21,.24-.43,.37-.62,.4-.62,1.26-1.04,1.97-.64,.54,.27,1.05,.63,1.51,1.06,.12,.12,.2,.2,.35,.38,.17,.19,.27,.4,.41,.59,.29,.39,.48,.82,.67,1.25,.2,.43,.35,.87,.48,1.31,.08,.43,.13,.87,.17,1.29,.09,.86-.04,1.65-.19,2.41-.3,1.09-.71,2.11-1.15,3.06-.47,.92-.98,1.69-1.6,2.25l-.03-.09Z"/>
  </g>
  <g>
    <path class="cls-1" d="M369.06,239.46s-2.92-11.03,8.5-16.49c10.3-4.92,22.51,.18,29.17,7.58l.76-6.13s4.45-15.39,20.49-8.84c8.08,3.3,10.8,17.27,12.05,25.08,0,0,1.34,4.89,5.28,4.71s21.42-6.45,32.56,1.88c14.3,10.7,26.16,44.16-11.81,68.25,0,0-3.89-7.67-7.39-6.15-3.49,1.52-7.69,6.26-10.05,7.05-2.36,.79-6.07-.48-3.31-7.05,2.76-6.57,6.78-11.22,6.78-11.22,0,0-13.45-15.55-15.8-25.84-1.53-6.68-11.59-15.75-15.35-14.16-4.95,2.1-9.41,5.79-13.6,9.07-13.08,10.24-17.01,11-29.78,11,0,0-16.89-.74-20.47-16.16,0,0-3.75-13.08,7.17-20.61l4.04-1.98"/>
    <path class="cls-1" d="M380.72,326.95c.7,5.08,1.95,10.1,4.12,14.64,.2,.41,.4,.83,.61,1.24l.72,1.19,.71,1.2,.77,1.15c1.77,2.72,3.88,5.23,6.4,7.26,2.5,2.03,5.42,3.56,8.58,4.34,2.79,.74,5.77,.67,8.61,.24,1.84-.26,3.63-.8,5.41-1.37,.88-.31,1.75-.67,2.67-.91l1.34-.46c.45-.15,.94-.23,1.41-.35,1.21-.25,1.09-.15,.37,.67-.37,.4-.84,1.1-1.54,1.73-.34,.33-.71,.7-1.17,.97-.46,.26-.96,.51-1.49,.73-.48,.19-.94,.41-1.43,.57l-1.49,.46-1.49,.45c-.51,.11-1.02,.21-1.54,.3l-1.55,.27c-.52,.07-1.05,.08-1.58,.12l-1.58,.09c-.53,0-1.06-.05-1.59-.08-4.24-.23-8.44-1.68-11.92-4.07-4.1-2.91-7.8-6.65-10.4-10.96-2.89-4.74-4.68-10.07-5.69-15.4-.61-3.29-1.03-6.61-1.24-9.92-.34-5.02-.23-10.07,.08-15.03,.26-3.85,.4-7.66,1.04-11.45,.11-.84,.24-1.65,.41-2.49,.68-3.09,1.34-3.97,1.99-4.5,.16-.12,.31-.29,.44-.35,.21-.1,.32,.18,.4,.77,.07,.59,.13,1.51,.01,2.64-.42,6.74-1.14,13.7-1.17,20.73-.08,5.21,.11,10.45,.87,15.58l-.08,.02Z"/>
    <path class="cls-1" d="M359.11,267.91c3.4,4.09,7.94,7.45,13.03,8.87,1.84,.49,3.85,.66,5.8,.71,6.98,.24,14.01-2.16,20.46-5.49,2.89-1.46,5.69-3.17,8.41-4.94,1.76-1.12,3.47-2.34,5.29-3.42,.92-.52,1.86-1.03,2.84-1.49,.96-.48,2.07-.72,3.15-.92,.69-.09,.99-.05,.98,0,0,.08-.32,.21-.78,.53-.46,.34-1.05,.88-1.67,1.65-.66,.7-1.47,1.41-2.41,2.15l-1.25,.97-1.3,.91-2.63,1.84c-1.77,1.23-3.56,2.44-5.42,3.58-.93,.57-1.87,1.13-2.83,1.67-.97,.52-1.96,1.01-2.96,1.47-2,.93-4.07,1.76-6.2,2.44-5.06,1.62-10.65,2.93-16.24,2.37-3.03-.27-6.14-1.12-8.86-2.51-2.75-1.36-5.25-3.14-7.45-5.21-2.72-2.54-4.97-5.58-6.64-8.9-1.25-2.52-2.15-5.25-2.5-8.07-.35-2.82-.15-5.72,.69-8.43,.65-2.1,1.59-4.13,2.99-5.87,1.38-1.75,3.18-3.22,5.3-4.11,.92-.41,1.87-.71,2.87-.89,1.86-.31,3.11-.18,3.92,.13,.41,.14,.73,.26,.97,.45,.24,.2,.42,.42,.57,.61,.14,.18,.33,.35,.4,.48,.25,.38-1.28,.74-3.49,1.01-1.65,.16-3.24,.61-4.64,1.4-1.4,.79-2.61,1.88-3.59,3.18-1.93,2.63-2.9,6.09-2.8,9.49,.18,5.1,2.56,10.2,6.07,14.24l-.06,.06Z"/>
    <path class="cls-1" d="M370.74,219.05c1.63-1.27,3.39-2.35,5.27-3.18,1.89-.81,3.87-1.39,5.9-1.7,1.47-.26,2.98-.37,4.47-.31,2.64,.17,5.2,.85,7.55,1.9,2.36,1.05,4.49,2.45,6.44,4.03,1.72,1.41,3.33,2.95,4.82,4.55,1.89,2.06,3.74,4.24,4.61,6.98,.3,.83,.16,.78-.55,.38-.36-.2-.87-.47-1.5-.77-.31-.16-.57-.38-.87-.59-.3-.21-.6-.45-.87-.72-.24-.24-.5-.47-.73-.72-.21-.26-.43-.52-.66-.77l-1.35-1.5c-.94-.95-1.86-1.91-2.86-2.79-1.94-1.8-4.03-3.41-6.33-4.7-2.75-1.58-6.08-2.11-9.24-1.96-3.5,.16-6.95,1.35-10.01,3.22-1.86,1.17-3.6,2.6-4.98,4.3-2.07,2.47-3.05,5.93-2.62,9.15,.32,2.52,1.68,4.73,3.44,6.29,.41,.32,.81,.63,1.25,.9,.8,.53,1.33,.88,1.66,1.25,.18,.16,.31,.33,.4,.52,.08,.21,.13,.44,.18,.67,.04,.21,.12,.41,.14,.57,.03,.27-.2,.42-.72,.59-.54,.21-1.25,.07-2.13-.23-1.31-.47-2.52-1.28-3.56-2.28-1.07-.98-1.94-2.21-2.6-3.53-1.34-2.65-1.76-5.75-1.33-8.7,.34-2.19,1.07-4.3,2.35-6.22,1.24-1.83,2.72-3.34,4.34-4.67l.06,.06Z"/>
    <path class="cls-1" d="M418.87,207.38c1.02-.08,2.05-.06,3.08,.09,1.02,.15,1.93,.43,2.89,.64,.93,.29,1.83,.67,2.74,1.01,.85,.46,1.73,.88,2.55,1.38,.58,.4,1.17,.77,1.76,1.15,.58,.39,1.1,.86,1.63,1.3,.23,.2,.47,.4,.69,.61l.63,.67c.41,.45,.85,.88,1.22,1.35,.71,.98,1.48,1.92,2.07,2.96,1.3,2.02,2.26,4.2,3.11,6.4,.69,1.97,1.38,3.96,1.76,6,.15,.65,.29,1.3,.36,1.97,.08,.66,.21,1.32,.24,1.99-.03,1.34,.04,2.69-.53,3.99-.32,.8-.37,.67-.77-.03-.5-.71-1.16-1.91-1.5-3.28-.36-2.45-.92-4.86-1.72-7.21-.77-2.35-1.72-4.64-2.87-6.88-1.42-2.66-3.63-4.93-5.97-6.81-2.57-2.09-5.72-3.46-8.96-3.94-1.95-.22-4.02,.07-5.93,.78-2.88,1.06-5.54,3.14-6.75,5.92-.95,2.16-.77,4.56,.08,6.68,.17,.47,.43,.91,.64,1.37,.42,.85,.76,1.4,.86,1.87,.12,.47,.08,.82-.08,1.21-.07,.18-.12,.38-.2,.52-.15,.24-.42,.25-.83,.06-.41-.19-.97-.57-1.46-1.25-1.49-1.94-2.61-4.52-2.61-7.38-.03-2.86,1.2-5.72,3.06-7.82,2.79-3.15,6.69-5,10.8-5.41v.08Z"/>
    <path class="cls-1" d="M492.14,279.09c.56-2.99,.91-6.03,.87-9.05l-.11-2.25c-.11-.73-.15-1.46-.3-2.2l-.51-2.19-.26-1.1-.39-1.06c-.68-2.09-1.75-4.02-2.86-5.9-1.95-3.35-4.7-6.21-7.82-8.55l-1.18-.88c-.4-.28-.84-.5-1.26-.76l-1.27-.74-.64-.37c-.22-.11-.45-.2-.67-.3l-2.71-1.19-2.83-.87c-3.4-.83-6.97-1.25-10.45-.91l-1.68,.11-1.66,.3-1.66,.3c-.28,.05-.56,.09-.83,.16l-.81,.24c-1.08,.32-2.17,.6-3.28,.86-1.07,.36-2.13,.75-3.25,1.04-1.44,.23-1.42-.1-.56-1.19,.43-.56,1.13-1.19,2.02-1.89,.45-.34,.95-.72,1.53-.97,.57-.29,1.2-.55,1.87-.75,4.76-1.43,9.84-2.05,14.87-1.47,5.01,.62,9.89,2.39,14.11,5.15,5.08,3.2,9.63,7.78,12.47,13.26l.58,1.13,.29,.56,.22,.59,.89,2.37c.34,.78,.47,1.62,.68,2.43,.19,.82,.42,1.63,.56,2.46,.51,3.38,.52,6.71,.16,10.01-.42,4.05-1.37,8.03-2.71,11.85-2.09,5.78-5.32,11.15-9.31,15.74-1.48,1.86-3.23,3.42-4.88,5.1-.88,.77-1.8,1.5-2.71,2.25l-1.37,1.12-1.47,.98c-.87,.57-1.7,1.16-2.59,1.72-.41,.26-.82,.44-1.2,.59-.38,.15-.72,.28-1.04,.41-.63,.23-1.15,.4-1.6,.5-.45,.09-.82,.13-1.14,.11-.34-.04-.63-.14-.89-.23-.24-.09-.52-.13-.67-.21-.45-.16,.54-1.72,2.82-3.12l1.25-.82c.41-.29,.79-.62,1.21-.89,.82-.56,1.64-1.13,2.47-1.7l.62-.42c.2-.15,.39-.32,.58-.48l1.17-.96c.77-.65,1.6-1.23,2.33-1.93,1.43-1.43,2.98-2.74,4.25-4.34l1-1.15,.5-.58,.44-.62,1.79-2.48c3.37-5.05,5.67-10.84,6.87-16.85h.09Z"/>
    <path class="cls-1" d="M463.81,316.34c-.37-1.6-1.13-3.11-2.36-4.16-1.33-1.14-2.49-1.63-3.95-1.04-1.07,.39-2.1,1.3-3.18,2.2l-1.48,1.25-1.49,1.23c-.52,.42-1.06,.82-1.64,1.2-.58,.38-1.18,.76-1.94,1.03-.91,.36-2.14,.34-2.82-.44-.19-.17-.35-.35-.45-.6l-.31-.59c-.19-.36-.23-.73-.34-1.09-.29-1.45-.22-2.86,.02-4.19,.41-2.37,1.25-4.59,2.24-6.69,.61-1.37,1.45-2.63,2.37-3.82,.49-.58,.96-1.17,1.57-1.65,.28-.25,.62-.46,.94-.67l.48-.31,.52-.26c.87-.41,.79-.21,.34,.46-.24,.32-.5,.83-.78,1.42-.16,.28-.25,.66-.42,.97-.19,.31-.38,.63-.58,.96-.39,.57-.7,1.19-1.04,1.79l-.45,.94c-.18,.3-.33,.6-.49,.92-.64,1.23-1.15,2.53-1.58,3.83l-.3,.98-.23,.99c-.1,.33-.13,.65-.19,.98-.07,.33-.11,.65-.12,.97-.02,.32-.07,.65-.03,.94,.03,.29,0,.63,.08,.88,.07,.27,.09,.58,.21,.78,.05,.16,.03,.2,.12,.28,.07,.1,.23,.1,.31,.08,.21-.04,.61-.22,.93-.4,.69-.39,1.37-.94,2.03-1.51l2-1.83c.66-.62,1.34-1.27,2.1-1.88,.84-.66,1.76-1.32,2.91-1.73,1.13-.42,2.51-.5,3.71-.1,.59,.19,1.15,.47,1.61,.77,.5,.27,.94,.65,1.37,1.01,.83,.77,1.58,1.65,2.1,2.64,1.36,2.41,1.71,5.22,1.31,7.86-.33,1.99-1.12,3.98-2.43,5.55-1.22,1.52-2.63,2.92-4.27,4.04-2.53,1.77-5.64,2.69-8.72,2.64-.67-.05-1.35-.02-2.01-.15-2.46-.51-3.11-1.07-3.39-1.87-.06-.18-.16-.37-.18-.52-.06-.51,1.01-.67,2.63-.55,2.41,.14,4.78,.12,6.88-.65,1.05-.37,2.04-.88,2.99-1.48,.95-.61,1.82-1.4,2.63-2.27,.61-.63,1.19-1.4,1.6-1.99,.38-.69,.75-1.41,.95-2.21,.46-1.57,.47-3.31,.12-4.92l.07-.02Z"/>
    <path class="cls-1" d="M442.25,288.5c-1.36-2.62-2.54-5.27-3.72-7.9-.43-.95-.94-1.87-1.36-2.82-1.48-3.35-2.85-6.73-4.76-9.76-.83-1.36-1.85-2.57-2.97-3.62-.36-.33-.72-.66-1.13-.93l-.58-.43c-.2-.13-.41-.25-.61-.37-.21-.11-.38-.29-.58-.43l-.6-.39c-.4-.28-.81-.56-1.25-.82-.53-.36-.44-.57,.22-.83,.32-.12,.81-.3,1.41-.4,.56-.04,1.28-.04,1.92,.22,2.19,1.11,3.9,2.81,5.31,4.58,1.41,1.79,2.53,3.72,3.48,5.71,1.12,2.38,2.49,4.7,3.6,7.08,1.23,2.61,2.4,5.23,3.7,7.76,.8,1.56,1.63,3.09,2.56,4.55,1.41,2.2,2.98,4.33,4.93,5.96,1.52,1.26,3.29,2.07,5.06,2.55,.2,.05,.39,.12,.58,.18,.19,.05,.39,.09,.59,.15,.36,.11,.66,.22,.91,.33,.25,.09,.46,.16,.62,.3,.32,.3,.5,.6,.65,.96,.07,.16,.16,.32,.2,.46,.06,.23-.08,.42-.42,.64-.34,.21-.91,.51-1.6,.52-1.01-.05-2.12,0-3.14-.35-.53-.12-1.03-.32-1.52-.54-.5-.21-1-.42-1.46-.71-1.92-1.04-3.58-2.48-4.97-4.06-2.11-2.34-3.69-4.96-5.13-7.57l.07-.05Z"/>
    <path class="cls-1" d="M391.66,298.89c-.14-.26-.33-.5-.42-.78l-.16-.41-.08-.37c-.1-.49-.15-.89-.17-1.31-.03-.81,.07-1.56,.25-2.3l.1-.41,.17-.51c.06-.17,.12-.34,.2-.5,.1-.16,.21-.31,.32-.46,.85-1.04,2.02-1.44,2.97-1.59,.98-.15,1.89-.03,2.74,.09,.76,.13,1.51,.15,2.23,.33,.46,.1,.92,.19,1.37,.33,.44,.19,.84,.49,1.24,.8,.24,.21,.14,.39-.18,.64-.31,.24-.88,.71-1.42,.9-.45,.05-.89,.04-1.32,.08l-.64,.03-.62-.06c-.81-.08-1.6-.16-2.33-.22-.43-.05-.87,0-1.14,.15-.32,.13-.43,.32-.59,.52-.03,.07-.07,.13-.12,.19-.04,.11-.09,.23-.12,.35-.08,.24-.13,.5-.17,.75-.08,.5-.1,1.03,0,1.4,.06,.38,.31,.72,.72,.81,.27,.07,.67,.06,.87-.11,.17-.12,.32-.45,.31-.87,0-.66-.45-1.35-.86-1.91-.09-.13-.23-.23-.31-.35-.18-.22-.18-.43-.13-.63,.03-.1,.09-.22,.18-.34,.1-.14,.23-.29,.38-.45l.36-.43c.34-.39,1.16-.65,1.73-.2,.84,.64,1.42,1.57,1.77,2.66,.17,.56,.24,1.16,.19,1.85-.03,.66-.23,1.47-.73,2.25-.35,.59-1.04,1.12-1.58,1.37-.29,.14-.6,.18-.9,.28-.31,.04-.62,.05-.93,.07-1.26,0-2.45-.63-3.2-1.6l.05-.05Z"/>
    <path class="cls-1" d="M408.2,305.39c-.14-.26-.33-.5-.42-.78l-.16-.41-.08-.37c-.1-.49-.15-.89-.17-1.31-.03-.81,.07-1.56,.25-2.3l.1-.41,.17-.51c.06-.17,.12-.34,.2-.5,.1-.16,.21-.31,.32-.46,.85-1.04,2.02-1.44,2.97-1.59,.98-.15,1.89-.03,2.74,.09,.76,.13,1.51,.15,2.23,.33,.46,.1,.92,.19,1.37,.33,.44,.19,.84,.49,1.24,.8,.24,.21,.14,.39-.18,.64-.31,.24-.88,.71-1.42,.9-.45,.05-.89,.04-1.32,.08l-.64,.03-.62-.06c-.81-.08-1.6-.16-2.33-.22-.43-.05-.87,0-1.14,.15-.32,.13-.43,.32-.59,.52-.03,.07-.07,.13-.12,.19-.04,.11-.09,.23-.12,.35-.07,.24-.13,.5-.17,.75-.08,.5-.1,1.03,0,1.4,.06,.38,.31,.72,.72,.81,.27,.07,.67,.06,.87-.11,.17-.12,.32-.45,.31-.87,0-.66-.45-1.35-.86-1.91-.09-.13-.23-.23-.31-.35-.18-.22-.18-.43-.13-.63,.03-.1,.09-.22,.18-.34,.1-.14,.23-.29,.38-.45l.36-.43c.34-.39,1.16-.65,1.73-.2,.84,.64,1.42,1.57,1.77,2.66,.17,.56,.23,1.16,.19,1.85-.03,.66-.23,1.47-.73,2.25-.35,.59-1.04,1.12-1.58,1.37-.29,.14-.6,.18-.9,.28-.31,.04-.62,.05-.93,.07-1.26,0-2.45-.63-3.2-1.6l.05-.05Z"/>
    <path class="cls-1" d="M397.52,338.54c1.82,.88,3.86,.97,5.79,.4,1.78-.53,3.36-1.53,4.84-2.61,.69-.5,1.1-1.45,.59-2.24-.44-.68-1.5-1.13-2.24-.59-.64,.46-1.28,.92-1.96,1.32-.32,.19-.64,.36-.97,.52-.05,.03-.61,.27-.32,.15-.17,.07-.34,.13-.52,.19-.37,.12-.74,.21-1.11,.29-.48,.1,.31-.01-.17,.03-.2,.02-.41,.03-.61,.03s-.41-.01-.61-.03c-.35-.02,.21,.07-.16-.03-.2-.05-.39-.09-.58-.15-.1-.03-.19-.06-.28-.1,.16,.07,.15,.06-.02-.02-.77-.37-1.8-.24-2.24,.59-.39,.73-.24,1.84,.59,2.24h0Z"/>
    <path class="cls-1" d="M393.66,307.03c1.52-1.3,3-2.67,4.32-4.16,1.35-1.47,2.56-3.06,3.62-4.74,.38-.62,.75-1.24,1.05-1.89,.32-.65,.64-1.29,.91-1.96,.26-.58,.52-1.16,.71-1.76,.2-.6,.45-1.19,.58-1.81,.35-1.24,.59-2.42,.63-3.63,.04-2.38-.71-4.82-2.68-6.02-1.7-1.13-4.06-1.25-6.26-.9-.72,.06-1.42,.26-2.13,.44l-1.06,.26c-.35,.12-.7,.24-1.06,.33-.71,.21-1.44,.35-2.15,.59-.72,.22-1.43,.44-2.15,.66-.91,.26-.93-.07-.35-.74,.29-.34,.73-.77,1.29-1.25,.28-.24,.59-.49,.93-.73,.35-.22,.74-.43,1.15-.62,.74-.35,1.46-.7,2.27-.87,.8-.19,1.57-.47,2.41-.59,1.65-.27,3.37-.48,5.19-.14,1.77,.28,3.71,1.05,5.03,2.57,1.33,1.48,1.97,3.35,2.16,5.11,.25,2.1-.01,4.27-.52,6.18-.19,.99-.55,1.94-.84,2.91-.39,.93-.7,1.89-1.18,2.77-1.92,3.95-4.68,7.38-7.73,10.4-1.89,1.85-3.94,3.52-6.06,5.07-.79,.6-1.63,1.14-2.45,1.69-.2,.14-.41,.27-.63,.4l-.58,.36c-.23,.14-.46,.28-.7,.42l-.74,.42c-.12,.05-.29,.16-.18,.3,.07,.12,.18,.2,.3,.28,.46,.31,1,.51,1.52,.66l.41,.11c.17,.05,.35,.09,.52,.12,.35,.08,.7,.14,1.05,.19,.7,.11,1.41,.15,2.12,.17,1.41,.02,2.8-.12,4.16-.37,.59-.12,1.16-.29,1.74-.46,2.14-.64,2.85-.84,3.63-.53,.18,.07,.39,.11,.53,.2,.46,.25-.12,1.26-1.81,2.34-2.55,1.47-5.66,2.13-8.71,1.94-.76-.05-1.53-.13-2.29-.26-.38-.07-.76-.14-1.14-.23l-.57-.14c-.19-.06-.33-.08-.72-.21-1.33-.4-2.64-.97-3.53-1.67-.88-.72-1.27-1.49-1.2-2.47,.41-.61,.82-1.22,1.23-1.83,.77-.47,1.61-.92,2.35-1.41l1.31-.83c.72-.5,1.46-.96,2.16-1.49,.71-.51,1.41-1.03,2.09-1.58,.7-.53,1.36-1.1,2.02-1.66l.06,.05Z"/>
    <path class="cls-1" d="M417.31,283.39c2.86-.84,5.79-.99,8.54,.12,.9,.36,2.01,1.08,2.73,1.77,.22,.21,.43,.43,.63,.66,.28,.31,.23,.25,.4,.5,.36,.52,.66,1.07,.93,1.64,.39,.86,1.64,1.07,2.39,.63,.89-.52,1.02-1.53,.63-2.39-1.29-2.84-3.73-4.95-6.59-6.1-3.36-1.36-7.15-1.2-10.58-.19-2.16,.63-1.24,4.01,.93,3.37h0Z"/>
  </g>
  <g>
    <path class="cls-1" d="M68.16,256.22s6.18,5.83,21.31,10.1c21.35,6.03,56.83,3.34,73.91-15.76,0,0,4.35-6.57,2.02-13.65-3.91-11.86-44.42-28.99-73.56-6.96-24.99,18.89-23.68,26.28-23.68,26.28Z"/>
    <path class="cls-1" d="M73.88,320.97s-8.24-9.18-3.54-15.09,10.56-4.68,12.76-2.81c2.2,1.88,6.31,8.18,6.31,8.18,0,0,7.3-8.7,5.03-19.97-2.27-11.27-19.03-33.2-36.34-24.96-17.32,8.23-8.03,37.32-6.65,39.48s10.03,11.94,14.78,13.94c4.76,2,7.66,1.23,7.66,1.23Z"/>
    <path class="cls-1" d="M150.38,351.4c-2.85,3.53-6.45,6.59-10.86,8.22-.81,.24-1.61,.53-2.42,.74-.82,.16-1.65,.33-2.47,.44-5.88,.49-11.51-1.03-16.61-3.28-2.29-.97-4.49-2.14-6.62-3.35-2.7-1.6-5.48-3.32-7.31-5.99-.56-.83-.38-.81,.5-.56,.43,.13,1.1,.24,1.76,.53,.34,.12,.72,.25,1.09,.41,.19,.08,.38,.17,.57,.25,.17,.11,.35,.23,.52,.36,4.97,3.54,10.52,6.28,16.4,8.01,3.53,.99,7.41,1.11,10.96,.39,.24-.05,.5-.08,.74-.14l.71-.22c.47-.15,.96-.28,1.42-.45,.88-.45,1.82-.76,2.65-1.36l1.28-.81,1.19-.95c.83-.59,1.49-1.39,2.24-2.09,1.7-1.87,3.19-3.96,4.44-6.21,1.89-3.41,3.33-7.12,4.35-10.9,.39-1.47,.7-2.95,1-4.43,.29-1.48,.49-2.97,.81-4.44,.13-.65,.25-1.29,.38-1.95,.58-2.43,.92-3.18,1.56-3.64,.13-.11,.25-.25,.34-.31,.25-.21,.65,.88,.69,2.76,.21,5.59-.79,11.47-2.89,17.09-1.53,4.18-3.57,8.26-6.34,11.93l-.07-.04Z"/>
    <path class="cls-1" d="M157.11,301.16c1.08,1.12,2.15,2.27,3.14,3.56l.73,.97,.68,1.05c.47,.64,.87,1.55,1.13,2.43,.4,1.3,.57,2.84,.07,4.32-.44,1.3-1.42,2.38-2.51,2.98-1.09,.62-2.24,.88-3.34,.94-2.2,.11-4.18-.3-6.12-.88-1.71-.52-3.37-1.16-4.94-1.94-1.98-1.01-4.12-2.05-5.32-4.11-.38-.61-.23-.62,.43-.49,.32,.07,.8,.13,1.36,.18,.53,.1,1.06,.29,1.59,.55,3.57,2.16,7.61,3.72,11.64,4.05,1.17,.1,2.32-.17,3.16-.71,.8-.57,1.21-1.34,1.18-2.29,0-.51-.17-1.07-.42-1.62-.11-.28-.27-.54-.43-.82-.12-.28-.35-.58-.52-.87-.72-1.18-1.66-2.29-2.62-3.39-1.22-1.33-2.53-2.62-3.88-3.88-2.05-1.91-4.14-3.86-6.16-5.87-1.58-1.55-3.15-3.13-4.44-5.02-.3-.4-.54-.83-.74-1.31-.19-.44-.33-.8-.44-1.12-.08-.32-.11-.6-.12-.83-.01-.46,.11-.77,.35-1.05,.1-.13,.19-.28,.3-.36,.35-.28,1.04,.24,1.74,1.23l.9,1.04c.14,.17,.3,.34,.48,.5,.16,.17,.3,.34,.45,.51,.28,.35,.58,.69,.91,1.02,.33,.33,.61,.68,.96,1,1.33,1.31,2.73,2.64,4.17,3.99,2.16,1.99,4.44,4,6.68,6.18l-.06,.07Z"/>
    <path class="cls-1" d="M72.91,305.97c-1.87,2.01-2.62,5.2-1.83,7.94,.08,.25,.14,.51,.24,.75l.37,.7c.21,.46,.58,.95,.88,1.43,2.31,3.4,5.59,6.49,9.39,8.18,1.69,.73,3.53,1.06,5.19,.73,1.05-.12,1.99-.74,2.93-1.34,.47-.31,.86-.68,1.27-1.02,.41-.34,.79-.71,1.08-1.16,.31-.57,.48-.65,.85,.15,.16,.4,.31,1.07,.19,1.86-.06,.39-.14,.82-.33,1.21-.2,.37-.46,.74-.78,1.05-1.12,1.12-2.42,1.98-4.16,2.4-1.6,.44-3.23,.35-4.74,.09-3.03-.63-5.5-2.22-7.64-4.01-2.5-2.21-5.04-4.49-6.84-7.52-2.06-3.54-1.99-8.01-.15-11.48,1.13-2.14,2.96-3.96,5.24-4.92,3.51-1.46,7.6-.5,10.32,1.72,2.15,1.66,3.98,3.59,5.44,5.85,.31,.51,.65,.98,.9,1.53,.5,1,.68,1.74,.62,2.3-.03,.55-.28,.93-.67,1.25-.18,.15-.36,.32-.55,.42-.66,.32-1.38-.33-2.13-1.48-.98-1.77-2.17-3.5-3.52-5.03-1.34-1.51-2.95-2.87-4.51-3.38-1.29-.39-2.58-.51-3.78-.2-1.2,.3-2.34,1.02-3.22,2.04l-.07-.05Z"/>
    <path class="cls-1" d="M87.83,272.03c1.97,3.07,3.67,6.3,5.05,9.67l.77,1.84c.24,.62,.47,1.25,.68,1.88,1.39,4.48,2.16,9.21,1.76,13.92-.02,.52-.09,1.04-.16,1.56-.08,.52-.13,1.04-.21,1.56-.23,1.02-.4,2.06-.77,3.04-.81,2.52-1.92,5.12-4.02,6.85-.63,.55-.72,.32-.65-.48,.04-.39,.06-.97,.2-1.54,.18-.55,.18-1.3,.54-1.88,1.08-2.2,1.7-4.55,2.11-6.94,.43-2.4,.47-4.9,.29-7.42-.2-3.04-1.21-6.1-2.34-9.03-1.23-3.23-2.79-6.36-4.61-9.34-1.12-1.83-2.33-3.62-3.64-5.33-1.99-2.58-4.17-5.06-6.62-7.16-1.9-1.63-4.01-2.94-6.17-3.96-.48-.22-.95-.42-1.43-.59-.43-.18-.79-.33-1.09-.46-.29-.14-.51-.31-.69-.47-.36-.26-.54-.62-.68-1.07-.06-.2-.17-.39-.21-.56-.06-.28,.12-.49,.59-.71,.47-.24,1.19-.29,2.04-.15,2.49,.58,4.72,1.79,6.76,3.21,2.05,1.43,3.91,3.1,5.65,4.88,2.58,2.65,4.85,5.58,6.89,8.64l-.06,.05Z"/>
    <path class="cls-1" d="M49.61,284.25c-.52,4.22-.39,8.55,.45,12.74,.18,.76,.38,1.51,.58,2.26,.21,.75,.52,1.46,.75,2.2,.83,2.57,2.17,4.93,3.8,7.18,1.64,2.23,3.56,4.28,5.68,6.11,1.89,1.61,3.99,2.99,6.19,4.08,.71,.33,1.42,.67,2.14,.97,.74,.25,1.45,.59,2.2,.79,.75,.2,1.47,.49,2.22,.7,.75,.24,1.49,.45,2.25,.76,.95,.4,.86,.54-.05,1-.89,.56-2.76,1.31-4.78,.85-.44-.11-.88-.21-1.31-.34l-1.27-.43c-.86-.27-1.66-.66-2.48-1.01-.83-.34-1.56-.84-2.35-1.26-.76-.46-1.48-.96-2.22-1.45-2.86-2.06-5.42-4.51-7.57-7.3-1.3-1.65-2.54-3.41-3.66-5.28-.27-.48-.56-.94-.8-1.43l-.72-1.5c-.4-1.01-.76-2.03-1.12-3.04-1.4-4.52-1.9-9.24-1.66-13.9,.22-2.86,.55-5.72,1.29-8.49,1.04-4.21,2.79-8.25,5.12-11.88,.47-.7,.94-1.39,1.4-2.08,.49-.68,1.05-1.3,1.57-1.96l.79-.97,.9-.88c.61-.57,1.18-1.21,1.85-1.73,.6-.45,1.17-.91,1.78-1.35,.29-.2,.55-.38,.8-.54,.26-.14,.51-.23,.74-.32,.46-.18,.84-.29,1.16-.36,.65-.13,1.1-.04,1.52,.21,.19,.11,.42,.21,.56,.35,.46,.46-.27,1.44-1.74,2.52-.56,.37-1.06,.85-1.59,1.28-.52,.44-1.07,.83-1.57,1.3-.94,1-2,1.86-2.82,2.99-1.84,2.05-3.26,4.51-4.53,7.02-1.8,3.8-2.97,7.97-3.42,12.23h-.09Z"/>
    <path class="cls-1" d="M143.17,213.95c2.99,.68,5.89,1.54,8.75,2.83,2.82,1.28,5.5,2.9,7.9,4.89,2.4,1.99,4.53,4.37,6.1,7.14,1.58,2.75,2.57,5.91,2.7,9.13,.05,2.35-.23,4.63-.85,6.85-.62,2.22-1.59,4.33-2.86,6.23-2.22,3.38-5.26,6.04-8.5,8.2-3.27,2.15-6.78,3.81-10.38,5.14-7.21,2.66-14.7,4.21-22.26,5.08-3.36,.36-6.75,.55-10.13,.59-3.38,.01-6.75-.13-10.09-.41-4.29-.37-8.57-.98-12.79-1.91-2.11-.46-4.2-1.02-6.25-1.7-2.05-.67-4.1-1.39-5.96-2.52-1.14-.76-1.62-1.09-1.56-1.13,.06-.04,.68,.17,1.83,.3,2.33,.21,6.39,.89,11.08,1.94,8.32,1.94,16.9,2.81,25.46,2.65,4.29-.08,8.53-.46,12.79-1.14,4.25-.67,8.48-1.57,12.61-2.78,4.94-1.44,9.83-3.5,14.14-6.41,4.28-2.9,7.94-6.84,9.58-11.6,.95-2.57,1.29-5.42,1.04-8.1-.28-2.7-1.24-5.33-2.78-7.63-1.53-2.31-3.52-4.34-5.77-6.05-2.24-1.73-4.74-3.13-7.37-4.2-6.55-2.61-13.76-3.65-20.87-3.25-10.8,.54-21.45,4.12-30.73,9.58-7.23,4.26-13.43,9.8-18.82,16.01-.58,.7-1.15,1.39-1.72,2.08-.55,.71-1.09,1.43-1.65,2.15-1.05,1.33-1.82,2.51-2.54,3.43-.68,.96-1.22,1.74-1.73,2.35-1.02,1.21-1.69,1.88-2.45,2.29-.34,.19-.73,.48-1,.56-.45,.13-.44-.47-.03-1.71,.21-.61,.49-1.4,.91-2.29,.43-.89,.99-1.89,1.66-3,8.04-13.1,21.18-24.07,36.45-30.03,5.66-2.22,11.62-3.79,17.72-4.49,6.09-.69,12.34-.47,18.38,.83v.08Z"/>
    <path class="cls-1" d="M116.81,292.85c1.49,2.81,3.43,5.46,5.77,7.63,2.27,2.11,5.01,3.84,8.14,4.17,2.57,.27,5.63-.49,6.49-3.2,.7-2.19,.02-4.78-.63-6.9-.78-2.53-1.86-4.97-2.97-7.37-.37-.8-1.52-1-2.22-.58-.82,.48-.95,1.42-.58,2.22,.83,1.8,1.48,3.27,2.15,5.12,.7,1.97,1.36,3.97,1.27,5.86,0,.12-.09,.63-.02,.27-.03,.17-.08,.34-.12,.51-.08,.28,0,.02,.03-.04-.04,.09-.1,.17-.14,.26-.02,.05-.18,.25-.04,.08,.15-.19-.07,.06-.11,.09-.2,.16,0-.07,0,0,0,0-.3,.18-.08,.06,.24-.12-.17,.06-.23,.08-.14,.05-.28,.09-.42,.13-.6,.17-1.12,.22-1.75,.2-2.29-.08-4.5-1.5-6.2-3.02-2.27-2.04-4.1-4.53-5.53-7.21-.98-1.85-3.79-.21-2.81,1.64h0Z"/>
    <path class="cls-1" d="M148.6,297.42c2.29,2.04,6.34,4.17,9.01,1.5,1.27-1.27,1.65-3.28,1.46-5.01-.22-1.94-1.03-3.73-2.05-5.39-1.12-1.83-2.46-3.51-3.62-5.31-.48-.74-1.44-1.04-2.22-.58-.73,.43-1.06,1.48-.58,2.22,1.11,1.72,2.38,3.32,3.47,5.05,1,1.59,1.85,3.27,1.81,4.97-.01,.44-.02,.53-.16,1.02-.03,.1-.06,.2-.1,.29,.07-.16,.07-.15-.01,.01-.04,.07-.37,.53-.11,.23-.11,.13-.22,.24-.35,.35,.32-.27-.08,.02-.17,.07,.37-.21-.08,0-.17,.03-.26,.11,.28,.02-.12,.02-.15,0-.3,0-.45,0-.19-.02-.18-.02,.03,0-.09-.02-.18-.03-.28-.05-.19-.04-.38-.1-.57-.16-.1-.03-.19-.07-.29-.1,.15,.06,.13,.06-.05-.02-.85-.42-1.52-.87-2.16-1.44s-1.65-.65-2.3,0c-.59,.59-.66,1.71,0,2.3h0Z"/>
    <path class="cls-1" d="M123.44,268.67c-7.41-.58-15.58,1.32-21.63,5.73-.98,.72-1.46,1.95-.81,3.08,.57,.97,2.09,1.53,3.08,.81,5.49-4.01,12.63-5.64,19.36-5.12,1.21,.09,2.25-1.1,2.25-2.25,0-1.3-1.03-2.16-2.25-2.25h0Z"/>
    <path class="cls-1" d="M153.79,264.38c-2.31-1.44-5.21-1.81-7.88-1.9s-5.53,.19-8.24,.67c-1.16,.21-1.92,1.69-1.57,2.77,.4,1.25,1.52,1.79,2.77,1.57,.26-.05,.53-.09,.79-.13,.15-.02,.31-.05,.46-.07,.24-.04,.17-.02-.03,0,.6-.07,1.2-.14,1.8-.19,1.26-.11,2.54-.16,3.81-.12,.59,.02,1.19,.05,1.78,.1,.17,.02,.34,.04,.51,.05-.22-.02-.22-.03,0,0,.29,.05,.58,.1,.87,.16,.55,.11,1.09,.26,1.61,.44,.14,.05,.27,.1,.41,.16-.16-.06-.3-.14-.07-.02s.48,.25,.71,.4c1,.62,2.52,.25,3.08-.81,.58-1.1,.26-2.41-.81-3.08h0Z"/>
    <path class="cls-1" d="M146.12,334c-.93-.17-1.85-.41-2.77-.7-.33-.09-.69-.12-1.01-.26-1.16-.49-2.21-1.26-3.12-2.1-.41-.36-.83-.71-1.24-1.06-.25-.24-.48-.5-.69-.78-.17-.3-.3-.64-.35-1-.03-.23,.44-.46,1.01-.63,.56-.16,1.24-.33,1.49-.19,.21,.14,.48,.21,.66,.34,.15,.17,.36,.27,.53,.43,.16,.16,.35,.29,.53,.46,.17,.17,.36,.34,.55,.52,.22,.24,.52,.35,.84,.43,.3,.11,.64,.14,.95,.26,.7,.22,1.44,.41,2.21,.54,.47,.07,.96,.15,1.45,.16,.74,.04,1.5,.06,2.24-.03,.58-.09,1.11-.41,1.65-.63,.12-.05,.23-.13,.35-.16,.46-.12,.65,.09,.93,.98,.06,.2,.14,.4,.19,.61,.19,.69,.11,1.31-.22,1.61-.97,.88-2.14,1.28-3.37,1.46-.92,.05-1.86-.02-2.8-.13v-.09Z"/>
  </g>
  <g class="cls-3">
    <path class="cls-1" d="M285.38,106.83c-3.7-.1-7.4-.15-11.11-.16-1.35,0-2.7,.08-4.05,.08-4.76,0-9.53,.02-14.29,.21-2.11,.08-4.23,.24-6.32,.43-1.34,.09-2.69,.19-4.04,.28l-1.01,.06-1.02-.04c-.68-.04-1.36-.07-2.04-.11-.85-.06-.75-.16-.07-.49,.42-.2,.9-.44,1.41-.69,.31-.14,.63-.29,.96-.44,.17-.08,.35-.13,.53-.23,.19-.04,.37-.07,.57-.11,1.37-.22,2.74-.41,4.11-.6,1.38-.17,2.76-.22,4.14-.31,2.77-.16,5.54-.24,8.34-.23,3.34,.01,6.8-.27,10.21-.34,3.75-.09,7.5-.07,11.25-.05,2.31,.03,4.61,.06,6.92,.09,3.49,.07,7,.14,10.46,.22,2.69,.03,5.34-.09,8.01-.11,.59,0,1.16-.01,1.76,.01,1.1,.07,1.82,.15,2.32,.33,.5,.21,.78,.46,.99,.81,.1,.16,.23,.31,.28,.46,.09,.25-.09,.46-.5,.66-.41,.2-1.04,.41-1.84,.45-1.19,.07-2.4,.21-3.61,.22-1.21,0-2.44,.02-3.67,.03-2.47-.02-4.97-.06-7.47-.12-3.72-.08-7.46-.19-11.2-.22v-.07Z"/>
  </g>
  <g class="cls-6">
    <path class="cls-1" d="M254.19,136.78c4.99,.17,10.05,.14,15.11,.05,1.85-.03,3.69-.18,5.53-.22,6.51-.12,13.04-.22,19.58-.2,2.9,.01,5.82-.13,8.7-.1,1.85,0,3.72,0,5.58,.1,.93,.07,1.86,.2,2.8,.36,.47,.05,.93,.19,1.38,.34,.46,.14,.91,.27,1.36,.44,1.12,.43,.94,.42-.07,.63-.5,.09-1.22,.32-2.06,.62-.84,.26-1.8,.44-2.85,.57-1.85,.08-3.7,.14-5.57,.25l-2.8,.15-2.81,.07c-3.75,.08-7.52,.16-11.31,.11-4.54-.11-9.26,.29-13.91,.41-5.11,.14-10.24,.22-15.38,.17-3.17-.04-6.34-.13-9.54-.41-1.22-.13-2.43-.26-3.69-.56-.36-.08-.83-.18-1.18-.38l-.57-.25-.28-.13c0-.13-.14-.15-.18-.25-.49-.6-.47-1.62-.5-2.39-.07-2.54-.03-4.84-.05-7.23,0-3.67-.31-7.26-.53-10.84-.06-.78-.11-1.55-.17-2.34-.04-.73-.08-1.33-.09-1.84,0-.51,.07-.92,.11-1.27,.06-.35,.11-.62,.21-.86,.11-.24,.24-.45,.35-.63,.1-.17,.17-.38,.23-.48,.09-.34,1.22,.7,1.87,2.93,.39,1.65,.66,3.31,.91,5,.24,1.68,.29,3.39,.37,5.09,.14,3.41,.1,6.87,.15,10.23,.02,.62,0,1.24,.08,1.83,.03,.22,0,.11,.01,.15h0s0,.01,0,.01l.15,.04c.49,.13,1.11,.2,1.66,.29,2.36,.3,4.88,.41,7.39,.46v.09Z"/>
  </g>
  <g class="cls-3">
    <path class="cls-1" d="M316.74,118.06c-.06,1.4-.11,2.81-.13,4.21,0,.51,.08,1.02,.07,1.53,0,1.8-.11,3.62-.05,5.42,.02,.8,.14,1.6,.22,2.39,.03,.51,.13,1.01,.11,1.53-.03,.52-.1,1.05-.18,1.58-.06,.33-.17,.31-.44,.08-.25-.23-.79-.66-1.14-1.21-.49-1-.74-2.04-.83-3.1-.12-1.06-.16-2.13-.12-3.21,.03-1.29-.17-2.6-.19-3.91-.03-1.44,0-2.87,.02-4.31l.06-2.64c.02-1.33,.09-2.67,.04-3.99-.04-1.03-.22-2.03-.28-3.04-.02-.22-.06-.44-.06-.67,.03-.42,.14-.69,.32-.88,.16-.19,.35-.3,.59-.39,.11-.04,.22-.09,.32-.12,.32-.08,.67,.26,1.05,.87,.21,.45,.31,.91,.41,1.37,.1,.46,.18,.93,.24,1.4,.08,.94,.09,1.89,.1,2.84-.02,1.41-.03,2.83-.05,4.25h-.07Z"/>
  </g>
  <g class="cls-3">
    <path class="cls-1" d="M283.64,168.95l-.05,3-.02,1.5v.85c0,.46-.06,.89-.09,1.32l-.07,.57-.21,.42-.05,.11h0s0,0,0,0h0s0,0,0,0c.17,.13-.23-.18-.19-.15h0s-.02,.04-.02,.04l-.03,.04-.14,.16c-.1,.1-.18,.23-.32,.33-.28,.18-.73,.21-1.15,.21l-1.2,.08c-1.08,.05-2.15,.17-3.22,.2-3.78,.08-7.56,.09-11.33,.06-1.68,0-3.36,.04-5.02,.08l-1.6,.04c-.54,0-1.07-.03-1.61-.06-.54-.05-1.07-.04-1.61-.17-.53-.15-1.06-.3-1.59-.41-.66-.18-.56-.22,0-.42,.29-.11,.69-.26,1.17-.51,.24-.11,.51-.28,.78-.38,.28-.07,.57-.13,.87-.16l1.61-.18c.54-.06,1.08-.04,1.62-.07l3.24-.09c2.16-.05,4.34-.08,6.52-.03,2.62,.06,5.33-.22,7.99-.38l2.13-.13c.26-.02,.73,.08,.63-.33l.02-1.52v-2.05s.05-5.45,.05-5.45c.04-2.75,.14-5.52,.13-8.25-.02-2.12-.1-4.21-.06-6.31,0-.46,0-.92,.03-1.39,.05-.87,.11-1.44,.26-1.83,.18-.39,.36-.62,.58-.79,.1-.08,.19-.18,.27-.23,.14-.07,.25,.07,.4,.39,.14,.32,.35,.82,.38,1.44,.18,1.88,.37,3.79,.56,5.72,.18,1.94,.21,3.91,.3,5.89,.04,1.47,.09,2.94,.13,4.41l.02,4.42h-.07Z"/>
  </g>
  <g class="cls-6">
    <path class="cls-1" d="M279.71,201.18c6.52,.17,13.03,.35,19.52,.34,2.37,0,4.73-.13,7.06-.23,1.03-.04,2.05-.11,3.03-.21l.73-.08c.2-.04,.53-.07,.57-.08,.08-.01,.15-.03,.23-.05,.04-.02,.08-.03,.11-.05,.03-.03,.03-.07,.04-.11l.05-.23v-.06s.02-.03,.02-.03v-.09s.06-.38,.06-.38l.15-1.53c.09-1.03,.16-2.06,.22-3.1,.21-4.14,.38-8.32,.15-12.43-.06-.9-.13-1.81-.28-2.68-.07-.43-.16-.85-.27-1.24-.08-.22-.14-.44-.31-.59-.19-.13-.42-.1-.72-.14-.45-.03-.89-.06-1.35-.08-.91-.04-1.83-.06-2.75-.07-2.36-.02-4.73-.03-7.1-.05-2.37,0-4.74-.08-7.11-.37-1.48-.46-1.29-.49-.05-1.19,.62-.37,1.51-.67,2.59-1,1.08-.33,2.34-.56,3.71-.58,2.43-.06,4.86-.11,7.31-.08,1.23,.04,2.44,.07,3.7,.15l.95,.07c.17,.02,.29,.02,.51,.05l.83,.14c1.13,.14,2.1,.98,2.49,2.09,.1,.26,.23,.58,.29,.8l.13,.54c.08,.35,.14,.69,.19,1.02,.1,.66,.17,1.31,.22,1.95,.1,1.27,.14,2.52,.15,3.77,0,2.49-.07,4.95-.27,7.42-.12,1.47-.23,2.96-.35,4.46-.07,.75-.14,1.51-.21,2.26l-.13,1.15c-.03,.29-.09,.62-.13,.92-.03,.15-.03,.32-.08,.46l-.18,.4c-.06,.13-.14,.23-.22,.35-.03,.07-.11,.09-.1,.2l-.18,.12-.37,.24c-.14,.06-.28,.11-.42,.16-.28,.1-.57,.23-.85,.31-.28,.06-.43,.11-.66,.14-.8,.13-1.58,.22-2.35,.29-1.54,.13-3.05,.2-4.56,.25-6.62,.16-13.2,.02-19.77-.1-4.04-.08-8.09-.16-12.13-.24-3.06-.04-6.12-.08-9.18-.12-1.53,0-3.06,0-4.58,.02l-2.28,.05-.63,.02c-.27,.01-.54,.02-.81,0-.52,0-1.04-.22-1.38-.63-.26-.31-.48-.67-.62-1.06-.16-.39-.27-.83-.33-1.11-.12-.63-.21-1.24-.27-1.85-.13-1.21-.18-2.39-.23-3.57-.08-2.33-.16-4.66-.24-6.99-.04-1.02-.12-2.01-.17-3.03,0-1.89,0-3.12,.04-3.99,.06-.88,.15-1.4,.31-1.85,.07-.21,.11-.47,.18-.61,.12-.23,.35,.02,.71,.68,.35,.66,.78,1.75,1.09,3.18,.52,2.11,.68,4.27,.81,6.43,.14,2.15,.19,4.32,.35,6.45,.08,1.06,.17,2.12,.3,3.11,.06,.5,.16,.97,.26,1.4l.06,.25s0,.01,0,.01h.01s.01,0,.02,0h0s-.03,0,.07,0l.42-.02,.84-.02,3.34-.06c6.61-.06,13.2,.12,19.78,.22v.08Z"/>
  </g>
  <g class="cls-3">
    <path class="cls-1" d="M178.31,161.17l22.8,.44c2.77,.02,5.54,.05,8.31,.07l29.3,.7c4.33,.1,8.69,.12,12.99,.12,2.76,0,5.53-.02,8.29-.03,2.77,.06,5.53,.26,8.3,.47,1.72,.13,1.49,.08,.04,.32-.73,.12-1.76,.33-3.01,.62-1.25,.25-2.72,.5-4.31,.68-5.65,.26-11.29,.34-16.95,.41-5.65,.05-11.32,.07-17-.11-6.8-.23-13.88-.09-20.84-.14-7.65-.07-15.3-.14-22.96-.2-4.71-.03-9.42-.05-14.13-.08-7.13,0-14.29-.04-21.36,.18-2.29,.07-4.56,.19-6.81,.37-.56,.03-1.12,.13-1.68,.1-.56,0-1.12-.02-1.67,.06l-.76,.09-.37,.07c-.12,.03-.24,.05-.33,.12-.04,.11-.02,.25-.03,.37-.03,.72-.06,1.44-.09,2.16-.02,1.19-.04,2.35-.06,3.55-.11,4.47-.39,5.92-1.29,6.84-.2,.21-.4,.49-.59,.6-.62,.38-1.08-1.45-1.16-4.71-.04-1.48-.08-2.98-.1-4.51,0-.77,0-1.54,0-2.33l.04-1.19v-.31c.02-.16,.03-.36,.05-.53l.09-1.1c.12-.34,.26-.65,.39-.98,.15-.31,.43-.57,.75-.72,.63-.35,1.49-.45,2.29-.57l1.41-.16c.45-.06,.88-.22,1.33-.32,.44-.15,.89-.1,1.33-.15l1.33-.07c.89-.04,1.78-.08,2.67-.11,3.56-.13,7.14-.18,10.73-.21,7.66-.05,15.35,.04,23.02,.12v.08Z"/>
  </g>
  <path class="cls-2" d="M127.23,180.89c.17,2.37,5.39,8.15,7.43,8.15,1.88,0,4.43-6.76,4.63-9.05,.22-2.6-3.02,1.36-5.18,1.46-1.75,.08-6.99-2.25-6.87-.57Z"/>
  <path class="cls-2" d="M412.94,183.87c-.17,2.37-5.39,8.15-7.43,8.15-1.88,0-4.43-6.76-4.63-9.05-.22-2.6,3.02,1.36,5.18,1.46,1.75,.08,6.99-2.25,6.87-.57Z"/>
  <g class="cls-3">
    <path class="cls-1" d="M140.56,192.61c-5.96-.08-11.93-.11-17.91-.1l-6.54,.08-8.74-.05-8.28-.09h-.3c-.11,0-.08,.16-.11,.24l-.03,.3-.03,.43-.17,2.76c-.17,3.39-.22,6.82-.28,10.2-.02,1.42-.04,2.85-.12,4.28l-.11,2.14-.07,1.07v.24s-.01,.11-.01,.11c0,.04,0,.07,.05,.06,.07,.01,.14,.03,.21,.04l.33,.04,1.1,.14c.74,.09,1.49,.16,2.24,.27,1.25,.21,1.16,.4,.25,.56-.46,.08-1.11,.19-1.94,.31-.41,.06-.87,.11-1.37,.14l-.38,.02c-.12,.01-.23,0-.53,.02-.55-.01-1.1-.02-1.67-.03,0-.37-.03-.72-.04-1.11-.01-.33-.03-.67-.04-1.02-.06-1.91-.19-3.83-.22-5.75v-5.77c-.01-1.93,0-3.85,.05-5.79,.02-.97,.05-1.94,.1-2.93l.07-1.06c.04-.44,.08-.9,.2-1.28,.06-.19,.15-.36,.24-.51,.05-.19,.32-.17,.38-.36l1.05-.32c.26-.02,.54,0,.81,0h.73s.89,.02,.89,.02l1.79,.04c5.35,.13,10.91-.12,16.38-.19,6.02-.05,12.04-.1,18.06-.15,3.71-.02,7.42,0,11.13,.05,2.55,.04,5.11,.1,7.68,.24,1.28,.07,2.57,.16,3.86,.31,.65,.08,1.3,.16,1.97,.31,.16,.04,.35,.07,.58,.14l.63,.23c.4,.18,.77,.43,1.04,.77,.14,.33,.21,.69,.29,1.05,.04,.17,.08,.36,.09,.53l.04,.4c.22,2.22,.32,4.36,.44,6.51,.1,2.15,.22,4.3,.17,6.46,0,.95-.01,1.88-.06,2.85-.03,.45-.06,.85-.09,1.23-.04,.37-.12,.71-.17,1.02-.12,.62-.24,1.11-.38,1.52-.26,.81-.55,1.26-.91,1.59-.16,.15-.33,.35-.47,.43-.47,.25-.6-1.19-.81-3.74-.07-.77-.1-1.55-.11-2.33-.03-.78-.06-1.57-.09-2.36-.09-1.58-.13-3.17-.17-4.78-.05-1.6-.1-3.22-.19-4.83-.04-.8-.08-1.61-.15-2.4-.03-.4-.06-.78-.11-1.15-.02-.14,0-.06-.01-.08h0s0,0,0,0c-.01,0,.02,0-.02,0l-.39-.09c-.62-.11-1.29-.2-1.99-.26-2.85-.27-5.86-.35-8.84-.42-2.99-.06-6-.09-9.01-.09v-.08Z"/>
  </g>
  <g class="cls-3">
    <path class="cls-1" d="M371.34,166.54l-19.73-.36-7.2-.04c-8.46-.15-16.92-.44-25.38-.73-3.75-.13-7.53-.19-11.25-.29-4.78-.13-9.61-.06-14.36-1.04-1.47-.35-1.27-.39,.02-.7,1.29-.4,3.63-.91,6.38-.96,9.73,.23,19.48,.37,29.31,.74,5.88,.21,12.01,.15,18.03,.2,6.62,.08,13.25,.16,19.88,.25,4.08,.06,8.16,.12,12.24,.19,6.18,.1,12.38,.26,18.54,.5,1.2,.06,2.4,.12,3.59,.18,.6,.03,1.2,.1,1.8,.14l.92,.12c.15,.02,.31,.03,.54,.08l.62,.19c.93,.1,1.42,.98,1.59,1.83,.06,.2,.1,.46,.12,.64l.06,.49c.03,.32,.05,.63,.07,.94,.06,1.23,.06,2.42,.06,3.6,0,1.03,.01,2.04,.02,3.07,0,.47,0,.91,0,1.3-.02,.39-.04,.75-.06,1.08-.04,.65-.07,1.17-.13,1.6-.16,.87-.32,1.38-.55,1.85-.11,.21-.17,.48-.26,.62-.15,.24-.43,0-.82-.68-.38-.68-.85-1.83-1.02-3.3-.18-1.09-.2-2.18-.22-3.27,0-1.07,0-2.15-.01-3.23,0-1.06,0-2.13-.07-3.09-.02-.24-.04-.48-.07-.67l-.03-.05s-.07-.03-.1-.03c.08,.02-.25-.03-.49-.06-.24-.03-.48-.07-.75-.09-.53-.04-1.03-.11-1.57-.14-1.07-.08-2.15-.14-3.25-.19-2.19-.1-4.4-.17-6.61-.23-6.59-.17-13.23-.29-19.86-.38v-.07Z"/>
  </g>
  <g class="cls-3">
    <path class="cls-1" d="M410.86,195.49c-4.52-.2-9.04-.36-13.57-.43-1.65-.03-3.3,.03-4.95,.02-2.91-.02-5.81-.02-8.71,.06-2.87,.1-5.84,.17-8.53,.71l-.37,.1c-.08,.02-.17,.05-.25,.09-.08,.04-.16,.08-.22,.15-.05,.07-.05,.16-.06,.25-.02,.18-.04,.75-.06,1.18l-.06,1.38c-.03,.93-.06,1.85-.09,2.77l-.04,2.48c-.03,.83-.08,1.65-.14,2.48-.14,1.65-.24,3.33-.92,4.94-.42,1-.33,.86-.59-.04-.12-.45-.47-1.09-.67-1.84-.11-.38-.25-.79-.33-1.22-.06-.43-.11-.89-.12-1.36l-.08-2.77c0-.92,.05-1.85,.08-2.78l.13-2.81c.02-.47,.06-.94,.12-1.41,.08-.51,.08-.8,.25-1.77,.1-.7,.55-1.29,1.18-1.61,.3-.19,.66-.29,1-.41,.4-.09,.55-.12,.78-.16,.84-.15,1.62-.26,2.41-.34,1.57-.15,3.11-.21,4.65-.24,4.1-.06,8.34-.27,12.51-.28,4.58,0,9.16,.1,13.74,.25,2.82,.11,5.63,.22,8.45,.33,4.26,.19,8.54,.45,12.78,.74,1.12,.08,2.24,.17,3.35,.25l.84,.09,.43,.05c.15,.02,.4,.05,.58,.1,.4,.08,.81,.18,1.14,.37,.19,.07,.24,.28,.41,.39,.06,.18,.15,.34,.2,.53,.05,.39,.11,.78,.12,1.2,.02,.34,.01,.57,.02,.86,0,.55-.01,1.08-.03,1.61-.03,.72-.03,1.43-.08,2.15-.08,1.33-.19,2.19-.39,2.77-.09,.3-.19,.52-.31,.71-.14,.19-.3,.34-.44,.49-.13,.13-.24,.31-.34,.4-.24,.35-1.14-.88-1.16-2.89,0-1.16,.03-2.31,.05-3.46,0-.56,.02-1.13,.03-1.7,0-.28,0-.56-.01-.82-.01-.09-.02-.07-.03-.11-.01-.04-.06-.04-.1-.03-.04,0,.02,.02-.1,0l-.63-.08c-.86-.1-1.77-.18-2.67-.26-1.82-.15-3.67-.27-5.52-.38-4.53-.26-9.1-.5-13.66-.65v-.06Z"/>
  </g>
  <g class="cls-3">
    <path class="cls-1" d="M198.84,198.55l-.16,8.79c-.01,1.07,.05,2.14,.03,3.21-.1,3.77-.19,7.55-.29,11.32-.04,1.67,0,3.35,.04,5.01,.03,2.13,.3,4.27-.31,6.41-.17,.67-.38,.58-.79,.02-.21-.28-.48-.68-.78-1.16-.26-.48-.42-1.04-.49-1.66-.26-4.35-.23-8.69-.02-13.08,.15-2.63-.02-5.35-.04-8.04v-8.86s.02-5.45,.02-5.45c-.02-2.75,.02-5.52-.07-8.25-.05-2.12-.35-4.21-.46-6.31-.03-.46-.08-.92-.09-1.38-.01-.86,.02-1.44,.19-1.84,.2-.4,.5-.63,.87-.82,.17-.08,.32-.2,.45-.24,.24-.08,.45,.05,.74,.36,.3,.31,.57,.8,.64,1.44,.67,3.74,.68,7.69,.68,11.66-.03,2.95-.06,5.91-.08,8.86h-.07Z"/>
  </g>
  <path class="cls-2" d="M196.73,236.72s-2.47-1.91-4.63-1.51,2.85,8.52,5.84,8.52c1.95,0,5.6-7.4,5.18-8.55-1.04-2.8-6.38,1.53-6.38,1.53Z"/>
  <path class="cls-2" d="M361.16,367.76s-2.47-1.91-4.63-1.51c-2.27,.42,2.85,8.52,5.84,8.52,1.95,0,5.6-7.4,5.18-8.55-1.04-2.8-6.38,1.53-6.38,1.53Z"/>
  <g class="cls-3">
    <path class="cls-1" d="M180.34,263.13l.04-5.61c0-1.87,.1-3.74,.02-5.62l-.06-2.32c-.01-.61,.06-1.22,.27-1.71,.31-.42,.69-.89,1.22-1.1,.44-.21,1-.39,1.42-.47,.35-.08,.66-.12,1-.18,.64-.09,1.27-.15,1.89-.2,1.24-.11,2.46-.13,3.68-.13,2.43,0,4.85,.07,7.25,.13,2.13,.04,4.28,.09,6.4,.13,1.36,0,2.72,.08,4.08,.18,.68,.07,1.36,.08,2.04,.24,.68,.16,1.35,.32,2.03,.48,.84,.22,.73,.15,.02,.39-.36,.12-.87,.34-1.48,.64-.31,.14-.64,.35-1,.47-.36,.1-.73,.18-1.12,.24l-2.08,.29-1.04,.15-1.04,.05-4.14,.17c-2.76,.02-5.52-.12-8.29-.22-1.65-.07-3.33,.01-4.98,.11-.82,.06-1.64,.15-2.37,.29-.23,.05-.21,.04-.3,.07-.07,.02-.13,.04-.2,.07-.16,.04-.17,.21-.18,.34-.01,.08-.01,.15-.03,.23,0,0-.02,.18-.03,.28l-.04,.35-.13,1.39c-.1,.93-.14,1.87-.17,2.8l-.18,5.63c-.07,2.31-.05,4.62-.04,6.93l.03,2.62,.05,2.13c0,.12,.01,.25,.04,.37,.08,.07,.23,.02,.34,.04l.82-.03c.87-.04,1.75-.08,2.62-.1,2.71-.08,5.36-.4,8.08-.47,.6-.02,1.19-.05,1.8-.04,.56,.01,1.04,.05,1.43,.1,.39,.06,.71,.19,.96,.29,.51,.2,.78,.54,.95,.91,.08,.17,.19,.34,.22,.49,.08,.47-.84,.82-2.37,.91-2.3,.02-4.71,.09-7.17,.16-.62,.02-1.23,.03-1.85,.05l-.93,.03-.93,.09c-.62,.06-1.25,.14-1.87,.15l-.95,.04c-.22,0-.61,.03-.9,.03l-.89-.06-.33-.02c-.1-.02-.18-.05-.28-.07-.17-.06-.39-.08-.51-.19l-.1-.08-.02-.02h0c-.07,.08,.1-.12,.08-.1h0s0-.02,0-.02l-.04-.05-.15-.2-.31-.43c-.11-.14-.14-.38-.2-.58-.07-.2-.08-.43-.09-.67l-.04-.7v-.53s-.04-2.86-.04-2.86l.04-5.67h.06Z"/>
  </g>
  <g class="cls-5">
    <path class="cls-1" d="M204.61,338.54c-.03,1.16-.09,2.33-.15,3.49-.02,.42,.05,.84,.03,1.27-.09,1.5-.21,2.99-.26,4.48-.05,.66-.03,1.32,0,1.98,.01,.42,.08,.84,.05,1.26-.04,.42-.12,.85-.23,1.27-.08,.27-.37,.24-.74,.04-.36-.21-.9-.59-1.11-1.06-.48-1.69-.78-3.37-.51-5.11,.13-1.04-.09-2.1-.14-3.15-.04-1.16-.07-2.32-.05-3.48,0-.71,.01-1.43,0-2.14-.02-1.08,0-2.17-.12-3.24-.08-.83-.41-1.62-.51-2.44-.03-.18-.08-.35-.09-.53-.02-.68,.23-.92,.92-1.13,.16-.05,.32-.11,.47-.14,.52-.11,1.01,.12,1.31,.59,.22,.35,.37,.72,.52,1.08,.16,.37,.29,.74,.34,1.12,.14,.76,.21,1.54,.26,2.33,.07,1.16,.07,2.34,.09,3.51h-.08Z"/>
  </g>
  <g class="cls-3">
    <path class="cls-1" d="M195.44,357.36l16.11,.47c1.96,.05,3.92,0,5.87,.06l10.34,.31,5.16,.11,1.28,.03h.7c.34,0,.66,.02,1,0,.33-.01,.64,.04,.89,.11,.25,.02,.49,.29,.6,.53,.28,.49,.36,1.17,.39,1.83l.04,1.39v1.17s.01,2.32,.01,2.32c-.01,1.54-.02,3.07-.03,4.59-.03,3.91,.04,7.82-.48,11.7-.13,1.21-.28,1.07-.69,.05-.2-.51-.48-1.24-.79-2.13-.27-.89-.45-1.93-.54-3.06-.09-1-.12-2-.13-3l-.04-2.99c-.02-1.98-.04-3.97-.06-5.95-.01-.98-.03-1.97-.08-2.92l-.02-.35s0-.02,0-.03v-.08c.02-.05,.03-.15-.03-.14l-.08-.02s-.03,0-.05-.01h-.37s-1.52,.03-1.52,.03c-1.01,0-2.02-.06-3.03-.1-4.82-.22-9.83-.09-14.75-.16l-16.23-.3c-3.33-.05-6.66-.1-9.98-.15-2.51-.01-5.04-.02-7.55-.03h-1.88s-.75,0-.75,0l-.54,.03-.27,.02c-.07,.02-.23,0-.21,.11l.03,.54,.06,1.38c.17,3.9,.48,7.71,.59,11.59,.02,.85,.07,1.69,.06,2.56-.02,1.61-.12,2.67-.34,3.42-.11,.37-.23,.66-.39,.89-.19,.23-.41,.4-.62,.55-.2,.13-.39,.31-.55,.37-.47,.19-1.05-1.1-1.06-3.35-.12-3.37-.34-6.87-.52-10.42-.09-1.78-.19-3.57-.28-5.37l-.09-1.87c.03-.85-.15-1.9,.27-2.39,.04-.07,.07-.16,.12-.21l.07-.08,.04-.04h0s.15,.12,.08,.06v-.02s.02-.03,.02-.03c.07-.18,.17-.3,.33-.39,.28-.19,.65-.32,1.06-.4,.41-.08,.85-.12,1.29-.17l1.16-.11c2.76-.25,5.47-.15,8.19-.14l8.15,.11v.09Z"/>
  </g>
  <g class="cls-3">
    <path class="cls-1" d="M166.2,412.94c4.27,.2,8.6,.2,12.92,.12,1.58-.03,3.15-.16,4.73-.19,2.78-.07,5.57-.16,8.35-.27,1.39-.07,2.78-.12,4.17-.16l.47-.02c.19,0,.16-.23,.2-.36,.03-.15,.07-.99,.08-1.65,.03-2.45-.1-4.95-.16-7.42-.04-1.59-.08-3.18-.02-4.78,.03-.8,.15-1.6,.27-2.4,.06-.4,.14-.8,.22-1.19,.09-.4,.25-.78,.38-1.17,.41-.95,.42-.78,.54,.08,.19,.88,.54,2.4,.67,4.18,.01,3.15,.18,6.34,.32,9.57l.08,2.44v1.25c0,.44,.03,.73-.05,1.63-.05,.37-.09,.75-.23,1.05-.05,.17-.17,.28-.25,.42l-.18,.16c-.04,.07-.17,.06-.15,.2-.51,.32-1.36,.35-1.98,.45-.82,.07-1.63,.14-2.45,.17-3.9,.12-7.94,.53-11.93,.72-4.38,.2-8.77,.32-13.18,.31-2.71-.02-5.42-.06-8.18-.38-.52-.05-1.05-.14-1.59-.23l-.42-.09c-.18-.04-.36-.08-.54-.14-.33-.15-.71-.23-.99-.43-.65-.35-.75-1.13-.81-1.86-.03-.41-.04-.66-.05-.91l-.02-.78c-.03-2.07,0-4.11,.02-6.14,.03-3.16-.04-6.26,.08-9.39,.02-.69,.03-1.37,.08-2.06,.27-2.57,.57-3.38,1.27-3.85,.15-.11,.3-.26,.43-.31,.43-.19,.77,.89,.82,2.75,.2,5.52,.14,11.36,.26,17.16l.05,1.6,.07,1.31s0,.01,0,.02c.06,.02-.2-.02,.45,.1,1.92,.3,4.11,.37,6.24,.46v.08Z"/>
  </g>
  <g class="cls-3">
    <path class="cls-1" d="M171.99,384.89l5.49,.38c.67,.05,1.34,0,2,.05,2.36,.17,4.71,.35,7.08,.45,1.05,.09,2.1,.08,3.14,.08,1.34,.02,2.68,.19,4.03,.4,.42,.07,.37,.16,.02,.35-.35,.18-.98,.58-1.75,.83-.68,.19-1.36,.41-2.04,.56-.68,.08-1.37,.15-2.05,.21-1.37,.15-2.75,.04-4.13-.1-1.65-.17-3.37-.02-5.06-.05-1.86-.03-3.72-.14-5.57-.24l-3.43-.2c-1.73-.09-3.46-.24-5.18-.26-1.34-.03-2.66,.12-3.99,.17-.29,.01-.58,.02-.87,0-.54-.05-.9-.13-1.14-.31-.24-.2-.37-.44-.46-.78-.04-.15-.1-.3-.12-.44-.03-.24,.07-.45,.28-.65,.21-.2,.53-.42,.93-.48,.59-.11,1.2-.27,1.8-.3,.6-.04,1.21-.06,1.82-.08,1.22-.02,2.45,.02,3.69,.07,1.84,.09,3.68,.19,5.53,.28v.07Z"/>
  </g>
  <g class="cls-4">
    <path class="cls-1" d="M238.63,415.3c-2.83,.02-5.65,.02-8.51-.08-.72-.03-1.43-.06-2.16-.12l-1.11-.1-.29-.03-.43-.06c-.31-.04-.62-.11-.92-.18-.58-.16-1.12-.44-1.37-.95-.13-.24-.18-.55-.27-.83-.09-.28-.17-.56-.19-.88l-.11-1.21-.08-1.07c-.15-2.07-.34-4.12-.42-6.18-.14-3.63-.2-7.27-.09-10.93,.04-.92,.08-1.84,.17-2.78,0-.38,.19-1.16,.3-1.79l.05-.25v-.06c.08,.02,.05-.03,.07-.04l.06-.12c.05-.17,.22-.26,.32-.39,.27-.21,.57-.38,.91-.5,.29-.14,.73-.24,.94-.29l.73-.14c.47-.08,.94-.14,1.41-.19,.93-.1,1.85-.17,2.77-.22,3.25-.17,6.49-.22,9.7-.22,4.12,.04,8.27-.01,12.39,.95,1.3,.34,.92,1.04-.24,1.57-1.17,.54-3.14,1.02-5.44,.87-4.08-.26-8.22-.37-12.32-.35-2.05,.02-4.11,.06-6.1,.22-.5,.04-.99,.09-1.46,.16-.24,.03-.45,.07-.68,.11-.28,.07-.22,.04-.29,.05-.1,.01-.21,.03-.23,.22l-.03,.12s-.02,.05-.04,.21l-.08,.75c-.25,2.41-.23,4.98-.15,7.53,.08,2.56,.23,5.14,.37,7.7,.08,1.4,.17,2.81,.27,4.2l.15,1.69c.03,.12-.01,.31,.14,.35,.12,.05,.26,.07,.39,.1l.35,.05,.5,.05,1.02,.07c.69,.04,1.39,.07,2.09,.09,1.4,.04,2.81,.05,4.21,.06,3.47,0,6.95-.06,10.42-.18,2.5-.09,5.02-.18,7.52-.31,1.25-.07,2.5-.15,3.74-.22l1.66-.13c.18-.02,.35-.03,.53-.06,.04-.01,.1,0,.12-.04l.02-.13,.04-.26c.02-.14,.04-.28,.05-.43,.21-1.89,.24-3.95,.21-5.92-.03-1.99-.11-3.99-.18-6-.03-.89-.09-1.75-.1-2.65-.04-3.33,.19-4.41,1-5.09,.18-.16,.37-.36,.55-.45,.62-.28,1.05,1.06,1.21,3.46,.18,2.81,.36,5.71,.42,8.67,.03,1.48,.04,2.98,0,4.5-.02,.76-.05,1.53-.11,2.31-.03,.39-.05,.78-.1,1.17l-.1,.86-.17,1.1-.47,.88-.06,.11-.03,.06h0s0,.02,0,.02h0c-.37-.37-.1-.1-.18-.18h0s-.02,.03-.02,.03l-.15,.17c-.11,.11-.19,.25-.33,.35-.07,.05-.12,.12-.2,.15l-.28,.06c-.18,.05-.39,.06-.58,.09l-1.14,.12c-.81,.06-1.63,.13-2.45,.19-5.68,.38-11.37,.57-17.08,.69v-.07Z"/>
  </g>
  <g class="cls-3">
    <path class="cls-1" d="M360.43,339.56l.31-9.54c.03-1.16,0-2.32,.03-3.48l.48-12.27c.05-1.81,.1-3.64,.12-5.44-.01-2.32,.05-4.64,.78-6.94,.19-.72,.14-.62,.32,0,.09,.31,.27,.74,.51,1.27,.11,.26,.28,.55,.38,.85,.08,.3,.16,.62,.21,.96,.54,4.73,.29,9.44-.09,14.2-.23,2.85-.14,5.81-.21,8.72l-.26,9.61-.15,5.92c-.06,2.99-.16,5.99-.15,8.95,0,2.31,.16,4.57,.23,6.85,.02,.5,.06,.99,.06,1.5-.03,.47-.07,.86-.12,1.18-.06,.33-.17,.59-.26,.8-.18,.43-.38,.68-.62,.87-.11,.09-.21,.21-.3,.26-.29,.17-.63-.6-1.03-1.98-.2-1.02-.26-2.05-.31-3.09-.05-1.04-.09-2.09-.12-3.15-.05-2.12-.05-4.27-.03-6.42,.05-3.2,.11-6.42,.16-9.62h.06Z"/>
  </g>
  <g class="cls-3">
    <path class="cls-1" d="M352.12,404.86l-8.23-.39-4.11-.21-2.06-.04-1.37-.03c-.64,0-1.22-.13-1.65-.32-.05-.03-.1-.05-.14-.09l-.06-.05-.03-.03h0s.06-.06,.05-.05h0s0,0,0,0h0s-.01-.03-.01-.03l-.18-.34c-.12-.24-.24-.48-.3-.78-.08-.28-.16-.59-.15-.91v-.56s-.04-2.16-.04-2.16c0-2.54-.06-5.06-.02-7.58l.03-5.35,.04-2.68c0-.22,.04-.45-.01-.67l-.12-.87c-.09-.38,0-.75,.07-1.11,.13-.33,.2-.63,.38-.94,.2-.18,.42-.34,.65-.47,.21-.16,.46-.27,.72-.36,.25-.1,.52-.22,.74-.26l.55-.14c.72-.15,1.41-.27,2.1-.36,1.38-.18,2.73-.28,4.08-.36,2.7-.14,5.38-.18,8.06-.16,3.97,.05,7.95,.17,11.87,.36,2.52,.1,5.05,.33,7.56,.64,2.51,.32,5.03,.66,7.47,1.4,.74,.34,1.06,.49,1.03,.52-.03,.04-.41,0-1.1,.13-1.37,.22-3.86,.6-6.72,.52-10.16-.09-20.38-.61-30.45-.08-.85,.06-1.69,.16-2.5,.29-.38,.07-.83,.17-1.11,.25-.14,.04-.27,.07-.38,.16-.08,.16-.03,.28-.08,.57-.04,.14-.05,.28-.1,.41v.42s-.04,.84-.04,.84c-.02,1.13-.04,2.25-.07,3.39-.04,2.26-.05,4.54-.02,6.79l.04,4.45,.05,2.21,.02,.55c.02,.13,0,.15,0,.24v.21s.01,.07,.03,.1c.02,.03,.06,.02,.09,.03l2.07,.15c.99,.08,1.98,.11,2.98,.14l5.96,.19c4.28,.12,8.56,.24,12.83,.31,6.48,.1,12.99,.23,19.4,.01,1.24-.05,2.48-.11,3.69-.23l.9-.1,.31-.05,.23-.04c.15-.04,.31-.06,.43-.16,.05-.15,.03-.32,.03-.47v-1.54c0-.61-.03-1.23-.06-1.85-.04-1.24-.14-2.48-.12-3.72,0-1.1,0-2.17,.05-3.29,.09-2.06,.28-3.43,.62-4.37,.32-.94,.68-1.46,1.18-1.82,.22-.16,.45-.38,.65-.45,.66-.2,.77,1.39,.87,4.32-.05,2.16-.02,4.38-.03,6.63-.07,1.13-.13,2.26-.2,3.39-.05,.57-.03,1.15-.05,1.72v.44s-.02,.22-.02,.22c0,.08,0,.12-.02,.28l-.06,.82c-.02,.28-.03,.56-.12,.78-.09,.23-.12,.5-.26,.69l-.09,.16c-.08,0-.1,.08-.15,.11l-.26,.25c-.32,.36-.9,.45-1.42,.59-1.34,.21-1.65,.2-2.32,.25-1.2,.08-2.38,.12-3.56,.15-2.36,.06-4.71,.05-7.06,.04-6.98-.07-13.97-.32-20.94-.58v-.06Z"/>
  </g>
  <g class="cls-3">
    <path class="cls-1" d="M270.36,112.54l5.52,.28c.67,.03,1.34,0,2.01,.04,2.36,.11,4.72,.34,7.08,.43,1.05,.05,2.1,.04,3.14,.03,1.33-.04,2.67,.07,4.01,.21,.42,.05,.37,.18,.02,.37-.35,.18-.99,.5-1.76,.65l-1.02,.18-.51,.09-.51,.03c-.68,.04-1.37,.05-2.06,.06-1.37,.02-2.75,0-4.12-.08-1.65-.09-3.36-.02-5.05-.06l-5.55-.16-3.41-.08c-1.72-.02-3.45-.05-5.16,.02-1.33,.06-2.62,.21-3.93,.34l-.86,.09c-.54,.05-.89,.01-1.15-.11-.26-.11-.41-.26-.54-.47-.06-.1-.13-.19-.17-.29-.12-.3,.3-.64,1.08-.92,2.34-.51,4.84-.79,7.35-.76,1.86-.01,3.73,.05,5.59,.1v.05Z"/>
  </g>
  <g class="cls-3">
    <path class="cls-1" d="M269.64,120.19c1.11,.12,2.22,.24,3.33,.33,.41,.04,.81,0,1.22,.05,1.43,.18,2.86,.35,4.29,.48,.64,.05,1.27,.07,1.91,.07,.81,.06,1.62,.13,2.43,.31,.25,.06,.21,.19,0,.36-.22,.16-.62,.42-1.08,.52l-1.24,.22c-.41,.05-.83,.04-1.24,.05-.83,0-1.66-.02-2.49-.11-1-.11-2.04,.01-3.06,0l-3.37-.16-2.07-.11c-1.05-.04-2.1-.17-3.14-.18-.81-.03-1.61,.12-2.42,.1-.18,0-.35,.02-.53,0-.66-.06-.86-.22-.97-.7-.02-.11-.06-.22-.07-.33-.04-.37,.25-.66,.74-.78,1.44-.41,2.92-.39,4.42-.37,1.11,0,2.23,.13,3.34,.21v.05Z"/>
  </g>
  <g class="cls-3">
    <path class="cls-1" d="M121.25,199.6l4.4,.31c.54,.03,1.07,.01,1.61,.05,1.89,.12,3.77,.25,5.66,.32,.84,.03,1.68,.03,2.51,.03,1.07,0,2.14-.04,3.2,.06,.67,.05-.17,.8-1.4,.9-2.18,.13-4.35,.22-6.55,.13-1.31-.06-2.68,.05-4.02,.08l-4.43,.02-2.73-.02c-1.38,0-2.76-.05-4.13,0-1.06,.05-2.1,.19-3.15,.28-.23,.02-.46,.03-.69,.03-.86-.03-1.14-.17-1.33-.64-.04-.11-.1-.21-.13-.32-.09-.35,.26-.66,.9-.84,1.87-.57,3.85-.55,5.84-.55,1.48,.01,2.96,.06,4.44,.11v.05Z"/>
  </g>
  <g class="cls-3">
    <path class="cls-1" d="M355.85,387.24l4.04,.11c.49,.02,.98-.02,1.48,0,1.74,.07,3.49,.13,5.23,.16,.77,.03,1.55,.04,2.32,.04,.99,0,1.98,0,2.97,.12,.31,.04,.27,.15,.01,.31-.26,.15-.73,.38-1.29,.46-1,.15-1.99,.3-2.99,.42-1,.15-2.01,.1-3.02,.09-1.21-.04-2.47,.12-3.71,.17-1.36,.07-2.74,.04-4.11,.02l-2.53-.06c-1.28-.03-2.56-.11-3.83-.16-.99-.04-1.96,0-2.94-.03-.22,0-.43,0-.64-.04-.8-.16-1.04-.33-1.17-.67-.03-.08-.07-.16-.09-.23-.05-.25,.3-.43,.89-.55,.88-.21,1.76-.2,2.65-.24,.89-.04,1.79-.05,2.7-.07,1.34,.03,2.7,.06,4.05,.1v.05Z"/>
  </g>
  <g class="cls-3">
    <path class="cls-1" d="M164.29,398.41c.17-.3,.45-.54,.89-.76,.48-.19,1.1-.32,1.74-.37,1.54-.12,1.89-.05,2.65-.09,.5-.01,1-.07,1.5-.08,1.77-.04,3.54-.04,5.31-.04,.79,0,1.57-.06,2.35-.1,1-.05,2.04-.06,3.03,.16,.31,.07,.25,.14-.02,.22-.27,.07-.76,.19-1.31,.26-1.97,.24-3.99,.72-6.04,.84-1.23,.04-2.5,.25-3.75,.37l-2.07,.18-.24,.02h-.11s-.22,0-.22,0c-.15,0-.32,.01-.49,.04-.19,.05-.48,.03-.6,.24-.02,.22,.22,.29,.38,.4,.27,.15,.58,.27,.93,.38,.59,.18,1.24,.35,1.86,.57,.25,.08,.49,.17,.74,.27,.32,.13,.64,.34,.86,.62,.22,.27,.3,.67,.18,1-.1,.32-.41,.64-.66,.87-.15,.16-.29,.32-.44,.47-.27,.31-.57,.37-.76,.44-.19,.06-.36,.04-.52,0-.07-.02-.14-.02-.19-.04-.13-.03-.09-.48,.22-1.02,.09-.22,.26-.37,.41-.54l.23-.25c.07-.08,.17-.19,.18-.15,.03-.06,0-.11-.05-.12-.03,0,0,.01-.07,0-.18-.07-.37-.14-.57-.2-.4-.12-.82-.23-1.27-.34l-.51-.13c-.28-.08-.65-.18-.97-.28-.32-.11-.67-.2-1.01-.3-.34-.12-.7-.22-.91-.39-.48-.31-.74-.66-.82-.97-.06-.16-.08-.3-.09-.53,0-.24,.06-.5,.15-.65h.05Z"/>
  </g>
  <g class="cls-3">
    <path class="cls-1" d="M243.28,400.23c-.69-.1-1.37-.23-2.06-.36-.25-.05-.5-.05-.75-.1-.88-.17-1.76-.34-2.64-.46-.39-.06-.79-.09-1.18-.12-.5-.03-1.01-.06-1.5-.16-.31-.05,.11-.45,.69-.51,1.03-.05,2.06-.08,3.09,.03,.62,.07,1.26,.02,1.9,.04,.7,.02,1.39,.05,2.08,.12,.43,.04,.86,.08,1.28,.11,.65,.05,1.3,.12,1.94,.12,.5,.02,.99-.04,1.49-.05,.11,0,.22-.02,.33-.01,.41,.02,.53,.13,.6,.49,.02,.08,.04,.16,.04,.24,.02,.27-.15,.49-.46,.58-.45,.13-.91,.22-1.37,.28-.23,.03-.47,.06-.7,.07l-.7-.05c-.69-.06-1.39-.16-2.08-.24v-.04Z"/>
  </g>
  <path class="cls-1" d="M50.68,225.07c.18,.2-.04,.46-.45,.76-.13,.1-.57,.22-.66,.17-.17-.1-.33-.2-.47-.31-.08-.06-.78-1.32-1.04-1.76-.26-.42-.41-.87-.55-1.32-.24-.92-.38-1.87-.5-2.82-.02-.21-.02-.42,.03-.64,.15-.73,.13-1.45,.07-2.18-.01-.12,0-.24-.1-.36-.2-.2,.04-2.17,.17-2.41,.3-.6,.51-1.21,.85-1.79,.04-.08,.04-.18,.17-.24,.3-.14,.31-.33,.38-.51,.09-.25,.21-.5,.37-.73,.08-.12,.24-.21,.36-.31,.12-.09,.39,.04,.42,.09,.07,.13,.23,.08,.36,.09,.04,0,.1,.01,.13,.03,.04,.03,.51,1.58,.54,1.73-.02,.02,.06,.56,.09,1.11,.02,.55,.06,1.12,.09,1.23,.03,.12-.05,.24-.09,.35-.05,.06,.25,1.68,.21,1.74-.06,.33,.05,.66-.22,.99-.05,.07-.04,.13-.04,.2,.04,.57-.05,1.15-.08,1.73-.02,.3,.05,.59,.06,.88,0,.05-.03,.11-.04,.17-.01,.07-.04,.14-.03,.21,.13,.69-.01,1.42,.18,2.11,.02,.16-.12,.99-.05,1.17,.03,.1-.24,.53-.17,.61Z"/>
  <path class="cls-1" d="M41.41,228.33c.21,.08,.16,.36-.04,.73-.06,.12-.36,.37-.44,.36-.16,0-.31-.01-.45-.04-.08-.02-1-.61-1.35-.76-.33-.16-.61-.36-.89-.57-.56-.42-1.15-.81-1.73-1.19-.13-.08-.24-.19-.34-.32-.33-.43-.76-.74-1.23-1-.08-.04-.14-.11-.27-.08-.2,.04-1.41-.71-1.53-.87-.29-.4-.62-.73-.95-1.1-.04-.06-.12-.06-.11-.2,.03-.32-.12-.36-.23-.46-.16-.13-.31-.28-.41-.51-.06-.11-.07-.3-.1-.45-.03-.14,.17-.41,.22-.43,.13-.05,.15-.24,.21-.37,.02-.04,.05-.1,.07-.14,.02-.03,.41-.1,.83-.19,.39-.02,.79-.03,.85,0,.06-.04,1.69,.8,1.89,.88,.1,.04,.16,.16,.22,.25,.04,.03,1.34,.73,1.38,.78,.22,.21,.52,.32,.61,.7,.02,.08,.07,.11,.12,.14,.4,.33,.72,.76,1.05,1.16,.17,.21,.37,.38,.55,.57,.03,.03,.05,.09,.07,.14,.03,.06,.05,.12,.09,.16,.44,.44,.79,.97,1.25,1.39,.11,.1,.39,.76,.52,.87,.07,.06,.05,.48,.14,.51Z"/>
  <path class="cls-1" d="M36.18,237.44c.21-.09,.36,.15,.47,.57,.03,.13,0,.52-.06,.58-.11,.11-.23,.21-.34,.29-.07,.04-1.1,.29-1.43,.45-.33,.13-.65,.21-.97,.27-.65,.12-1.29,.34-1.92,.5-.14,.04-.29,.04-.44,.03-.52-.06-1.01,.07-1.46,.29-.08,.04-.16,.05-.21,.17-.09,.19-1.3,.72-1.49,.72-.52,.01-.94,.02-1.4,.03-.07,0-.11,.06-.22-.03-.25-.21-.36-.11-.49-.07-.19,.05-.43,0-.67-.02-.12-.02-.28-.11-.42-.16-.13-.05-.23-.33-.22-.38,.03-.13-.11-.23-.18-.33-.02-.04-.06-.08-.07-.12-.01-.04,.14-.38,.28-.81,.06-.24,.16-.41,.25-.53,.09-.13,.16-.22,.19-.24,.01,0,.4-.28,.81-.58,.42-.27,.9-.48,.99-.54,.1-.06,.23-.03,.35-.02,.05-.02,1.42-.61,1.49-.6,.31-.04,.59-.19,.95-.01,.07,.04,.13,.01,.19,0,.51-.12,1.05-.11,1.58-.1,.27,0,.53-.03,.8-.03,.05,0,.1,.03,.15,.04,.06,.02,.13,.05,.19,.04,.63-.03,1.26,.09,1.87,.06,.15-.01,.82,.27,.98,.26,.09,0,.37,.32,.46,.28Z"/>
  <path class="cls-1" d="M454.92,218.6c-.03,.24-.35,.2-.83,0-.15-.06-.52-.37-.53-.46-.03-.18-.06-.35-.06-.51,0-.09,.49-1.19,.64-1.59,.14-.38,.35-.71,.57-1.03,.46-.64,.89-1.3,1.36-1.93,.11-.14,.24-.25,.4-.34,.54-.31,.93-.75,1.29-1.25,.06-.08,.14-.14,.12-.29-.03-.24,1.04-1.48,1.26-1.55,.54-.2,1.01-.46,1.51-.68,.07-.03,.1-.12,.25-.06,.34,.13,.42-.01,.57-.09,.19-.12,.4-.22,.64-.29,.12-.03,.31,.02,.48,.04,.15,.02,.4,.37,.41,.43,.02,.17,.21,.26,.34,.38,.04,.04,.1,.1,.13,.13,.05,.07-.26,1.56-.33,1.67,0,.02-.29,.39-.57,.78-.29,.39-.57,.81-.63,.9-.06,.09-.19,.11-.3,.15-.05,.02-.92,1.18-.97,1.21-.24,.18-.38,.46-.78,.49-.08,0-.11,.06-.15,.1-.34,.38-.77,.69-1.19,.99-.22,.16-.38,.36-.57,.54-.03,.03-.1,.04-.14,.06-.06,.03-.13,.05-.17,.09-.43,.45-.97,.81-1.33,1.32-.09,.11-.76,.45-.84,.59-.05,.08-.53,.08-.54,.18Z"/>
  <path class="cls-1" d="M446.25,210.89c.14,.12-.13,.21-.62,.3-.16,.03-.63,.02-.7-.01-.13-.06-.26-.13-.35-.2-.05-.04-.31-.68-.42-.89-.11-.21-.13-.42-.15-.63-.04-.43-.07-.86-.11-1.28,0-.09,.01-.19,.06-.28,.15-.32,.15-.65,.09-.98-.01-.05,0-.11-.09-.16-.16-.09-.18-.97-.1-1.08,.19-.28,.25-.57,.44-.85,.03-.04,0-.08,.11-.12,.25-.09,.22-.17,.25-.26,.04-.12,.09-.24,.18-.37,.04-.06,.16-.12,.26-.18,.09-.05,.38-.02,.41,0,.09,.05,.24,.01,.36,0,.04,0,.1,0,.13,0,.05,0,.72,.71,.76,.78,.06,.02,.27,1.04,.32,1.16,.03,.06-.03,.12-.06,.18,0,.03,.16,.85,.16,.88-.03,.17,.05,.34-.17,.51-.04,.03-.03,.07-.03,.1,.02,.29-.07,.58-.13,.87-.03,.15,0,.3-.01,.45,0,.03-.03,.05-.05,.08-.02,.03-.05,.07-.05,.1,.01,.35-.11,.7-.03,1.06,.02,.08-.23,.47-.2,.56,.02,.05-.32,.22-.26,.27Z"/>
</svg>