<?xml version="1.0" encoding="UTF-8"?>
<svg id="Layer_34" data-name="Layer 34" xmlns="http://www.w3.org/2000/svg" viewBox="0 0 520 520">
  <defs>
    <style>
      .cls-1 {
        fill: #231f20;
      }
    </style>
  </defs>
  <path class="cls-1" d="M261.41,450.39l46.61-1.45c5.67-.23,11.33-.45,16.99-.68,19.97-.69,39.94-1.42,59.91-2.29,8.86-.38,17.76-.89,26.54-1.38,11.29-.65,22.61-1.48,33.92-1.6,3.53,.05,3.08,.48,.14,1.29-1.47,.41-3.57,.85-6.11,1.29-1.27,.22-2.65,.42-4.12,.61-.74,.09-1.49,.18-2.27,.27-.78,.06-1.57,.11-2.39,.17-23.05,1.4-46.11,2.45-69.39,3.13-13.92,.41-28.39,1.17-42.62,1.7-15.65,.52-31.31,1.05-46.96,1.57-9.64,.29-19.27,.58-28.9,.87-14.59,.44-29.25,.89-43.73,1.32-11.26,.37-22.28,.97-33.41,1.31-2.45,.08-4.85,.17-7.32,.25-4.58,.14-7.6,.15-9.73,.06-2.12-.07-3.35-.25-4.34-.47-.45-.1-1.04-.18-1.31-.25-.89-.2,2.83-.85,9.53-1.33,4.97-.3,10.01-.6,15.09-.9,5.09-.3,10.23-.59,15.41-.78,10.36-.4,20.87-.8,31.39-1.2,15.64-.53,31.35-1.06,47.03-1.59l.02,.07Z"/>
  <g>
    <path class="cls-1" d="M92.47,430.85c-2.22-.08-4.44-.15-6.67-.17-.81,0-1.62,.05-2.44,.04-2.87-.06-5.74-.09-8.62-.17-1.28-.03-2.56-.02-3.82,0l-2.44,.04c-.81,.04-1.63-.18-2.44-.37-.5-.13-.43-.27,0-.55,.43-.25,1.22-.9,2.15-.99,3.3-.15,6.58-.37,9.92-.17,2,.11,4.07-.08,6.11-.12,2.25-.04,4.5-.05,6.75-.03l4.16,.05c2.1,.07,4.21,.13,6.3,.2,1.62,.02,3.22-.07,4.83,0,.35,0,.7,0,1.06,.04,.66,.05,1.09,.14,1.38,.3,.3,.15,.45,.35,.57,.62,.05,.12,.13,.23,.16,.34,.1,.32-.47,.71-1.44,.88-1.43,.13-2.9,.29-4.37,.32-1.48,.02-2.97-.02-4.46-.03-2.22-.05-4.46-.1-6.69-.16v-.06Z"/>
    <path class="cls-1" d="M101.01,435.47l-5.77-.12c-.7-.01-1.4,.05-2.11,.04-2.48-.06-4.96-.11-7.45-.11-1.1,.01-2.21,.05-3.3,.09-1.4,.06-2.81,.16-4.22,0-.44-.05-.39-.39-.04-.76,.36-.37,1.02-.81,1.82-.91,1.42-.18,2.84-.35,4.27-.47,1.43-.07,2.87-.1,4.32-.06,1.73,.05,3.52-.18,5.29-.26,1.94-.09,3.89-.12,5.84-.11h3.6c1.82,0,3.65,.08,5.45,.05,1.4-.02,2.79-.18,4.19-.2,.31,0,.61-.04,.92-.03,1.14,.16,1.5,.38,1.69,1.03,.05,.14,.11,.27,.13,.39,.08,.37-.42,.87-1.25,1.05-1.24,.31-2.49,.37-3.76,.47-1.27,.04-2.55,.03-3.85,.02-1.92-.02-3.86-.04-5.78-.06v-.07Z"/>
    <path class="cls-1" d="M107.25,442.39l-7.34-.06c-.89,0-1.78,.07-2.68,.06-3.15-.02-6.3-.05-9.45-.07-1.4-.02-2.8,.02-4.19,.06-1.78,.06-3.56,.15-5.35,.05-.56-.03-.49-.29-.04-.58,.46-.29,1.3-.66,2.32-.77,1.81-.19,3.62-.37,5.44-.51,.91-.07,1.82-.12,2.73-.16,.91-.02,1.83-.01,2.75,0,2.2,.04,4.47-.18,6.71-.26l7.4-.22,4.55-.12c2.3-.07,4.61-.09,6.88-.24,1.77-.1,3.5-.42,5.25-.54,.39-.03,.76-.09,1.15-.11,1.44-.08,1.91,.11,2.24,.83,.07,.13,.17,.24,.21,.32,.07,.15-.04,.29-.29,.61-.25,.36-.66,.49-1.18,.62-1.56,.32-3.16,.67-4.78,.78-1.63,.13-3.28,.21-4.94,.26-2.46,.09-4.93,.1-7.4,.11v-.06Z"/>
    <path class="cls-1" d="M120.06,450.66c-3.17-.13-6.34-.22-9.51-.28h-3.47c-4.08-.06-8.16-.11-12.24-.05-1.81,.01-3.62,.13-5.42,.18-2.3,.1-4.61,.22-6.92,.22-.72,0-.64-.19-.05-.44,.59-.25,1.69-.6,3.02-.76,4.7-.6,9.42-.81,14.18-.82,2.85,0,5.8-.19,8.71-.26,3.2-.07,6.4-.09,9.6-.1l5.91,.02c2.98,.03,5.98,.07,8.94,.1,1.15,0,2.29-.04,3.43-.07,1.14-.05,2.28-.09,3.42-.06,.5,0,1-.02,1.5,.04,1.88,.19,2.46,.44,2.83,.99,.08,.13,.2,.25,.24,.37,.15,.4-.63,.71-2,.89-4.07,.61-8.32,.39-12.61,.35-3.18-.04-6.38-.19-9.58-.26v-.06Z"/>
    <path class="cls-1" d="M111.07,438.73c-1.4-.05-2.8-.08-4.2-.08-.51,0-1.02,.06-1.53,.06-1.8-.02-3.61,0-5.41,.02-.8,0-1.6,.07-2.39,.14-1.01,.14-2.04,.12-3.07,.04-.32-.03-.29-.13-.04-.32,.25-.18,.71-.53,1.28-.74,.5-.2,1.02-.3,1.53-.39,.52-.1,1.03-.18,1.55-.26,1.04-.15,2.08-.27,3.14-.24,1.27,0,2.56-.21,3.85-.3,1.41-.09,2.83-.15,4.25-.2l2.62-.08c1.32-.03,2.65-.02,3.96-.11,1.02-.07,2.01-.28,3.02-.42,.22-.03,.44-.09,.66-.1,.83-.05,1.1,.16,1.29,.79,.04,.15,.1,.29,.13,.43,.09,.49-.24,.91-.84,1.12-1.78,.52-3.66,.59-5.55,.67-1.4,.05-2.82,.05-4.23,.04v-.06Z"/>
    <path class="cls-1" d="M117.23,445.16h-6.3c-.77,.02-1.53,.1-2.3,.1-2.71,.02-5.43-.14-8.14-.18-1.2-.04-2.41,.02-3.6,.01-.77-.01-1.53,0-2.3-.04-.77-.07-1.53-.23-2.3-.36-.48-.1-.41-.19,0-.41,.4-.2,1.14-.63,2.02-.88,3.1-.52,6.2-.48,9.34-.42,1.88,.05,3.82-.16,5.74-.22l6.35-.18,3.91-.09c1.98-.06,3.97-.05,5.93-.13,1.53-.05,3.03-.26,4.54-.37,.33-.03,.66-.08,1-.05,1.25,.07,1.64,.29,1.89,.95,.06,.15,.13,.3,.16,.45,.1,.5-.41,.91-1.32,1.12-1.34,.35-2.7,.42-4.09,.52-1.38,.09-2.79,.14-4.2,.15-2.1,.03-4.21,.06-6.32,.09v-.07Z"/>
    <path class="cls-1" d="M124.87,443.07l-5.79-3.1c-.71-.38-1.46-.65-2.15-1.05-2.44-1.41-4.88-2.84-7.35-4.21-1.08-.63-2.21-1.2-3.32-1.75-1.41-.75-2.86-1.45-4.07-2.59-.39-.34-.27-.43,.23-.48,.25-.03,.6-.07,1.02-.1,.43-.05,.89-.03,1.33,.11,.78,.24,1.58,.47,2.35,.74,.75,.31,1.5,.63,2.25,.96,1.5,.64,2.92,1.46,4.33,2.32,1.68,1.04,3.6,1.77,5.38,2.7l5.82,3.19,3.58,1.97c1.82,.97,3.61,2.02,5.42,2.96,1.4,.75,2.87,1.31,4.26,2.07,.31,.16,.62,.3,.92,.49,1.12,.66,1.37,1.06,1.39,1.58,0,.12,.03,.25,0,.36-.05,.35-.67,.36-1.6,.11-2.73-.82-5.42-2.02-8.11-3.26-2.01-.9-3.94-1.98-5.92-2.95l.03-.07Z"/>
    <path class="cls-1" d="M88.48,426.56c-1.73-.12-3.46-.25-5.19-.34-.63-.04-1.26-.01-1.89-.06-2.22-.16-4.45-.32-6.68-.41-.99-.03-1.98-.02-2.97-.02l-1.89,.02c-.63-.05-1.27-.18-1.9-.3-.4-.09-.35-.23-.02-.48,.33-.23,.93-.68,1.66-.91,1.29-.16,2.58-.28,3.87-.31,1.29,0,2.59,.06,3.9,.17,1.56,.14,3.18,.02,4.78,.06,1.75,.04,3.51,.15,5.26,.24l3.23,.18c1.63,.08,3.27,.21,4.89,.23,1.26,0,2.5-.09,3.74-.09,.27,0,.54-.02,.82-.01,1.02,.02,1.34,.29,1.54,.78,.05,.12,.11,.23,.13,.34,.08,.37-.35,.69-1.11,.88-1.12,.18-2.27,.31-3.43,.38-1.16,.02-2.33-.01-3.5-.06-1.74-.09-3.49-.17-5.23-.26v-.06Z"/>
    <path class="cls-1" d="M86.04,422.28c-1.29-.06-2.58-.11-3.87-.13-.47,0-.94,.05-1.41,.04-1.66-.01-3.33-.13-4.99-.12-.74-.02-1.48,.09-2.21,.1-.94,.05-1.88,.12-2.83,.02-.3-.03-.28-.27-.06-.56,.22-.28,.64-.67,1.18-.82,1.89-.58,3.83-.71,5.79-.64,1.17,.03,2.38-.11,3.57-.13,1.31-.02,2.63,0,3.94,.02l2.42,.05c1.22,.01,2.45,.08,3.66,.04,.94-.04,1.87-.14,2.8-.18,.21-.01,.41-.04,.61-.01,.77,.09,1.01,.26,1.16,.72,.03,.1,.08,.21,.1,.31,.06,.34-.26,.63-.82,.82-1.67,.56-3.4,.63-5.14,.6-1.29-.02-2.6-.05-3.89-.07v-.06Z"/>
  </g>
  <path class="cls-1" d="M122.74,441.18c-2.5-1.27-4.97-2.6-7.45-3.91-.91-.48-1.84-.89-2.74-1.38-3.17-1.72-6.26-3.59-9.39-5.37-1.38-.81-2.83-1.51-4.21-2.29l-2.67-1.49c-.86-.55-1.68-1.18-2.5-1.8-.5-.4-.34-.53,.28-.53,.61,0,1.72,.03,2.86,.38,3.87,1.56,7.47,3.61,11.05,5.78,2.14,1.3,4.52,2.37,6.77,3.58l7.46,3.95c1.53,.8,3.07,1.61,4.62,2.38,2.34,1.18,4.69,2.37,7.07,3.45,1.84,.83,3.72,1.51,5.57,2.27,.4,.17,.81,.33,1.21,.51,1.49,.71,1.87,1.14,2.01,1.7,.03,.13,.08,.27,.08,.39,0,.38-.74,.39-1.94,.12-1.77-.44-3.5-1.08-5.24-1.78-1.74-.7-3.47-1.46-5.2-2.25-2.57-1.17-5.12-2.41-7.66-3.65l.02-.06Z"/>
  <path class="cls-1" d="M149.2,436.18c.14-2.08,.26-4.17,.35-6.26,.03-.76,0-1.53,.04-2.29,.15-2.7,.3-5.39,.45-8.09,.07-1.2,.12-2.4,.16-3.59,.05-.76,0-1.53,.15-2.29,.13-.76,.29-1.52,.45-2.27,.11-.47,.22-.4,.4,.02,.17,.41,.51,1.17,.66,2.05,.04,.39,.16,.78,.15,1.17v1.16s-.04,2.32-.04,2.32c-.01,1.55-.14,3.1-.26,4.66-.16,1.87-.06,3.82-.09,5.74-.03,2.11-.09,4.22-.16,6.34l-.16,3.9c-.11,1.97-.22,3.95-.33,5.91-.07,1.52-.03,3.03-.07,4.54,0,.33-.03,.66-.07,.99-.16,1.24-.48,1.6-.97,1.8-.12,.05-.23,.11-.34,.13-.35,.07-.63-.47-.79-1.39-.05-.67-.14-1.36-.13-2.04,0-.68,.02-1.37,.05-2.06,.04-1.38,.13-2.78,.2-4.18,.12-2.08,.24-4.18,.32-6.28h.06Z"/>
  <path class="cls-1" d="M307.64,395.38c.13,4.66,.33,9.31,.52,13.97,.07,1.7,.23,3.39,.31,5.09,.26,5.99,.55,11.99,.93,17.98,.15,2.66,.45,5.32,.64,7.96,.14,1.69,.28,3.39,.42,5.09l.08,1.27v1.28c-.02,.85-.04,1.71-.05,2.56-.04,1.07-.28,.94-.72,.08-.22-.43-.5-1.05-.8-1.79-.15-.37-.3-.78-.45-1.21-.08-.22-.13-.44-.22-.67-.04-.23-.07-.47-.11-.71l-.67-5.16-.31-2.59-.21-2.6c-.27-3.47-.48-6.94-.6-10.45-.15-4.19-.64-8.52-.92-12.8l-.41-7.06-.28-7.07c-.11-2.9-.18-5.8-.25-8.7-.11-4.39-.14-8.81-.16-13.17,0-3.39-.13-6.72-.09-10.08,0-.74,.02-1.46,.08-2.21,.22-2.76,.44-3.63,.94-4.2,.11-.13,.23-.3,.33-.37,.35-.25,.62,.89,.77,2.91,.05,.75,.11,1.5,.16,2.25,.06,.76,.14,1.52,.16,2.28,.06,1.53,.12,3.06,.19,4.61,.13,3.1,.25,6.24,.38,9.39,.1,4.68,.21,9.38,.41,14.07h-.07Z"/>
  <path class="cls-1" d="M307.33,187.87l-.59,6.29c-.07,.77-.06,1.53-.13,2.3-.26,2.7-.63,5.39-.96,8.08-.14,1.19-.23,2.4-.29,3.59-.09,.76-.14,1.53-.24,2.29-.06,.77-.38,1.51-.6,2.26-.17,.46-.37,.38-.66-.06-.15-.22-.32-.52-.51-.88-.09-.18-.18-.38-.26-.58-.04-.1-.07-.21-.12-.32,0-.11-.02-.21-.03-.32l-.07-2.34c0-.78,.08-1.55,.13-2.33,.12-1.55,.28-3.1,.51-4.66,.27-1.86,.27-3.82,.4-5.74l.48-6.33,.29-3.9c.11-1.97,.34-3.95,.42-5.91,.05-1.52,.02-3.02,.11-4.53,.02-.33,0-.66,.08-.99,.24-1.23,.46-1.61,.9-1.84,.1-.05,.19-.13,.27-.15,.26-.1,.55,.43,.74,1.35,.34,1.37,.4,2.74,.54,4.15,.07,1.4,.04,2.82,.02,4.23,0,2.11-.24,4.22-.36,6.34h-.07Z"/>
  <path class="cls-1" d="M297.52,151.9l-4.05-3.08c-.49-.37-1.03-.69-1.52-1.07-1.72-1.34-3.45-2.68-5.17-4.02-.76-.6-1.57-1.15-2.36-1.68l-.77-.51c-.25-.18-.49-.38-.73-.58-.49-.38-.91-.85-1.33-1.34-.25-.31-.13-.39,.28-.42,.21-.01,.49-.02,.83-.01,.34,0,.71,.05,1.03,.2l.88,.39c.29,.13,.54,.33,.8,.5,.52,.35,1.05,.7,1.56,1.07,1.03,.73,2.05,1.48,3,2.34,1.15,1.01,2.5,1.83,3.75,2.75l4.11,3.06,2.54,1.88c1.29,.94,2.57,1.89,3.87,2.79,1.01,.7,2.08,1.27,3.11,1.92,.22,.15,.44,.29,.66,.45,.79,.61,.98,.91,.91,1.37-.01,.11-.01,.22-.04,.31-.1,.31-.59,.3-1.28,.02-.51-.21-1.03-.43-1.55-.66-.49-.26-.99-.54-1.48-.83-.98-.58-1.95-1.19-2.91-1.82-1.4-.97-2.78-2-4.17-3l.03-.04Z"/>
  <path class="cls-1" d="M125.9,207.58c-2.81-1.49-5.58-3.07-8.37-4.59-1.02-.56-2.07-1.05-3.09-1.62-3.57-2.01-7.14-4.04-10.66-6.14-1.57-.92-3.16-1.83-4.73-2.71-1.01-.57-1.99-1.21-2.97-1.83-.99-.61-1.86-1.42-2.78-2.13-.56-.47-.41-.52,.23-.4,.4,.08,.86,.17,1.32,.25,.27,.06,.56,.12,.87,.2,.15,.04,.3,.09,.47,.12,.15,.07,.3,.13,.45,.2,1.07,.49,2.16,.96,3.21,1.48l3.11,1.67c1.03,.57,2.06,1.14,3.1,1.71,1.01,.61,2.03,1.22,3.05,1.83,2.42,1.49,5.12,2.74,7.69,4.1l8.49,4.5,5.21,2.81c2.64,1.4,5.27,2.87,7.91,4.23,2.06,1.03,4.09,2.05,6.14,3.08,.45,.23,.9,.43,1.34,.69,1.64,.93,2.06,1.41,2.12,2.09,.01,.16,.05,.33,.04,.46-.06,.45-.91,.4-2.19-.11-3.76-1.59-7.63-3.39-11.43-5.4-2.84-1.47-5.69-2.95-8.53-4.43l.03-.06Z"/>
  <path class="cls-1" d="M221.17,215.03c41.61-30.78-22.61-45.17-49.88-47.11-4.37-.31,65.61-.62,95.02-.55,5.19,.01,4.86,7.16,7.48,9.27,16.85,13.59,40.68,32.05,28.77,37.18-1.33,.57-4.13-.2-6.38,.05-22.4,2.48-75.01,1.17-75.01,1.17Z"/>
  <path class="cls-1" d="M365.1,155.08c23.05-26.73-62.53-27.85-62.53-27.85l88.08-1.11s7.62,2.22,19.05,15.42c11.43,13.2,8.94,12.73,8.94,12.73l-53.54,.82Z"/>
  <path class="cls-1" d="M208.23,215.63l21.98-.05c2.67,0,5.34-.13,8.01-.12,9.42,.03,18.84,.08,28.25,0,4.18-.05,8.38-.1,12.52-.26,2.66-.1,5.32-.21,7.98-.31,2.67-.05,5.31-.29,8,.06,1.68,.26,1.46,.28,.09,.85-.68,.28-1.66,.75-2.85,1.13-1.2,.37-2.61,.59-4.14,.71-5.45,.42-10.89,.71-16.34,.92-5.45,.21-10.92,.15-16.41,.09-6.57-.11-13.39,.21-20.1,.29-7.38,.04-14.76,.09-22.14,.13-4.54,.03-9.09,.07-13.62,.1-6.88,.08-13.79,.13-20.61,.35-5.3,.18-10.49,.59-15.71,.95-1.15,.1-2.27,.15-3.43,.19-1.07,.03-1.97,.04-2.72,.02-.74,0-1.34-.01-1.85-.08-1-.15-1.6-.38-2.09-.7-.22-.15-.52-.28-.65-.42-.23-.23,.08-.48,.85-.79,.76-.3,1.98-.7,3.57-.93,1.17-.17,2.35-.33,3.53-.5,1.19-.17,2.38-.34,3.58-.41,2.4-.18,4.83-.35,7.28-.48,4.89-.25,9.85-.41,14.82-.52,7.38-.17,14.79-.23,22.19-.32v.09Z"/>
  <path class="cls-1" d="M134.73,404.07c.28-.42,19.58-12.14,14.66-14.26-4.92-2.12-16.1-6.24-11.73-12.7,4.38-6.46-10.91,2.14-14.65,.24-6.96-3.54-8.33-17.04-13.27-11.11-4.94,5.93-2.01,14.35-4.42,14.71-2.42,.37-11.83-1.42-9.79,6.79,1.88,7.58,20.89,17.41,20.89,17.41,0,0-33.19-15.8-33.58-21.74s1.03-7.74,5.6-7.64,14.67,2.68,14.67,2.68c0,0-1-.63-1.85-7.44s-1.55-6.61-.57-10.85c1.33-5.77,11.29-1.15,13.5,1.49,3.35,3.99,10.69,14.01,10.69,14.01,0,0,14.96-16.58,21.76-16.9s7.6,3.13,5.62,7.65c-1.98,4.52-8.72,9.53-8.91,11.52s.94,5.54,6.04,6.53c5.11,.99,12.31,1.5,11.46,4.68-.85,3.18-9.21,10-13.43,10.92-4.22,.92-12.69,4.03-12.69,4.03Z"/>
  <path class="cls-1" d="M89.84,254.55v13.75s.05,13.75,.05,13.75c.02,3.35,.19,6.69,.21,10.03,.08,11.79,.16,23.59,.32,35.39,.09,5.23,.24,10.5,.4,15.69,.26,6.67,.44,13.37-.08,20.06-.14,2.08-.59,1.81-1.23,.07-.32-.87-.71-2.11-1.11-3.62-.41-1.5-.76-3.26-.9-5.18-.12-1.7-.32-3.4-.38-5.1l-.22-5.1c-.13-3.4-.25-6.81-.38-10.22-.13-6.82-.2-13.66-.16-20.53,.05-8.22-.42-16.77-.59-25.17-.18-9.24-.31-18.5-.33-27.75,0-5.69,.01-11.39,.02-17.08,.08-8.62,.16-17.29,.24-25.84,.04-3.33,.02-6.62-.02-9.91,0-3.29-.01-6.57-.02-9.86,0-1.45-.03-2.87,.02-4.33,.04-1.35,.1-2.48,.18-3.42,.09-.94,.24-1.69,.38-2.31,.3-1.24,.72-1.94,1.29-2.49,.26-.25,.51-.59,.75-.73,.76-.48,1.49,1.77,1.7,5.73,.26,11.74,.06,24.07,0,36.48-.05,9.21-.12,18.47-.05,27.71h-.11Z"/>
  <path class="cls-1" d="M167.91,215.55c11.47-.43,22.99-1.14,34.52-1.8,4.21-.24,8.4-.61,12.61-.83,14.83-.75,29.69-1.32,44.56-1.47,6.6-.06,13.24-.14,19.8-.06,4.22,.03,8.45,.19,12.67,.54,2.11,.13,4.22,.44,6.32,.78l3.14,.6c1.04,.2,2.05,.65,3.07,.96,2.52,.91,2.13,.92-.16,1.21-.57,.08-1.27,.18-2.05,.31-.2,.04-.4,.05-.62,.14-.21,.01-.42,.05-.64,.07-.44,.04-.9,.09-1.37,.13-.96,.09-1.98,.13-3.07,.21-.55,.03-1.11,.05-1.68,.08-.57-.02-1.15-.04-1.74-.08-2.11-.08-4.22-.2-6.34-.24l-3.18-.06c-1.06-.06-2.12-.06-3.18-.1-4.24-.14-8.5-.17-12.76-.2-8.53-.04-17.1,.07-25.72,.18-10.31,.14-21.02,1.01-31.56,1.66-11.59,.71-23.19,1.46-34.82,2.08-7.17,.34-14.3,.75-21.61,.52-1.4-.07-2.76-.13-4.31-.48-.81-.13-1.49-.49-2.2-.8l-1.86-.98c-2.41-1.35-4.74-2.74-7.06-4.16-4.64-2.83-9.23-5.72-13.79-8.57-7.1-4.44-14.15-8.64-21.15-13.07-1.54-.98-3.08-1.89-4.61-2.91-5.63-3.85-7.19-5.45-7.69-7.26-.12-.4-.35-.84-.38-1.13-.14-.91,2.69-.13,6.95,2.42,12.68,7.51,25.71,16,38.96,24.17,2.46,1.52,4.92,3.02,7.39,4.48,1.23,.73,2.47,1.44,3.69,2.11l.9,.48,.45,.24c.15,.08,.25,.11,.37,.17,.23,.09,.47,.24,.69,.3,.22,.04,.44,.09,.66,.15,.57,.08,1.22,.16,1.86,.22l2.05,.11c1.41,.02,2.81,.06,4.25,.03,2.85-.02,5.75-.13,8.63-.25l.02,.11Z"/>
  <path class="cls-1" d="M183.46,165.22c11.57-.03,23.13,.01,34.7,.09,4.22,.02,8.44-.05,12.65,0,7.43,.08,14.86,.21,22.29,.39l11.14,.24,1.45,.03c.75-.06,1.38,.26,1.97,.68l.64,.55,.53,.47,1.04,.95,4.08,3.83c4.8,4.54,9.6,9.12,14.26,13.72,6.04,5.86,11.93,11.94,17.25,18.51,1.63,2.08,1.17,1.98-.57,.57-1.74-1.42-4.96-3.97-8.52-7.22-1.56-1.46-3.17-2.87-4.72-4.35l-4.67-4.4c-3.11-2.94-6.29-5.81-9.4-8.77-3.11-2.95-6.23-5.9-9.38-8.8-.78-.72-1.58-1.45-2.35-2.12-.13-.11-.1-.09-.12-.11l-.04-.04s-.07-.03-.11-.04h-.03s-.17-.01-.17-.01h-.4s-.81-.02-.81-.02c-2.16-.05-4.32-.1-6.48-.15-10.34-.25-21.11-.09-31.69-.13-11.63-.04-23.27-.08-34.91-.01-7.16,.04-14.33,.08-21.48,.21-10.84,.17-21.73,.39-32.48,.9-8.36,.37-16.53,1.09-24.75,1.78-1.81,.17-3.58,.38-5.41,.48-1.7,.09-3.1,.16-4.28,.21-1.18,.03-2.14,0-2.93-.05-1.59-.09-2.52-.29-3.28-.61-.35-.14-.8-.27-1.01-.4-.7-.44,2.01-1.24,6.95-2.22,7.34-1.23,14.95-1.83,22.66-2.41,3.85-.27,7.74-.52,11.64-.71,3.9-.22,7.82-.36,11.74-.48,11.65-.38,23.35-.54,35.02-.65l.02,.1Z"/>
  <path class="cls-1" d="M147.34,302.21l-.11-17.65c-.02-2.15-.15-4.29-.15-6.44-.02-7.57,.1-15.15,.25-22.73,.04-3.36,.06-6.74,.03-10.08,.04-2.14,.09-4.29,.13-6.44,.01-.54,.05-1.07,.08-1.61l.18-1.61c.12-1.07,.27-2.14,.49-3.2,.28-1.33,.57-1.13,1.09,.02,.51,1.15,1.4,3.25,1.52,5.71l.16,6.53c.02,2.18-.01,4.35-.04,6.53-.05,4.36-.15,8.73-.3,13.13-.18,5.26,.1,10.74,.17,16.12,.07,5.93,.13,11.85,.2,17.78,.04,3.65,.07,7.3,.11,10.95,.07,5.53,.04,11.09,.14,16.58,.06,4.27,.32,8.46,.42,12.69,.03,.93,.04,1.84,0,2.78-.08,1.74-.19,2.88-.41,3.68-.25,.8-.56,1.25-.97,1.61-.19,.16-.37,.38-.55,.47-.3,.16-.56-.12-.81-.76-.25-.64-.53-1.63-.63-2.9-.08-.94-.17-1.89-.25-2.84-.09-.95-.19-1.91-.21-2.87-.09-1.92-.12-3.86-.18-5.82-.1-3.91-.15-7.87-.2-11.85-.08-5.91-.15-11.85-.23-17.78h.09Z"/>
  <path class="cls-1" d="M154.33,425.49l-.09,8.03c0,.98,.12,1.95,.1,2.92-.07,3.45-.23,6.89-.25,10.34,0,.76,.02,1.53,.06,2.29,.03,.76,.05,1.52,.08,2.28,.05,.97,.1,1.94,.15,2.91-.01,.98-.13,1.95-.28,2.93-.11,.61-.6,.58-1.23,.11-.61-.47-1.5-1.37-1.84-2.48-.2-.99-.33-1.98-.47-2.98-.12-.99-.29-1.98-.3-2.98-.04-2,0-4,.15-6.02,.19-2.41-.15-4.9-.16-7.35v-8.1s0-4.99,0-4.99c-.03-2.52,0-5.05-.08-7.54-.07-1.94-.38-3.84-.51-5.77-.02-.42-.07-.84-.06-1.27,0-.4,.03-.73,.07-1.01,.06-.28,.19-.5,.3-.7,.24-.38,.51-.59,.88-.74,.17-.07,.33-.16,.48-.2,.49-.11,.98,.53,1.48,1.64,.21,.84,.42,1.69,.61,2.56,.15,.87,.27,1.74,.38,2.63,.21,1.77,.36,3.57,.49,5.38,.11,2.69,.1,5.39,.15,8.09h-.1Z"/>
  <path class="cls-1" d="M99.62,422.5c3.88,2.34,7.84,4.58,11.76,6.9,1.44,.83,2.93,1.56,4.36,2.4l15.2,8.86c2.25,1.31,4.55,2.55,6.83,3.78,2.91,1.61,5.78,3.3,8.51,5.23,.85,.6,.57,.8-.38,.72-.95-.1-2.62-.4-4.39-1.13-1.55-.68-3.13-1.31-4.66-2.01l-4.54-2.26c-3.01-1.54-6.03-3.09-8.95-4.88-3.5-2.1-7.37-3.89-11.05-5.86-4.06-2.16-8.07-4.41-12.06-6.72-2.45-1.42-4.9-2.86-7.33-4.32-.92-.56-1.85-1.1-2.76-1.69l-1.67-1.05-.49-.31-.24-.15c-.08-.05-.19-.09-.16-.2l-.04-1.16-.04-1.1v-.81s-.03-1.62-.03-1.62c0-1.08,0-2.15,0-3.22,0-1.66-.04-3.31-.09-4.95-.02-1.64-.03-3.28,0-4.92,.01-.72-.01-1.43,.02-2.16,.15-2.69,.61-3.51,1.54-4.04,.21-.12,.43-.28,.63-.35,.34-.11,.64,.11,.9,.62,.26,.5,.51,1.29,.6,2.28,.28,2.94,.37,5.92,.47,8.94,0,3.01-.03,6.04,.03,9.05l.02,.84v.33s0,0,0,0v.02s-.03,0,.02,.02l.72,.45c.48,.3,.96,.6,1.45,.89,1.94,1.18,3.91,2.34,5.88,3.48l-.04,.09Z"/>
  <path class="cls-1" d="M302.23,340.41c-.11-14.65-.21-29.3-.18-43.95-.01-5.35-.1-10.69-.05-16.03,.17-18.84,.56-37.68,1.24-56.5,.12-4.18,.26-8.37,.43-12.55,.15-4.18,.3-8.35,.45-12.5,.21-5.32,.48-10.66,.78-15.99l.29-3.99,.39-3.99,.41-3.98c.15-1.33,.34-2.65,.51-3.97,.47-3.3,.6-2.84,.94,0,.35,2.84,1.06,8.05,.99,14.18-.12,10.87-.55,21.71-.86,32.58-.42,10.87-.83,21.76-1.25,32.7-.53,13.09-.38,26.73-.43,40.13-.03,14.74,0,29.48,.14,44.23,.11,9.08,.21,18.15,.32,27.22,.22,13.74,.4,27.55,.74,41.19,.27,10.6,.75,20.99,1.11,31.48,.08,2.31,.19,4.57,.25,6.89,.12,4.31,.03,7.16-.11,9.16-.15,2-.47,3.16-.93,4.09-.2,.42-.39,.98-.58,1.23-.57,.84-1.42-2.67-1.81-8.98-1.09-18.72-1.62-38.47-2.11-58.32-.36-14.73-.56-29.54-.79-44.32l.1-.02Z"/>
  <path class="cls-1" d="M363.47,157.03c-7.55,.22-15.11,.5-22.67,.84-2.76,.12-5.51,.37-8.27,.48l-12.12,.46-6.09,.14c-1.02,.01-2.04,.02-3.08,0-.52,0-1.04-.02-1.59-.05-.23-.01-.68-.05-1.06-.11-.38-.1-.75-.22-1.07-.44l-1.16-.87-.99-.77-1.97-1.54c-3.41-2.67-6.87-5.31-10.23-7.98-4.34-3.41-8.76-6.8-12.36-11.09-1.08-1.38-.73-1.4,.74-.87,1.52,.48,4.11,1.53,6.68,3.35,1.86,1.26,3.6,2.7,5.4,4.04l5.38,4.08c1.81,1.34,3.55,2.78,5.33,4.17,1.69,1.33,3.38,2.67,5.08,4.01,.02,.04,.06,.06,.1,.07,.03,0,.03,.01,.07,.02l.33,.03c.49,.03,1.02,.05,1.55,.07,1.09,.01,2.17,.03,3.26,.04,6.74,0,13.79-.62,20.71-.96,7.62-.37,15.25-.69,22.88-.97,4.7-.15,9.4-.3,14.09-.45,7.12-.21,14.27-.28,21.34-.39,5.5-.08,10.9-.31,16.36-.24,1.2,.01,2.39,0,3.6,.06,2.26,.08,3.73,.41,4.75,.71,.51,.16,.91,.34,1.23,.55,.32,.23,.56,.49,.77,.75,.19,.24,.45,.47,.55,.67,.35,.6-1.55,1.24-4.77,1.27-9.58,.06-19.73,.12-29.94,.34-7.58,.16-15.22,.36-22.83,.67v-.1Z"/>
  <path class="cls-1" d="M276.1,162.69c.1-2.07,.19-4.14,.25-6.22,.02-.76-.04-1.51-.01-2.27,.12-2.67,.24-5.35,.35-8.03,.05-1.19,.05-2.38,.02-3.56,0-.76-.07-1.52-.03-2.28,.02-.38,.07-.76,.13-1.14,.05-.38,.13-.76,.3-1.13,.2-.47,.5-.39,.98,.02,.53,.41,1.17,1.16,1.28,2.02,.14,.77,.08,1.53,.11,2.3,.01,.77,.02,1.53,0,2.3,0,1.54-.11,3.08-.27,4.63-.2,1.86-.03,3.79-.05,5.69-.02,2.09-.07,4.19-.12,6.29l-.11,3.87c-.04,1.96-.16,3.92-.16,5.87-.01,1.51,.14,3,.19,4.51,.01,.33,.06,.66,.04,.99,0,.62-.16,1.02-.34,1.29-.24,.27-.5,.41-.85,.51-.16,.05-.31,.11-.45,.14-.24,.04-.45-.08-.67-.32-.22-.24-.48-.61-.56-1.06-.42-2.66-.3-5.41-.27-8.2,.06-2.07,.12-4.16,.18-6.24h.07Z"/>
  <path class="cls-1" d="M336.82,124.62c7.65-.04,15.3,0,22.95,.09,2.79,.04,5.58,.02,8.37,.09,4.92,.16,9.83,.36,14.74,.59l7.37,.38,3.68,.21,1.89,.12c.24,0,.47,.03,.69,.08,.2,.11,.42,.19,.61,.31,.19,.13,.36,.3,.54,.45l.36,.36c3.13,3.14,6.11,6.3,9.12,9.43,3.86,4,7.55,8.19,11.09,12.49,1.08,1.4,.66,1.41-.58,.56-1.25-.84-3.4-2.51-5.75-4.68l-3.09-2.92-1.55-1.45-1.5-1.5c-2-2-4-3.99-6.01-5.99l-3.01-2.95-.75-.71-.32-.29-.03-.04s-.03-.03-.04-.02c0,0-.02,0-.03,0,0,0,0,0-.02,0h-.13s-1.06-.05-1.06-.05c-2.83-.16-5.68-.33-8.52-.49-6.81-.42-13.92-.34-20.9-.38-7.67-.07-15.36-.14-23.04-.07-4.73,.03-9.46,.1-14.18,.22-7.16,.17-14.34,.45-21.43,.87-5.51,.35-10.9,.94-16.32,1.5-1.2,.12-2.36,.26-3.57,.36-4.47,.35-5.93,.13-6.96-.46-.24-.14-.54-.27-.68-.41-.48-.46,1.29-1.11,4.55-1.81,4.83-.95,9.84-1.55,14.92-2.08,5.09-.5,10.25-.96,15.43-1.19,7.7-.37,15.44-.56,23.16-.69v.09Z"/>
  <path class="cls-1" d="M422.94,335.33l-.22-43.73c-.07-5.32-.15-10.64-.22-15.95-.12-18.74-.21-37.48-.49-56.22-.11-8.31-.36-16.67-.59-24.91-.2-5.29-.4-10.6-.6-15.9-.19-5.3-.23-10.61-.25-15.88,.14-1.66,.24-2.39,.35-2.36,.12,.03,.28,.83,.74,2.19,.45,1.36,.95,3.33,1.48,5.73,.46,2.38,.85,5.19,1.12,8.25,.6,10.84,.94,21.66,1.21,32.51,.18,10.85,.25,21.72,.21,32.64-.04,13.06,.34,26.65,.48,40,.11,14.68,.22,29.38,.33,44.06,.06,9.04,.11,18.08,.17,27.12,.1,13.69,.14,27.44,.33,41.02,.15,10.56,.5,20.91,.75,31.35,.06,2.3,.12,4.55,.18,6.87,.12,8.59-.09,11.34-1.1,13.19-.22,.42-.43,.97-.64,1.22-.69,.82-1.42-2.67-1.67-8.96-.79-18.65-1.08-38.33-1.28-58.09-.12-14.67-.24-29.41-.37-44.12l.09-.02Z"/>
  <path class="cls-1" d="M96.52,391.18c5.42,3.31,11.2,6.3,16.77,9.88,2.03,1.31,4.13,2.58,6.01,4.26,1.65,1.48,3.25,3.12,4.48,5.21,.63,1.03,1.08,2.23,1.36,3.49,.06,.32,.09,.68,.12,.99l.04,.81,.07,1.59c.14,4.19,.19,8.35,.27,12.52,.06,3.7,.24,7.41,.34,11.07,.08,2.35,.19,4.71,.23,7.07,0,1.18-.04,2.36-.09,3.55l-.11,1.77c-.05,.59-.21,1.18-.28,1.77-.24,1.47-.64,1.27-1.29,.03-.3-.62-.85-1.49-1.17-2.55-.35-1.06-.66-2.29-.79-3.64-.15-2.39-.24-4.78-.35-7.18-.11-2.39-.22-4.79-.24-7.19-.09-4.8-.12-9.62-.11-14.44,0-1.44-.03-2.91-.12-4.32l-.03-.53-.04-.39c-.04-.26-.16-.53-.23-.8-.05-.27-.23-.54-.35-.8-.13-.27-.26-.54-.45-.79-1.37-2.12-3.64-3.91-5.92-5.57-5.07-3.71-10.86-6.74-16.52-10.01-3.49-2.02-7.01-4.06-10.31-6.59-1.25-.95-2.46-2.02-3.55-3.25-1.09-1.21-2.09-2.71-2.47-4.54-.18-.9-.2-1.87,0-2.77,.05-.47,.26-.87,.42-1.3,.09-.21,.15-.42,.27-.63l.38-.62c1.14-1.53,2.79-2.41,4.44-2.83,2.58-.64,5.12-.36,7.51,.1,2.41,.47,4.66,1.33,6.87,2.28,.94,.46,1.92,.83,2.84,1.35,.85,.48,1.55,.9,2.12,1.27,.57,.38,.97,.76,1.29,1.09,.64,.67,.87,1.25,.94,1.88,.04,.28,.13,.58,.11,.8-.02,.67-1.8,.52-4.22-.72-3.59-1.83-7.37-3.5-11.15-4.33-1.87-.39-3.76-.45-5.27-.03-.73,.22-1.36,.55-1.79,.93-.21,.19-.39,.4-.47,.58-.02,.04-.05,.08-.08,.13l-.06,.22c-.05,.15-.1,.29-.16,.43-.19,.79,0,1.48,.56,2.47,.55,.97,1.55,1.99,2.62,2.95,2.2,1.92,4.89,3.63,7.62,5.25l-.05,.1Z"/>
  <path class="cls-1" d="M129.68,367.79c3.37-3.63,6.88-7.23,10.94-10.4,2.05-1.56,4.25-3.03,6.84-4.08,1.31-.51,2.74-.89,4.29-.97,1.55-.12,3.25,.3,4.65,1.1l.39,.22,.19,.11,.23,.17c.3,.22,.61,.5,.87,.83,.54,.66,.87,1.53,.95,2.29,.14,1.54-.27,2.66-.66,3.65-.84,1.95-1.92,3.49-3.04,4.99-2.05,2.67-4.25,5.09-6.35,7.52-1.04,1.22-2.09,2.42-2.98,3.66-.22,.31-.43,.62-.62,.92-.1,.15-.19,.3-.27,.45l-.17,.31c-.13,.23-.26,.59-.02,.81,.11,.12,.12,.18,.36,.37,.23,.18,.43,.38,.71,.52,.26,.16,.51,.34,.82,.46,.29,.14,.58,.28,.92,.39,1.28,.48,2.73,.79,4.23,1.11,1.5,.32,3.07,.64,4.65,1.24,1.56,.59,3.21,1.53,4.33,3.03,.26,.34,.47,.73,.69,1.1,.15,.44,.38,.84,.43,1.32,.23,.95,0,1.94-.31,2.78-.76,1.63-1.97,2.67-3.12,3.6-2.37,1.82-4.92,3.09-7.44,4.33-3.25,1.56-6.52,3.02-9.78,4.45-1.63,.7-3.25,1.41-4.84,2.16-.79,.38-1.57,.76-2.34,1.17-.76,.4-1.55,.77-2.29,1.2-1.83,1.05-1.8,.87-.71-.84,.58-.82,1.49-1.98,2.83-3.01,1.32-1.06,2.96-2.13,4.82-3.07,3.28-1.7,6.66-3.06,9.88-4.62,1.61-.77,3.2-1.56,4.71-2.42,1.49-.85,2.93-1.79,4.01-2.81,.49-.52,.89-1.05,1.06-1.46,.13-.41,.11-.6-.03-.98-.03-.18-.25-.41-.37-.63l-.31-.32c-.1-.11-.18-.23-.32-.32-.25-.19-.47-.4-.78-.56-.15-.08-.28-.18-.44-.26l-.5-.22c-1.36-.59-3.06-.93-4.86-1.31-1.8-.39-3.75-.78-5.74-1.73-.3-.12-.59-.3-.89-.48-.29-.19-.59-.34-.86-.58-.28-.24-.56-.48-.85-.73-.31-.34-.62-.74-.94-1.11-.22-.33-.43-.67-.51-1.06-.09-.39-.09-.79-.05-1.19,.05-.4,.17-.79,.32-1.17,.13-.36,.36-.82,.5-1.04,.57-1,1.19-1.82,1.81-2.64,1.23-1.62,2.51-3.14,3.77-4.65,1.26-1.51,2.52-3.02,3.7-4.54,1.17-1.52,2.31-3.07,3.15-4.62,.52-.94,.91-2,.87-2.58-.03-.28-.06-.33-.18-.45-.05-.06-.17-.13-.4-.24-.2-.09-.39-.24-.6-.29-1.63-.65-3.76-.3-5.79,.64-2.05,.9-4.01,2.28-5.88,3.74-1.87,1.48-3.66,3.12-5.39,4.83-1.87,1.84-3.67,3.75-5.46,5.7l-2.7,2.94c-.46,.49-.92,.98-1.42,1.48-.7,.68-1.44,1.34-2.33,1.6-.55,0-1.09-.08-1.59-.3-.51-.22-.96-.57-1.41-.92-.62-.53-.97-.9-1.4-1.38-.4-.45-.8-.91-1.16-1.38-.75-.93-1.44-1.87-2.12-2.82-1.35-1.9-2.65-3.81-3.95-5.7-1.31-1.89-2.62-3.76-4-5.55-1.38-1.76-2.85-3.53-4.48-4.74-.24-.14-.5-.36-.72-.43-.14-.08-.34-.14-.52-.18-.39-.07-.77,.09-1.02,.37-.24,.21-.59,.79-.84,1.29-.22,.55-.43,1.12-.54,1.74-.24,1.23-.28,2.55-.2,3.87,.18,2.65,.78,5.32,1.59,7.92,.45,1.43,.99,2.79,1.55,4.19,1.04,2.59,1.88,4.2,2.32,5.41,.4,1.23,.54,2,.57,2.74,0,.35,.12,.73,.11,.98,0,.42-.57,.32-1.53-.39-.93-.71-2.23-2-3.24-3.97-2.05-3.75-3.58-7.79-4.55-12.15-.48-2.18-.81-4.46-.72-6.9,.04-1.22,.2-2.49,.61-3.81,.2-.66,.47-1.32,.85-1.97,.16-.33,.4-.64,.63-.96,.22-.35,.67-.75,1.01-1.13l.33-.25c.14-.03,.24-.13,.36-.2,.24-.14,.46-.3,.71-.42,.52-.17,1.06-.33,1.62-.31,.56-.04,1.1,.11,1.65,.24,.27,.06,.54,.19,.83,.33l.36,.17c.1,.05,.21,.1,.28,.15,1.39,.84,2.34,1.76,3.23,2.68,1.76,1.85,3.21,3.76,4.62,5.67,2.02,2.76,3.9,5.56,5.82,8.26,.96,1.34,1.92,2.67,2.91,3.86,.25,.29,.49,.59,.74,.85,.23,.27,.51,.54,.69,.71,.05,.05,.04,.05,.08,.06,.01,0,.02,0,.04-.01l.03-.02s-.03,.03,.06-.06l.19-.2c.51-.52,1.04-1.09,1.57-1.66l3.2-3.53,.08,.06Z"/>
  <g>
    <path class="cls-1" d="M188.27,242.05s2.24,41.51,.19,42.62c-2.05,1.1-12.81,3.68-13.9-1.44-1.62-7.58-3.02-39.51-.78-40.24s14.49-.93,14.49-.93Z"/>
    <path class="cls-1" d="M178.59,240.54c2.46-.27,4.89-.44,7.37-.5,1.24-.03,2.48-.03,3.77,.05,.32,.02,.65,.05,.99,.08l.51,.06c.23,.03,.53,.08,.78,.14,1.03,.21,2.05,.67,2.48,1.6,.15,.42,.24,.84,.31,1.25l.12,.62c.04,.21,.08,.42,.08,.52,.04,.53,.09,1.07,.11,1.58,.11,2.18,.24,4.3,.24,6.43-.06,7.51-.35,14.97-.6,22.44-.11,2.76-.1,5.47-.24,8.25,.06,.89-.6,1.69-1.28,2.11-1.13,.7-2.22,.94-3.32,1.16-1.09,.21-2.18,.32-3.26,.38-2.16,.12-4.31,.02-6.43-.25-1.32-.18-1.1-.56,.03-.92,1.13-.36,3.16-.81,5.5-1.06,1.41-.15,2.81-.36,4.08-.71,.63-.17,1.24-.4,1.67-.65,.1-.06,.2-.13,.26-.18,.04-.02,.01,0,.02-.01h0s0,0,0,0h0s0,0,0,0h0s0,0,0,0h0s-.07,0,.07,0c-.13,0-.04,0-.07,0h0s0,0,0,0v-.07s0-.13,0-.13v-.27s0-.53,0-.53v-1.06s.05-2.13,.05-2.13l.08-4.26c.06-2.84,.14-5.7,.24-8.55,.19-5.18-.05-10.59-.22-15.86-.04-1.14-.08-2.29-.15-3.42-.03-.57-.08-1.12-.12-1.67l-.03-.39-.02-.19c-.02-.13-.03-.27-.06-.36,0-.19-.2-.26-.35-.3-.19-.05-.22-.07-.71-.12-.8-.08-1.65-.1-2.5-.1-1.71,0-3.45,.1-5.18,.23-1.58,.13-3.17,.29-4.73,.51l-1.16,.18-.88,.16c-.2,.04-.4,.08-.59,.16-.05,.02-.1,.04-.13,.08-.02,.05-.01,.1-.02,.15l-.02,.3c0,.1,0,.19-.01,.28l-.02,.4c-.22,5.43-.39,10.89-.25,16.28,.1,4.19,.51,8.29,.88,12.42,.08,.91,.18,1.8,.24,2.72,.11,1.7,.09,2.83-.11,3.63-.18,.8-.48,1.27-.95,1.67-.21,.18-.42,.41-.63,.52-.69,.37-1.43-.99-1.93-3.48-1.2-7.4-1.39-15.31-1.33-23.23,.03-1.96,.07-3.92,.14-5.88l.12-2.94,.19-3.77,.36-1.23c.19-.33,.51-.66,.86-.88,.72-.47,1.71-.67,2.64-.86,1.16-.22,2.08-.34,3.12-.47l.02,.09Z"/>
  </g>
  <g>
    <path class="cls-1" d="M351.65,207.26s5.06,45.79,2.48,47.59c-2.58,1.8-19.12,7.07-18.94-4.24,.18-11.31-2.49-40.75,.27-41.47s16.19-1.89,16.19-1.89Z"/>
    <path class="cls-1" d="M343.71,205.49c2.66-.18,5.32-.29,8.01-.32,1.35,0,2.69,0,4.08,.09l1.06,.08,.54,.06,.29,.04c.16,.02,.3,.04,.45,.07,1.15,.19,2.32,.61,2.79,1.62l.32,1.13c.06,.18,.06,.4,.09,.6l.06,.53c.06,.5,.07,.94,.1,1.42,.07,.94,.07,1.84,.11,2.76,.06,2.6,.2,5.19,.17,7.77-.09,9.11-.39,18.18-.67,27.27l-.09,3.02-.04,1.51-.02,.86c-.01,.38-.05,.75-.25,1.07-.18,.33-.48,.57-.79,.79-.32,.19-.7,.39-.94,.47-.53,.21-1.05,.36-1.56,.49-1.03,.25-2.05,.4-3.06,.54-5.19,.64-10.38,.79-15.55,.29-1.62-.19-1.35-.57,.02-.92,1.37-.35,3.83-.84,6.74-1.05,2.58-.18,5.16-.44,7.67-.84,1.25-.2,2.49-.44,3.63-.76,.28-.08,.56-.15,.8-.24,.26-.08,.51-.21,.45-.17,0,0,.02,0,.03-.01,0,0,0,0,0-.01h0s0,0,0-.12c.1-5.23,.21-10.49,.38-15.76,.21-6.31-.03-12.88-.17-19.32-.03-1.69-.08-3.37-.14-5.05-.04-.83-.07-1.68-.13-2.49-.03-.4-.04-.84-.1-1.21-.02-.19-.02-.32-.07-.49,0-.21-.23-.26-.39-.31-.09-.02-.18-.04-.27-.06l-.23-.03-.32-.03c-.86-.08-1.76-.11-2.67-.13-1.81-.02-3.65,.03-5.49,.12-2.16,.1-4.33,.26-6.48,.46-1.08,.1-2.15,.22-3.21,.36l-1.36,.2c-.27,.05-.56,.08-.82,.21-.06,.19-.03,.42-.06,.63l-.04,.91-.09,2.48-.13,4.96c-.06,3.31-.08,6.61-.02,9.89,.1,5.1,.48,10.1,.85,15.12,.09,1.11,.18,2.19,.24,3.31,.11,2.07,.1,3.44-.09,4.41-.17,.97-.47,1.54-.93,2.01-.21,.21-.41,.49-.62,.62-.69,.44-1.45-1.22-1.96-4.26-.63-4.51-.96-9.17-1.13-13.89-.18-4.73-.22-9.52-.16-14.33,.04-3.57,.15-7.15,.31-10.73l.05-1.07,.03-.66v-.33c.04-.1,.07-.18,.1-.27l.38-1.07c.16-.35,.47-.59,.78-.8,.65-.41,1.54-.6,2.39-.76l.95-.16,.7-.1c1.84-.24,3.64-.41,5.45-.55l.02,.09Z"/>
  </g>
  <g>
    <path class="cls-1" d="M397.11,206.99s3.06,45.79,.48,47.59-19.12,7.07-18.94-4.24-2.49-40.75,.27-41.47,18.19-1.89,18.19-1.89Z"/>
    <path class="cls-1" d="M386.67,204.82c2.66-.18,5.32-.29,8.01-.32,1.35,0,2.69,0,4.08,.09l1.06,.08,.54,.06,.29,.04c.16,.02,.3,.04,.45,.07,1.15,.19,2.32,.61,2.79,1.62l.32,1.13c.06,.18,.06,.4,.09,.6l.06,.53c.06,.5,.07,.95,.1,1.42,.07,.94,.07,1.84,.11,2.76,.06,2.6,.2,5.19,.17,7.77-.09,9.11-.39,18.18-.67,27.27-.06,1.85-.12,3.7-.17,5.53,0,.42-.11,.83-.37,1.16-.26,.32-.6,.57-.98,.76-.4,.22-.66,.3-.96,.41-.29,.11-.58,.19-.87,.27-1.15,.3-2.27,.47-3.39,.63-5.19,.64-10.38,.79-15.55,.29-1.62-.19-1.35-.57,.02-.92,1.37-.35,3.83-.84,6.74-1.05,2.51-.18,5.03-.43,7.48-.81,1.22-.2,2.44-.41,3.55-.72,.55-.13,1.12-.31,1.48-.47,.06,0,.02-.01,.1-.03-.07-.02-.02-.01-.03-.02v-.21s.01-.5,.01-.5l.02-1.01,.04-2.01,.09-4.04c.07-2.69,.15-5.39,.22-8.1,.21-6.31-.03-12.88-.17-19.32-.03-1.69-.08-3.37-.14-5.05-.04-.83-.07-1.68-.13-2.49-.03-.4-.04-.84-.1-1.21-.02-.19-.02-.32-.07-.49,0-.21-.23-.26-.39-.31-.09-.02-.18-.04-.27-.06l-.23-.03-.32-.03c-.86-.08-1.76-.11-2.67-.13-1.81-.02-3.65,.03-5.49,.12-2.16,.1-4.33,.26-6.48,.46-1.08,.1-2.15,.22-3.21,.36l-1.36,.2c-.27,.05-.56,.08-.82,.21-.06,.19-.03,.42-.06,.63l-.04,.91-.09,2.48-.13,4.96c-.06,3.31-.08,6.61-.02,9.89,.1,5.1,.48,10.1,.85,15.12,.09,1.11,.18,2.19,.24,3.31,.11,2.07,.1,3.44-.09,4.41-.17,.97-.47,1.54-.93,2.01-.21,.21-.42,.49-.62,.62-.69,.44-1.45-1.22-1.96-4.26-.63-4.51-.96-9.17-1.13-13.89-.18-4.73-.22-9.52-.16-14.33,.04-3.57,.15-7.15,.31-10.73l.05-1.07,.03-.66v-.33c.04-.1,.07-.18,.1-.27l.38-1.07c.16-.35,.47-.59,.78-.8,.65-.41,1.54-.6,2.39-.76l.95-.16,.7-.1c1.84-.24,3.64-.41,5.45-.55l.02,.09Z"/>
  </g>
  <g>
    <path class="cls-1" d="M353.5,291.25s3.06,45.79,.48,47.59-20.12,7.07-19.94-4.24-2.49-40.75,.27-41.47,19.19-1.89,19.19-1.89Z"/>
    <path class="cls-1" d="M343.71,289.75c2.66-.18,5.32-.29,8.01-.32,1.35,0,2.69,0,4.08,.09l1.06,.08,.54,.06,.29,.04c.16,.02,.3,.04,.45,.07,1.15,.19,2.32,.61,2.79,1.62l.32,1.13c.06,.18,.06,.4,.09,.6l.06,.53c.06,.5,.07,.95,.1,1.42,.07,.94,.07,1.84,.11,2.76,.06,2.6,.2,5.19,.17,7.77-.09,9.11-.39,18.18-.67,27.27-.06,1.85-.12,3.7-.17,5.53,.01,.42-.12,.83-.37,1.16-.26,.32-.6,.57-.98,.76-.4,.22-.66,.3-.96,.41-.29,.11-.58,.19-.87,.27-1.15,.3-2.27,.47-3.39,.63-5.19,.64-10.38,.79-15.55,.29-1.62-.19-1.35-.57,.02-.92,1.37-.35,3.83-.84,6.74-1.05,2.51-.18,5.03-.43,7.48-.81,1.22-.2,2.44-.41,3.56-.72,.55-.13,1.12-.31,1.48-.47,.06,0,.02-.01,.1-.03-.07-.02-.02-.01-.03-.02v-.21s.01-.5,.01-.5l.02-1.01,.04-2.01,.09-4.04c.07-2.69,.15-5.39,.22-8.1,.21-6.31-.03-12.88-.17-19.32-.03-1.69-.08-3.37-.14-5.05-.04-.83-.07-1.68-.13-2.49-.03-.4-.04-.84-.1-1.21-.02-.19-.02-.32-.07-.49,0-.21-.23-.26-.39-.31-.09-.02-.18-.04-.27-.06l-.23-.03-.32-.03c-.86-.08-1.76-.11-2.67-.13-1.81-.02-3.65,.03-5.49,.12-2.16,.1-4.33,.26-6.48,.46-1.08,.1-2.15,.22-3.21,.36l-1.36,.2c-.27,.05-.56,.08-.82,.21-.06,.15-.03,.34-.06,.5l-.16,4.27-.11,4.71c-.05,3.14-.06,6.27,0,9.39,.1,5.1,.48,10.1,.85,15.12,.09,1.11,.18,2.19,.24,3.31,.11,2.07,.1,3.44-.09,4.41-.17,.97-.47,1.54-.93,2.01-.21,.21-.41,.49-.62,.62-.69,.44-1.45-1.22-1.96-4.26-.63-4.51-.96-9.17-1.13-13.89-.18-4.73-.22-9.52-.16-14.33,.02-1.98,.06-3.96,.13-5.95l.1-2.98,.17-3.87,.33-.95,.16-.47c.09-.14,.22-.27,.33-.38,.47-.45,1.17-.72,1.93-.89,.37-.09,.77-.16,1.13-.22l.76-.12,1.23-.16c1.63-.2,3.23-.35,4.84-.47l.02,.09Z"/>
  </g>
  <g>
    <path class="cls-1" d="M357.18,448.56s-3.79-56.21-2.66-57.34,23.26-3.29,25.14-2.11c2.8,1.76,2.09,57.09,1.12,59.44s-23.6,0-23.6,0Z"/>
    <path class="cls-1" d="M353.14,390.44l.19-.55,.09-.27s0-.11,.08-.11c.01-.05,.04-.09,.07-.13,.25-.3,.56-.51,.93-.69,.73-.33,1.7-.49,2.48-.63,.99-.15,1.94-.26,2.89-.36,1.9-.2,3.78-.35,5.67-.47,3.77-.25,7.54-.41,11.33-.43,1.39,0,2.77-.02,4.19,.03,.71,.02,1.42,.06,2.15,.12,.37,.04,.73,.08,1.12,.14,.45,.07,1.11,.22,1.63,.43,.47,.19,.89,.47,1.19,.87,.27,.4,.4,.91,.52,1.39,.18,1.11,.2,1.59,.25,2.24,.08,1.24,.12,2.45,.16,3.67,.06,2.42,.08,4.84,.09,7.25,.01,4.82-.02,9.63-.07,14.44-.05,4.27,.02,8.56-.04,12.8-.04,5.44-.08,10.91-.47,16.34-.13,1.69-.51,1.46-.92,.02-.4-1.44-.9-4.08-1-7.21l-.25-8.32-.12-4.16-.02-4.16c-.03-5.55-.03-11.12,0-16.7,.01-3.34-.08-6.75-.29-10.15l-.18-2.54-.12-1.25-.13-1.01c-.03-.19-.04-.3-.12-.42-.11-.09-.25-.11-.38-.15l-.13-.02-.26-.04-.58-.07c-.39-.04-.8-.07-1.21-.09-3.63-.18-7.39-.05-11.12,.14-3.73,.2-7.47,.48-11.16,.92l-1.25,.17-1.01,.16c-.2,.03-.4,.07-.59,.13-.11,.02-.19,.09-.17,.21,0,.1,0,.2-.02,.3l-.07,1.71-.07,2.18-.1,4.36c-.1,7-.11,14.04,.14,21,.19,5.41,.66,10.7,1.09,16.03,.09,1.17,.21,2.32,.27,3.51,.13,2.2,.13,3.65-.06,4.68-.17,1.03-.46,1.63-.92,2.13-.21,.23-.41,.52-.62,.66-.69,.46-1.45-1.3-1.99-4.51-.66-4.77-1.04-9.69-1.29-14.68-.26-4.99-.39-10.07-.44-15.15-.04-3.73-.02-7.48,.04-11.22l.13-5.63,.1-2.82,.16-3.65c.02-.15,.09-.29,.13-.43l.09,.03Z"/>
  </g>
  <g>
    <path class="cls-1" d="M398.03,291.25s3.06,45.79,.48,47.59-20.12,7.07-19.94-4.24-2.49-40.75,.27-41.47,19.19-1.89,19.19-1.89Z"/>
    <path class="cls-1" d="M386.67,289.08c2.66-.18,5.32-.29,8.01-.32,1.35,0,2.69,0,4.08,.09l1.06,.08,.54,.06,.29,.04c.16,.02,.3,.04,.45,.07,1.15,.19,2.32,.61,2.79,1.62l.32,1.13c.06,.18,.06,.4,.09,.6l.06,.53c.06,.5,.07,.95,.1,1.42,.07,.94,.07,1.84,.11,2.76,.06,2.6,.2,5.19,.17,7.77-.09,9.11-.39,18.18-.67,27.27-.06,1.85-.12,3.7-.17,5.53,0,.42-.11,.83-.37,1.16-.26,.32-.6,.57-.98,.76-.4,.22-.66,.3-.96,.41-.29,.11-.58,.19-.87,.27-1.15,.3-2.27,.47-3.39,.63-5.19,.64-10.38,.79-15.55,.29-1.62-.19-1.35-.57,.02-.92,1.37-.35,3.83-.84,6.74-1.05,2.51-.18,5.03-.43,7.48-.81,1.22-.2,2.44-.41,3.55-.72,.55-.13,1.12-.31,1.48-.47,.06,0,.02-.01,.1-.03-.07-.02-.02-.01-.03-.02v-.21s.01-.5,.01-.5l.02-1.01,.04-2.01,.09-4.04c.07-2.69,.15-5.39,.22-8.1,.21-6.31-.03-12.88-.17-19.32-.03-1.69-.08-3.37-.14-5.05-.04-.83-.07-1.68-.13-2.49-.03-.4-.04-.84-.1-1.21-.02-.19-.02-.32-.07-.49,0-.21-.23-.26-.39-.31-.09-.02-.18-.04-.27-.06l-.23-.03-.32-.03c-.86-.08-1.76-.11-2.67-.13-1.81-.02-3.65,.03-5.49,.12-2.16,.1-4.33,.26-6.48,.46-1.08,.1-2.15,.22-3.21,.36l-1.36,.2c-.27,.05-.56,.08-.82,.21-.06,.19-.03,.42-.06,.63l-.04,.91-.09,2.48-.13,4.96c-.06,3.31-.08,6.61-.02,9.89,.1,5.1,.48,10.1,.85,15.12,.09,1.11,.18,2.19,.24,3.31,.11,2.07,.1,3.44-.09,4.41-.17,.97-.47,1.54-.93,2.01-.21,.21-.42,.49-.62,.62-.69,.44-1.45-1.22-1.96-4.26-.63-4.51-.96-9.17-1.13-13.89-.18-4.73-.22-9.52-.16-14.33,.04-3.57,.15-7.15,.31-10.73l.05-1.07,.03-.66v-.33c.04-.1,.07-.18,.1-.27l.38-1.07c.16-.35,.47-.59,.78-.8,.65-.41,1.54-.6,2.39-.76l.95-.16,.7-.1c1.84-.24,3.64-.41,5.45-.55l.02,.09Z"/>
  </g>
  <g>
    <path class="cls-1" d="M233.54,241.46s2.24,41.51,.19,42.62c-2.05,1.1-10.81,3.68-11.9-1.44-1.62-7.58-3.02-39.51-.78-40.24s12.49-.93,12.49-.93Z"/>
    <path class="cls-1" d="M225.58,239.79c2.98-.32,5.92-.51,8.94-.51,.76,0,1.52,.02,2.3,.07,.39,.03,.79,.06,1.21,.11,.15,.02,.54,.07,.85,.14,.32,.06,.63,.15,.93,.25,.58,.22,1.14,.53,1.47,1.05,.13,.27,.25,.55,.36,.84l.18,.89,.16,.86,.04,.57c.02,.38,.06,.77,.08,1.14,.11,2.18,.24,4.3,.24,6.43-.06,7.51-.35,14.97-.6,22.44-.11,2.76-.1,5.47-.24,8.25,.06,.89-.6,1.69-1.28,2.11-1.13,.7-2.22,.94-3.32,1.16-1.09,.21-2.18,.32-3.26,.38-2.16,.12-4.31,.02-6.43-.25-1.32-.18-1.1-.56,.03-.92,1.13-.36,3.16-.81,5.5-1.06,1.41-.15,2.81-.36,4.08-.71,.63-.17,1.24-.4,1.67-.65,.1-.06,.2-.13,.26-.18,.04-.02,.01,0,.02-.01h0s0,0,0,0h0s0,0,0,0h0s0,0,0,0h0s0,0,0,0c.03,0-.07,0,.07,0-.02,0-.05,0-.07-.01v-.07s0-.13,0-.13v-.27s0-.53,0-.53v-1.06s.05-2.13,.05-2.13l.08-4.26c.06-2.84,.14-5.7,.24-8.55,.19-5.18-.05-10.59-.22-15.86-.05-1.45-.1-2.89-.2-4.31l-.09-1.05-.06-.54c-.04-.13-.04-.3-.18-.36-.12-.07-.26-.1-.39-.13-.06-.02-.44-.07-.77-.09-.33-.03-.68-.05-1.02-.06-.69-.02-1.4-.02-2.11-.01-1.42,.03-2.86,.11-4.3,.23-1.58,.13-3.17,.29-4.73,.51l-1.16,.18-.88,.16c-.2,.04-.4,.08-.59,.16-.05,.02-.1,.04-.13,.08-.02,.05-.01,.1-.02,.15,0,.1,0,.21-.02,.3l-.03,.69c-.22,5.43-.39,10.89-.25,16.28,.1,4.19,.51,8.29,.88,12.42,.08,.91,.18,1.8,.24,2.72,.11,1.7,.09,2.83-.11,3.63-.18,.8-.48,1.27-.95,1.67-.21,.18-.42,.41-.63,.52-.7,.37-1.43-.99-1.93-3.48-1.2-7.4-1.39-15.31-1.33-23.23,.03-1.96,.07-3.92,.14-5.88l.12-2.94,.19-3.77c.1-.42,.24-.82,.36-1.23,.19-.33,.51-.66,.86-.88,.72-.47,1.71-.67,2.64-.86,1.16-.22,2.08-.34,3.12-.47l.02,.09Z"/>
  </g>
  <g>
    <path class="cls-1" d="M280.39,240.46s2.24,41.51,.19,42.62-12.81,3.68-13.9-1.44c-1.62-7.58-3.02-39.51-.78-40.24s14.49-.93,14.49-.93Z"/>
    <path class="cls-1" d="M270.87,238.93c3-.31,5.96-.5,9.01-.48,.77,0,1.54,.03,2.34,.1l.61,.06,.31,.04,.46,.07c.64,.12,1.28,.28,1.81,.6,.27,.15,.51,.34,.71,.59,.18,.25,.28,.54,.4,.82,.2,.58,.25,1.18,.38,1.77,.04,.17,.04,.26,.05,.35l.02,.29,.04,.57c.03,.39,.05,.76,.06,1.13,.1,2.18,.22,4.32,.22,6.47-.07,7.56-.36,15.08-.61,22.6-.04,1.67-.09,3.34-.13,5.01l-.05,2.5-.02,.62v.33c0,.16-.04,.31-.06,.47-.07,.64-.52,1.16-1.03,1.52-.16,.12-.35,.23-.52,.3-.15,.06-.3,.14-.45,.19-.29,.11-.58,.2-.87,.26-.57,.14-1.13,.22-1.69,.29-1.11,.12-2.21,.15-3.29,.13-2.17-.04-4.32-.26-6.43-.61-1.32-.23-1.09-.6,.06-.92,1.15-.32,3.24-.67,5.61-.76,1.05-.04,2.1-.11,3.1-.24,.99-.13,2.01-.34,2.65-.65,.2-.11,.13-.07,.15-.07h0s0,0,0,0c0,0,0,0,0-.02v-.2c0-.27-.02-.54-.01-.81l.05-3.25c.07-4.34,.16-8.69,.32-13.06,.19-5.22-.05-10.67-.21-15.98-.04-1.46-.1-2.91-.18-4.35l-.08-1.06-.04-.51-.03-.25c-.01-.18-.05-.32-.09-.45-.08-.12-.23-.16-.36-.2-.07-.02-.14-.03-.21-.05l-.12-.02-.23-.03c-.33-.04-.67-.06-1.01-.08-.69-.03-1.4-.04-2.12-.03-1.43,.02-2.88,.1-4.32,.2-1.64,.13-3.29,.29-4.91,.52l-1.21,.18-.96,.17c-.21,.04-.42,.08-.62,.16-.05,.02-.1,.04-.14,.08-.04,.04-.02,.1-.03,.15,0,.1,0,.21-.02,.31,0,.15-.02,.29-.02,.43-.23,5.44-.4,10.96-.26,16.38,.1,4.22,.51,8.35,.88,12.51,.08,.92,.18,1.81,.24,2.74,.11,1.71,.09,2.85-.11,3.66-.18,.81-.48,1.28-.95,1.68-.21,.18-.42,.41-.63,.52-.69,.37-1.43-1-1.94-3.51-1.2-7.45-1.4-15.42-1.33-23.4,.03-1.92,.07-3.85,.14-5.78l.12-2.89,.18-3.72c.11-.44,.24-.88,.39-1.29,.23-.36,.56-.67,.95-.9,.39-.24,.87-.39,1.35-.52,.24-.07,.49-.12,.74-.18l.66-.13c1.1-.2,2.16-.34,3.22-.47l.02,.09Z"/>
  </g>
  <g>
    <path class="cls-1" d="M188.56,311.2s2.24,41.51,.19,42.62c-2.05,1.1-10.81,3.68-11.9-1.44-1.62-7.58-3.02-39.51-.78-40.24s12.49-.93,12.49-.93Z"/>
    <path class="cls-1" d="M180.8,309.67c3-.31,5.96-.5,9.01-.47,.77,0,1.54,.04,2.34,.1l.61,.06,.32,.04,.47,.07c.64,.12,1.28,.28,1.81,.6,.26,.16,.51,.35,.71,.59,.18,.25,.27,.54,.4,.82,.19,.58,.25,1.18,.38,1.77,.04,.17,.04,.25,.04,.35l.02,.29,.04,.57c.03,.39,.05,.76,.06,1.13,.1,2.18,.22,4.32,.22,6.47-.07,7.56-.36,15.08-.61,22.61l-.12,4.27-.04,2.13c-.03,.73,.02,1.37-.09,2.17,.07,.78-.42,1.47-1.03,1.89-.17,.11-.35,.24-.52,.3-.15,.07-.3,.14-.45,.19-.3,.11-.59,.19-.87,.26-.57,.14-1.14,.22-1.69,.28-1.11,.12-2.21,.14-3.29,.12-2.17-.05-4.31-.27-6.43-.61-1.32-.22-1.09-.59,.06-.92,1.15-.32,3.24-.67,5.62-.76,1.4-.05,2.79-.14,4.07-.38,.63-.12,1.25-.28,1.66-.48,.11-.06,.19-.1,.16-.09h0s0,0,0,0c0,0,0,0,0,0h0s0,0,0,0h0s0,0,0,0h0s0,0,0,0h.07c-.15,0-.04,0-.07,0h0s0,0,0,0c0,0,0-.02,0-.04v-.14s0-.27,0-.27c0-.18-.01-.36,0-.54v-1.09s.05-2.17,.05-2.17l.08-4.35c.06-2.91,.14-5.82,.24-8.74,.19-5.22-.05-10.67-.21-15.98-.04-1.46-.1-2.92-.18-4.35l-.08-1.06-.04-.51-.03-.25c-.01-.18-.05-.32-.08-.46-.08-.12-.22-.16-.36-.2-.07-.02-.14-.03-.21-.05-.07-.01-.15-.03-.34-.05-.33-.04-.67-.06-1.01-.08-.69-.03-1.4-.04-2.12-.03-1.43,.02-2.88,.09-4.32,.2-1.64,.13-3.29,.29-4.91,.52l-1.21,.18-.96,.17c-.21,.04-.42,.08-.62,.16-.05,.02-.1,.04-.14,.08-.04,.04-.02,.1-.03,.15,0,.1,0,.21-.02,.31l-.02,.43c-.23,5.44-.4,10.96-.26,16.38,.1,4.22,.51,8.35,.88,12.51,.08,.92,.18,1.81,.24,2.74,.11,1.71,.09,2.85-.11,3.66-.18,.81-.48,1.28-.95,1.68-.21,.18-.42,.41-.63,.52-.69,.37-1.43-1-1.94-3.51-1.2-7.46-1.4-15.42-1.33-23.4,.03-1.92,.07-3.85,.14-5.78l.12-2.89,.18-3.72c.11-.44,.24-.88,.39-1.29,.23-.37,.56-.67,.95-.9,.39-.24,.87-.39,1.35-.52,.24-.07,.49-.12,.74-.18l.66-.13c1.1-.2,2.16-.34,3.22-.47l.02,.09Z"/>
  </g>
  <g>
    <path class="cls-1" d="M241.6,309.67s2.05,42.04,0,43.14-16.81,3.79-17.9-1.34c-1.62-7.58-3.02-39.51-.78-40.24s18.68-1.56,18.68-1.56Z"/>
    <path class="cls-1" d="M227.46,308.97c2.46-.27,4.9-.44,7.37-.5,1.24-.03,2.48-.03,3.77,.05,.32,.02,.65,.05,.99,.08l.51,.06c.23,.03,.53,.08,.78,.14,1.03,.21,2.06,.67,2.48,1.6,.15,.42,.23,.83,.31,1.25l.12,.62c.04,.21,.08,.42,.08,.53,.04,.53,.09,1.07,.11,1.58,.12,2.18,.24,4.3,.24,6.43-.06,7.51-.35,14.97-.6,22.44-.04,1.66-.09,3.32-.13,4.98l-.05,2.48-.02,.62c0,.21-.04,.6-.13,.88-.2,.59-.68,1.09-1.18,1.41-1.14,.7-2.24,.93-3.33,1.14-1.09,.2-2.18,.3-3.26,.36-2.16,.11-4.3,.01-6.42-.22-1.32-.16-1.11-.54,.02-.92,1.13-.38,3.16-.84,5.51-1.09,1.04-.11,2.06-.25,3.05-.45,.97-.2,1.95-.47,2.63-.83,.16-.07,.33-.21,.35-.23h0s0,.02,0-.04c0-.27-.01-.54,0-.81l.05-3.23c.07-4.31,.17-8.62,.32-12.96,.19-5.18-.05-10.59-.22-15.86-.04-1.14-.08-2.29-.15-3.42-.02-.57-.08-1.12-.12-1.67l-.03-.39-.02-.19c-.02-.13-.03-.27-.06-.36,0-.19-.2-.26-.35-.3-.19-.05-.22-.07-.71-.12-.8-.08-1.65-.1-2.5-.1-1.71,0-3.45,.1-5.18,.23-1.58,.13-3.17,.29-4.73,.51l-1.16,.18-.88,.16c-.2,.04-.4,.08-.59,.16-.05,.02-.1,.04-.13,.08-.02,.05-.01,.1-.02,.15,0,.1,0,.2-.02,.3,0,.1,0,.19-.01,.28l-.02,.41c-.22,5.43-.39,10.88-.25,16.27,.1,4.19,.51,8.29,.88,12.42,.08,.91,.18,1.8,.24,2.72,.11,1.7,.09,2.83-.11,3.63-.18,.8-.48,1.27-.95,1.67-.21,.18-.42,.41-.63,.52-.7,.37-1.43-.99-1.93-3.48-1.2-7.4-1.39-15.31-1.33-23.23,.03-1.96,.07-3.92,.14-5.88l.12-2.94,.19-3.77c.1-.42,.24-.82,.36-1.23,.19-.33,.51-.66,.86-.88,.72-.47,1.71-.67,2.64-.86,1.16-.22,2.08-.34,3.12-.47l.02,.09Z"/>
  </g>
  <g>
    <path class="cls-1" d="M287.05,309.67s2.05,42.04,0,43.14c-2.05,1.1-16.81,3.79-17.9-1.34-1.62-7.58-3.02-39.51-.78-40.24s18.68-1.56,18.68-1.56Z"/>
    <path class="cls-1" d="M272.74,308.11c3-.31,5.96-.5,9.01-.48,.77,0,1.54,.03,2.34,.1l.61,.06,.31,.04,.46,.07c.64,.12,1.28,.28,1.81,.59,.27,.15,.51,.34,.71,.58,.18,.24,.28,.54,.4,.82,.2,.58,.25,1.18,.38,1.77,.04,.17,.04,.26,.05,.35l.02,.29,.04,.57c.03,.39,.05,.76,.06,1.13,.1,2.18,.22,4.32,.22,6.47-.07,7.56-.36,15.08-.61,22.6l-.12,4.27-.04,2.13c-.03,.73,.02,1.37-.09,2.18,.07,.78-.43,1.46-1.04,1.88-.14,.11-.4,.23-.52,.3-.15,.06-.3,.14-.44,.19-.29,.11-.58,.2-.87,.26-.57,.14-1.13,.22-1.69,.29-1.11,.12-2.21,.15-3.29,.14-2.17-.04-4.32-.26-6.44-.61-1.32-.23-1.09-.6,.06-.92,1.15-.32,3.23-.67,5.61-.76,1.39-.05,2.79-.16,4.06-.4,.63-.12,1.24-.29,1.67-.49,.08-.03,.25-.15,.17-.08h0s0,0,0,0c0,0,0,0,0,0h0s0,0,0,0h0s0,0,0,0h0s0,0,0,0h.07c-.09,.03-.08-.08-.08-.17v-.27c0-.18-.02-.36,0-.54v-1.09s.05-2.17,.05-2.17l.08-4.35c.06-2.91,.14-5.82,.24-8.74,.19-5.22-.05-10.67-.21-15.98-.04-1.46-.1-2.91-.18-4.35l-.08-1.06-.04-.5-.03-.25c-.01-.18-.05-.32-.09-.45-.08-.12-.23-.16-.36-.2l-.21-.05-.12-.02-.23-.03c-.33-.04-.67-.06-1.01-.08-.69-.03-1.4-.04-2.12-.03-1.43,.02-2.88,.1-4.32,.2-1.64,.13-3.28,.29-4.91,.52l-1.21,.18-.96,.17c-.21,.04-.42,.08-.62,.16-.05,.02-.1,.04-.14,.08-.04,.04-.02,.1-.03,.15,0,.1,0,.21-.02,.31,0,.15-.02,.29-.02,.43-.23,5.44-.4,10.96-.26,16.38,.1,4.22,.51,8.35,.88,12.51,.08,.92,.18,1.81,.24,2.74,.11,1.71,.09,2.85-.11,3.66-.18,.81-.48,1.28-.95,1.68-.21,.18-.42,.41-.63,.52-.69,.37-1.43-1-1.94-3.51-1.2-7.45-1.4-15.42-1.33-23.4,.03-1.92,.07-3.85,.14-5.78l.12-2.89,.18-3.72c.11-.44,.24-.88,.39-1.29,.23-.36,.56-.67,.95-.9,.39-.24,.87-.39,1.35-.52,.24-.07,.49-.12,.74-.18l.66-.13c1.1-.2,2.16-.34,3.22-.47l.02,.09Z"/>
  </g>
  <g>
    <path class="cls-1" d="M191.44,377.92s2.24,41.51,.19,42.62c-2.05,1.1-12.81,3.68-13.9-1.44-1.62-7.58-3.02-39.51-.78-40.24s14.49-.93,14.49-.93Z"/>
    <path class="cls-1" d="M181.97,377.41c2.97-.32,5.9-.52,8.91-.53,.75,0,1.51,.02,2.29,.06,.39,.02,.78,.05,1.19,.1,.3,.03,1.13,.14,1.69,.32,.61,.18,1.16,.46,1.57,.92,.33,.5,.55,1.09,.63,1.68l.17,.88c.04,.17,.04,.26,.05,.35l.02,.28,.08,1.14c.11,2.17,.24,4.29,.24,6.42-.06,7.49-.35,14.94-.6,22.39l-.11,4.15-.04,2.07-.02,1.03c0,.17,0,.34-.01,.52v.26c-.03,.1,.03,.26-.06,.37,.08,.85-.53,1.56-1.27,1.88-.82,.38-1.35,.39-1.91,.49-.56,.07-1.1,.11-1.64,.15-1.08,.06-2.13,.08-3.18,.1-2.09,.06-4.17,.07-6.13,.47-1.17,.3-1.24-.09-.28-.87,.96-.76,3.07-1.61,5.54-1.84,1.47-.15,2.93-.24,4.29-.41,.67-.09,1.35-.19,1.83-.35,.09-.01-.03,0,.11,0-.14-.02-.04,0-.07-.01h0s0,0,0,0h0s0,0,0,0c0-.01,0,.03,0-.04v-.27c-.02-.18,0-.36,0-.53v-1.07s.05-2.13,.05-2.13l.08-4.27c.06-2.85,.14-5.71,.24-8.57,.19-5.17-.05-10.56-.22-15.82-.05-1.44-.1-2.89-.21-4.29l-.09-1.02c-.02-.16-.03-.33-.06-.48,0-.33-.36-.38-.61-.44l-.11-.02-.24-.03-.5-.05c-.34-.03-.68-.04-1.03-.05-.7-.02-1.4-.02-2.11,0-1.42,.03-2.85,.12-4.29,.23-1.56,.13-3.13,.29-4.67,.51l-1.15,.18-.85,.15c-.19,.04-.39,.08-.58,.16-.05,.02-.1,.04-.13,.08-.02,.05,0,.1-.01,.15,0,.1,0,.2-.02,.3l-.04,.78c-.22,5.41-.39,10.86-.25,16.23,.1,4.18,.51,8.27,.88,12.39,.08,.91,.18,1.79,.24,2.71,.11,1.7,.09,2.82-.11,3.62-.18,.8-.48,1.27-.95,1.66-.21,.18-.42,.41-.63,.52-.69,.37-1.43-.99-1.93-3.47-1.2-7.38-1.39-15.27-1.33-23.17,.03-1.97,.07-3.94,.14-5.91l.12-2.96,.19-3.78c.1-.41,.24-.8,.35-1.21,.17-.33,.49-.66,.83-.88,.7-.47,1.66-.68,2.57-.87l.87-.16,.75-.12,1.49-.2,.02,.09Z"/>
  </g>
  <g>
    <path class="cls-1" d="M239.94,378.44s2.24,41.51,.19,42.62c-2.05,1.1-13.81,3.68-14.9-1.44-1.62-7.58-3.02-39.51-.78-40.24s15.49-.93,15.49-.93Z"/>
    <path class="cls-1" d="M229.01,376.66c2.47-.27,4.92-.44,7.41-.5,1.25-.03,2.49-.03,3.79,.05,.32,.02,.65,.05,.99,.08l.51,.06c.21,.03,.53,.08,.78,.13,1.03,.21,2.07,.67,2.49,1.6,.15,.41,.23,.81,.3,1.2l.12,.6c.03,.18,.09,.44,.09,.53l.11,1.53c.12,2.17,.24,4.29,.24,6.42-.06,7.5-.35,14.95-.6,22.41-.04,1.65-.09,3.31-.13,4.97l-.05,2.48-.02,.62c0,.08,0,.25-.02,.41-.02,.15-.04,.31-.08,.46-.16,.61-.62,1.09-1.16,1.41-.38,.22-.68,.32-.96,.42-.29,.1-.57,.17-.85,.23-.56,.12-1.11,.21-1.65,.27-1.09,.13-2.15,.2-3.22,.24-2.12,.09-4.22,.09-6.31,.14-1.3,.03-1.18-.37-.11-.91,1.07-.54,3.12-1.2,5.52-1.46,1.06-.11,2.12-.23,3.14-.39,1-.15,2.03-.36,2.74-.66l.19-.09h0s0,0,0,0c0-.03,0,.05,0-.06,0-.27-.01-.54,0-.81l.05-3.22c.07-4.3,.16-8.61,.32-12.94,.19-5.18-.05-10.57-.22-15.83-.04-1.13-.08-2.26-.15-3.37-.02-.56-.08-1.1-.12-1.65l-.03-.37-.02-.19c-.02-.13-.03-.26-.06-.36,0-.19-.21-.26-.36-.3-.19-.05-.23-.07-.73-.12-.8-.08-1.66-.1-2.52-.1-1.72,0-3.47,.1-5.22,.24-1.57,.13-3.14,.29-4.69,.51l-1.15,.18-.86,.15c-.2,.04-.4,.08-.59,.16-.05,.02-.1,.04-.13,.08-.02,.05,0,.1-.02,.15l-.02,.3c0,.1,0,.2-.01,.3l-.02,.45c-.22,5.42-.39,10.87-.25,16.25,.1,4.18,.51,8.28,.88,12.4,.08,.91,.18,1.8,.24,2.71,.11,1.7,.09,2.82-.11,3.62-.18,.8-.48,1.27-.95,1.66-.21,.18-.42,.41-.63,.52-.7,.37-1.43-.99-1.93-3.47-1.2-7.39-1.39-15.28-1.33-23.19,.03-1.96,.07-3.93,.14-5.9l.12-2.95,.19-3.78,.36-1.22c.18-.33,.5-.66,.84-.88,.71-.47,1.68-.68,2.6-.87l.86-.15,.76-.12,1.5-.2,.02,.09Z"/>
  </g>
  <g>
    <path class="cls-1" d="M282.51,377.11s2.24,41.51,.19,42.62-11.81,3.68-12.9-1.44c-1.62-7.58-3.02-39.51-.78-40.24s13.49-.93,13.49-.93Z"/>
    <path class="cls-1" d="M273.59,375.9c2.95-.34,5.86-.53,8.84-.56,.75,0,1.5,0,2.26,.04,.38,.02,.77,.04,1.17,.08,.4,.04,.73,.06,1.46,.2,.63,.12,1.24,.31,1.73,.64,.24,.17,.49,.36,.65,.61,.13,.27,.24,.54,.35,.82,.13,.59,.22,1.21,.32,1.81l.05,1.14c.05,2.18,.12,4.28,.04,6.39-.3,7.43-.82,14.8-1.18,22.18-.08,1.51-.14,3.02-.18,4.53l-.06,2.26-.03,1.13-.02,.56v.28c-.02,.1,.01,.16-.07,.33,.06,.4-.08,.79-.29,1.11-.23,.33-.52,.61-.85,.84-.34,.21-.58,.33-.87,.45-.56,.23-1.1,.39-1.64,.52-1.08,.25-2.16,.39-3.22,.47-2.14,.17-4.26,.14-6.36-.02-1.31-.12-1.12-.5-.01-.92,1.1-.42,3.11-.95,5.42-1.26,1.24-.17,2.48-.38,3.6-.71,.55-.16,1.08-.37,1.44-.58,.22-.15,.11-.07,.14-.09h0s0,0,0,0h0s0,0,0,0h0s0,0,0,0h0s.09,0,.09,0c-.14,.04-.08-.12-.09-.2v-.28s-.01-.56-.01-.56c0-.37,0-.74,0-1.12l.05-2.23,.13-4.46c.11-2.98,.25-5.95,.44-8.94,.32-5.13,.25-10.49,.26-15.71,0-1.43,0-2.87-.08-4.24l-.04-.77c0-.15-.03-.29-.06-.42-.04-.14-.2-.18-.32-.22-.15-.04-.21-.06-.46-.09-2.63-.26-5.56-.08-8.38,.15-1.51,.13-3.01,.29-4.5,.51l-1.1,.17-.77,.14c-.19,.04-.38,.08-.56,.16-.04,.02-.09,.04-.11,.09v.14c-.02,.09-.01,.19-.03,.29l-.05,1.06c-.21,5.37-.38,10.78-.24,16.12,.1,4.15,.52,8.21,.88,12.3,.08,.9,.18,1.78,.24,2.69,.11,1.69,.09,2.8-.11,3.59-.18,.79-.48,1.26-.95,1.65-.21,.18-.42,.41-.63,.52-.7,.36-1.43-.98-1.93-3.44-1.2-7.33-1.39-15.15-1.33-23,.02-2,.07-4.01,.14-6.01l.12-3.01,.19-3.83c.09-.39,.22-.76,.33-1.14,.12-.33,.44-.64,.73-.86,.62-.47,1.52-.69,2.38-.88l.6-.12,.36-.06,.71-.12,1.41-.2,.02,.09Z"/>
  </g>
  <path class="cls-1" d="M308.29,452.96l-57.38,2.52c-6.98,.34-13.96,.67-20.93,1.01-24.61,.95-49.22,1.75-73.85,2.14-10.93,.19-21.92,.38-32.76,.57-6.97,.05-13.95,.22-20.93,.2-6.98-.1-13.96-.2-20.92-.76-4.33-.58-3.74-.91-.05-1.84,1.84-.48,4.46-.93,7.61-1.38,3.15-.39,6.84-.61,10.85-.62,3.55,.03,7.1-.08,10.65-.08l10.65-.02c7.1,.04,14.2-.12,21.31-.16,3.56-.03,7.11-.06,10.67-.1,3.56-.05,7.12-.11,10.69-.16,3.57-.04,7.13-.09,10.71-.13,3.57-.06,7.15-.12,10.73-.19,4.28-.07,8.61-.17,12.96-.3,4.35-.17,8.73-.35,13.12-.52,8.78-.4,17.62-.8,26.37-1.2,19.26-.87,38.53-1.74,57.8-2.62,11.86-.51,23.73-1.02,35.58-1.52,8.98-.41,17.99-.66,26.98-1,8.99-.28,17.97-.56,26.89-.84,6.94-.16,13.81-.38,20.65-.62,6.85-.21,13.68-.33,20.54-.48,3.02-.07,5.98-.16,9.03-.14,5.65,.03,9.37,.11,11.99,.36,2.61,.28,4.11,.65,5.31,1.2,.55,.25,1.27,.49,1.59,.73,.53,.4-.35,.75-2.4,1.07-2.05,.31-5.27,.62-9.39,.69-24.48,.57-50.27,1.04-76.17,1.97-9.62,.35-19.26,.71-28.91,1.06-9.65,.42-19.3,.79-28.95,1.26l-.03-.1Z"/>
  <g>
    <path class="cls-1" d="M399.86,71.73c-.21,.01-5.86,5.59-1.76,8.55,2.98,2.16-6.78,3.1-7.06-1.84-.35-6.14,2.46-8.28,6.21-8.59s2.62,1.87,2.62,1.87Z"/>
    <path class="cls-1" d="M402.63,81.35c-1,.92-2.17,1.59-3.44,2.02-1.27,.41-2.68,.55-4.06,.27-.99-.2-1.98-.51-2.8-1.11-1.46-1.03-2.44-2.68-2.65-4.39-.23-1.73,.22-3.31,.96-4.66,.68-1.18,1.55-2.2,2.59-3.01,.69-.49,1.43-.9,2.24-1.15,.2-.06,.4-.12,.61-.16l.64-.02c.43,.03,.84,.06,1.25,.17,.51,.14,.4,.35,.03,.74-.18,.19-.43,.44-.68,.74-.13,.14-.25,.3-.38,.46-.06,.08-.13,.14-.19,.23-.07,.03-.14,.1-.22,.14-.53,.28-1.01,.65-1.42,1.06-.42,.39-.84,.78-1.17,1.24-.65,.9-1.08,1.92-1.17,2.98-.12,1.26,.89,2.37,2.01,2.94,.63,.33,1.35,.47,2.11,.41,.76-.07,1.57-.33,2.28-.77,.88-.53,1.64-1.31,2.04-2.21,.65-1.39,.63-3.2-.37-4.28-.37-.43-.89-.69-1.42-.83-.54-.14-1.1-.13-1.64-.09-.24,.03-.47,.1-.7,.14-.85,.21-1.23-.02-1.81-.66-.13-.15-.29-.28-.4-.43-.39-.47-.22-1.29,.78-1.95,1.48-.78,3.48-1.09,5.37-.31,.93,.37,1.84,.97,2.54,1.79,.71,.81,1.21,1.79,1.48,2.79,.41,1.5,.3,3.02-.12,4.39-.43,1.39-1.26,2.67-2.25,3.61l-.07-.06Z"/>
  </g>
  <g>
    <path class="cls-1" d="M441.36,105.48s8.68,1.55,5.72,6.07c-1.83,2.79,5.74-.49,3.5-4.87s-4.95-4.88-6.82-4.16-2.4,2.96-2.4,2.96Z"/>
    <path class="cls-1" d="M443.68,109.44c.66,.87,1.84,1.5,2.83,1.44,.38-.02,.71-.22,1.04-.38,.58-.3,1.15-.76,1.45-1.45,.31-.67,.32-1.61,.03-2.47-.27-.77-.83-1.45-1.49-1.95-.41-.35-.89-.6-1.38-.83-.25-.1-.49-.22-.74-.39-.25-.13-.52-.29-.81-.39-.35-.16-.35-.38,.01-.74,.18-.19,.45-.41,.82-.62,.19-.11,.39-.2,.62-.27,.11-.04,.23-.05,.35-.1,.11,0,.23,.02,.34,.04,.81,.14,1.6,.43,2.33,.85,.72,.43,1.34,1.02,1.87,1.69,1.03,1.35,1.64,3.14,1.36,4.94-.15,1.09-.54,2.15-1.15,3.09-.63,.91-1.53,1.66-2.55,2.06-1.11,.46-2.37,.55-3.5,.33-1.12-.23-2.13-.71-2.99-1.37-1.05-.81-1.9-1.88-2.38-3.16-.7-1.88-.48-4.15,.84-5.82,1-1.27,2.51-2.2,4.16-2.32,.36-.03,.71-.06,1.08-.01,.67,.08,1.08,.31,1.29,.61,.21,.29,.24,.62,.17,1.06-.03,.2-.06,.4-.12,.57-.21,.59-.81,.89-1.39,1.1-.85,.13-1.49,.5-1.92,.79-.43,.33-.62,.61-.76,1.09-.1,.35-.11,.81-.02,1.27,.11,.45,.3,.86,.67,1.27l-.06,.06Z"/>
  </g>
  <path class="cls-1" d="M350.12,84.35c-.39,2.5-2.73,4.22-5.23,3.84-3.41-.52-3.84-4.06-1.99-6.77,2.62-3.85,7.94-1.66,7.23,2.94Z"/>
  <path class="cls-1" d="M436.05,64.94c1.32,2.37,.75,5.21-1.28,6.34-2.76,1.54-6.1-1.09-6.51-4.49-.59-4.83,5.37-6.2,7.8-1.85Z"/>
</svg>