<?xml version="1.0" encoding="UTF-8"?>
<svg id="Layer_43" data-name="Layer 43" xmlns="http://www.w3.org/2000/svg" viewBox="0 0 520 520">
  <defs>
    <style>
      .cls-1, .cls-2, .cls-3, .cls-4, .cls-5 {
        fill: #231f20;
      }

      .cls-2 {
        opacity: .2;
      }

      .cls-6, .cls-3 {
        opacity: .5;
      }

      .cls-4 {
        opacity: .3;
      }

      .cls-5 {
        opacity: .4;
      }
    </style>
  </defs>
  <g>
    <path class="cls-1" d="M368.55,244.04c.99,2.7,2.44,5.24,4.59,7.05,.78,.66,1.66,1.16,2.58,1.59,3.35,1.6,7.31,2.35,11.21,2.53,1.74,.08,3.5-.04,5.21-.26,1.11-.11,2.21-.29,3.3-.49,1.1-.16,2.21-.31,3.32-.51,.7-.11,.68,.12,.19,.58-.48,.46-1.43,1.24-2.71,1.73-1.14,.36-2.31,.63-3.49,.85-1.18,.21-2.38,.3-3.57,.36-2.39,.11-4.81-.03-7.19-.45-2.84-.57-5.82-1-8.61-2.52-3.02-1.7-5.23-4.46-6.66-7.41-.89-1.83-1.51-3.75-1.97-5.68-.69-2.94-.93-5.95-.96-8.92,0-2.3-.03-4.59,.37-6.88,.08-.5,.16-1,.28-1.5,.49-1.86,1.19-2.28,1.78-2.48,.14-.04,.29-.11,.4-.12,.36-.04,.48,.8,.47,2.13-.39,3.82-.72,7.79-.36,11.78,.26,2.95,.81,5.89,1.88,8.6l-.07,.03Z"/>
    <path class="cls-2" d="M401.67,369.91c-.14-.56-4.27-15.69-7.36-18.92s-13.87-12.91-14.38-17.5c-.51-4.59,2.06-2.72,2.06-2.72,0,0-4.74-1.12-2.13-3.93s4.94-1.15,4.94-1.15c0,0-3.77-4.77-.3-6.6,3.48-1.83,5.23,0,5.23,0,0,0-3.39-2.64-.95-4.92,2.44-2.28,7.71,0,7.71,0,0,0-3.55-7.93-1.16-9.48s3.57,.62,5.89,6.84c2.32,6.22,4.04,12.19,4.04,12.19,0,0,1.34,12.56,0,16.57-1.34,4.01,10.48,20.68,10.48,20.68l-14.07,8.95Z"/>
    <path class="cls-2" d="M277.59,123.7c-.57-.67-1.64-4.96,.23-5.23,1.87-.27,3.61,5.78,2.78,10.73-.84,4.96-3.01-5.51-3.01-5.51Z"/>
    <path class="cls-2" d="M294.8,198.82h-2.34s-6.5-21.01-7.66-22.44-8.08-2.6-10.31-16.28,.71-16.14,0-19.77-2.75-18.22,1.02-19.39,2.78,8.24,5.1,15.69c2.32,7.45,11.66,25.91,14.2,28.45,2.54,2.54,9.04,27.3,10.66,28.33,1.62,1.04-10.66,5.42-10.66,5.42Z"/>
    <path class="cls-2" d="M423.2,215.6c-6.97,1.41-10.25-.18-6.55-8.68,7.78-17.84-19.9-5.56-23.16-14.25l-3.59-5.3-15.53,3.78s-1.28,6.18-3.7,15.77c-.24,.97,1.68,4.12,1.45,5.13-.36,1.56-5.73,4.62-6.03,6.23-.97,5.16-.34,8.24-.17,12.97,.6,16.55,6.18,23.47,16.1,24.81,9.91,1.34,13.07-.62,13.07-.62,0,0,8.95-13.33,22.52-10.34,0,0-7.98-2.23-4.82-6.34,3.15-4.12,6.38-5.31,6.38-5.31,0,0,11.52-1.23,11.94-7.88,.43-6.65-.93-11.37-7.91-9.97Zm-33.3,3.52c-1.63,1.43-10.07,5.01-11.5-1.88,0,0-1.99-8.56,6.88-7.45,8.87,1.12,6.25,7.89,4.62,9.33Z"/>
    <path class="cls-1" d="M301.55,277.34c-1.16-2.31-2.33-4.62-3.38-6.98l-1.61-3.52-1.52-3.56c-.76-1.72-1.5-3.45-2.18-5.21-2.42-6.17-4.54-12.45-6.48-18.78-.9-2.79-1.73-5.63-2.61-8.4-1.01-3.6-2.2-7.17-2.72-10.9-.19-1.15-.01-1.04,.5-.15,.26,.44,.61,1.07,1.01,1.84,.2,.38,.43,.8,.62,1.25,.18,.46,.35,.94,.5,1.46,2.29,7.25,4.45,14.52,6.86,21.8,1.4,4.36,3.25,8.77,5.03,13.1,.97,2.39,2.04,4.73,3.06,7.09,1.11,2.32,2.15,4.68,3.33,6.97l2.16,4.23,2.31,4.15,.88,1.57,.94,1.54,1.88,3.07c1.27,2.03,2.67,3.99,3.99,5.96,1.11,1.48,2.24,2.92,3.37,4.35,1.14,1.42,2.4,2.75,3.56,4.15,.51,.62,1.02,1.22,1.57,1.81,2,2.24,2.51,3.07,2.62,3.87,.03,.18,.09,.39,.07,.52-.03,.43-1.11-.24-2.76-1.76-2.51-2.19-4.79-4.75-6.99-7.42-1.06-1.37-2.13-2.74-3.21-4.13-1.02-1.42-2.01-2.88-2.98-4.34-1.45-2.17-2.76-4.44-4.12-6.67-1.25-2.3-2.58-4.55-3.75-6.89l.05-.03Z"/>
    <path class="cls-1" d="M295.5,196.31c1.14-.23,2.28-.48,3.39-.83,.41-.11,.78-.33,1.18-.46,1.41-.47,2.81-1.01,4.12-1.73,.59-.3,1.13-.71,1.64-1.11,.31-.28,.65-.54,1-.78,.17-.12,.32-.27,.53-.36,.21-.08,.43-.16,.66-.25,.29-.09,.34,0,.35,.34,0,.25,.01,.5,.02,.71,0,.14,0,.31-.03,.45-.04,.13-.1,.25-.18,.36-.55,.79-1.26,1.43-2.03,1.98-.75,.57-1.6,1.02-2.49,1.34-1.05,.41-2.04,1.01-3.1,1.43-1.16,.46-2.35,.83-3.54,1.15-.73,.2-1.47,.39-2.2,.55-1.11,.26-2.24,.45-3.33,.74-.85,.2-1.63,.63-2.47,.82-.18,.05-.36,.12-.55,.15-.34,.09-.61-.05-.79-.13-.19-.11-.32-.26-.44-.47-.06-.1-.12-.19-.16-.28-.13-.3,.08-.68,.52-1.11,1.34-1.06,2.91-1.36,4.45-1.77,1.14-.27,2.29-.55,3.44-.82l.02,.06Z"/>
    <path class="cls-1" d="M292.01,193.4c-.28,.09-12.52,3.48-10.64,5.55s12.53,.69,12.53,.69l-1.9-6.24Z"/>
    <path class="cls-1" d="M366.51,213.19c.16-.55,.33-1.1,.49-1.65,.06-.2,.07-.41,.13-.61,.24-.7,.56-1.37,.84-2.04,.13-.3,.19-.61,.28-.92,.12-.39,.2-.8,.51-1.12,.1-.1,.4,.02,.7,.22,.29,.21,.61,.5,.6,.74,.01,.83-.28,1.57-.66,2.3-.24,.44-.26,.95-.39,1.42-.14,.52-.28,1.05-.42,1.58-.08,.33-.16,.65-.22,.98-.09,.5-.2,1-.23,1.51-.04,.39,.12,.79,.09,1.17,0,.09,.01,.17,0,.25-.05,.32-.18,.41-.58,.47-.09,.01-.18,.03-.27,.04-.3,.02-.55-.11-.7-.36-.49-.74-.53-1.52-.5-2.3,.03-.58,.18-1.14,.28-1.71h.05Z"/>
    <path class="cls-1" d="M389.95,213.11c1.18,7.3-7.96,7.01-7.96,7.01,0,0,3.33,2.45,6.28,.42,2.95-2.03,2.33-4.89,2.8-6.04,.47-1.15-1.12-1.4-1.12-1.4Z"/>
    <path class="cls-1" d="M412.43,364.64c-1.23,.84-2.47,1.65-3.76,2.4-.46,.28-.9,.6-1.38,.85-1.69,.89-3.44,1.66-5.2,2.34-.79,.29-1.56,.63-2.33,.94-.49,.21-.98,.43-1.5,.58-.51,.16-1.03,.29-1.62,.19-.39-.15-.35-.19-.2-.63,.08-.23,.2-.48,.35-.78,.16-.27,.39-.45,.65-.59,1.93-.84,3.88-1.51,5.86-2.27,1.2-.43,2.29-1.19,3.4-1.85,1.21-.74,2.42-1.51,3.58-2.36,.72-.51,1.43-1.05,2.11-1.6,1.04-.85,2.08-1.71,3.02-2.66,.73-.74,1.33-1.58,1.97-2.38,.14-.18,.26-.37,.43-.52,.31-.29,.53-.46,.77-.5,.27-.02,.49,.03,.73,.13,.11,.04,.22,.07,.3,.12,.14,.08,.2,.22,.23,.46,.02,.23,.05,.59-.12,.87-.38,.93-1.02,1.66-1.65,2.42-.63,.76-1.38,1.42-2.11,2.1-1.11,.99-2.3,1.91-3.5,2.8l-.04-.04Z"/>
    <path class="cls-1" d="M398.41,360.97c-.42,.42-11.34,10.58-8.07,11.77,3.27,1.19,10.59-2.4,10.59-2.4l-2.52-9.37Z"/>
    <path class="cls-1" d="M386.66,279.35c-16.38,5.2-16.38-3.18-16.38-3.18l3.68,1.72,8.06,.49,5.84-.75,.42,1.72h-1.61Z"/>
    <path class="cls-1" d="M362.1,284.18c3.22,0,3.22-5,0-5s-3.22,5,0,5h0Z"/>
    <path class="cls-1" d="M366.99,295.28c3.22,0,3.22-5,0-5s-3.22,5,0,5h0Z"/>
    <path class="cls-1" d="M379.09,296.93v-.19c.01-.34-.06-.67-.22-.96-.1-.31-.27-.58-.52-.8-.23-.24-.49-.42-.8-.52-.3-.16-.62-.23-.96-.22l-.66,.09c-.42,.12-.79,.33-1.1,.64l-.39,.51c-.23,.39-.34,.81-.34,1.26v.19c-.01,.34,.06,.67,.22,.96,.1,.31,.27,.58,.52,.8,.23,.24,.49,.42,.8,.52,.3,.16,.62,.23,.96,.22l.66-.09c.42-.12,.79-.33,1.1-.64l.39-.51c.23-.39,.34-.81,.34-1.26h0Z"/>
    <path class="cls-1" d="M391.27,291.9c3.22,0,3.22-5,0-5s-3.22,5,0,5h0Z"/>
    <path class="cls-1" d="M391.63,196.96c1.7-.63,3.38-.97,5.18-.87,.68,.04,1.27,.14,2.05,.34,.39,.1,.78,.23,1.17,.36,.42,.15,.48,.18,.74,.29,2.11,.97,3.85,2.44,5.85,3.58,2.1,1.19,3.99-2.05,1.89-3.24-2.22-1.26-4.14-2.87-6.52-3.87-3.65-1.54-7.64-1.61-11.36-.22-.95,.35-1.59,1.27-1.31,2.31,.25,.91,1.35,1.66,2.31,1.31h0Z"/>
    <path class="cls-1" d="M414.65,244.72s-14.73,3.2-21.14,10.85c-6.41,7.65-9.57,13.33-8.58,17.6,.99,4.27,15.14,18.66,27.19,21.02,12.05,2.36,33.98,6.37,43.25,2.77,9.27-3.6,15.91-6.95,16.68-12.46,.77-5.51,.46-36.13-6.02-54.21-6.48-18.07-12.72-31.79-15.28-33.76,0,0,21.6-15.94,8.47-31.56-10.52-12.53-25.41-2.64-28.27,3.45,0,0-1.79,4.66-1.6,6.71s-8.72-7.71-16.57-14.12c-14.74-12.05-37.32-8.66-43.54-4.14s-12.7,9.6-12.09,16.94,6.26,12.22,12.09,13.83c5.83,1.61,15.25,3.49,22.21,.24,0,0,7.02,14.09,23.28,11.87l6.48-2.47s-5.59,10.83-5.29,15.27c.3,4.44,1.39,6.51,4.89,4.36,3.5-2.15,6.34-3.63,9.76,.63,3.42,4.26,2.57,7.89-1.23,11.2-3.8,3.31-8.35,5.85-8.35,5.85,0,0,3.67,4.86,1.42,8.29-2.25,3.43-7.77,1.82-7.77,1.82Z"/>
    <g>
      <path class="cls-1" d="M385.21,340.58c2.21,1.92,4.47,3.7,6.69,5.85,.8,.79,1.53,1.61,2.21,2.44l.88,1.11c.14,.15,.32,.43,.49,.68,.2,.27,.29,.48,.41,.72,.48,.92,.8,1.81,1.15,2.72,.65,1.8,1.21,3.61,1.75,5.42,.49,1.6,.98,3.21,1.46,4.81,.54,2.06,1.26,4.12,1.02,6.39-.13,.71-.21,.59-.59,.08-.44-.5-1.16-1.37-1.59-2.49l-.97-3.05c-.31-1.02-.58-2.06-.88-3.09-.59-2.06-1.18-4.13-1.81-6.18-.37-1.22-.86-2.46-1.44-3.53-.07-.13-.15-.27-.22-.38l-.21-.28c-.17-.2-.46-.46-.68-.69l-1.41-1.4c-1.03-1.01-2.01-1.96-3.13-2.89-1.11-.93-2.26-1.85-3.4-2.77l-2.11-1.71c-.32-.26-.78-.65-1.1-1-.35-.36-.65-.76-.94-1.15-.86-1.2-1.52-2.51-1.99-3.91-.22-.71-.41-1.43-.47-2.2-.07-.77-.08-1.57,.34-2.46,.27-.71,.86-1.24,1.5-1.59,.69-.31,1.47-.1,2.16,.25,.4,.19,.59,.34,.85,.49l.68,.46,1.28,.92c.37,.25,.73,.49,1.11,.73,.34,.23,.61,.42,.83,.58,.21,.17,.36,.36,.48,.5,.24,.32,.33,.59,.37,.94,.02,.16,.07,.34,.06,.48,.02,.47-.88,.64-2.23,.15-.93-.44-1.78-.99-2.58-1.54l-1.18-.77c-.18-.11-.38-.24-.55-.33-.07-.04-.21-.12-.22-.12h-.02c-.06,.01-.07,.08-.05,.09h0s0,.09-.01,.14c-.03,.09-.02,.24-.02,.39,0,.29,.05,.65,.14,1.02,.24,1.1,.81,2.3,1.47,3.37,.34,.52,.71,1.04,1.11,1.45,.2,.24,.37,.38,.59,.59l.85,.7-.04,.06Z"/>
      <path class="cls-1" d="M398.31,314.22c1.21,.7,2.35,1.5,3.47,2.36,.56,.44,1.1,.89,1.64,1.4,.52,.51,1.1,1.08,1.56,1.84,.55,.89,1.11,1.78,1.5,2.76,1.39,3.44,1.63,7.15,1.24,10.64-.2,1.55-.43,3.1-.79,4.59l-.35,1.44c-.15,.47-.31,.94-.48,1.4-.31,.94-.75,1.83-1.39,2.61-.53,.43-.55,.32-.8-.33-.14-.33-.23-.76-.34-1.25-.07-.48,0-.98,.1-1.5l.35-1.36c.11-.45,.18-.91,.3-1.36,.24-.89,.36-1.8,.54-2.71,.27-1.81,.39-3.63,.34-5.46-.04-2.21-.89-4.39-1.91-6.35-.27-.54-.6-1.09-.92-1.57-.25-.36-.68-.8-1.13-1.2-.92-.8-1.96-1.55-3.04-2.23-1.33-.83-2.71-1.63-4.15-2.25-.54-.23-1.09-.45-1.64-.63-.52-.17-1.15-.33-1.57-.39-.33-.04-.71-.06-1.03,.11-.31,.17-.48,.55-.42,.9,.12,.57,.41,.85,1.08,1.55,.61,.6,1.32,1.15,2.08,1.65,.34,.21,.67,.42,1.02,.64,.62,.43,1.02,.73,1.21,1.07,.17,.37,.17,.74,.08,1.15-.04,.19-.06,.38-.12,.53-.1,.25-.34,.37-.73,.44-.39,.07-.91,.03-1.41-.27-1.55-.83-2.99-1.89-4.5-3.29-.37-.4-.69-.66-1.21-1.52-.45-.75-.76-1.58-.74-2.4-.05-1.64,1.13-3.2,2.75-3.61,.29-.11,.62-.11,.93-.17,.33,0,.65-.01,.98,0,.16,0,.36,.04,.51,.05,.11,.01,.22,.03,.32,.05,.2,.04,.42,.07,.6,.12,.78,.18,1.5,.41,2.19,.67,1.38,.52,2.65,1.14,3.89,1.82l-.04,.07Z"/>
      <path class="cls-1" d="M383.28,324.93c-.45-.51-.89-1.08-1.23-1.84-.34-.73-.55-1.78-.25-2.74,.21-.7,.53-1.24,.98-1.67,.82-.77,1.83-1.1,2.73-1.19,.91-.1,1.77,.02,2.57,.22,.71,.18,1.41,.39,2.08,.67,.42,.21,.84,.43,1.21,.74,.35,.33,.61,.78,.78,1.24,.1,.29-.11,.37-.5,.42-.37,.02-.98,.16-1.41,.15-.33-.09-.64-.21-.98-.28-.32-.1-.63-.22-.95-.31-.65-.19-1.31-.31-1.97-.41-.82-.11-1.45,.32-1.77,.78-.2,.27-.27,.42-.26,.72,0,.29,.2,.71,.46,1.11,.34,.49,.79,.98,1.29,1.43,.77,.67,1.6,1.35,2.51,1.88,.71,.42,1.5,.69,2.28,1.07,.17,.09,.36,.15,.53,.26,.62,.41,.7,.82,.33,1.41-.09,.14-.17,.27-.27,.39-.37,.38-.8,.54-1.24,.46-1.31-.36-2.68-1.14-4.02-2.04-1.01-.67-1.99-1.43-2.95-2.41l.05-.05Z"/>
      <path class="cls-1" d="M378.75,330.53c-.22-.34-.43-.7-.59-1.16-.17-.44-.27-1-.18-1.55,.07-.56,.33-1.06,.61-1.44,.29-.37,.61-.66,.92-.9,.23-.17,.45-.34,.68-.48,.12-.08,.2-.14,.37-.22,.18-.08,.37-.16,.57-.22,1.17-.23,2.02-.05,2.89,.11,.86,.16,1.65,.49,2.43,.81,.69,.29,1.4,.54,2.05,.93,.86,.41,1.7,1.14,2.03,2.2,.1,.33-.09,.34-.45,.32-.35-.05-.95,.06-1.42,0-.19-.05-.42-.04-.6-.11-.18-.07-.37-.12-.56-.18-.38-.12-.78-.2-1.14-.39-.74-.34-1.52-.63-2.3-.99-.46-.21-.97-.34-1.44-.36-.23-.02-.46-.01-.64,0-.07,.02-.21,.01-.23,.03-.05,.02-.06-.02-.19,.06-.49,.22-.92,.49-1.15,.76-.21,.26-.3,.47-.17,.9,.18,.5,.64,1.07,1.16,1.55,.79,.75,1.72,1.44,2.69,2.04,.76,.46,1.59,.79,2.41,1.2,.18,.09,.37,.17,.55,.28,.62,.47,.72,.81,.47,1.33-.06,.12-.11,.24-.18,.35-.25,.34-.67,.43-1.16,.3-1.46-.46-2.91-1.3-4.36-2.28-1.07-.76-2.14-1.57-3.1-2.85l.04-.04Z"/>
      <path class="cls-1" d="M410.55,356.13c-.41-.83-.84-1.65-1.24-2.5-.14-.31-.34-.59-.47-.91-.46-1.13-.88-2.27-1.25-3.41-.16-.51-.34-1.01-.52-1.5-.1-.32-.25-.63-.29-.97-.04-.34-.06-.69-.07-1.04,0-.22,.1-.22,.31-.1,.2,.12,.6,.32,.86,.62,.25,.26,.43,.54,.58,.83,.16,.28,.33,.56,.49,.85,.34,.56,.57,1.16,.81,1.78,.26,.75,.81,1.39,1.24,2.08,.49,.75,.91,1.54,1.39,2.32,.29,.48,.58,.96,.88,1.43,.46,.72,.89,1.46,1.42,2.14,.4,.53,.91,.98,1.36,1.48,.1,.11,.22,.2,.29,.33,.28,.47,.2,.73-.32,1.17-.12,.1-.23,.21-.35,.3-.41,.31-.9,.35-1.28,.13-.58-.31-1-.73-1.41-1.16-.43-.43-.75-.93-1.07-1.45-.48-.76-.92-1.57-1.39-2.37l.05-.04Z"/>
      <path class="cls-1" d="M395.74,302.65l.15-.12c.3-.11,.58-.27,.88-.35,.31-.06,.66-.05,.96,.04,.6,.17,1.1,.63,1.53,1.21,.21,.3,.41,.61,.58,.96,.09,.17,.19,.33,.26,.5l.16,.36c.17,.42,.33,.83,.48,1.23,.22,.61,.49,1.18,.68,1.79,.66,2.13,1.2,4.26,1.84,6.35,.27,.93,.59,1.85,.94,2.73,.22,.57,.5,1.11,.7,1.67,.08,.29,.19,.57,.25,.87,.06,.3,.12,.61,.24,.88,.13,.34,.07,.39-.32,.27-.2-.06-.46-.18-.8-.32-.16-.08-.37-.16-.53-.26-.15-.11-.31-.24-.44-.39-1.53-2.25-2.37-4.66-2.95-7.16-.35-1.49-1-2.94-1.54-4.37-.3-.78-.6-1.56-.93-2.3-.09-.22-.14-.34-.23-.52-.09-.16-.2-.36-.39-.43-.16-.05-.26,.1-.39,.17-.14,.08-.23,.23-.35,.36l-.13,.23s-.04,.07-.07,.13l-.07,.22c-.46,1.27-.46,2.85-.11,4.31,.27,1.14,.81,2.19,1.39,3.15,.13,.22,.28,.4,.39,.62,.19,.42,.33,.64,.32,.91-.03,.27-.11,.49-.23,.74-.06,.12-.09,.24-.14,.33-.09,.16-.25,.21-.53,.19-.14-.01-.31-.04-.51-.1-.2-.05-.33-.19-.5-.33-1-.84-1.58-1.97-2.09-3.12-.48-1.17-.81-2.42-.94-3.75-.1-.98-.05-2.03,.16-3.1l.24-.81,.06-.21c.02-.09,.09-.18,.13-.27l.3-.55,.3-.55c.11-.17,.26-.29,.39-.43,.27-.28,.52-.57,.81-.83l.03,.06Z"/>
    </g>
    <path class="cls-1" d="M378.59,280.54c-1.35-.09-2.72-.27-4.09-.66-.5-.14-1.03-.22-1.53-.47-.87-.42-1.75-1.03-2.4-1.92-.66-.88-.94-2.02-.86-3,.08-.87,.27-1.65,.5-2.4,.18-.46,.32-.94,.55-1.36,.23-.43,.57-.79,.93-1.12,.23-.2,.54,.04,.81,.47,.27,.43,.53,1.06,.48,1.55-.27,.8-.45,1.56-.53,2.22-.04,.67-.13,1.15,.01,1.65,.15,.66,1.05,1.04,1.94,1.32,1,.35,2.16,.55,3.34,.63,.73,.06,1.47,.06,2.21,.03,1.13-.06,2.27-.14,3.37-.41,.85-.24,1.65-.59,2.46-.9,.18-.07,.34-.17,.53-.22,.73-.04,1.02,.13,1.35,.65,.08,.12,.16,.23,.22,.34,.2,.38,.04,.85-.39,1.35-1.33,1.3-3.07,1.87-4.85,2.09-1.32,.19-2.68,.24-4.04,.22v-.08Z"/>
    <path class="cls-1" d="M384.58,191.72c-.98-1.88-3.03-2.82-5.01-3.29-2.38-.56-4.86-.78-7.3-.66-.98,.05-1.92,.83-1.88,1.88,.04,.97,.83,1.93,1.88,1.88s2.05-.04,3.08,.03c1.08,.08,1.71,.17,2.85,.41,.4,.09,.8,.18,1.19,.3,.2,.06,.39,.13,.58,.2,.35,.12-.25-.13,.18,.09,.16,.08,.31,.16,.46,.26,.08,.05,.17,.11,.25,.16-.18-.15-.19-.15-.03-.02,.14,.14,.28,.27,.41,.42-.3-.36,.06,.15,.11,.24,.45,.87,1.74,1.2,2.57,.67,.89-.57,1.16-1.63,.67-2.57h0Z"/>
    <path class="cls-1" d="M279.95,127.71c-.05-1.15-.14-2.3-.23-3.5-.03-.43-.13-.86-.14-1.29l-.03-1.1c0-.33-.04-.63-.1-.98l-.21-1.09c-.02-.21-.02-.36-.1-.55-.14-.35-.62-.28-.83-.04-.08,.07-.13,.17-.18,.25l-.04,.04-.11,.07-.22,.12-.43,.2c-.27,.13-.53,.26-.7,.42-.14,.13-.3,.17-.47-.17-.17-.33-.14-1.07,.07-1.67l.17-.44,.07-.2v-.05s.02-.02,.02-.02c0-.02,.02,.02-.02-.08l.06-.25c.44-.78,1.18-1.02,1.86-1.15,.69-.12,1.39,.03,1.96,.4,.57,.38,.94,.96,1.11,1.64l.11,.52,.04,.25v.14s.06,.58,.06,.58c.03,.54,.16,1.16,.22,1.78,.06,.6,.09,1.12,.1,1.66l.06,3.57v2.23c0,1.13-.09,2.25-.09,3.35,0,.85,.06,1.69,.09,2.53,0,.18,.02,.37,.02,.55,0,.69-.15,.91-.47,1.07-.07,.04-.15,.08-.22,.1-.24,.07-.47-.21-.62-.72-.37-1.51-.64-3.14-.67-4.71-.06-1.17-.09-2.31-.2-3.47h.05Z"/>
    <path class="cls-1" d="M419.35,215.61c.5-.26,1.12-.75,1.89-1.31,.39-.28,.84-.57,1.37-.84,.29-.12,.55-.26,.89-.33l.49-.12,.41-.05c2.18-.27,4.48,.47,6.06,1.94,1.16,1.05,2.01,2.4,2.42,3.84,1.3,5.15-1.23,10.16-4.98,12.92-1.66,1.25-3.54,2.24-5.6,2.69-1.32,.25-2.73,.29-4.06-.04-.34-.06-.66-.2-.97-.34-.32-.12-.62-.29-.91-.47-.3-.15-.56-.38-.8-.61-.26-.22-.49-.45-.7-.71-.53-.63-.36-.62,.34-.48,.34,.08,.85,.12,1.42,.13,.28,0,.57,.02,.86,.04,.29,.02,.59,.01,.88,.06,4.07,.52,8.53-1.98,10.85-5.73,1.39-2.24,1.54-5.45,.36-7.6-.65-1.19-1.72-2.11-3-2.48-.64-.18-1.32-.23-2-.13-.48,.07-1.09,.42-1.74,.91-.82,.58-1.7,1.41-3.06,1.81-.66,.19-1.43,.22-2.09,.05-.68-.14-1.25-.44-1.77-.76-.4-.22-.81-.58-1.15-.96-.32-.41-.61-.86-.76-1.35-.34-.97-.33-1.93-.23-2.8,.23-1.76,.81-3.31,1.39-4.82,.92-2.34,1.85-4.6,2.79-6.84,.21-.49,.38-.99,.62-1.46,.86-1.78,1.34-2.23,2.18-2.34,.19-.02,.39-.08,.56-.07,.54,.02,.72,.99,.31,2.46-.57,2.18-1.52,4.22-2.39,6.27-.87,2.04-1.78,4.09-2.24,6.01-.17,.7-.25,1.38-.22,1.91,.05,.53,.15,.82,.36,1.04,.09,.12,.25,.23,.52,.39,.12,.09,.24,.15,.34,.18,.11,.05,.21,.1,.29,.1,.34,.07,.52,.08,1.02-.18l.04,.07Z"/>
    <path class="cls-1" d="M403.73,197.6c2.15,.73,4.47,1.15,6.8,1.16,.85,.02,1.69-.11,2.54-.17,1.49-.14,2.97-.41,4.42-.83,1.43-.44,2.81-1.06,4.1-1.83,1.15-.69,2.11-1.64,2.93-2.65,.23-.35,.5-.67,.75-1.01l.66-1.08c.1-.18,.19-.38,.29-.56l.36-.54c.24-.37,.41-.77,.63-1.16,.28-.49,.4-.4,.55,.13,.12,.51,.49,1.6,.2,2.74-.34,.96-.74,1.92-1.32,2.77-.6,.83-1.29,1.61-2.07,2.27-1.53,1.35-3.33,2.36-5.23,2.95-2.25,.72-4.59,1.41-6.98,1.6-2.61,.22-5.24,0-7.78-.6-1.57-.35-3.09-.89-4.55-1.56-2.21-1.02-4.25-2.47-5.93-4.26-1.3-1.38-2.5-2.94-3.19-4.77-.18-.39-.32-.79-.42-1.21-.44-1.56,.04-2.13,.64-2.49,.15-.08,.28-.19,.42-.24,.23-.08,.46,.02,.73,.25,.26,.23,.58,.58,.73,1.04,.58,1.35,1.25,2.57,2,3.74,.75,1.17,1.74,2.21,2.86,3.13,1.66,1.38,3.7,2.43,5.88,3.11l-.02,.07Z"/>
    <path class="cls-1" d="M385.35,155.05c-1.67-.04-3.32,.18-4.97,.33-.83,.06-1.63,.28-2.45,.41-.81,.16-1.64,.27-2.42,.54l-2.38,.7c-.77,.27-1.51,.58-2.26,.89-1.45,.71-2.89,1.49-4.19,2.47-1.92,1.4-3.58,3.12-4.97,4.99-1.2,1.67-2.14,3.51-2.67,5.44-.53,1.93-.63,3.96-.1,5.88,.5,1.9,1.47,3.76,2.8,5.25,1.4,1.47,3.16,2.61,5.04,3.54,3.42,1.57,7.27,2.33,11.07,2.53,4.91,.31,9.83-.3,14.64-1.3,1.58-.12,1.43-.05,.34,.9-.54,.51-1.39,1.02-2.46,1.58-1.07,.55-2.4,1.08-3.9,1.3-5.26,.96-10.73,.95-16.04-.4-2.64-.69-5.28-1.67-7.66-3.25-.58-.43-1.17-.82-1.72-1.3-.53-.51-1.06-1-1.56-1.53-.45-.58-.9-1.17-1.34-1.76l-1.03-1.91c-1.52-3.13-1.78-6.9-.91-10.26,.83-3.4,2.73-6.38,5.03-8.81,2.55-2.66,5.58-4.82,8.96-6.24,1.69-.75,3.43-1.17,5.16-1.68,.87-.21,1.76-.35,2.64-.53l1.32-.25c.44-.07,.89-.1,1.33-.15,4.36-.57,8.78-.42,13.1,.19,6.54,.93,12.97,2.97,18.72,6.15,4.51,2.39,8.64,5.39,12.15,9.12,.39,.41,.8,.79,1.17,1.21,.35,.44,.69,.88,1.04,1.33,.64,.84,1.16,1.55,1.54,2.18,.33,.66,.58,1.2,.75,1.67,.36,.92,.38,1.54,.26,2.1-.05,.25-.06,.55-.14,.72-.21,.53-1.65-.58-3.27-2.93-2.68-3.34-5.71-6.45-9.24-9.1-.9-.63-1.8-1.27-2.71-1.91-.96-.56-1.92-1.12-2.88-1.68-.47-.3-.97-.55-1.48-.78l-1.52-.73c-.51-.23-1-.51-1.52-.71l-1.57-.6c-3.09-1.28-6.37-2.07-9.65-2.76-3.31-.51-6.67-.93-10.02-.77v-.07Z"/>
    <path class="cls-1" d="M471.67,289.23c-1.88,3.02-4.72,5.14-7.64,6.62-2.95,1.49-6.06,2.39-9.18,3.01-6.24,1.23-12.55,1.3-18.76,.85-4.53-.34-9.04-.92-13.47-1.89-7.8-1.71-15.45-4.25-22.56-8.01-3.53-1.91-6.96-4.11-9.92-6.92-2.94-2.78-5.52-6.28-6.44-10.45-.43-1.99-.02-3.96,.59-5.69,.64-1.75,1.52-3.36,2.52-4.86,2.01-3,4.44-5.63,7.05-8.01,3.39-3.02,7.12-5.69,11.27-7.67,2.08-.97,4.29-1.72,6.6-2.1,.58-.1,1.16-.18,1.75-.19,.58-.05,1.18,0,1.77,.03,1.17,.12,2.39,.31,3.43,.92,.66,.36,1.04,.74,1.28,.97,.24,.23,.34,.34,.29,.37-.04,.02-.22-.05-.53-.17-.3-.13-.74-.3-1.32-.37-1.15-.18-2.73-.26-4.58,.19-1.84,.4-3.92,1.16-6.13,2.18-3.94,1.75-7.64,4.23-10.96,7.08-3.31,2.85-6.39,6.1-8.53,9.76-.26,.46-.53,.91-.73,1.38-.24,.46-.43,.94-.6,1.41-.2,.47-.28,.94-.43,1.41-.06,.46-.19,.94-.17,1.37-.05,.46,.05,.86,.09,1.29,.14,.48,.22,.97,.41,1.44,.3,.96,.78,1.87,1.29,2.77,2.15,3.58,5.57,6.49,9.23,8.96,4.42,2.96,9.5,5.21,14.74,6.98,5.25,1.77,10.71,3.05,16.17,3.92,6.01,.95,12.11,1.4,18.16,1.08,3.02-.18,6.03-.53,8.95-1.2,2.91-.68,5.77-1.64,8.29-3.12,1.55-.9,2.97-2,4.13-3.31,1.15-1.32,2.01-2.85,2.52-4.51,.27-.83,.41-1.69,.51-2.56,.08-.9,.13-1.84,.15-2.77,.06-1.86,.03-3.75-.02-5.63-.18-5.7-.65-11.43-1.3-17.12-.65-5.69-1.5-11.35-2.58-16.94-1.69-8.67-3.91-17.08-7.03-25.14-.7-1.77-1.45-3.46-2.27-5.17-1.52-3.17-2.7-5.12-3.51-6.48-.37-.72-.7-1.24-.92-1.74-.12-.24-.2-.48-.28-.71-.09-.21-.17-.41-.23-.62-.12-.37-.33-.83-.37-1.11-.06-.47,.53-.31,1.74,.45,1.12,.82,2.79,2.35,4.22,4.7,2.2,3.45,3.85,7.19,5.32,11.02,1.45,3.83,2.66,7.77,3.72,11.77,2.11,8,3.64,16.23,4.8,24.52,.85,6.16,1.49,12.36,1.83,18.61,.16,3.13,.28,6.26,.18,9.45-.02,.79-.06,1.6-.12,2.41-.02,.39-.07,.83-.13,1.27-.05,.44-.11,.88-.22,1.31-.36,1.74-1.03,3.44-1.98,4.96l-.08-.03Z"/>
    <path class="cls-1" d="M466.26,172.31c-1.06-4.39-3.74-8.49-7.44-11.27-1.35-1.02-2.86-1.78-4.41-2.4-2.73-1.1-5.75-1.46-8.67-.93-2.93,.52-5.67,1.96-8.09,3.91-2.13,1.73-3.95,3.88-5.28,6.23-.84,1.51-1.45,3.15-1.78,4.81-.1,.42-.16,.83-.23,1.25-.09,.42-.11,.84-.13,1.27-.05,.43-.04,.85-.01,1.28,.02,.21-.01,.43-.02,.66l.04,.66c.04,1.11-.14,1.06-.79,.21-.34-.42-.8-1.06-1.12-1.94-.16-.44-.26-.93-.37-1.46-.1-.53-.09-1.09-.09-1.69,.19-2.08,.86-4.06,1.75-5.89,.9-1.82,2.05-3.5,3.41-4.98,1.35-1.48,2.86-2.8,4.51-3.94,1.66-1.13,3.52-2.08,5.48-2.65,4.68-1.46,10.1-1.1,14.51,1.16,4.85,2.45,8.63,6.64,10.78,11.53,1.33,3.01,1.96,6.32,1.87,9.6-.21,5.06-2.45,9.76-5.62,13.47l-.95,1.07-1.04,.99-.52,.49-.56,.44-1.14,.88-1.23,.76-.62,.38-.66,.31-1.33,.61-1.4,.44c-.82,.3-1.66,.41-2.52,.56-3.25,.18-4.24-.43-4.75-1.35-.12-.2-.28-.4-.33-.57-.09-.29,.19-.51,.74-.76,.55-.31,1.34-.25,2.32-.49,2.89-.46,5.64-1.36,8-3.09,2.35-1.7,4.44-3.94,5.88-6.61,1.08-1.96,1.84-4.11,2.14-6.29,.29-2.15,.15-4.48-.44-6.65l.08-.03Z"/>
    <path class="cls-1" d="M276.68,146.2c-1.12,2.4-1.43,5.45-1.33,8.43,.06,1.1,.21,2.19,.36,3.29,.21,1.94,.59,3.88,1.03,5.82l.37,1.44c.11,.49,.23,.97,.36,1.41,.28,.9,.65,1.79,1.08,2.65,.76,1.53,1.84,2.9,3.07,4.02,1.58,1.48,3.45,2.44,5.51,3.25,.62,.45,.56,.43-.12,.75-.34,.16-.83,.32-1.43,.35-.59,.05-1.33,.07-2.02-.21-1.22-.48-2.4-1.12-3.44-1.92-1.03-.82-1.9-1.8-2.67-2.83-.77-1.03-1.41-2.14-1.94-3.31-.54-1.14-.94-2.45-1.17-3.6-.62-2.83-1.45-5.73-1.78-8.71-.15-1.64-.27-3.28-.18-4.95,.06-1.66,.26-3.33,.72-4.98,.26-1.02,.67-2.01,1.17-2.97,.13-.24,.29-.47,.44-.7l.23-.35c.08-.13,.23-.26,.35-.39,.25-.26,.49-.53,.74-.78l.83-.57c.2-.18,.42-.2,.64-.29,.22-.05,.42-.19,.65-.18,.49,0,.92,.3,1.2,.65,.58,.7,.82,1.79,.95,2.83,.05,.29,.05,.45,.07,.64l.05,.57,.08,1.12c.05,.74,.1,1.47,.15,2.2,.15,2.26,.69,4.33,1.71,6.09,.23,.38,.44,.75,.69,1.11,.21,.34,.42,.6,.58,.84,.15,.24,.21,.52,.31,.7,.17,.41,.27,.68,.34,.93,.03,.12,.09,.25,.1,.33,.02,.14-.14,.15-.54,.1-.2-.02-.45-.07-.74-.16-.28-.1-.67-.17-1.01-.39-.92-.7-1.81-1.58-2.35-2.63-.58-1.04-.98-2.15-1.26-3.28-.55-2.32-.57-4.48-.78-6.52l-.11-1.03s0-.03,0-.03c0,0,.01-.04,0-.05-.01-.01-.03-.01-.06,0,.05-.1-.19,.29-.34,.51-.17,.24-.29,.56-.44,.84l-.07-.03Z"/>
    <path class="cls-1" d="M281.26,133.21c1.14,4.7,2.56,9.32,4.35,13.8,.66,1.63,1.44,3.21,2.2,4.78,1.34,2.78,2.86,5.49,4.58,8.06,.43,.64,.87,1.28,1.33,1.9,.44,.63,.94,1.2,1.43,1.96,.46,.72,.85,1.54,1.11,2.34l.73,2.25c.9,2.65,1.8,5.32,2.68,7.95,.57,1.69,1.2,3.36,1.73,5.07,.53,1.71,.96,3.45,1.37,5.19,.25,1.09,.04,1-.56,.21-.3-.4-.7-.96-1.17-1.66-.47-.69-.97-1.52-1.39-2.46-.39-.83-.73-1.67-1.04-2.53l-.96-2.55c-.63-1.71-1.25-3.41-1.88-5.12-.57-1.73-1.13-3.46-1.7-5.2-.15-.47-.25-.8-.41-1.15-.15-.35-.33-.69-.54-1.03-.38-.62-1.04-1.41-1.54-2.18-2.56-3.68-5.06-7.62-6.99-11.75-2.14-4.54-3.78-9.28-5.1-14.08-.82-2.95-1.5-5.94-2.16-8.91l-.75-3.36-.28-1.15c-.09-.31-.18-.62-.33-.91-.07-.13-.19-.31-.37-.26-.15,.06-.25,.2-.37,.3-.22,.24-.39,.52-.53,.81-.06,.15-.13,.3-.18,.46-.03,.11-.12,.37-.18,.64-.13,.51-.21,1.05-.28,1.59-.36,3.4,.26,6.83,.81,10.23,.13,.75,.26,1.49,.4,2.25,.11,.71,.2,1.3,.26,1.8,.04,.5,.02,.92,0,1.26-.05,.69-.19,1.11-.4,1.46-.1,.16-.19,.36-.29,.45-.31,.3-.83-.76-1.57-2.78-.83-3.04-1.61-6.25-1.86-9.64-.14-1.69-.18-3.43,0-5.24,.05-.45,.11-.91,.2-1.37,.04-.23,.1-.46,.15-.7l.09-.35,.14-.47c.54-1.58,1.39-2.92,2.38-3.66,.18-.11,.36-.32,.55-.35l.56-.17c.37-.06,.92,.03,1.22,.18,.65,.29,1.25,.97,1.65,2.1,.39,1.03,.76,2.59,.85,2.94l.42,1.83c.54,2.42,1.07,4.81,1.68,7.18l-.06,.02Z"/>
    <path class="cls-1" d="M290.65,186.74l.89,3.46c.11,.42,.29,.82,.39,1.24,.35,1.49,.7,2.98,1.05,4.47,.15,.66,.35,1.31,.57,1.94,.13,.41,.32,.8,.41,1.23,.08,.43,.13,.86,.11,1.32-.09,.31-.32,.34-.79,.26-.46-.09-1.08-.33-1.38-.75-.8-1.58-1.33-3.25-1.55-5.03-.14-1.06-.6-2.07-.91-3.11l-.98-3.43c-.21-.7-.4-1.41-.63-2.1-.32-1.06-.62-2.13-1.03-3.15-.32-.79-.78-1.51-1.17-2.26-.08-.17-.19-.32-.26-.49-.13-.32-.18-.54-.12-.74,.08-.2,.24-.37,.48-.55,.11-.08,.21-.17,.31-.23,.18-.11,.37-.13,.6-.09,.24,.04,.49,.16,.65,.37,1.07,1.22,1.68,2.72,2.27,4.22,.43,1.12,.8,2.26,1.14,3.42l-.06,.02Z"/>
    <path class="cls-1" d="M296.15,200.74c-2.68,.75-5.44,1.23-8.23,1.33-1.02,.05-2.04,.1-3.07,.01-.91-.06-1.82-.2-2.73-.42-.93-.24-1.8-.49-2.81-1.18-.55-.41-1.01-.98-1.11-1.65-.02-.34-.08-.67,.01-1.01l.09-.5,.16-.39c.44-.99,1.08-1.72,1.75-2.37,1.2-1.13,2.54-2.03,3.96-2.76,.9-.49,1.88-.83,2.88-1.07l.76-.14c.26-.02,.52,0,.78,0,.52,0,1.03,.07,1.53,.17,.63,.12,.52,.3,.04,.66-.24,.2-.58,.4-.95,.72-.19,.15-.38,.31-.59,.46-.1,.08-.21,.14-.31,.25-.11,.05-.23,.1-.34,.14-1.65,.61-3.25,1.36-4.68,2.34-.7,.5-1.35,1.06-1.86,1.65-.13,.15-.26,.29-.34,.44-.11,.15-.2,.29-.26,.42-.09,.16-.11,.17-.13,.22-.02,.05-.05,.11-.04,.17,.02,.17,.03,.24,.52,.5,.42,.2,.93,.37,1.47,.47,1.07,.22,2.23,.3,3.38,.3,2.53,0,5.11-.35,7.61-1.01,1.54-.41,3.06-.91,4.53-1.54,2.22-.96,4.4-2.1,6.35-3.53,1.52-1.11,2.81-2.43,4.07-3.77,.27-.3,.51-.63,.81-.9,1.07-1.06,1.66-1.17,2.39-.95,.17,.05,.35,.09,.5,.16,.47,.23,.39,1.02-.18,2.11-.95,1.52-2.22,2.85-3.61,4.08-1.39,1.23-2.92,2.35-4.57,3.29-2.43,1.42-5.06,2.51-7.74,3.35l-.03-.07Z"/>
    <path class="cls-1" d="M302.24,283.24c-3.41-6.48-6.12-13.1-8.8-19.77-.98-2.43-1.97-4.85-2.91-7.3-3.19-8.66-6.05-17.43-8.56-26.32-.54-1.98-1.09-3.96-1.63-5.93-.56-1.97-.99-3.98-1.5-5.95-.34-1.26-.57-2.56-.85-3.84-.25-1.29-.58-2.56-.74-3.88-.36-2.61-.72-5.26-.26-7.93,.36-1.65,.35-1.4,.99-.05,.31,.68,.83,1.61,1.15,2.73,.32,1.12,.92,2.41,1.08,3.86,.1,.64,.18,1.28,.31,1.92l.4,1.92c.28,1.28,.52,2.56,.81,3.83l.95,3.82,.46,1.91,.5,1.91,.99,3.83c.33,1.28,.71,2.55,1.06,3.82,.69,2.56,1.44,5.11,2.18,7.67,1.78,6.12,4.18,12.32,6.53,18.4,2.58,6.69,5.27,13.36,8.34,19.81l1.44,2.96,1.55,2.88,.85,1.33c.27,.44,.57,.89,.93,1.32l2.02,2.63c4.1,5.28,8.29,10.55,12.86,15.35,3.51,3.77,7.41,6.99,11.07,10.68,.8,.81,1.6,1.6,2.37,2.46,1.42,1.59,2.29,2.7,2.78,3.57,.47,.88,.58,1.52,.56,2.11,0,.26,.05,.57,.01,.75-.06,.3-.43,.17-1.14-.24-.73-.39-1.61-1.21-2.66-2.32-3.07-3.33-6.4-6.45-9.9-9.74-3.49-3.29-6.87-6.89-10.05-10.59-2.38-2.75-4.65-5.58-6.9-8.43l-3.33-4.31c-.56-.67-1.1-1.55-1.64-2.37l-.4-.62-.34-.61-.67-1.22,.06-.04Z"/>
    <path class="cls-1" d="M327.53,229.01c1.58,4.91,3.2,9.81,4.92,14.69l1.95,5.31,2.02,5.74,.09,.1,.28,.27,.6,.58,1.22,1.16,2.47,2.28c1.66,1.5,3.38,2.95,5.11,4.38,2.26,1.86,4.65,3.59,7.1,5.12,1.59,.95,3.18,1.9,4.84,2.68,1.65,.77,3.38,1.45,5.15,1.43,1.05-.12,1.06,.09,.09,.59-.97,.45-3.09,.64-5.3-.01-3.92-1.14-7.3-3.27-10.52-5.47-1.61-1.12-3.19-2.28-4.69-3.53-1.5-1.26-2.96-2.56-4.39-3.9-1.44-1.34-2.91-2.71-4.39-4.09-.56-1.42-1.13-2.85-1.69-4.28-.52-1.34-1.04-2.68-1.53-4.02-1.79-4.91-3.48-9.85-5.13-14.81-1.01-3.05-2-6.11-2.97-9.18-1.49-4.64-2.85-9.34-4.24-13.97-1.04-3.62-2.29-7.1-3.14-10.75-.19-.8-.4-1.58-.57-2.4-.33-1.5-.41-2.54-.39-3.26,.08-.74,.24-1.18,.49-1.55,.11-.17,.21-.38,.32-.49,.19-.18,.43,.03,.74,.54,.31,.51,.75,1.3,1.01,2.37,.9,3.16,2.03,6.34,2.93,9.64,.97,3.28,1.95,6.61,2.97,9.95,1.52,4.95,3.06,9.93,4.72,14.86l-.07,.03Z"/>
    <path class="cls-1" d="M447.87,415.44c4.18-2.05,7.26-6.24,9.23-10.86,1.98-4.66,3.04-9.79,3.52-14.96,.34-3.79,.29-7.61,.09-11.43-.71-13.47-4.03-26.87-9.24-39.44-1.17-2.79-2.41-5.56-3.76-8.27-1.36-2.71-2.8-5.37-4.31-7.96-1.91-3.36-3.98-6.62-6.14-9.84-1.08-1.61-2.16-3.21-3.28-4.79-1.13-1.57-2.15-3.23-3.3-4.8-1.37-2-1.13-1.79,.42-.4,.78,.69,1.87,1.68,3.2,2.89,1.28,1.25,2.69,2.8,4.09,4.58,9.96,12.59,17.29,27.33,21.44,43.02,2.5,9.36,4.43,19.36,4.47,29.36,.02,5.48-.47,11-1.77,16.39-1.32,5.35-3.45,10.7-7.24,15.01-2.31,2.63-5.37,4.76-8.83,5.72-1.72,.49-3.5,.7-5.27,.67l-1.32-.07c-.44-.03-.84-.11-1.27-.16l-2.51-.34c-5.05-.81-10.03-2.23-14.68-4.4-4.63-2.18-8.95-4.97-12.87-8.16-6.08-4.99-11.28-10.78-15.68-17.17-.49-.7-.97-1.4-1.45-2.09-.45-.72-.9-1.43-1.36-2.16-3.25-5.5-3.66-7.57-3.75-9.04,0-.34-.06-.77-.01-.99,.17-.76,1.68,1.36,4.28,5.13,3.73,5.65,7.63,11.37,12.4,16.42,4.74,5.04,10.06,9.66,16.13,13.02,4.48,2.55,9.37,4.32,14.41,5.41,.63,.14,1.26,.3,1.89,.42l1.92,.26c1.26,.15,2.62,.41,3.76,.42,1.18,.02,2.35-.08,3.48-.31,1.13-.25,2.22-.64,3.26-1.15l.05,.07Z"/>
    <path class="cls-1" d="M430.37,368.94c.83,1.23,1.74,2.42,2.73,3.55,.37,.4,.8,.75,1.17,1.16,1.33,1.41,2.75,2.78,4.29,4.01,.69,.54,1.42,1.04,2.16,1.49,.97,.56,1.95,1.09,2.7,2.06,.15,.44,.06,.51-.44,.77-.26,.14-.56,.24-.91,.33-.35,.09-.72,.11-1.04,0-2.23-.87-4.19-2.31-5.87-4.07-1-1.06-2.24-1.9-3.28-2.95-1.16-1.13-2.21-2.38-3.21-3.66-.59-.8-1.18-1.61-1.72-2.45-.41-.63-.82-1.26-1.18-1.92-.38-.65-.76-1.29-1.12-1.95-.62-.98-1.23-1.95-1.78-2.97-.12-.23-.2-.46-.28-.7-.27-.91-.15-1.28,.31-1.66,.1-.09,.2-.19,.31-.25,.34-.22,.86-.01,1.35,.5,1.48,1.49,2.41,3.21,3.43,4.93,.39,.63,.76,1.28,1.18,1.89,.39,.63,.82,1.24,1.27,1.84l-.06,.05Z"/>
    <path class="cls-1" d="M391.5,372.22c2.56-.08,5.4-.9,8.05-1.96,.98-.39,1.9-.89,2.85-1.35,3.37-1.58,6.61-3.54,9.59-5.83,1.32-1.03,2.52-2.2,3.65-3.41,1.44-1.58,2.57-3.33,4.25-4.75,.61-.39,.69-.25,.8,.5,.06,.38,.07,.89,.04,1.49-.07,.57-.28,1.17-.62,1.74-.6,1.01-1.41,1.85-2.17,2.73-.78,.85-1.6,1.67-2.46,2.44-1.72,1.54-3.57,2.92-5.56,4.1-2.37,1.39-4.73,3-7.29,4.2-2.8,1.31-5.72,2.42-8.86,2.97-.97,.17-1.96,.28-2.99,.24-1.02-.03-2.12-.14-3.2-.77-.82-.48-1.48-1.39-1.66-2.33l-.09-.69c0-.22,.02-.43,.04-.64,.01-.44,.14-.81,.23-1.21,.45-1.52,1.21-2.78,1.99-4,1.24-1.87,2.51-3.65,4.03-5.28,.33-.36,.68-.7,1.05-1.03,1.42-1.2,2.17-1.31,2.83-.95,.15,.08,.31,.15,.41,.24,.17,.16,.13,.42,0,.73-.14,.31-.4,.73-.81,1.17-.6,.66-1.16,1.41-1.76,2.13-.59,.72-1.17,1.46-1.72,2.22-1.1,1.51-2.16,3.11-2.78,4.66-.52,1.14-.41,2.2-.3,2.11,.04,.06,.28,.21,.74,.33,.49,.09,1.06,.16,1.7,.11v.08Z"/>
    <path class="cls-1" d="M331.78,385.7c.81-5.22,1.74-10.42,2.71-15.6,.36-1.89,.64-3.79,1.01-5.68,1.34-6.65,2.76-13.27,4.2-19.88,.63-2.94,1.18-5.9,1.71-8.83,.31-1.89,.7-3.76,1.11-5.64,.44-1.87,.93-3.73,1.42-5.58,.32-1.16,.41-.98,.49,.06,.06,1.03,.27,2.95,.2,5.18-.07,.98-.18,1.95-.27,2.93l-.14,1.47-.23,1.45c-.33,1.93-.67,3.86-1,5.79-.71,3.85-1.44,7.7-2.33,11.54-1.06,4.59-1.79,9.44-2.64,14.17-.95,5.21-1.83,10.42-2.68,15.64-.5,3.22-1,6.43-1.42,9.66-.64,4.89-1.26,9.8-1.61,14.68-.13,1.9-.26,3.78-.28,5.65-.03,1.88-.07,3.75-.17,5.62-.03,.83-.01,1.64-.09,2.47-.24,3.08-.51,4.06-1.17,4.7-.15,.15-.3,.34-.44,.43-.47,.28-.84-.99-1.03-3.28-.69-6.8-.07-13.94,.59-21.07,.26-2.65,.55-5.3,.91-7.95,.32-2.65,.71-5.29,1.09-7.93h.08Z"/>
    <path class="cls-1" d="M426.93,427.88l-.46,3.27c-.05,.4-.01,.8-.07,1.2-.24,1.4-.55,2.8-.75,4.2-.09,.62-.11,1.25-.14,1.87-.03,.79,0,1.6-.29,2.38-.09,.24-.56,.2-1.04-.03-.48-.23-1-.63-1.07-1.09-.09-.82-.19-1.63-.16-2.44,.05-.81,.15-1.62,.34-2.44,.24-.97,.08-2,.18-3l.35-3.3c.07-.68,.15-1.35,.21-2.03,.09-1.02,.21-2.05,.21-3.07,.01-.79-.15-1.57-.23-2.36-.02-.17-.02-.34,0-.52,.03-.32,.14-.53,.33-.67,.18-.14,.39-.22,.68-.28,.13-.03,.26-.06,.38-.08,.4-.05,.8,.23,1.15,.71,.15,.35,.38,.72,.45,1.08,.08,.36,.15,.73,.2,1.09,.1,.73,.13,1.47,.08,2.21-.05,1.1-.18,2.2-.27,3.3h-.08Z"/>
    <path class="cls-1" d="M365.7,223.29c-.9-.69-1.62-1.7-1.71-3.04-.04-.67,.16-1.35,.42-1.82,.26-.49,.56-.84,.81-1.15,.37-.45,.7-.93,1.1-1.35,1.42-1.49,2.99-2.81,4.62-4.01,.73-.52,1.46-1.04,2.19-1.56,.91-.69,1.94-1.23,3.06-1.53,.35-.09,.44,.18,.34,.61-.1,.43-.34,1.08-.79,1.53-1.67,1.46-3.35,2.76-5.17,4.05-1.08,.78-1.93,1.89-2.79,2.92-.46,.56-1.01,1.2-1.22,1.61-.11,.22-.15,.37-.15,.57,.01,.2,.08,.43,.22,.65,.33,.56,.99,.94,1.82,1.13,1.27,.27,2.75,.4,4.12,.35,1.08-.04,2.13-.29,3.16-.53,.23-.05,.45-.14,.68-.15,.87-.07,1.17,.05,1.47,.58,.07,.12,.15,.22,.2,.33,.16,.34-.12,.85-.76,1.17-.94,.55-2,.72-3.06,.88-1.07,.14-2.17,.17-3.27,.13-.83-.04-1.6-.1-2.48-.25-.88-.15-1.89-.4-2.85-1.07l.03-.05Z"/>
    <path class="cls-1" d="M373.32,238.13c1.57,1.3,3.5,1.74,5.5,1.42,1.84-.29,3.51-1.38,4.5-2.96,.42-.67,.16-1.68-.54-2.05-.74-.39-1.61-.17-2.05,.54-.05,.08-.11,.16-.16,.24-.15,.22,.16-.16,.03-.04-.12,.11-.21,.24-.32,.35-.06,.06-.11,.11-.17,.16-.04,.03-.07,.06-.11,.09-.09,.07-.05,.04,.12-.09-.03-.01-.35,.24-.39,.27-.14,.08-.27,.16-.42,.23-.04,.02-.09,.04-.13,.06-.1,.05-.06,.03,.14-.06-.04-.01-.19,.07-.22,.09-.32,.11-.64,.19-.97,.26-.27,.06,.26-.02,.07,0-.08,0-.16,.02-.24,.02-.16,.01-.32,.01-.48,.01-.18,0-.35-.02-.53-.03-.19-.01,.34,.06,.07,0-.08-.02-.16-.03-.23-.05-.17-.04-.34-.08-.5-.14-.07-.03-.15-.06-.22-.08-.17-.06,.29,.15,.05,.02-.14-.07-.28-.14-.42-.23-.08-.05-.16-.11-.24-.16-.24-.16,.24,.2,0,0-.6-.5-1.54-.64-2.12,0-.51,.55-.65,1.59,0,2.12h0Z"/>
    <path class="cls-1" d="M393.15,204.63c-3.41-.5-6.77-.3-10.19-.05-.78,.06-1.54,.65-1.5,1.5,.03,.76,.66,1.56,1.5,1.5,3.11-.23,6.35-.5,9.39-.05,.77,.11,1.65-.19,1.85-1.05,.16-.71-.22-1.72-1.05-1.85h0Z"/>
    <path class="cls-1" d="M378.05,203.41c-1.43-.61-2.83-1.29-4.27-1.86-1.46-.58-2.96-.95-4.53-1.09-.78-.07-1.53,.74-1.5,1.5,.04,.87,.66,1.43,1.5,1.5,.06,0,.64,.07,.32,.03,.19,.03,.37,.06,.56,.09,.32,.06,.63,.13,.94,.22,.65,.17,1.29,.4,1.92,.64,.17,.07,.33,.13,.5,.2-.29-.12,.11,.05,.14,.06,.33,.15,.66,.29,1,.44,.64,.29,1.28,.58,1.92,.85,.72,.31,1.64,.24,2.05-.54,.34-.64,.23-1.72-.54-2.05h0Z"/>
    <path class="cls-1" d="M364.81,280.24c.22,1.24-.25,2.37-.93,3.13-.25,.28-.49,.58-.83,.77-.59,.34-1.31,.52-2.02,.41-.72-.09-1.36-.51-1.74-.99-.18-.21-.32-.44-.46-.67-.11-.24-.19-.5-.24-.76-.15-.63-.04-1.51,.61-1.92,.2-.13,.38,.15,.58,.46,.18,.32,.52,.61,.6,.69,.1,.19,.32,.35,.43,.49,.07,.18,.13,.33,.21,.49,.18,.22,.51,0,.79-.2,.33-.23,.6-.64,.64-1.03,.04-.24-.03-.52-.11-.63-.06-.08-.09-.13-.23-.13-.12,0-.34,.08-.46,.22-.18,.22-.15,.56-.15,.96,0,.09,.03,.18,.02,.27-.1,.34-.29,.47-.84,.52-.13,.01-.25,.03-.37,.04-.4,.01-.75-.17-.94-.51-.29-.52-.31-1.15-.1-1.92,.21-.85,1.01-1.6,1.9-1.9,.36-.12,.78-.19,1.23-.14,.45,.04,.92,.22,1.28,.49,.74,.55,1.04,1.26,1.18,1.86l-.06,.02Z"/>
    <path class="cls-1" d="M368.41,295.59c-.53,.28-1.11,.45-1.73,.45-.65,0-1.23-.19-1.7-.45-.35-.2-.69-.38-.94-.66-.82-1.02-.99-2.37-.72-3.4,.13-.46,.28-.88,.47-1.28,.23-.5,.52-1.01,1.06-1.23,.17-.07,.43,.24,.66,.61,.22,.37,.48,.81,.44,1-.08,.35-.11,.67-.12,.93,.02,.25-.13,.46-.2,.69-.11,.33,.24,.55,.39,.72,.09,.11,.19,.19,.29,.25,.08,.06,.19,.09,.35,.07,.18-.02,.4-.11,.52-.25,.2-.21,.28-.43,.1-.59-.16-.16-.5,0-.57,0-.02,.01-.03,.03-.03,.03,.01-.03-.15-.32-.56-.65-.09-.08-.2-.15-.29-.23-.16-.12-.27-.27-.3-.47-.04-.21,0-.48,.21-.74,.32-.32,.75-.52,1.2-.62,.45-.11,.92-.1,1.32,.09,.8,.31,1.61,1.05,1.87,2.21,.17,.83,0,1.6-.35,2.21-.34,.61-.81,1.05-1.33,1.37l-.04-.06Z"/>
    <path class="cls-1" d="M378.27,298.97c-.93,.68-1.95,.68-2.8,.48-.31-.07-.64-.14-.93-.32-.51-.31-.94-.83-1.09-1.34-.19-.51-.22-1.01-.17-1.47,.04-.41,.11-.79,.23-1.15,.14-.46,.38-.92,.83-1.16,.14-.08,.3,.12,.44,.37,.13,.25,.31,.56,.31,.74-.05,.64,.14,1.1,.12,1.49,0,.13,.11,.23,.17,.27,.07,.05,.16,.08,.27,.13,.23,.11,.57,.14,.82,.08,.16-.04,.29-.09,.37-.21,.11-.1,.14-.4-.08-.65-.16-.2-.46-.21-.57-.16-.02,.01-.04,.04-.05,.01-.04-.09-.18-.3-.44-.61l-.18-.21c-.18-.2-.25-.56,.1-.95,.14-.13,.3-.23,.48-.32,.18-.08,.37-.09,.56-.11,.37,0,.74,.06,1.07,.19,.65,.27,1.24,.74,1.52,1.5,.22,.54,.3,1.24,.1,1.91-.2,.67-.57,1.14-1.03,1.53l-.04-.05Z"/>
    <path class="cls-1" d="M393.16,290.29c-.08,.2-.17,.39-.28,.57-.1,.18-.2,.32-.36,.53-.28,.38-.64,.7-1.02,.92-.28,.16-.57,.33-.9,.37-1.12,.16-2.25-.46-2.74-1.38l-.05-.13c-.08-.23-.21-.43-.2-.68-.04-.23-.08-.46-.08-.69-.02-.15,.02-.3,.04-.44,.02-.13,.04-.25,.09-.37,.09-.24,.24-.46,.47-.61,.15-.09,.42,.17,.71,.46,.27,.29,.63,.57,.67,.67,.02,.06,.05,.13,.06,.17,0,0,0,0-.02,0-.01,0-.06,.04-.07,.08-.05,.08-.06,.15-.05,.28,.05,.26,.26,.19,.4,.19,.09,0,.2-.03,.29-.08,.09-.05,.18-.12,.27-.3,.1-.18,.18-.38,.2-.56,.02-.14,.02-.26,0-.35-.03-.1-.08-.17-.1-.14-.03,0-.1,.05-.14,.12-.06,.06,.01,.24-.08,0-.03-.06-.07-.12-.11-.17-.07-.08-.1-.08-.08-.07,0,0,0,0,.01,0,.03,0-.05-.01-.12-.02-.07-.01-.14-.02-.23-.04-.15-.02-.3-.02-.45-.03-.25-.01-.48-.05-.66-.21-.18-.15-.3-.44-.21-.76,.13-.48,.44-.9,.8-1.18,.36-.29,.79-.38,1.21-.42,.43-.03,.89,.05,1.36,.27,.23,.11,.46,.27,.67,.46,.2,.19,.31,.33,.44,.52,.37,.54,.51,1.14,.53,1.65,.03,.52-.08,.97-.21,1.38l-.07-.02Z"/>
    <g>
      <path class="cls-1" d="M373.32,212.92c-.56,2-1.77,3.67-3.37,4.85-.58,.43-1.21,.83-1.91,1.06-.61,.23-1.26,.32-1.9,.36-.74,.02-1.42-.16-1.99-.41-1.16-.49-2.11-1.23-2.94-2.09-.74-.76-1.34-1.68-1.7-2.7-.18-.66-.37-1.37-.2-2.06,.04-.35,.17-.67,.31-.98,.11-.32,.33-.59,.5-.86,.24-.33,.26-.24,.24,.11,0,.18-.03,.42-.02,.7,.05,.29,.05,.6,.11,.91,.05,.28,.1,.54,.18,.79,.04,.25,.13,.5,.24,.73,.2,.48,.51,.92,.85,1.33,.68,.84,1.51,1.65,2.49,2.23,.57,.35,1.26,.58,1.77,.5,.67-.06,1.31-.3,1.9-.62,1.32-.69,2.4-1.94,3-3.37,.37-.87,.55-1.85,.42-2.73-.1-.67-.34-1.3-.79-1.8-.45-.5-1.06-.86-1.73-1.06-.52-.17-1.08-.16-1.6-.13-.53,.08-1.04,.23-1.51,.4-.22,.06-.4,.18-.6,.27-.73,.35-.98,.42-1.53,.14-.12-.06-.26-.11-.38-.18-.19-.12-.28-.31-.23-.57,.05-.26,.2-.62,.54-.93,.98-.96,2.37-1.6,3.83-1.59,1.44-.03,2.98,.37,4.24,1.37,.94,.74,1.64,1.86,1.9,3.01,.27,1.16,.2,2.29-.06,3.3h-.05Z"/>
      <path class="cls-1" d="M388.04,221.88c-1.15,.54-2.39,.9-3.71,.97-1.3,.07-2.74-.21-3.93-1.01-.73-.54-1.53-1.07-2.08-1.9-.96-1.28-1.27-2.98-1.12-4.44,.07-.74,.26-1.43,.5-2.09,.12-.33,.25-.65,.4-.96l.19-.41,.11-.2,.15-.27c-.06-.12-.22-.16-.35-.23l-.5-.18c-.56-.2-1.13-.37-1.71-.51-1.49-.34-3.01-.56-4.53-.45-.47,.05-.46-.08-.09-.36,.37-.26,1.15-.67,2.11-.77,1.24-.12,2.47-.08,3.7,.09,.31,.04,.61,.09,.92,.15l.23,.05s.06,.03,.14,.01l.2,.07c.27,.1,.55,.18,.81,.29,.54,.2,.99,.5,1.17,.87,.05,.46,.3,.75-.02,1.3-.22,.54-.45,1.08-.67,1.62-.14,.37-.26,.74-.37,1.12-.23,.8-.28,1.65-.08,2.4,.2,.75,.63,1.4,1.21,1.97,.3,.32,.71,.6,1.07,.84,.19,.08,.35,.21,.55,.27,.2,.05,.4,.14,.61,.17,.85,.17,1.82,.1,2.74-.18,1.14-.33,2.25-.92,3.12-1.75,.67-.61,1.2-1.35,1.45-2.16,.24-.81,.21-1.68-.21-2.41-.67-1.17-1.98-1.93-3.27-2.37-.29-.1-.58-.15-.87-.23-1.09-.22-1.39-.38-1.67-.9-.06-.12-.15-.24-.2-.35-.17-.37,.38-.83,1.49-.85,1.6,.05,3.19,.57,4.6,1.57,.7,.5,1.37,1.14,1.89,1.99,.26,.42,.47,.9,.61,1.42,.1,.51,.19,1.03,.16,1.55-.05,1.56-.75,2.93-1.61,3.96-.89,1.04-1.96,1.8-3.11,2.38l-.03-.05Z"/>
      <path class="cls-1" d="M402.79,213.44c1.56,.29,3.12,.57,4.7,.78,.58,.08,1.16,.09,1.73,.16,2.03,.28,4.06,.66,6.11,.88,.91,.12,1.82,.11,2.73,.2,.58,.04,1.16,.07,1.74,.13,.58,.08,1.16,.23,1.74,.37,.36,.1,.31,.21,0,.41-.31,.19-.89,.57-1.56,.76-2.39,.41-4.78,.33-7.18,.02-1.43-.19-2.94-.13-4.41-.27-1.62-.15-3.23-.34-4.84-.56-.99-.13-1.98-.28-2.97-.43-1.5-.23-2.99-.53-4.49-.74-1.16-.17-2.33-.19-3.5-.31-.26-.02-.52-.02-.77-.1-.46-.14-.76-.26-.93-.48-.16-.29-.22-.54-.25-.84-.01-.14-.04-.27-.04-.38,0-.2,.12-.35,.34-.52,.22-.16,.56-.45,.9-.42,1.06-.15,2.08-.01,3.12,.09,1.04,.11,2.08,.28,3.13,.43,1.56,.25,3.14,.49,4.71,.74v.07Z"/>
    </g>
    <path class="cls-1" d="M420.1,246.49c-1.16,.58-2.64,.7-3.84,.35-1.23-.33-2.24-1.01-3.05-1.85-.58-.62-1.13-1.3-1.44-2.13-.56-1.5-.45-3.03,0-4.36,.45-1.33,1.23-2.47,2.17-3.4,.83-.82,1.77-1.55,2.83-2.02,.68-.29,1.39-.58,2.16-.61,.76-.06,1.54,.07,2.23,.38,.43,.21,.24,.49-.16,.8-.42,.3-.99,.79-1.53,1.04-.49,.24-.97,.44-1.43,.7-.46,.26-.88,.6-1.3,.89-.84,.63-1.58,1.44-2.12,2.38-.32,.56-.47,1.22-.43,1.84,.02,.65,.18,1.18,.49,1.73,.64,1.2,2.03,2.14,3.32,1.99,.8-.08,1.6-.56,2.19-1.31,.91-1.13,1.44-2.73,1.42-4.27,0-1.21-.52-2.24-1.15-3.02-.14-.17-.31-.31-.47-.47-.61-.5-.69-.87-.74-1.41,0-.13-.04-.26-.04-.37-.02-.35,.57-.67,1.6-.39,.7,.29,1.34,.74,1.89,1.31,.55,.56,.99,1.28,1.22,2.04,.49,1.51,.46,3.07,.18,4.5-.21,1.1-.62,2.16-1.24,3.17-.62,.99-1.52,1.94-2.72,2.55l-.04-.06Z"/>
    <path class="cls-1" d="M384.28,215.42c-.16,.09-.33,.18-.48,.28-.06,.04-.1,.09-.16,.12-.2,.13-.43,.23-.63,.37-.09,.06-.16,.14-.24,.21-.09,.1-.17,.21-.31,.27-.08,.04-.3-.3-.22-.45,.16-.24,.34-.47,.59-.63,.15-.1,.25-.25,.39-.36,.15-.12,.31-.23,.48-.34,.1-.07,.2-.14,.3-.2,.15-.1,.32-.18,.46-.29,.11-.08,.19-.21,.31-.29,.02-.02,.05-.04,.07-.05,.1-.05,.16-.03,.26,.09l.07,.08c.07,.09,.08,.2,.05,.29-.1,.29-.28,.45-.47,.6-.14,.12-.3,.21-.46,.31h-.01Z"/>
    <path class="cls-1" d="M386.13,216.77c-.12,.04-.24,.08-.37,.11-.05,.01-.08,.05-.13,.06-.17,.04-.33,.08-.49,.13-.07,.02-.13,.06-.18,.11-.07,.05-.13,.13-.24,.12-.07,0-.28-.43-.21-.52,.12-.14,.26-.26,.45-.31,.11-.03,.18-.13,.28-.2,.1-.07,.21-.13,.33-.18,.07-.03,.15-.07,.21-.1,.11-.06,.2-.11,.31-.17,.07-.05,.12-.14,.18-.2,.01-.01,.02-.03,.04-.05,.06-.04,.11-.01,.23,.13l.08,.1c.09,.11,.13,.22,.12,.3-.04,.22-.13,.39-.24,.51-.1,.07-.22,.12-.34,.17v-.02Z"/>
    <path class="cls-1" d="M364.53,212.41c-.12,.07-.24,.14-.35,.2-.04,.02-.06,.07-.11,.09-.17,.07-.34,.13-.49,.22-.07,.04-.12,.09-.16,.15-.06,.07-.09,.17-.22,.18-.08,0-.55-.53-.51-.64,.09-.17,.21-.32,.42-.39,.12-.04,.16-.17,.24-.25,.1-.07,.21-.15,.32-.23,.07-.05,.13-.09,.19-.14,.1-.07,.19-.15,.27-.24,.06-.07,.07-.18,.11-.27,0-.02,.01-.04,.02-.06,.05-.06,.11-.03,.31,.13l.13,.11c.15,.12,.24,.26,.25,.34,.03,.25-.02,.43-.13,.57-.09,.09-.2,.17-.3,.25l-.02-.02Z"/>
  </g>
  <path class="cls-1" d="M285.25,102.64c-.1,.33-.46,.42-.93,.41-.15,0-.45-.22-.45-.33,0-.22,0-.44,.03-.65,.03-.12,.69-1.86,.87-2.48,.16-.61,.47-1.13,.76-1.65,.61-1.05,1.17-2.15,1.8-3.19,.14-.23,.31-.44,.51-.64,.67-.67,1.18-1.44,1.63-2.26,.08-.14,.18-.26,.17-.44-.01-.3,1.33-2.43,1.58-2.66,.64-.61,1.2-1.15,1.79-1.73,.09-.08,.12-.2,.29-.22,.38-.04,.48-.27,.65-.46,.23-.26,.47-.52,.75-.75,.14-.11,.36-.17,.55-.24,.18-.07,.45,.21,.46,.28,.02,.2,.24,.19,.38,.27,.05,.03,.11,.06,.14,.09,.05,.05-.35,2.17-.46,2.36-.01,.02-.35,.69-.7,1.39-.33,.71-.76,1.4-.82,1.56-.07,.16-.23,.27-.36,.39-.06,.06-1.16,2.12-1.22,2.19-.3,.38-.48,.84-.96,1.1-.09,.05-.14,.14-.19,.22-.43,.71-.97,1.35-1.49,1.99-.28,.32-.5,.69-.75,1.03-.05,.06-.12,.1-.18,.16-.07,.07-.16,.13-.21,.21-.58,.82-1.24,1.59-1.8,2.42-.14,.19-1.03,.92-1.17,1.15-.08,.12-.64,.34-.67,.48Z"/>
  <path class="cls-1" d="M273.13,89.68c.06,.3-.24,.5-.7,.64-.15,.05-.55-.03-.61-.12-.1-.18-.2-.36-.28-.54-.02-.05-.07-.49-.13-.98-.03-.49-.07-1.03-.09-1.31-.05-.54-.02-1.06,.04-1.59,.09-1.07,.23-2.13,.38-3.21,.03-.24,.1-.47,.19-.7,.32-.78,.47-1.59,.57-2.4,.02-.14,.06-.27-.01-.42-.12-.25,.3-2.43,.44-2.69,.34-.71,.64-1.32,.95-1.97,.05-.09,.03-.21,.17-.27,.32-.14,.32-.37,.41-.57,.11-.29,.23-.57,.4-.84,.1-.13,.3-.24,.45-.35,.14-.1,.46,.05,.49,.1,.08,.16,.27,.09,.42,.11,.05,0,.12,.02,.15,.03,.11,.04,.51,1.92,.44,2.1,0,.04-.32,2.55-.36,2.86,0,.15-.11,.28-.18,.42-.04,.07-.28,2.07-.3,2.15-.12,.4-.12,.82-.43,1.18-.06,.07-.07,.16-.08,.24-.11,.71-.34,1.39-.53,2.08-.1,.36-.14,.72-.2,1.08-.01,.07-.06,.12-.09,.19-.03,.08-.08,.16-.09,.24-.15,.86-.44,1.7-.52,2.57-.03,.2-.43,1.11-.47,1.34-.02,.13-.45,.49-.42,.62Z"/>
  <g class="cls-6">
    <path class="cls-1" d="M259.88,94.26c.23,.09,.1,.4-.23,.82-.11,.13-.52,.41-.61,.4-.18-.01-.36-.03-.51-.07-.09-.03-1-.77-1.35-.99-.33-.22-.59-.49-.84-.77-.51-.56-1.05-1.11-1.54-1.73-.11-.14-.2-.3-.26-.47-.21-.61-.58-1.12-.97-1.63-.07-.08-.11-.18-.25-.22-.11-.03-.41-.41-.66-.83-.25-.42-.4-.87-.42-.99-.03-.58-.15-1.12-.18-1.68,0-.08-.06-.14,.03-.26,.2-.26,.11-.39,.08-.55-.04-.22-.07-.45-.06-.69,0-.12,.1-.27,.16-.42,.06-.13,.4-.21,.45-.19,.14,.05,.26-.09,.39-.15,.04-.02,.1-.05,.14-.06,.07-.01,1.26,.84,1.35,.94,.07,.01,1.02,1.53,1.18,1.65,.07,.08,.06,.2,.07,.31,.02,.05,.83,1.13,.87,1.16,.11,.25,.34,.43,.28,.8-.01,.07,.03,.11,.06,.16,.3,.38,.51,.84,.76,1.3,.13,.23,.32,.42,.46,.65,.03,.04,.02,.1,.04,.15,.02,.06,.03,.13,.06,.18,.38,.52,.63,1.13,1.06,1.61,.1,.12,.27,.86,.39,.98,.06,.07-.06,.54,.04,.57Z"/>
  </g>
  <path class="cls-4" d="M121.35,91.23c0,6.67-10.67,4.13-7.6-1.99,1.88-3.74,7.6-2.18,7.6,1.99Z"/>
  <path class="cls-5" d="M281.67,268.27c0,6.67-10.67,4.13-7.6-1.99,1.88-3.74,7.6-2.18,7.6,1.99Z"/>
  <path class="cls-3" d="M143.9,72.44c0,4.28-6.84,2.65-4.87-1.28,1.2-2.4,4.87-1.39,4.87,1.28Z"/>
  <path class="cls-4" d="M415.38,115.46c0,6.67-10.67,4.13-7.6-1.99,1.88-3.74,7.6-2.18,7.6,1.99Z"/>
  <path class="cls-3" d="M391.19,92.98c0,4.28-6.84,2.65-4.87-1.28,1.2-2.4,4.87-1.39,4.87,1.28Z"/>
  <path class="cls-4" d="M339.93,152.78c0,4.28-6.84,2.65-4.87-1.28,1.2-2.4,4.87-1.39,4.87,1.28Z"/>
  <g>
    <path class="cls-2" d="M152.37,342.82s11.68-8.3,14.44-7.47c2.76,.82,5.92,21.27,5.92,21.27l-10.55,5.09-2.64-7.06-7.59-3.93,.42-7.9Z"/>
    <path class="cls-2" d="M167.14,330.52c-.05-.46,1.44-13.53-2.7-18.2,0,0-5.42,19.72-8.35,21.83-2.93,2.12,11.95-3.63,11.95-3.63"/>
    <path class="cls-2" d="M155.08,390.3s22.19-12.4,25.95-9.03c3.76,3.37-6.72-19.49-6.72-19.49l-12.44,5.28-6.79,23.24Z"/>
    <path class="cls-2" d="M153.34,398.57c-1.51,1.51-5.88,10.08-3.53,18.83,2.36,8.75,28.38-12.42,34.96-9.41,6.59,3.01-2.94-20.71-2.94-20.71l-28.49,11.29Z"/>
    <path class="cls-1" d="M189.4,425.98s-3.1-10.84-11.3-10.42c-6.43,.33,9-2.5,9-2.5l2.3,12.92Z"/>
    <path class="cls-1" d="M148.52,436.13s1.84-11.88,11.95-13.88c4.94-.98-5.9-.44-5.9-.44l-7.19,4.16,1.14,10.15Z"/>
    <path class="cls-1" d="M153.76,338.59l-1.26,5.21s13.68-6.49,16.51-5.93-.78-8.27-.78-8.27c0,0-11.03,2.56-12.15,4.56s-2.32,4.43-2.32,4.43Z"/>
    <path class="cls-1" d="M163.37,359.9s8.92-6.28,11.31-4.94c.85,.48,1.96,7.4,1.96,7.4,0,0-10.59,6.19-13.26,6.28s0-8.74,0-8.74Z"/>
    <path class="cls-1" d="M156.17,388.41c.42-.14,22.59-11.94,24.86-7.14,1.27,2.69,.98,5.73,1.83,9.18,0,0-13.55-1.35-30.91,11-6.11,4.34,4.22-13.05,4.22-13.05Z"/>
    <path class="cls-1" d="M149.17,427.7c29.89-15.85,37.15-9.57,37.15-9.57,0,0,2.47-11.89-.47-11.98-13.12-.39-38.19,11.92-38.19,11.92l1.52,9.63Z"/>
    <path class="cls-1" d="M138.32,182.46c.61,2.18,1.39,4.55,3.05,6.17,1.25,1.22,3.24,2.21,5.03,1.81,3.31-.74,3.24-5.38,3.07-7.99-.1-1.55-.33-3.08-.54-4.61-.11-.78-1.1-1.2-1.78-1.01-.84,.23-1.12,1-1.01,1.78,.03,.2,.06,.4,.08,.6,.02,.12,.03,.24,.05,.36,0,.06,.02,.13,.03,.19,.01,.08-.05-.38,0-.02,.08,.61,.15,1.23,.21,1.85,.13,1.39,.15,2.77,.04,4.16-.03,.32,.05-.27,0-.06-.01,.08-.02,.15-.04,.23-.03,.15-.05,.29-.09,.44s-.07,.28-.11,.41c-.03,.09-.19,.52-.09,.28s-.06,.1-.09,.17c-.03,.05-.2,.26-.19,.3-.04-.15,.26-.26,.05-.08-.03,.03-.07,.07-.09,.1-.2,.25,.09-.13,.09-.06,0,.02-.15,.1-.17,.11-.32,.16,.33-.11-.02,.01-.04,.01-.1,.02-.13,.03-.22,.11,.36,0,.1-.01-.13,0-.26,0-.39,0-.23,0,.17-.04,.13,.02,0,.02-.23-.05-.27-.06-.16-.04-.32-.09-.48-.15-.07-.02-.4-.18-.06-.02-.06-.03-.13-.06-.19-.09-.16-.08-.31-.16-.46-.26-.07-.05-.15-.1-.22-.14-.31-.19,.12,.13-.08-.06-.29-.28-.58-.54-.83-.86,.22,.28-.02-.04-.05-.08-.07-.1-.13-.2-.2-.3-.13-.22-.26-.44-.38-.67-.1-.21-.2-.41-.3-.63,.11,.25-.08-.2-.08-.2-.06-.14-.11-.29-.16-.44-.24-.66-.44-1.33-.63-2-.21-.75-1.03-1.22-1.78-1.01s-1.22,1.03-1.01,1.78h0Z"/>
    <path class="cls-2" d="M128.83,294.54s9.87,1.89,10.88-.78c1.01-2.67,4.71,.33,4.56-5.4s3.98-1.03,3.98-1.03c0,0,2.12-2.13,3.7-.78,1.58,1.35,4.58,6.08,7.69,3.81,3.11-2.27,.2,9.21-1.45,9.97-1.65,.75-3.12-.64-3.12-.64,0,0-1.45-9.57-3.13-11.32-1.68-1.74-3.7,.91-3.7,.91,0,0-4.2-3.91-4.35,3.76s-3.93-3.66-4.49,3.23c-.56,6.89,0,8.96,0,8.96l-3.54,3.72-7.03-14.39Z"/>
    <path class="cls-2" d="M137.39,311.86s2.47,10.78,3.25,8.28c.78-2.5,0-9.8,0-9.8l-3.25,1.52Z"/>
    <path class="cls-2" d="M156.18,306.42s.11,8.06,3.37,3.31c3.26-4.75-.69-5.46-.69-5.46l-2.67,2.15Z"/>
    <path class="cls-1" d="M153.34,398.57c-3.33,4.89-4.21,12.91-3.53,18.83l-2.16-.48-.28-13.08,5.97-5.27Z"/>
    <path class="cls-1" d="M178.08,379.15c-1.35-4.71-2.8-9.42-4.22-14.15-.53-1.72-1.1-3.44-1.6-5.17-.45-1.52-.86-3.06-1.26-4.61-.4-1.54-.8-3.08-1.12-4.65l-1.01-4.67-.85-4.71c-.29-1.38-.43-2.8-.66-4.2-.19-1.4-.49-2.79-.59-4.19-.18-1.8-.4-3.59-.54-5.4-.04-.9-.04-1.81,0-2.72l.04-1.36c.02-.45,.12-.9,.17-1.35,.18-1.12,.25-.97,.63-.03,.43,.94,1.11,2.65,1.27,4.67,.61,7.2,1.93,14.3,3.46,21.45,.23,1.07,.49,2.15,.75,3.23,.3,1.07,.61,2.15,.92,3.24,.59,2.17,1.29,4.33,1.93,6.49l4.32,14.25,1.3,4.41,1.22,4.44c.63,2.23,1.12,4.52,1.69,6.77,.48,2.28,.96,4.55,1.42,6.81,.3,1.77,.62,3.52,.96,5.27,.24,1.76,.48,3.52,.71,5.29,.12,.78,.19,1.54,.22,2.34,.02,1.47,.01,2.44-.12,3.12-.19,.68-.38,1.07-.6,1.39-.1,.14-.19,.33-.27,.41-.14,.14-.28-.09-.5-.61-.21-.52-.55-1.34-.64-2.38-.36-3.1-.84-6.26-1.3-9.46-.29-1.59-.59-3.2-.88-4.8-.31-1.61-.71-3.21-1.05-4.82-.25-1.2-.55-2.39-.87-3.57l-.92-3.57c-.69-2.37-1.33-4.75-2.05-7.12l.06-.03Z"/>
    <path class="cls-1" d="M157.8,299.43c-.23-.85,3.06-14.26,1.85-18.6-.74-2.66,1.66,2.96,1.66,2.96l-1.18,16.52-2.32-.88Z"/>
    <path class="cls-1" d="M135.87,308.93s1.15-.12,.73-1.8c-.96-3.91-5.95-12.59-14.97-21.96l-.66,.59,14.89,23.17Z"/>
    <path class="cls-1" d="M131.17,421.85c-2.34,.95-4.8,1.64-7.32,1.98-.92,.1-1.83,.28-2.76,.29-3.28,.08-6.53-.68-9.48-1.91-1.31-.56-2.61-1.13-3.83-1.81l-1.16-.69-1.1-.78c-.72-.55-1.28-1.28-1.87-1.95-.35-.44-.13-.58,.46-.58,.59,0,1.58,.08,2.52,.39,.77,.37,1.49,.81,2.26,1.13,.73,.4,1.47,.77,2.21,1.14,1.5,.69,3.04,1.31,4.65,1.79,1.94,.57,4.07,.55,6.12,.4,2.27-.16,4.54-.67,6.72-1.45,1.35-.48,2.67-1.05,3.94-1.73,1.93-1.02,3.8-2.22,5.47-3.63,1.3-1.09,2.36-2.4,3.45-3.64,.24-.28,.44-.57,.69-.84,.22-.25,.42-.45,.59-.61,.18-.15,.38-.23,.54-.31,.34-.14,.6-.16,.91-.12,.14,.02,.29,.01,.41,.05,.2,.05,.27,.24,.27,.57,0,.33-.07,.8-.28,1.34-.78,1.43-1.75,2.8-2.93,3.99-1.17,1.19-2.47,2.29-3.85,3.28-2.05,1.48-4.28,2.74-6.62,3.75l-.03-.06Z"/>
    <path class="cls-1" d="M138.66,258.39c4.21,11.91-19.39,6.16-19.39,6.16,0,0,13.28,5.77,18.12,3.64s4.63-6.65,4.63-6.65l-3.36-3.15Z"/>
    <path class="cls-1" d="M99.7,437.68c-.42,1.41-2.48,5.59,.42,7.04,1.99,1,9.6,0,9.6,0,0,0-13.77,7.15-13.8,2.73-.03-4.41,3.78-9.78,3.78-9.78Z"/>
    <path class="cls-1" d="M143.11,345.73c.83,.28,1.65,.58,2.44,.92,.29,.12,.6,.18,.88,.33,.99,.52,1.91,1.11,2.82,1.65,.42,.23,.82,.45,1.23,.67,.55,.23,1.02,.6,1.47,1.05,.14,.15,.05,.3-.19,.46-.23,.15-.66,.4-1.04,.4-.68,.03-1.26-.19-1.84-.36-.54-.27-1.05-.57-1.55-.92-.59-.43-1.33-.56-1.99-.81-.74-.27-1.47-.57-2.23-.79-.46-.15-.94-.27-1.42-.38-.73-.15-1.46-.3-2.21-.33-.58-.03-1.15,.09-1.72,.16-.13,.02-.25,.06-.38,.03-.47-.08-.61-.25-.72-.82-.02-.12-.05-.24-.07-.35-.05-.35,.15-.78,.52-.97,.54-.36,1.1-.45,1.68-.54,.57-.1,1.16-.1,1.74-.01,.87,.1,1.72,.31,2.58,.52v.06Z"/>
    <path class="cls-1" d="M133.9,307.13s2.07-.78,3.5-2.3c1.26-1.34,1.84-3.45,2.57-3.3,1.56,.3,.69,10.33,.69,10.33l-4.06,1.44-2.69-6.17Z"/>
    <path class="cls-1" d="M155.32,297.58c-.97-.02,1.16,1.29,2.87,.93,1.37-.29,2.33-2.26,2.33-2.26l-.15,9.01-4.48,2.15-.56-9.82Z"/>
    <path class="cls-1" d="M122.66,361.78s3.93-12.2,13.81-11.99c5.12,.11,5.55-1.59,5.55-1.59h0s-13.48-2.44-16.54,1.8c-3.06,4.25-2.82,11.77-2.82,11.77Z"/>
    <path class="cls-1" d="M256.5,180.65c1.2-.55,14.65,10.14,14.49,22.5-.14,11.06-.05,9-.05,9l2.72-5.77s1.13-11.11-.86-13.74-14.05-13.82-14.05-13.82l-2.26,1.83Z"/>
    <path class="cls-1" d="M88.21,218.69c.19,.68,2.62,8.72,.93,14.11-1.69,5.4-11.44,12.93-19.78,9.13,0,0,6.72-2.4,5.78-6.9-.94-4.5-7.6-12.2-15.51-21.52-7.92-9.33-13.49-19.9-11.47-28.76,2.02-8.86,19.15-11.92,19.15-11.92,0,0-5.34-11.43-2.39-18.77,2.95-7.34,11.77-18.07,27.78-17.13,16.02,.94,22.05,6.22,30.42,1.79,8.37-4.43,13.3-10.26,12.15-17.23s12.38-1.87,16.91,10.17-1.58,19.38-4.55,22.21-14.63,11.2-22.17,10.16c-7.54-1.04-20.6-.13-24.7,8.5-4.1,8.63-6.09,15.65-.67,25.38,5.42,9.73,7.77,14.87,6.42,15.73s-4.78,1.08-8.49-4.35-4.86-10.11-10.04-7.53c-5.18,2.58-7.82,4.52-6.45,9.28,1.37,4.76,6.65,7.65,6.65,7.65Z"/>
    <path class="cls-1" d="M262.05,124.1c-.02-1.06-.06-2.09-.05-3.19,0-.4-.05-.81-.01-1.23,.07-.73,.22-1.44,.38-2.13l.27-1.02c.1-.44,.28-1.01,.62-1.36,.62-.68,1.63-.82,2.51-.47,.29,.11,.54,.34,.75,.59,.33,.38,.4,.98,.42,1.25,.02,.34,0,.66-.02,.97-.04,.26-.18,.25-.46,.11-.27-.14-.74-.42-1.13-.59l-.12-.06h0s0,.01,0,0c-.01,.02,.01-.03-.07-.08-.09,0-.15-.2-.47,.64-.38,.85-.38,1.77-.48,2.66-.1,.99-.12,2.05-.15,3.12-.02,.66-.04,1.3-.03,1.95,0,.98,.05,1.94,.19,2.92,.11,.77,.24,1.52,.31,2.28,.01,.17,.04,.33,.05,.5,.03,.62-.11,.83-.4,.98-.07,.03-.14,.08-.2,.1-.22,.07-.44-.17-.61-.61-.2-.66-.39-1.33-.57-1.99-.19-.66-.33-1.31-.46-2.05-.19-1.1-.26-2.19-.33-3.26h.05Z"/>
    <path class="cls-1" d="M145.92,226.61c-1.41,2.95-3.43,5.62-5.88,7.75-.44,.4-.87,.8-1.34,1.16-.46,.37-.91,.75-1.42,1.05-3.5,2.26-7.43,3.48-11.32,4.22-1.73,.33-3.47,.63-5.19,.85-2.21,.28-4.46,.66-6.68,0-.69-.18-.59-.53-.02-1.07,.29-.27,.69-.61,1.17-.97,.48-.32,1.04-.5,1.65-.6,4.31-.43,8.55-.92,12.69-2.07,2.49-.67,4.8-2.07,6.83-3.64l.84-.65,.78-.72c.54-.46,.99-1.01,1.49-1.52,.91-1.09,1.78-2.22,2.46-3.49,.88-1.53,1.59-3.17,2.12-4.89,.77-2.6,1.27-5.34,1.3-8.09,.06-2.13-.33-4.21-.56-6.3-.05-.46-.15-.91-.2-1.37-.04-.43-.07-.79-.07-1.09,0-.31,.07-.56,.13-.77,.07-.21,.15-.39,.27-.54,.14-.15,.31-.28,.47-.4,.15-.11,.28-.24,.39-.31,.3-.22,1.21,.38,1.67,1.66,1.29,3.8,1.55,8.11,1.06,12.41-.35,3.19-1.21,6.4-2.57,9.41l-.08-.03Z"/>
    <path class="cls-1" d="M151.85,193.03c.67,.72,1.3,1.46,1.9,2.33,.15,.2,.3,.43,.43,.67,.14,.24,.28,.45,.4,.73,.12,.28,.25,.5,.35,.83,.09,.36,.23,.65,.23,1.06,.15,1.1-.31,2.38-1,3.01-.29,.33-.6,.52-.91,.77-.31,.18-.62,.37-.92,.52l-.92,.39-.91,.3c-1.21,.34-2.39,.62-3.59,.76-1.04,.16-2.09,.32-3.13,.48-1.33,.15-2.66,.35-4.02,0-.42-.09-.38-.21-.06-.51,.22-.21,.45-.42,.66-.61,.14-.12,.28-.26,.44-.36,.16-.09,.33-.16,.52-.22,.64-.2,1.28-.41,1.92-.59l1.91-.42c.63-.14,1.26-.27,1.89-.41,.62-.13,1.27-.22,1.87-.36,.75-.14,1.44-.44,2.05-.79,.59-.36,1.04-.82,1.19-1.13,.16-.32,.18-.6-.24-1.34-.38-.65-.91-1.31-1.48-1.95-.73-.77-1.48-1.57-2.31-2.29-1.24-1.11-2.54-2.21-3.92-3.17-1.07-.75-2.25-1.3-3.35-2.01-.24-.15-.5-.28-.73-.45-.42-.33-.65-.62-.75-.91-.1-.28-.09-.55,0-.86,.04-.14,.06-.29,.12-.41,.17-.4,.77-.49,1.61-.32,2.31,.73,4.36,2.08,6.39,3.56,1.5,1.1,2.96,2.31,4.38,3.65l-.05,.06Z"/>
    <path class="cls-1" d="M117.26,164.88c-2.43,.19-4.79,.51-6.92,1.25-2.12,.75-3.98,1.97-5.48,3.62-1.51,1.65-2.66,3.7-3.58,5.89-.93,2.16-1.49,4.4-1.67,6.74-.13,1.7-.06,3.42,.21,5.13,.24,1.71,.61,3.42,1.1,5.11,.85,2.99,2.03,5.92,3.33,8.84l2,4.42c.66,1.51,1.33,3.01,1.75,4.79,.06,.22,.1,.45,.13,.7,.02,.25,.08,.47,.06,.75-.01,.28,0,.53-.05,.84-.08,.31-.14,.63-.28,.92-.53,1.23-1.97,1.85-2.87,1.94-.51,.08-.92,.1-1.44,.11-.29-.03-.61-.05-.88-.12-.27-.09-.54-.18-.79-.29-.97-.49-1.62-1.17-2.22-1.83-1.16-1.36-1.99-2.8-2.8-4.22-.82-1.39-1.56-2.88-2.46-3.95-1.56-1.96-4.2-2.97-6.67-2.59-2.48,.33-4.58,2.11-5.11,4.47-.41,1.43-.11,2.97,.69,4.33,.79,1.37,1.97,2.57,3.33,3.51,.69,.46,1.4,.89,2.16,1.24,.36,.21,.76,.35,1.14,.51l.58,.24,.6,.17c.79,.26,1.62,.4,2.44,.51,.41,0,.83,.12,1.24,.14,.42,.03,.83-.04,1.27,.07,1.07,.03,1.61,.08,1.62,.21,0,.14-.46,.4-1.35,1.04-.91,.5-2.39,1.22-4.28,1.2-.47,.03-.97,.02-1.47-.05-.5-.06-1.04-.1-1.56-.25-.52-.14-1.08-.25-1.62-.47-.52-.24-1.08-.45-1.59-.78-1.85-1.07-3.54-2.47-4.86-4.3-1.31-1.8-2.26-4.22-1.98-6.78,.09-.63,.16-1.28,.39-1.83l.31-.85,.43-.81c.26-.55,.68-1.02,1.05-1.51,.41-.45,.85-.89,1.34-1.26,1.95-1.48,4.36-2.15,6.68-1.98,1.16,.04,2.29,.36,3.37,.76,1.05,.48,2.07,1.05,2.91,1.83,.21,.19,.43,.38,.63,.58l.55,.65c.38,.43,.69,.9,.96,1.34,.54,.88,.98,1.72,1.42,2.53,.89,1.62,1.78,3.21,2.81,4.44,.51,.6,1.07,1.06,1.47,1.2,.11,.07,.18,.03,.27,.07,.08,.03,.34-.01,.5,0,.19,0,.38-.01,.51-.05,.13-.03,.35-.05,.39-.08,.4-.16,.49-.22,.4-1.19-.12-.87-.49-1.9-.9-2.91-.85-2.03-1.88-4.09-2.88-6.2-1.99-4.2-3.86-8.64-4.71-13.38-.47-2.6-.6-5.29-.31-7.96,.28-2.66,1.08-5.32,2.2-7.68,1.1-2.4,2.54-4.72,4.51-6.63,1.94-1.94,4.48-3.24,7.04-3.96,3.18-.9,6.39-1.03,9.5-1.19,3.12-.14,6.19-.27,9.2-.73,4.55-.67,8.92-2.3,12.67-4.93,1.88-1.31,3.56-2.89,5.15-4.54l1.13-1.31c.39-.43,.75-.87,1.05-1.34l.96-1.37c.27-.49,.5-.99,.76-1.49,1.49-3.12,1.96-6.65,1.41-10.02-.52-3.38-1.88-6.59-3.8-9.42-.43-.62-.83-1.24-1.35-1.79-.5-.55-.93-1.17-1.49-1.68-.49-.5-.95-.95-1.36-1.37-.45-.38-.85-.73-1.22-1.05-.71-.68-1.38-1.1-1.86-1.54-.49-.44-.87-.81-1.2-1.11-.31-.33-.53-.66-.71-.98-.17-.3-.42-.64-.5-.87-.13-.39,.38-.41,1.5-.13,.55,.14,1.27,.35,2.01,.8,.75,.44,1.68,.88,2.55,1.62,5.41,4.03,9.62,10.36,10.48,17.68,.42,3.63-.11,7.48-1.7,10.9-.77,1.71-1.87,3.31-3.01,4.72-.59,.67-1.14,1.36-1.77,2.01-.64,.63-1.24,1.29-1.91,1.9-3.91,3.65-8.87,6.37-14.11,7.58-5.23,1.29-10.52,1.22-15.43,1.56l-.02-.07Z"/>
    <path class="cls-1" d="M83.37,135.95c2.9-.8,5.93-1.1,8.92-.98,1.5,.05,2.98,.26,4.45,.52,.72,.17,1.48,.33,2.16,.51l2.02,.54c1.96,.52,3.93,.9,5.87,1.33,3.41,.76,6.86,1.23,10.24,.96,1.7-.1,3.35-.49,4.95-1,1.6-.53,3.11-1.34,4.54-2.26,2.46-1.7,4.53-4.11,5.87-6.78,.87-1.71,1.5-3.55,1.75-5.42,.09-.93,.15-1.87,.11-2.81-.06-.46-.04-.95-.16-1.4-.09-.46-.05-.97-.19-1.44-.21-1.22-.1-1.17,.75-.34,.22,.21,.5,.46,.76,.79,.08,.08,.13,.17,.23,.25,.06,.1,.12,.19,.19,.29,.13,.2,.27,.42,.36,.66,.19,.47,.46,1.01,.57,1.6,.06,.3,.12,.61,.19,.92,.05,.32,.02,.64,.02,.97-.07,2.35-.66,4.63-1.6,6.71-.97,2.07-2.28,3.95-3.84,5.6-3.12,3.34-7.37,5.58-11.82,6.31-5.32,.91-10.81,.32-15.88-.81-1.4-.32-2.77-.68-4.14-1.03l-2.04-.53c-.65-.14-1.29-.33-1.95-.42-2.63-.46-5.33-.54-7.99-.19-3.27,.44-6.48,1.49-9.37,3.14-4.36,2.48-8.08,6.27-10.12,10.86-1.63,3.55-2.07,7.43-1.87,11.21,.09,.84,.15,1.65,.29,2.49,.19,1.55,.38,2.57,.33,3.33-.02,.76-.21,1.25-.49,1.69-.13,.2-.22,.45-.34,.58-.2,.22-.48,.04-.92-.47-.45-.51-.98-1.39-1.31-2.62-.55-1.81-.85-3.72-.96-5.68-.14-1.96,0-3.98,.35-5.97,.72-3.99,2.46-7.88,4.99-11.16,3.75-4.89,9.17-8.38,15.03-10.02l.03,.08Z"/>
    <path class="cls-1" d="M57.99,214.95c-1.89-1.92-3.74-3.97-5.46-6.16-1.73-2.18-3.21-4.65-4.36-7.25-.37-.98-.85-1.91-1.12-2.93-.3-1-.64-2-.76-3.04-.35-1.81-.38-3.65-.4-5.46l.2-2.7c.06-.9,.31-1.83,.46-2.74,.84-3.65,2.91-6.99,5.71-9.42,2.48-2.17,5.51-3.65,8.67-4.32l1.53-.3,1.55-.15,.78-.06h.78c.52,.03,1.04,.03,1.56,.06,.51,.06,1.02,.17,1.53,.26,.51,.08,1.01,.22,1.5,.39,.5,.13,.97,.37,1.42,.61l1.3,.86c1.06,.71,.82,.77-.32,.9-.57,.09-1.36,.17-2.29,.49-.46,.14-.9,.12-1.38,.15-.47,.02-.97,.08-1.46,.05-.88-.11-1.76-.03-2.63-.06-.86,.11-1.74,.12-2.58,.34-1.71,.31-3.33,.91-4.85,1.68-3.05,1.56-5.48,4.18-6.87,7.44-.89,1.94-1.01,4.21-1.11,6.55-.02,.58,.05,1.15,.07,1.73,.05,.57,.03,1.16,.14,1.72,.22,1.12,.32,2.27,.68,3.35,.19,.6,.28,1.22,.54,1.8l.69,1.76c.57,1.13,1.09,2.29,1.81,3.35,.64,1.11,1.45,2.13,2.21,3.18,.84,1,1.65,2.03,2.55,2.99,2.18,2.41,4.53,4.73,6.86,7.09,1.75,1.81,3.51,3.64,5.14,5.6,1.64,1.94,3.21,3.97,4.48,6.26,.96,1.77,1.82,3.75,1.79,6.03,.05,.56-.12,1.12-.21,1.69-.12,.56-.38,1.08-.59,1.62-.29,.48-.58,.97-.91,1.43-.36,.41-.72,.83-1.1,1.22-.71,.61-1.39,1.26-2.19,1.71-.36,.22-.69,.45-1.01,.6-.32,.14-.62,.25-.89,.36-.55,.2-.99,.35-1.39,.39-.78,.1-1.28,0-1.74-.26-.21-.12-.46-.21-.6-.34-.49-.46,.56-1.38,2.34-2.63,1.34-.9,2.62-1.8,3.52-2.86,.92-1.06,1.34-2.12,1.31-3.3-.02-1.19-.52-2.58-1.27-3.96-.73-1.39-1.72-2.76-2.79-4.11-3.16-4.04-7.07-7.65-10.9-11.5l.06-.07Z"/>
    <path class="cls-1" d="M88.46,237.29c-1.24,1.72-2.83,3.3-4.66,4.4l-.99,.61c-.34,.18-.68,.36-1.03,.52-2.5,1.03-5.12,1.47-7.68,1.57-1.14,.07-2.28,.03-3.4,0-1.44-.02-2.88-.34-4.21-.94-.42-.18-.3-.39,.12-.64,.42-.25,1.16-.6,1.95-.74,.7-.12,1.37-.13,2.04-.13,.67-.04,1.34-.04,2-.11,1.33-.05,2.66-.1,4-.25,1.61-.17,3.16-.89,4.57-1.65,1.58-.83,2.95-1.9,4.1-3.3,.7-.86,1.32-1.78,1.79-2.78,.69-1.52,1.12-3.19,1.15-4.91,.05-1.34-.28-2.65-.43-3.99-.04-.3-.1-.58-.13-.88-.12-1.11,.45-1.53,.91-1.81,.12-.07,.23-.15,.33-.19,.18-.07,.34,0,.57,.19,.22,.19,.56,.48,.76,.88,.97,2.39,1.19,5.15,.76,8.07-.32,2.16-1.23,4.31-2.45,6.12l-.06-.04Z"/>
    <path class="cls-1" d="M138.62,268.98c-2.84,.95-5.68,1.07-8.4,.9-1-.05-1.98-.09-2.95-.24-3.42-.58-6.65-1.69-9.79-2.92-1.4-.54-2.77-1.14-4.12-1.75-1.74-.76-3.41-1.73-4.88-2.97-.46-.38-.22-.6,.39-.68,.62-.07,1.63-.07,2.65,.24,.44,.15,.88,.3,1.33,.43,.45,.13,.87,.32,1.3,.49,.88,.3,1.73,.64,2.61,.92,1.72,.66,3.45,1.32,5.21,1.95,2.1,.78,4.43,1.01,6.66,1.24,2.45,.24,4.93,.24,7.26-.3,.36-.07,.69-.21,1.05-.31l.52-.16c.16-.06,.31-.13,.46-.19,.59-.28,1.07-.63,1.31-1.04,.4-.6,.36-1.57,.01-2.59-.32-1.02-.89-2.04-1.5-3.03-.95-1.55-2.21-2.9-3.28-4.48-.22-.36-.46-.7-.66-1.09-.72-1.48-.31-2.26,.12-2.74,.11-.12,.2-.25,.3-.32,.17-.13,.39-.06,.69,.1,.29,.17,.77,.4,1.14,.77,.33,.25,.56,.56,.83,.85l.81,.89c.5,.63,1.01,1.29,1.53,1.98,1.02,1.39,2.05,2.87,2.88,4.73,.3,.7,.58,1.45,.76,2.32,.17,.86,.25,1.91-.05,3.02-.29,1.12-1.03,2.13-1.81,2.76-.79,.66-1.6,1.01-2.34,1.29l-.04-.08Z"/>
    <path class="cls-1" d="M141.61,412.86c-1.64,1.55-3.36,3.04-5.28,4.29-1.88,1.3-3.95,2.37-6.11,3.2-2.16,.88-4.48,1.32-6.8,1.58-2.35,.18-4.63,.06-6.9-.28-4.52-.74-8.84-2.39-12.68-4.75-3.87-2.31-7.27-5.29-10.26-8.56-2.18-2.4-4.17-4.96-5.94-7.64-1.76-2.7-3.33-5.5-4.71-8.39-4.77-10.25-7.44-21.31-8.57-32.42-1.15-11.12-.84-22.35,.6-33.38,1.29-9.79,3.28-19.55,6.27-28.91,1.95-6,4.29-11.93,7.49-17.47,1.61-2.76,3.49-5.38,5.63-7.79,1.06-1.21,2.23-2.33,3.48-3.35,.6-.54,1.27-.99,1.92-1.47,.65-.48,1.33-.91,2.05-1.28,1.81-.89,2.67-1.08,2.68-.93,.03,.19-.77,.77-1.95,1.93-2.43,2.29-6.12,6.84-9.64,12.8-3.25,5.22-5.73,10.98-7.79,16.88-2.03,5.92-3.63,12.02-4.88,18.2-2.47,12.37-3.79,25.03-3.24,37.73,.3,7.59,1.38,15.31,3.37,22.82,1.98,7.51,4.93,14.82,8.89,21.41,2.19,3.62,4.72,7.02,7.62,10.06,2.91,3.03,6.23,5.65,9.86,7.68,7.22,4,16.24,5.4,23.73,1.8,4.64-2.09,8.57-5.63,11.94-9.57,1.67-2,3.19-4.12,4.62-6.32,1.4-2.21,2.68-4.51,3.88-6.84,3.54-7.13,6.25-14.73,7.93-22.53,.43-1.95,.74-3.91,1.01-5.87,.1-.98,.23-1.97,.28-2.95,.04-.49,.07-.98,.08-1.47l.02-.73v-.37c0-.11-.01-.2-.02-.3-.04-.77-.36-1.52-.91-2.19-.52-.67-1.21-1.28-1.98-1.79-1.54-1.05-3.32-1.84-5.15-2.49-4.02-1.39-8.27-2.18-12.49-2.66-2.12-.23-4.24-.38-6.34-.4-1.05-.01-2.09,.01-3.11,.09-.51,.04-1,.1-1.46,.18-.19,.05-.47,.09-.6,.15-.1,.02-.21,.09-.31,.16-.07,.07-.23,.22-.37,.34-.14,.12-.26,.29-.39,.43-.27,.27-.47,.63-.71,.94-.43,.68-.81,1.41-1.12,2.2-.65,1.56-1.08,3.27-1.47,5-.56,2.58-.91,5.19-1.38,7.9-.83,5.03-1.86,8.41-3.02,10.63-1.15,2.23-2.35,3.26-3.4,3.81-.47,.27-1.1,.56-1.42,.61-.27,.04-.28-.11-.11-.44,.18-.32,.55-.83,.96-1.57,.85-1.47,1.89-3.93,2.6-7.45,.82-3.93,1.23-8.06,1.93-12.34,.37-2.14,.79-4.33,1.55-6.56,.37-1.11,.86-2.24,1.49-3.34,.31-.56,.7-1.09,1.11-1.62l.68-.76,.86-.77c.37-.2,.69-.46,1.11-.6,.46-.17,.71-.23,.99-.28,.58-.13,1.06-.18,1.57-.24,.99-.1,1.92-.12,2.86-.14,1.87-.01,3.7,.09,5.53,.24,3.66,.33,7.31,.89,10.94,1.79,1.82,.45,3.63,.99,5.44,1.68,1.8,.7,3.61,1.52,5.35,2.74,.87,.61,1.72,1.35,2.49,2.29,.77,.92,1.39,2.18,1.65,3.53,.04,.34,.08,.69,.1,1.04,.02,.33,0,.51,0,.77-.01,.48-.02,.97-.04,1.44-.07,.95-.12,1.91-.23,2.84-1.03,8.95-3.61,17.48-7.09,25.66-3.57,8.11-8.11,15.98-14.63,22.41l-.08-.05Z"/>
    <path class="cls-1" d="M117.05,299.2c-.67-1.3-1.41-2.56-2.14-3.84-.27-.46-.6-.88-.88-1.34-.95-1.64-1.96-3.25-3.03-4.82-.49-.69-1.03-1.33-1.59-1.94-.72-.79-1.49-1.51-2.15-2.36-.2-.27,.03-.49,.47-.55,.42-.06,1.12,0,1.63,.4,1.8,1.42,3.42,3.01,4.71,4.87,.74,1.14,1.72,2.15,2.55,3.25l1.31,1.86,1.21,1.93,1.43,2.41c.72,1.22,1.39,2.47,2.07,3.71,.28,.47,.57,.93,.87,1.4,.32,.45,.58,.93,.81,1.44,.1,.22,.23,.43,.31,.66,.28,.89,.18,1.25-.39,1.63-.13,.09-.25,.18-.38,.25-.44,.22-.97,.02-1.39-.46-.59-.73-1.32-1.4-1.84-2.19-.51-.79-1.06-1.59-1.55-2.42-.7-1.26-1.36-2.57-2.11-3.83l.06-.04Z"/>
    <path class="cls-1" d="M159.36,292.35c.11-1.83,.15-3.66,.13-5.5,0-.67-.11-1.33-.12-2-.06-2.36-.09-4.74-.36-7.09-.1-1.05-.32-2.08-.55-3.09-.31-1.3-.68-2.57-.89-3.89-.06-.42,.31-.5,.79-.29,.48,.21,1.14,.71,1.46,1.46,.24,.67,.51,1.34,.72,2.02,.18,.69,.35,1.37,.51,2.07,.27,1.39,.48,2.79,.56,4.2,.11,1.69,.43,3.42,.55,5.14,.14,1.89,.18,3.79,.19,5.68,0,1.17-.01,2.33-.05,3.5-.04,1.77-.15,3.54-.24,5.3-.03,.68-.02,1.37-.03,2.05,0,.69,.02,1.38-.06,2.07-.03,.3-.04,.61-.09,.91-.13,.56-.36,.91-.63,1.12-.25,.21-.51,.3-.83,.33-.15,.01-.29,.05-.42,.04-.42-.01-.74-.57-.99-1.39-.08-.58-.16-1.19-.18-1.76,0-.59,0-1.17,.01-1.77,.02-.6,.03-1.2,.05-1.8,.01-.6,.08-1.21,.1-1.82,.12-1.81,.25-3.65,.29-5.49h.08Z"/>
    <path class="cls-1" d="M170.71,286.45c.27-1.01,.5-2.03,.68-3.07,.07-.38,.07-.76,.13-1.13,.25-1.33,.41-2.67,.54-4.02,.05-.6,.03-1.2,0-1.78-.05-.76-.16-1.5-.15-2.26,0-.24,.26-.27,.56-.12,.29,.15,.69,.48,.81,.93,.41,1.6,.64,3.21,.48,4.83-.11,.96,0,1.97-.04,2.95-.05,1.08-.15,2.16-.27,3.23l-.26,1.98c-.13,1-.33,2-.44,3-.07,.78,.01,1.59-.07,2.4-.01,.18,0,.36-.03,.54-.17,.66-.52,.79-1.31,.65-.18-.03-.37-.05-.54-.1-.59-.15-1.01-.56-1.14-1.03-.15-.68-.13-1.33-.11-2,.1-.65,.23-1.32,.39-1.99,.22-1,.5-2.01,.71-3.03h.07Z"/>
    <path class="cls-1" d="M177.8,252.55c1.88-.3,3.71-.85,5.56-1.44,1.88-.64,3.76-1.31,5.61-2.03,1.35-.53,2.66-1.15,3.99-1.71,4.7-1.97,9.24-4.3,13.58-7.02,1.92-1.21,3.8-2.52,5.59-3.9,2.3-1.77,4.6-3.56,7.09-5.14,.78-.49,.82-.25,.45,.5-.19,.38-.47,.89-.84,1.49-.36,.61-.84,1.25-1.45,1.84-2.12,2.15-4.46,4.07-6.92,5.85-1.23,.89-2.47,1.77-3.78,2.56-1.31,.79-2.64,1.54-4.01,2.22-3.26,1.66-6.58,3.51-10,5-1.88,.82-3.78,1.57-5.69,2.29l-2.88,1.05c-.99,.32-1.97,.68-2.99,.92-2.48,.68-5.03,1.11-7.58,1.29-3.87,.27-7.71-.01-11.46-.24-2.92-.18-5.78-.2-8.65-.26-.63-.01-1.25,.01-1.89-.02-1.17-.1-1.94-.19-2.48-.41-.53-.25-.83-.54-1.07-.92-.11-.18-.25-.35-.31-.51-.1-.27,.09-.51,.54-.74,.44-.23,1.14-.49,2.02-.54,5.21-.41,10.67,.18,15.98,.41,3.94,.18,7.81,.13,11.56-.64l.02,.08Z"/>
    <path class="cls-1" d="M234.39,199.63c-.62,1.47-1.23,2.95-1.93,4.39l-1.02,2.17-1.08,2.13c-.51,1.05-1,2.1-1.57,3.11-1.99,3.58-4.28,6.98-6.68,10.27-1.03,1.49-2.13,2.93-3.16,4.4-.7,.92-1.43,1.81-2.17,2.7-.37,.44-.79,.84-1.23,1.23-.44,.38-.87,.76-1.31,1.14-.56,.46-.66,.24-.54-.45,.06-.34,.17-.81,.33-1.35,.08-.27,.17-.56,.28-.85,.05-.15,.12-.29,.17-.45,.09-.13,.17-.27,.26-.4,.64-.96,1.24-1.95,1.9-2.88,.69-.91,1.33-1.87,2.01-2.79,1.32-1.87,2.65-3.75,3.97-5.66,1.6-2.27,2.85-4.89,4.16-7.4,.73-1.38,1.38-2.8,2.08-4.2,.62-1.43,1.31-2.84,1.89-4.29l1.08-2.68,.97-2.72c.51-1.37,.89-2.78,1.34-4.17,.41-1.4,.75-2.82,1.09-4.23,.22-1.1,.41-2.2,.58-3.3,.16-1.1,.26-2.2,.41-3.3,.06-.48,.12-.96,.19-1.45,.26-1.8,.61-2.35,1.29-2.67,.15-.07,.3-.18,.44-.22,.24-.06,.43,.1,.59,.46,.16,.36,.31,.91,.33,1.61,.16,2.08,0,4.18-.24,6.32-.15,1.06-.29,2.13-.48,3.2-.24,1.05-.52,2.11-.79,3.16-.41,1.56-.93,3.1-1.41,4.64-.56,1.52-1.07,3.05-1.67,4.55l-.07-.02Z"/>
    <path class="cls-1" d="M267.95,225.84c-4.13,8.6-8.96,16.72-13.75,24.82-.89,1.47-1.7,2.97-2.61,4.45-.92,1.48-1.84,2.95-2.78,4.41-.42,.64-.82,1.29-1.26,1.92l-1.37,1.85-2.75,3.69c-.95,1.2-1.98,2.34-2.97,3.51-1,1.16-1.97,2.35-3.07,3.42l-3.21,3.29c-1.11,1.06-2.27,2.06-3.4,3.09-.57,.51-1.13,1.04-1.72,1.52l-1.81,1.42c-1.22,.93-2.37,1.94-3.65,2.78l-3.34,2.33-3.45,2.16c-1.13,.75-2.34,1.37-3.52,2.04l-1.77,.99-1.81,.9-2.32,1.16-2.37,1.06c-1.57,.74-3.19,1.34-4.79,1.99-3.22,1.24-6.52,2.25-9.79,3.14-2.08,.42-1.94,.1-.46-1.13,.74-.64,1.86-1.32,3.23-2.11,1.36-.78,3-1.56,4.81-2.25,6.43-2.45,12.58-5.47,18.37-9.12,5.79-3.64,11.15-7.95,16.17-12.71,5.98-5.73,11.15-12.75,15.48-20.05,1.27-1.95,2.44-4.04,3.65-6.06l3.59-6.11c2.36-4.09,4.71-8.18,6.87-12.36,2.66-5.14,5.15-10.37,7-15.8,1.38-4.11,2.42-8.36,2.58-12.62,.05-1.06-.06-2.12-.08-3.18-.13-1.04-.33-2.09-.51-3.09-.5-1.83-1.81-3.6-3.18-5.17-2.18-2.47-4.77-4.57-7.46-6.48-2.7-1.9-5.54-3.58-8.47-5.07-1.3-.65-2.59-1.21-3.92-1.77-2.48-1.01-4.12-1.56-5.24-2.05-1.12-.5-1.77-.86-2.3-1.33-.24-.2-.59-.4-.74-.59-.26-.3,.18-.57,1.27-.73,1.09-.15,2.82-.11,4.89,.44,3.05,.85,5.95,2.11,8.78,3.56,2.82,1.47,5.55,3.16,8.17,5.07,2.61,1.92,5.13,4.04,7.41,6.57,1.13,1.28,2.21,2.65,3.1,4.32,.23,.4,.42,.87,.61,1.32,.17,.45,.36,1.03,.43,1.45l.45,2.61c.15,1.29,.16,2.58,.21,3.87-.1,1.26-.12,2.55-.29,3.79-.22,1.23-.35,2.49-.64,3.7-.31,1.2-.54,2.43-.91,3.6-1.36,4.74-3.23,9.24-5.28,13.59l-.08-.03Z"/>
    <path class="cls-1" d="M181.64,389.52c-1.39-6.14-3.04-12.25-4.74-18.35l-1.95-6.66-3.21-11.82c-1.06-3.94-2.09-7.92-2.95-11.94-.75-3.57-1.47-7.19-1.89-10.79-.27-2.32-.5-4.64-.63-6.97-.07-2.33,0-4.67,.34-6.98,.19-1.44,.39-1.25,.82-.03,.24,.67,.54,1.52,.88,2.49,.32,1.03,.57,2.23,.75,3.54,.22,2.31,.42,4.62,.74,6.91,.15,1.15,.33,2.29,.5,3.43,.16,1.14,.34,2.29,.53,3.43,.79,4.56,1.84,9.12,2.95,13.73,1.33,5.52,3.1,11.16,4.7,16.75,1.74,6.15,3.46,12.32,5,18.55,.95,3.83,1.8,7.7,2.57,11.57,1.18,5.87,2.05,11.82,2.84,17.69,.62,4.57,1.35,9.03,1.84,13.56,.11,1,.24,1.97,.31,2.98,.14,1.87,.19,3.1,.11,3.98-.11,.88-.29,1.39-.55,1.82-.12,.19-.22,.44-.33,.56-.19,.19-.4-.08-.66-.74-.26-.66-.61-1.7-.8-3.05-1.45-8.01-2.29-16.49-3.64-24.92-.97-6.26-2.13-12.51-3.61-18.69l.07-.02Z"/>
    <path class="cls-1" d="M146.71,429.75c.16-1.8,.32-3.6,.36-5.39,.04-.66-.03-1.31-.01-1.97,.08-2.32,.06-4.65-.12-6.98-.05-1.04-.21-2.07-.39-3.08-.21-1.3-.41-2.62-.46-3.96,0-.42,.29-.43,.69-.16,.39,.27,.95,.82,1.23,1.56,.59,1.28,.87,2.64,1.15,4,.12,.68,.24,1.37,.31,2.06,.06,.69,.07,1.4,.08,2.1,0,1.68,.28,3.39,.34,5.1,.06,1.88-.03,3.75-.14,5.61l-.24,3.43c-.12,1.72-.3,3.44-.32,5.14,0,1.32,.13,2.62,.18,3.92,0,.29,.02,.57,0,.85-.14,1.06-.41,1.41-.96,1.64-.13,.05-.25,.12-.37,.16-.38,.11-.78-.33-1.1-1.13-.51-1.19-.65-2.42-.76-3.66-.12-1.24-.02-2.49,.04-3.74,.1-1.85,.29-3.68,.4-5.5h.08Z"/>
    <path class="cls-1" d="M201.81,380.86c-1.82-6.04-3.8-12.06-5.72-18.12-.7-2.21-1.44-4.41-2.12-6.63-2.31-7.86-4.16-15.87-5.53-23.96-.26-1.8-.52-3.61-.78-5.41l-.41-2.7c-.08-.9-.17-1.81-.25-2.7l-.32-3.47c-.1-1.16-.25-2.31-.24-3.48-.06-2.32-.04-4.65,.11-6.96,.21-1.44,.38-1.24,.88-.03,.26,.6,.52,1.46,.8,2.49,.28,1.03,.5,2.23,.58,3.54,.9,9.28,2.14,18.47,4.08,27.69,.62,2.75,1.25,5.55,2.11,8.32,.41,1.39,.82,2.78,1.23,4.17,.44,1.39,.88,2.77,1.31,4.15,1.88,6.07,3.93,12.13,5.88,18.22l1.78,5.64,1.67,5.68c.86,2.86,1.52,5.79,2.29,8.68,.31,1.46,.63,2.93,.94,4.39,.29,1.46,.68,2.9,.89,4.38,.37,2.28,.82,4.53,1.22,6.78,.29,2.27,.63,4.53,.86,6.81,.14,1,.16,1.99,.2,3.01,.08,1.89-.08,3.14-.2,4.01-.14,.87-.34,1.38-.62,1.78-.13,.18-.25,.42-.37,.53-.4,.36-.85-1.17-1.3-3.86-.45-4.01-1.18-8.06-1.65-12.19-.37-2.05-.73-4.11-1.1-6.18-.16-1.04-.39-2.07-.63-3.1l-.67-3.1-.49-2.31-.59-2.29-1.17-4.59c-.9-3.04-1.72-6.1-2.71-9.14l.07-.03Z"/>
    <path class="cls-1" d="M107.44,443.69c1.74-.28,3.51-.43,5.26-.53,.64-.02,1.28-.12,1.92-.12,2.28,.04,4.54,.42,6.73,.91,.98,.19,1.95,.43,2.89,.69,.6,.19,1.24,.28,1.8,.58,.55,.35,1.13,.58,1.64,1,.32,.25,.16,.5-.28,.76-.22,.13-.52,.28-.84,.38-.33,.11-.67,.14-1.04,.2-.16,.01-.33,.05-.48,.05l-.44-.07-.88-.11c-.58-.09-1.17-.14-1.74-.22-.57-.14-1.14-.22-1.71-.37-.58-.11-1.16-.23-1.74-.37-1.41-.27-2.91-.14-4.38-.06-1.62,.04-3.24,.23-4.87,.47-1,.16-2,.35-2.98,.59l-2.24,.59c-.74,.23-1.47,.47-2.19,.75-1.1,.48-2.1,1.12-3.12,1.74-.22,.14-.43,.3-.66,.42-.43,.22-.74,.31-1.02,.26-.14-.03-.27-.1-.4-.2-.15-.15-.31-.34-.45-.51-.13-.16-.26-.29-.35-.41-.24-.28-.36-1.47,.29-1.85,.87-.74,1.82-1.39,2.86-1.91,.52-.27,1.04-.52,1.58-.76,.55-.22,1.1-.43,1.66-.63,1.65-.61,3.4-.98,5.14-1.33l.02,.08Z"/>
    <path class="cls-1" d="M102.39,432.07l-1.74,4.28c-.21,.52-.32,1.05-.53,1.56-.36,.9-.73,1.8-1.07,2.71-.35,.91-.71,1.81-1.01,2.74-.29,.82-.46,1.66-.64,2.5-.28,1.06-.44,2.15-.9,3.19-.14,.32-.48,.22-.81-.13-.32-.35-.69-.97-.68-1.63-.01-2.33,.57-4.58,1.38-6.76,.54-1.29,.82-2.7,1.28-4.03,.5-1.47,1.05-2.9,1.56-4.33,.31-.88,.62-1.76,.9-2.64,.4-1.34,.76-2.69,.9-4.06,.07-1.07,0-2.12-.05-3.17,0-.23-.04-.46-.05-.69,.02-.87,.31-1.15,.86-1.37,.13-.05,.26-.11,.38-.15,.41-.11,.81,.24,1.12,.91,.4,1,.52,2.06,.64,3.15,.09,1.09-.07,2.19-.23,3.28-.28,1.62-.74,3.18-1.23,4.68l-.07-.02Z"/>
    <path class="cls-1" d="M272.92,143.11c1.48,3.32,1.82,6.73,1.84,10.04,.02,.61-.01,1.21,0,1.81,0,.6-.02,1.21-.1,1.8-.19,2.11-.61,4.18-1.06,6.22-.27,1.02-.51,2-.84,3.05-.35,1.05-.79,2.03-1.29,2.98-.89,1.68-1.96,3.28-3.27,4.67-.87,.86-1.81,1.68-2.91,2.27-.53,.32-1.11,.56-1.7,.73-.6,.16-1.18,.34-1.81,.34-.8-.11-.67-.14-.19-.69,.5-.5,1.31-1.34,2.25-2.05,3.36-2.48,5.76-6.3,6.84-10.62,.82-2.66,1.11-5.56,1.25-8.37,.13-3.08,0-6.22-.9-9.09-.26-.89-.62-1.73-1.05-2.51-.35-.62-.59-.96-1.02-1.3-.14-.14-.33-.22-.51-.33-.19-.09-.4,.06-.46,.24-.13,.36-.1,.77-.07,1.18l.06,.65,.13,1.11c.09,.75,.16,1.5,.21,2.27,.09,1.17,.06,2.47-.19,3.66-.24,1.19-.59,2.36-1.14,3.47-.23,.49-.52,.95-.86,1.39-.31,.41-.62,.72-.89,.96-.3,.22-.59,.33-.83,.42-.47,.18-.78,.2-1.05,.18-.12,0-.26,0-.33,0-.26-.04,.28-.69,.72-1.96,.51-.77,.8-1.67,1.16-2.51,.34-.86,.61-1.77,.77-2.68,.18-.93,.18-1.7,.11-2.72-.07-.98-.21-2-.35-3.08l-.12-.94-.11-1.19-.02-1.13c.04-.33,.1-.65,.16-.96,.18-.56,.43-.96,.79-1.31,.19-.17,.43-.31,.7-.45,.14-.06,.29-.07,.43-.1,.12-.09,.25-.03,.38-.05h.76c.28,.11,.56,.25,.84,.37l.42,.19c.14,.05,.27,.22,.41,.32l.81,.7c.29,.21,.48,.54,.71,.82l.66,.87c.13,.16,.17,.25,.23,.36l.17,.31,.33,.62-.06,.04Z"/>
    <path class="cls-1" d="M267.03,124.53l-2.34,13.37c-.3,1.63-.53,3.28-.89,4.9-1.25,5.73-2.8,11.41-4.82,16.94-.9,2.45-1.83,4.91-2.89,7.29-.7,1.52-1.44,3.03-2.29,4.48-.42,.73-.88,1.44-1.36,2.12-.23,.35-.5,.67-.79,.99-.28,.32-.56,.63-.87,.92-.78,.73-.94,.4-.86-.6,.05-.5,.14-1.18,.29-1.94,.17-.76,.49-1.55,.92-2.36,.77-1.43,1.46-2.9,2.12-4.39,.67-1.49,1.34-2.98,1.95-4.5,1.23-3.04,2.33-6.17,3.37-9.35,1.25-3.81,1.98-7.94,2.75-11.98,.87-4.44,1.62-8.92,2.37-13.43,.24-1.39,.48-2.77,.75-4.17,.14-.7,.28-1.39,.44-2.09l.26-1.05c.1-.38,.17-.63,.35-1.17,.31-.94,.75-1.85,1.44-2.34,.34-.26,.83-.36,1.25-.23,.41,.11,.76,.4,1.11,.66,.17,.19,.35,.37,.51,.57l.45,.63c.14,.2,.27,.47,.38,.67,.1,.18,.17,.36,.25,.54,.31,.72,.52,1.45,.72,2.18,.37,1.46,.59,2.91,.75,4.36,.35,3.32,.52,6.57,.52,9.84,0,.72,.02,1.43,0,2.15-.1,1.34-.21,2.22-.41,2.82-.23,.6-.51,.94-.82,1.21-.14,.12-.26,.29-.37,.36-.18,.12-.33-.09-.55-.6-.23-.5-.43-1.28-.46-2.26-.18-2.9-.09-5.83-.23-8.78-.12-2.93-.32-5.93-1.02-8.6-.16-.59-.38-1.16-.63-1.65-.05-.13-.13-.26-.18-.35,.02,0,.01,.01,.01,.01,0,0,0,0,0,0,0-.03-.01-.04-.02-.04,0,0-.01,0-.02,.01,0,0,0,0-.02,.03-.01,.03,0-.04-.03,.08l-.07,.26c-.38,1.4-.67,2.95-.94,4.49h-.07Z"/>
    <path class="cls-1" d="M119.34,188.67c1.96,4.21,5.72,8.91,10.96,7.68,3.76-.88,4.67-4.96,4.36-8.3-.15-1.66-.48-3.32-1.06-4.89-.27-.73-.98-1.23-1.78-1.01-.71,.19-1.29,1.05-1.01,1.78,.43,1.17,.7,2.38,.9,3.6,.01,.07,.03,.28,0-.05,0,.08,.02,.15,.03,.23,.02,.19,.04,.38,.05,.57,.03,.36,.04,.72,.04,1.09,0,.34-.01,.68-.04,1.01,0,.09-.02,.18-.03,.28,0-.05,.06-.32,0-.06-.04,.18-.06,.35-.1,.53-.07,.31-.17,.6-.27,.9,.13-.38-.06,.12-.11,.2-.08,.15-.18,.28-.26,.42-.16,.28,.15-.17,.02-.02-.05,.06-.11,.12-.16,.18-.09,.1-.19,.18-.28,.27-.22,.23,.19-.12,.02-.01-.07,.05-.14,.1-.21,.14-.1,.06-.56,.27-.22,.14-.32,.13-.66,.21-1,.27,.33-.06-.23,.01-.32,.02-.28,.01-.57,0-.85-.03,.17,.02-.3-.06-.39-.09-.25-.06-.5-.14-.74-.24,.14,.06-.28-.14-.36-.19-.25-.14-.5-.29-.74-.46-.7-.5-1.58-1.47-2.12-2.23-.71-1.01-1.3-2.09-1.82-3.21-.33-.71-1.35-.89-1.98-.52-.73,.43-.85,1.27-.52,1.98h0Z"/>
    <path class="cls-1" d="M127.83,169.8c-2.83-.76-5.97-.29-8.72,.56-3.06,.93-6.06,2.46-8.34,4.74-1.59,1.6,.88,4.07,2.47,2.47,1.83-1.83,4.28-3.07,6.79-3.84,.65-.2,1.3-.37,1.96-.5,.71-.14,1.06-.2,1.73-.25,.62-.05,1.23-.06,1.85-.02,.12,0,.23,.02,.35,.03,.53,.04-.18-.04,.12,.01s.57,.11,.85,.18c2.18,.58,3.11-2.79,.93-3.37h0Z"/>
    <path class="cls-1" d="M137.17,170.5c.85-1.34,2.22-2.35,3.79-2.76,.24-.06,.47-.11,.71-.15,.31-.05-.21,.02,.1-.01,.13-.01,.25-.02,.38-.03,.25-.01,.5-.01,.75,0,.13,0,.25,.02,.38,.02,.31,.02-.21-.04,.1,0,1.1,.16,1.78,.43,2.65,.97,.78,.48,1.96,.2,2.39-.63,.45-.85,.21-1.88-.63-2.39-2.3-1.41-5.15-1.85-7.76-1.16-2.44,.65-4.53,2.26-5.88,4.37-.49,.77-.19,1.96,.63,2.39,.87,.46,1.87,.2,2.39-.63h0Z"/>
    <path class="cls-1" d="M131.93,219.84c1.61,2.04,4.16,3.23,6.73,3.37,.85,.05,1.66-.78,1.62-1.62-.04-.92-.71-1.58-1.62-1.62-.2-.01-.41-.03-.61-.06l.43,.06c-.46-.06-.92-.17-1.36-.32-.11-.04-.22-.08-.33-.12-.04-.02-.13-.03-.16-.06,.02,.02,.35,.16,.15,.06-.23-.11-.45-.21-.66-.34-.2-.12-.4-.24-.59-.37-.06-.04-.38-.28-.15-.11s-.08-.07-.14-.12c-.37-.32-.7-.67-1-1.04-.24-.3-.78-.48-1.15-.48-.4,0-.87,.18-1.15,.48s-.5,.72-.48,1.15c.02,.46,.19,.79,.48,1.15h0Z"/>
    <path class="cls-1" d="M130.59,303.98c-1.02-2.12-2.12-4.23-3.3-6.29-.43-.76-.95-1.45-1.38-2.21-1.56-2.64-3.08-5.32-4.76-7.91-.73-1.16-1.58-2.24-2.35-3.35-1.02-1.41-2.1-2.8-2.86-4.41-.24-.5,.04-.61,.61-.46,.55,.17,1.5,.51,2.21,1.24,2.46,2.61,4.6,5.49,6.46,8.61,1.12,1.86,2.51,3.64,3.69,5.51,1.3,2.06,2.54,4.17,3.71,6.32,.73,1.32,1.41,2.67,2.08,4.01,1.02,2.05,1.91,4.17,2.78,6.29,.69,1.64,1.4,3.27,1.88,5.05,.1,.39,.19,.78,.25,1.19,.05,.38,.03,.71-.03,.98-.04,.27-.12,.49-.21,.67-.17,.36-.41,.56-.74,.71-.15,.07-.3,.16-.44,.19-.5,.12-.89-.46-1.38-1.36-.65-1.34-1.06-2.69-1.65-4.08-.6-1.37-1.09-2.82-1.7-4.26-.89-2.13-1.86-4.29-2.95-6.4l.07-.04Z"/>
    <g>
      <path class="cls-1" d="M130.99,315.61c.3,2.55,1.68,5.24,3.33,7.66,.6,.86,1.38,1.78,2,2.75,.91,1.41,1.76,2.86,2.52,4.35,.38,.75,.76,1.49,1.1,2.27,.17,.39,.34,.78,.5,1.19,.15,.43,.34,.79,.4,1.51l-.13,2.11c-.14,1.79-.37,3.64-.98,5.39-.75,2.28-2.32,4.18-4.12,5.55-.56,.44-.58,.29-.36-.31,.25-.57,.53-1.75,1.05-2.84,.42-.76,.74-1.54,1.01-2.31,.31-.75,.55-1.53,.72-2.34,.17-.81,.26-1.66,.34-2.53,.03-.43,.06-.87,.08-1.32l.03-.67v-.34s.02-.17,.02-.17v-.08s.03-.02-.01-.02c.1,.03-.08-.44-.21-.79-.14-.38-.32-.77-.49-1.16-1.11-2.42-2.74-4.77-4.32-7-1.84-2.44-3.72-5.2-4.71-8.37-.6-1.93-.81-4.19-.03-6.24l.23-.57c.07-.19,.26-.43,.38-.64l.41-.65,.51-.51c.17-.16,.34-.34,.51-.5,.19-.09,.43-.2,.67-.14,.47,.06,.85,.33,1.21,.65,.36,.33,.68,.77,.96,1.17,.16,.22,.25,.37,.35,.53l.29,.47,1.13,1.86c1.17,1.89,2.42,3.69,3.82,5.21,.31,.33,.63,.63,.95,.9,.3,.26,.53,.45,.7,.65,.18,.17,.32,.32,.43,.44,.1,.14,.19,.26,.28,.38,.07,.12,.15,.24,.23,.38,.07,.12,.19,.23,.25,.34,.1,.18-.02,.34-.45,.51-.42,.13-1.19,.17-1.95-.19-1.14-.49-1.92-1.34-2.66-2.12-.73-.81-1.38-1.66-1.98-2.53-1.21-1.71-2.25-3.61-3.37-5.12-.07-.09-.02-.03-.04-.06,0,0,0-.03-.05,.02v.02s-.08,.18-.08,.18l-.16,.38c-.08,.27-.15,.54-.2,.82-.07,.57-.1,1.17,0,1.81h-.07Z"/>
      <path class="cls-1" d="M138.46,301.65c-.17-1.35-.34-2.71-.4-4.13-.02-.35-.03-.71-.03-1.08,0-.18,0-.36,0-.55l.02-.39c0-.15,.02-.3,.03-.45,.09-1.21,.45-2.27,1.04-2.96,.21-.26,.46-.48,.72-.69l.45-.19c.16-.01,.34-.04,.51-.05,.34-.04,.67,.07,.95,.2,.3,.11,.56,.33,.82,.57,.22,.25,.44,.47,.62,.79l.28,.44,.24,.5c.16,.32,.33,.69,.43,.99,.08,.22,.16,.44,.23,.66,.28,.87,.52,1.74,.7,2.61,.37,1.74,.65,3.47,.9,5.2,.21,1.54,.51,3.07,.68,4.6,.11,.98,.27,1.96,.28,2.96,.01,.5,0,1-.01,1.5,0,.5-.15,1.01-.24,1.5-.16,.62-.24,.53-.53,.02-.15-.25-.37-.61-.65-1.02-.24-.42-.44-.91-.59-1.45-.96-3.83-1.41-7.73-2.09-11.61-.21-1.15-.5-2.32-.9-3.41-.05-.14-.1-.28-.15-.41l-.11-.26c-.04-.09-.08-.18-.13-.27-.09-.17-.2-.35-.37-.48-.23-.16-.43,.08-.52,.26-.1,.21-.14,.45-.17,.71l-.02,.37v.48c-.01,.32,.01,.65,.02,.97,.03,.65,.08,1.31,.15,1.98,.16,1.64,.38,3.29,.61,4.94,.34,2.51,.68,5.04,.91,7.57,.19,1.97,.39,3.92,.28,5.95-.03,.45-.05,.89-.12,1.34-.33,1.68-.84,2.13-1.48,2.23-.15,.02-.31,.07-.44,.06-.47-.05-.53-.75-.48-1.82,.32-3.15,.08-6.62-.34-10.17-.3-2.64-.74-5.3-1.15-8.01h.06Z"/>
      <path class="cls-1" d="M143.26,284.73c.17-.26,.35-.45,.52-.67,.21-.15,.4-.34,.82-.46,.37-.16,.82-.16,1.13-.09,.33,.06,.61,.2,.89,.37,1.09,.61,2.17,2.47,2.95,4.58,.14,.37,.28,.78,.41,1.13l.23,.68c.15,.45,.29,.91,.41,1.37,.79,3.26,1.27,6.54,1.63,9.83,.13,1.46,.29,2.93,.4,4.38,.11,1.87,.09,3.79-.5,5.63-.18,.57-.28,.47-.48-.04-.15-.51-.66-1.41-.87-2.42-.13-.91-.32-1.81-.48-2.71-.11-.91-.23-1.81-.37-2.72-.29-1.81-.48-3.66-.7-5.51-.26-2.22-.96-4.45-1.63-6.6l-.28-.88-.11-.38c-.07-.23-.14-.47-.25-.73-.1-.25-.22-.53-.39-.78-.08-.13-.19-.25-.32-.34-.13-.09-.3-.08-.41,0-.2,.25-.19,.58-.23,.92-.03,.35-.03,.72-.03,1.13v.51s.05,.89,.05,.89l.09,1.78c.04,1.19,.1,2.38,.18,3.56,.12,1.84,.36,3.64,.41,5.51,0,.41,0,.82-.04,1.24-.17,1.56-.55,2.14-1.12,2.29-.13,.03-.26,.08-.37,.07-.33-.07-.4-.58-.51-1.59-.42-3.21-.85-6.5-1.29-9.83-.18-1.27-.23-2.54-.3-3.86-.05-1.24-.13-2.54-.07-3.68,.04-1.15,.2-2.18,.57-2.65l.05,.09Z"/>
      <path class="cls-1" d="M155.61,292.82c.34,1.65,.58,3.28,.79,4.9,.08,.59,.23,1.17,.29,1.76,.2,2.09,.29,4.18,.34,6.26,.03,.92,.12,1.84,.21,2.76,.02,.59,.06,1.18,.05,1.77v.44s-.13,.45-.13,.45c-.09,.29-.17,.59-.26,.89-.13,.37-.23,.31-.49,.01-.19-.21-.38-.43-.55-.61-.13-.15-.24-.28-.35-.4-.06-.07-.1-.15-.18-.22-.02-.08-.05-.16-.07-.24l-.4-1.72c-.11-.58-.15-1.16-.22-1.74-.12-1.17-.21-2.34-.22-3.53,.01-1.43-.35-2.87-.58-4.29-.24-1.57-.51-3.13-.85-4.67-.21-.95-.44-1.89-.74-2.8-.11-.35-.23-.68-.35-1.02l-.35-.89c-.18-.43-.38-.8-.66-1.11l-.07-.08c-.11-.09-.21-.17-.33-.2-.09-.05-.26-.07-.33,.13-.13,.34-.13,.7-.15,.97,0,.13,0,.27,0,.36-.01,.09-.03,.14-.07,.18-.03,.01-.01,.05-.1,.04-.03,.02-.02,.03-.08,.08-.31,.18-.6,.23-.96,.16-.16-.03-.31-.06-.43-.13-.2-.11-.32-.32-.49-.49-.08-.11-.16-.22-.24-.34-.05-.06-.05-.17-.05-.32-.11-.2-.03-.32-.04-.5,.04-.73,.13-1.57,.36-2.2,.21-.65,.51-1.14,.83-1.44,.31-.3,.67-.52,1.28-.57,.26-.02,.49,.05,.74,.07,.25,.09,.49,.22,.74,.32,.36,.31,.74,.54,1.08,.98,.17,.2,.35,.39,.52,.61l.47,.73c.23,.32,.39,.66,.55,1,.16,.33,.37,.73,.41,.88,.17,.42,.32,.84,.45,1.25,.27,.83,.49,1.66,.69,2.49l-.07,.02Z"/>
      <path class="cls-1" d="M166.1,307.62c-.27,3.71-.94,7.35-1.93,10.89-.35,1.29-.7,2.59-1.15,3.85-.81,2.22-1.76,4.38-2.84,6.47-1.09,2.1-2.3,4.08-3.47,6.06-1.04,1.75-1.97,3.54-2.67,5.36-.45,1.17-.73,2.38-.93,3.61-.12,.61-.22,1.23-.32,1.85-.07,.63-.18,1.25-.35,1.9-.22,.8-.3,.71-.69,.03-.47-.68-1.08-2.01-1.05-3.65,.24-2.86,1.22-5.69,2.55-8.09,1.33-2.41,2.78-4.61,4.11-6.89,1.61-2.7,2.72-5.8,3.68-8.86,1.06-3.37,1.81-6.85,2.19-10.37,.24-2.16,.33-4.35,.23-6.51-.06-1.21-.18-2.42-.39-3.59-.11-.58-.24-1.16-.43-1.69-.09-.26-.19-.52-.31-.71-.06-.12-.11-.16-.15-.23,0,0-.01,0-.01,0h0s.05-.08,.07-.12c.09-.15,.12-.16,.12-.3l.36-.05c.08,.1,.16,.18,.25,.26,.04,.03,.01,.02,.02,.03,0,0,0,0-.01,.01l-.08,.22c-.06,.14-.09,.36-.14,.55-.08,.39-.15,.81-.21,1.23-.33,2.54-.38,5.12-.78,7.74-.09,.58-.16,1.15-.3,1.74-.64,2.15-1.36,2.73-2.1,2.85-.17,.03-.35,.09-.49,.08-.24-.02-.33-.27-.37-.68-.02-.4-.04-1,.08-1.71,.07-.5,.09-1.01,.17-1.52,.09-.5,.14-1.03,.21-1.54,.11-1.06,.23-2.14,.35-3.21,.11-1.1,.22-2.2,.36-3.35,.07-.58,.15-1.16,.27-1.78,.04-.29,.14-.66,.22-.99l.22-.64c.01-.07,.13-.29,.25-.47,.12-.19,.25-.36,.39-.53l.58-.66,.96,.11c.36,.04,.84,.22,1.07,.37,.2,.14,.41,.31,.56,.47,.21,.25,.43,.54,.52,.73,.36,.64,.52,1.14,.68,1.66,.15,.51,.27,1.01,.36,1.5,.19,.98,.3,1.94,.38,2.89,.15,1.91,.13,3.8,.03,5.67h-.07Z"/>
    </g>
    <path class="cls-4" d="M256.85,290.27c0,4.28-6.84,2.65-4.87-1.28,1.2-2.4,4.87-1.39,4.87,1.28Z"/>
  </g>
  <path class="cls-3" d="M434.38,122.04c0,4.28-6.84,2.65-4.87-1.28,1.2-2.4,4.87-1.39,4.87,1.28Z"/>
</svg>