<?xml version="1.0" encoding="UTF-8"?><svg id="Layer_36" xmlns="http://www.w3.org/2000/svg" width="520" height="520" viewBox="0 0 520 520"><defs><style>.cls-1{opacity:.1;}.cls-1,.cls-2,.cls-3,.cls-4{fill:#231f20;}.cls-5{stroke-width:.8px;}.cls-5,.cls-6,.cls-7{fill:none;stroke:#231f20;stroke-miterlimit:10;}.cls-7{stroke-width:1.2px;}.cls-3{opacity:.55;}.cls-4{opacity:.25;}</style></defs><path class="cls-2" d="m210.8,389.51c-1.85-4.52-4.24-8.86-7.03-12.94-.99-1.52-2.19-2.87-3.26-4.33-1.94-2.49-4.1-4.81-6.51-6.84-2.41-2.02-5.08-3.75-8.01-4.86-2.6-.97-5.4-1.38-8.13-1.13-3.52.31-6.87,1.79-9.87,3.78-.96.59-1.01.32-.39-.48.31-.4.78-.94,1.4-1.56.64-.58,1.49-1.14,2.44-1.72,3.46-1.87,7.65-2.63,11.63-1.99,3.99.66,7.65,2.46,10.77,4.81,1.9,1.38,3.67,2.95,5.42,4.57,1.69,1.66,3.34,3.42,4.77,5.27,3.22,4.03,6.06,8.37,8.42,12.97,1.48,2.82,2.68,5.78,3.76,8.78,1.58,4.57,2.49,9.39,2.82,14.19.21,3.74.22,7.44-.31,11.17-.16.81-.34,1.6-.55,2.41-.36,1.51-.86,2.42-1.26,3.03-.22.3-.43.52-.66.68-.24.16-.48.26-.72.33-.22.07-.44.19-.61.21-.29.04-.42-.27-.56-.89-.16-.63-.09-1.47.12-2.5.41-3.1.91-6.18.95-9.36.12-1.58-.04-3.18-.05-4.78-.2-1.6-.25-3.21-.58-4.8l-.3-1.78c-.11-.59-.27-1.18-.41-1.77l-.41-1.77-.51-1.75-.5-1.76-.61-1.73c-.21-.58-.4-1.16-.62-1.73l-.72-1.7.08-.04Z"/><path class="cls-2" d="m207.3,398.61l1.74-1.1,1.85-.94.92-.46c.31-.15.64-.26.96-.38l1.93-.74c.95-.31,1.91-.64,2.88-.9,3.5-.74,7.1-.54,10.5.12l2.22.61c.37.11.74.18,1.1.3l1.06.42,1.36.52c.45.17.91.33,1.32.59.84.47,1.66.99,2.43,1.56.48.36.18.7-.5.9-.67.2-1.73.34-2.7.02-.83-.35-1.75-.46-2.6-.68l-1.29-.31-1.31-.16c-1.71-.3-3.4-.63-5.17-.82-1.05-.04-2.15-.09-3.21.16l-1.61.29c-.53.11-1.05.31-1.58.44-2.34.57-4.55,1.63-6.7,2.82l-1.91,1.24c-.65.4-1.21.93-1.81,1.4-1.8,1.45-3.45,3.14-4.86,4.97-.51.74-.97,1.51-1.42,2.27-.44.77-.77,1.6-1.18,2.38-.17.35-.32.7-.47,1.06-.61,1.31-1.05,1.6-2.08,1.48-.23-.03-.48-.03-.7-.08-.75-.17-1.03-.99-.73-2.14.91-3.37,2.7-6.72,5.23-9.44.43-.54.96-1,1.44-1.49.5-.48.97-.99,1.51-1.43,1.09-.87,2.11-1.8,3.3-2.55l.06.08Z"/><path class="cls-1" d="m266.22,243.33s-4.76,32.88-1.15,34.54,41.16,1.73,52.65,32.31c11.49,30.58,5.14,58.24-4.19,68.07-9.33,9.83-28.76,17.93-30.8,23.86,0,0,15.38,66.88,26.2,61.74,10.81-5.15,102.37-44.24,101.98-56.37-.39-12.13-27.04-57.52-27.04-57.52,0,0-.89-8.02-9.62-2.84-8.73,5.18-20.11,13.97-16.22,1.7,0,0,8.94-10.54,6.43-9.86-2.51.68-18.61,10.86-19.97,4.08-1.36-6.78,5.76-8.24,5.76-8.24,0,0-13.9,4.18-15.41-3.02s4.52-9.14,4.52-9.14c0,0-6.36-.42-2.05-6.21s27.27-9.44,27.27-9.44c0,0-33.75-70.86-34.54-74.38s-10.37-1.61-21.12,0-42.71,10.71-42.71,10.71Z"/><path class="cls-2" d="m384.79,419.46c.41-3.96-.01-8.15-1.07-12.09-.54-1.97-1.25-3.89-2.17-5.65-.93-1.73-2.07-3.39-3.49-4.45-.26-.19-.51-.4-.79-.53-.27-.16-.54-.31-.82-.4l-.42-.17-.43-.09c-.15-.03-.28-.08-.44-.09l-.5-.03c-1.33-.14-2.68.1-4.03.43-2.38.67-4.67,2-6.77,3.63-2.11,1.63-4.04,3.54-5.86,5.58-3.62,4.1-6.75,8.69-9.59,13.45-2.53,4.22-4.74,8.66-6.82,13.09-2.7,5.69-4.97,11.57-7.46,17.37-.74,1.82-.66,1.58-.33-.07.17-.88.41-2.05.68-3.42.15-.71.28-1.49.5-2.29.22-.8.49-1.64.79-2.51,2.13-6.13,4.54-12.18,7.52-17.97,2.96-5.81,6.3-11.47,10.37-16.7,2.46-3.1,5.09-6.22,8.3-8.89,1.59-1.35,3.34-2.57,5.29-3.51,1.94-.93,4.11-1.63,6.38-1.67.62,0,1.24.06,1.86.1.31.02.65.12.97.18.33.06.65.15.96.28,1.27.42,2.34,1.17,3.3,1.96,1.86,1.65,3.21,3.64,4.24,5.71,2.05,4.16,3.11,8.62,3.51,13.14.24,2.78.16,5.6-.35,8.41-.28,1.4-.68,2.8-1.28,4.15-.6,1.35-1.48,2.65-2.71,3.67-.22.21-.47.37-.73.53-.26.16-.61.41-.95.51l-1.03.38c-.17.11-.35,0-.53-.03-.18-.04-.36-.08-.53-.15-.69-.22-1.33-.65-1.79-1.24-.21-.3-.43-.61-.57-.96-.17-.35-.24-.7-.31-.98-.44-2.43.13-4.53.69-6.57,1.22-4.05,3.11-7.77,5.28-11.27,1.68-2.64,3.6-5.6,6.99-7.06,1.68-.7,3.83-.76,5.56.11,1.75.81,3.04,2.22,3.96,3.71.82,1.32,1.42,2.72,1.69,4.22.92,5.57-.45,7.23-1.14,8.2-.19.22-.38.52-.52.64-.24.2-.35-.24-.45-1.16-.13-.93-.36-2.35-.56-4.06-.19-1.27-.52-2.51-1-3.65-.46-1.14-.98-2.23-1.68-3.09-.68-.87-1.52-1.5-2.34-1.73-.41-.13-.81-.17-1.24-.12-.42.04-.86.16-1.31.38-.9.42-1.82,1.16-2.65,2.08-.41.47-.81.96-1.18,1.5-.39.53-.78,1.14-1.16,1.71-1.51,2.35-2.84,4.84-3.91,7.39-.77,1.89-1.46,3.85-1.64,5.7-.11.91-.08,1.79.08,2.33.06.16.02.09.03.11h0s.01.03.02.04c.01,0,.02.01.04,0-.02.01.06-.04.13-.09.07-.05.15-.08.2-.15.12-.13.25-.25.38-.36.13-.12.23-.29.36-.43.13-.14.23-.3.34-.48.24-.32.43-.7.63-1.09.77-1.58,1.18-3.53,1.38-5.51h.09Z"/><path class="cls-2" d="m349.64,271.51c-.04.47-.13.83-.2,1.25-.09.4-.11.82-.27,1.21-.27.79-.5,1.6-.94,2.33-.35.77-.89,1.43-1.39,2.11-.26.33-.58.61-.87.91-.29.31-.6.59-.95.83-2.65,2.11-5.99,2.87-9.17,2.93-2.33,0-4.7-.37-6.86-1.36-.47-.24-.93-.47-1.4-.73-.45-.31-.93-.6-1.32-.98-.84-.7-1.51-1.56-2.08-2.44-1.1-1.8-1.76-3.77-2.08-5.74-.65-3.96-.25-7.92.7-11.69.85-3.34,2.16-6.58,3.86-9.55,1.09-1.91,2.38-3.71,3.85-5.36.74-.82,1.52-1.6,2.36-2.32.82-.73,1.71-1.4,2.72-1.87,1.23-.62,1.19-.31.57.73-.33.5-.69,1.31-1.29,2.04-.57.77-1.24,1.63-2.03,2.5-1.38,1.55-2.59,3.25-3.66,5.04-1.08,1.77-2.01,3.65-2.76,5.6-1.49,3.89-2.33,8.08-2.19,12.24.13,2.46.7,5.01,2.05,7.02.66,1,1.5,1.85,2.49,2.44,1.04.58,2.19,1.08,3.4,1.35,2.63.68,5.5.54,8.07-.32.63-.24,1.27-.48,1.84-.83.63-.27,1.13-.71,1.7-1.07,1.02-.86,1.9-1.89,2.52-3.1.21-.36.31-.77.48-1.15.18-.38.26-.8.34-1.21.21-.84.34-1.65.1-2.18-.19-.5-.71-.72-1.46-.61-.72.14-1.46.55-2.12,1.06-2,1.55-3.16,4.07-3.77,6.63-.58,2.58-.68,5.3-.02,7.8.51,1.94,1.51,3.69,2.86,5.06.31.37.7.65,1.07.96.35.32.77.56,1.17.82.38.28.81.5,1.23.72.41.24.85.43,1.3.6.77.36,1.6.51,2.41.77,1.56.36,2.61.54,3.34.87.74.25,1.18.52,1.54.92.16.18.38.35.48.51.17.28-.1.51-.76.73-.33.11-.76.22-1.27.32-.52.07-1.13.12-1.81.11-2.02-.16-4.1-.55-6.11-1.42-2.02-.83-3.87-2.26-5.3-4.04-1.44-1.78-2.44-3.92-2.92-6.12-.5-2.21-.54-4.47-.21-6.62.19-1.61.62-3.18,1.21-4.7.6-1.52,1.44-3.01,2.6-4.29.58-.64,1.25-1.23,1.99-1.7.74-.47,1.57-.89,2.57-1.09.5-.1,1.05-.18,1.67-.06.6.09,1.28.39,1.76.91.49.49.78,1.12.9,1.67.14.57.14,1.08.12,1.56h-.06Z"/><path class="cls-2" d="m202.33,228.88c-2.65.9-5.25,1.95-7.84,3.05-.94.42-1.84.9-2.78,1.31-3.3,1.49-6.57,3.08-9.76,4.83-1.41.79-2.78,1.65-4.13,2.51-1.74,1.1-3.43,2.28-5.39,3.07-.6.26-.66.02-.39-.56.13-.29.34-.68.61-1.12.14-.22.29-.45.46-.68.08-.12.18-.22.27-.35.11-.09.22-.19.34-.28,3.34-2.65,7.05-4.77,10.92-6.64,2.32-1.1,4.61-2.48,6.98-3.61,2.59-1.28,5.27-2.37,7.96-3.43,1.67-.62,3.33-1.25,5.02-1.8l1.92-.64,1.94-.57c1.28-.4,2.59-.73,3.87-1.11,2-.55,3.95-1.19,5.98-1.59.45-.08.87-.22,1.33-.26,1.71-.09,2.27.06,2.69.5.1.1.22.2.28.29.2.32-.43.76-1.58,1.24-.85.37-1.72.64-2.59.96-.87.31-1.77.51-2.65.81-.88.29-1.79.52-2.69.77-.9.25-1.81.5-2.71.76-2.68.81-5.38,1.61-8.02,2.62l-.03-.06Z"/><path class="cls-2" d="m291.36,227.18c-.67-.45-1.37-.89-2.11-1.28-.27-.14-.57-.22-.84-.37-.94-.55-1.92-1.1-2.92-1.58-.45-.21-.9-.4-1.35-.59-.58-.23-1.17-.46-1.69-.84-.16-.12-.06-.32.18-.49.24-.17.63-.36.99-.32.64.09,1.27.19,1.9.33.6.2,1.19.44,1.77.74.69.37,1.49.51,2.24.8.81.35,1.61.73,2.4,1.16.49.26.96.55,1.43.83.73.43,1.38.97,2.05,1.47.53.38,1.09.72,1.57,1.17.11.1.24.17.3.31.29.47.26.71-.01,1.07-.06.08-.12.17-.19.24-.22.24-.59.27-.98.15-.59-.16-1.04-.42-1.53-.64-.45-.25-.87-.54-1.3-.81-.65-.4-1.25-.91-1.95-1.31l.03-.05Z"/><path class="cls-2" d="m229.4,200.78s6.16,17.78,21.95,21.27c9.63,2.13,20.78-6.06,20.78-6.06,0,0-21.38,2.55-28.47-2.33-7.09-4.88-14.25-12.87-14.25-12.87Z"/><path class="cls-2" d="m157.27,331.81s12.54,0,16.49-5.28c2.31-3.1-1.06-4.27-1.06-4.27l-4.18,4.93-11.25,4.62Z"/><path class="cls-2" d="m173.92,321.25s9.25-.73,10.77-6.37c1.52-5.65-1.55,1.09-4.5,1.55-2.96.47-7.51,2.08-7.51,2.08l1.25,2.74Z"/><path class="cls-2" d="m184.69,310.22s2.07-1.37,1.98-5.13-2.03,1.58-4.36,2.77c-2.32,1.19,2.37,2.37,2.37,2.37Z"/><path class="cls-3" d="m262.21,243.33l-1.99,34.26s-7.17,1.44-7.17-2.25c0-6.37-.09-31.93-.09-31.93l9.25-.09Z"/><path class="cls-3" d="m255.48,282.34l4.49,5.82s39.55-.21,51.63,33.09c12.08,33.3-3.26,53.96-20.74,62.87-17.49,8.91-26.14,10.49-23.42,13.92s14.37,61.54,14.37,61.54c0,0,15.11,7,13.99,3.06-5.29-18.62-18.36-62.87-18.36-62.87,0,0,57.85-24.93,40.28-77.13-15.17-45.06-63.17-40.86-63.17-40.86l.93.57Z"/><g><path class="cls-2" d="m260.2,252.48c-.64.16-1.29.33-1.95.53-.24.07-.44.23-.68.3-.86.24-1.79.35-2.69.54-.39.09-.78.22-1.15.39-.48.18-.96.56-1.57.23-.19-.09-.27-.69-.27-1.36,0-.34,0-.69.04-.99.03-.32.09-.53.2-.57.78-.33,1.61-.61,2.63-.64.61-.02,1.1-.42,1.67-.62.64-.22,1.28-.44,1.93-.66.4-.14.81-.27,1.21-.41.6-.23,1.26-.36,1.86-.62.47-.19.88-.57,1.36-.79.11-.04.21-.11.33-.12.44-.05.63.14.84.81.05.15.1.3.14.46.13.51.07,1-.13,1.3-.15.22-.29.42-.43.62-.16.15-.31.27-.48.4-.33.24-.68.43-1.05.62-.53.31-1.17.43-1.78.68l-.04-.08Z"/><path class="cls-2" d="m260.62,267.93c-.6.15-1.21.3-1.81.47-.22.07-.4.2-.63.25-.81.15-1.63.26-2.43.43-.36.06-.66.26-1,.35-.42.16-.83.38-1.36.23-.17-.05-.31-.54-.39-1.09-.07-.55-.09-1.2.09-1.38.35-.29.64-.66,1.07-.75.4-.13.84-.22,1.31-.24.57-.02.99-.41,1.49-.62.56-.22,1.14-.39,1.72-.59.35-.12.72-.24,1.06-.38.53-.21,1.09-.38,1.57-.68.39-.22.68-.61,1.05-.92.08-.07.14-.17.24-.19.38-.09.59.1.96.8l.25.48c.25.54.31,1.07.21,1.43-.14.58-.42.85-.69,1.15-.14.14-.29.27-.45.39-.17.1-.34.19-.52.27-.53.25-1.12.43-1.69.66l-.04-.08Z"/><path class="cls-2" d="m275.86,286.43c0-.53-.04-1.08-.17-1.62-.04-.2-.18-.35-.23-.55-.19-.68-.33-1.45-.71-2.11-.15-.3-.4-.52-.65-.73-.18-.12-.33-.25-.47-.41-.15-.15-.27-.32-.36-.58-.05-.16.24-.57.64-.94.4-.36.96-.7,1.28-.6.56.18,1,.55,1.36.97.37.42.67.9.85,1.45.23.63.69,1.13.94,1.75.27.68.45,1.38.57,2.09.08.43.12.87.17,1.31.07.66.05,1.32.08,1.97.02.5.2,1.01.24,1.55.02.12.04.23.01.35-.13.42-.48.48-1.14.42-.16-.02-.31-.03-.45-.05-.49-.08-.9-.33-1.19-.62-.35-.42-.48-.76-.58-1.1-.06-.17-.11-.34-.14-.51-.05-.17-.08-.33-.07-.5-.02-.5,0-1.02-.07-1.53l.08-.02Z"/><path class="cls-2" d="m295.12,294.06c.26-.38.51-.81.67-1.26.07-.17.04-.34.1-.51.2-.6.32-1.24.39-1.92.03-.3-.04-.59-.11-.87-.11-.36-.26-.7-.27-1.12,0-.13.22-.25.51-.28.29-.03.68,0,.87.21.59.74,1.07,1.66.98,2.63-.09.57.04,1.15-.02,1.73-.07.63-.23,1.24-.44,1.83l-.21.54-.27.51c-.27.52-.62.98-.9,1.47-.22.38-.41.79-.68,1.15-.05.08-.12.15-.21.2-.33.19-.53.14-.88-.14-.08-.06-.16-.12-.23-.19-.23-.22-.33-.53-.34-.83-.03-.92.11-1.47.39-1.99.1-.19.19-.39.3-.58.09-.2.17-.41.28-.6l.06.02Z"/><path class="cls-2" d="m311.14,313.16c.2-.59.47-1.21.64-1.86.07-.24.02-.48.09-.72.25-.85.47-1.73.64-2.62.1-.4.1-.79.09-1.19-.02-.5-.12-1.01.15-1.53.09-.16.59-.17,1.13-.07.53.1,1.14.31,1.25.6.18.52.34,1.04.42,1.57.03.27.07.54.03.81-.05.27-.12.55-.21.82-.23.65-.06,1.33-.12,2-.07.74-.2,1.48-.35,2.22-.11.46-.26.9-.4,1.36-.22.69-.49,1.35-.74,2.05-.07.28-.17.55-.26.84-.08.29-.19.58-.35.86-.07.12-.11.27-.23.36-.48.33-.77.27-1.25-.14-.11-.09-.22-.18-.32-.28-.32-.32-.48-.76-.56-1.11-.17-.55-.17-.85-.22-1.24l-.02-.26c-.01-.09-.01-.19,0-.27.03-.17.08-.32.11-.51.12-.52.29-1.09.39-1.7h.09Z"/><path class="cls-2" d="m305.26,305.24c.24-.54.46-1.1.6-1.68.06-.21.03-.43.08-.65.09-.38.16-.76.27-1.16.08-.4.13-.8.19-1.21.05-.37,0-.72-.04-1.08-.07-.45-.17-.9-.16-1.39,0-.16.19-.2.44-.16.24.05.61.18.79.43.29.45.55.93.74,1.43.19.5.31,1.03.22,1.57-.05.64.07,1.29,0,1.94-.08.71-.23,1.41-.42,2.09-.12.42-.26.83-.4,1.24-.22.62-.5,1.21-.73,1.82-.2.46-.27.98-.46,1.46-.04.11-.05.23-.14.3-.31.3-.55.3-1.04.07-.11-.05-.23-.1-.33-.16-.34-.19-.56-.52-.63-.88-.15-.55-.05-.92,0-1.32.06-.39.13-.78.31-1.11.23-.52.49-1.04.68-1.59h.06Z"/><path class="cls-2" d="m321.83,327.48c-.44.7-.95,1.36-1.53,1.94-.19.22-.33.49-.54.69-.78.71-1.61,1.33-2.43,1.9-.38.24-.72.51-1.05.79-.43.35-.84.75-1.46.83-.19.03-.43-.38-.6-.87-.17-.48-.3-1.08-.14-1.3.6-.82,1.07-1.61,2.02-2.06.55-.3.77-.9,1.12-1.38.39-.53.76-1.07,1.15-1.62.23-.34.46-.69.64-1.06.27-.56.57-1.14.73-1.74.09-.48.03-.98.06-1.45.01-.1-.01-.21.01-.31.2-.37.46-.48,1.02-.53.13-.01.25-.03.37-.04.39-.02.75.18,1.04.54.24.27.36.55.45.83.1.28.19.57.25.86.08.57.03,1.14-.06,1.7-.17.83-.59,1.58-.96,2.32l-.08-.04Z"/><path class="cls-2" d="m322.69,344.56c-.58.47-1.16.92-1.83,1.24-.23.13-.41.33-.65.44-.87.38-1.76.66-2.63.91-.39.09-.76.24-1.11.4-.45.2-.9.46-1.47.31-.18-.04-.31-.58-.38-1.17-.06-.58-.07-1.25.11-1.4.68-.55,1.26-1.09,2.21-1.13.56-.06.89-.52,1.31-.81.46-.33.95-.65,1.44-.97.3-.21.59-.43.86-.68.38-.39.86-.74,1.16-1.2.23-.37.29-.81.42-1.21.03-.09.03-.19.1-.26.22-.27.47-.29,1.04-.13l.39.1c.41.13.71.42.83.8.22.59.14,1.08.08,1.59-.09.51-.24.99-.45,1.46-.26.73-.86,1.23-1.36,1.78l-.07-.06Z"/><path class="cls-2" d="m318.43,363.74c-.75.19-1.5.34-2.25.46-.27.05-.52.15-.8.16-.98.02-1.95-.05-2.88-.13-.41-.02-.82-.08-1.22-.09-.51-.02-1.04-.04-1.53-.33-.15-.09-.1-.42.05-.79.15-.36.4-.82.65-.93.46-.19.9-.37,1.33-.52.43-.15.88-.05,1.35,0,.57.1,1.09-.22,1.62-.36.59-.16,1.21-.26,1.8-.45.37-.11.74-.23,1.09-.38.53-.24,1.09-.46,1.56-.81.18-.14.32-.33.45-.52.15-.16.29-.34.46-.48.07-.06.13-.15.21-.2.29-.22.59-.07,1.07.31l.33.26c.34.29.52.7.5,1.14-.09.59-.26,1.15-.5,1.68-.33.42-.72.77-1.14,1.09-.63.47-1.4.71-2.12.99l-.04-.08Z"/><path class="cls-2" d="m310.66,377.69c-.75-.05-1.49-.08-2.21-.28-.26-.05-.52-.03-.78-.11-.45-.14-.89-.31-1.32-.49-.41-.21-.83-.42-1.24-.63-.36-.17-.72-.31-1.08-.44-.46-.17-.94-.31-1.29-.73-.11-.13.07-.46.35-.78.28-.32.65-.66.9-.65.9.06,1.73.08,2.53.42.48.22,1.04.13,1.55.15.57.02,1.15.09,1.74.13.36.02.73.03,1.09,0,.55-.04,1.11-.11,1.63-.28.4-.15.72-.49,1.05-.76.07-.05.13-.14.21-.19.29-.17.48-.02.94.65l.31.46c.33.52.44,1.05.25,1.38-.53.97-1.42,1.59-2.37,1.95-.73.2-1.5.26-2.25.3v-.09Z"/><path class="cls-2" d="m301.32,387.14c-.87-.11-1.72-.27-2.55-.47-.3-.06-.61-.07-.91-.16-1.05-.31-2.02-.83-2.96-1.32-.42-.21-.84-.4-1.26-.58-.54-.24-1.09-.46-1.5-.93-.13-.14.06-.42.37-.66.3-.23.72-.46,1.01-.38,1.06.3,2.07.53,3.07.97.6.26,1.29.25,1.94.36.72.11,1.44.21,2.17.24.45.02.9.04,1.35,0,.68-.05,1.38-.05,2.04-.25.5-.18.95-.48,1.42-.7.1-.05.19-.12.3-.16.39-.16.61.02.96.57.08.13.17.25.24.37.24.42.23.88-.01,1.24-.38.49-.84.89-1.35,1.23-.52.29-1.1.44-1.68.57-.43.09-.87.15-1.31.17-.45-.01-.89-.01-1.33-.04v-.07Z"/><path class="cls-2" d="m289.05,394.34c-.77-.25-1.52-.53-2.26-.83-.27-.1-.56-.15-.82-.27-.93-.42-1.78-1.02-2.62-1.57-.38-.24-.77-.44-1.16-.63-.5-.24-1.05-.44-1.4-.94-.11-.16.18-.56.57-.91.39-.34.87-.65,1.14-.54.97.4,1.89.82,2.76,1.46.53.38,1.19.49,1.79.72.66.25,1.34.5,2.03.71.42.13.85.25,1.29.33.66.14,1.33.25,2,.27.52,0,1.03-.15,1.54-.25.11-.02.22-.03.33-.02.42.05.57.23.7.77.03.12.07.24.09.36.07.4-.08.77-.4,1.02-.48.41-1,.58-1.54.7-.54.1-1.09.2-1.63.13-.81-.07-1.61-.26-2.4-.45v-.07Z"/><path class="cls-2" d="m279.91,415.61c-.87-.25-1.71-.63-2.55-.96-.31-.12-.63-.18-.93-.31-1.06-.48-2.07-1.04-3.05-1.63-.44-.25-.89-.46-1.34-.66-.58-.26-1.17-.5-1.65-.97-.15-.14.02-.42.33-.65.3-.23.74-.45,1.08-.36,1.21.33,2.38.64,3.49,1.21.65.38,1.43.47,2.16.67.8.23,1.6.46,2.41.65.5.14,1,.27,1.5.37.77.15,1.54.31,2.32.32.61-.02,1.2-.16,1.79-.25.13-.02.26-.02.39-.01.49.08.65.29.77.9.03.14.07.28.08.41.06.45-.13.86-.51,1.12-1.13.85-2.39.86-3.61.74-.91-.09-1.81-.29-2.7-.49v-.07Z"/><path class="cls-2" d="m283.18,430.1c-.76-.14-1.5-.39-2.23-.61-.27-.08-.54-.09-.8-.19-.92-.35-1.8-.75-2.66-1.16-.39-.16-.77-.31-1.16-.47-.49-.19-1.01-.36-1.4-.77-.12-.13.04-.43.31-.72.27-.28.66-.58.94-.54.51.07,1.01.14,1.49.24.47.16.92.35,1.38.58.55.3,1.19.27,1.79.38.66.12,1.33.23,2,.31.41.06.83.13,1.25.15.63.04,1.28.09,1.91-.01.49-.09.94-.35,1.39-.51.1-.01.2-.05.31-.06.4,0,.56.19.78.78.05.14.1.27.15.4.14.44.05.88-.22,1.19-.2.22-.41.45-.63.64-.23.13-.47.24-.72.33-.49.19-1.02.22-1.54.25-.78.03-1.56-.05-2.33-.13v-.07Z"/><path class="cls-2" d="m287.82,444.17c-.84-.22-1.68-.41-2.49-.72-.3-.1-.6-.16-.89-.27-1.03-.41-2.03-.86-3.01-1.3-.44-.19-.89-.37-1.33-.53-.57-.22-1.14-.43-1.64-.79-.16-.11-.06-.27.17-.4.22-.12.58-.23.91-.15,1.18.3,2.34.56,3.47.98.68.26,1.44.3,2.16.43.8.13,1.59.3,2.38.44.49.09.98.17,1.48.22.75.08,1.51.16,2.26.13.58,0,1.15-.18,1.72-.24.13,0,.25-.04.38-.04.47,0,.63.15.78.65.03.11.07.22.1.34.08.37-.09.72-.45.92-.52.31-1.08.56-1.65.66-.29.06-.58.1-.87.14-.29.03-.59-.01-.88-.03-.87-.06-1.74-.23-2.59-.39v-.06Z"/><path class="cls-2" d="m291.73,455.83c-.88-.14-1.74-.41-2.6-.67-.31-.09-.63-.12-.94-.23-1.07-.42-2.12-.85-3.11-1.41-.43-.25-.88-.45-1.32-.66-.56-.26-1.12-.53-1.58-.99-.14-.14,0-.35.26-.53.27-.18.68-.38,1.02-.32.59.1,1.17.21,1.77.31.29.06.57.12.85.2.27.11.53.24.8.37.64.34,1.39.33,2.09.45.78.14,1.56.25,2.36.36.49.08.98.14,1.48.18.75.05,1.52.12,2.28.04.59-.03,1.15-.31,1.73-.39.13-.01.25-.05.38-.05.48.01.66.21.82.84.04.14.08.29.11.43.09.48-.07.91-.41,1.18-.25.19-.51.38-.78.55-.27.17-.55.24-.82.33-.56.17-1.14.27-1.73.25-.87.01-1.77-.09-2.65-.18v-.08Z"/></g><path class="cls-4" d="m181.17,406.19c-37.91-31.35-23.48-73.72-23.73-75.5,0,0,.74-1.45-2.94,2.44s-14.43,10.77-16.55,10.77-.16,12.23,7.21,32.32c7.37,20.09,18.01,36.9,51.73,52.08,34.16,15.38,48.14,5.08,48.14,5.08,0,0-29.64,2.72-50.72-17.23l-13.13-9.95Z"/><path class="cls-4" d="m227.02,246.74s-47.66.26-65.26,44.63l-20.21,5.54s20.18-42.45,62.21-54.1c0,0,2.25-.14,6.85,1s16.41,2.93,16.41,2.93Z"/><path class="cls-2" d="m192.41,255.41c-1.38-.19-2.78-.4-4.19-.47-.52-.05-1.03.04-1.54.02-1.82-.06-3.65.04-5.48.25-.82.08-1.6.32-2.38.51l-1.47.49c-.49.17-.97.35-1.49.48-.32.08-.4-.16-.26-.52.14-.36.48-.88,1.04-1.21,2-1.05,4.16-1.84,6.41-2,1.35-.08,2.72-.36,4.09-.43,1.51-.08,3.01-.03,4.52.07.92.12,1.84.21,2.76.37.69.1,1.38.23,2.07.39.69.13,1.37.31,2.05.46,1.06.24,2.15.36,3.17.78.23.09.46.14.68.25.81.44.97.77.86,1.35-.03.13-.04.27-.08.39-.14.4-.64.58-1.25.51-.44-.08-.9-.12-1.36-.17l-.67-.09c-.23-.02-.46-.04-.68-.1-.87-.22-1.77-.4-2.67-.61-1.35-.26-2.72-.54-4.12-.67v-.07Z"/><path class="cls-2" d="m173.98,270.67c-1.41-.11-2.84-.22-4.28-.18-.53.02-1.04.11-1.57.14-1.87.05-3.73.34-5.62.6-.83.15-1.65.36-2.45.63-1.03.32-2.02.73-3.12.91-.34.05-.43-.28-.3-.73.13-.44.47-1.05,1.03-1.37,2.01-1.05,4.12-2.05,6.43-2.34.7-.06,1.38-.21,2.07-.37.7-.13,1.39-.32,2.09-.41,1.55-.19,3.11-.32,4.67-.27.96.02,1.92.08,2.87.16,1.45.1,2.88.37,4.3.53,1.1.13,2.23.08,3.32.29.24.04.49.04.72.11.88.23,1.09.57,1.05,1.4,0,.19,0,.38-.03.56-.09.61-.58,1.02-1.25,1.11-.98.07-1.96.17-2.91.11-.94-.1-1.88-.23-2.82-.36-1.4-.17-2.81-.38-4.23-.42v-.08Z"/><path class="cls-2" d="m181.95,262.81c-1.3-.07-2.63-.07-3.96-.06-.49,0-.96.09-1.45.1-1.72.03-3.45.14-5.18.33-.76.11-1.53.2-2.28.35-.96.18-1.92.4-2.92.44-.31,0-.33-.25-.15-.59.19-.34.57-.79,1.11-1,.96-.35,1.92-.7,2.91-.96.99-.24,2.02-.34,3.04-.42,1.23-.06,2.48-.38,3.73-.53.69-.07,1.38-.13,2.07-.18.7-.02,1.39-.05,2.09-.05.86,0,1.72.02,2.58.07,1.3.04,2.61.24,3.91.4,1.01.15,2.05.24,3.08.6.22.09.45.17.66.28.79.47.91.84.72,1.37-.04.13-.08.26-.14.37-.21.37-.7.5-1.2.4-.78-.1-1.56-.15-2.33-.28-.4-.04-.81-.07-1.2-.16l-1.24-.16c-1.25-.13-2.54-.26-3.86-.26v-.06Z"/><path class="cls-2" d="m201.4,249.59c-.84-.35-1.71-.66-2.62-.87-.33-.07-.67-.09-1.01-.15-1.18-.26-2.4-.39-3.63-.5-.55-.04-1.1.01-1.63.08-.69.09-1.36.25-2.08.25-.23,0-.27-.28-.16-.61.11-.33.38-.76.78-.92,1.44-.52,2.97-.89,4.52-.73.92.14,1.87.04,2.81.15,1.03.13,2.05.32,3.05.61.62.15,1.22.39,1.82.59.9.36,1.76.82,2.62,1.24.33.17.68.31,1.04.44.35.15.68.33,1.01.52.15.08.29.16.42.27.48.41.52.67.21,1.2-.07.12-.13.25-.21.36-.26.37-.7.52-1.12.41-1.26-.27-2.28-.76-3.36-1.24-.39-.19-.81-.34-1.22-.51-.4-.19-.83-.35-1.25-.52l.02-.06Z"/><path class="cls-2" d="m163.07,283.18c-1.28-.1-2.57-.11-3.86-.04-.48,0-.93.15-1.4.19-1.66.13-3.31.43-4.9.91-.69.26-1.41.47-2.04.85-.41.23-.83.44-1.23.69-.39.25-.8.48-1.25.66-.28.11-.49-.2-.51-.66-.02-.45.14-1.09.6-1.49.4-.37.86-.62,1.3-.92.44-.3.9-.57,1.39-.78.95-.48,1.99-.71,3.03-.92,1.24-.19,2.47-.62,3.73-.81,1.38-.21,2.77-.3,4.16-.34.85,0,1.71,0,2.56.04,1.29.07,2.58.22,3.86.38.99.11,2.01.08,3.04.35.22.04.46.1.69.19.42.17.69.33.83.59.14.23.13.48,0,.79-.05.14-.1.28-.17.41-.27.41-.75.6-1.17.58-.75-.04-1.54,0-2.35-.09-.8-.09-1.64-.18-2.48-.25-.63-.05-1.26-.12-1.9-.14-.64-.06-1.28-.1-1.92-.12v-.07Z"/><path class="cls-2" d="m156.32,374.76c-.6,0-1.19.04-1.8,0-.6-.04-1.21-.09-1.81-.16-.44-.03-.88-.03-1.31-.1-1.53-.28-3.05-.62-4.47-1.17-.63-.25-1.28-.43-1.89-.67-.8-.28-1.59-.61-2.31-1.08-.22-.14-.12-.29.17-.4.28-.11.76-.22,1.22-.12,1.65.36,3.27.5,4.85.93.95.28,1.99.2,2.99.21,1.11.03,2.21-.04,3.34-.06.69-.02,1.39-.06,2.09-.13,1.06-.1,2.12-.23,3.17-.41.81-.15,1.59-.45,2.38-.67.17-.05.34-.12.52-.14.67-.09.92.05,1.16.59.06.12.12.24.16.36.14.41-.07.82-.52,1.1-.66.44-1.38.7-2.11.97-.74.24-1.49.48-2.27.61-1.15.2-2.35.29-3.54.4v-.07Z"/><path class="cls-2" d="m162.59,391.17c-1.02-.06-2.04-.14-3.05-.22-.37-.03-.73.04-1.1-.02-1.3-.21-2.58-.47-3.85-.69-.56-.1-1.13-.11-1.69-.17-.72-.06-1.45-.08-2.14-.43-.21-.11-.13-.56.11-1.03.24-.46.63-.97,1.04-1.03,1.45-.25,2.84-.14,4.26.2.85.22,1.75.02,2.62.03.96.03,1.93.07,2.9.07.6,0,1.19,0,1.79-.03.9-.06,1.81-.07,2.7-.22.34-.07.67-.18,1-.3.33-.11.64-.31.98-.35.15-.03.29-.08.44-.09.57-.04.79.15,1.05.78.06.14.13.28.17.43.16.48.02.95-.35,1.3-1.08,1.17-2.44,1.42-3.79,1.7-1.01.16-2.05.13-3.08.15v-.08Z"/><path class="cls-2" d="m165.61,400.21c-.98-.05-1.96-.13-2.93-.22-.35-.03-.71,0-1.06-.05-.62-.08-1.24-.19-1.85-.31-.61-.14-1.22-.29-1.82-.43-.54-.12-1.08-.21-1.62-.28-.69-.1-1.39-.16-2.03-.49-.2-.1-.1-.45.16-.78.25-.33.65-.66,1.03-.64,1.37.08,2.72.17,4.07.48.81.19,1.67.15,2.51.18.92.05,1.85.1,2.78.1.57,0,1.15,0,1.72-.03.87-.04,1.74-.12,2.59-.24.66-.12,1.28-.39,1.91-.6.14-.04.27-.11.41-.15.53-.11.74.02.99.57.06.12.12.25.17.37.16.42.03.84-.34,1.11-1.1.76-2.39,1.18-3.7,1.39-.99.11-1.99.12-2.98.12v-.06Z"/><path class="cls-2" d="m178.26,412.23c.72-.06,1.45-.15,2.16-.28.26-.06.49-.17.75-.21.92-.15,1.84-.34,2.7-.68.19-.08.37-.17.54-.28.17-.1.36-.19.51-.31.42-.3.76-.64,1.27-.86.16-.06.45.18.66.55.21.36.37.94.15,1.26-.37.57-.8,1.1-1.34,1.48-.56.33-1.15.57-1.78.71-.74.15-1.38.58-2.09.8-.78.24-1.58.38-2.37.51-.48.09-.97.13-1.45.22-.73.11-1.47.16-2.18.31-.55.13-1.08.37-1.62.52-.12.02-.24.05-.36.05-.47-.01-.63-.2-.79-.79-.04-.14-.08-.27-.1-.4-.08-.45.06-.86.35-1.13.22-.19.44-.38.66-.55.23-.12.46-.23.69-.33.47-.2.95-.26,1.44-.34.72-.1,1.45-.2,2.17-.3l.02.07Z"/><path class="cls-2" d="m196.77,423.67c.63-.08,1.26-.19,1.87-.38.22-.07.41-.2.63-.29.78-.26,1.56-.57,2.28-1.03.32-.2.57-.49.81-.77.3-.38.46-.86.98-1.06.34-.13,2.12,1.77,1.69,2.32-.74.92-1.73,1.67-2.91,2.05-.69.23-1.26.68-1.92.96-.74.28-1.48.5-2.24.64-.46.11-.93.15-1.38.23-.7.1-1.39.13-2.07.23-.53.09-1.03.3-1.56.45-.12.03-.23.08-.34.1-.43.05-.58-.12-.67-.83-.02-.16-.05-.32-.06-.49-.04-.55.13-1.01.41-1.17.86-.49,1.72-.62,2.58-.74.64-.08,1.27-.16,1.9-.28l.02.06Z"/><path class="cls-2" d="m383.87,349.96c.7,1.34,23.46,62.39,26.53,62.55s5.98,2.36,1.59-6.71c-4.39-9.08-28.11-55.83-28.11-55.83Z"/><path class="cls-2" d="m351.56,444.06c.79-.39,58.84-31.56,60.43-38.27,1.04-4.42-1.56,8.45-1.56,8.45l-58.87,29.82Z"/><path class="cls-2" d="m335.29,333.12c.19.76,5.84,4.06,11.14,2.97s10.95-5.67,10.95-5.67l-22.09,2.7Z"/><path class="cls-2" d="m343.85,347.11s2.74,3.82,10.64,0c7.91-3.82,11.28-5.76,11.28-5.76l-1.31-2.41-20.62,8.16Z"/><path class="cls-2" d="m356.03,353.21c.22.95,4.12,2.67,7.15,1.42,5.57-2.3,10.7-9.63,10.7-9.63,0,0-9.02,8.61-11.29,8.39s-6.56-.18-6.56-.18Z"/><path class="cls-2" d="m267.26,109.4c20.07-2.08,30.44-28.52,17.67-44.31-14.15-17.51-34.73-11.67-45.65,10.41l-2.98,2.88s-19.32-12-35.96,6.54c-16.54,18.43-2.33,45.5,2,50.26,2.5,2.75,11.26,1.11,15.49,9.84,4.23,8.73-2.07-8.9,12.25-31.24,0,0,5.11-10.57,9.93-8.61,4.82,1.96,15.06,5.11,27.25,4.24Z"/><path class="cls-2" d="m300.48,121.55c-6.56-4.36,5.17-44.6,31.18-46.29,19.97-1.3,24.37,17.34,20.86,28.16-3.51,10.82-11.37,20.51-20.09,23.08-17.46,5.13-31.94-4.94-31.94-4.94Z"/><path class="cls-2" d="m286.99,204.2c-2.66,3.33-5.66,6.47-9.14,9.09-3.48,2.6-7.43,4.76-11.77,5.76-3.14.77-6.42,1.08-9.62.72-5.65-.66-10.89-2.85-15.5-5.81-.6-.35-1.16-.74-1.71-1.15l-1.67-1.22-1.57-1.33-.78-.67-.73-.72-1.46-1.44-1.36-1.54c-.94-1-1.7-2.14-2.54-3.2-2.82-3.93-5.09-8.23-6.85-12.66-1.16-2.83-2.1-5.76-2.78-8.74-.61-2.99-1.17-6.01-1.03-9.07.13-.96.27-1.38.43-1.37.17,0,.4.45.89,1.18.51.73.96,1.79,1.61,3.03.3.62.55,1.31.79,2.04.24.73.52,1.49.72,2.3.78,2.86,1.61,5.69,2.61,8.44.97,2.78,2.23,5.42,3.61,7.99,1.39,2.57,3.06,4.96,4.88,7.23,1.83,2.27,3.95,4.28,6.22,6.13,2.73,2.19,5.95,3.94,9.33,5.19,1.69.63,3.43,1.07,5.18,1.4,1.76.3,3.52.41,5.28.4,1.93-.08,3.85-.34,5.72-.85,1.85-.56,3.69-1.22,5.41-2.19,3.47-1.85,6.6-4.4,9.36-7.32,3.42-3.6,6.33-7.72,8.92-12.02,3.85-6.58,7.09-13.6,9.7-20.76,2.03-5.57,3.56-11.19,5.06-16.85.33-1.25.61-2.48.96-3.73.66-2.32,1.12-3.84,1.61-4.87.51-1.02.98-1.57,1.55-1.96.26-.18.54-.43.77-.52.39-.14.59.3.65,1.22.06.93,0,2.34-.32,4.11-.88,5.25-2.26,10.54-3.79,15.88-1.68,5.29-3.58,10.61-5.84,15.82-.84,1.93-1.74,3.85-2.65,5.76-.98,1.88-1.89,3.8-2.98,5.63-2.06,3.72-4.42,7.32-7.08,10.72l-.08-.05Z"/><path class="cls-2" d="m205.3,138.84c-2.65.69-4.73,3.22-5.52,6.31-.32,1.13-.36,2.34-.38,3.48-.16,4.07,2.18,8.01,5.82,10.74,1.61,1.21,3.43,2.18,5.31,2.96,2.43.98,5,1.59,7.41,2.66.38.13.43.23.49.38.05.14-.12.36-.53.6-.39.23-.97.51-1.69.79-.7.22-1.52.31-2.35.21-.37-.04-.74-.09-1.11-.16l-1.08-.27c-.71-.19-1.42-.41-2.13-.64-1.4-.48-2.79-1.06-4.12-1.77-2.62-1.49-5.12-3.46-6.91-6.12-1.08-1.56-2-3.32-2.58-5.22-.58-1.89-.79-3.91-.59-5.82.23-2.08.74-4.17,1.8-6.06,1.05-1.87,2.52-3.58,4.44-4.67,2.31-1.4,5.18-1.79,7.74-1.17,1.96.44,3.71,1.47,5.13,2.77,1.43,1.3,2.54,2.85,3.43,4.47,1.38,2.52,2.42,5.17,2.94,7.94.1.61.28,1.2.32,1.82.04,1.16,0,1.92-.23,2.45-.26.54-.55.84-.92,1.08-.17.11-.32.25-.47.32-.25.11-.48-.07-.77-.46-.29-.39-.69-.99-.85-1.75-.38-1.12-.63-2.24-.94-3.34-.15-.55-.36-1.08-.5-1.63-.18-.53-.35-1.06-.53-1.6-.78-2.08-1.78-4.05-3.14-5.57-1.97-2.26-4.83-3.47-7.44-2.66l-.03-.09Z"/><path class="cls-2" d="m219.24,132.87c.81-3.08,1.79-6.12,2.98-9.07.43-1.08.79-2.19,1.29-3.24,1.79-3.7,3.99-7.22,6.7-10.34,1.2-1.38,2.47-2.72,3.84-3.94.43-.4.88-.78,1.35-1.15.46-.38.93-.74,1.45-1.03.5-.32,1.05-.57,1.59-.81.53-.28,1.19-.28,1.77-.39.76-.09.78.29.48,1.07-.15.4-.36.9-.6,1.46-.25.55-.63.96-1.09,1.34-3.37,2.43-6.18,5.59-8.91,9.09-1.62,2.12-2.69,4.72-3.75,7.24-1.18,2.78-2.16,5.67-2.95,8.61-.5,1.81-.92,3.65-1.26,5.5-.51,2.81-.92,5.66-1.02,8.49-.09,2.21.12,4.37.34,6.53.04.48.13.94.17,1.42.1,1.77-.27,2.36-1.1,2.82-.2.1-.38.24-.57.31-.63.23-1.28-.46-1.77-1.8-1.01-4-1.12-8.35-.69-12.65.32-3.19.92-6.37,1.65-9.5l.09.02Z"/><path class="cls-2" d="m290.19,56.82c3.73,2.83,6.66,6.83,8.17,11.26,1.52,4.43,1.71,9.14,1.02,13.57-.52,3.24-1.38,6.41-2.75,9.35-2.37,5.15-6.14,9.9-10.87,13.05-4.69,3.22-10.05,5.21-15.51,6.19-4.85.87-9.82,1.07-14.66.56-1.55-.23-3.12-.32-4.64-.69l-2.3-.48c-.77-.16-1.51-.43-2.26-.64-.75-.23-1.5-.46-2.24-.7l-2.15-.96c-.7-.34-1.44-.61-2.11-1.02-.67-.41-1.31-.88-1.92-1.37-.75-.64-1.04-.97-.96-1.06.08-.1.56,0,1.43.06.87.06,2.09.12,3.43.38,1.38.18,2.91.51,4.52.96,5.7,1.69,11.68,2.32,17.58,2.01,5.9-.36,11.72-1.86,16.96-4.58,3.09-1.7,5.9-4.03,8.13-6.84,2.19-2.81,3.84-6.2,4.96-9.62,1.23-3.78,1.77-7.79,1.36-11.68-.41-3.89-1.79-7.65-4.22-10.7-1.49-1.87-3.32-3.49-5.38-4.79-2.07-1.29-4.35-2.28-6.73-3-3.61-1.07-7.36-1.5-11.13-1.13-3.75.35-7.43,1.44-10.81,3.1l-1.94,1.01-1.83,1.19c-.62.38-1.19.83-1.75,1.28-.56.46-1.14.88-1.68,1.37-1.03,1.01-2.13,1.94-3.05,3.05-.47.54-.97,1.06-1.42,1.61l-1.3,1.72c-.81.97-1.36,2.1-2.09,3.14-2.56,3.97-3.31,5.29-4.71,5.83-.31.13-.65.33-.91.37-.45.07-.6-.41-.5-1.37.05-.48.17-1.08.35-1.78.1-.35.19-.73.33-1.13.15-.39.33-.8.52-1.23.57-1.28,1.11-2.61,1.9-3.81.37-.61.73-1.24,1.12-1.85l1.28-1.76c1.71-2.36,3.78-4.5,6.04-6.48l1.78-1.38.9-.69.95-.61,1.92-1.22,2.03-1.06,1.02-.52,1.06-.44,2.14-.87c1.48-.43,2.93-.98,4.46-1.24,4.49-.97,9.25-1.05,13.83-.06,4.48.96,8.85,2.74,12.67,5.59l-.06.1Z"/><path class="cls-2" d="m187.38,98.49c.37-5.92,2.01-11.87,5.21-16.95,1.16-1.85,2.43-3.65,3.94-5.24,2.73-2.73,5.91-5.01,9.42-6.51,1.73-.8,3.57-1.34,5.41-1.81,1.81-.42,3.84-.7,5.76-.6,3.42.15,6.71.95,9.81,2.15,1.99.77,3.92,1.76,5.64,3.07.88.63,1.69,1.36,2.38,2.21.73.8,1.35,1.72,1.76,2.74.52,1.27.16,1.22-.97.74-.53-.26-1.43-.46-2.23-.84-.44-.16-.9-.34-1.34-.55-.22-.1-.46-.2-.71-.29-.21-.13-.44-.26-.65-.41-3.16-1.92-6.64-3.51-10.3-4.22-1.82-.37-3.65-.51-5.41-.42-.84.04-1.79.22-2.74.37-.93.22-1.88.4-2.79.71-4.46,1.32-8.43,4.44-11.42,8.13-3.32,4.06-5.48,9.1-6.29,14.41-.53,3.27-.59,6.63-.25,9.97.48,5.06,1.87,10.09,3.84,14.79,1.56,3.66,3.62,6.99,5.73,10.29.47.72.97,1.41,1.42,2.15,1.72,2.73,2.11,3.71,1.71,4.85-.07.25-.11.53-.19.71-.24.56-1.68-.07-3.29-1.94-.61-.68-1.16-1.42-1.74-2.14-.56-.74-1.17-1.45-1.69-2.24-.51-.79-1.02-1.58-1.53-2.38-.51-.8-.95-1.65-1.43-2.48-1.84-3.37-3.45-6.95-4.66-10.72-1.79-5.58-2.77-11.55-2.5-17.56h.1Z"/><path class="cls-2" d="m350.76,88.99c-1.5-4.73-4.25-9.14-8.13-12.28l-.71-.6c-.24-.19-.51-.35-.77-.52l-1.56-1.03-1.66-.84c-.28-.13-.55-.3-.84-.41l-.88-.32c-.59-.2-1.16-.46-1.76-.62l-1.82-.43c-.6-.18-1.22-.24-1.85-.31-.62-.07-1.24-.19-1.86-.17-3.63-.13-7.25.67-10.47,2.35-5.77,2.89-10.32,8.17-13.47,14.08-3.08,6.01-5.37,12.61-6,19.33-.57,5.96.41,12.09,3.09,17.34.84,1.69,1.84,3.31,2.99,4.82,1.13,1.52,2.37,2.96,3.72,4.3,2.69,2.7,5.79,4.92,8.97,7.14,2.03,1.31,1.71,1.43-.51,1.18-1.09-.16-2.73-.35-4.51-1.05-.89-.34-1.87-.74-2.82-1.3-.95-.56-1.91-1.24-2.84-2.02-6.69-5.49-11.11-13.85-12.05-22.52-.45-4.33-.25-8.7.65-12.87.87-4.18,2.27-8.2,4.02-12.02,2.05-4.59,4.71-9.15,8.25-13.05,1.74-1.97,3.77-3.74,5.99-5.23,2.22-1.49,4.67-2.7,7.28-3.4,2.85-.8,5.84-1.07,8.76-.86l2.18.27c.73.09,1.43.31,2.14.46,1.44.27,2.79.86,4.17,1.34,5.37,2.33,9.94,6.33,12.94,11.26,3.73,6.03,5.35,13.38,4.18,20.4l-.14,1c-.06.33-.16.65-.24.98l-.51,1.95c-.41,1.27-.85,2.51-1.39,3.73-1.06,2.43-2.38,4.76-3.95,6.9-3.14,4.29-7.35,7.79-12.12,10.08-7.42,3.59-15.96,4.27-23.87,2.35-1.73-.46-3.43-.93-5.1-1.63-1.56-.6-2.79-1.26-3.78-1.87-.98-.62-1.76-1.13-2.35-1.63-1.21-.96-1.76-1.71-2.11-2.44-.16-.33-.4-.71-.45-.96-.15-.87,2.25.3,6.49,1.93.78.32,1.6.54,2.37.86.79.27,1.59.53,2.39.78,1.62.45,3.24.86,4.9,1.11,3.28.61,6.65.76,9.95.4,6.6-.72,12.97-3.58,17.65-8.37,3.48-3.53,6.06-8.03,7.5-12.87l.48-1.78c.14-.6.19-1.22.3-1.82l.14-.91c.02-.31.03-.62.04-.93.02-.62.07-1.24.07-1.86-.08-2.48-.46-4.96-1.2-7.35l.09-.04Z"/><path class="cls-2" d="m148.54,259.16c5.59-5.43,11.49-10.54,17.69-15.26,1.11-.89,2.26-1.72,3.39-2.58,1.13-.86,2.26-1.72,3.46-2.5l3.13-2.09,3.2-1.97,1.6-.98,1.64-.93,3.27-1.84,3.34-1.71c1.11-.58,2.23-1.14,3.38-1.65l3.41-1.57,3.48-1.41c4.11-1.68,8.33-3.15,12.53-4.48,1.35-.42,2.73-.77,4.09-1.16l2.05-.57c.69-.15,1.39-.3,2.09-.43,1.4-.26,2.79-.55,4.2-.73.7-.09,1.42-.12,2.13-.15.71,0,1.41-.11,2.14-.02.91.15,1.3.29,1.29.43,0,.15-.41.35-1.09.86-.67.52-1.65,1.04-2.81,1.66-.58.31-1.23.5-1.91.77-.68.26-1.4.5-2.17.7l-2.03.51c-.68.14-1.36.32-2.03.52l-4.04,1.12c-1.34.4-2.66.87-3.99,1.29-1.34.4-2.65.9-3.96,1.39-5.26,1.91-10.42,4.16-15.55,6.59-6.14,2.92-12.03,6.91-17.68,10.98-6.21,4.48-12.15,9.38-17.77,14.63-1.76,1.59-3.41,3.28-5.12,4.93-1.65,1.7-3.33,3.37-4.91,5.13-4.86,5.28-9.58,10.76-13.78,16.52-3.29,4.46-6.1,9.13-8.93,13.8-.64,1.02-1.19,2.06-1.83,3.09-1.16,1.92-1.97,3.15-2.66,3.96-.76.77-1.29,1.16-1.86,1.41-.26.12-.54.3-.73.35-.33.08-.37-.34-.25-1.21.12-.87.39-2.22,1.11-3.75,1.02-2.29,2.17-4.55,3.39-6.8,1.21-2.26,2.61-4.43,4.01-6.62,2.84-4.35,5.95-8.61,9.23-12.75,4.85-6.16,10.18-11.99,15.76-17.53l.08.07Z"/><path class="cls-2" d="m292.48,332.03c-.8-4.46-2.12-8.84-4.26-12.77-.5-1.01-1.12-1.93-1.71-2.89-.66-.9-1.27-1.84-2.01-2.69-1.41-1.74-3-3.33-4.76-4.73-2.54-2.08-5.44-3.7-8.47-5.04-5.34-2.39-11.25-3.66-17.21-3.9-2.98-.13-5.98.02-8.93.44-.18.02-.37.05-.55.08l-.69.12c-.59.11-1.19.24-1.76.36l-.87.19-.43.1-.22.05-.11.02s-.01-.07-.02-.1l-.25-1.77-.38-3.06-.25-2.3c-.61-5.45-.99-10.98-1.25-16.39-.17-3.48-.44-6.93-.65-10.4-.18-3.48-.35-6.95-.53-10.42-.09-2.17.24-1.91.85-.13.59,1.78,1.61,5.08,2.22,9.07,1.01,7.09,1.18,14.26,1.91,21.22l.57,5.25.31,2.63.16,1.32.08.63v.08c-.02.06-.02.12-.01.18,0,.02,0,.08.02.08h.08s.19-.01.19-.01h.06s.32-.06.32-.06c.23-.05.46-.08.69-.11,1.85-.29,3.7-.44,5.56-.5,4.44-.16,8.96.15,13.44.98,4.47.86,8.91,2.27,12.95,4.46,4.47,2.35,8.43,5.69,11.6,9.63,3.15,3.97,5.48,8.52,6.96,13.29,1.87,5.84,2.68,12,2.26,18.14-.32,4.64-1.45,9.25-3.39,13.5-.99,2.11-2.15,4.14-3.48,6.04-1.35,1.89-2.86,3.65-4.48,5.29-5.09,5.05-11.24,8.79-17.91,11.15-1.47.51-2.93.97-4.46,1.31-2.83.65-4.74.85-6.09.82-1.36-.07-2.16-.35-2.81-.7-.3-.17-.68-.31-.85-.48-.3-.28.11-.6,1.08-1.03.97-.4,2.48-1,4.43-1.47,2.89-.75,5.7-1.83,8.48-2.92,2.77-1.12,5.46-2.46,7.99-4.06,5.04-3.18,9.47-7.42,12.41-12.58,1.12-1.89,2.02-3.92,2.74-6,.73-2.08,1.27-4.24,1.62-6.45.65-4.42.52-8.98-.3-13.47l.1-.03Z"/><path class="cls-2" d="m186.77,263.62c1.74-1.28,3.39-2.67,5.24-3.78l2.71-1.75,2.83-1.55c1.35-.8,2.74-1.53,4.17-2.17l1.9-.84c.65-.24,1.3-.47,1.96-.69l1.96-.66.98-.33,1-.25,4-1,4.05-.69c1.19-.25,2.41-.31,3.6-.49l1.8-.24.9-.12.9-.04c1.54-.06,3.09-.18,4.63-.19.77.05,1.54.18,2.31.29.77.1,1.52.41,2.27.6.93.31.79.45-.04.9-.49.29-1.06.62-1.68.98-.69.35-1.47.61-2.31.75-5.97.62-11.81,1.12-17.71,2.42-.88.2-1.77.4-2.65.67-.86.31-1.72.65-2.58.99-1.75.61-3.38,1.53-5.06,2.28-.94.39-1.81.93-2.7,1.41-.88.5-1.8.96-2.66,1.5l-2.56,1.67c-.43.28-.86.55-1.28.85l-1.22.93c-.99.78-2.03,1.5-2.98,2.33l-2.84,2.52c-1.38,1.32-2.72,2.72-4.05,4.1-1.23,1.47-2.53,2.89-3.65,4.45-.86,1.21-1.67,2.44-2.44,3.69-.73,1.28-1.37,2.59-2.18,3.82-.35.54-.62,1.11-.96,1.67-.63,1.03-1.08,1.68-1.55,2.06-.52.35-.95.48-1.44.51-.22.01-.45.07-.63.05-.3-.03-.43-.32-.47-.85-.03-.53-.02-1.33.35-2.18.49-1.28.94-2.61,1.57-3.87.59-1.28,1.34-2.48,2.06-3.71.79-1.19,1.61-2.37,2.45-3.55.81-1.2,1.8-2.27,2.71-3.41,1.33-1.7,2.91-3.21,4.41-4.78.74-.8,1.6-1.48,2.39-2.22.82-.72,1.59-1.48,2.45-2.16l.07.07Z"/><path class="cls-2" d="m168.54,259.76c4.76-3.61,9.81-6.81,15.09-9.54,1.92-1,3.83-2.04,5.82-2.9,2.82-1.22,5.7-2.29,8.63-3.21,1.46-.47,2.95-.87,4.45-1.25.75-.18,1.51-.35,2.27-.51.39-.07.77-.15,1.17-.21.21-.04.36-.06.67-.1.15-.02.3-.02.44-.02.15,0,.29-.01.44.02l.41.08.29.07.56.13,1.09.27,2.16.55c3.23.83,6.49,1.57,9.7,2.36,4.12,1.01,8.33,1.77,12.19,3.75.56.45.79.72.73.85-.06.14-.41.21-1.06.46-.65.26-1.51.42-2.55.6-1.02.12-2.18.1-3.38-.1-1.77-.27-3.49-.76-5.23-1.15l-5.2-1.26c-3.35-.9-6.71-1.81-10.08-2.71-.02-.02-.06-.02-.08-.02,0-.01-.25.02-.39.04-.32.04-.68.1-1.02.15-.7.12-1.41.25-2.12.4-4.96,1.04-9.9,3.17-14.62,5.4-2.6,1.23-5.15,2.58-7.65,4.02-2.48,1.47-4.93,3.01-7.28,4.69-2.89,2.07-5.7,4.27-8.35,6.65-4.02,3.6-7.78,7.55-11.03,11.81-2.55,3.3-4.58,6.88-6.57,10.46-.42.8-.79,1.61-1.27,2.38-1.69,2.92-2.39,3.77-3.6,3.98-.27.05-.56.15-.79.15-.76,0-.7-1.55.22-3.96,1.33-3.59,3.27-7.02,5.42-10.36,2.13-3.37,4.64-6.56,7.29-9.62,3.97-4.53,8.41-8.67,13.15-12.4l.07.07Z"/><path class="cls-2" d="m198.79,420.57c-3.29-2.24-6.49-4.59-9.48-7.18-3.05-2.51-5.91-5.33-8.57-8.23-1.95-2.12-3.91-4.24-5.67-6.53-6.19-8.04-11.2-17.07-14.21-26.79-.33-1.08-.66-2.16-.94-3.25-.31-1.09-.56-2.19-.81-3.29-.28-1.09-.44-2.21-.67-3.32-.18-1.11-.29-2.23-.44-3.34-.1-1.44-.27-2.87-.28-4.32,0-.72-.09-1.44-.02-2.17l.19-2.16c.17-1.43.38-2.86.74-4.26l.52-2.09c.19-.69.42-1.37.62-2.05.54-1.69.53-1.44.59.08,0,1.51.47,4.32.87,7.47.09,1.39.37,2.77.44,4.14l.16,2.05.25,2.04c.16,1.36.43,2.71.66,4.06l.35,2.03.43,2.02c1.2,5.37,3.08,10.63,5.41,15.75,2.8,6.15,7.01,11.91,11.44,17.23,2.45,2.93,5.05,5.74,7.82,8.36,2.77,2.61,5.76,5.04,8.8,7.35,3.81,2.77,7.81,5.29,11.99,7.47,6.36,3.25,13.13,5.83,20.05,7.49,5.39,1.27,10.81,1.86,16.26,2.26,1.2.11,2.38.14,3.59.2,1.12.06,2.05.16,2.83.28.78.1,1.41.2,1.92.35.51.16.92.32,1.25.52.33.22.59.48.83.72.21.23.5.43.62.61.21.3-.16.54-1,.92-.85.41-2.17.58-3.87.68-10.03.15-20.75-1.29-31.02-4.65-.96-.28-1.9-.62-2.84-.98l-2.82-1.05c-1.84-.81-3.72-1.52-5.51-2.45l-2.71-1.33-2.64-1.46c-1.78-.93-3.45-2.07-5.17-3.1l.05-.1Z"/><path class="cls-2" d="m188.05,425.29c-7.08-3.5-13.86-7.65-19.98-12.65-1.1-.93-2.26-1.79-3.33-2.75-1.07-.96-2.18-1.89-3.2-2.91-7.24-7.14-13.19-15.57-17.36-24.8-1.81-4.11-3.38-8.34-4.64-12.61-1.55-5.49-2.75-11.21-2.24-16.94.18-.9.31-1.28.43-1.26.13.02.28.45.67,1.16.72,1.45,1.9,4.03,2.5,7.12.11.69.33,1.36.46,2.05l.4,2.06c.27,1.37.67,2.71.98,4.07.73,2.69,1.58,5.35,2.57,7.96,1.97,5.23,4.5,10.25,7.44,15.09,3.5,5.82,8.42,11.01,13.57,15.66,5.66,5.16,12.05,9.51,18.8,13.19,4.18,2.23,8.47,4.29,12.92,5.95,6.71,2.58,13.69,4.62,20.73,5.94,5.48,1,10.92,1.48,16.4,1.8,1.21.05,2.39.05,3.61.11,4.51.15,5.94.61,6.9,1.45.22.2.51.39.64.57.43.6-1.44,1.13-4.83,1.43-5.01.09-10.18-.09-15.39-.73-2.61-.25-5.21-.73-7.83-1.15-2.6-.52-5.22-1.02-7.81-1.7-7.7-1.93-15.27-4.57-22.47-8.01l.03-.09Z"/><path class="cls-2" d="m164.03,294.01c-7.36.28-14.73,1.86-21.46,4.88-2.41,1.01-4.42,2.57-6.43,4.31-3.52,3.08-6.59,6.83-9.42,10.75-2.81,3.95-5.47,8.04-7.93,12.27-2.2,3.74-4.21,7.63-6.13,11.49-1.22,2.49-2.45,4.99-3.67,7.49-.62,1.24-1.26,2.49-1.91,3.72l-1,1.84c-.35.6-.8,1.16-1.22,1.73-1.12,1.38-1.18,1.09-1.12-.52.05-.79-.01-1.98.32-3.22.29-1.26.73-2.69,1.4-4.15,2.32-5.2,4.87-10.3,7.56-15.36,2.71-5.05,5.62-10.04,8.99-14.79,2.03-2.83,4.12-5.71,6.42-8.48,2.3-2.77,4.84-5.45,7.85-7.64.82-.6,1.7-1.15,2.6-1.67l1.39-.72,1.36-.6c1.82-.79,3.68-1.48,5.57-2.06,3.77-1.19,7.66-1.99,11.57-2.45,4.82-.56,9.68-.59,14.5-.03,1.83.22,3.65.54,5.45,1.01.9.25,1.8.5,2.7.87.45.17.89.37,1.33.6.6.3,1.11.67,1.58,1.08.46.42.81.92.96,1.49l.08.44c.02.15-.03.3-.04.45l-.06.45-.15.43c-.08.29-.24.55-.41.81-.13.27-.38.48-.59.71-.21.23-.44.43-.74.61-.31.21-.48.3-.73.42-1.85.9-3.69,1.24-5.52,1.52-5.65.79-11.13.98-16.62,1.13-1.21.03-2.39.09-3.6.1-4.49-.08-5.8-.29-6.84-1.23-.23-.21-.55-.39-.72-.59-.62-.66,1.36-1.72,4.71-2.02,2.49-.28,4.97-.37,7.47-.47,2.48-.1,4.98-.2,7.5-.31,2.49-.14,4.99-.3,7.35-.66,1.18-.17,2.34-.41,3.35-.67.26-.07.47-.15.72-.22.22-.08.4-.17.61-.24l.09-.05-.04.02s0,.01-.02.01h0s0,0,0,0c0,0-.01-.01.01,0,0,0,.03.02,0,0l-.12-.07-.26-.12c-.18-.08-.35-.17-.55-.24-1.53-.61-3.3-1.06-5.09-1.35-3.59-.59-7.33-.76-11.04-.58v-.09Z"/><path class="cls-2" d="m179.73,306.41c1.59-.38,3.23-.92,4.22-1.63.13-.09.24-.17.31-.24l.14-.11s.05-.07.07-.1c.13-.13.12-.19.18-.27,0-.46.01-.53-.32-.85-.57-.44-1.78-.65-2.95-.78-2.12-.27-4.41-.17-6.68-.11-2.28.09-4.58.23-6.89.35-2.05.14-4.11.27-6.15.41-1.31.09-2.63.17-3.95.13-.66-.04-1.32,0-1.98-.15l-.98-.23c-.33-.09-.65-.22-.97-.33-.8-.32-.67-.39.04-.76.36-.18.86-.5,1.45-.79.3-.14.61-.32.95-.42.33-.08.69-.13,1.05-.15,2.59-.2,5.19-.22,7.81-.39,2.63-.14,5.28-.28,7.98-.33,1.61-.03,3.26-.14,4.94-.21,1.69-.04,3.4-.14,5.22.16.99.19,2.08.44,3.14,1.25.53.39.99,1.01,1.24,1.67.1.33.22.68.23.99l.04.49c0,.17-.03.36-.05.54-.08.74-.43,1.37-.81,1.89-.2.23-.41.45-.62.67l-.66.52c-.89.61-1.8,1.01-2.7,1.37-2.23.83-4.46,1.28-6.68,1.69-3.37.6-6.76.9-10.09,1.28-2.59.28-5.12.71-7.69,1.02-.56.07-1.11.17-1.69.19-.53.03-.97.03-1.34,0-.37-.04-.67-.16-.92-.25-.5-.21-.79-.49-1.04-.87-.11-.17-.25-.34-.32-.49-.22-.5.61-1.12,2.13-1.68,2.26-.55,4.57-.82,6.92-1.12,2.34-.3,4.71-.53,7.08-.77,3.5-.39,7.03-.79,10.29-1.64l.03.08Z"/><path class="cls-2" d="m179.89,307.85l.4.02c.19,0,.4.05.6.05.4.04.83.04,1.21.12.76.17,1.49.36,2.08.68.61.3,1.08.72,1.47,1.23.36.52.65,1.16.65,1.83.07.67-.15,1.25-.37,1.81-.18.27-.33.54-.56.8-.26.25-.47.51-.76.75l-.91.68-1.01.6c-.39.24-.52.27-.75.39-.21.11-.43.21-.64.3-1.24.57-2.44,1.14-3.69,1.57-4.41,1.48-8.87,2.51-13.37,3.31-2,.34-4,.72-5.99,1.03l-1.92.29c-.65.06-1.3.11-1.95.12-.65.04-1.31,0-1.96-.04l-.98-.1c-.33-.04-.65-.17-.98-.25-.81-.27-.69-.26-.02-.63.67-.42,1.84-1.26,3.24-1.62l1.86-.46c.62-.15,1.25-.22,1.87-.34,1.25-.22,2.5-.45,3.76-.7,1.25-.25,2.51-.5,3.76-.76,1.26-.23,2.53-.47,3.81-.7,3.04-.58,6.08-1.72,8.96-2.87.8-.31,1.57-.66,2.32-1.01l.86-.43c.15-.07.3-.16.45-.26.28-.19.67-.46.61-.86-.04-.4-.42-.61-.78-.69-.23-.06-.47-.09-.72-.11-.07,0-.11,0-.22-.01h-.38s-.78.03-.78.03c-1.04.07-2.11.12-3.18.22-3.25.3-6.56.64-9.82,1.07-2.54.31-5.02.85-7.56,1.06-.56.06-1.11.13-1.67.15-2.1.05-2.78-.29-3.23-1.07-.1-.18-.24-.36-.29-.53-.2-.59.64-1.11,2.12-1.47,4.38-.98,8.96-1.5,13.64-2.18,1.74-.26,3.49-.51,5.27-.73,1.79-.22,3.59-.46,5.56-.38v.09Z"/><path class="cls-2" d="m175.11,322.6c-.02.76-.25,1.42-.76,2.1-.49.67-1.19,1.31-2.02,1.86-.41.28-.81.55-1.25.79l-.47.26-.39.19c-.52.26-1.04.5-1.56.73-.76.34-1.49.72-2.26.99-2.74.93-5.53,1.59-8.32,2.12-1.24.23-2.48.52-3.72.7-.8.11-1.59.28-2.41.28-.82-.02-1.64-.13-2.45-.43-.5-.18-.43-.27-.02-.6.2-.17.49-.41.82-.72.33-.28.71-.52,1.13-.7,2.98-.87,5.97-1.4,9.07-2.05,1.86-.37,3.64-1.23,5.38-2,.96-.42,1.92-.85,2.82-1.33l.34-.18c.13-.08.12-.05.18-.09l.31-.16c.21-.12.43-.25.64-.42.24-.19.57-.49.48-.83-.13-.29-.42-.48-.73-.57-.24-.08-.5-.11-.76-.13-.13-.02-.27-.02-.41-.02h-.22s-.37,0-.37,0c-.99.03-2.01.09-3.03.15-1.58.11-3.14.42-4.73.47-.35.01-.69.06-1.04,0-.65-.07-1.08-.18-1.37-.39-.29-.26-.44-.53-.56-.86-.05-.15-.13-.29-.16-.41-.05-.22.06-.4.31-.64.24-.23.62-.56,1.08-.65,2.75-.86,5.45-1.04,8.4-1.27l.84-.03h.43c.16-.02.49,0,.74,0,1.08,0,2.14.1,3,.4.92.25,1.55.74,2.12,1.29.31.27.51.61.71.95.15.37.28.79.29,1.18l-.09.02Z"/><path class="cls-2" d="m149.33,340.25c-1.3.7-2.62,1.33-3.99,1.81-.49.19-.95.45-1.46.58-1.77.53-3.6.77-5.38.97-.8.08-1.59.2-2.37.26-.5.04-1.01.15-1.52.14-.51.03-1.02-.12-1.52-.26-.31-.11-.26-.56,0-1.07.26-.49.7-1.2,1.23-1.33.93-.16,1.85-.33,2.79-.49.46-.09.94-.08,1.41-.13.47-.05.95-.08,1.43-.1.58-.03,1.14-.2,1.7-.37.55-.19,1.09-.44,1.64-.62,1.19-.47,2.39-.95,3.5-1.6.7-.37,1.35-.82,2.01-1.27.95-.72,1.92-1.48,2.61-2.44.29-.36.5-.76.71-1.17l.31-.59.26-.61c.08-.18.17-.35.28-.51.16-.32.34-.5.58-.6.21-.1.43-.14.69-.13.12,0,.24-.01.34,0,.33.03.55.44.67,1.17.06,2.08-.98,4.04-2.38,5.53-1.02,1.14-2.21,2.1-3.47,2.89l-.05-.07Z"/><path class="cls-2" d="m255.71,401.68c.25,2.49.51,4.99.84,7.48.12.91.34,1.8.45,2.71.37,3.23.73,6.46,1.1,9.69.14,1.44.34,2.87.54,4.29.35,1.81.33,3.67.23,5.53-.04.58-.3.53-.72.1-.4-.44-1.07-1.24-1.44-2.25l-.47-1.34c-.16-.45-.21-.91-.31-1.36-.19-.91-.38-1.82-.54-2.73-.37-1.82-.56-3.67-.72-5.54-.18-2.24-.8-4.51-1.21-6.77-.44-2.49-.85-5-1.23-7.52l-.67-4.64c-.33-2.35-.59-4.71-1-7.02-.29-1.8-.9-3.52-1.23-5.3-.08-.39-.19-.77-.25-1.17-.14-.73,0-1.24.14-1.61.16-.37.43-.6.84-.82.19-.1.37-.22.55-.28.61-.22,1.26.3,1.81,1.32,1.39,3.05,1.84,6.39,2.36,9.73.36,2.49.69,4.99,1.02,7.49l-.09.02Z"/><path class="cls-2" d="m319.98,312.03c1,2.15,2.08,4.27,2.86,6.5.41,1.12.88,2.18,1.24,3.34.38,1.15.69,2.31.99,3.46,1.15,4.63,1.72,9.34,1.9,14.04.11,3.43.09,6.88-.33,10.3-.73,6.01-2.28,11.94-4.73,17.48-2.38,5.57-5.77,10.66-9.72,15.19-3.54,4-7.61,7.53-11.95,10.52-5.58,3.79-11.64,7.15-18.29,8.45-1.06.13-1.53.12-1.55-.02-.02-.15.41-.46,1.1-1.11.7-.63,1.65-1.59,2.91-2.41,1.21-.94,2.68-1.85,4.28-2.78,5.81-3.02,11.32-6.58,16.04-11.01,2.43-2.14,4.59-4.56,6.64-7.07,2.02-2.54,3.78-5.29,5.37-8.15,3.78-6.91,5.53-15.15,5.92-23.21.25-4.44,0-8.92-.65-13.33-.34-2.2-.8-4.38-1.37-6.52-.29-1.07-.62-2.12-.99-3.16l-1.23-3.12c-2.11-5.09-4.81-9.95-8.07-14.4l-1.94-2.46c-.33-.41-.63-.84-.98-1.22l-1.06-1.16c-.71-.77-1.4-1.56-2.13-2.32l-2.28-2.16-1.15-1.07-1.22-.99-2.44-1.97-2.58-1.78-1.29-.88-1.35-.78c-5.57-3.3-11.6-5.45-17.78-6.79-.68-.13-1.36-.27-2.04-.4-.68-.14-1.36-.27-2.05-.35-1.28-.21-2.34-.42-3.23-.62-.88-.23-1.61-.3-2.2-.49-.59-.18-1.06-.37-1.44-.59-.38-.24-.68-.52-.95-.8-.25-.26-.58-.51-.72-.73-.24-.37.19-.65,1.2-.98.51-.19,1.16-.29,1.94-.37.78-.06,1.69-.17,2.71-.08,12.11.5,24.61,5.67,34.65,13.76,1.92,1.44,3.62,3.16,5.39,4.78.84.86,1.64,1.76,2.46,2.64l1.22,1.33,1.12,1.41c.74.95,1.51,1.87,2.22,2.84l2.03,2.98c.7.97,1.28,2.03,1.89,3.07.58,1.05,1.24,2.06,1.75,3.14l-.1.06Z"/><path class="cls-2" d="m263.9,246.07l.11-1.68.07-.86.04-.44.08-.66c.02-.23.06-.47.11-.72.05-.24.08-.51.19-.71.09-.22.17-.45.31-.63l.19-.29.1-.15.15-.09c.39-.24.78-.47,1.28-.61.24-.08.46-.17.71-.23l.54-.13c2.19-.51,4.34-.97,6.5-1.43,1.58-.34,3.13-.77,4.71-1.08,5.56-1.13,11.17-2.01,16.75-3.01,2.48-.43,4.95-.98,7.4-1.48,1.57-.31,3.15-.65,4.74-.93l1.2-.19,1.22-.07c.41-.01.82-.03,1.23-.03.41,0,.84.11,1.27.17.54.1.78.24.76.36-.02.13-.27.27-.65.59-.76.67-2.09,1.9-3.86,2.39-6.29,1.58-12.71,2.77-19.23,3.74-3.9.59-7.87,1.61-11.82,2.41l-6.5,1.33-3.13.68-.35.08c-.11.03-.26.05-.28.18-.08.23-.1.42-.15.81-.24,2.63-.33,5.4-.47,8.12-.19,4.14-.52,8.31-.86,12.42-.28,3.2-.38,6.37-.85,9.53-.11.7-.17,1.38-.32,2.08-.25,1.29-.5,2.13-.8,2.69-.34.55-.71.82-1.14,1-.19.08-.38.21-.54.25-.27.06-.43-.19-.6-.71-.17-.52-.27-1.29-.16-2.22.41-5.56.99-11.34,1.36-17.23.28-4.37.46-8.76.63-13.24h.09Z"/><path class="cls-2" d="m251.35,245.83c.07-.73.12-1.48.35-2.11.16-.28.43-.46.64-.7h.01s0-.02,0-.02c.03.03-.28-.26-.14-.14h.03s.06-.04.06-.04l.12-.05.24-.1.47-.2,1.88-.77,1.15-.27c1.53-.37,3.04-.7,4.56-1.04l9.09-1.95c2.21-.47,4.39-1.04,6.6-1.49,7.8-1.58,15.62-3.02,23.44-4.47,3.47-.65,6.93-1.41,10.35-2.17,4.41-.92,8.81-1.92,13.48-1.6,1.45.1,1.24.17.14.78-.55.3-1.31.81-2.22,1.46-.92.57-2.02,1.12-3.25,1.56-.55.19-1.09.39-1.63.56l-1.66.44c-1.11.28-2.21.6-3.33.84-2.25.44-4.5.88-6.75,1.32-4.51.85-9.05,1.64-13.63,2.34-5.48.82-11.07,2.19-16.62,3.31-6.09,1.25-12.21,2.45-18.22,3.85l-.94.22-.33.08c-.13.01-.11.18-.14.27-.04.24-.06.39-.09.72l-.1,1.41c-.11,1.89-.19,3.8-.26,5.71-.19,5.79-.41,11.61-.29,17.37.02,1.12.05,2.23.09,3.34l.06,1.19.06.81c.25.08.56-.02.82-.03l.39-.05h.11s.21-.03.21-.03l.42-.03c1.12-.08,2.26-.16,3.41-.16,1.01,0,2.01,0,3.05.1,1.92.2,3.21.58,4.04,1.03.84.44,1.21,1.01,1.37,1.64.07.3.18.6.17.84-.03.41-.44.56-1.1.63-.67.08-1.58-.05-2.8-.17-1.8-.19-3.69-.18-5.63-.1-.97.02-1.95.06-2.94.1l-1.36.04c-.49.02-.98.03-1.44-.02-.46-.04-.89-.12-1.1-.44l-.31-.43-.02-.03v-.02s-.02,0-.02,0c.21-.22-.29.29-.24.24l-.03-.07-.05-.13-.11-.27-.43-1.09-.11-.27-.05-.14v-.18s0-.71,0-.71l.02-2.34c0-1.04.02-2.08.03-3.12.03-2.09.07-4.18.1-6.28-.03-3.12-.03-6.24,0-9.37l.07-4.71.08-2.37.05-1.2.08-1.36h.09Z"/><path class="cls-2" d="m275.66,442.66l-3.21-14.97c-.39-1.82-.89-3.61-1.27-5.43l-3.91-19.29c-.28-1.27-.55-2.55-.83-3.82l.09-1.57.02-.39c.1-.11.21-.13.32-.17.22-.07.45-.11.72-.14.52-.07,1.21.04,1.92.2.68.15,1.45.35,2.08.51,1.82.44,3.61.95,5.39,1.49,1.78.55,3.55,1.11,5.21,2.01.98.77.81.8-.32,1.18-.57.21-1.33.34-2.24.46-.9.08-1.9,0-2.94-.23-1.94-.47-3.89-.85-5.78-1.4l-.31-.08h0s0-.01,0-.01c0,0-.02-.02-.03-.03-.05-.04-.07-.03-.07,0-.04,0-.01.03-.03.05v.02s-.01,0,0,.02l.03.16.13.66.53,2.64c.34,1.76.67,3.53.99,5.31.79,4.5,2.08,9.07,3.13,13.61l3.46,15c.72,3.07,1.44,6.15,2.15,9.22.56,2.32,1.13,4.65,1.69,6.97.29,1.15.59,2.31.92,3.43l.18.6c.06.16.09.34.27.4.16.07.31.14.47.2l.78.29c3.44,1.21,6.97,2.09,10.48,3.09.77.22,1.54.4,2.32.64.72.22,1.31.43,1.8.63.48.21.85.45,1.14.67.29.22.51.43.67.67.15.26.25.54.33.79.07.23.2.46.23.62.14.44-1.34,1-3.51.58-3.18-.72-6.42-1.58-9.69-2.57-1.64-.49-3.27-1-4.95-1.59l-.64-.23-.36-.14c-.19-.07-.39-.15-.59-.24-.7-.43-1.53-.76-1.84-1.56-.24-.34-.35-.74-.48-1.12-.16-.46-.2-.61-.27-.83l-.38-1.28c-1.42-5-2.67-9.99-3.87-15l.09-.03Z"/><path class="cls-2" d="m399.08,385.37c-1.51-3.35-3-6.7-4.55-10.02-.56-1.21-1.25-2.36-1.81-3.58-2-4.27-3.85-8.63-5.85-12.91-.88-1.9-1.88-3.76-2.88-5.58-.67-1.16-1.27-2.35-1.84-3.57-.27-.61-.58-1.21-.77-1.86-.19-.66-.35-1.33-.46-2.02-.12-.88.1-.87.91-.5.4.19,1.02.43,1.64.78.31.18.67.36.96.6.27.25.53.54.75.86l1.16,1.7.58.85.49.9c.65,1.2,1.28,2.41,1.9,3.63,1.23,2.44,2.39,4.93,3.45,7.48,1.28,3.05,2.99,6.03,4.44,9.07,1.59,3.35,3.13,6.73,4.66,10.11l2.81,6.24c1.43,3.14,2.81,6.32,4.34,9.39,1.17,2.39,2.56,4.62,3.79,6.95.25.52.53,1.02.76,1.55.22.5.38.91.5,1.28.1.37.11.7.12.98,0,.55-.1.93-.29,1.28-.09.16-.15.35-.24.46-.16.19-.41.13-.8-.12-.38-.25-.93-.67-1.5-1.28-.71-.96-1.43-1.94-2.12-2.94-.63-1.03-1.25-2.08-1.85-3.15-1.2-2.14-2.35-4.34-3.48-6.56-1.67-3.29-3.27-6.64-4.91-9.96l.09-.05Z"/><path class="cls-2" d="m345.64,256.9c1.81,3.83,3.57,7.69,5.33,11.55.64,1.41,1.37,2.77,1.99,4.19.55,1.25,1.08,2.51,1.59,3.77.52,1.26,1.03,2.53,1.52,3.8.94,2.57,1.95,5.1,2.86,7.68.83,2.28,1.78,4.51,2.65,6.76.59,1.43,1.16,2.87,1.6,4.35.21.75.47,1.48.6,2.25.13.77.22,1.56.26,2.36.03,1-.19.94-.98.35-.39-.3-.99-.69-1.58-1.22-.29-.26-.64-.54-.9-.87-.25-.33-.47-.7-.66-1.1-.34-.7-.65-1.41-1.01-2.11l-.52-1.05-.43-1.08c-.58-1.44-1.1-2.9-1.69-4.34-.57-1.45-1.12-2.9-1.65-4.37-.55-1.46-1.1-2.93-1.61-4.42-1.27-3.54-3.03-7.04-4.62-10.55-1.72-3.87-3.49-7.72-5.29-11.56-1.12-2.36-2.24-4.73-3.36-7.09-1.73-3.57-3.43-7.17-5.23-10.68-1.39-2.73-2.95-5.32-4.32-8.06-.27-.62-.56-1.22-.81-1.85-.23-.59-.42-1.07-.52-1.52-.09-.44-.09-.83-.09-1.14.01-.63.14-1.04.35-1.39.1-.16.17-.36.27-.47.17-.18.43-.07.82.27.38.34.92.88,1.45,1.62.72,1.14,1.44,2.28,2.17,3.44.7,1.18,1.34,2.39,2.03,3.61,1.35,2.44,2.7,4.94,4.03,7.46,1.99,3.74,3.93,7.55,5.87,11.35l-.09.05Z"/><path class="cls-2" d="m289.83,423.15c.83,3.15,1.71,6.3,2.64,9.43.34,1.14.78,2.25,1.12,3.4l3.63,12.11c.53,1.8,1.14,3.57,1.74,5.32.76,2.26,1.41,4.57,1.94,6.91.16.73-.06.7-.53.2-.46-.5-1.28-1.44-1.92-2.67-.55-1.09-1.13-2.17-1.65-3.28l-1.38-3.38c-.45-1.13-.88-2.27-1.29-3.42-.38-1.16-.73-2.34-1.06-3.52-.79-2.83-1.99-5.65-2.96-8.49-1.07-3.13-2.07-6.28-3.06-9.44-.59-1.95-1.2-3.89-1.76-5.85-.88-2.96-1.64-5.97-2.52-8.9-.65-2.29-1.46-4.5-2.11-6.77-.15-.5-.33-.98-.45-1.49-.41-1.9-.25-2.57.48-3.15.16-.13.31-.29.47-.38.5-.29,1.3.34,1.88,1.64.83,1.94,1.54,3.96,2.25,6.01.72,2.04,1.36,4.14,1.94,6.26.9,3.14,1.81,6.3,2.71,9.45l-.09.03Z"/><path class="cls-2" d="m308.62,310.59l.91,1.51.45.76.39.79,1.55,3.16c.46,1.08.86,2.18,1.29,3.26.46,1.08.78,2.2,1.11,3.32,1.45,4.44,2.2,9.08,2.53,13.71.21,3.39.24,6.79-.15,10.17-.7,5.95-2.45,11.77-5.11,17.12-1.36,2.66-2.95,5.19-4.72,7.58-1.78,2.39-3.81,4.56-5.94,6.62-3.84,3.58-8.1,6.72-12.62,9.25-2.92,1.59-5.89,3.12-9.03,4.21l-2.37.77c-.8.23-1.6.43-2.39.67-1.57.5-3.18.88-4.78,1.25-2,.46-1.81.06-.28-.85,1.52-.92,4.42-2.25,7.66-4.09,1.44-.8,2.91-1.51,4.37-2.22,1.48-.68,2.86-1.52,4.29-2.28,2.75-1.69,5.53-3.33,8.08-5.29,5.09-3.9,9.6-8.59,12.98-14.11,4.15-6.57,6.08-14.71,6.38-22.64.19-4.38-.16-8.79-1.01-13.11-.2-1.08-.47-2.15-.72-3.22l-.96-3.16c-.28-1.07-.72-2.08-1.12-3.1-.42-1.02-.76-2.07-1.29-3.04-2.28-4.91-5.36-9.47-9.15-13.34-2.87-2.95-6.17-5.46-9.67-7.62-3.54-2.11-7.38-3.69-11.29-4.91-1.55-.37-3.08-.78-4.63-1.09-1.57-.23-3.11-.54-4.68-.68-1.57-.09-3.13-.29-4.7-.3h-2.36s-1.62-.03-1.62-.03h-.48s-.24-.02-.24-.02c-.07-.02-.11-.11-.16-.16l-.62-.74c-.51-.65-1.01-1.29-1.51-1.94-.42-.55-.83-1.1-1.25-1.66-.77-1-1.45-1.8-2.03-2.49-.57-.69-1.02-1.27-1.38-1.77-.71-1-1-1.7-1.1-2.4-.05-.32-.15-.7-.12-.94.07-.79,2.04.25,4.97,2.96,1.06,1.02,2.12,2.17,3.07,3.35l1.37,1.69.33.4s.05.04.07.06c.04.04.08.08.15.04-.24-.02.93-.03,1.61-.05.77-.01,1.53-.02,2.3-.03,1.54.1,3.09.2,4.64.29,6.21.59,12.44,2.39,18.19,5.22,4.26,2.13,8.23,4.86,11.78,8.06,3.59,3.17,6.57,6.97,9.1,10.99l-.08.06Z"/><path class="cls-2" d="m374.9,435.33l-17.11,7.96c-2.08.97-4.11,2.03-6.2,2.99l-22.11,9.96c-3.28,1.46-6.53,3.01-9.74,4.55-2.07.97-4.09,2.05-6.21,2.92-1.05.45-2.11.89-3.17,1.32-1.06.44-2.18.73-3.27,1.1-1.38.42-1.3.14-.4-.78.45-.46,1.09-1.11,1.87-1.87.8-.72,1.8-1.44,2.94-2.11,1.02-.57,2.01-1.2,3.05-1.72l3.12-1.57c2.09-1.03,4.18-2.06,6.28-3.09,2.1-1.02,4.21-2.02,6.33-3.01,2.13-.96,4.29-1.9,6.45-2.82,5.18-2.2,10.35-4.95,15.53-7.45l17.09-8.23c3.5-1.7,7.01-3.39,10.51-5.09,5.29-2.6,10.62-5.18,15.8-7.91,4.03-2.11,7.84-4.45,11.76-6.65.87-.48,1.69-.99,2.58-1.45,3.35-1.58,4.56-1.81,5.67-1.39.25.1.56.16.74.29.62.41-.45,1.64-2.66,3.26-1.62,1.24-3.36,2.32-5.12,3.39-1.76,1.08-3.58,2.09-5.41,3.11-3.67,2.03-7.44,4-11.24,5.93-5.63,2.88-11.35,5.66-17.05,8.46l-.05-.09Z"/><path class="cls-2" d="m356.64,306.26c3.64-.76,7.32-1.18,10.99-1.34l1.38-.06c.45-.02,1,.01,1.49.02,1.01-.01,2.01.15,3.01.3.5.05.99.21,1.47.33.48.14.98.23,1.45.41.93.37,1.89.67,2.76,1.15,2.59,1.27,4.96,2.89,6.96,4.83,1.75,1.72,3.28,3.6,4.69,5.54,1.37,1.96,2.61,3.99,3.73,6.06,2.22,4.16,3.96,8.51,5.48,12.9,1.33,3.9,2.57,7.85,3.62,11.79.66,2.54,1.32,5.09,1.77,7.68.21,1.3.47,2.59.51,3.92.04,1.33.02,2.66-.11,3.98-.18,1.66-.36,1.43-1.06.13-.33-.65-.92-1.55-1.48-2.64-.29-.54-.63-1.12-.88-1.75-.23-.64-.41-1.31-.57-2.03-2.25-10.11-5.27-20.1-9.6-29.52-2.56-5.62-6.37-11.02-11.15-14.73-2.61-2.04-5.6-3.53-8.8-3.94-.79-.16-1.6-.15-2.42-.17-.81-.03-1.74.06-2.6.08-1.75.12-3.51.25-5.24.49-4.28.54-8.53,1.46-12.56,2.94-3.04,1.13-6.01,2.55-8.57,4.44-.6.44-1.35,1.07-1.6,1.33-.33.34-.67.69-.85,1.14-.11.23.02.48.17.65.15.19.37.29.59.38.46.14.92.16,1.42.14l.38-.02.45-.03.92-.1c.61-.08,1.23-.18,1.85-.3,1.23-.24,2.46-.52,3.69-.82,2.46-.6,4.93-1.26,7.46-1.81,1.12-.24,2.21-.5,3.37-.67,1.07-.16,1.98-.24,2.76-.26.77,0,1.41.1,1.93.2.53.13.93.26,1.25.46.32.22.56.44.76.68.18.22.41.43.5.58.14.27-.24.4-.98.64-.38.17-.83.23-1.37.34-.54.1-1.17.25-1.89.36-4.28.63-8.73,1.96-13.41,3.05-1.18.27-2.37.53-3.6.76-1.24.23-2.46.46-3.91.54-.58-.01-1.15.04-1.73-.03-.58-.06-1.18-.1-1.68-.3-1.05-.3-1.93-.82-2.49-1.62-.28-.39-.51-.83-.7-1.3-.12-.49-.17-.96-.15-1.42.15-.92.57-1.9,1.31-2.81.29-.33.54-.69.85-.98l.46-.45c.15-.15.32-.32.39-.38.38-.35.78-.67,1.17-.99.79-.62,1.6-1.19,2.43-1.71,1.65-1.05,3.37-1.93,5.12-2.72,3.5-1.55,7.14-2.67,10.8-3.47l.03.1Z"/><path class="cls-2" d="m343.57,333.97c-1.34.17-2.69.31-4.1.39l-1.07.04h-.59c-.28.01-.59-.02-.88-.03-1.21,0-2.25-.34-3.13-.81-.51-.36-.96-.83-1.32-1.35-.36-.53-.52-1.18-.51-1.81.02-.94.41-1.82.99-2.66.33-.4.71-.8,1.09-1.19.19-.19.42-.37.65-.55.22-.17.31-.25.47-.35,2.05-1.39,4.14-2.35,6.25-3.26,2.1-.91,4.25-1.65,6.4-2.34l2.86-.95,1.42-.48,1.44-.41,1.86-.5c.63-.14,1.27-.23,1.91-.33.64-.08,1.28-.17,1.94-.16.66.02,1.32.05,1.98.12.82.12.69.09.06.37-.32.15-.75.41-1.24.81-.25.18-.51.42-.79.62-.29.18-.59.36-.91.53-.57.28-1.14.59-1.7.89-.56.3-1.16.5-1.73.77-.58.24-1.15.52-1.74.75l-1.78.62c-2.39.81-4.73,1.73-7.16,2.49-1.44.47-2.84,1.12-4.18,1.85-.67.37-1.31.76-1.92,1.17-.3.21-.6.41-.88.62l-.13.1-.07.05c-.05.04-.1.08-.16.12-.21.17-.44.38-.51.68-.07.3.15.58.42.7.15.08.33.1.51.13.09.01.18.02.28.03.08,0,.18,0,.44,0,.86-.03,1.76-.11,2.66-.22,2.08-.26,4.18-.62,6.28-1.02,3.18-.62,6.4-1.23,9.56-1.96,2.46-.56,4.84-1.31,7.33-1.85.55-.13,1.09-.22,1.65-.28,1.05-.1,1.76-.03,2.27.17.51.26.81.58,1.05.99.11.19.25.36.31.52.11.28-.04.55-.39.88-.34.32-.87.77-1.57.98-.52.21-1.04.37-1.56.56-.52.19-1.05.38-1.59.5-1.08.28-2.17.56-3.26.84-2.2.56-4.47,1.02-6.77,1.47-3.41.67-6.88,1.3-10.43,1.84l-.02-.1Z"/><path class="cls-2" d="m351.16,346.5c-.37.14-.75.27-1.14.39-.19.06-.39.13-.59.18l-.69.2c-1.35.38-2.72.6-3.86.42l-.42-.07-.38-.13c-.26-.07-.49-.22-.73-.34-.45-.29-.84-.72-1.1-1.22-.47-1.02-.51-2.17-.17-3.31.13-.41.27-.83.45-1.25.13-.43.41-.82.65-1.23l.19-.3c.03-.13.1-.21.17-.3.11-.15.19-.27.29-.39.19-.26.41-.47.62-.7,1.51-1.54,3.13-2.77,4.78-3.92,1.67-1.12,3.39-2.11,5.11-3.08,1.53-.86,3-1.8,4.55-2.6l1.47-.79c.51-.23,1.03-.44,1.55-.64.53-.19,1.05-.4,1.61-.51.57-.11,1.14-.2,1.7-.29.72-.08.67.07.3.64-.19.29-.44.71-.74,1.22-.15.25-.3.55-.49.8-.19.24-.41.47-.65.68-3.34,3.01-7.25,4.88-11.02,7.11-2.27,1.26-4.36,3.13-5.88,4.9-.2.2-.35.4-.48.66-.13.25-.2.58-.09.86.14.28.48.31.77.3.15,0,.31-.03.46-.05l.24-.05c.1-.02.12-.02.32-.08,1.68-.5,3.39-1.2,5.07-1.95,2.55-1.15,5.12-2.36,7.58-3.7,1.92-1.04,3.7-2.27,5.58-3.39.41-.25.82-.48,1.26-.69.41-.19.76-.33,1.06-.42.31-.08.59-.08.82-.07.47.02.82.21,1.16.5.15.13.33.25.44.38.36.41-.04,1.28-1.01,2.21-.77.58-1.52,1.24-2.35,1.75-.82.53-1.67,1.05-2.53,1.55-1.73,1.01-3.52,1.98-5.34,2.92-2.72,1.39-5.5,2.72-8.49,3.89l-.04-.09Z"/><path class="cls-2" d="m363.31,353.87c-.29.14-.57.29-.88.42-.41.21-.98.4-1.46.58-1.01.31-1.98.42-2.82.2-.86-.17-1.57-.85-2.04-1.6-.48-.76-.7-1.65-.62-2.58.07-.68.25-1.36.53-2.04.07-.17.15-.34.23-.5.05-.07.07-.18.1-.25l.11-.19c.12-.22.25-.45.4-.63,1.03-1.37,2.15-2.45,3.29-3.5,1.13-1.04,2.28-2.02,3.42-3,1.03-.85,1.98-1.77,2.88-2.69.57-.6,1.16-1.17,1.73-1.74.29-.28.54-.58.87-.81.33-.23.67-.46.96-.71.37-.3.64-.21.88.44.11.32.21.81.24,1.35.01.27.04.59-.02.85-.07.26-.17.51-.32.74-.51.8-1.03,1.56-1.6,2.25-.6.66-1.22,1.28-1.84,1.89-1.22,1.23-2.6,2.26-3.96,3.29-.81.61-1.54,1.34-2.19,2.1-.32.38-.62.77-.91,1.16l-.72,1.03c-.21.3-.46.78-.24,1.22.09.22.31.36.55.35.23,0,.47-.06.71-.14.08-.03.15-.05.23-.08.11-.05.29-.12.43-.2.3-.14.6-.3.91-.47.6-.33,1.2-.69,1.79-1.07,1.79-1.15,3.57-2.4,5.23-3.77,1.27-1.09,2.43-2.26,3.68-3.35.27-.24.52-.5.84-.7.57-.38.98-.6,1.34-.66.38-.04.67.03.96.17.13.06.28.1.38.17.17.11.2.32.14.64-.06.32-.18.79-.49,1.19-.83,1.32-1.89,2.43-2.95,3.59-1.11,1.1-2.36,2.08-3.62,3.07-1.9,1.45-3.87,2.82-6.12,4.05l-.05-.07Z"/><path class="cls-2" d="m289.18,222.09l2.69,2.08c.33.25.71.42,1.02.7,1.1.99,2.2,1.98,3.29,2.96.48.45,1,.84,1.52,1.22.67.49,1.37.94,1.84,1.68.15.23-.17.57-.65.83-.47.25-1.12.47-1.54.27-1.47-.72-2.96-1.4-4.12-2.64-.72-.71-1.69-1.1-2.55-1.64l-2.74-1.96c-.56-.4-1.13-.81-1.71-1.2-.88-.58-1.72-1.23-2.64-1.75-.71-.41-1.53-.6-2.25-1-.16-.08-.33-.14-.49-.24-.14-.09-.25-.19-.33-.29-.07-.11-.08-.27-.09-.39-.01-.26.06-.52.19-.83.06-.14.11-.28.17-.41.2-.39.7-.64,1.34-.77.76.11,1.54.2,2.22.49.69.27,1.35.61,2.02.97.99.51,1.88,1.23,2.83,1.85l-.05.08Z"/><path class="cls-2" d="m253.01,145.79c.72,3.23,2.38,6.28,4.41,8.88s4.85,5.11,8.21,5.82c3.01.63,6.42-.1,8.28-2.71,1.48-2.09,1.6-4.88,1.44-7.34-.08-1.35-.26-2.68-.42-4.02-.07-.6-.13-1.21-.17-1.82-.01-.26-.02-.52-.02-.78,0-.17.09-.91,0-.31.14-.93-.23-1.88-1.22-2.15-.82-.23-2.01.28-2.15,1.22-.29,1.97.08,3.93.3,5.89.12,1.13.23,2.27.23,3.42,0,.53-.03,1.05-.08,1.57s.04-.19-.02.12c-.02.14-.05.27-.07.41-.05.26-.12.53-.2.79-.04.13-.08.25-.13.37-.1.28.19-.35-.04.08-.1.18-.19.36-.3.54-.12.2-.51.6-.66.7-.87.58-1.81.8-3,.75-2.62-.1-5.01-2.08-6.72-4.06-2.03-2.35-3.61-5.26-4.29-8.29-.49-2.2-3.87-1.27-3.37.93h0Z"/><path class="cls-2" d="m285.64,160.32c-.71-4.27-1.65-8.58-2.66-12.89-.36-1.57-.82-3.13-1.15-4.72-.59-2.8-1.12-5.64-1.46-8.54-.14-1.46-.28-2.94-.24-4.47.03-.77.1-1.55.27-2.37.18-.79.5-1.7,1.02-2.43.93-1.28,2.17-2.15,3.42-2.78,1.27-.63,2.58-1.01,3.9-1.29,1.69-.32,3.43-.55,5.17-.31.87.12,1.75.28,2.61.66.42.18.84.43,1.24.71.4.31.75.69,1.03,1.15.33.62.21.98.06,1-.18.05-.46-.17-.92-.24-.46-.09-1.07.03-1.72.15-.33.06-.68.16-1.04.21-.35.03-.73.06-1.11.05-.69-.03-1.4.06-2.1.08-.71.02-1.42.09-2.12.2-1.4.21-2.74.64-3.85,1.18-.55.27-1.03.59-1.39.94-.18.17-.32.35-.46.54-.08.21-.22.36-.3.66-.38,1.1-.47,2.68-.45,4.23.1,3.78,1.23,7.76,2.11,11.67.99,4.31,2.06,8.65,3.02,13.03.58,2.7,1.09,5.43,1.45,8.2.25,2.11.43,4.25.23,6.47-.1,1.11-.32,2.24-.75,3.36-.53,1.26-1.5,2.16-2.5,2.8-1.58.98-3.27,1.48-4.97,1.77-1.7.27-3.44.3-5.17.05-.38-.06-.76-.13-1.14-.19-.38-.08-.75-.19-1.13-.3-1.4-.43-2.2-1.05-2.69-1.55-.5-.48-.58-1.04-.54-1.57.02-.24,0-.49.05-.68.09-.31.44-.41.99-.43.29-.04.56.04.9.1.34.05.7.16,1.1.27,2.37.65,4.95.89,7.37.42,1.19-.22,2.33-.61,3.13-1.13.42-.25.68-.53.89-.75.05-.06.05-.11.09-.16.03-.06.08-.07.11-.21.06-.25.19-.43.23-.72.4-1.6.4-3.7.23-5.77-.16-2.09-.48-4.24-.87-6.38l.09-.02Z"/><path class="cls-2" d="m286.45,158.8c1.83,1.14,3.91,1.96,6.09,1.61,1.71-.27,3.05-1.38,4.05-2.74,1.99-2.69,2.59-6.35,3.06-9.57.14-.93.26-1.86.38-2.79.05-.36-.06.45-.01.09.01-.09.02-.18.04-.27.02-.17.05-.33.07-.5.04-.28.09-.56.14-.83.19-.93-.27-1.89-1.22-2.15-.86-.24-1.96.29-2.15,1.22-.1.5-.17,1-.24,1.51-.06.41-.11.81-.16,1.22-.02.15-.04.3-.06.45-.01.09-.02.17-.03.26.07-.55.02-.14,0-.04-.21,1.54-.45,3.08-.8,4.59-.18.76-.38,1.51-.63,2.24-.11.34-.24.67-.37,1,.19-.49-.05.1-.1.21-.09.18-.18.37-.28.55-.16.3-.35.58-.53.87-.24.36.14-.14-.04.05-.13.15-.26.3-.4.44-.1.1-.22.19-.32.3-.28.26.32-.19-.06.04-.13.08-.27.16-.41.24-.38.22.33-.08-.1.05-.17.05-.34.09-.51.14-.14.04-.37.01.12,0-.1,0-.2.02-.3.02-.2,0-.39-.01-.58-.01-.13,0-.38-.08.08.02-.11-.02-.23-.04-.35-.07-.2-.04-.4-.1-.6-.16-.1-.03-.21-.07-.31-.11-.43-.14.17.09-.16-.06-.53-.25-1.04-.53-1.53-.84-1.91-1.2-3.67,1.83-1.77,3.02h0Z"/><path class="cls-2" d="m255.23,187.2c.68,2.62,2.97,4.53,5.25,5.77,2.1,1.15,4.6,2.09,7.02,2.1.92,0,1.79-.81,1.75-1.75s-.77-1.74-1.75-1.75c-.21,0-.42-.02-.63-.03-.17-.01-.39.06.07.01-.08,0-.23-.03-.31-.05-.49-.09-.97-.2-1.45-.34-.53-.15-1.04-.34-1.55-.54-.37-.14.27.12-.07-.03-.14-.06-.28-.13-.42-.19-.26-.12-.52-.25-.78-.39-.51-.27-1.01-.57-1.48-.91-.11-.08-.21-.15-.32-.23.35.25.02.02-.05-.05-.23-.19-.45-.39-.66-.59-.18-.17-.34-.35-.5-.54-.15-.17-.17-.24-.02-.02-.09-.13-.18-.25-.26-.39-.12-.19-.23-.4-.33-.6-.17-.33.1.33,0,0-.04-.14-.09-.28-.13-.42-.23-.89-1.26-1.51-2.15-1.22s-1.47,1.2-1.22,2.15h0Z"/><path class="cls-2" d="m247.94,130.7c4.93-5.88,14.91-8.61,21.84-4.93,2.27,1.21,4.3-2.25,2.02-3.45-4.63-2.45-9.98-2.68-14.99-1.37-4.35,1.14-8.77,3.44-11.69,6.93-1.64,1.96,1.17,4.8,2.83,2.83h0Z"/><path class="cls-5" d="m314.99,342.83s0-.04.03-.12v.12h-.03Z"/><path class="cls-5" d="m312.01,380.17l-.39.52s0-.05-.02-.07c.14-.15.28-.3.41-.45Z"/><line class="cls-7" x1="273.04" y1="417.29" x2="271.22" y2="411.24"/><path class="cls-6" d="m160.04,269.11l1.41-1.48c-.45.48-.9.97-1.34,1.47-.02,0-.05.01-.07.01Z"/><path class="cls-6" d="m163.7,265.26s.01,0,.03-.01c-.2.2-.4.4-.59.6l.56-.59Z"/><path class="cls-6" d="m184.69,268.61c-1.12,1.24-2.15,2.5-3.11,3.76"/><path class="cls-6" d="m152.22,279.03c-1.05,1.49-2.07,3.03-3.06,4.62h-.02l1.49-4.12c.54-.19,1.07-.35,1.59-.5Z"/><path class="cls-6" d="m180.17,401.14c-1.31-1.43-2.55-2.86-3.71-4.29h.01s3.7,4.29,3.7,4.29Z"/><path class="cls-6" d="m215.39,443.77s.02,0,.04,0"/><path class="cls-2" d="m371.64,83.77c.12.35-.33.53-1.08.63-.24.03-.92-.11-1-.22-.16-.21-.33-.43-.44-.64-.06-.12-.23-1.96-.35-2.6-.12-.62-.09-1.21.02-1.79.2-1.19.37-2.39.62-3.62.06-.27.16-.54.31-.79.49-.86.81-1.77,1.1-2.67.04-.15.13-.29.05-.48-.14-.33.88-2.65,1.12-2.89.56-.63,1.1-1.26,1.63-1.89.08-.09.09-.22.27-.25.42-.08.48-.32.61-.53.18-.29.44-.55.7-.8.13-.12.37-.2.56-.3.18-.09.5.14.53.21.06.19.29.15.45.21.05.02.12.04.16.07.05.04.36,2.28.25,2.46-.01.05-.62,2.8-.7,3.14-.02.17-.16.29-.27.42-.07.07-.46,2.24-.47,2.31-.17.4-.15.87-.6,1.18-.09.06-.09.15-.12.24-.18.73-.53,1.4-.81,2.13-.15.37-.2.76-.29,1.15-.02.07-.09.13-.13.19-.05.08-.12.16-.14.25-.19.93-.53,1.85-.69,2.8-.04.22-.69,1.18-.71,1.44-.02.14-.64.51-.58.65Z"/><path class="cls-2" d="m381.07,96.35c-.33.36-.83.19-1.44-.27-.19-.15-.47-.74-.4-.89.14-.28.29-.56.46-.8.11-.14,2.14-1.66,2.81-2.22.65-.54,1.35-.98,2.06-1.39,1.45-.84,2.87-1.74,4.33-2.56.33-.17.68-.31,1.04-.4,1.26-.33,2.4-.89,3.5-1.55.18-.11.39-.19.5-.41.19-.37,3.26-1.96,3.71-2.06,1.15-.19,2.23-.52,3.37-.72.16-.03.3-.14.51-.04.48.21.77.02,1.1-.08.46-.15.93-.28,1.42-.37.24-.04.54.03.81.06.25.03.36.5.31.58-.13.23.13.36.24.52.04.06.08.13.1.18.02.06-.48.61-1,1.2-.52.59-1.06,1.21-1.18,1.29-.01.01-.23.17-.55.41-.31.25-.76.53-1.2.83-.44.3-.9.61-1.27.86-.37.24-.66.41-.75.48-.19.14-.45.16-.69.21-.11.03-2.84,1.73-2.96,1.77-.62.25-1.15.67-1.9.64-.15,0-.26.07-.38.13-1,.54-2.08.94-3.16,1.33-.55.19-1.07.47-1.6.7-.1.04-.22.04-.32.06-.13.03-.28.04-.4.1-1.25.59-2.59.99-3.79,1.67-.28.15-1.82.46-2.13.65-.18.1-1-.05-1.13.1Z"/><path class="cls-2" d="m384.11,123.5c-.25.23-.57-.09-.93-.68-.11-.19-.24-.81-.18-.92.12-.22.24-.43.38-.61.08-.1,1.58-.94,2.08-1.29.49-.32,1-.55,1.54-.72l1.64-.55c.56-.15,1.13-.28,1.72-.38.26-.05.52-.05.79,0,.92.19,1.81.11,2.7-.03.15-.02.3,0,.45-.18.12-.13.79-.26,1.46-.27.67,0,1.34.07,1.48.15.74.37,1.46.63,2.18.95.1.05.22,0,.3.2.18.48.41.44.63.51.3.1.61.23.9.42.15.1.27.37.4.58.12.2-.02.82-.08.89-.16.19-.08.5-.09.77,0,.09-.01.21-.03.28-.02.08-.5.38-.99.68-.5.3-1.02.62-1.11.59-.06-.02-2.6.16-2.87.25-.15.04-.29-.08-.43-.15-.08,0-2.02.22-2.08.22-.39-.07-.78.08-1.18-.31-.08-.08-.16-.06-.24-.05-.67.07-1.36-.06-2.06-.1-.36-.02-.7.06-1.07.09-.07,0-.14-.05-.21-.07-.09-.03-.18-.07-.26-.06-.85.07-1.76-.03-2.62.19-.2.04-1.24-.2-1.47-.12-.13.04-.66-.37-.76-.27Z"/></svg>