<?xml version="1.0" encoding="UTF-8"?><svg id="Layer_31" xmlns="http://www.w3.org/2000/svg" width="520" height="520" viewBox="0 0 520 520"><defs><style>.cls-1,.cls-2,.cls-3,.cls-4,.cls-5{fill:#231f20;}.cls-2{opacity:.2;}.cls-3{opacity:.5;}.cls-4{opacity:.3;}.cls-5{opacity:.45;}</style></defs><path class="cls-2" d="m242.09,253.31s13.25-3.95,10.54-11.33-5.14-14.05-19.36-16.54c-14.23-2.49-24.17.06-24.17.06,0,0,7.53,17.62,16.53,23.39,9,5.77,16.46,4.42,16.46,4.42Z"/><path class="cls-5" d="m446.67,401.95s-5.93-5.55,1.71-8.94c0,0,3.66-.56,4.13,3.67s-1.69,3.97-2.54,4.91-3.29.36-3.29.36Z"/><path class="cls-1" d="m376.65,92.41s5.83-.29,5.55-3.58c-.28-3.29,3.13.34,3.48,1.88.47,2.07-.5,5.06-3.86,5.36-3.36.31-5.64-1.5-5.17-3.67Z"/><path class="cls-5" d="m190.93,147.92s-6.47-2.82-2.33-6.68,6.68,1.32,6.49,2.96c-.19,1.65-2.42,3.15-4.17,3.71Z"/><path class="cls-1" d="m68.56,132.39s-3.48.32-3.07-1.98c.41-2.3,2.35-2.72,3.67-2.3s1.26,1.86.76,2.68-1.37,1.59-1.37,1.59Z"/><path class="cls-1" d="m143.1,348.31s-3.35-.87-1.3-4.1,4.74-.13,3.86,2.05c-.88,2.18-1.69,1.61-2.57,2.05Z"/><path class="cls-4" d="m125.77,307.5c-.56.38-2.01,8.98-12.49,11.46-15.52,3.68-23.98-16.46-23.98-37.3,0-32.4,19.35-65.53,38.65-53.9,7.09,4.27,7.79,11.27,8.21,12.93.56,2.25-3.81-4.1-3.45-2.79.13.48-.41.86-.82.58-3.39-2.33-11.34-6.63-16.37.01-6.53,8.63-13.52,20.86-12.71,39.27.81,18.41.39,29.73,10.05,32.64,10.03,3.02,12.92-2.91,12.92-2.91Z"/><path class="cls-4" d="m390.13,281.95c.67.67,7.31,13.27,19.55,10.73,14.67-3.04,18.11-21.49,17.69-38.42-1.51-60.93-38.17-73.72-50.45-55.96-6.78,9.8-3.11,25.9-3.11,25.9,0,0,3.11-14.88,6.78-17.08,4.2-2.53,7.13-4.26,14.44-.23,8.57,4.73,12.53,7.85,15.98,20.56,3.44,12.71,10.41,30.39,6.23,47.38-4.18,16.99-16.13,14.63-27.12,7.11Z"/><path class="cls-1" d="m108.45,210.55c.9-.44,1.83-.83,2.77-1.21l1.43-.53.74-.23.37-.12c.13-.04.26-.08.28-.08.14-.03.28-.07.42-.12.1-.03.16-.04.27-.05.19,0,.41,0,.67.05.13.01.26.06.41.09l.21.09s.08.04.1.04l-.03-.05c-.05-.26-.39-.53-.84-.82-.2-.12-.44-.24-.69-.34-.06-.02-.11-.06-.19-.07-.09-.03-.24-.1-.35-.15l-.74-.31c-1.28-.51-2.59-.94-3.87-1.49-.4-.17-.29-.42.15-.64.43-.21,1.21-.41,2.03-.27.72.13,1.44.29,2.16.47.78.22,1.14.27,2.83.91,1.37.55,2.59,1.27,3.4,1.92.68.66,1.15,1.22,1.69,1.83.23.27.47.52.8.88-.11.02-.29.07-.32.07l.04-.07.04-.06s-.08-.02-.11-.03c-.12,0-.17-.02-.33-.02l-.72.05c-1.05.08-2.56.26-3.93.4l-.34.04-.27.07-.54.14-1.06.27-1.3.43c-.87.32-1.73.67-2.59,1.07-1.05.49-2.1,1.01-3.11,1.59-1.54.88-3.07,1.8-4.49,2.86-1.1.82-2.05,1.81-3.04,2.74-.22.2-.42.42-.65.62-.86.71-1.27.78-1.93.37-.15-.09-.32-.17-.45-.28-.45-.36-.4-1.02.11-1.72,1.5-2.11,3.57-3.79,5.75-5.36,1.64-1.13,3.39-2.13,5.19-3.05l.04.07Z"/><path class="cls-1" d="m102.24,272.9c.41-3.7,1.03-7.37,1.84-11,.32-1.32.56-2.66.94-3.96,1.3-4.61,3.08-9.11,5.5-13.28,1.08-1.85,2.3-3.64,3.73-5.26.92-1.03,1.92-2.04,3.14-2.79,1.22-.72,2.65-1.22,4.09-1.2.91.04.73.27.08.64-.67.36-1.64,1.14-2.66,2.05-1.89,1.5-3.6,3.43-5,5.61-1.41,2.18-2.74,4.47-3.9,6.9-1.4,2.9-2.31,6.16-3.12,9.37-.9,3.53-1.58,7.13-2.07,10.77-.29,2.24-.53,4.48-.67,6.74-.24,3.41-.33,6.86-.22,10.26.03,1.32.11,2.63.22,3.93.09,1.3.23,2.6.36,3.9.06.57.12,1.13.18,1.71.19,2.14.06,2.84-.33,3.35-.09.12-.18.27-.27.34-.3.24-.69-.6-1.05-2.17-.28-1.16-.44-2.35-.62-3.55-.19-1.2-.33-2.42-.45-3.65-.27-2.46-.41-4.97-.38-7.49,0-3.74.2-7.49.57-11.23h.06Z"/><path class="cls-1" d="m77.4,315.28c-1.07-2.18-1.96-4.4-2.68-6.68-.29-.82-.57-1.64-.8-2.48-.72-2.97-1.24-5.99-1.39-9.02l-.11-2.02c0-.67-.05-1.34-.04-2.01,0-.86.07-1.71.13-2.57.08-.85.27-1.7.45-2.53.12-.52.31-.42.53.05.21.47.51,1.3.58,2.24l.29,2.5c.17.83.22,1.65.31,2.47.13.82.24,1.64.35,2.47.16.82.19,1.66.29,2.5.25,2,.89,4.02,1.56,5.96.71,2.15,1.47,4.3,2.46,6.34.28.64.63,1.24.94,1.86.08.15.16.31.25.46l.31.51c.26.45.57.9.89,1.35.4.47.88.97,1.31,1.44.44.48.83.93,1.38,1.47l1.49,1.54,1.32,1.29h-.19c-.09-.01-.31-.09-.45-.14l-.96-.31c-.63-.2-1.25-.39-1.88-.59-.69-.2-1.37-.4-2.05-.6-.65-.17-1.2-.29-1.83-.43l-3.41-.77c-.36-.08-.71-.14-1.06-.24-1.28-.47-1.64-.82-1.75-1.51-.03-.16-.07-.32-.07-.46,0-.48.64-.74,1.68-.76.77-.04,1.53.03,2.29.11l.56.06s.04,0,.05,0c.02,0,.03.02.03.03,0,0-.02.04-.03.03,0-.01-.01-.02-.02-.03-.02-.02-.02-.02-.04-.03h0s.04.03.06.01c-.02,0,.08-.02.02-.06-.01-.02,0,.02-.03-.04l-.12-.2c-.08-.13-.16-.26-.23-.4l-.43-.81.06-.04Z"/><path class="cls-1" d="m389.21,269.92c.73.56,9.5,18.19,18.13,17.74,6.21-.32,11.46-7.4,10.66-27.17,0,0,1.53-2.26-6.99,0-8.52,2.26-21.81,9.42-21.81,9.42Z"/><path class="cls-1" d="m378.81,220.01c.34-.21,0-11.7,3.4-14.36,5.6-4.39,16.43,3.41,16.43,3.41l-19.82,11.71"/><path class="cls-1" d="m127.33,294.56c-.48,1.17-4.71,16.6-11.11,15.81-11.11-1.38-12.54-19-12.54-19l23.64,3.19Z"/><path class="cls-1" d="m235.35,398.29c.64-.33,1.28-.66,1.91-1,.23-.13.43-.29.67-.41.82-.44,1.63-.87,2.43-1.33.35-.2.68-.45,1.02-.67.43-.29.86-.58,1.35-.8.15-.07.21.05.19.26-.03.2-.12.5-.33.72-.74.78-1.59,1.41-2.52,1.95-.56.32-1.05.77-1.58,1.16-.59.41-1.18.82-1.77,1.23l-1.1.74c-.56.37-1.13.73-1.65,1.14-.4.32-.74.73-1.09,1.11-.08.08-.15.18-.23.25-.15.16-.32.15-.46.13-.13-.02-.29-.14-.46-.31l-.21-.19c-.16-.15-.31-.66-.14-.95.51-.85,1.32-1.38,2.11-1.93.6-.39,1.21-.78,1.85-1.12l.03.03Z"/><path class="cls-1" d="m300.72,365.62l-5.17-2.04c-.63-.25-1.27-.45-1.9-.71-2.19-.95-4.38-1.89-6.56-2.84-.97-.43-1.95-.82-2.93-1.2l-1.89-.72c-.61-.3-1.18-.69-1.75-1.06-.35-.25-.25-.36.17-.47.42-.09,1.19-.28,1.99-.22,2.65.74,5.25,1.59,7.73,2.84,1.49.72,3.15,1.2,4.73,1.79l5.2,2.01,3.21,1.21c1.63.58,3.26,1.2,4.89,1.75,1.27.42,2.56.67,3.81,1.12.28.09.55.17.82.28,1.02.39,1.31.62,1.43,1.02.03.09.07.18.08.26.04.24-.47.37-1.28.28l-1.83-.19c-.62-.06-1.24-.14-1.84-.29-1.21-.26-2.43-.58-3.64-.91-1.79-.53-3.54-1.22-5.3-1.84l.02-.06Z"/><path class="cls-1" d="m233.85,384.38c1.01-.57,1.98-1.22,2.97-1.83.97-.65,1.94-1.3,2.9-1.98.69-.5,1.36-1.04,2.06-1.53,2.45-1.76,4.89-3.58,7.25-5.48,1.08-.81,2.11-1.69,3.14-2.55,1.3-1.13,2.74-2.1,4.15-3.1.45-.31.39-.25.11.11-.29.36-.74,1.11-1.36,1.9l-.84,1.04-.42.52-.46.47c-.62.63-1.25,1.25-1.88,1.86-1.25,1.25-2.65,2.34-4.08,3.4-1.71,1.27-3.35,2.76-5.09,4.09-.95.74-1.92,1.44-2.92,2.12-.98.7-1.99,1.35-3.01,2-.62.41-1.26.79-1.9,1.16-.65.37-1.26.78-1.93,1.12-1,.52-1.97,1.09-3.01,1.54l-1.53.72c-.52.23-1.05.42-1.56.64l-1.2.51-1.23.45c-.41.15-.81.32-1.23.44l-1.29.3c-.38.08-.75.19-1.14.26-.73.05-1.22.05-1.56-.05-.34-.14-.54-.31-.69-.54-.07-.11-.16-.2-.2-.3-.07-.16.04-.33.28-.52.24-.19.61-.44,1.09-.52.71-.13,1.4-.38,2.1-.61.7-.2,1.39-.47,2.1-.72l1.06-.36,1.05-.43c.7-.29,1.42-.55,2.11-.91l1.56-.73,1.54-.81c1.03-.52,2.03-1.14,3.03-1.74l.03.05Z"/><path class="cls-1" d="m215.68,370.11c-.34,1.2-.7,2.39-1.26,3.5-.21.4-.31.84-.57,1.22-.79,1.38-1.84,2.62-3,3.67-.5.49-1.07.9-1.61,1.34l-.56.36c-.2.11-.41.19-.61.28-.42.15-.88.22-1.31.29-.28.03-.28-.13-.16-.43.13-.29.35-.78.68-1.08.14-.15.27-.31.41-.46.13-.15.3-.23.46-.34l.87-.73c.28-.26.54-.55.83-.8.28-.27.53-.57.82-.85.34-.34.57-.78.83-1.2l.62-1.35c.41-1.01.82-2.03,1.09-3.11.2-.66.3-1.33.42-2.01l.15-1.56c0-.52.02-1.04-.04-1.56-.05-.4-.14-.79-.24-1.17-.13-.38-.23-.76-.33-1.13-.04-.17-.11-.32-.16-.49-.18-.61.02-.87.49-1.17.11-.07.22-.15.33-.2.37-.18.79-.02,1.14.44.45.7.78,1.47.99,2.29.15.82.23,1.67.21,2.52,0,1.26-.2,2.51-.43,3.74h-.06Z"/><path class="cls-1" d="m332.26,353.72c.29.99.69,1.96,1.09,2.93.15.36.36.67.52,1.02.57,1.23,1.24,2.43,2.08,3.5.35.49.78.92,1.22,1.31.58.47,1.2.91,1.89,1.1.21.07.21.21-.02.36-.23.17-.73.29-1.26.15-1.76-.6-3.18-1.76-4.05-3.24-.54-.87-1.22-1.68-1.75-2.58-.59-.98-1.04-2.03-1.43-3.1-.25-.66-.45-1.33-.65-2-.29-1.02-.48-2.07-.66-3.12-.14-.81-.33-1.63-.35-2.5,0-.19-.01-.38.02-.57.13-.71.44-.88.9-.9.11,0,.22-.02.32,0,.34.04.58.37.71.81.11.33.14.64.23.96.04.32.08.63.12.95.08.64.2,1.29.32,1.95.2.98.45,1.98.79,2.96l-.05.02Z"/><path class="cls-3" d="m271.68,364.38s-5.11-2.98-14.59.63c0,0,1.77-5.01-1.4-6.98-3.16-1.98-9.21-6.49-23.61,4.03l-2.32,4.63s-17.05-5.22-17.31-4.63-6.25-22.22-7.99-26.04c-1.74-3.82,3.34-13.14,3.34-13.14,0,0,12.33-9.32,14.35-16.24,2.02-6.92,26.87-26.2,38.12-26.04,11.25.16,25.78,1.28,34.8,11.19,9.02,9.91,26.3,11.72,30.2,14.2,3.9,2.48,11.92,13.66,13.15,16.54s-5.67,9.86-6.03,18.36c-.35,8.5-5.78,5.98-9.68,8.49-3.89,2.51-12.94,2.65-12.94,2.65,0,0-10-7.76-18.4-3.12-8.4,4.64-7.89,6.59-7.89,6.59,0,0-7.79-1.93-9.9,1.12s-1.91,7.73-1.91,7.73Z"/><path class="cls-1" d="m330.37,341.16c.42-1.77.83-3.59,1.32-5.39.17-.66.3-1.33.49-1.98.71-2.29,1.55-4.55,2.49-6.76.4-.98.8-1.98,1.23-2.94.29-.61.55-1.25.89-1.84.37-.57.82-1.11,1.27-1.63.29-.32.47-.14.58.33.1.46.23,1.26.06,2-.82,2.53-1.93,4.9-3.01,7.39-.64,1.49-.99,3.14-1.4,4.75-.45,1.77-.9,3.54-1.3,5.34l-.38,1.67-.21.86c-.09.3-.14.57-.33.99-.94,1.69-2.38,2.94-3.9,3.91-1.17.77-2.34,1.44-3.55,1.99-.27.13-.52.26-.8.35-1.03.34-1.41.32-1.8-.02-.09-.08-.19-.15-.26-.23-.23-.27.06-.73.72-1.22.96-.76,2.01-1.34,2.98-1.98,1-.57,1.95-1.14,2.73-1.82.58-.5,1.08-1.06,1.5-1.71l.16-.24.04-.06v-.02s.01,0,.01,0h0s0,0,0,0h0c.37.2-.82-.46.82.46l-.37-.23-.38-.21c-.09-.05-.07-.04-.07-.04h0s0-.01,0-.01c0,0,0,0,.01-.01l.04-.13.08-.27c.1-.4.2-.84.29-1.29h.06Z"/><path class="cls-1" d="m218.11,319.42c-1.66,1.46-3.3,2.51-4.64,3.65-1.35,1.13-2.44,2.35-3.23,3.83-.4.73-.72,1.52-1.01,2.33l-.37,1.26c-.04.13-.04.15-.05.21-.01.04-.02.15-.03.22-.02.17-.03.37-.04.58-.03.83.02,1.76.11,2.65.05.45.11.89.18,1.31.07.4.18.84.25,1.04l.02.06.06.13.11.27.22.53c.16.36.27.71.41,1.06.27.7.49,1.4.73,2.1.45,1.4.85,2.8,1.19,4.2.61,2.51,1.12,5.02,1.56,7.55.44,2.51.84,5.1,1.07,7.63,0,.22.11.45.28.6.2.19.63.44,1.1.61.96.36,2.11.57,3.28.72,1.17.15,2.38.24,3.62.32l1.89.14c.33.03.66.07,1.02.13l.9.15c.52.08,1.03.15,1.41.14.38-.02.6-.07.92-.27.31-.19.66-.52,1.01-.89l1.18-1.24c1.64-1.66,3.46-3.11,5.42-4.34,2.5-1.57,5.26-2.88,8.28-3.41.74-.16,1.52-.17,2.28-.23.38,0,.77.02,1.16.03.39,0,.77.04,1.15.11.38.07.77.11,1.14.21l1.1.41c.36.12.71.31,1.05.49.33.19.69.32,1,.56,1.55,1.14,1.06,1.21-.46.98-.77-.08-1.83-.12-3.02.1-1.19.21-2.45.32-3.85.68-1.23.29-2.46.64-3.68,1.1-1.22.44-2.39,1.06-3.54,1.71-2.27,1.35-4.36,3.05-6.14,4.98-.51.54-1.09,1.24-2.09,1.88-.49.32-1.14.61-1.79.74-.65.13-1.23.13-1.71.1-.96-.07-1.7-.24-2.36-.35-.52-.09-1.26-.15-1.96-.21-1.43-.12-2.94-.23-4.47-.46-1.54-.25-3.12-.51-4.84-1.38-.55-.3-1.18-.68-1.76-1.37-.55-.64-.89-1.45-.96-2.31-.25-2.99-.78-5.94-1.4-8.94-.62-2.99-1.35-5.97-2.18-8.85-.27-.92-.55-1.83-.86-2.71-.16-.44-.31-.89-.49-1.3l-.26-.64c-.15-.35-.24-.66-.32-.95-.28-1.13-.4-2.14-.49-3.18-.08-1.05-.13-2.06-.05-3.22l.05-.46c.03-.16.06-.38.1-.5l.21-.76c.14-.51.28-1.02.48-1.52.36-1,.82-1.99,1.38-2.92,1.11-1.87,2.64-3.47,4.24-4.75,1.96-1.59,3.95-2.85,5.29-4.52,1.35-1.59,2.09-3.84,2.93-6.11.64-1.7,1.25-3.54,2.29-5.22.52-.8.98-1.64,1.54-2.4.58-.75,1.11-1.54,1.72-2.26,2.41-2.91,5.21-5.44,8.18-7.66,2.33-1.7,4.69-3.32,7.21-4.67,2.5-1.37,5.08-2.64,7.83-3.51,1.19-.44,2.4-.75,3.64-1.08,1.16-.25,2.15-.39,2.97-.49.84-.03,1.51-.08,2.07,0,.56.08,1.01.23,1.37.37.36.1.65.23.9.37.23.12.53.24.66.34.22.18-.14.37-.95.64-.81.2-2.02.87-3.59,1.16-4.64,1.28-9.19,3.22-13.52,5.65-4.33,2.43-8.39,5.48-11.8,9.06-1.26,1.34-2.41,2.76-3.47,4.23-.55.72-.97,1.52-1.47,2.27-.27.4-.4.7-.6,1.1-.18.38-.36.79-.53,1.21-.69,1.71-1.3,3.6-2.14,5.57-.43.97-.93,2.05-1.66,3.03-.68,1-1.51,1.86-2.33,2.61l-.07-.06Z"/><path class="cls-1" d="m280.29,234.74c15.89-19.06,1.42-44.77-1.76-45.12l8.21-7.73s5.41,11.32,6.29,19.91c.88,8.58.26,17.91-2.46,24.11-2.72,6.21-7.95,8.83-7.95,8.83h-2.34Z"/><path class="cls-1" d="m247.84,250.87c-22.26-2.67-25.35-25.26-25.35-25.26,0,0-13.52-2.91-13.4-.11s6.19,12.82,8.73,16.35c2.54,3.53,9.88,12.66,19.34,12.4s10.67-3.39,10.67-3.39Z"/><path class="cls-1" d="m135.62,294.34c4.21.93,8.41,1.93,12.59,2.98,1.53.38,3.07.69,4.59,1.11,5.35,1.51,10.65,3.19,15.87,5.14,2.32.84,4.65,1.76,6.91,2.76.72.34,1.46.64,2.17,1.02.71.37,1.45.7,2.11,1.2.68.44,1.33.97,1.92,1.55.3.29.55.64.82.96.13.17.27.32.39.49l.33.55c.53.93.2.9-.66.58-.22-.08-.45-.18-.74-.27-.31-.08-.64-.17-.98-.25-.33-.1-.73-.16-1.11-.27-.38-.12-.72-.29-1.12-.44-1.39-.55-2.65-1.35-4.09-1.9-.69-.31-1.41-.6-2.13-.88-.71-.29-1.44-.57-2.17-.84-2.88-1.16-5.84-2.26-8.83-3.37-3.58-1.32-7.47-2.16-11.26-3.12-4.16-1.05-8.35-2.09-12.55-3.02-2.59-.58-5.18-1.14-7.78-1.66-3.94-.78-7.9-1.56-11.85-2.14-3.07-.45-6.11-.66-9.16-.93-.67-.06-1.33-.08-2.01-.16-2.5-.3-3.25-.68-3.69-1.58-.1-.21-.24-.42-.29-.62-.17-.67.92-1.11,2.81-1.15,5.56.03,11.33.83,17.1,1.76,4.28.7,8.56,1.54,12.82,2.41v.09Z"/><path class="cls-1" d="m394.95,269.07l-2.1,1.1-2.06,1.18c-1.39.77-2.72,1.63-4.08,2.47-.99.6-1.88,1.37-2.85,2-3.41,2.28-6.78,4.66-9.99,7.25-1.45,1.12-2.79,2.39-4.12,3.62l-2.5,2.46-.64.6-.69.55-.71.52c-.25.17-.56.26-.83.4-.72.3-.87.02-.86-.86-.05-.93.12-2.41,1.05-3.43,3.41-3.45,7.08-6.64,11.18-9.35,2.43-1.64,4.75-3.61,7.21-5.31,1.33-.96,2.75-1.81,4.13-2.71,1.4-.87,2.83-1.7,4.25-2.53,1.79-.97,3.56-1.95,5.39-2.83,2.74-1.4,5.62-2.53,8.46-3.67,2.22-.85,4.38-1.78,6.68-2.45.51-.15.98-.37,1.51-.45,1.95-.32,2.63-.04,3.14.69.12.17.26.33.34.5.25.57-.44,1.25-1.7,1.82-3.78,1.43-7.67,2.78-11.58,4.4-2.87,1.26-5.77,2.55-8.55,4.1l-.05-.08Z"/><path class="cls-1" d="m370.1,228.62c-3.96,2.79-7.85,5.7-11.65,8.74-1.39,1.11-2.69,2.32-4.05,3.45-4.8,4.01-9.51,8.16-13.96,12.56-1.97,1.96-3.86,4.02-5.64,6.12-2.31,2.69-4.27,5.62-6.87,8.06-.91.71-.98.5-.96-.62-.08-1.19.31-3.12,1.51-4.85,4.52-5.9,9.66-11.16,15.23-16.04,3.33-2.9,6.6-6.14,10.03-9.07,3.78-3.22,7.66-6.32,11.68-9.25,2.48-1.79,4.97-3.56,7.53-5.25,3.85-2.57,7.85-4.96,11.89-7.19,3.14-1.72,6.21-3.49,9.54-4.86.74-.28,1.44-.62,2.21-.86,2.84-.91,3.9-.67,4.66-.11.18.13.39.25.5.39.37.44-.65,1.25-2.52,2.1-5.56,2.5-11.29,5.37-16.88,8.73-4.15,2.48-8.24,5.16-12.19,8.03l-.06-.07Z"/><path class="cls-1" d="m386.38,181.58c1.93-1.76,3.89-3.46,5.89-5.11.72-.61,1.39-1.28,2.13-1.86,2.59-2.09,5.29-4.02,7.94-6,1.17-.88,2.31-1.82,3.42-2.75.74-.57,1.45-1.17,2.2-1.73.72-.59,1.58-1.02,2.4-1.49.53-.27.66,0,.53.63-.06.31-.18.72-.36,1.16-.09.22-.2.46-.32.69l-.2.35c-.09.1-.17.2-.27.3l-2.05,2.01c-.7.64-1.46,1.23-2.2,1.83-1.49,1.19-3.01,2.34-4.57,3.45-1.87,1.33-3.59,2.97-5.37,4.49-1.95,1.67-3.89,3.34-5.77,5.09l-1.73,1.62-1.67,1.67c-1.66,1.71-3.31,3.45-4.79,5.3-.55.73-1.05,1.49-1.55,2.25-.5.75-.9,1.57-1.39,2.32-.21.34-.4.67-.6,1.02-.35.65-.78.96-1.07,1.19-.31.21-.59.29-.92.29-.15,0-.3.03-.43,0-.41-.06-.43-.77-.16-1.94.19-.87.6-1.63.97-2.42.39-.78.81-1.57,1.3-2.3.48-.74.98-1.48,1.49-2.21.55-.7,1.09-1.41,1.64-2.11,1.65-2.08,3.58-3.91,5.46-5.75l.06.05Z"/><path class="cls-1" d="m412.64,227.57c2.92,7.16,4.9,14.61,6.15,22.18.45,2.76.89,5.53,1.08,8.33.32,4.93.24,9.92-.57,14.87-.41,2.47-1.03,4.93-1.98,7.31-.93,2.38-2.25,4.68-4.11,6.6-1.65,1.69-3.78,3-6.09,3.64-.58.12-1.16.3-1.75.35l-.88.11c-.3.03-.64,0-.96,0-1.28-.05-2.46-.35-3.55-.77-1.41-.52-2.71-1.22-3.92-2.01-1.22-.79-2.38-1.66-3.39-2.69-1.03-1.01-1.97-2.11-2.76-3.32-.76-1.23-1.39-2.55-1.87-3.9-.49-1.76-.09-1.56.97-.5.28.26.63.55,1.01.88.39.32.85.67,1.34,1.03.5.35,1.04.72,1.6,1.11.51.43,1.08.85,1.61,1.33.5.4.99.81,1.5,1.18.48.41.99.78,1.5,1.15,1.03.7,2.09,1.36,3.17,1.82,1.07.46,2.16.76,3.02.77h.32s.42-.04.42-.04c.28-.04.57-.05.83-.12.27-.06.54-.12.81-.17l.78-.25c2.04-.74,3.81-2.21,5.14-4.26.68-1,1.27-2.12,1.76-3.31.51-1.18.92-2.43,1.27-3.71.84-3.07,1.17-6.4,1.21-9.75.03-3.36-.21-6.75-.6-10.1-.83-7.37-2.5-14.69-4.97-21.71-1.52-4.32-3.35-8.54-5.63-12.49-.86-1.5-1.78-2.95-2.79-4.34-1-1.4-2.07-2.74-3.24-3.96-2.33-2.44-5.08-4.54-8.18-5.44-1.2-.35-2.43-.48-3.63-.44-1.19.02-2.45.35-3.48.75-1.9.82-3.42,2.93-4.52,5.12-.51.97-.86,2-1.25,3.04-1.25,3.94-1.66,5.16-2.68,6.02-.21.2-.41.48-.57.6-.29.21-.53-.13-.84-1.01-.3-.87-.39-2.27-.18-4,.46-2.54,1.23-5.07,2.53-7.49.64-1.22,1.44-2.4,2.47-3.52,1.03-1.1,2.33-2.18,4.11-2.77,1.43-.43,2.93-.73,4.47-.75,1.53,0,3.07.17,4.52.6,2.91.84,5.47,2.39,7.61,4.2,3.22,2.69,5.7,5.93,7.84,9.28,2.12,3.37,3.87,6.9,5.4,10.49l-.09.05Z"/><path class="cls-1" d="m385.56,191.6c-2.56,1.48-4.86,3.45-6.81,5.73-.37.41-.67.86-.97,1.32-.31.45-.61.91-.9,1.37-1.1,1.59-2,3.31-2.71,5.12-.38.9-.64,1.84-.94,2.77-.14.47-.22.95-.33,1.43-.12.48-.2.96-.25,1.45l-.15,1.31v1.32c-.04.88.12,1.75.2,2.62.06.56.22,1.1.32,1.65l.17.82c.08.27.16.54.22.81.13.55.22,1.11.34,1.66.16.54.17,1.13.05,1.79-.1.42-.21.64-.34.68-.14.04-.34-.07-.78-.24-.42-.18-1.1-.41-1.64-.82-.55-.41-.97-.98-1.23-1.67-.91-2.45-1.26-5.1-1.25-7.74.02-2.64.45-5.29,1.38-7.76,1.14-2.93,2.34-5.94,4.17-8.55,2.01-2.84,4.47-5.34,7.28-7.34,1.71-1.26,3.58-2.28,5.49-3.17,2.92-1.32,6.09-2.12,9.28-2.32,2.47-.18,5-.17,7.47.51.53.17,1.1.25,1.61.5.48.22.87.42,1.19.61.31.19.49.49.64.7.14.23.23.44.27.66.03.24,0,.49-.02.72-.03.21-.02.41-.05.55-.05.38-1.28.79-2.5.49-3.58-1.09-7.35-1.14-11.1-.24-1.39.33-2.76.8-4.12,1.31-1.35.56-2.68,1.21-3.92,2.01l-.06-.09Z"/><path class="cls-1" d="m118.1,209.27c-2-.92-4.05-1.79-6.13-2.61-.76-.3-1.55-.49-2.31-.8-2.66-1.09-5.34-2.16-8.07-3.1-1.2-.44-2.44-.81-3.66-1.14-1.58-.41-3.14-.91-4.65-1.58-.47-.22-.33-.52.18-.8.51-.27,1.41-.61,2.37-.54,3.41.25,6.68,1.11,9.82,2.45,1.88.8,3.95,1.26,5.9,1.96,2.14.78,4.27,1.62,6.39,2.52,1.3.56,2.59,1.13,3.88,1.74,1.95.91,3.84,1.96,5.71,3.02,1.44.83,2.91,1.6,4.29,2.56.31.2.62.4.9.64.56.41.77.86.9,1.19.12.34.09.63-.03.97-.06.15-.1.32-.17.45-.24.43-.95.39-1.86.02-1.31-.6-2.5-1.32-3.77-1.98-.63-.33-1.27-.66-1.91-.99-.63-.35-1.25-.71-1.9-1.04-1.91-1.01-3.87-2-5.91-2.86l.03-.08Z"/><path class="cls-1" d="m83.38,324.17l-6.67-2.77c-.81-.33-1.65-.57-2.46-.9-2.84-1.18-5.66-2.44-8.55-3.44-1.27-.49-2.58-.86-3.88-1.23-.84-.21-1.67-.43-2.5-.68-.83-.25-1.67-.47-2.5-.75-.52-.17-.43-.34.07-.52.49-.17,1.4-.44,2.45-.44,3.69.08,7.25.94,10.61,2.31,2.02.81,4.21,1.33,6.28,2.09l6.8,2.54c1.39.52,2.78,1.05,4.18,1.53,2.11.75,4.22,1.54,6.37,2.11,1.67.42,3.35.66,5.01.92.37.06.73.1,1.09.19,1.34.32,1.73.64,1.92,1.4.04.17.11.35.13.51.06.55-.58.91-1.68,1.01l-1.23.09c-.41,0-.81-.03-1.22-.05-.82-.05-1.65-.12-2.46-.25-1.63-.26-3.23-.71-4.82-1.15-1.17-.36-2.35-.72-3.5-1.12l-3.43-1.3.03-.08Z"/><path class="cls-1" d="m264.56,306.29c.43-.15.91-.22,1.33-.42l.15,2.58c-.14-.21-.35-.38-.59-.55-.24-.15-.51-.21-.79-.33-.97-.43-2.19-.64-3.37-.5-.54.02-1.05.19-1.53.38-.62.27-1.15.64-1.74,1-.19.11-.39-.07-.48-.41-.09-.34-.07-.91.27-1.3,1.22-1.29,2.96-2.15,4.72-1.96,1.03.08,2.11,0,3.19.31.7.22,1.38.56,2.02,1.01l1.25.87-1.14,1.03c-.37.33-.76.63-1.17.88-.65.36-1.35.58-2.03.77-1.04.27-2.11.34-3.15.37-.81,0-1.65.12-2.51-.03-.18-.05-.38-.05-.55-.14-.17-.07-.3-.15-.4-.23-.1-.09-.15-.22-.19-.33-.07-.24-.04-.49.06-.82.05-.15.08-.3.14-.44.19-.44.62-.75,1.07-.95.31-.07.59-.15.87-.23.26-.04.52-.08.78-.11.51-.06,1.01-.15,1.52-.15.76-.03,1.53-.13,2.22-.38l.04.07Z"/><path class="cls-1" d="m250.44,282.14c4.17-1.8,8.63-3.16,13.27-3.66,4.65-.49,9.34-.06,13.79,1.11,3.25.84,6.43,1.99,9.36,3.6,1.3.69,2.54,1.49,3.78,2.35,1.21.88,2.34,1.81,3.43,2.76,2.16,1.91,4.13,3.92,6.16,5.74,2.02,1.83,4.13,3.47,6.44,4.68,2.3,1.2,4.89,1.97,7.57,2.61,2.38.58,4.87,1.04,7.35,1.78,2.47.72,4.97,1.74,7.13,3.28,2.74,1.93,5.14,4.35,6.96,7.16.92,1.4,1.68,2.91,2.25,4.48.29.79.52,1.59.73,2.39.16.82.27,1.65.27,2.48-.06,1.05-.18,1.5-.32,1.49-.16,0-.38-.48-.88-1.22-1.08-1.49-2.7-3.97-4.54-6.71-1.61-2.46-3.69-4.6-6.06-6.29-1.19-.82-2.37-1.5-3.68-2.1-1.31-.58-2.71-1.05-4.19-1.45-2.94-.81-6.19-1.36-9.5-2.41-1.65-.53-3.3-1.15-4.89-2.02-1.58-.85-3.03-1.86-4.38-2.94-3.22-2.59-6-5.5-8.96-8.01-1.48-1.26-2.99-2.4-4.6-3.36-1.64-.98-3.34-1.85-5.09-2.58-3.84-1.63-7.96-2.64-12.13-2.89-4.17-.26-8.34.35-12.4,1.58-5,1.51-9.76,3.92-14.3,6.69-3.48,2.14-6.97,4.24-10.18,6.64-3.19,2.4-6.15,5.13-8.2,8.4-1.61,2.56-2.74,5.47-4.32,8.31-.79,1.42-1.7,2.83-2.86,4.11-.57.63-1.22,1.24-1.9,1.76-.66.52-1.33.99-1.98,1.44-1.15.79-2.22,1.55-3.25,2.32-1.9,1.46-2.84,2.39-3.45,3.13-.64.72-1.07,1.24-1.47,1.75-.17.23-.32.57-.44.73-.21.27-.45-.08-.78-1.17-.05-.27-.1-.6-.12-.97,0-.36.06-.76.12-1.22.19-.87.64-1.84,1.3-2.72.95-1.36,2.16-2.36,3.33-3.28,1.18-.92,2.37-1.74,3.44-2.55,1.1-.82,1.89-1.56,2.67-2.52.77-.95,1.45-2.03,2.09-3.22,1.3-2.37,2.43-5.11,4.11-7.86,1.72-2.81,3.93-5.19,6.28-7.28,3.51-3.09,7.34-5.56,11.09-7.9,3.71-2.36,7.69-4.7,11.89-6.55l.05.09Z"/><path class="cls-1" d="m318.71,349.77c1.11-.2,2.21-.5,3.27-.95.38-.17.72-.42,1.09-.61,1.31-.62,2.74-1.58,4.44-2.27.76-.31,1.55-.61,2.39-.79.54-.11,1.12-.11,1.69,0,.56.16,1.1.5,1.46.99.22.32-.01.52-.43.82-.43.3-.98.89-1.3,1.16-.28.11-.55.22-.83.33-.29.04-.59.1-.91.18-.61.16-1.37.46-2.21.79-1.01.39-1.92,1.27-3.05,1.86-1.23.64-2.52,1.11-3.83,1.46-.81.2-1.63.37-2.45.5-1.24.2-2.5.24-3.73.27-.96.04-1.91.17-2.89.17-.21,0-.43,0-.64-.04-.79-.15-.99-.44-.98-1.19,0-.17,0-.34.01-.51.06-.56.46-.97,1-1.09,1.59-.43,3.05-.45,4.55-.67,1.11-.1,2.23-.21,3.33-.49l.02.08Z"/><path class="cls-1" d="m280.14,378.3c3.11,1.14,6.46,2.12,9.75,3.37,1.21.45,2.44.86,3.63,1.41,2.03.97,4.01,1.99,5.98,3.02,1.97,1.01,3.92,2.11,5.86,2.88.86.33,1.73.58,2.62.69.43.06.94.09,1.32.09.29-.02.82-.13,1.26-.23,2.37-.57,4.76-1.32,7.19-1.76.72-.18.77.03.3.65-.23.3-.59.7-1.06,1.13-.23.21-.48.45-.77.65-.29.19-.61.36-.95.5-1.22.49-2.41,1.03-3.71,1.37-.32.09-.65.18-.99.26-.18.04-.33.08-.55.12l-.3.05c-.15.02-.3.03-.45.04-.75,0-1.46-.01-2.2-.12-1.49-.18-2.86-.73-4.08-1.29-1.23-.57-2.36-1.19-3.5-1.82-2.68-1.49-5.69-2.73-8.49-3.88-3.13-1.23-6.44-2.18-9.76-3.28-2.05-.69-4.12-1.4-6.13-2.48-1.49-.81-3.1-1.94-3.9-3.8l-.27-.7c-.06-.23-.09-.47-.13-.7-.03-.24-.09-.47-.09-.71l.03-.73c-.02-.49.21-.97.32-1.44.23-.43.41-.91.73-1.27.91-1.21,2.15-1.98,3.42-2.51,1.28-.52,2.63-.76,4-.8.6-.03,1.2,0,1.81.08,1.14.16,1.81.59,2.25.91.44.32.57.73.62,1.1.02.17.08.34.07.47-.01.21-.25.29-.67.37-.22.06-.44.04-.7.02-.27,0-.57,0-.9-.04-.98-.02-1.93-.08-2.89.06-.95.15-1.87.4-2.68.77-.81.37-1.45.9-1.79,1.42-.34.52-.41,1-.32,1.66.03.12.05.25.06.38.01.13.09.2.12.3.03.2.21.39.33.59.12.21.39.39.56.61.26.19.52.39.8.59,1.18.76,2.7,1.39,4.27,1.93l-.02.08Z"/><path class="cls-1" d="m282.57,367.16c5.08,2.09,10.44,3.92,15.66,6.02,1.9.76,3.84,1.41,5.74,2.16,6.68,2.64,13.4,5.38,20.19,7.39.75.2,1.5.39,2.21.5l.49.06c.18.01.38,0,.57.01.39,0,.77.03,1.16,0,1.54-.03,3.06-.2,4.53-.54,1.89-.43,3.7-1.18,5.57-1.93.94-.36,1.89-.74,2.85-1.09.25-.08.48-.19.74-.24l.79-.12,1.55-.27c1.3-.18,1.16-.05.33.76-.41.41-.99,1.02-1.63,1.85-.69.72-1.61,1.29-2.67,1.85-.94.48-1.92.92-2.96,1.29-1.03.39-2.1.73-3.21,1-2.21.55-4.5.76-6.72.71l-.83-.02c-.28,0-.67-.06-.99-.1-.61-.1-1.19-.22-1.72-.36-1.09-.26-2.11-.58-3.13-.9-2.03-.65-4.02-1.37-5.99-2.14-4.71-1.84-9.71-3.38-14.55-5.14l-15.89-5.9c-3.27-1.26-6.55-2.5-9.74-4.29-1.2-.7-2.4-1.49-3.44-2.65-.51-.59-.98-1.3-1.23-2.16-.06-.21-.1-.44-.14-.65-.02-.22-.03-.45-.04-.67.03-.37.02-.74.09-1.12.08-.75.3-1.5.61-2.22.33-.71.8-1.36,1.35-1.92,1.12-1.12,2.58-1.73,3.99-2.02,2.21-.46,4.38-.28,6.45.13,2.07.43,4.05,1.13,5.94,2.02.83.39,1.64.79,2.44,1.25,2.91,1.82,3.59,2.73,3.69,3.76.02.24.08.5.05.69-.12.65-1.45.16-3.49-.99-3.03-1.67-6.28-3.14-9.6-3.75-1.64-.28-3.32-.4-4.72-.03-.69.21-1.28.52-1.71.89-.43.37-.7.8-.88,1.3-.12.37-.28.76-.33,1.23-.05.22-.05.48-.06.73-.02.17.01.11,0,.18,0,.04.02.07.02.11.04.31.68,1.11,1.65,1.76,1.94,1.35,4.51,2.46,7.06,3.48l-.03.09Z"/><path class="cls-1" d="m219.33,363.71c.77.12,1.67.16,2.63.17.35,0,.71-.07,1.08-.03,1.32.14,2.61.44,3.84.8.54.18,1.09.32,1.62.48.69.19,1.4.37,1.95.89.17.16-.03.56-.37.94-.34.37-.81.76-1.18.73-.63-.06-1.26-.12-1.89-.18-.62-.03-1.21-.29-1.83-.48-.75-.27-1.54-.1-2.33-.07-.89.02-1.85.02-2.87-.02-.62-.03-1.27-.1-1.91-.21-1-.17-1.98-.59-2.84-1.14-.67-.42-1.43-.84-1.97-1.61-.1-.18-.23-.34-.3-.54-.25-.76-.01-1.08.68-1.26.16-.04.31-.09.47-.12.54-.07,1,.09,1.28.23.2.12.4.19.59.24.16.07.32.14.47.21.32.15.67.26,1.01.43.26.12.51.21.81.29.32.08.68.14,1.07.17v.08Z"/><path class="cls-1" d="m239.9,402.32h.59c.18-.02.3-.06.45-.07l.23-.02.27-.09.55-.18c.38-.17.77-.35,1.16-.54l1.18-.68c.57-.38,1.08-.8,1.65-1.2,2.02-1.36,3.97-2.91,5.94-4.45.87-.69,1.68-1.46,2.48-2.23,1.11-.89,2.14-1.92,3.64-2.44.46-.17.51.08.42.59-.05.26-.11.57-.2.96-.08.39-.21.76-.46,1.09l-1.29,1.74c-.46.56-1,1.03-1.52,1.54-1.06.99-2.16,1.97-3.4,2.8-1.48,1-2.77,2.34-4.26,3.43-.82.6-1.68,1.17-2.59,1.7-.95.5-1.87,1.02-3.1,1.28-1.44.3-2.72.2-4.02.06-1.95-.23-3.75-.85-5.53-1.33-1.38-.38-2.77-.62-4.13-.92-.3-.06-.6-.1-.89-.2-.53-.18-.87-.34-1.07-.58-.19-.28-.26-.58-.28-.97,0-.18-.04-.35-.03-.51.02-.27.16-.47.44-.65.27-.18.68-.38,1.12-.34,2.66.04,5.16.88,7.57,1.41,1.79.38,3.5.77,5.09.75v.09Z"/><path class="cls-1" d="m225.13,399.94c1.4-.25,3.03-.89,4.56-1.54,1.56-.67,3.1-1.44,4.64-2.24,3.07-1.61,6.07-3.4,9.02-5.27,2.14-1.37,4.24-2.88,6.37-4.31,3.76-2.52,7.48-5.08,11.06-7.8,1.78-1.36,3.55-2.74,5.21-4.21,1.63-1.46,3.27-3.04,4.29-4.74.19-.35.38-.72.43-1.02.06-.3.06-.49-.06-.72-.56-1.13-1.46-2.18-2.59-2.63-1.13-.5-2.49-.52-3.84-.26-2.31.44-4.54,1.6-6.68,2.84-1.07.63-2.12,1.32-3.16,2.03-1.04.71-2.02,1.48-3.17,2.08-1.55.62-1.31.63-.75-.79.52-1.47,2.07-3.69,4.64-5.45,2.57-1.74,5.39-3.3,8.84-3.92,1.7-.28,3.7-.27,5.57.61.92.41,1.77,1.04,2.43,1.76.35.35.63.74.9,1.13.15.19.26.39.37.59.12.21.2.37.38.66.08.27.18.52.27.78.07.26.08.55.11.82.02.28-.02.56-.04.81-.04.25-.1.45-.15.68-.25.83-.6,1.5-.97,2.07-.74,1.16-1.57,2.09-2.41,2.97-1.7,1.74-3.51,3.26-5.36,4.7-5.13,3.9-10.45,7.82-15.85,11.45-5.96,3.97-12.07,7.79-18.78,10.67-1.03.44-2.11.83-3.22,1.17-.57.15-1.14.3-1.76.39-.29.06-.64.07-.97.09-.35.03-.59-.02-.88-.02l-1.7-.09-1.67-.19c-1.12-.1-2.21-.33-3.31-.49-6.63-1.22-13.06-3.14-19.35-5.2-2.45-.81-4.87-1.59-7.28-2.47-1.2-.44-2.4-.88-3.62-1.43-1.22-.53-2.52-1.37-3.49-2.47-.87-.96-1.54-2.08-1.97-3.28-.75-2.24-.74-3.73-.67-4.74.1-1.01.36-1.59.75-2.04.18-.21.36-.47.53-.59.62-.41.98,1.37,1.54,4.13.45,2.04,1.33,3.8,2.74,4.89.7.57,1.52.93,2.54,1.37,1.02.43,2.09.83,3.17,1.23,4.34,1.59,8.85,3.05,13.39,4.36,3.37.96,6.77,1.85,10.18,2.54,1.7.35,3.41.64,5.1.84.84.09,1.7.2,2.52.22l1.24.06.42-.03c.14,0,.33-.06.49-.08l.02.08Z"/><path class="cls-1" d="m70.83,281.9c.08-11.34,2.27-22.56,6.15-33.14,1.43-3.86,3.01-7.68,4.98-11.3,3.5-6.37,7.87-12.35,13.29-17.31,1.36-1.24,2.78-2.4,4.27-3.49l2.31-1.56c.79-.49,1.62-.91,2.43-1.37,3.3-1.7,6.86-2.93,10.53-3.53,6.48-1.1,13.51-.2,19.24,3.31,3.64,2.27,6.72,5.58,8.38,9.66.81,2.04,1.19,4.23,1.17,6.4,0,.54-.03,1.09-.09,1.62-.1.54-.18,1.07-.33,1.59-.25,1.05-.62,2.06-1.08,3.02-.58,1.19-1.04,1.59-1.18,1.48-.19-.13-.09-.79-.08-1.88.03-1.08-.02-2.58-.38-4.24-.29-1.65-.71-3.46-1.39-5.32-.31-.82-.64-1.62-1.05-2.38-.39-.76-.98-1.45-1.47-2.17-.23-.37-.59-.65-.87-.99-.31-.31-.58-.66-.91-.95l-1.02-.84-.51-.43-.56-.36c-2.94-1.99-6.47-3.11-10.12-3.51-3.66-.37-7.44.05-11.06,1.14-3.62,1.09-7.06,2.85-10.24,5.1-3.81,2.76-7.23,6.28-10.13,10.24-2.94,3.94-5.4,8.27-7.5,12.73-4.64,9.81-7.47,20.53-8.47,31.39-.61,6.69-.47,13.46.61,20.07.88,4.97,2.17,9.98,4.45,14.41,2.31,4.43,5.68,8.3,9.71,11.18,3.13,2.25,6.68,3.83,10.34,4.73,1.86.45,3.65.68,5.47.62,1.81-.05,3.61-.43,5.33-1.04,1.51-.55,2.93-1.25,4.31-2.13,1.27-.81,2.29-1.56,3.1-2.23.83-.66,1.51-1.19,2.07-1.63.55-.45,1.03-.78,1.44-1.06.43-.26.83-.43,1.2-.59.34-.14.73-.37.98-.43.42-.09.37.46-.09,1.66-.48,1.17-1.56,2.85-3.36,4.65-2.73,2.59-6.12,4.68-9.98,5.79-1.92.57-3.97.81-6.02.79-.51-.02-1.03-.02-1.54-.07l-1.53-.21c-1-.17-1.95-.38-2.91-.63-7.67-2.02-14.62-6.9-19.33-13.44-1.75-2.43-3.2-5.07-4.3-7.85-1.07-2.76-1.93-5.52-2.55-8.36-.63-2.83-1.11-5.68-1.38-8.55-.3-2.86-.44-5.73-.43-8.6h.1Z"/><path class="cls-1" d="m191.82,359.9c1.54,3.67,3.04,7.33,4.83,10.72.9,1.69,1.88,3.31,3.01,4.67,1.13,1.35,2.45,2.36,3.74,2.52.48.06.97.02,1.48-.11.51-.17,1.04-.36,1.55-.69,1-.62,1.83-1.4,2.5-2.4.59-.87.98-1.92,1.31-3.01.27-1.12.49-2.27.55-3.47.19-2.39,0-4.88-.33-7.34-.68-4.95-1.99-9.86-3.56-14.69-.52-1.61-1.09-3.21-1.68-4.8l-.9-2.38-.46-1.2-.23-.61-.24-.69c-.05-.21-.07-.43-.1-.64v-.5s0-.89,0-.89c.02-.58.04-1.15.06-1.73.11-2.94.44-5.86.93-8.77.26-1.45.57-2.9,1.01-4.32.2-.71.45-1.42.7-2.12.26-.7.63-1.37.97-2.03.98-1.62,1.05-1.24.9.33-.07,1.61-.09,4.38-.46,7.61-.28,2.11-.47,4.25-.58,6.39-.09,1.07-.17,2.14-.23,3.2l-.07,1.59v.76s0,.28,0,.28h0s1.86,5.07,1.86,5.07c.64,1.77,1.25,3.56,1.82,5.37,1.14,3.61,2.12,7.31,2.79,11.1.62,3.6,1.15,7.33.97,11.21-.1,1.94-.38,3.93-1.11,5.86-.71,1.93-1.98,3.8-3.73,5.07-.94.73-1.96,1.24-3.15,1.61-1.17.35-2.52.44-3.77.12-1.25-.31-2.33-.94-3.23-1.66-.9-.73-1.65-1.55-2.33-2.39-2.62-3.43-4.26-7.17-5.92-10.85l-2.92-6.83c-.97-2.29-1.91-4.58-2.81-6.89-1.37-3.5-2.66-7.04-3.85-10.61-.59-1.79-1.17-3.58-1.65-5.44-.48-1.95-.53-3.92-.55-5.8.06-5.88.61-11.56,1.5-17.27.19-1.26.39-2.49.65-3.75,1.16-4.63,2.04-6,3.07-6.72.23-.16.49-.4.68-.47.32-.12.43.31.4,1.18-.02.43-.06.98-.12,1.63-.07.65-.18,1.39-.31,2.23-.37,2.48-.75,5-1.13,7.54-.35,2.55-.66,5.13-.91,7.72-.25,2.59-.42,5.2-.44,7.76,0,1.28.05,2.54.19,3.7.12,1.03.5,2.28.88,3.53,1.16,3.73,2.53,7.48,3.93,11.2,1.42,3.73,2.93,7.38,4.53,11.08l-.08.04Z"/><path class="cls-1" d="m198.02,381.49c4.14,2.18,8.35,4.23,12.66,5.83,2.15.77,4.36,1.46,6.46,1.73,1.05.16,2.07.15,2.83,0l.26-.07c.08-.01.18-.04.32-.1l.77-.32c.52-.23,1.04-.45,1.56-.71,3.04-1.44,5.99-3.2,8.92-4.93,5.18-3.06,10.19-6.45,14.87-10.16,2.32-1.88,4.56-3.87,6.41-6.1.91-1.11,1.76-2.29,2.28-3.52.53-1.23.64-2.44.14-3.37-.41-.8-1.47-1.61-2.49-2.19-1.07-.52-2.23-.91-3.44-1.01-2.43-.27-4.93.44-7.2,1.51-1.46.72-2.86,1.59-4.19,2.59-.65.52-1.34.99-1.97,1.53l-1.89,1.66c-2.45,2.32-4.71,4.82-7.27,7.16-.87.68-1.27.96-1.31.89-.05-.07.22-.53.54-1.44.13-.47.37-.99.59-1.63.18-.67.55-1.3.94-2.03.4-.71.82-1.5,1.34-2.27.54-.76,1.21-1.5,1.91-2.25,2.54-2.63,5.38-5.11,8.83-6.86l1.29-.65c.45-.19.92-.36,1.38-.53.9-.39,1.9-.58,2.87-.83,2-.35,4.12-.41,6.19.09,2.07.5,4.02,1.54,5.57,3.06.41.5.88.91,1.16,1.54.15.3.32.59.43.91.09.32.17.65.24.98.09.33.07.64.08.96,0,.31.03.65-.04.94-.1.58-.19,1.19-.4,1.68-.74,2.08-1.89,3.67-3.07,5.15-1.2,1.47-2.51,2.78-3.87,4.01-3.25,2.94-6.73,5.64-10.35,8.17-3.62,2.52-7.35,4.92-11.19,7.07-2.12,1.18-4.25,2.31-6.49,3.33-.56.25-1.13.5-1.71.74-.25.12-.67.23-1.04.34-.39.12-.74.16-1.1.19-1.44.15-2.74-.01-3.99-.24-2.51-.47-4.83-1.26-7.12-2.1-2.28-.86-4.51-1.82-6.7-2.84-5.38-2.52-10.58-5.38-15.66-8.4-3.84-2.31-7.63-4.71-11.26-7.44-.45-.35-.9-.7-1.35-1.09-.22-.2-.44-.37-.67-.6-.22-.21-.45-.43-.68-.73-.81-1.1-1.22-2.28-1.51-3.46-.52-2.35-.53-4.66-.45-6.91.32-7,1.43-13.67,1.81-20.35.09-1.47.09-2.89.09-4.35-.04-5.4-.64-6.71-.27-8.18.03-.31-.02-.7,0-.91.04-.35.45-.12,1.3.7.18.22.45.45.63.77.16.32.34.67.52,1.07.15.4.31.84.46,1.31.12.47.26.98.36,1.52.33,1.6.4,3.21.44,4.81.03,1.6-.02,3.19-.11,4.77-.18,3.17-.53,6.32-.87,9.45-.34,3.13-.69,6.26-.79,9.31-.05,1.52-.04,3.03.11,4.43.15,1.39.49,2.7.99,3.53.02.08.14.15.08.25.13-.04.09.04.13.06.14.14.29.29.48.46.38.34.8.68,1.25,1.03.89.69,1.82,1.37,2.78,2.03,1.91,1.33,3.89,2.62,5.89,3.87,4.01,2.5,8.12,4.86,12.3,7.04l-.03.08Z"/><path class="cls-1" d="m301.31,275.95c1.3-.53,2.63-1,4-1.39.49-.15.96-.38,1.47-.49.9-.19,1.8-.33,2.71-.41.91-.07,1.83-.07,2.74-.06.8,0,1.61-.02,2.4.03.51.04,1.02.03,1.53.16.5.16.98.39,1.43.68.28.19.16.5-.17.88-.33.36-.87.95-1.39,1.16-.11.03-.23.09-.34.12l-.33.05c-.22.02-.44.07-.66.1-.44.06-.87.17-1.3.18-.87.02-1.75.03-2.68,0-1.12-.03-2.2.4-3.28.72-1.2.33-2.4.74-3.59,1.23-.73.3-1.46.62-2.17.98-1.07.56-2.2,1.07-3.19,1.77-.78.54-1.42,1.25-2.12,1.89-.15.15-.32.26-.5.36-.7.35-1.05.28-1.6-.21-.13-.11-.26-.22-.37-.33-.36-.39-.38-.96-.09-1.55l.33-.64c.11-.22.23-.43.39-.59.3-.34.61-.66.94-.97.66-.62,1.4-1.18,2.16-1.71,1.12-.81,2.38-1.45,3.66-2.04l.05.08Z"/><path class="cls-1" d="m344.71,362.27c.62-.22,1.22-.6,1.8-1.14.57-.54,1.09-1.24,1.57-2,.95-1.54,1.68-3.37,2.29-5.26,1.26-3.8,2.05-7.86,2.92-11.99.33-1.52.62-3.03,1.11-4.65.12-.4.27-.83.45-1.26l.48-1.07c.32-.71.66-1.41,1-2.1,2.41-4.86,4.99-9.53,6.47-14.51.38-1.24.65-2.5.86-3.76.06-.63.19-1.27.21-1.9l.05-.95c.02-.32-.03-.58-.04-.88,0-.28-.05-.58-.12-.9l-.17-.92-.51-1.87-.64-1.86c-.23-.62-.48-1.23-.72-1.84-1.79-4.34-4.19-8.48-6.83-12.33-1.72-2.46-3.57-4.85-5.59-7.05-1.97-2.25-3.98-4.47-6.16-6.56-1.35-1.32-1.1-1.29.44-.64.41.17.88.36,1.4.58.54.23,1.12.54,1.78.87,1.3.67,2.62,1.71,3.99,2.91,2.25,2.29,4.25,4.81,6.12,7.39,1.84,2.61,3.51,5.34,5.01,8.15,1.48,2.83,2.81,5.76,3.84,8.86.51,1.56.96,3.14,1.12,4.98.11.98,0,1.77-.04,2.62-.11.83-.18,1.67-.36,2.48-1.52,7.84-5.64,14.79-8.62,21.65-.33.78-.56,1.79-.78,2.77-.21,1-.4,2.03-.59,3.06-.37,2.07-.73,4.16-1.16,6.26-.9,4.18-1.92,8.47-4.43,12.38-.79,1.18-1.78,2.32-3.07,3.19-1.28.87-2.87,1.38-4.41,1.4-.37.05-.82-.06-1.22-.1-.43-.03-.79-.17-1.15-.3-.76-.22-1.39-.59-2.04-.95-.64-.36-1.17-.85-1.76-1.27-.52-.49-1-1.01-1.5-1.52-2.74-3.31-4.13-7.41-4.58-11.46-.05-.51-.17-1.01-.17-1.52l-.03-1.52-.03-1.52c0-.51.07-1.01.1-1.51.09-1,.13-2.01.27-3.01l.51-2.95.2-1.14.29-1.12.56-2.23c.31-1.51.86-2.93,1.3-4.39l.69-2.18.84-2.12c.55-1.38,1.09-2.76,1.64-4.15.39-1.06.49-2.13.41-3.24-.18-2.06-.74-3.46-.97-4.51-.19-1.09-.25-1.81-.18-2.45.02-.29-.02-.64.02-.83.06-.32.44-.11,1.19.52.73.63,1.87,1.72,2.59,3.63.59,1.38.91,2.97.89,4.61-.01.82-.12,1.65-.33,2.45-.12.4-.21.81-.37,1.19l-.42,1.06c-.97,2.5-2.12,4.97-2.91,7.56-1.78,5.1-2.92,10.51-2.79,15.77.05,3.9,1,7.71,2.93,10.76.98,1.49,2.23,2.77,3.57,3.66.34.16.68.42,1.01.54.31.09.68.29.89.27.14,0,.22.08.4.06.17-.01.34-.02.51-.02.32-.06.65-.11.95-.24l.04.09Z"/><path class="cls-1" d="m301.04,361.84c7.48,2.74,15.16,5.11,22.83,7.59,2.8.91,5.63,1.74,8.43,2.77l1.85.71c.29.11.65.27.89.35.2.08.41.14.65.19.94.19,2.09.1,3.23-.13,2.31-.48,4.64-1.45,6.86-2.58,2.23-1.14,4.4-2.46,6.46-3.93,1.03-.73,2.03-1.5,2.96-2.32.47-.41.92-.83,1.32-1.25.13-.12.12-.18.18-.27.04-.1.09-.11.15-.27l.36-.82c1.62-4.17,2.87-8.66,4.16-13.01.81-2.81,1.6-5.64,2.5-8.43.9-2.8,1.8-5.6,3.2-8.28,1.1-1.64,1.19-1.18,1.16.44.03.84-.05,1.95-.16,3.29-.15,1.33-.44,2.85-.9,4.46-1.6,5.72-3.32,11.44-5.16,17.17-.47,1.44-.95,2.86-1.49,4.32l-.42,1.1-.51,1.16c-.72,1.33-1.28,1.65-1.88,2.25-2.4,2.14-4.95,3.85-7.64,5.42-3.23,1.82-6.6,3.59-10.51,4.53-.99.21-2.02.36-3.11.35-.54,0-1.11-.07-1.68-.19-.28-.05-.57-.17-.86-.25l-.66-.25c-1.69-.64-3.43-1.22-5.16-1.79-7.65-2.5-15.46-4.76-23.18-7.31-4.75-1.58-9.5-3.22-14.13-5.28-1.77-.8-3.53-1.66-5.22-2.76-.84-.55-1.68-1.16-2.43-1.98-.38-.43-.72-.85-1.02-1.53-.27-.63-.35-1.34-.19-2.01.55-2.32,2.13-3.92,3.82-5.05,1.71-1.11,3.61-1.8,5.52-2.2,6.02-1.24,12.27-.14,17.59,2.81,1.16.67,2.29,1.34,3.35,2.18,1.96,1.56,3.07,2.79,3.69,3.77.61.99.77,1.7.75,2.37-.01.3.02.66-.04.88-.24.73-1.82-.49-4.28-2.65-3.66-3.21-8.17-5.5-13-6.24-1.2-.2-2.42-.26-3.63-.25-1.21,0-2.42.14-3.57.42-2.29.52-4.49,1.59-5.71,3.04-.22.28-.42.57-.59.85-.08.14-.13.29-.2.43-.06.12-.09.35-.11.33,0,0,0,0,0,0-.04-.1.05.12.21.3.33.39.89.86,1.5,1.28,1.25.86,2.74,1.64,4.26,2.36,3.06,1.44,6.32,2.67,9.59,3.84l-.02.09Z"/><path class="cls-1" d="m441.57,287.09c1.67-1.33,3.35-2.66,5.04-3.97.62-.48,1.18-1.03,1.81-1.49,2.23-1.64,4.51-3.21,6.84-4.74,1.04-.67,2.04-1.42,3.11-2.05.68-.42,1.38-.84,2.14-1.18.76-.36,1.65-.51,2.59-.43.62.09.43.53.11,1.08-.18.31-.36.63-.53.93-.1.18-.21.34-.33.49l-.19.24c-.07.06-.15.11-.23.16-1.2.67-2.36,1.65-3.64,2.45-1.28.82-2.59,1.66-3.94,2.48-1.62.98-3.04,2.36-4.54,3.57l-4.99,4.02c-1.02.83-2.04,1.66-3.05,2.52-1.53,1.28-3.07,2.58-4.54,3.9-1.14,1.03-2.15,2.18-3.24,3.26-.24.24-.47.47-.73.69-.98.79-1.43.89-2.06.57-.15-.07-.3-.13-.43-.22-.41-.29-.31-.96.22-1.74.77-1.18,1.67-2.26,2.63-3.31.97-1.04,1.93-2.12,3.02-3.06,1.59-1.43,3.25-2.81,4.88-4.21l.06.06Z"/><path class="cls-1" d="m257.95,270.48c.4-4.8.9-9.59,1.74-14.34.33-1.73.47-3.48.9-5.19l1.06-4.52,1.26-4.47c.38-1.5.95-2.95,1.42-4.42l.73-2.2.86-2.16c.52-1.27.95-2.57,1.49-3.84.53-1.26,1.06-2.53,1.59-3.78.3-.82.76-1.58,1.16-2.36l1.25-2.32c.21-.38.42-.77.67-1.13l.8-1.05c.54-.69,1.08-1.38,1.63-2.07.7-.84.8-.59.68.4-.06.5-.17,1.19-.31,2-.07.4-.16.84-.26,1.28-.05.23-.12.44-.17.68-.09.21-.19.43-.27.66-.62,1.62-1.22,3.23-1.87,4.82-.62,1.6-1.25,3.2-1.9,4.79-1.15,3.26-2.3,6.52-3.47,9.8-.69,1.98-1.15,4.07-1.65,6.15-.39,2.11-.78,4.24-1.17,6.35-.74,4.65-1.53,9.32-1.93,14.04-.12,1.45-.3,2.9-.37,4.36l-.21,4.37c-.08,2.21-.06,4.42-.08,6.63.06,2.21.14,4.42.3,6.6.17,1.7.39,3.37.63,5.04.27,1.66.62,3.3.9,4.96.14.73.28,1.44.43,2.17.23,1.36.33,2.26.23,2.93-.13.67-.38,1.1-.75,1.48-.17.17-.33.39-.5.5-.29.19-.6.03-.98-.41-.37-.45-.84-1.18-1.12-2.19-1.87-5.93-2.65-12.45-2.94-18.97-.08-1.21-.11-2.43-.11-3.64l-.02-3.65c.05-2.43.15-4.87.25-7.3h.1Z"/><path class="cls-1" d="m253.77,247.11c-.96-.96-1.98-1.9-3.08-2.72-.39-.32-.85-.52-1.26-.81-1.45-1.01-2.94-2.05-4.58-2.79-.36-.19-.74-.31-1.11-.45-.37-.14-.74-.29-1.12-.41-.49-.13-.98-.27-1.46-.48-.48-.17-.97-.38-1.45-.62-.3-.16-.22-.39.11-.65.33-.25.93-.61,1.59-.67,1.16-.09,2.27.17,3.37.44,1.06.4,2.09.88,3.04,1.51,1.15.72,2.44,1.27,3.58,2.04.63.41,1.22.89,1.83,1.34.57.49,1.17.95,1.71,1.47l1.01.95.96.99c.95,1.02,1.8,2.13,2.68,3.18.33.42.68.82,1.04,1.21.35.4.69.81,1.02,1.23.14.19.3.36.41.57.45.76.38,1.12-.02,1.55-.09.1-.18.21-.27.29-.33.27-.83.16-1.33-.24-1.39-1.23-2.51-2.66-3.8-3.98-.46-.51-.96-.97-1.42-1.47-.51-.45-.96-.97-1.48-1.43l.05-.06Z"/><path class="cls-1" d="m213.24,237.69c-1.51-2.3-2.92-4.65-4.15-7.15l-.46-.96c-.27-.55-.49-1.1-.81-1.66-.57-1.11-.89-2.3-.86-3.19,0-.46.1-.83.23-1.19.07-.18.15-.34.27-.52.11-.18.34-.38.46-.43l2.49-.32,2.39.52,1.82.3c.5.09,1,.12,1.5.18,1,.12,2.01.16,3.02.25,3.55.27,7.17,0,11.05.05,3.88.06,7.96.9,11.41,2.69,3.11,1.49,6.09,3.52,8.33,6.25,1.44,1.74,2.58,3.77,3.19,5.95.62,2.17.85,4.44.39,6.61-.23.67-.39.95-.5.93-.12-.02-.24-.36-.56-.91-.3-.55-.68-1.3-1.11-2.16-.24-.42-.41-.88-.59-1.36-.22-.47-.38-.97-.56-1.47-.66-1.79-1.53-3.44-2.68-4.89-1.15-1.45-2.58-2.69-4.2-3.72-1.61-1.02-3.41-1.89-5.26-2.55-1.83-.7-3.7-1.22-5.69-1.49-2.38-.33-4.96-.18-7.66-.06-2.69.12-5.49.14-8.22-.16-1.7-.18-4.09-.6-4.21-.68l-.57-.15c-.09-.01-.2-.09-.29-.03-.07.07-.06.18-.05.26.04.37.18.73.33,1.11l.12.29.27.59c.21.44.43.89.65,1.33.45.88.93,1.75,1.43,2.62,1.76,3.04,3.78,5.95,6.03,8.65,1.7,2.04,3.54,3.99,5.54,5.71,2.01,1.71,4.19,3.21,6.56,4.15,3.65,1.51,7.74,1.16,11.35-.08.8-.27,1.55-.64,2.32-.99,2.78-1.44,3.64-1.92,4.77-1.67.26.05.56.07.77.16.36.15.36.55.03,1.18-.33.63-1.04,1.44-2.14,2.25-3.31,2.31-7.45,3.68-11.79,3.65-1.09,0-2.18-.12-3.28-.31-1.11-.21-2.18-.54-3.2-.94-2.05-.81-3.91-1.91-5.62-3.15-5.05-3.73-8.93-8.47-12.32-13.43l.07-.06Z"/><path class="cls-1" d="m289.72,196.51c-.6-2.4-1.32-4.78-2.12-7.13l-1.04-2.9-.12-.37-.06-.19s-.04-.2-.07-.11c-.1.16-.23.31-.38.47l-.77.85c-.37.41-.77.78-1.15,1.17-1.93,1.91-3.88,3.69-5.89,5.39-3.55,2.98-7.08,5.87-10.36,9.02-3.25,3.14-6.27,6.55-8.31,10.47-1.85,3.45-2.5,7.46-1.67,11.17.51,2.39,1.55,4.68,3.02,6.64.74.97,1.56,1.9,2.45,2.73.45.42.93.79,1.43,1.14.5.34.98.74,1.54,1.02,1.38.7,1.26.75-.24.78-.73-.02-1.88-.05-3.09-.59-.6-.25-1.25-.58-1.88-1-.32-.21-.63-.44-.95-.69-.3-.26-.58-.55-.87-.86-.99-1.08-1.84-2.28-2.57-3.57-.37-.64-.68-1.32-.94-2l-.42-1.02c-.12-.35-.21-.71-.32-1.06-.83-2.86-.85-5.98-.2-8.87.65-2.9,1.96-5.54,3.5-7.91,1.55-2.38,3.37-4.5,5.31-6.46,4.62-4.7,9.75-9.08,14.62-13.41,1.37-1.22,2.72-2.45,3.96-3.74.32-.32.61-.65.91-.97l.23-.24.16-.18c.06-.07.12-.15.18-.23l.7-.94c.23-.33.47-.6.69-.97l.66-1.08c.46-.74.83-1.39,1.24-2.07.07.1.14.1.21.28l.21.49.41.98.81,1.95.77,1.91.62,1.62c.61,1.67,1.19,3.36,1.71,5.06,1.33,4.31,2.32,8.73,2.91,13.22.42,3.4.56,6.87.25,10.32-.34,3.44-1.08,6.88-2.5,10.06-1.09,2.47-2.53,4.79-4.33,6.81-.46.49-.94.97-1.41,1.45-.48.48-1.01.89-1.52,1.33-1.02.88-2.19,1.65-3.4,2.3-1.07.57-2.16,1.08-3.32,1.46-2.19.63-3.69.72-4.73.65-.52-.05-.93-.12-1.27-.25-.34-.15-.61-.33-.84-.53-.21-.18-.49-.34-.61-.49-.4-.45,1.33-1.15,4.12-1.83,2.06-.61,4.04-1.4,5.84-2.51.9-.55,1.74-1.19,2.56-1.91.42-.34.83-.7,1.2-1.09.37-.4.79-.74,1.12-1.17,2.9-3.22,4.66-7.39,5.42-11.83.59-3.31.62-6.76.34-10.22-.29-3.46-.92-6.93-1.83-10.33l.08-.03Z"/><path class="cls-1" d="m155.87,250.99c-5.5-2.56-10.97-5.17-16.43-7.79l-8.18-3.92-2.05-.97c-.67-.3-1.41-.69-1.97-.88l-.9-.35-.93-.21-.46-.11-.47-.03-.94-.08c-1.84-.01-3.67.57-5.32,1.58-1.65,1.01-3.11,2.4-4.42,3.95-2.3,2.76-4.02,6.1-5.24,9.62-1.25,3.52-2.1,7.28-2.78,11.03-1.32,7.53-1.87,15.26-1.4,22.89.22,3.38.69,6.76,1.5,10.02.4,1.63.89,3.23,1.52,4.75.63,1.52,1.36,3,2.29,4.29.28.43.63.8.94,1.21.35.36.69.74,1.06,1.07.39.3.74.67,1.17.91l.61.41.6.27c1.65.67,3.77.54,5.73.09.49-.13.99-.27,1.48-.42.48-.19.97-.34,1.44-.56.95-.4,1.89-.85,2.77-1.4.44-.28.89-.54,1.29-.87.42-.3.83-.62,1.21-.98.2-.17.37-.36.59-.51l.55-.54c.39-.35.71-.76,1.04-1.17.78-1.03,1.12-1.52,1.26-1.42.11.09.05.78-.33,1.95-.38,1.16-1.14,2.83-2.62,4.43-.36.41-.76.82-1.21,1.19-.22.19-.45.39-.68.59-.25.18-.5.36-.75.55-.5.39-1.07.7-1.65,1.04-.58.33-1.24.56-1.88.83-2.35.83-4.9,1.32-7.69.91-1.38-.23-2.94-.93-3.95-1.69-.55-.38-1.05-.82-1.55-1.24-.45-.47-.95-.91-1.34-1.41-1.67-1.97-2.86-4.17-3.78-6.4-.92-2.24-1.58-4.53-2.08-6.84-.95-4.62-1.28-9.26-1.3-13.89,0-4.62.33-9.23.99-13.8.82-5.46,1.84-10.99,3.68-16.46.95-2.73,2.14-5.41,3.71-7.91,1.56-2.49,3.52-4.82,5.99-6.61.69-.48,1.38-.96,2.15-1.33.73-.43,1.55-.71,2.36-1,1.65-.49,3.41-.77,5.14-.56.88.02,1.71.28,2.55.47.8.26,1.64.59,2.35.91l4.14,1.96,16.49,7.9c6.77,3.19,13.58,6.42,20.41,9.38,5.17,2.22,10.51,4.11,15.92,5.72,5.42,1.62,10.91,2.94,16.41,4.24,4.27,1.02,8.53,1.97,12.73,3.29,1.05.34,2.1.66,3.14,1.08l1.56.6,1.53.71c1.03.44,2,1.04,2.99,1.61.99.57,1.88,1.23,2.79,1.9,1.58,1.2,3.08,2.48,4.44,4,2.48,2.87,3.54,5.24,4.05,6.91.23.85.34,1.54.36,2.12,0,.59-.08,1.07-.16,1.49-.09.39-.14.87-.23,1.1-.29.76-1.36-2.06-3.95-6.12-2.02-2.99-4.77-5.49-7.88-7.61-3.06-2.09-6.54-3.51-10.29-4.67-7.5-2.27-15.6-3.8-23.59-5.96-5.95-1.57-11.88-3.43-17.66-5.71-5.81-2.32-11.31-4.91-16.89-7.45l.02-.09Z"/><path class="cls-1" d="m447.53,250.79c.52,8.75.05,17.6-2,26.22-.76,3.14-1.64,6.28-2.98,9.27-1.18,2.63-2.61,5.18-4.35,7.53-1.74,2.34-3.83,4.46-6.19,6.21-2.35,1.76-4.99,3.13-7.74,4.08-2.76.95-5.63,1.41-8.47,1.64-1.27.06-2.52.16-3.85.07-1.31-.08-2.59-.27-3.85-.54-2.51-.56-4.92-1.44-7.18-2.55-2.9-1.44-5.66-3.24-8.01-5.55-.58-.58-1.11-1.21-1.66-1.82-.49-.66-1-1.31-1.45-2-.42-.71-.86-1.41-1.17-2.18-.17-.38-.28-.78-.41-1.17-.13-.39-.25-.78-.29-1.21-.15-1.03-.13-1.47,0-1.49.15-.02.46.39,1.09,1.01.16.15.33.32.5.5.19.18.41.35.64.54.53.34.86.84,1.44,1.25.53.43.98.97,1.56,1.46.28.26.55.52.82.8.29.27.59.53.88.82,4.1,4.04,9.58,6.98,15.19,7.98.69.1,1.4.2,2.08.23l1.03.03c.35,0,.73-.03,1.1-.05,1.49-.04,2.95-.23,4.42-.44,2.91-.49,5.7-1.43,8.3-2.81,3.12-1.63,5.83-4.17,8-7.14,2.14-3.01,3.74-6.46,5-10,2.7-7.85,3.64-16.39,3.56-24.85-.06-5.22-.49-10.45-1.43-15.58-.68-3.89-1.59-7.77-2.78-11.55-1.17-3.78-2.56-7.5-4.28-11.04-2.61-5.53-6.02-10.5-9.81-15.12-.87-.99-1.73-1.95-2.62-2.92-.85-.88-1.5-1.67-2.1-2.27-.57-.63-.98-1.2-1.31-1.67-.33-.48-.59-.86-.76-1.23-.15-.39-.23-.76-.3-1.09-.06-.31-.2-.65-.22-.85-.03-.34.4-.25,1.36.05,1,.27,2.23,1.11,3.75,2.29,4.27,3.72,7.99,8.26,11.21,13.18,3.21,4.94,5.82,10.35,7.92,15.94,1.56,4.16,2.81,8.44,3.66,12.81.88,4.36,1.52,8.77,1.81,13.19l-.1.02Z"/><path class="cls-1" d="m213.25,127.04c-.19,1.45-1.02,2.51-2.04,3.17-.37.24-.81.5-1.25.59-.79.16-1.59.04-2.32-.31-.73-.34-1.39-1.1-1.47-1.89-.12-.7.03-1.33.25-1.85.28-.67.68-1.24,1.28-1.58.19-.1.37.14.51.47.12.33.25.78.16,1.05-.18.47-.24.95-.17,1.16.03.11.06.14.09.2,0,.05-.02.11.04.22.16.28.74.15,1.09.02.4-.12.88-.56,1.05-1.03.11-.29.14-.59.04-.85-.15-.41-.51-.79-.98-.75l-.1.02c-.29.1-.44.4-.65.74-.05.09-.08.19-.14.28-.23.32-.58.25-1.18-.09-.14-.08-.28-.15-.4-.23-.21-.14-.37-.31-.48-.51-.12-.21-.2-.47-.15-.69.1-.47.35-.91.76-1.36.21-.22.47-.44.8-.61.35-.17.71-.3,1.09-.36.65-.08,1.34,0,1.95.29,1.57.71,2.45,2.38,2.3,3.9h-.07Z"/><path class="cls-1" d="m195.07,146.71c-.49.75-1.11,1.45-1.97,1.98-.84.53-2.01.78-3.01.57-.72-.14-1.38-.37-1.93-.76-.98-.69-1.61-1.71-1.95-2.75-.32-1.04-.4-2.17-.05-3.19.29-.91.77-1.71,1.41-2.33.8-.8,1.86-1.42,3.01-1.4.36.01.31.31.1.64-.22.33-.52.76-.89,1.02-.7.45-1.15,1.18-1.38,1.86-.12.35-.17.68-.19,1.03-.04.35-.05.72,0,1.1.11.95.9,1.69,1.66,2.08.44.22.85.3,1.24.22.4-.08.84-.35,1.22-.76.46-.5.83-1.17,1.02-1.86.31-1.04.26-2.28-.45-2.87-.55-.48-1.34-.41-2.11-.17-.17.05-.33.13-.51.19-.33.08-.57.12-.78.06-.22-.09-.39-.23-.58-.45-.09-.1-.19-.19-.26-.28-.12-.16-.14-.35-.07-.59.07-.24.22-.54.52-.73.85-.61,1.99-1,3.4-.83.7.09,1.44.41,2.04.92.61.5,1.06,1.19,1.3,1.87.68,2.06.19,3.93-.72,5.48l-.06-.03Z"/><path class="cls-1" d="m71.19,131.28c-.47,1.25-1.47,2.13-2.68,2.47-.43.12-.86.22-1.3.19-1.49-.12-2.94-1.18-3.24-2.69-.12-.64-.09-1.25.07-1.83.18-.73.68-1.51,1.49-1.71.26-.06.34.31.4.72.04.41.19.84.14.99-.11.3-.13.66-.08.94.02.15.07.26.08.38,0,.11.05.26.12.42.2.42.8.46,1.26.46.52.01,1.04-.22,1.4-.7.2-.28.34-.62.32-.95-.01-.49-.41-1.09-.91-1.18-.37-.09-.72.2-.89.48-.04.06-.06.13-.09.18-.03.05-.05.09-.09.11-.04.02-.13.03-.19.05-.1.02-.25.06-.49.11l-.26.07c-.14.03-.26,0-.4-.13-.13-.12-.28-.36-.31-.68.09-.89.71-1.68,1.63-2.04.44-.18,1.04-.25,1.53-.14.51.1.98.32,1.36.62.57.44.97,1.04,1.19,1.74.22.71.19,1.48-.02,2.12l-.05-.02Z"/><path class="cls-1" d="m383.9,95.93c-1.65.93-3.48,1-5.11.54-.58-.17-1.24-.35-1.8-.8-.49-.39-.93-.95-1.17-1.54-.25-.59-.34-1.21-.31-1.78.04-1.15.53-2.15,1.21-2.94.63-.7,1.34-1.19,2.09-1.57.96-.47,1.99-.76,3.02-.69.32.03.31.38.12.78-.2.4-.56.88-1.01,1.08-.81.33-1.5.77-1.99,1.27-.26.26-.42.48-.58.75-.16.27-.25.58-.37.88-.13.37-.07.77.09,1.03.15.28.4.42.75.63.81.45,2,.61,2.98.3.61-.19,1.16-.52,1.54-1.01.59-.74.83-1.9.38-2.72-.32-.63-1.11-.9-1.74-.92-.14,0-.28.02-.41.03-.45.09-.7-.15-1.08-.43-.09-.07-.19-.13-.27-.2-.13-.12-.17-.27-.11-.5.06-.23.25-.54.6-.78,1.1-.57,2.5-.52,3.65.16.58.33,1.12.85,1.48,1.48.36.61.56,1.3.62,1.98.08,1.01-.13,1.99-.58,2.86-.44.87-1.16,1.67-1.98,2.15l-.04-.06Z"/><path class="cls-1" d="m407.47,343.2c-.88,1.57-2.45,2.75-4.35,2.91-.66.05-1.32.05-1.92-.16-2.09-.72-3.47-2.71-3.44-4.77.01-.89.27-1.72.66-2.45.48-.92,1.32-1.79,2.42-1.93.34-.04.4.41.37.92-.04.51-.01,1.1-.17,1.36-.31.47-.46,1.03-.48,1.49,0,.47-.09.82.09,1.35.21.65,1.01.97,1.61,1.06.35.07.66.05.99-.07.33-.12.68-.35.95-.66.32-.39.59-.87.64-1.36.1-.73-.21-1.48-.98-1.81-.59-.25-1.3-.09-1.72.18-.1.05-.16.15-.25.19-.26.18-.56-.04-1.19-.37l-.43-.21c-.23-.12-.38-.3-.44-.58-.07-.28-.05-.68.2-1.03.77-1.02,2.09-1.43,3.31-1.41,1.23.04,2.52.53,3.52,1.59.75.79,1.18,1.89,1.25,2.91.07,1.04-.15,2.01-.56,2.85l-.08-.03Z"/><path class="cls-1" d="m451.99,401.27c-.78.75-1.73,1.32-2.79,1.62-1.07.31-2.23.26-3.22-.06-.73-.23-1.43-.51-2.01-.97-1.01-.8-1.77-1.85-2.16-3.03-.39-1.19-.34-2.49-.02-3.57.29-.98.73-1.88,1.3-2.65.7-1,1.59-1.88,2.68-2.4.34-.16.46.12.41.56-.06.43-.22,1.05-.59,1.51-1.35,1.64-1.97,3.54-1.66,5.14.19,1.02,1.07,1.93,2.01,2.39,1.04.54,2.18.58,3.22-.08.61-.41,1.18-.97,1.53-1.67.52-1.04.47-2.37-.41-3.27-.65-.71-1.66-1.01-2.55-1.01-.2,0-.39.03-.57.06-.68.13-.95.03-1.33-.22-.09-.06-.19-.11-.26-.17-.12-.11-.14-.26-.04-.47.09-.22.31-.5.69-.73,1.16-.55,2.58-.57,3.83-.08,1.26.44,2.48,1.39,3.15,2.83.48,1.08.57,2.3.33,3.4-.26,1.1-.76,2.12-1.5,2.93l-.06-.05Z"/><path class="cls-1" d="m146.32,344.09c.67,1.3.72,2.82-.04,4.13-.27.46-.65.91-1.13,1.16-1.7.87-3.65.26-4.57-1.15-.39-.64-.52-1.38-.45-2.06.07-.86.5-1.78,1.31-2.18.26-.12.33.14.35.46,0,.33.05.72-.04,1-.18.5-.16,1.06.02,1.46.17.38.37.73.85,1,.57.32,1.35.11,1.71-.27.45-.37.63-1.21.38-1.96-.15-.45-.4-.89-.77-1.13-.53-.38-1.37-.39-2.01.06-.49.35-.78.91-.89,1.43l-.03.33c0,.2-.15.31-.26.41-.11.1-.27.18-.5.26l-.3.13c-.3.12-.71-.09-.92-.72-.33-1.88,1.08-3.83,3.18-4.27.78-.17,1.65-.1,2.43.27.78.36,1.36.98,1.73,1.62l-.04.03Z"/><path class="cls-1" d="m144.07,396.14c.4-.21.77.13,1.12.81.11.21.14.88.02.99-.22.2-.43.4-.66.55-.14.08-2.35.64-3.1.88-.72.22-1.46.34-2.2.44-1.5.2-2.99.44-4.49.67-.33.05-.67.06-1.01.03-1.17-.09-2.31.05-3.44.3-.19.04-.39.05-.55.21-.28.26-3.38.57-3.79.52-1.03-.14-2.05-.18-3.07-.25-.15,0-.29.06-.44-.09-.35-.32-.65-.23-.97-.24-.44,0-.87-.01-1.32-.07-.22-.03-.46-.18-.69-.29-.21-.1-.18-.55-.12-.61.17-.17-.02-.36-.07-.54-.02-.06-.04-.14-.04-.19,0-.09,2.33-1.46,2.6-1.55.03-.03.94-.24,1.9-.47.95-.23,1.95-.47,2.15-.54.21-.07.44-.02.66,0,.11.02,2.96-.75,3.09-.7.61-.01,1.2-.2,1.84.07.13.05.25.02.37,0,1.03-.14,2.09-.1,3.13-.1.53,0,1.06-.08,1.59-.12.1,0,.2.03.29.04.12.02.25.05.37.04,1.25-.12,2.53-.05,3.78-.26.29-.04,1.7.21,2.03.14.19-.03.83.4.99.32Z"/><path class="cls-1" d="m157.65,407.4c-.05-.47.44-.69,1.23-.75.25-.02.92.23.98.38.12.28.23.56.29.83.02.15-.25,2.45-.29,3.24-.04.77-.2,1.51-.37,2.25-.35,1.49-.65,3.01-.97,4.51-.07.33-.18.66-.33.97-.51,1.08-.78,2.22-.95,3.39-.03.19-.09.38,0,.6.15.36-.46,3.47-.64,3.85-.46.94-.9,1.89-1.32,2.84-.06.14-.04.3-.24.39-.46.22-.48.54-.58.84-.14.41-.31.83-.52,1.23-.11.2-.35.37-.56.55-.18.17-.69-.02-.74-.09-.14-.22-.41-.1-.64-.12-.08,0-.17-.01-.23-.03-.11-.03-.78-2.8-.75-3.09,0-.03.11-.99.21-2,.09-1.01.27-2.03.28-2.25.01-.22.16-.42.27-.62.04-.1.48-3.07.53-3.18.2-.59.23-1.22.72-1.74.1-.1.11-.23.14-.35.23-1.04.64-2.03,1.01-3.04.19-.51.29-1.05.45-1.57.03-.09.1-.18.15-.26.06-.11.14-.22.17-.34.33-1.25.86-2.44,1.11-3.71.06-.29.83-1.55.89-1.89.04-.19.71-.64.69-.83Z"/><path class="cls-1" d="m308.31,314.56c-.67-.51-1.44-.94-2.27-1.24-.3-.11-.62-.14-.93-.23-1.11-.31-2.44-.44-3.71-.9-.57-.19-1.13-.47-1.62-.82-.62-.44-1.21-1.1-1.3-1.91-.03-.25.17-.24.43-.14.25.11.59.25.83.46.41.38.96.63,1.51.8.54.18,1.16.3,1.83.43.81.17,1.72.04,2.69.17,1.04.14,2.06.44,3.01.87.59.26,1.16.58,1.7.93.84.52,1.54,1.25,2.22,1.98.51.58,1.12,1.14,1.51,1.88.08.16.18.32.24.5.11.68-.12.95-.7,1.17-.14.05-.27.11-.4.14-.44.11-.9-.05-1.22-.31-.28-.18-.44-.37-.62-.55-.19-.17-.34-.34-.49-.52-.29-.36-.59-.73-.94-1.09-.53-.51-1.09-1.1-1.79-1.57l.03-.06Z"/><path class="cls-1" d="m224.59,347.62c.53.33,1.1.58,1.73.75.23.06.46.08.7.13.82.17,1.69.27,2.57.24.39,0,.78-.06,1.16-.11.49-.07.98-.17,1.48-.2.31-.03.02.49-.54.67-1,.28-2.03.51-3.1.49-.64-.02-1.31.05-1.97-.04-.72-.09-1.45-.27-2.13-.56-.42-.17-.82-.39-1.2-.63-.58-.37-1.1-.83-1.58-1.33-.38-.38-.73-.8-1.01-1.28-.06-.11-.13-.21-.17-.33-.17-.43-.08-.61.23-.78.07-.04.14-.08.22-.11.25-.09.52.01.67.23.51.63,1.03,1.13,1.55,1.72.4.42.88.81,1.42,1.11v.03Z"/></svg>