<?xml version="1.0" encoding="UTF-8"?><svg id="Layer_29" xmlns="http://www.w3.org/2000/svg" width="520" height="520" viewBox="0 0 520 520"><defs><style>.cls-1,.cls-2,.cls-3,.cls-4,.cls-5,.cls-6{fill:#231f20;}.cls-2{opacity:.2;}.cls-3{opacity:.55;}.cls-4{opacity:.45;}.cls-5{opacity:.4;}.cls-6{opacity:.35;}</style></defs><path class="cls-1" d="m126.23,388.93c-2.85,0-5.71.07-8.56.18-1.04.04-2.08.18-3.12.23-3.67.19-7.35.4-11.02.75-1.63.12-3.26.33-4.87.54-1.03.15-2.06.31-3.11.37-.52.04-1.04.11-1.57.1-.53-.01-1.05-.03-1.59-.04-.66-.03-.58-.08-.07-.36.26-.14.62-.36,1.06-.62.22-.13.46-.29.71-.41.26-.11.54-.21.83-.29,2.07-.64,4.19-.89,6.31-1.23,2.12-.33,4.26-.49,6.42-.58,2.58-.12,5.24-.5,7.87-.69,2.89-.22,5.8-.35,8.7-.45,1.79-.04,3.58-.09,5.36-.08,2.71-.03,5.43.07,8.12.1,2.09.04,4.15-.05,6.23.02.46.03.91.02,1.36.07,1.7.2,2.22.43,2.52,1.05.07.14.16.28.19.42.11.46-.62.76-1.86.82-.92.03-1.84.08-2.78.13-.93,0-1.87,0-2.81,0-1.89-.01-3.81-.03-5.73-.04-2.86.01-5.73,0-8.6.1v-.06Z"/><path class="cls-1" d="m162.92,452.8c-2.53,1.12-14.17,1.92-12.97,4.48,1.32,2.82,32.08,2.43,32.08,2.43,0,0-13.79-.63-16.45-3.27s-2.66-3.64-2.66-3.64Z"/><path class="cls-1" d="m133.66,443.36s-14.67.78-13.18,3c1.9,2.82,29.47,2.82,29.47,2.82,0,0-12.77-2.75-14.53-4.28l-1.76-1.54Z"/><path class="cls-1" d="m386.65,435.57l-6.92,2c-.85.23-1.67.53-2.52.75-2.99.79-6,1.53-9.01,2.24-1.34.3-2.69.6-4.02.89-1.7.39-3.44.75-5.22.7-.56-.04-.48-.02-.05-.25.42-.28,1.19-.75,2.13-1.11,3.37-1.09,6.72-2.18,10.24-2.89,2.09-.46,4.19-1.21,6.29-1.85l6.93-2.08,4.26-1.31c2.14-.68,4.31-1.33,6.42-2.06,1.64-.56,3.2-1.27,4.82-1.86.36-.13.7-.27,1.06-.39,1.34-.44,1.85-.35,2.28.02.1.09.22.17.29.26.24.31-.21.81-1.12,1.32-2.75,1.44-5.82,2.43-8.9,3.47-2.29.75-4.61,1.46-6.92,2.18l-.02-.05Z"/><path class="cls-1" d="m402,418.72s22.11.87,20.78,4.81c-1.76,5.2-45.54,12.87-45.54,12.87,0,0,25.48-12.6,24.76-17.67Z"/><path class="cls-2" d="m233.83,314.03l7.88-9.54s9.24-3.57,13.44-.54c4.2,3.03,9.1,10.93,8.7,15.94-.4,5.01-7.1-8.23-7.55-8.63-.22-.2,7.6,11.35,4.18,11.61-2.96.22-7.16-11.46-7.62-10.8-.59.84,7.62,11.56,2.54,13.95-.7.33-6.55-11.71-8.86-9.69-.73.64,8.15,7.3,3.71,11.35-1.38,1.26-1.06-1.3-2.74-4.38-1.34-2.45-6.36-6.84-8.62-7.35s-5.05-1.92-5.05-1.92Z"/><path class="cls-2" d="m260.48,301.45c.14.44,2.22,2.36,2.82,5.79.6,3.44,4.52,2.57,7.04,1.14,4.23-2.42,6.29-.14,6.49.81.2.95,1.83,12.36,4.37,6.85,2.39-5.19,0-10.45,0-10.45,0,0,.01,11.98,2.29,10.35,2.28-1.63,3.56-7.85,3.1-10.35s-2.91-7.35-5.39-8.03-13.24,1.21-13.24,1.21l-7.48,2.68Z"/><path class="cls-2" d="m194.08,171.25s8.93,26.31,25.55,28.35c16.62,2.04,24.85-11.89,26.92-22.04,2.85-13.94,2.58-33.3,1.51-35.99,0,0-16.54-.57-21.36-10.33,0,0-3.24,9.95-12.87,13.2-9.64,3.25-11.51,2.13-10.67,4.82.84,2.7,5.03,14.39,1.56,16.26-3.47,1.86-6.23-3.17-10.22-9.6-3.99-6.42-11.55.01-10.89,4.15.66,4.13,2.81,10.89,9.09,11.17h1.39Z"/><path class="cls-1" d="m369.47,334.37c.95-.35,1.91-.72,2.86-1.13.35-.15.66-.36,1.01-.51,1.25-.48,2.53-.92,3.77-1.44.54-.24,1.09-.48,1.62-.73.34-.16.67-.36,1.03-.48.37-.11.76-.18,1.15-.25.25-.03.29.11.21.4-.08.28-.22.8-.52,1.17-.57.57-1.23.96-1.86,1.4-.66.39-1.38.68-2.11.96-.89.3-1.66.92-2.52,1.32-.95.45-1.91.89-2.88,1.3l-1.81.75c-.91.39-1.86.7-2.75,1.1-.7.3-1.33.73-2.01,1.07-.15.07-.29.15-.45.21-.59.19-.83.08-1.16-.46-.07-.12-.16-.24-.22-.37-.21-.43-.1-.89.25-1.21.26-.24.54-.46.81-.68.29-.19.58-.36.88-.52.59-.34,1.22-.6,1.85-.84.93-.38,1.89-.71,2.82-1.12l.03.06Z"/><path class="cls-6" d="m163.98,418.6s5.59,1.17,6.34,8.91c.65,6.67,0,8.91,0,8.91,0,0-3.24-3.68-4.4-5.82-1.16-2.14-1.93-12-1.93-12Z"/><path class="cls-6" d="m180.76,443.36s-5.51-18.08-1.74-18.08c5.34,0,8.43,13.57,8.82,18.08,0,0-5.07,2.67-7.09.98-.19-.16,0-.98,0-.98Z"/><path class="cls-1" d="m163.67,425.38c-.25-1.39-.46-2.79-.61-4.2-.07-.51-.19-1.02-.21-1.54-.13-1.82-.06-3.68.17-5.52l.15-1.23.2-1.24c.07-.53.24-1.06.38-1.59.15-.53.49-1.01.84-1.44.23-.27.72.13,1.12.67.4.55.73,1.16.54,1.58-.59,1.59-.89,3.43-1.17,5.4-.17,1.18.05,2.42.17,3.64l.24,2.02.32,2.02c.16.83.3,1.66.5,2.48.28,1.25.58,2.51.98,3.72.31.94.77,1.82,1.17,2.72.09.2.2.39.28.59.29.76.22,1.06-.34,1.42-.13.08-.25.18-.38.24-.45.23-.94.04-1.26-.48-.96-1.54-1.59-3.31-2.13-5.13-.39-1.35-.72-2.74-1.01-4.13l.06-.02Z"/><path class="cls-4" d="m320.52,331.96s-9.92-6.44-21.83,2.45c-8.21,6.13-19.15,3.15-24.89,4.37-5.74,1.23-9.95,6.09-9.95,6.09,0,0,45.47,11.93,49.85,10.94s6.82-23.86,6.82-23.86Z"/><path class="cls-1" d="m316.54,340.17c.64-2.09,1.2-4.23,1.67-6.39.19-.78.25-1.59.42-2.38.58-2.79,1.11-5.6,1.52-8.44.19-1.26.28-2.54.36-3.8.04-.81.06-1.63.15-2.44.04-.41.09-.81.16-1.21.06-.4.15-.8.33-1.2.21-.49.63-.39,1.15.09.57.48,1.14,1.32,1.11,2.26,0,1.67-.22,3.32-.43,4.99-.23,1.66-.51,3.32-.89,4.97-.44,1.98-.61,4.08-.99,6.11-.41,2.24-.93,4.47-1.51,6.67-.36,1.36-.75,2.71-1.18,4.05-.63,2.03-1.44,4.02-2.18,6-.32.76-.6,1.53-.87,2.3-.27.77-.62,1.51-.96,2.26-.15.33-.28.66-.47.97-.69,1.16-1.07,1.44-1.73,1.37-.15-.02-.31-.01-.45-.05-.45-.13-.52-.8-.22-1.71.5-1.32.85-2.74,1.41-4.07.25-.68.51-1.36.78-2.03.25-.69.5-1.38.74-2.07.72-2.06,1.4-4.15,1.99-6.27h.07Z"/><path class="cls-1" d="m378.55,330.97c-.37.2-14.92,5.19-16.09,1.38l1.22,5.68,14.87-7.06Z"/><path class="cls-1" d="m344.96,340.52s-9.33,9.66-23.74,12.09c-8.92,1.5-7.04,2.94-4.78,3.26s35.36-11.72,35.36-11.72l-6.84-3.63Z"/><path class="cls-1" d="m340.14,339.64c-1.02-.66-2.04-1.33-3.02-2.04-.36-.26-.75-.47-1.1-.76-1.26-.93-2.35-2.13-3.33-3.35-.45-.53-.84-1.11-1.23-1.68-.23-.38-.42-.78-.62-1.17-.18-.4-.29-.84-.42-1.25-.08-.26-.03-.24.12-.05.14.19.42.53.66.94.97,1.44,2.27,2.52,3.56,3.64.38.34.84.61,1.25.94l1.34.87c.99.62,1.99,1.24,3.02,1.81.63.36,1.28.7,1.92,1.04.98.52,1.96,1.06,2.97,1.51.78.36,1.63.56,2.39.95.17.08.35.14.51.24.62.36.75.58.69,1.02-.01.1-.02.2-.04.29-.09.3-.47.41-.99.32-.75-.18-1.57-.25-2.29-.56-.73-.29-1.46-.62-2.19-.96-1.08-.53-2.17-1.06-3.21-1.7l.02-.04Z"/><path class="cls-1" d="m242.71,331.37c-.8.35-1.6.72-2.39,1.11-.29.14-.55.33-.84.47-1.02.49-2.08.94-3.1,1.46-.45.23-.89.49-1.32.75-.55.34-1.09.69-1.7.93-.19.07-.27-.1-.22-.36.04-.26.19-.62.48-.84,1.05-.79,2.11-1.57,3.29-2.18.71-.36,1.35-.89,2.06-1.3.77-.45,1.56-.88,2.35-1.31l1.47-.77c.74-.4,1.5-.75,2.23-1.16.57-.31,1.08-.71,1.64-1.06.12-.08.23-.17.36-.23.49-.21.71-.15,1,.28.07.1.14.19.2.29.19.34.12.73-.17,1-.86.78-1.86,1.33-2.92,1.83-.79.37-1.59.75-2.38,1.12l-.02-.04Z"/><path class="cls-1" d="m272.38,317.51c-.7.28-1.4.56-2.1.84-.25.11-.48.26-.74.36-.9.35-1.81.7-2.71,1.05-.4.15-.78.35-1.15.56-.48.26-.92.6-1.5.66-.19,0-.31-.26-.34-.63-.04-.38.01-.83.27-1.01.93-.62,1.86-1.24,2.98-1.53.66-.19,1.23-.6,1.85-.89.69-.31,1.37-.63,2.06-.95.42-.19.85-.39,1.27-.58.64-.3,1.3-.55,1.91-.9.47-.26.89-.62,1.33-.92.1-.07.19-.15.29-.21.38-.22.57-.18.87.18.07.08.14.16.2.25.21.29.19.64-.04.89-.68.76-1.52,1.32-2.4,1.84-.32.19-.65.38-.99.55l-1.04.47-.02-.04Z"/><path class="cls-1" d="m372.64,375.04c-1.54-1.05-3.05-2.14-4.52-3.28-.54-.4-1.12-.77-1.64-1.19-1.86-1.5-3.59-3.15-5.28-4.82-.77-.72-1.54-1.44-2.3-2.15-.93-.96-2.07-1.74-2.61-3.08-.16-.43-.04-.46.44-.45.5,0,1.44-.03,1.99.47,1.05.84,2.14,1.62,3.12,2.52.99.89,1.96,1.81,2.93,2.76,1.15,1.14,2.55,2.08,3.86,3.07,1.44,1.1,2.91,2.17,4.42,3.19.93.63,1.86,1.24,2.83,1.82,1.46.87,2.92,1.75,4.44,2.48,1.19.55,2.43.94,3.63,1.42.26.11.53.18.8.3.48.23.77.45.93.7.17.23.24.45.26.71,0,.12.04.24.03.33-.02.32-.54.46-1.42.48-.62-.05-1.22-.18-1.82-.34-.59-.16-1.21-.3-1.79-.53-1.17-.44-2.32-.95-3.46-1.51-1.7-.81-3.28-1.84-4.88-2.84l.03-.06Z"/><path class="cls-1" d="m260.48,401.69s-83.43,1.18-83.43,13.61c0,3.66-.93,8.38-.14,14.13,1.4,10.09,3.84,13.93,3.84,13.93h-3.71l-5.47-5.27s1.88-12.06-1.02-19.48c-2.9-7.43-7.86-10.39-1.73-11.9,6.13-1.5,39.14-6.28,58.81-9.11,9.96-1.43,15.08-.58,16.93-1.18,1.4-.46,2.94-.23,4.28.4l11.63,4.88Z"/><path class="cls-1" d="m404.43,380.93s4.82,17.05,1.23,34.37c-3.59,17.31-41.8,24.48-44.11,25.9-10.28,6.3-167.69,29.06-170.88,16.71,0,0-1.62-22.04-5.65-31.16-4.03-9.12-6.31-12.48-6.31-12.48,0,0,8.94-5.68,23.54-5.53,14.6.15,66.69-4.57,66.69-4.57,0,0,34.82,13.35,44.36,11.12,0,0,8.99-1.32,18.22-6.1,4.71-2.44,45.19-18.15,45.19-18.15l2.36-15.38s16.22,7.04,25.36,5.26Z"/><path class="cls-1" d="m357.32,249.77c.5.14,1.05.26,1.62.29.57.06,1.2.03,1.67-.02.39-.07.75-.24,1.15-.36,1.44-.44,2.89-1.24,4.22-2.21.61-.42,1.15-.92,1.67-1.43.71-.63,1.37-1.23,2.13-1.91.23-.2.28-.12.27.19-.02.3-.05.87-.29,1.42-.22.48-.46.95-.71,1.41-.28.44-.62.83-.97,1.21-.35.38-.7.76-1.12,1.08-.41.32-.86.61-1.31.87-1.1.61-2.15,1.44-3.45,1.9-.35.13-.73.22-1.11.3-.39.06-.79.12-1.14.13-.72.05-1.45.01-2.18-.06-.9-.12-1.81-.36-2.66-.75-1.3-.59-2.38-1.63-3.1-2.79-.6-.88-1.11-1.8-1.44-2.78-.07-.22-.15-.42-.21-.65-.13-.83.1-1.13.62-1.37.12-.05.24-.12.36-.15.4-.12.82.15,1.15.62.85,1.43,1.51,2.74,2.42,3.56.63.64,1.39,1.16,2.41,1.42v.07Z"/><path class="cls-1" d="m373.47,133.36c23.75-16.37,45.07,8.97,37.97,26.47-4.11,10.12-7.57,17.92-8.84,15.46-1.27-2.46-6.49-3.51-11.47-2.19s-3.06,12.25-6.66,13.47c-3.6,1.22-4.88-5.56-6.03-14.67-1.15-9.11-3.89-14.09-10.98-14.69-7.09-.59-9.04,4.1-9.04,4.1-1.69,9.03-10.48,18.76-22.51,21.97-12.03,3.22-25.78-.47-30.42-11.59-7.59-18.19,10.09-31.21,24.1-28.41,2.06.41,3.94-1.39,3.53-3.45-2.08-10.41,2.63-19.21,12.57-23.09,9.41-3.67,18.77-2,24.34,6.84.3.48,1.91,2.19,2.36,7.79.42,5.21,1.1,1.98,1.1,1.98Z"/><path class="cls-1" d="m229.8,378.19s5.98-43.22,3.3-44.26c-2.69-1.04-5.54-.57-7.22-2.47-1.68-1.9-12.41,3.18-22.73,2.94-10.32-.24-39.26-2.03-40.32-2.83-1.06-.81-6.35,2.93-4.9,15.7,1.44,12.77,3.53,13.78,13.44,18.08,9.91,4.3,27.57,4.99,31.78,5.55,4.21.56,26.65,7.29,26.65,7.29Z"/><path class="cls-1" d="m157.68,357.49s1.33,8.49,19.24,13.01c17.92,4.52,27.73-.13,36.38,3.91,1.78.83,3.13-.46,4.78-.15,5.86,1.12,12.62,1.41,12.62,1.41,0,0,1.2,14.49,3.49,16.97.49.53.03,1.84-2.3,1.84-6.93,0-31.19-1.01-51.86-4.45-22.26-3.7-41-2.9-41-2.9,0,0,2.2-14.71,9.23-23.16,7.03-8.44,9.4-6.49,9.4-6.49Z"/><path class="cls-1" d="m233.83,314.59s-10.97,15.65-7.95,16.87c3.92,1.58,11.74-14.34,11.74-14.34l-3.79-2.53Z"/><path class="cls-1" d="m159.65,263.45c.08-.2,4.97,0,8.64-1.94,11.18-5.9,12.47-18.02,5.19-24.39l-7.56,10.74s-6.26,15.57-6.27,15.59Z"/><path class="cls-1" d="m174.7,333.93c.68.02.48-7.35-8.63-12.34-6.9-3.78-14.84-.1-14.8,0,0,0,2.61,5.62,8.73,8.44,6.11,2.82,14.68,3.9,14.69,3.9Z"/><path class="cls-1" d="m202.26,303.95s3.66,6.59,11.78,6.59c6.4,0,10.31-5.81,10.31-5.81l-22.08-.78Z"/><path class="cls-1" d="m229.56,141.06c-1.59-.97-3.32-1.77-5.18-2.05-2.17-.32-4.33-.05-6.46.48-1.62.41-.93,2.92.69,2.51.94-.24,1.89-.44,2.84-.51.44-.03.89-.05,1.33-.03.2,0,.4.02.6.03.1,0,.19.02.29.03.26.03-.3-.05.16.02,1.69.27,2.97.88,4.41,1.76s2.74-1.37,1.31-2.25h0Z"/><path class="cls-1" d="m230.71,134.61c.81.18,1.38,1,2.11,1.4,3.79,2.08,15.69,6.41,22.01,3.25,6.72-3.36,11.44-24.18-7.31-28.95,0,0-6.32,3.34-8.46,5.53-2.14,2.19,1.56-3.41-8.35-7.64-9.91-4.24-29.59-8.66-45.16,6.12-15.57,14.78-16.84,21.83-15.71,30.87s12.51,18.45,12.51,18.45c0,0,0-9.42,5.01-9.82,5-.4,5.5-.8,8.72,4.65,3.22,5.44,5.04,8.35,7.47,6.86,2.43-1.49.99-13.35-.41-16.03-1.4-2.68,12.02-3.34,15.96-8.1,3.94-4.76,5.64-5.89,6.14-9.01l5.45,2.45Z"/><path class="cls-1" d="m222.9,99.06c4.79-4.56,10.31-27.46-14.21-35.37-.83-.27-2.72.85-3.5,1.26-.57.3-1.35.47-2.17-.06-10.33-6.64-16.14-4.95-19.36-2.42-3.23,2.53-15.37-1.99-20.03,4.36-4.66,6.35-.21,7.45-5.47,11.63-5.26,4.18-4.13,11.24-3.14,14.2.99,2.96-2.53,2.13-2.55,9.05-.04,11.15,13.22,14.37,21.33,13.12,0,0,12.85-13.1,25.28-15.89,11.57-2.6,23.83.12,23.83.12Z"/><path class="cls-1" d="m333.61,191.21c.87,2.44,2.78,4.47,5.53,4.46s4.9-1.77,6.35-3.85c1.01-1.45,1.65-3.17,1.96-4.91.12-.69-.19-1.4-.91-1.6-.63-.17-1.47.21-1.6.91-.24,1.32-.6,2.45-1.23,3.55-.31.54-.59.94-.9,1.29-.18.2-.36.39-.55.58-.09.08-.18.16-.27.24-.04.04-.09.08-.13.11-.28.24.11-.08-.06.05-.39.29-.8.52-1.23.73-.17.08.2-.07.02,0-.05.02-.1.04-.15.06-.1.03-.19.07-.29.1-.22.07-.45.11-.68.15.22-.04.1,0-.04,0-.11,0-.22.01-.34.01-.1,0-.19,0-.29-.01-.31,0,.18.06-.12-.02-.19-.04-.36-.09-.55-.15-.3-.09.11.08-.09-.03-.1-.05-.2-.1-.3-.16-.11-.07-.22-.14-.33-.21-.12-.08.05.04.06.05-.05-.04-.11-.09-.15-.13-.1-.1-.2-.19-.3-.29-.04-.05-.25-.29-.18-.2.09.12-.02-.03-.03-.05-.05-.08-.11-.16-.16-.24-.07-.12-.14-.24-.21-.36-.08-.15-.15-.3-.22-.45.08.17-.1-.26-.11-.31-.24-.66-.89-1.1-1.6-.91-.64.18-1.14.93-.91,1.6h0Z"/><path class="cls-1" d="m345.08,195.68c.3-1.67.42-3.41.38-5.17-.02-.63-.14-1.23-.21-1.83-.26-2.09-.89-4.19-2.59-5.35-.75-.49-1.66-.76-2.58-.92-.61-.04-1.23-.07-1.87-.05-.64-.05-1.29-.02-1.97-.06-.42-.03-.41-.16-.11-.46.3-.28.84-.95,1.65-1.22.71-.3,1.47-.33,2.26-.39.79-.01,1.61.03,2.42.27,1.6.53,3.04,1.73,3.84,3.16.95,1.7,1.62,3.5,1.83,5.3.22,1.98.2,3.85.04,5.79-.1,1.18-.29,2.36-.57,3.52-.41,1.77-1.1,3.47-1.94,5.08-.15.32-.33.62-.5.93-.16.32-.33.63-.52.93-.37.61-.8,1.17-1.25,1.72-.21.23-.4.47-.65.68-.22.19-.41.34-.6.43-.19.08-.39.1-.55.11-.33.01-.58-.07-.85-.24-.12-.08-.25-.14-.35-.22-.31-.25-.21-.88.08-1.66.56-1.01,1.19-1.86,1.66-2.82.55-.89,1.1-1.8,1.51-2.8.65-1.46,1.11-3.07,1.35-4.75h.07Z"/><path class="cls-1" d="m163.29,65.19c.2-.28.43-.56.65-.83.23-.27.51-.51.77-.77.51-.44.97-.79,1.5-1.14,1.03-.69,2.15-1.27,3.34-1.7,2.37-.86,4.98-1.08,7.42-.64,1.2.2,2.49.65,3.35.93.9.31,1.69.34,1.84.24.06-.01.09-.05.14-.08.17-.14.43-.39.63-.59.46-.4.84-.86,1.37-1.2.5-.35.98-.74,1.51-1.05.55-.29,1.09-.6,1.65-.85,1.68-.71,3.48-1.1,5.28-1.17,1.8-.09,3.57.22,5.22.71,1.46.43,2.85,1.03,4.15,1.67.64.31,1.37.7,1.52.73.23.06.37.07.65-.11.41-.25,1.07-.78,1.83-1.2.77-.43,1.64-.7,2.49-.86,1.71-.28,3.27-.08,4.74.22,2.93.62,5.71,1.75,8.21,3.33,2.49,1.58,4.66,3.61,6.46,5.9,3.19,4.05,5.34,8.99,5.74,14.12.26,3.29-.06,6.62-1.29,9.74-1.23,3.1-3.28,5.82-5.76,7.86-1.57,1.26-1.58.8-.74-.7.78-1.55,2.39-4.1,3.62-7.14,1.13-2.68,1.46-5.71,1.29-8.64-.16-2.93-1.06-5.8-2.36-8.44-2.62-5.32-7.28-9.53-12.77-11.75-1.64-.61-3.46-1.13-5.12-1.16-.84-.05-1.58.08-2.25.31-.7.23-1.18.64-2.26,1.36-.64.39-1.49.71-2.32.68-.41-.05-.85-.08-1.19-.23l-.54-.19c-.17-.06-.27-.12-.41-.19-.95-.48-1.74-.87-2.62-1.22-1.72-.69-3.49-1.17-5.24-1.3-1.92-.14-3.83.18-5.54,1-.87.39-1.67.95-2.43,1.56l-1.1,1c-.55.61-1.45,1.06-2.24,1.17-1.6.21-2.8-.25-3.86-.56-1.01-.33-1.91-.55-2.9-.65-1.93-.23-3.91.05-5.7.83-1.1.48-2.17,1.13-3.08,1.91-.8.69-1.41,1.7-1.88,2.84-.47,1.14-.81,2.41-1.2,3.72-.41,1.3-.77,2.69-1.76,4.04-.15.22-.33.42-.54.61l-.3.29-.28.21c-.37.28-.74.53-1.11.78-.74.49-1.47.93-2.15,1.39-1.36.9-2.52,1.96-2.99,3.29-.47,1.33-.31,2.96.12,4.5.23.78.51,1.55.84,2.3.16.38.34.76.51,1.13l.31.62.43.82c-.02.27-.01.46-.01.68v.32c-.05.07-.12.12-.19.18-.23.29-.47.66-.69,1.07.04.08.02.08.01.09l-.03.03-.05.07s-.07.09-.1.14l-.2.29c-.13.2-.25.41-.37.62-1.38,2.56-1.95,5.62-1.49,8.37.43,2.78,2.05,5.15,4.35,6.73,1.02.68,2.09,1.26,3.28,1.73,2.2.87,3.72,1.35,4.79,1.76,1.05.48,1.67.85,2.13,1.38.21.24.51.48.62.69.2.36-.23.58-1.21.7-.98.12-2.52.14-4.45-.32-2.29-.51-4.59-1.4-6.73-2.79-.55-.32-1.04-.77-1.55-1.15-.47-.46-.99-.88-1.41-1.4-.9-.99-1.64-2.17-2.18-3.43-1.12-2.53-1.3-5.37-.88-7.97.21-1.31.57-2.59,1.06-3.82.5-1.23,1.09-2.46,2.03-3.6,0,0,0,0,0,0-.01,0,0,0-.01,0,.17.33-.41-.84-.7-1.56-.33-.8-.65-1.62-.9-2.5-.33-1.17-.65-2.41-.69-3.78,0-.69.03-1.41.2-2.14.14-.72.46-1.49.81-2.12.74-1.3,1.77-2.28,2.75-3.05.98-.77,1.95-1.37,2.8-1.95.42-.29.82-.57,1.16-.86.13-.13.16-.15.26-.26.08-.13.17-.2.26-.38.36-.61.67-1.54.96-2.54.62-2,1.06-4.38,2.63-6.73l.08.04Z"/><path class="cls-1" d="m132.97,366.59c-.16-.08-.41-.16-.73-.22-.16-.02-.35-.06-.52-.03-.12.07-.11.16-.1.23.03.12.34.23.38.32.1.18.32.4.71.66l.15.1s.26.13.38.19l.88.4c.59.26,1.19.5,1.79.74,1.07.41,2.2.69,3.32.91,1.44.29,2.92.34,4.3.95.87.38-.82,3.52-2.63,3.19-3.13-.59-6.19-1.61-9.01-3.22-.14-.1-.6-.3-.93-.48-.35-.18-.71-.34-1.05-.52-.68-.35-1.36-.7-1.97-1.07-1.25-.73-2.24-1.51-2.79-2.25-.31-.41-.53-.81-.69-1.25-.08-.22-.15-.45-.16-.7,0-.13,0-.26.02-.4v-.05s0,0,0,0h0s-.07-.02.07.02h0s0-.02,0-.02v-.03s.02-.08.04-.11c.03-.06.06-.13.09-.17.12-.2.3-.31.49-.42.19-.1.4-.19.62-.27.45-.15.99-.25,1.59-.31,1.57-.11,3.54.09,5.4.39.35.06.71.11,1.06.18l.76.16,1.45.35c.96.25,1.92.52,2.87.8,1.48.43,2.99.77,4.48,1.38.32.14.66.25.98.43,1.18.67,1.38,1.2.98,2.07-.09.2-.17.41-.28.59-.41.61-1.11.73-1.86.47-2.22-.79-4.62-1.56-7.16-2.21l-1.42-.34-1.29-.28s-.07-.07-.16-.1l-.1-.1Z"/><path class="cls-1" d="m110.18,389.44c-1.07.08-2.14.15-3.26.17h-.97c-.49-.02-.98,0-1.45-.1-.97-.11-1.69-.52-2.18-1.18-.14-.16-.2-.38-.27-.56l-.04-.63-.03-.63c.03-.22.07-.44.12-.66.1-.45.19-.86.45-1.31.27-.51.39-.74.6-1,.74-1.07,1.63-1.85,2.52-2.59,1.31-1.05,2.63-1.98,4.05-2.73,2.48-1.35,5.08-2.32,7.69-3.21,2.61-.87,5.27-1.58,7.94-2.16,2.37-.53,4.77-1,7.19-1.25,1.55-.15,3.11-.31,4.69-.18.79.06,1.58.17,2.36.32.78.17,1.53.49,2.24.86.86.52.7.47-.13.4-.2-.02-.45-.01-.74.02-.29.02-.6.05-.95.13-.68.09-1.45.19-2.29.27-.74.04-1.48.2-2.22.26-.74.08-1.48.18-2.23.3-1.49.24-2.96.56-4.45.87-2.98.6-5.94,1.36-8.89,2.23-3.53,1.04-7,2.76-10.13,4.66-1.7,1.05-3.32,2.3-4.28,3.73-.06.11-.08.14-.1.17l-.07.12-.12.3-.06.33c-.01.12.07.21.17.26.46.17.62.17,1.87.15,2.52-.1,5.12-.39,7.71-.67,3.92-.43,7.89-.8,11.84-1.03,3.07-.16,6.11-.37,9.25-.02.69.08,1.38.15,2.06.37,2.57.76,3.2,1.65,3.34,2.42.03.19.09.39.08.53-.03.24-.3.3-.76.25-.46-.04-1.12-.12-1.93-.3-4.85-.84-10.41-.61-15.98-.13-4.15.35-8.33.87-12.62,1.28v-.07Z"/><path class="cls-1" d="m177.82,390.9c-6.66-.49-13.33-.92-20-1.21-2.43-.12-4.87-.11-7.3-.19-1.86-.08-3.72-.1-5.58-.14-.93-.01-1.86-.05-2.79-.03h-3.47c-.4-.08-.77-.21-1.16-.31-.09-.04-.2-.03-.27-.12-.07-.08-.12-.17-.16-.25-.09-.17-.15-.36-.19-.56-.17-.81.04-1.93.18-2.8.24-1.25.54-2.46.89-3.66.69-2.4,1.54-4.73,2.55-7,1.58-3.55,3.47-7.03,5.93-10.08,1.58-1.95,3.4-3.75,5.49-5.2,2.12-1.43,4.57-2.32,7.03-2.73,1.55-.21,1.35.02.2.66-.57.33-1.35.82-2.22,1.47-.87.66-1.82,1.44-2.84,2.25-3.76,2.7-6.6,6.54-8.96,10.67-2.3,4.16-4.08,8.75-5.2,13.43-.08.36-.16.72-.24,1.09-.01.1-.05.22,0,.32.09.02.21,0,.31.03.92-.02,1.84-.03,2.77-.05,1.17,0,2.35,0,3.53.01,2.36-.01,4.72.06,7.06.12,6.76.25,13.51.62,20.24,1.08,4.14.31,8.29.61,12.43.92,6.27.48,12.57,1.08,18.79,1.62,4.84.43,9.6.72,14.39,1.25,1.05.12,2.09.26,3.15.43,3.93.59,5.17,1.36,5.83,2.12.15.18.35.37.41.51.11.24-.26.33-.98.33-.36,0-.78-.04-1.32-.06-.55-.01-1.19-.03-1.9-.09-8.51-.72-17.46-1.48-26.45-2.25-6.7-.54-13.43-1.09-20.16-1.51v-.07Z"/><path class="cls-1" d="m169.44,362.38c4.41,2.22,9.47,3.5,14.56,4.44,1.86.35,3.76.56,5.64.85,6.65,1.02,13.4,1.83,20.12,3.02,2.98.53,5.99,1.08,8.92,1.84,1.88.47,3.77,1.02,5.6,1.74.9.42,1.8.81,2.65,1.31l1.27.75c.42.27.78.62,1.17.92.94.8.67.88-.43.77-.55-.06-1.32-.12-2.18-.26-.43-.07-.89-.16-1.36-.27-.49-.09-.99-.21-1.49-.36-.44-.15-.91-.25-1.36-.38l-1.34-.43c-.92-.24-1.81-.53-2.74-.74-1.83-.47-3.71-.82-5.59-1.22-3.76-.79-7.6-1.43-11.47-2.1-4.64-.8-9.54-1.17-14.35-1.9-5.27-.83-10.6-1.83-15.71-3.78-3.13-1.19-6.2-2.8-8.74-5.14-1.91-1.75-3.55-3.93-4.41-6.45-.86-2.49-1.14-5.06-1.16-7.58.01-1.96.1-3.92.42-5.84.3-1.92.73-3.84,1.45-5.69.28-.83.65-1.61,1.04-2.41.39-.73.8-1.3,1.15-1.76.4-.44.75-.77,1.05-1.02.61-.5,1.15-.6,1.61-.6.22,0,.47-.01.63.04.27.1.25.45.03.97-.11.27-.29.54-.48.91-.18.37-.4.79-.66,1.23-1.44,2.75-2.47,5.85-2.92,9.12-.5,3.25-.5,6.64.16,9.78.88,4.56,4.52,8,8.97,10.16l-.03.07Z"/><path class="cls-1" d="m310.35,315.63c-1.51-.36-3.03-.74-4.57-1.13-.56-.13-1.14-.2-1.69-.35-1.97-.54-3.94-1.13-5.89-1.76-.86-.29-1.74-.51-2.6-.78-1.11-.32-2.23-.64-3.23-1.23-.31-.19-.13-.54.29-.84.42-.29,1.09-.56,1.72-.42,1.11.24,2.22.48,3.33.72,1.09.3,2.19.6,3.29.95,1.32.43,2.76.52,4.17.75,1.54.26,3.09.5,4.65.82l2.88.57c1.46.29,2.91.65,4.36.93,1.12.24,2.27.3,3.4.53.25.05.5.08.74.15.86.43,1.06.78,1.06,1.43,0,.15.01.3,0,.43-.05.45-.54.74-1.28.88-.56.14-1.05.1-1.57.09-.52,0-1.02-.06-1.52-.13-1.02-.1-2.02-.29-3.02-.53-1.49-.34-3-.7-4.52-1.02v-.08Z"/><path class="cls-1" d="m177.04,403.9c5.39-1.16,10.8-2.07,16.21-2.93,1.98-.3,3.94-.69,5.91-.97,6.97-.96,13.97-1.74,20.97-2.42,1.55-.16,3.11-.31,4.67-.45,1.56-.14,3.1-.32,4.65-.43l2.98-.26c.99-.08,2-.08,2.99-.11l1.5-.02h.75s.37,0,.37,0c.13.04.25.05.38.07.5.1,1,.13,1.5.16l1.49.1c1.24.1,1.07.24.03.54-.59.16-1.32.36-2.14.58-.44.1-.92.38-1.42.52-.51.12-1.05.22-1.61.29-7.98,1.04-15.98,1.83-24.09,2.61-4.85.47-9.84,1.39-14.75,2.22-5.41.88-10.79,1.86-16.15,2.95-3.3.66-6.57,1.43-9.79,2.32l-1.78.57-.89.28-.49.2-.49.2c-.16.05-.33.19-.3.38.07.34.3.62.48.93l.43.69.51.85c.33.58.65,1.16.93,1.76.58,1.2,1.07,2.43,1.47,3.68,1.27,3.89,1.92,7.86,2.13,11.87.03.88.06,1.75,0,2.63-.2,3.28-.56,4.3-1.48,4.9-.19.14-.37.33-.53.4-.48.26-1.07-1.12-1.13-3.43-.03-.86-.11-1.72-.17-2.58l-.13-1.29c-.03-.43-.05-.86-.09-1.29-.12-1.72-.31-3.44-.59-5.13-.56-3.39-1.51-6.68-3.16-9.58-.15-.27-.31-.54-.48-.81l-.62-.98c-.78-1.14-1.44-2.35-1.27-3.41.04-.27.12-.57.24-.83.11-.26.24-.47.56-.61l1.63-.95.81-.47.41-.24c.15-.09.2-.08.3-.12l1.03-.33c2.76-.91,5.46-1.53,8.19-2.17l.03.08Z"/><path class="cls-1" d="m124.42,426.24c-.92-2.7-1.74-5.43-2.42-8.22-.65-2.8-1.33-5.58-1.46-8.67-.01-.28,0-.58,0-.86l.02-.45v-.22s.05-.31.05-.31c.08-.86.31-1.76.74-2.46.41-.71,1.09-1.27,1.89-1.46.79-.21,1.64-.09,2.43.26.36.13.69.34,1.03.54l.25.15.18.13.35.26c.45.37.92.82,1.24,1.25.69.87,1.17,1.75,1.58,2.62.83,1.74,1.44,3.47,2.05,5.17,1.2,3.4,2.36,6.75,3.98,9.85,1.43,2.73,3.29,5.27,5.72,6.93,1.55,1.07,3.31,1.77,5.15,2.13,1.85.36,3.77.3,5.76.3,1.29.25,1.18.3.21,1.1-.94.82-3,1.85-5.66,1.63-2.32-.18-4.68-.93-6.68-2.22-2.01-1.28-3.65-2.97-5-4.78-2.68-3.66-4.24-7.75-5.6-11.73-.82-2.38-1.67-4.8-2.77-6.93-.54-1.05-1.2-2.03-1.86-2.55-.47-.34-.54-.39-.75-.48-.19-.08-.43-.1-.59.05-.17.17-.22.4-.27.65v.1s-.03.21-.03.21c0,.15-.02.3-.02.46-.01.31,0,.63,0,.95.04,1.3.21,2.65.43,4,.44,2.71,1.17,5.4,1.96,8.06.99,3.28,2.14,6.52,3.47,9.68,1.01,2.39,2.11,4.76,3.36,7.01.63,1.13,1.3,2.22,2.03,3.25.74,1.01,1.55,1.99,2.45,2.66.34.25.71.46,1.02.53l1.44.33c.97.21,1.94.4,2.9.54,1.94.3,3.86.43,5.77.39.84-.03,1.66-.11,2.53-.18,1.6-.16,2.77-.09,3.57.07.4.08.72.21.97.36.25.18.45.4.61.61.15.19.35.37.43.52.14.26-.14.47-.74.78-.3.18-.66.29-1.1.37-.44.11-.94.2-1.52.3-1.71.3-3.64.5-5.6.49-1.96,0-3.91-.25-5.82-.59-.96-.17-1.91-.36-2.85-.59l-1.42-.34c-.83-.23-1.42-.6-1.96-.97-1.99-1.51-3.1-3.19-4.24-4.87-1.63-2.51-2.92-5.11-4.12-7.74-1.19-2.64-2.25-5.32-3.21-8.03l.07-.03Z"/><path class="cls-1" d="m132.27,442.09c-.95-1.56-1.75-3.16-2.5-4.76-.73-1.61-1.49-3.21-2.14-4.84-.47-1.2-.97-2.38-1.36-3.6-1.37-4.31-2.48-8.68-3.26-13.14-.33-1.98-.67-3.97-.76-6.03-.02-.66-.03-1.33.04-2.03.09-.7.21-1.43.69-2.21.49-.82,1.6-1.37,2.57-1.08.25.06.48.11.64.21.19.08.35.18.5.28.31.21.6.4.81.69.44.82.29.74-.55.82-.42.07-.95.04-1.42.15-.27.04-.3.13-.32.19-.02.06.01.11,0,.1.03-.01-.14.37-.17.85-.05.48-.08,1.04-.06,1.61.03,1.15.17,2.36.35,3.58.35,2.44.85,4.92,1.37,7.41.62,2.99,1.79,5.97,2.88,8.89.62,1.6,1.2,3.22,1.84,4.81.63,1.6,1.38,3.14,2.16,4.65.98,1.84,2.06,3.67,3.42,5.09.51.53,1.08.98,1.61,1.16.7.21,1.53.43,2.29.62,1.55.39,3.12.69,4.69.87,2.45.28,4.81.1,7.25-.22.54-.06,1.07-.16,1.64-.19,1.04-.1,1.76.03,2.25.18.24.08.43.19.59.33.15.16.27.35.36.53.09.17.21.32.26.45.15.38-.71,1.06-2.11,1.23-2.07.32-4.4.64-6.84.65-2.44.01-4.9-.29-7.28-.78-.88-.19-1.77-.37-2.63-.61l-.65-.17-.33-.08-.17-.05-.26-.09c-.7-.24-1.22-.58-1.67-.92-1.76-1.4-2.77-2.96-3.79-4.52l.06-.04Z"/><path class="cls-1" d="m152.63,437.31c-1.03-3.04-1.95-6.12-2.71-9.25-.74-3.14-1.47-6.29-1.73-9.64-.07-1.23-.12-2.48.06-3.84.05-.34.11-.69.21-1.06.03-.16.12-.4.2-.62.07-.22.17-.44.29-.67.46-.88,1.21-1.62,2.16-1.91.83-.24,1.74-.2,2.57.11.79.27,1.31.58,1.8.91.5.34.93.66,1.38,1.06.22.2.45.41.66.61l.58.64c1.47,1.74,2.47,3.6,3.44,5.43,1.89,3.68,3.48,7.4,5.37,10.93,1.68,3.11,3.61,6.14,6.06,8.5,1.56,1.52,3.39,2.69,5.35,3.43,1.97.77,4.1.85,6.3.82,1.43.21,1.32.26.21,1.1-.55.46-1.42.83-2.55,1.18-1.13.26-2.56.37-4.03-.02-2.64-.6-4.99-2.04-6.89-3.77-1.93-1.72-3.47-3.72-4.82-5.76-2.69-4.11-4.62-8.49-6.6-12.73-1.18-2.51-2.52-5.06-4.23-7-.45-.48-.84-.85-1.38-1.24-.49-.37-1.11-.73-1.47-.86-.25-.1-.48-.12-.69,0-.1.06-.17.16-.24.26-.05.11-.1.19-.17.47-.28,1.18-.27,2.72-.16,4.21.1,1.51.31,3.04.57,4.58.52,3.07,1.34,6.11,2.23,9.12,1.12,3.71,2.41,7.37,3.93,10.93,1.16,2.69,2.41,5.35,3.91,7.83.75,1.23,1.57,2.43,2.5,3.42.46.48.97.96,1.47,1.18.13.05.23.11.38.16l.48.13c.31.1.67.15,1.01.22,4.37.75,8.9.72,13.35.65.98-.04,1.94-.08,2.93-.12,3.66-.08,4.78.04,5.66.85.2.16.46.3.59.43.44.34-1.02,1.49-3.82,1.79-4.12.49-8.33.44-12.62.22-2.15-.13-4.29-.3-6.56-.71l-.86-.17c-.3-.07-.62-.17-.93-.25-.27-.06-.72-.26-1.11-.44-.21-.09-.38-.19-.53-.3-.15-.11-.32-.21-.45-.32-1.12-.88-1.89-1.81-2.61-2.75-2.08-2.79-3.55-5.72-4.94-8.69-1.36-2.97-2.56-6-3.64-9.05l.07-.03Z"/><path class="cls-1" d="m176.94,433.28c-.2-1.61-.37-3.22-.52-4.84-.05-.59-.18-1.17-.21-1.77-.12-2.09-.11-4.2.02-6.31.06-.94.09-1.89.2-2.84.02-.31.09-.61.16-.92.06-.31.16-.62.28-.93.1-.31.3-.61.46-.9.23-.28.44-.56.78-.76.4-.26.53.16.63.67.04.24.11.51.17.78.04.24.11.54.03.76-.09.47-.13.96-.18,1.49-.08.52-.14,1.06-.19,1.61-.11,1.11-.16,2.26-.25,3.44-.1,1.41.16,2.87.28,4.31.14,1.59.3,3.19.5,4.78.12.98.25,1.96.4,2.94.24,1.48.45,2.97.74,4.44.23,1.14.6,2.22.87,3.34.05.25.12.49.16.74.15.94.06,1.28-.33,1.56-.09.06-.17.14-.27.18-.31.13-.64-.18-.94-.82-.22-.48-.43-.97-.65-1.45-.18-.5-.35-1-.52-1.52-.32-1.03-.61-2.08-.87-3.14-.36-1.58-.58-3.21-.84-4.82h.06Z"/><path class="cls-1" d="m373.25,227.39c-3.86,11.23-11.12,10.07-11.12,10.07-7.47-.2-11.85-5.94-11.2-6.31,0,0,7.36,2.95,9.57,1.63,2.21-1.31,12.75-5.39,12.75-5.39Z"/><path class="cls-1" d="m222.57,201.36c-2.99,5.82-7.2,4.46-7.2,4.46-10.86-2.79-12.21-18.79-12.21-18.79,0,0,8.55,9.7,10.4,10.91,4.04,2.63,9.01,3.42,9.01,3.42Z"/><path class="cls-1" d="m237.04,197.5c-1.82,1.58-4.04,2.71-6.33,3.51-1.18.31-2.35.67-3.58.73-.6.04-1.21.18-1.81.12l-1.81-.08c-1.73-.18-3.48-.46-5.05-.96-5.64-1.7-10.99-4.82-14.89-9.27-1.73-1.96-3.26-4.1-4.55-6.33-1.62-2.87-3.11-5.93-3.36-9.26.07-1.08.17-.95.94-.29.84.64,1.93,1.89,2.69,3.5,1.21,2.91,2.66,5.7,4.48,8.21,1.83,2.5,4.01,4.73,6.53,6.62,3.01,2.3,6.87,3.62,10.65,4.56,4.04.93,8.42.58,11.99-1.7l.82-.51c.28-.16.55-.34.79-.56l1.51-1.24c.47-.46.91-.95,1.37-1.42.47-.46.87-.99,1.26-1.52,2.44-3.19,4.26-6.92,5.52-10.77.44-1.52.9-3.01,1.15-4.56l.44-2.3.31-2.32c.09-.68.16-1.35.29-2.03.18-1.27.35-2.1.59-2.68.27-.57.56-.88.93-1.12.17-.11.34-.26.49-.32.26-.1.45.12.62.62.16.5.34,1.28.3,2.25-.01.72,0,1.46-.05,2.19-.05.73-.16,1.47-.25,2.2-.15,1.48-.46,2.96-.79,4.44-.63,2.98-1.64,5.93-2.86,8.82-1.87,4.26-4.53,8.36-8.29,11.5l-.05-.05Z"/><path class="cls-1" d="m205.93,154.99c.22,1.3.41,2.61.53,3.95.11,1.35.2,2.69.05,4.21-.02.19-.04.38-.08.59l-.06.31-.1.41c-.14.56-.4,1.08-.73,1.53-.65,1-1.96,1.04-3,1.23-.51-.05-.96-.04-1.42-.18-.44-.16-.93-.28-1.29-.55-.39-.24-.77-.49-1.05-.79-.31-.29-.6-.58-.82-.89-1.39-1.79-2.09-3.61-2.82-5.34-.3-.76-.59-1.51-.91-2.18l-.24-.5-.25-.43c-.08-.16-.16-.23-.24-.35-.06-.11-.17-.22-.29-.33-.88-.91-2.08-1.34-3.33-1.25-1.26.08-2.52.74-3.45,1.72-.97.98-1.49,2.27-1.64,3.69-.22,2.52.75,5.3,2.33,7.35,1.02,1.31,2.42,2.18,3.97,2.62.77.23,1.6.36,2.44.41.42.01.85.02,1.29,0,.43,0,.89.06,1.35.05,1.15.02,1.08.18.23.92-.43.34-1.06.96-1.96,1.27-.9.33-2.05.57-3.33.41-2.28-.22-4.49-1.51-6.04-3.2-.79-.86-1.4-1.79-1.91-2.75-.51-.97-.92-1.99-1.21-3.06-.57-2.13-.61-4.54.25-6.8.89-2.28,2.67-4.07,4.88-4.97,1.31-.55,2.81-.75,4.27-.52,1.47.21,2.84.96,3.88,1.94.27.22.52.54.76.85.24.31.38.6.57.9.32.58.59,1.15.83,1.71.45,1.07.91,2.14,1.36,3.21.5,1.11,1.05,2.17,1.73,2.93l.52.49c.19.09.35.26.54.32.19.04.35.18.56.15.21,0,.39.06.49.03.12-.02.26-.01.37-.08.11-.06.18-.18.24-.29.02-.06.05-.12.07-.18.02-.05.03-.13.06-.28.04-.25.07-.53.09-.82.06-1.15-.03-2.39-.18-3.62-.39-3.02-1-6.17-1.94-9.02-.27-.7-.49-1.7-.16-2.49.3-.81,1.05-1.44,1.78-1.79,1.31-.63,2.48-.86,3.67-1.17,2.35-.55,4.64-1.07,6.78-1.92,1.66-.65,3.22-1.48,4.59-2.52,1.37-1.04,2.54-2.28,3.5-3.66.2-.31.41-.62.6-.93.17-.33.35-.65.54-.97,1.31-2.44,1.74-3.26,2.7-3.61.22-.08.45-.22.64-.25.33-.06.52.24.57.85.02.31.01.69-.03,1.14-.08.45-.2.96-.36,1.53-1.1,3.35-3.48,6.51-6.57,8.68-3.07,2.22-6.7,3.45-10.11,4.33-1.26.33-2.52.62-3.62.96-.28.08-.53.17-.77.26-.13.04-.21.09-.32.13l-.21.09c-.11.06-.05.02-.08.04,0,0,0,.01,0,.02,0,.01,0,0,0,.03l.16.47c.23.7.4,1.35.57,2,.33,1.3.61,2.6.85,3.91l-.08.02Z"/><path class="cls-1" d="m187.08,102.27c2.29-1.35,4.68-2.53,7.14-3.54.61-.26,1.24-.48,1.86-.73.65-.22,1.29-.46,1.94-.64,1.3-.4,2.61-.68,3.93-.94,1.92-.36,3.84-.68,5.79-.78,6.82-.33,13.74.68,20.03,3.47,2.78,1.24,5.44,2.84,7.76,4.83,1.49,1.28,2.84,2.77,3.86,4.46.24.44.5.86.7,1.31l.59,1.35c.33.92.58,1.87.75,2.83.21,1.19-.09,1.09-.84.32-.37-.39-.89-.92-1.54-1.51-.31-.3-.6-.63-.95-.96-.33-.34-.63-.71-.97-1.07-2.22-2.68-4.69-5.06-7.73-6.86-3.02-1.8-6.42-3.11-9.98-4.04-4.29-1.1-9.01-1.1-13.51-.64-2.49.24-4.95.72-7.32,1.44-2.34.75-4.7,1.77-6.95,2.9-2.77,1.42-5.44,3.06-7.93,4.94-3.76,2.84-7.22,6.2-9.74,10.12-1.95,3.04-3.16,6.43-3.49,9.86-.05.38-.05.75-.06,1.13-.02.37-.02.75,0,1.13-.02,1.41.09,2.33.04,3-.1.69-.19,1.11-.44,1.5-.11.18-.2.41-.31.53-.19.21-.45.04-.81-.46-.36-.5-.81-1.34-1.04-2.52-.78-3.49-.25-7.31,1.01-10.77,1.26-3.49,3.31-6.65,5.71-9.42,3.56-4.13,7.87-7.49,12.46-10.28l.05.07Z"/><path class="cls-1" d="m218.46,222.42c-1.32.22-2.59.09-3.74-.18-1.15-.28-2.2-.7-3.2-1.19-.73-.34-1.45-.67-2.11-1.11-2.31-1.54-4.32-3.34-6.27-5.16-.85-.82-1.7-1.64-2.55-2.46-1.11-1.01-2.07-2.19-2.93-3.43-.27-.39-.15-.41.26-.27.4.16,1.16.42,1.9.88,2.51,1.74,4.82,3.59,7.05,5.59,1.35,1.19,2.99,2.08,4.56,2.89,1.71.92,3.52,1.68,5.29,1.75.54,0,1.07-.03,1.57-.18.25-.07.49-.19.75-.28.25-.09.45-.27.68-.39.63-.46,1.15-1.08,1.51-1.84.36-.76.56-1.63.65-2.52.13-1.39-.1-2.8-.29-4.23-.04-.31-.11-.63-.13-.95-.04-.6-.01-1.01.13-1.3.07-.15.15-.26.27-.36.13-.1.29-.18.44-.25.14-.07.27-.15.38-.19.32-.12,1.03.33,1.27,1.18.39,1.27.63,2.64.74,4.1.09,1.46.05,3.03-.43,4.69-.38,1.22-1.09,2.48-2.15,3.44-.51.5-1.13.86-1.73,1.18l-.93.39c-.32.12-.66.19-.99.27l-.02-.07Z"/><path class="cls-1" d="m149.43,322.46c-1.48-2.58-2.18-5.36-2.69-8.1-.52-2.75-.59-5.49-.62-8.22.09-5.44.84-10.78,1.93-16.02.79-3.82,1.72-7.61,2.88-11.32,4.14-13.07,9.99-25.5,17.03-37.17,3.14-5.17,6.5-10.25,10.08-15.06,1.15-1.55,2.34-3.07,3.52-4.6,1.24-1.49,2.42-3.02,3.72-4.45,1.29-1.44,2.56-2.9,3.94-4.25,1.34-1.39,2.77-2.7,4.24-3.95,1.87-1.52,1.96-.94.99.96-.98,1.89-3.02,5.02-5.83,8.33-5,5.87-9.55,12.11-13.73,18.61-4.13,6.53-8.19,13.15-11.71,20.11-4.25,8.31-7.67,17.47-10.17,26.66-1.38,5.05-2.49,10.17-3.12,15.35-.63,5.16-.71,10.41.21,15.43.62,3.06,1.7,6.04,3.65,8.34,1.95,2.32,4.61,4.08,7.47,5.41,2.18.99,4.47,1.78,6.81,2.44,2.35.62,4.74,1.13,7.16,1.51,4.83.76,9.73,1.13,14.61,1.2,7.59.11,15.02-.47,22.46-1.36,1.64-.2,3.23-.44,4.88-.66,1.52-.21,2.79-.38,3.85-.53,1.06-.13,1.93-.17,2.64-.21,1.43-.07,2.28,0,3,.19.33.09.75.15.95.25.69.32-1.7,1.38-6.18,2.43-6.68,1.28-13.63,2.09-20.71,2.49-7.08.41-14.3.31-21.55-.35-2.69-.25-5.38-.61-8.06-1.14-2.68-.51-5.36-1.17-7.99-2.11-2.63-.93-5.22-2.1-7.63-3.73-2.4-1.61-4.61-3.79-6.09-6.43l.06-.05Z"/><path class="cls-1" d="m250.17,304.6c-1.07-.06-2.53.11-3.84.2l-4.03.29-8.08.53c-1.97.12-3.93.3-5.9.37-6.95.27-13.93.24-20.88-.24l-2.32-.15-2.32-.22c-1.54-.12-3.08-.33-4.61-.53-.98-.11-1.96-.27-2.94-.45-.98-.19-1.96-.31-2.93-.57-.97-.26-1.91-.58-2.86-.88-.94-.34-1.82-.85-2.72-1.27-1.11-.57-.88-.66.22-.67,1.11,0,3.08-.09,5.25.23,3.8.79,7.68,1.37,11.62,1.67,1.96.23,3.94.31,5.91.47,1.99.08,3.97.23,5.97.28,4.79.19,9.78-.14,14.68-.44,5.39-.31,10.78-.75,16.19-1.2.84-.06,1.64-.15,2.52-.18.9.01,1.81-.06,2.7.14,1.8.21,3.49.95,5.02,1.84,2.3,1.43,4.16,3.42,5.57,5.64l.53.84.46.88c.32.58.58,1.18.82,1.79.28.6.45,1.24.66,1.86.11.26.19.73.28,1.16l.27,1.3.15,1.94c-.04.57-.09,1.16-.17,1.7l-.26.64c-.09.21-.14.44-.39.61-.4.38-1.08.54-1.52.38-.89-.28-1.57-.85-2.38-1.88-.39-.52-.78-1.13-1.16-1.78l-.98-1.71c-.41-.73-.85-1.41-1.27-2.1-1.6-2.55-2.12-3.1-2.1-4.17,0-.23-.07-.49-.05-.68.03-.32.38-.41,1.05-.21.67.2,1.53.81,2.39,1.75.63.7,1.2,1.44,1.73,2.18l.77,1.13.37.57.18.28.08.12.02.02c.22.21.28.2.35.14.08-.13-.03-.28-.03-.28v-.02s-.31-.92-.31-.92c-.11-.39-.26-.77-.42-1.15-.16-.38-.29-.77-.5-1.13-1.07-2.19-2.55-4.21-4.39-5.72-1.85-1.51-4.1-2.32-6.41-2.36v-.07Z"/><path class="cls-1" d="m255.91,315.15c.43.69.82,1.42,1.21,2.14.14.26.33.49.46.76.44.96.76,1.98,1.04,2.98.13.44.29.87.41,1.31.07.28.17.56.23.85.05.29.06.59.03.89-.03.19-.34.23-.71.16-.37-.07-.83-.22-.98-.49-.27-.47-.57-.92-.8-1.39-.18-.49-.36-.98-.5-1.51-.17-.63-.61-1.16-.96-1.73-.37-.63-.77-1.25-1.19-1.87-.27-.37-.53-.75-.82-1.11-.45-.54-.87-1.12-1.38-1.59-.41-.36-.91-.61-1.34-.94-.1-.07-.2-.12-.29-.21-.17-.14-.24-.29-.2-.48.02-.18.11-.36.27-.6.07-.11.13-.22.21-.32.24-.33.64-.49,1.07-.47.55.14,1.06.35,1.54.61.45.3.85.66,1.25,1.03.59.55,1.03,1.26,1.52,1.92l-.05.04Z"/><path class="cls-1" d="m251.52,318.25c.52.68,1.07,1.34,1.5,2.11.17.27.39.49.53.79.51,1,.87,2.08,1.14,3.14.09.48.24.93.34,1.4.17.58.29,1.18.17,1.8-.04.19-.4.21-.8.12-.4-.09-.88-.28-1.01-.55-.47-1-.99-1.84-1.17-2.91-.14-.64-.63-1.12-1-1.65-.43-.58-.86-1.17-1.34-1.75-.3-.36-.61-.71-.94-1.04-.52-.5-1.01-1.05-1.59-1.51-.45-.36-1-.59-1.5-.94-.11-.07-.21-.16-.3-.25-.31-.41-.28-.66.1-1.13.09-.11.17-.22.26-.32.3-.32.72-.45,1.09-.39.25.06.58.07.79.18.22.09.46.2.68.32.44.24.88.53,1.32.85.66.44,1.2,1.12,1.8,1.71l-.05.05Z"/><path class="cls-1" d="m240.8,315.92c1.19.75,2.31,1.57,3.34,2.5.37.34.81.6,1.13.99,1.18,1.34,2.15,2.85,2.92,4.42.14.37.28.73.44,1.08.16.35.32.7.42,1.07.11.48.28.95.34,1.44.03.5.03.99,0,1.48-.03.3-.23.27-.53.07-.29-.21-.76-.57-.98-1.01-.17-.4-.49-.76-.7-1.12-.2-.37-.42-.73-.66-1.08-.22-.36-.43-.72-.67-1.07-.22-.36-.38-.77-.62-1.14-.29-.44-.6-.88-1.01-1.24-.42-.35-.81-.73-1.23-1.06-.89-.78-1.83-1.56-2.87-2.18-.62-.41-1.29-.75-1.97-1.07-.51-.23-1.05-.41-1.58-.62-.54-.12-1.08-.32-1.62-.37-.85-.1-1.69.05-2.4.28-.16.05-.3.14-.47.12-.58.04-.81-.06-1.25-.55-.1-.11-.2-.21-.29-.31-.29-.34-.19-.82.36-1.37.8-.84,1.91-1.01,2.92-1.16,1.02-.08,2.05-.02,3.01.19.73.15,1.38.45,2.07.7.66.29,1.3.62,1.93.94l-.03.07Z"/><path class="cls-1" d="m244.46,255.4c-.96-3.83-1.96-7.65-3.05-11.44-.4-1.38-.88-2.74-1.29-4.12-1.46-4.85-3.01-9.68-4.93-14.36-.85-2.07-1.84-4.1-2.9-6.04-.68-1.25-1.44-2.44-2.22-3.62l-1.15-1.77c-.41-.56-.79-1.16-1.17-1.77-.46-.78-.32-.78.47-.49.85.23,2.26.98,3.39,2.31,3.69,4.92,5.97,10.51,7.83,16.19,1.1,3.41,2.42,6.87,3.5,10.35,1.19,3.83,2.27,7.68,3.32,11.54.63,2.38,1.26,4.76,1.88,7.14.95,3.6,1.83,7.24,2.8,10.8.75,2.77,1.63,5.45,2.46,8.17.18.6.39,1.18.53,1.79.28,1.13.42,1.89.42,2.45-.02.56-.15.92-.39,1.24-.11.15-.2.33-.31.42-.19.17-.43.04-.73-.32-.3-.36-.68-.95-.98-1.75-.99-2.37-1.72-4.87-2.48-7.4-.75-2.53-1.44-5.12-2.11-7.72-.99-3.85-1.98-7.72-2.98-11.59l.06-.02Z"/><path class="cls-1" d="m181.6,287.44c-.57,1.13-1.09,2.29-1.54,3.49-.17.43-.24.9-.41,1.34-.56,1.55-1.09,3.13-1.54,4.74-.2.71-.3,1.45-.39,2.18-.09.94-.28,1.87-.65,2.78-.12.28-.47.21-.85-.08-.37-.29-.82-.81-.89-1.39l-.06-.76-.03-.38.04-.37c.05-.5.13-.99.22-1.48.18-.98.42-1.96.79-2.91.44-1.13.63-2.37,1-3.55.41-1.29.91-2.56,1.44-3.8.33-.77.69-1.52,1.06-2.27.54-1.14,1.21-2.22,1.81-3.32.49-.84.85-1.75,1.36-2.59.11-.19.2-.38.34-.55.5-.63.8-.72,1.39-.46.13.06.27.11.39.19.41.25.53.75.34,1.29-.53,1.62-1.37,3.02-2.08,4.55-.26.56-.56,1.11-.86,1.67-.27.57-.58,1.12-.82,1.71l-.06-.02Z"/><path class="cls-1" d="m283.45,308.41c.11.75.11,1.52.12,2.27,0,.27.07.54.05.81-.07.97-.16,1.92-.37,2.84-.09.41-.13.82-.18,1.22-.05.52-.1,1.04-.35,1.52-.08.15-.33.09-.6-.09-.26-.17-.57-.46-.6-.74-.08-1.02-.29-1.98-.07-2.96.12-.59-.06-1.2-.13-1.79-.07-.66-.17-1.31-.29-1.97-.06-.41-.14-.81-.24-1.21-.16-.6-.31-1.22-.6-1.78-.24-.43-.57-.8-.82-1.21-.05-.09-.13-.17-.18-.26-.13-.38.08-.63.45-.93.09-.07.17-.15.26-.21.28-.2.65-.21,1.07-.08.54.24.89.61,1.27.97.31.4.49.88.68,1.36.27.71.43,1.47.59,2.21l-.06.02Z"/><path class="cls-1" d="m277.62,309.71c.19.71.35,1.41.5,2.11.06.25.18.49.22.75.17.91.22,1.84.34,2.74.05.4.16.79.24,1.18.12.5.28.99.19,1.52-.03.17-.35.22-.72.16-.36-.06-.79-.21-.91-.47-.45-.93-.72-1.89-.8-2.93-.04-.62-.36-1.19-.51-1.79-.18-.66-.35-1.32-.56-1.97-.12-.4-.25-.8-.4-1.19-.22-.6-.46-1.19-.76-1.74-.24-.42-.6-.77-.91-1.13-.07-.08-.15-.15-.21-.23-.13-.37-.04-.58.29-.92.08-.08.15-.16.23-.23.26-.23.61-.27.98-.13.3.08.49.24.68.41.19.17.38.34.54.53.32.39.65.78.84,1.24.31.67.55,1.38.78,2.07l-.05.02Z"/><path class="cls-1" d="m276.23,295.26c2.44-.09,4.99.6,7.01,1.96l1.06.78c.18.13.35.25.53.4.17.18.34.36.5.55,1.09,1.35,1.54,2.88,1.82,4.34.27,1.47.33,2.93.29,4.38-.04,1.28-.2,2.56-.4,3.81-.28,1.59-.69,3.23-1.66,4.62-.3.43-.45.22-.49-.27-.02-.49-.02-1.25.13-2.1.31-1.49.41-3.05.41-4.58,0-1.53.05-3.07-.13-4.59-.18-1.82-.97-3.6-2.23-4.56-1.51-1.33-3.38-2.11-5.39-2.27-.62-.03-1.25-.03-1.88.01-.63.09-1.27.12-1.89.3-1.91.43-3.83,1.08-5.68,1.9-.72.32-1.42.66-2.14,1.01-.7.36-1.44.69-2.23.92-.35.1-.69.22-1.05.3-1.4.24-1.94-.03-2.18-.48-.06-.11-.13-.21-.15-.31-.06-.36.45-.6,1.21-.87,1.17-.4,2.31-1.24,3.6-1.81,1.27-.62,2.61-1.28,4.02-1.86,2.08-.89,4.41-1.51,6.88-1.64v.06Z"/><path class="cls-1" d="m426.38,321.83c1.4,6.42,2.46,12.93,3.02,19.51.25,3.29.42,6.6.32,9.92-.04,3.32-.35,6.66-1,9.98l-.38,1.81-.52,1.8c-.29,1.21-.87,2.36-1.32,3.53-.22.59-.59,1.12-.87,1.68-.32.54-.58,1.13-.96,1.63-.76,1.02-1.44,2.09-2.36,2.97-3.05,3.26-6.96,5.68-11.16,6.97-4.19,1.33-8.59,1.76-12.91,1.45-4.33-.31-8.55-1.58-12.47-3.14-3.96-1.56-7.73-3.51-11.37-5.67-6.44-3.85-12.46-8.45-17.85-13.57-.3-.3-.57-.51-.9-.88-.67-.58-.76-1.65-.74-2.25.02-.67.13-1.3.28-1.89.3-1.2.77-2.3,1.31-3.36,1.09-2.12,2.52-4.03,4.19-5.69,3.37-3.31,7.71-5.55,12.25-6.46,1.48-.3,2.14-.25,2.12-.11-.01.17-.71.45-1.86.95-2.3.95-6.4,2.99-9.99,6.64-1.64,1.6-3.08,3.42-4.14,5.41-.53.99-.96,2.03-1.24,3.05-.13.5-.22,1.01-.24,1.43-.01.18.02.44.02.43-.01.01.02-.02-.02.02.03-.06.12.09.2.15l.24.23.49.45c.33.3.65.61.98.9.67.58,1.32,1.18,2,1.75,1.35,1.15,2.73,2.26,4.12,3.36,2.78,2.19,5.68,4.24,8.68,6.12,3,1.88,6.11,3.59,9.33,5.07,3.2,1.46,6.57,2.79,9.91,3.6,2.71.66,5.55.91,8.38.82,2.83-.1,5.69-.53,8.37-1.48,5.37-1.82,10.15-5.45,12.79-10.43,1.5-2.69,2.43-5.7,2.97-8.83.5-3.14.73-6.35.76-9.57.02-6.45-.68-12.94-1.73-19.35-1.29-7.9-3.25-15.71-5.58-23.38-3.59-11.6-8.13-23.01-13.79-33.67-4.44-8.25-9.51-15.97-15.41-23.03-.32-.39-.64-.78-.97-1.17l-1.01-1.11c-.68-.74-1.34-1.5-2.01-2.27-5.15-5.53-7.03-7.02-7.85-8.62-.19-.36-.48-.79-.56-1.04-.13-.43.47-.24,1.69.49.6.37,1.38.86,2.26,1.5.85.67,1.84,1.48,2.93,2.4,3.12,2.85,6.19,5.88,8.9,9.26.71.82,1.38,1.67,2.04,2.54.66.86,1.34,1.72,1.99,2.6,1.25,1.78,2.57,3.55,3.73,5.41,2.44,3.66,4.62,7.51,6.75,11.4,2.05,3.93,4.05,7.91,5.83,12,5.35,12.1,9.53,24.76,12.43,37.71l-.07.03Z"/><path class="cls-1" d="m391.66,348.31c-.69-.2-1.38-.37-2.03-.65l-.99-.38-.96-.45c-.47-.21-.93-.41-1.37-.67-1.55-.91-2.91-1.99-4.31-2.91-.3-.22-.62-.41-.94-.58-.32-.18-.65-.35-.98-.47-.21-.08-.43-.18-.64-.25-.22-.07-.45-.1-.66-.2-.42-.22-.87-.33-1.34-.5-.29-.11-.25-.16.01-.27.26-.09.78-.4,1.41-.46.14,0,.28-.02.42-.01l.4.07c.28.03.52.13.78.2.53.14,1.02.34,1.49.56.97.41,1.79,1.01,2.59,1.6.95.71,2.04,1.22,3.1,1.71.57.29,1.17.5,1.76.75.61.18,1.2.43,1.83.55l1.16.26c.39.08.79.11,1.18.17l.9.12.91.04c.61.02,1.21.07,1.82-.01.94-.09,1.84-.32,2.76-.49.2-.04.4-.09.6-.11.77-.01,1.04.14,1.29.56.06.1.12.19.16.28.13.31-.13.65-.68.96-.4.25-.83.41-1.26.57l-.66.24c-.22.07-.45.08-.68.12-.92.11-1.86.25-2.82.2-1.41,0-2.86-.14-4.26-.48v-.06Z"/><path class="cls-1" d="m316.73,273.27c1.93-2.98,3.95-5.89,6.08-8.73.75-1.05,1.48-2.12,2.28-3.13,2.84-3.57,5.78-7.06,9-10.28.69-.73,1.4-1.46,2.11-2.17.7-.72,1.41-1.44,2.11-2.16,1.86-1.77,3.65-3.65,5.91-4.96.69-.42.68-.27.36.4-.19.41-.41.88-.64,1.37-.29.53-.71,1.07-1.21,1.6-1.72,1.94-3.49,3.8-5.2,5.72-1.72,1.92-3.41,3.87-5.19,5.77-2.14,2.27-3.97,4.96-5.85,7.53-1.04,1.41-2.03,2.86-3.04,4.29-.97,1.47-1.98,2.9-2.92,4.38l-1.76,2.73-1.69,2.77c-1.68,2.82-3.32,5.68-4.79,8.58-1.11,2.28-2.08,4.57-3.08,6.86-.22.51-.43,1-.65,1.51-1,1.8-1.51,2.29-2.24,2.44-.17.03-.34.1-.49.1-.47,0-.48-.93-.12-2.44,1.2-4.42,3.23-8.76,5.53-12.97.83-1.58,1.75-3.12,2.63-4.67.93-1.53,1.84-3.07,2.79-4.59l.07.04Z"/><path class="cls-1" d="m348.42,445.88c-12.91,2.98-25.92,5.38-38.96,7.49-4.76.77-9.51,1.59-14.28,2.26-16.82,2.36-33.71,4.19-50.64,5.51-7.51.57-15.07,1.08-22.55,1.41-4.8.2-9.62.4-14.45.26-4.82-.16-9.69-.36-14.44-1.66-.74-.22-1.26-.42-1.57-.61-.32-.17-.44-.28-.39-.33.1-.13.84.05,2.1.12,2.53.19,7.14-.17,12.61-.22,2.42-.01,4.85-.15,7.28-.2,2.43-.06,4.86-.14,7.3-.26,4.87-.22,9.74-.52,14.61-.87,9.75-.73,19.52-1.46,29.33-2.38,11.74-1.08,23.88-2.86,35.8-4.69,13.1-2.01,26.17-4.3,39.13-7.09,7.97-1.72,15.91-3.61,23.74-5.83,5.93-1.68,11.82-3.55,17.57-5.74,5.71-2.24,11.38-4.73,16.27-8.22l1.38-1.05,1.29-1.13c.41-.39.79-.81,1.18-1.21.35-.42.66-.86.99-1.29,1.2-1.84,1.93-4.03,2.46-6.23.53-2.22.86-4.5,1.04-6.8.21-2.3.24-4.62.26-6.94-.03-1.03-.05-2.04-.08-3.06-.05-1.02-.1-2.03-.15-3.07-.57-7.66-.59-10.13-.04-11.88.13-.4.23-.92.37-1.16.24-.41.57.15,1,1.53.43,1.37.96,3.56,1.33,6.42.51,4.24.82,8.57.79,12.99-.04,4.41-.36,8.92-1.57,13.46-.63,2.26-1.44,4.54-2.89,6.69-.4.51-.79,1.07-1.21,1.54l-1.29,1.31-1.36,1.19c-.46.38-.94.72-1.41,1.09-3.81,2.78-7.93,4.86-12.09,6.72-6.2,2.72-12.58,4.9-19,6.84-6.43,1.93-12.91,3.63-19.42,5.16l-.04-.08Z"/><path class="cls-1" d="m361.96,399.09c-3.97,1.6-7.95,3.17-11.95,4.69-1.46.55-2.89,1.17-4.36,1.71-5.18,1.87-10.41,3.58-15.64,5.26-2.32.74-4.63,1.56-6.92,2.34-1.47.49-2.95.99-4.42,1.49-1.48.48-2.97.93-4.53,1.15-.99.07-.94-.2-.32-.94.31-.38.78-.82,1.36-1.3.59-.45,1.33-.84,2.16-1.15,5.92-2.24,11.93-4.12,18.02-6,3.65-1.1,7.3-2.65,10.93-4.06,3.99-1.54,7.97-3.13,11.92-4.79,2.44-1.01,4.87-2.04,7.28-3.1,3.64-1.59,7.39-3.23,10.88-4.91.1-.05.19-.1.29-.15.09-.01.14-.06.21-.1.07-.04.16-.06.12-.15-.01-.15-.01-.3-.01-.44,0-.1,0-.47.02-.75l.03-.88.06-1.75.14-3.48c.03-.67.03-1.33.08-2,.09-1.25.18-2.06.4-2.61.13-.27.26-.48.43-.66.19-.17.4-.3.59-.43.19-.12.32-.25.43-.37.11-.09.18-.1.33,0,.06.05.14.13.22.25.07.1.15.2.24.32.4.52.53,1.26.55,2.2.02,1.73-.03,3.48-.11,5.24-.05.88-.1,1.76-.15,2.64l-.08,1.32-.04.65-.02.32c-.02.15.01.43-.09.62-.19.4-.38.82-.57,1.23-.09.19-.19.39-.28.59-.09.22-.23.4-.29.66l-1.09.48-.62.29-1.09.51c-.73.33-1.47.67-2.2,1.01-3.92,1.77-7.9,3.46-11.87,5.14l-.03-.07Z"/><path class="cls-1" d="m315.43,382.4l-.43,8.22c-.05,1,0,2-.08,3-.25,3.52-.5,7.05-.74,10.57-.11,1.56-.15,3.14-.2,4.69-.03,1-.05,2-.08,2.99-.01,1-.19,2-.3,2.99-.09.62-.23.54-.46.01-.2-.53-.64-1.49-.77-2.64-.15-2.04-.28-4.07-.36-6.11-.04-1.02-.06-2.04-.07-3.06.02-1.02.07-2.05.13-3.07.16-2.45,0-5.01.02-7.52l.25-8.28.15-5.1c.06-2.57.14-5.16.14-7.71,0-1.99-.25-3.93-.23-5.9,0-.43-.04-.86,0-1.29.02-.4.05-.74.1-1.02.06-.28.16-.51.24-.69.18-.37.38-.59.65-.76.12-.08.23-.18.34-.23.34-.15.72.5,1.12,1.69.18.88.36,1.77.48,2.67.14.9.26,1.81.29,2.72.09,1.83.15,3.68.13,5.54-.04,2.76-.17,5.53-.25,8.3h-.08Z"/><path class="cls-1" d="m232.79,356.43c-.24,2.92-.39,5.85-.52,8.77-.06,1.07,0,2.14-.03,3.2-.12,3.77-.15,7.54.06,11.3.06,1.67.31,3.34.5,4.98.16,1.05.32,2.11.47,3.16.06.53.19,1.05.21,1.58.03.54.04,1.07.05,1.62,0,.68-.3.65-.79.17-.25-.24-.55-.59-.87-1.03-.15-.22-.33-.46-.46-.73-.12-.27-.22-.56-.29-.86-1.03-4.34-1.35-8.8-1.32-13.25.02-2.67-.18-5.43-.18-8.15,0-1.5.05-2.99.08-4.48l.22-4.48.39-5.5c.2-2.77.51-5.55.72-8.3.17-2.14.18-4.25.4-6.36.04-.47.05-.93.12-1.39.12-.87.24-1.43.43-1.81.22-.38.46-.58.78-.72.15-.07.29-.16.42-.19.23-.05.4.11.56.45.15.34.31.86.3,1.5,0,1.9.04,3.84-.06,5.79-.13,1.95-.29,3.92-.46,5.9-.23,2.94-.5,5.88-.66,8.83h-.07Z"/><path class="cls-1" d="m304.85,356.18c-6.22-1.46-12.37-3.11-18.5-4.83-2.23-.63-4.49-1.18-6.71-1.84-7.83-2.33-15.62-4.78-23.41-7.22-3.46-1.08-6.95-2.1-10.4-3.1-2.22-.63-4.45-1.26-6.65-1.95-1.1-.34-2.2-.7-3.3-1.07l-1.64-.57c-.54-.2-1.07-.45-1.6-.68-1.32-.6-1.03-.89.29-1.06,1.34-.22,3.67-.2,6.24.49,4.57,1.17,9.05,2.58,13.57,3.93,4.51,1.38,9.02,2.78,13.53,4.26,5.4,1.76,11.13,3.2,16.72,4.73,6.15,1.67,12.31,3.35,18.49,4.85,3.81.92,7.63,1.8,11.47,2.47l.51.1c.11.02.2.05.29.02l.98-.2c.72-.14,1.44-.3,2.16-.47,1.44-.32,2.87-.71,4.3-1.09,2.86-.78,5.69-1.66,8.49-2.58,4.35-1.45,8.53-3.13,12.78-4.74.94-.35,1.84-.73,2.8-1.06,3.57-1.18,4.82-1.33,5.84-.67.23.13.5.25.64.38.45.44-.79,1.45-3.29,2.47-7.45,3.13-15.53,6.09-23.84,8.58-3.1.91-6.23,1.76-9.47,2.41l-.61.12-.55.11c-.1.02-.19.05-.29.05l-.29-.05-1.43-.27-2.4-.45-4.75-1v-.08Z"/><g><path class="cls-1" d="m340.89,336.06c1.65,1.2,3.35,2.35,5.11,3.37.64.38,1.34.66,2,1.04,2.36,1.25,4.81,2.89,6.79,4.89.92.85,1.72,1.81,2.49,2.76.95,1.24,1.71,2.63,2.33,4.05.19.45.06.46-.36.25-.41-.21-1.16-.58-1.87-1.12l-.91-.74c-.3-.24-.63-.45-.9-.71-.54-.51-1.08-1.02-1.63-1.49-.99-1.07-2.02-2.05-3.15-3-.68-.57-1.46-1.04-2.3-1.47-.82-.46-1.69-.88-2.53-1.37-1.87-1.06-3.68-2.26-5.42-3.51-1.07-.77-2.12-1.59-3.15-2.41-1.57-1.25-3.04-2.62-4.46-4.05-1.11-1.1-2.28-2.17-3.17-3.58-.18-.32-.43-.59-.54-.97-.22-.68-.35-1.13-.23-1.5.13-.37.33-.58.6-.75.12-.08.23-.17.35-.22.19-.08.39,0,.64.17.12.08.26.19.4.31.16.12.19.27.34.43.64.96,1.4,1.88,2.17,2.87.38.5.81.99,1.24,1.49.45.48.93.94,1.44,1.39,1.49,1.34,3.06,2.66,4.75,3.82l-.03.05Z"/><path class="cls-1" d="m362.02,312.66c.23.86.39,1.89.5,2.93.06.52.1,1.05.13,1.58l.05.77v.44c.05,1.16.05,2.32.03,3.46-.01.83.05,1.66.03,2.48-.07,2.9-.25,5.77.28,8.47.2,1.21.63,2.37,1.17,3.47.34.71.79,1.36,1.18,2.05.39.7.76,1.42,1.16,2.14.23.46-.02.58-.56.46-.53-.13-1.45-.46-2.17-1.18-.34-.3-.6-.67-.85-1.04-.26-.36-.49-.75-.72-1.14-.46-.78-.85-1.62-1.17-2.48-.68-1.73-.84-3.59-.82-5.35.03-2.11-.11-4.22-.11-6.29,0-1.14,0-2.26-.02-3.38l-.08-2.57c-.04-.66-.07-1.46-.32-2.23-.06-.15-.12-.31-.25-.42-.14-.11-.3-.04-.4.05-.19.19-.35.43-.43.71-.17.48-.25,1.05-.3,1.62-.06.62.01,2.65-.39,4.34-.08.39-.21.78-.4,1.17-.16.36-.42.65-.59.88-.22.22-.44.36-.62.46-.37.19-.71.11-.97-.05-.13-.08-.26-.15-.34-.25-.14-.17-.13-.41-.07-.65.03-.13.09-.22.13-.37.04-.15.1-.28.16-.43.31-.98.39-2.3.46-3.74,0-.38.13-2.32.28-3.76.05-.36.12-.69.18-1.04.07-.34.12-.73.23-.95l.29-.79c.1-.26.23-.39.34-.59.14-.23.29-.45.45-.66.16-.17.34-.32.53-.45.18-.15.41-.23.63-.32.37-.21,1.27-.16,1.61.03.75.35,1.35.97,1.82,2.54l-.05.1Z"/><path class="cls-1" d="m340.5,305.16c-.06-.38-.1-.74-.1-1.07-.02-.35-.04-.69.02-.94.03-.29.06-.56.14-.77.05-.24.13-.45.22-.63.18-.36.38-.67.72-.93.29-.27.98-.48,1.34-.42.29.09.51.18.75.29.12.06.24.11.36.18l.37.31c.71.63,1.5,1.83,2.15,3.14l.42.87.33.74.43,1.02.82,2.05,1.6,4.09c.46,1.21.99,2.4,1.52,3.56.35.74.64,1.51.94,2.27.32.75.52,1.56.83,2.3.18.44.05.51-.42.29-.44-.24-1.29-.74-1.89-1.52-.5-.71-1-1.42-1.43-2.15-.38-.76-.75-1.52-1.1-2.29-.72-1.53-1.31-3.11-1.88-4.7-.34-.95-.76-1.89-1.22-2.81l-.61-1.21c-.08-.15-.15-.3-.23-.46-.17-.35-.34-.79-.69-1.16-.09-.11-.25-.13-.34-.07-.09.06-.15.15-.18.25-.06.2-.07.42-.07.66,0,.28.04.59.09.92l.04.25.07.33c.07.34.16.67.24,1,.52,2.03,1.12,4.06,1.9,6,.6,1.51,1.41,2.9,2.13,4.31.16.31.32.61.48.92.53,1.18.48,1.65.24,2.15-.06.11-.1.24-.16.33-.18.28-.82.02-1.57-.74-1.05-1.16-1.85-2.48-2.5-3.89-.67-1.4-1.25-2.85-1.77-4.34-.39-1.1-.74-2.22-1.05-3.36-.16-.57-.3-1.14-.44-1.72l-.15-.64-.16-.81c-.11-.54-.21-1.08-.27-1.59l.07.03Z"/><path class="cls-1" d="m331,311.8c-.25-.42-.38-.77-.57-1.16-.14-.35-.25-.68-.34-.98-.11-.56-.1-.99-.05-1.38.08-.39.14-.72.47-1.15.15-.23.52-.45.74-.49.23-.06.4-.05.6-.02.58.15,1,.07,1.85.63.74.5,1.63,1.32,2.5,2.24.86.9,1.73,1.85,2.47,2.69l2.82,3.3c.82.98,1.71,1.91,2.59,2.82,1.12,1.18,2.17,2.41,3.15,3.72.31.41.17.48-.33.39-.48-.11-1.42-.28-2.24-.81-.7-.5-1.4-.99-2.05-1.53-.61-.58-1.2-1.17-1.79-1.77-1.18-1.19-2.25-2.48-3.3-3.79l-.48-.58-.12-.14-.03-.05s-.05-.06-.07-.09c-.1-.13-.21-.26-.33-.38l-.74-.73c-.16-.16-.34-.34-.54-.5-.1-.08-.22-.17-.34-.2-.13-.02-.23.05-.25.13-.08.32.08.66.25,1.05.22.47.54,1.02.94,1.62,1.13,1.64,2.41,3.39,3.76,4.94,1.05,1.23,2.25,2.27,3.37,3.39.24.25.5.47.74.73.85.98.94,1.46.83,2-.03.12-.04.26-.08.36-.11.31-.77.22-1.69-.27-1.3-.78-2.46-1.77-3.5-2.87-1.06-1.09-2.07-2.26-3.04-3.47-.72-.89-1.42-1.82-2.09-2.76l-.64-.9-.93-1.37c-.6-.91-1.15-1.8-1.64-2.65l.1.04Z"/><path class="cls-1" d="m334.85,326.36c-.79-.73-1.55-1.49-2.27-2.29-.26-.3-.56-.55-.81-.85-.88-1.07-1.53-2.28-2.24-3.41-.31-.51-.66-.99-.99-1.47-.43-.62-.79-1.28-1.07-2-.08-.23.07-.29.36-.25.28.05.74.17,1.08.45.28.26.58.51.85.78l.71.87c.47.59.91,1.18,1.32,1.81.5.74,1.18,1.38,1.79,2.03.67.73,1.38,1.42,2.14,2.08.46.41.95.8,1.44,1.19.76.57,1.49,1.2,2.3,1.71.62.4,1.31.69,1.96,1.04.15.07.28.16.41.26.47.38.53.64.36,1.11-.04.11-.07.22-.11.32-.15.32-.55.46-1.02.37-.72-.11-1.34-.38-1.95-.71-.61-.32-1.2-.68-1.79-1.06-.89-.55-1.69-1.24-2.52-1.93l.03-.05Z"/></g><path class="cls-1" d="m341.9,293.33c-3.01,1.01-6,2.1-8.89,3.32-1.44.62-2.87,1.26-4.2,1.98l-.97.56-.89.59c-.23.2-.55.41-.68.58-.19.19-.13.09-.26.43-.29.85-.46,2.05-.62,3.16l-.44,3.43c-1.04,8.15-2.03,16.4-3.42,24.58-.6,3.63-1.24,7.28-2.06,10.86-1.03,4.57-2.21,9.29-4.88,13.31-.83,1.24-.9.95-.73-.33.1-.63.18-1.55.29-2.61.12-1.07.36-2.26.67-3.53.16-.56.26-1.14.41-1.7.16-.56.3-1.13.44-1.69.29-1.13.53-2.27.79-3.42.5-2.29.89-4.61,1.33-6.93.87-4.64,1.62-9.34,2.36-14.07.91-5.67,1.25-11.62,2.07-17.52.12-.81.25-1.63.4-2.46.1-.43.16-.83.28-1.27.12-.44.21-.87.51-1.44.16-.3.32-.58.54-.78.18-.18.37-.42.55-.54.37-.3.73-.6,1.1-.83.37-.26.74-.48,1.1-.69.37-.22.74-.43,1.11-.61,2.97-1.55,6.01-2.73,9.07-3.88,3.76-1.39,7.57-2.64,11.38-3.83,5.78-1.79,11.65-3.36,17.46-4.88,4.52-1.17,8.93-2.41,13.46-3.4,1-.23,1.97-.46,2.99-.62,3.78-.59,5.05-.44,5.94.22.2.15.46.3.59.46.42.55-1.06,1.17-3.72,1.82-7.91,1.95-16.28,3.86-24.61,6.18-6.19,1.7-12.38,3.51-18.44,5.62l-.03-.07Z"/><path class="cls-1" d="m383.08,308.48c.44-2.02.97-4.03,1.47-6.05.18-.73.28-1.48.48-2.22.69-2.58,1.44-5.14,2.19-7.7.34-1.13.64-2.28.92-3.42.19-.73.32-1.47.58-2.19.24-.72.53-1.42.86-2.11.21-.43.54-.27.83.22.28.49.59,1.33.51,2.19-.06.77-.21,1.52-.38,2.26l-.5,2.23c-.33,1.49-.79,2.94-1.28,4.41-.59,1.75-.85,3.65-1.25,5.48l-1.31,6.07c-.27,1.24-.55,2.49-.79,3.74-.37,1.9-.77,3.8-1.04,5.7-.21,1.48-.29,2.94-.44,4.41-.03.32-.04.64-.09.97-.17,1.2-.44,1.55-1.1,1.71-.15.04-.31.09-.45.1-.49.04-.83-.51-.89-1.42-.11-2.69.03-5.49.51-8.25.32-2.06.73-4.11,1.11-6.16h.07Z"/><path class="cls-1" d="m216.07,409.03c-7.14.66-14.28,1.44-21.33,2.59-2.57.42-5.11.98-7.62,1.55-1.65.38-3.31.8-4.81,1.36-.18.07-.38.14-.55.22l-.23.09c-.12.05-.24.12-.35.2-.11.08-.2.23-.14.36.06.12.17.21.25.33l.26.29c.09.11.16.16.28.35l.66.98c.47.65.79,1.33,1.15,2,.38.67.67,1.36.97,2.04.31.68.6,1.37.84,2.07,1.07,2.77,1.84,5.61,2.55,8.44.98,4.04,1.8,8.14,2.38,12.22.18,1.31.3,2.63.46,3.95.1,1.32.22,2.65.27,3.98,0,1.33,0,2.66-.12,3.99l-.17,1.99c-.09.66-.17,1.32-.3,1.98-.4,1.63-.53,1.37-.94-.04-.37-1.41-.97-3.92-1.42-6.85-.21-2.6-.52-5.21-.89-7.8-.22-1.29-.37-2.6-.58-3.89-.24-1.29-.42-2.59-.69-3.87-1.03-5.13-2.28-10.29-4.23-15.08-.35-.94-.82-1.79-1.27-2.67-.23-.44-.52-.8-.77-1.22-.15-.21-.22-.38-.44-.63l-.69-.76c-.26-.35-.57-.71-.8-1.05-.17-.34-.29-.71-.28-1.14.08-.86.59-1.53,1.3-2.08.67-.53,1.73-1.02,2.17-1.18.57-.24,1.13-.43,1.69-.61,2.24-.72,4.47-1.24,6.7-1.69,7.21-1.4,14.44-2.27,21.68-3.04,4.46-.46,8.92-.85,13.38-1.2,6.76-.54,13.55-.91,20.27-1.27,5.22-.28,10.34-.65,15.52-.83,1.14-.04,2.26-.07,3.41-.07,4.27.03,5.63.3,6.52,1.05.2.17.47.34.59.51.39.56-1.35.96-4.44,1.14-4.59.3-9.3.54-14.07.78-4.78.25-9.62.53-14.47.85-7.21.48-14.45,1.01-21.65,1.73l-.02-.08Z"/><path class="cls-1" d="m367.12,232.33c-5.46,2.31-11.76,2.28-17.11-.05-1.96-.81-3.8-1.88-5.44-3.16-2.91-2.26-5.27-5.06-7.3-8-2.02-2.95-3.71-6.09-5.2-9.29-1.3-2.85-2.49-5.76-3.57-8.66-1.41-3.71-2.63-7.53-3.04-11.51-.16-1.23,0-1.11.61-.2.35.52.78,1.15,1.26,1.87.25.39.56.8.81,1.26.24.46.47.96.68,1.48,2.84,7.44,5.59,14.84,9.54,21.69,2.37,4.07,5.74,7.78,9.68,10.31,4.29,2.87,9.7,3.82,14.77,2.72,3.09-.71,6.01-2.21,8.42-4.36,3.67-3.24,6.36-7.62,8.19-12.22,1.42-3.59,2.25-7.31,2.82-11.07.12-.83.2-1.65.36-2.48.51-3.09.87-4.05,1.58-4.68.16-.14.32-.34.47-.42.48-.28.86,1.06.91,3.48-.01.89-.05,1.79-.1,2.69-.06.9-.2,1.8-.34,2.7-.29,1.8-.67,3.61-1.17,5.41-1,3.59-2.38,7.17-4.3,10.53-1.4,2.5-3.15,4.85-5.21,6.95-2.08,2.07-4.51,3.87-7.27,5.07l-.04-.06Z"/><path class="cls-1" d="m402.21,183.52c.29-1.09.42-2.22.35-3.33-.08-1.12-.36-2.2-.8-3.24-.31-.77-.87-1.39-1.4-2.05-.26-.26-.49-.57-.79-.8-.29-.24-.58-.54-.86-.66l-.43-.26-.47-.15c-.31-.14-.66-.13-1-.18-1.4-.1-2.93.53-4.24,1.41-1.17.8-2.18,1.88-2.98,3.06-.24.39-.48.78-.69,1.18-.18.42-.41.81-.56,1.24-.28.85-.74,1.66-.92,2.57-.17.55-.45.5-.77-.05-.15-.27-.38-.69-.46-1.2-.05-.25-.09-.53-.11-.83-.02-.15-.01-.3,0-.46.03-.15.07-.3.12-.44.67-2.11,1.8-4.06,3.39-5.59,1.59-1.51,3.56-2.8,5.94-3.11,1.39-.22,2.99-.02,4.31.7l.5.25.43.28c.28.19.58.36.84.59.26.22.54.43.79.66l.72.75c.99,1.15,1.77,2.52,2.18,3.98.41,1.46.53,2.98.41,4.46-.15,1.82-.68,3.57-1.46,5.18-1.2,2.44-3.15,4.5-5.5,5.86-.91.54-1.89.95-2.9,1.29-1.02.29-2.09.49-3.17.48-.48.03-.94-.01-1.42-.08-1.73-.37-2.16-.86-2.22-1.67-.01-.19-.05-.38-.03-.56.08-.6.84-.81,1.88-.79,1.56-.03,2.99-.11,4.33-.57,1.32-.47,2.57-1.18,3.61-2.21.78-.75,1.46-1.64,2.01-2.61.58-.96,1.02-2.01,1.28-3.11h.08Z"/><path class="cls-1" d="m414.69,153.15c-.47,4.18-1.51,8.26-3.17,12.13-.84,1.93-1.84,3.81-3.09,5.57-.64.87-1.33,1.73-2.15,2.5-.39.4-.86.75-1.31,1.11l-.75.49c-.27.18-.46.25-.93.49-.59.27-1.2.43-1.79.65-.04,0-.08.03-.11.03l-.1-.07-.19-.14-.38-.28-.77-.56-.91-.65c-.28-.17-.56-.37-.84-.52-1.14-.66-2.16-1.02-3.1-.88-.87.12-1.9.63-2.94,1.26-.91.55-1.55,1.22-2.08,2.18-.52.94-.87,2.06-1.16,3.25-.29,1.19-.49,2.45-.82,3.8-.18.67-.38,1.38-.79,2.14-.08.18-.26.39-.4.58l-.24.29-.3.24c-.2.14-.43.34-.62.41l-.53.24c-.34.16-.78.27-1.19.37-.45.06-.91.11-1.41,0-1-.16-1.86-.81-2.36-1.48-.98-1.37-1.31-2.74-1.61-4.06-.28-1.33-.45-2.63-.6-3.93-.52-4.56-.72-9.2-1.97-13.32-.4-1.33-1-2.41-1.92-3.4-.89-.98-1.97-1.79-3.18-2.39-.6-.31-1.23-.55-1.88-.76-.64-.23-1.3-.4-1.98-.54-.68-.09-1.36-.23-2.06-.28-.35-.03-.7-.02-1.05.02-.35.02-.7.07-1.04.14-1.7.4-1.57.25-.17-.49.71-.37,1.79-.68,3.19-1.07.71-.18,1.49-.2,2.34-.2.42,0,.85.07,1.31.09.43.12.89.2,1.33.37,3.14,1.08,6.06,3.3,7.5,6.65.68,1.57,1.07,3.12,1.33,4.65.28,1.53.46,3.04.63,4.54.34,2.98.54,5.96,1.05,8.7.25,1.33.65,2.71,1.15,3.4.27.31.32.37.56.41.08,0,.16-.02.24,0,.09,0,.21-.05.32-.07.19-.02.57-.22.68-.26.09-.07.18-.09.33-.35.14-.22.27-.58.39-.94.23-.75.4-1.64.58-2.52.38-1.8.74-3.75,1.76-5.65.48-.95,1.19-1.85,2.05-2.57l.68-.51c.23-.17.42-.27.63-.4.42-.25.85-.5,1.32-.73.92-.45,2.01-.86,3.23-.89,1.22-.02,2.35.34,3.29.8,1.04.51,1.93,1.12,2.78,1.75.16.11.16.13.25.19.07.06.13.13.22.07.08-.03.17-.05.25-.09l.12-.06c.09-.05.18-.08.27-.14,1.44-.88,2.69-2.33,3.73-3.9,2.09-3.19,3.46-6.93,4.34-10.73,1.05-4.69,1.37-9.61.49-14.3-.67-3.54-2.02-6.95-4.32-9.69-2.25-2.79-5.23-4.98-8.5-6.28-2.57-.97-5.31-1.28-7.95-.93-.33.04-.66.05-.99.12l-.97.24c-.65.17-1.3.28-1.92.56l-1.87.73-1.78.95c-.53.26-1.02.58-1.51.93-.49.33-.98.66-1.49.98-3.58,2.69-4.79,3.57-6.09,3.7-.29.03-.64.12-.86.1-.38-.04-.31-.48.13-1.27.22-.4.53-.88.94-1.44.4-.56.88-1.22,1.55-1.83.99-.9,1.92-1.9,3.07-2.68l1.68-1.24c.6-.37,1.23-.69,1.86-1.03,1.22-.74,2.63-1.15,3.99-1.69,1.43-.33,2.87-.76,4.38-.82,2.98-.26,6.11.11,8.94,1.22,2.84,1.1,5.41,2.77,7.6,4.8.42.37.82.75,1.18,1.17.37.41.76.81,1.11,1.24.68.88,1.37,1.75,1.95,2.74,1.18,1.94,2.02,4.03,2.61,6.15,1.16,4.26,1.31,8.61.89,12.84h-.08Z"/><path class="cls-1" d="m330.93,143.62l-1.18.27c-.22.03-.35.12-.63.1l-1.01-.21c-.34-.08-.66-.13-.97-.17l-.88-.12c-.32-.05-.63-.1-.95-.12-1.27-.14-2.54-.21-3.8-.14-2.53.11-5.03.57-7.4,1.4-4.74,1.63-8.89,4.93-11.37,9.25-1.82,3.15-2.64,6.82-2.42,10.4.21,3.15,1.24,6.27,3.07,8.9,1.8,2.64,4.33,4.77,7.23,6.29,2.9,1.53,6.13,2.49,9.43,3,3.31.5,6.7.6,10.06.27,2.98-.29,5.95-.9,8.73-1.94,2.78-1.06,5.39-2.54,7.73-4.33,1.5-1.16,2.91-2.44,4.16-3.87,1.28-1.4,2.39-2.95,3.4-4.55,1.01-1.61,1.89-3.29,2.64-5.04.72-1.76,1.34-3.57,1.9-5.42.66-2.31.83-2.01.96.14.05.54.06,1.19.03,1.94.03.77-.09,1.6-.25,2.52-.28,1.85-.96,3.96-2,6.11-3.99,7.49-10.98,13.34-19.13,15.93-4.05,1.31-8.26,1.87-12.47,1.86-4.21-.01-8.43-.69-12.45-2.12-4.79-1.64-9.41-4.69-12.52-9.06-3.1-4.36-4.37-10.02-3.43-15.25.96-5.78,4.4-10.94,9-14.36,2.32-1.7,4.92-2.98,7.64-3.83,2.72-.84,5.56-1.23,8.38-1.25h1.3c.43,0,.86.03,1.3.05.43.03.87.03,1.29.09l.32.04.15.03c.1.02.21.04.3.04.39.03.78.14,1.19.21.05,0,.1.03.15.02.01-.05-.02-.1-.03-.14l-.11-.27-.22-.56-.2-.58-.35-1.11c-.25-.84-.45-1.69-.61-2.55-.32-1.72-.46-3.5-.36-5.26.14-2.68.88-5.35,2.15-7.72,1.27-2.37,3.03-4.44,5.01-6.17,4.02-3.54,9.25-5.41,14.44-5.71,4.05-.24,8.14.41,11.86,2.03,3.72,1.62,6.99,4.3,9.33,7.68,1.02,1.49,1.86,3.05,2.55,4.74,1.24,3.14,1.35,5.39,1.42,6.9,0,.77-.03,1.37-.12,1.87-.11.5-.24.9-.41,1.25-.15.32-.3.73-.45.92-.26.31-.53-.19-.8-1.3-.12-.56-.29-1.27-.49-2.11-.16-.85-.45-1.8-.72-2.88-.94-3.14-2.27-6.17-4.35-8.66-1.03-1.24-2.19-2.37-3.5-3.33-1.31-.95-2.74-1.74-4.24-2.36-6.02-2.47-13.39-2.08-19.08,1.16-1.07.57-2.02,1.32-2.95,2.07-.93.82-1.8,1.69-2.56,2.63-1.52,1.88-2.66,4-3.25,6.29-.59,2.29-.63,4.74-.21,7.16.1.61.24,1.21.39,1.81.08.3.16.6.25.9l.14.45.13.39.16.45c.22.63.49,1.25.74,1.88.27.63.42,1.23.37,1.66-.02.45-.13.76-.3,1-.04.07-.08.11-.15.21-.08.05-.19.06-.29.09l-.6.15-.07-.06Z"/><path class="cls-1" d="m366.1,251.01c-1.86,1.21-3.95,2.15-6.21,2.52-.82.13-1.65.27-2.5.21-1.49-.09-2.99-.53-4.27-1.36-1.27-.85-2.24-2.08-2.8-3.42-.5-1.19-.75-2.44-.81-3.66-.02-1.57.24-3.13.89-4.52.19-.44.39-.3.57.15.17.45.35,1.2.38,2-.02.35.01.7.04,1.05.01.35.06.68.12,1.01.03.16.05.33.06.49l.09.48c.04.32.13.63.23.92.36,1.21.99,2.24,1.91,3.04,1.08,1.03,2.78,1.34,4.39,1.23,1.8-.06,3.62-.72,5.28-1.65,1.01-.61,2-1.28,2.87-2.12,1.34-1.23,2.55-2.64,3.5-4.21.71-1.24,1.26-2.53,1.73-3.86.11-.29.22-.57.35-.85.47-1.06.78-1.33,1.46-1.35.15,0,.3-.03.44-.02.43.03.7.65.56,1.57-.33,2.75-1.62,5.45-3.41,7.8-1.34,1.74-2.95,3.32-4.81,4.61l-.04-.05Z"/><path class="cls-1" d="m264.5,400.63c4.03,1.32,8.07,2.59,12.12,3.86,1.48.46,2.99.81,4.46,1.27,5.21,1.6,10.43,3.19,15.7,4.62,2.33.64,4.72,1.14,7.05,1.7,1.5.34,3.01.68,4.52,1.02,1.5.39,2.97.9,4.41,1.51.9.39.72.6-.17.86-.45.13-1.07.29-1.82.45-.75.14-1.6.2-2.5.14-6.28-.92-12.41-2.55-18.5-4.49-3.64-1.17-7.52-2.02-11.27-3.09-4.13-1.17-8.23-2.43-12.32-3.73-2.51-.8-5.03-1.61-7.54-2.41-3.81-1.21-7.61-2.5-11.4-3.63-2.95-.89-5.9-1.56-8.84-2.36-.64-.19-1.28-.34-1.93-.55-2.41-.7-3-1.47-3.31-2.27-.07-.19-.18-.38-.2-.54-.04-.27.21-.42.72-.52.51-.09,1.29-.19,2.2-.05,1.35.24,2.71.51,4.08.8,1.35.33,2.72.69,4.08,1.07,2.73.75,5.47,1.59,8.22,2.44,4.07,1.28,8.16,2.56,12.25,3.84l-.02.08Z"/><path class="cls-1" d="m231.45,318.85c-1.32,2.1-2.56,4.27-3.52,6.5-.35.82-.58,1.66-.82,2.47-.22.71-.37,1.43-.38,2.02,0,.35,0,.37.04.53.05.13.14.26.27.32.13.06.29.07.45.04.06-.01.21-.04.37-.11.16-.06.31-.12.48-.2.65-.31,1.3-.74,1.92-1.22,1.11-.85,2.11-1.89,3.06-2.93.62-.67,1.2-1.37,1.79-2.06l.44-.52.5-.48c.33-.32.66-.64.96-.97.36-.39.51-.29.53.3,0,.3-.03.71-.1,1.18-.04.24-.09.49-.16.75-.03.13-.08.26-.11.4-.07.12-.13.24-.21.35-1.07,1.64-2.22,3.24-3.67,4.6-.71.7-1.47,1.36-2.33,1.97-.43.3-.88.59-1.39.85-.52.25-.98.5-1.9.65-.98.16-2-.1-2.66-.81-.33-.35-.56-.78-.72-1.24-.1-.22-.15-.46-.18-.71-.03-.22-.06-.41-.06-.59-.02-1.47.29-2.71.67-3.89.89-2.57,2.11-4.9,3.42-7.16.81-1.39,1.68-2.74,2.56-4.07,1.35-2.01,2.82-3.96,4.3-5.86,1.16-1.47,2.19-3.02,3.53-4.38.31-.29.57-.6.91-.87.61-.51,1.09-.76,1.47-.86.42-.05.72.02,1,.15.13.06.27.11.36.17.16.12.14.32.04.64-.11.3-.27.76-.62,1.15-1.87,2.49-4.03,4.97-6.01,7.69-1.48,2-2.91,4.07-4.2,6.22l-.06-.03Z"/><path class="cls-1" d="m175.56,121.32c3.98-4.99,8.91-9.1,14.33-12.25,1.99-1.14,3.98-2.29,6.1-3.16,7.43-3.13,15.67-4.53,23.71-3.42,3.55.51,7.08,1.49,10.31,3.05,2.11.94,4.05,2.23,5.89,3.63.86.77,1.76,1.51,2.49,2.4.38.43.76.86,1.13,1.31.18.22.3.5.45.75.12.27.31.48.39.79.24.71.28,1.06.15,1.13-.14.08-.48-.09-1.16-.28-.68-.19-1.53-.52-2.43-.98-.45-.23-.9-.5-1.35-.81-.45-.31-.95-.6-1.41-.97-6.45-5.3-14.99-7.49-23.67-6.9-5.21.35-10.5,2.13-15.32,4.51-5.32,2.6-10.27,6.07-14.34,10.4-2.52,2.64-4.73,5.62-6.38,8.84-1.23,2.43-2.16,5.05-2.55,7.77-.41,2.71-.38,5.49.1,8.17.32,2.1,1.08,4.08,1.92,5.98.51.91.92,1.87,1.52,2.72l.84,1.3.95,1.23c.53.75,1.2,1.35,1.79,2.04.54.66,1.1,1.1,1.48,1.55.4.44.68.84.94,1.15.5.63.68,1.15.73,1.7.02.25.1.53.08.73-.03.33-.4.36-1.09.15-.35-.1-.75-.29-1.22-.54-.48-.24-.99-.58-1.52-1.02-3.16-2.6-5.87-6.03-7.67-10.01-1.76-3.99-2.65-8.47-2.45-12.93.14-3.32.89-6.62,2.18-9.68,1.31-3.09,3.04-5.83,5-8.39l.07.05Z"/><path class="cls-1" d="m266.26,118.84c1.35,4.95.59,10.16-1.77,14.45-.87,1.56-1.87,3.08-3.17,4.32-1.15,1.1-2.45,2.03-3.86,2.74-.71.34-1.43.66-2.17.88l-1.1.37c-.37.1-.75.17-1.13.26-3.01.67-6.13.58-9.06-.04-2.6-.56-5.12-1.44-7.48-2.53-1.5-.72-3-1.47-4.4-2.37-1.41-.89-2.78-1.84-3.88-3.11-.58-.92-.34-.98.73-.99.55-.01,1.21.1,1.99.25.74.2,1.53.51,2.29.99,1.37.81,2.75,1.61,4.17,2.28,1.41.7,2.84,1.32,4.31,1.81,1.46.54,2.96.84,4.47,1.12,1.51.16,3.05.32,4.57.13,1.81-.15,3.69-.71,5.32-1.57,1.62-.91,3.06-2.14,4.2-3.6,2.56-3.21,3.67-7.57,3.16-11.68-.31-2.53-1.3-4.96-2.85-6.94-1.18-1.5-2.72-2.72-4.47-3.55-.88-.43-1.81-.74-2.7-.93-.92-.15-1.87-.21-2.81-.08-2.95.37-5.64,1.93-8.02,3.76-.52.42-1.01.85-1.52,1.29-1.9,1.61-2.57,2.06-3.6,1.89-.22-.03-.47-.02-.64-.08-.55-.13-.38-1.45.92-3.04,1.95-2.32,4.39-4.41,7.4-5.88,1.5-.73,3.17-1.3,4.96-1.52,1.78-.23,3.71-.12,5.53.47,2.47.81,4.86,2.16,6.72,4.09,1.91,1.88,3.24,4.28,3.94,6.77l-.08.03Z"/><path class="cls-1" d="m350.87,188c.49,3.28,2.9,6.36,6.52,5.81,1.82-.28,3.36-1.43,4.54-2.79s2.18-2.92,2.98-4.55c.31-.63.17-1.4-.47-1.78-.57-.33-1.47-.17-1.78.47-.62,1.28-1.36,2.53-2.25,3.64-.83,1.03-1.81,2.05-3.13,2.39-2.44.64-3.6-1.84-3.9-3.88-.1-.7-.98-1.08-1.6-.91-.74.2-1.01.9-.91,1.6h0Z"/><path class="cls-1" d="m370.42,171.38c-3.13-2.44-6.96-2.94-10.77-2.09-1.64.37-3.24.97-4.74,1.73-.62.31-1.22.65-1.8,1.03-.25.17-.5.34-.74.52-.14.11-.28.22-.42.33-.04.03-.37.28-.18.15l.66-.18h-.06c.37.22.75.43,1.12.65l-.02-.04.18.66-.1.46-.78.6.05-.02-1.26-.33.04.05-.33-.57c.67,3.12,4.61.84,6.32.15,3.74-1.5,7.71-2.49,11.59-.91.66.27,1.42-.29,1.6-.91.21-.74-.26-1.34-.91-1.6-3.83-1.56-8.01-.94-11.79.45-1.35.5-2.66,1.12-4.01,1.6-.22.08-.44.14-.66.21-.04.01-.43.1-.19.05.21-.05-.07,0-.13,0,.01,0,.99.35.75.61.15-.16-.39-.89-.45-.95-.29-.32-.85-.48-1.26-.33-.92.32-1.33,1.3-.88,2.16.2.37.69.68,1.12.64.7-.06,1.16-.55,1.56-.83.47-.34.97-.65,1.47-.93,1.26-.71,2.58-1.27,3.97-1.66,3.08-.88,6.59-.88,9.23,1.17.56.43,1.29.53,1.84,0,.45-.44.55-1.41,0-1.84Z"/><path class="cls-1" d="m358.23,215.19c0,.73.05,1.47.03,2.21,0,.14-.01.29-.02.43,0,.09-.02.18-.02.26,0,.2.06-.31,0,.01-.03.13-.05.26-.08.39-.02.08-.05.16-.07.23-.07.27.04-.02-.01.04-.08.11-.14.25-.21.37-.05.08-.14.13.03-.03-.05.04-.09.1-.13.14-.06.06-.13.11-.18.17-.12.13.25-.13-.03.01-.06.03-.13.08-.19.11-.07.04-.38.14-.07.05-.09.03-.19.06-.28.09-.26.08.32.01,0,0-.06,0-.19-.03-.25-.01.21-.07.3.07.13,0-.06-.02-.12-.03-.18-.05-.02,0-.13-.06-.15-.05.02-.01.3.16.13.05-.09-.05-.18-.09-.26-.15-.04-.03-.24-.12-.26-.18.01.04.23.19.09.07-.05-.05-.11-.09-.17-.14-.17-.15-.33-.32-.48-.49-.08-.09-.16-.18-.23-.27-.04-.05-.09-.1-.13-.16.09.15.12.16,0,0-.56-.79-1.04-1.63-1.47-2.5-.09-.19-.18-.38-.27-.57-.07-.14-.31-.76-.11-.24-.05-.14-.12-.28-.17-.42l-1.25,1.65c2.38,0,5.11-.89,6.67-2.75.44-.52.55-1.34,0-1.84-.48-.44-1.37-.56-1.84,0-.24.28-.5.54-.79.77.14-.11.06-.04-.04.02-.07.05-.15.1-.22.15-.15.09-.3.18-.46.26-.14.07-.28.13-.42.2s.22-.08-.02,0c-.08.03-.15.06-.23.09-.3.1-.6.19-.9.27-.26.06-.52.11-.78.16-.06,0-.12.02-.18.03-.17.03.33-.04.11-.01-.1,0-.2.02-.3.03-.2.02-.4.03-.59.03-.78,0-1.56.84-1.25,1.65.59,1.57,1.36,3.13,2.37,4.48.76,1.02,1.68,2,2.93,2.39,1.53.47,3.12-.36,4.01-1.6,1.08-1.52.83-3.59.81-5.34,0-.68-.59-1.33-1.3-1.3s-1.31.57-1.3,1.3h0Z"/><path class="cls-1" d="m238.9,148.51c-.63,1.96-1.03,4.17-1.17,6.31-.02.4-.02.79-.02,1.19.02.39.04.79.04,1.18.06,2.77.34,5.62,1.33,8.28.41,1.19,1.03,2.29,1.68,3.35.4.69.89,1.33,1.34,2l.66,1.04c.24.33.47.67.72,1.01.29.43.18.47-.29.32-.45-.16-1.39-.39-2.22-1-1.42-1.12-2.6-2.57-3.39-4.2-.82-1.61-1.44-3.33-1.78-5.11-.41-2.11-.87-4.3-.89-6.49-.03-2.4.23-4.79.75-7.12.34-1.44.75-2.9,1.51-4.27.56-1.04,1.38-2.03,2.43-2.71.52-.34,1.07-.61,1.62-.82.53-.21,1.19-.38,1.79-.44,1.93-.19,3.76.32,5.36,1.1.35.17.71.33,1.04.54,1.21.82,1.34,1.37,1.11,2.1-.06.17-.1.35-.18.5-.27.5-.98.49-1.86.14-1.27-.55-2.47-1.13-3.62-1.36-.57-.12-1.1-.16-1.57-.1-.24.02-.46.08-.67.14-.24.07-.55.2-.78.32-.72.35-1.24.82-1.72,1.53-.47.71-.85,1.61-1.15,2.6l-.07-.02Z"/><path class="cls-1" d="m234.93,154.96c.25,1.72.83,3.39,1.51,4.98.8,1.85,1.9,3.67,3.57,4.87s3.99,1.34,5.55-.03c1.39-1.22,1.54-3.34,1.47-5.06-.04-.99-.17-1.97-.28-2.94-.09-.71-.21-1.45-.14-2.16s-.65-1.3-1.3-1.3c-.76,0-1.23.6-1.3,1.3-.13,1.31.23,2.69.35,3.99.07.8.12,1.6.07,2.4,0,.1-.08.7-.02.31-.03.18-.06.35-.1.53s-.1.33-.15.49c-.07.27.14-.25,0,0-.05.09-.09.19-.15.28-.04.07-.09.13-.13.2.19-.3.08-.09,0-.03-.1.09-.4.26-.09.1-.11.06-.55.24-.19.13-.08.03-.16.06-.25.08s-.48.08-.11.04c-.19.02-.37.02-.56.02-.09,0-.37-.07-.02,0-.09-.02-.18-.03-.27-.05-.1-.03-.62-.23-.29-.07-.17-.08-.33-.16-.49-.26-.08-.05-.16-.1-.24-.15-.06-.04-.29-.24-.04-.03-.15-.13-.3-.26-.44-.4s-.28-.29-.42-.45c-.07-.08-.13-.16-.2-.24.2.24-.08-.11-.12-.16-.52-.72-.94-1.51-1.31-2.31-.05-.1-.09-.2-.14-.31-.06-.14-.06-.14,0,0-.03-.07-.06-.14-.08-.21-.1-.24-.19-.47-.27-.71-.15-.42-.29-.85-.42-1.28-.22-.74-.41-1.5-.52-2.26-.1-.7-.98-1.08-1.6-.91-.75.21-1.01.9-.91,1.6h0Z"/><path class="cls-1" d="m219.6,155.34c.21,1.87.78,3.67,1.51,5.39.84,1.97,2.02,3.89,3.79,5.17s4.32,1.47,6.16.22,2.47-3.42,2.66-5.54-.11-4.06-.18-6.09c-.05-1.67-2.65-1.68-2.6,0s.26,3.21.24,4.83c0,.44-.03.88-.07,1.32,0,.08-.02.16-.02.24-.04.39.05-.26-.02.12-.04.23-.08.46-.13.68s-.11.44-.18.65c-.03.08-.23.56-.1.3-.09.19-.18.38-.29.56-.04.06-.08.11-.11.17-.09.12-.08.11.02-.01-.04.05-.09.11-.13.16-.07.07-.14.15-.21.22,0,0-.26.22-.1.1s-.12.08-.12.08c-.09.06-.18.11-.27.16-.04.02-.36.16-.09.05-.07.03-.14.05-.21.08-.11.04-.23.07-.34.1-.06.01-.56.08-.25.05-.19.01-.37.02-.56.02-.05,0-.41-.04-.09,0-.11-.02-.21-.04-.32-.06-.17-.04-.34-.1-.51-.16-.32-.1.21.13-.08-.04-.09-.06-.19-.1-.29-.15-.19-.11-.38-.23-.55-.37.21.16-.19-.18-.26-.23-.17-.16-.33-.33-.49-.5-.05-.06-.1-.12-.16-.18-.03-.03-.32-.41-.17-.21-.57-.77-1.04-1.61-1.44-2.47-.04-.08-.07-.15-.1-.23-.03-.08-.07-.15-.1-.23.05.12.05.11-.01-.03-.09-.23-.18-.45-.27-.68-.17-.47-.33-.95-.47-1.43-.12-.42-.23-.85-.32-1.28-.04-.17-.07-.34-.1-.52-.01-.08-.02-.16-.04-.24-.05-.25.04.34,0-.01-.08-.7-.54-1.3-1.3-1.3-.64,0-1.38.6-1.3,1.3h0Z"/><path class="cls-1" d="m234.78,181.69c-.17.13-.34.25-.53.35-.02.01-.23.12-.16.08s-.14.05-.17.06c-.42.14-.66.17-.96.18-.21,0-.43,0-.64-.02-.03,0-.26-.03-.18-.02s-.16-.03-.18-.04c-.21-.04-.42-.1-.63-.16-.17-.05-.39-.14-.42-.16-1.62-.75-2.8-2.06-4-3.37-.47-.52-1.36-.48-1.84,0-.52.52-.47,1.32,0,1.84,1.47,1.61,3.04,3.19,5.1,4.02,1.88.75,4.26.73,5.92-.53.56-.42.85-1.12.47-1.78-.32-.55-1.22-.89-1.78-.47h0Z"/><path class="cls-1" d="m211.13,238.26c-2.99,1.65-5.08,5.92-1.78,9.6,4.1,4.57,9.88-1.88,8.5-6.57-1.17-3.98-4.25-4.39-6.72-3.03Z"/><path class="cls-1" d="m230.41,266.97c-1.17,4.48-5.22,8.15-10.19,5.96-5.6-2.47-4.31-10.72-.6-14.25,2.53-2.41,6.05-2.66,8.67-.26,2.39,2.19,2.9,5.55,2.12,8.55Z"/><path class="cls-1" d="m276.04,372.25l-9.09-3.1-3.33-1.1c-3.89-1.34-7.75-2.8-11.62-4.18-1.73-.6-3.46-1.2-5.17-1.79-2.2-.75-4.42-1.5-6.58-2.36-.67-.27-.53-.38.1-.35.64.04,1.77.22,3.05.61,4.54,1.41,9.07,2.8,13.6,4.36,2.71.93,5.58,1.75,8.36,2.65l9.2,2.95,5.67,1.78c2.87.88,5.75,1.79,8.62,2.59,2.23.63,4.44,1.15,6.67,1.7.49.12.97.22,1.46.38,1.8.56,2.34.86,2.61,1.39.06.12.15.25.18.35.09.36-.73.42-2.11.21-2.05-.27-4.09-.81-6.17-1.32-2.08-.52-4.15-1.13-6.23-1.78-3.08-.95-6.16-1.97-9.23-2.97v-.04Z"/><path class="cls-1" d="m274.19,377.84c-2.84-.93-5.66-1.88-8.47-2.9-1.03-.36-2.06-.69-3.08-1.06l-10.77-4.01c-1.6-.58-3.2-1.17-4.78-1.75-2.03-.74-4.08-1.49-6.07-2.34-.62-.26-.49-.36.1-.32.59.05,1.65.21,2.84.57,2.11.65,4.23,1.28,6.33,1.99,2.09.72,4.18,1.47,6.26,2.25,2.49.94,5.15,1.73,7.74,2.58l8.54,2.8c1.75.57,3.51,1.13,5.27,1.67,2.67.82,5.35,1.62,8.03,2.31,2.09.52,4.16.95,6.24,1.37.46.1.91.19,1.37.28,1.7.39,2.22.63,2.51,1.09.07.11.16.22.19.31.11.32-.64.42-1.94.28-3.83-.43-7.77-1.35-11.67-2.45-2.89-.82-5.78-1.7-8.65-2.61v-.04Z"/><path class="cls-1" d="m342.2,371.75l-5.79,1.54-2.11.57c-2.49.61-4.99,1.23-7.47,1.84-1.1.28-2.2.59-3.29.9-1.4.38-2.82.71-4.25.98-.45.08-.41,0-.07-.21.34-.2.97-.57,1.75-.88.69-.26,1.38-.54,2.08-.78l2.12-.66c1.42-.43,2.84-.84,4.29-1.22,1.73-.45,3.48-1.07,5.22-1.61,1.91-.6,3.85-1.14,5.77-1.71l3.55-1.05c1.79-.54,3.59-1.07,5.35-1.68,1.36-.48,2.67-1.02,4-1.53.29-.11.58-.23.87-.34,1.11-.39,1.5-.39,1.88-.04.09.08.19.16.26.24.22.3-.14.73-.92,1.11-2.31,1.14-4.84,2.08-7.44,2.85-1.92.59-3.86,1.14-5.8,1.69v-.04Z"/><path class="cls-1" d="m344.6,377.72c-2.13.56-4.28,1.04-6.41,1.59-.78.2-1.54.45-2.32.64-2.75.68-5.5,1.36-8.24,2.03-1.22.3-2.43.64-3.63.98-1.53.48-3.1.8-4.67,1.12-.49.09-.45,0-.08-.24.37-.24,1.05-.68,1.9-1.07,1.5-.7,3.06-1.17,4.6-1.71,1.55-.52,3.11-1.01,4.72-1.39,1.91-.47,3.84-1.16,5.77-1.73l6.38-1.84,3.94-1.1c1.98-.57,3.99-1.1,5.93-1.73,1.51-.49,2.96-1.1,4.45-1.59.33-.11.64-.24.98-.34,1.24-.38,1.68-.35,2.1.08.1.1.21.19.28.29.24.35-.16.83-1.03,1.25-1.29.61-2.61,1.21-4,1.7-1.39.47-2.81.9-4.24,1.32-2.13.62-4.28,1.19-6.42,1.78l-.02-.05Z"/><path class="cls-3" d="m244.72,360.89s-3.8,4.08-.44,5.83,43.61,14.43,47.9,15.16.46-2.83,2.32-3.79-30.66-10.84-30.66-10.84l-19.13-6.37Z"/><path class="cls-3" d="m327.04,375.14s-4.76,1.45-6.52,6.75c-.67,1.99,2.38,1.45,6.52,0,4.14-1.45,30.8-9.49,30.8-9.49,0,0-.41-6.13-2.93-5.86-2.51.27-27.88,8.6-27.88,8.6Z"/><path class="cls-1" d="m371.26,294.58c-1.48.45-2.97.88-4.47,1.29-.54.15-1.08.33-1.63.46-1.94.47-3.88.9-5.82,1.32-.86.19-1.72.38-2.58.58-1.1.24-2.2.49-3.31.65-.69.11.1-.44,1.35-.76,2.21-.55,4.4-1.1,6.67-1.66,1.34-.31,2.71-.76,4.06-1.16,1.49-.42,2.98-.86,4.46-1.32.91-.28,1.82-.57,2.72-.88,1.37-.46,2.74-.94,4.08-1.46,1.04-.41,2.04-.84,3.06-1.28l.67-.29c.84-.34,1.13-.39,1.39-.28.06.03.13.05.17.08.14.11-.15.38-.74.7-1.76.93-3.64,1.88-5.63,2.55-1.47.53-2.96,1.02-4.45,1.49v-.02Z"/><path class="cls-1" d="m371.15,301.09c-.69.15-1.37.3-2.05.48-.25.07-.49.15-.73.22-.87.23-1.75.46-2.62.69-.39.11-.77.24-1.14.38-.48.18-.95.37-1.46.49-.31.08-.08-.44.44-.73.94-.47,1.89-.92,2.91-1.21.61-.16,1.22-.43,1.83-.64.67-.23,1.36-.43,2.04-.63.42-.12.84-.24,1.26-.37.64-.18,1.28-.37,1.91-.55.49-.15.95-.36,1.43-.54.1-.04.2-.09.31-.12.4-.1.55-.05.72.22.04.06.08.12.11.18.1.21-.02.44-.28.61-.8.47-1.69.79-2.59,1.06-.68.16-1.37.33-2.06.5v-.03Z"/><path class="cls-5" d="m357.13,262.5c.18.49.21.99.02,1.47-2.08,5.28-8.61-4.18-3.46-4.13,1.25.01,2.94,1.27,3.44,2.67Z"/><path class="cls-1" d="m263.2,98.87c.14.12-.04.31-.38.53-.11.07-.47.17-.54.15-.13-.05-.26-.11-.36-.17-.06-.04-.58-.81-.79-1.07-.2-.25-.33-.52-.44-.8l-.35-.84c-.1-.29-.18-.58-.26-.87-.03-.13-.04-.26-.02-.4.07-.48-.02-.92-.17-1.36-.02-.07-.02-.15-.13-.21-.17-.09-.45-1.32-.34-1.49.15-.42.24-.83.35-1.25.02-.06,0-.12.11-.18.25-.15.22-.26.25-.39.04-.17.08-.35.16-.52.05-.09.17-.18.26-.27.08-.08.34-.06.38-.04.09.07.22,0,.33-.02.04,0,.09-.01.12-.01.05,0,.88.87.95.96.07.02.45,1.33.56,1.47.04.07-.02.16-.05.25-.02.04.32,1.07.32,1.12,0,.23.12.43-.06.69-.04.05-.02.09,0,.14.09.37.07.77.08,1.16,0,.2.08.38.1.58,0,.04-.02.08-.03.12-.01.05-.03.1-.03.14.07.46.03.95.18,1.4.03.1-.09.67-.04.79.02.07-.2.37-.14.42Z"/><path class="cls-1" d="m271.9,103.3c-.14.2-.4.16-.72,0-.1-.05-.27-.3-.24-.38.05-.15.11-.29.18-.42.04-.08.94-1.01,1.24-1.35.28-.33.6-.6.93-.87.67-.54,1.37-1.02,2.07-1.52.16-.11.32-.2.5-.27.62-.24,1.17-.59,1.7-.97.09-.06.19-.11.24-.23.08-.2,1.58-1.15,1.81-1.21.55-.18,1.12-.34,1.68-.49.08-.02.14-.09.26-.03.27.13.41.03.58-.01.24-.07.48-.12.74-.16.13-.02.28.02.42.03.13.01.18.23.16.27-.06.11.07.17.12.25.02.03.04.06.05.09,0,.03-.23.32-.47.65-.24.33-.47.7-.53.75,0,.07-1.66,1.21-1.85,1.34-.09.08-.22.09-.34.12-.06.01-1.37.93-1.43.96-.3.14-.55.37-.93.38-.07,0-.13.04-.18.08-.48.31-1.01.54-1.52.8-.26.13-.5.3-.75.45-.05.03-.1.03-.15.05-.06.02-.13.04-.19.07-.57.38-1.24.63-1.79,1.04-.13.09-.88.34-1.03.46-.08.06-.5.05-.55.14Z"/><path class="cls-1" d="m294.35,146.21c.17.06.11.28-.07.58-.06.1-.3.29-.37.29-.12,0-.25,0-.35-.02-.06-.02-.77-.44-1.04-.54-.25-.11-.47-.24-.68-.39-.43-.29-.87-.55-1.33-.78-.1-.05-.19-.13-.26-.21-.26-.31-.61-.49-.98-.61-.06-.02-.11-.07-.21-.02-.15.06-1.09-.36-1.19-.47-.24-.27-.52-.49-.8-.72-.04-.04-.1-.02-.11-.13-.02-.26-.14-.25-.23-.3-.13-.07-.27-.14-.39-.26-.06-.06-.09-.21-.14-.34-.04-.12.09-.46.13-.49.1-.09.09-.27.12-.42.01-.05.03-.12.04-.15.02-.1,1.13-.4,1.24-.35.01,0,.37.09.75.18.37.1.75.21.85.24.09.02.14.1.21.17.03.02,1.14.4,1.18.44.19.15.43.23.52.54.02.06.06.08.1.11.34.22.62.55.9.85.14.15.31.28.46.42.03.03.04.07.06.1.03.04.04.09.08.13.36.33.65.74,1.01,1.06.09.07.3.6.4.69.05.05.03.39.09.41Z"/><path class="cls-1" d="m288.66,153.47c.18.02.25.22.23.51,0,.09-.13.3-.19.32-.11.02-.23.05-.33.06-.06-.01-.9-.16-1.19-.1-.27,0-.54.02-.79,0-.53,0-1.05.07-1.57.17-.12.03-.23.04-.35.01-.42-.08-.84,0-1.24.15-.07.02-.14.03-.19.12-.08.14-1.18.5-1.36.47-.41-.05-.81-.02-1.22-.01-.06,0-.11.05-.18-.02-.18-.16-.28-.09-.41-.06-.17.03-.34.06-.53.05-.09,0-.21-.08-.32-.14-.1-.05-.16-.35-.15-.39.04-.11-.06-.23-.11-.34-.02-.04-.04-.09-.05-.12-.02-.07.75-.91.86-.94.02-.01,1.35-.65,1.54-.75.08-.05.18-.03.28-.02.04,0,1.21-.41,1.27-.41.26-.01.51-.13.8.02.06.03.11.01.16,0,.44-.08.91-.03,1.37.04.23.03.47.03.7.07.04,0,.08.03.12.05.05.02.1.05.16.05.55.08,1.08.28,1.61.43.13.03.63.4.76.46.08.02.23.32.3.33Z"/></svg>