<?xml version="1.0" encoding="UTF-8"?><svg id="Layer_32" xmlns="http://www.w3.org/2000/svg" width="520" height="520" viewBox="0 0 520 520"><defs><style>.cls-1,.cls-2{fill:#231f20;}.cls-2{opacity:.3;}</style></defs><path class="cls-1" d="m285.4,231.78c-.79.22-1.78.07-2.7-.12-.53-.15-.71-.22-1-.32-.26-.11-.53-.21-.78-.32-1.01-.44-1.95-.93-2.87-1.39-.68-.34-1.38-.61-2.04-.94-1.16-.58-2.38-1.17-3.52-1.64-.55-.22-1.08-.37-1.7-.46-.61-.09-1.35-.16-2.07-.35-1.29-.32-2.45-.86-3.52-1.45-1.34-.8-2.82-1.43-3.58-2.94-.26-.44-.14-.49.4-.55.37-.04.75-.09,1.11-.13.23-.03.43,0,.65.03.11,0,.21.03.33.04.09.04.19.09.27.14,1.26.78,2.52,1.51,3.73,2,.6.26,1.15.45,1.81.59.65.13,1.54.24,2.41.53.51.17,1.04.38,1.48.57.44.19.89.37,1.34.56.9.37,1.79.75,2.66,1.16l2.8,1.38c.46.22.92.43,1.38.63l.68.27.31.11c.06.03.11.04.17.06.28.09.61.15.94.1.16-.03.32-.07.47-.15.15-.08.2-.27.13-.42-.09-.23-.26-.41-.42-.6l-.27-.28-.37-.35c-.71-.64-1.45-1.28-2.19-1.92-1.15-.98-2.36-1.89-3.47-2.97-.25-.23-.5-.46-.73-.71-.82-.98-.84-1.49-.53-2.03.07-.13.13-.26.21-.36.27-.32.89-.16,1.58.37,1.95,1.66,3.95,3.35,6.12,5.15l.54.47.27.24.48.44c.69.63,1.34,1.32,1.67,1.99.31.67.39,1.24.18,1.92-.11.34-.31.65-.55.87-.26.21-.55.43-.85.58-.3.11-.59.23-.92.29l-.04-.06Z"/><path class="cls-1" d="m304.16,218.67c0,1.19-2.73,1.68-2.73,1.68,0,0-.28-3.8-1.32-4.67-1.04-.87,2.09-.99,2.09-.99,0,0,1.96,1.59,1.96,3.98Z"/><path class="cls-1" d="m298.24,221.28c.1.23,2.13,2.51,1.69,4.28-.45,1.78-3.6.6-3.6.6,0,0,.26-3.48-.66-4.12s2.57-.77,2.57-.77Z"/><path class="cls-1" d="m321.18,206.96c3.45,1.61,6.09,3.99,8.62,6.34.92.87,1.87,1.69,2.74,2.58,3.08,3.15,5.98,6.41,9.16,9.31,1.42,1.28,2.94,2.44,4.52,3.39,1.01.62,2.09,1.09,3.15,1.48l1.6.52c.27.1.54.12.81.2.27.09.55.19.84.25.72.22.71.43.06.97-.61.65-2.14,1.34-3.77.94-1.41-.39-2.68-1-3.85-1.69-1.19-.69-2.28-1.46-3.3-2.3-2.03-1.69-3.85-3.54-5.56-5.46-2.05-2.3-4.36-4.46-6.56-6.63-2.42-2.36-4.89-4.7-7.67-6.42-1.71-1.06-3.54-1.82-5.45-1.87-3.15-.1-6.32-.03-9.4.48-2.39.39-4.67,1.1-6.86,1.97-.48.2-.94.41-1.42.61-1.8.7-2.42.81-3.08.49-.15-.07-.32-.12-.43-.2-.19-.14-.14-.38.11-.71.25-.32.68-.78,1.34-1.18,1.91-1.27,4.14-2.07,6.4-2.74,2.28-.64,4.64-1.04,7.01-1.27,1.76-.17,3.54-.25,5.31-.22l1.32.03c.52.05,1.05.07,1.55.18,1.01.2,1.97.49,2.84.89l-.02.07Z"/><path class="cls-1" d="m301.85,213.28c.48-.1,1.01-.17,1.55-.24.2-.03.38-.12.59-.13.72-.05,1.44-.05,2.14.03.31.03.61.02.9.02.38-.03.76.05,1.13.22.12.06.1.25,0,.48-.1.23-.27.55-.46.67-.36.21-.7.31-1.04.37-.34.08-.68.12-1.04.05-.43-.07-.83.14-1.24.25-.46.1-.92.26-1.43.36-.31.07-.63.15-.94.22-.48.12-.98.19-1.45.33-.36.11-.7.36-1.06.49-.08.03-.16.08-.24.09-.15.06-.27-.08-.36-.21-.09-.13-.15-.3-.21-.52l-.08-.28c-.07-.29.01-.63.17-.99.52-.66,1.1-.79,1.69-.95.44-.11.9-.2,1.36-.32l.02.05Z"/><path class="cls-1" d="m300.56,219.19c.85-.14,1.7-.27,2.55-.41.31-.06.6-.18.91-.23,1.11-.17,2.2-.41,3.32-.58.5-.08.97-.23,1.45-.35.62-.15,1.25-.28,1.91-.29.21,0,.21.11.1.32-.11.2-.32.54-.63.77-.55.38-1.09.79-1.7,1.02-.6.25-1.2.51-1.86.58-.79.11-1.53.47-2.3.7-.85.24-1.71.47-2.58.64-.54.1-1.08.21-1.61.31-.81.16-1.64.27-2.45.46-.63.13-1.23.42-1.88.57-.14.02-.28.07-.43.07-.14,0-.26,0-.35-.03-.1-.04-.18-.12-.24-.18-.13-.14-.2-.32-.26-.56-.03-.11-.06-.21-.07-.31-.05-.32.16-.68.49-1.02.26-.15.5-.29.74-.42.25-.09.51-.16.77-.24.52-.14,1.07-.26,1.62-.37.83-.16,1.66-.33,2.5-.49l.02.06Z"/><path class="cls-1" d="m299.54,224.9c.93-.1,1.86-.19,2.79-.29.34-.04.67-.16,1.01-.19,1.21-.13,2.43-.26,3.64-.38.54-.05,1.07-.17,1.6-.29.69-.09,1.38-.18,2.1-.09.23.03.24.22.11.51-.13.28-.37.72-.72.94l-.94.56c-.32.16-.66.23-.99.34-.67.19-1.36.34-2.09.34-.86.03-1.69.35-2.55.51-.94.18-1.89.33-2.85.45-.59.07-1.18.14-1.77.22-.9.11-1.8.17-2.7.29-.7.09-1.38.35-2.12.4-.16,0-.32.04-.49.03-.31-.02-.52-.1-.65-.25-.12-.19-.17-.41-.18-.68,0-.13-.02-.25-.02-.36,0-.19.08-.36.21-.54.12-.18.29-.41.47-.45,1.07-.52,2.2-.61,3.41-.79.89-.11,1.81-.22,2.73-.36v.06Z"/><path class="cls-1" d="m301.16,230.03c1.89.19,3.83.24,5.77.12.71-.04,1.4-.17,2.11-.24,2.48-.25,4.97-.68,7.37-1.43,1.07-.32,2.1-.77,3.09-1.26,1.28-.61,2.47-1.35,3.84-1.84.43-.16.55.11.42.62-.13.49-.44,1.36-1.15,1.89-.65.42-1.31.83-1.99,1.19-.68.36-1.4.64-2.12.92-1.44.54-2.93.96-4.44,1.23-1.81.33-3.65.81-5.51,1.03-2.04.25-4.1.34-6.16.26-1.27-.05-2.53-.16-3.79-.34-.96-.15-1.91-.35-2.85-.65-.47-.15-.94-.32-1.4-.52-.19-.09-.53-.24-.81-.41-.26-.19-.57-.33-.79-.55-.18-.16-.38-.31-.5-.51-.15-.18-.28-.36-.35-.58-.15-.46,0-.95.27-1.3.26-.37.65-.67,1.11-.95.26-.1.52-.22.79-.3l.41-.13c.1-.03.19-.06.28-.08.33-.09.66-.17,1-.2,1.26-.1,1.66.18,1.93.56.06.09.14.17.18.25.12.23-.35.59-1.13.91-.58.23-1.14.5-1.64.74-.07.08-.08.14-.06.18.02.04.08.05.1.05,0,0,.02,0,.01-.01-.07-.04.13.07.25.1l.39.15c1.62.55,3.53.85,5.42,1.03v.06Z"/><path class="cls-1" d="m311.37,184.31s7.9-6.84,9.07-6.53,1.98,3.11,1.98,3.11l-9.07,6.36-1.98-2.94Z"/><path class="cls-1" d="m315.83,172.48l-.68-.99c-.02-.06-.05-.15-.12-.21-.04,0-.09.02-.14.03l-.08.03-.11.07-.16.11c-.42.28-.8.61-1.22.9-1.51.99-3.02,1.99-4.52,2.99-.67.44-1.31.94-1.99,1.37-.85.57-1.71,1.18-2.77,1.47-.33.09-.41-.24-.33-.67.09-.42.29-.99.73-1.34.8-.6,1.54-1.3,2.39-1.86.85-.57,1.72-1.13,2.62-1.66,1.08-.63,2.04-1.51,3.08-2.28l1.06-.76c.27-.21.57-.36.85-.54.29-.16.55-.2.85-.29.37.16.69.33.99.67.15.15.3.3.44.47l.3.38c.54.71,1.04,1.42,1.55,2.13.77,1.07,1.49,2.18,2.28,3.23.61.81,1.32,1.53,1.98,2.31.15.17.31.32.44.51.26.33.37.59.34.84,0,.23-.14.45-.35.69-.09.1-.17.21-.25.29-.24.24-.89.25-1.39-.12-1.31-1.24-2.39-2.75-3.46-4.29-.79-1.14-1.56-2.32-2.36-3.43l.04-.04Z"/><path class="cls-2" d="m337.85,208.17c-.17-.59,2.34-21.22,2.34-21.22l8.91,12.81-11.33,9.19"/><path class="cls-1" d="m339.96,195.52l-.48,3.74c-.06.45-.05.91-.12,1.37-.2,1.6-.49,3.2-.71,4.8-.1.71-.13,1.43-.21,2.13-.1.91-.19,1.82-.42,2.71-.08.28-.26.23-.47-.03-.2-.25-.47-.72-.53-1.25-.25-1.88-.05-3.73.23-5.58.17-1.11.19-2.28.3-3.42l.4-3.76.26-2.32c.13-1.17.28-2.34.35-3.51.04-.91.07-1.79.12-2.69.01-.2.02-.39.04-.59.08-.73.23-.96.53-1.11.07-.03.14-.08.2-.1.2-.06.41.25.5.79.24,1.62.46,3.32.32,5.01-.06,1.26-.13,2.53-.26,3.79h-.05Z"/><path class="cls-1" d="m267.36,99.74c-.52-2.33-.65-4.76-.34-7.13.07-.43.09-.87.16-1.3.09-.43.17-.86.28-1.28.44-1.47.99-2.92,1.92-4.26.9-1.33,2.19-2.48,3.69-3.1,1.32-.58,2.72-.87,4.09-.93.88-.06,1.76.05,2.6.24.42.12.84.19,1.22.41.38.21.75.46,1.1.7.43.33.29.48-.23.7-.34.14-.69.29-1.03.44-.2.08-.42.2-.63.25-.21.03-.42.06-.62.05-1.49,0-2.85-.05-4.11.24-.62.16-1.22.35-1.76.68-.29.13-.53.35-.83.5-.24.22-.54.39-.77.65-1.21,1.14-1.8,3.08-2.21,4.9-.46,2.01-.55,4.14-.25,6.24.15,1.3.5,2.57.92,3.83.68,1.88,1.6,3.71,2.8,5.31.91,1.27,2.09,2.27,3.25,3.24.27.2.54.38.78.62.44.44.77.69.91.99.12.33.14.59.12.87-.01.13,0,.26-.02.36-.04.17-.2.22-.5.23-.3,0-.77,0-1.21-.26-1.38-.65-2.58-1.66-3.69-2.78-1.12-1.11-2.07-2.41-2.93-3.77-1.25-2.04-2.17-4.29-2.75-6.63l.06-.02Z"/><path class="cls-1" d="m278.84,51.44c.2-.42.41-.83.66-1.23.22-.41.5-.78.78-1.16.19-.28.35-.58.59-.83.8-.9,1.76-1.68,2.83-2.27.46-.27.97-.49,1.46-.73.33-.14.68-.21,1.03-.27.36-.03.73.04,1.07.13.22.07.16.4.01.8-.16.39-.36.89-.6,1.02-.22.14-.39.37-.62.41-.21.12-.41.24-.63.34-.41.28-.9.46-1.41.73-.62.31-1.01.95-1.45,1.49-.48.62-.95,1.27-1.37,1.97-.24.44-.49.87-.67,1.34-.3.7-.55,1.43-.65,2.17-.09.57-.04,1.15.03,1.69.01.12.01.24,0,.36,0,.44-.11.61-.43.79-.07.04-.14.09-.21.13-.23.11-.49-.03-.74-.41-.38-.56-.57-1.22-.64-1.85-.11-.66-.07-1.31.04-1.94.19-.93.48-1.84.86-2.7l.05.02Z"/><path class="cls-1" d="m322.19,453.85c-.46-.07-.92-.14-1.38-.21-.17-.02-.33.01-.51-.02-.6-.09-1.21-.27-1.8-.48-.28-.08-.53-.16-.8-.24-.34-.12-.73-.28-.92-.67-.06-.11.1-.21.3-.29.21-.08.41-.2.55-.2.47.04,1.03-.03,1.63.09.36.09.76,0,1.14-.02.43,0,.87-.01,1.31-.02.27-.01.55.02.82.01.42,0,.84.02,1.25-.04.32-.05.63-.21.95-.24.07,0,.14-.02.21,0,.27.05.36.18.43.57l.05.26c.03.29-.06.55-.24.73-.52.61-1.07.75-1.67.79-.44.04-.89.03-1.34.04v-.05Z"/><path class="cls-1" d="m262.44,453.6c.9-.31,2.04-.49,3-.42.35.01.68,0,.99.04,1.07.18,2.07.31,3.14.24.47-.03.93-.13,1.37-.27.28-.1.56-.19.85-.26.14-.04.29-.07.44-.09.15-.03.33.03.5.06.24.09.28.25.26.65-.01.2-.05.45-.11.71-.07.24-.2.41-.37.5-.6.36-1.28.53-1.97.64-.68.11-1.38.13-2.08.05-.82-.09-1.7,0-2.45-.05-.84-.06-1.5-.09-2.25.11-.46.11-.93.28-1.41.48-.72.31-1.48.62-2.18,1.01-.55.3-1.03.69-1.55,1.02-.12.06-.23.14-.35.2-.46.2-.68.14-.99-.24-.07-.09-.15-.17-.21-.25-.2-.29-.16-.66.1-.98.19-.23.39-.46.59-.68.22-.19.44-.37.68-.54.46-.35.97-.62,1.49-.89.77-.38,1.54-.75,2.47-1.11l.02.05Z"/><path class="cls-1" d="m332.15,238.15c-.19.4-7.4,11.62-4.27,11.26s7.74-8.51,7.74-8.51l-3.47-2.75Z"/><path class="cls-1" d="m245.36,240.16s7.72,8.15,6.97,11.16c-1.35,5.46-11.45-3.29-11.45-3.29l4.48-7.86Z"/><path class="cls-1" d="m285.33,221.91c.99.57,1.93,1.2,2.87,1.79.34.22.71.39,1.05.6,1.21.73,2.42,1.44,3.73,1.81l.88.17c.3,0,.59,0,.88,0,.75-.07,1.45-.24,2.27-.35.26-.03.28.07.15.3-.13.22-.39.67-.84,1.01-.44.15-.91.27-1.37.36-.47,0-.95.03-1.41-.06-.92-.15-1.77-.46-2.55-.87-.93-.49-1.9-.93-2.79-1.45l-2.89-1.74c-.6-.33-1.18-.7-1.8-.98-.46-.23-.92-.46-1.4-.64-.47-.2-.95-.39-1.44-.5-.75-.24-1.54-.25-2.3-.34-.17,0-.34.02-.51.01-.62-.04-.82-.21-.96-.53-.03-.07-.07-.14-.09-.21-.06-.2.21-.45.72-.54,1.53-.27,3.14.12,4.64.63,1.11.42,2.16.95,3.16,1.51v.03Z"/><path class="cls-2" d="m265.85,268.23l3.33-9.48,14.57,5.15,2.56-9.17,13.59,7.68s2.13,1.86-8.74,5.9c-11.21,4.17-21.05,2.56-24.43,2.38s-.88-2.46-.88-2.46Z"/><path class="cls-2" d="m231.49,197.62s17.34,1.9,18.91,2.48,3.23-14.97,3.23-14.97l15.57,5.26,2.14-13.26,17.61,8.42.82-12.86s-18.69-3.91-29.77.48c-11.08,4.4-19.58,12.72-24.69,19.78-.58.81-3.82,4.67-3.82,4.67Z"/><path class="cls-1" d="m286.12,261.77l-.35,1.12-.54,1.64-.27.81-.14.4c-.02.06-.04.14-.07.19l-.2-.08-1.61-.63-1.57-.63-.86-.36-1.72-.72c-.84-.35-1.71-.62-2.54-.98l-4.41-1.9-.28-.12c-.09-.04-.2-.09-.21-.09l-.21-.11-.23-.11c-.07-.02-.18-.13-.2-.02l-.25.43-.06.12-.12.25-.26.54c-.62,1.27-1.16,2.58-1.66,3.89-.66,1.68-1.05,3.45-2.33,4.9-.38.46-.54.32-.76-.27-.11-.3-.26-.71-.42-1.21-.11-.48-.12-1-.01-1.53.58-1.78,1.29-3.5,2.04-5.22l.58-1.28.68-1.39c.38-.78.77-1.53,1.14-2.25l.14-.27.3.12.6.25,1.16.51c.63.28,1.26.56,1.89.84.52.22,1.05.43,1.59.64,1.07.41,2.15.81,3.2,1.24l3.48,1.43.76.32.36.17.19.09.1.04.05.02s.01-.03.02-.04l.14-.37.09-.24.12-.36.33-1.1.62-2.22.56-2.04c.26-.91.57-1.74.93-2.53.67.32,1.35.63,2.01.94.54.26,1.09.52,1.63.78,1.63.78,3.29,1.41,4.93,2.09.36.15.73.27,1.08.44.67.29,1.07.54,1.31.82.24.27.33.54.35.89.01.16.05.33.04.47,0,.49-.8.65-1.89.43-1.57-.46-3.11-1.04-4.65-1.69-.77-.32-1.53-.66-2.3-1.01l-.57-.27-.34-.16c-.07-.03-.05-.02-.05-.02,0,0,0,0,0,0-.03.13.1-.5-.32,1.08l-.92,3.35h-.06Z"/><path class="cls-1" d="m257.81,185.16c2.1.57,4.15,1.27,6.23,1.85,1.04.3,2.07.58,3.1.84l1.91.46c.03-.07.05-.17.07-.27l.15-.8.45-2.34.86-4.11.57-2.99.17-.85c-.02-.23.18-.05.3-.02l.41.17,1.62.66,2.26.92,1.94.77,3.91,1.49c1.16.43,2.34.84,3.51,1.25l1.75.64c.36.14.39.13.55.19l.2.07.1.03s.07.03.07-.03c.06-.35.68-2.35,1.14-3.75l.75-2.25c.24-.75.49-1.49.8-2.23.37-.92.46-.77.55.11.12.88.17,2.52-.21,4.31l-.51,2.38-.26,1.19-.03.15-.07.29c-.06.19-.08.41-.12.61l-.4,1.06-.2.53-.1.26-.05.13s-.02.11-.08.07l-1.09-.35-1.11-.34-.79-.26c-.77-.24-1.54-.48-2.29-.77-3.03-1.1-6.1-2.25-9.11-3.56l-.68-.29-.34-.15c-.14-.06-.09-.04-.15-.07l-.41-.2c-.1-.08-.09.03-.11.1l-.06.22-.06.24-.14.69c-.37,1.96-.74,3.94-1.1,5.89l-.36,1.87-.26,1.32-.14.65s0,.07-.03.07h-.08s-.17-.04-.17-.04l-.33-.06-1.32-.24-.66-.12-.46-.09-1.63-.35c-2.17-.49-4.3-1.07-6.41-1.66-1.31-.35-2.59-.76-3.89-1.15l-1.32-.42c-.08,0-.2-.09-.24-.04l-.07.24-.14.49-.35,1.37-.35,1.48-.67,2.98c-.22,1-.42,2-.63,3l-.31,1.51-.17.78c-.1.34-.15.7-.28,1.02-.16.44-.33.79-.6,1.12-.44.18-.88.21-1.38.14-.48-.04-1.06-.18-1.34-.24l-2.05-.44c-1.36-.28-2.71-.51-4.06-.71-.67-.11-1.32-.16-1.99-.25-2.48-.36-3.25-.69-3.72-1.47-.11-.16-.26-.3-.33-.41-.11-.2.11-.34.6-.59.5-.28,1.26-.35,2.23-.36,2.01.02,4.04.31,6.07.68,1.02.19,2.03.41,3.02.64l.74.17.36.08.17.04h0s.03,0,.02-.03c-.18.67.48-1.86.85-3.42.48-2.13.93-4.29,1.48-6.46l.55-2.11c.14-.53.32-.98.48-1.46l.25-.71c0-.09.07-.07.14-.05l.19.04.37.09,1.48.35.74.17.35.08.21.03,1.59.43v.07Z"/><path class="cls-1" d="m233.31,311.57c-.11.84-3.77,34.11-3.4,57.27s7.62,76.68,32.08,82.64c0,0,15.77,2.63,20.17-2.89,10.89-13.65,6.28-56.71,4.8-73.64,0,0,11.42,56.67,20.18,66.78,8.76,10.1,14.35,9.75,22.3,7.54,9.53-2.65,14.1-25.8,13.78-32.02-.32-6.21-.02-50.57-5.68-73.7l-5.55-29.39s-21.04,1.9-36.71-21.94c0,0-8.81-11.8-9.53-12.91s-5.06,2.24-7.31,4.76-13.71,14.05-21.84,20.5c-10.05,7.97-23.3,7.01-23.3,7.01Z"/><path class="cls-1" d="m333.67,126.65c-3.89-9.03-5.28-34.59-7.41-47.15-2.12-12.56-12.41-29.08-24.59-32.08s-21.66,9.88-21.66,9.88l-4.08-3.74c-4.09-3.73-13.84-6.81-28.78-6.14-14.94.67-24.84,16.98-30.08,27.77-5.24,10.79-6.4,42.53-9.36,50.62-2.97,8.08-16.19,16.02-20.87,18.01-4.69,2,0,3.41,0,3.41,19.8,23.68,46.54,24.18,57.76,23.18s20.36-7.38,20.36-7.38c0,0,6.12,2.73,14.45,3.44,8.33.72,10.81-6.07,10.81-6.07,0,0,20.81,4.09,33.97.59,13.16-3.49,26.28-16.27,26.28-16.27,0,0-12.9-9.03-16.8-18.07Zm-111.21-24.31c1.61-11.55,9.36-5.47,9.36-5.47,0,0-1.23,7.57,0,12.31l1.24,4.74s-11.87-2.37-10.6-11.58Zm72.87,9.96c-.24,13.6-5.13,22.16-8.91,29.1-3.78,6.93-12.1,12.92-28.34,2.67-16.25-10.25-18.77-36.08-18.08-45.74.69-9.65,12.27-19.4,20.02-22.68,7.75-3.27,16.85,7.52,22.14,10.34,5.29,2.83,10.09-1.92,10.09-1.92,0,0,3.31,14.64,3.08,28.23Zm6.89-1.55l.48-3.33c.49-3.32.73-6.7.37-8.83s-2.77-3.56,3.07-4.73c5.83-1.17,6.32,1.88,6.21,6.82-.1,4.77-10.13,10.07-10.13,10.07Z"/><path class="cls-1" d="m253.11,476.47l-11.48.31c-1.4.05-2.79.17-4.18.21l-2.79.07c-.45.02-.99,0-1.44-.01l-.74-.04-.23-.02-.16-.02-.13-.03-.12-.03s-.19-.07-.26-.12l-.08-.05c-.09-.06-.18-.15-.26-.25-.16-.23-.25-.36-.26-.77-.03-.38.3-.82.29-.79.06-.08.14-.15.22-.2.15-.1.13-.08.21-.12l.11-.05c.12-.04.15-.05.21-.07l.24-.05c1.01-.16,1.87-.25,2.77-.38.88-.13,1.79-.27,2.55-.48l.39,2.04c-1.22.04-2.45.13-3.69.23-2.17.17-4.37.41-6.57.55-1.41.08-2.82.16-4.24.14-1.42-.08-2.83-.25-4.21-.58-.85-.35-.71-.46.06-.87.77-.39,2.13-.86,3.69-1.03,2.43-.05,4.83-.18,7.27-.42,2.44-.25,4.94-.51,7.53-.53l11.52-.11-10.96,3c-.82.23-1.54.32-2.28.42-.86.11-1.73.22-2.61.33l-.61.09-.22.04s-.03-.11-.05-.19l-.09-.27c-.06-.19-.09-.29-.16-.43-.03-.1-.1-.2-.13-.24-.04-.03,0,0,.03-.1.02-.06.08-.21.09-.32.04-.16.07-.32.09-.49l.05-.29h0s.01,0,.01,0c.29.03.78.03,1.19.03,1.67-.05,3.45-.22,5.19-.31l11.55-.6c2.37-.12,4.74-.23,7.11-.35,3.59-.19,7.2-.32,10.76-.56,2.77-.17,5.48-.52,8.23-.75.6-.05,1.2-.13,1.81-.16,1.13-.08,1.88.03,2.41.17.26.08.47.18.65.32.17.16.31.35.44.54.11.18.26.34.33.48.22.42-.69,1.24-2.32,1.48-2.43.41-4.92.62-7.46.84-2.53.21-5.11.36-7.7.45-3.84.14-7.71.28-11.56.42v-.07Z"/><path class="cls-1" d="m316.16,474.2c-3.06-.06-6.12-.04-9.18-.17l-10.74-.44,10.13-3.06c.49-.15.62-.13.85-.16.2-.02.38-.03.56-.04l1.03-.03h1.97c1.3.04,2.6.08,3.89.13,2.07.1,4.13.04,6.19.35l1.36.17,1.37.04c.91.03,1.82.06,2.76.13l.73.07c.13.02.26.03.42.07.07.01.17.04.29.07l.12.04.06.02h.03s.09.06.09.06c.12.07.23.15.32.25.1.09.3.4.32.69.02.14,0,.28-.01.4-.03.13-.04.15-.08.23-.06.14-.15.27-.26.38-.05.05-.11.1-.17.14l-.06.04c-.06.04-.12.07-.18.1-.16.07-.14.05-.23.08-.13.04-.18.05-.27.07l-.41.07c-.25.04-.49.07-.76.1-.94.04-1.86.11-2.76.11l-10.86.12c-3.21,0-6.44.04-9.63.09-4.09.04-8.22.27-12.31-.54-1.27-.24-1.09-.43,0-.82.61-.21,1.38-.47,2.24-.77.93-.26,2.01-.44,3.18-.52,8.32-.29,16.65-.41,25.07-.17,1.25.01,2.52.02,3.79.03h.94c.17.01.28,0,.42,0l.43-.04.17-.02h.05s0,0,0,0l.09.27.11.28c.01.07.03.12.06.18.04.11.16.25.16.28.07.06.05.01.02.07-.09.07-.09.13-.16.27-.07.15-.13.3-.17.45-.01.07-.04.17-.08.28,0,.01,0,0,0,0h-.01s-.07-.02-.07-.02c-.23-.05-.55-.1-.85-.14-1.24-.15-2.53-.24-3.81-.33-1.29,0-2.58.11-3.86.11-1.91-.02-3.81-.02-5.72,0l-2.84.06-1.4.06-.67.05-.29.04-.11.02s-.04,0-.03,0c.02.05-.02-.12-.06-.25-.04-.13-.09-.26-.14-.38l-.21-1.87c1.83-.03,3.67-.03,5.5-.02,3.49,0,6.98,0,10.46,0,5.28-.02,10.59.02,15.83-.1,4.08-.1,8.07-.38,12.1-.56.89-.04,1.75-.11,2.65-.14,3.32-.05,4.37.27,5.08,1.08.16.19.38.37.47.56.32.62-1.03,1.18-3.46,1.52-7.2.81-14.8.97-22.42,1.01-5.66.04-11.35,0-17.03-.01v-.08Z"/><path class="cls-1" d="m236.41,472.7c2.06.48,4.76-.05,7.27-.85,2.55-.81,5.07-1.93,7.55-3.16,1.81-.9,3.54-1.96,5.32-2.95,1.57-.88,3.12-1.79,4.68-2.7l2.36-1.36c.84-.47,1.39-.83,2.89-1.59.65-.3,1.29-.55,1.82-.42l.21.04s.07.05.12,0c.03.02.06.04.08.06.1.07.17.19.26.31.16.23.34.48.5.77.25.64.5,1.45.67,1.96l.43,1.27c.29.84.6,1.68.93,2.5l.27.66c.08.19.18.39.28.59.19.34.39.71.72.94.15.12.45.13.44-.11.04-.19.06-.39.07-.58.03-.39.03-.79.02-1.17-.02-.6-.03-1.2-.05-1.8-.09-2.02-.2-4.05-.37-6.07-.2-2.02-.33-4.02-.45-6.05-.11-1.25-.02-1.15.65-.21.32.48.84,1.17,1.28,2.06.22.45.48.93.66,1.46.16.53.3,1.1.4,1.7.18,1.06.33,2.12.45,3.19l.18,1.6.09,1.6.05,1.61.02,1.24c0,.52,0,1.04-.02,1.55-.02,1.04-.1,2.02-.28,2.81-.19.8-.6,1.03-.92,1.26l-.56.41c-.34.1-.68.1-.96.1-.57-.09-1.06-.28-1.58-.69-.51-.39-1.03-1.04-1.52-1.8-.48-.78-.91-1.68-1.32-2.58l-.23-.55-.15-.38-.29-.77-.54-1.53-.25-.77-.12-.38c-.04-.12-.1-.3-.09-.29l-.07-.41c-.02-.07-.02-.23-.12-.19-.07,0-.15.04-.23.07-.08.03-.15.06-.25.11-.03,0-.41.23-.65.38-1.08.65-2.17,1.35-3.27,2.04-2.2,1.39-4.43,2.77-6.72,4.05-2.51,1.4-5.09,2.71-7.77,3.85-2.69,1.12-5.47,2.12-8.5,2.5-1.18.14-2.41.17-3.66-.05-.31-.05-.62-.12-.93-.22-.33-.1-.57-.17-.99-.37-.77-.33-1.44-.81-2-1.36-.1-.07-.24-.12-.3-.21l-.19-.26-.18-.26s-.09-.07-.14-.14c-.1-.13-.12-.4-.06-.57.05-.19.11-.36.21-.54.35-.7,1.18-1.33,1.96-1.87.45-.34.67-.48.96-.69l.84-.57,1.69-1.09c1.13-.71,2.27-1.4,3.41-2.08,2.28-1.35,4.56-2.71,6.83-4.05,3.51-2.1,6.87-4.29,10.27-6.46.74-.48,1.47-.96,2.22-1.44,1.41-.87,2.35-1.42,3.08-1.69.37-.12.68-.19.97-.21.29,0,.56.05.8.1.22.05.48.05.63.11.25.09.14.4-.2,1-.33.62-1.05,1.28-2.05,1.99-5.94,4.23-12.57,7.98-19.06,11.95-1.99,1.21-3.99,2.43-5.92,3.69l-1.43.95-.69.48-.17.12s0,0,0,0h-.01s-.11.06-.05.09c.01.02.03.03.05.04h.02s.2.08.2.08c.15.06.33.09.49.14v.08Z"/><path class="cls-1" d="m346.89,473.08c-2.96-.07-5.6-.83-8.12-1.7-2.52-.89-4.92-1.97-7.27-3.12-1.71-.84-3.43-1.63-5.08-2.54l-4.31-2.39-.23-.13-.08-.05-.17-.1c-.12-.06-.24-.14-.39-.17-.13.03-.13.21-.2.32l-.08.19-.04.1-.08.19-.95,2.33-.53,1.21c-.26.59-.54,1.19-.83,1.73-.58,1.1-1.21,2.07-1.83,2.67-.31.32-.62.55-.96.75-.33.19-.7.33-1.17.29-.23.01-.4-.17-.46-.29-.08-.13-.15-.26-.21-.39-.13-.26-.25-.51-.36-.83-.2-.68-.25-1.73-.23-2.81.01-.54.02-1.09.06-1.65l.09-1.47c.06-.74.13-1.48.19-2.21.17-1.89.46-3.77.89-5.63.4-1.86,1.02-3.72,2.14-5.34.73-.99.69-.79.64.25-.03.52.06,1.28.08,2.13.01.43.06.9.04,1.38-.03.47-.09.97-.17,1.48-.14.91-.26,1.82-.36,2.74l-.13,1.38-.16,1.38c-.1.92-.18,1.84-.25,2.77l-.02.28s0,0,0,0v.02s-.04.07-.04.07c-.02.06-.05.15-.06.29,0,.17.1.15.15.14.06-.02.14-.08.24-.19l.08-.09.04-.06s.02-.02.08-.16l.58-1.28c.23-.51.44-1.04.65-1.57l.15-.4.25-.7c.17-.46.31-.97.56-1.33.12-.18.26-.33.37-.48.13-.15.22-.31.38-.39.22-.03.4-.09.59-.11.19-.02.4.01.62.05.43.09.88.26,1.33.45.42.18.98.45,1.18.55,2.15,1.08,4.22,2.18,6.29,3.24,4.54,2.32,9.19,4.57,14.01,5.6,1.13.23,2.26.37,3.36.36h.41s.25-.02.25-.02c.16-.01.3-.03.45-.05.3-.05.6-.13.88-.26.19-.07.35-.18.52-.28.08-.05.16-.14.14-.24-.02-.09-.09-.17-.15-.24-.45-.41-1.02-.67-1.59-.98-1.02-.51-2.14-1.04-3.22-1.55-2.19-1.04-4.37-2.07-6.54-3.1-3.37-1.63-6.71-3.21-9.9-5.21-.7-.44-1.4-.87-2.08-1.36-2.53-1.84-3.05-2.81-2.95-3.85,0-.22-.03-.46,0-.61.05-.26.36-.22.96-.08.62.12,1.34.56,2.22,1.17,5.22,3.61,11.28,6.66,17.57,9.49l2.64,1.2,1.33.61,1.45.69c1.71.82,3.53,1.83,4.08,2.88.26.53.42.96.31,1.71-.07.32-.22.55-.34.82-.2.25-.38.51-.66.72-.77.6-1.7,1.15-2.9,1.46-.57.16-1.24.27-1.81.32l-.44.04h-.29c-.19.02-.38.02-.57.02v-.08Z"/><path class="cls-1" d="m241.26,104.56c-.41,10.83,3.45,21.88,10.22,30.48,2.48,3.14,5.47,5.84,8.73,8.02,2.9,1.87,6.09,3.35,9.46,3.92,3.36.58,6.85.5,9.84-.99,1.54-.64,2.86-1.72,4.14-2.84,1.19-1.22,2.33-2.53,3.23-4.04,1.88-2.95,3.23-6.29,4.23-9.72,1.79-6.12,2.5-12.59,2.71-18.95.12-4.09-.04-8.2-.33-12.29-.32-4.09-.87-8.13-1.46-12.16-.05-1.29-.07-1.87.04-1.87.11,0,.38.57,1.02,1.54.63.97,1.27,2.45,1.92,4.28.62,1.83,1.08,4.04,1.35,6.45.47,4.28.64,8.58.54,12.87-.1,4.3-.44,8.6-1.12,12.88-.69,4.27-1.75,8.53-3.37,12.64-.83,2.05-1.8,4.07-3.04,5.96-1.19,1.91-2.68,3.69-4.44,5.19-2.09,1.81-4.66,3.2-7.42,3.87-2.78.7-5.64.63-8.37.18-5.51-.95-10.51-3.73-14.59-7.25-8.91-7.91-14.43-19.05-16.05-30.67-.95-7.16-.17-14.66,2.85-21.3,1.13-2.51,2.52-4.89,4.25-7.06,1.72-2.17,3.8-4.09,6.15-5.57,2.35-1.49,4.93-2.57,7.59-3.25,2.68-.75,5.62-.85,8.35-.11,4.29,1.12,7.67,3.86,10.96,6.08,1.65,1.12,3.33,2.13,5.08,2.65,1.71.51,3.64.55,5.4.19,1.57-.35,3.03-1.05,4.47-1.92,2.68-1.66,4.3-3.13,5.56-3.99.64-.42,1.16-.76,1.63-.99.49-.21.91-.35,1.29-.47.35-.1.77-.3.99-.34.38-.07.13.43-.51,1.52-.64,1.11-1.91,2.58-3.84,4.24-1.43,1.22-2.97,2.4-4.74,3.37-1.76.96-3.77,1.72-5.93,1.89-1.07.12-2.15.06-3.21-.06-1.07-.17-2.18-.43-3.16-.85-2-.8-3.7-1.92-5.3-3.02-3.16-2.22-6.06-4.42-9.26-5.27-3.2-.89-6.51-.37-9.89,1.01-2.44.99-4.69,2.32-6.61,4.09-1.93,1.74-3.55,3.87-4.89,6.21-2.73,4.67-4.14,10-4.38,15.44h-.08Z"/><path class="cls-1" d="m210.93,93.12c1.13-8.46,3.2-17,7.16-24.76,1.44-2.82,3.05-5.58,4.99-8.09,1.72-2.21,3.57-4.32,5.64-6.2,1.02-.96,2.17-1.8,3.25-2.7.53-.47,1.15-.81,1.74-1.2l1.79-1.13c.58-.41,1.25-.65,1.87-.98l1.91-.92c1.3-.53,2.65-.95,3.98-1.41,1.38-.29,2.74-.67,4.12-.88l2.09-.24,1.04-.12c.35-.03.7-.01,1.05-.02,4.97-.18,9.96.66,14.57,2.34l2.21.84c.72.32,1.42.68,2.14,1.03.71.34,1.43.69,2.09,1.12.68.41,1.35.83,2.01,1.26.65.45,1.25.97,1.88,1.45.62.49,1.24.98,1.79,1.55.58.54,1.1,1.14,1.6,1.74.49.62.9,1.31,1.34,1.95,1.06,1.65.79,1.49-.65.62-.73-.42-1.72-1.05-3.02-1.62-.63-.3-1.21-.73-1.85-1.15-.67-.38-1.36-.8-2.05-1.28-4.89-3.33-10.53-5.52-16.36-6.31-1.46-.11-2.93-.37-4.4-.3-.73.01-1.47-.02-2.21.02l-2.2.23c-.37.04-.74.06-1.1.12l-1.08.23-2.18.46-2.11.7-1.06.34c-.35.12-.68.3-1.02.45-.81.38-1.63.76-2.45,1.14-.77.48-1.53.97-2.31,1.46-.8.45-1.48,1.07-2.2,1.66-.7.61-1.45,1.13-2.1,1.81-2.7,2.6-5.09,5.54-7.13,8.67-4.52,6.89-7.22,14.91-8.69,23.13-.93,5.07-1.44,10.23-1.83,15.42-.31,3.93-.52,7.9-1.1,11.89-.29,2.02-.81,3.97-1.32,5.9-.56,1.93-1.17,3.85-2,5.7-1.24,2.88-2.87,5.62-4.99,7.97-2.11,2.35-4.64,4.28-7.3,5.87-1.17.72-2.34,1.34-3.57,1.97-1.15.52-2.1.98-2.92,1.28-.82.3-1.5.5-2.07.65-1.14.27-1.87.23-2.52.03-.29-.08-.65-.13-.84-.23-.63-.31,1.02-1.67,4.21-3.31,4.73-2.39,9.46-5.01,12.82-8.86,3.39-3.82,5.33-8.88,6.57-14.24.95-3.83,1.15-8.02,1.49-12.25.31-4.23.63-8.52,1.17-12.81h.08Z"/><path class="cls-1" d="m326.94,97.4l-.46-5.35c-.16-1.75-.35-3.49-.6-5.23-.49-3.47-1.19-6.91-2.14-10.26-.68-2.46-1.61-4.83-2.58-7.16-1.67-4.14-3.9-8.04-6.68-11.52-.71-.85-1.44-1.71-2.21-2.5-.38-.39-.77-.78-1.19-1.14-.41-.37-.82-.74-1.26-1.07-1.73-1.36-3.6-2.56-5.63-3.39-3.58-1.5-7.64-1.79-11.29-.64-1.14.46-2.32.82-3.38,1.48-.53.31-1.1.56-1.61.92l-1.52,1.1-.76.54c-.25.19-.47.42-.71.62l-1.41,1.25-2.89,2.52c-1.25,1.03-1.27.77-.74-.58.27-.68.64-1.66,1.19-2.82.28-.57.75-1.05,1.21-1.61.48-.54.98-1.11,1.58-1.63l1.7-1.28c.56-.43,1.13-.86,1.78-1.18l1.89-1.05c.65-.31,1.36-.53,2.04-.79,2.75-.93,5.77-1.36,8.68-.92,2.91.4,5.66,1.44,8.12,2.87,2.46,1.44,4.66,3.23,6.58,5.31,4.5,4.88,8.16,10.82,10.48,17.11,2.55,6.92,3.87,14.18,4.49,21.42.39,4.41.78,8.81,1.37,13.18.89,6.6,2.11,13.22,4.43,19.35,1.81,4.74,4.39,9.11,7.88,12.51.4.36.79.71,1.18,1.06.41.33.83.65,1.25.99,1.61,1.15,2.67,1.91,3.43,2.45.74.59,1.16.98,1.43,1.51.12.23.32.49.37.69.09.34-.29.45-1.12.36-.41-.05-.94-.12-1.53-.33-.6-.19-1.29-.43-2.02-.81-4.4-2.21-7.93-6.11-10.47-10.41-2.56-4.33-4.26-9.09-5.53-13.9-1.84-7.16-2.71-14.45-3.43-21.66l.08-.02Z"/><path class="cls-1" d="m224.7,105.91c.53.97,1.28,1.9,2.22,2.7.43.43.97.77,1.47,1.16.55.33,1.06.71,1.64,1,.42.22.84.44,1.28.61l.67.26c.07.03.11.05.17.08.07.04.15.08.23.12l.36.17c.06.03.13.07.21.06.07-.02.07-.09.07-.14,0-.21-.08-.44-.15-.72-.04-.15-.08-.3-.24-.76l-.37-1.18c-.24-.79-.45-1.59-.63-2.4-.36-1.58-.61-3.21-.66-4.84-.02-1.05-.02-2.11.19-3.16.22-1.04.62-2.05,1.21-2.92.37-.55.6-.33.8.3.1.32.21.74.34,1.22.09.47.17.98.15,1.5,0,.46-.03.91-.07,1.36-.02.45-.03.91-.02,1.37.03.91.13,1.83.28,2.76.15.92.31,1.86.54,2.8.11.47.23.94.36,1.42l.2.72.1.36.05.18.09.28c.2.64.5,1.41.7,2.09.2.68.26,1.29.17,1.73-.05.22-.09.43-.22.65-.07.11-.19.23-.3.28-.12.05-.17.11-.32.09h-1.59s-1.64-.54-1.64-.54c-.27-.09-.54-.21-.82-.31l-.57-.23c-2.64-1.1-5.23-2.6-7.26-4.84-1.23-1.38-2.18-3.12-2.54-5.01-.26-1.44-.13-2.94.35-4.3.47-1.36,1.25-2.59,2.23-3.61.76-.79,1.62-1.5,2.61-2.03.99-.53,2.12-.86,3.3-.91.52-.05,1.03,0,1.56.07,1.9.55,2.25,1.23,2.17,2.01-.01.17,0,.35-.04.48-.06.22-.29.32-.66.41-.19.06-.38.06-.58.03-.21,0-.44,0-.68-.04-.73-.02-1.38-.03-2.03.11-.65.15-1.25.42-1.83.73-1.15.66-2.18,1.71-2.75,2.95-.45.91-.66,1.91-.58,2.9.05.99.33,2.01.89,2.96l-.06.04Z"/><path class="cls-1" d="m313.4,104.54c-1.41,2.58-3.66,4.2-5.87,5.39-.41.2-.82.41-1.22.63-.11.06-.17.1-.33.17l-.49.2-.98.39c-.49.19-.96.38-1.48.55l-1.17.02c-.19,0-.4.02-.57,0-.13-.05-.28-.09-.44-.25-.26-.33-.24-.6-.28-.94-.01-.34.04-.78.19-1.27.16-.51.38-1.04.58-1.55l.28-.77.18-.51c.21-.61.38-1.22.51-1.85.25-1.24.33-2.52.2-3.76-.07-.8-.26-1.58-.43-2.37-.15-.79-.29-1.59-.42-2.44-.07-.53.22-.6.79-.34.56.25,1.53.83,1.96,1.84.71,1.79.88,3.78.76,5.71-.07.97-.28,1.91-.54,2.83-.14.46-.29.91-.45,1.35l-.06.16s-.02.01-.02.02l-.05.06-.12.15c-.14.2-.3.45-.36.7-.02.18.18.08.27.05l.34-.13c.19-.06.45-.2.69-.28,1.96-.95,3.88-2.21,5.1-3.89.75-1.03,1.28-2.21,1.32-3.45.15-1.85-.66-3.86-2.17-5.03-1.17-.9-2.68-1.14-3.85-.75-.27.07-.5.21-.75.33-.48.18-.8.36-1.12.38-.28.08-.59-.02-.94-.17-.16-.07-.32-.11-.45-.17-.21-.11-.28-.32-.26-.7,0-.4.25-.82.7-1.28,1.29-1.42,3.7-1.98,5.76-1.45,2.06.56,3.78,1.93,4.88,3.67.82,1.29,1.32,2.81,1.4,4.37.07,1.56-.33,3.11-1,4.42l-.07-.03Z"/><path class="cls-1" d="m247.09,167.75c5.49-1.31,10.71-3.37,15.83-6.08.74-.33,1.55-.58,2.37-.38.88.16,1.35.44,1.82.67.89.48,1.6.92,2.34,1.29,1.47.73,3.01,1.22,4.64,1.47,3.12.43,6.49.25,9.25-.9,1-.41,1.94-.95,2.81-1.62.43-.34.86-.7,1.27-1.09.2-.2.41-.39.61-.6l.35-.37.53-.59.57-.41.14-.1.07-.05.04-.03c.11.3.04.08.06.15h.01s.02-.01.02-.01c.11-.04.21-.06.32-.1.43-.16.95,0,1.44.12l1.88.5c1.15.3,2.3.57,3.46.82,2.32.49,4.66.85,7.01,1.08,4.71.46,9.48.41,14.16-.3,5.2-.78,10.34-2.41,14.93-4.87,2.97-1.6,5.86-3.38,8.61-5.34,1.39-.96,2.69-2.04,4.05-3.04,1.35-1.02,2.68-2.07,3.95-3.19,1.59-1.4,1.57-1.07.66.57-.22.42-.51.9-.87,1.45-.33.57-.76,1.17-1.24,1.82-.48.65-1.01,1.36-1.65,2.03-.64.67-1.39,1.29-2.18,1.94-2.84,2.2-5.81,4.24-8.98,5.95-1.58.85-3.18,1.69-4.92,2.37-1.68.71-3.41,1.27-5.15,1.8-6.99,2.02-14.37,2.56-21.56,1.76-2.43-.27-4.87-.65-7.3-1.14-1.22-.25-2.43-.52-3.64-.82l-1.67-.42-.29-.07c-.11-.05-.15.1-.22.15l-.23.25c-.17.18-.34.37-.52.55-.35.36-.73.71-1.1,1.05-.77.67-1.61,1.29-2.51,1.82-1.8,1.07-3.84,1.71-5.85,1.98-3.06.4-6.09.26-9.11-.54-1.49-.41-2.95-1.06-4.24-1.79-.65-.35-1.28-.74-1.78-.96-.29-.12-.38-.15-.52-.17-.07,0-.14.02-.21.02l-.2.07c-3.32,1.72-6.84,3.39-10.45,4.63-5.6,2.02-11.54,3.12-17.49,3.38-9.05.37-18.1-1.89-26.14-5.7-6.26-2.99-12-6.74-17.22-11.21-1.14-.99-2.26-1.96-3.36-3.02-4.02-3.99-4.9-5.64-4.94-7.14-.02-.33-.12-.72-.1-.94.01-.68,2.08.54,4.88,3.37,4.23,4.15,8.89,8.06,13.99,11.4,2.55,1.67,5.21,3.2,7.96,4.54,2.76,1.32,5.63,2.43,8.56,3.31,4.36,1.28,8.88,2.07,13.44,2.14,4.55.1,9.13-.43,13.58-1.53l.03.08Z"/><path class="cls-1" d="m272,203.42c-2.81.08-5.68.44-7.89,1.63-2.4,1.37-4.68,3.21-6.84,5.16-1.58,1.43-3.06,2.99-4.58,4.52-5.34,5.41-10.45,11.14-15.94,16.56-2.44,2.4-4.92,4.8-7.59,6.98-1.72,1.38-3.53,2.72-5.58,3.73-2.02.98-4.4,1.78-6.78,1.27-1.45-.44-1.07-.68.07-1.12,1.18-.46,2.82-1.35,4.84-2.3,3.62-1.79,6.93-4.65,10.1-7.59,3.17-2.99,6.23-6.16,9.35-9.34,3.75-3.79,7.35-8.04,11.27-11.92,2.16-2.13,4.41-4.19,6.87-6.06,1.25-.94,2.49-1.79,3.96-2.56,1.5-.73,3.06-1.13,4.61-1.38,3.83-.6,7.62-.4,11.34.04,2.82.34,5.61.88,8.36,1.58,2.75.72,5.46,1.52,8.08,2.82.74.4,1.53.88,2.01,1.48.24.3.43.63.48,1.02.03.19-.01.39-.07.57-.09.17-.16.34-.26.5-.29.41-.67.76-1.12,1.04-.46.26-.99.48-1.54.59l-.4.09-.32.05c-.21.04-.42.05-.63.07-.42.04-.83.05-1.23.05-1.62-.01-3.17-.21-4.7-.42-.93-.13-1.84-.25-2.78-.38-1.71-.26-2.8-.4-3.54-.58-.75-.23-1.17-.44-1.57-.73-.18-.14-.42-.23-.55-.36-.22-.19,0-.49.69-.78.68-.29,1.79-.55,3.14-.45,2.4.12,4.73.5,7.01.72,1.13.11,2.26.18,3.27.15.25-.01.49-.03.72-.06.16-.02.1-.02.14-.03.03,0,.03-.01.03-.02.02-.02.03-.04.03-.06,0-.02-.03-.04-.05-.04,0,0-.02,0-.01,0-.27-.14-.61-.3-.94-.44-1.33-.58-2.8-1.07-4.27-1.5-5.56-1.56-11.47-2.57-17.19-2.42v-.07Z"/><path class="cls-1" d="m296.74,217.53c.53.34.99.63,1.4.84.41.21.75.3.9.3.13,0,.24,0,.48-.27l.04-.04h0s.21.16.11.08h0s0,0,0,0h0s0,0,0,0h0s.03.02,0,0c-.12-.05-.08-.01-.06-.04.05-.03.06-.18.05-.35-.07-.55-.59-1.17-1.06-1.77-1.78-2.16-4.42-3.88-7.19-5.04-1.24-.52-2.55-.92-3.86-1.18-.84-.17-1.7-.28-2.56-.38-.86-.11-1.71-.15-2.57-.54-.54-.23-.48-.33,0-.69.47-.39,1.4-1.12,2.48-1.01,1.9.08,3.8.38,5.64.92.93.25,1.82.63,2.69,1.04.87.41,1.71.89,2.51,1.43,1.9,1.3,3.96,2.59,5.45,4.68.4.59.75,1.23.99,2.06.12.4.16.91.07,1.44-.09.55-.48,1.09-.74,1.33-.56.63-1.55,1.14-2.48,1.1-.92-.01-1.64-.33-2.25-.63-.75-.39-1.4-.85-1.98-1.18-.15-.08-.27-.15-.38-.19l-.6-.26c-.37-.19-.72-.37-1.05-.56-2.01-1.15-3.94-2.29-6.03-3.04-1.62-.59-3.29-.86-4.94-1.01-.36-.04-.72-.04-1.09-.06-1.34-.16-1.76-.37-2.06-1.08-.07-.15-.16-.3-.2-.44-.14-.45.45-.96,1.59-1.16,3.37-.34,6.92.69,10.04,2.15,1.17.54,2.3,1.16,3.37,1.76.53.3,1.07.6,1.51.82l.86.37c.37.18.68.37.95.53l-.03.06Z"/><path class="cls-1" d="m295.68,220.53c.32.37.63.75.92,1.16.14.21.27.43.4.67.06.12.13.23.19.36.07.14.19.37.24.55.29.74.41,1.5.23,2.17-.16.69-.66,1.25-1.27,1.58-.76.39-1.69.37-2.56.08-.17-.05-.35-.11-.5-.18-.11-.05-.23-.1-.33-.15-.21-.1-.42-.2-.62-.31-.4-.21-.77-.43-1.12-.66-2.44-1.65-4.79-3.18-7.46-4.18-1.18-.45-2.41-.74-3.64-.95-.79-.13-1.59-.21-2.39-.27-.8-.08-1.6-.09-2.41-.53-.51-.26-.45-.26,0-.6.43-.36,1.29-1.18,2.29-1.06,1.76.07,3.55.29,5.26.8,1.71.51,3.35,1.23,4.88,2.13,1.79,1.05,3.62,2.12,5.43,3.19.21.12.42.24.63.34.1.05.21.11.3.15l.16.07c.17.07.37.13.57.07.26-.05.39-.33.33-.58-.02-.12-.06-.26-.12-.37,0-.04-.11-.21-.18-.3-.07-.11-.15-.23-.23-.34-.72-1.04-1.69-2.01-2.73-2.87-1.59-1.31-3.35-2.48-5.21-3.38-1.45-.71-2.99-1.12-4.5-1.6-.33-.1-.67-.18-1-.3-.62-.2-1.01-.38-1.27-.59-.24-.25-.36-.5-.42-.8-.03-.14-.08-.28-.09-.4-.01-.21.13-.35.42-.47.28-.11.73-.26,1.23-.17,3.07.21,6.07,1.52,8.87,3.14,2.07,1.23,4.02,2.7,5.76,4.56l-.04.05Z"/><path class="cls-1" d="m245.93,237.38c1.03-1.15,2.1-2.25,3.18-3.34.4-.4.74-.84,1.14-1.23,1.44-1.35,2.92-2.66,4.42-3.94.67-.56,1.29-1.18,1.98-1.73.43-.36.83-.75,1.33-1.05.48-.3,1.02-.54,1.57-.73.35-.12.44.15.38.6-.06.46-.21,1.1-.56,1.63-.71.82-1.48,1.57-2.26,2.33-.84.7-1.68,1.42-2.57,2.1-1.07.82-1.93,1.93-2.86,2.92-1.03,1.09-2.06,2.2-3.06,3.33-.62.69-1.23,1.39-1.82,2.11-.89,1.09-1.78,2.19-2.52,3.36-.56.92-1.02,1.89-1.45,2.84-.1.21-.19.42-.31.62-.4.75-.68.91-1.3.83-.14-.02-.29-.02-.42-.06-.44-.11-.63-.6-.49-1.3.4-2.08,1.47-3.95,2.68-5.66.9-1.27,1.89-2.48,2.89-3.68l.05.04Z"/><path class="cls-1" d="m239.63,245.29c1.63,1.62,3.4,3.14,5.29,4.41.69.47,1.44.82,2.15,1.2.86.45,1.75.84,2.61,1.03.43.12.83.11,1.17.08.14-.06.33-.05.42-.14.1-.03.18-.09.26-.16.27-.2.29-1.19.2-2.04-.09-1.26-.44-2.56-.87-3.79-.54-1.59-1.27-3.11-1.78-4.63-.19-.43-.02-.63.61-.53.32.05.72.21,1.17.44.21.12.46.25.66.43.18.18.35.39.5.62.45.77.87,1.55,1.23,2.35.32.82.58,1.65.81,2.51.21.86.4,1.75.44,2.71,0,.5-.01.99-.11,1.55-.02.25-.14.61-.24.91-.12.32-.38.64-.55.96-.35.29-.68.62-1.11.79-.39.22-.78.26-1.17.35-.36.01-.75.07-1.08.02-.34-.02-.68-.05-.98-.11-.32-.05-.62-.12-.92-.21-1.19-.33-2.27-.8-3.29-1.35-2.21-1.23-4.18-2.75-6.02-4.38-1.14-1-2.22-2.06-3.25-3.17-1.57-1.66-2.99-3.47-4.33-5.31-1.03-1.43-2.1-2.84-2.93-4.44-.18-.35-.34-.71-.49-1.09-.24-.71-.35-1.2-.31-1.57.07-.38.22-.62.46-.83.11-.1.21-.21.31-.27.18-.11.39-.03.63.16.25.19.52.5.75.93.35.63.74,1.25,1.15,1.86.37.63.77,1.25,1.19,1.87.83,1.24,1.74,2.48,2.72,3.68,1.45,1.78,3.04,3.49,4.72,5.09l-.04.05Z"/><path class="cls-1" d="m330.77,237.48c-.6-.72-1.17-1.48-1.7-2.28-.2-.28-.44-.53-.62-.83-.63-1.05-1.22-2.14-1.63-3.29-.2-.5-.4-.99-.61-1.48-.12-.32-.25-.63-.35-.95-.09-.33-.15-.66-.19-1-.02-.21.18-.24.44-.14.26.1.62.31.8.63.65,1.14,1.39,2.15,1.98,3.3.32.71.91,1.28,1.42,1.89.56.68,1.15,1.33,1.74,2,.36.41.74.82,1.13,1.21.59.59,1.18,1.21,1.83,1.74.49.43,1.07.75,1.6,1.14.12.08.25.15.35.25.3.47.29.74.07,1.14-.05.09-.09.19-.15.27-.18.27-.54.34-1.01.29-.37-.02-.64-.16-.91-.29-.28-.13-.55-.28-.81-.44-.54-.31-1.04-.66-1.47-1.11-.67-.63-1.31-1.33-1.95-2.02l.04-.04Z"/><path class="cls-1" d="m330.65,246.24c1.57-1.21,2.98-2.83,4.16-4.6.43-.65.77-1.35,1.16-2.03,1.38-2.4,2.47-5,3.28-7.7.37-1.2.62-2.44.81-3.67.12-.79.18-1.59.31-2.38.16-.79.31-1.58.63-2.37.19-.49.29-.43.56.02.18.3.37.63.56.93.2.39.34.84.38,1.33.12.87-.04,1.72-.11,2.57-.08.86-.23,1.7-.38,2.55-.3,1.7-.85,3.36-1.56,4.95-.84,1.9-1.56,3.93-2.62,5.8-1.15,2.04-2.54,3.96-4.24,5.64-1.05,1.02-2.21,1.99-3.66,2.62-.56.23-1.16.42-1.86.44-.76.01-1.55-.26-2-.88-.1-.16-.22-.31-.29-.48l-.19-.53c-.05-.31-.13-.66-.14-.94-.06-.58-.03-1.15,0-1.7.16-1.71.47-3.36,1.08-4.96.13-.35.27-.7.44-1.04.64-1.31,1.36-1.43,1.87-1.33.12.02.25.03.34.07.15.07.17.24.16.52-.03.27-.04.67-.2,1.07-.52,1.17-.9,2.5-1.16,3.83-.11.67-.18,1.34-.19,1.99,0,.32,0,.63.03.93.04.29.08.6.12.72.02.09.01.06.02.06h0s0,0,0,0c0,0,0,0,0,.01.11-.03.23-.04.39-.11.32-.12.7-.31,1.07-.57.39-.22.79-.51,1.17-.82l.05.05Z"/><path class="cls-1" d="m359.42,255.67c3.07-2.28,4.45-6.16,4.29-10.24-.03-1.49-.35-2.98-.65-4.47-.54-2.64-1.41-5.25-2.46-7.8-1.04-2.56-2.27-5.06-3.66-7.47-1.25-2.13-2.62-4.22-4.1-6.18-.94-1.27-1.96-2.48-2.97-3.69-.96-1.26-1.86-2.57-2.8-3.87-.57-.82-.35-.87.52-.55.86.33,2.51.95,3.99,2.17,2.35,2.4,4.41,5.04,6.32,7.8,1.85,2.8,3.43,5.79,4.74,8.92,1.55,3.73,3.17,7.67,3.8,11.88.35,2.3.41,4.69-.01,7.05-.41,2.36-1.36,4.7-2.93,6.56-1.85,2.33-4.53,3.97-7.38,4.64-2.16.52-4.36.54-6.49.33-2.13-.24-4.2-.7-6.21-1.29-3.12-.91-6.13-1.97-9.06-3.25-.65-.28-1.28-.54-1.92-.86-2.31-1.26-2.92-1.88-3.07-2.75-.03-.2-.11-.41-.09-.58.04-.57,1.17-.43,2.94.24,5.19,2.03,10.51,4.48,16.03,5.4,4.04.7,8.2.34,11.12-2.04l.05.06Z"/><path class="cls-1" d="m305.75,262.95c-4.28,2.85-8.92,5.11-13.76,6.74l-2.66.85c-.88.29-1.79.49-2.7.71-3.2.69-6.46,1.15-9.73,1.27-3.27.11-6.54-.06-9.77-.54-2.86-.44-5.7-1.09-8.45-1.96l-2.61-.96c-.86-.36-1.69-.76-2.54-1.15-.84-.39-1.62-.92-2.39-1.44-.79-.49-1.47-1.14-2.09-1.85-.73-.94-.57-.87.5-.74.53.07,1.32.08,2.1.32.4.1.85.19,1.29.32.22.07.45.14.68.21.22.1.43.2.65.32,6.31,3.08,13.32,4.58,20.53,4.75,4.32.11,8.8-.74,13.06-1.93,4.69-1.32,9.22-3.24,13.43-5.72,2.56-1.57,5.06-3.28,7.31-5.28,3.44-2.99,6.47-6.51,8.74-10.43,1.77-3.04,2.99-6.3,3.78-9.64.22-.72.29-1.47.46-2.21.6-2.76.83-3.62,1.85-4.12.19-.12.37-.29.51-.36.37-.25,1.11,1.05.94,3.29-.36,3.28-1.2,6.62-2.5,9.84-1.35,3.2-3.15,6.26-5.26,9.07-3.18,4.15-7.06,7.76-11.34,10.71l-.05-.06Z"/><path class="cls-1" d="m345.27,196.51c-2.39-3.27-4.68-6.61-7.09-9.86-.89-1.18-1.87-2.29-2.73-3.48l-2.27-3.16-1.15-1.56-1.07-1.43-.25-.33-.13-.15c-.06-.01-.12.03-.17.05-.11.05-.22.12-.33.18-.07.04-.41.27-.66.43-1.06.72-2.12,1.47-3.17,2.23-1.87,1.35-3.7,2.78-5.51,4.19-1.17.89-2.34,1.81-3.54,2.68-1.21.86-2.43,1.73-3.92,2.22-.5.09-.76.04-.81-.09-.05-.13.08-.38.25-.84.17-.46.47-.99.84-1.6.39-.58.93-1.14,1.59-1.65,2.35-1.8,4.7-3.65,7.14-5.41,1.21-.89,2.43-1.78,3.68-2.64.62-.43,1.25-.86,1.9-1.29l1.29-.83c.57-.35,1.16-.64,1.7-.59.08,0,.16.09.25.04l.22.13.43.26c.27.21.5.55.76.82.58.65.77.93,1.07,1.31.57.73,1.15,1.47,1.72,2.21,1.14,1.48,2.33,2.93,3.39,4.45,2.33,3.36,4.78,6.61,7.17,9.91l2.22,3.04,1.12,1.51.59.78.86,1.1.65.82c.05.04,0,.06-.03.09l-.1.09-.2.17-.4.34-1.5,1.28-2.18,1.84c-1.45,1.23-2.9,2.47-4.33,3.69-2.23,1.91-4.32,3.91-6.56,5.77-.49.41-.96.82-1.47,1.22-.95.73-1.59,1.19-2.11,1.41-.55.2-.93.22-1.31.16-.17-.03-.37-.03-.49-.08-.21-.08-.17-.33.04-.77.21-.43.6-1.04,1.24-1.63,3.66-3.72,7.86-7.12,11.97-10.73l2.31-1.99,1.16-1,.12-.1h0s.02-.02.02-.02l.04-.03s.03-.03.03-.04c0-.01,0,0-.02-.04l-.47-.62-1.84-2.46.05-.05Z"/><path class="cls-1" d="m252.02,308.1c-2.48,1.31-5.04,2.5-7.7,3.49-2.65,1-5.38,1.83-8.23,2.32-2.08.33-4.21.61-6.39.43-.48-.04-.96-.14-1.44-.21-.48-.06-.96-.15-1.43-.31-.47-.14-.94-.26-1.41-.42l-1.36-.61c-1.74-.92-3.39-2.16-4.52-3.77l-.45-.58c-.14-.22-.28-.46-.42-.69-.25-.48-.46-.97-.61-1.47-.3-1-.42-2.02-.42-3,.02-1.96.42-3.8.95-5.55.94-3.12,2.24-6.06,3.61-8.89,1.78-3.63,3.57-7.25,6.12-10.38.5-.43.77-.59.86-.52.1.07.06.4.09,1.02.04.63-.06,1.43-.2,2.39-.17.94-.5,1.97-.99,3.01-.83,1.85-1.84,3.6-2.7,5.41-.89,1.79-1.7,3.6-2.47,5.4-.76,1.8-1.43,3.62-1.84,5.43-.4,1.8-.57,3.62-.08,5.1.18.44.31.82.66,1.26.35.41.63.9,1.03,1.27.42.35.77.78,1.24,1.07l.69.45c.22.16.46.3.72.4,2,.98,4.34,1.3,6.69,1.25,5.23-.12,10.45-2.04,15.36-4.31,3.03-1.43,5.98-3.07,8.82-4.88,4.29-2.76,8.47-5.79,12.24-9.19,2.93-2.64,5.55-5.5,7.97-8.51.51-.68,1.01-1.34,1.52-2.02.95-1.26,1.56-2.08,2.13-2.57.54-.51.96-.74,1.47-.83.23-.04.49-.14.68-.13.33,0,.42.35.3.99-.06.32-.17.71-.34,1.16-.19.44-.41.94-.72,1.48-1.9,3.12-4.3,5.97-6.89,8.67-2.6,2.69-5.44,5.21-8.42,7.57-2.21,1.75-4.49,3.41-6.86,4.96-2.36,1.57-4.78,3.03-7.29,4.37l-.04-.06Z"/><path class="cls-1" d="m341.74,314.19c-3.13,1.37-6.46,1.83-9.71,1.78-3.26-.05-6.43-.71-9.45-1.68-2.2-.71-4.37-1.53-6.4-2.61-7.18-3.79-13.17-9.22-18.46-15.07-2.37-2.59-4.6-5.31-6.74-8.05-2.7-3.54-5.43-7.12-7.22-11.24-.5-1.32-.27-1.24.78-.52.53.35,1.23.89,2.04,1.55.77.69,1.58,1.54,2.37,2.52l1.03,1.32c.32.46.65.91.99,1.34l2.02,2.66c1.38,1.74,2.77,3.47,4.21,5.16,2.84,3.41,5.84,6.69,9.09,9.73,3.88,3.66,8.6,6.69,13.52,8.85,2.7,1.19,5.53,2.1,8.42,2.58,2.88.44,5.85.52,8.68-.08,1.74-.35,3.43-.94,4.94-1.8.73-.45,1.46-.93,2.04-1.53.33-.28.53-.61.8-.91.19-.35.45-.67.58-1.05.99-2.27.72-5.1.03-7.74-.7-2.66-1.81-5.26-3.06-7.75-1.96-3.89-4.37-7.45-6.73-11.11-.52-.8-1.03-1.6-1.53-2.43-.91-1.56-1.46-2.63-1.7-3.47-.21-.85-.17-1.42-.01-1.93.07-.23.1-.5.17-.64.13-.25.43-.07.96.37.55.44,1.24,1.18,1.96,2.26,1.08,1.59,2.28,3.16,3.37,4.83,1.1,1.67,2.19,3.38,3.25,5.14,2.1,3.53,4.11,7.25,5.58,11.36.54,1.52,1.01,3.11,1.29,4.79.27,1.68.39,3.47.04,5.33-.07.46-.23.93-.35,1.39-.16.46-.36.91-.56,1.36-.26.43-.48.87-.79,1.27-.31.37-.61.81-.96,1.11-1.34,1.32-2.86,2.26-4.43,2.97l-.04-.07Z"/><path class="cls-1" d="m280.47,450.2c-3.35,2.17-7.14,3.11-10.82,3.48-.93.09-1.85.14-2.77.17-.46,0-.91.01-1.39,0l-1.48-.11c-.5-.02-.98-.12-1.46-.23l-1.43-.32-1.37-.48c-.46-.16-.91-.32-1.33-.55-3.49-1.63-6.39-4.08-8.85-6.8-2.45-2.73-4.5-5.75-6.29-8.87-2.58-4.58-4.69-9.38-6.34-14.3-2.88-8.7-4.78-17.65-5.99-26.66-1.22-9.01-1.84-18.08-2.03-27.14-.16-8.04-.08-16.13.27-24.09.42-10.24,1.4-20.5,3.17-30.58.73-3.12.8-2.67,1.03.07.13,1.37.16,3.3.16,5.62-.02,2.32.02,5.04-.21,7.96-.29,5.19-.65,10.36-.9,15.54-.23,5.18-.44,10.36-.51,15.55-.16,10.38.2,20.78,1.2,31.17,1.23,12.4,3.92,25.25,8.71,36.99,1.29,3.23,2.83,6.36,4.58,9.33,1.75,2.98,3.75,5.81,6.12,8.25,2.36,2.44,5.09,4.55,8.2,5.66l1.16.41c.4.1.8.17,1.19.26.79.22,1.61.18,2.41.27,1.7.02,3.42-.1,5.09-.35,4.1-.61,8.17-2.17,10.75-5.23.33-.37.6-.78.9-1.19l.8-1.34c.58-.87.95-1.87,1.43-2.8.41-.97.78-1.96,1.15-2.95.3-1.02.66-2.02.9-3.05.84-3.11,1.31-6.34,1.66-9.58.35-3.24.48-6.51.54-9.78.1-6.55-.26-13.1-.79-19.61-.81-10.12-2.22-19.99-3.03-30.08-.17-2.22-.36-4.4-.42-6.66-.08-2.09-.06-3.84.05-5.3.09-1.46.23-2.65.42-3.62.44-1.93.91-3.01,1.44-3.83.23-.37.46-.87.62-1.08.27-.35.33.33.39,1.83.12,1.51.18,3.81.25,6.78.2,8.82,1.3,17.97,2.27,27.27.98,9.31,1.93,18.82,2.2,28.45.08,3.58.07,7.18-.1,10.79-.2,3.61-.59,7.24-1.25,10.85-.67,3.61-1.63,7.21-3.14,10.67l-1.25,2.55c-.5.82-.97,1.64-1.49,2.46-1.16,1.71-2.69,3.16-4.37,4.27l-.06-.06Z"/><path class="cls-1" d="m323.56,449.31c1.35-.03,2.68-.18,3.92-.62,1.24-.44,2.4-1.07,3.47-1.9,1.04-.86,2-1.86,2.84-2.99.81-1.15,1.59-2.36,2.21-3.69,1.3-2.61,2.25-5.45,2.99-8.36.74-2.91,1.28-5.9,1.69-8.91.59-4.4.85-8.85,1.02-13.31.58-15.74-.56-31.59-2.37-47.32-.82-6.98-1.87-13.98-3.05-20.85-1.56-8.83-3.12-17.69-4.67-26.51-.28-2.8-.24-2.43.76-.23.51,1.1,1.1,2.69,1.78,4.63.33.97.68,2.03,1.03,3.16.17.57.34,1.15.52,1.75.14.61.29,1.23.43,1.86.98,4.5,1.92,9,2.74,13.53.77,4.54,1.48,9.08,2.11,13.65,1.27,9.13,2.25,18.32,2.84,27.58.68,11.07,1.33,22.64.63,34.05-.41,6.26-1.15,12.54-2.79,18.69-.83,3.07-1.9,6.1-3.41,8.97-1.54,2.84-3.57,5.57-6.39,7.47-1.72,1.16-3.72,1.95-5.76,2.28-.51.11-1.02.14-1.54.17l-.77.05-.76-.03-1.53-.07c-.51-.04-1.01-.17-1.51-.25-2.02-.32-3.91-1.15-5.71-2.08-1.72-1.04-3.37-2.22-4.78-3.61-2.19-2.07-4.04-4.43-5.62-6.94-1.6-2.49-3.01-5.09-4.22-7.76-2.48-5.33-4.37-10.87-5.99-16.42-2.47-8.66-4.45-17.26-5.79-26.05-.3-1.93-.6-3.82-.84-5.78-.9-7.26-.76-9.61-.29-11.23.11-.37.2-.85.31-1.06.19-.37.45.18.77,1.47.32,1.29.76,3.33,1.16,5.95.63,3.89,1.34,7.81,2.13,11.76.8,3.94,1.68,7.9,2.57,11.88,1.84,7.94,4.09,15.89,7.02,23.52,2.22,5.63,4.9,11.13,8.6,15.69,1.84,2.28,3.98,4.25,6.39,5.65,2.4,1.4,5.09,2.16,7.85,2.12v.08Z"/><path class="cls-1" d="m244.56,304.31c-2.02.98-4.09,1.88-6.25,2.59-.79.26-1.57.56-2.38.75-1.44.33-2.93.55-4.45.55-1.52,0-3.06-.19-4.54-.89-1.38-.69-2.32-1.87-2.87-3.12-.33-.82-.56-1.68-.56-2.56,0-.88.21-1.76.62-2.52.27-.47.37-.31.45.15.07.47.32,1.22.58,1.97.37,1.35,1.14,2.52,1.91,3.34.2.2.42.35.64.49l.34.16.47.16c.64.19,1.32.36,2.06.44,1.76.22,3.67-.33,5.49-.87,2.01-.63,4.02-1.41,5.98-2.34,1.21-.57,2.4-1.17,3.56-1.83,1.77-.99,3.53-2.04,5.18-3.21,1.27-.93,2.44-1.94,3.66-2.9.27-.21.52-.44.79-.64,1.06-.71,1.51-.81,2.05-.55.12.06.26.11.37.18.34.24.14.84-.48,1.6-.91,1.12-1.99,2.11-3.1,3.11-1.14.95-2.38,1.79-3.64,2.63-1.88,1.22-3.84,2.34-5.85,3.39l-.03-.06Z"/><path class="cls-1" d="m316.89,301.68c.72.5,1.43,1.01,2.2,1.43l1.14.66,1.18.57c.57.3,1.19.46,1.78.68,1.04.44,2.12.74,3.2,1.03l1.65.37,1.68.19c.99.02,2.01-.01,2.96-.25,1.25-.25,2.35-.74,3.7-.92.42-.06.47.1.31.53-.08.22-.22.51-.41.85-.19.35-.45.73-.85.87-.68.3-1.36.69-2.1.78-.73.15-1.47.31-2.2.31l-1.11.05c-.37,0-.73-.05-1.1-.08l-1.09-.11-1.07-.24c-.85-.17-1.69-.41-2.55-.63-.86-.18-1.68-.51-2.51-.79-.89-.35-1.75-.79-2.61-1.19-.82-.48-1.67-.91-2.46-1.44l-1.45-.98c-.48-.33-.92-.71-1.39-1.05-.71-.52-1.36-1.11-2.02-1.7-.67-.57-1.29-1.18-1.91-1.8-.49-.47-.99-.92-1.44-1.4-.47-.47-.95-.94-1.37-1.47-.18-.24-.36-.46-.53-.7-.32-.45-.48-.78-.53-1.06-.06-.27-.03-.47.05-.67.04-.09.06-.19.1-.26.13-.22.62-.02,1.3.44,1.78,1.53,3.59,3.05,5.32,4.67,1.32,1.15,2.67,2.3,4.14,3.27l-.03.05Z"/><path class="cls-1" d="m253.03,99.09c.59,2.04,1.57,4,2.86,5.68s2.88,3.2,4.93,3.73c1.82.48,4.03.05,5.1-1.62.91-1.41.89-3.29.74-4.9-.17-1.77-.59-3.5-.85-5.25-.11-.69-.98-1.08-1.6-.91-.74.2-1.01.9-.91,1.6.19,1.28.49,2.54.67,3.82.03.23-.04-.31.01.08,0,.08.02.16.03.24.02.18.04.36.06.55.03.38.06.76.06,1.13,0,.34,0,.68-.04,1.02,0,0-.05.36-.02.15s-.03.13-.03.14c-.03.16-.07.33-.12.49-.02.06-.05.12-.06.18-.08.29.09-.17,0,0-.06.12-.14.24-.2.36-.09.19,0,0,.05-.05-.05.05-.1.11-.15.16s-.11.1-.16.15c.15-.13.12-.08-.03,0-.05.03-.11.06-.16.08.06-.03.24-.08-.02,0-.18.05-.36.11-.54.15-.07.02-.33.03-.08.02-.08,0-.16.01-.24.01-.09,0-.64-.03-.37,0-.36-.05-.72-.15-1.05-.29.21.08-.04-.02-.09-.05-.09-.05-.19-.1-.28-.15-.19-.11-.38-.22-.56-.35-.24-.16-.14-.09-.33-.25-.16-.13-.32-.27-.47-.42-.35-.33-.68-.69-.99-1.06-1.2-1.44-2.15-3.32-2.67-5.15-.46-1.6-2.97-.92-2.51.69h0Z"/><path class="cls-1" d="m271.94,96.78c.56,2.92,1.59,6.04,3.49,8.36.95,1.15,2.35,2.07,3.89,1.97.9-.06,1.78-.37,2.47-.96s1.13-1.49,1.47-2.34c.95-2.38,1.18-5.11,1.18-7.65,0-1.67-2.6-1.68-2.6,0,0,2.05-.17,3.99-.74,5.94-.06.22-.13.44-.21.65-.04.1-.07.2-.11.3-.09.22.13-.26-.04.09s-.33.66-.55.95c.2-.26-.12.09-.17.15-.07.09-.16.04.06-.04-.05.02-.09.07-.14.09-.09.04-.17.09-.26.12.05-.02.25-.07.04-.02-.16.03-.34.08-.49.13-.16.05.31.01.04-.01-.05,0-.11,0-.17,0-.07,0-.14-.02-.21,0-.16.02.31.09.06,0-.12-.04-.24-.06-.36-.09-.09-.02-.26-.12.04.03-.08-.04-.15-.07-.22-.11-.13-.07-.24-.15-.36-.22-.06-.04-.17-.15.05.05-.06-.05-.12-.09-.17-.14-.24-.21-.44-.44-.65-.68-.05-.06-.18-.24-.01,0-.04-.05-.08-.11-.12-.16-.1-.14-.19-.28-.29-.42-.19-.3-.37-.6-.53-.92s-.31-.62-.45-.93c-.04-.08-.07-.17-.11-.25.1.24.02.06,0,0-.08-.2-.16-.41-.24-.61-.48-1.28-.85-2.6-1.11-3.95-.13-.69-.96-1.08-1.6-.91-.72.2-1.04.91-.91,1.6h0Z"/><path class="cls-1" d="m264.06,84.33c-5.17-1.53-11.54-1.55-15.35,2.86-.49.56-.55,1.39,0,1.94.5.5,1.46.56,1.94,0,3.17-3.67,8.4-3.41,12.68-2.15,1.7.5,2.43-2.15.73-2.65h0Z"/><path class="cls-1" d="m275.51,122.21c-1.06.79-2.25,1.11-3.41,1.16-.53.02-1.06,0-1.59-.05-.12-.01-.23-.03-.35-.04.2.02.15.02,0,0-.17-.03-.34-.05-.51-.08-.47-.08-.9-.16-1.34.09-.51.3-.75.96-.86,1.51-.22,1.08-.11,2.18.12,3.25.46,2.07,1.51,4.35,3.16,5.74.82.69,1.83,1.23,2.93,1.16,1.25-.07,2.28-.73,2.97-1.75.65-.95.93-2.14,1.08-3.26.08-.59.14-1.18.19-1.78.02-.22.03-.44.05-.66,0-.08.02-.16.02-.25.03-.35-.02.13,0,.02.11-.69-.18-1.4-.91-1.6-.62-.17-1.49.21-1.6.91-.08.52-.12,1.05-.16,1.57-.02.29-.05.58-.08.87-.01.14-.03.27-.05.41.04-.33-.04.25-.06.34-.05.3-.12.6-.2.89-.04.15-.09.3-.14.45-.02.07-.05.13-.07.2-.04.09-.02.06.03-.07-.02.05-.04.09-.06.14-.07.13-.14.26-.22.39-.03.06-.07.11-.11.16.15-.23.08-.09.03-.04-.1.1-.19.2-.3.3-.13.11.26-.13,0,0-.07.03-.14.08-.21.11-.15.08.29-.05,0,0-.05,0-.15.04-.19.05-.2.08-.02,0,.06,0-.06,0-.11.01-.17.01-.06,0-.15-.02-.21,0-.16.03.25.07.1.01-.14-.05-.31-.08-.45-.13.27.09.03,0-.09-.06s-.23-.15-.35-.23c-.15-.1.17.15.03.03-.06-.05-.13-.11-.19-.16-.13-.11-.25-.24-.36-.36-.1-.1-.19-.21-.28-.32-.16-.18-.03-.04,0,0-.05-.07-.11-.15-.16-.23-.21-.3-.4-.61-.57-.93-.07-.14-.15-.28-.21-.42-.04-.09-.08-.18-.13-.27-.01-.03-.11-.26-.05-.12.03.07-.12-.3-.15-.39-.07-.18-.13-.37-.19-.55-.11-.36-.21-.73-.28-1.1-.02-.1-.09-.61-.06-.29-.02-.17-.04-.34-.05-.51,0-.16-.01-.32,0-.49,0-.08,0-.15.01-.23,0-.3-.03.09,0,0,.04-.13.06-.27.09-.4.01-.05.05-.1.05-.15.04-.09.02-.05-.06.14.07-.14.03-.1-.13.13l-.57.33c.05-.01-.43.05-.3.04.06,0,.19.03-.08-.01-.29-.05-.04,0,.03,0,.21.04.43.07.64.1.71.1,1.41.18,2.13.17,1.8,0,3.64-.44,5.1-1.52.56-.42.85-1.13.47-1.78-.33-.56-1.21-.89-1.78-.47h0Z"/><g><path class="cls-1" d="m123.48,169.05c1.63-3.87-3.2-5.13-3.2-3.78,0,0-.12-1.75,1.75-2.26,1.87-.51,2.92.84,3.42,2.53s-.9,2.97-.9,2.97l-1.06.54Z"/><path class="cls-1" d="m125.57,163.76c.62,1,.96,2.11.76,3.38-.09.46-.25.93-.53,1.29-.49.64-1.17,1.06-1.9,1.25-.72.19-1.55.14-2.2-.26-.57-.33-1.01-.81-1.3-1.35-.38-.67-.55-1.57-.16-2.29.12-.23.34-.07.54.16.2.24.44.51.51.76.11.46.4.89.74,1.15.35.25.66.38,1.14.41.59.02,1.14-.49,1.36-.98.27-.5.21-1.33-.12-2.05-.2-.44-.49-.85-.85-1.15-.28-.23-.59-.41-.92-.49-.34-.07-.67-.08-.93.08-.44.22-.66.78-.68,1.18,0,.09.02.17.02.24-.05.25-.11.38-.34.7l-.14.22c-.13.21-.56.25-.96-.3-.29-.4-.35-.92-.29-1.38.05-.47.24-.9.51-1.27.27-.37.63-.7,1.09-.94.45-.24,1.04-.34,1.49-.31,1.47.08,2.53.99,3.19,1.94l-.03.03Z"/></g><path class="cls-1" d="m143.52,148.32c-.08,1.23-.74,2.13-1.53,2.76-.29.23-.6.45-.95.58-.63.23-1.36.23-1.95.05-.6-.18-1.12-.52-1.53-.91-.37-.35-.69-.73-.95-1.15-.33-.53-.58-1.15-.53-1.78.01-.2.22-.18.45-.06.23.12.5.31.63.55.44.88,1.18,1.54,1.96,1.89.51.23,1.02.1,1.47-.16.5-.29.93-.81,1.07-1.37.08-.34.07-.68-.06-.99-.17-.42-.72-.73-1.32-.65-.46.04-.84.38-1.01.64-.04.06-.07.12-.09.17-.11.19-.21.24-.62.32l-.28.07c-.28.07-.61-.15-.59-.7.01-.4.18-.81.41-1.15.24-.33.57-.58.92-.75.69-.35,1.48-.45,2.3-.27.6.14,1.24.5,1.66,1.08.41.57.61,1.19.59,1.82h-.05Z"/><path class="cls-1" d="m157.56,201.76c.65,1.12.62,2.18.23,3.22-.17.38-.33.8-.64,1.08-.38.36-.86.59-1.35.69-.93.14-1.82-.35-2.33-1.04-.17-.24-.35-.48-.44-.74-.11-.23-.19-.47-.25-.72-.08-.32-.1-.68-.02-1.04.1-.35.31-.72.65-.89.21-.12.43.27.67.66.23.4.6.67.66.68.04.05.13.24.19.38-.03.04-.09.17.01.37.04.09.12.12.19.12.14,0,.22-.11.31-.2.15-.09.31-.6.22-.94-.04-.2-.11-.37-.28-.49l-.04-.02c-.25-.19-.73-.25-1.13-.03-.31.17-.49.51-.57.79-.02.06-.01.13-.05.18-.11.18-.27.19-.82.17h-.38c-.41-.01-.76-.26-.79-.73-.06-1.41,1.12-2.68,2.65-2.92.74-.12,1.59,0,2.34.44.39.26.75.57,1,.96l-.05.04Z"/><g><path class="cls-1" d="m394.84,91.89c-1.2,5.09-5.41,2.26-5.41,2.26,0,0-.98,1.84,1.13,2.93,2.95,1.53,4.57-1.81,4.57-1.81l-.3-3.37Z"/><path class="cls-1" d="m395.69,95.5c-.52.98-1.36,1.84-2.44,2.26-.4.15-.8.28-1.22.3-.73.03-1.45-.16-2.07-.51-.61-.38-1.15-.93-1.36-1.65-.18-.62-.18-1.25-.02-1.84.18-.73.72-1.52,1.56-1.68.26-.04.26.23.21.54-.07.31-.08.65-.2.84-.24.34-.34.83-.29,1.25.02.21.08.4.17.56.08.18.2.37.37.54.41.43,1.17.49,1.78.37.67-.12,1.32-.57,1.76-1.22.27-.39.47-.85.58-1.33.16-.71.13-1.54-.27-2.02-.32-.38-.69-.27-.93-.03-.05.05-.08.11-.11.14-.03.07-.06.03-.18.03-.1,0-.25.04-.44.13-.09.04-.17.09-.25.14-.14.07-.28.08-.44-.05-.15-.12-.31-.44-.24-.84.34-1.12,1.36-1.69,2.55-1.48.58.13,1.1.52,1.4.91.31.4.5.84.6,1.26.29,1.27,0,2.4-.47,3.42l-.04-.02Z"/></g><path class="cls-1" d="m400.86,225.12c-.4.97-1.04,1.69-1.76,2.21-.27.19-.51.41-.81.55-.52.24-1.08.42-1.68.48-.59.07-1.26,0-1.83-.32-.55-.27-.96-.74-1.18-1.24-.14-.32-.24-.69-.21-1.08.03-.39.24-.81.6-1.02.23-.13.37.21.54.54.15.36.5.56.55.59.04.11.21.34.32.4.02.02.04.02.05.03.04.02.09.04.15.06.11.03.24.1.42.14.44.1.95-.22,1.39-.5.49-.32.98-.71,1.29-1.18.19-.29.33-.61.35-.94.01-.26,0-.48-.09-.68-.09-.21-.27-.4-.49-.53-.34-.21-.79-.14-1.02-.05-.06.01-.09.06-.13.06-.14.05-.26,0-.66-.22l-.28-.13c-.29-.13-.47-.52-.12-.97.51-.66,1.46-.93,2.19-.76.76.13,1.45.52,1.99,1.16.2.24.37.52.49.83.06.16.1.32.15.49.03.15.05.29.06.43.05.58-.04,1.15-.22,1.65l-.05-.02Z"/><path class="cls-1" d="m380.56,62.89c.14.89-.13,1.81-.61,2.53-.17.26-.34.53-.58.74-.8.75-2.12,1.16-3.19.5-.43-.28-.76-.63-.99-1.06-.14-.27-.26-.58-.26-.93,0-.34.13-.71.39-.94.17-.15.34.1.51.37.16.27.42.46.44.54.02.19.16.47.36.66.23.19.33.29.69.33.4.03.8-.3,1.1-.67.36-.41.55-.92.62-1.48.04-.34.01-.7-.11-1.02-.18-.47-.57-.88-1.06-.88-.39,0-.77.22-.96.47-.04.06-.07.12-.1.17-.1.19-.16.23-.47.31l-.21.06c-.21.06-.47-.13-.42-.59.1-.68.61-1.21,1.2-1.48.59-.27,1.34-.35,2.06,0,1,.48,1.49,1.48,1.64,2.37h-.04Z"/><path class="cls-1" d="m199.92,257.15c-.51-4.04-.38-8.04.03-11.97.42-3.93,1.13-7.8,2.08-11.61.69-2.77,1.38-5.55,2.29-8.25,3.18-9.54,7.52-18.65,12.88-27.12,2.37-3.76,4.94-7.43,7.7-10.87,3.49-4.47,7.66-8.5,12.39-11.63,1.46-.99,1.39-.69.47.53-.45.62-1.13,1.43-1.88,2.48-.38.52-.79,1.08-1.23,1.66-.22.3-.47.57-.68.9-.25.29-.51.58-.77.88-7.52,8.33-14.02,17.57-19.34,27.68-1.59,3.02-3.02,6.2-4.26,9.48-1.26,3.27-2.37,6.62-3.34,9.97-2.11,7.36-3.7,14.96-3.73,22.58-.03,2.34.17,4.67.6,6.93.44,2.26,1.17,4.43,2.47,6.24,1.91,2.86,4.86,4.91,8.21,5.62,3.36.73,6.94.27,10.31-.68,5.27-1.52,10.06-4.18,14.7-7.05,1.02-.64,2-1.3,3.02-1.96,3.83-2.38,5.11-3.09,6.2-3.24.25-.04.55-.12.72-.1.56.03-.73,1.41-3.35,3.52-1.93,1.58-4,3.04-6.16,4.44-2.15,1.4-4.41,2.71-6.77,3.9-2.36,1.18-4.84,2.24-7.45,3.05-2.62.78-5.39,1.3-8.28,1.26-2.13-.03-4.33-.41-6.39-1.26-2.06-.84-3.93-2.16-5.43-3.75-.36-.41-.75-.8-1.08-1.23l-.96-1.3-.84-1.46c-.27-.49-.45-1-.67-1.5-.79-2.02-1.28-4.07-1.53-6.11l.07-.02Z"/><path class="cls-1" d="m250.75,176.17c.82-.54,1.74-.9,2.62-1.34.89-.41,1.76-.86,2.67-1.24l2.76-1.01,1.38-.5c.46-.17.94-.26,1.41-.4,1.89-.49,3.77-1.04,5.71-1.35,1.93-.3,3.87-.57,5.82-.66,2.84-.17,5.69-.21,8.52.06,9.95.95,19.73,4.65,27.42,11.06,1.71,1.41,3.31,2.96,4.83,4.57,1.47,1.66,2.89,3.36,4.11,5.2,1.58,2.34,3.05,4.79,4.11,7.42.3.64.54,1.31.77,1.98.23.67.49,1.32.67,2.01.2.68.36,1.36.51,2.05.1.34.1.7.14,1.05.02.36.11.69.07,1.06-.03.9-.09,1.3-.2,1.3-.12,0-.32-.39-.83-1.01-.5-.62-1.15-1.5-1.84-2.56-.35-.53-.61-1.13-.95-1.75-.33-.62-.65-1.28-.93-1.99-1.12-2.45-2.34-4.85-3.75-7.12-1.42-2.28-3.09-4.38-4.91-6.35-3.66-3.92-8.08-7.18-13.01-9.6-5.89-2.96-12.8-4.29-19.53-4.55-3.71-.1-7.45.11-11.11.79l-1.37.26-1.35.35-2.7.71c-.9.23-1.76.62-2.64.92-.87.34-1.77.59-2.61,1-4.23,1.81-8.15,4.29-11.72,7.19-5.34,4.47-9.79,10.11-12.8,16.37-2.29,4.89-3.6,10.09-4.14,15.35-.06.58-.12,1.15-.18,1.73-.03.58-.05,1.16-.08,1.74-.06,1.09-.13,1.99-.21,2.75-.02.76-.05,1.37-.1,1.88-.05.51-.12.91-.21,1.25-.11.34-.24.62-.37.87-.12.23-.23.52-.32.66-.26.46-.98-1.31-1.35-4.66-.39-4.98.3-10.15,1.68-15.19.4-1.24.71-2.53,1.21-3.75.5-1.22,1-2.44,1.51-3.67.61-1.18,1.23-2.35,1.84-3.53.63-1.17,1.41-2.26,2.11-3.39.28-.41.52-.84.82-1.24l.91-1.17,1.84-2.34,2.04-2.17,1.02-1.08c.35-.35.74-.67,1.1-1l2.23-1.98c.76-.64,1.59-1.19,2.38-1.79,1.56-1.24,3.3-2.2,4.99-3.24l.04.06Z"/></svg>