<?xml version="1.0" encoding="UTF-8"?><svg id="Layer_1" xmlns="http://www.w3.org/2000/svg" width="520" height="520" viewBox="0 0 520 520"><defs><style>.cls-1{opacity:.45;}.cls-1,.cls-2{fill:none;}.cls-2,.cls-3{opacity:.55;}.cls-4,.cls-5,.cls-3{fill:#231f20;}.cls-5{opacity:.15;}</style></defs><path class="cls-4" d="m225.02,471.64c-.93-.03-1.67-.36-2.31-.88-.21-.12-.16-.21.11-.37l.4-.21c.13-.03.26-.05.39-.08.27-.05.54-.1.79-.15.33-.13,5.33-.19,7.02-.47,1.64-.16,3.27-.31,4.91-.42,1.67-.14,3.33-.29,4.99-.49,1.66-.19,3.32-.42,5-.55.74-.06,1.49-.1,2.24-.09,2.57.02,5.13-.22,7.68-.55.43-.05.87-.08,1.27-.25.65-.29,7.64-.97,8.57-.91,2.3.05,4.55.11,6.83.16.32.02.67-.05.97.1.7.35,1.39.26,2.1.26.97,0,1.95.05,2.92.17.48.06.96.27,1.43.44.43.15.19.71.05.77-.43.18-.08.44-.04.67.01.08.03.18.01.24-.06.14-5.52,1.22-6.11,1.26-.04,0-.56.04-1.35.1-.78.07-1.82.17-2.89.26-2.13.21-4.35.46-4.8.54-.47.08-.96.03-1.44.01-.22-.02-6.62.85-6.88.87-1.34.08-2.66.34-4.03.14-.27-.04-.54,0-.81.03-2.3.26-4.62.33-6.94.42-1.19.04-2.38.08-3.56.12-.21,0-.43-.03-.65-.05-.27-.02-.54-.05-.81-.05-2.82.06-5.64-.07-8.46-.09-.33,0-1.26-.1-2.21-.21-.95-.13-1.9-.25-2.28-.26-.42-.01-1.76-.45-2.13-.49Z"/><path class="cls-4" d="m283.06,468.13c-.74-.06-1.35-.26-1.9-.38-.17-.04-.14-.1.07-.12.42-.02.84-.05,1.27-.09.26,0,4.39-.31,5.78-.35,1.35-.08,2.7-.12,4.05-.15l4.11-.13c1.37-.06,2.74.02,4.11.02.61,0,1.22.05,1.82.1,2.08.21,4.16.23,6.25.17.35,0,.7,0,1.04-.09.55-.14,6.2-.23,6.94-.18,1.82.14,3.64.21,5.47.29.26.01.54-.04.78.07.56.25,1.12.18,1.68.18.78.01,1.57-.02,2.35.09.39.05.78.19,1.16.3.35.1.18.47.06.52-.35.14-.05.3-.01.46.01.05.03.12.02.16,0,.02-.29.1-.73.22-.43.11-1.01.28-1.6.38-1.19.23-2.43.44-2.68.45-.12,0-6.7.36-7.47.4-.39.03-.79-.03-1.18-.07-.19,0-5.47.18-5.68.18-1.09-.03-2.19.04-3.28-.2-.21-.05-.44-.04-.65-.04-1.88,0-3.76-.13-5.64-.25-.96-.07-1.92-.03-2.88-.14-.17-.02-.34-.06-.52-.09-.22-.04-.43-.09-.65-.1-2.27-.19-4.53-.5-6.79-.67-.52-.05-3-.44-3.59-.56-.33-.06-1.42-.37-1.72-.38Z"/><path class="cls-4" d="m232.87,68.68s2.21,9.57,4.18,11.82,3.03,1.44,5.8.81c2.77-.62,5.18-1.87,9.79-.81,4.61,1.06,12.08,5.75,12.08,5.75,0,0,3.33-3.26,5.58-5.92s8.26-7.01,8.26-7.01c0,0-4.25-5.93-5.39-10.84-1.14-4.91-1.33-7.71-1.33-7.71l-31.32,10.39-7.65,3.52Z"/><path class="cls-4" d="m273.14,394.25c1.96-.27,3.93-.55,5.9-.87.72-.11,1.42-.31,2.15-.41,2.55-.38,5.14-.59,7.71-.88,1.15-.08,2.27-.34,3.42-.4,1.46-.12,2.92-.34,4.41-.03.47.23.41.21.05.57-.18.19-.43.39-.74.62-.31.24-.67.44-1.08.52-1.44.31-2.85.8-4.3.93-1.45.19-2.91.37-4.4.48-1.78.15-3.56.66-5.36.96-1.98.34-3.97.67-5.97.98l-3.7.54c-1.88.24-3.78.44-5.67.59-.73.08-1.46.17-2.2.23l-1.1.12-1.12.04c-.33,0-.66.05-.99.02-1.23-.17-1.6-.42-1.73-1.15-.03-.17-.08-.33-.08-.49-.01-.54.54-.92,1.36-1.01,2.45-.28,4.95-.36,7.56-.66,1.93-.19,3.89-.46,5.85-.76v.07Z"/><path class="cls-4" d="m210.66,363.06l1.71-6.18.56-2.27c.73-2.66,1.46-5.32,2.19-7.98.32-1.18.62-2.37.97-3.54l.67-2.25c.23-.75.57-1.46.86-2.19.19-.45.19-.38.16.04-.05.41-.01,1.21-.16,2.1-.33,1.55-.58,3.12-.95,4.66-.36,1.54-.74,3.09-1.14,4.64-.49,1.85-.81,3.82-1.22,5.74-.45,2.11-.91,4.22-1.44,6.32l-1,3.87c-.51,1.95-1.11,3.89-1.65,5.83-.43,1.5-.81,2.99-1.31,4.46-.11.32-.18.65-.34.96-.54,1.16-.83,1.48-1.31,1.57-.11.02-.22.06-.32.06-.32,0-.38-.59-.2-1.5.52-2.7,1.31-5.41,2.15-8.15.6-2.04,1.2-4.1,1.74-6.18h.05Z"/><path class="cls-4" d="m231.95,304.45c1-1.65,1.77-3.42,2.19-5.28.07-.34.14-.68.18-1.02.02-.35.04-.69.07-1.03.04-.3.08-.63.05-.83,0-.22-.06-.53-.11-.81-.13-.58-.3-1.19-.51-1.8-.39-1.22-.9-2.43-1.35-3.67-.41-1.1-.89-2.18-1.34-3.26-.3-.69-.59-1.39-.81-2.12-.26-.72-.35-1.5-.34-2.29,0-.49.09-.43.4-.11.16.16.37.39.66.64.14.13.31.26.43.42.11.16.23.33.32.52.72,1.3,1.31,2.67,1.97,4.04.32.69.63,1.38.93,2.09.28.72.53,1.46.76,2.21.27.91.62,1.8.88,2.8.07.25.12.52.18.78.04.27.07.61.08.88l-.1,1.51c-.26,2.19-.98,4.29-1.97,6.19-.31.58-.62,1.17-.98,1.71-.34.56-.7,1.11-1.09,1.63-1.14,1.61-2.45,3.08-3.71,4.54-.98,1.13-1.87,2.3-2.77,3.44-.2.24-.38.5-.59.73-.74.89-1.05,1.06-1.63.99-.13-.02-.27-.01-.39-.04-.2-.05-.29-.22-.29-.5,0-.27.08-.7.32-1.09.34-.62.71-1.2,1.11-1.78.41-.54.84-1.09,1.28-1.61.87-1.03,1.75-2.07,2.63-3.11,1.27-1.54,2.51-3.11,3.46-4.8l.05.03Z"/><path class="cls-4" d="m221.82,278.45c-.7.2-1.4.44-2.08.73-.25.1-.45.29-.71.38-.89.36-1.79.75-2.6,1.27-.38.22-.66.54-.99.81-.42.35-.82.71-1.47.88-.2.05-.26-.02-.33-.28-.07-.25-.25-.79-.12-1.15.2-.64.54-1.21,1.04-1.57.48-.4.99-.74,1.57-1,.68-.32,1.23-.84,1.88-1.22.72-.39,1.48-.71,2.24-1.01.47-.18.94-.35,1.42-.51.71-.26,1.46-.43,2.16-.69.55-.19,1.05-.56,1.62-.73.12-.04.24-.11.37-.13.48-.11.67.1.87.71.04.14.1.27.13.41.11.43,0,.93-.27,1.18-.42.32-.81.7-1.26.86-.44.19-.9.34-1.36.48-.68.22-1.39.41-2.07.67l-.03-.06Z"/><path class="cls-4" d="m224.47,274.92s3.41-2.17,5.76-1.48c2.94.86-.85,7.47-.85,7.47l-4.91-5.99Z"/><path class="cls-4" d="m214.56,279.86s-8.27,7.99-7.54,10.29c1.44,4.52,6.64,1.57,6.64,1.57,0,0-1.38-4.09-.4-5.17.97-1.07,2.71-3.33,2.71-3.33l-1.41-3.36Z"/><path class="cls-4" d="m186.4,250.75c-.1,1.73-.15,3.49.05,5.24.05.64.17,1.27.28,1.91.31,2.25.82,4.5,1.51,6.7.27.99.64,1.95.99,2.91.46,1.22.88,2.48,1.26,3.75.11.4-.01.39-.3.14-.28-.26-.79-.73-1.21-1.39-.35-.59-.71-1.17-1.03-1.78-.29-.62-.55-1.25-.81-1.88-.53-1.26-.86-2.6-1.16-3.95-.35-1.61-.82-3.27-1.1-4.94-.26-1.85-.44-3.71-.37-5.58-.02-1.15.16-2.29.27-3.43.27-1.72.66-3.42,1.18-5.06.37-1.28.76-2.55,1.26-3.78.11-.27.24-.53.38-.79.53-.96.81-1.2,1.27-1.2.11,0,.22-.01.31,0,.31.07.34.58.11,1.32-.68,2.19-1.53,4.35-2.05,6.64-.45,1.68-.65,3.42-.79,5.16h-.05Z"/><path class="cls-4" d="m213.67,240.62s1.73,6.33,7.2,4.53c3.68-1.22-1.34,7.06-2.88,5.43s-4.32-9.96-4.32-9.96Z"/><path class="cls-4" d="m329.7,149.6s-.01,2.33-1.65,7.25c-1.63,4.91-7.06,13.28-11.49,18.31-4.43,5.02-16.48,8.42-16.48,8.42l-10.45-5.64s2.81,8.13-5.01,12.74c-7.8,4.6-19.4-2.66-19.4-2.66l-12.78-7.54-10.44,5.5s-3.4,2.09-13.61,0c-10.21-2.11-25.91-14.05-25.91-14.05-5.01-4.74-10.31-16.09-10.31-16.09,0,0,6.03-1.53,10.53-3.67,4.5-2.15,9.38-8.67,11.21-12.51,1.83-3.85,5.71-15.33,7.11-24.84,1.41-9.49,3.94-16.92,7.88-22.28,10.91-14.88,35.73-2.44,35.73-2.44,0,0,29.1-31.37,53.59-12.34,11.14,8.66,1.2,34.4-26.77,33.67,0,0-9.8-2.81-13.8-3.01-4.01-.2-11.05-5.6-11.05-5.6,0,0-3.85,9.2-5.65,12.84-1.81,3.64-11.53,7.37-11.1,9.12.43,1.74.65,9.25.65,9.25l-4.22-1.49-6.65-.84s-5.83,5.14-1.23,12.22c4.58,7.09,12.1,3.49,12.1,3.49,0,0,.37,2.59,1.96,7.56,1.58,4.98,10.59,11.56,15.43,12.89,4.84,1.33,11.65,1.06,17.71-1.16,4.07-1.49,8.6-9.98,9.61-18.18,1.02-8.21,1.12-22.55-1.48-31.1-1.01-3.31-2.28-5.99-2.28-5.99l11.19-1.52s4.62,12.12,8.44,23.86c3.81,11.75,18.65,15.82,18.65,15.82Z"/><path class="cls-4" d="m258.09,452.82s-2.76,7.29.77,7.29c5.43,0,19.62-10.06,19.62-10.06l.73,6.6s-9.09,6.1-12.49,7.95c-3.4,1.85-16.54,5.21-22.25,3.97-5.71-1.23-7.89-1.98-4.03-4.38,3.86-2.4,17.64-11.37,17.64-11.37Z"/><path class="cls-4" d="m279.22,452.82s-.15,4.12,4.56,7.31c4.71,3.19,26.79,7.73,31.19,7.23,4.39-.5,1.41-2.72-1.66-4.28-3.08-1.56-15.61-7.03-15.61-7.03,0,0-2.09,2.74-5.75,1.76-3.67-.98-12.72-4.99-12.72-4.99Z"/><path class="cls-4" d="m265.32,459.24c-2.01.76-4.05,1.48-6.39,1.72l-.66.04c-.24.01-.42,0-.78,0-.33-.04-.64-.12-.96-.18-.3-.1-.59-.22-.84-.39-.43-.29-.82-.67-.92-1.2-.13-.5-.02-1.03.2-1.53.09-.26.26-.49.39-.74l.25-.35.18-.23c.23-.29.47-.56.71-.81.97-1.02,1.99-1.91,3-2.8.91-.78,1.76-1.62,2.66-2.38,1.16-.98,2.33-1.93,3.58-2.79.39-.27.48-.09.36.36-.12.45-.41,1.22-.96,1.92-1.86,2.54-4.3,4.42-6.45,6.5-.32.31-.63.63-.9.97-.12.15-.28.37-.35.48-.04.05-.09.12-.12.19-.07.13-.13.31-.02.43.12.1.26.15.42.18.04.01.08.02.13.02h.29c.22,0,.44,0,.67-.03.46-.05.93-.13,1.41-.25.96-.23,1.92-.54,2.87-.89,1.18-.44,2.34-.93,3.49-1.48,1.74-.83,3.48-1.7,5.12-2.69,1.28-.78,2.44-1.69,3.62-2.58.26-.19.5-.41.77-.59,1.01-.67,1.44-.72,2.04-.27.14.1.29.19.4.31.38.39.21,1.03-.46,1.66-1.99,1.85-4.41,3.34-6.92,4.71-1.87,1.01-3.81,1.93-5.8,2.77l-.03-.06Z"/><path class="cls-4" d="m280.97,456.99c.07.94.15,1.88.27,2.83.04.34.16.67.2,1.02.15,1.22.22,2.48.33,3.73.04.56.15,1.1.24,1.65.03.36.06.71.06,1.08.04.36-.15.74-.24,1.1-.08.23-.19.2-.43.03-.2-.17-.71-.46-.93-.82l-.43-.97c-.12-.32-.16-.66-.24-1-.13-.67-.24-1.36-.29-2.08-.07-.85-.35-1.71-.52-2.57-.18-.95-.32-1.92-.46-2.89-.08-.6-.16-1.2-.23-1.79-.13-.9-.16-1.83-.29-2.72-.1-.7-.36-1.37-.47-2.06-.02-.15-.05-.3-.05-.46,0-.58.16-.77.72-.92.13-.03.25-.08.38-.1.42-.07.8.14,1.02.53.71,1.15.87,2.37,1.09,3.61.18.91.22,1.85.35,2.79h-.06Z"/><path class="cls-4" d="m278.54,460.88c-.08.62-.15,1.24-.21,1.89-.02.23.04.47.01.71-.1.84-.34,1.69-.48,2.53-.08.37-.05.75-.14,1.12-.05.24-.02.48-.16.71-.11.23-.27.45-.43.67-.11.14-.26.1-.5-.05-.22-.15-.65-.41-.85-.69-.07-.12-.18-.24-.21-.36l-.1-.35c-.06-.23-.13-.46-.09-.68.04-.45.12-.9.27-1.36.17-.55,0-1.13.05-1.71.05-.65.1-1.3.15-1.95.04-.41.07-.81.11-1.22.05-.62.14-1.23.17-1.85.02-.48-.08-.96-.11-1.44,0-.11-.03-.21,0-.31.09-.38.33-.47.87-.47.12,0,.25,0,.36,0,.38.02.75.24.92.53.28.44.35.84.44,1.25.08.41.13.81.1,1.21-.04.6-.08,1.21-.12,1.82h-.07Z"/><path class="cls-4" d="m241.96,460.83c2.99-1.7,5.98-3.17,8.93-4.71,2.94-1.54,5.85-3.1,8.53-4.89.97-.66,1.89-1.36,2.69-2.12.79-.75,1.49-1.58,1.67-2.26.21-.69.27-1.77.3-2.76,0-1.03-.02-2.07-.08-3.12-.11-2.1-.31-4.22-.53-6.34-.46-4.24-1.05-8.48-1.69-12.72-.57-3.76-1.25-7.52-1.95-11.23-.44-2.39-.96-4.76-1.33-7.17-.38-2.4-.78-4.81-.78-7.28.19-1.57.11-1.34.75-.14.34.59.73,1.45,1.23,2.47.44,1.03.84,2.27,1.16,3.63.59,2.41,1.06,4.84,1.51,7.28.46,2.44.9,4.88,1.32,7.33.84,4.9,1.58,9.84,2.11,14.84.31,2.99.69,6.04.92,9.15.11,1.56.21,3.13.12,4.78-.05.81-.12,1.71-.52,2.71-.41.94-.99,1.62-1.57,2.26-1.3,1.34-2.71,2.37-4.15,3.34-1.44.96-2.9,1.84-4.38,2.68-2.95,1.68-5.94,3.24-8.89,4.83-1.81.98-3.61,1.97-5.29,3.06-.41.28-.83.54-1.23.82-.19.14-.4.29-.56.42-.11.09-.2.17-.29.26-.17.19-.37.41-.36.68,0,.29.3.42.49.58.2.11.29.19.61.3.31.14.65.24.99.34.69.19,1.42.3,2.15.38,1.48.14,3.01.11,4.53-.02,3.05-.26,6.07-.92,9-1.8,4.55-1.39,8.81-3.44,12.68-5.98.85-.57,1.63-1.18,2.44-1.79,2.92-2.36,3.65-3.18,4.83-3.31.26-.03.57-.12.79-.1.38.03.43.44.15,1.19-.28.74-.95,1.77-2.02,2.87-3.21,3.23-7.19,5.61-11.38,7.5-4.21,1.87-8.69,3.26-13.35,4.02-1.73.28-3.5.47-5.31.49-1.81.02-3.67-.1-5.6-.66-.24-.07-.48-.14-.73-.24-.25-.11-.46-.17-.84-.36-.66-.45-1.44-.82-1.88-1.41-.59-.49-.83-1.19-.82-1.93.01-.72.28-1.41.74-2.05.22-.32.46-.64.77-.92.15-.13.3-.31.42-.41l.28-.25c.37-.32.74-.6,1.1-.88.75-.52,1.51-.97,2.26-1.41l.05.06Z"/><path class="cls-4" d="m312.13,462.77c-3.09-1.41-6.3-2.72-9.46-4.17-1.58-.73-3.16-1.5-4.72-2.33-1.56-.83-3.11-1.72-4.57-2.9-.53-.43-1.05-.91-1.53-1.47-.47-.54-.94-1.25-1.18-2.01-.47-1.47-.56-2.76-.63-4.07-.15-4.57.26-9,.68-13.43.44-4.43.98-8.83,1.56-13.23.53-3.9,1.02-7.82,1.48-11.7.28-2.49.62-4.98.97-7.46l.55-3.71c.06-.62.24-1.23.4-1.84.16-.61.32-1.22.46-1.83.38-1.52.36-1.33.62.02.12.67.33,1.64.6,2.82.18,1.17.17,2.51.07,3.96l-.32,3.84-.17,1.91-.24,1.9c-.33,2.53-.67,5.07-1.01,7.61-.65,5.07-1.47,10.13-2.18,15.22-.43,3.04-.74,6.16-.92,9.29-.15,3.1-.31,6.34.16,9.18.15.78.33,1.31.81,1.89.45.58,1.04,1.11,1.68,1.61,1.29.99,2.76,1.85,4.27,2.64,3.04,1.54,6.25,2.84,9.45,4.16,1.98.81,3.96,1.62,5.93,2.53.49.23.98.47,1.47.72l.74.39.37.21.46.28c.67.41,1.3.94,1.65,1.53.17.3.3.62.31.97.02.35-.11.71-.3.99-.29.44-.74.76-1.29.98-.51.23-1.07.55-1.47.6l-1.31.33-1.26.16c-1.67.2-3.33.22-4.98.18-3.3-.11-6.56-.55-9.75-1.19-4.95-1.04-9.76-2.52-14.24-4.95-.99-.52-1.91-1.14-2.87-1.74-.88-.58-1.52-1.2-2.08-1.66-.56-.48-.99-.88-1.26-1.31-.56-.82-.78-1.38-.84-1.93-.03-.25-.1-.53-.07-.71.11-.6,1.55.31,3.81,2.01,3.39,2.52,7.34,4.42,11.54,5.81,4.19,1.38,8.64,2.3,13.12,2.64.83.04,1.66.11,2.49.13.82-.01,1.66.03,2.47-.02.81-.06,1.64-.07,2.41-.2.38-.06.81-.1,1.14-.17l.97-.22c.21-.03.15-.06.12-.11.03.01-.4-.27-.73-.47-.35-.2-.71-.39-1.09-.57-.74-.37-1.51-.73-2.29-1.08l.02-.06Z"/><path class="cls-4" d="m277.29,446.71c.33-3.77.4-7.61.34-11.45,0-1.4-.13-2.8-.15-4.21-.12-4.95-.34-9.92-.57-14.9-.09-2.21-.18-4.43-.27-6.63-.05-2.82-.04-5.67.29-8.49.09-.88.2-.75.39,0,.17.75.5,2.11.73,3.71.83,5.68,1.33,11.36,1.41,17.17.07,3.47.45,7.07.58,10.63.15,3.91.16,7.84-.04,11.78-.08,1.21-.13,2.42-.27,3.63l-.09.91-.03.31c0,.07-.03.15.02.22l.31.57.48.66c1.03,1.32,2.41,2.44,3.88,3.39,1.48.94,3.08,1.72,4.73,2.26,1.28.41,2.6.71,3.88.73,1.32.03,1.67-.16,2.08-.42.04-.03.08-.06.11-.1.04-.06-.07-.1-.13-.12-.13-.05-.25-.09-.34-.15-.09-.05-.16-.11-.21-.17-.05-.07-.05-.07-.16-.32-.21-.51-.23-.97-.2-1.3.07-.68.34-1,.69-1.21.16-.1.33-.22.49-.26.26-.06.45.16.6.54.15.37.27.92.56,1.3-.06.19,1.27.64,1.58,1.08.22.22.32.42.4.57l.2.36.11.22c.02.05.08.13,0,.38-.12.33-.3.61-.64.89-.34.27-.84.45-1.26.69-.2.13-.49.18-.76.25l-.83.2c-.6.18-.99.12-1.47.16l-.7.03-.54-.04c-2.92-.22-5.57-1.23-8.07-2.52-1.84-.99-3.58-2.2-5.12-3.78-.38-.4-.76-.8-1.09-1.28-.17-.24-.35-.45-.5-.71l-.55-.99c-.36-.4-.14-.89-.13-1.39l.07-.76.13-1.42h.06Z"/><path class="cls-4" d="m211.52,352.71l3.34-10.78c.4-1.31.73-2.65,1.14-3.95,1.45-4.62,2.93-9.22,4.34-13.85.62-2.05,1.2-4.13,1.76-6.18.72-2.64,1.33-5.32,2.48-7.83.5-.75.57-.61.82.21.14.41.21.97.27,1.62.03.33.04.68.03,1.05,0,.19-.01.37-.02.57-.03.19-.06.38-.11.57-.63,2.72-1.28,5.44-1.99,8.14-.77,2.69-1.6,5.37-2.5,8.04-1.08,3.19-1.87,6.61-2.81,9.92l-3.17,10.91c-.66,2.24-1.32,4.47-1.97,6.71-.98,3.39-2,6.79-2.88,10.18-.68,2.64-1.18,5.27-1.75,7.9-.13.58-.22,1.15-.36,1.74-.53,2.15-.91,2.78-1.87,3.02-.21.05-.43.14-.63.16-.66.04-.98-.98-.72-2.59.73-4.79,2.01-9.7,3.37-14.61,1.01-3.65,2.1-7.29,3.15-10.94l.07.02Z"/><path class="cls-4" d="m236.23,254.06c.47-2.31.86-4.64,1.21-6.99.13-.85.15-1.72.29-2.58.48-3.02.92-6.05,1.26-9.09.16-1.35.21-2.72.33-4.06.15-1.73.17-3.47.62-5.18.17-.53.39-.45.72.03.37.48.8,1.35.85,2.35.06,1.78.2,3.56.08,5.33-.12,1.77-.29,3.55-.55,5.33-.32,2.12-.33,4.36-.55,6.55-.26,2.4-.6,4.8-.95,7.19-.25,1.47-.47,2.94-.75,4.41-.19,1.11-.41,2.22-.65,3.33-.22,1.11-.47,2.21-.71,3.31-.17.86-.34,1.71-.5,2.57-.15.86-.3,1.73-.59,2.56-.11.37-.2.74-.34,1.11-.59,1.34-.98,1.69-1.74,1.68-.17,0-.35.02-.51-.01-.53-.1-.74-.81-.61-1.81.13-.73.19-1.5.28-2.26.03-.38.12-.75.2-1.12l.21-1.13c.33-1.49.57-3.05.94-4.57.48-2.29,1-4.6,1.38-6.94h.08Z"/><path class="cls-4" d="m223.36,241.74c.95-.96,1.94-1.89,2.95-2.81.37-.34.68-.72,1.06-1.05,1.33-1.15,2.72-2.26,4.18-3.28.64-.46,1.31-.9,2-1.3.85-.55,1.96-.93,3.05-.64.33.09.27.15.03.36-.12.11-.27.25-.43.47-.16.18-.33.4-.52.56-1.39,1.05-2.8,2.2-4.39,3.35-.95.69-1.71,1.66-2.53,2.54l-2.74,2.92c-.57.6-1.14,1.2-1.69,1.82-.84.94-1.71,1.85-2.48,2.84-.61.76-1.05,1.64-1.63,2.43-.13.17-.23.36-.38.52-.52.62-.9.63-1.52.26-.14-.08-.29-.15-.41-.24-.21-.15-.34-.36-.4-.61-.06-.25-.06-.55.07-.82.66-1.65,1.81-2.99,2.98-4.37.88-1.02,1.81-2,2.74-3l.05.04Z"/><path class="cls-4" d="m324.97,167.45c-.78,1.07-1.47,2.19-2.34,3.19l-1.25,1.54c-.43.5-.9.97-1.35,1.45-.33.35-.65.72-.96,1.08-.32.36-.69.68-1.04,1-2.53,2.29-5.5,4.04-8.52,5.48-1.38.57-2.7,1.29-4.14,1.66l-1.35.44-.68.22-.7.13c-.47.08-.95.1-1.42.15-.47.05-.95.06-1.43.02-.6-.06-.52-.1-.08-.46.43-.4,1.2-1.07,2.16-1.48.88-.24,1.71-.62,2.54-.97.83-.37,1.69-.62,2.49-1.05.81-.4,1.64-.74,2.45-1.15.78-.46,1.57-.9,2.38-1.33.95-.55,1.8-1.29,2.68-1.98.84-.75,1.59-1.6,2.44-2.35.83-.91,1.71-1.8,2.5-2.76.75-.99,1.59-1.92,2.26-2.98.43-.64.88-1.27,1.29-1.92l1.17-2c.58-1.02,1.08-2.09,1.62-3.13.46-1.08.97-2.15,1.36-3.25.63-1.71,1.02-3.46,1.42-5.2.09-.39.14-.77.25-1.15.22-.7.37-1.16.61-1.46.26-.29.54-.42.89-.5.16-.04.32-.1.47-.11.25-.02.42.15.57.46.14.32.28.8.22,1.36-.08,1.69-.47,3.37-.91,5.06-.48,1.68-1.02,3.38-1.76,5-.49,1.23-1.15,2.39-1.74,3.58-.66,1.16-1.32,2.32-2.03,3.44l-.06-.03Z"/><path class="cls-4" d="m214.56,182.53c-1.33-.77-2.65-1.54-3.93-2.37-1.25-.89-2.57-1.67-3.76-2.64-.87-.7-1.85-1.26-2.67-2.02-3.02-2.54-5.63-5.53-7.97-8.66-.49-.72-.99-1.43-1.51-2.13-.25-.35-.53-.69-.76-1.05l-.69-1.1c-.53-.97-1.18-1.88-1.63-2.9-.23-.5-.44-1.02-.6-1.55l-.26-.79c-.08-.27-.09-.56-.15-.84-.08-.71.04-.65.64-.3.65.34,1.76.95,2.44,1.94.53.93,1.26,1.74,1.87,2.61.33.42.57.89.86,1.34l.93,1.29c1.18,1.77,2.55,3.4,3.86,5.13.84.98,1.74,1.96,2.72,2.85,1.03.85,2.02,1.74,3.08,2.56,1.17.87,2.29,1.83,3.53,2.62l1.82,1.24c.62.39,1.26.76,1.89,1.14,1.54.96,3.18,1.76,4.8,2.58,2.5,1.15,5.05,2.28,7.68,3.06,1.02.33,2.04.58,3.08.78,1.03.22,2.06.41,3.1.58.46.08.91.13,1.36.22,1.72.2,2.14.91,2.4,1.56.06.16.14.32.17.46.04.23-.13.4-.48.57-.36.16-.92.38-1.59.39-3.91-.25-7.94-1.28-11.83-2.7-2.91-1.01-5.7-2.38-8.45-3.78l.03-.07Z"/><path class="cls-4" d="m290.52,120.55c.27.38.52.78.74,1.19.1.19.2.39.3.58.04.09.08.18.13.27.02.05.05.11.07.16.09.2-.14-.35-.02-.04.16.41.31.82.42,1.25.05.19.1.39.14.58.02.1.04.21.06.31.02.11.01.31-.02-.15,0,.05.01.1.02.15.02.19.03.38.03.58,0,.08,0,.15,0,.23,0,.04,0,.09-.01.13-.02.28.06-.34.02-.14-.03.15-.06.29-.1.43-.01.04-.03.07-.04.11-.04.16.08-.24.09-.21.01.04-.1.19-.12.23-.14.22-.03.01.07-.08-.05.04-.09.1-.14.14-.22.22.29-.17.07-.05-.06.04-.13.07-.19.11-.16.1.36-.12.17-.07-.04,0-.08.03-.11.04-.07.02-.13.03-.2.05-.27.06.41-.03.04-.01-.1,0-.2,0-.29,0-.05,0-.1,0-.16,0-.15-.01-.31-.11.08.01-.11-.04-.24-.04-.35-.07-.29-.07-.58-.15-.86-.26-.07-.03-.14-.05-.22-.08-.05-.02-.1-.04-.15-.06-.13-.05-.1-.04.09.04-.06-.09-.41-.19-.52-.24-.41-.2-.8-.41-1.19-.64-.6-.35-1.48-.16-1.81.48s-.17,1.44.48,1.81c1.33.77,2.74,1.44,4.27,1.63,1,.12,2.1-.13,2.81-.88,1.4-1.49.99-3.89.36-5.63-.41-1.14-.95-2.24-1.65-3.23-.4-.57-1.18-.89-1.81-.48-.56.36-.9,1.21-.48,1.81h0Z"/><path class="cls-4" d="m277.38,66.2c-.3-.91-.53-1.83-.75-2.74-.07-.33-.24-.64-.3-.97-.15-1.2-.21-2.4-.28-3.56-.03-.52-.09-1.03-.17-1.53-.1-.64-.26-1.28-.03-1.96.06-.21.33-.22.68-.1.18.06.39.15.6.26.22.11.39.25.45.42.48,1.22.99,2.38,1.01,3.67.02.78.47,1.46.66,2.2.23.81.46,1.62.75,2.42.18.49.36.98.59,1.45.34.71.66,1.46,1.14,2.1.37.5.9.88,1.37,1.3.1.09.23.17.32.27.34.39.26.65-.37,1.24-.14.13-.28.27-.43.4-.51.42-1.08.57-1.46.38-1.13-.57-1.93-1.53-2.61-2.61-.52-.8-.89-1.7-1.24-2.59l.07-.04Z"/><path class="cls-4" d="m234.04,77.74c-.16-.76-.31-1.51-.47-2.26-.05-.27-.17-.52-.22-.8-.16-.97-.2-1.97-.34-2.93-.05-.43-.15-.84-.25-1.26-.15-.52-.21-1.07-.16-1.64.02-.18.2-.19.44-.1.24.09.59.28.76.55.32.48.46,1,.66,1.5.18.51.32,1.03.41,1.57.1.65.46,1.25.65,1.88.22.69.44,1.39.66,2.09.14.43.29.85.45,1.27.25.63.48,1.28.83,1.85.27.45.71.79,1.06,1.18.08.09.18.15.24.24.25.33.15.55-.45,1.03-.14.11-.27.22-.41.33-.48.35-.98.45-1.31.25-.48-.29-.89-.66-1.2-1.09-.28-.44-.52-.92-.71-1.41-.3-.73-.5-1.49-.72-2.24l.06-.02Z"/><path class="cls-4" d="m269.8,166.8c3.58.9,7.39,1.05,10.99.15.67-.12,1.29-.38,1.92-.63.62-.26,1.28-.46,1.85-.8,4.33-1.96,7.6-5.86,9.27-10.49.74-2.06,1.16-4.24,1.45-6.41.07-.7.14-1.41.19-2.11.02-.71.1-1.41.15-2.12.13-1.42.1-2.84.56-4.29.26-.9.23-.78.58-.03.17.38.55.91.82,1.57.26.66.43,1.44.49,2.29.13,1.51.07,3.04-.07,4.56-.14,1.53-.36,3.06-.76,4.57-.77,3.01-2.04,5.98-3.99,8.51-2.25,3.06-5.45,5.66-9.04,7.07-3.93,1.58-8.26,1.96-12.37,1.37-.63-.09-1.26-.25-1.88-.38l-.94-.2-.91-.29-1.82-.59-1.75-.75c-3.51-1.59-6.66-3.97-9.18-6.84-1.93-2.26-3.57-4.72-4.71-7.49-.2-.62-.42-1.23-.61-1.87-.4-1.17-.39-2-.36-2.58.07-.58.25-.93.55-1.21.14-.13.27-.29.41-.37.24-.13.49.03.76.41.27.38.56.98.74,1.77.74,2.29,1.62,4.57,3,6.6l.48.78c.17.26.38.48.56.73.39.48.74.98,1.14,1.44.87.88,1.69,1.81,2.68,2.56,2.84,2.34,6.22,4.13,9.85,4.99v.07Z"/><path class="cls-4" d="m238.72,135.45c-.79,1.66-.82,3.78-.14,5.69.25.7.66,1.32,1.05,1.93.37.52.75,1.04,1.23,1.45.22.23.48.4.73.59.27.18.58.38.87.55,1.2.69,2.51,1.25,3.87,1.45,1.21.2,2.44.05,3.56-.33.72-.26,1.39-.63,2.02-1.08.15-.12.34-.19.51-.29l.51-.32c.36-.2.71-.43,1.06-.67.46-.28.6-.11.58.48-.01.3-.04.72-.14,1.21-.14.46-.32,1.02-.72,1.46-1.49,1.39-3.59,2.33-5.7,2.41-2.11.09-4.13-.47-5.86-1.38-.52-.28-1.03-.55-1.54-.85-.25-.14-.51-.32-.78-.51-.27-.18-.52-.37-.76-.58-.97-.82-1.78-1.8-2.37-2.87-1.28-2.36-1.74-5.15-1.11-7.78.38-1.62,1.17-3.1,2.45-4.29.97-.89,2.31-1.39,3.59-1.41,1.28-.03,2.5.29,3.59.75,1.7.72,3.23,1.67,4.6,2.85.29.27.62.49.88.79.52.53.76.96.86,1.32.1.35.04.63-.13.95-.08.14-.14.3-.24.42-.32.39-1,.19-1.77-.41-1.12-.91-2.24-1.81-3.43-2.53-1.17-.73-2.44-1.28-3.57-1.39-.84-.09-1.55.05-2.14.44-.59.37-1.12,1.1-1.49,1.96l-.07-.02Z"/><path class="cls-4" d="m261.02,117.29c-1.58,1.68-3.31,3.18-5.11,4.56-.65.5-1.27,1.06-1.94,1.52-.68.47-1.38.92-2.06,1.36l-.25.16-.09.05-.19.1c-.05.04-.16.07-.15.15l.04.21.12.56c.07.31.15.61.2.92.13.62.22,1.24.3,1.87.14,1.31.27,2.65.12,4-.1.86-.28,1.75-.68,2.58-.2.41-.47.8-.8,1.13-.3.35-.67.66-1.18.74-.64.07-.49.06-.44-.5.02-.63-.05-1.48.08-2.16.38-1.18.37-2.55.36-3.99-.03-.72-.1-1.46-.2-2.2-.05-.37-.12-.75-.18-1.13l-.11-.57-.05-.29-.15-.53c-.04-.14-.08-.27-.12-.41,0-.36-.06-.73-.03-1.08.14-.34.38-.62.68-.87.3-.25.66-.49.97-.71l.6-.41c.77-.55,1.54-1.11,2.31-1.66,1.74-1.26,3.39-2.65,4.91-4.17.93-.94,1.82-1.92,2.61-2.98,1.21-1.59,2.3-3.29,3.07-5.13.6-1.42.89-2.92,1.14-4.4.07-.32.09-.65.16-.97.23-1.21.49-1.56,1.22-1.74.16-.04.33-.1.48-.12.5-.07.94.53.97,1.55.01.75-.01,1.52-.1,2.28-.12.76-.29,1.52-.51,2.27-.45,1.5-1.08,2.97-1.84,4.36-1.13,2.07-2.56,3.96-4.11,5.69l-.05-.04Z"/><path class="cls-4" d="m217.88,122.69c1.05-6.21,1.88-12.61,3.68-18.88.69-2.28,1.34-4.59,2.38-6.77,1.72-3.88,4.22-7.46,7.28-10.43,3.05-3.07,6.99-5.12,11.06-6.31,3.64-1.02,7.49-1.34,11.24-.83,2.39.35,4.79,1,6.95,2.18,1.12.5,2.1,1.29,3.02,2.08l1.3,1.29c.23.19.37.49.54.74l.49.77c.77,1.31.52,1.19-.67.64-.59-.28-1.46-.59-2.42-.97-.49-.18-.94-.45-1.49-.63-.26-.1-.54-.2-.81-.3-.25-.14-.51-.28-.76-.44-3.77-1.94-8.12-2.68-12.44-2.29-4.31.44-8.6,1.96-12.14,4.59-2.11,1.57-4.03,3.68-5.54,5.99-1.54,2.32-2.75,4.88-3.74,7.52-2.19,5.81-3.22,12.09-4.21,18.4-.33,1.95-.56,3.89-.99,5.86l-.6,2.95c-.23.98-.54,1.93-.8,2.9-.81,2.93-2.02,5.75-3.38,8.48-1.49,2.66-3.11,5.27-5.16,7.52-1.52,1.81-3.28,3.39-5.1,4.88-1.9,1.38-3.88,2.71-6.09,3.62-.94.47-1.93.78-2.94,1.13-.95.27-1.77.41-2.44.54-.69.07-1.26.06-1.72.04-.92-.04-1.47-.37-1.88-.74-.19-.18-.43-.35-.53-.52-.17-.29.13-.57.77-.84.32-.15.72-.23,1.2-.39.48-.16,1.03-.31,1.66-.45,3.68-.99,7.27-2.67,10.37-5.12,3.12-2.42,5.8-5.48,7.89-8.95,3.12-5.17,5.05-11.1,5.98-17.26h.08Z"/><path class="cls-4" d="m309.78,127.63l1.62,3.41c.64,1.08,1.24,2.2,1.91,3.26.53.75,1.12,1.45,1.64,2.21,1.93,2.58,4.1,5.03,6.66,7.03.58.42,1.14.89,1.76,1.25.62.35,1.23.74,1.87,1.03.42.17.82.39,1.22.6.4.22.82.35,1.23.55.41.2.83.35,1.24.5.21.07.42.19.62.29l.63.25c.54.23.5.41-.03.75-.26.16-.69.43-1.2.61-.49.14-1.12.23-1.71.13l-1.58-.32c-.5-.15-1.02-.28-1.51-.48-.98-.41-1.84-.98-2.75-1.5-1.74-1.13-3.27-2.55-4.63-4.07-.78-.95-1.7-1.79-2.48-2.75l-1.23-1.4c-.42-.46-.75-.99-1.12-1.48l-1.17-1.67-1.03-1.75-1.01-1.75-.88-1.82c-.35-.75-.75-1.48-1.04-2.25l-.91-2.3c-.22-.58-.48-1.15-.67-1.75l-.55-1.79c-.36-1.19-.8-2.36-1.08-3.56-.47-1.85-1.24-3.61-1.64-5.47-.1-.41-.23-.8-.3-1.22-.06-.39-.11-.71-.12-.98,0-.27.05-.5.1-.7.11-.38.3-.62.59-.83.13-.1.26-.21.39-.28.42-.21.98.34,1.52,1.38,1.17,3.13,1.92,6.46,3.01,9.71.43,1.19.75,2.44,1.24,3.61.49,1.17.93,2.37,1.45,3.53l-.07.04Z"/><path class="cls-4" d="m223.76,261.01c-1.45-1.69-2.88-3.42-4.25-5.23-.49-.66-1.05-1.28-1.51-1.97-.82-1.21-1.59-2.46-2.26-3.78-.66-1.31-1.21-2.69-1.69-4.08-.41-1.24-.82-2.49-1.03-3.77-.09-.4-.15-.82-.2-1.23-.05-.41-.12-.82-.12-1.24,0-.42.04-.84.07-1.25.07-.41.14-.81.22-1.23.1-.51.23-.42.45,0,.22.43.6,1.19.92,2.04.31,1.53.74,3,1.31,4.44.51,1.45,1.13,2.87,1.79,4.31.81,1.72,2,3.34,3.18,4.92,1.29,1.75,2.69,3.44,4.14,5.11.89,1.03,1.8,2.05,2.72,3.06,1.4,1.54,2.78,3.11,4.15,4.7,1.05,1.25,2.2,2.42,3.06,3.97.18.35.4.66.52,1.06.55,1.45.13,2.1-.52,2.36-.16.07-.31.15-.46.17-.26.05-.5-.07-.71-.27-.11-.1-.21-.22-.3-.35-.1-.14-.23-.29-.31-.46-.95-2.04-2.9-4.15-4.8-6.33-1.48-1.64-2.96-3.29-4.44-4.94l.05-.05Z"/><path class="cls-4" d="m222.03,308.24l-2.29,1.64c-.28.2-.52.45-.82.64-.26.17-.53.34-.84.5-.16.08-.3.16-.59.26-.14.06-.23.07-.3.08l-.25.04c-.66.09-1.31.12-1.94.11-.55-.03-1.1-.06-1.65-.09-.69-.01-1.36-.21-2-.46-.2-.08-.16-.22.03-.41.19-.18.55-.45.94-.55.68-.19,1.31-.2,1.93-.3.61-.11,1.21-.12,1.8-.17.18-.01.36-.05.53-.1.12-.03.07-.04.1-.05.03-.02.12-.09.18-.13l.9-.73c.7-.55,1.41-1.12,2.11-1.71.43-.36.87-.72,1.28-1.1.63-.57,1.3-1.12,1.86-1.75.44-.49.75-1.08,1.1-1.64.08-.12.13-.26.23-.36.37-.38.62-.37,1.19-.02.13.08.26.15.38.24.41.29.58.73.46,1.17-.15.68-.52,1.18-.89,1.69-.38.5-.82.96-1.27,1.4-.66.66-1.41,1.24-2.14,1.84l-.04-.04Z"/><path class="cls-4" d="m235.44,292.8c.34,1.47.59,3.02.43,4.68-.08.42-.16.84-.25,1.25-.11.39-.26.73-.38,1.1-.29.7-.59,1.4-.95,2.04-.5.97-1.03,1.89-1.65,2.77-1.09,1.52-2.3,2.93-3.59,4.26-.64.66-1.3,1.31-1.98,1.93-.7.62-1.33,1.23-2.18,1.81-1.46.95-2.99,1.59-4.55,2.11-1,.32-2.01.6-3.05.79-1.03.19-2.1.32-3.17.07-.67-.16-.55-.28-.04-.62.53-.35,1.38-1.09,2.47-1.31,1.93-.48,3.81-1.17,5.57-1.93.44-.2.85-.42,1.24-.64.4-.24.7-.46,1.09-.79.76-.64,1.53-1.32,2.28-2.02,1.8-1.68,3.32-3.76,4.63-5.84.72-1.15,1.33-2.35,1.77-3.59.25-.64.35-1.19.42-1.81l.03-.94-.1-.97c-.22-1.61-.74-3.23-1.35-4.82-.96-2.4-2.12-4.76-3.42-7.01-1.01-1.75-2.16-3.38-3.26-5.07-.24-.37-.5-.72-.72-1.11-.82-1.44-.92-2.01-.59-2.59.08-.13.14-.29.23-.39.3-.35.96.05,1.71,1.01,2.25,2.82,4.2,6.09,6.04,9.49,1.33,2.55,2.55,5.22,3.36,8.15l-.06.02Z"/><path class="cls-4" d="m213.78,300.41c.98-.56,1.92-1.12,2.64-1.75.36-.31.65-.64.82-.92.19-.34.18-.38.19-.54h0c0-.12-.11-.18-.2-.23l-.45-.24c-.2-.11-.4-.23-.61-.36-.73-.47-1.44-1.06-2.02-1.74-.29-.33-.55-.69-.8-1.05l-.34-.55c-.11-.21-.23-.43-.32-.64-.72-1.76-.62-3.6-.12-5.23.45-1.45,1.21-2.76,2.14-3.89.18-.23.42-.42.32-.61-.02-.11-.03-.15-.07-.32-.04-.17-.08-.34-.14-.51-.22-.66-.6-1.28-.98-1.52-.18-.12-.4-.65.28-1.04.34-.18.92-.19,1.46.06.55.24,1.05.7,1.36,1.29.13.26.25.53.34.81.09.28.16.52.24,1.01.07.43.09.88.05,1.31,0,.05,0,.11-.01.16l-.09.1-.19.21-.38.41c-.31.33-.37.42-.49.57-.12.14-.23.29-.33.44-.22.3-.4.61-.57.93-.68,1.27-.99,2.72-.8,4.08.07.41.19.76.41,1.12.25.4.53.77.86,1.1.66.67,1.4,1.11,2.37,1.62.1.06.35.18.52.3.19.12.37.25.54.4.33.29.55.69.67,1.11.07.37.11.74.09,1.12-.02.37-.1.77-.21,1.05-.22.61-.55,1.12-.9,1.55-.72.85-1.52,1.48-2.32,2.04-1.26.89-2.68,1.57-3.79,2.31-.09.06-.18.13-.24.18-.02.02-.03.02-.03.02h0s0,.01-.01,0l-.12-.09c-.17-.19-.46-.29-.52-.3-.1,0-.02,0-.04,0h0s0,0,0,0c.29-.2-.65.44.65-.44h0s0,0,0,0h0s.01.02.01.02c.02.02.03.04.04.06.04.03.07.07.13.1.2.14.64.21,1.1.19.93-.05,1.96-.38,2.89-.83,1.47-.7,2.73-1.78,3.76-2.91.21-.25.42-.5.64-.75.77-.91.98-1.06,1.79-1.06.18,0,.37-.03.54-.03.29.01.51.18.61.56.09.37.03.92-.23,1.49-.77,1.72-2.08,2.98-3.51,4.01-1.46,1.02-3.05,1.84-4.99,2.3-.73.16-1.52.27-2.5.15-.5-.08-1.04-.2-1.63-.55-.28-.16-.57-.4-.81-.65-.13-.15-.21-.25-.35-.45-.59-.89-.31-1.9-.11-2.23.08-.15.2-.34.28-.45l.21-.23c.15-.16.22-.2.34-.31.19-.15.36-.27.51-.37.31-.2.59-.37.85-.53l1.53-.91.04.06Z"/><path class="cls-4" d="m299.95,181.53c1.45.98,2.87,1.98,4.26,3.04.51.37,1.06.7,1.56,1.09,1.77,1.38,3.48,2.83,5.17,4.28.76.63,1.51,1.29,2.28,1.9,1.01.76,1.87,1.71,2.65,2.73.24.32.06.44-.37.42-.42-.02-1.15-.1-1.8-.44-2.26-1.24-4.19-2.81-6.1-4.52-1.13-1.03-2.52-1.82-3.81-2.7-1.42-.97-2.84-1.93-4.27-2.88-.89-.58-1.77-1.16-2.68-1.7-1.37-.83-2.75-1.66-4.19-2.36-1.12-.53-2.29-.89-3.45-1.3-.25-.09-.51-.17-.76-.27-.92-.39-1.13-.7-1.03-1.46.02-.17.03-.35.07-.52.14-.56.71-.82,1.47-.67,2.27.41,4.4,1.46,6.48,2.58,1.54.84,3.04,1.78,4.53,2.72l-.03.06Z"/><path class="cls-4" d="m256.92,393.33c6.78-.24,13.58-.73,20.38-1.32l7.43-.75c8.75-.79,17.53-1.5,26.35-1.9,3.91-.16,7.86-.31,11.76-.29,1.26.02,2.51.09,3.77.15,1.26.13,2.52.22,3.77.39,2.51.35,5.01.97,7.31,2.09,1.42.71,1.18.68-.17.6-.68-.02-1.6-.14-2.75-.06-1.14.05-2.42.03-3.81-.09-2.45-.23-4.94-.22-7.43-.22-2.49-.04-4.99,0-7.51.08-5.03.17-10.08.49-15.18.8-6.09.39-12.42,1.18-18.65,1.78-6.86.65-13.74,1.23-20.64,1.62-4.25.26-8.51.36-12.76.42-6.45.04-12.96-.26-19.33-1.18-4.95-.71-9.84-1.63-14.53-3.54-1.01-.46-2.02-.88-3.04-1.37-3.65-2.09-4.51-3.24-4.69-4.37-.05-.25-.15-.53-.14-.71.01-.3.41-.28,1.15-.05.38.1.79.3,1.26.57.24.13.49.28.75.45.26.16.58.29.89.46,3.66,2.04,7.76,3.44,12.06,4.4,4.31.94,8.8,1.46,13.32,1.8,6.73.48,13.58.47,20.41.16v.08Z"/><path class="cls-4" d="m330.86,349.33c-1.18-4.83-2.49-9.64-3.81-14.49-.49-1.76-1.03-3.52-1.49-5.29-1.58-6.28-2.83-12.66-3.81-19.06-.37-2.85-.91-5.69-1.16-8.53-.18-1.82-.49-3.63-.57-5.47l-.08-1.37v-1.38c.01-.92.02-1.84.06-2.75.08-1.15.31-1,.79-.07.24.46.53,1.13.84,1.93.15.4.31.83.45,1.3.08.23.13.47.22.71.04.25.07.5.11.76.19,1.84.5,3.66.78,5.48.27,1.82.54,3.64.81,5.47.49,3.65,1.09,7.3,1.7,10.97.77,4.39,2.06,8.84,3.27,13.25,1.3,4.86,2.69,9.71,3.96,14.62.4,1.5.78,3.02,1.13,4.54.36,1.52.75,3.03,1.06,4.56.5,2.31,1,4.63,1.38,6.96.21,1.16.42,2.33.63,3.49.18,1.16.36,2.33.54,3.49.15.9.31,1.79.46,2.69.14.89.27,1.79.41,2.68.26,1.78.58,3.56.81,5.35.09.79.2,1.56.28,2.36.28,2.96.11,3.92-.61,4.6-.17.15-.33.35-.5.45-.58.32-1.17-.85-1.54-2.98-.25-1.58-.48-3.18-.69-4.79-.26-1.61-.51-3.23-.74-4.87-.2-1.64-.48-3.28-.75-4.93-.28-1.64-.48-3.31-.82-4.95-.47-2.45-.88-4.91-1.45-7.34-.5-2.45-1.1-4.88-1.71-7.31l.07-.02Z"/><path class="cls-4" d="m287.81,123.38c.29.53.6,1.05.93,1.55.32.49.68.93,1.11,1.44l2.58,3.03c.63.76,1.31,1.5,1.88,2.34.5.74,1,1.51,1.38,2.37.38.86.72,1.78.79,2.84.1,1.04-.26,2.27-1.01,3.06-.71.8-1.73,1.25-2.64,1.43-1.66.3-3.28.15-4.8-.26-.97-.29-1.91-.67-2.77-1.22-.85-.54-1.64-1.24-2.12-2.14-.3-.55-.2-.49.25-.21.21.15.56.3.96.46.4.16.83.36,1.29.56.82.38,1.69.63,2.56.79.87.17,1.75.29,2.6.27.84-.02,1.67-.17,2.28-.47.58-.29,1.04-.77,1.17-1.32.2-.7-.14-1.73-.69-2.66-.56-.93-1.24-1.87-1.96-2.78-.79-1-1.66-1.98-2.54-2.96-.87-.98-1.82-1.96-2.65-3.15-.98-1.42-1.79-2.93-2.41-4.53-.48-1.21-.82-2.49-.97-3.83-.12-1.34,0-2.8.71-4.1.56-1,1.45-1.79,2.41-2.3.96-.51,1.98-.84,3-1,.45-.09.88-.14,1.33-.18.83-.03,1.38.02,1.74.22.37.18.56.41.7.75.06.15.15.31.18.45.1.49-.57.87-1.64,1.09-1.56.23-3.16.52-4.23,1.17-1.06.65-1.46,1.4-1.49,2.75-.01,1.99.95,4.39,2.14,6.49l-.06.04Z"/><path class="cls-4" d="m277.23,123.37c.54,1.21,1.33,2.28,1.94,3.46.06.12.13.25.19.38-.1-.22.03.08.05.16.03.1.06.21.09.31.08.3.03-.15.02.15,0,.06-.02.14,0,.2.02.13,0-.08.02-.11-.03.06-.12.37-.06.22s-.1.16-.15.21c.14-.19-.14.12-.21.19-.37.33-.93.61-1.44.74-.15.04-.3.07-.45.1s0,0,.03,0c-.09,0-.17.02-.26.02-.3.02-.61,0-.91-.03.22.03-.17-.04-.24-.05-.15-.03-.31-.07-.46-.12s-.3-.1-.45-.15c-.24-.09-.09-.03-.32-.14-.3-.15-.59-.31-.88-.49-.23-.15-.57-.39-.7-.49-1.32-1.07-2.3-2.33-3.09-3.81s-3.09-.17-2.29,1.34c1.57,2.94,4.37,5.92,7.81,6.49,1.75.29,3.53-.04,4.98-1.1,1.37-1,2.07-2.5,1.51-4.17s-1.73-3.04-2.44-4.63c-.29-.65-1.24-.81-1.81-.48-.67.39-.77,1.16-.48,1.81h0Z"/><path class="cls-4" d="m271.84,150.27c2.08,3.8,7.35,5.22,11.08,3.04,1.48-.86.14-3.16-1.34-2.3-.19.11-.38.21-.58.3s.28-.09-.06.02c-.09.03-.18.07-.28.1-.21.07-.41.12-.63.16-.1.02-.19.04-.29.05-.16.03.2-.01-.06,0-.42.03-.82.04-1.24,0-.1,0-.2-.02-.3-.03.2.03.06,0-.06-.02-.21-.04-.43-.09-.64-.15-.19-.05-.38-.11-.57-.18,0,0-.32-.13-.17-.06s-.14-.07-.17-.08c-.38-.18-.72-.4-1.07-.64-.12-.08.13.11-.06-.04-.09-.08-.18-.15-.27-.23-.14-.13-.28-.27-.41-.42-.08-.09-.16-.18-.23-.27.08.1.05.08,0-.01-.13-.2-.26-.4-.37-.61-.34-.63-1.21-.83-1.82-.48s-.82,1.19-.48,1.82h0Z"/><path class="cls-4" d="m265.1,118.71c.17-.35.36-.68.57-1.01.05-.08.11-.16.17-.24.07-.1.15-.19.03-.04.12-.15.25-.3.38-.44.26-.28.55-.54.84-.79.2-.17-.09.06.04-.03.08-.05.16-.11.24-.17.16-.11.32-.21.49-.31s.34-.19.51-.28c.07-.03.14-.07.21-.1.04-.02.39-.16.1-.05.34-.13.69-.25,1.04-.35.19-.05.37-.09.56-.13.09-.02.19-.03.28-.05-.3.05-.03,0,.04,0,.4-.04.81-.05,1.21-.02.72.04,1.41-.66,1.38-1.38-.03-.78-.6-1.33-1.38-1.38-3.71-.2-7.47,2-9.08,5.36-.31.65-.2,1.52.49,1.88.61.32,1.55.2,1.88-.49h0Z"/><path class="cls-4" d="m260.54,59.22c-4.14,1.36-8.24,2.9-12.32,4.46-1.49.57-2.95,1.23-4.45,1.8-5.27,2.02-10.53,4.08-15.77,6.2-2.33.93-4.63,1.97-6.93,2.93-2.95,1.23-5.85,2.65-8.98,3.44-.97.26-.97-.09-.36-.82.31-.36.76-.83,1.33-1.35.58-.49,1.31-.94,2.14-1.34,5.88-2.82,11.84-5.42,17.99-7.79,3.68-1.41,7.37-3.21,11.09-4.76,4.08-1.74,8.26-3.27,12.43-4.81,2.59-.9,5.17-1.81,7.78-2.64,3.94-1.31,7.97-2.39,11.93-3.51,1.55-.4,3.08-.83,4.6-1.29,1.53-.44,3.06-.81,4.61-1.21.68-.18,1.34-.37,2.04-.49,2.58-.5,3.45-.3,4.12.45.15.18.35.34.44.52.33.61-.63,1.34-2.43,1.89-5.39,1.47-11.06,2.77-16.7,4.42-4.19,1.22-8.39,2.49-12.53,3.98l-.03-.07Z"/><path class="cls-4" d="m203.92,100.17c.01-.42,0-.84-.02-1.25,0-.21-.03-.4-.06-.6l-.09-.72c-.14-.97-.23-1.96-.26-2.96-.04-.72-.1-1.46-.06-2.19.08-1.29.32-2.6.73-3.84.4-1.25,1.03-2.42,1.75-3.5.63-.96,1.39-1.83,2.17-2.64.55-.47,1.07-.98,1.68-1.36.31-.19.58-.42.93-.54.35-.11.69-.24,1.05-.31.5,0,.45.05.32.55-.06.25-.17.55-.3.9-.13.36-.31.7-.58.93-1.89,1.79-3.44,3.59-4.45,5.93-.6,1.4-.71,3.05-.7,4.66-.02.89.04,1.79.14,2.69.08.91.27,1.77.36,2.84.1,1.25.05,2.48-.13,3.71-.26,1.86-.93,3.67-1.9,5.29-.75,1.26-1.74,2.38-2.92,3.28-.27.18-.53.37-.82.52-1.09.52-1.54.44-1.95.06-.09-.09-.2-.17-.27-.27-.23-.33.05-.84.63-1.33.23-.17.42-.39.61-.59.19-.21.41-.36.59-.57.35-.42.72-.79,1-1.23.56-.88,1.19-1.67,1.56-2.68.6-1.45.94-3.11.93-4.79h.07Z"/><path class="cls-4" d="m201.6,116.26c-.16.6-.32,1.2-.48,1.8-.05.22-.05.44-.12.65-.22.76-.62,1.48-.88,2.21-.12.32-.21.65-.29.98-.1.42-.18.85-.44,1.23-.08.12-.32.04-.55-.14-.23-.17-.48-.44-.49-.69,0-.87.02-1.71.29-2.53.16-.49.08-1.03.16-1.54.08-.56.16-1.13.24-1.7.04-.35.09-.7.11-1.05.05-.53.12-1.07.07-1.6-.05-.41-.25-.81-.4-1.2-.03-.09-.09-.17-.11-.26-.05-.16,0-.28.16-.37.15-.09.36-.16.67-.22l.42-.09c.45-.08.9.02,1.2.26.54.74.65,1.57.65,2.41,0,.62-.06,1.24-.17,1.86h-.06Z"/><path class="cls-4" d="m198.35,117.88c-.25.4-.49.81-.67,1.26-.07.16-.07.33-.14.5-.21.57-.51,1.17-.67,1.79-.09.28-.04.56-.12.84-.02.36.04.71-.07,1.09-.03.12-.25.14-.49.07-.24-.07-.54-.22-.62-.44-.07-.2-.11-.39-.18-.59-.05-.1-.11-.2-.14-.3l-.04-.31c-.04-.41-.04-.83.07-1.23.1-.49.11-1,.2-1.49.12-.54.3-1.07.5-1.58.12-.32.26-.62.4-.93.19-.47.49-.9.68-1.36.17-.35.17-.8.38-1.13.04-.08.06-.16.12-.23.21-.25.4-.25.86-.01.1.05.21.1.31.16.33.2.54.49.58.76.02.38.16.81.05,1.09-.07.3-.19.58-.3.86-.15.42-.45.79-.64,1.21l-.06-.02Z"/><path class="cls-4" d="m198.05,116.59c-.47.38-.94.79-1.35,1.24-.15.16-.26.35-.41.52-.57.56-1.08,1.19-1.47,1.87-.2.3-.31.63-.41.96-.11.43-.17.84-.32,1.29-.05.14-.25.14-.48.02-.22-.11-.53-.37-.59-.69-.16-1.11-.05-2.28.59-3.14.36-.52.54-1.15.85-1.71.36-.59.81-1.13,1.26-1.65.28-.32.57-.62.86-.93.43-.47.94-.87,1.37-1.34.35-.34.6-.8,1.01-1.1.09-.07.16-.15.26-.21.38-.2.59-.12.94.26.08.09.16.17.23.26.23.3.29.67.2.98-.24.95-.56,1.69-1.17,2.19-.39.43-.9.77-1.33,1.2l-.05-.04Z"/><path class="cls-4" d="m304.76,198.77c1.88.1,3.79.04,5.71-.08.7-.05,1.4-.19,2.1-.24,2.51-.21,5.02-.43,7.52-.64,1.13-.07,2.25-.22,3.39-.23,1.44-.12,3-.08,4.38.63.43.21.28.42-.16.7-.22.14-.52.32-.84.45-.32.13-.67.24-1.06.32-.67.04-1.33,0-2.03.1-.68.05-1.37.1-2.07.2-1.4.07-2.84.2-4.3.26-1.75.07-3.53.47-5.33.66-1.97.22-3.97.34-5.98.38-.61.03-1.24-.02-1.86-.03-.62-.02-1.24-.02-1.85-.09-.94-.11-1.88-.13-2.8-.34-.93-.18-1.86-.29-2.76-.56-.7-.2-1.44-.27-2.13-.5l-2.11-.65c-.31-.1-.6-.24-.89-.38-.54-.28-.88-.5-1.05-.76-.16-.27-.18-.54-.11-.88.03-.15.05-.31.1-.45.09-.23.29-.37.58-.45.29-.07.67-.1,1.04.04,2.22.83,4.52,1.5,6.95,1.95l1.36.24c.46.06.93.09,1.39.14.47.04.93.11,1.4.13l1.42.04v.06Z"/><path class="cls-4" d="m338.53,269.29c.12-.61.4-1.18.6-1.76.24-.57.54-1.12.81-1.67.25-.38.45-.78.71-1.16.97-1.26,2.15-2.38,3.58-3.1.31-.16.64-.28.97-.41.32-.14.64-.27.99-.32.43-.08.86-.22,1.29-.25.44,0,.88,0,1.31.02.27.02.23.1,0,.24-.22.13-.6.36-1.05.48-.4.07-.76.32-1.13.46-.38.14-.71.36-1.04.58-.16.11-.34.19-.52.28-.17.09-.32.22-.49.33-.32.22-.67.41-.98.67-.38.29-.78.6-1.06,1.01-.31.39-.62.79-.87,1.22l-.44.7-.37.75c-.27.49-.43,1.03-.63,1.55-.14.32-.18.66-.27,1-.08.34-.17.67-.2,1.02-.06.52-.14,1.04-.12,1.57,0,.26,0,.52.01.78l.12.77c.05.4.21.77.36,1.13.13.37.34.69.55,1.01l.27.41c.39.45.42.67.19,1.07-.05.09-.1.19-.15.27-.19.28-.57.24-1-.16-1.24-1.2-1.78-3.02-1.88-4.72-.02-.64-.04-1.28.06-1.91.04-.31.06-.63.12-.94l.21-.92h.04Z"/><path class="cls-3" d="m348.97,283.6s1.2,14.73,3.3,13.89c2.1-.83,4.48-5.97,4.48-5.97,0,0,7.5,2.9,7.96,2.58s-5.51-9.25-5.51-9.25l-1.95-5.46-8.28,4.2Z"/><path class="cls-4" d="m357.81,280.91c.76,2.38-6.71,1.3-6.71,6.85s3.56,7.28,3.56,7.28c0,0,.34,4.38-1.07,3.66-1.42-.73-4.96-6.08-5.1-6.42s-1.88-9.74-2.18-11.39c-.3-1.65,2.65,1.78,5.46,1.06s5.48-2.55,5.48-2.55l.57,1.51Z"/><path class="cls-4" d="m354.2,273.23c0,2.52-1.43,3.33-3.72,3.33s-3.53-1.5-3.53-4.02,1.23-3.19,3.53-3.19,3.72,1.36,3.72,3.88Z"/><path class="cls-5" d="m292.23,198.52s15.45,3.16,20.21,1.84c4.77-1.32,18.47-3.26,18.14-.76s-5.69,8.73-5.51,12.12c.18,3.39,8.17,8.01,8.6,6.55s6.15-10.63,6.15-10.63c0,0-.1,9.54,2.88,8.84,2.98-.69,4.57-5.72,3.91-7.56s.34-7.26.34-7.26l8.66-1.38s-5.03,16.37-1.76,32.32c1.8,8.77,3.41,25.54,1.76,30.94-.93,3.05-9.11-5.6-13.63,2.01-4.51,7.61.15,12.19,1.36,13.29,1.21,1.09-6.54,1.25-11.5.56s-30.2.47-30.2.47c0,0-5.35-1.91-5.04-11.52.31-9.61,1.25-29.26-.07-35.46-1.32-6.2-4.28-30.18-4.28-30.18v-4.18Z"/><path class="cls-4" d="m350.52,298.24c-.99-1.28-1.74-2.64-2.4-4.04-.24-.51-.52-1-.72-1.52-.65-1.87-1.07-3.8-1.31-5.73-.07-.86-.19-1.72-.23-2.57-.05-.54-.04-1.09-.01-1.64l.08-.82c.03-.27.14-.54.21-.81.11-.33.12-.28.26,0,.07.14.18.35.32.58.12.24.23.52.29.81.26,1.05.44,2.08.68,3.11.11.51.25,1.02.35,1.53.09.51.18,1.03.28,1.55.22,1.26.82,2.44,1.34,3.62.56,1.3,1.22,2.58,2.01,3.74.13.17.25.36.38.53l.31.41c.14.18.3.36.49.51.11.07.3.25.4.09.06-.13.13-.26.18-.41.09-.21.14-.37.23-.67.1-.37.19-.76.28-1.15.22-1.03.4-2.23,1.06-3.29.14-.23.27-.46.45-.67.66-.75,1.01-.8,1.53-.46.12.08.24.14.34.23.32.29.3.83-.02,1.28-.48.7-.78,1.33-1,2.09-.11.38-.21.82-.32,1.28l-.17.73-.1.38-.05.19c-.02.1-.06.22-.1.34-.19.59-.38,1.17-.57,1.76l-.19.33c-.07.09-.15.12-.22.19l-.45.35c-.38.18-.84.18-1.24.05-.42-.11-.85-.43-1.27-.75l-.61-.58c-.18-.18-.44-.49-.5-.56l.04-.04Z"/><path class="cls-4" d="m362.54,293.07s0-.06,0-.11c-.01-.03,0-.03-.04-.1l-.34-.49c-.45-.65-.9-1.31-1.34-1.99-.32-.49-.69-.96-.97-1.48-1.02-1.83-1.76-3.83-2.25-5.87-.16-.92-.34-1.83-.39-2.75-.05-.58,0-1.18.01-1.76.03-.58.18-1.16.27-1.73.07-.35.12-.3.25,0,.12.3.42.85.62,1.46.38,1.1.85,2.11,1.18,3.12.44.98.53,2.06.9,3.11.37,1.27,1.14,2.43,1.86,3.59.4.64.81,1.28,1.25,1.91l.66.95.93,1.25c.39.58.93,1.19,1.1,1.69.12.25.29.54.27.71l.04.29c.01.09.06.21-.07.31-.55.47-1.48.62-2.47.63-.49,0-1-.03-1.51-.1-.25-.04-.51-.07-.76-.14-.19-.04-.39-.09-.58-.14-1.18-.33-2.41-.78-3.43-1.64-.22-.19-.44-.38-.62-.6-.67-.86-.62-1.3-.11-1.78.12-.11.23-.23.36-.32.45-.3.97-.16,1.42.19.34.26.68.49,1.02.69.32.21.66.4,1,.56.35.16.72.3,1.1.42.09.03.2.05.29.08l.15.04h-.01s0-.01,0-.01c-.04,0,.15.1.13.01h.09Z"/><path class="cls-4" d="m346.03,261.66c1.67-.75,3.53-1.17,5.37-1.01,1.84.09,3.68.77,5.14,1.89,1.04.82,2.04,1.74,2.68,2.88,2.4,3.93,2.27,8.97,0,12.73-.97,1.71-2.56,3.12-4.38,3.84-2.32.96-5.05,1.02-7.21-.13-.65-.42-.46-.55.23-.75.34-.1.8-.2,1.31-.31.52-.13,1.06-.2,1.64-.21,4.21.03,7.16-3.34,7.79-7.56.17-1.25.06-2.57-.32-3.81-.38-1.25-1.04-2.39-1.85-3.35-.89-1.06-2.05-1.87-3.35-2.29-1.3-.43-2.76-.49-4.15-.18-1.71.37-3.33,1.29-4.56,2.59-1.91,1.95-2.85,4.81-2.54,7.54.24,2.12,1.34,4.03,2.89,5.22.35.26.7.48,1.09.67.69.38,1.19.55,1.52.77.33.24.52.45.65.8.06.16.16.32.2.47.06.25-.11.44-.5.57-.39.14-1.02.16-1.78-.04-2.28-.59-4.32-2.37-5.42-4.58-1.14-2.22-1.41-4.8-.98-7.23.63-3.69,3.15-6.94,6.51-8.57l.03.06Z"/><path class="cls-4" d="m348.84,266.3c.97-.41,2.09-.6,3.14-.35,1.01.26,1.91.79,2.55,1.48.49.48.94.99,1.24,1.58.54,1.04.82,2.2.79,3.36-.02,1.17-.46,2.33-1.16,3.23-.58.84-1.44,1.46-2.34,1.83-.58.25-1.21.4-1.85.43-.64.04-1.29-.13-1.82-.49-.31-.29-.17-.42.21-.67.22-.15.45-.3.65-.43.24-.16.47-.29.7-.31.84-.12,1.63-.51,2.19-1.05.58-.52,1.07-1.17,1.28-2.02.26-1.04-.21-2.25-.87-3.15-.38-.49-.82-.94-1.33-1.22-.51-.24-1.05-.44-1.61-.34-.67.11-1.4.48-1.96,1.08-.84.88-1.42,2.15-1.36,3.39.02.97.54,1.8,1.17,2.27.13.12.32.16.45.27.59.29.77.47.8,1.08,0,.14.03.28.03.41,0,.22-.11.39-.33.51-.22.1-.57.21-.96.07-1.21-.28-2.39-1.29-2.93-2.56-.54-1.27-.56-2.66-.25-3.92.48-1.88,1.67-3.56,3.54-4.53l.03.05Z"/><path class="cls-4" d="m336.38,215.61c-.61,1.01-1.2,2.25-2.58,3.21-.5.33-1.2.64-1.88.58-1.41-.07-2.76-1.02-3.23-2.35-.03-.16-.06-.37.04-.58.02-.03.03-.07.06-.09l.03-.04c-.14.11-.35.25-.55.32-.08.07-.16.04-.24.1-.92.2-1.98.14-2.73-.48-.23-.18-.15-.23.11-.33.13-.05.32-.13.51-.23.2-.12.4-.22.6-.26.27-.06.52-.14.75-.25.14-.07.18-.09.39-.16.07-.03.15-.05.23-.09.07-.16.16-.14.24-.22.17-.13.32-.17.52-.4.69.75.76.89.89.96-.01,0-.03,0-.02.02.02.09.33.54.7,1.07.39-.16.24-.05.29-.03.01.03.01.07.03.1.1.29.36.54.67.66.28.12.76.14.94.09.54-.07,1.26-.96,1.75-1.93.32-.61.65-1.27.96-1.91.46-.98.99-1.95,1.37-2.96.3-.78.46-1.61.66-2.41.04-.18.06-.36.12-.53.25-.62.48-.75,1.09-.7.14.01.28,0,.41.03.44.07.73.47.73,1.03-.04,1.63-.65,3.11-1.26,4.59-.45,1.1-1.02,2.14-1.57,3.2l-.05-.02Z"/><path class="cls-4" d="m339.72,214c-.21-.92-.35-1.85-.42-2.78-.03-.34-.11-.67-.11-1.01v-.4s.03-.13.03-.13c.02-.09.03-.21.04-.33,0-.25-.02-.57-.18-.86-.08-.2-.12,0-.17.09l-.13.33v.07c-.12.38-.11.6-.23.84-.07.16-.23.14-.41-.07-.11-.13-.18-.33-.28-.76-.15-.49-.06-.9-.03-1.55.2-1.09.56-1.86.88-2.64.1.03.19.12.27.2l.21.21.43.43c.22.22.42.44.61.67.17.26.33.52.45.83.1.26.18.55.28.82.09.28.13.62.18.94l.11.89.05.57c.06.82.17,1.64.35,2.44.11.5.25.99.42,1.47.12.33.24.64.4.92.16.28.35.53.49.64.03.02.06.05.1.06.16.08.37.02.49-.05.2-.09.43-.23.65-.37.1-.06.18-.15.28-.21.35-.24.55-.1.96.33l.29.29c.32.33.34.81.03,1.19-.4.4-.87.72-1.48.94-.26.11-.8.21-1.24.17-.47-.02-.91-.19-1.29-.46-.33-.24-.68-.62-.83-.83-.74-1.02-.97-1.96-1.25-2.86l.05-.02Z"/><path class="cls-4" d="m321.72,278.53c-5.9-2.27-17.28,1.02-20.76-.49-2.66-1.16-2.93-18.3-2.93-18.3,0,0-3.29,22.89-.2,22.26,3.09-.63,23.89-3.46,23.89-3.46Z"/><path class="cls-4" d="m355.58,198.32c.29-.09.59-.18.85-.29.12-.03.14,0,.23-.03.15-.03.32-.12.49-.26.14-.11.02-.25-.06-.31-.11-.13-.31-.19-.63-.25-.04,0-.08-.02-.13-.02l-.33-.02-.67-.03c-.45-.02-.9-.03-1.35-.03-.8,0-1.61.06-2.42.12-.52.05-1.04.06-1.57.03-.53,0-1.08-.14-1.62-.4-.35-.2-.2-.31.09-.5.15-.11.34-.25.56-.42.22-.18.47-.34.74-.39.98-.26,2-.4,3.04-.51,1.04-.11,2.11-.2,3.21-.12h.25c.14.02.27.01.41.01h.82s.8.05.8.05c.24.04.51.06.73.12.48.09.87.24,1.18.44.31.2.59.44.75.83.33.94-.23,1.75-.86,2.5-.17.18-.33.37-.51.55l-.67.47c-.22.15-.43.31-.67.46-.24.13-.52.26-.67.33-.89.38-1.79.64-2.68.86-1.35.33-2.71.5-4.04.72-1.03.16-2.04.47-3.08.65-.23.03-.45.09-.69.11-.87.05-1.17-.17-1.32-.94-.04-.18-.08-.35-.1-.53-.05-.6.29-1.07.85-1.27,1.69-.62,3.49-.8,5.25-1.12,1.3-.23,2.6-.47,3.76-.88l.03.07Z"/><path class="cls-4" d="m339.45,208.34c-.17-1.06-.09-.77-.11-.97,0-.12,0-.28-.03-.45,0-.08-.02-.16-.05-.25-.01-.04-.02-.09-.04-.13-.01-.05-.05-.08-.07-.05-.06.06-.1.16-.16.28-.09.2-.12.5-.22.71-.54,1.67-1.23,3.5-2.01,5.22-.39.87-.82,1.72-1.32,2.56-.52.83-1.07,1.67-2,2.34-.41.29-.95.53-1.55.53-.3.01-.58-.07-.83-.17-.27-.07-.5-.23-.72-.4-.89-.72-1.12-1.73-1.26-2.6-.14-1.15-.03-2.26.21-3.33.13-.53.27-1.07.52-1.56.27-.49.56-.96.9-1.39.45-.53.46-.38.39.2-.03.29-.05.7-.03,1.19,0,.24.03.5.03.77-.03.25-.06.52-.11.79-.16.96-.21,1.95-.09,2.83.04.44.15.84.28,1.16.15.3.31.44.46.52.22.08.23.09.45,0,.21-.1.52-.37.79-.71.56-.68,1.06-1.58,1.52-2.49.55-1.1.99-2.31,1.37-3.55.45-1.53.91-3.07,1.36-4.59.24-.79.47-1.6.73-2.22.27-.58.55-.9.79-1.13.12-.11.23-.23.36-.32.06-.05.12-.09.22-.12.13-.05.23.05.31.08.33.23.58.51.81.95.43.76.77,2.06,1.01,3.44l.54,3.22c.15.86.32,1.72.55,2.53.07.25.15.51.23.75.04.12.09.25.13.35.03.08.06.14.09.21.12.27.29.55.58.69.2.1.45.07.61-.08.16-.15.27-.35.35-.56.04-.1.08-.21.11-.32.04-.14.09-.34.13-.51.08-.36.14-.73.19-1.11.25-2,.14-4.04.09-6.08-.01-.45-.05-.9-.05-1.36-.02-1.7.33-2.32,1-2.61.15-.06.32-.15.47-.15.47.03.75.55.93,1.79.14,1.8.25,3.71.19,5.68-.03.98-.09,1.99-.22,3.02-.07.52-.15,1.04-.29,1.59-.03.15-.06.25-.12.44-.07.24-.14.47-.24.69-.16.46-.39.85-.65,1.22-.35.44-.76.78-1.25.97-.25.09-.51.15-.78.18-.27-.03-.54-.02-.79-.07-.92-.25-1.72-.94-2.23-1.96-.12-.24-.27-.51-.35-.74-.06-.16-.13-.32-.18-.47-.11-.31-.2-.62-.28-.92-.33-1.2-.53-2.35-.73-3.49h.06Z"/><path class="cls-4" d="m329.03,214.82c-1.13,1.1-2.31,1.43-3.61.88-.61-.27-1.08-.73-1.36-1.3-.16-.27-.24-.6-.34-.91-.04-.35-.13-.68-.11-1.06-.03-.53.05-1.09.1-1.64l.11-.62c.03-.18.08-.34.13-.51.69-2.36,1.83-4.4,2.97-6.42.5-.9,1-1.8,1.49-2.7.36-.55.67-1.14,1.11-1.65.22-.25.47-.49.74-.71.26-.23.55-.44.9-.58.45-.17.48.01.5.5.05.52.15,1.32-.07,1.99-.44,1.16-1.06,2.22-1.68,3.31-.62,1.09-1.24,2.18-1.87,3.29-.74,1.33-1.18,2.86-1.5,4.27-.1.37-.17.64-.12,1.04.04.38.54.67.84.4.19-.12.36-.3.53-.49l.13-.15.18-.24.43-.65c.86-1.34,1.66-2.78,2.29-4.27.49-1.16.77-2.38,1.08-3.57.07-.26.1-.53.18-.79.13-.48.31-.77.52-.94.24-.16.52-.21.9-.21.17,0,.35-.02.51,0,.27.03.48.17.65.43.16.25.3.62.25,1.03-.25,2.4-1.18,4.66-2.27,6.87-.41.82-.86,1.63-1.35,2.44-.24.4-.5.8-.78,1.2-.1.13-.37.55-.64.88-.25.35-.54.65-.81.96l-.04-.07Z"/><path class="cls-4" d="m298.36,246.35c.18,6.58.14,13.17-.11,19.75-.08,2.4-.14,4.81-.29,7.2-.17,2.11-.31,4.23-.55,6.34l-.08.63-.04.26c0,.07.14.01.21.02l.52-.04c.49-.05,1.03-.1,1.54-.16,4.15-.48,8.3-1.09,12.49-1.7,3.71-.53,7.51-1.02,11.29-.92,4.85.05,9.69.94,14.18,2.61,1.4.54,1.18.55-.1.51-1.29-.02-3.64-.1-6.32-.36-2.37-.33-4.73-.47-7.09-.49l-1.77.04c-.59.02-1.18.08-1.76.1-1.18.06-2.36.17-3.54.31-4.72.56-9.54,1.52-14.45,2.1-1.54.17-3.08.34-4.64.52l-1.88.21-.93.1-.47.05c-.12.05-.03-.11-.05-.16l.02-.24c.1-1.21.21-2.42.31-3.63.14-1.49.24-2.98.32-4.48.09-1.5.18-2.99.24-4.48.32-6.55.4-13.13.28-19.71-.09-4.05-.22-8.1-.47-12.14-.35-6.12-.85-12.27-1.63-18.3-.59-4.7-1.47-9.25-2.37-13.84-.21-1.01-.42-1.99-.63-3-.75-3.77-.84-4.99-.24-5.96.13-.22.26-.5.4-.65.51-.49,1.3.96,2.04,3.71,2.14,8.18,3.47,17.01,4.36,25.89.65,6.6,1.05,13.25,1.28,19.89h-.07Z"/><path class="cls-4" d="m361.75,244.55l-1.32-10.83c-.16-1.32-.37-2.64-.49-3.97-.13-1.17-.18-2.35-.26-3.53-.08-1.18-.17-2.35-.19-3.53l-.1-3.54.05-3.55c-.01-1.05.08-2.1.14-3.15.09-1.05.08-2.1.24-3.13.19-1.33.32-2.67.55-3.99l.56-1.94.3-.96c.11-.32.27-.62.4-.93.37-.76.32-.65.41.09.15.76.34,2.1.2,3.58-.07,1.33-.18,2.64-.29,3.96l-.08.98v.99s-.05,1.98-.05,1.98c-.11,1.32-.11,2.65-.12,3.98l-.04,2,.03,2.02c.01,1.61.11,3.25.31,4.9l.27,2.48c.11.83.22,1.65.32,2.47.4,3.62.88,7.25,1.34,10.89.26,2.25.57,4.48.78,6.74.19,1.7.35,3.42.45,5.14.15,1.71.19,3.43.25,5.14.09,1.33.04,2.65.06,3.97.05,1.32-.1,2.64-.22,3.97-.07.58-.06,1.16-.18,1.75-.48,2.16-.8,2.81-1.47,3.1-.15.07-.31.16-.46.19-.48.07-.66-.88-.48-2.39.06-.56.16-1.12.21-1.69.02-.57.05-1.15.07-1.73.03-.58.06-1.15.09-1.73.03-.58-.02-1.17-.01-1.76.04-2.35-.07-4.75-.21-7.16-.27-3.59-.62-7.2-1.12-10.82h.06Z"/><path class="cls-4" d="m323,233.07c-.37-.16-1.08-.19-1.72-.09-.78.13-1.55.29-2.31.49-.56.14-1.09.37-1.64.53-.98.29-1.91.65-2.97,1.02-1.04.35-2.23.65-3.45.52-1.05-.11-2.18-.49-2.96-1.37-.53-.59-.75-1.37-.69-2.11.05-.73.43-1.5,1.1-1.88.44-.21.44.1.38.49-.07.42.07.91.15,1.3.03.38.29.69.43.89.19.23.51.44.89.56.8.27,1.73.19,2.82-.07,1.29-.31,2.71-1.17,4.17-1.64.81-.27,1.62-.51,2.45-.72.42-.1.81-.19,1.26-.28.46-.09.93-.14,1.41-.14.59,0,1.23.08,1.88.4.32.16.64.4.88.71.24.31.4.69.48,1.02.08.39.07.46.09.61.01.14.04.28.12.4.16.25.48.31.76.27.2,0,.78-.21,1.25-.36,1.12-.39,2.17-.93,3.26-1.39.24-.11.47-.2.72-.28.93-.26,1.28-.15,1.68.44.09.13.19.26.26.4.24.47-.01,1-.62,1.41-.9.64-1.89,1.09-2.92,1.46-.52.18-1.04.35-1.57.51l-.8.23c-.25.07-.89.24-1.42.24-.93.04-1.86-.29-2.46-.98-.36-.41-.59-.92-.69-1.49l-.06-.43-.03-.34c0-.09-.01-.15,0-.15l.07-.03h.03s0-.02,0-.02c-.05.02.11-.04-.1.04h0s0,0,0,0h0s0,0,0,0c0,0,.01,0,.03-.01l.06-.04s-.04.04-.05.05c0-.01-.04-.07-.17-.11v-.06Z"/><path class="cls-4" d="m324.8,250.57c-.78.05-1.56.09-2.38,0-.81-.06-1.67-.27-2.36-.53-.52-.18-1.03-.31-1.51-.52-1.69-.69-3.35-1.54-4.97-1.86-.71-.12-1.47-.04-2.15.19-.88.3-1.58.84-2.04,1.58-.14.23-.41.16-.58-.22-.18-.36-.18-1.12.36-1.68.93-.97,2.18-1.41,3.39-1.51.61-.05,1.25,0,1.83.12.57.13,1.09.3,1.61.49,1.21.46,2.49.79,3.7,1.15.66.19,1.32.4,1.92.48.6.09,1.24.08,1.9.03.81-.08,1.63-.23,2.44-.43,1.24-.3,2.49-.67,3.66-1.21.91-.41,1.74-.96,2.59-1.48.19-.12.36-.24.55-.35.73-.35,1.04-.32,1.48.12.1.1.21.19.3.3.28.35.17.85-.29,1.32-1.39,1.31-3.12,2.3-5.01,2.98-1.4.51-2.86.94-4.43,1.1v-.06Z"/><path class="cls-4" d="m312.88,69.73c3.67,1.98,6.86,4.96,8.93,8.63,2.09,3.64,3.06,7.96,2.56,12.15-.34,3.04-1.43,6.07-3.21,8.54-1.55,2.18-3.46,4.01-5.5,5.59-2.05,1.57-4.25,2.92-6.55,4.02-4.61,2.18-9.53,3.68-14.65,4.01-2.29.14-4.52.02-6.75-.2-2.23-.22-4.44-.57-6.61-1.07-2.78-.66-5.55-1.55-8.13-2.91-1.31-.65-2.52-1.51-3.62-2.49-.55-.5-1.06-1.04-1.55-1.58-.24-.28-.41-.63-.6-.94-.19-.32-.39-.63-.51-.99-.66-1.73-.56-1.43.64-.49,1.33.88,3.58,2.11,6.16,3.53,2.29,1.31,4.86,2.22,7.5,2.9,2.64.67,5.37,1.11,8.12,1.33,2.78.23,5.4.2,8.11-.26,2.69-.44,5.36-1.18,7.95-2.17,3.1-1.17,6.09-2.87,8.71-4.98,1.33-1.04,2.5-2.24,3.59-3.5.49-.66,1.05-1.28,1.45-1.99.21-.35.45-.68.64-1.04l.54-1.07c1.47-3.21,1.73-6.96.84-10.43-.88-3.49-2.9-6.68-5.63-9.1-3.36-3-7.75-4.79-12.3-5.39-3.45-.51-7.01-.32-10.49.23-1.74.27-3.48.67-5.13,1.17-1.65.57-3.27,1.22-4.81,2.04-4.82,2.53-8.91,6.12-12.53,10.07-.39.45-.78.89-1.16,1.33-.37.45-.75.91-1.12,1.37-2.83,3.4-3.73,4.48-4.93,4.85-.26.09-.56.25-.76.27-.34.04-.35-.38-.1-1.22.23-.85.84-2.03,1.74-3.49,2.79-4.21,6.35-8.12,10.52-11.44,4.16-3.3,9-6.16,14.51-7.45,3.93-.92,8.03-1.42,12.16-1.17,4.12.26,8.29,1.25,12.02,3.26l-.03.08Z"/><path class="cls-4" d="m282.53,193.19c-2.77.51-5.57.54-8.3.19-.99-.16-2-.21-2.97-.5-3.43-.89-6.62-2.48-9.43-4.49l-.95-.65c-.3-.23-.59-.49-.88-.73-.58-.5-1.21-.94-1.74-1.47-.7-.67-1.41-1.34-2.06-2.06l-.45-.57-.39-.63c-.25-.42-.49-.83-.75-1.25-.29-.53-.15-.54.39-.34.35.13.72.27,1.09.4.22.08.46.18.7.28.12.05.23.12.37.16l.31.24c1.52,1.13,2.94,2.28,4.46,3.3.72.57,1.48,1.05,2.22,1.6.73.56,1.55.97,2.32,1.5,1.92,1.11,4.18,1.71,6.39,2.14,2.44.47,4.96.6,7.45.31,1.52-.17,3.08-.46,4.41-1.05,2.06-.8,3.58-2.58,3.91-4.75.23-1.69-.16-3.42-.81-5-.14-.35-.31-.68-.47-1.02-.51-1.31-.59-1.77-.11-2.42.1-.15.19-.31.29-.43.32-.38,1.15-.13,1.88.89,1.11,1.48,1.77,3.31,2.05,5.3.26,1.97.06,4.25-1.11,6.24-.83,1.47-2.13,2.67-3.54,3.44-1.44.75-2.86,1.16-4.25,1.44l-.02-.07Z"/><path class="cls-4" d="m208.31,212.69c-5.1,5.41-9.81,11.21-13.87,17.43-1.5,2.26-2.78,4.64-4.07,7.01-1.14,2.08-2.15,4.23-3.04,6.41-.45,1.08-.84,2.2-1.19,3.29-.3,1.04-.5,2.13-.58,3.26-.3,4.52.88,9.23,2.46,13.68,1.44,3.97,3.3,7.83,5.4,11.49,1.37,2.34,2.79,4.65,4.29,6.92.75,1.13,1.51,2.25,2.29,3.36.41.53.76,1.12,1.12,1.7.36.58.74,1.14,1.13,1.7.96,1.39.76,1.32-.56.56-.66-.38-1.57-.97-2.67-1.72-1.03-.8-2.06-1.89-3.06-3.16-3.53-4.5-6.46-9.43-8.89-14.65-1.23-2.6-2.23-5.33-3.04-8.13-.78-2.81-1.37-5.72-1.49-8.72-.08-1.79,0-3.64.36-5.48.18-.92.44-1.87.73-2.68.27-.85.58-1.69.91-2.52,1.29-3.32,2.87-6.51,4.63-9.54,3.89-6.66,8.54-12.81,13.6-18.56,3.12-3.53,6.42-6.91,9.86-10.12,5.22-4.86,10.88-9.29,16.78-13.21,4.59-3.05,9.26-5.82,14.25-8.1,1.09-.53,2.18-.97,3.32-1.43,1.04-.44,1.95-.69,2.7-.93.76-.22,1.36-.4,1.9-.45,1.06-.11,1.71-.02,2.27.22.25.11.57.19.74.32.54.42-1.06,1.41-4.02,2.58-8.81,3.47-17.51,8.45-25.5,14.53-5.95,4.48-11.53,9.55-16.67,15.01l-.06-.04Z"/><path class="cls-4" d="m195.3,112.61c.61-.57,1.3-1.1,2.18-1.51.85-.41,2.06-.67,3.19-.3.8.24,1.56.73,2,1.35.76,1.12.88,2.26.93,3.29.01,1.05-.08,1.98-.22,2.95-.13.85-.21,1.7-.44,2.51-.26,1.05-.61,2.08-1.18,3-.18.29-.31.18-.41-.15-.09-.33-.22-.9-.17-1.48.14-2.08.25-4.02.27-6.03,0-.56-.11-1.13-.32-1.6-.22-.48-.5-.84-.73-1.06-.27-.24-.6-.36-1.03-.3-.44.06-.97.33-1.47.71-.62.44-1.23,1.07-1.83,1.71-.89.96-1.75,1.98-2.44,3.09-.53.87-.87,1.82-1.31,2.71-.09.2-.16.41-.26.6-.36.73-.7.86-1.26.81-.13-.01-.27-.01-.39-.04-.4-.09-.6-.56-.54-1.24.18-.97.42-1.97.83-2.89.44-.91.98-1.79,1.57-2.64.89-1.26,1.88-2.39,2.99-3.53l.05.05Z"/><path class="cls-4" d="m213.1,278.85c2.32-1.74,4.8-3.16,7.34-4.44.93-.46,1.83-.97,2.79-1.37,1.69-.71,3.44-1.29,5.26-1.73.91-.22,1.85-.38,2.84-.44h.76s.81.07.81.07c.29.07.58.16.86.26.28.12.57.33.83.51.21.21.4.45.58.69.13.25.23.52.33.79.06.26.08.52.11.77,0,.25-.02.48-.03.72-.12.92-.37,1.76-.72,2.53-.45.98-.97,1.92-1.65,2.74-.7.8-1.52,1.51-2.44,2.04-.58.33-.6.09-.36-.45.26-.52.59-1.5,1.05-2.46.4-.87.88-1.66,1.16-2.52.29-.83.46-1.72.39-2.31,0-.15-.07-.22-.05-.34-.05-.02,0-.14-.05-.12,0,0,0-.02,0-.05-.03,0-.04-.01-.06-.03.01-.06-.16-.06-.24-.12-.5-.18-1.51-.12-2.42,0-2.29.31-4.6,1.42-6.84,2.42-2.47,1.13-4.89,2.42-7.14,3.94-1.38.94-2.73,1.94-3.94,3.08-1.8,1.7-3.57,3.69-4.25,5.91-.24.84-.22,1.73.2,2.14.32.38,1.23.76,1.91.75.32.01.64-.05,1.01-.11.69-.14,1.25-.18,1.65-.11.42.12.68.29.91.53.1.11.23.2.29.3.11.17.01.36-.23.62-.25.26-.61.63-1.19.85-.83.36-1.94.65-3.22.49-.63-.09-1.23-.29-1.76-.55-.24-.1-.59-.35-.89-.58-.32-.22-.55-.59-.8-.9-.19-.34-.37-.73-.47-1.09-.07-.35-.17-.75-.15-1.08-.02-.7.09-1.31.23-1.9.31-1.16.83-2.1,1.37-3.01.83-1.33,1.82-2.48,2.86-3.54,1.04-1.07,2.16-2.03,3.32-2.92l.04.05Z"/><path class="cls-4" d="m255.62,257.77c-.16-.31-.18-.46-.11-.52.04-.03.04-.13.06-.19.01-.05.01-.12.05-.14.11-.05.15-.19.17-.37.02-.34.97-.99,1.08-1.04.14-.11.59-.39.58-.57-.01-.19.4-.37.42-.56,0-.08.05-.1.1-.12.21-.06.06-.7.25-.78.12-.05.21-.16.3-.25.02-.02.03-.08.06-.08.37-.03.47-.53.79-.66.06-.02.14-.04.21-.05.04-.01.1,0,.12-.05.09-.33.39-.27.67-.26.04,0,.1.05.1-.01,0-.38.3-.18.41-.35.04-.05.11-.04.16-.05.04,0,.11.03.13-.03.09-.25.32-.23.46-.38,0,0,.03,0,.03-.03.04-.41.37-.19.66-.04.18.09.34.15.31-.22,0-.07,0-.13.04-.1.21.16.3.07.44.07,0,0,.03.04.04.05.04.04.55,1.21.66,1.47.1.26,1.31,3.36,1.35,3.45.02.08.05.19.04.22-.02.09.02.28.2.79.1.27.1.34.05.3-.35-.3-.44,0-.7-.08-.11-.03-.16.08-.24.11-.42.13-.84.27-1.26.42-.07.03-.17.01-.3-.07-.12-.08-.21-.08-.28-.06-.12.04-.21.15-.32.2-.16.07-.36.09-.54.13-.31.07-.62.14-.93.2-.01,0-.03-.01-.03.01.03.4-.62.41-.65.44-.15.07-.29.16-.46.2-.17.04-.29.16-.48.17-.17,0-.28.11-.42.16-.02,0-.03.03-.06.03-.3-.02-1.29.29-1.39.36-.03.01-.08-.02-.18-.11-.09-.08-.14-.1-.23-.17-.08-.07-.2-.2-.27-.25-.07-.06-.11-.05-.17-.08-.06-.03-.18-.17-.3-.32-.12-.16-.52-.68-.63-.83Z"/><path class="cls-4" d="m199.08,256.79c.2-.16.3-.21.34-.18.02.02.08,0,.13-.01.03,0,.08-.02.09,0,.04.05.13.04.25,0,.21-.07.7.23.74.27.08.04.3.18.41.1.12-.09.27.06.39-.02.05-.03.07-.02.08,0,.06.09.42-.32.49-.27.04.04.12.02.18.02.01,0,.05-.03.05-.01.07.19.31.05.41.16.02.03.04.06.06.09.01.02.01.06.05.03.18-.14.2.05.25.2,0,.02,0,.08.03.04.17-.23.14.05.25,0,.03-.02.04.03.06.05.01.02.01.07.04.05.13-.12.16.06.25.05,0,0,0,.01.02,0,.16-.2.15.11.17.36.02.14.04.28.14.11.02-.03.04-.05.04,0,0,.23.05.26.08.36,0,0,0,.04,0,.05,0,.04-.19.85-.23,1.02-.04.16-.6,2.24-.64,2.31-.03.06-.06.13-.07.15-.05.06-.12.19-.25.56-.07.2-.11.25-.12.23-.06-.1-.16-.07-.25-.07-.09-.01-.18,0-.25-.07-.06-.06-.15,0-.23-.01-.38-.02-.7-.25-1.03-.41-.06-.03-.1-.09-.12-.22-.01-.12-.05-.18-.1-.21-.09-.05-.2-.05-.29-.1-.13-.07-.25-.15-.36-.24-.21-.12-.34-.38-.51-.56,0,0,0-.03-.02-.02-.27.18-.49-.32-.51-.34-.09-.09-.19-.17-.26-.3-.07-.12-.19-.18-.23-.33-.04-.13-.13-.19-.2-.28-.01-.01-.03-.01-.03-.04-.04-.24-.38-.94-.42-1.02-.01-.02.01-.07.06-.15.04-.08.06-.11.1-.19.04-.06.12-.17.16-.23.03-.06.03-.08.05-.13.02-.05.1-.15.2-.25.1-.11.43-.45.53-.55Z"/><g class="cls-2"><path class="cls-4" d="m279.4,303.93c.38-.39.54-.52.57-.48.02.02.11-.04.16-.06.04-.02.11-.06.11-.03,0,.09.13.04.28-.05.29-.17.59.39.62.45.06.07.2.32.36.2.17-.13.24.14.4.04.07-.04.08-.02.08.02.01.15.59-.37.62-.25.02.08.1.08.16.11.01,0,.06-.02.06,0-.03.29.37.08.45.25.01.03.03.08.04.11,0,.02,0,.08.04.05.29-.16.24.08.19.33,0,.03-.05.11,0,.07.31-.23.12.13.24.11.04,0,.02.06.03.1,0,.03-.03.11.01.09.19-.08.16.1.28.12,0,0,0,.02.02,0,.32-.22.13.16,0,.46-.07.18-.12.33.17.09.05-.05.1-.08.08-.03-.12.24-.05.25-.05.35,0,0-.03.05-.04.06-.03.04-.91,1.1-1.1,1.33-.19.22-2.54,2.92-2.6,3-.07.06-.15.15-.17.17-.08.05-.23.19-.63.63-.21.23-.27.28-.25.23.17-.39-.11-.25-.1-.46,0-.09-.1-.04-.15-.07l-.61-.5s-.04-.09.03-.25c.07-.15.07-.22.05-.26-.04-.07-.13-.07-.18-.13-.07-.09-.11-.19-.16-.3-.08-.17-.16-.35-.24-.53,0,0,0-.03-.01-.01-.39.29-.42-.17-.44-.18-.07-.07-.16-.11-.2-.21-.04-.11-.16-.1-.16-.26,0-.13-.09-.15-.15-.21,0,0-.04,0-.03-.02.04-.26-.17-.87-.22-.92-.01-.01.04-.1.16-.25.1-.15.15-.21.25-.35.1-.13.27-.36.35-.47.08-.12.08-.14.14-.23.05-.09.24-.32.44-.55.22-.25.9-1.05,1.1-1.29Z"/></g><path class="cls-4" d="m235.91,360.76c-.13-.31-.15-.47-.08-.52.04-.03.04-.13.06-.19.02-.05.02-.12.06-.13.11-.05.16-.19.18-.37.03-.33.95-1.01,1.04-1.07.13-.11.56-.41.54-.6-.04-.21.39-.35.41-.53,0-.07.05-.09.1-.1.21-.05.04-.64.24-.71.12-.04.21-.15.3-.22.02-.02.03-.07.06-.07.37-.03.46-.47.76-.61.06-.02.13-.05.19-.07.04-.02.1,0,.11-.07.05-.32.34-.31.6-.33.03,0,.1.03.09-.03-.04-.35.26-.21.34-.38.03-.06.1-.05.15-.06.04-.01.11.01.13-.04.06-.23.29-.24.41-.39,0,0,.03,0,.02-.03,0-.35.33-.21.63-.13.18.05.34.07.27-.24-.01-.06-.02-.11.02-.09.22.1.3,0,.43-.02,0,0,.03.03.05.03.04.02.69.89.82,1.08.14.19,1.71,2.52,1.74,2.6.03.07.07.16.07.18,0,.09.05.25.29.65.13.21.13.28.09.26-.38-.13-.45.19-.72.23-.12.01-.15.14-.23.2-.41.3-.83.59-1.29.83-.08.04-.18.06-.33,0-.13-.05-.23-.03-.3,0-.13.07-.22.19-.34.27-.17.11-.36.2-.54.29-.31.15-.62.31-.93.46-.01,0-.03,0-.03.02.05.42-.61.59-.64.62-.15.11-.32.19-.51.25-.19.05-.32.19-.54.2-.19.01-.31.12-.47.18-.02,0-.03.04-.06.04-.33-.01-1.42.31-1.54.37-.03.01-.09-.02-.18-.11-.08-.08-.14-.1-.22-.17-.08-.07-.19-.2-.26-.26-.07-.06-.1-.05-.16-.08-.06-.03-.17-.17-.27-.32-.11-.16-.46-.68-.56-.83Z"/><path class="cls-4" d="m312.45,337.86c.26-.31.39-.41.44-.37.03.02.11-.02.17-.04.04,0,.1-.04.12-.01.05.09.18.05.32-.01.28-.13.93.43.99.49.11.07.41.33.55.23.15-.1.36.16.52.08.06-.03.09,0,.11.03.09.14.55-.3.65-.18.06.08.17.09.26.12.02,0,.06-.02.07,0,.09.31.45.19.61.4.03.04.06.09.09.13.02.03.02.08.07.07.26-.1.3.16.37.38,0,.03,0,.1.04.07.27-.19.21.13.36.13.05,0,.06.06.08.09.02.03.01.1.06.08.21-.07.25.13.37.19,0,0,0,.02.02.01.26-.14.2.24.19.53,0,.18,0,.33.22.16.04-.03.08-.05.07,0-.04.23.05.26.08.37,0,0-.01.04-.02.05,0,.04-.52.89-.64,1.07-.12.18-1.55,2.32-1.59,2.39-.05.05-.1.12-.13.13-.07.04-.19.15-.44.51-.14.19-.19.23-.19.19-.01-.32-.3-.2-.4-.37-.04-.07-.16-.03-.23-.06l-.28-.1-.23-.17-.47-.33c-.05-.04-.09-.11-.08-.25,0-.13-.02-.2-.07-.23-.09-.07-.21-.08-.3-.13-.13-.08-.24-.18-.36-.28-.21-.15-.37-.37-.54-.57,0,0,0-.03-.02-.02-.33.23-.57-.27-.6-.29-.11-.08-.24-.15-.32-.27-.09-.12-.24-.15-.3-.31-.05-.14-.18-.18-.27-.26-.01-.01-.04,0-.05-.03-.07-.26-.59-.94-.67-1.01-.02-.02,0-.09.07-.22.05-.12.07-.18.12-.3.05-.11.15-.3.19-.39.04-.1.03-.12.05-.2.02-.07.13-.26.25-.45.13-.2.55-.85.67-1.04Z"/><path class="cls-4" d="m274.83,220.62c.35.33.45.46.41.49-.03.02.03.1.04.14.01.04.05.09.01.1-.09,0-.06.12.01.25.13.25-.47.56-.52.6-.08.06-.33.22-.24.35.1.14-.17.23-.1.37.03.06,0,.07-.03.08-.13.03.24.47.11.51-.08.02-.1.09-.15.14-.01.01,0,.05-.02.05-.28,0-.18.31-.36.38-.04.01-.08.03-.12.04-.02,0-.07,0-.06.04.08.22-.15.2-.33.21-.02,0-.08-.03-.06.02.16.24-.12.14-.12.25,0,.04-.05.03-.08.05-.02.01-.08,0-.07.03.05.17-.1.17-.13.28,0,0-.01,0,0,.02.15.25-.15.16-.38.1-.14-.03-.26-.05-.09.17.03.04.06.08.02.06-.19-.07-.21,0-.29.02,0,0-.03-.02-.05-.02-.04-.02-.83-.63-1.01-.77-.17-.14-2.19-1.8-2.25-1.85-.05-.05-.11-.11-.12-.13-.03-.06-.13-.18-.46-.46-.17-.15-.2-.2-.16-.19.32.09.24-.14.42-.16.08,0,.05-.1.09-.14l.53-.63s.09-.05.21-.02c.11.03.16.01.19-.02.05-.06.06-.15.1-.21.07-.09.15-.16.23-.24.13-.12.27-.25.41-.38,0,0,.02,0,.01-.02-.25-.34.15-.46.16-.48.06-.08.09-.18.19-.24.09-.05.09-.18.22-.2.12-.02.13-.12.18-.19,0,0,0-.03.02-.04.22,0,.75-.33.8-.38.01-.01.09.03.22.12.13.08.19.12.32.2.12.08.32.22.42.29.11.07.13.06.21.1.08.04.28.2.49.37.23.18.94.76,1.15.93Z"/><g class="cls-2"><path class="cls-4" d="m224.97,211.82c.14-.14.22-.18.28-.16.03.01.09,0,.13-.01.03,0,.08-.02.1,0,.07.05.17.03.28,0,.2-.06.92.22.99.25.11.04.44.17.54.1.1-.07.36.05.46.01.04-.02.07,0,.1.02.11.1.37-.2.48-.12.07.05.15.06.23.08.02,0,.05-.01.06,0,.16.19.43.07.61.17.03.02.08.05.11.07.02.01.04.05.08.03.19-.1.29.05.41.17.02.02.02.06.05.03.16-.16.22.03.33.03.04,0,.06.05.09.07.02.02.04.07.07.07.14-.04.23.09.35.12,0,0,.01.01.02,0,.16-.12.23.13.32.32.05.12.11.21.23.08.02-.03.04-.04.05-.01.05.15.13.16.19.22,0,0,0,.03,0,.03,0,.03-.11.63-.13.76-.03.13-.42,1.67-.44,1.71-.02.04-.04.09-.06.1-.05.03-.11.12-.19.38-.05.14-.08.17-.1.15-.14-.19-.36-.08-.53-.17-.07-.04-.16,0-.24,0-.39-.04-.81-.04-1.15-.24-.06-.03-.12-.08-.16-.18-.04-.09-.09-.14-.15-.17-.1-.05-.21-.05-.31-.1-.14-.06-.28-.14-.42-.21-.23-.13-.46-.26-.68-.39,0,0-.01-.02-.02-.01-.24.16-.62-.17-.64-.21-.12-.08-.24-.14-.35-.25-.11-.11-.24-.15-.33-.28-.08-.11-.19-.16-.29-.24-.01-.01-.03-.01-.04-.03-.12-.21-.71-.81-.78-.88-.02-.02-.02-.06,0-.13.01-.07.02-.1.03-.16.01-.06.05-.15.06-.2,0-.05,0-.07,0-.11,0-.04.04-.13.09-.22.06-.1.24-.4.29-.48Z"/></g><g class="cls-2"><path class="cls-4" d="m294.73,367.07c.27-.21.4-.26.45-.2.03.03.11.01.16.02.04,0,.1,0,.11.03.04.1.16.11.31.1.26-.03.85.71.91.78.1.1.38.43.51.4.14-.04.34.27.48.25.06,0,.08.02.1.06.08.16.51-.08.61.07.06.09.15.14.24.2.02.02.06,0,.07.03.1.29.46.28.63.49.03.04.07.09.09.14.02.03.02.08.07.07.26-.02.31.21.38.41,0,.03,0,.08.04.07.27-.1.22.17.37.2.05.01.06.06.09.1.02.03.01.09.06.09.19.02.2.23.32.33,0,0,0,.02.02.02.25-.03.17.29.15.55-.01.16,0,.3.19.22.04-.01.07-.02.06.02-.04.19.03.25.07.36,0,0-.01.03-.02.04,0,.03-.5.6-.61.73-.11.12-1.47,1.53-1.52,1.56-.04.03-.1.07-.12.08-.07.01-.18.08-.43.31-.13.12-.19.14-.19.11-.02-.27-.3-.25-.41-.41-.05-.07-.16-.07-.24-.11-.17-.12-.41-.17-.52-.35l-.41-.48c-.05-.06-.08-.13-.06-.26.01-.12-.01-.19-.06-.24-.08-.09-.19-.14-.27-.23-.11-.12-.22-.25-.32-.39-.17-.22-.35-.45-.52-.67,0,0,0-.03-.02-.02-.32.1-.57-.39-.59-.42-.11-.1-.23-.19-.32-.32-.09-.13-.24-.19-.3-.35-.05-.14-.18-.2-.27-.29-.01-.01-.04-.01-.05-.04-.07-.24-.59-.98-.66-1.05-.02-.02,0-.08.07-.18.05-.1.08-.14.13-.24.06-.09.16-.23.2-.3.04-.08.03-.1.06-.17.02-.06.14-.2.27-.34.14-.15.58-.62.71-.76Z"/></g><g class="cls-1"><path class="cls-4" d="m355.38,91.9c-.42.96-1.17,1.33-1.88,1.53-.25.08-.53.16-.83.14-.52-.04-1.03-.32-1.33-.68-.31-.36-.46-.8-.5-1.2-.04-.36-.04-.71.02-1.06.07-.44.25-.96.74-1.16.15-.07.32.25.48.57.15.32.36.6.34.67-.13.29-.17.72-.12,1.07,0,.11.11.2.18.22.08.03.17.03.28.02.26,0,.55-.24.66-.45.07-.13.08-.23.05-.32-.02-.09-.16-.2-.42-.12-.09.03-.17.09-.21.18-.02.04-.02.09-.02.12,0,.02.01.04.02.05.01.02-.05-.06-.06-.06-.03-.04-.1-.08-.11-.09l-.04-.02h0s-.01,0,.01,0h.03s.01,0,.01,0h-.08c-.12-.02-.26-.02-.44-.02-.16,0-.32.02-.48.03-.51.06-1.04-.11-1.06-.73.01-.43.21-.85.47-1.17.26-.31.58-.54.91-.68.33-.15.67-.22,1.03-.23.36.04.71.12,1.07.31.53.25,1.04.77,1.28,1.38.24.6.2,1.2.02,1.71h-.05Z"/></g><path class="cls-4" d="m383.24,115.58c-1.07-.05-2.02-.69-2.47-1.58-.17-.31-.31-.67-.34-.97-.09-1.09.37-2.13,1.07-2.7.3-.26.58-.5.88-.7.38-.26.79-.49,1.26-.47.15,0,.21.26.21.57,0,.3-.03.67-.16.81-.52.5-.7.99-1.01,1.29-.23.22-.1.58-.03.78,0,.19.11.43.35.54.14.07.33.1.5.05.25-.08.39-.19.32-.37-.06-.16-.37-.24-.46-.14-.03.07.01-.04.02-.08.02-.11.01-.11.01-.11-.01-.04-.02-.08-.04-.14-.03-.1-.08-.21-.14-.35-.06-.13-.13-.25-.19-.36-.23-.37-.23-.89.35-1.14.88-.27,1.71.17,2.21.72.26.29.46.65.57,1.08.11.43.11.95-.05,1.44-.24.71-.73,1.21-1.27,1.51-.5.27-1.04.39-1.59.39v-.06Z"/><g class="cls-1"><path class="cls-4" d="m418.3,112.96c-.38.44-.96.74-1.59.77l-.26.02c-.14-.03-.27-.06-.4-.1-.22-.08-.44-.13-.62-.27-.58-.51-.79-1.12-.77-1.68,0-.24-.01-.48,0-.72.01-.3.11-.69.47-.81.11-.04.34.22.59.47.13.13.26.25.38.33.06.04.12.08.16.1.01,0,.03.01.03.01.23.09.39-.03.19.17-.05.06-.04.1-.02.1,0,0,.02,0,.02,0,0,0-.03.04-.03.07-.02.05-.01.05-.02.04l-.14.25s-.05-.12-.09-.15c-.06-.05.05.02.05,0,.02,0,.11,0,.13,0-.04.01-.05.02-.06.02-.02,0-.06.04-.1.09-.02.04,0-.01,0-.04,0-.02,0-.04,0-.06,0-.04,0-.06,0-.07,0,0,0,0,0-.01-.03-.09-.06-.2-.11-.34l-.17-.46c-.22-.5-.26-1,.06-1.2.92-.57,2.16-.1,2.67,1.06.39.92.1,1.86-.35,2.43l-.05-.03Z"/></g><path class="cls-4" d="m121.02,122.7c-.08-.02-.26.02-.27.03.06-.02.09-.08.11-.14.01-.03-.02-.02,0-.06.03-.07.05-.11.05-.14,0,.02,0-.05-.02-.09-.04-.08-.18-.12-.32-.06-.12.05-.19.17-.22.29-.03.17.04.24-.08.42-.04.06-.34.27-.7.36-.36.1-.85-.03-.93-.35-.25-1.1.33-2.24,1.51-2.52.67-.16,1.49-.12,2.01.3.56.45.86,1.06.89,1.75.02.42-.1.88-.36,1.25-.39.59-1.02.8-1.56.93-.43.1-.93.21-1.49.05-.12-.04-.26-.06-.37-.14-.42-.3-.36-.62.24-1.08.14-.11.28-.21.42-.3.25-.15.49-.28.68-.39.13-.08.1-.07.1-.07,0,0,.01-.01.02-.02.06-.04.15-.24.16-.33.01-.1-.01-.04.04.11.04.1.12.21.15.23.02.01.01,0-.1-.02h0Z"/><g class="cls-1"><path class="cls-4" d="m153.42,146.05s-.12.07-.17.12c-.03.02-.05.05-.08.08-.02.02.01-.01,0-.02.02-.05,0-.11-.03-.16,0-.02-.02,0-.02-.01,0,.04,0-.1-.01-.13-.02-.11-.04-.15-.05-.17-.01-.02,0,0,0,0h0s0,0,0,0h0s0,0,0,0h0s0,0,0,0h0l-.05-.05h0s-.03-.03-.02-.02c.06.03,0,0-.05.03-.05.02-.08.08-.11.16-.05.14,0,.3.08.41.14.14.17.16.33.36.05.07.16.38.09.74-.04.36-.42.8-.85.72-.73-.14-1.29-.6-1.61-1.16-.35-.55-.34-1.35.04-2.05.24-.41.56-.77.93-1.03.37-.27.83-.41,1.23-.38.89.06,1.57.49,2.04,1.15.29.41.44.98.37,1.48-.09.8-.62,1.33-1.11,1.7-.39.27-.8.68-1.41.73-.13.02-.26.04-.4.02-.51-.09-.61-.39-.37-.99.05-.14.11-.28.18-.41.24-.43.51-.77.57-.95.05-.13.06-.24.05-.31,0-.09-.02-.17-.04-.22-.04-.1-.01.01.15.15.11.1.26.16.29.16.02,0,0,0,0,0h0s0,0,0,0h.09s0,0,0,0h0s0,0,0,0h0s0,0-.03,0l-.06.03h0Z"/></g><path class="cls-4" d="m107.36,141.1c-.13.65-.5,1.27-1.1,1.64l-.35.21h-.1s-.22,0-.22,0c-.2,0-.4.03-.59-.02-.68-.16-1.21-.53-1.63-.95-.2-.19-.37-.36-.56-.54-.23-.23-.5-.52-.44-.9.02-.12.39-.2.78-.27.38-.06.77-.15.82-.1.21.2.39.39.62.71.15.2.4.16.59.16.08,0,.15,0,.23,0l-.36.17s.07-.02.11-.1c.04-.07.06-.16.04-.24-.02-.1-.04-.19-.18-.18-.11.01-.2.24-.14.37,0,.02-.02-.03-.03-.05-.03-.04-.05-.06-.06-.07-.01-.02-.23-.21-.49-.39l-.38-.26c-.43-.27-.72-.66-.56-1.05.21-.59.78-.88,1.33-.98.56-.08,1.19.05,1.74.44.41.29.72.72.87,1.15.15.43.18.85.13,1.25h-.06Z"/><path class="cls-4" d="m369.9,149.51c-.71.88-1.66,1.08-2.51,1.02-.31-.02-.65-.04-.96-.18-.56-.24-1-.78-1.17-1.29-.19-.52-.18-1.04-.06-1.47.12-.39.27-.73.49-1.04.26-.39.68-.75,1.18-.76.16,0,.18.21.18.46-.01.25.02.56,0,.7-.09.23-.08.47-.08.67.05.2-.02.33-.06.47-.03.09.02.17.08.18.06.01.11.02.19.05.19.08.5.02.71-.06.13-.06.23-.12.28-.24.07-.12.01-.42-.28-.58-.22-.11-.51-.01-.58.1-.02.02-.02.06-.02.07,0,.02-.04-.04-.12-.11-.08-.07-.22-.18-.43-.33l-.3-.2c-.32-.2-.52-.57-.24-.99.44-.59,1.23-.76,1.85-.68.65.08,1.24.37,1.73.91.36.39.64.98.67,1.63.03.64-.18,1.23-.52,1.69l-.05-.03Z"/><path class="cls-4" d="m150.7,204.64c.26.82.14,1.73-.26,2.44-.16.25-.27.53-.51.73-.3.26-.66.43-1.02.52-.61.14-1.26-.03-1.67-.29-.31-.18-.58-.4-.81-.65-.15-.16-.29-.35-.38-.56-.07-.22-.06-.48.03-.7.06-.14.3-.1.6-.05.29.07.67.07.79.07.25.14.53.16.62.44.04.05.08.07.13.06.1,0,.16-.08.23-.14.13-.09.25-.27.28-.5.02-.14,0-.3-.08-.43-.11-.2-.35-.36-.59-.32-.19.02-.32.3-.29.47,0,.04.03.09.02.09-.03,0-.19-.13-.79-.44l-.41-.2c-.46-.21-.79-.57-.69-1.01.1-.69.69-1.07,1.24-1.27.14-.05.29-.09.43-.11l.11-.02s.03-.03.06.02h.06s.22-.01.22-.01h.45c.15.02.3.04.44.09.87.25,1.56.94,1.86,1.75l-.05.03Z"/><path class="cls-4" d="m370.48,185.28c.06.22-.23.3-.7.31-.15,0-.57-.13-.61-.2-.09-.14-.18-.28-.23-.41-.03-.08,0-1.18-.03-1.57-.02-.37.03-.72.1-1.07l.38-2.12c.03-.16.09-.3.18-.44.31-.47.46-.99.55-1.53.01-.09.05-.17-.02-.29-.12-.19.23-1.62.36-1.78.31-.4.55-.82.83-1.23.04-.06.02-.14.16-.16.32-.05.31-.21.38-.34.1-.18.21-.36.36-.53.08-.08.27-.13.43-.18.14-.05.55.12.58.17.11.13.33.12.5.16.06.01.14.03.18.05.09.04.55,1.4.48,1.51,0,.01-.08.44-.17.89-.08.45-.17.92-.17,1.02,0,.1-.1.18-.17.27-.03.04-.25,1.4-.28,1.45-.12.26-.12.56-.44.75-.06.04-.07.1-.08.15-.12.47-.36.91-.59,1.34-.12.22-.17.47-.27.7-.02.04-.06.07-.09.11-.04.05-.09.09-.1.15-.19.56-.5,1.08-.62,1.65-.03.13-.47.67-.5.83-.02.09-.41.26-.39.35Z"/><path class="cls-4" d="m380.12,194.66c-.13.19-.29-.14-.48-.77-.06-.2-.13-.82-.09-.91.07-.18.14-.36.23-.49.05-.08.93-.53,1.24-.7.3-.17.61-.23.92-.27.63-.07,1.26-.16,1.9-.19.14,0,.28.02.42.09.47.25.94.31,1.42.29.08,0,.16.03.25-.09.15-.2,1.46-.02,1.61.11.37.32.74.56,1.1.84.05.04.12.01.14.16.04.36.17.33.29.39.16.08.31.18.45.33.07.08.1.28.14.45.03.15-.14.61-.18.66-.11.13-.12.37-.17.57-.02.07-.04.15-.06.21-.05.11-1.15.72-1.23.7-.02-.02-1.35.03-1.5.07-.08.02-.14-.07-.21-.13-.03-.04-1.08.09-1.12.08-.2-.07-.42.04-.6-.28-.04-.06-.08-.05-.12-.05-.37.03-.72-.15-1.08-.26-.19-.06-.37-.03-.56-.06-.03,0-.07-.05-.1-.07-.04-.03-.09-.07-.13-.07-.45,0-.9-.17-1.35-.06-.1.02-.62-.28-.74-.24-.06.02-.33-.41-.38-.33Z"/></svg>