<?xml version="1.0" encoding="UTF-8"?><svg id="Layer_1" xmlns="http://www.w3.org/2000/svg" width="520" height="520" viewBox="0 0 520 520"><defs><style>.cls-1,.cls-2,.cls-3,.cls-4{fill:#231f20;}.cls-2{opacity:.3;}.cls-3{opacity:.45;}.cls-4{opacity:.35;}</style></defs><path class="cls-1" d="m310.27,384.21s-5.62-4.89-24.96-3.32c-8.29.67-10.78.2-6.16-1.3,5.89-1.91,18.79-3.8,22.7-3.99,6.97-.35,9.49,5.3,9.49,5.3l-1.06,3.32Z"/><path class="cls-1" d="m394.65,370.7c-5.63,0-16.64,1.93-25.91,4.89-8.38,2.68-15.35,6.42-15.35,6.42,0,0-.98-5.18,8.88-8.32,9.86-3.14,32.38-3,32.38-3Z"/><path class="cls-1" d="m481.57,352.12c1.41.04,2.82.05,4.25.03.52,0,1.03-.09,1.56-.09,1.84.02,3.7,0,5.56.13.82.03,1.65.05,2.47.05,1.06,0,2.12.16,3.14.52.32.11.24.35-.07.62-.31.26-.84.63-1.41.71-1.03.21-2.04.24-3.07.28-1.03.05-2.06.1-3.12.01-1.27-.08-2.57.17-3.86.27-1.43.11-2.86.19-4.31.26l-2.67.09c-1.35.05-2.72,0-4.08.04-1.06,0-2.12.23-3.2.19-.24,0-.47.04-.71,0-.89-.13-1.13-.4-1.13-1.25,0-.19-.01-.39,0-.58.06-.64.51-1.1,1.1-1.21,1.77-.38,3.5-.25,5.36-.21,1.37.03,2.77.08,4.18.06v.07Z"/><path class="cls-1" d="m36.4,359.32l5.98.09c.73.02,1.46-.03,2.19,0,2.57.09,5.15.2,7.72.24,1.14,0,2.29,0,3.42-.02.73,0,1.45-.06,2.18-.03.73.04,1.46.12,2.19.21.46.06.4.22.02.46-.38.23-1.07.63-1.9.83-1.48.28-2.96.36-4.44.49-1.49.05-2.98.05-4.47,0-1.79-.07-3.65.12-5.48.18-2.01.07-4.02.04-6.05.04l-3.74-.04c-1.89-.03-3.79-.15-5.68-.25-1.46-.08-2.92-.06-4.39-.19-.32-.03-.65-.03-.97-.08-.61-.07-.97-.29-1.22-.47-.24-.2-.35-.44-.4-.76-.02-.15-.06-.3-.06-.44,0-.46.56-.74,1.43-.81,2.52,0,5.07.27,7.72.36,1.96.08,3.94.14,5.94.14v.06Z"/><path class="cls-2" d="m315.89,229.14s1.52,22.29,12.6,23.17c11.07.89,18.01-6.43,19.84-10.27,1.83-3.84,2.85-9.01,2.85-9.01l-26.11-10.45s-5.68-1.04-8.15,3.05c-.85,1.4-1.03,3.51-1.03,3.51Z"/><path class="cls-2" d="m360.67,241.08s2.74-2.9,10.65-1.67c7.91,1.23,13.83,6.35,13.23,8.08-.6,1.72-7.79,14.79-10.53,14.73s-12.1-2.76-12.1-2.76l-1.25-18.38Z"/><path class="cls-1" d="m404.71,242.16c-.45.24-.91.5-1.33.79-.16.1-.26.26-.42.37-.56.37-1.13.74-1.65,1.18-.23.19-.4.44-.56.68-.27.27-.41.63-.96.71-.16.03-.36-.12-.58-.41-.11-.14-.24-.32-.35-.52-.13-.2-.2-.39-.16-.5.06-.21.12-.43.2-.63.09-.19.25-.33.39-.49.29-.3.62-.57,1.01-.79.46-.26.72-.72,1.1-1.06.42-.37.86-.72,1.31-1.05.28-.2.56-.4.84-.6.42-.3.88-.56,1.26-.9.3-.26.5-.65.76-.98.06-.07.1-.17.16-.23.3-.15.5-.03.91.48l.28.35c.29.39.41.82.36,1.14-.07.48-.31.71-.53.98-.23.25-.49.46-.76.67-.4.3-.82.58-1.25.85l-.04-.05Z"/><path class="cls-1" d="m430.57,296.56c-4.52-3.69-40.9-.34-29.36-.61,11.54-.27,14.53,2.56,14.53,2.56l14.83-1.96Z"/><path class="cls-2" d="m122.27,300.61c-20.02,4.31-12.79-9.3-10.02-9.43,0,0-19.93,11.9-23.89,16.98s-7.72,10.02-2.87,8.26,36.78-15.81,36.78-15.81Z"/><path class="cls-1" d="m316.82,331.59s3.48,6.55,3.53,10.5c.04,3.35-.6,4.93-.93,4.66-.75-.63,9.06,3.96,9.06,3.96l-11.67-19.12Z"/><path class="cls-1" d="m328.49,349.2c.16-.75-3.6-16.07-7.44-20.52-3.12-3.62-2.65,3.08-2.65,3.08l10.09,17.43Z"/><path class="cls-1" d="m409.52,257.71c-.51.61-.99,1.25-1.39,1.93-.15.25-.24.52-.38.78-.49.9-.94,1.83-1.27,2.82-.14.44-.21.9-.25,1.35-.09.58-.14,1.17-.27,1.77-.04.19-.2.18-.4.03-.2-.15-.5-.44-.6-.82-.08-.33-.15-.67-.2-1-.03-.34,0-.67.03-1.01.07-.67.23-1.33.48-1.95.34-.73.53-1.53.88-2.27.38-.8.84-1.56,1.34-2.29.3-.45.63-.88.95-1.3.49-.65,1.03-1.25,1.53-1.88.38-.49.68-1.04,1.03-1.55.08-.11.14-.24.23-.34.2-.16.36-.24.53-.23.2.03.37.11.56.23.09.05.18.1.25.15.12.09.19.21.25.39.05.18.12.44.05.62-.05.32-.19.55-.33.78-.14.23-.29.46-.44.68-.31.44-.65.86-.99,1.28-.52.61-1.06,1.21-1.53,1.85l-.04-.03Z"/><path class="cls-1" d="m417,273.78c-.8.01-1.6-.02-2.4-.09-.29-.02-.59.02-.88-.05-.51-.12-1.01-.24-1.55-.43-.53-.17-1.09-.5-1.52-.88-.39-.34-.72-.69-1-1.05-.18-.23-.36-.46-.5-.71-.17-.23-.16-.56-.22-.85-.02-.19.1-.24.36-.23.13,0,.3.02.49.04.09.01.19.02.29.04.05,0,.09.02.14.03.03.02.06.04.09.07.37.37.73.69,1.06.92.34.24.59.36.97.55.46.25,1.16.16,1.78.19.69.07,1.41.11,2.13.1.44,0,.89-.02,1.34-.06.67-.07,1.37-.13,2.03-.29.52-.13.99-.4,1.48-.61.11-.05.21-.1.33-.13.42-.1.6.02.82.54.05.12.11.24.15.36.14.4.06.8-.22,1.04-.81.72-1.8,1-2.82,1.26-.76.18-1.56.23-2.36.3v-.06Z"/><path class="cls-1" d="m247.07,285.53c-.6-.98-.99-1.98-1.36-2.95-.14-.35-.32-.68-.45-1.04-.45-1.25-.86-2.52-1.28-3.77-.17-.56-.43-1.09-.58-1.65-.22-.71-.41-1.44-.53-2.18-.04-.23.03-.22.19-.07.16.15.46.42.7.79l.62.97c.1.16.21.32.3.48l.22.51c.3.69.58,1.38.83,2.09.3.86.79,1.66,1.21,2.48.46.91.91,1.81,1.4,2.64.31.51.64.99,1.03,1.41.59.63,1.28,1.15,2.09,1.33.63.14,1.26-.02,1.76-.2.11-.04.21-.11.31-.15.39-.13.56-.1.99.23.1.07.2.14.29.21.3.23.34.7-.08,1.16-.63.66-1.57,1.03-2.48,1.05-.91,0-1.8-.26-2.59-.7-1.2-.68-1.99-1.65-2.63-2.61l.04-.03Z"/><path class="cls-2" d="m310.01,374.98c-18.07-1.32-164.53,37.45-164.53,37.45l-83.56-30.41s-15.44-6.84-6.56-10.47c8.88-3.63,16.77-1.14,16.77-1.14,0,0-6,1.07,2.59,5.93,8.59,4.86,65.81,26.61,79.02,22.33,13.21-4.29,71.4-23.37,105.34-28.26,33.94-4.89,58.28-8.31,59.31-.83,1.03,7.48,19.34,9.04,24.17,5.6,4.83-3.44,14.37-11.88,21.57-13.19,7.2-1.31,73.31-2.65,92.71,0,19.4,2.65,26.72,7.74,26.35,9.43-.36,1.69-82.07-1.32-82.07-1.32l-38.86,3.6s-4.49.15-13.5,10.41c-9.01,10.26-35.95-.1-37.43-3.22s-1.32-5.91-1.32-5.91Z"/><path class="cls-1" d="m143.21,408.41c-24.52-4.82-88.55-27.07-85.62-33.08,2.26-4.64,7.8-5.21,8.93-5.64,0,0-2.57-1.43-8.7,1-6.13,2.43-9.54,1.38-8.88,4.48s6.22,7.04,10.47,8.97,32.76,12.86,32.76,12.86l42.36,13.98,9.42,3.06-.73-5.63Z"/><path class="cls-1" d="m305.57,375.17c-114.52,10.41-145.15,40.56-161.35,31.24l1.72,8.17,61.59-18.32,63.81-15.38,34.24-5.71Z"/><path class="cls-1" d="m149.82,400.21s-5.88,7.76,0,9.68c6.35,2.07-6.61,2.7-6.61,2.7,0,0-.28-13.93,6.61-12.38Z"/><path class="cls-1" d="m348.76,384.11c-22.38,4.32-39.02-2.38-38.75-9.13,0,0-1.8,4.39,3.95,8.29,5.75,3.9,20.31,4.52,20.31,4.52l14.49-3.68Z"/><path class="cls-1" d="m321.21,371.52c.63.62,1.6,1.17,2.63,1.58.37.16.79.2,1.18.34,1.39.49,2.87.85,4.38,1.11.67.13,1.35.12,2.02.13.43.02.86,0,1.28.01l.63.02c.2,0,.44.11.64.14.27.07.33.19.2.57-.07.2-.19.44-.37.74-.18.25-.43.45-.69.55-.96.35-1.93.64-2.89.61-.48.01-.96,0-1.44-.05-.48-.08-.95-.19-1.42-.33-1.12-.33-2.32-.37-3.48-.68-1.27-.35-2.53-.83-3.73-1.55-.73-.46-1.44-1.02-2.04-1.76-.47-.54-.78-1.27-.95-1.99-.11-.74-.12-1.49.04-2.15.19-1.04.43-2.05.86-2.95.09-.2.15-.42.28-.6.47-.64.82-.69,1.59-.25.17.1.35.19.52.3.55.38.8.97.7,1.47-.15.77-.35,1.41-.51,1.98-.12.56-.19,1-.16,1.27.02.2.05.36.14.61.12.24.35.53.67.81l-.05.07Z"/><path class="cls-1" d="m296.27,363.63h6.77c.83.01,1.65-.07,2.48-.05,2.92.08,5.84.16,8.82.57.66.1,1.33.2,2.02.35.35.08.69.17,1.07.31.44.18.89.42,1.2.79.21.23.34.52.4.83.08.29.1.65.13.81.03.41.13.83.08,1.27-.07.87-.24,1.77-.51,2.63-.22.54-.44.34-.67-.12-.14-.29-.29-.59-.43-.88-.19-.34-.47-.72-.67-1.13-.08-.18-.19-.36-.26-.55l-.15-.58-.13-.47s0-.01,0-.03c0,0,.03,0-.02-.03-.23-.09-.56-.17-.9-.25-.7-.15-1.48-.25-2.28-.35-.81-.11-1.62-.22-2.44-.33-1.98-.26-4.07-.1-6.12-.09l-6.8.03-4.2.03c-2.12.02-4.25,0-6.36.05-1.64.05-3.24.22-4.88.29-.36.02-.71.04-1.07.03-1.34-.04-1.77-.24-2.02-.87-.06-.14-.14-.29-.17-.43-.1-.48.46-.84,1.42-.98,2.86-.45,5.85-.56,8.89-.71,2.25-.09,4.52-.19,6.79-.22v.07Z"/><path class="cls-1" d="m413.12,359.87s66.04,4.11,66.04,10.82c0,0-20.33,1.27-24.55.71s31.37,1.9,31.37,1.9c0,0,3.57-2.91,0-5.12-7.31-4.52-17.76-4.37-17.76-4.37l-55.1-3.95Z"/><path class="cls-1" d="m444.73,328.11c-2.7.15-5.4.44-8.1.8-.98.15-1.95.38-2.93.53-3.45.56-6.91,1.2-10.32,2.06-1.52.37-3.01.84-4.48,1.32-.94.31-1.89.61-2.83.95-.47.15-.94.33-1.43.44l-.74.14c-.25.05-.56-.08-.81-.03-.62.11-.59-.04-.18-.45.37-.51,1.01-1.6,2.12-1.98.95-.41,1.91-.77,2.88-1.13.97-.35,1.93-.73,2.93-.99,1.99-.56,4-1.07,6.05-1.43,1.22-.24,2.45-.52,3.7-.8,1.24-.31,2.48-.6,3.73-.82,2.74-.53,5.51-.91,8.29-1.22,1.71-.19,3.43-.33,5.14-.43,2.6-.17,5.22-.19,7.82-.18,1.01-.02,2.01,0,3.02-.03,1.01,0,2.02.02,3.04.08.45.04.89.06,1.35.12,1.68.24,2.17.67,2.28,1.54.02.2.07.41.06.61-.05.66-.82,1.02-1.93.92-3.34-.2-6.9-.32-10.52-.31-2.69.03-5.41.12-8.13.35v-.07Z"/><path class="cls-1" d="m449.84,335.49c-2.27.02-4.55.09-6.83.25-.83.06-1.66.19-2.49.25-2.93.23-5.88.49-8.81.85-1.3.14-2.61.35-3.89.56l-2.47.42c-.83.1-1.68.14-2.52.17-.53,0-.49-.21-.11-.55.39-.34,1.12-.88,2.04-1.2,3.33-.79,6.69-1.5,10.15-1.75,2.06-.17,4.18-.59,6.29-.83,2.32-.26,4.64-.47,6.98-.59,1.43-.1,2.88-.1,4.31-.16,2.19-.01,4.38.05,6.56.19.85.05,1.69.05,2.54.12.85.05,1.7.08,2.56.24.38.06.75.09,1.13.16,1.4.37,1.78.74,1.77,1.54,0,.19.02.38-.02.55-.11.59-.81.88-1.72.74-2.74-.37-5.65-.66-8.67-.8-2.23-.12-4.52-.13-6.8-.1v-.06Z"/><path class="cls-1" d="m460.82,344.46c-.83-.04-1.7-.04-2.56-.01-.32,0-.63.07-.94.07-1.13,0-2.26-.02-3.39.01-.5.01-1,.09-1.49.14-.32.03-.63.07-.95.08-.32.02-.64,0-.97-.13-.21-.08-.2-.25-.06-.54.07-.14.17-.33.29-.52.12-.17.28-.29.45-.34,1.24-.43,2.5-.56,3.8-.56.78.02,1.56-.23,2.35-.34.87-.13,1.75-.18,2.65-.24.55-.03,1.1-.05,1.66-.06.84-.03,1.7.04,2.56.07.66.03,1.36-.08,2.06,0,.15.02.31.02.46.05.54.17.65.42.51,1.1-.03.16-.06.31-.1.46-.15.51-.5.85-.87.92-.27.04-.54.1-.8.13-.25,0-.5,0-.74-.01l-1.5-.12c-.77-.05-1.57-.12-2.41-.09v-.06Z"/><path class="cls-1" d="m466.12,334.98c.27,1.24.49,2.5.84,3.73l.48,1.85.56,1.83c.25.9.67,1.74.97,2.62,1.11,3.1,2.43,6.15,4,9.08.68,1.31,1.47,2.57,2.28,3.79.54.77,1.02,1.59,1.51,2.4.48.82.88,1.71,1.35,2.55.27.54.22.48-.2.17-.21-.15-.52-.36-.92-.61-.39-.24-.88-.51-1.34-.86-.74-.67-1.4-1.41-2.07-2.16-.62-.77-1.17-1.6-1.73-2.42-1.13-1.64-2.11-3.38-2.85-5.25-.23-.55-.49-1.1-.75-1.65-.25-.55-.5-1.11-.76-1.67-.54-1.1-1.01-2.24-1.46-3.38-.5-1.25-.87-2.54-1.3-3.82-.34-1.3-.73-2.59-.99-3.9-.17-.81-.35-1.61-.5-2.42l-.4-2.44c-.2-1.23-.31-2.48-.47-3.71-.1-1.24-.21-2.48-.31-3.71-.06-.96-.16-1.9-.27-2.85l-.21-2.84c-.03-.42-.06-.83-.06-1.25,0-1.57.33-2.05.99-2.35.16-.07.31-.16.46-.19.5-.12.93.53,1.14,1.65.36,3.31.51,6.74.9,10.17.1,1.28.32,2.54.47,3.82.21,1.26.42,2.53.69,3.79l-.07.02Z"/><path class="cls-1" d="m197.82,338.67c3.51-.32,7.03-.61,10.55-.78,1.29-.06,2.56-.24,3.85-.25,4.53-.16,9.08.02,13.6.31,2.01.11,4.02.27,6.01.43,1.28.1,2.56.26,3.83.46,1.27.2,2.52.54,3.76.87.77.22.59.54-.14.81-.73.26-2.02.52-3.45.41-1.28-.05-2.56-.12-3.83-.26l-3.83-.26c-1.28-.05-2.56-.1-3.85-.18-1.29-.04-2.58-.08-3.87-.15-1.55-.06-3.13.01-4.72.06-1.59.1-3.19.21-4.77.31-3.49.24-6.98.51-10.46.92-2.15.22-4.29.51-6.42.8-1.62.25-3.24.49-4.85.74-1.61.28-3.22.56-4.81.88-1.24.26-2.45.57-3.65.89-1.2.34-2.4.69-3.61.98-.53.13-1.05.29-1.59.42-2,.45-2.69.38-3.3-.32-.14-.16-.31-.31-.41-.47-.33-.56.38-1.25,1.81-1.79,4.23-1.68,8.89-2.68,13.59-3.46,3.49-.59,7.04-1.02,10.57-1.45v.07Z"/><path class="cls-1" d="m190.21,351.97c2.49-.34,5-.63,7.5-.91.92-.09,1.82-.24,2.74-.31,3.24-.22,6.49-.32,9.73-.34,1.44-.03,2.88-.03,4.31-.03.92,0,1.83.03,2.75.06.92.07,1.83.23,2.73.39.56.11.47.31-.02.56-.49.24-1.39.61-2.43.71-.92.07-1.83.11-2.75.15l-2.74.18c-.92.04-1.83.09-2.75.11-.92.04-1.84.08-2.77.1-2.22.07-4.5.48-6.74.81-2.47.34-4.96.67-7.43,1.06-1.52.24-3.05.48-4.57.76-2.3.42-4.62.81-6.89,1.34-1.76.41-3.45,1-5.17,1.52-.38.11-.74.26-1.13.34-1.44.33-1.94.21-2.42-.53-.11-.17-.24-.33-.32-.51-.27-.59.21-1.23,1.22-1.66,3-1.26,6.31-1.93,9.64-2.59,2.48-.48,4.99-.87,7.49-1.26l.02.07Z"/><path class="cls-1" d="m177.68,363.24c1.78-.33,3.57-.64,5.37-.91.65-.11,1.3-.27,1.96-.35,2.32-.31,4.67-.41,7.01-.48,1.03-.05,2.08-.08,3.1-.15.66-.01,1.32-.07,1.99-.05.66.05,1.32.16,1.98.3.41.1.33.4-.03.75-.36.34-1,.78-1.73.89-2.59.22-5.16.4-7.81.54-1.58.07-3.19.47-4.79.73-1.76.31-3.52.63-5.27,1-1.08.23-2.16.46-3.24.72-1.63.4-3.27.78-4.86,1.28-1.24.39-2.4.94-3.6,1.42-.26.1-.51.23-.79.32-1,.34-1.38.24-1.81-.43-.1-.15-.21-.3-.28-.46-.26-.54.03-1.12.72-1.5,2.06-1.13,4.37-1.82,6.73-2.46,1.75-.47,3.54-.86,5.33-1.25l.02.06Z"/><path class="cls-1" d="m165.45,366.38c1.69-4.39,3.2-8.85,4.49-13.38.5-1.65.86-3.33,1.3-4.99.78-2.93,1.47-5.88,2.1-8.84.33-1.48.57-2.97.86-4.46l.36-2.24.21-1.38c.03-.14.03-.29.08-.43l.36-.26c.23-.17.49-.35.7-.48,2.44-1.47,4.97-2.53,7.56-3.48,1.66-.59,3.36-1.1,5.09-1.47.44-.08.87-.18,1.31-.24l1.33-.12c.44-.03.89-.03,1.34-.04.44,0,.9.12,1.34.24,1.1.42.93.26.04.76-.22.15-.49.27-.78.46-.29.26-.63.34-.99.52-.73.27-1.55.69-2.48.84-3.3.64-6.54,1.75-9.63,3.14-.76.35-1.53.72-2.23,1.13-.18.1-.36.2-.52.3-.13.08-.08.04-.12.06-.03,0-.03.03-.04.05,0,.02,0-.01-.02.04l-.05.33-.44,2.66-.55,2.63c-.94,4.18-1.75,8.57-2.89,12.79-1.26,4.64-2.67,9.24-4.3,13.77-1.01,2.78-2.06,5.55-3.21,8.27-.82,2.08-1.81,4.11-2.72,6.15-.48,1.01-.99,2.01-1.48,3.01-.49,1.01-.98,2.01-1.52,2.98-.83,1.52-1.57,3.07-2.45,4.54l-1.27,2.23c-.42.75-.92,1.45-1.38,2.18-.41.64-.82,1.26-1.23,1.9-1.71,2.27-2.43,2.86-3.27,2.94-.19.02-.39.08-.53.07-.44-.02-.14-1.26,1-2.91,3.3-5,6.32-10.52,9.07-16.24,2.03-4.25,3.93-8.6,5.55-13.06l.06.02Z"/><path class="cls-1" d="m169.07,393.75l-5.15,1.28c-.63.16-1.23.39-1.86.54-1.11.27-2.23.5-3.36.72l-1.69.33-.85.16-.57.11c-.22.05-.42.07-.63.09h-1.19s-.58,0-.58,0l-.3-.24c.08-.61.15-1.15.33-1.79.19-.49.41-1.05.67-1.44.15-.3.31-.59.49-.87.35-.57.75-1.1,1.19-1.59.29-.3.34-.19.29.18-.05.37-.08,1.05-.25,1.76l-.19.8-.08.38s0,0,0,0c0,0,0,0-.04.05-.03.03-.01.11.06.11.02,0,0,.03.06.03l.27-.05.55-.1,1.11-.18c1.56-.26,3.1-.85,4.67-1.25l5.18-1.32,3.19-.82c1.6-.43,3.23-.83,4.8-1.32,1.22-.39,2.38-.91,3.59-1.35.27-.1.52-.22.79-.3,1.01-.31,1.4-.2,1.77.44.09.15.19.29.25.44.21.51-.09,1.06-.77,1.39-2.03,1.01-4.28,1.75-6.57,2.43-1.7.51-3.42.96-5.14,1.44l-.02-.06Z"/><path class="cls-1" d="m94.76,356.06l5.26-.11c.64-.01,1.28-.09,1.92-.09,2.27,0,4.55.07,6.81.28,1.01.09,2.01.17,3.01.26.64.09,1.28.13,1.91.27.63.14,1.25.34,1.86.53.38.13.29.28-.08.44-.37.15-1.02.36-1.75.37-.65.03-1.28.01-1.91-.03l-1.9-.05c-1.27,0-2.54-.05-3.82-.14-1.54-.1-3.14.11-4.72.21l-5.24.37-3.24.24c-1.64.12-3.29.19-4.92.33-1.27.11-2.51.36-3.77.52-.28.04-.55.09-.83.1-1.05.02-1.38-.17-1.59-.88-.05-.16-.11-.32-.14-.48-.09-.54.34-1,1.08-1.18,1.09-.27,2.21-.41,3.35-.51,1.14-.12,2.29-.17,3.46-.24,1.74-.09,3.49-.17,5.24-.26v.06Z"/><path class="cls-1" d="m83.48,362.7c.81.02,1.62.04,2.43.07.3,0,.58-.05.88-.03,1.05.06,2.1.16,3.14.25.47.03.93.05,1.39.08.59.03,1.2.04,1.77.3.18.08.11.34-.08.62-.19.27-.49.59-.8.63-.56.08-1.12.16-1.69.21-.57.04-1.14,0-1.72-.07-.7-.08-1.42.1-2.13.17-.79.08-1.58.11-2.38.16-.49.03-.98.07-1.47.1-.74.07-1.5.09-2.23.22-.57.1-1.12.36-1.69.55-.13.04-.25.11-.38.13-.48.09-.65-.09-.79-.85-.03-.17-.07-.35-.09-.52-.07-.59.1-1.09.41-1.27.94-.53,1.96-.65,3.02-.73.79-.06,1.59-.06,2.4-.09v.06Z"/><path class="cls-1" d="m105.86,346.12c-3.7,1.37-7.37,2.84-10.96,4.5-1.31.6-2.57,1.31-3.84,1.95-.56.28-1.12.57-1.67.87-.27.15-.56.29-.81.45l-.39.23c-.13.08-.27.16-.32.2-.16.07-.28.21-.43.4l-.56.73-1.13,1.54c-1.52,2.08-3.05,4.17-4.69,6.18-1.45,1.79-2.91,3.59-4.44,5.31-1.91,2.23-4.21,4.33-7.1,5.42-.92.29-.87.02-.44-.75.2-.41.55-.83.89-1.44.18-.29.37-.6.59-.9.11-.15.23-.29.33-.47.13-.14.26-.29.4-.43l.74-.75.7-.8c.48-.52.99-1.02,1.46-1.55.98-1.04,1.92-2.14,2.85-3.25,1.85-2.23,3.67-4.53,5.54-6.85.56-.69,1.1-1.42,1.63-2.15l.82-1.13c.26-.33.63-.92,1.2-1.28.92-.64,1.68-1.05,2.52-1.53.82-.44,1.64-.9,2.48-1.29,3.65-1.8,7.39-3.38,11.16-4.84,2.32-.9,4.67-1.74,7.02-2.55,3.56-1.25,7.21-2.27,10.79-3.33,1.4-.4,2.78-.79,4.16-1.22,1.38-.42,2.77-.77,4.16-1.16.61-.17,1.21-.35,1.84-.47,2.33-.48,3.11-.41,3.74.29.14.14.31.25.4.37.27.3-.54,1.26-2.19,1.68-4.88,1.4-10.01,2.72-15.13,4.28-3.78,1.19-7.58,2.41-11.31,3.83l-.03-.06Z"/><path class="cls-1" d="m105.36,304.87c5.93-2.2,11.89-4.31,17.93-6.12l3.29-1.06c1.1-.34,2.2-.66,3.31-.97,7.81-2.17,15.7-4.08,23.68-5.51,3.54-.63,7.09-1.31,10.64-1.81,4.53-.63,9.2-1.26,13.81-.38,1.41.4,1.21.26-.02.54-.61.15-1.47.3-2.47.49-.51.13-1.06.3-1.64.42-.58.1-1.2.19-1.84.25-2.28.27-4.54.7-6.82,1.02-2.28.37-4.56.7-6.83,1.16l-3.42.63-3.41.7-3.42.69c-1.14.26-2.28.5-3.43.73-5.49,1.1-11.07,2.83-16.56,4.44-6.02,1.84-12.03,3.75-17.92,5.98-3.65,1.31-7.22,2.81-10.79,4.32l-4,1.84c-.66.31-1.34.6-2,.93l-1.95,1.01-1.95,1.01-1.26.66c-.46.26-.98.57-1.33.74-1.55.82-3.1,1.65-4.65,2.46l-.91.49-.46.24.15-.49c.21-.64.42-1.18.64-1.73.21-.54.47-1.13.71-1.7.31-.62.66-1.29,1.03-1.95l1.28-2.11,1.1-1.69c.63-.95,1.27-1.89,1.95-2.82.59-.82,1.17-1.62,1.85-2.4,1.26-1.43,2.21-2.3,3.01-2.78.38-.24.78-.37,1.09-.45.31-.08.6-.09.88-.04.25.04.53.07.69.16.26.15.1.52-.26.99-.37.54-.95,1.3-1.79,2.3-1.22,1.48-2.37,3.11-3.55,4.73-.58.82-1.16,1.65-1.72,2.49-.39.59-.28.45-.31.51,0,.03,0,.06,0,.08.01.06.05.07.12,0,.05-.05.06-.06.04-.05l4.27-2.23c1.45-.69,2.91-1.35,4.36-2.02l2.19-1,2.22-.92,4.43-1.83.03.06Z"/><path class="cls-1" d="m349.39,280.98c8.73,4.07,13.53,22.4,13.53,22.4,0,0-7.38,2.8-18.02,7.54s-28.09,19.46-28.09,19.46l-4.03-6.09c-7.95-16.9-45.85-40.14-45.85-40.14,0,0,3.83-7.61.08-9.45-3.75-1.83-7.58,4.51-7.58,4.51h-4.06l-.68-10.29s-1.72-5.66-6.8-7.79c-5.08-2.13-15.51,2.06-15.51,2.06,0,0-4.15-2.38-6.62-4.21-2.46-1.83-5.42,1.54-8.85,1.64-3.43.1-11.62,5.99-11.62,5.99,0,0-9.91,3.99-25.24,2.89-15.33-1.11-43.4,10.48-43.4,10.48,0,0,13.61-12.19,23.67-18.85,10.06-6.66,31.67-15.43,31.67-15.43,46.87-16.56,87.85-1.77,96.02,1.47,0,0,.17,24.49,9.53,35.26,9.37,10.77,20.99,13.96,26.03,13.52s15.54-4.24,18.71-6.94c2.35-2,7.11-8.03,7.11-8.03Z"/><path class="cls-1" d="m339.36,167.7c-6.06-18.07-45.15-15.33-57.51,7.97l-1.57,5.72s-12.71,3.82-16.66,12.7c-3.95,8.88-5.09,16.96-2.54,22.81s6.7,16.52,17.3,16.84c0,0-5.02-6.05-4.74-12.03.28-5.98,1.13-13.77,6.34-15.8,5.21-2.03,8.07-3.38,11.05.08,2.99,3.47,4.79,7,4.79,7,0,0,17.79-4.52,22.11-7.28,4.32-2.77,16.52-13.13,19.2-20.65,2.67-7.52,2.25-17.36,2.25-17.36Z"/><path class="cls-1" d="m340.87,170.52c15.79-11,37.82-13.67,61.09-5.62,0,0,17.47,7.42,20.78,23.11,3.31,15.69-3.01,23.42-6.06,28.02-3.05,4.61-20.02,7.34-23.95,6.35-3.93-1-27.35-11.82-29.82-13.92-2.47-2.11-16.58-19.03-18.58-25.21-1.99-6.18-3.47-12.72-3.47-12.72Z"/><path class="cls-1" d="m98.02,401.26c-6.12-2.24-12.22-4.54-18.29-6.92-2.22-.87-4.46-1.66-6.66-2.57-3.88-1.61-7.73-3.29-11.55-5.08-1.91-.9-3.8-1.83-5.67-2.84-1.87-1.02-3.72-2.06-5.49-3.39-.69-.51-1.36-1.07-2-1.79-.74-.84-1.39-2.13-.89-3.26.16-.36.35-.7.61-1,.12-.16.25-.31.39-.44.13-.12.23-.24.36-.33.47-.41.95-.73,1.44-1.03.97-.59,1.96-1.06,2.94-1.48,4.49-1.92,9.12-3.17,13.85-3.71,1.55.1,1.34.07.29.96-.52.47-1.31.97-2.25,1.57-.48.29-.99.61-1.55.89-.56.27-1.16.52-1.8.75-1.11.38-2.19.83-3.28,1.2-1.09.37-2.17.75-3.21,1.17-1.04.42-2.05.87-2.94,1.37-.45.25-.85.52-1.17.77-.17.13-.32.29-.28.24,0,0-.02.01-.03.02-.02.02-.03.05-.02.08,0,0,0,.01.02.04.04.04.11.14.17.22.18.17.31.34.52.51.77.69,1.72,1.36,2.7,2,1.98,1.27,4.11,2.46,6.27,3.6,5.09,2.7,10.76,4.82,16.27,7,6.07,2.39,12.19,4.69,18.34,6.92,3.79,1.37,7.58,2.72,11.39,4.03,5.77,1.98,11.56,3.98,17.34,5.78,4.49,1.4,8.97,2.55,13.46,3.79.99.27,1.97.51,2.96.8,3.67,1.09,4.78,1.67,5.27,2.84.11.26.28.54.32.77.13.77-1.54.93-4.28.28-8.13-1.9-16.53-4.48-24.91-7.23-6.23-2.04-12.45-4.22-18.64-6.41l.02-.08Z"/><path class="cls-1" d="m361.29,293.37c-.53-1.12-1.17-2.22-1.86-3.28-.26-.38-.61-.7-.86-1.08-.95-1.33-1.88-2.72-3.01-3.96-.51-.54-1.04-1.06-1.59-1.54-.71-.63-1.47-1.17-2.04-2.02-.18-.26-.02-.44.38-.57.38-.11,1.09-.3,1.66-.1.95.42,1.87.91,2.73,1.48.78.67,1.51,1.4,2.13,2.24.76.98,1.72,1.82,2.5,2.82.86,1.08,1.63,2.24,2.35,3.43.44.73.85,1.48,1.24,2.24.3.58.58,1.16.82,1.77.27.59.49,1.21.74,1.81.38.94.87,1.87,1.17,2.95.05.25.1.49.12.75.04.46-.09.81-.28,1.01-.19.21-.48.29-.92.3-.2,0-.39.02-.59,0-.64-.07-1.17-.47-1.38-.86-.16-.32-.4-.63-.51-.94-.18-.33-.27-.64-.42-.98-.29-.7-.59-1.4-.89-2.11-.25-.54-.48-1.08-.76-1.63-.24-.56-.53-1.11-.83-1.65l.07-.05Z"/><path class="cls-1" d="m361.66,301.54c6.72-2.22,13.55-4.06,20.46-5.49,1.26-.28,2.52-.53,3.78-.78,1.26-.24,2.52-.53,3.8-.69,4.48-.71,9-1.17,13.53-1.48,4.53-.23,9.06-.36,13.59-.16,4.01.11,8.05.4,12,.9,1.27.13,2.53.37,3.8.59,1.26.21,2.53.44,3.77.76,2.5.58,4.99,1.16,7.37,2.14,1.5.53,1.29.47-.06.33-.67-.09-1.66-.05-2.8-.2-1.14-.15-2.49-.22-3.94-.4-2.54-.41-5.13-.46-7.66-.79-2.56-.15-5.11-.35-7.67-.47-2.56-.19-5.12-.18-7.69-.25-2.57.04-5.15.02-7.74.16-6.19.23-12.58,1.23-18.81,2.44-6.85,1.32-13.63,3.05-20.28,5.17-4.09,1.32-8.16,2.74-12.14,4.36-6.03,2.45-12.02,5.15-17.61,8.4-4.36,2.5-8.37,5.38-12.18,8.47-.87.65-1.62,1.38-2.47,2.05-.76.65-1.37,1.2-1.92,1.63-.52.45-.94.81-1.33,1.08-.78.53-1.27.79-1.88.85-.27.03-.59.12-.81.1-.37-.04-.39-.46-.08-1.21.3-.77,1-1.79,2.02-2.99,1.56-1.71,3.22-3.39,5.03-4.9,1.82-1.5,3.73-2.89,5.71-4.22,3.95-2.66,8.14-5.02,12.43-7.19,6.38-3.22,13.01-5.95,19.76-8.29l.04.08Z"/><path class="cls-1" d="m266.15,276.6c-.03-.26-.03-.37-.03-.47-.05-.07-.18-.18-.27-.28-.11-.03-.21-.17-.34-.17-.19-.07-.4.01-.65.03-.95.12-2.11.89-3.01,1.83-.41.42-.75.91-1.07,1.4-.2.32-.37.65-.56.98-.16.34-.46.61-.7.92-.17.18-.36.1-.56-.2-.18-.29-.47-.86-.37-1.36.27-.83.63-1.62,1.08-2.37.48-.72,1.09-1.39,1.82-1.95.87-.64,1.73-1.51,3.08-1.83.72-.19,1.56-.1,2.28.16.34.19.67.29,1,.58.36.26.6.61.81.96.45.89.48,1.72.49,2.47,0,1.15-.25,2.2-.4,3.23-.12.8-.09,1.61-.14,2.41-.01.17,0,.35-.02.52-.12.63-.38.75-1.21.7-.19-.01-.38-.02-.56-.04-.63-.09-1.07-.47-1.16-.98-.22-1.49.09-2.85.27-4.13.15-.92.26-1.88.15-2.38l.07-.02Z"/><path class="cls-1" d="m188.44,244.48c7.99-3.03,16.19-5.47,24.53-7.27,1.51-.36,3.04-.67,4.57-.96,1.53-.29,3.05-.64,4.59-.83,5.42-.85,10.89-1.31,16.36-1.57,5.47-.24,10.96-.08,16.41.31,4.84.36,9.69.88,14.45,1.68,6.07,1.16,12.24,2.43,17.76,5.57.83.57,1.11.97,1.02,1.03-.1.09-.56-.1-1.39-.21-.82-.12-1.95-.35-3.32-.55-1.35-.26-2.97-.4-4.64-.85-2.98-.72-6-1.33-9.05-1.77l-4.57-.7c-1.53-.18-3.06-.39-4.59-.55-6.14-.65-12.34-.89-18.58-.9-7.47,0-15.22,1.02-22.74,2.4-8.27,1.51-16.44,3.67-24.4,6.46l-3.67,1.31c-1.22.43-2.41.96-3.62,1.43l-3.61,1.46-3.54,1.62c-1.79.81-3.59,1.62-5.33,2.54-1.75.9-3.53,1.76-5.26,2.7-1.71.97-3.43,1.94-5.14,2.91-1.72.94-3.34,2.06-5,3.09-1.27.83-2.57,1.61-3.79,2.5-1.22.89-2.44,1.77-3.65,2.65-2.45,1.73-4.76,3.63-7.12,5.49-1.03.83-2.05,1.62-3.07,2.48-3.8,3.16-5.16,3.97-6.59,3.93-.32,0-.71.03-.96-.04-.84-.24.36-1.98,3.07-4.46,8.05-7.35,17.47-14.08,27.53-19.81,7.46-4.26,15.26-8.04,23.31-11.14l.04.08Z"/><path class="cls-1" d="m296.68,277.5c3.11,4.89,7.15,9.23,12.09,12.28,1.81,1.11,3.75,1.95,5.72,2.73,3.49,1.34,7.17,2.12,10.89,1.97,3.71-.13,7.4-1.14,10.8-2.81,3.02-1.49,5.79-3.55,8.26-5.85l1.18-1.12,1.14-1.17,1.14-1.18,1.09-1.22c.76-.79,1.41-1.67,2.19-2.46.79-.77,1.54-1.59,2.33-2.39.98-1,.89-.84.45.29-.23.56-.46,1.42-.83,2.41-.2.48-.39,1.04-.67,1.57-.3.51-.61,1.07-1.02,1.58-2.73,3.76-6.1,7.11-10.01,9.83-3.87,2.76-8.49,4.68-13.31,5.28-2.88.3-5.85.34-8.78-.13-2.92-.5-5.76-1.29-8.43-2.48-5.88-2.6-10.96-6.8-14.81-11.83-2.37-3.1-4.33-6.49-5.92-10.01-2.38-5.36-3.82-11.11-4.53-16.85-.55-4.47-.75-8.92-.29-13.41.13-.98.2-1.96.41-2.94.76-3.65,1.5-4.7,2.56-5.15.25-.1.51-.26.73-.28.37-.05.58.33.62,1.01.02.34,0,.76-.06,1.25-.05.49-.11,1.06-.22,1.69-.6,3.72-.88,7.56-.8,11.46.13,3.89.55,7.84,1.46,11.69,1.31,5.72,3.49,11.29,6.68,16.2l-.07.05Z"/><path class="cls-1" d="m383.34,242.35c-.14-.65-.34-1.32-.6-1.99-.09-.24-.25-.44-.35-.69-.33-.89-.65-1.79-.98-2.67-.15-.4-.36-.76-.56-1.13-.24-.48-.49-.96-.53-1.54-.01-.18.25-.28.59-.3.34-.02.81.02,1.04.22l.59.55c.18.19.33.41.48.62.3.43.58.88.77,1.39.2.63.69,1.13,1.03,1.7.37.64.71,1.31,1.03,2.01.19.43.38.87.54,1.33.25.7.4,1.44.56,2.22.13.6.32,1.27.2,2-.02.16-.02.33-.07.48-.26.55-.55.63-1.23.3-.15-.07-.31-.14-.45-.23-.47-.29-.83-.71-.93-.94-.15-.36-.33-.58-.47-.81-.15-.22-.15-.49-.26-.81-.04-.23-.15-.52-.21-.79-.12-.29-.17-.58-.28-.9l.07-.04Z"/><path class="cls-1" d="m363.96,258.64c-.11,2.9-.31,5.82-1.19,8.84-.34,1.09-.71,2.26-1.48,3.34-.66.95-1.76,1.83-3.01,2.19-.63.22-1.24.22-1.85.23-.29-.02-.57-.07-.85-.11-.29-.04-.56-.09-.79-.17-1.94-.58-3.64-1.53-5.18-2.62-1.37-.97-2.66-2.02-3.84-3.17-.73-.76-1.44-1.55-2.04-2.43-.66-.83-.96-1.92-1.27-2.92-.16-.64-.04-.59.44-.23.23.18.58.42,1.01.67.21.13.43.27.68.4.12.07.23.15.37.21l.28.29c2.76,2.71,5.86,5.13,9.3,6.49,1.07.4,2.04.6,2.7.33.67-.22,1.22-.88,1.66-1.84.48-1.04.8-2.31,1-3.61.2-1.31.33-2.66.38-4.02.06-1.68.06-3.39-.02-5.09-.12-2.58-.28-5.2-.65-7.76-.29-2-.8-3.92-1.17-5.92-.08-.44-.2-.86-.25-1.32-.19-1.69.24-2.34,1.15-2.7.21-.08.4-.18.59-.21.32-.06.61.1.9.36.3.26.59.67.79,1.23.55,1.65.95,3.45,1.32,5.27.34,1.83.56,3.73.74,5.64.27,2.84.38,5.73.38,8.65h-.09Z"/><path class="cls-1" d="m355.54,234.75c.66.21,1.31.42,1.97.62.24.07.49.07.72.17.82.38,1.63.75,2.42,1.17.35.18.71.32,1.07.44.48.11.9.44,1.25.85.11.14,0,.33-.22.56-.22.22-.59.55-.88.63-.26.07-.52.14-.74.1-.23-.01-.46-.02-.68-.05-.22-.03-.45-.06-.67-.12-.21-.08-.42-.19-.63-.3-.5-.3-1.11-.23-1.67-.33-.62-.15-1.23-.3-1.85-.46-.38-.08-.77-.18-1.16-.24-.59-.1-1.18-.22-1.78-.21-.46,0-.92.21-1.37.34-.1.03-.2.09-.3.1-.37.04-.49-.18-.57-1.04l-.05-.59c-.04-.67.12-1.22.41-1.42.86-.59,1.79-.72,2.71-.65.68.06,1.35.22,2.03.35v.08Z"/><path class="cls-1" d="m303.79,216.84c1.07.9,2.13,1.81,3.23,2.67.4.32.84.57,1.24.88,1.4,1.12,2.79,2.26,4.25,3.3.64.47,1.32.89,2,1.29.44.24.89.48,1.3.79.21.14.42.29.61.46.21.15.35.41.53.62.2.29.07.44-.34.63-.21.09-.49.21-.82.32-.31.08-.63.08-.92,0-2.05-.67-3.82-1.87-5.41-3.32-.95-.86-2.11-1.5-3.16-2.27-1.14-.85-2.26-1.73-3.37-2.62l-2.04-1.64c-1.03-.82-2.04-1.69-3.11-2.45-.82-.61-1.75-1.03-2.58-1.6-.18-.12-.38-.23-.55-.36-.66-.5-.74-.83-.51-1.42.05-.13.09-.27.15-.39.19-.39.73-.53,1.33-.32,1.8.6,3.34,1.7,4.87,2.82,1.13.83,2.24,1.71,3.35,2.57l-.04.06Z"/><path class="cls-1" d="m305.93,215.95l2.79,2.32c.34.28.73.49,1.07.78,1.2,1,2.38,2.03,3.61,3.02.53.45,1.09.86,1.66,1.26.37.25.74.49,1.07.79.16.15.34.28.48.48.13.2.25.39.39.6.15.27.03.37-.33.48-.18.06-.43.13-.72.2-.14.03-.31.08-.45.08-.14,0-.27-.03-.39-.08-1.72-.67-3.21-1.66-4.51-2.97-.79-.77-1.8-1.3-2.69-1.96-.98-.73-1.96-1.47-2.92-2.25l-1.77-1.42c-.9-.71-1.78-1.46-2.71-2.12-.72-.51-1.53-.89-2.29-1.34-.17-.1-.35-.17-.49-.31-.27-.24-.42-.43-.44-.67,0-.27.07-.51.19-.77.05-.12.09-.24.15-.34.09-.17.24-.26.48-.35.23-.08.59-.2.84-.1.84.18,1.5.61,2.19,1.02.68.42,1.33.9,1.99,1.38.96.74,1.92,1.48,2.88,2.21l-.04.06Z"/><path class="cls-1" d="m262.16,200.43c-.99,3.28-1.19,6.95-.81,10.52.13,1.31.46,2.59.74,3.87.53,2.26,1.24,4.48,2.22,6.59.99,2.1,2.25,4.09,3.81,5.82,1.38,1.54,3.09,2.77,4.87,3.78,2.31,1.32,4.88,1.9,7.52,2.72.83.31.73.22-.02.39-.74.26-2.19.65-3.87.41-1.47-.23-2.91-.69-4.3-1.28-1.41-.55-2.69-1.4-3.89-2.32-1.18-.94-2.25-2.02-3.22-3.17-.94-1.17-1.79-2.41-2.49-3.72-1.69-3.12-3.15-6.53-3.85-10.07-.77-3.88-.94-7.88-.28-11.82.21-1.21.51-2.41.9-3.59.45-1.13.84-2.28,1.4-3.36.76-1.68,1.79-3.23,2.88-4.71,1.13-1.45,2.37-2.81,3.72-4.05,2.09-1.92,4.37-3.6,6.95-4.87.56-.28,1.13-.54,1.73-.77,2.26-.76,3.14-.53,3.73.2.14.17.3.34.39.52.27.63-.53,1.22-1.91,1.81-4.14,1.74-8.14,4.35-11.14,7.96-1.12,1.33-2.08,2.79-2.94,4.32-.81,1.54-1.55,3.21-2.04,4.84l-.08-.02Z"/><path class="cls-1" d="m238.52,389.89c-9.13,1.92-18.19,4.27-27.2,6.8-3.29.94-6.54,1.99-9.81,2.97-11.56,3.42-23.03,7.16-34.61,10.71-5.14,1.55-10.31,3.16-15.62,4.23-1.72.32-3.45.61-5.27.66h-.69s-.35,0-.35,0l-.48-.06-.98-.12c-.07-.03-.19.02-.22-.07l-.13-.21-.27-.43c-.17-.29-.38-.57-.48-.88-.11-.29-.2-.49-.28-.75-.11-.49-.23-.99-.24-1.48-.14-1.99.45-3.77,1.12-5.42.7-1.64,1.54-3.17,2.52-4.59,1.3-1.72,1.23-1.43.86.4-.18.92-.47,2.21-.85,3.67-.19.73-.36,1.52-.51,2.33-.06.4-.15.81-.18,1.22-.08.41-.1.81-.14,1.21-.04.71.04,1.35.21,1.91.05.1.15.33.13.3,0,.02,0,0,0,0h.06s.99-.01.99-.01c.38-.02.79-.07,1.18-.1.8-.1,1.61-.22,2.43-.39,3.28-.64,6.6-1.6,9.91-2.59,6.65-1.91,13.32-4.05,20.05-6.07,8.05-2.43,16.32-5.36,24.57-7.87,9.07-2.77,18.23-5.3,27.47-7.48,5.7-1.35,11.41-2.49,17.08-3.77,8.61-1.9,17.27-3.82,25.87-5.57,6.69-1.34,13.25-2.8,20.02-3.57,1.5-.13,2.95-.36,4.47-.4,2.81-.17,4.69-.04,5.99.13,1.31.24,2.04.59,2.61,1.07.26.22.6.44.74.64.23.35-.23.63-1.23.84-.5.1-1.14.19-1.89.26-.76.1-1.64.18-2.63.24-1.46.08-2.95.29-4.43.42-1.49.21-2.98.38-4.47.62-2.99.47-6.03.91-9.08,1.48-6.1,1.09-12.28,2.37-18.48,3.7-9.23,2.02-18.5,4.05-27.75,6.08l-.03-.08Z"/><path class="cls-1" d="m467.95,335.08c.23,1.26.43,2.53.74,3.77.15.62.28,1.25.44,1.88l.53,1.86c.23.91.62,1.77.9,2.67,1.01,3.16,2.18,6.3,3.69,9.29.65,1.33,1.4,2.63,2.17,3.89,1.02,1.6,2.13,3.14,2.93,4.9.25.55-.04.67-.65.49-.59-.2-1.63-.61-2.39-1.45-1.22-1.57-2.4-3.19-3.44-4.9-.56-.83-.99-1.74-1.43-2.64-.45-.89-.85-1.82-1.21-2.76-.46-1.11-.95-2.23-1.45-3.36-.53-1.12-.98-2.27-1.42-3.42-.49-1.26-.83-2.58-1.23-3.87-.31-1.32-.69-2.62-.95-3.94l-.49-2.44-.39-2.46c-.21-1.24-.3-2.5-.45-3.74-.1-1.25-.21-2.5-.31-3.74-.06-.97-.17-1.92-.29-2.88-.08-.96-.18-1.91-.24-2.88-.03-.42-.06-.84-.04-1.27.07-1.58.33-2.08,1.19-2.35.2-.06.39-.15.59-.18.66-.1,1.17.57,1.34,1.69.11.83.22,1.67.34,2.51.09.84.13,1.69.19,2.54.08.85.14,1.7.18,2.56.05.86.15,1.71.21,2.57.08,1.28.29,2.55.4,3.83.2,1.27.36,2.55.62,3.81l-.08.02Z"/><path class="cls-1" d="m189.58,323.96c12.17-2.19,24.47-2.97,36.73-2.97,2.24,0,4.48,0,6.71.05,2.24.02,4.47.11,6.7.23,7.87.45,15.72,1.28,23.51,2.5,7.78,1.23,15.52,2.84,23.09,5.04,6.73,1.93,13.41,4.21,19.76,7.1,4.12,1.78,8.04,4.03,11.79,6.55l2.75,1.98,2.56,2.23c1.65,1.54,3.26,3.16,4.43,5.12,1.54,2.36,1.31,2.01-.58.58-.49-.35-1.05-.78-1.74-1.22-.19-.1-.36-.22-.58-.3-.18-.12-.36-.24-.55-.37-.37-.26-.76-.52-1.17-.8-.78-.59-1.72-1.13-2.66-1.74-.94-.62-1.93-1.27-2.97-1.94-.93-.59-1.79-1.25-2.76-1.78l-2.85-1.65c-.97-.52-1.96-1-2.94-1.5-.96-.54-1.96-1-2.97-1.46-3.97-1.93-8.14-3.5-12.33-4.97-8.44-2.85-17.16-5.06-26.03-6.79-10.62-2.09-21.9-2.97-32.97-3.33-12.18-.39-24.4.06-36.48,1.62-3.71.52-7.41,1.09-11.07,1.87l-2.74.58-2.72.68c-.91.22-1.81.45-2.7.73l-2.12.62c-.16.09-.14.33-.2.49l-.15.78-.39,2.1-.79,4.23c-.54,2.82-1.12,5.64-1.75,8.44-1.26,5.61-2.7,11.16-4.39,16.62-2.65,8.46-5.68,16.71-10.23,24.39-1.01,1.68-2.03,3.32-3.22,4.91-2.21,2.97-4,4.68-5.38,5.72-.69.52-1.27.88-1.8,1.12-.54.22-1,.36-1.45.42-.4.06-.88.21-1.13.2-.85-.02,1.12-2.22,4.34-6.09,4.82-5.78,8.47-12.77,11.48-20.12,3-7.37,5.36-15.16,7.29-23.08,1.44-5.89,2.57-11.85,3.63-17.9l.46-2.47c.08-.37.15-.74.26-1.1.11-.35.23-.7.53-.88l.19-.16.05-.04.02-.02c-.05-.05.13.11-.11-.13h.01s.11-.08.11-.08l.44-.27.44-.27.54-.16,2.63-.78c.75-.23,1.51-.43,2.27-.61,3.04-.79,6.09-1.46,9.16-2.02l.03.08Z"/><path class="cls-1" d="m100.35,344.16c5.75-1.83,11.54-3.53,17.34-5.16,2.12-.59,4.21-1.27,6.33-1.83,7.5-1.95,15.03-3.78,22.63-5.28,3.37-.69,6.75-1.4,10.1-2.04,2.15-.43,4.31-.84,6.5-1.1,2.18-.29,4.38-.54,6.6-.41,1.4.29,1.2.21.11.82-.54.33-1.33.65-2.26,1.08-.94.4-2.05.7-3.27.97-4.32.95-8.67,1.72-13,2.67-4.34.91-8.68,1.92-13.07,2.81-5.25,1.08-10.6,2.71-15.88,4.2-5.8,1.64-11.6,3.34-17.35,5.17-3.54,1.12-7.07,2.28-10.56,3.53-2.61.95-5.35,1.91-7.71,3.07-.23.11-.37.2-.47.38l-.48.8-1.08,1.82c-.74,1.21-1.48,2.42-2.21,3.63-2.34,3.72-4.73,7.36-7.8,10.62-.69.7-1.37,1.41-2.15,2.06-2.95,2.38-4.46,2.52-5.47,1.94-.24-.13-.52-.24-.67-.39-.26-.26-.09-.66.35-1.15.22-.25.52-.48.88-.74.35-.31.76-.64,1.24-.97,2.8-2.14,5.24-5.07,7.56-8.14,1.13-1.57,2.26-3.17,3.32-4.84.54-.83,1.06-1.67,1.57-2.52.5-.86.97-1.74,1.46-2.62l.56-1.02c.14-.29.4-.61.62-.9.23-.29.58-.47.86-.71.31-.19.47-.26.68-.38.21-.12.38-.18.58-.28.38-.17.75-.34,1.11-.49,1.46-.62,2.89-1.15,4.33-1.68,2.88-1.05,5.77-2.03,8.67-2.99l.03.08Z"/><path class="cls-1" d="m305.98,319.52c-3.52-4.08-7.25-8.01-11.16-11.76-1.44-1.36-2.92-2.66-4.38-3.99-5.11-4.73-10.49-9.2-16.18-13.23-2.53-1.78-5.14-3.48-7.8-5.01-3.46-1.91-6.91-3.82-10.38-5.73-1.09-.6-.92-.58.13-.39,1.03.24,3.11.33,5.27,1.21,3.88,1.43,7.46,3.49,10.98,5.6,3.53,2.12,6.83,4.59,10.06,7.16,3.83,3.1,7.92,6.21,11.69,9.56,4.12,3.7,8.04,7.64,11.78,11.72,2.31,2.51,4.53,5.1,6.67,7.76,3.25,4.01,6.28,8.25,9.05,12.58,2.14,3.38,4.22,6.74,5.88,10.41.37.8.7,1.62,1.02,2.46.3.78.44,1.47.59,2.03.13.57.22,1.03.2,1.43-.02.8-.21,1.29-.57,1.72-.16.19-.32.43-.49.55-.61.4-1.38-.77-2.18-2.86-2.44-6.24-6.02-12.46-10.18-18.4-3.07-4.42-6.46-8.68-10.06-12.76l.06-.06Z"/><path class="cls-1" d="m203.49,275.27c-1.85.86-3.64,1.87-5.4,2.95-.64.4-1.19.92-1.82,1.33-2.17,1.52-4.31,3.16-6.14,5.11-.43.41-.8.88-1.17,1.34-.37.46-.76.91-1.11,1.39-.43.62-.79,1.28-1.31,1.85-.45.61-.91,1.22-1.48,1.79-.36.36-.41.27-.46-.21-.03-.33-.07-.69-.1-1.01-.02-.42.02-.88.14-1.35.49-1.62,1.45-3,2.37-4.37.49-.67,1.09-1.25,1.66-1.85.56-.61,1.19-1.15,1.83-1.68.38-.31.75-.65,1.11-.99.38-.32.75-.66,1.12-1,.73-.7,1.49-1.36,2.29-1.97,1.74-1.36,3.61-2.55,5.52-3.63.59-.34,1.21-.62,1.81-.94.6-.32,1.21-.61,1.83-.88.93-.43,1.87-.84,2.84-1.19.48-.18.95-.38,1.44-.55l1.46-.5c1.5-.53,2.97-1.17,4.56-1.49.35-.08.69-.2,1.04-.25,1.35-.1,1.8.12,2.08,1.02.06.2.15.41.18.61.11.69-.39,1.3-1.21,1.58-.61.18-1.22.42-1.83.65l-.92.31c-.31.12-.61.25-.92.36-1.25.36-2.51.81-3.79,1.25-.93.37-1.89.68-2.82,1.11l-1.41.6-1.37.69-.04-.07Z"/><path class="cls-1" d="m271.64,220.42c-.21-4.21.88-8.58,3.45-12.04.96-1.23,1.96-2.46,3.25-3.35.54-.42,1.16-.74,1.73-1.1.61-.33,1.25-.62,1.92-.86,1.34-.47,2.82-.69,4.27-.51,1.44.17,2.82.68,3.97,1.45,1.15.77,2.12,1.71,2.94,2.73,1.46,1.81,2.57,3.83,3.39,5.92,1.07,2.66,1.67,5.57,1.41,8.42-.11.89-.32.75-.67.04-.37-.72-.93-1.98-1.36-3.44-.79-2.59-1.78-5.11-3.25-7.27-1.44-2.16-3.31-3.98-5.47-4.74-.65-.23-1.34-.34-2.04-.31-.7.03-1.41.22-2.1.49-1.37.57-2.7,1.58-3.83,2.64-2.54,2.34-4.04,5.77-4.34,9.35-.17,2.2.02,4.47.69,6.61.97,3.22,2.92,6.28,5.76,8,1.1.65,2.31,1.07,3.53,1.28,1.24.14,2.47.16,3.7-.07.54-.06,1.05-.28,1.59-.37,1.97-.56,2.63-.72,3.42-.09.18.14.39.26.53.41.48.49-.14,1.42-1.78,2.18-2.42,1.09-5.39,1.63-8.35,1.03-1.48-.29-2.9-.88-4.22-1.63-1.28-.81-2.47-1.77-3.46-2.89-2.97-3.33-4.45-7.61-4.74-11.87h.08Z"/><path class="cls-1" d="m323.83,151.12c4.08,1,8.08,2.79,11.4,5.55.78.74,1.61,1.44,2.34,2.22.68.84,1.38,1.64,2.02,2.53,1.3,1.88,2.08,4.04,2.43,6.2.52,3.15.33,6.28-.3,9.25-1.19,5.2-3.49,10.07-6.45,14.34-2.94,4.31-6.54,8.16-10.65,11.34-3.64,2.83-7.7,5.16-11.95,6.84-1.38.49-2.74,1.05-4.16,1.43-1.4.45-2.83.78-4.28,1.05-2.9.46-5.83.77-8.75.45-1.81-.31-1.55-.31-.06-.85.75-.29,1.8-.54,3.04-1,.62-.21,1.29-.36,2-.55.71-.21,1.45-.41,2.23-.57,11.08-2.35,21.1-8.42,28.26-17.34,1.02-1.37,2.07-2.74,2.94-4.26.95-1.47,1.72-3.02,2.41-4.62,1.38-3.2,2.31-6.62,2.64-10,.33-3.7-.26-7.45-2.46-10.27-2.21-2.98-5.3-5.26-8.77-6.74-4.29-1.8-9.06-2.61-13.81-2.49-3.6.06-7.22.55-10.69,1.5l-1.3.37c-.43.14-.84.3-1.26.45-.85.28-1.65.66-2.45,1.03-1.57.8-3.09,1.73-4.44,2.86-4.28,3.49-7.24,8.24-9.27,13.27-.24.55-.43,1.11-.62,1.68-.19.56-.39,1.12-.56,1.7-.69,2.13-1.04,3.56-1.43,4.53-.4.98-.76,1.53-1.32,1.94-.25.19-.5.45-.73.56-.39.17-.65-.23-.79-1.13-.16-.9-.09-2.29.24-4.04.99-5.17,3.09-10.32,6.33-14.91,1.62-2.29,3.54-4.42,5.78-6.27,2.22-1.85,4.8-3.38,7.52-4.44,4.01-1.55,8.15-2.37,12.35-2.65,4.19-.28,8.44-.02,12.59.96v.09Z"/><path class="cls-1" d="m338.44,250.52c-.1-.28-.17-.56-.21-.86l.07.5c-.04-.36-.04-.72,0-1.08l-.07.5c.05-.38.15-.75.3-1.11l-.19.45c.13-.29.28-.57.48-.82l-.29.38c.07-.09.15-.17.24-.25l-.38.29c.07-.05.14-.1.22-.14l-.45.19s.08-.03.12-.03l-.5.07c.07,0,.12,0,.19,0l-.5-.07s.07.02.11.03l-.45-.19c.05.02.09.05.14.08l-.38-.29c.06.05.11.1.16.16l-.29-.38c.1.13.17.26.23.41l-.19-.45c.27.66.45,1.35.55,2.06l-.07-.5c.04.32.07.63.08.95.01.49.2.98.55,1.33.33.33.86.57,1.33.55s.99-.18,1.33-.55.56-.82.55-1.33c-.02-.88-.15-1.78-.39-2.62-.28-.99-.67-2.02-1.58-2.59-.76-.48-1.67-.44-2.45-.05-.53.26-.92.76-1.24,1.24-.25.38-.43.81-.59,1.23-.11.3-.19.61-.24.92-.15,1-.14,2.01.2,2.97.17.47.42.86.86,1.12.4.24.99.33,1.44.19s.89-.43,1.12-.86.36-.97.19-1.44h0Z"/><path class="cls-1" d="m346.09,246.11c-1.3,1.61-2.83,3.05-4.54,4.23-.31.22-.62.44-.94.64-.32.21-.64.42-.99.58-2.4,1.23-5.12,1.76-7.75,1.65-1.16-.07-2.33-.16-3.46-.37-.36-.06-.72-.15-1.08-.23l-1.05-.33c-.72-.18-1.35-.6-1.94-1.05-.31-.43-.3-.28.15-.4.23-.07.53-.12.89-.19.18-.03.38-.08.57-.08.18.02.38.03.57.06.69.13,1.37.26,2.05.34.67.16,1.35.21,2.02.31,1.35.11,2.7.11,4.07-.03,1.64-.17,3.23-.92,4.67-1.79,1.59-.96,3.06-2.19,4.31-3.63.78-.88,1.49-1.83,2.13-2.82.96-1.51,1.82-3.12,2.43-4.81.48-1.31.73-2.66.93-4,.05-.29.09-.58.14-.87.21-1.08.34-1.39.91-1.6.12-.05.24-.12.35-.15.35-.11.77.41.79,1.33.03.68.01,1.36-.05,2.04-.1.67-.24,1.34-.42,2.01-.36,1.33-.85,2.63-1.44,3.89-.87,1.88-1.99,3.65-3.27,5.3l-.04-.03Z"/><path class="cls-1" d="m350.98,241.76c-1.28,2.34-2.81,4.54-4.65,6.51-1.84,1.96-3.99,3.71-6.51,4.9-1.82.87-3.81,1.5-5.84,1.63-1.79.12-3.58-.08-5.28-.5-.83-.26-1.67-.48-2.47-.85l-1.2-.51-1.14-.65c-1.52-.85-2.85-2-4.05-3.23-1.13-1.3-2.19-2.67-2.93-4.21-1.41-2.68-2.2-5.64-2.48-8.58-.11-.94-.1-1.9-.13-2.85l.07-1.42.04-.71c.03-.24.08-.47.12-.7.29-1.87.81-3.72,1.78-5.35.65-1,.71-.79.9.28.12.54.15,1.25.3,2.11.12.84.05,1.75.03,2.74-.14,1.73-.19,3.43-.08,5.13.2,1.68.43,3.37,1,4.94l.19.6c.09.19.16.39.24.58.16.38.29.78.46,1.16.39.73.72,1.5,1.21,2.18.41.73.97,1.34,1.48,2.01.28.31.59.59.88.89.15.15.29.3.45.45l.49.39c1.55,1.29,3.48,2.2,5.53,2.68,2.05.46,4.15.47,6.15.02,4.42-1.03,8.11-4.5,10.73-8.49.81-1.24,1.54-2.54,2.18-3.89.31-.67.61-1.36.86-2.04.13-.34.24-.69.35-1.03l.14-.51.1-.42c.03-.19.09-.39.03-.58-.05-.13-.13-.25-.23-.36-.12-.11-.15-.18-.36-.33-.34-.29-.77-.56-1.2-.81-.87-.51-1.82-.98-2.78-1.41-1.93-.86-3.93-1.62-5.94-2.32-3.4-1.18-6.85-2.05-10.3-3.12-.76-.23-1.52-.44-2.27-.74-1.4-.55-2.3-1.02-2.88-1.5-.56-.5-.81-.97-.88-1.5-.03-.25-.09-.51-.06-.7.06-.33.41-.44.95-.44.55,0,1.37.1,2.37.39,3.02.75,6.16,1.68,9.34,2.65,3.19.99,6.42,2.07,9.66,3.38,1.27.52,2.54,1.07,3.83,1.76.64.33,1.3.73,1.98,1.2l.53.41c.18.15.47.42.68.65.43.49.76,1.04,1.03,1.62.1.56.22,1.12.12,1.71-.02.29-.07.58-.13.86-.04.2-.08.38-.13.54-.18.69-.4,1.3-.63,1.92-.46,1.22-1,2.39-1.59,3.52l-.08-.03Z"/><path class="cls-1" d="m368.1,260.56c-.01-.07-.02-.14-.03-.21l.06.47c-.04-.31-.05-.63-.02-.95l-.06.47c.03-.24.09-.46.18-.68l-.18.42c.19-.43.47-.82.76-1.19l-.27.35c.15-.2.29-.4.49-.56l-.35.27s.07-.05.11-.07l-.42.18c.06-.02.11-.04.18-.05l-.47.06s.07,0,.1,0l-.47-.06c.05,0,.1.02.15.04l-.42-.18c.06.03.12.06.18.11l-.35-.27c.06.05.11.1.15.16l-.27-.35c.1.13.17.26.23.41l-.18-.42c.25.61.43,1.31.52,1.97l-.06-.47c.07.53.04,1.05,0,1.58-.04.42.22.95.51,1.24.3.3.8.53,1.24.51s.92-.17,1.24-.51.47-.75.51-1.24c.07-.81.05-1.59-.11-2.39-.06-.32-.15-.63-.25-.94-.14-.46-.27-.95-.53-1.37-.36-.58-.89-1.07-1.57-1.24-.84-.21-1.76.09-2.33.74-.31.36-.6.75-.87,1.13-.17.24-.33.49-.45.76-.25.57-.38,1.04-.44,1.66-.05.51.04,1.03.12,1.54.06.41.47.85.8,1.05.38.22.93.31,1.35.18s.83-.4,1.05-.8l.18-.42c.08-.31.08-.62,0-.93h0Z"/><path class="cls-1" d="m381.48,254.74c-.79,1.2-1.65,2.36-2.6,3.45-.35.4-.66.83-1.05,1.2-1.35,1.3-2.95,2.44-4.8,3.01-.82.24-1.68.39-2.52.36-.27,0-.54,0-.81-.05-.27-.04-.54-.05-.8-.14-.26-.08-.51-.18-.75-.29-.23-.13-.46-.27-.69-.4-.28-.18-.16-.31.17-.42.33-.11.87-.24,1.4-.28.91.09,1.79.04,2.62-.19.83-.21,1.67-.5,2.5-.95,1.01-.52,1.83-1.45,2.61-2.35.87-.99,1.66-2.09,2.38-3.24.44-.71.88-1.43,1.27-2.17.6-1.12,1.18-2.27,1.63-3.46.36-.92.51-1.9.8-2.83.06-.21.1-.42.17-.62.14-.38.26-.62.43-.76.19-.13.4-.18.67-.17.12,0,.25,0,.36,0,.19.03.32.14.43.34.11.19.21.47.17.77-.08,1.85-.74,3.65-1.53,5.4-.58,1.3-1.27,2.57-2.01,3.82l-.05-.02Z"/><path class="cls-1" d="m386.65,244.46l.13.23c.06.3.12.61.16.91.07.29-.04.63-.06.93-.05.31-.14.61-.21.92-.04.18-.07.25-.1.34l-.09.27c-.25.73-.52,1.4-.8,2.07-.57,1.33-1.23,2.6-1.91,3.85-.5.93-.96,1.88-1.53,2.78-.52.79-1.02,1.54-1.63,2.32-.6.8-1.28,1.51-1.99,2.18-1.44,1.32-3.11,2.46-5.03,3.12-1.7.57-3.64.71-5.39.23-.55-.16-1.1-.36-1.62-.59-.48-.29-.97-.58-1.43-.9-.41-.37-.84-.72-1.21-1.13-.17-.21-.31-.45-.47-.68-.14-.24-.22-.53-.32-.79-.19-.7-.23-.53.41-.4.31.08.88.04,1.34.17.24.07.51.1.77.15.25.07.48.17.71.29.38.26.82.34,1.21.51.2.09.39.15.6.17l.57.19c.38.09.76.13,1.13.19.38-.03.75.04,1.13-.05.19-.03.38-.04.57-.08l.57-.16c.39-.08.77-.26,1.17-.39.78-.35,1.57-.79,2.33-1.33.91-.65,1.72-1.52,2.38-2.46.67-.98,1.3-2.1,1.92-3.16,1.34-2.36,2.6-4.87,3.46-7.36.08-.29.21-.53.14-.8-.15-.26-.32-.38-.66-.6-.45-.27-.94-.52-1.46-.76-2.31-1.04-4.79-1.94-7.28-2.63-1.94-.53-3.91-.82-5.87-1.16-.43-.07-.86-.14-1.29-.24-.79-.18-1.3-.38-1.61-.67-.32-.27-.47-.58-.56-1.01-.04-.19-.11-.39-.12-.57-.05-.6.75-1,2.02-1.06,1.86.04,3.71.34,5.55.76,1.85.42,3.7.95,5.55,1.55,1.37.45,2.74.96,4.12,1.54.69.3,1.38.62,2.1,1,.18.1.35.19.54.31l.37.22c.15.09.28.2.42.3.57.39,1.03.88,1.34,1.43l-.07.04Z"/><path class="cls-1" d="m390.23,233.42c-1.06-.32-2.28-.63-3.13-.66-.44-.02-.78.05-.95.14-.18.09-.29.2-.36.43-.11.36.07,1.02.34,1.63.22.53.62,1.1,1.05,1.67.43.55.91,1.09,1.45,1.58,1.05,1.02,2.25,1.93,3.54,2.73,1.14.71,2.39,1.29,3.64,1.78.79.36,1.6.68,2.4,1.02.79.37,1.57.82,2.37,1.22.49.27.39.38-.14.51-.52.11-1.51.37-2.59.31-.93-.14-1.84-.37-2.75-.61-.9-.27-1.75-.69-2.61-1.09-1.7-.84-3.34-1.86-4.81-3.16-.87-.78-1.75-1.6-2.55-2.54-.41-.47-.77-.94-1.14-1.5-.35-.58-.64-1.19-.82-1.87-.19-.74-.28-1.6-.01-2.51.25-.91.97-1.72,1.8-2.1,1.69-.73,3.14-.33,4.35-.11,1.55.33,3.02.81,4.47,1.3,2.18.74,4.3,1.57,6.45,1.94.82.15,1.71.17,2.69.37.49.1,1,.25,1.51.51.51.26.99.62,1.37,1.04.34.37.64.75.86,1.16.67,1.57.47,2.07-.13,2.57-.14.11-.28.25-.43.33-.51.29-1.11-.2-1.64-.99-.41-.57-.77-1.05-1.13-1.3-.34-.24-.7-.37-1.32-.5-.6-.13-1.38-.2-2.28-.36-.88-.16-1.74-.37-2.56-.61-2.47-.71-4.72-1.67-6.95-2.28v-.07Z"/><path class="cls-1" d="m394.69,280.43c-.61-.9-1.21-1.79-1.76-2.73-.58-.91-1.11-1.85-1.63-2.79-.4-.68-.83-1.33-1.18-2.03-.63-1.23-1.17-2.51-1.68-3.79-.47-1.3-.93-2.59-1.34-3.9-.39-1.15-.77-2.3-1.16-3.45-.21-.74-.45-1.48-.65-2.23-.2-.75-.23-1.54-.23-2.33,0-.49.33-.49.83-.2.25.15.56.37.87.64.33.27.61.6.74,1,1.15,2.8,2.25,5.55,3.29,8.42.62,1.72,1.62,3.34,2.55,4.95.49.9,1.04,1.76,1.56,2.65.57.85,1.1,1.74,1.7,2.57l1.11,1.55c.38.51.78,1,1.18,1.49,1.2,1.5,2.48,2.96,3.89,4.25.56.48,1.16.92,1.76,1.34.6.42,1.24.78,1.85,1.18.27.17.53.35.8.52.96.7,1.12,1.12.84,1.99-.06.2-.11.41-.2.59-.28.62-1.01.78-1.91.43-1.36-.48-2.58-1.26-3.76-2.12-.58-.44-1.14-.91-1.71-1.38-.54-.5-1.07-1.01-1.6-1.53-.78-.77-1.5-1.6-2.22-2.43-.69-.86-1.38-1.71-2.01-2.6l.07-.06Z"/><path class="cls-1" d="m405.33,267.86c-.12-.37-.2-.76-.24-1.1,0-.32-.03-.68.01-.96.06-.6.19-1.12.34-1.62.31-.98.72-1.84,1.15-2.67.88-1.64,1.88-3.13,2.93-4.58.78-1.04,1.52-2.11,2.36-3.09,1.48-1.73,3.04-3.38,4.68-4.97.82-.79,1.67-1.56,2.56-2.3.45-.37.92-.73,1.43-1.07.27-.17.53-.34.9-.51.2-.07.41-.14.61-.18l.5-.06c2.22-.2,4.37.26,6.29,1.08,1.24.53,2.42,1.19,3.49,2.03.52.43,1.05.86,1.45,1.43.39.56.73,1.17.96,1.81.28.81.02.78-.69.48-.34-.16-.89-.32-1.43-.53-.29-.1-.59-.18-.87-.32-.27-.14-.51-.33-.77-.51-1.79-1.39-3.99-2.28-6.11-2.67-.53-.1-1.06-.13-1.58-.12-.13,0-.25,0-.38.02-.12.01-.28.03-.31.02,0,0-.1,0-.34.15-.88.51-1.89,1.37-2.84,2.16-2.3,1.97-4.3,4.48-6.21,6.93-1.05,1.35-2.06,2.73-2.98,4.14-.9,1.41-1.74,2.91-2.16,4.37-.14.45-.18.88-.17,1.25.04.34.12.56.32.75.16.15.45.27.71.22.28-.03.75-.21,1.18-.43.34-.17.69-.35,1.04-.55.31-.16.58-.36.88-.6.6-.48,1.19-1.04,1.83-1.58.31-.27.67-.56,1.04-.81l1.06-.68c.69-.43,1.38-.86,2.05-1.29.51-.34,1.03-.7,1.42-1.05.4-.38.86-.85,1.27-1.29.84-.89,1.64-1.81,2.45-2.74.36-.41.68-.83,1.07-1.25,1.4-1.54,2.32-1.92,3.09-1.48.18.09.37.17.49.28.2.19.16.48.02.84-.14.38-.43.76-.87,1.29-1.3,1.62-2.79,3.51-4.47,5.17l-.63.63-.32.31-.16.16-.23.2c-.58.48-1.07.8-1.59,1.15-.97.63-1.95,1.25-2.93,1.88-.31.21-.47.34-.76.59l-.83.75c-.59.54-1.17,1.11-2.06,1.72-.27.17-.44.26-.61.36l-.56.31c-.38.21-.79.42-1.28.61-.26.1-.52.19-.86.26-.35.08-.76.12-1.14.09-.79-.05-1.49-.36-2.14-.88l-.65-.71c-.18-.26-.32-.56-.45-.85l.06-.03Z"/><path class="cls-1" d="m422.86,181.61c.77,1.43,1.23,2.99,1.77,4.51.58,1.49.92,3.17,1.18,4.75.49,3.21.59,6.44.23,9.66-.34,3.21-1.13,6.42-2.51,9.41-.69,1.49-1.51,2.95-2.51,4.28-.47.69-1.04,1.3-1.58,1.93-.59.59-1.15,1.21-1.8,1.73-3.68,3.19-8.28,5.15-12.89,5.86-2.04.37-4.08.47-6.11.53-1.01-.01-2.02-.03-3.04-.07l-1.54-.12-1.52-.19c-4.03-.6-7.91-1.71-11.63-3.18-7.44-2.92-14.26-7.21-20.21-12.46-5.28-4.65-9.93-10.1-13.47-16.14-2.27-3.88-4.19-8-5.48-12.32-1.25-4.32-2.07-8.82-1.76-13.3.14-1.4.22-2,.29-1.96.08.03.19.71.57,1.84.22.56.39,1.25.71,2.01.09.19.14.39.26.59.06.21.14.41.21.63.15.43.3.88.46,1.35.72,1.86,1.46,4.01,2.16,6.35.68,2.06,1.41,4.09,2.19,6.1l1.32,2.96c.5.96.96,1.94,1.49,2.88,2.09,3.78,4.6,7.33,7.46,10.6,2.85,3.28,6.11,6.2,9.6,8.83,3.48,2.64,7.24,4.93,11.19,6.89,4.7,2.33,9.87,4.12,15.13,4.8,5.21.57,10.8.25,15.64-1.49,2.66-.97,5.12-2.42,7.14-4.35,1.02-.96,1.89-2.06,2.69-3.21.77-1.18,1.42-2.44,1.97-3.75,2.13-5.3,2.42-11.41,1.34-17.1-.31-1.75-1-3.42-1.58-5.12l-.22-.64-.3-.61-.59-1.22c-.41-.8-.74-1.65-1.26-2.39l-1.45-2.29c-.5-.75-1.11-1.43-1.66-2.15l-.84-1.07c-.29-.35-.63-.66-.94-.99l-1.9-1.96c-4.04-3.76-8.8-6.78-13.87-9.09-5.08-2.31-10.47-3.91-15.94-4.85-4.26-.69-8.54-.96-12.77-.88-4.19.14-8.36.87-12.41,1.99-1.78.52-3.5,1.1-5.24,1.76-3.24,1.21-5.31,2.14-6.83,2.69-.77.26-1.37.47-1.93.56-.56.08-1.04.1-1.5.07-.42-.03-.93.01-1.23-.07-.96-.18,1-2.69,5.85-5.16,3.58-1.82,7.42-3.24,11.42-4.27,4-1.01,8.19-1.64,12.46-1.65,4.19,0,8.4.33,12.58,1.01,1.05.17,2.08.41,3.12.62l1.56.32c.52.12,1.03.27,1.54.41l3.08.85,3.03,1.03c5.96,2.16,11.73,5.11,16.77,9.16,5.04,4.02,9.35,9.14,12.16,15.06l-.08.06Z"/><path class="cls-1" d="m392.36,262.14c-.05-.21-.09-.41-.12-.62l-.02-.59c-.02-.35.04-.62.06-.92.08-.58.2-1.11.36-1.6.3-.99.68-1.89,1.1-2.75.83-1.72,1.79-3.3,2.8-4.83.74-1.12,1.43-2.26,2.24-3.32,1.44-1.86,2.96-3.64,4.62-5.33.84-.84,1.7-1.66,2.69-2.43.51-.38,1-.76,1.8-1.09.22-.09.35-.11.51-.15l.46-.11c.31-.07.61-.16.94-.18,1.13-.19,2.37-.15,3.53.16,1.18.31,2.23.96,3.09,1.69,1.1.95,2.04,1.98,2.75,3.11.37.56.7,1.12,1.02,1.68.18.27.28.59.38.91.11.32.23.62.35.93.28.78.12.8-.66.53-.49-.17-1.06-.36-1.65-.57-.63-.28-1.19-.74-1.7-1.27-.43-.48-.9-.91-1.28-1.37-.39-.45-.78-.85-1.17-1.21-.79-.71-1.55-1.1-2.38-1.26-.82-.19-1.82-.15-2.91.12-.14-.04-.65.25-1.11.58-.47.32-.96.71-1.44,1.11-2.32,1.97-4.25,4.65-6.1,7.23-1.02,1.42-1.99,2.88-2.86,4.38-.85,1.5-1.65,3.05-2.08,4.59-.12.49-.23,1.01-.22,1.4,0,.28.05.58.26.79.17.18.43.28.69.29.14,0,.23,0,.42-.05.19-.04.38-.1.59-.18,1.33-.52,2.67-1.5,3.9-2.53,1.24-1.05,2.42-2.2,3.51-3.41.69-.76,1.34-1.56,1.96-2.37l.91-1.23,1.12-1.57c.23-.32.5-.49.76-.73.3-.18.68-.21,1.02-.17.81.07,1.68.48,2.41.99,2.04,1.47,2.2,2.86,1.52,3.54-.16.17-.32.35-.51.43-.31.13-.65.01-.93-.13-.3-.15-.62-.39-1.07-.76-.22-.17-.44-.33-.7-.47-.06-.03-.14-.08-.17-.1l-.08-.02c-.05-.02-.09-.01-.12-.01-.07,0-.13.01-.18.04-.06.02-.06.13-.08.17v.08s-.09.12-.14.19l-.18.25-.74.99c-.5.66-1.03,1.3-1.57,1.94-1.09,1.28-2.25,2.52-3.51,3.71-1.23,1.14-2.51,2.25-4.07,3.22-.79.48-1.64.94-2.77,1.24-.27.06-.67.16-1.06.16-.39.03-.78,0-1.16-.07-.76-.14-1.44-.52-2.01-1.01-.5-.58-.95-1.23-1.12-2l.07-.03Z"/><path class="cls-1" d="m428.97,260.73c-3.1.59-6.23,1.76-9.15,3.25-1.06.55-2.06,1.22-3.05,1.85-.88.55-1.71,1.16-2.44,1.8-.19.16-.34.32-.51.48-.04.04-.07.08-.11.12l-.04.04s-.06.06-.09.09c-.12.14-.24.32-.23.53.01.21.16.37.34.47.09.05.19.09.3.13.07.02.07.02.19.05.1.03.22.04.34.05.93.13,1.99.11,3.03.03,1.87-.15,3.76-.56,5.6-1.04,2.36-.65,4.7-1.42,7.28-1.48.8-.03.73.09.21.62-.51.55-1.41,1.71-2.74,2.34-1.19.49-2.4.95-3.66,1.26-1.25.35-2.52.65-3.82.9-1.3.24-2.62.44-4.02.48-.7.02-1.42.02-2.19-.1-.19-.02-.38-.06-.59-.11-.29-.05-.56-.13-.83-.23-.27-.09-.53-.18-.76-.33l-.36-.19-.31-.25c-.49-.39-.85-.91-1.05-1.49-.15-.59-.19-1.22.02-1.8.07-.3.22-.58.38-.86.15-.29.31-.55.54-.82.23-.3.33-.4.5-.58.16-.16.31-.34.47-.48,1.27-1.19,2.62-2.16,4.02-2.99,3.08-1.8,6.33-3.21,9.75-4.21,2.11-.59,4.29-1.05,6.62-.96.88.03,1.79.19,2.69.55.45.17.88.44,1.28.74l.56.53.41.51c1.1,1.36,1.84,2.94,2.36,4.55.79,2.51,1.14,5.09,1.09,7.66-.01.56,0,1.12-.07,1.69-.27,2.09-.79,2.66-1.63,2.92-.2.06-.4.15-.58.16-.63.05-.93-.86-.99-2.29-.03-1.07.03-2.11,0-3.15-.02-1.04-.09-2.07-.21-3.08-.27-2.01-.78-3.94-1.78-5.53-.19-.29-.38-.58-.59-.85l-.33-.4c-.1-.11-.14-.12-.2-.19-.25-.22-.73-.42-1.34-.53-1.23-.23-2.82-.07-4.34.24l-.02-.08Z"/><path class="cls-1" d="m255.15,268.64c.96,3.38,1.52,6.77,1.65,10.27.03,1.28.1,2.58-.14,3.95-.1.6-.27,1.23-.52,1.88-.16.34-.29.65-.56,1.02-.12.2-.29.34-.45.51l-.24.24-.28.19-.28.19-.32.11c-.21.07-.42.16-.64.17l-.66.09-.56-.02c-.74-.06-1.45-.28-2.05-.62-1.22-.65-2.04-1.58-2.73-2.51-.69-.94-1.24-1.92-1.72-2.91-.88-1.75-1.56-3.57-2.14-5.37-.38-1.16-.73-2.32-1.02-3.51l-.21-.89-.13-.91c-.09-.6-.15-1.21-.17-1.82-.02-.77,0-.67.37-.11.36.56,1.22,1.54,1.8,2.79.9,2.25,1.9,4.45,2.98,6.53.95,2.11,2.04,4.23,3.44,5.6.41.4.87.68,1.32.78.21.05.47.06.64.06.12-.01.25-.02.34-.1.06-.02.09-.07.14-.12.03-.05.06-.1.12-.2.09-.21.18-.47.25-.76.14-.58.2-1.27.24-1.95.12-3.06-.36-6.33-1.13-9.44-.48-1.92-1.1-3.82-1.97-5.52-.33-.64-.7-1.25-1.1-1.73l-.31-.33c-.11-.08-.16-.15-.32-.24-.26-.18-.57-.34-.88-.5-1.29-.6-2.72-1.02-4.15-1.22-2.24-.33-4.47.04-6.51.68-.45.16-.86.37-1.31.51-.81.33-1.39.44-1.83.48-.46,0-.82-.15-1.21-.44-.18-.13-.39-.24-.53-.38-.25-.24-.26-.56-.06-.98.21-.4.59-.97,1.28-1.37,1.97-1.33,4.44-1.98,6.91-2.16,2.5-.17,5.02.21,7.44,1.05.91.32,1.77.69,2.76,1.29.21.11.59.42.84.63.21.22.45.44.63.66.37.44.67.88.93,1.31,1.02,1.73,1.64,3.41,2.18,5.11l-.08.03Z"/><path class="cls-1" d="m229.6,259.2c.58.33,1.16.66,1.69,1.03.52.41,1.06.77,1.51,1.24.34.33.75.57,1.02.96,1.01,1.32,1.74,2.76,2.28,4.21.23.64.51,1.27.66,1.92.24.82.47,1.66.32,2.55-.03.27-.08.24-.28.06-.15-.13-.3-.26-.42-.36-.19-.14-.35-.32-.46-.53-.39-.73-.84-1.41-1.25-2.07-.18-.35-.36-.69-.55-1.02-.18-.35-.37-.68-.56-1.02-.42-.85-1.25-1.41-1.92-2.03-.78-.64-1.57-1.3-2.52-1.73-.55-.33-1.18-.5-1.78-.73l-1.44-.34c-.49-.06-1-.1-1.49-.12-.78.05-1.53.29-2.27.54-.16.06-.32.15-.48.17-.62.09-.85-.13-1.13-.97-.06-.19-.14-.38-.19-.57-.18-.65,0-1.23.49-1.54.72-.49,1.52-.72,2.37-.82.42-.05.85-.11,1.28-.1.44.02.88.05,1.32.09,1.31.12,2.6.58,3.83,1.11l-.03.07Z"/><path class="cls-1" d="m213.78,259.17c.79-.23,1.67-.41,2.7-.4.58,0,.88.09,1.29.14.38.05.78.15,1.16.23.56.14,1.15.19,1.7.42,1.95.78,3.67,2.2,4.73,3.85.47.73.95,1.44,1.33,2.19.53.93.9,1.94,1.06,2.99.05.33-.15.36-.49.21-.34-.15-.88-.46-1.26-.9-.67-.79-1.18-1.62-1.82-2.3-.61-.71-1.26-1.29-1.88-1.93-.76-.78-1.9-1.04-2.98-1.3-.6-.15-1.23-.28-1.88-.34l-.49-.06c-.15-.01-.24,0-.37-.01-.25.01-.53.03-.82.11-.72.16-1.49.44-2.24.79-1.15.52-2.32,1.11-3.38,1.85-.83.58-1.52,1.33-2.29,2.01-.17.15-.32.32-.5.46-.69.5-1.06.44-1.68-.23-.14-.15-.29-.3-.42-.46-.43-.55-.45-1.22-.07-1.72,1.12-1.5,2.66-2.64,4.36-3.69,1.28-.77,2.62-1.48,4.23-1.98l.03.08Z"/><path class="cls-1" d="m79.26,321.11c-.25-.58-.36-1.2-.09-2.24.33-1.07.99-2.41,1.84-3.82.43-.71.9-1.42,1.39-2.13l.7-1.01.46-.64c.55-.76,1.11-1.5,1.69-2.24,1.15-1.48,2.34-2.92,3.63-4.32.64-.7,1.31-1.39,2.02-2.06.36-.34.73-.67,1.12-.99.41-.34.8-.61,1.17-.88,5.98-4.43,12.37-8.21,18.93-11.57,4.81-2.42,9.66-4.75,14.64-6.75,17.58-7,35.97-11.8,54.65-14.44,8.29-1.15,16.69-1.97,25.03-2.04,5.35-.06,10.74.11,16.09.81l4,.64c1.32.31,2.66.53,3.96.92,1.29.43,2.6.79,3.87,1.28.64.24,1.25.54,1.87.8.61.29,1.27.49,1.8.96,1.4,1,1.98,1.44,1.9,1.5-.08.06-.86-.22-2.29-.4-.09-.01-.18-.02-.27-.03-.12.05-.19-.02-.29-.03-.19-.04-.39-.08-.6-.1-.43-.05-.88-.1-1.37-.15-.24-.02-.49-.07-.75-.07-.25-.04-.51-.08-.78-.13-.52-.1-1.1-.13-1.69-.2-1.18-.13-2.44-.29-3.79-.43-.67-.09-1.35-.2-2.05-.32-.7-.1-1.43-.2-2.16-.3-5.21-.79-10.52-1.1-15.85-1.13-5.33-.04-10.68.24-16.01.73-10.69.92-21.34,2.7-31.93,5.06-12.66,2.86-25.5,7.27-37.62,12.63-6.66,2.95-13.16,6.27-19.34,10.09-1.57.92-3.04,1.98-4.57,2.97-1.47,1.03-2.99,2.13-4.37,3.17-1.3,1.08-2.54,2.4-3.72,3.75-1.18,1.36-2.31,2.77-3.39,4.22l-.98,1.34-.54.76c-.3.43-.59.87-.88,1.34-.14.23-.28.47-.4.72-.1.24-.3.51-.21.78.12.06.25-.05.36-.1l.34-.2.68-.41c.46-.28.94-.54,1.42-.82l.38-.21.73-.38,1.45-.76c1.95-1.01,4.05-2.05,6.1-2.98,12.49-5.83,25.58-10.33,38.69-14.1,10.2-2.9,20.29-5.46,30.7-7.11,2.3-.34,4.55-.68,6.89-.89,8.68-.75,11.7.12,13.35,1.3.38.3.86.64,1.03.88.27.43-.44.45-1.91.36-1.47-.1-3.84-.12-6.91.02-4.56.2-9.2.87-13.86,1.65-4.67.8-9.36,1.78-14.06,2.87-9.4,2.21-18.85,4.87-28.15,8.01-6.9,2.34-13.75,4.9-20.42,7.85l-2.49,1.12-2.45,1.2c-.82.39-1.63.81-2.43,1.23-.82.43-1.58.79-2.46,1.31l-2.56,1.45-4.78,2.86-1.2.72s-.11.07-.14.08h-.06s-.12,0-.12,0h-.25s-.99-.05-.99-.05c-.32-.02-.68-.02-.98-.04-.08-.05-.15-.08-.33-.24-.23-.21-.31-.37-.4-.51l.07-.07Z"/><path class="cls-1" d="m368.45,315.34c6.24-3.69,12.73-6.92,19.4-9.7l3.64-1.54c1.22-.5,2.45-.96,3.69-1.42,4.39-1.54,8.82-2.94,13.34-4.02,4.52-1.08,9.08-2.03,13.71-2.54,4.1-.45,8.25-.82,12.38-.77,1.32.05,2.65.14,3.98.21,1.32.18,2.65.3,3.97.56l1.96.44c.65.14,1.31.3,1.93.58l1.87.74c.6.3,1.17.69,1.74,1.04,1.39.96,1.11.94-.36.9-1.48-.07-4.04.08-6.83-.39-2.48-.44-5.03-.55-7.58-.6h-3.84s-3.86.2-3.86.2c-5.16.38-10.32,1.19-15.5,2.18-6.2,1.21-12.44,3.4-18.47,5.73-6.65,2.55-13.13,5.57-19.37,9.02-3.85,2.11-7.59,4.43-11.23,6.88-5.49,3.75-10.77,7.89-15.42,12.56-3.64,3.61-6.72,7.6-9.49,11.77-.61.92-1.19,1.83-1.73,2.8-2.22,3.46-2.99,4.52-4.14,4.95-.26.1-.54.27-.75.3-.69.12-.4-1.65.79-4.63.97-2.15,2.2-4.2,3.53-6.2.63-1.03,1.36-1.99,2.09-2.96.73-.97,1.45-1.96,2.26-2.87,3.09-3.79,6.66-7.24,10.38-10.49,5.55-4.8,11.6-9.02,17.86-12.81l.05.07Z"/><path class="cls-1" d="m408.86,315.02c-7.34,1.03-14.62,2.53-21.74,4.64-1.31.35-2.57.84-3.85,1.27l-1.92.66-1.9.71c-4.51,1.55-8.86,3.52-13.17,5.56l-3.16,1.67-1.58.83-1.54.91-3.08,1.82-2.98,1.98c-3.53,2.35-6.8,5.1-9.91,7.93-.99.92-1.91,1.91-2.86,2.87l-1.42,1.45c-.44.51-.89,1.02-1.35,1.51-.91,1-1.88,1.95-2.78,2.96l-1.33,1.53c-.45.5-.97.96-1.46,1.44-1.28,1.15-1.25.91-.77-.53.44-1.46,1.39-4.16,3.45-6.64,3.54-4.48,7.81-8.33,12.27-11.87,1.14-.86,2.23-1.79,3.42-2.57l3.54-2.4c1.2-.77,2.45-1.47,3.67-2.2,1.22-.75,2.49-1.4,3.77-2.04,6.08-3.1,12.5-6.14,19.09-8.43,7.24-2.5,14.68-4.37,22.19-5.7,4.62-.84,9.29-1.42,13.96-1.85,7.08-.64,14.23-.77,21.28-.54,5.48.21,10.88.51,16.3,1.5.6.11,1.19.2,1.78.33.59.14,1.18.28,1.78.42,4.43,1.2,5.71,2.38,6.1,3.64.09.29.23.61.23.84,0,.4-.48.5-1.27.38-.77-.15-1.96-.38-3.42-.83-4.43-1.2-9.22-1.89-14.09-2.33-4.88-.44-9.88-.62-14.88-.56-7.44.04-14.92.64-22.31,1.73l-.02-.09Z"/><path class="cls-1" d="m459.84,360.35c3.49.37,6.98.75,10.47,1.23,3.51.5,6.95.97,10.57,1.87,1.91.49,3.67,1.28,5.31,2.26.83.5,1.59,1.02,2.42,1.7,1.12.93,2.19,2.17,2.6,3.38.24.61.28,1.23.19,1.85-.15.61-.4,1.25-.91,1.66l-.17.17s-.07.05-.07.1l-.08.06c-.12.09-.22.15-.33.22-.25.12-.52.2-.84.27-.59.19-1.39.14-2.14.11l-1.89-.14-1.31-.12-2.61-.25c-5.07-.49-10.14-.87-15.2-1.29-17.85-1.52-35.75-2.36-53.68-2.38-7.95,0-15.95.18-23.81.68-10.11.63-20.16,1.93-30.12,3.53-3.14.4-2.76.26-.28-.9,2.46-1.19,7.21-3.06,13.06-3.96,10.38-1.47,20.81-2.07,31.23-2.31,10.43-.2,20.86-.09,31.34.35,12.52.52,25.56,1.06,38.34,2.12l10.52.92,4.05.34c.16,0,.34.04.49-.04.13-.1.26-.23.27-.4.04-.34-.2-.63-.41-.88-.11-.12-.24-.25-.41-.38l-.06-.05-.12-.09-.24-.18c-.16-.12-.31-.24-.49-.35-.66-.46-1.38-.86-2.1-1.24-.73-.37-1.48-.71-2.23-.98-.76-.25-1.53-.47-2.38-.65-3.33-.74-6.82-1.23-10.28-1.7-8.54-1.12-17.16-1.89-25.77-2.53-13.05-.93-26.2-1.58-39.19-1.64-10.09-.04-19.99.38-29.89,1.27-2.18.22-4.3.47-6.48.74-4.04.5-6.66.93-8.52,1.14-.92.12-1.67.17-2.3.15-.63,0-1.14-.05-1.63-.15-.44-.1-1.01-.15-1.3-.28-1-.37,2.1-2.23,8.15-3.41,8.94-1.7,18.19-2.36,27.55-2.69,9.36-.32,18.85-.23,28.35.05,14.1.44,28.24,1.37,42.33,2.76v.09Z"/><path class="cls-1" d="m335.62,378.04c-2.65.3-5.31.37-7.99.17-.97-.08-1.96-.07-2.94-.26-1.72-.32-3.43-.81-5.07-1.58-.82-.39-1.61-.85-2.35-1.42-.19-.14-.37-.29-.54-.44-.19-.17-.39-.4-.57-.61-.35-.44-.65-.94-.8-1.46-.62-1.89-.1-3.74.77-5.15.56-.93,1.37-1.7,2.32-2.23.48-.26.98-.46,1.52-.55.55-.03,1.07-.05,1.58.06.64.12.5.34.07.77-.22.21-.5.5-.76.87l-.2.26c-.06.09-.11.22-.18.29-.13.16-.28.28-.41.42-.99.91-1.68,2.18-1.73,3.22-.02.52.09.86.28,1.14.07.06.13.13.19.21.13.11.29.22.42.36.27.26.6.49.92.73,1.62,1.12,3.86,1.46,6,1.71,2.38.29,4.85.3,7.3.08,1.51-.13,3.02-.34,4.51-.66,2.25-.48,4.51-1.09,6.57-2.06,1.61-.74,2.97-1.85,4.25-2.89.26-.24.52-.48.79-.73.99-.87,1.36-1.03,2.26-.73.2.07.42.11.61.2.32.14.5.41.51.8.02.4-.13.91-.48,1.44-1.03,1.57-2.41,2.92-3.98,3.88-1.56.99-3.25,1.76-4.97,2.37-2.56.91-5.21,1.48-7.87,1.86l-.02-.09Z"/><path class="cls-1" d="m322.7,385.28c2.74.55,5.6.76,8.46.79,1.05.01,2.08-.15,3.13-.19,3.68-.2,7.37-.81,10.88-1.97l1.16-.42,1.12-.5c.77-.3,1.46-.72,2.18-1.1,1.8-1.07,3.35-2.41,4.85-3.9.49-.46.58-.32.49.31-.04.32-.12.77-.25,1.33-.19.51-.48,1.08-.88,1.64-1.5,1.88-3.38,3.43-5.42,4.65-2.1,1.09-4.34,1.9-6.64,2.27-2.74.48-5.53,1.15-8.35,1.37-3.09.25-6.2.16-9.28-.25-1.89-.28-3.78-.61-5.63-1.15-2.8-.78-5.56-1.98-7.94-3.91-.93-.73-1.77-1.61-2.49-2.63-.32-.53-.63-1.09-.88-1.67l-.29-.91c-.1-.31-.19-.62-.2-.94-.04-.55-.2-1.12-.13-1.67.06-.51.13-.94.21-1.29.09-.35.25-.59.39-.79.3-.39.66-.55,1.15-.59.23-.02.45-.06.66-.04.71.09,1.07.95,1.08,2.03.08,1.65.52,2.96,1.38,4.04.84,1.08,2.05,2.09,3.56,2.89,2.25,1.18,4.92,2.04,7.69,2.49v.09Z"/><path class="cls-1" d="m220.88,379.52c-12.94,3.16-25.77,6.84-38.57,10.6-4.64,1.47-9.28,2.94-13.92,4.41-4.11,1.23-8.17,2.61-12.26,3.91l-6.12,1.98-3.06.99-.54.18c-.22.06-.42.15-.63.19l-1.17-.23-1.59-.33c-8.47-1.85-16.75-4.25-24.98-6.78-7.3-2.28-14.62-4.59-21.76-7.16-4.58-1.67-9.16-3.38-13.65-5.32-2.24-.97-4.47-1.99-6.66-3.1-2.19-1.11-4.35-2.29-6.34-3.79-1.23-.96-1.62-1.57-1.53-1.58.12-.05.72.41,1.88.96,2.33,1.09,6.75,2.62,11.97,4.54,9.22,3.47,18.66,6.43,28.04,9.57,9.42,3.03,18.93,5.89,28.55,8.35,1.44.36,2.89.72,4.35,1.04.73.17,1.46.32,2.19.47l.4.08c.06,0,.11.04.17.01l.79-.25c2.89-.96,5.8-1.92,8.72-2.89,2.91-.98,5.84-1.96,8.76-2.94,2.94-.93,5.87-1.86,8.79-2.78,3.22-1,6.43-2.03,9.66-2.99l9.71-2.84c6.45-1.95,12.99-3.62,19.49-5.42,8.04-2.07,16.09-4.12,24.18-5.93,12.26-2.77,24.66-5.22,37.02-7.05,9.61-1.38,19.07-2.63,28.73-2.99,1.06-.04,2.12-.08,3.17-.12,1.05-.05,2.12,0,3.19.01,7.99.14,10.52,1.03,12.06,2.12.35.26.82.53,1.01.77.31.39-.35.62-1.78.69-.72.03-1.63.03-2.71-.02-1.09,0-2.36,0-3.77-.05-8.41-.27-17.11.32-25.88,1.26-4.39.4-8.8,1.1-13.23,1.67-2.21.36-4.42.71-6.64,1.07l-3.33.53-3.32.62c-3.28.64-6.59,1.17-9.87,1.88-3.28.69-6.57,1.37-9.86,2.06-6.54,1.53-13.11,2.98-19.61,4.7l-.04-.08Z"/><path class="cls-1" d="m316.6,269.48c-.63,1.75-.07,3.77.96,5.24s2.53,2.8,4.23,3.55c1.05.46,2.12.78,3.28.79.98,0,1.92-.87,1.88-1.88s-.82-1.87-1.88-1.88c-.11,0-.22,0-.33-.01-.18-.01-.54-.13.08.02-.2-.05-.4-.07-.6-.13s-.4-.12-.6-.19c-.15-.06-.51-.27.02.02-.11-.06-.23-.1-.34-.16-.4-.2-.78-.43-1.14-.68-.12-.09-.45-.4,0,0-.09-.09-.2-.16-.3-.24-.17-.15-.33-.3-.49-.45s-.3-.32-.45-.48c-.1-.12-.32-.49,0,.02-.07-.1-.14-.2-.21-.3-.12-.17-.22-.35-.32-.53-.05-.1-.1-.21-.16-.31-.14-.28.17.45.06.13-.07-.21-.14-.42-.19-.64-.02-.08-.03-.16-.04-.24.14.63.04.29.03.1,0-.09,0-.19,0-.28,0-.18.1-.47-.03.14.05-.21.09-.41.16-.62.33-.92-.37-2.09-1.31-2.31-1.05-.24-1.95.32-2.31,1.31h0Z"/><path class="cls-1" d="m322.2,209.73c.22-.3.44-.45.68-.46.14-.01.29-.09.44-.14.11-.04.23-.1.35-.1.32,0,.66-.12.99-.27.61-.21,3.68.16,3.99.21.47.05,1.9.24,2.16.12.27-.14,1.44.1,1.79,0,.14-.04.27-.02.4.01.54.14,1.19-.39,1.74-.24.34.09.69.11,1.04.15.08.01.17-.01.25.02.86.35,1.81.19,2.7.46.18.05.36.11.54.17.11.03.22.1.35.08.69-.08,1.28.27,1.88.55.08.04.15.12.24.1.55-.16.94.26,1.44.31.16.02.3.1.45.17.12.05.21.15.34.16.59.04,1.07.3,1.63.49.04.01.07.04.11.04.7-.02,1.14.47,1.59,1.03.27.32.54.61,1.05.54.1,0,.2.01.24.1.22.43.58.66.88.96.01.01,0,.06,0,.08.03.08-.72.98-.89,1.17-.18.18-2.39,2.31-2.46,2.38-.08.04-.17.1-.21.09-.13-.01-.31.07-.67.42-.19.19-.26.2-.27.14-.01-.28-.24-.42-.43-.56-.21-.13-.39-.25-.6-.43-.18-.15-.42-.18-.62-.28-1.02-.51-2.19-.94-3.39-1.32-.22-.06-.42-.16-.61-.34-.17-.16-.37-.26-.58-.32-.35-.11-.72-.12-1.08-.21l-1.53-.37c-.86-.21-1.73-.4-2.61-.58-.03,0-.06-.03-.09-.02-.59.28-2.2-.22-2.31-.23-.49-.07-.97-.11-1.45-.22-.48-.11-.97-.1-1.45-.25-.42-.13-.85-.13-1.28-.19-.06,0-.13,0-.19-.02-.34-.12-1.22-.31-2.06-.48-.42-.05-.83-.26-1.15-.35-.33-.11-.57-.19-.66-.22-.08-.02-.15-.1-.21-.23-.05-.12-.13-.19-.19-.3-.05-.11-.08-.28-.14-.36-.06-.09-.15-.11-.22-.18-.07-.07-.09-.23-.06-.39.03-.18.11-.74.13-.9Z"/><path class="cls-1" d="m382.27,225.39c-.24.24-.42.31-.56.27-.09-.03-.2.01-.3.02-.08,0-.16.03-.23,0-.18-.08-.41-.05-.65.01-.22.06-.79-.01-1.33-.11-.53-.12-1-.35-1.1-.37-.28-.08-1.11-.38-1.3-.26-.2.12-.87-.17-1.1-.06-.09.04-.17.02-.24-.02-.32-.15-.78.37-1.1.27-.2-.07-.41-.07-.62-.09-.05,0-.11.03-.15,0-.5-.27-1.08-.03-1.6-.14-.11-.03-.21-.06-.31-.1-.07-.02-.13-.08-.2-.05-.4.18-.74-.08-1.1-.27-.05-.02-.09-.1-.14-.05-.3.28-.55-.06-.83,0-.09.02-.17-.03-.26-.05-.07-.02-.13-.09-.2-.06-.31.14-.61,0-.91.05-.02,0-.04-.01-.06,0-.33.3-.63-.04-.94-.28-.19-.15-.39-.27-.57.05-.04.06-.07.11-.11.07-.19-.21-.38-.17-.57-.22,0,0-.02-.04-.03-.06-.03-.04-.11-1.2-.12-1.45-.01-.25.01-3.26.05-3.35.03-.08.06-.18.09-.2.1-.07.19-.25.26-.74.03-.26.1-.33.16-.28.48.34.94.13,1.41.28.2.07.39,0,.59,0,.98.05,1.94.17,2.9.29.17.02.33.09.48.23.14.14.29.2.45.22.26.05.54,0,.8.08.37.09.74.19,1.11.3.61.18,1.22.39,1.83.6.02,0,.04.03.06.02.45-.28,1.54.27,1.62.3.33.1.67.17.99.32.32.15.67.19.97.38.26.18.56.23.84.34.04.02.09.01.13.04.41.38,2.1,1.57,2.29,1.73.05.03.07.11.06.24,0,.12.03.19.02.3,0,.11-.04.27-.04.36,0,.09.05.13.08.2.02.07-.02.23-.11.38-.08.16-.35.68-.42.83Z"/><path class="cls-1" d="m333.19,147.2c.3.34.58.69.86,1.05.09.11.13.18.02.02.07.09.14.18.2.27.13.18.27.37.4.55.54.76,1.04,1.55,1.5,2.36s.86,1.59,1.24,2.42c.05.1.09.21.14.31.01.03.15.35.07.17s.06.14.07.17c.04.1.08.21.13.32.18.45.34.9.5,1.36.32.93,1.3,1.63,2.31,1.31.92-.3,1.65-1.31,1.31-2.31-1.34-3.92-3.4-7.5-6.1-10.64-.64-.75-2-.71-2.65,0-.73.79-.68,1.86,0,2.65h0Z"/><path class="cls-1" d="m347.47,153.55c1.51-1.13,3.01-2.26,4.52-3.39.41-.3.72-.61.86-1.12.12-.45.07-1.05-.19-1.44s-.64-.75-1.12-.86-1.05-.11-1.44.19c-1.51,1.13-3.01,2.26-4.52,3.39-.41.3-.72.61-.86,1.12-.12.45-.07,1.05.19,1.44s.64.75,1.12.86,1.05.11,1.44-.19h0Z"/><path class="cls-1" d="m40.35,357.83c2.35.05,4.71.08,7.06.05.86,0,1.71-.11,2.57-.12,3.03-.04,6.07,0,9.1-.14,1.34-.07,2.69-.16,4.02-.27.86-.07,1.7-.2,2.57-.21.86-.03,1.74.08,2.62.18.55.07.48.08.05.31-.21.12-.51.31-.87.57-.36.27-.79.54-1.27.7-.21.08-.42.16-.64.22l-.65.14-1.3.27c-.87.18-1.74.33-2.61.47-1.75.23-3.52.31-5.31.34-2.13.02-4.32.36-6.5.46-2.39.12-4.78.18-7.17.23l-4.41.06c-2.23.03-4.46-.03-6.67.05-1.72.05-3.4.32-5.1.42-.37.03-.74.08-1.12.08-1.4,0-1.84-.28-2.13-1.09-.07-.19-.15-.37-.19-.55-.13-.62.45-1.14,1.47-1.39,3.02-.69,6.18-.76,9.36-.82,2.36-.05,4.74-.03,7.11-.03v.08Z"/><path class="cls-1" d="m134.47,186.11c.3,4.16-6.11,4.92-7.72,1.53-2.35-4.94,6.26-7.44,7.59-2.31.07.27.11.53.13.78Z"/><path class="cls-4" d="m170.45,194.81c.21,2.87-4.21,3.39-5.33,1.06-1.62-3.41,4.32-5.13,5.24-1.59.05.19.08.37.09.54Z"/><path class="cls-3" d="m268.69,107.9c.21,2.87-4.21,3.39-5.33,1.06-1.62-3.41,4.32-5.13,5.24-1.59.05.19.08.37.09.54Z"/><path class="cls-1" d="m456.46,186.12c.21,2.87-4.21,3.39-5.33,1.06-1.62-3.41,4.32-5.13,5.24-1.59.05.19.08.37.09.54Z"/><path class="cls-1" d="m237.99,203.85c.21,2.87-4.21,3.39-5.33,1.06-1.62-3.41,4.32-5.13,5.24-1.59.05.19.08.37.09.54Z"/><path class="cls-1" d="m199.65,171.1c.13,1.84-2.7,2.17-3.41.68-1.04-2.18,2.76-3.28,3.35-1.02.03.12.05.23.06.34Z"/><path class="cls-1" d="m463.61,264.76c.13,1.84-2.7,2.17-3.41.68-1.04-2.18,2.76-3.28,3.35-1.02.03.12.05.23.06.34Z"/><path class="cls-3" d="m485.82,233.72c.13,1.84-2.7,2.17-3.41.68-1.04-2.18,2.76-3.28,3.35-1.02.03.12.05.23.06.34Z"/><path class="cls-1" d="m146.2,227.11c.13,1.84-2.7,2.17-3.41.68-1.04-2.18,2.76-3.28,3.35-1.02.03.12.05.23.06.34Z"/></svg>