<svg id="Layer_1" data-name="Layer 1" xmlns="http://www.w3.org/2000/svg" width="520" height="520" viewBox="0 0 520 520"><defs><style>.cls-1{fill:#221f1f;}.cls-2{fill:#232020;}.cls-3{fill:none;stroke:#221f1f;stroke-linecap:round;stroke-linejoin:round;stroke-width:3.5px;}</style></defs><title>Notioly v2</title><g id="_37.Password" data-name="37.Password"><path class="cls-1" d="M190.37,324.55c-4.49-14.8-12-16.47-12-16.47s-42.49,19.46-44,37.12c-1.25,14.63,67.72,13.68,73.9,16.76,0,0-6.42-21.37-11.92-23.55-3.89-1.54-21.87-2.35-16.35-7.41A42.3,42.3,0,0,1,190.37,324.55Z"/><path class="cls-1" d="M383.58,246.92c-3.42,12.69-41.36,43.66-41,44.79,3.55,11.32,19.53,14.38,19.53,14.38,19.26-13.13,35.65-28.17,49.79-46.94,9.08-12.06,26.08-42.37,3.05-49.83-18.84-6.11-68.33,13.48-68.33,13.48s13.74,9.39,16.45,21.09C367.68,242.94,385.65,239.22,383.58,246.92Z"/><path class="cls-1" d="M294.11,378.76c2.13-1.27,3.13-5.24,4-7.36,1.58-3.92,2.93-7.95,4.6-11.83.3-.71-1.86-.47-2.18.26-1.32,3.08-2.42,6.25-3.63,9.38-.66,1.71-1.33,3.42-2.07,5.1-.39.87-1.14,3.21-2.07,3.77-1.26.75.63,1.11,1.36.68Z"/><path class="cls-1" d="M271.6,362.62c2.76-1.49,5.5-3,8.19-4.65s6.82-3.48,8.64-6.27c1.1-1.69-3.26-1.33-4.05-.11-1.65,2.52-5.94,4.27-8.46,5.75q-3.48,2-7,4c-.78.42-1.08,1.14-.37,1.72s2.39,0,3.08-.4Z"/><path class="cls-1" d="M284,376,292.77,362c.59-.93-1.61-.83-2-.14l-8.83,13.95c-.58.92,1.62.82,2.05.13Z"/><path class="cls-1" d="M202.49,214.63A88.08,88.08,0,0,0,208.1,225c.8,1.18,1.64,2.34,2.48,3.5,1.44,2.06,3,4.08,4.59,6a54.73,54.73,0,0,0,5.26,5.4,41,41,0,0,0,5.37,4c2.4,1.54,5,2.75,7.4,4.29.75.48.31,1.19-.73,1.57a5.29,5.29,0,0,1-4.24-.39A49.36,49.36,0,0,1,214,237.73c-2.36-2.85-4.79-5.71-6.95-8.76a85.48,85.48,0,0,1-6.24-10.55c-.58-1.12-1.09-2.27-1.64-3.39l-1.5-3.44c-1.49-3.49-2.72-7.09-4-10.62-1-2.75-2-5.42-3-8.14-.2-.6-.43-1.18-.62-1.79-.69-2.27-.67-3,0-3.76a3.57,3.57,0,0,1,.47-.48c.58-.39,1.36.4,2,2,1.91,4.76,3.53,9.84,5.38,14.84,1.37,3.71,2.83,7.4,4.55,11Z"/><path class="cls-1" d="M274,210.88c-.47-3.57-1-7.15-1.67-10.71-.24-1.31-.56-2.59-.8-3.89L269,182.47c-.39-2-.85-4.08-1.3-6.1a37.18,37.18,0,0,1-1.28-7.93c0-1.67,3.33.06,3.81,3,.93,5.22,2,10.5,2.74,15.91.45,3.24,1.32,6.52,1.95,9.8q1,5.43,1.87,10.89c.33,2.25.64,4.5.89,6.76.43,3.41.65,6.87.85,10.29.11,2.67.36,5.29.23,8,0,.59,0,1.17-.05,1.77-.32,2.2-.66,2.87-1.57,3.15a3,3,0,0,1-.62.17c-.68,0-1.07-.91-1-2.42a136.41,136.41,0,0,0-.33-14c-.2-1.79-.32-3.58-.54-5.37s-.41-3.6-.71-5.4Z"/><path class="cls-1" d="M296.16,160.22c-27.61,19.34-91.87-1.27-91.87-1.27s-12.13,8.27-16.11,18.83l3.58,13.47s-32.29-7.64-35.19-34.33c-4.68-43.19,50.32-33.9,50.88-34.32C303.57,50.67,322.63,141.68,296.16,160.22Z"/><path class="cls-1" d="M203.8,124.34a89,89,0,0,0-15.57,0,62.75,62.75,0,0,0-7.63,1.19,45.06,45.06,0,0,0-7.25,2.33,29.87,29.87,0,0,0-6.44,3.79,21.87,21.87,0,0,0-5,5.42,23.28,23.28,0,0,0-3,6.76,30.77,30.77,0,0,0-.7,3.69l-.22,1.88c0,.64,0,1.28-.05,1.91a21.65,21.65,0,0,0,0,2.79c.07.93.12,1.87.2,2.8a32.17,32.17,0,0,0,1.12,5.4,30.68,30.68,0,0,0,2,5.11,34.82,34.82,0,0,0,2.9,4.69A44,44,0,0,0,177.6,183.7a64,64,0,0,0,8.06,4q1.05.42,2.1.81l1.13.4c.25.09.51.17.77.24a3.31,3.31,0,0,0-.15-.72l-2-7.82-.67-2.56-.06-.22,0-.11,0-.11.19-.43.32-.75.49-1.11c.37-.71.75-1.42,1.14-2.12s.84-1.37,1.29-2a48.12,48.12,0,0,1,6.16-7.17q1.68-1.65,3.5-3.15.9-.75,1.83-1.47l.94-.71c.47-.35,1-.7,1.45-1l2.52.78,1.95.58,3.94,1.1A216.49,216.49,0,0,0,248,166.6a126.5,126.5,0,0,0,22.94.17,71.38,71.38,0,0,0,11.22-1.86,46.85,46.85,0,0,0,10.55-3.9c4-2.35,4-1.43.93,1.47a32.79,32.79,0,0,1-3.09,2.19,32.46,32.46,0,0,1-4.42,2.21,46.93,46.93,0,0,1-12,3.1,111,111,0,0,1-17.94.58,161.85,161.85,0,0,1-17.75-1.75q-8.82-1.32-17.49-3.33c-2.89-.67-5.78-1.38-8.65-2.16q-2.15-.57-4.29-1.2l-2.15-.64-1.07-.33-.15-.05-.07,0,0,0-.29.21-1.16.89c-.77.6-1.53,1.23-2.27,1.87a58.35,58.35,0,0,0-4.25,4.07,34,34,0,0,0-6.54,9.49c-.05.12-.1.16-.1.24l0,.11.07.28.44,1.73c.29,1.16.59,2.32.88,3.48l.9,3.5.78,3c.23,1,.41,1.87.62,2.8l.07.35,0,.17-.18,0-.71-.18-1.4-.36c-.93-.24-1.92-.52-2.86-.83l-1.36-.45-.88-.32-1.74-.67a69.34,69.34,0,0,1-6.78-3.15,52.07,52.07,0,0,1-12.17-8.85,39.6,39.6,0,0,1-4.87-5.84,34.51,34.51,0,0,1-3.53-6.76,32.37,32.37,0,0,1-2-8.11c-.2-1.38-.21-2.75-.33-4.12s0-2.77,0-4.15c.05-.69.15-1.39.22-2.08a18.11,18.11,0,0,1,.3-2.07,29.36,29.36,0,0,1,1.06-4.07,27,27,0,0,1,1.62-3.9c.31-.63.72-1.21,1.08-1.82l.56-.9.65-.84a19.16,19.16,0,0,1,1.34-1.64l1.48-1.52a31.78,31.78,0,0,1,3.3-2.61,33.18,33.18,0,0,1,7.4-3.79A57.3,57.3,0,0,1,190,121c3-.2,6-.23,9-.13,1.5.06,3,.14,4.49.25l2.23.19,1,.09c.18,0,.37.06.5-.09l4.26-3.08,4.5-3.1c3-2,6.1-4,9.24-5.82A119.12,119.12,0,0,1,252.74,97a65.58,65.58,0,0,1,14.92-2.57,43.31,43.31,0,0,1,15,1.81,34.9,34.9,0,0,1,10.46,5.4,35.62,35.62,0,0,1,8,8.55,44.1,44.1,0,0,1,7.15,22,45.06,45.06,0,0,1-.57,10.29,30.32,30.32,0,0,1-5.11,12.77,11.94,11.94,0,0,1-4.67,4,8,8,0,0,1-1.76.65c-.33.05-.34-.14-.08-.52s.8-1,1.5-1.78a29.76,29.76,0,0,0,5-8.47,42.44,42.44,0,0,0-4.74-38.09,31.21,31.21,0,0,0-15.78-11.76,43.27,43.27,0,0,0-20.27-1.17c-9.59,1.53-18.89,5.23-27.67,9.8-4.4,2.3-8.69,4.83-12.9,7.5-2.08,1.37-4.17,2.73-6.21,4.17-1,.71-2.06,1.41-3.06,2.16l-3.33,2.42-.41.2-.2.09h-.05c0,.1,0-.13,0-.11l-.05,0-.11,0a5,5,0,0,1-.89.13,1.78,1.78,0,0,1-.46,0l-.29,0-.49,0-1.91-.16Z"/><path class="cls-1" d="M271.37,174.6a16.12,16.12,0,0,1,3.56-5.1c3.94-3.25,6.3.8,7,4.3,1.17,5.53-.49,13.91-6,16.69-2.07,1,1.08,1.34,2.1.82,7-3.58,10.72-16.32,5.48-22.76-5.46-6.71-13.13,1.41-15.68,6.55-.41.83,3,.52,3.46-.5Z"/><path class="cls-1" d="M192.78,207.55c-9,0-24.84-12.66-12.24-19.67,2.07-1.15.18-2.77-1.49-1.84-6.13,3.41-9.43,8.86-4.42,15,3.78,4.6,10.78,8.91,16.9,8.91,1.55,0,3.6-2.35,1.25-2.35Z"/><path class="cls-1" d="M213.22,366.13c-12.78-25.45-24.8-51.21-38-76.34-2.38-4.6-4.88-9.13-7.37-13.66l-4.4-7.81-.84-1.49-.42-.75a4.92,4.92,0,0,1,.79-.24l3.3-.91,4.21-1.14L276.38,235.2c15.65-4.25,31.36-8.61,46.86-12.94l13.34-3.73,2.1,3.55,1.56,2.67c1,1.79,2,3.59,3,5.4,2,3.61,3.9,7.27,5.75,10.95,3.71,7.36,7.16,14.85,10.4,22.39,2.54,5.93,1.37,5.5-1.66.89s-7.94-13.38-13.34-23.92q-2.49-4.86-5.12-9.65c-.88-1.59-1.76-3.19-2.66-4.76-.8-1.41-2.24-3.86-1.83-3.16L286,236.17Q260.7,243,235.19,249.72c-12.31,3.24-24.84,6.65-37.43,10.11L178.83,265l-9.45,2.6-1.51.41-.38.1s-.18,0-.14.08l.09.17,1.62,2.89c14,25.08,26.3,51,38.95,76.67,7.8,15.8,15.67,31.56,24.16,47l2.41,4.37,2.48,4.35,1.23,2.17.55,1a5.36,5.36,0,0,0,.34.57,2.11,2.11,0,0,0,.66-.05l1-.19,2.4-.57c6.44-1.62,12.84-3.54,19.21-5.49,12.74-3.93,25.38-8.15,37.88-12.51,19.43-6.79,38.29-14,57.24-21.37L370,362.25c15.59-6.12,20.61-7.91,24.3-8.37a22.17,22.17,0,0,1,2.44-.3c1.76.07-4.36,3.18-15.71,7.86-33.69,13.86-69.67,27.37-106.39,39.34-6.82,2.21-13.67,4.36-20.58,6.38-3.46,1-6.93,2-10.48,2.86-.89.22-1.78.43-2.72.61a5.56,5.56,0,0,1-.58.11l-.66.11a5.36,5.36,0,0,1-1.26,0,1.43,1.43,0,0,1-.54-.22l-.24-.18,0,0c0,.06.06-.16-.11.13l-.05,0-.1-.1c-.28-.29-.58-.52-.84-.84l-3-5.3c-7.11-12.52-13.78-25.28-20.27-38.1Z"/><path class="cls-1" d="M341.58,380.78c-8.05,2.7-16.14,5.31-24.23,7.9-3,.94-5.88,2-8.83,2.88-10.44,3.22-20.92,6.29-31.39,9.35-4.65,1.34-9.3,2.79-13.89,4.22-5.89,1.85-11.76,3.84-17.76,5.26-3.75.89,0-3.73,6.76-5.79,12.06-3.65,24.14-7.13,36.39-10.47,7.33-2,14.81-4.54,22.21-6.9q12.21-3.87,24.36-7.92c5-1.64,10-3.37,14.93-5.08l11.26-4c3.75-1.35,7.46-2.76,11.15-4.16,5.74-2.21,11.25-4.63,16.84-7,1.23-.53,2.42-1.07,3.66-1.59,4.62-1.92,6.18-2.29,7.52-1.83a3.77,3.77,0,0,1,.9.32c.72.48-.95,1.79-4.28,3.35q-3.69,1.74-7.52,3.43T381.87,366c-5.23,2.18-10.62,4.19-16,6.22-8,3-16.13,5.82-24.24,8.62Z"/><path class="cls-1" d="M251.57,256c5.12-1.29,10.25-2.56,15.36-3.87,1.87-.47,3.71-1,5.57-1.51,6.59-1.64,13.19-3.22,19.77-4.89,2.91-.73,5.82-1.57,8.69-2.42a99.76,99.76,0,0,1,11.12-3c2.37-.41.33,3.62-3.92,4.83-7.54,2.14-15.13,4.07-22.87,5.71-4.64,1-9.34,2.43-14,3.64q-7.71,2-15.45,4c-3.17.81-6.34,1.62-9.5,2.45-4.79,1.26-9.62,2.48-14.35,3.83-3.67,1-7.22,2.28-10.82,3.43-.8.25-1.56.53-2.37.77-3,.88-4,.92-4.89.21a4.3,4.3,0,0,1-.59-.5c-.48-.61.59-1.51,2.73-2.32,6.34-2.4,13.19-4.37,20.08-6.28,5.12-1.41,10.29-2.74,15.44-4.11C251.56,255.94,251.56,256,251.57,256Z"/><path class="cls-1" d="M385.63,319.49c1,2.34,2.09,4.68,3.19,7,.4.85.89,1.65,1.29,2.49,1.4,3,2.8,6,4.32,8.91.66,1.31,1.43,2.56,2.21,3.79a28.91,28.91,0,0,1,2.85,4.83c.42,1.1-3,1.47-4.14-.39A68.56,68.56,0,0,1,390,335.83c-.9-2.15-2.15-4.21-3.2-6.34-1.15-2.34-2.24-4.7-3.33-7.07l-2-4.37c-1-2.2-2-4.44-3.05-6.59-.82-1.68-1.8-3.24-2.7-4.86-.2-.36-.42-.69-.61-1.06-.68-1.36-.68-1.89,0-2.54a4.57,4.57,0,0,1,.44-.44c.54-.4,1.3-.07,1.93.86a65.78,65.78,0,0,1,4.93,9l3.29,7Z"/><path class="cls-1" d="M166.49,376l17.88,8c2.17,1,4.39,1.84,6.56,2.81l23,10.33c3.4,1.51,6.86,2.94,10.28,4.33,4.39,1.79,8.88,3.42,13.1,5.61,2.63,1.37-2.13,3-7.18.88-8.94-3.73-17.8-7.65-26.61-11.91-5.26-2.54-10.92-4.78-16.39-7.18l-18-8-11.11-4.89c-5.61-2.45-11.24-4.95-16.85-7.28l-10.48-4.21,8-3.56c.93-.43,1.83-.88,2.78-1.3,3.53-1.54,4.75-1.8,5.87-1.26a3.93,3.93,0,0,1,.74.37c.62.52-.6,1.67-3.11,2.95q-2.46,1.25-5,2.46c-.28.21-.31.3-.31.36l.33,0H140l1.57.64,6.85,2.88c6.05,2.56,12.09,5.22,18.13,7.83Z"/><path class="cls-1" d="M174.76,382.7q7.43,3.07,14.85,6.13c1.81.74,3.65,1.39,5.45,2.14,6.36,2.64,12.7,5.33,19.07,7.95,2.82,1.16,5.7,2.24,8.54,3.28a102.86,102.86,0,0,1,10.89,4.27c2.18,1.09-1.9,3.1-6.1,1.52-7.43-2.82-14.79-5.83-22.09-9.17-4.37-2-9.08-3.66-13.62-5.5-5-2-10-4.07-15-6.11-3.07-1.25-6.14-2.51-9.22-3.74-4.67-1.87-9.34-3.79-14-5.55-3.63-1.37-7.26-2.51-10.89-3.76-.8-.27-1.59-.51-2.39-.8-3-1.08-3.82-1.66-4.12-2.77a3.75,3.75,0,0,1-.19-.75c0-.78,1.39-.87,3.62-.23,6.62,1.9,13.39,4.42,20.16,7,5,1.94,10,4,15.07,6Z"/><path class="cls-1" d="M426.18,243.73a70.45,70.45,0,0,1-5,10.19,100.81,100.81,0,0,1-6.4,9.26,157.09,157.09,0,0,1-15.06,16.49c-3.9,3.76-7.89,7.43-12,10.9-7.3,6.13-14.89,11.88-22.58,17.45-1.93,1.38-3.8,2.82-5.91,4.11s-4.15,2.4-6.23,3.55c-4.16,2.28-8.3,4.55-12.34,7a104.93,104.93,0,0,0-19.91,15,56.41,56.41,0,0,0-5.2,5.94,19.25,19.25,0,0,0-1.15,1.58c-.37.55-.75,1.08-1.11,1.63-.66,1.12-1.37,2.22-1.92,3.4s-1.1,2.36-1.62,3.54c-.23.61-.42,1.23-.63,1.84-.1.31-.22.61-.31.92l-.23.94a32.4,32.4,0,0,0-1.09,7.66c0,3.21-.76,2.94-1.59.07a13.6,13.6,0,0,1-.45-2.62,19.77,19.77,0,0,1,0-3.47,24.85,24.85,0,0,1,2.19-8.51,49.38,49.38,0,0,1,9.8-13.93c1-1,2-2,3-2.95s2.09-1.88,3.18-2.75c2.15-1.8,4.4-3.45,6.68-5.06,4.57-3.19,9.33-6.05,14.16-8.75,2.41-1.35,4.85-2.65,7.26-4s4.85-2.6,7.1-4l1-.65,1-.72,2-1.44,4.05-2.94c2.69-2,5.38-4,8-6.1,5.32-4.16,10.55-8.49,15.58-12.94a195.7,195.7,0,0,0,15.8-15.48c2.47-2.74,4.85-5.55,7-8.49a84.1,84.1,0,0,0,6.1-9.15,55,55,0,0,0,5.35-12.3,33.61,33.61,0,0,0,1.21-13.17c-.13-.83-.18-1.67-.38-2.48l-.6-2.44c-.24-.8-.57-1.58-.85-2.37-.16-.38-.27-.81-.46-1.16l-.56-1.07a12.2,12.2,0,0,0-3.18-3.61l-.47-.38-.52-.32c-.35-.21-.69-.44-1.05-.64a19.87,19.87,0,0,0-2.26-1,31.64,31.64,0,0,0-9.89-1.75,64.28,64.28,0,0,0-10.18.54C385,210.45,375,213.49,365.11,217c-2.18.79-4.28,1.61-6.46,2.45-4,1.55-6.67,2.63-8.57,3.27a13.43,13.43,0,0,1-4.06.91,8.77,8.77,0,0,1-1.35,0c-1-.2,2-2.17,7.87-4.75a189.07,189.07,0,0,1,27.53-9.67,123.88,123.88,0,0,1,14.78-3,61.25,61.25,0,0,1,15.44-.23c1,.13,1.94.32,2.91.52a25,25,0,0,1,2.89.83,19.38,19.38,0,0,1,5.48,2.85,15,15,0,0,1,4.18,4.79c.24.47.5.94.72,1.41l.52,1.4a21.15,21.15,0,0,1,.93,2.82c.22,1,.53,1.91.67,2.89l.4,3,.1,3c0,1-.11,2-.16,2.94a45.28,45.28,0,0,1-2.67,11.34Z"/><path class="cls-1" d="M368.37,247.65c4.22-1.1,9.07-1.31,13.11.44,1.4.6,6.17-1.5,4.2-2.35-5.51-2.38-12.22-1.85-17.92-.36-3.09.81-2.51,3.09.61,2.27Z"/><path class="cls-1" d="M308.72,314.6q10.63-8.12,21-16.56c2.52-2.06,5-4.19,7.47-6.28,8.82-7.34,17.51-14.84,25.78-22.77,3.66-3.53,7.2-7.22,10.49-11l1.57-1.84,1.51-1.89c1-1.24,1.95-2.55,2.91-3.84a42.78,42.78,0,0,0,4.75-8.09c.63-1.72,1.34-1.47,1.52.46,0,.24,0,.5,0,.8a7.7,7.7,0,0,1-.11.89,15.68,15.68,0,0,1-.48,2.12c-.27.72-.59,1.51-1,2.32a22.63,22.63,0,0,1-1.44,2.39,86.78,86.78,0,0,1-6.31,8c-1.11,1.27-2.24,2.52-3.39,3.73s-2.32,2.43-3.5,3.62c-4.73,4.76-9.67,9.28-14.76,13.67-6.08,5.25-12.29,10.84-18.6,16.09q-10.41,8.64-21.11,16.93-6.58,5.12-13.26,10.08c-1.7,1.25-3.39,2.5-5.12,3.72a32.41,32.41,0,0,1-2.74,1.78,9.86,9.86,0,0,1-3.3,1,21.21,21.21,0,0,1-6.54-.4c-2.09-.4-4.13-.94-6.14-1.4a35.05,35.05,0,0,0-4.16-.75,12.29,12.29,0,0,0-2-.05l-.37,0-.27.05a2.74,2.74,0,0,0-.51.15,1.38,1.38,0,0,0-.53.34.45.45,0,0,0,.09.59,3.61,3.61,0,0,0,1.06.72,40.65,40.65,0,0,0,4.7,2.05c1.3.49,2.59.91,3.92,1.36,5,1.63,6.49,2.17,7.39,3.2.2.23.49.47.62.66.24.34-.27.57-1.29.55a19.65,19.65,0,0,1-4.42-.76,79.89,79.89,0,0,1-8.7-2.81c-.72-.29-1.45-.6-2.18-.93-.36-.17-.73-.35-1.09-.54-.2-.1-.34-.17-.58-.31a8.51,8.51,0,0,1-.92-.59c-.28-.21-.59-.41-.85-.63l-.7-.7a3.43,3.43,0,0,1-.7-1.53,2.61,2.61,0,0,1,.31-1.67,2.71,2.71,0,0,1,.55-.63,3.47,3.47,0,0,1,.7-.55,8.58,8.58,0,0,1,1.82-.69l1-.19a3.14,3.14,0,0,1,.51-.05l.34,0a15.39,15.39,0,0,1,2.47.09,40.75,40.75,0,0,1,4.52.83,70.59,70.59,0,0,0,8.34,1.7,9.78,9.78,0,0,0,5.47-.68,28.5,28.5,0,0,0,2.58-1.71l2.72-2c3.62-2.65,7.21-5.37,10.77-8.12Z"/><path class="cls-1" d="M292.34,355.83c-.11,4.18-1,8.24-1.59,12.37-.38,2.86-1.07,6.55-.1,9.34.66,1.9,2.31,2,3.82.49,2.19-2.15,3-6.88,3.91-9.65,1.06-3.2,1.75-7.31,3.67-10.14.27-.4-2.37-.27-2.87.47-3.06,4.51-3.8,11.15-5.79,16.2a26.14,26.14,0,0,0-1.38,3c2.49,3.71,1.53-2.77,1.42-1.76.14-1.19-.24-2.59-.22-3.83.1-5.81,1.87-11.46,2-17.28,0-.56-2.87-.15-2.9.77Z"/><path class="cls-1" d="M284.78,354.85l1-2.4.21-.36a3.43,3.43,0,0,0,.23-.47,3.2,3.2,0,0,0-.37.15l-.27.14-.18.09-.1.06-.31.18-3,1.84c-1.93,1.18-3.83,2.42-5.79,3.56-1.74,1-3.49,2-5.3,2.91l-1.37.68-.81.38-1.13.49a10.07,10.07,0,0,1-4,1A2.68,2.68,0,0,1,263,363a3.07,3.07,0,0,1-.69-.22,1.69,1.69,0,0,1-.63-.49,1.33,1.33,0,0,1-.24-.77,4.81,4.81,0,0,1,1.41-2.86,18.18,18.18,0,0,1,1.58-1.59c.56-.51,1.25-1.09,1.54-1.34l2.34-1.89c2.78-2.2,5.55-4.42,8.19-6.68,1.7-1.46,3.35-3,4.94-4.51a35.22,35.22,0,0,0,4.27-4.75c.33-.51.59-.67.87-.56s.52.56.54,1.3c.07,1.49-.93,3.87-2.85,5.75a121.31,121.31,0,0,1-10.67,9c-1.82,1.41-3.64,2.81-5.41,4.22l-.66.53-.09.07h0l-.06,0-.28.17a1.73,1.73,0,0,0-.66.7c0,.2.2.22.34.21a2,2,0,0,0,.54-.12,4.68,4.68,0,0,0,.6-.24c.52-.25,1.21-.59,1.8-.91,2.46-1.31,4.89-2.8,7.3-4.25l4.78-2.92,2.59-1.58c1.24-.77,2.56-1.55,3.77-2.22a4.68,4.68,0,0,1,1.7-.39c.23,0,.41,0,.6,0s.15.07.18.13a.66.66,0,0,1,0,.14v.29c0,.21,0,.41,0,.69l0,.4-.11.53a5.68,5.68,0,0,1-.47,1.25l-.58,1.34-1.46,3.39-1.12,2.64q-1.1,2.65-2.1,5.32c-.37,1-.73,2-1.08,3l-.5,1.51-.42,1.34c-.17.56-.33,1.14-.46,1.74a5.13,5.13,0,0,0-.11,1.83.81.81,0,0,0,.13.3.21.21,0,0,0,.27.11,1.59,1.59,0,0,0,.49-.44,11.59,11.59,0,0,0,.74-1.09c.34-.56.65-1.13.92-1.66l1.46-2.82,3-5.93c.45-.87.88-1.73,1.36-2.6,1.81-3.21,2.66-4.09,3.74-4.32a3.72,3.72,0,0,1,.73-.14c.7.06.27,1.53-.93,3.88q-2.52,5-5.13,10.12c-.45.86-.91,1.72-1.37,2.58l-1.14,2.06c-.49.83-1,1.66-1.47,2.41a12.86,12.86,0,0,1-1.46,1.88,3.51,3.51,0,0,1-1.25.88,2.38,2.38,0,0,1-1.05.15,1,1,0,0,1-.31-.08l-.2-.1-.1-.05-.05,0h0l0,.07h0l-.35-.19-.28-.22-.4-.54-.18-.25-.14-.32a6,6,0,0,1-.27-2.89c0-.33.05-.62.11-1l.2-1.07c.12-.7.35-1.47.53-2.21.1-.36.2-.74.31-1.11l.18-.57.36-1.15.77-2.26c1.07-3,2.24-5.92,3.44-8.82Z"/><path class="cls-1" d="M152.94,358.15a91.14,91.14,0,0,1-10.62-3,35.56,35.56,0,0,1-5.19-2.32,15.91,15.91,0,0,1-2.48-1.71,8,8,0,0,1-2.09-2.63,4,4,0,0,1-.24-.64,2.92,2.92,0,0,1-.16-.61l-.18-1.14a5.32,5.32,0,0,1-.07-1.13,10.79,10.79,0,0,1,0-1.14,13.19,13.19,0,0,1,.38-2.19l.29-1.06.41-1a25.2,25.2,0,0,1,3.91-6.24,46.59,46.59,0,0,1,5-5.14,97.85,97.85,0,0,1,11.18-8.58c3.45-2.32,7-4.55,10.48-6.67a109.78,109.78,0,0,1,14-7.47c3-1.23.48,3.05-4.77,5.87-4.68,2.52-9.29,5.16-13.8,8a140.37,140.37,0,0,0-13.08,9.07,44.15,44.15,0,0,0-6.82,6.71,18.94,18.94,0,0,0-4.16,8.17,9.44,9.44,0,0,0-.13,2.37l.17,1.16c0,.15.09.29.14.43a4.5,4.5,0,0,0,.23.43,9.79,9.79,0,0,0,3.69,3,50.09,50.09,0,0,0,10,3.62c4.28,1.14,8.65,2,13,2.82,6.66,1.17,13.39,2.15,20.07,3,5.19.62,10.31,1,15.47,1.59,1.14.13,2.26.24,3.41.41,4.23.64,5.71,1.28,6.32,2.51.12.27.27.68.05.8s-.15,0-.27.06c.05,0-.2.1-.22.13s0,.06-.08.06h-.36c-.62,0-1.78-.19-3.28-.39-4.49-.58-9.23-1-14-1.49s-9.65-1.08-14.52-1.73c-7.23-1-14.48-2.12-21.69-3.7Z"/><path class="cls-1" d="M400.24,333.36q37.88-1.31,75.75-2.75c3.17-.12,4.58-4.06.61-3.91q-37.87,1.5-75.76,2.75c-3.17.11-4.57,4-.6,3.91Z"/><path class="cls-1" d="M42.44,346.78c27.34-1.43,54.69-2.55,82-3.64,1.18-.05,3.69-.4,4.21-1.71s-.41-1.81-1.69-1.75c-27.35,1.09-54.7,2.21-82,3.64-1.18.06-3.69.39-4.21,1.71s.41,1.82,1.69,1.75Z"/><path class="cls-2" d="M343.06,422.84l0,0a.27.27,0,0,1-.2.12H322.19a.26.26,0,0,1-.19-.12.05.05,0,0,0,0,0c-.13,0-.24.82-.24,1.83s.11,1.83.24,1.83l0,0a.27.27,0,0,1,.2-.12h20.63a.27.27,0,0,1,.19.11s0,0,0,0,.24-.82.24-1.83S343.19,422.84,343.06,422.84Z"/><path class="cls-2" d="M375.27,422.84a.05.05,0,0,0,0,0,.27.27,0,0,1-.2.12H354.4a.27.27,0,0,1-.19-.12.05.05,0,0,0,0,0c-.13,0-.24.82-.24,1.83s.11,1.83.24,1.83l0,0a.29.29,0,0,1,.2-.12H375a.27.27,0,0,1,.19.11s0,0,0,0,.24-.82.24-1.83S375.4,422.84,375.27,422.84Z"/><path class="cls-2" d="M407.45,422.84l0,0a.26.26,0,0,1-.2.12H386.58a.24.24,0,0,1-.18-.12l0,0c-.14,0-.25.82-.25,1.83s.11,1.83.25,1.83l0,0a.26.26,0,0,1,.19-.12h20.63a.26.26,0,0,1,.19.11.05.05,0,0,0,0,0c.14,0,.25-.82.25-1.83S407.59,422.84,407.45,422.84Z"/><path class="cls-2" d="M439,422.84l0,0a.26.26,0,0,1-.2.12H418.16a.24.24,0,0,1-.18-.12l0,0c-.14,0-.25.82-.25,1.83s.11,1.83.25,1.83l0,0a.29.29,0,0,1,.2-.12H438.8a.27.27,0,0,1,.19.11s0,0,0,0,.25-.82.25-1.83S439.17,422.84,439,422.84Z"/><line class="cls-3" x1="448" y1="424.67" x2="469.59" y2="424.67"/><path class="cls-1" d="M337.79,413.41a5.46,5.46,0,0,1-7.28,5,5.56,5.56,0,0,1-3.13-6.7C329.26,406.14,337.79,407.52,337.79,413.41Z"/><path class="cls-1" d="M370.05,413.41a5.46,5.46,0,0,1-7.28,5,5.56,5.56,0,0,1-3.13-6.7C361.52,406.14,370.05,407.52,370.05,413.41Z"/><path class="cls-1" d="M402.24,413.41a5.46,5.46,0,0,1-7.29,5,5.55,5.55,0,0,1-3.12-6.7C393.71,406.14,402.24,407.52,402.24,413.41Z"/><path class="cls-1" d="M433.82,413.41a5.47,5.47,0,0,1-7.29,5,5.57,5.57,0,0,1-3.13-6.7C425.29,406.14,433.82,407.52,433.82,413.41Z"/><path class="cls-1" d="M464.13,413.41a5.46,5.46,0,0,1-7.28,5,5.56,5.56,0,0,1-3.13-6.7C455.6,406.14,464.13,407.52,464.13,413.41Z"/><path class="cls-2" d="M335.21,322.37h0a.25.25,0,0,1-.23,0,28.13,28.13,0,0,1-4.5-2.59,22.57,22.57,0,0,1-3.79-3.44,23.3,23.3,0,0,1-2.94-4.23c-.86-1.53-1.55-3.14-2.36-4.89a.33.33,0,0,1,0-.25.09.09,0,0,0,0-.05c-.07-.14-1,.15-2,.64s-1.82,1-1.76,1.13,0,0,0,0a.27.27,0,0,1,.2.13l.37.8a33.43,33.43,0,0,0,5.84,9.59,27.74,27.74,0,0,0,4.31,3.8,32.69,32.69,0,0,0,4.94,2.81.32.32,0,0,1,.13.21.11.11,0,0,0,0,0c.15.07.64-.73,1.1-1.77A4.63,4.63,0,0,0,335.21,322.37Z"/><circle class="cls-1" cx="325.13" cy="318.16" r="5.82"/><path class="cls-1" d="M363.17,310.75c-10.54.1-22.95-4.36-26.84-15.21-.28-.78-3.71.27-3.48.93,4.06,11.32,17.11,15.76,28.06,15.66.71,0,3.91-1.4,2.26-1.38Z"/><path class="cls-1" d="M339.43,290.86c4.2,12,17.47,16.9,29.12,16.8,1.91,0,2.74-2.36.37-2.34-10.41.09-22.29-4.8-26-15.39-.51-1.46-4-.49-3.48.93Z"/><path class="cls-1" d="M191.52,327.13c-1.65.61-3.29,1.28-4.89,2S182,331,181.2,332.64c-1.36,2.92,11.19,3.66,13.09,3.77a5.08,5.08,0,0,0,3.07-.82c.57-.48.72-.76-.22-.82-1.67-.11-12.33-.85-11.66-2.95.36-1.15,3.25-2.09,4.22-2.53s2.17-.94,3.27-1.35c.41-.15,1.7-.54,1.33-1.12s-2.45.19-2.78.31Z"/><ellipse class="cls-1" cx="279.33" cy="290.39" rx="8.94" ry="5.75" transform="translate(-61.47 75.44) rotate(-13.87)"/><path class="cls-1" d="M199.5,383.35c-2.66-1.27-5.31-2.55-8-3.8-1-.46-2-.82-2.95-1.29-3.4-1.64-6.79-3.34-10.2-5-1.52-.72-3.08-1.36-4.63-2a30.78,30.78,0,0,1-5.88-2.58c-1.14-.74,1.74-3.15,4-2.21a108.12,108.12,0,0,1,11.84,5.71c2.3,1.3,4.88,2.24,7.33,3.37,2.68,1.24,5.36,2.51,8.05,3.77,1.65.77,3.3,1.55,5,2.3,2.51,1.14,5,2.34,7.55,3.37,2,.81,4,1.41,6,2.1.44.15.88.27,1.32.44,1.61.63,2,1.06,2,2.06a3.84,3.84,0,0,1,0,.68c-.13.72-1,1-2.26.68a72.52,72.52,0,0,1-11-4c-2.72-1.16-5.42-2.41-8.12-3.63Z"/><path class="cls-1" d="M211.51,195.29c-.1.22-.36.11-.77-.21a1.48,1.48,0,0,1-.39-.58,2.34,2.34,0,0,1,.13-.49,11.22,11.22,0,0,1,1.34-1.2,4.18,4.18,0,0,1,1.08-.63,17.92,17.92,0,0,1,2.39-.87,2.24,2.24,0,0,1,.57-.08,12.53,12.53,0,0,0,1.94-.23.63.63,0,0,0,.31-.1,3.46,3.46,0,0,1,1.06-.16,7.1,7.1,0,0,1,1.11,0c.57.19,1.13.3,1.66.52.08,0,.17,0,.22.11s.31.21.47.27a3.89,3.89,0,0,1,.66.29,1.16,1.16,0,0,1,.26.31c.08.1-.06.37-.1.39s-.08.22-.11.34,0,.1,0,.13a10.28,10.28,0,0,1-1.46.26,11.59,11.59,0,0,0-1.95,0,.63.63,0,0,1-.3,0,12,12,0,0,0-1.46.24,1.74,1.74,0,0,1-.85,0,.32.32,0,0,0-.17,0c-.48.12-1,.19-1.46.28a6.13,6.13,0,0,0-.72.25h-.14a.52.52,0,0,0-.18,0,8.79,8.79,0,0,0-1.65.75,8.62,8.62,0,0,0-.93.33C212,195.31,211.56,195.2,211.51,195.29Z"/><path class="cls-1" d="M223.87,195.4c.16,2.07-1.12,3.86-2.87,4a3.5,3.5,0,0,1-3.46-3.49,3.18,3.18,0,0,1,6.33-.5Z"/><path class="cls-1" d="M245,187.8c0,.24-.3.19-.8,0-.16-.05-.55-.32-.56-.42a2,2,0,0,1,0-.54,6.43,6.43,0,0,1,1.26-1.62,4.06,4.06,0,0,1,1.17-.78,12.19,12.19,0,0,1,2.6-.91,2.88,2.88,0,0,1,.59-.07,10.23,10.23,0,0,0,2-.15.53.53,0,0,0,.32-.08,6.71,6.71,0,0,1,2.2-.11l1.68.43c.08,0,.17,0,.24.1s.32.19.49.23a3,3,0,0,1,.7.21,1.09,1.09,0,0,1,.31.27c.09.1,0,.38-.05.41s-.05.23-.06.35a.51.51,0,0,1,0,.13,8.59,8.59,0,0,1-1.52.41,20.69,20.69,0,0,0-2.12.09,1,1,0,0,1-.33,0c-.06,0-1.53.21-1.58.23a2,2,0,0,1-.91,0,.23.23,0,0,0-.18,0c-.51.11-1,.15-1.53.23-.25,0-.49.15-.74.22a.32.32,0,0,1-.14,0,.86.86,0,0,0-.17,0,5.57,5.57,0,0,0-1.58.79c-.08.09-.72.29-.8.44S245,187.7,245,187.8Z"/><path class="cls-1" d="M257.05,186.61a3.21,3.21,0,1,1-6.08,1.77,3.17,3.17,0,0,1,6.08-1.77Z"/><path class="cls-1" d="M236.8,191.72l-.87-2.41c-.25-.82-.43-1.66-.65-2.48a13.42,13.42,0,0,1-.22-5.45,9.91,9.91,0,0,1,1.46-3.86,13.41,13.41,0,0,1,5.27-4.4,29.07,29.07,0,0,1,6.1-2.12c1.82-.43,3.66-.82,5.48-1.13a26.18,26.18,0,0,1,7-.6c.16,0,.33.08.34.19l.06.17c0,.16.07.32.11.5l0-.12c0-.1,0-.06,0,0a.62.62,0,0,1,0,.13.77.77,0,0,1-.05.29,2.16,2.16,0,0,1-.32.62,4.23,4.23,0,0,1-2.92,1.79,59.27,59.27,0,0,0-13.29,2.48,9.63,9.63,0,0,0-5.65,4.88,7.78,7.78,0,0,0-.66,4,22.37,22.37,0,0,0,1,4.38,26.49,26.49,0,0,0,1,2.65l.61,1.3c.21.43.47.83.71,1.25a32,32,0,0,0,5.33,6.89,32.55,32.55,0,0,0,5.32,4.06c.41.26.84.48,1.24.75,1.54,1,1.9,1.37,1.83,2.31,0,.2,0,.43,0,.64a.51.51,0,0,1-.18.43,1.13,1.13,0,0,1-.61.17,3.62,3.62,0,0,1-1.7-.39,32.06,32.06,0,0,1-10.42-8.18,35.15,35.15,0,0,1-5.45-8.67Z"/><path class="cls-1" d="M210.75,176.6a23.66,23.66,0,0,1,4.72-.34c.56,0,1.12,0,1.68,0a36.9,36.9,0,0,1,5.72,1.15c.82.23,1.66.39,2.48.55a7.38,7.38,0,0,1,3,.95.35.35,0,0,1,.06.09s-.08.06-.09.12a.81.81,0,0,0-.06.4,1.69,1.69,0,0,1-.06.53,3.25,3.25,0,0,1-.32.53c-.53.68-1.25,1.27-1.81,1.11-2-.54-3.9-1.13-5.87-1.85a13.38,13.38,0,0,0-3.73-.45,21.58,21.58,0,0,0-4.1.13,13.83,13.83,0,0,0-2.46.53,10.6,10.6,0,0,0-3.38,1.68,8.51,8.51,0,0,0-1.85,2.21c-.11.18-.2.37-.32.53-.43.64-.74.72-1.55.37a5.31,5.31,0,0,1-.55-.23,1.19,1.19,0,0,1-.59-1.57,9.88,9.88,0,0,1,4.39-4.77,16.29,16.29,0,0,1,4.63-1.75Z"/><path class="cls-1" d="M253,225.5c.29,2.09-1.4,4.25-3.22,3.77s-2.62-3.2-1.75-5C249.6,221.09,252.63,223,253,225.5Z"/></g></svg>