<?xml version="1.0" encoding="UTF-8"?><svg id="Layer_1" xmlns="http://www.w3.org/2000/svg" width="520" height="520" viewBox="0 0 520 520"><defs><style>.cls-1{opacity:.1;}.cls-1,.cls-2,.cls-3{fill:#231f20;stroke-width:0px;}.cls-2{opacity:.3;}.cls-4{opacity:.45;}</style></defs><path class="cls-2" d="M253.63,274.38c-5.34,0-25.63-7.04-41.25-14.22-15.62-7.19-28.85-26.44-31.29-31.68-2.44-5.24-4.82-1.65-4.82-1.65l-4.9,10.04-12.61,13.74s-16.06,10.63-25.75,15.98c-9.7,5.34-38.75,8.19-38.75,8.19l-.53,6.59s1.38,31.61,2.81,43.29c1.43,11.67,11.89,47.95,15.35,56.7,3.47,8.75,20.9,35.79,20.9,35.79,17.92,29.16,50.55,30.31,50.55,30.31,0,0,7.27-.07,23.91-9.85,16.63-9.78,32.6-38.82,36.78-47.91,4.18-9.09,11.92-40.67,15.41-56.38,3.5-15.7,4.1-58.94,4.1-58.94h-9.91ZM195.67,360.13s7.93,22.35,7.96,24.41c.02,2.06.48,5.32-3.46,4.83-3.93-.5-37.79-.64-37.79-.64,0,0,0-8.62,1.43-14.39,1.42-5.77,8.62-23.99,8.62-23.99l.5-8.51s-6.95-3.36-11.27-8.93c-4.32-5.57-7.48-13.67-5.14-19.44,2.33-5.77,7.13-13.33,14.89-16.15,7.75-2.82,16.02-3.03,19.84-.61,3.82,2.42,11.73,11,12.77,15.7,1.03,4.71-.88,10.9-1.86,15.47-.98,4.57-5.96,10.51-8.11,11.56-2.16,1.05-6.08,2.63-6.08,2.63l7.7,18.06Z"/><path class="cls-3" d="M189.67,297.32c-.58-.32-10.18-4.11-18.89,1.93-4.86,3.36-9.91,10.48-10.29,18.14-.82,16.11,15.41,19.81,15.41,19.81,0,0,1.13.38,1.13,2.63,0,2.67-3.39,13.45-6.86,28.06-3.46,14.55-1.72,21.52-1.72,21.52l-6.06-.69s.68-16.84,3.62-23.07c2.94-6.23,6.86-22.67,6.86-22.67,0,0-7.66-5.51-11.2-9.08-3.54-3.57-5.95-10.11-5.83-14.29.12-4.18,3.88-12.55,3.88-12.55,0,0,4.29-6.41,7.11-7.82,2.82-1.4,4.96-3.44,9.65-4.22,8.68-1.43,13.2,2.28,13.2,2.28Z"/><path class="cls-1" d="M260,113.46s-7.38-.66-10.04-4.14c-2.66-3.48-1.97-6.44-1.73-8.33.25-1.88,3.6-4.71,4.59-4.14s4.8,2.75,7.26,1.14,13.97-15.82,13.98-15.96,8.13-8.19,10.24-5.51c2.12,2.68,4.13,8.61,6.51,8.89s10.57-4.52,10.57-4.52c0,0,7.98-3.11,9.64-.99s7.91,11.44,7.91,11.44l6.18,5.51s5.19,1.15,7.36,3.26,1.66,6.31.55,8.32c-1.12,2.01-1.14,3.77-1.73,3.99s-4.84,2.05-4.84,2.05h-4.83s-6.94,17.72-13.23,22.07c-6.29,4.35-16.45,6.17-21.25,6.11-4.8-.07-14.7-7.96-14.7-7.96,0,0-9.4-11.97-9.67-12.54-.27-.57-2.75-8.7-2.75-8.7Z"/><path class="cls-3" d="M167.27,468.13s-10.61,1.12-8.16,2.54c3.08,1.79,28.51,1.17,28.51,1.17l-20.34-3.71Z"/><path class="cls-1" d="M360.4,103.82s-2.1-2.59-1.69-4.57c.42-1.98,6.65-8.87,6.65-8.87,0,0,5.07-3.6,7.61-4.21s8.38,1.89,10.89,2.69,9.85,6.83,11.41,9.6c1.56,2.77,7.54,12.04,7.54,12.04l2.35,9.78-14.94,1.89s-.95-7.39-2.1-9.74c-1.15-2.34-3.85-6.9-3.85-6.9,0,0-5.36-1.01-4.68.07.68,1.08.98,2.78-.12,3.72s-5.52-.13-5.52-.13c0,0-3.28.45-4.68-.15s-5.53-2.64-5.53-2.64l-3.32-2.57Z"/><path class="cls-1" d="M220.62,225.63s-10.09-3.02-13.37-4.75c-3.28-1.72-7.9-5.92-7.9-5.92,0,0-3.36,0-4.78-2.67-1.42-2.66-3.02-10.02-3.14-11.55s1.36-9.27,1.36-9.27c0,0,2.05-3.29,3.97-3.04,1.92.25,6.66-1.3,6.66-1.3,0,0,8.67-.1,8.92.79s2.56,4.5,2.56,4.5c0,0,1.58,5.99.6,6.62-.98.64-5.37,0-5.37,0,0,0,2.74,1.91,2.88,3.57.14,1.66-3.95,4.82-3.95,4.82l11.56,6.56v11.63Z"/><path class="cls-3" d="M416.85,258.97c-2.92,2.56-5.69,5.32-8.44,8.13-1.01,1.02-1.94,2.11-2.94,3.15-3.55,3.63-7,7.38-10.91,10.79-.88.74-1.77,1.48-2.75,2.14-.96.67-1.9,1.26-2.91,1.85-2.59,1.55-5.8,2.17-8.67,1.66-.91-.22-.78-.2-.03-.51.75-.39,2.1-.92,3.58-1.33,1.31-.4,2.51-.87,3.67-1.55.58-.33,1.16-.72,1.75-1.12l.89-.62.81-.61c2.13-1.74,4.27-3.71,6.36-5.76,2.53-2.44,4.86-5.3,7.31-7.97,2.69-2.95,5.5-5.81,8.44-8.55,1.81-1.68,3.67-3.32,5.61-4.87,2.92-2.36,6.1-4.46,9.42-6.22,2.59-1.35,5.27-2.55,8.19-3.17.65-.11,1.28-.26,1.94-.35,1.23-.04,2.05-.06,2.61.15.56.2.87.45,1.09.8.1.16.24.31.29.46.17.48-.81.91-2.4,1.13-4.71.64-9.37,2.53-13.7,5.31-3.21,2.06-6.28,4.46-9.17,7.1l-.05-.05Z"/><path class="cls-3" d="M279.22,462.92s5.3.42,6.43,1.84-10.95,3.53-10.95,3.53l3.25-3.39,1.27-1.98Z"/><path class="cls-3" d="M389.34,454.59s-5.51,1.27-4.52,2.68c.99,1.41,15.88,2.43,15.88,2.43l-8.89-3.74-2.47-1.38Z"/><path class="cls-3" d="M273.76,452.7c-.85,0-1.69.05-2.56.04-.31,0-.62.05-.94.03-1.12-.06-2.24-.16-3.35-.31-.49-.05-.99-.09-1.48-.15-.62-.13-1.27-.16-1.81-.6-.17-.13-.12-.19.07-.34.14-.11.29-.21.4-.3.16-.1.32-.16.5-.17,1.23-.18,2.37-.08,3.59.03.73.09,1.49-.1,2.24-.17.83-.1,1.67-.12,2.51-.18.52-.04,1.05-.07,1.57-.11.79-.07,1.6-.09,2.39-.19.62-.08,1.22-.28,1.84-.4.14-.03.27-.08.41-.08.52,0,.68.17.77.76.02.14.05.27.06.41.03.46-.18.84-.53,1-1.02.47-2.08.51-3.18.62-.83.05-1.67.11-2.5.16v-.05Z"/><path class="cls-3" d="M392.55,442.29l2.6-1.39c.32-.17.6-.39.92-.55,1.13-.57,2.29-1.11,3.45-1.61.52-.22,1.03-.46,1.53-.71.63-.34,1.33-.56,2.06-.66.23-.03.27.16.19.45-.09.29-.27.72-.59.97-.28.23-.56.46-.87.61-.3.18-.6.36-.91.53-.6.37-1.25.65-1.92.91-.81.31-1.52.86-2.28,1.31l-2.5,1.5-1.54.94c-.76.49-1.57.94-2.3,1.47-.57.41-1.07.91-1.61,1.37-.12.1-.23.21-.36.3-.52.26-.77.21-1.12-.12-.08-.08-.17-.15-.24-.23-.23-.26-.2-.65.04-1.05.35-.6.85-.98,1.34-1.4.5-.41,1.03-.79,1.57-1.16.8-.56,1.67-1.03,2.51-1.54l.03.04Z"/><path class="cls-3" d="M275.86,236.37s11.13,6.95,26.38,7.06,27.41-4.44,28.87-4.97c1.46-.53,15.96-7.74,15.96-7.74,0,0,2.87,19.36,7.71,29.28,4.84,9.92,33.37,59.28,36.77,66.75,3.39,7.47,21.69,51.4,21.69,51.4l14.79,29.8,4.25,8.46s-15.14,14.09-24.32,18.56c-9.17,4.47-30.8,13.49-36.46,12.14-5.66-1.35-14.61-22.34-14.61-22.34,0,0-23.87-71.11-25.28-74.98-1.41-3.86-9.9-23.78-9.9-23.78l-8.37,27.87-11.01,61.42-5.71,27.48s-2.76,4.95-6.65,5.97c-3.89,1.02-26.43,3.23-28.82,3.23-6.35.02-33.07-1.71-30.99-3.56,31.25-27.74,50.24-106.37,51.04-115.87l1.18-73.28-8.12-1.63,1.61-21.28Z"/><path class="cls-3" d="M362.41,102.1c.22-.37.44-.73.65-1.1.08-.13.14-.27.23-.4.31-.45.65-.88.97-1.31.14-.2.27-.38.42-.58.17-.25.35-.5.57-.72.13-.14.17.19.02.5-.29.54-.57,1.08-.9,1.59-.21.3-.33.67-.51,1-.19.36-.38.73-.55,1.1-.11.23-.22.46-.31.69-.15.35-.3.71-.4,1.08-.08.29-.09.59-.12.88,0,.06,0,.13-.01.19-.04.24-.12.29-.42.27-.07,0-.13,0-.2-.02-.22-.03-.37-.18-.38-.37-.02-.57.16-1.12.38-1.66.16-.4.36-.78.56-1.17h.02Z"/><path class="cls-3" d="M367.25,105.89c.11-.33.24-.65.38-.96.05-.11.08-.24.13-.35.21-.39.44-.76.73-1.09.12-.15.23-.31.33-.46.13-.2.25-.42.48-.54.13-.08.56.52.46.75-.21.39-.36.79-.69,1.11-.2.2-.26.48-.37.73-.12.27-.23.55-.33.84-.06.18-.11.36-.15.54-.06.28-.11.56-.1.84,0,.22.08.43.13.64,0,.05.03.09.04.14.03.17-.04.24-.31.31l-.18.05c-.21.05-.39,0-.48-.15-.24-.41-.37-.9-.31-1.37.03-.35.11-.7.19-1.04h.03Z"/><path class="cls-3" d="M399.99,119.06c-.79,0-1.59,0-2.38.08-.29.02-.57.1-.86.12-1.02.12-2.06.19-3.07.42-.45.09-.89.24-1.32.38-.55.21-1.13.33-1.72.44-.19.03-.21-.08-.12-.27.09-.18.28-.5.57-.71.51-.39,1.1-.61,1.69-.79.59-.19,1.2-.34,1.82-.43.74-.12,1.49-.33,2.25-.43.83-.11,1.67-.17,2.51-.19.52-.02,1.03-.02,1.54-.01.78,0,1.56.06,2.33.08.6.02,1.19-.03,1.8-.02.13,0,.26-.01.4,0,.49.07.63.19.67.57.01.09.03.17.03.26,0,.28-.23.49-.59.54-1.05.15-2.1.05-3.17.03-.79-.03-1.59-.06-2.39-.04v-.03Z"/><path class="cls-3" d="M277.14,234.25c-.16-.77-.27-1.53-.37-2.28-.04-.28-.11-.54-.14-.81-.12-.95-.19-1.94-.32-2.9-.05-.43-.16-.85-.21-1.27-.09-.54-.17-1.09-.18-1.64,0-.17.09-.17.23-.04.14.12.35.35.47.65.47,1.04.69,2.12.82,3.24.07.67.29,1.33.46,2,.16.73.33,1.46.49,2.19.11.44.22.89.36,1.31.21.65.45,1.3.81,1.83.28.42.69.71,1.05.92.08.06.17.07.25.12.28.17.35.25.33.67v.28c-.03.3-.28.49-.72.45-.61-.12-1.24-.43-1.65-.9-.41-.46-.73-.97-.95-1.49-.35-.77-.56-1.55-.75-2.32h.03Z"/><path class="cls-3" d="M345.2,227.35c.24-.83.45-1.67.62-2.54.06-.32.06-.64.13-.95.19-1.12.46-2.25.59-3.39.07-.51.09-1.02.11-1.52.04-.65-.01-1.3.22-1.95.06-.2.15-.17.3,0,.12.17.44.5.46.87.12,1.33.2,2.67.04,4.01-.09.8-.03,1.65-.12,2.48-.09.91-.21,1.82-.39,2.72-.09.56-.24,1.11-.36,1.67-.1.42-.24.84-.36,1.26-.17.41-.3.83-.48,1.24-.27.63-.47,1.33-.96,1.94-.11.13-.21.27-.34.4-.52.42-.84.38-1.13.01-.07-.09-.14-.17-.2-.26-.18-.32-.14-.71,0-.95.38-.77.73-1.62,1.07-2.66.13-.36.25-.78.4-1.16.13-.4.25-.81.36-1.23h.05Z"/><path class="cls-3" d="M220.36,216.91c.08.71.15,1.42.17,2.13.02.26.05.52.03.78-.05.92-.17,1.83-.35,2.72-.07.39-.13.79-.23,1.17-.12.49-.28.98-.55,1.42-.08.14-.19.08-.3-.1-.11-.17-.24-.45-.24-.73.02-.49-.04-.98.02-1.45.05-.47.11-.94.18-1.42.1-.57-.03-1.18-.09-1.76-.07-.65-.12-1.3-.23-1.95-.06-.4-.14-.8-.23-1.2-.15-.6-.29-1.21-.53-1.78-.19-.44-.49-.83-.76-1.23-.06-.09-.13-.17-.19-.26-.21-.33-.04-.54.34-.8.09-.06.18-.13.28-.18.31-.18.67-.16.96.04.66.69,1.03,1.57,1.3,2.49.21.68.34,1.39.47,2.1h-.04Z"/><path class="cls-3" d="M207.86,215.91c-.44.24-.89.48-1.35.7-.16.08-.31.19-.49.26-.6.25-1.22.49-1.88.57-.28.06-.57.1-.85.15-.36.04-.73.05-1.08-.02-.11-.02-.09-.03,0-.08.09-.04.25-.15.44-.22.67-.25,1.21-.66,1.84-.9.4-.11.74-.39,1.09-.61.39-.25.79-.5,1.17-.78.24-.17.48-.34.7-.52.35-.28.71-.54,1.03-.86.25-.25.42-.56.63-.85.05-.06.08-.14.13-.2.19-.22.33-.19.67.1l.23.2c.25.24.35.53.26.74-.27.61-.74,1.06-1.26,1.48-.39.31-.83.57-1.26.84l-.02-.03Z"/><path class="cls-3" d="M253.57,200.13c-.37.04-.75.09-1.12.13-.13.02-.26.07-.39.08-.48.02-.96.03-1.43,0-.21-.02-.42,0-.62,0-.13,0-.26.03-.39.01-.13-.04-.27-.09-.4-.15-.08-.04-.08-.12-.02-.25.06-.12.16-.36.29-.49.23-.18.47-.23.71-.32.23-.1.48-.1.74-.06.31.04.6-.11.89-.18.33-.07.66-.15.99-.22.2-.05.4-.1.6-.17.3-.1.61-.19.88-.34.21-.12.37-.34.54-.52.04-.04.07-.09.11-.12.16-.11.28-.02.54.34l.18.25c.19.28.26.57.18.76-.25.52-.7.78-1.16.99-.35.14-.73.21-1.1.3v-.04Z"/><path class="cls-3" d="M269.38,152.99c-.1-.54-.26-1.03-.49-1.32-.09-.09-.19-.14-.3-.2-.19-.1-.47-.17-.82-.13-.17,0-.35.07-.53.1-.2.05-.46.14-.69.17-.43.07-.86.06-1.21.04-.23,0-.43,0-.62.04-.2.01-.41.02-.63.06-.14.02-.2-.1-.16-.3.03-.2.17-.54.49-.71.59-.22,1.17-.18,1.5-.26.38-.06.53-.16,1.16-.37.63-.18,1.45-.44,2.29-.09.89.4,1.32,1.16,1.62,1.8.19.41.3.83.42,1.23.16.62.26,1.24.42,1.83.12.46.33.9.46,1.35.03.1.07.2.08.3.06.38-.06.52-.51.67-.1.03-.2.07-.31.1-.35.09-.67-.02-.85-.27-.54-.74-.81-1.53-.96-2.33-.12-.59-.24-1.17-.4-1.69l.04-.02Z"/><path class="cls-3" d="M323.13,150.62c-.29.37-.58.75-.85,1.13-.1.14-.15.3-.26.44-.36.48-.74.98-1.09,1.45-.17.21-.29.45-.42.68-.08.15-.14.31-.24.44-.11.13-.24.26-.39.37-.09.07-.2,0-.31-.15-.11-.15-.28-.41-.29-.64.01-.38.14-.69.24-1.03.1-.33.27-.64.51-.9.28-.33.38-.76.58-1.13.22-.41.45-.82.68-1.23.14-.25.3-.49.45-.74.22-.38.46-.74.63-1.14.13-.31.14-.67.25-.98.02-.07.03-.15.06-.21.12-.25.28-.26.7-.13l.28.09c.3.11.52.34.55.58.03.34.07.7-.02,1-.08.3-.2.59-.34.88-.2.42-.44.82-.66,1.24l-.04-.02Z"/><path class="cls-3" d="M318.93,142.66s-1.92-3.03-5.78-3.58c-2.44-.35-5.39.8-7.25,2.31-4.37,3.55,6.51-5.89,6.51-5.89,0,0,3.78.59,4.36,2.56s2.15,4.6,2.15,4.6Z"/><path class="cls-3" d="M309.16,138.05s-2.15,4.14-10.38,8.28c-4.64,2.33-14.33,1.87-18.28-.99-1.48-1.07-3.96-.66-5.57.78-1.26,1.13-2.05,2.96-2.65,4.89-1.17,3.78-.4-4.52-.4-4.52,0,0,3.99-5,5.53-6.36s7.32,1.8,7.32,1.8l8.49.64,11-3.2,4.95-1.32Z"/><path class="cls-3" d="M330.72,98.45s6.73-5.25,9.64-15.26c2.51-8.64,1.19-18.01-4.11-25.28-5.49-7.51-11.24-9.22-14.81-9.98s-10.35-1.13-16.94,1.32c-6.59,2.45-10.46,4.35-13.99,7.48-3.54,3.12-6.64,4.57-10.55,5.61-3.92,1.04-7.26,2-9.11.63-3.08-2.28-11.15-3.85-12.84-3.85s-10.08,1.13-13.42,3.71c-3.34,2.58-7.33,9.99-8.14,11.79-.81,1.81-1.82,8.81-1.82,11.63s1.35,6.76,1.4,9.33,6.14,10.95,7.93,12.17,7.89,5.1,7.89,5.1c0,0-4.91-6.65-3.6-9.05,1.31-2.39.28-4.11,2.39-5.51,2.2-1.46,5.23.22,5.23.22,0,0,6.88-1.58,8.46-3.25,1.58-1.67,7.56-10.47,7.56-10.47,0,0,4.83-6.64,7.14-7.01s5.67-.14,6.69,2.17c1.02,2.31,2.8,6.63,6.05,6.61,3.26-.02,9.38-3.37,9.38-3.37,0,0,3.36-3.55,5.97-2.16,2.62,1.39,6.41,7.21,6.41,7.21l6.74,6.67,6.69,3.67,3.77-.13Z"/><path class="cls-3" d="M410.3,458.69c4.28.51,8.63.78,12.94.7,1.57-.03,3.13-.22,4.65-.34,1.33-.12,2.7-.3,3.77-.66l.35-.14c.1-.06.14-.07.19-.1.1-.06.16-.16.21-.27.09-.19.09-.5-.1-.94-.41-.87-1.43-1.79-2.51-2.53-1.09-.76-2.3-1.43-3.54-2.03-2.21-1.07-4.57-1.92-6.92-2.66-3.03-.93-6.13-1.63-9.15-2.64-.95-.29-.81-.47.09-.73.45-.12,1.09-.27,1.87-.4.77-.09,1.66-.08,2.59.06,1.66.23,3.29.61,4.9,1.05,1.61.44,3.22.93,4.8,1.51,1.58.61,3.14,1.28,4.66,2.11,1.52.84,3.03,1.76,4.38,3.16.4.42.79.91,1.14,1.46.32.6.64,1.27.67,2.1.06.41-.04.84-.13,1.25-.18.38-.27.81-.54,1.14-.11.18-.27.33-.42.47-.15.15-.32.28-.51.39-.32.22-.6.32-.89.47-1.13.46-2.18.71-3.24.92-1.05.2-2.1.35-3.13.43-4.56.32-9.05.14-13.53-.24-2.76-.24-5.5-.59-8.24-1.07-2.09-.38-4.08-.83-6.14-1.3-2.05-.51-4.13-1.09-6.09-2.23-1.56-.92-2.75-2.27-3.69-3.67-.94-1.41-1.66-2.92-2.25-4.46-.26-.68-.52-1.34-.72-2.04-.75-2.58-.58-3.47.13-4.19.16-.16.31-.36.48-.47.28-.18.6-.04.94.37.34.41.73,1.07,1.01,1.95.92,2.58,1.89,5.21,3.31,7.3.71,1.04,1.5,1.9,2.41,2.43.98.58,2.23,1.04,3.55,1.41.99.28,2.02.51,3.08.73l3.22.67c2.1.41,4.25.72,6.41.94v.08Z"/><path class="cls-3" d="M262.92,472.54c-4.13,1.05-8.3,1.93-12.58,2.44-1.56.18-3.14.38-4.75.37-1.42-.01-2.87-.1-4.38-.51-.37-.09-.76-.26-1.13-.39-.38-.19-.76-.37-1.13-.63-.37-.3-.72-.54-1.02-.99-.18-.24-.36-.46-.44-.72l-.16-.38c-.03-.13-.05-.27-.07-.4-.07-.54.05-1.09.24-1.6.11-.23.2-.42.31-.62l.34-.52c.48-.64,1.01-1.17,1.55-1.66,1.09-.95,2.25-1.74,3.44-2.46,2.1-1.28,4.27-2.42,6.48-3.41,1.44-.59,2.9-1.14,4.42-1.56,1.54-.34,3.15-.39,4.72-.32.98.06.83.18.05.43-.39.13-.93.39-1.54.73-.64.38-1.32.79-2.05,1.22-1.37.57-2.76,1.14-4.09,1.82-1.35.64-2.71,1.26-4.02,1.99-1.31.71-2.6,1.48-3.8,2.31-1.17.83-2.38,1.75-3.05,2.67-.11.13-.16.27-.22.34-.03.06-.06.12-.07.18-.02.14.02.26.12.38.32.4,1.02.73,1.8.93,1.61.37,3.49.34,5.32.22,4.06-.3,8.18-1.14,12.23-2.14,2.49-.63,4.98-1.33,7.42-2.12,1.85-.6,3.7-1.24,5.5-1.96.89-.36,1.8-.74,2.57-1.17.19-.12.3-.18.4-.27l.36-.45c.24-.35.48-.71.66-1.12,1.21-2.54,1.56-5.51,1.88-8.41.05-.65.11-1.28.16-1.93.25-2.42.52-3.17,1.51-3.6.22-.1.44-.24.65-.28.69-.17,1.24.9,1.22,2.74-.03,2.74-.26,5.57-.93,8.47-.35,1.45-.78,2.93-1.52,4.43-.17.37-.39.75-.64,1.13-.22.39-.52.73-.86,1.15-.17.23-.51.46-.76.68-.29.18-.49.3-.68.4-.38.2-.74.38-1.09.53-2.07.92-4.09,1.63-6.14,2.3-2.05.67-4.11,1.27-6.19,1.84l-.03-.07Z"/><path class="cls-3" d="M320.61,243.41c-1.93.29-3.83.7-5.78.85l-2.9.31c-.97.1-1.94.11-2.91.17-.71.04-1.42.09-2.12.15-.71.05-1.42.03-2.13.03-1.25-.05-2.5,0-3.75-.13l-3.74-.35c-2.47-.38-4.95-.73-7.36-1.42-2.17-.46-4.27-1.21-6.38-1.83-1.3-.56-2.6-1.14-3.88-1.74-1.27-.62-2.4-1.55-3.45-2.49-.65-.6-.53-.55.25-.44.39.06.97.09,1.63.17.33.04.7.06,1.05.14.34.1.7.22,1.05.38l3.9,1.28c1.31.38,2.61.79,3.91,1.21,1.31.38,2.66.64,3.99.99,1.33.35,2.72.49,4.08.8.81.19,1.65.28,2.5.34.85.06,1.7.12,2.55.18,1.71.07,3.44-.03,5.15,0,1.88-.11,3.77-.17,5.65-.36,1.87-.24,3.77-.37,5.63-.75,1.15-.21,2.3-.39,3.44-.62l3.41-.81c1.72-.4,3.4-.98,5.1-1.46,1.68-.55,3.33-1.2,4.96-1.83,1.24-.57,2.45-1.18,3.64-1.79,1.19-.63,2.31-1.37,3.48-2.03.51-.3,1-.61,1.49-.94,1.85-1.19,2.58-1.33,3.44-.87.2.11.42.19.58.32.53.41.05,1.38-1.3,2.41-4.01,3.02-8.79,5.41-13.79,7.13-1.84.7-3.75,1.18-5.63,1.77-1.92.45-3.82.95-5.75,1.33l-.02-.07Z"/><path class="cls-3" d="M388.49,115.82c-.11-.63-.27-1.26-.47-1.88-.07-.23-.2-.42-.27-.66-.25-.81-.54-1.63-.97-2.37-.09-.17-.2-.32-.32-.47-.11-.16-.2-.32-.32-.47-.28-.4-.64-.72-.79-1.28-.05-.17.01-.21.23-.25.11-.02.26-.04.44-.06.19-.03.37-.01.51.07.48.28.99.56,1.37.96.34.43.65.89.86,1.41.27.61.71,1.13,1.01,1.73.34.65.55,1.36.77,2.06.12.43.24.87.34,1.3.17.66.25,1.33.41,1.99.11.51.36,1,.52,1.52.04.11.1.22.11.34.04.44-.18.59-.8.68-.14.02-.29.05-.43.06-.48.04-.9-.12-1.11-.39-.5-.78-.6-1.58-.77-2.41-.12-.61-.21-1.24-.38-1.86l.05-.02Z"/><path class="cls-3" d="M374.76,84.41c1.16-.09,2.38-.06,3.64.29.69.15,1.08.39,1.61.59l1.49.62c1.95.9,3.83,1.94,5.57,3.16l.97.64.92.7c.61.47,1.25.92,1.82,1.44,4.03,3.66,7.33,7.98,9.98,12.61.56,1.04,1.18,2.06,1.69,3.13l.8,1.58.73,1.61c.33.68.61,1.39.89,2.09.14.35.29.7.41,1.06l.31,1.1c.2.73.4,1.47.48,2.24.05.38.1.76.13,1.14.02.39-.08.79-.08,1.17-.02.95-.09.82-.51.1-.47-.72-1.58-1.89-2.2-3.4-2.22-5.4-4.89-10.63-8.21-15.56-2.01-2.94-4.71-5.52-7.53-7.75l-1.17-.92c-.4-.3-.82-.55-1.23-.83-.83-.55-1.64-1.11-2.54-1.54-.88-.45-1.73-.97-2.67-1.3l-1.38-.56c-.23-.09-.47-.2-.68-.27l-.62-.16c-2.14-.39-4.61.1-6.81,1.01-3.36,1.36-6.47,3.68-8.38,6.74l-.52.9-.49.97c-.31.65-.6,1.29-.83,1.94-.46,1.28-.75,2.64-.24,3.3.24.41.59.76.98,1.11.75.64,1.4,1.01,1.79,1.39.39.37.58.71.66,1.14.04.2.11.41.1.58-.01.29-.28.44-.78.43-.49-.01-1.21-.15-2.09-.6-1.27-.66-2.69-1.66-3.44-3.47-.4-1.13-.3-2.09-.15-2.9.16-.82.4-1.56.67-2.26.27-.7.58-1.36.89-2l.47-.94.57-1c.8-1.32,1.76-2.54,2.86-3.6,1.62-1.6,3.49-2.9,5.52-3.91,2.03-1,4.22-1.68,6.58-1.9v.07Z"/><path class="cls-3" d="M361.87,105.66v-.02c-.05-.49.02-1.11.11-1.35.08-.31.17-.6.27-.88.19-.56.4-1.1.61-1.63.16-.39.26-.79.44-1.17.64-1.33,1.45-2.58,2.37-3.73.4-.52.8-1.04,1.23-1.53.3-.3.59-.6.95-.84.18-.12.34-.26.54-.34.19-.1.44-.11.65-.16.28-.04.28.07.23.39-.03.22-.06.44-.09.62-.05.21-.13.4-.25.58l-.32.43-.28.47-.62.88c-.4.61-.81,1.23-1.23,1.87-.53.76-.79,1.7-1.12,2.59-.36.97-.69,1.99-.89,2.95-.02.11-.03.17-.05.21-.01.05-.02.11-.02.16.01.19.12.44.34.69.5.57,1.4,1.1,2.28,1.44.7.26,1.45.3,2.17.34.16,0,.32-.01.48,0,.29.03.47.09.59.25.11.18.16.42.18.78,0,.17.03.33.03.49,0,.27-.08.51-.23.71-.15.2-.37.37-.64.4-1.59.23-3.25-.26-4.72-1.04-.53-.28-1.13-.64-1.7-1.17-.56-.51-1.17-1.27-1.4-2.37l.06-.02Z"/><path class="cls-3" d="M207.39,219.1c.5.31,1.03.59,1.55.88.51.31,1.05.58,1.58.87.39.21.81.33,1.2.53,1.38.72,2.81,1.35,4.25,1.94.64.27,1.31.46,1.97.63.84.26,1.68.51,2.51.92.26.13.21.2-.04.33-.25.11-.75.42-1.3.47-.48,0-.96.03-1.44,0-.47-.04-.93-.13-1.39-.23-.91-.2-1.81-.45-2.66-.87-1.02-.48-2.16-.74-3.23-1.16-1.17-.47-2.32-.98-3.43-1.58-.68-.37-1.36-.75-2.04-1.15-1.02-.6-2.01-1.26-2.99-1.93-.38-.26-.79-.47-1.18-.75-.4-.25-.81-.51-1.16-.86-.16-.15-.34-.28-.49-.44-.29-.3-.33-.65-.33-.87.01-.24.13-.43.36-.64.1-.1.2-.2.31-.28.36-.26.88-.21,1.31,0,1.22.65,2.37,1.47,3.66,2.32.48.31.96.62,1.47.92.49.31,1.01.6,1.54.88l-.03.06Z"/><path class="cls-3" d="M214.27,208.79c.4.36.8.73,1.24,1.05.16.12.35.18.51.3.28.22.57.43.86.64.29.21.57.46.87.66.27.17.56.31.84.45.18.1.37.14.55.26.17.13.34.27.51.42.11.1.07.19-.08.34-.14.13-.43.41-.72.51-.5.12-.96.08-1.42.04-.43-.12-.85-.29-1.22-.55-.43-.35-.97-.48-1.45-.75-.52-.3-1.02-.63-1.5-.98-.3-.21-.58-.45-.88-.68-.44-.34-.85-.73-1.31-1.05-.33-.28-.77-.44-1.09-.76-.07-.07-.15-.13-.21-.21-.1-.17-.15-.29-.11-.43.07-.17.16-.31.29-.46.06-.07.11-.14.16-.19.09-.09.2-.14.36-.2.16-.05.39-.13.5-.09.2.03.41.05.61.07.2.02.34.1.52.15.33.11.65.25.9.47.42.29.82.63,1.26.93l-.03.06Z"/><path class="cls-3" d="M350.08,156.29c1.68.96,3.37,1.86,5.13,2.47.89.31,1.84.55,2.76.83.94.19,1.88.42,2.84.57.7.09,1.4.16,2.11.23l2.12.1c2.49.1,5.01.03,7.49-.38,2.49-.37,4.96-.97,7.34-1.83,1.07-.34,2.09-.84,3.12-1.3,1-.51,1.98-1.06,2.95-1.62,2.5-1.42,4.74-3.22,7.06-4.98.73-.54.84-.29.56.52-.3.78-.87,2.33-2.17,3.54-2.27,2.15-4.82,4.08-7.71,5.36-2.84,1.34-5.87,2.33-8.99,2.8-3.7.6-7.6,1.1-11.44.82-1.05-.08-2.1-.23-3.15-.36-1.04-.21-2.08-.38-3.1-.64-2.02-.53-4.11-1.18-5.99-2.15-2.33-1.14-4.49-2.51-6.61-3.85-3.2-2.03-6.37-4.1-9.81-5.37-2.67-1-5.43-1.46-8.19-1.48-.61-.02-1.2.07-1.81.07-1.13-.02-1.88.07-2.42-.05-.54-.12-.88-.35-1.18-.73-.14-.17-.31-.34-.41-.51-.32-.56.59-1.22,2.41-1.59,2.7-.39,5.6-.42,8.44.18,2.84.58,5.59,1.66,8.14,2.96,3.8,1.93,7.17,4.34,10.57,6.3l-.03.07Z"/><path class="cls-3" d="M217.91,207.9c-.1-.41.12-.7.22-.98l.09-.21.05-.1.03-.06v-.03s.02-.01.02-.01h0c-.24-.15-.07-.05-.12-.08h0c.11-.13.19-.27.33-.37.29-.19.56-.39.93-.52.35-.15.69-.3,1.04-.37l.52-.14.26-.07.16-.04.64-.15,1.26-.26,4.98-.96c1.2-.23,2.39-.56,3.58-.79,4.23-.83,8.45-1.67,12.56-2.85,1.82-.53,3.62-1.15,5.3-1.92,2.17-.96,4.23-2.11,5.78-3.51.3-.21.48-.34.55-.31.07.03.08.2.18.63.23.83-.2,2.6-1.49,3.59-1.1.9-2.24,1.63-3.42,2.24-1.19.58-2.4,1.06-3.62,1.5-2.44.87-4.95,1.41-7.46,1.89-3.01.55-6.04,1.41-9.08,2.04l-5,.99-2.48.49-2.11.45c-.11.03-.23.05-.35.1-.12.03-.27.09-.21.23.02.24.06.47.1.73l.5,3.12c.48,3.17.72,6.39.79,9.58.06,2.48.09,4.94-.19,7.43-.06.55-.12,1.09-.22,1.64-.42,2.03-.85,2.61-1.72,2.78-.2.04-.4.11-.58.1-.6-.01-.82-.92-.64-2.3.52-4.1.64-8.43.31-12.83-.12-1.63-.31-3.27-.54-4.9-.11-.82-.25-1.64-.4-2.45l-.24-1.23-.18-.89c-.07-.4-.19-.82-.21-1.21h.08Z"/><path class="cls-3" d="M256.61,164.3c-.8,2.91-1.23,5.95-1.36,9.03-.07,1.12.04,2.26.03,3.39.01,4,.27,8.07.63,12.15.15,1.82.3,3.64.45,5.45.09,1.16.17,2.33.17,3.51,0,.59,0,1.18-.05,1.76-.09.58-.17,1.17-.26,1.76-.13.73-.29.62-.58,0-.15-.31-.34-.74-.54-1.25-.21-.51-.44-1.11-.53-1.76-.4-2.3-.79-4.6-1.19-6.91-.22-1.15-.3-2.34-.4-3.52-.09-1.19-.18-2.38-.21-3.59-.11-2.87-.55-5.86-.51-8.85.01-3.27.3-6.58.99-9.81.23-.99.43-1.99.77-2.95l.45-1.46c.16-.48.37-.97.55-1.45,1.23-2.89,3.16-5.49,5.59-7.47,1.88-1.53,4-2.76,6.34-3.5.52-.15,1.02-.3,1.55-.42,1.99-.32,2.65-.09,3.07.67.1.17.22.33.27.49.17.54-.57,1.11-1.82,1.37-3.7.88-7.16,2.62-9.58,5.57-.9,1.08-1.68,2.28-2.3,3.58-.31.65-.57,1.32-.81,2.01l-.65,2.18h-.07Z"/><path class="cls-3" d="M320.74,142.15c.33.78.5,1.64.75,2.44.12.84.33,1.66.37,2.51.03.61.17,1.22.11,1.83-.1,2.16-.7,4.27-1.63,6.15-.37.85-.9,1.62-1.35,2.42-.36.46-.71.94-1.08,1.39-.43.4-.97.7-1.48.98-.33.16-.34.07-.28-.29.07-.36.09-1.09.35-1.63.25-.47.51-.92.77-1.37.24-.46.41-.95.64-1.4.35-.96.7-1.92,1.05-2.9.22-.59.24-1.24.32-1.88-.04-.65-.03-1.3-.1-1.93-.09-.7-.09-1.42-.26-2.11-.07-.35-.11-.71-.21-1.05l-.32-1.03c-.11-.43-.3-.83-.48-1.24-.19-.4-.33-.83-.59-1.2-.68-1.16-1.45-2.32-2.47-3.21-.76-.74-1.75-1.15-2.64-1.64-.21-.09-.43-.15-.63-.25-.74-.38-.86-.7-.63-1.55.05-.19.09-.39.16-.58.22-.63.8-.92,1.52-.73,2.17.49,4.04,2.04,5.54,3.8l.81,1.02c.25.36.46.74.68,1.11.48.73.81,1.54,1.16,2.32l-.07.03Z"/><path class="cls-3" d="M273.43,147.74c-.53,1.09-.88,2.3-1.04,3.56-.07.48-.03.89-.03,1.32-.06,1.55.23,3.3.88,4.89.31.7.64,1.41,1.05,2.05.26.42.55.82.83,1.22.26.43.51.85.79,1.3.16.28.06.33-.27.28-.33-.05-.95-.15-1.52-.49-.88-.69-1.66-1.51-2.34-2.42-.63-.93-1.08-1.99-1.37-3.09-.16-.67-.39-1.32-.56-2.01-.19-.68-.34-1.4-.33-2.15.02-1.57.27-3.08.73-4.54.3-.89.66-1.77,1.11-2.59.68-1.25,1.58-2.37,2.56-3.39.76-.79,1.51-1.65,2.55-2.28.24-.13.46-.28.72-.39,1-.33,1.46-.03,1.67.7.05.17.11.34.13.51.06.59-.22,1.08-.55,1.41-.53.45-1.06.87-1.59,1.37-.53.51-1.05,1.07-1.53,1.68-.71.92-1.33,1.94-1.82,3.05l-.07-.02Z"/><path class="cls-3" d="M306.18,140.76c-2.96,1.76-6.31,2.84-9.68,3.25-3.38.41-6.78.24-10.07-.47-2.4-.52-4.75-1.28-6.94-2.36-3.86-1.92-7.28-4.6-10.12-7.75-1.43-1.56-2.72-3.26-3.86-5.03-1.14-1.77-2.17-3.62-3.02-5.54-1.56-3.39-2.69-6.99-3.38-10.61-.86-4.65-1.11-9.55.16-14.13.49-1.41.52-1.19.79.08.14.63.27,1.52.48,2.56.15,1.04.32,2.24.4,3.53.43,9.1,3.21,18.11,8.78,25.47,1.66,2.19,3.68,4.18,5.94,5.86,2.26,1.68,4.78,3.01,7.39,4,2.86,1.11,5.92,1.67,9,1.76,3.07.07,6.17-.34,9.03-1.44,3.54-1.3,6.72-3.54,9.32-6.35,3.94-4.27,6.74-9.63,8.64-15.17,1.46-4.33,2.3-8.75,2.9-13.21.11-.99.21-1.95.32-2.95.23-1.84.39-3.04.62-3.89.24-.84.52-1.32.92-1.7.18-.17.36-.41.54-.51.55-.34,1.06,1.24,1.02,4.05-.08,4.17-.69,8.43-1.66,12.68-.98,4.25-2.39,8.5-4.33,12.56-1.45,3.01-3.21,5.92-5.37,8.57-2.15,2.65-4.78,4.98-7.76,6.77l-.05-.06Z"/><path class="cls-3" d="M306.77,49.43c-2.44.71-4.8,1.74-7.03,3.02-2.24,1.28-4.39,2.82-6.58,4.4-2.19,1.58-4.41,3.22-6.87,4.63-2.44,1.41-5.13,2.59-8.01,3.15-1.06.16-2.07.36-3.27.34-1.16-.03-2.37-.25-3.4-.67-2.12-.82-3.69-1.9-5.38-2.6-2.92-1.28-6.19-1.56-9.51-1.29-.82.11-1.68.14-2.47.3-.78.19-1.59.29-2.36.53-.75.29-1.54.5-2.27.85-.71.39-1.47.69-2.14,1.15-2.76,1.72-5.08,4.16-6.88,6.95-1.8,2.8-3.1,5.94-3.93,9.2-.73,2.89-1.09,5.91-.96,8.88.03.74.12,1.48.18,2.22.07.74.24,1.44.37,2.15.37,1.42.82,2.82,1.41,4.18,1.49,3.49,3.59,6.75,6.1,9.59.3.37.65.68.97,1.03.33.34.65.69,1.01.99l1.02.97,1.09.87c1.48,1.12,3.09,2.05,4.85,2.62,1.09.34,1.62.54,1.59.65-.04.11-.61.17-1.73.39-.55.05-1.23.01-2.02-.06-.74-.17-1.67-.28-2.56-.66-.94-.31-1.86-.8-2.84-1.36-.49-.28-.92-.64-1.42-.96-.47-.36-.9-.77-1.32-1.2-3.06-3.03-5.43-6.58-7.26-10.43-.87-1.95-1.59-3.98-2.06-6.13l-.28-1.65c-.08-.55-.09-1.08-.14-1.61-.12-1.07-.09-2.14-.08-3.21.09-4.27,1.01-8.48,2.6-12.43,1.61-3.92,3.91-7.66,7.13-10.58,1.9-1.76,4.14-3.18,6.54-4.28,2.44-.99,5.11-1.57,7.65-1.77,2.57-.21,5.24-.17,7.87.44,2.63.58,5.05,1.97,7.11,3.06,1.14.58,2.22.96,3.36,1.01.57,0,1.14,0,1.79-.12l.94-.13.93-.22c2.47-.59,4.83-1.72,7.07-3.12,4.5-2.78,8.62-6.49,13.58-9.19,6.06-3.34,13.19-4.84,20.08-3.95,2.6.32,5.2,1.02,7.58,2.03,2.44.9,4.74,2.17,6.96,3.53l1.59,1.15.79.58.74.65c.49.44.99.86,1.46,1.31l1.34,1.44c1.69,2,3.21,4.18,4.21,6.6,1.66,3.72,2.43,7.73,2.55,11.71l-.02,2.98c-.05.99-.15,1.98-.23,2.97-.26,1.96-.49,3.92-1.03,5.9-.47,1.72-1.04,3.37-1.82,5.01-1.46,3.02-2.97,4.79-4.22,5.81-1.26,1.01-2.24,1.29-3.04,1.32-.38,0-.83.03-1.06-.05-.4-.15-.04-.59.71-1.34.76-.77,1.85-2,3.06-3.79,1.74-2.69,2.98-5.87,3.67-9.09.6-3.31.98-6.79.85-10.18-.13-3.4-.77-6.76-2.1-9.82-1.32-3.07-3.33-5.81-5.85-8.05-1.84-1.7-4.02-3.06-6.3-4.24l-1.74-.84c-.59-.27-1.2-.48-1.8-.73-1.22-.51-2.4-.89-3.62-1.21-4.91-1.21-10.19-1.01-15.09.48l-.03-.07Z"/><path class="cls-3" d="M241.22,233.5c2.32-.41,4.64-.88,6.92-1.55.83-.24,1.64-.54,2.46-.82,2.93-.87,5.77-2.01,8.58-3.26,1.25-.55,2.42-1.26,3.58-1.95.75-.43,1.46-.93,2.21-1.37.76-.43,1.54-.83,2.34-1.22.51-.23.58-.03.39.5-.19.51-.57,1.45-1.28,2.26-.69.61-1.43,1.18-2.15,1.76-.76.53-1.55,1-2.34,1.48-1.61.89-3.26,1.75-5.02,2.35-1.04.38-2.09.78-3.13,1.23-1.05.42-2.11.84-3.17,1.22-2.36.76-4.75,1.43-7.18,1.93-1.48.35-2.99.57-4.49.83-1.14.18-2.29.29-3.43.44-1.15.1-2.29.21-3.43.31-.89.06-1.76.16-2.64.28l-2.65.22c-.39.04-.78.06-1.17.03-1.46-.08-1.91-.35-2.15-1.12-.05-.17-.13-.35-.15-.51-.08-.55.54-1.03,1.57-1.18.76-.09,1.52-.19,2.29-.28.77-.08,1.54-.12,2.32-.18.78-.08,1.56-.14,2.34-.19.78-.06,1.57-.17,2.36-.23,1.17-.09,2.34-.3,3.51-.43,1.17-.17,2.34-.39,3.51-.59l.02.07Z"/><path class="cls-3" d="M213.59,187.44c.26.18.51.48.75.76.26.3.38.53.53.78.28.5.5.99.69,1.48.38.98.66,1.97.87,2.97.15.73.34,1.45.39,2.21.02.4.04.81.03,1.22,0,.21-.01.42-.03.63-.02.22-.04.39-.09.73-.18,1.2-.81,2.35-1.95,2.55-.72.12-1.45-.11-2.07-.56l-.45-.36-.22-.18c-.05-.09-.11-.12-.15-.17-.19-.19-.36-.39-.52-.59-.73-.89-1.38-1.79-1.99-2.69-.36-.6-.73-1.19-1.05-1.81-.31-.62-.57-1.28-.83-1.92-.16-.4-.06-.4.28-.19.33.22.99.6,1.58,1.15l1.45,1.51c.47.5.88,1.03,1.33,1.51.44.48.89.95,1.32,1.32.11.14.12.28.36.39.13.04.25-.02.31-.13.03-.05.05-.12.07-.18.02-.08.02-.08.04-.31.04-.72-.07-1.52-.18-2.31-.27-1.72-.73-3.54-1.55-4.99-.13-.24-.26-.35-.38-.51-.14-.15-.34-.28-.51-.43-.22-.12-.42-.25-.65-.36-.24-.1-.48-.2-.73-.3-1.54-.51-3.27-.77-4.96-.69-1.31.05-2.59.37-3.76.77-.26.09-.49.22-.75.29-.45.18-.8.18-1.05.17-.25-.02-.47-.13-.72-.33-.11-.09-.25-.17-.34-.26-.17-.16-.2-.37-.1-.64.1-.26.35-.62.73-.89,1.15-.85,2.5-1.23,3.84-1.52,1.35-.28,2.75-.32,4.15-.23,1.04.06,2.09.23,3.15.52,1.05.29,2.14.7,3.23,1.53l-.04.06Z"/><path class="cls-3" d="M367.67,106.58c.12-1.03.42-1.93.78-2.77.15-.3.21-.63.38-.91.57-1.01,1.33-1.86,2.08-2.66.34-.35.64-.74,1-1.07.45-.43.96-.86,1.65-.99.21-.04.26.18.24.49-.03.29-.05.69-.22.93-.57.89-1.21,1.72-1.91,2.6-.44.52-.59,1.22-.86,1.83-.28.68-.49,1.38-.59,2.07-.04.22-.05.43-.05.64,0,.1-.01.21,0,.31.01.1,0,.12,0,.19.04.43.37.67,1.07.84.51.11,1.07,0,1.61-.06.12-.01.24-.05.36-.06.44-.02.56.16.65.86.02.16.05.32.06.48.05.54-.17.99-.55,1.13-.57.21-1.17.29-1.8.27-.63-.03-1.28-.14-2.05-.48-.73-.34-1.41-.88-1.68-1.64-.08-.19-.16-.35-.17-.57l-.07-.61c-.03-.28,0-.54,0-.8h.06Z"/><path class="cls-3" d="M274.05,228.7c-.45-3.94-.99-7.9-1.58-11.87-.21-1.45-.51-2.89-.71-4.34-.68-5.13-1.31-10.31-1.39-15.53-.02-2.32-.05-4.65.08-6.95.17-2.95.57-5.95,1.72-8.71.34-.86.53-.67.66.16.07.41.13.99.17,1.66.09.68.12,1.45,0,2.26-.24,2.89-.34,5.77-.27,8.68.05,2.91.31,5.83.48,8.8.22,3.55.95,7.2,1.54,10.82.64,3.98,1.31,7.97,1.85,12,.33,2.48.63,4.97.84,7.46.34,3.78.46,7.61.34,11.4-.07,2.94-.21,5.86-.68,8.78-.09.65-.18,1.28-.34,1.92-.52,2.39-1.12,3.03-2.01,3.26-.21.05-.43.13-.62.14-.63,0-.86-1.09-.52-2.72.85-4.9,1.36-10.06,1.24-15.35-.06-3.92-.37-7.89-.88-11.86h.07Z"/><path class="cls-3" d="M296.86,434.25c2-8.78,3.52-17.77,5.07-26.72.53-3.28,1.07-6.56,1.6-9.83,2.03-11.53,4.16-23.06,6.64-34.53,1.11-5.08,2.26-10.19,3.5-15.22.38-1.62.81-3.23,1.23-4.84.44-1.61.97-3.19,1.46-4.78l.82-2.37c.32-.77.62-1.55.96-2.32l1.01-2.29c.34-.76.76-1.49,1.13-2.24.98-1.84.82-1.59.46.14-.41,1.72-.67,5.02-1.47,8.71-.82,3.25-1.55,6.52-2.42,9.76-.81,3.26-1.58,6.53-2.31,9.81-1.43,6.59-2.86,13.2-4.3,19.84-1.69,7.96-2.92,16.35-4.31,24.57-1.53,9.04-3.03,18.09-4.8,27.12-.57,2.78-1.13,5.56-1.83,8.32-.72,2.77-1.41,5.52-2.76,8.27-.14.26-.33.53-.5.79l-.26.39c-.11.13-.27.27-.41.4-.58.49-1.12.73-1.66.97-1.08.44-2.15.76-3.22,1.01-2.14.52-4.27.86-6.41,1.16-4.28.58-8.55.93-12.81,1.19-6.62.38-13.12.64-19.71.35-1.45-.07-2.87-.13-4.34-.27-5.43-.59-7.15-1.32-8.04-2.48-.21-.26-.49-.53-.58-.75-.29-.74,1.88-.66,5.68-.25,5.67.58,11.59.67,17.58.59,5.99-.1,12.09-.41,18.12-1.07,2.24-.24,4.47-.54,6.66-.92,1.09-.2,2.18-.41,3.22-.67,1.04-.25,2.08-.57,2.86-.93.23-.09.33-.18.47-.25.1-.05.06-.05.07-.05.02.01-.03-.03.04.03.09.08.18.15.27.22l.14.1h.02c-.2-.15.48.4-.45-.35h0s0-.02,0-.02l.04-.06c.1-.16.2-.32.31-.47.11-.15.21-.42.31-.63.1-.22.21-.43.31-.67l.28-.74c.19-.49.37-1,.52-1.53.67-2.08,1.19-4.29,1.7-6.49h.08Z"/><path class="cls-3" d="M427.98,223.34c-3-1.99-6.23-3.74-9.53-5.41-1.2-.61-2.46-1.14-3.66-1.75-4.23-2.2-8.61-4.38-12.57-7.34-1.76-1.31-3.41-2.81-4.81-4.54-.47-.53-.83-1.17-1.25-1.75-.35-.63-.7-1.27-.91-1.97-.21-.7-.44-1.38-.49-2.11-.04-.36-.1-.71-.09-1.07l.07-1.07c.07-.88.25-.73.6-.04.32.7,1.01,1.85,1.73,3.05.17.27.28.55.48.79.19.25.38.49.53.76.31.52.75.98,1.11,1.48.85.92,1.74,1.81,2.77,2.59,1.96,1.65,4.15,3.18,6.48,4.6,2.76,1.72,6.03,2.99,9.07,4.52,3.37,1.66,6.75,3.37,10.02,5.32,2.03,1.18,3.96,2.53,5.86,3.93,2.85,2.16,5.4,4.75,7.61,7.54,1.7,2.17,3.35,4.36,4.65,6.79.29.53.6,1.04.88,1.59.9,2.07.94,2.83.32,3.56-.14.17-.28.36-.44.49-.55.41-1.39-.23-2.13-1.6-1.1-2.05-2.32-4.04-3.6-6.01-1.35-1.92-2.75-3.83-4.42-5.52-2.42-2.56-5.22-4.81-8.29-6.75l.04-.07Z"/><path class="cls-3" d="M418.69,260.14c-3.27,2.54-6.4,5.31-9.41,8.22l-3.22,3.27c-1.95,1.88-3.76,3.82-5.65,5.82-1.89,1.98-3.83,3.97-6.05,5.68-1.96,1.51-4.13,2.86-6.5,3.67l-1.15.37c-.38.11-.79.17-1.18.25-.79.18-1.58.28-2.39.25-.8.05-1.59-.12-2.38-.21-.79-.06-1.54-.35-2.29-.55-.93-.29-.79-.28.04-.35.42-.03,1.01-.12,1.69-.18.69-.14,1.48-.28,2.31-.4.37-.08.73-.17,1.09-.24.36-.04.73-.07,1.07-.18.7-.18,1.41-.31,2.08-.6.34-.13.68-.24,1.01-.38l.97-.49c.66-.28,1.25-.75,1.88-1.1,1.2-.84,2.36-1.77,3.47-2.79,1.14-.99,2.22-2.09,3.32-3.19,1.31-1.33,2.56-2.79,3.84-4.28,1.29-1.49,2.61-2.95,3.95-4.35,2.99-3.07,6.12-6.02,9.4-8.81,2.04-1.69,4.12-3.35,6.29-4.87,3.28-2.33,6.79-4.38,10.43-6.08,2.83-1.31,5.7-2.48,8.76-3.27.68-.13,1.34-.29,2.04-.41,1.28-.25,2.15-.18,2.76-.07.61.12.96.38,1.23.79.13.19.29.37.36.56.23.65-.76,1.24-2.47,1.53-.64.07-1.27.3-1.9.43-.63.17-1.28.25-1.9.48-1.26.4-2.53.73-3.78,1.23-2.52.88-4.99,2.06-7.4,3.36-3.58,1.96-7.03,4.31-10.29,6.92l-.05-.06Z"/><path class="cls-3" d="M255.05,361.14c-2.1,7.61-4.54,15.13-7.38,22.51-.5,1.35-1.06,2.68-1.57,4.03l-.79,2.01-.89,1.97c-2.06,4.65-4.46,9.15-6.96,13.57-2.58,4.39-5.36,8.65-8.42,12.71-.66.92-1.41,1.77-2.1,2.66-.72.87-1.37,1.79-2.14,2.62-1.51,1.68-2.94,3.42-4.57,4.97-1.99,2.08-4.16,4.01-6.41,5.81l-3.53,2.51c-.58.43-1.25.72-1.9,1.05l-1.93.97c-1.61.78-1.46.55-.38-.56.57-.6,1.32-1.38,2.19-2.29.94-.88,1.98-1.97,3.23-2.97,1.14-.85,2.12-1.9,3.18-2.84l1.59-1.42,1.5-1.52c2.04-1.98,3.88-4.17,5.74-6.33,3.63-4.41,6.86-9.18,9.91-14.1,3.64-5.9,6.57-12.55,9.24-19.13,2.98-7.23,5.54-14.65,7.73-22.19,1.37-4.63,2.57-9.32,3.66-14.03,1.63-7.14,3.06-14.37,4.13-21.56.83-5.6,1.28-11.13,1.75-16.69.11-1.22.22-2.42.33-3.66.43-4.57.83-6.01,1.52-6.96.16-.22.32-.51.47-.63.48-.42.84,1.49.92,4.9,0,2.53-.03,5.09-.14,7.67-.15,2.58-.36,5.18-.63,7.8-.52,5.23-1.24,10.52-2.11,15.8-1.34,7.83-3.12,15.62-5.16,23.32h-.09Z"/><path class="cls-3" d="M275.58,79.15c.91-.61,1.98-1.15,3.12-1.43,1.14-.28,2.28-.34,3.34-.27.56.05.95.05,1.75.25.71.18,1.34.53,1.87.91,1.04.78,1.67,1.64,2.26,2.4,1.13,1.54,2.08,2.86,3.2,3.47.14.06.28.13.42.2l.45.13c.32.08.71.1,1.06.17.72,0,1.43-.02,2.15-.26,1.05-.3,2.08-.89,3.12-1.61,1.05-.72,2.12-1.57,3.41-2.33,1.12-.66,2.49-1.28,4.05-1.38.76-.04,1.53,0,2.31.24.19.05.39.1.58.17l.55.28.54.3.46.38c1.21,1.06,1.82,2.26,2.41,3.32.57,1.06,1.09,2.1,1.68,3.05,2.28,3.88,5.79,6.88,9.86,9.05l1.52.83c.19.12.18.13.22.2.03.05.03.15.11.15.13,0,.26-.05.4-.07.15-.03.22-.05.44-.08l.66-.06c.44-.05.89-.02,1.34,0,.9.08,1.82.33,2.65.76,1.7.86,2.87,2.53,3.33,4.27.21.75.29,1.59.25,2.33,0,.37-.02.74-.08,1.11-.04.37-.1.74-.19,1.1-.31,1.46-.94,2.86-1.83,4.07-1.76,2.44-4.6,4.03-7.47,4.28-1.81.09-1.51-.42-.25-1.18,1.26-.83,3.25-2.24,4.73-4.24.76-.99,1.23-2.14,1.57-3.31.13-.6.24-1.2.25-1.82v-.46s-.01-.38-.01-.38c-.04-.25-.08-.5-.15-.75-.3-.98-.9-1.75-1.71-2.15-.41-.2-.88-.32-1.39-.37-.27.01-.53-.04-.82,0l-.43.03s-.24.04-.38.06l-.44.08-.85.09c-.28.01-.52-.04-.79-.13-.26-.11-.35-.17-.6-.36-.09-.09-.29-.18-.23-.34v-.05s0-.03,0-.03h0c-.12.18,1.02-1.64.54-.87v.02s-.1.15-.1.15l-.07.15-.28.59h-.01s-.03-.02-.03-.02l-1.69-.93c-1.14-.58-2.19-1.37-3.27-2.06-2.09-1.55-4.03-3.37-5.61-5.48-1.07-1.41-2-2.95-2.8-4.46-.81-1.49-1.56-3.04-2.44-3.74-.77-.73-2.14-.77-3.36-.36-1.27.45-2.58,1.44-3.98,2.41-1.55,1.07-3.31,2.23-5.46,2.72-.54.08-1.08.22-1.63.2h-.82c-.27,0-.54-.05-.81-.08-.27-.04-.53-.06-.81-.13l-.84-.24c-.54-.22-1.07-.47-1.53-.8-1.87-1.3-2.9-3.08-3.98-4.43-.53-.68-1.08-1.25-1.62-1.52-.14-.05-.27-.15-.41-.16-.14-.03-.26-.08-.5-.09-.42-.05-.84-.08-1.25-.08-1.01,0-1.96.17-2.84.57-.88.4-1.71,1.04-2.51,1.76-.39.37-.81.76-1.16,1.15-.34.39-.68.77-.98,1.22-.63.86-1.17,1.84-1.71,2.82-1.33,2.44-2.59,5.08-4.54,7.38-.96,1.15-2.17,2.14-3.5,2.9l-1.04.5c-.35.16-.73.25-1.09.37-.37.12-.73.24-1.11.28l-1.22.19c-.45.02-.91-.11-1.31-.32l-.87-.43c-.55-.27-1.08-.48-1.61-.6-1.12-.29-2.21-.13-3.16.43-.95.56-1.76,1.45-2.42,2.47-1.24,1.78-.86,4.3.24,6.33.48.91,1.13,1.69,1.85,2.39,1.39,1.26,2.61,1.79,3.4,2.25.81.43,1.27.78,1.65,1.24.17.21.43.41.53.59.18.29-.18.54-1.07.62-.88.07-2.27-.13-3.88-.9-1.05-.5-2.06-1.17-2.97-2.02-.9-.85-1.63-1.84-2.23-2.93-.59-1.09-1.04-2.28-1.23-3.6-.19-1.3-.16-2.74.37-4.13.24-.67.67-1.41,1.02-1.86l.56-.77c.2-.25.44-.49.66-.74.91-.96,2.1-1.9,3.63-2.33,1.52-.47,3.17-.28,4.48.16,1.22.38,2.84,1.3,2.38,1.04.05,0-.02,0,.12-.02l.35-.06c.23-.04.47-.05.68-.14.43-.16.9-.23,1.29-.47,1.32-.59,2.47-1.58,3.48-2.86,1-1.28,1.86-2.81,2.72-4.42.86-1.62,1.7-3.35,2.89-5.07.3-.43.6-.86.98-1.28l.54-.62.52-.53c.71-.71,1.49-1.41,2.41-2.05l.05.06Z"/><path class="cls-3" d="M193.52,194.56c-.46,1.64-.51,3.49-.41,5.38.05.95.16,1.9.29,2.9.06.49.13,1.02.18,1.61.03.46.08.92.14,1.38.2,1.33.62,2.62,1.14,3.82.44,1.07,1.03,2.06,1.76,2.89.36.42.77.78,1.2,1.11.2.13.52.36.56.37.14.06.35.13.61.16,1.02.15,2.29.03,3.49-.17,1.21-.21,2.44-.48,3.63-.85,1.05-.33,2.1-.74,3.05-1.25.48-.25.93-.53,1.33-.84.4-.29.77-.64.91-.91.07-.14.09-.33.03-.48-.07-.15-.18-.28-.33-.34-.09-.06-.39-.19-.68-.29-.3-.09-.62-.17-.96-.23-.67-.12-1.38-.15-2.09-.21-.72-.06-1.45-.08-2.17-.05-.89.05-.82-.01-.09-.39.37-.18.89-.43,1.55-.71.66-.29,1.47-.55,2.4-.59.83-.04,1.68-.05,2.69.26,1.32.36,2.51,1.87,2.2,3.32-.11.34-.15.73-.34,1.05-.15.3-.32.52-.49.75-.34.42-.69.77-1.05,1.05-.73.56-1.46.98-2.19,1.36-2.96,1.44-5.98,2.31-9.34,2.39-.5.01-1.03-.01-1.57-.06-.55-.07-1.14-.15-1.85-.48-.2-.09-.3-.16-.41-.24l-.34-.22c-.23-.14-.43-.32-.65-.48-.42-.33-.82-.69-1.18-1.08-1.46-1.54-2.45-3.41-3.05-5.31-.33-1.05-.57-2.12-.72-3.2-.08-.51-.12-1.14-.16-1.56-.04-.45-.12-.96-.19-1.47-.28-2.04-.48-4.18-.27-6.34.12-1.33.41-2.67.93-3.95.27-.64.57-1.26.97-1.85.17-.31.42-.57.67-.84.25-.25.47-.55.77-.74,1.65-1.38,3.78-2.03,5.79-2.09,2.02-.09,3.98.24,5.86.76.37.1.73.21,1.09.33l.55.19c.21.09.44.2.64.33.81.54,1.32,1.38,1.55,2.25.06.2.09.49.09.77.03.28-.07.53-.13.8-.07.26-.2.46-.31.69-.12.2-.27.38-.41.56-.59.67-1.25,1.14-1.93,1.55-.6.36-1.19.66-1.82.92-2.35.94-3.27.72-3.87.24-.14-.12-.31-.23-.38-.34-.13-.2.04-.42.4-.65.37-.25.94-.57,1.71-.86,1.12-.46,2.24-1.01,3.14-1.68.45-.32.85-.7,1.01-1,.09-.14.11-.26.1-.28.03-.03-.04-.02-.02-.03.02.01-.04-.15-.06-.21-.12-.33-.34-.56-.52-.65-.05-.03-.07-.03-.16-.06l-.41-.13c-.29-.09-.58-.18-.88-.25-1.2-.31-2.44-.52-3.64-.57-1.78-.06-3.49.22-4.77,1.04-.35.16-.59.47-.9.67l-.35.4c-.12.13-.25.26-.33.43-.4.6-.71,1.43-.93,2.23h-.07Z"/><path class="cls-3" d="M214.07,203.53c-.03.23-.06.46-.11.68-.08.21-.16.41-.25.61-.16.43-.43.67-.66.99-.25.27-.51.48-.76.7l-.78.51c-.38.19-.72.48-1.1.61-1.36.51-2.7.78-4.03.97-.59.07-1.17.19-1.75.28-.37.08-.74.13-1.13.1-.19-.01-.39-.03-.58-.06-.19-.02-.39-.15-.58-.21-.24-.12-.2-.2-.02-.44.09-.12.21-.3.35-.52.14-.19.31-.36.49-.46l.49-.27c.16-.09.33-.11.5-.17.33-.1.67-.2,1-.3.34-.09.67-.2,1.01-.26.35-.05.69-.11,1.05-.15.85-.11,1.6-.58,2.3-.95.78-.39,1.47-.92,1.69-1.41.11-.15.08-.29.13-.47,0-.22-.04-.42-.11-.6-.17-.52-.74-.89-1.51-1-.6-.09-1.23.16-1.84.29-.14.03-.27.07-.41.09-.26.03-.44.01-.6-.09-.16-.13-.29-.32-.42-.59-.06-.13-.13-.24-.18-.36-.08-.2-.09-.4-.03-.62.06-.22.18-.48.4-.62.62-.47,1.35-.86,2.19-.96.82-.1,1.8-.16,2.82.34.74.33,1.53.97,1.99,1.81.1.21.2.42.29.63.06.21.12.42.17.63.06.43.13.75.07,1.27h-.07Z"/><path class="cls-3" d="M209.04,193.99c.24.09.47.23.7.39.23.16.46.3.64.51.42.41.68.76.99,1.38.35.71.44,1.53.21,2.27-.18.66-.53,1.33-1.02,1.78-.71.64-1.43,1.02-2.15,1.35-.71.33-1.45.55-2.17.75-.64.18-1.26.39-1.89.57-.8.25-1.68.44-2.59.03-.28-.12-.2-.32,0-.62.13-.21.26-.41.36-.58.08-.13.15-.24.22-.33.04-.06.08-.1.12-.16.04-.02.09-.06.13-.08.65-.35,1.35-.61,2.04-.88.69-.27,1.38-.55,2.09-.77.43-.12.82-.35,1.15-.61.16-.13.31-.27.44-.4.06-.07.13-.14.17-.19.03-.02.06-.06.09-.09.17-.16.28-.44.19-.71-.03-.02-.03-.05-.05-.09-.03-.05-.05-.12-.1-.16-.09-.07-.15-.18-.25-.25-.28-.26-.77-.41-1.33-.45-.84-.1-1.85-.04-2.8.22-.74.22-1.45.56-2.23.77-.17.05-.33.12-.52.15-.68.1-.97-.07-1.19-.57-.05-.11-.1-.21-.14-.3-.09-.29.09-.78.46-1.06.56-.44,1.16-.87,1.82-1.28.67-.36,1.42-.61,2.25-.83.6-.16,1.27-.26,1.99-.31.75.02,1.52.11,2.38.47l-.02.07Z"/><path class="cls-3" d="M376.94,108.94c.59.03,1.28-.1,1.88-.34.62-.21,1.11-.66,1.21-.83,0,0,0-.02,0-.03h.01s0-.01,0-.01h0s0,0,0,0h.35s0,.01,0,.01h0s.03,0,.03,0c.02,0,.04,0,.07,0h.02s0,0,0,0h0s0,0,0,0h0s0,0,0,0c-.21.06.46-.13-.46.13h-.01s-.04.02-.04.02c-.07.01-.08.08-.3-.05-.17-.09-.35-.17-.48-.27-.14-.1-.3-.19-.38-.28-.21-.19-.31-.34-.4-.47-.11-.19-.16-.32-.22-.44-.04-.13-.11-.23-.09-.51.05-.3.21-.54.4-.72.19-.2.41-.34.64-.47.67-.36,1.7-.43,2.72-.37,1.07.06,1.52.12,2.17.15.93.04,1.85-.05,2.69-.29,1.09-.28,2.04-.82,2.94-1.54.29-.21.5-.02.51.43,0,.23-.04.53-.15.86-.14.3-.35.65-.67.92-.58.46-1.22.86-1.9,1.12-.34.15-.69.23-1.04.3-.35.09-.7.12-1.04.16-.69.07-1.36.08-2.02.06l-.48-.02c-.1,0-.14,0-.15-.02l-.09-.02c-.14-.03-.19-.06-.3-.1-.14-.05-.29-.06-.44-.06-.1,0-.2.04-.27.09-.09.04-.13.17-.02.21.16.1.35.13.47.26.03.03.03.03.07.11.07.18.16.33.18.61.04.28,0,.44-.04.62-.04.19-.08.37-.16.51-.27.66-.71,1.03-1.13,1.38-.85.63-1.77.98-2.72,1.18-.59.12-1.19.18-1.83.11-.63-.06-1.29-.2-1.92-.68-.26-.16-.4-.42-.61-.63-.13-.26-.26-.52-.31-.82-.1-.52-.07-.97-.03-1.42.1-.88.31-1.71.59-2.51.43-1.24.94-2.46,1.79-3.56.18-.25.39-.47.6-.7.88-.78,1.37-.77,1.87-.28.12.11.24.22.33.35.31.45.16.99-.22,1.45-.58.69-1.05,1.46-1.46,2.29-.41.83-.76,1.75-.93,2.64-.07.33-.1.64-.11.92,0,.1,0,.27.01.29-.02-.03,0-.02-.02,0,0,0,0,.02-.01,0,0,.04.1.05.16.1.18.06.43.12.72.11v.06Z"/><path class="cls-3" d="M414.39,169.5c.24-.45.43-.92.61-1.39l.55-1.42c.26-.98.61-1.94.8-2.95.44-2.02.65-4.01.67-6.12.06-4.2-.36-8.49-.93-12.74-.43-3.11-1.05-6.19-1.64-9.27-.48-2.33-.96-4.67-1.56-6.96-.28-1.15-.61-2.29-.95-3.4-.19-.54-.34-1.13-.56-1.63l-.31-.77c-.11-.24-.22-.39-.25-.48-.1-.12-.17-.15-.4-.21-.31-.08-.66-.14-1.03-.19-.73-.09-1.5-.15-2.27-.18-1.55-.06-3.12-.04-4.69.01-3.14.12-6.29.39-9.41.81-2.42.34-4.85.78-7.14,1.47-1.09.35-2.4.87-2.47,1.28,0,.15.05.28.09.43.07.26.16.56.25.84l.59,1.73c1.04,2.97,2.18,5.95,2.99,9.05.81,3.08,1.55,6.26,1.3,9.52-.14,1.01-.32,1.42-.35,1.39-.07-.04-.03-.53-.17-1.36-.23-1.67-1.22-4.52-2.35-7.91-1.04-3-2.15-5.98-3.28-9.01l-.84-2.3c-.14-.4-.27-.79-.4-1.22-.02-.07-.1-.32-.13-.5l-.12-.58c0-.19-.03-.38,0-.57l.18-.52c0-.2.19-.32.28-.48.1-.16.22-.3.38-.43.28-.25.64-.54.87-.65.45-.27.87-.45,1.29-.64.84-.35,1.66-.59,2.48-.83,3.27-.88,6.53-1.3,9.8-1.64,3.27-.32,6.55-.5,9.89-.42.97.02,1.95.07,2.97.16.51.05,1.02.11,1.58.23.14.02.27.05.43.1.16.05.4.1.57.19.18.1.37.18.54.3.14.15.34.24.45.41.33.54.61.96.74,1.32l.47,1.12c.24.73.53,1.46.74,2.2.46,1.46.87,2.94,1.26,4.41.77,2.95,1.42,5.94,1.98,8.92.8,4.34,1.43,8.71,1.79,13.13.16,2.21.29,4.43.22,6.68,0,1.12-.12,2.26-.23,3.39-.17,1.12-.37,2.24-.61,3.35-1.31,5.44-4.2,10.48-8.11,14.4-2.9,3.04-6.34,5.46-9.84,7.64-1.75,1.09-3.54,2.1-5.34,3.08-1.76.99-3.69,1.92-5.62,2.67-6.06,2.29-12.39,3.02-18.68,3.27-1.39.05-2.74.08-4.14.07-5.17-.13-6.79-.49-7.83-1.34-.24-.19-.55-.39-.69-.57-.45-.61,1.67-.96,5.39-.94,2.76,0,5.54-.05,8.33-.2,2.79-.15,5.59-.42,8.33-.96,2.74-.54,5.44-1.21,8.02-2.19.64-.24,1.26-.53,1.9-.79.62-.28,1.22-.61,1.83-.91,1.26-.68,2.54-1.4,3.78-2.12,3.71-2.13,7.31-4.4,10.44-7.15,1.6-1.34,2.99-2.86,4.31-4.43.58-.84,1.26-1.62,1.75-2.52.26-.44.54-.87.78-1.31l.67-1.37.07.02Z"/><path class="cls-3" d="M409.3,431.62c5.04-2.75,9.95-5.78,14.51-9.2,1.14-.85,2.24-1.75,3.28-2.67,1.03-.91,2.05-1.9,2.77-2.84.42-.59.37-.53.38-.67-.01-.04.01-.02-.03-.12l-.12-.35c-.07-.24-.25-.57-.37-.85-.58-1.2-1.28-2.45-2-3.7-2.93-4.99-6.01-10.05-8.68-15.33-1.36-2.62-2.58-5.37-3.71-8.08l-3.32-8.12c-3.21-7.89-6.42-15.78-9.62-23.67-2.81-6.95-5.66-13.88-8.64-20.75-2.99-6.85-6.08-13.69-9.56-20.25-3.54-6.55-7.45-12.96-11.27-19.42-3.83-6.46-7.65-12.94-11.24-19.56-3.19-5.87-6.23-11.86-8.9-18.02-2.63-6.17-4.94-12.53-6.14-19.17-.36-2.13-.63-4.32-.71-6.46-.12-2.14-.19-4.28-.23-6.41-.08-4.27-.02-8.53,0-12.78.03-4.25.07-8.48-.11-12.69-.09-2.11-.22-4.21-.41-6.31-.11-1.05-.17-2.1-.26-3.15-.08-1.05-.23-2.1-.33-3.15-.68-5.22-.54-4.56.8-.25.59,2.17,1.59,5.27,2.14,9.13.6,3.85.99,8.41,1.08,13.33.07,4.36,0,8.69.05,13,.02,2.15.06,4.3.15,6.44.08,2.14.2,4.29.44,6.32,1.14,8.26,4.24,16.32,7.75,24.12,7.16,15.64,16.44,30.36,25.22,45.51,2.61,4.53,5.25,9.19,7.58,14.02,2.35,4.8,4.59,9.68,6.78,14.6,4.35,9.84,8.48,19.82,12.5,29.73l6.63,16.34c1.12,2.71,2.23,5.44,3.38,8.12,1.13,2.66,2.43,5.26,3.79,7.83,2.71,5.17,5.84,10.07,8.79,15.26.37.65.72,1.33,1.06,2.03.16.37.34.7.48,1.11l.22.63c.1.21.1.54.15.81.14.57-.01,1.15-.25,1.67-.05.13-.13.26-.2.39-.06.11-.12.21-.18.3-.12.19-.24.37-.37.53-.5.67-1.03,1.25-1.57,1.8-2.18,2.18-4.53,4.01-6.93,5.79-5.93,4.32-12.23,8.06-18.75,11.34-6.54,3.25-13.34,6.02-20.41,8-2.74.76-5.51,1.4-8.33,1.87-1.41.23-2.82.43-4.24.56-.71.07-1.42.12-2.14.17l-1.07.05-1.23.03c-.18-.03-.37.01-.54-.07-.17-.05-.37-.04-.53-.14-.16-.09-.33-.17-.48-.27l-.43-.36c-.59-.56-.87-.99-1.2-1.46-.61-.92-1.11-1.86-1.59-2.79-.94-1.88-1.76-3.77-2.54-5.68-1.56-3.81-2.98-7.66-4.35-11.51-2.74-7.7-5.31-15.43-7.88-23.11-5.35-16.05-10.64-31.77-16.29-47.47-1.25-3.46-2.53-6.81-3.83-10.27-2.42-6.41-4.12-10.57-5.25-13.52-1.11-2.95-1.67-4.68-1.99-6.17-.15-.68-.44-1.54-.5-1.97-.11-.74.82-.04,2.32,2.06,1.5,2.1,3.43,5.6,5.43,10.27,5.93,13.85,10.9,28.41,15.93,43.16,5.01,14.75,9.85,29.79,15.13,44.63,1.44,4.01,2.91,8,4.51,11.91.8,1.95,1.63,3.88,2.54,5.7.46.89.93,1.8,1.42,2.54l.36.51c.06.09.11.13.16.19h0s0,.02.01.02h0s.33,0,.33,0c.22,0,.44-.01.66-.03.44-.02.89-.04,1.33-.08.89-.06,1.78-.15,2.67-.26,1.78-.22,3.56-.51,5.33-.88,3.54-.73,7.05-1.73,10.51-2.91,6.92-2.38,13.63-5.49,20.1-8.99l.07.07Z"/><path class="cls-3" d="M109.32,273.63c2.04-.42,4.08-.89,6.1-1.42.74-.2,1.46-.45,2.19-.66,2.58-.74,5.21-1.39,7.74-2.29,1.13-.4,2.26-.8,3.35-1.27,1.4-.6,2.79-1.22,4.21-1.8.44-.18.44-.06.16.27-.28.32-.81.93-1.56,1.42-1.35.84-2.73,1.64-4.15,2.34-1.42.7-2.93,1.22-4.44,1.71-1.81.57-3.65,1.31-5.51,1.87-2.05.61-4.11,1.16-6.19,1.67-1.28.31-2.56.6-3.84.88-1.94.43-3.91.77-5.86,1.15-1.52.29-2.99.67-4.57.83-.35.04-.69.09-1.06.09-1.33-.06-2.02-.55-1.99-1.23,0-.16.03-.3.1-.4.38-.28.47-.48,1.26-.6,1.15-.21,2.47-.39,3.8-.65,1.35-.24,2.71-.47,4.08-.71,2.04-.38,4.11-.77,6.16-1.24l.02.05Z"/><path class="cls-3" d="M217.08,456.1c3.88-2.66,7.57-5.62,11.04-8.83,3.49-3.19,6.81-6.58,9.88-10.19,6.23-7.15,11.59-15.06,16.27-23.34,9.34-16.61,15.6-34.88,19.65-53.55,2.87-13.67,4.8-27.59,6.11-41.5,1.12-12.28,1.65-24.62,1.55-36.95-.03-6.17-.26-12.34-.6-18.5l-.11-1.93c-.04-.24.08-.63-.29-.55l-3.76-.28-2.34-.17-2.33-.28-4.66-.55c-12.39-1.71-24.6-4.93-36.16-9.77-11.54-4.88-22.29-11.62-31.77-19.8-1.14-.93-2.16-2-3.25-3-1.06-1.02-2.16-2.01-3.2-3.05l-3.01-3.24c-.99-1.09-2.05-2.12-2.94-3.29l-2.8-3.42-1.4-1.7-1.29-1.78-2.3-3.21-.3-.43c-.11-.13-.18-.32-.35-.37-.18-.06-.35.07-.42.23l-.28.44-.25.4-.49.72-1.13,1.62c-.79,1.05-1.56,2.12-2.39,3.14-1.61,2.07-3.33,4.04-5.07,5.98-3.49,3.87-7.21,7.49-11.07,10.92-5.3,4.68-10.89,9.04-16.82,12.93-2.94,1.97-6,3.77-9.09,5.51-3.13,1.67-6.29,3.3-9.56,4.69-3.24,1.45-6.6,2.65-9.97,3.76-3.41,1.02-6.84,1.97-10.36,2.57-3.49.69-7.05,1.04-10.6,1.24-.89,0-1.78.05-2.67.03h-1.33s-1.33-.07-1.33-.07l-2.66-.15c-.89-.07-1.77-.2-2.65-.31-2.2-.23-3.74-.67-4.73-.89-.98-.25-1.4-.41-1.32-.5.08-.09.67-.11,1.69-.07,1.02.02,2.48.17,4.33.13,3.68.08,8.9-.21,15.05-1.19,6.14-1.04,13.21-2.88,20.58-5.76,11.9-4.63,22.96-11.4,32.98-19.4,5.03-3.99,9.76-8.35,14.21-12.95,2.2-2.32,4.35-4.7,6.37-7.17.99-1.24,1.99-2.49,2.92-3.77.48-.63.94-1.28,1.38-1.93l.67-.97,1.3-2,.87-.72.44-.36.22-.18c.07-.04.14-.06.22-.09.32-.1.75-.15,1.13-.11.4.05.64.13.95.27.29.13.62.34.93.66.3.32.57.75.86,1.14l1.3,1.84c1.12,1.56,2.15,3.18,3.34,4.69,1.19,1.5,2.39,3,3.61,4.49.59.76,1.25,1.46,1.9,2.16l1.96,2.11c5.27,5.58,11.01,10.75,17.35,15.11,6.31,4.39,13,8.27,20.08,11.38,7.08,3.09,14.45,5.55,21.98,7.45,8.28,2.04,16.85,3.27,25.51,3.9l4.36.31.69.05h.17c.06.01.13,0,.11.09l.02.35.08,1.39.14,2.38c.14,2.21.26,4.42.35,6.63.21,4.43.32,8.87.37,13.32.23,17.79-.88,35.7-3.25,53.28-1.3,9.67-2.95,19.27-5.09,28.82-2.17,9.53-4.95,18.93-8.44,28.08-3.48,9.14-7.68,18.03-12.63,26.49-1.24,2.11-2.55,4.18-3.87,6.25-1.39,2.02-2.7,4.09-4.19,6.04-2.85,3.99-6,7.76-9.27,11.42-8.11,8.93-17.55,16.8-28.27,22.52-5.36,2.83-11.02,5.19-17,6.53-2.98.69-6.03,1.15-9.13,1.18-3.1.07-6.18-.33-9.17-.93-9.07-1.92-17.52-5.78-25.38-10.47-3.92-2.37-7.66-5.02-11.28-7.82-3.62-2.8-7.01-5.88-10.31-9.02-6.51-6.4-12.4-13.41-17.63-20.84-5.21-7.45-9.76-15.33-13.71-23.45-6.17-12.63-10.81-25.8-14.41-39.18-3.5-13.38-6.4-26.91-8.12-40.69-.76-6.07-1.38-12.03-1.65-18.2-.55-11.43-.08-19,.48-24.27.55-5.27,1.23-8.27,2.03-10.63.35-1.08.74-2.5,1.01-3.11.46-1.03.51.77.27,4.87-.14,4.11-.7,10.51-.73,18.77-.21,24.5,4.02,49.55,10.67,74.19,3.36,12.28,7.67,24.39,13.28,35.93,2.79,5.77,5.85,11.43,9.3,16.85,3.43,5.43,7.15,10.68,11.22,15.65,6.09,7.33,12.83,14.14,20.33,20.01,7.49,5.85,15.66,10.9,24.43,14.41,4.37,1.75,8.91,3.09,13.46,3.8,2.29.31,4.52.54,6.79.38,1.13-.01,2.27-.2,3.41-.3,1.13-.21,2.28-.33,3.41-.62,9.08-2.01,17.7-6.35,25.49-11.72l.09.05Z"/><path class="cls-3" d="M206.74,254.1c4.16,2.81,8.57,5.27,13.11,7.49,1.65.82,3.37,1.49,5.05,2.25,5.95,2.62,12.1,4.86,18.4,6.58,2.8.74,5.65,1.34,8.48,1.84,1.82.3,3.65.54,5.48.76,1.84.12,3.64.63,5.48.92,1.15.23,1,.31.01.63-.98.27-2.87,1.17-5.08,1.09-3.88-.26-7.72-.77-11.5-1.59-3.77-.86-7.48-1.96-11.13-3.28-4.36-1.58-8.94-3.08-13.29-4.98-4.78-2.08-9.42-4.49-13.86-7.24-2.73-1.69-5.38-3.51-7.95-5.45-3.88-2.93-7.5-6.26-10.74-9.87-2.53-2.78-4.91-5.67-6.83-8.93-.22-.36-.43-.71-.64-1.06-.18-.37-.37-.74-.56-1.12-1.43-2.78-1.27-3.93-.87-4.75.1-.19.18-.43.3-.56.2-.22.51-.07.92.35.41.42.96,1.11,1.42,2.07,1.58,2.77,3.41,5.42,5.37,8.04,1.97,2.62,4.25,5.06,6.66,7.39,3.6,3.44,7.58,6.57,11.8,9.35l-.04.07Z"/><path class="cls-3" d="M97.95,343.32c-2.96-13.9-4.75-28.02-5.52-42.19-.11-2.59-.33-5.17-.45-7.76-.08-2.59-.11-5.18-.07-7.77.03-2.03.09-4.06.2-6.09l.09-1.53.15-1.94c.04-.42.08-.86.17-1.25.04-.2.09-.38.17-.54l.38-.31.17-.14.09-.07h.01c.17.19-.23-.28-.19-.24h0s0,0,0,0h.03s.06-.02.06-.02l.51-.11,1.02-.22,1.13.09c.16.02.44.01.56.02h.31c.42.01.84.03,1.26.02.85-.04,1.69-.03,2.55-.12,1.71-.12,3.42-.31,5.13-.58,3.42-.52,6.82-1.26,10.19-2.14,6.73-1.8,13.34-4.14,19.7-7.02,7.26-3.28,14.21-7.35,20.45-12.16,7.97-6.22,14.73-13.98,19.01-23.12,1.44-2.82,1.33-2.47.94.29-.05.71-.25,1.52-.5,2.46-.24.94-.5,2.02-.93,3.15-.18.58-.45,1.15-.7,1.75-.28.59-.6,1.18-.93,1.79-.63,1.25-1.47,2.46-2.35,3.72-.79,1.1-1.67,2.14-2.51,3.2-.92.99-1.81,2.01-2.76,2.97-1.91,1.91-3.89,3.74-5.98,5.43-4.16,3.4-8.63,6.39-13.27,9.04-9.34,5.22-19.36,9.11-29.75,11.75-3.35.83-6.77,1.56-10.25,2.1-1.74.28-3.51.49-5.29.63-.89.09-1.8.1-2.7.15h-1.37s-.44,0-.44,0h-.21s-.36-.04-.36-.04c-.09.05-.05.22-.08.32l-.03.36-.06.95c-.08,1.47-.13,2.96-.16,4.44-.06,2.97-.05,5.95,0,8.91-.01,7.06.38,14.12,1.03,21.16.65,7.04,1.56,14.06,2.76,21.03,1.47,8.58,3.38,17.09,5.81,25.44,3.68,12.65,8.49,25.07,14.75,36.55,4.87,8.92,10.62,17.11,17.2,24.65,1.45,1.66,2.93,3.23,4.46,4.83,2.84,2.97,4.8,4.84,6.1,6.25,1.28,1.42,1.95,2.33,2.39,3.18.2.39.5.86.58,1.13.13.46-.51.23-1.82-.59-1.29-.83-3.24-2.24-5.5-4.34-6.73-6.17-12.88-13.36-18.27-21.22-5.4-7.86-10.03-16.38-13.94-25.21-5.82-13.13-10.02-26.98-13.08-40.99l.07-.03Z"/><path class="cls-3" d="M163.58,367.52c1.17-4.41,2.42-8.78,3.71-13.14l1.97-6.53,1.01-3.26.4-1.27.11-.33-.33-.12-1.74-.69c-.61-.28-1.21-.6-1.82-.9-.59-.33-1.16-.7-1.73-1.05-2.25-1.5-4.23-3.41-5.82-5.59-3.3-4.46-4.91-9.94-5.12-15.31-.01-.6-.05-1.17-.03-1.8.03-.65.08-1.31.19-1.91.08-.62.22-1.21.37-1.8.12-.6.32-1.17.5-1.74.74-2.29,1.76-4.46,3-6.51,1.29-2.02,2.78-3.91,4.52-5.57,1.78-1.6,3.71-3.1,5.9-4.13,4.31-2.19,9.15-3.07,13.9-2.8,4.78.25,9.49,2.07,13.23,5.04l.63.48c.2.17.39.36.58.54l1.15,1.09c.74.75,1.4,1.58,2.08,2.38,1.24,1.7,2.4,3.45,3.28,5.35.94,1.87,1.64,3.85,2.16,5.88.12.51.25,1.02.35,1.54l.24,1.57c.05.53.07,1.08.1,1.62.01.53-.04,1.05-.05,1.57-.15,2.68-.7,5.33-1.61,7.86-.9,2.53-2.21,4.92-3.93,7.01-1.7,2.09-3.79,3.88-6.16,5.17-2.37,1.29-5.01,2.02-7.65,2.18-3.32-.09-2.77-.31-.16-.93,2.62-.66,7.09-2.76,10.53-6.94,1.56-1.82,2.75-3.94,3.67-6.16.92-2.22,1.51-4.58,1.75-6.95.25-2.44.1-4.58-.53-6.95-.6-2.32-1.55-4.59-2.74-6.69-.57-1.07-1.29-2.04-1.98-3.03-.78-.91-1.51-1.87-2.41-2.65-.82-.88-1.82-1.52-2.75-2.26-1.04-.56-2-1.27-3.13-1.66-2.15-1.03-4.54-1.41-6.94-1.69-2.42-.08-4.92-.04-7.3.55-2.86.61-5.64,1.79-8.04,3.58-2.4,1.78-4.46,4.07-6.06,6.68-1.58,2.61-2.77,5.53-3.33,8.48-.05.36-.12.73-.16,1.09-.01.35-.06.68-.05,1.06.03.77.03,1.55.09,2.32.13,1.54.33,3.06.7,4.55.41,1.9,1.12,3.71,1.99,5.42.86,1.72,1.99,3.3,3.31,4.68,1.32,1.38,2.81,2.62,4.49,3.56,1.81.99,2.91,1.51,6.63,2.58l-3.07,9.82c-.88,2.87-1.73,5.74-2.57,8.61-1.21,4.19-2.39,8.38-3.46,12.6-1.05,4.21-2.1,8.46-2.62,12.69-.09.79-.15,1.59-.12,2.32.01.26.03.45.12.66.07.24.33.27.52.31l.43.11c.18.04.39.06.58.09l1.18.17,2.43.21c3.27.21,6.57.24,9.86.23,6.59-.06,13.19-.32,19.67-.99.86-.08,1.7-.21,2.54-.32.42-.05.81-.15,1.21-.22.18-.04.44-.08.56-.12l.34-.11c.3-.05.46-.36.51-.63.02-.07.02-.14.03-.21,0-.06.01-.13,0-.26,0-.22-.01-.45-.03-.69-.09-.95-.3-1.95-.54-2.94-.49-1.98-1.14-3.95-1.81-5.91-1.36-3.92-2.88-7.79-4.39-11.7-.8-2.07-1.62-4.09-2.4-6.19-2.9-7.81-3.46-10.47-3.13-12.43.07-.44.1-1.01.21-1.29.36-.91,1.81,2.14,3.97,7.78,2.15,5.56,4.48,11.18,6.69,16.99,1.1,2.91,2.18,5.85,3.13,8.92.47,1.54.91,3.1,1.22,4.79.16.85.26,1.73.24,2.78,0,.12-.01.26-.03.49-.02.2-.06.38-.09.58-.07.38-.19.74-.36,1.08-.31.69-.9,1.23-1.55,1.57l-1.11.34-.28.08-.16.03-.32.06-1.28.22c-.81.1-1.64.22-2.45.3-1.62.17-3.23.29-4.84.4-3.22.2-6.45.34-9.68.42-3.57.07-7.15.12-10.74.06-1.8-.03-3.6-.1-5.42-.21-.93-.09-1.82-.13-2.77-.26l-1.43-.2c-.27-.06-.46-.11-.97-.24l-.65-.17-.54-.28c-.7-.46-1.11-1.25-1.26-2.1l-.1-.65-.03-.52c0-.27-.01-.53,0-.78.03-1.01.13-1.94.25-2.87.25-1.84.59-3.62.96-5.39.74-3.53,1.6-7.01,2.5-10.47h.08Z"/><g class="cls-4"><path class="cls-3" d="M417.01,227.1c.89.62,1.75,1.27,2.59,1.94.31.24.65.43.95.68,1.05.89,2,1.91,2.92,2.91.42.44.85.85,1.29,1.25.27.27.58.51.83.79.24.3.45.63.63.98.11.22-.13.4-.51.49-.38.08-.94.13-1.32-.08-1.23-.87-2.35-1.81-3.41-2.89-.63-.65-1.44-1.13-2.19-1.66-.82-.59-1.64-1.18-2.5-1.72-.53-.34-1.06-.67-1.61-.96-.84-.44-1.66-.94-2.54-1.27-.7-.23-1.4-.38-2.1-.57-.15-.05-.31-.07-.46-.12-.56-.2-.68-.42-.64-1,0-.13,0-.27.03-.4.07-.43.41-.71.91-.74.73-.06,1.47-.01,2.2.07.73.09,1.41.39,2.09.66,1.02.4,1.95.99,2.87,1.57l-.03.06Z"/></g><path class="cls-3" d="M298.32,169.21c-.04,1.14-.43,2.16-1.21,2.97-.28.28-.55.55-.89.72-.59.3-1.26.46-1.97.38-.35-.05-.72-.16-1.02-.37-.15-.11-.29-.23-.41-.36-.12-.15-.26-.32-.32-.52-.27-.71-.05-1.32.22-1.78.19-.3.43-.58.81-.76.36-.2.98-.12,1.24.22.18.21-.1.33-.36.49-.13.07-.25.2-.28.31-.01.06,0,.03,0,.07,0,.07.02.1.04.18,0,.07-.16.45-.09.52,0,0,.04,0-.05.01-.03,0-.08,0-.12.03,0,0-.02,0-.03.01.03-.02.05-.04.06-.05h0s0,0,0,0c.21-.23.06-.06.11-.11h0s0,0,0,0h0s0,0,0,0h0s.02.03.02.03c0,.01.02.02.03.03.02.02.04.07.09.1.23.21.73-.05,1.05-.32.38-.27.63-.7.72-1.24.04-.32.02-.65-.1-.9-.09-.19-.2-.34-.36-.45-.1-.08-.25-.09-.43-.02-.28.09-.43.56-.32.68.08.04-.03,0-.11-.02-.09,0-.07-.01-.12,0,0,0,.02,0,.02,0,.13-.05-.23.09-.52.28-.15.09-.3.2-.44.31-.25.18-.5.29-.76.26-.27-.03-.53-.23-.66-.61-.18-.57-.1-1.18.1-1.66.2-.49.51-.87.88-1.17.72-.58,1.78-.94,2.99-.57,1.72.63,2.23,2.18,2.26,3.3h-.06Z"/><path class="cls-3" d="M391.9,76.74c.05.25-.19.42-.53.56-.11.04-.42,0-.46-.08-.08-.14-.16-.29-.23-.44-.03-.09-.22-1.44-.34-1.91-.08-.45-.05-.88-.03-1.32l.13-2.65c.01-.2.05-.39.11-.58.22-.65.28-1.32.28-2,0-.11.02-.23-.06-.34-.14-.2-.02-2.02.1-2.24.25-.56.43-1.13.64-1.7.03-.08,0-.17.13-.24.29-.14.27-.33.31-.51.06-.25.17-.49.3-.72.07-.12.24-.22.37-.33.12-.1.49,0,.53.05.11.13.3.06.46.07.05,0,.12,0,.17.02.08.02.72,1.56.66,1.71,0,.02-.02.56-.04,1.12-.02.57-.03,1.16-.02,1.28.01.13-.07.24-.13.36,0,.07-.11,1.75-.11,1.82-.09.34-.06.7-.33,1.02-.05.06-.05.13-.06.2-.07.6-.25,1.18-.4,1.77-.08.3-.1.61-.15.91,0,.05-.05.11-.07.16-.03.07-.07.13-.08.2-.1.72-.31,1.43-.36,2.16-.03.16-.43.92-.45,1.11-.02.11-.35.42-.32.52Z"/><path class="cls-3" d="M397.75,81.43c-.06.21-.35.19-.72.09-.12-.03-.38-.25-.39-.33-.01-.15-.03-.31-.03-.46,0-.04.1-.35.21-.69.15-.32.3-.66.39-.85.15-.36.36-.67.58-.97l1.35-1.83c.1-.13.22-.25.37-.35.48-.35.88-.75,1.23-1.22.06-.08.14-.14.13-.27,0-.21,1.06-1.37,1.25-1.46.47-.24.89-.53,1.34-.79.06-.04.09-.12.21-.09.28.07.36-.07.48-.16.17-.13.35-.25.56-.34.1-.04.28-.01.43,0,.14,0,.36.32.37.37.01.15.19.23.31.33.04.04.09.08.12.12.06.08-.37,1.37-.46,1.46,0,.01-.29.36-.59.72-.29.37-.6.75-.65.84-.06.09-.17.13-.27.17-.05.02-.88,1.17-.92,1.2-.22.19-.35.46-.71.53-.07.01-.1.06-.14.11-.32.39-.74.68-1.12,1-.2.17-.35.37-.53.55-.03.03-.09.05-.13.07-.05.03-.11.06-.15.1-.4.45-.89.83-1.24,1.34-.08.11-.69.48-.77.62-.06.06-.5.09-.52.18Z"/><path class="cls-3" d="M403.99,87.85c-.18.15-.39-.09-.61-.52-.07-.14-.13-.58-.08-.65.09-.14.19-.29.29-.4.06-.06,1.13-.56,1.48-.77.34-.19.7-.33,1.06-.41l2.21-.48c.16-.03.33-.04.5-.01.59.08,1.16-.01,1.71-.17.09-.03.19-.03.27-.14.13-.19,1.65-.49,1.86-.45.52.12,1.04.17,1.55.25.07.01.14-.04.23.07.19.26.34.19.49.19.22,0,.44,0,.66.07.11.03.24.18.36.3.11.11.13.55.1.6-.08.15.03.35.07.53.01.06.03.14.03.19,0,.11-1.1,1.04-1.24,1.05-.02,0-.46.13-.93.26-.46.13-.93.27-1.05.31-.1.04-.22-.01-.33-.04-.05-.01-1.45.38-1.51.38-.3,0-.58.14-.91-.07-.06-.04-.12-.02-.18,0-.5.1-1.03.07-1.55.07-.26,0-.52.06-.78.09-.05,0-.1-.02-.15-.03-.06-.01-.13-.04-.18-.03-.61.11-1.25.04-1.86.16-.14.02-.86-.17-1.02-.13-.09.02-.44-.28-.51-.22Z"/><path class="cls-3" d="M276.78,105.91c.11,1.25.59,2.43,1.15,3.53.64,1.24,1.49,2.43,2.59,3.3,1.2.94,2.67,1.32,4.17.87s2.62-1.63,3.25-3.03c.79-1.75,1.04-3.68,1.05-5.58,0-.74-.63-1.38-1.38-1.38s-1.37.63-1.38,1.38c0,.33,0,.66-.03,1-.01.19-.02.38-.04.56,0,.07-.06.56-.03.33-.09.66-.23,1.31-.44,1.94-.05.14-.1.28-.15.41-.08.2.09-.18,0,0-.03.05-.05.11-.08.16-.14.28-.3.54-.47.8-.04.06-.17.19.01-.01-.04.04-.07.08-.11.12-.09.09-.17.18-.27.27-.05.05-.11.09-.16.14.04-.04.23-.14.02-.03-.12.07-.24.14-.37.21-.08.04-.22.05.03-.01-.05.01-.1.04-.15.05-.13.03-.25.06-.38.1-.25.06-.03,0,.02,0-.08,0-.16.01-.24.01-.13,0-.27,0-.4-.01.27.02.11.01-.05-.03s-.31-.12-.07,0c-.24-.12-.46-.25-.69-.4-.19-.13.14.13-.09-.08-.09-.09-.19-.17-.28-.26-.21-.21-.4-.43-.59-.66.17.21-.04-.06-.09-.13-.08-.11-.15-.22-.23-.33-.17-.26-.32-.52-.47-.78s-.29-.56-.42-.84c-.02-.05-.04-.1-.07-.15-.14-.31.06.17,0,0-.05-.14-.11-.28-.16-.42-.08-.23-.15-.45-.21-.69-.03-.11-.05-.23-.08-.34,0-.04-.01-.07-.02-.11-.06-.26.04.35.02.11-.07-.74-.58-1.38-1.38-1.38-.69,0-1.44.63-1.38,1.38h0Z"/><path class="cls-3" d="M292.81,105.77c0,1.34.08,2.69.35,4.01.25,1.23.72,2.55,1.66,3.42,2.11,1.95,5.38.89,7.05-1.09,1.17-1.39,1.87-3.09,2.25-4.86.15-.7-.21-1.52-.96-1.69-.69-.16-1.53.21-1.69.96-.15.7-.35,1.39-.61,2.05-.06.15,0-.01.02-.04-.03.08-.07.15-.1.23-.07.15-.14.29-.22.43-.14.25-.28.5-.45.73-.04.06-.09.12-.13.18-.11.16.15-.16.02-.02-.09.08-.16.19-.24.28-.18.2-.38.37-.58.55.2-.17.04-.03-.07.04-.09.06-.18.12-.28.17-.11.06-.22.11-.33.17-.19.1.08-.04.08-.03,0,0-.15.06-.17.06-.21.07-.44.1-.65.16-.17.05.28,0,.1-.01-.04,0-.09,0-.14.01-.14,0-.28,0-.42,0-.34,0,.18.06-.04,0-.04-.01-.32-.06-.33-.1,0-.03.26.15.14.06-.04-.03-.1-.05-.15-.08-.04-.02-.07-.05-.11-.07-.23-.12.2.2.01.01-.07-.07-.14-.13-.21-.21-.03-.03-.06-.06-.09-.1-.18-.19.07.06.05.07-.02.02-.34-.57-.37-.63-.03-.06-.05-.12-.08-.17,0,0,.09.25.05.1-.04-.13-.09-.25-.13-.38-.08-.25-.14-.5-.2-.75-.03-.16-.07-.31-.09-.47-.01-.08-.09-.59-.04-.23-.04-.31-.07-.62-.09-.93-.05-.62-.06-1.24-.06-1.86,0-.72-.63-1.41-1.38-1.38s-1.38.6-1.38,1.38h0Z"/><path class="cls-3" d="M290.73,127.68c1.66.6,3.48.36,5.04-.38s2.78-2.1,3.37-3.73c.25-.68-.28-1.54-.96-1.69-.78-.18-1.43.24-1.69.96-.01.04-.03.08-.05.12-.04.1-.02.06.05-.12-.01,0-.09.18-.09.2-.07.14-.15.28-.24.42-.05.07-.1.14-.15.22-.14.21.14-.16.03-.03s-.21.24-.32.36c-.1.1-.21.2-.32.3-.03.03-.07.06-.1.09-.08.06-.04.04.11-.08,0,.01-.17.12-.18.13-.27.19-.55.34-.84.49-.27.13.03-.03.04-.01,0,0-.24.09-.25.09-.14.05-.28.09-.42.13-.16.04-.31.07-.47.1-.26.05,0-.04.06,0-.03-.02-.23.02-.26.02-.15,0-.29.01-.44,0-.09,0-.18,0-.26-.01-.04,0-.09,0-.13-.01-.11-.01-.06,0,.15.02-.1-.06-.31-.06-.43-.08-.17-.04-.34-.1-.51-.16-.68-.25-1.54.28-1.69.96-.18.77.24,1.43.96,1.69h0Z"/><path class="cls-3" d="M305.84,97.01c-1.61-2.78-5.18-3.17-7.97-2.12-1.26.47-2.53,1.19-3.29,2.35-.31.48-.49,1.1-.32,1.66.23.78.99,1.19,1.76,1.17,1.04-.04,2.02-.57,2.89-1.1.45-.28.89-.57,1.37-.8,0,0,.21-.1.09-.05.13-.05.27-.1.41-.14.26-.08.5-.12.65-.12.9-.03,1.78.15,2.44.67.53.42,1.25.52,1.77,0,.43-.43.53-1.35,0-1.77-1.56-1.22-3.58-1.74-5.52-1.18-.87.25-1.64.72-2.41,1.2-.36.22-.73.45-1.12.62-.22.1.24-.07-.16.06-.09.03-.18.06-.27.08s-.18.04-.28.06c.09-.01.26.05.06-.04l.55.32c-.21-.17.13,1.28.26.6,0-.02-.18.19.01,0,.11-.11.22-.23.34-.34.03-.02.29-.24.13-.12s.13-.09.16-.11c.15-.1.31-.2.47-.28.18-.1.37-.19.56-.28.08-.04.06-.03-.07.03.06-.02.12-.05.18-.07.09-.04.19-.07.28-.1.42-.14.85-.24,1.29-.31.33-.06-.26.01.07,0,.1,0,.2-.02.31-.02.24-.01.47-.01.71,0,.1,0,.2.02.3.02.29.02-.2-.05.06.01.23.05.45.09.67.17.09.03.18.06.28.1-.29-.11.01.01.05.04.09.04.17.09.25.14.05.03.38.29.15.09.15.13.3.26.43.41.07.07.18.25.06.07.08.12.16.24.23.36.81,1.39,2.97.13,2.16-1.26h0Z"/><path class="cls-3" d="M279.93,96.39c1.08.17,2.22.42,3.36.89,1.13.47,2.23,1.18,3.07,2.11.6.67,1.19,1.34,1.56,2.11.34.67.59,1.35.8,2.03.2.69.37,1.3.5,2.13.14,1.54-.02,2.96-.43,4.28-.34,1.17-.71,2.3-1.15,3.4-.59,1.38-1.25,2.77-2.36,3.84-.34.33-.47.17-.54-.32-.04-.25-.06-.57-.09-.96,0-.37.03-.77.14-1.16.21-.69.38-1.38.55-2.06.21-.67.36-1.34.53-2.01.14-.67.28-1.33.37-1.97.12-.64.25-1.28.28-1.89.02-.37,0-.72-.08-1.05-.11-.38-.23-.81-.4-1.18-.3-.78-.72-1.48-1.14-2.11-.94-1.38-2.27-2.29-4.09-2.69-.55-.13-1.13-.22-1.72-.3-.56-.07-1.05-.09-1.5,0-.66.14-1.36.55-2.11,1.07l-.28.2-.04.03h-.02s.03.03-.07-.07c-.16-.14-.32-.27-.41-.34l-.15-.07s-.03,0-.05,0h.01c.08-.08.02-.53-.03-.83,0,0,.04,0,.07-.01.08-.02.16-.05.25-.09.38-.16.73-.36,1.16-.61.65-.39,1.36-.79,2.17-1.05.81-.26,1.72-.36,2.59-.26.38.05.75.1,1.11.22,1.32.46,1.55.92,1.4,1.66-.03.17-.06.35-.12.51-.21.55-.85.66-1.58.52-1.12-.22-2-.18-2.8.14-.42.17-.85.4-1.36.71-.22.14-.61.38-.96.56-.18.1-.38.19-.59.29-.11.05-.23.09-.37.14-.15.04-.29.11-.66.17-.1.01-.21.02-.31.02,0,.01-.46-.02-.72-.13-.07-.03-.14-.06-.21-.09l-.05-.03-.13-.07c-.08-.05-.17-.12-.25-.19-.34-.28-.59-.72-.67-1.09-.06-.24-.07-.52-.04-.79.02-.25.17-.58.17-.58.06-.14.14-.28.23-.4.09-.13.09-.12.15-.19.09-.1.17-.19.21-.23l.37-.35c.2-.19.42-.38.65-.57.45-.4,1.04-.77,1.75-1.04,1.45-.6,3.07-.46,4.04-.32v.08Z"/></svg>