<?xml version="1.0" encoding="UTF-8"?><svg id="Layer_1" xmlns="http://www.w3.org/2000/svg" width="520" height="520" viewBox="0 0 520 520"><defs><style>.cls-1{opacity:.35;}.cls-1,.cls-2,.cls-3,.cls-4,.cls-5{fill:#231f20;stroke-width:0px;}.cls-2{opacity:.25;}.cls-3{opacity:.75;}.cls-4{opacity:.15;}</style></defs><circle class="cls-1" cx="241.86" cy="178.99" r="5.18"/><circle class="cls-3" cx="258.6" cy="180.84" r="3.3"/><path class="cls-5" d="M220.71,68.27c.24-.78.45-1.49.87-2.3.39-.84,1.01-1.54,1.65-2.14.25-.2.48-.42.72-.62.25-.18.5-.37.77-.52,1.92-1.02,3.92-1.39,5.86-1.63.86-.11,1.73-.16,2.58-.24,1.1,0,2.2-.04,3.28.42.34.13.29.09,0,.25-.14.08-.34.22-.58.42-.24.17-.51.32-.81.43-2.11.8-4.15.89-6.21,1.18-1.24.17-2.38.78-3.33,1.44-.28.17-.49.39-.74.59-.2.23-.45.43-.6.69-.19.24-.34.51-.47.78-.14.27-.27.63-.39.95-.3.81-.54,1.67-.71,2.54-.27,1.32-.45,2.68-.5,4.03-.04,1.05.08,2.09.15,3.13.02.23.04.45.04.69-.01.86-.14,1.14-.6,1.35-.1.05-.2.11-.31.14-.34.1-.65-.24-.84-.88-.29-.94-.46-1.93-.56-2.94-.1-1.01-.16-2.05-.08-3.09.1-1.55.34-3.11.75-4.67h.06Z"/><path class="cls-4" d="M291.8,129s-6.57-2.41-8.52,1.8c-1.96,4.2,2.55,8.9,4.81,10.14,2.26,1.25,5.16,2.34,5.16,2.34,0,0,5.19,18.6,11.6,23.33s16.78,6.45,20.03,5.1c3.24-1.35,11.09-7.02,11.09-7.02,0,0,5.14-8.31,5.99-11.1s3.41-10.5,3.41-10.5c0,0,5.56-1.26,6.72-4.39,1.16-3.13,1.04-8.97-1.45-10.38-2.49-1.41-7.21,1.71-10.64.69-3.43-1.02-6.78-5.81-6.84-8.66-.06-2.85-7.03.5-9.1-1.08s-7.72-4.98-7.72-4.98c0,0-2.25,5.74-5.74,7.96-3.48,2.22-6.13,3.4-10.6,2.21s-6.75-1.96-6.75-1.96l-1.44,6.5Z"/><path class="cls-5" d="M309.97,90.46c-2.07-1.95-8.08-5.45-14.21-.08-3.78,3.32-2.01,7.08-2.52,9.04,0,0-5.44-1.79-8.66,1.48-2.61,2.66-1.65,8.02-1.65,8.02,0,0-8.61-1.77-11.26,5.35-3.69,9.9,6.03,16.16,6.03,16.16,0,0-3.87,3.01-4.52,6.3-.66,3.32,1.77,6.36,4.67,7.34s5.09-.48,5.09-.48c0,0-.42,5.79,2.39,9.23,3.11,3.8,10.07,2.5,10.07,2.5l-2.15-12.05s-7.22-.53-8.66-4.59c-1.43-4.05-2.09-7.73-.62-9.27,1.47-1.54,7.84-.43,7.84-.43l1.44-6.5s9.58,3.56,12.79,2.1c3.21-1.46,10.15-5.99,9.79-7.45-.36-1.47.51-2.86.51-2.86,0,0,3.99,4.08,7.72,4.98,3.74.9,8.85,0,8.85,0,0,0,1.67,8.54,4.87,9.48,3.2.94,10.56-1.02,10.56-1.02,0,0,4.37.67,4.76,2.48.39,1.81.13,6.14,0,7.61-.13,1.47-2.59,4.4-3.33,4.73s-4.41.53-4.41.53l-2.86,11.36s6.21,1.99,8.43-4.56c0,0,6.82.29,6.25-4.28,0,0,5-3.4,3.44-6.9-1.56-3.5-3.25-3.59-3.25-3.59,0,0,3.9-3.3,3.55-7.06s-6-5.46-6-5.46c0,0,3.4-6.31.85-9.74-2.55-3.43-8.48-3.9-8.48-3.9,0,0,.89-6.85-2.38-9.32-3.53-2.66-8-1.87-8-1.87,0,0,.42-6.51-4-7-4.61-.51-7.33,2.36-7.33,2.36,0,0-2.81-6.02-7.37-6.59-4.56-.56-8.23,3.95-8.23,3.95Z"/><path class="cls-5" d="M245.15,185.2c-1.03.48-2.17.75-3.34.69-1.17-.06-2.33-.44-3.24-1.06-.68-.44-1.32-.94-1.79-1.58-.82-1.12-1.32-2.45-1.36-3.82-.05-1.37.4-2.77,1.18-3.81.33-.48.74-.89,1.17-1.27.46-.34.93-.67,1.46-.89.67-.3,1.43-.39,2.16-.32.74.06,1.4.41,1.96.78.35.24.17.39-.22.49-.38.04-1.03.33-1.54.56-.47.17-.84.48-1.17.76-.36.22-.67.51-.95.82-.62.57-1.06,1.27-1.24,2.12-.11.52-.02,1.11.21,1.65.24.54.6,1.03,1,1.44.89.94,2.14,1.39,3.46,1.06.8-.18,1.59-.62,2.17-1.25.91-.93,1.3-2.27.87-3.51-.34-.96-1.18-1.66-1.99-2.04-.19-.08-.38-.13-.55-.19-.63-.28-.78-.46-.9-1.3-.03-.19-.08-.38-.1-.56-.03-.31.06-.58.3-.79.25-.22.65-.34,1.15-.31,1.5.1,2.89.97,3.86,2.17.98,1.2,1.57,2.82,1.46,4.54-.09,1.28-.57,2.5-1.29,3.45-.72.96-1.64,1.72-2.68,2.24l-.04-.07Z"/><path class="cls-5" d="M262.43,185.01c-.87.57-1.87.8-2.76.8-.9,0-1.71-.21-2.45-.52-.54-.23-1.08-.44-1.54-.81-.8-.63-1.53-1.56-1.82-2.6-.15-.52-.22-1.07-.18-1.62.05-.56.27-1.08.56-1.54.54-.85,1.47-1.35,2.28-1.44,1.06-.14,2.03.1,2.9.47.27.12.22.18-.05.29-.26.1-.74.34-1.22.49-.87.22-1.57.72-1.76.97-.18.26-.24.61-.3,1.16-.01.34.17.71.43.98.25.26.64.51,1.01.72.82.49,1.86.73,2.64.49.48-.11.89-.48,1.13-.91.35-.62.24-1.69-.35-2.31-.45-.49-1.17-.58-1.86-.59-.15,0-.31.02-.47,0-.58-.05-.77-.3-.93-1.09-.04-.18-.09-.36-.12-.54-.1-.6.2-1.14.87-1.36.98-.28,2.14-.23,3.29.35,1.16.55,2.17,1.74,2.56,3.02.31.96.36,2.04.03,3.1-.16.51-.45,1.08-.76,1.45-.15.21-.32.4-.52.58-.18.19-.39.35-.61.5l-.05-.06Z"/><path class="cls-5" d="M254.66,196.46c3.76.18,7.53.3,11.3.36,1.38.03,2.75-.05,4.13-.03l14.58.25c2.16.03,4.33-.02,6.47-.09,1.38-.01,2.76-.02,4.13-.03,1.38.04,2.76.2,4.14.48.86.18.75.19.03.47-.36.14-.87.37-1.49.67-.62.26-1.34.49-2.13.65-1.4.19-2.8.3-4.2.43-1.4.11-2.8.15-4.21.21-2.81.09-5.63.15-8.47.03-3.39-.17-6.92.05-10.39.04-3.82-.01-7.64-.09-11.45-.19-2.35-.09-4.7-.17-7.05-.26-1.78-.06-3.56-.16-5.34-.28-1.78-.11-3.56-.22-5.32-.32-1.38-.06-2.74-.12-4.1-.18-1.36-.03-2.73-.11-4.1-.22-.6-.05-1.2-.06-1.8-.12-2.25-.33-2.93-.67-3.24-1.6-.07-.21-.17-.43-.2-.63-.08-.69.92-1.08,2.52-1,4.77.19,9.78.52,14.85.79,3.77.17,7.55.4,11.35.49v.08Z"/><path class="cls-5" d="M356.43,63.24c-21.74-.53-43.5-.88-65.25-1.04-7.94-.06-15.87,0-23.8,0-6.99,0-13.98.04-20.96.13-3.49.05-6.98.12-10.47.23-1.74.06-3.48.12-5.22.21-1.73.08-3.47.19-5.16.42-.8.09-1.86.28-1.96.32-.08.02-.16.05-.21.11-.04.07-.06.15-.08.23l-.05.24-.08.58c-.2,1.66-.29,3.4-.38,5.13-.17,3.47-.25,6.96-.33,10.45-.14,6.98-.18,13.97-.21,20.96-.04,12.41.08,24.89.21,37.2.07,7.91.15,15.84.22,23.77,0,3.97,0,7.93,0,11.89,0,1.98-.06,3.96-.13,5.94-.08,1.98-.12,3.96-.24,5.94-.37,4.93-.6,4.27-1.24.09-.33-2.09-.68-5.05-1.07-8.63-.33-3.58-.51-7.78-.56-12.34-.18-16.15-.36-32.31-.34-48.5,0-8.1.02-16.2.11-24.33.12-8.13.21-16.25.72-24.47.09-1.24.18-2.47.36-3.76.03-.25.14-.85.26-1.35.07-.25.15-.49.27-.71.14-.2.29-.4.45-.59.4-.3.9-.44,1.37-.63.25-.07.52-.11.76-.15.17-.02.34-.06.5-.07,1.3-.15,2.54-.2,3.8-.27,1.24-.07,2.49-.14,3.74-.21,4.98-.23,9.97-.36,14.97-.46,10.01-.2,20.07-.29,30.04-.29,21.93.02,43.86.29,65.78.69,13.49.26,26.99.57,40.48,1.02,3.66.12,7.31.26,10.97.44,1.83.09,3.66.18,5.49.3l2.75.21c.46.04.92.09,1.39.15l.37.05c.15.02.32.05.47.1.31.08.63.16.91.31.45.39.74.91.97,1.46.17.47.3.88.4,1.31.21.85.36,1.68.49,2.51.25,1.66.42,3.32.55,4.97.27,3.3.42,6.59.53,9.88.22,6.57.28,13.12.29,19.63.02,15.78-.16,31.24-.67,46.83-.12,3.43-.23,6.79-.35,10.25-.56,12.83-1.09,16.91-2.08,19.6-.23.61-.47,1.42-.68,1.77-.71,1.16-.69-4.05-.39-13.42.49-13.9.73-28.2.9-42.69.21-14.48.39-29.2-.14-43.84-.12-2.92-.28-5.84-.54-8.73-.13-1.44-.29-2.87-.52-4.25-.12-.68-.24-1.37-.41-1.96-.04-.16-.08-.3-.13-.43l-.09-.27h0s0,0,0,0l-.41-.06c-.47-.05-.93-.1-1.42-.14-.97-.09-1.96-.15-2.95-.21-1.98-.12-3.97-.23-5.97-.32-3.99-.18-7.99-.33-12-.46-8.01-.26-16.03-.47-24.05-.64l-.03-.08Z"/><path class="cls-5" d="M342.35,127.65c.86-.13,1.83-.62,3.17-1.14.67-.25,1.47-.49,2.36-.51.89-.03,1.8.17,2.54.51,1.09.5,2.02,1.12,2.75,1.94.65.72,1.17,1.54,1.56,2.47.18.47.34.97.41,1.51.05.47.07.89.08,1.34,0,1.75-.22,3.49-.89,5.17-.3.74-.68,1.48-1.21,2.15-.49.62-1.04,1.18-1.66,1.68-.79.65-1.74,1.16-2.78,1.43-.52.11-1.06.22-1.59.13-.53-.1-1.04-.2-1.49-.5-.51-.58-.38-.52.18-1.01.28-.26.62-.5.95-.82.17-.14.33-.33.48-.44.16-.1.32-.18.49-.24.6-.19,1.14-.52,1.67-.93.27-.2.53-.43.78-.67.24-.24.52-.55.66-.75.7-.94,1.15-2.52,1.33-4.12.06-.48.06-.98.02-1.47l-.04-.37-.04-.27c-.04-.18-.1-.37-.18-.56-.33-.77-.94-1.52-1.62-2.1-.76-.67-1.57-1.04-2.37-.99-.85.02-1.91.56-3.15,1.05-.76.3-1.64.57-2.54.62-.45.02-.9.06-1.34-.02l-.66-.07c-.21-.04-.42-.1-.63-.15-2.55-.64-4.63-2.33-6.07-4.39-1.13-1.59-1.92-3.54-1.89-5.61.04-.45-.03-.91.1-1.35.1-.41.19-.75.3-1.02.11-.27.29-.45.44-.59.15-.14.3-.24.47-.29.2-.04.4-.05.59-.05.17,0,.33-.03.44-.02.27,0,.86.94.71,1.81-.14,1.36.07,2.6.47,3.76.44,1.15,1.18,2.23,2.16,3.08,1.42,1.31,3.42,2.04,5.01,1.73l.02.08Z"/><path class="cls-5" d="M282.58,138.11c-.84-1.54-1.33-3.34-1.26-5.12.02-.34.03-.67.04-1.01.05-.33.11-.67.19-.99.73-2.25,2.44-4.14,4.68-4.8.98-.27,2.05-.42,3.08-.18.32.12.64.22.94.35.28.18.58.33.82.55.21.25.41.5.59.76.16.27.23.6.33.88.1.37-.08.41-.52.4-.44-.03-1.24.07-1.7.01-.82-.16-1.29-.08-1.88-.06-.15.03-.3.07-.46.09-.15.07-.32.1-.48.16-.16.08-.35.11-.52.19-.17.09-.36.16-.54.26-.88.51-1.3,1.58-1.5,2.57-.08.28-.06.57-.11.85.01.3,0,.61.04.92.08.61.21,1.23.46,1.82.27.74.71,1.44,1.22,2.09.79.97,1.76,1.87,2.88,2.52.87.51,1.85.77,2.81,1.02.21.06.43.08.63.16.74.3.92.57.9,1.32,0,.17,0,.34-.02.5-.06.53-.54.89-1.26.91-2.13,0-4.15-1-5.97-2.31-1.34-1-2.54-2.3-3.45-3.83l.06-.04Z"/><path class="cls-5" d="M283.56,154.02c.3.36.52.8.9,1.12.18.17.34.35.53.52l.61.44c.29.24.67.31,1,.5,1.16.62,2.5,1.15,3.93,1.26.63.03,1.27.03,1.89-.08.4-.07.78-.2,1.21-.19.21-.02.41-.06.63-.04.22.02.45.05.69.07.3.04.29.09.15.37-.1.21-.21.43-.29.6-.12.28-.29.54-.53.71-1.7,1.05-3.82,1.17-5.73.63-.29-.08-.57-.15-.87-.21l-.87-.23c-.6-.11-1.17-.35-1.72-.61-.61-.26-1.15-.7-1.71-1.06-.49-.46-1.04-.85-1.45-1.4-.57-.61-.96-1.34-1.37-2.04-.51-1.13-.84-2.33-.96-3.53-.17-.93-.25-1.84-.3-2.8.02-.2,0-.41.04-.61.15-.76.47-.93,1.13-.91.15,0,.3,0,.45.02.47.07.86.46,1.01.96.21,1.45.3,2.72.61,3.93.18.91.58,1.74,1.07,2.53l-.05.04Z"/><path class="cls-5" d="M265.52,120.22c-.12-1.03-.17-2.07-.08-3.16.09-1.11.32-2.05.58-3.06.21-.71.36-1.45.67-2.14,1.04-2.42,2.7-4.62,4.87-6.13.99-.62,1.99-1.23,3.08-1.61.34-.15.69-.26,1.05-.35.35-.1.71-.21,1.08-.22.37-.03.73-.06,1.1-.06.36.01.74.17,1.09.26.44.15.37.29.02.65-.23.24-.46.49-.67.72-.27.23-.57.46-.9.58-1.16.47-2.25.89-3.22,1.57l-.71.52c-.24.17-.43.4-.69.55-.48.35-.96.73-1.41,1.17-1.11,1.03-1.74,2.55-2.27,4.02-.27.82-.52,1.66-.67,2.53l-.12.65-.06.62c-.02.42-.03.85,0,1.29.04,1.08.23,2.18.5,3.25.42,1.62,1.01,3.23,1.95,4.57.74,1.03,1.74,1.8,2.74,2.26.23.08.44.2.67.24.41.13.66.26.84.4.17.19.26.47.34.84.04.17.09.32.12.47.04.25-.05.45-.31.67-.25.22-.67.38-1.18.33-1.53-.13-2.95-.95-4.05-1.95-1.1-1.02-1.95-2.23-2.59-3.5-.98-1.88-1.53-3.89-1.84-5.96h.07Z"/><path class="cls-5" d="M277.63,99.12c.53-1.27,1.26-2.4,2.18-3.41.35-.39.68-.79,1.08-1.1,1.44-1.06,3.11-1.58,4.77-1.74.37-.05.74-.06,1.11-.1.38,0,.75.02,1.13.08.93.12,2.04.42,2.49,1.43.14.29,0,.35-.35.47-.36.1-.98.5-1.32.51-.18.04-.32.03-.48.04-.16.03-.31.02-.47.06-.32.04-.62.16-.94.17-.64.04-1.33.13-2.06.26-.87.17-1.63.75-2.26,1.31-.69.56-1.36,1.45-1.83,2.35-.31.56-.53,1.17-.7,1.79-.23.95-.35,1.95-.16,2.91.17.74.52,1.4.88,2.02.07.14.2.25.24.4.21.56.18.81-.22,1.27-.09.1-.17.22-.26.31-.3.31-.77.3-1.3-.04-.78-.51-1.32-1.29-1.75-2.13-.38-.87-.53-1.83-.58-2.77-.04-1.42.25-2.81.72-4.11l.07.02Z"/><path class="cls-5" d="M349.88,91.79c1.08.97,2,2.25,2.55,3.57.19.48.46.93.57,1.43.42,1.75.42,3.52.06,5.19-.14.74-.31,1.49-.61,2.19-.19.45-.39.9-.69,1.3-.31.4-.72.72-1.2.91-.3.12-.35-.03-.41-.4-.03-.36-.26-1.01-.23-1.43.16-.72.13-1.46.2-2.17.14-.71.2-1.44.36-2.22.16-.95-.2-1.89-.5-2.76-.35-.97-.83-1.83-1.54-2.58-.45-.45-.96-.88-1.53-1.23-.86-.53-1.81-1-2.82-1.17-.79-.14-1.58.03-2.31.15l-.47.1c-.59.03-.8-.17-1.12-.88-.07-.16-.15-.3-.21-.44-.18-.43-.04-1.1.54-1.46.84-.51,1.81-.72,2.77-.72.96,0,1.92.16,2.85.44,1.38.42,2.66,1.15,3.8,2.09l-.05.07Z"/><path class="cls-5" d="M368.11,137.56c.08,1.33-.19,2.54-.62,3.64-.16.4-.27.83-.51,1.19-.81,1.29-1.96,2.31-3.24,3-.56.32-1.17.55-1.78.76-.76.24-1.69.49-2.44-.12-.23-.2-.15-.36.08-.72.11-.17.26-.46.39-.64.14-.18.27-.47.42-.47.52-.16,1-.41,1.46-.69.46-.28.98-.5,1.5-.83.64-.39.96-1.14,1.26-1.8.36-.73.62-1.56.67-2.37.02-.5-.02-1-.18-1.48-.24-.72-.65-1.45-1.28-2.01-.48-.45-1.14-.66-1.72-.95-.13-.07-.27-.11-.39-.19-.23-.15-.36-.28-.39-.47-.02-.21.04-.45.16-.78.06-.15.1-.3.16-.43.1-.23.26-.41.46-.54.2-.13.47-.23.71-.18,1.49.16,2.79,1.09,3.85,2.43.79.98,1.32,2.32,1.48,3.64h-.07Z"/><path class="cls-5" d="M345.41,158.17c.76-.03,1.55-.14,2.35-.34.27-.08.49-.24.75-.34.94-.34,1.81-.94,2.59-1.71.33-.35.57-.78.74-1.22.23-.57.4-1.14.71-1.74.1-.19.44-.16.8.06.36.21.81.65.84,1.14,0,.42,0,.86-.08,1.28-.11.41-.25.81-.44,1.2-.38.76-.87,1.48-1.6,1.96-.84.57-1.56,1.3-2.49,1.75-1.03.47-2.02.74-3.1.85-.65.08-1.31.08-1.96.05-.99-.05-1.96-.29-2.89-.56-.72-.22-1.5-.34-2.2-.69-.15-.07-.31-.14-.46-.24-.53-.36-.53-.68-.18-1.27.08-.14.15-.27.24-.4.3-.41.78-.62,1.16-.56,1.18.14,2.02.45,2.99.6.7.12,1.44.17,2.19.09v.07Z"/><path class="cls-5" d="M303.82,163.21c.43.54.98.95,1.46,1.44l.74.71.78.62c1.07.8,2.2,1.53,3.44,2.09,2.44,1.16,5.13,1.86,7.86,2.08,1.99.18,4.01.04,5.97-.28,1.74-.28,3.43-.74,4.99-1.48,1.57-.73,3.03-1.72,4.34-2.89,2.63-2.35,4.66-5.43,6.2-8.73,1.36-2.94,2.3-6.11,2.92-9.29.42-2.04.69-4.12.91-6.19l.15-1.56.19-1.56.18-1.56c.08-.52.2-1.04.36-1.56.25-.65.39-.94.46-.92.08.02.15.34.45.9.66,1.12,1.4,3.27,1.25,5.79-.35,4.44-1.14,8.87-2.64,13.14-1.48,4.25-3.61,8.41-6.81,11.82-1.9,2.02-4.15,3.85-6.75,5.13-2.61,1.27-5.43,1.95-8.24,2.16-6.16.44-12.52-1.3-17.36-5.21-2.9-2.43-5.23-5.41-7.1-8.6-2.9-4.82-4.58-10.24-5.73-15.62-.87-4.2-1.37-8.41-1.29-12.69.04-.94.07-1.86.13-2.81.4-3.51.85-4.59,1.71-5.16.17-.13.34-.32.47-.39.22-.12.33.19.48.85.21.67,0,1.6,0,2.84-.24,3.63-.11,7.37.34,11.11.42,3.74,1.07,7.51,2.2,11.15.87,2.69,1.84,5.35,3.16,7.84.28.65.7,1.21,1.05,1.82.36.6.72,1.21,1.15,1.75.42.56.81,1.14,1.24,1.68l1.37,1.56-.05.05Z"/><path class="cls-5" d="M302.78,123.59c1.43-.09,2.88-.38,4.26-.91.5-.19.96-.48,1.45-.71,1.71-.82,3.32-1.94,4.54-3.41.56-.65.9-1.43,1.26-2.18l.27-.75c.06-.26.16-.51.28-.75l.31-.77c.1-.26.3-.53.42-.81.2-.35.15-.31.34,0,.1.16.28.39.54.69.2.3.32.66.39,1.06.03.34.08.71.03,1.05-.05.34-.15.67-.23,1.01-.08.34-.21.66-.34.98-.14.32-.34.6-.51.89-.73,1.15-1.67,2.14-2.73,2.92-1.26.93-2.5,1.96-3.91,2.67-1.54.78-3.21,1.29-4.9,1.58-1.04.18-2.1.27-3.16.25-1.6-.02-3.21-.3-4.74-.79-1.19-.37-2.39-.79-3.49-1.48-.25-.14-.49-.29-.71-.47-.44-.32-.58-.67-.63-.95-.05-.28.05-.55.26-.86.09-.14.17-.28.27-.4.31-.36.99-.44,1.56-.17.87.39,1.61.82,2.42,1.16.8.35,1.66.61,2.55.81,1.32.29,2.74.41,4.17.25v.07Z"/><path class="cls-5" d="M321.14,117.28c.41.28.82.59,1.31.78.46.26.97.4,1.48.56.37.15.77.09,1.16.19,1.36.26,2.86.36,4.29,0,.33-.04.63-.18.94-.29.3-.13.62-.21.89-.4l1.07-.65c.16-.13.34-.24.54-.33l.3-.14c.11-.04.25-.04.39-.05.39.03.37.04.43.45.1.45.11,1.19-.29,1.64-.75.69-1.59,1.33-2.54,1.76-.23.11-.46.24-.71.32-.25.07-.51.12-.76.18l-.76.15c-.26.03-.52.03-.78.04-.31,0-.62.03-.92.07l-.93.04c-.62.06-1.26.05-1.88-.02-.69-.03-1.35-.29-2.02-.45-.64-.25-1.3-.49-1.9-.83l-1.09-.66-.99-.8c-.49-.41-.89-.94-1.31-1.41l-.53-.81c-.18-.27-.37-.52-.49-.82-.2-.45-.49-.86-.7-1.31-.19-.45-.38-.92-.56-1.39-.08-.21-.12-.42-.16-.64,0-.82.22-1.09.88-1.26.15-.04.3-.09.45-.11.49-.07.98.22,1.28.66.1.17.24.32.29.49.06.16.13.32.23.47.18.3.32.59.45.89.36.54.62,1.1,1,1.6.22.42.59.71.88,1.1.16.18.37.31.54.47.19.15.36.33.59.44l-.04.07Z"/><path class="cls-5" d="M355.68,152.58c.5.09,1.13.07,1.62-.04.17-.04.3-.16.45-.22.54-.2,1.15-.62,1.56-1.34.17-.32.28-.68.37-1.04.08-.47.27-.95.54-1.48.09-.16.31-.15.6,0,.28.14.74.42.91.77.32.63.36,1.29.28,1.97-.18.65-.5,1.31-1,1.86-.58.65-1.17,1.4-1.99,1.82-.93.45-1.78.57-2.65.61-.54.02-1.08-.04-1.6-.11-.8-.13-1.56-.45-2.28-.77-.56-.26-1.21-.43-1.73-.83-.12-.08-.24-.16-.34-.26-.2-.18-.25-.37-.18-.57.06-.2.21-.39.45-.62.11-.11.21-.21.33-.31.36-.3.85-.44,1.24-.44.45.1.85.14,1.14.26.29.12.57.23.86.35.43.15.9.31,1.42.33v.07Z"/><path class="cls-5" d="M366.41,124.29c.12.62.31,1.22.31,1.85l.05.92-.08.92c-.02.44-.05.89-.19,1.33-.53,1.51-1.53,2.81-2.76,3.67l-.85.5c-.14.08-.27.18-.41.25l-.45.17c-.38.12-.75.34-1.15.37-.41.02-.82-.02-1.21-.1-.26-.16-.22-.19-.07-.51.16-.31.41-.79.72-1.06,1.16-.68,2-1.26,2.81-2.11.12-.13.22-.28.32-.42.08-.16.12-.35.17-.52.14-.34.1-.73.19-1.09.1-.4.08-.82.11-1.24-.06-.42-.02-.86-.17-1.27-.07-.25-.1-.53-.21-.78l-.32-.74c-.21-.35-.43-.7-.66-1.04-.29-.28-.53-.64-.9-.83-.28-.15-.55-.3-.86-.37-.31-.06-.63-.06-.9-.16-.12-.05-.27,0-.39-.04-.24-.04-.38-.15-.46-.34-.09-.17-.12-.46-.13-.82l-.03-.45c-.01-.41.31-1,.88-1.13.4-.06.85-.17,1.27-.11.43.04.84.18,1.26.31.78.37,1.57.84,2.18,1.5.98.91,1.55,2.13,1.98,3.32l-.07.03Z"/><path class="cls-5" d="M361.22,113.89c.15-.9.09-1.8-.25-2.78-.13-.35-.34-.66-.5-.99-.55-1.22-1.44-2.31-2.5-3.22-.48-.38-1.05-.66-1.61-.84-.36-.17-.74-.18-1.11-.34-.37-.17-.76-.38-1.2-.52-.28-.11-.25-.12-.04-.31.21-.15.63-.77,1.25-1.02.14-.05.28-.12.42-.15h.4c.27.01.55,0,.82.05.55.04,1.05.27,1.54.48.95.47,1.82,1.09,2.44,1.93.75.97,1.62,1.86,2.2,2.98.63,1.2,1.01,2.59,1.01,4,0,.86-.14,1.69-.36,2.49-.34,1.21-.93,2.31-1.62,3.34-.55.79-1.11,1.64-2,2.28-.2.13-.38.3-.61.38-.87.29-1.23.08-1.49-.58-.06-.15-.12-.3-.16-.45-.11-.5.09-1.01.36-1.32.39-.52.75-.84,1.09-1.29.35-.43.69-.93.98-1.48.43-.8.77-1.73.87-2.64h.07Z"/><path class="cls-5" d="M333.73,82.92c1.53.21,2.89.88,4.02,1.69.2.15.42.29.63.42.2.15.39.31.57.48,1.24,1.25,2.13,2.74,2.61,4.35.24.7.46,1.41.54,2.15.09.46.1.96.07,1.44-.05.25-.15.48-.23.71-.11.23-.26.44-.4.64-.19.25-.35.11-.59-.19-.15-.19-.3-.38-.42-.53-.15-.19-.37-.4-.46-.58-.2-.65-.44-1.27-.78-1.88-.25-.63-.52-1.29-.83-1.97-.33-.86-1.08-1.47-1.77-2.02-.76-.62-1.62-1.11-2.54-1.35-.28-.09-.57-.13-.87-.16-.29-.05-.6-.05-.91-.03-.93.07-1.9.33-2.65.89-.59.43-.92,1.1-1.12,1.69-.06.13-.05.28-.1.4-.08.24-.17.37-.38.43-.24.05-.52.06-.89.05-.17,0-.33,0-.48,0-.25-.02-.46-.11-.67-.31-.19-.19-.46-.52-.41-.85.06-1.01.49-2.02,1.15-2.84.66-.82,1.53-1.44,2.45-1.89,1.39-.66,2.89-.93,4.47-.8v.08Z"/><path class="cls-5" d="M323.31,84.16l-.56-.51c-.19-.18-.42-.29-.63-.44-.42-.32-.9-.52-1.39-.75-.35-.19-.76-.17-1.12-.31-1.31-.36-2.76-.59-4.16-.3-.32.02-.61.16-.91.25-.29.12-.61.18-.87.36-.33.23-.71.37-1.09.54-.34.23-.76.35-1.26.45-.4-.03-.3.03-.32-.32-.01-.19,0-.42.02-.73.01-.15.02-.33.06-.48.05-.14.11-.29.2-.41.14-.24.33-.42.51-.62l.28-.3.33-.22c.43-.33.93-.5,1.42-.71.25-.09.49-.22.75-.25l.79-.1.79-.07c.26,0,.53.03.79.06.31.03.62.04.93.04l.93.09c.63.02,1.24.13,1.84.29.67.13,1.28.47,1.91.71.6.33,1.2.65,1.74,1.07l.97.8.85.93c.43.46.72,1.06,1.07,1.58.22.6.55,1.15.71,1.76.12.47.32.93.44,1.41.09.48.19.97.26,1.48.03.22.03.43.02.66-.15.81-.38,1.03-1.13,1.01-.16,0-.31,0-.45,0-.43-.04-.98-.47-1.09-.94-.05-.18-.12-.35-.13-.52-.02-.17-.03-.33-.09-.49-.09-.32-.15-.63-.19-.94-.2-.59-.31-1.19-.6-1.74-.13-.44-.47-.79-.68-1.21-.14-.19-.32-.36-.47-.55-.16-.18-.31-.38-.52-.52l.04-.05Z"/><path class="cls-5" d="M292.11,85.03c1.31-1.17,2.8-2.07,4.38-2.7.58-.21,1.13-.53,1.74-.65,2.13-.52,4.38-.49,6.43.13.91.26,1.81.53,2.66.92.51.31,1.08.53,1.51.96.21.21.44.41.61.66.18.24.31.54.46.8.16.35.04.4-.39.45-.21.03-.51.07-.86.14-.32.03-.66.06-.97.02-1-.26-1.89-.46-2.75-.77-.87-.3-1.78-.44-2.74-.64-1.17-.25-2.39.12-3.54.48-1.28.4-2.51,1.01-3.6,1.84-.68.5-1.29,1.09-1.82,1.76-.79,1.01-1.49,2.16-1.79,3.41-.24.97-.14,1.96.04,2.87.05.2.13.39.13.59.07.74-.06,1.02-.71,1.4-.15.09-.28.19-.43.26-.48.25-1.05.04-1.47-.65-.66-1.01-.79-2.25-.77-3.46.04-1.21.34-2.41.8-3.53.67-1.67,1.77-3.12,3.04-4.36l.06.05Z"/><path class="cls-5" d="M270.15,136.51c-.31.78-.35,2.1-.08,3.18.06.2.14.39.21.59.09.19.2.36.26.57.5,1.4,1.51,2.7,2.88,3.65.59.46,1.29.75,2,1,.47.13.92.3,1.4.41l.35.11c.11.07.23.13.35.18.23.12.47.23.72.36.3.17.26.31-.04.57-.15.13-.36.31-.64.51-.14.1-.28.2-.44.29-.08.05-.16.07-.25.13-.08,0-.16.02-.24.02-.59.02-1.18,0-1.78-.08-.58-.11-1.17-.26-1.74-.48-.57-.21-1.13-.47-1.65-.82-.49-.38-.97-.78-1.38-1.27-.97-1.12-2.08-2.24-2.68-3.67-.65-1.58-.81-3.23-.63-4.91.15-1.08.54-2.04,1.03-2.91.75-1.33,1.82-2.42,3.07-3.27.95-.66,2.02-1.3,3.3-1.51.28-.05.55-.13.84-.1.53.05.86.19,1.05.41.19.2.25.49.24.87,0,.17,0,.34-.02.49-.08.49-.57.98-1.04,1.12-.72.32-1.27.48-1.82.82-.54.31-1.06.71-1.54,1.2-.71.72-1.35,1.64-1.64,2.58l-.08-.02Z"/><path class="cls-5" d="M305.64,137.36c-.33,3.72,1.79,9.69,6.52,8.75,1.32-.26,2.46-1.19,3.33-2.16.48-.54.57-1.42,0-1.94-.52-.48-1.43-.57-1.94,0-.18.2-.36.39-.55.57-.09.08-.18.16-.27.24-.02.01-.17.14-.04.04s-.06.04-.08.06c-.17.12-.34.23-.53.33-.04.02-.09.04-.13.07-.18.1.05.01.07-.02-.03.05-.24.09-.3.1-.08.02-.17.04-.25.06-.03,0-.1,0-.12.02,0,0,.3-.02.16-.02-.17,0-.34.01-.52,0-.24,0,.29.07.06,0-.07-.02-.15-.03-.23-.06-.06-.02-.16-.08-.22-.07,0,0,.27.13.15.06-.05-.02-.09-.04-.14-.07-.14-.07-.27-.17-.41-.25-.12-.07.11.09.11.09-.02-.03-.07-.06-.1-.08-.07-.06-.15-.13-.22-.2-.14-.13-.25-.28-.38-.42-.11-.11.09.11.08.1-.02,0-.07-.09-.08-.11-.06-.09-.12-.18-.18-.27-.1-.16-.2-.32-.28-.49-.05-.09-.09-.17-.13-.26-.03-.05-.16-.37-.09-.2s-.04-.11-.06-.16c-.04-.1-.07-.19-.1-.29-.07-.21-.13-.43-.19-.64-.06-.25-.12-.51-.16-.77,0-.02-.03-.15-.02-.16-.02.01.03.28,0,.05-.01-.12-.03-.25-.03-.37-.04-.52-.03-1.04.02-1.56.06-.72-.68-1.41-1.38-1.38-.8.04-1.31.61-1.38,1.38h0Z"/><path class="cls-5" d="M320.3,137.84c-.49,2.7-.8,5.99,1.74,7.78,2.41,1.7,5.6.36,7.33-1.67,1.11-1.31,1.81-2.89,1.83-4.62,0-.72-.64-1.41-1.38-1.38s-1.37.6-1.38,1.38c0,.15-.01.29-.02.44,0,.03-.03.21,0,.03.03-.19,0,.04-.02.09-.06.27-.12.53-.21.78-.02.07-.05.13-.08.2.09-.27.04-.09.01-.03-.06.11-.11.23-.17.34-.14.26-.31.48-.46.73-.08.13.04-.05.05-.06-.05.06-.09.11-.14.17-.09.11-.19.21-.29.32-.18.19-.4.35-.58.53-.13.13.19-.12.03-.02-.04.03-.08.06-.13.09-.11.08-.23.15-.34.22-.1.06-.2.12-.31.17-.09.05-.51.2-.16.09-.21.07-.41.15-.63.2-.06.01-.12.02-.18.04-.2.05.03-.07.1,0-.03-.03-.31.02-.36.02-.1,0-.21-.02-.31-.01-.17.02.28.07.11.02-.04-.01-.09-.02-.13-.02-.11-.02-.22-.06-.33-.09-.07-.02-.16-.1.04.02-.06-.04-.13-.06-.19-.1-.12-.07-.23-.15-.35-.22.21.12.05.04-.06-.07-.08-.08-.15-.16-.23-.24.03.03.17.25.05.05-.04-.07-.09-.13-.12-.2-.03-.06-.17-.23-.15-.29,0,0,.11.32.03.07-.01-.05-.03-.09-.05-.14-.08-.25-.13-.5-.18-.76-.04-.19,0,.26.01.07,0-.08-.02-.17-.02-.25,0-.14-.01-.28-.01-.41,0-.3.01-.6.03-.9.01-.16.03-.32.05-.48,0-.05.01-.11.02-.16.01-.18-.04.26,0,0,.05-.31.1-.63.16-.94.13-.71-.19-1.52-.96-1.69-.67-.15-1.55.2-1.69.96h0Z"/><path class="cls-5" d="M322.73,129.5c-.08.04-.25.1-.07.03.06-.02.13-.05.19-.07.15-.05.29-.1.44-.14.13-.04.27-.07.4-.09.08-.02.18-.02.25-.04-.07.03-.3.03-.09.01.29-.03.58-.04.88-.03.14,0,.28.01.41.03.05,0,.29.04.06,0-.25-.04.08.02.11.02.27.05.54.11.8.2.15.05.29.1.44.15.19.06-.26-.12-.07-.03.06.03.13.06.19.09.26.13.52.27.76.43.06.04.11.08.17.12.23.16-.15-.14-.02-.01.12.1.24.2.35.31.57.54,1.56.61,2.12,0s.61-1.55,0-2.12c-1.11-1.04-2.53-1.79-4.04-2.04-1.66-.27-3.25-.08-4.79.6-.72.32-.94,1.42-.54,2.05.48.75,1.28.88,2.05.54h0Z"/><path class="cls-5" d="M316.75,161.44c1.31.78,3.02,1.01,4.46.47,1.33-.5,2.5-1.47,3.06-2.79.15-.35.25-.67.14-1.06-.09-.32-.33-.66-.63-.82-.59-.31-1.58-.21-1.88.49-.09.22-.2.43-.34.63-.02.03-.12.13-.12.17,0-.04.19-.23.06-.08-.08.09-.17.19-.26.28s-.21.16-.28.25c.04-.05.23-.17.08-.06-.05.03-.09.06-.14.09-.11.07-.22.13-.33.19-.05.03-.1.05-.15.07-.15.08.33-.12.06-.02-.11.04-.22.08-.34.11-.08.02-.15.04-.23.05-.04,0-.26.04-.05.01s0,0-.05,0c-.08,0-.16.01-.23.01-.12,0-.25,0-.37,0-.05,0-.33-.03-.1,0,.21.02,0,0-.05-.01-.14-.03-.27-.06-.41-.11-.06-.02-.12-.04-.18-.06-.2-.07.04.04.07.03-.07.02-.34-.18-.41-.22-.62-.37-1.54-.16-1.88.49s-.17,1.49.49,1.88h0Z"/><path class="cls-5" d="M316.91,136.03c-.04,1.9-.24,3.76-.46,5.57-.08.66-.08,1.33-.18,1.98-.34,2.3-.73,4.56-.89,6.82l-.02.61c0,.2,0,.24,0,.36,0,.2.11.42.33.44l.28.02c.08,0,.15.01.22,0l.45.03c.31,0,.63.05.95.09.64.09,1.27.14,1.91.38.42.36.38.23.06.68-.32.42-.97,1.04-1.77,1.19-.49.1-.98.18-1.48.17-.15,0-.21,0-.43,0-.24-.01-.47-.01-.71-.04-.48-.02-.91-.17-1.29-.35-.69-.35-1.13-1.15-1.23-1.95-.03-.21-.04-.42-.06-.63l.02-.46.05-.69c.08-.91.21-1.81.38-2.7.32-1.63.34-3.31.52-4.94.19-1.79.4-3.56.45-5.33.04-1.07.04-2.2-.02-3.26-.05-.79-.15-1.55-.4-2.22-.13-.33-.29-.64-.49-.92-.12-.17-.14-.18-.28-.29-.11-.09-.26-.17-.41-.25-.99-.49-2.27-.56-3.34-.48-.24.02-.46.09-.68.11-.77.1-.86-.05-1.44-.6-.13-.13-.29-.23-.42-.35-.22-.2-.33-.46-.21-.8.06-.18.17-.36.34-.51.17-.17.38-.31.63-.43.73-.36,1.48-.46,2.2-.5.72-.03,1.43.05,2.14.19.71.15,1.41.37,2.15.75.38.22.76.42,1.22.86.11.11.24.24.32.35l.2.26c.13.17.24.36.36.55.65,1.13.89,2.31,1,3.36.11,1.07.1,1.97.11,2.91h-.07Z"/><path class="cls-5" d="M309.5,198.25c.2-.7.44-1.41.7-2.13.13-.36.28-.72.44-1.08l.26-.55c.12-.21.26-.42.39-.63.4-.58.85-1.09,1.38-1.45.91-.65,1.92-.94,2.87-1.19.96-.22,1.9-.37,2.84-.48.83-.08,1.66-.17,2.47-.22,1.04-.11,2.11-.04,3.15.15.32.06.28.12,0,.26-.27.12-.76.42-1.32.62-2.02.6-3.96,1.15-5.87,1.59-1.15.28-2.15.98-2.91,1.59-.39.39-.63.68-.9,1.33-.25.61-.48,1.25-.67,1.91-.25.81-.47,1.65-.66,2.5-.3,1.28-.55,2.58-.78,3.88-.16,1.01-.17,2.02-.26,3.04-.02.22-.02.45-.05.67-.13.83-.34,1.08-.93,1.15-.13.02-.27.05-.4.05-.44,0-.74-.39-.81-1.01-.18-1.84-.18-3.78.07-5.71.24-1.42.57-2.85.94-4.29h.07Z"/><path class="cls-4" d="M489.32,209.28c-4.07-6.12-158.2-8.5-163.84-1.81-7.69,9.12-3.51,104.38-3.51,104.38,0,0,49.77-.31,49.91,4.33.14,4.52,1.03,20.14,1.03,20.14,0,0,108.99-1.03,111.32-1.56,5.93-1.35,6.66-5.9,7.17-17.36.51-11.46-.16-105.22-2.09-108.12ZM459.13,288.52c-1.3,2.52-8.47,4.18-8.47,4.18,0,0-4.85,2.39-7.98,4.31-3.12,1.91-7.06-1.11-7.06-1.11,0,0-6.56,2.01-9.74,1.71-3.17-.31-8-4.91-8-4.91,0,0-10.13,4.49-15.45,4.91-5.32.42-16.53-4.91-16.53-4.91,0,0-5.94,4.19-11.4,4.29-5.45.11-8.29-5.99-8.29-5.99,0,0-8,1.65-12.07,0-4.07-1.64-1.35-5.67-1.35-5.67,0,0-5.59-.11-8.66-.52-3.07-.41-7.23-6.29-8.16-8.39-.92-2.09,1.32-8.62,4.85-10.32,3.53-1.7,5.99-5.17,5.84-8.18-.15-3.01,1.3-5.83,3.45-7.28,2.16-1.44,7.83-5.63,10.52-7.32,2.7-1.7,6.34-12.13,8.58-15.75,2.25-3.62,7.82-8.11,10.45-9.59,2.63-1.49,11.66-1.15,14.54,0,2.88,1.14,8.52,8.45,8.52,8.45,0,0,1.33,1.37,2.12-2.17.78-3.54,5.39-4.47,8.02-5.65,2.63-1.17,11.25-.78,13.96,0,2.7.77,12.32,9.16,14.6,12.27,2.27,3.11,4.61,17.08,4.66,18.1.05,1.02.13,11.39,2.02,12.07,1.88.68,10.63,12.22,11.96,15.37,1.33,3.15.38,9.59-.93,12.1Z"/><path class="cls-5" d="M428.56,256.09c.76-.25,1.52-.51,2.26-.81.27-.11.51-.28.78-.38.99-.35,1.94-.74,2.95-1.08.44-.15.87-.34,1.28-.54.56-.23,1.07-.53,1.83-.48.23.02.17.26.07.55-.06.16-.11.31-.15.44-.07.16-.16.31-.28.4-.88.62-1.74,1.49-2.88,1.85-.68.23-1.24.73-1.87,1.1-.69.4-1.41.77-2.12,1.15-.44.23-.89.45-1.33.68-.67.35-1.38.64-2.04,1.03-.51.31-.95.77-1.53,1.15-.13.08-.26.19-.41.26-.24.13-.54.13-.72,0-.19-.14-.3-.41-.37-.85-.03-.2-.07-.4-.08-.61-.02-.69.1-1.31.16-1.5.44-.66,1.35-1.12,2.26-1.53.69-.31,1.43-.58,2.17-.88l.04.06Z"/><path class="cls-5" d="M396.42,246.72c-1.25-1.24-2.9-2.13-4.64-2.43-.44-.08-.85-.07-1.25.16-.34.2-.66.58-.75.97-.09.42-.07.88.16,1.25.22.34.56.68.97.75.57.1,1.12.26,1.66.48l-.39-.16c.57.25,1.1.56,1.6.94l-.33-.25c.24.18.46.38.67.59.3.29.73.48,1.15.48s.87-.18,1.15-.48c.59-.65.65-1.66,0-2.3h0Z"/><path class="cls-2" d="M377.09,254.06c-.28.3-.73,8.26.41,12.39s6.39,6.23,10.89,6.17,5.81-2.53,5.81-2.53c0,0,2.1-13.24,2.44-13.74s-5.02-4.39-6.93-3.96c-1.91.42-12.64,1.68-12.64,1.68Z"/><path class="cls-2" d="M402.72,255.4c.2.36-1.68,11.9,2.15,15.87,3.83,3.97,10.49,3.75,11.46,2.67.97-1.09,4.29-4.57,4.94-5.97.65-1.4,3.04-8.89,3.04-8.89,0,0-2.79-3.24-6.44-3.67-3.65-.43-15.16,0-15.16,0Z"/><path class="cls-5" d="M384.04,266.77c-.15.06-.32.11-.46.2-.01,0-.03.02-.04.03-.12.08-.25.18-.36.28-.07.06-.13.16-.19.23s-.13.15-.18.24c0,.02-.02.03-.02.05-.06.13-.13.28-.18.42-.01.03-.02.07-.03.1-.03.17-.05.34-.07.51,0,.04,0,.07,0,.11,0,.17.04.35.07.52,0,.03.01.07.02.1.05.16.12.32.19.47.01.03.03.06.05.09,0,.01.02.03.03.04.09.12.18.24.27.35.02.03.05.05.08.07.31.25.48.38.88.5.02,0,.04.01.06.01.15.03.32.05.47.06.04,0,.09,0,.13,0,.15-.01.32-.04.47-.06.02,0,.04,0,.06-.01.17-.04.33-.13.49-.2.04-.02.08-.04.11-.06.15-.09.28-.21.42-.32.03-.03.06-.06.09-.09.01-.01.03-.03.04-.04.1-.12.2-.25.29-.38.02-.03.04-.07.06-.1.07-.14.13-.29.18-.43,0-.02.02-.04.02-.06.03-.1.04-.22.05-.32.02-.11.04-.23.03-.34,0-.15-.04-.32-.06-.47,0-.02,0-.04-.01-.07-.02-.1-.08-.2-.12-.3s-.08-.2-.13-.29c-.09-.15-.21-.29-.32-.42-.03-.03-.06-.07-.09-.1-.13-.12-.28-.23-.43-.33-.04-.03-.08-.05-.12-.07-.16-.08-.33-.15-.49-.21-.05-.02-.09-.03-.14-.04-.16-.03-.32-.05-.48-.07-.03,0-.05,0-.08,0-.04,0-.09,0-.13,0-.19.02-.38.03-.56.08-.21.05-.4.15-.55.29-.18.11-.32.27-.42.46-.12.19-.18.39-.19.6-.05.22-.04.43.03.65l.16.39c.14.24.34.44.58.58l.39.16c.29.08.58.08.86,0,.03,0,.06-.01.09-.02l-.43.06c.08-.01.16-.01.25,0l-.43-.06c.08.01.16.04.24.07l-.39-.16c.08.03.15.08.21.13l-.33-.25c.06.05.11.1.16.16l-.25-.33c.04.06.08.11.1.18l-.16-.39c.02.06.04.12.05.18l-.06-.43c0,.05,0,.1,0,.16l.06-.43c0,.06-.03.13-.05.19l.16-.39c-.03.06-.06.11-.1.17l.25-.33c-.04.06-.09.11-.15.15l.33-.25c-.06.04-.12.08-.18.11l.39-.16c-.06.02-.12.04-.18.05l.43-.06c-.05,0-.1,0-.15,0l.43.06c-.05,0-.1-.02-.14-.04l.39.16s-.07-.04-.11-.06l.33.25s-.07-.06-.1-.1l.25.33s-.06-.09-.09-.14l.16.39c-.03-.06-.04-.13-.05-.2l.06.43c0-.07,0-.13,0-.2l-.06.43c0-.06.02-.11.04-.16l-.16.39s.04-.09.07-.13l-.25.33s.05-.06.08-.08l-.33.25s.07-.04.11-.06l-.39.16h.01c.21-.06.4-.15.55-.3.18-.11.32-.27.42-.46.12-.19.18-.39.19-.6.05-.22.04-.43-.03-.65l-.16-.39c-.14-.24-.34-.44-.58-.58l-.39-.16c-.29-.08-.58-.08-.86,0h0Z"/><path class="cls-5" d="M405.84,269.13s-.05.07-.07.1c0,.02-.02.03-.02.05-.07.14-.13.29-.18.44-.01.04-.02.08-.03.12-.03.15-.05.31-.06.47,0,.02,0,.05,0,.07,0,.04,0,.07,0,.11.01.16.04.32.06.48,0,.02,0,.04.01.06,0,.04.02.08.03.12.05.14.12.29.18.42.01.02.02.05.03.07.02.04.04.07.07.1.1.14.2.29.33.41.01.01.03.02.04.04.11.09.24.19.36.28.03.02.07.04.11.06.15.07.32.15.48.2s.36.06.54.08c.22.02.45-.03.66-.06.04,0,.07-.01.11-.02.17-.05.33-.13.49-.2.04-.02.07-.03.1-.05.02-.01.03-.02.05-.04.12-.09.25-.18.36-.28.03-.03.06-.05.08-.08.09-.11.19-.24.28-.36.01-.02.03-.04.04-.06,0-.02.02-.03.02-.05.06-.14.13-.29.18-.43.01-.04.02-.08.03-.12.03-.15.05-.31.06-.47,0-.02,0-.04,0-.05,0-.04,0-.08,0-.12-.02-.17-.03-.36-.08-.53,0-.04-.02-.08-.04-.12-.06-.16-.12-.33-.21-.48s-.22-.3-.31-.42c-.02-.03-.05-.06-.08-.08-.01-.01-.03-.02-.04-.03-.12-.1-.24-.19-.36-.28-.04-.03-.08-.05-.12-.06-.17-.08-.35-.17-.53-.21s-.39-.07-.58-.07c-.03,0-.06,0-.09,0-.16.02-.33.04-.49.07-.25.04-.49.16-.71.26-.12.05-.22.11-.33.18-.19.1-.34.24-.46.42-.14.16-.24.34-.29.55-.07.22-.08.43-.03.65,0,.22.07.42.19.6l.25.33c.2.2.44.34.72.42l.43.06c.29,0,.57-.07.82-.22.11-.07.22-.14.34-.19l-.39.16c.11-.05.22-.08.34-.1l-.43.06c.08,0,.15-.01.23,0l-.43-.06c.06,0,.12.02.18.05l-.39-.16c.06.02.11.05.15.09l-.33-.25s.09.08.12.13l-.25-.33c.04.05.07.11.1.17l-.16-.39c.03.07.05.14.06.21l-.06-.43c0,.07,0,.13,0,.2l.06-.43c0,.06-.02.12-.05.17l.16-.39s-.05.1-.08.14l.25-.33s-.08.09-.13.13l.33-.25c-.05.04-.11.07-.17.1l.39-.16c-.07.03-.14.05-.21.06l.43-.06c-.07,0-.14,0-.22,0l.43.06c-.06,0-.12-.02-.17-.05l.39.16c-.06-.02-.11-.05-.16-.09l.33.25s-.08-.07-.12-.12l.25.33c-.04-.05-.07-.11-.1-.18l.16.39c-.03-.07-.05-.14-.06-.22l.06.43c0-.07,0-.15,0-.22l-.06.43c.01-.07.03-.13.05-.2l-.16.39c.03-.06.06-.11.09-.16.12-.19.18-.39.19-.6.05-.22.04-.43-.03-.65-.05-.21-.15-.4-.29-.55-.11-.18-.27-.32-.46-.42l-.39-.16c-.29-.08-.58-.08-.86,0l-.39.16c-.24.14-.44.34-.58.58h0Z"/><path class="cls-5" d="M392.6,269.13c.43-.58.78-1.26,1.07-1.97.12-.25.16-.54.26-.8.33-.94.68-1.91.88-2.91.1-.44.16-.9.21-1.35.03-.29.06-.58.1-.87.05-.29.14-.58.23-.87.06-.18.1-.14.17.02.06.16.2.45.27.8.03,1.19,0,2.42-.28,3.62-.16.72-.24,1.48-.47,2.21-.24.8-.57,1.58-.96,2.34-.28.45-.53.91-.88,1.31-.26.31-.5.63-.84.88l-.46.4c-.16.13-.34.22-.51.33-.51.38-1.09.64-1.7.87-.14.03-.27.07-.41.08-.53.07-.7-.03-.81-.42-.02-.09-.06-.18-.07-.27-.04-.3.14-.58.43-.71.22-.09.43-.17.64-.26.19-.12.38-.23.59-.3.21-.05.38-.21.57-.3.19-.11.39-.19.54-.36.26-.21.53-.4.75-.68.12-.13.24-.25.35-.39l.3-.45.03.02Z"/><path class="cls-5" d="M402.28,226.95s-11.2-10.2-21.96-6.48c-7.17,2.48-10.67,6.28-13.07,12.63-2.4,6.35-3.01,7.5-5.6,9.48-2.59,1.98-7.27,4.33-8.8,5.61-1.53,1.28-4.63,3.67-5.3,6.67-.67,3-1.72,7.76-.89,8.2s-11.09,3.03-11.08,10.87c0,5.94,6.92,12.03,13.98,10.87,0,0,2.58,9.4,13.31,7.89,0,0,4.5,2.39,10.05,1.85,2.53-.24,6.33-2.51,8.12-5.41,0,0-6.88-9.92-8.12-13.9-1.25-3.98-2.47-9.16-2.47-9.16,0,0-4.2-.53-6.01-3.81-1.81-3.27-3.38-7.58-2.28-9s4.06-3.59,4.06-3.59c0,0,6.62.16,9.48-2.08,2.86-2.24,6.61-2.02,6.61-2.02,0,0,9.37-.97,11.89-3.23s6.01-6.22,6.01-6.22c0,0,4.22,5.98,7.41,5.7s6.32.02,6.32.02c0,0,6.07,7.52,11.14,9.15s13.84,2.28,13.84,2.28c0,0,.07,2.86,0,5.79-.07,2.93-1.91,5.05-3.39,6.18-1.48,1.13-4.75,2.65-4.75,2.65,0,0-2.65,11.58-3.96,13.98-1.31,2.4-6.5,7.69-6.5,7.69,0,0,6.09,7.86,14.06,4.37,0,0,5.72,6.72,11.18.62,1.18-1.32,8.35-2.29,11.2-3.69,3.39-1.66,4.58-6.35,1.97-17.59,0,0-10.03-8.28-11.2-13.91-1.16-5.62-2.05-17.52-2.65-19.69s-5.04-12.01-7.69-14.39-13.1-9.61-16.06-9.05c-2.96.56-9.15,2.29-11.85,4.11-2.7,1.81-7.01,6.61-7.01,6.61Z"/><path class="cls-5" d="M445.02,298.01c-.5.22-1.01.41-1.54.54-.51.17-1.05.26-1.59.34-.38.08-.78.17-1.18.18-1.42-.04-2.86-.44-4.03-1.25-.49-.36-1.03-.7-1.39-1.17-.55-.53-.87-1.28-.75-2.1-.04-.22,0-.2.21-.11.1.05.31.08.54.11.12.01.27.01.38.03.1.03.2.06.28.1.67.21,1.02.53,1.48.69l.28.21c.11.05.22.1.32.15.1.06.21.12.31.2.12.05.24.09.36.15.14.06.29.13.45.15.17,0,.33,0,.5,0,.33,0,.68-.1,1.02-.11.38,0,.77-.13,1.16-.18.38-.12.78-.22,1.16-.37.46-.2.94-.39,1.36-.68.66-.4,1.28-.9,1.73-1.51.32-.49.44-1.09.48-1.6,0-.11.02-.23.02-.34.03-.39.26-.44,1.16-.42h.59c.63.03,1.19.35,1.24.91.18,1.65-.69,3.2-1.76,4.26-.83.78-1.77,1.41-2.76,1.89l-.04-.07Z"/><path class="cls-5" d="M370.93,294.85c1.08.39,2.27.65,3.41.73.42.02.83-.05,1.25-.08,1.49-.07,3.06-.36,4.54-.97.66-.27,1.27-.64,1.85-1.05.78-.47,1.41-1.12,2.36-1.43.33-.07.41.07.46.5.03.22.03.48,0,.79-.03.31-.13.6-.33.82-.35.38-.72.75-1.11,1.09-.4.33-.85.6-1.3.86-.9.51-1.88.92-2.91,1.17-1.22.29-2.45.77-3.77.86-1.46.1-2.87-.07-4.22-.38-.84-.19-1.65-.46-2.45-.76-1.21-.47-2.35-1.12-3.44-1.85-.84-.56-1.75-1.1-2.5-1.89-.18-.16-.34-.34-.48-.54-.27-.36-.33-.67-.28-.92.05-.25.23-.46.54-.69.14-.11.28-.22.43-.3.51-.28,1.1-.22,1.5.08.63.43,1.11.86,1.65,1.29.55.41,1.12.83,1.74,1.21.93.55,1.97,1.05,3.08,1.39l-.02.07Z"/><path class="cls-5" d="M354.49,291.07c.71.56,1.58.9,2.58,1.03.37.04.74-.01,1.12-.02,1.35-.01,2.79-.27,4.16-.77.6-.24,1.17-.56,1.71-.91.35-.22.66-.49,1-.73.34-.23.73-.42,1.11-.65.25-.13.37.02.41.37.04.34.04.98-.25,1.49-.62.76-1.34,1.43-2.16,1.97-.83.51-1.74.89-2.69,1.12-1.14.25-2.3.65-3.54.72-1.34.07-2.78-.16-4.04-.75-.78-.35-1.48-.86-2.1-1.43-.96-.87-1.6-2.02-2.07-3.18-.35-.91-.76-1.85-.82-2.87-.03-.22-.06-.44-.04-.66.05-.83.38-1.04,1.16-1.02.18,0,.37,0,.54.03.6.09,1.04.48,1.15.92.48,1.33.62,2.35,1.13,3.37.38.72.9,1.43,1.65,1.91l-.03.06Z"/><path class="cls-5" d="M459.22,193.93c-21.37-1.21-42.82-1.79-64.25-2.12-7.82-.11-15.65-.09-23.46-.12-13.78-.05-27.57-.01-41.32.45-3.43.12-6.87.27-10.28.52-1.7.13-3.4.27-5.06.5-.41.06-.82.12-1.21.2l-.54.11c-.09.02-.17.04-.26.07-.08.03-.17.06-.24.11-.08.06-.08.16-.11.24-.03.09-.05.15-.08.27l-.11.55c-.55,3.24-.78,6.71-1.01,10.12-.21,3.43-.36,6.86-.49,10.3-.44,12.21-.54,24.52-.59,36.65.01,7.8.02,15.62.03,23.43,0,3.91,0,7.81,0,11.72,0,3.9-.13,7.81-.24,11.71-.23,4.86-.63,4.21-1.34.1-.36-2.06-.74-4.98-1.12-8.51-.33-3.53-.53-7.68-.58-12.17-.13-15.94-.18-31.88.12-47.87.18-7.99.4-15.99.88-24.03.12-2.01.27-4.02.44-6.04.2-2.03.38-4.03.8-6.17l.09-.41c.04-.17.07-.39.15-.6l.5-1.22c.43-.78,1.35-1.07,2.21-1.31.25-.07.37-.09.51-.12l.41-.08.8-.13c.53-.08,1.04-.14,1.56-.2,2.06-.22,4.08-.35,6.1-.46,9.66-.48,19.47-.64,29.34-.78,9.87-.14,19.79-.19,29.63-.12,21.63.16,43.26.62,64.87,1.53,6.65.29,13.31.62,19.96,1.07,6.65.48,13.29.92,19.96,1.99,1.27.22,2.52.45,3.84.89.17.06.32.12.53.2.21.1.42.19.62.32.39.24.71.59.87,1.03.43.81.51,1.38.71,2.06.61,2.58.83,5.1,1.09,7.64.44,5.06.66,10.11.82,15.16.3,10.09.34,20.16.33,30.16-.03,15.56-.17,30.8-.57,46.17-.09,3.39-.16,6.7-.29,10.11-.52,12.65-1.06,16.66-1.93,19.33-.2.61-.42,1.41-.6,1.76-.64,1.17-.74-3.99-.55-13.24.31-13.72.57-27.81.7-42.11.1-14.29.24-28.79-.02-43.29-.1-5.38-.24-10.77-.52-16.13-.13-2.68-.32-5.35-.56-8-.14-1.31-.26-2.65-.46-3.92-.09-.65-.19-1.29-.32-1.89-.06-.3-.11-.62-.18-.91l-.23-.82c-.22-.65-.16-.46-.18-.5-.03-.01.04.01-.06-.02-.1-.04-.22-.08-.35-.12-.25-.08-.54-.16-.84-.23-1.19-.29-2.49-.51-3.79-.7-2.61-.38-5.28-.66-7.96-.91-5.35-.49-10.74-.84-16.13-1.14l-.02-.08Z"/><path class="cls-5" d="M424.42,334.29c5.13.08,10.25.16,15.38.2,1.87.02,3.74-.08,5.61-.06,6.59.06,13.19.06,19.79.06,2.93-.01,5.87-.12,8.77-.24,1.86-.1,3.73-.16,5.6-.19,1.87-.05,3.74,0,5.61.16,1.17.25,1.02.35.06.87-.48.27-1.17.54-2,.84-.83.3-1.81.56-2.89.66-3.8.45-7.61.62-11.43.74-3.82.11-7.65.21-11.5.09-4.6-.12-9.39.13-14.1.16-5.18.03-10.35,0-15.53-.06-3.18-.04-6.37-.08-9.55-.12-4.82-.06-9.67-.18-14.45-.18-3.72,0-7.37.17-11.05.26-.81.02-1.6.07-2.42.07-3.03,0-3.99-.22-4.62-1.11-.14-.2-.34-.39-.42-.58-.28-.62.97-1.21,3.18-1.35,6.58-.46,13.49-.45,20.44-.42,5.16.05,10.34.09,15.51.14v.08Z"/><path class="cls-5" d="M360.41,255.89c.1-1.13.37-2.2.74-3.2.19-.5.4-.99.64-1.46l.19-.35c.06-.1.19-.34.29-.5.22-.36.46-.69.75-.94.19-.23.51-.22.77-.33.27-.11.55-.12.83-.14l.67-.05.5-.02c1.17-.03,2.33-.1,3.48-.25,1.15-.13,2.31-.33,3.41-.67.99-.28,1.91-.75,2.77-1.27,1.09-.7,2.03-1.49,3.33-2.11.47-.15.42-.14.41.33,0,.24-.03.57-.06.99-.03.2-.03.46-.11.66-.09.19-.2.38-.33.56-.46.67-1.08,1.14-1.69,1.65-.66.4-1.33.82-2.04,1.11-1.4.64-2.88,1.05-4.36,1.24-1.77.24-3.58.57-5.35.65h-.3c-.09-.02-.18,0-.22.08-.05.06-.1.13-.15.21-.05.07-.19.34-.28.51-.39.76-.71,1.58-.91,2.41-.25,1.02-.32,2.07-.1,3.04.38,1.55,1.14,3.1,2.26,4.32.85.96,1.96,1.61,3.04,2.04.24.08.48.14.71.21.86.24,1.05.4,1.25,1.14.04.17.11.33.14.49.05.28-.03.52-.28.71-.12.1-.29.18-.49.25-.2.05-.42.06-.68.05-1.52-.1-2.91-.77-4.09-1.63-1.18-.87-2.16-1.98-2.96-3.21-.59-.92-1.07-1.92-1.41-2.99-.17-.52-.31-1.13-.39-1.73-.07-.6-.09-1.19-.05-1.77h.07Z"/><path class="cls-5" d="M427.43,250.15c2.36.67,4.84,1.02,7.39,1.16.94.06,1.87-.01,2.87.03,1.07.04,3.11.12,3.22,1.71.1.33.26.62.31.97l.11.8c.06.47.06.94.07,1.41-.05,1.87-.46,3.71-1.25,5.38-.7,1.48-1.66,2.86-2.9,3.94-1.6,1.32-3.65,2.34-5.73,1.93-.65-.22-.54-.15-.11-.6.22-.22.49-.61.83-.9.17-.18.34-.35.51-.52.09-.09.18-.16.27-.26l.31-.16c.35-.23.72-.41,1.05-.65.3-.27.66-.46.92-.77.59-.52,1.11-1.1,1.56-1.76.9-1.31,1.42-2.92,1.69-4.61.06-.51.08-1.03.04-1.55,0-.26-.05-.52-.09-.78-.02-.18-.03-.22-.06-.33-.03-.09-.03-.21-.14-.24-.09-.03-.19-.04-.29-.04h-.55s-.89-.03-.89-.03c-2.65-.02-5.41-.17-8.09-.69-1.66-.31-3.29-.76-4.88-1.33-2.39-.87-4.73-2.08-6.75-3.77-1.57-1.3-2.99-2.9-3.86-4.83-.17-.43-.4-.83-.51-1.28-.46-1.67-.22-2.25.61-2.68.19-.1.38-.22.58-.28.68-.2,1.27.37,1.67,1.3.58,1.41,1.32,2.64,2.2,3.72.87,1.09,1.96,2.05,3.27,2.86,1.94,1.2,4.26,2.16,6.63,2.76v.08Z"/><path class="cls-5" d="M336.85,272.65c-.27.87-.39,1.77-.33,2.64.05.89.33,1.65.8,2.57.14.34.37.61.56.91.19.3.42.57.63.85,1.47,2.01,3.71,3.51,6.3,4.07,1.15.27,2.35.23,3.52.17.38-.05.75-.09,1.13-.15l1.12-.22c.74-.17,1.58-.04,2.41-.13.49-.11.48.02.15.35-.17.16-.38.46-.65.84-.13.19-.28.4-.46.58-.18.16-.39.32-.61.46-.83.34-1.7.53-2.59.69-.89.15-1.8.24-2.71.16-1.82-.12-3.65-.61-5.27-1.52-1.92-1.06-3.83-2.44-5.08-4.31-.32-.52-.68-1.02-.93-1.57l-.4-.81c-.13-.28-.24-.6-.34-.9-.38-1.24-.46-2.54-.31-3.77.2-1.52.71-2.94,1.41-4.23,1.06-1.96,2.56-3.61,4.29-4.97,1.35-1.03,2.8-2.02,4.63-2.42.4-.08.8-.18,1.23-.18,1.6,0,2.07.51,2.07,1.31,0,.19.02.38-.01.55-.13.6-.75.85-1.47.91-2.14.21-4.35,1.48-6.15,3.33-1.31,1.37-2.41,3.04-2.9,4.81h-.07Z"/><path class="cls-5" d="M425.14,295.98c.94.34,2,.54,3.07.52.37,0,.73-.12,1.1-.17,1.32-.18,2.6-.78,3.76-1.64.49-.4.91-.91,1.24-1.45.23-.34.41-.71.61-1.07.1-.18.19-.37.3-.55.1-.19.29-.35.44-.53.21-.22.35-.16.6.15.12.16.28.38.46.67.13.27.16.57.11.86-.11.51-.26,1.02-.46,1.52-.21.49-.5.94-.82,1.37-.65.84-1.44,1.62-2.43,2.07-1.15.55-2.31,1.2-3.6,1.45-1.43.26-2.77.2-4.14-.05-.84-.15-1.64-.44-2.42-.77-1.18-.52-2.22-1.28-3.17-2.1-.73-.64-1.52-1.24-2.16-2.01-.13-.17-.28-.33-.4-.52-.23-.34-.28-.62-.2-.86.07-.24.25-.43.56-.66.14-.1.28-.21.42-.3.49-.28,1.07-.22,1.51.08,1.2.93,2,1.89,3.07,2.64.77.56,1.64,1.01,2.6,1.28l-.02.07Z"/><path class="cls-5" d="M398.63,254.4c.29.1.57.2.85.26.1.02.19-.03.29,0,.37.14.74.2,1.17.31.19.05.36.03.55.04.23,0,.47.05.71.19.08.04.08.15.05.31-.03.16-.08.44-.17.59-.16.24-.3.5-.47.62-.17.15-.36.26-.62.18-.3-.06-.56.15-.84.2-.32.04-.64.03-.95.03-.19,0-.38-.02-.57-.01-.28,0-.57-.06-.84.01-.21.06-.4.28-.6.44-.04.04-.09.07-.13.08-.17.02-.25-.17-.34-.93l-.06-.48c-.05-.51-.03-1.07.08-1.27.16-.35.33-.5.51-.59.18-.09.36-.12.55-.13.27-.03.56.04.84.1v.07Z"/><path class="cls-5" d="M412.94,297.02c-2.82,1.29-5.89,1.99-8.95,2.18-3.07.18-6.12-.24-9.03-.97-1.07-.24-2.11-.67-3.17-.99-.26-.09-.53-.16-.79-.27l-.75-.35-1.5-.72c-3.45-1.84-6.47-4.35-9.01-7.23-.61-.75-1.27-1.45-1.82-2.23l-1.65-2.35-1.44-2.48c-.48-.82-.84-1.71-1.27-2.56-1.38-3.08-2.55-6.3-3.19-9.6-.28-1.04-.37-2.13-.55-3.19-.21-1.06-.18-2.16-.21-3.24-.07-1.08.1-2.17.2-3.24.08-1.07.34-2.13.62-3.17.53-1.26.44-1.08.7.09.15.58.22,1.38.34,2.32.17.95.38,2.03.43,3.19.6,8.22,3.28,16.34,8.2,23.15,2.98,4.04,7.21,7.34,11.88,9.33l1.98.68.99.34,1.03.25c1.37.35,2.76.56,4.16.72,2.8.25,5.62.06,8.33-.67,1.66-.48,3.25-1.15,4.77-1.97,1.52-.84,2.92-1.87,4.26-2.98,1.99-1.74,3.8-3.72,5.3-5.9,1.5-2.19,2.72-4.57,3.66-7.04.71-1.93,1.26-3.9,1.67-5.89.39-2,.67-4.01.87-6.04.06-.9.13-1.78.19-2.68.22-3.35.48-4.42,1.23-5.12.17-.16.33-.38.48-.47.48-.32,1.03,1.09,1.08,3.65.02,3.78-.33,7.69-1.19,11.61-.42,1.96-1.02,3.9-1.71,5.83-.75,1.91-1.59,3.8-2.66,5.58-1.56,2.65-3.52,5.12-5.77,7.23-2.25,2.12-4.83,3.95-7.67,5.28l-.03-.05Z"/><path class="cls-5" d="M386.76,243.87c1.41-.21,2.82-.64,4.17-1.24.5-.21.93-.54,1.41-.78,1.68-.89,3.25-2.04,4.58-3.44.59-.62,1.04-1.35,1.39-2.1.21-.49.43-.97.61-1.46l.15-.37c.05-.12.05-.25.15-.37.16-.24.3-.5.45-.77.21-.34.23-.31.48.01.12.16.36.4.57.72.09.16.23.34.3.53.05.19.08.38.06.58-.03.34-.05.7-.12,1.03l-.1.51c-.05.16-.12.32-.19.48-.25.63-.57,1.23-.93,1.79-.73,1.11-1.61,2.11-2.67,2.86-1.25.91-2.42,1.97-3.77,2.75-1.48.84-3.07,1.5-4.71,1.94-1.01.28-2.05.45-3.09.58-1.58.16-3.19.06-4.76-.18-1.21-.19-2.46-.34-3.66-.8-.27-.08-.53-.19-.78-.31-.48-.22-.71-.51-.82-.77-.1-.27-.07-.55.08-.92.07-.17.12-.34.21-.5.29-.52.9-.71,1.52-.57.93.2,1.76.47,2.64.64.87.17,1.75.31,2.66.37,1.35.07,2.75-.02,4.16-.29l.02.07Z"/><path class="cls-5" d="M404.43,239.22c.68.43,1.42.92,2.3,1.13.31.1.64.11.98.15.58.14,1.18.16,1.79.2.6-.03,1.23-.04,1.83-.17.56-.05,1.06-.3,1.57-.48.3-.18.61-.33.94-.46.17-.06.3-.17.49-.22.18-.05.37-.09.57-.14.25-.05.31.05.31.36,0,.16,0,.37-.04.64-.02.28-.1.55-.27.73-.31.29-.61.65-.99.88-.37.23-.76.42-1.16.61-.79.36-1.67.5-2.54.48-1.03,0-2.08.15-3.13.05-1.15-.16-2.29-.45-3.33-1.01-.66-.3-1.23-.78-1.8-1.22-.8-.77-1.48-1.65-1.95-2.63-.43-.73-.8-1.48-1.11-2.29-.04-.18-.11-.35-.13-.54-.09-.69.09-.93.83-1.07.17-.03.33-.07.5-.09.57-.05,1.07.18,1.28.54.59,1.12.97,2.01,1.5,2.85.36.65.94,1.14,1.57,1.63l-.03.06Z"/><path class="cls-5" d="M403.16,261.84c.18,3.26,1.06,6.62,3.1,8.88.74.82,1.66,1.4,2.65,1.83.86.38,1.87.59,2.86.67.99.07,1.98-.02,2.91-.32,1.88-.58,3.5-2.01,4.74-3.76,1.12-1.55,1.89-3.4,2.56-5.22.42-1.18.72-2.4,1.01-3.6.3-1.2.56-2.41.66-3.62.14-.76.39-.75.93-.08.52.65,1.09,2.08.98,3.71-.03.35-.06.71-.11,1.06-.07.34-.14.69-.22,1.03-.16.68-.35,1.36-.56,2.02-.43,1.33-.91,2.63-1.59,3.88-.66,1.27-1.46,2.48-2.45,3.59-.99,1.1-2.17,2.11-3.57,2.78-1.65.82-3.56,1.23-5.39,1.16-.92-.02-1.81-.17-2.72-.38-.89-.27-1.79-.59-2.57-1.11-1.77-1.08-3.08-2.72-3.96-4.45-.88-1.75-1.4-3.59-1.69-5.45-.35-2.29-.38-4.59-.05-6.88.13-.87.32-1.74.67-2.63.21-.47.53-1.11,1.04-1.37.53-.24,1.19-.34,1.57-.36,1.73-.16,3.41-.15,5.1-.12,2.61.09,5.2.17,7.82.74.57.16,1.15.23,1.72.46,1.07.36,1.73.79,2.13,1.15.37.43.49.81.48,1.19,0,.18.02.37-.03.51-.07.24-.35.3-.75.27-.2-.02-.43-.06-.68-.14-.28-.04-.57-.15-.89-.26-1.92-.7-4.15-.99-6.38-1.21-2.25-.19-4.59-.24-6.87-.11-.43.02-.84.06-1.24.1l-.49.06h0s0,0,0,0c-.01.02.03-.08-.05.12-.11.29-.21.64-.29,1.02-.32,1.51-.39,3.21-.28,4.85h-.07Z"/><path class="cls-5" d="M377.87,254.74h-.03s-.06.04-.09.07c0-.01-.04.08-.07.2l-.09.39c-.1.55-.17,1.17-.2,1.79-.07,1.25-.02,2.53.11,3.79.1.96.36,1.87.58,2.76.72,3,2.93,5.81,5.95,7.1,1.34.59,2.83.78,4.27.73.46,0,.91-.1,1.37-.16.44-.12.89-.19,1.3-.37.87-.26,1.67-.58,2.55-.99.6-.23.63-.18.56.5-.01.18-.06.38-.11.64-.07.23-.16.49-.28.79-.12.31-.32.55-.55.78-.23.23-.5.51-.81.66-2.26,1.1-4.8,1.39-7.15.82-2.36-.5-4.57-1.72-6.21-3.47-1.01-1.01-1.85-2.18-2.57-3.41-.75-1.29-1.19-2.68-1.46-4.01-.29-1.48-.43-2.95-.46-4.43-.02-1.48.04-2.95.38-4.51.03-.15.08-.28.13-.47.05-.19.12-.38.22-.55.16-.35.41-.66.7-.91l.61-.33c.21-.1.42-.15.57-.21.34-.13.66-.18.98-.26.64-.15,1.27-.25,1.9-.33,2.71-.35,5.41-.3,8.09-.08,2.07.18,4.15.37,6.21,1.01.45.16.91.26,1.35.47,1.65.78,2,1.42,1.81,2.22-.04.19-.06.38-.14.54-.26.53-1.09.54-2.05.13-1.48-.59-3.12-.96-4.82-1.22-1.7-.26-3.47-.41-5.26-.43-1.33-.02-2.66.04-3.97.16-.65.07-1.3.16-1.92.28-.32.05-.59.14-.89.2-.16.03-.25.08-.37.12-.11.04-.1.03-.12.03l-.04-.06Z"/><path class="cls-5" d="M396.88,264.21c-.33,1.23-.65,2.47-.9,3.7-.09.45-.1.91-.19,1.36-.16.79-.28,1.58-.4,2.34-.11.73-.14,1.6,0,1.89.29.54.72,1,1.25,1.33.34.22.72.37,1.11.52.38.2.77.39,1.17.77.26.24.23.19-.04.39-.27.22-.87.81-1.55.81-1.13-.14-2.31-.65-3.24-1.51-.23-.22-.45-.44-.62-.71-.1-.16-.15-.21-.28-.45-.13-.24-.22-.48-.26-.65-.19-.76-.14-1.31-.1-1.87.14-1.29.17-2.52.36-3.72.22-1.32.52-2.61.83-3.89l.58-2.36c.29-1.19.63-2.37.86-3.56.18-.92.21-1.87.32-2.8.02-.21.02-.41.06-.62.15-.76.39-.96,1.15-.92.17,0,.34,0,.51.03.55.08.95.51.96,1.07.07,1.7-.26,3.39-.63,5.08-.29,1.25-.59,2.5-.88,3.76h-.07Z"/><path class="cls-5" d="M361.97,239.02c.95-1.54,1.61-3.61,2.45-5.69.82-2.09,1.84-4.2,3.1-6.12.44-.72.96-1.37,1.43-2.06l.73-1.02.84-.94c.52-.53.96-1.12,1.53-1.6l1.66-1.48c1.2-.88,2.38-1.77,3.72-2.45,2.61-1.41,5.53-2.32,8.52-2.46.66,0,1.33-.06,1.99,0l1.98.21,1.93.49c.64.16,1.23.47,1.85.7,1.55.67,2.99,1.58,4.27,2.68.35.24.6.58.88.9l.8.96c.12.17.29.3.37.5l.23.61c.16.4.37.75.55,1.11.44.92.28.84-.49.37-.4-.22-.9-.59-1.67-.82-.71-.29-1.39-.7-2.04-1.21-2.26-1.89-4.95-3.02-7.75-3.38-2.8-.41-5.75.02-8.54,1.14-3.39,1.3-6.26,4.07-8.57,7.06-.61.85-1.29,1.66-1.82,2.56-.55.89-1.07,1.8-1.51,2.75-.92,1.89-1.6,3.91-2.43,6.02-.53,1.29-1.14,2.64-2.06,3.83-.88,1.17-1.97,2.2-3.15,3.03-1.8,1.26-3.71,2.08-5.45,3.05-1.72.92-3.23,2.16-4.47,3.62-1.93,2.27-3.02,5.15-2.85,7.87-.01.6.18,1.17.27,1.76.57,2.15.94,2.78.49,3.68-.09.2-.17.44-.28.61-.2.28-.53.27-.98-.05-.22-.16-.48-.39-.75-.69-.26-.31-.48-.73-.74-1.2-.66-1.43-1.12-3.07-1.1-4.75,0-1.67.36-3.35.98-4.9,1.29-3.09,3.48-5.7,6.2-7.62.5-.35,1.06-.69,1.56-.98l1.49-.81c.99-.52,1.94-1,2.79-1.51.86-.51,1.61-1.05,2.27-1.67.66-.61,1.27-1.37,1.71-2.12l.07.04Z"/><path class="cls-5" d="M447.03,262.63c-1.91-3.3-2.32-6.96-2.48-10.28-.15-3.38-.1-6.53-.62-9.64-.37-2.27-1-4.49-1.75-6.64-.68-1.89-1.55-3.71-2.56-5.44-1.04-1.72-2.28-3.31-3.66-4.76-2.79-2.88-6.29-5.11-10.1-6.47-3.34-1.2-7.07-1.25-10.47-.39-2.19.56-4.29,1.47-6.2,2.69-.24.16-.48.3-.72.45l-.7.49-.7.49-.66.54-.67.54-.63.59c-.2.21-.45.36-.69.55-.22.19-.44.39-.65.59-1.09.99-1.08.8-.63-.46.22-.63.49-1.6,1.11-2.59.31-.49.69-1,1.11-1.53.43-.52.95-1.01,1.5-1.51,2.09-1.62,4.5-2.82,7.06-3.56,2.57-.7,5.26-.93,7.92-.68,1.33.12,2.64.4,3.92.75.63.22,1.28.42,1.88.66l1.78.78c2.33,1.13,4.52,2.56,6.47,4.28,2.33,2.05,4.41,4.44,6.09,7.11,1.69,2.66,2.95,5.59,3.79,8.59.91,3.29,1.4,6.71,1.51,10.06.14,3.33.12,6.59.85,9.62.46,1.85,1.19,3.6,2.37,5.05.56.71,1.28,1.44,1.99,2.15l2.17,2.14c2.19,2.18,4.43,4.58,5.7,7.67.62,1.51,1.03,3.06,1.29,4.64.26,1.58.38,3.19.23,4.83-.42,5.23-4.88,9.83-10.34,10.19-1.19.11-2.39,0-3.57-.32-1.08-.35-1.95-.74-2.57-1.21-.67-.41-1.1-.88-1.42-1.28-.69-.76-.74-1.47-.67-2.08.04-.28.04-.6.13-.8.15-.34.6-.29,1.24,0,.34.13.64.4,1.08.62.42.23.84.56,1.38.8,1.53.81,3.25,1.08,4.93.79,1.67-.32,3.26-1.18,4.47-2.41,1.24-1.22,1.94-2.82,2.18-4.53.2-1.8-.02-3.86-.49-5.79-.37-1.44-.85-2.81-1.58-3.99-.74-1.25-1.7-2.43-2.76-3.58-1.07-1.16-2.24-2.29-3.43-3.48-.6-.61-1.18-1.17-1.8-1.88-.64-.71-1.2-1.49-1.69-2.31l.06-.05Z"/><path class="cls-5" d="M397.48,286.89c2.41,1.37,5.83.86,7.58-1.35.26-.32.44-.63.44-1.06,0-.37-.16-.81-.44-1.06-.54-.5-1.6-.66-2.12,0-.16.2-.32.38-.51.54-.05.04-.1.08-.15.13.03-.03.28-.21.12-.09-.11.07-.22.15-.33.21-.1.06-.21.12-.31.17-.06.03-.12.07-.18.08.09-.02.33-.13.1-.05s-.48.16-.72.2c-.05.01-.1.02-.16.03-.29.05.3-.03.13-.02-.12,0-.24.02-.35.03-.13,0-.26,0-.39,0-.08,0-.47-.05-.19,0s.03,0-.03-.01-.13-.03-.19-.04c-.11-.03-.23-.06-.34-.09-.06-.02-.12-.05-.19-.07-.16-.05.36.17.1.05-.12-.06-.24-.12-.35-.18-.68-.39-1.67-.18-2.05.54s-.19,1.64.54,2.05h0Z"/><path class="cls-5" d="M407.88,249.56s.07-.06.11-.09l-.33.25c.47-.36.98-.66,1.52-.89l-.39.16c.57-.24,1.16-.4,1.76-.48l-.43.06c.28-.04.56-.06.84-.06.85,0,1.66-.74,1.62-1.62s-.71-1.63-1.62-1.62-1.85.16-2.71.47c-1,.36-1.85.86-2.67,1.52-.3.24-.48.78-.48,1.15,0,.4.18.87.48,1.15s.72.5,1.15.48l.43-.06c.28-.08.51-.22.72-.42h0Z"/><circle class="cls-1" cx="208.9" cy="441.47" r="4.45"/><circle class="cls-3" cx="225.64" cy="443.32" r="3.89"/><path class="cls-5" d="M188.06,441.41l-.34-6.77c-.04-.82-.14-1.64-.18-2.46-.06-2.9-.12-5.8-.17-8.7-.04-1.29-.08-2.58-.12-3.85-.05-1.64-.07-3.29,0-4.93.02-.51.11-.45.25-.02.13.43.36,1.21.49,2.15.21,1.66.45,3.32.62,4.98.14,1.66.27,3.33.34,5.01.07,2.01.42,4.09.55,6.14l.48,6.78c.1,1.39.22,2.77.39,4.13.27,2.06.62,4.13,1.32,6.04.56,1.47,1.4,2.79,2.44,3.8.24.21.48.41.72.62.92.71,1.2.93,1.17,1.59,0,.15.01.31,0,.44-.05.45-.75.56-1.75.06-1.46-.77-2.65-2.08-3.49-3.5-.85-1.43-1.39-3-1.79-4.55-.59-2.32-.79-4.66-.99-6.95h.05Z"/><path class="cls-5" d="M233.85,398.23l-.35-1.68-.2-1.7c-.18-1.13-.13-2.28-.18-3.41.03-.83.07-1.66.13-2.48.36-2.9,1.13-5.71,2.17-8.39l.77-1.75c.24-.59.5-1.17.81-1.72.39-.71.7-1.46,1.15-2.14.47-.67.96-1.31,1.44-1.96.31-.4.34-.29.24.15-.11.43-.29,1.23-.64,2.07-1.38,2.92-2.54,5.87-3.45,8.95-.23.93-.5,1.88-.57,2.86l-.16,1.47c-.04.49-.03.98-.05,1.47-.11,2.15.05,4.31.39,6.44l.43,1.95c.15.65.39,1.27.58,1.91.27.98.74,1.88,1.11,2.83.43.91.93,1.8,1.44,2.67.44.65.9,1.28,1.35,1.9l1.52,1.75c.21.26.46.49.7.73.88.91,1.02,1.33.9,1.84-.03.12-.04.25-.09.35-.15.33-.72.15-1.49-.47-2.21-1.88-4.2-4.32-5.58-7.11-.29-.5-.51-1.04-.74-1.57-.22-.53-.47-1.06-.67-1.6-.33-1.11-.78-2.19-.99-3.33h.04Z"/><path class="cls-2" d="M283.96,369.73s-18.55,20.51-20.82,23.67c-2.27,3.16-6.77,8.58-5.33,15.08,1.44,6.51,10.49,21.6,15.88,24.49,5.38,2.88,14.46,4.86,18.84,2.89s10.43-6.29,12.2-8.43c1.77-2.14,6.93-10.73,7.47-12.2.54-1.48,2.37-11.58,2.37-11.58,0,0-12.66-8.32-15.36-14.33-2.7-6.01-8.43-14.94-9.72-16.61-1.29-1.67-5.53-2.98-5.53-2.98Z"/><path class="cls-5" d="M256.34,414.17c-.11-.64-.21-1.28-.28-1.92-.03-.23-.09-.45-.11-.69-.06-.82-.08-1.63-.07-2.44.01-.36.02-.71.02-1.06,0-.45.03-.9.13-1.35.03-.14.11-.12.21,0,.1.12.25.33.31.58.19.89.48,1.73.46,2.62.01.53.21,1.06.34,1.58.14.58.29,1.15.47,1.72.11.35.22.7.36,1.04.21.51.39,1.04.67,1.52.22.37.55.67.84.98.06.07.14.12.2.2.21.27.15.44-.26.8-.09.08-.18.17-.27.24-.32.26-.68.32-.94.15-.75-.5-1.2-1.27-1.56-2.07-.28-.59-.4-1.26-.56-1.89l.04-.02Z"/><path class="cls-5" d="M289.04,370.99c.75.51,1.33,1.22,1.87,1.86.19.25.43.44.59.69.62.88,1.07,1.83,1.52,2.73.2.4.42.79.63,1.17.27.49.57.97.75,1.5.13.32-.51.18-.94-.29-.69-.9-1.55-1.63-2.18-2.51-.39-.52-.93-.94-1.43-1.35-.53-.47-1.08-.89-1.66-1.26-.35-.24-.71-.47-1.1-.65-.58-.27-1.2-.5-1.85-.54-.5-.02-1,.13-1.46.28-.1.03-.2.09-.3.09-.38.03-.52-.14-.73-.82l-.14-.46c-.14-.51-.03-.99.32-1.25,1.05-.75,2.4-.78,3.6-.43.91.24,1.76.68,2.52,1.17l-.03.06Z"/><path class="cls-5" d="M291.01,349.66c-.03-.57-.02-1.13-.17-1.63-.13-.52-.39-1.06-.69-1.56-.12-.18-.26-.35-.39-.53-.15-.16-.3-.33-.44-.5-1.02-1.23-2.39-2.24-3.84-3.12-.65-.38-1.36-.68-2.05-.99l-1.35-.59c-.46-.17-.93-.32-1.41-.46-.3-.09-.25-.12.02-.17.27-.04.79-.15,1.38-.12.53,0,1.09-.03,1.63.02.53.08,1.08.13,1.58.32,1,.37,2.01.81,2.86,1.5,1.02.8,2.17,1.55,3.08,2.59.99,1.12,1.77,2.56,1.98,4.14.13.95.03,1.87-.09,2.75-.19,1.35-.6,2.62-1.01,3.86-.32.96-.58,1.94-1.01,2.85-.09.2-.17.41-.28.6-.39.73-.66.89-1.1.83-.1-.01-.21-.02-.3-.05-.31-.1-.38-.52-.22-1.08.43-1.68.98-3.34,1.36-5.02.27-1.24.48-2.5.39-3.65h.06Z"/><path class="cls-5" d="M297.12,360.24c.55.73,1.09,1.45,1.56,2.22.17.28.38.53.55.81.56,1.01,1.07,2.03,1.56,3.05.21.46.43.91.62,1.37.27.58.43,1.22.5,1.87.02.2-.03.19-.17.06-.14-.13-.41-.34-.66-.62-.87-.96-1.54-1.97-2.09-3.12-.34-.68-.88-1.26-1.35-1.87-.52-.66-1.03-1.34-1.58-1.98-.33-.4-.69-.78-1.05-1.14-.56-.54-1.14-1.07-1.79-1.48-.52-.29-1.09-.44-1.64-.53-.12-.02-.24-.05-.36-.05-.42-.09-.49-.28-.46-.91,0-.14,0-.29.02-.43.05-.47.35-.8.81-.81,1.37,0,2.6.71,3.57,1.52.74.61,1.37,1.3,1.98,2l-.03.04Z"/><path class="cls-5" d="M298.26,352.73c.59.55,1.16,1.13,1.7,1.73.19.23.44.39.61.64.65.83,1.11,1.79,1.53,2.72.2.41.36.83.55,1.23.09.27.24.52.27.81.04.29.05.58.05.87,0,.18-.09.18-.27.08-.17-.1-.5-.27-.71-.51-.21-.21-.35-.43-.47-.66-.12-.23-.28-.44-.4-.66-.26-.42-.53-.86-.81-1.32-.31-.55-.86-.94-1.31-1.4-.51-.49-1.04-.98-1.61-1.43-.35-.28-.71-.56-1.09-.81-.57-.38-1.14-.79-1.77-1.09-.49-.23-1.04-.33-1.56-.49-.12-.03-.24-.05-.35-.09-.41-.17-.45-.39-.22-1.03.05-.15.1-.29.16-.44.21-.48.57-.77.93-.75,1.07.05,2.02.49,2.88,1.1.65.44,1.28.95,1.9,1.46l-.03.05Z"/><path class="cls-5" d="M232.12,384.16c1.22-3.46,2.81-6.69,4.58-9.79,1.77-3.11,3.72-6.09,5.83-8.96,1.54-2.08,3.09-4.17,4.8-6.13,3.04-3.42,6.29-6.66,9.89-9.52,3.57-2.88,7.47-5.4,11.7-7.27,1.9-.78,3.82-1.55,5.84-2.03,2.03-.57,4.2-.74,6.27-.63,2.66.18,5.37.67,7.85,1.94,1.25.6,2.37,1.52,3.33,2.57.23.28.46.56.67.84.19.31.35.64.52.95.18.31.29.65.4,1l.16.51.08.25s.06.07-.02.14v.14c-.1.93-.2,1.28-.3,1.27-.11,0-.29-.4-.8-.92-.54-.5-1.17-1.16-2.01-1.71-.86-.55-1.78-1.11-2.87-1.67-1.92-1.03-4.19-1.7-6.51-1.9-1.16-.13-2.33-.12-3.47-.02l-.85.09-.82.15c-.56.12-1.16.3-1.74.44-4.65,1.36-9.1,3.75-13.28,6.63-5.02,3.46-9.44,8.18-13.42,13.04-4.35,5.37-8.23,11.2-11.14,17.46-.89,1.92-1.67,3.9-2.26,5.9-.58,2.01-.99,4.03-.8,6.02.41,6.29,3.53,12.31,8.08,16.68,3.58,3.39,7.81,6,12.28,7.72.99.37,1.98.67,3,.95,1.88.53,3.14.74,4.01,1,.88.25,1.38.55,1.8.97.19.2.45.39.57.58.42.57-1.34,1.32-4.55.92-4.72-.63-9.27-2.59-13.36-5.25-2.04-1.35-3.97-2.86-5.79-4.58-1.82-1.73-3.44-3.7-4.82-5.83-2.04-3.18-3.49-6.79-4.12-10.58-.15-.95-.26-1.9-.32-2.85-.03-.49,0-1.04,0-1.55l.14-1.5c.28-1.95.79-3.75,1.38-5.51l.08.02Z"/><path class="cls-5" d="M274.9,431.96c2,1.18,4.19,2.07,6.47,2.6,2.27.52,4.71.78,6.98.57,1.68-.15,3.32-.64,4.93-1.23,5.7-2.11,10.58-6.54,14.15-11.72,1.6-2.31,2.86-4.86,3.86-7.46.63-1.67,1.12-3.4,1.51-5.13.11-.43.19-.87.27-1.31.14-.43.25-.86.36-1.29.22-.87.49-1.74.66-2.64.25-1.12.35-.99.7,0,.29.96,1.22,2.92.93,5.16-.68,3.89-2.01,7.65-3.93,11.07-1.9,3.43-4.32,6.59-7.22,9.26-3.43,3.18-7.51,6.19-12.28,7.58-2.59.74-5.42.96-8.04.69-2.66-.23-5.28-.86-7.75-1.87-3.05-1.22-5.82-3.04-8.24-5.2-3.67-3.29-6.43-7.46-8.44-11.84-1.56-3.41-2.82-6.92-3.39-10.66-.14-.82-.25-1.63-.3-2.48-.09-1.56.04-2.61.26-3.32.19-.71.58-1.09,1.05-1.34.21-.12.43-.28.61-.33.62-.16,1.05,1.1,1.14,3.12.42,6.06,2.45,12.37,5.85,17.79,2.49,4.03,5.83,7.58,9.91,9.89l-.03.07Z"/><path class="cls-5" d="M212.19,447.68c-1.03.48-2.17.75-3.34.69-1.17-.06-2.33-.44-3.24-1.06-.68-.44-1.32-.94-1.79-1.58-.82-1.12-1.32-2.45-1.36-3.82-.05-1.37.4-2.77,1.18-3.81.33-.48.74-.89,1.17-1.27.46-.34.93-.67,1.46-.89.67-.3,1.43-.39,2.16-.32.74.06,1.4.41,1.96.78.35.24.17.39-.22.49-.38.04-1.03.33-1.54.56-.47.17-.84.48-1.17.76-.36.22-.67.51-.95.82-.62.57-1.06,1.27-1.24,2.12-.11.52-.02,1.11.21,1.65.24.54.6,1.03,1,1.44.89.94,2.14,1.39,3.46,1.06.8-.18,1.59-.62,2.17-1.25.91-.93,1.3-2.27.87-3.51-.34-.96-1.18-1.66-1.99-2.04-.19-.08-.38-.13-.55-.19-.63-.28-.78-.46-.9-1.3-.03-.19-.08-.38-.1-.56-.03-.31.06-.58.3-.79.25-.22.65-.34,1.15-.31,1.5.1,2.89.97,3.86,2.17.98,1.2,1.57,2.82,1.46,4.54-.09,1.28-.57,2.5-1.29,3.45-.72.96-1.64,1.72-2.68,2.24l-.04-.07Z"/><path class="cls-5" d="M229.47,447.49c-.87.57-1.87.8-2.76.8-.9,0-1.71-.21-2.45-.52-.54-.23-1.08-.44-1.54-.81-.8-.63-1.53-1.56-1.82-2.6-.15-.52-.22-1.07-.18-1.62.05-.56.27-1.08.56-1.54.54-.85,1.47-1.35,2.28-1.44,1.06-.14,2.03.1,2.9.47.27.12.22.18-.05.29-.26.1-.74.34-1.22.49-.87.22-1.57.72-1.76.97-.18.26-.24.61-.3,1.16-.01.34.17.71.43.98.25.26.64.51,1.01.72.82.49,1.86.73,2.64.49.48-.11.89-.48,1.13-.91.35-.62.24-1.69-.35-2.31-.45-.49-1.17-.58-1.86-.59-.15,0-.31.02-.47,0-.58-.05-.77-.3-.93-1.09-.04-.18-.09-.36-.12-.54-.1-.6.2-1.14.87-1.36.98-.28,2.14-.23,3.29.35,1.16.55,2.17,1.74,2.56,3.02.31.96.36,2.04.03,3.1-.16.51-.45,1.08-.76,1.45-.15.21-.32.4-.52.58-.18.19-.39.35-.61.5l-.05-.06Z"/><path class="cls-5" d="M189.82,440.37c.22,3.95.44,7.96,1.01,11.71.09.42.17.92.26,1.27l.07.22.02.11s.03.06.06.08c-.02,0,.33.22.68.36.36.16.77.3,1.2.43,1.74.52,3.67.88,5.59,1.18,7.76,1.16,15.74,1.62,23.69,2.04,5.81.28,11.63.38,17.44.53,20.51.53,41.06.56,61.59.28,9.11-.11,18.27-.37,27.31-.71,5.81-.2,11.62-.53,17.44-.7,5.82-.22,11.63-.36,17.45-.28,3.63.04,3.15.18.12.78-1.52.29-3.67.78-6.29,1.22-1.31.22-2.73.48-4.24.67-1.51.18-3.12.33-4.79.44-2.97.19-5.93.43-8.9.56l-8.91.37c-5.94.23-11.88.42-17.83.57-11.9.32-23.83.38-35.81.27-14.33-.13-29.24,0-43.91-.43-8.06-.25-16.13-.59-24.19-1.24-4.03-.34-8.07-.74-12.11-1.42-2.03-.37-4.04-.73-6.13-1.58-.27-.12-.52-.21-.81-.39l-.44-.26c-.16-.11-.29-.25-.44-.38-.32-.23-.5-.6-.71-.92l-.32-.96c-.15-.56-.22-1.06-.34-1.6l-.22-1.54c-.61-5.02-.84-9.97-1.07-14.94-.21-4.96-.36-9.92-.48-14.88-.35-15.02-.37-30.1-.4-45.01-.02-11.59-.14-22.95-.03-34.41.02-2.52.03-4.99.09-7.54.25-9.44.67-12.44,1.72-14.41.24-.45.49-1.04.71-1.3.78-.85,1.11,3,1.05,9.88-.15,20.42-.22,41.98-.12,63.62.12,16.06.24,32.23,1.07,48.25l-.08.02Z"/><path class="cls-5" d="M374.4,367.34l-.03,19.65.04,7.17c-.1,8.43-.27,16.85-.51,25.27-.1,3.74-.2,7.5-.3,11.21-.07,2.39-.16,4.77-.42,7.16-.13,1.19-.21,2.39-.4,3.57l-.73,3.54c-.32,1.46-.32,1.25-.45-.02-.07-.64-.18-1.55-.35-2.63-.06-.54-.2-1.13-.27-1.76-.05-.62-.09-1.28-.1-1.96-.02-1.21-.01-2.41-.07-3.63l-.06-1.82.04-1.81c.07-2.42.06-4.85.12-7.27.07-4.85.29-9.72.46-14.62.25-5.85.07-11.95.06-17.94-.02-6.59-.04-13.18-.06-19.77-.04-4.06-.07-8.12-.11-12.17-.09-6.14-.15-12.32-.36-18.41-.17-4.74-.52-9.38-.81-14.06-.06-1.03-.16-2.04-.2-3.08-.1-1.93-.09-3.2.08-4.1.14-.9.41-1.42.8-1.85.18-.19.34-.45.5-.56.51-.39,1.21,1.16,1.56,3.98.83,8.36,1.15,17.2,1.36,26.07.16,6.59.21,13.22.3,19.82h-.08Z"/><path class="cls-5" d="M257.38,309.65l27.5.34c3.35.02,6.69.05,10.03.07,11.79.29,23.57.61,35.36,1.11,5.23.22,10.49.44,15.68.65,3.34.2,6.68.26,10.02.64,1.67.18,3.34.33,5,.58,1.66.27,3.32.69,4.95,1.06,2.04.49,1.69.73-.13.96-.91.11-2.18.25-3.69.35-.74.02-1.58.16-2.45.19-.87.02-1.79.02-2.74-.03-13.49-.61-27.07-.92-40.75-1.64-8.19-.41-16.73-.3-25.11-.4-9.22-.1-18.45-.19-27.68-.29-5.68-.03-11.36-.07-17.04-.1-8.6-.02-17.24-.07-25.78.02-6.64.07-13.14.35-19.71.51-1.45.03-2.86.1-4.32.12-5.41.06-7.13-.28-8.28-1.2-.26-.21-.61-.41-.76-.62-.51-.66,1.7-1.3,5.64-1.52,11.71-.59,24.08-.79,36.49-.86,9.22-.06,18.49-.03,27.74-.02v.09Z"/><path class="cls-5" d="M326.34,363.21c2.44,5.09,4.26,10.44,5.52,15.89.45,2,.94,3.96,1.26,5.97.55,3.54.92,7.15.82,10.8-.05,1.83-.21,3.67-.6,5.49-.39,1.82-.99,3.59-1.77,5.27-1.44,2.97-3.44,5.65-5.8,7.83-1.51,1.4-3.11,2.71-4.85,3.77-1.71,1.1-3.55,1.98-5.52,2.52-.66.09-.94.13-.93.11,0-.04.27-.18.62-.64.35-.45.86-1.06,1.47-1.78.31-.34.63-.76,1-1.12.38-.34.8-.69,1.24-1.03,1.55-1.22,3.08-2.4,4.46-3.69,1.38-1.3,2.6-2.71,3.62-4.25,1.02-1.53,1.82-3.19,2.41-4.94.59-1.75,1.03-3.58,1.24-5.49.54-4.62-.37-9.61-1.32-14.42-1.05-5.3-2.54-10.51-4.64-15.49-1.28-3.07-2.8-6.04-4.54-8.87-1.33-2.13-2.78-4.24-4.35-6.15-1.59-1.9-3.42-3.6-5.45-4.96-3.15-2.07-6.83-3.28-10.29-2.87l-.57.05-.55.13c-.36.1-.74.13-1.1.25-1.36.38-2.2.8-2.89.93-.65.22-1.15.19-1.69,0-.25-.09-.54-.14-.73-.25-.33-.19-.31-.57.06-1.14.18-.29.46-.61.82-.96.38-.33.88-.64,1.45-.98,1.73-.9,3.73-1.6,5.81-1.68,2.07-.09,4.16.21,6.11.85,1.94.66,3.77,1.59,5.46,2.69,1.67,1.13,3.21,2.42,4.64,3.83,1.03,1.06,2.03,2.2,2.9,3.35.87,1.14,1.71,2.3,2.49,3.5,1.58,2.39,3,4.88,4.26,7.43l-.08.05Z"/><path class="cls-5" d="M298.76,383.16c1.39,2.36,2.78,4.71,4.28,6.97.54.83,1.15,1.6,1.71,2.41,1.94,2.87,4.05,5.64,6.6,7.9,1.12,1.02,2.39,1.85,3.73,2.44l.64.28.67.21c.22.07.44.17.66.23l.67.17c.45.14.9.2,1.37.27.46.1.93.17,1.42.23.61.1.58.3.08.7-.25.19-.62.47-1.11.74-.49.18-1.1.36-1.76.33-2.35-.02-4.52-1.05-6.38-2.22-1.89-1.19-3.46-2.72-4.81-4.38-1.62-1.98-3.38-3.92-4.89-6-1.65-2.28-3.11-4.67-4.57-7.05l-2.65-4.39c-1.35-2.2-2.66-4.44-4.13-6.51-1.15-1.6-2.47-3.04-3.81-4.36-.29-.31-.62-.54-.9-.83-.54-.53-.88-.86-1.02-1.22-.16-.32-.14-.67-.03-1.11.05-.2.08-.41.14-.59.11-.3.37-.45.78-.46.42-.02.95.15,1.49.52,1.61,1.11,2.94,2.51,4.15,3.97,1.21,1.47,2.29,3.04,3.32,4.61,1.54,2.34,2.95,4.75,4.41,7.1l-.06.05Z"/><path class="cls-5" d="M265.25,387.88c3.04-3.4,6.23-6.6,9.37-9.8,1.14-1.17,2.22-2.4,3.34-3.58,1.97-2.08,3.93-4.17,5.61-6.39.8-1.08,1.6-2.32,2.37-3.53.77-1.21,1.52-2.43,2.22-3.66,1.22-2.2,2.28-4.49,2.88-6.86.81-3.06.81-6.16.84-9.41.25-1.07.07-.91.64-.14.56.77,1.51,2.32,1.66,4.36.03.89.13,1.8.01,2.69-.06.9-.24,1.78-.42,2.66-.37,1.76-.97,3.44-1.67,5.06-1.44,3.22-3.36,6.05-5.25,8.84-2.46,3.48-5.21,6.67-8.03,9.71-3.12,3.31-6.3,6.53-9.37,9.82-1.9,2.02-3.72,4.1-5.44,6.25-1.27,1.64-2.54,3.31-3.57,5.08-.25.44-.55.87-.76,1.33l-.65,1.37c-.44.93-.86,1.93-1.26,2.87-.63,1.46-1.22,2.93-1.31,4.44-.14,1.49.05,3.01.54,4.35.22.59.53,1.13.88,1.67.65,1.01,1.18,1.62,1.49,2.12.32.49.42.88.4,1.31,0,.19.03.41,0,.56-.07.47-1.3.2-2.74-1.35-1.05-1.15-1.97-2.55-2.46-4.21-.47-1.6-.58-3.33-.35-4.99.05-.42.13-.82.21-1.23l.14-.6c0-.21.06-.41.09-.61.15-.81.31-1.62.55-2.37.55-1.5.96-2.83,1.74-4.39,1.1-2.18,2.41-4.17,3.82-6.03.7-.94,1.42-1.86,2.16-2.74.73-.91,1.49-1.77,2.24-2.64l.06.04Z"/><path class="cls-5" d="M275.15,362.34c-.88.71-1.75,1.45-2.55,2.26-.3.29-.54.63-.82.93-1.03,1.04-2,2.15-2.91,3.31-.42.51-.7,1.1-1.06,1.64-.43.72-.86,1.43-1.34,2.15-.16.22-.26.15-.34-.12-.07-.27-.19-.77-.12-1.29.23-1.86,1.15-3.48,2.3-4.87.73-.81,1.31-1.76,2.02-2.6.79-.92,1.63-1.78,2.49-2.61.53-.51,1.08-1.01,1.63-1.5.82-.76,1.73-1.42,2.55-2.16.65-.56,1.2-1.24,1.83-1.84.14-.13.26-.28.42-.39.57-.42.87-.39,1.37.1.11.11.24.22.34.34.34.4.36.93.06,1.35-.86,1.29-2.06,2.18-3.21,3.19-.85.74-1.77,1.42-2.62,2.18l-.05-.04Z"/><path class="cls-5" d="M274.08,397.52c-.02,1.99,1.34,3.75,3.06,4.64,1.88.98,4.16,1.08,6-.04.61-.37.9-1.25.49-1.88s-1.22-.89-1.88-.49c-.08.05-.16.1-.25.14-.04.02-.39.18-.17.09s-.09.03-.13.04c-.1.03-.2.06-.3.09-.09.02-.18.04-.26.06-.27.06.31-.02.01,0-.18.01-.35.03-.53.02-.09,0-.18,0-.27-.01-.06,0-.12,0-.18-.02l.19.03c-.13-.08-.41-.08-.56-.11-.19-.05-.36-.11-.54-.17-.25-.09.26.13,0,0-.08-.04-.16-.07-.24-.12-.15-.08-.3-.17-.45-.26-.07-.05-.14-.1-.21-.15-.24-.16.2.18,0,0-.14-.12-.27-.24-.4-.37-.06-.06-.11-.12-.17-.18-.23-.25.13.21-.01-.01-.09-.14-.18-.27-.26-.41-.03-.05-.07-.17-.11-.21.15.16.09.23.02.04-.05-.15-.08-.3-.12-.45-.06-.26,0,.35,0,.02,0-.09,0-.18,0-.28,0-.72-.64-1.41-1.38-1.38s-1.37.6-1.38,1.38h0Z"/><path class="cls-5" d="M292.1,398.95c-.1.13-.1.14-.02.03-.05.07-.11.13-.16.2-.08.1-.17.19-.25.28-.2.21-.4.41-.62.59-.06.05-.12.1-.19.15.12-.09.12-.09,0,0-.1.07-.19.14-.29.2-.22.15-.46.28-.7.41-.1.05-.2.1-.3.15-.14.06-.14.06.02,0-.07.03-.14.05-.21.08-.24.09-.48.16-.72.22-.1.02-.2.05-.31.07-.07.01-.14.02-.2.03.18-.02.22-.03.11-.02-.23,0-.47.04-.7.03-.11,0-.23,0-.34-.02-.2-.02-.22-.04-.01,0-.21-.05-.43-.08-.63-.15-.09-.03-.45-.2-.1-.02-.08-.04-.16-.08-.24-.12-.09-.05-.18-.11-.27-.16-.29-.17.15.16-.04-.02-.15-.14-.3-.29-.44-.44.24.27.05.07,0-.01-.06-.1-.12-.22-.18-.32-.16-.24.08.26-.01-.02-.04-.13-.09-.25-.12-.38-.03-.1-.04-.2-.07-.3-.03-.15-.02-.14,0,.05,0-.07-.01-.15-.02-.22-.06-.74-.59-1.38-1.38-1.38-.7,0-1.43.63-1.38,1.38.16,2.15,1.34,3.9,3.41,4.61,1.9.66,4.1.18,5.81-.8,1.17-.67,2.12-1.61,2.92-2.69.44-.6.1-1.53-.49-1.88-.7-.41-1.44-.11-1.88.49h0Z"/><path class="cls-5" d="M286.83,388.01c.42-.1.84-.19,1.26-.26.1-.02.2-.03.29-.05.29-.05-.29.03.08,0,.21-.03.43-.05.64-.06.86-.07,1.72-.07,2.57,0,.72.05,1.41-.67,1.38-1.38-.04-.79-.6-1.32-1.38-1.38-1.87-.13-3.76.04-5.58.48-.7.17-1.18,1-.96,1.69.24.73.94,1.14,1.69.96h0Z"/><path class="cls-5" d="M281.78,384.59c-1.61-.94-3.48-1.43-5.35-1.38-.72.02-1.41.62-1.38,1.38s.6,1.39,1.38,1.38c.47-.01.93.01,1.4.07l-.37-.05c.56.08,1.11.2,1.64.39.13.04.26.09.39.14.1.04.23.15-.06-.03.06.03.13.06.19.08.26.12.52.25.77.4.62.36,1.53.16,1.88-.49s.17-1.5-.49-1.88h0Z"/><path class="cls-5" d="M278.95,419.46c1.65,1.08,3.73,1.42,5.64.97,1.8-.42,3.34-1.58,4.37-3.09.41-.6.13-1.55-.49-1.88-.7-.37-1.45-.14-1.88.49-.05.07-.1.14-.14.2.08-.11.06-.07-.02.02-.11.13-.22.25-.34.37s-.24.23-.37.34c-.08.07-.13.1-.01.02-.07.05-.13.1-.2.14-.27.19-.56.35-.86.49-.1.05-.14.05-.01,0-.08.03-.16.06-.23.09-.18.06-.36.11-.54.15-.08.02-.17.04-.25.05-.02,0-.29.04-.15.03s-.13,0-.15,0c-.09,0-.18,0-.27.01-.18,0-.36,0-.54-.01-.02,0-.29-.03-.15-.01s-.13-.02-.15-.03c-.36-.07-.7-.17-1.04-.29-.21-.08.16.08-.05-.02-.08-.04-.16-.08-.24-.12-.18-.09-.35-.2-.52-.31-.6-.39-1.55-.14-1.88.49-.36.69-.15,1.46.49,1.88h0Z"/><path class="cls-5" d="M283.7,401.64c-.34.66-.66,1.33-.96,2.03-.11.26-.16.52-.29.78-.45.89-.91,1.79-1.36,2.67-.2.39-.34.82-.54,1.21-.12.25-.23.51-.37.76-.11.26-.4.43-.62.64-.16.12-.27.04-.41-.19-.07-.12-.16-.27-.26-.45-.05-.09-.09-.18-.13-.28-.02-.05-.03-.09-.06-.14,0-.04,0-.08.01-.12.11-.55.15-1.11.36-1.61.21-.5.43-1,.72-1.49.34-.58.43-1.29.64-1.95.25-.72.54-1.44.83-2.16.19-.44.38-.89.56-1.33.28-.67.61-1.32.87-2,.19-.53.26-1.1.39-1.66.03-.12.04-.25.08-.37.15-.44.45-.45,1.07-.23.15.05.29.1.43.16.47.2.78.57.82.95-.03,1.04-.4,1.92-.8,2.81-.29.66-.63,1.31-.92,2l-.06-.02Z"/><path class="cls-4" d="M192.7,197.23c-8.04-8.08-162.41-6.95-165.05-.71-1.7,4.02-.16,83.24-.16,83.24,0,0,.64,37.18,3.02,40.3,2.38,3.13,33.09,8.01,43.09,7.35,10-.65,77.15.73,77.15.73h35.71l.41-7.23c.31-5.54,2.83-9.9,8.38-10.01l1.73-.05s3.18-106.12-4.27-113.62ZM54.25,312.23c-1.97,1-3.49,3.58-6.14,2.09-2.64-1.5-3.24-5.07-3.24-5.07,0,0-.62-4.92,5.77-4.64,6.4.28,5.59,6.61,3.61,7.62ZM69.32,312.9c-.97,1-4.78,1.25-5.53.68s-1.87-2.48-1.87-2.48c0,0,.28-2.59,4.9-2.85,4.62-.26,3.48,3.64,2.5,4.65ZM163.18,250.03c-.18,3.11-2.15,9.67-4.19,10.67-2.03,1-6.54,3.49-6.54,3.49,0,0-2.6,16.6-6.28,20.3-3.68,3.7-12,12.48-15.74,12.52-3.75.03-12.88.28-16.47-1.12-3.6-1.41-12.79-6.56-16.22-11.4-3.42-4.85-10.14-17.34-10.14-17.34,0,0-9.53-.91-11.76-7.02-2.23-6.11-3.19-11.65,0-13.23,3.19-1.59-4.65-.92-4.05-7.49.6-6.57,2.17-13.18,7.24-13.83,5.07-.65,8.57-2.1,8.57-2.1,0,0,2.82-7.99,8.05-10.89,5.23-2.9,14.19-7.21,20.12-7.18,5.93.03,16.91.03,21.62,2.11,4.72,2.07,12.11,4.28,13.58,9.87,1.47,5.6,3.76,7.63,3.76,7.63,0,0,6.59,4.49,7.69,9.11,1.11,4.63-.72,10.19-.72,10.19,0,0,1.66,2.61,1.48,5.71Z"/><circle class="cls-3" cx="66.12" cy="311.1" r="3.58"/><circle class="cls-1" cx="49.07" cy="309.25" r="4.2"/><path class="cls-5" d="M28.27,304.52c-.22-2.88-.36-5.75-.47-8.61-.04-1.05-.13-2.09-.16-3.13-.09-3.68-.07-7.37,0-11.04.02-1.63,0-3.27,0-4.89,0-2.08.05-4.16.15-6.24.03-.65.12-.56.26-.02.13.54.37,1.55.5,2.75l.29,3.17.17,3.18c.11,2.12.19,4.24.22,6.37-.01,2.55.21,5.2.36,7.8.16,2.86.35,5.72.61,8.57.16,1.75.34,3.51.59,5.25.35,2.64.75,5.29,1.45,7.82.55,1.96,1.32,3.82,2.32,5.44.23.34.49.65.71.99.91,1.16,1.2,1.29,1.26,1.99.02.15.07.31.07.44,0,.23-.16.34-.57.35-.2,0-.46-.03-.73-.14-.25-.12-.54-.29-.85-.5-1.7-1.37-2.6-3.27-3.36-5.11-.73-1.87-1.25-3.8-1.65-5.74-.62-2.88-.98-5.79-1.24-8.68h.05Z"/><path class="cls-5" d="M161.51,242.85h-10.77s-5.43-10.36-6.6-12.22c-.57-.91-.63-1.62-.41-3.16-4.01,2.64-12.91,6.61-18.04,7.96-5.9,1.57-28.84,2.64-29.45,4.01-.61,1.38-5.44,10.51-7.85,10.59-2.41.08-6.34-6.13-9.36-4.72-3.64,1.69-5.24-8.5-1.57-12.74,4.9-5.65,8.81-4.28,8.81-4.28,2.67-17.73,25.93-22.84,33.23-22.88,22.81-.13,31.25,13.92,31.25,16.18,0,0,6.33,4.92,10.2,10.16,5.5,7.45.56,11.09.56,11.09Z"/><path class="cls-5" d="M77,229.04c-1.03.79-1.93,1.72-2.59,2.83-.23.41-.36.87-.55,1.31-.71,1.53-1.08,3.32-1.07,5.16-.03.82.08,1.64.21,2.45.1.52.18,1.04.27,1.56l.07.4v.42c.01.28.02.55.03.84,0,.36-.08.34-.37.14-.21-.15-.43-.3-.62-.42-.13-.09-.26-.19-.4-.3-.07-.05-.12-.12-.21-.17l-.13-.21c-1.22-2.05-1.7-4.54-1.24-6.98.27-1.44.39-2.99.98-4.42.67-1.55,1.71-2.94,2.9-4.06.75-.68,1.54-1.3,2.4-1.81,1.29-.8,2.72-1.36,4.22-1.69,1.15-.26,2.39-.51,3.66-.27.28.03.55.09.82.2.51.16.76.44.89.69.13.26.13.52.05.83-.04.14-.06.29-.11.41-.16.39-.73.62-1.3.63-.86.03-1.57.08-2.31.14-.74.07-1.5.27-2.27.54-1.13.42-2.29,1.03-3.28,1.86l-.05-.05Z"/><path class="cls-5" d="M108.46,205c4.6-1,9.3-1.55,14.01-1.51,1.72.02,3.44,0,5.16.21,6.03.68,12.03,2.6,17.1,6,1.13.74,2.23,1.55,3.27,2.44,1,.94,2,1.88,2.82,3.01,1.06,1.41,2.01,3.01,2.41,4.83l.19,1.37c0,.46-.02.92-.04,1.38-.01.46-.18.9-.29,1.33-.1.44-.32.84-.5,1.24-.51.98-.59.75-.78-.19-.05-.25-.11-.52-.17-.81-.09-.31-.23-.64-.36-.99-.09-.17-.09-.34-.16-.52-.07-.17-.13-.35-.2-.53-.06-.18-.12-.36-.16-.54-.07-.18-.15-.36-.21-.55-.1-.33-.22-.66-.39-.97-.14-.32-.24-.65-.44-.95-.32-.63-.74-1.21-1.18-1.79-.91-1.15-2.04-2.17-3.25-3.11-2.34-2.01-5.14-3.67-8.09-5-1.77-.79-3.69-1.37-5.68-1.72-1.98-.39-4-.58-6.02-.7-2.22-.16-4.46-.13-6.69,0-2.24.12-4.47.39-6.69.78-2.72.47-5.45,1.11-8.07,1.96-3.93,1.29-7.74,3.24-10.71,6.05-2.33,2.16-3.94,4.88-4.89,7.75-.26.62-.31,1.29-.51,1.92-.51,2.43-.73,3.19-1.65,3.71-.2.12-.41.28-.6.35-.32.12-.59-.1-.81-.63-.12-.26-.2-.6-.26-1.01-.07-.41-.1-.88-.04-1.41.23-3.15,1.35-6.38,3.2-9.18,1.88-2.78,4.41-5.1,7.18-6.94,2.07-1.35,4.29-2.44,6.57-3.31,2.31-.87,4.58-1.48,6.9-2.04l.03.08Z"/><path class="cls-5" d="M160.26,227.9c.99,1.2,1.82,2.51,2.5,3.87.25.5.55.97.74,1.49.7,1.84.97,3.84.82,5.79-.07.86-.16,1.73-.43,2.56-.17.53-.36,1.05-.63,1.53-.26.49-.69.88-1.13,1.21-.34.15-.36.07-.45-.33-.05-.2-.08-.44-.11-.71-.02-.26-.14-.6-.03-.82.25-.87.28-1.74.3-2.59.07-.85.04-1.74-.02-2.66-.08-1.11-.6-2.2-1.12-3.24-.56-1.15-1.25-2.26-2.07-3.28-.51-.62-1.06-1.21-1.67-1.74-.9-.82-1.91-1.56-3.03-2.01-.87-.36-1.81-.42-2.69-.43-.19-.01-.39.03-.58.02-.71-.05-.91-.31-1.08-1.12-.04-.18-.09-.36-.12-.54-.09-.57.26-1.13.97-1.36,2.09-.46,4.35.2,6.21,1.28,1.4.8,2.62,1.85,3.67,3.03l-.05.06Z"/><path class="cls-5" d="M163.75,245.46c.26.46.4.96.6,1.44.12.49.26.96.34,1.46.17,1.03.14,1.97.07,2.89-.07.67-.06,1.34-.22,1.98-.49,2.28-1.54,4.4-3,6.2-.69.77-1.38,1.57-2.3,2.1-.27.2-.57.35-.88.49-.31.14-.61.3-.95.36-.33.07-.67.12-1,.13-.34-.04-.67-.02-.99-.14-.41-.35-.33-.24-.03-.68.29-.44.76-.89,1.22-1.26.89-.44,1.6-1.04,2.23-1.79.66-.72,1.26-1.58,1.83-2.52.67-1.15.9-2.58,1.07-3.93.08-.74.15-1.5.1-2.22,0-.37-.07-.7-.11-1.04-.1-.34-.17-.7-.29-1.02-.28-.83-.75-1.55-1.36-2.15-.91-.92-2.19-1.57-3.58-1.76-1.08-.16-2.18.07-3.24.27l-.7.15c-.88.15-1.2-.05-1.57-.77-.08-.16-.18-.32-.25-.49-.22-.54.06-1.13.78-1.53,2.14-1.05,4.82-1.17,7.47-.29.98.33,1.93.88,2.79,1.55.82.73,1.55,1.58,2.05,2.53l-.07.04Z"/><path class="cls-5" d="M148.79,281.88c-.84,1.74-1.83,3.41-2.93,5.01-1.1,1.6-2.35,3.12-3.76,4.5-1.41,1.37-2.93,2.64-4.62,3.68-1.69,1.04-3.5,1.88-5.37,2.5-2.77.87-5.59,1.31-8.41,1.36-4.99.08-9.98-1.15-14.37-3.38-4.41-2.23-8.25-5.41-11.41-9.09-2.78-3.29-5.16-6.94-6.97-10.8-2.36-4.92-3.97-10.35-3.87-15.82.08-1.71.33-1.47.96-.13.31.67.74,1.62,1.21,2.74.53,1.11,1.03,2.4,1.44,3.83l.62,1.87c.23.61.46,1.23.67,1.85l.7,1.83.77,1.8c1.08,2.38,2.36,4.67,3.82,6.83,2.94,4.3,6.57,8.16,10.95,11.04,2.61,1.73,5.61,2.97,8.74,3.67,3.14.66,6.4.82,9.59.41,3.5-.38,6.84-1.49,9.74-3.45,2.93-1.91,5.35-4.58,7.32-7.55,2.41-3.69,4.12-7.86,5.28-12.16,1.75-6.53,2.42-13.46,1.75-20.15-.58-5.2-1.93-10.23-3.99-14.88-.47-1.02-.96-2-1.48-3-.96-1.86-1.65-3.04-2.05-3.94-.4-.9-.49-1.52-.42-2.14.03-.29.02-.63.1-.84.21-.7,1.89.29,3.78,3.03,2.79,4.04,4.77,8.8,5.96,13.74.6,2.48,1.04,4.98,1.32,7.56.27,2.58.34,5.17.25,7.75-.29,7.66-1.9,15.34-5.25,22.39l-.08-.03Z"/><path class="cls-5" d="M83.55,249.3c-.19-.18-.41-.36-.37-.34-1.74-1.05-3.95-1.53-5.41-.8-.62.3-1.02.83-1.46,1.52-1.65,2.46-1.7,5.95-.12,8.85.66,1.33,1.68,2.31,2.88,3.15,1.55,1.1,3.29,1.67,5.01,2.73.25.32.38.48.36.53-.02.06-.17.07-.49.34-.32.27-.77.45-1.35.65-.57.16-1.22.18-1.88.03-2.28-.62-4.4-1.9-6-3.86-.83-1.02-1.38-2.03-1.85-3.17-.46-1.13-.75-2.33-.84-3.55-.23-2.91.31-6.05,2.32-8.49,1.17-1.39,3.03-2.18,4.74-2.23,1.71-.05,3.3.38,4.71,1.06.31.14.6.31.91.48.51.31.75.57,1.03.83l.78.74c.49.46,1.08.96,1.31,1.07.18.1.41.17.6.04.15-.07.25-.08.43-.21.2-.14.41-.23.6-.4l.58-.47.55-.54c.7-.76,1.35-1.61,1.89-2.53,1.02-1.68,1.68-3.53,2.33-5.38.14-.41.24-.82.4-1.23.53-1.52.96-1.9,1.87-1.95.2-.01.4-.06.57-.05.54.01.97.89.74,2.13-.4,1.82-1.02,3.64-1.85,5.42-.83,1.79-1.87,3.53-3.24,5.2-.22.29-.49.56-.75.84-.25.28-.54.54-.86.8l-.46.39-.53.36c-.3.24-1,.54-1.56.8l-.52.12c-.19-.04-.36.07-.54.03-.36-.03-.72-.1-1.07-.24-.66-.25-1.43-.78-1.68-1.01-.71-.56-1.29-1.13-1.81-1.59l.05-.06Z"/><path class="cls-5" d="M143.54,176.41c7.43.11,14.85.3,22.28.58,7.43.29,14.86.65,22.3,1.3,2.72.24,5.43.49,8.16.84,2.73.37,5.44.75,8.25,1.61.62.19,1.25.42,1.91.75.34.18.66.33,1.04.64.42.27.71.74,1.02,1.13l.48,1.09.29.96c.21.65.3,1.24.45,1.87.48,2.45.74,4.84.99,7.25.44,4.8.69,9.58.88,14.36.35,9.56.45,19.11.45,28.65-.01,8.47.01,16.98-.12,25.39-.16,10.79-.19,21.65-1.51,32.39-.57,3.34-.58,2.88-.97.02-.48-2.87-1.01-8.13-1.03-14.33l.23-16.49c.05-5.5.1-11,.16-16.5.09-11.01.11-22.05-.07-33.12-.12-6.62-.42-13.38-1.11-20.09-.18-1.67-.39-3.34-.66-4.98-.15-.81-.28-1.64-.47-2.41-.09-.4-.18-.79-.3-1.14-.11-.37-.22-.75-.36-1.01,0-.63-1.75-1.19-3.26-1.59-1.56-.4-3.2-.69-4.85-.95-7.28-1.06-14.74-1.52-22.17-1.92-7.44-.38-14.9-.61-22.36-.76-9.18-.2-18.38-.3-27.56-.31-13.91-.02-27.9.07-41.71.4-10.74.26-21.26.76-31.86,1.25-2.33.12-4.62.23-6.97.35-8.73.37-11.51.29-13.42-.51-.44-.18-1.01-.35-1.27-.54-.87-.64,2.67-1.39,9.06-1.84,18.97-1.34,39-1.95,59.12-2.27,14.94-.24,29.96-.27,44.95-.12l.02.08Z"/><path class="cls-5" d="M65.93,328.35c-5.87-.19-11.74-.44-17.62-.9-2.94-.24-5.89-.52-8.85-.96-1.48-.22-2.96-.48-4.47-.85-.76-.2-1.51-.4-2.3-.71-.39-.14-.79-.33-1.2-.54-.43-.25-.82-.48-1.34-.99-.4-.47-.68-1.02-.81-1.4-.16-.41-.26-.78-.37-1.15-.19-.73-.33-1.43-.45-2.13-.24-1.4-.42-2.77-.57-4.14-.57-5.31-.95-10.57-1.19-15.84-.74-18.58-.77-37.13-.84-55.68-.05-8.23-.1-16.5-.14-24.67-.02-10.49-.32-21.02.74-31.5.3-3.27.21-2.83.53-.06.16,1.38.5,3.35.84,5.72.17,1.19.4,2.48.54,3.85.11,1.37.21,2.82.26,4.33.57,21.42.32,42.81.32,64.39-.01,12.9.45,26.34,1.18,39.47.18,2.96.38,5.92.68,8.86.15,1.47.32,2.93.55,4.35.12.71.25,1.42.41,2.08.15.63.41,1.36.54,1.48.05.04.17.16.35.26.14.11.36.2.55.3.41.19.87.35,1.35.5.95.29,1.96.52,2.98.72,2.05.39,4.15.66,6.25.9,4.22.46,8.48.73,12.74.96,8.91.45,17.84.66,26.77.76,13.53.15,27.13.19,40.57.13,10.45-.1,20.7-.19,31.03-.29,2.28,0,4.5-.03,6.8,0,8.51.11,11.22.41,13.02,1.32.41.21.95.42,1.18.62.79.7-2.69,1.06-8.9,1.07-18.43.11-37.89.29-57.44.28-14.52,0-29.12-.11-43.71-.47l-.02-.08Z"/><path class="cls-5" d="M52.36,315.46c-1.03.48-2.17.75-3.34.69-1.17-.06-2.33-.44-3.24-1.06-.68-.44-1.32-.94-1.79-1.58-.82-1.12-1.32-2.45-1.36-3.82-.05-1.37.4-2.77,1.18-3.81.33-.48.74-.89,1.17-1.27.46-.34.93-.67,1.46-.89.67-.3,1.43-.39,2.16-.32.74.06,1.4.41,1.96.78.35.24.17.39-.22.49-.38.04-1.03.33-1.54.56-.47.17-.84.48-1.17.76-.36.22-.67.51-.95.82-.62.57-1.06,1.27-1.24,2.12-.11.52-.02,1.11.21,1.65.24.54.6,1.03,1,1.44.89.94,2.14,1.39,3.46,1.06.8-.18,1.59-.62,2.17-1.25.91-.93,1.3-2.27.87-3.51-.34-.96-1.18-1.66-1.99-2.04-.19-.08-.38-.13-.55-.19-.63-.28-.78-.46-.9-1.3-.03-.19-.08-.38-.1-.56-.03-.31.06-.58.3-.79.25-.22.65-.34,1.15-.31,1.5.1,2.89.97,3.86,2.17.98,1.2,1.57,2.82,1.46,4.54-.09,1.28-.57,2.5-1.29,3.45-.72.96-1.64,1.72-2.68,2.24l-.04-.07Z"/><path class="cls-5" d="M69.65,315.27c-.87.57-1.87.8-2.76.8-.9,0-1.71-.21-2.45-.52-.54-.23-1.08-.44-1.54-.81-.8-.63-1.53-1.56-1.82-2.6-.15-.52-.22-1.07-.18-1.62.05-.56.27-1.08.56-1.54.54-.85,1.47-1.35,2.28-1.44,1.06-.14,2.03.1,2.9.47.27.12.22.18-.05.29-.26.1-.74.34-1.22.49-.87.22-1.57.72-1.76.97-.18.26-.24.61-.3,1.16-.01.34.17.71.43.98.25.26.64.51,1.01.72.82.49,1.86.72,2.64.49.48-.11.89-.48,1.13-.91.35-.62.24-1.69-.35-2.31-.45-.49-1.17-.58-1.86-.59-.15,0-.31.02-.47,0-.58-.05-.77-.3-.93-1.09-.04-.18-.09-.36-.12-.54-.1-.6.2-1.14.87-1.36.98-.28,2.14-.23,3.29.35,1.16.55,2.17,1.74,2.56,3.02.31.96.36,2.04.03,3.1-.16.51-.45,1.08-.76,1.45-.15.21-.32.4-.52.58-.18.19-.39.35-.61.5l-.05-.06Z"/><path class="cls-5" d="M116.12,235.68l1.99-.26,1.97-.36c1.32-.22,2.63-.52,3.93-.85.96-.22,1.87-.57,2.81-.85,3.33-.93,6.64-2.01,9.8-3.44,1.42-.6,2.73-1.43,4.03-2.21.81-.53,1.65-1.04,2.42-1.61.4-.27.81-.53,1.23-.79.36-.3.85-.48,1.28-.75.57-.29.58-.2.44.39-.1.41-.2.85-.31,1.29-.16.54-.5,1-.9,1.46-1.5,1.59-3.25,2.82-5.12,3.82-1.86,1-3.79,1.85-5.78,2.52-2.37.83-4.78,1.82-7.23,2.56-1.35.4-2.72.71-4.08,1.06-1.38.28-2.75.57-4.14.81-1.72.23-3.41.55-5.14.67-1.3.13-2.61.26-3.92.28-1.31.05-2.61.13-3.91.09-1.01-.02-2.02.1-3.02.07l-3.03-.04c-.45,0-.89-.05-1.33-.11-1.66-.23-2.14-.58-2.29-1.49-.03-.21-.09-.41-.09-.61,0-.65.77-1.12,1.92-1.11,3.4.11,6.92.19,10.49.07,1.33-.07,2.66-.08,3.99-.24l2-.18c.67-.07,1.33-.19,1.99-.29l.02.08Z"/><path class="cls-5" d="M115.08,261.68c.35-.55.49-1.19.33-1.85-.05-.25-.22-.44-.33-.65-.1-.19-.26-.39-.37-.52-.06-.04-.14-.1-.2-.12-.03-.02-.16-.04-.26-.05-.1-.02-.21-.03-.32-.04-.45-.04-.94-.03-1.43,0-.58.04-1.17.12-1.75.24-.74.14-1.49.39-2.33.13-.27-.2-.24-.28-.09-.68.16-.36.41-.91.81-1.09,1.45-.48,2.95-.98,4.74-.83l.41.03c.15,0,.26.02.5.04.42.02.78.17,1.14.34.61.35,1.07.79,1.44,1.33.78,1.15.96,2.65.62,3.92-.21.78-.58,1.5-1.07,2.11-.17.22-.49.57-.94.76-.47.21-1.12.16-1.53-.11-.42-.26-.67-.61-.83-.96-.14-.33-.23-.64-.28-.95-.14-.93-.22-1.78-.14-2.64.02-.19.01-.38.06-.56.14-.7.51-.83,1.24-.67.17.04.33.06.49.11.26.08.47.23.65.4.17.18.32.39.34.59.07.59.13,1.16.19,1.72.03.25.07.47.12.61.03.07.03.12.04.14h0s-.52.24-.52.24c-.06.03-.13.07-.19.12-.2.13-.32.4-.31.42.02.02-.03-.27-.38-.6l-.14-.14-.08-.06-.04-.03-.12-.1h0s.08-.08.08-.08c.05-.06.1-.11.15-.17.09-.12.18-.25.25-.39l.07.02Z"/><path class="cls-5" d="M132.53,260.69c.31-.4.43-1.29.36-1.97-.03-.26-.15-.47-.22-.68-.12-.35-.27-.59-.47-.67-.43-.11-1.1-.1-1.71-.05-.56.04-1.12.14-1.68.25-.72.14-1.46.38-2.26.09-.26-.21-.22-.29-.06-.68.16-.36.41-.89.79-1.06,1.37-.44,2.73-.98,4.54-.83.29.03.57.04.97.12.46.1.74.26,1.06.47.61.41,1.02.97,1.27,1.51.27.61.41,1.22.45,1.84.03.59,0,1.2-.13,1.82-.17.77-.52,1.5-1.1,2.13-.25.27-.62.56-1.15.64-.53.09-1.08-.13-1.39-.42-.33-.28-.53-.66-.64-.95-.12-.3-.19-.58-.24-.86-.15-.86-.29-1.66-.27-2.51,0-.18,0-.37.03-.56.11-.7.48-.85,1.22-.69.17.03.33.06.49.11.26.08.47.23.65.39.18.16.34.36.37.54.12.56.21,1.11.3,1.59.04.24.1.46.15.63.03.08.04.16.06.21,0,.03.01.04.02.06h0s0,.02,0,.02h0s-.48.22-.48.22h0s-.02.01-.02.01l-.09.05c-.19.1-.38.32-.41.44-.04.13.05,0-.17-.3-.1-.13-.26-.32-.46-.47l-.12-.1h0s.01-.02.01-.02l.03-.03s.04-.04.06-.06c.07-.08.14-.17.2-.28l.07.02Z"/><path class="cls-5" d="M106.26,250.64c1.31.18,2.62.03,3.94.01.31,0,.62,0,.93.02.07,0,.67.08.27.02.14.02.28.05.42.08.12.03.25.06.37.09.08.02.15.05.23.07.17.06.15.06-.06-.03,0,0,.31.17.3.18-.17-.14-.19-.15-.06-.03.27.3.18.06-.27-.71l.22-.82c.22-.37.51-.56.88-.58-.07,0-.14.01-.21.02-.16.02-.32.03-.48.04-.28.02-.55.03-.83.03-.63,0-1.25-.04-1.87-.11-.12-.01-.09-.01.09.01-.09-.01-.18-.03-.27-.04-.14-.02-.27-.05-.41-.07-.3-.06-.59-.12-.88-.2-.61-.16-1.2-.35-1.78-.58-.79-.31-1.82.34-2,1.13-.21.94.29,1.66,1.13,2,2.29.9,4.85,1.28,7.3,1.04.4-.04.79-.06,1.16-.22.54-.23.98-.65,1.14-1.23.29-1.05-.4-1.94-1.22-2.49-1.08-.72-2.55-.86-3.81-.87-1.41-.01-2.82.17-4.22-.01-.38-.05-.89.22-1.15.48-.28.28-.49.74-.48,1.15s.16.86.48,1.15c.34.31.7.42,1.15.48h0Z"/><path class="cls-5" d="M132.67,244.8c-1.57-.14-3.18,0-4.71.37-.8.2-1.7.42-2.3,1.02-.94.96-.7,2.51.43,3.2.66.41,1.54.5,2.3.47s1.5-.17,2.22-.36c.64-.17,1.27-.39,1.92-.57.32-.09.64-.17.97-.23.08-.02.16-.03.24-.04-.23.03-.25.03-.07.01.16-.01.33-.02.49-.03.85-.02,1.67-.73,1.62-1.62s-.71-1.65-1.62-1.62c-1.19.03-2.33.35-3.46.7-.51.16-1.03.32-1.55.43-.12.03-.24.05-.36.07-.4.08.36-.02-.05,0-.26.02-.52.03-.78.02-.06,0-.12,0-.18-.01.21.03.26.04.13.02-.06-.01-.32-.11-.37-.09l.21.08c.58.37.64.99.19,1.87-.36.31-.08.09,0,.03-.25.1-.27.12-.07.05l.13-.04c.15-.05.31-.09.47-.14.29-.08.58-.15.88-.21.14-.03.27-.05.41-.07s.41-.08.12-.02c.31-.06.65-.07.97-.08.6-.03,1.2-.01,1.8.04.85.07,1.66-.8,1.62-1.62-.04-.94-.72-1.55-1.62-1.62h0Z"/><path class="cls-5" d="M128.18,268.65c-.23-1.05-.41-2.08-.59-3.09-.07-.37-.19-.72-.26-1.09-.21-1.3-.43-2.6-.64-3.89-.1-.57-.24-1.13-.39-1.69-.2-.71-.42-1.41-.54-2.14-.03-.23.15-.27.41-.16.26.11.63.37.83.76.67,1.39,1.34,2.78,1.57,4.3.15.9.52,1.78.79,2.66l.85,2.91c.17.59.4,1.12.58,1.89.14.55.13,1.31-.18,1.93-.3.62-.78,1.06-1.28,1.39-.79.53-1.73.85-2.59.97-.19.03-.38.07-.56.07-.68-.02-.83-.25-.83-1.09,0-.19,0-.37,0-.55.03-.61.38-1.12.8-1.23.63-.19,1.12-.28,1.44-.39.27-.08.51-.22.6-.28.05-.02.03-.02.1,0-.03,0,.04-.01.05-.11.04-.2-.05-.6-.2-1.14l.06-.02Z"/><path class="cls-5" d="M119.44,282.31c2.14,1.85,5.2,2.23,7.72.93.7-.36.96-1.4.54-2.05-.46-.71-1.31-.92-2.05-.54-.1.05-.21.1-.32.15.05-.03.31-.12.12-.05-.07.02-.14.05-.21.07-.22.07-.45.13-.68.17-.05,0-.27.04-.02,0,.27-.03,0,0-.06,0-.12.01-.23.02-.35.02-.25,0-.5-.01-.74-.03-.19-.01.33.06.14.02-.06-.01-.12-.02-.17-.03-.11-.02-.23-.05-.34-.08-.24-.06-.47-.16-.71-.23.05.02.3.14.12.05-.05-.03-.11-.05-.16-.08-.1-.05-.21-.11-.31-.17-.11-.07-.22-.14-.33-.22-.04-.03-.21-.16-.02-.01.21.15-.02-.03-.05-.05-.59-.51-1.55-.63-2.12,0-.52.56-.63,1.57,0,2.12h0Z"/><path class="cls-5" d="M415.69,63.08c-.19.08-.28-.23-.32-.68-.01-.15.06-.55.12-.62.11-.12.22-.24.33-.33.07-.08.95-.2,1.24-.32.28-.09.56-.11.83-.11.56-.02,1.11-.08,1.66-.16.12-.01.25,0,.37.04.43.13.86.09,1.27-.03.07-.02.14-.02.2-.12.09-.15,1.19-.41,1.35-.39.39.09.77.08,1.18.13.06,0,.1-.04.18.05.19.22.29.15.4.13.17-.02.33-.03.52,0,.09.01.22.13.33.21.11.08.2.45.19.5-.03.14.09.29.15.44.02.05.05.11.06.16.04.09-.73,1.09-.85,1.12-.01.05-1.47.62-1.65.68-.09.04-.19,0-.29-.02-.04,0-1.25.39-1.3.38-.26,0-.51.12-.79-.08-.05-.04-.11-.02-.16-.01-.44.06-.89,0-1.33-.06-.23-.03-.45-.01-.67-.02-.04,0-.08-.04-.12-.05-.05-.02-.1-.05-.15-.05-.53,0-1.05-.16-1.58-.15-.13,0-.67-.31-.81-.3-.08,0-.28-.36-.36-.32Z"/><path class="cls-5" d="M410.63,55.12c.13.21-.18.34-.75.43-.18.03-.72-.04-.79-.1-.14-.12-.27-.25-.37-.37-.05-.07-.24-1.18-.33-1.56-.09-.37-.09-.73-.07-1.08l.08-2.18c0-.16.05-.32.11-.47.23-.53.28-1.08.26-1.64,0-.09.02-.19-.08-.28-.16-.16-.07-1.66.02-1.85.24-.46.4-.93.6-1.39.03-.07,0-.14.13-.19.32-.11.27-.27.32-.41.06-.2.13-.4.26-.6.06-.1.25-.18.39-.26.13-.08.57.02.62.06.13.11.35.05.53.06.06,0,.14,0,.19.02.1.02.82,1.29.78,1.42,0,.02,0,.46,0,.93,0,.47,0,.95.02,1.05.02.1-.07.2-.12.3-.02.05.02,1.45,0,1.5-.07.28,0,.58-.29.84-.06.05-.05.11-.05.17-.03.49-.19.97-.32,1.46-.06.25-.07.5-.1.75,0,.04-.05.09-.07.13-.03.05-.07.11-.07.17-.05.6-.26,1.18-.24,1.78,0,.14-.35.76-.33.92,0,.09-.4.34-.35.42Z"/><path class="cls-5" d="M187.63,464.95c-.09-.2.23-.36.6-.5.12-.05.47-.04.54.02.15.12.29.24.39.33.12.07.4,1.15.57,1.51.14.35.21.71.26,1.07.13.72.14,1.45.2,2.17,0,.16-.01.32-.06.48-.17.55-.16,1.1-.09,1.65.01.09,0,.19.1.27.17.15.26,1.64.16,1.83-.22.48-.36.96-.53,1.44-.02.07.01.14-.11.2-.28.15-.24.29-.26.44-.03.21-.08.41-.18.62-.05.1-.21.2-.33.3-.11.09-.52.04-.57,0-.13-.09-.32-.02-.49,0-.06,0-.13,0-.18,0-.1,0-.84-1.19-.85-1.32,0-.01-.07-.45-.15-.92-.09-.45-.17-.92-.2-1.04-.03-.1.05-.21.09-.31.02-.05-.17-1.43-.16-1.49.04-.29-.05-.57.2-.86.05-.06.04-.11.04-.17-.02-.49.09-.98.16-1.48.04-.25.01-.5.02-.75,0-.05.04-.09.06-.14.02-.06.05-.11.05-.17.02-.6.21-1.19.17-1.79,0-.14.29-.79.27-.95,0-.09.33-.38.28-.46Z"/><path class="cls-5" d="M182.22,460.24c.21-.11.36.16.45.64.03.15-.03.6-.09.66-.12.12-.23.24-.34.32-.07.04-1.06.28-1.38.44-.31.13-.62.2-.92.26-.62.13-1.23.31-1.82.52-.13.05-.27.06-.41.06-.5-.02-.96.15-1.36.41-.07.04-.15.06-.18.19-.06.21-1.14.84-1.32.84-.45.02-.86.13-1.3.23-.06.01-.09.09-.21,0-.28-.18-.36-.06-.48,0-.17.08-.34.16-.55.2-.1.02-.29-.07-.46-.13-.15-.05-.43-.46-.44-.52-.03-.18-.23-.31-.37-.46-.05-.05-.11-.12-.14-.16-.1-.1.42-1.51.56-1.58,0,0,.1-.08.25-.2.15-.12.34-.27.54-.43.4-.29.83-.6.93-.67.09-.08.22-.06.35-.07.03-.04,1.38-.77,1.45-.76.31-.07.59-.24.97-.08.07.03.13,0,.19-.02.51-.16,1.06-.17,1.59-.19.27-.01.54-.07.8-.09.05,0,.1.02.15.03.06.01.13.04.19.03.63-.07,1.27.02,1.89-.04.15-.02.83.26.99.25.09-.01.37.35.45.3Z"/></svg>