<?xml version="1.0" encoding="UTF-8"?><svg id="Layer_1" xmlns="http://www.w3.org/2000/svg" width="520" height="520" viewBox="0 0 520 520"><defs><style>.cls-1{opacity:.35;}.cls-1,.cls-2,.cls-3,.cls-4,.cls-5,.cls-6,.cls-7{fill:#231f20;stroke-width:0px;}.cls-2{opacity:.2;}.cls-3{opacity:.25;}.cls-4{opacity:.5;}.cls-5{opacity:.3;}.cls-6{opacity:.15;}</style></defs><path class="cls-7" d="M293.45,458.81s-5.76,2.33-4.25,4.13,15.73,2.39,15.73,2.39l-9.03-3.54-2.45-2.98Z"/><path class="cls-7" d="M293.05,452.29c.65-1.51,1.84-2.37,2.94-2.87.4-.18.78-.42,1.19-.54,1.44-.43,2.85-.66,4.25-.76.62-.05,1.23-.15,1.83-.23.77-.11,1.55-.28,2.36.06.26.14.23.19.05.46-.17.32-.49.78-.91.97-.74.29-1.49.41-2.22.6-.74.15-1.46.35-2.23.39-.91.09-1.75.51-2.53.86-.86.4-1.65.86-2.14,1.46-.18.18-.24.39-.36.6-.1.3-.2.62-.28.91-.24.89-.39,1.79-.21,2.66.13.68.51,1.26.9,1.8.08.12.2.22.28.35.3.45.3.67-.14,1.15-.1.11-.19.22-.29.32-.35.34-.82.36-1.23.02-1.2-1.01-1.99-2.76-2-4.55-.02-.66.06-1.31.18-1.91.06-.3.13-.59.21-.86l.11-.39c.03-.12.12-.37.19-.54l.06.02Z"/><path class="cls-7" d="M210.31,470.4s7.24-.15,7.24,1.56c0,2.4-17.16,4.28-17.16,4.28l9.92-5.84h0Z"/><path class="cls-7" d="M191.3,460.78c.27-.55.54-1.08.88-1.74.56-1.03,1.44-1.57,2.19-1.91.27-.1.54-.21.8-.32.26-.09.52-.16.78-.22,1.85-.3,3.55-.12,5.23-.05.74.08,1.48.12,2.21.16.94-.01,1.86.19,2.79.4.29.07.26.15.03.34-.24.17-.68.56-1.23.78-1.93.6-3.78.82-5.63.61-1.11-.09-2.21.24-3.17.47-.5.15-1.02.32-1.28.55l-.12.08s-.04.06-.06.09c-.05.08-.1.06-.17.23l-.42.84c-.36.72-.75,1.46-1.18,2.18-.64,1.09-1.45,2.12-2.38,3.03-.73.69-1.54,1.38-2.55,1.76-.21.09-.44.16-.67.19-.87.11-1.16-.12-1.34-.54-.04-.1-.09-.2-.11-.3-.07-.33.23-.65.67-.89.63-.45,1.19-.74,1.66-1.22.46-.48.91-.98,1.34-1.55.62-.87,1.19-1.87,1.67-2.99l.06.03Z"/><path class="cls-7" d="M200.54,258.19l5.94-17.76s18.88,5.19,25.78,5.54c6.9.35,23.16,1.42,28.36-1.18,5.19-2.59,16.35-7.05,16.35-7.05,0,0,3.85,33.69,6.36,44.61,2.52,10.92,17.08,58.29,17.08,58.29l19.97,52.81s12.48,32.74,12.14,37.56c-.34,4.83-6.55,10.12-8.92,11.18s-21.36,5.51-26.48,7.08c-5.12,1.57-12.91.65-17.32,2.21-4.41,1.56-8.13-.71-9.44-2.21-7.95-9.1-13.29-46.46-13.29-46.46l-13.27-61.7-1.92,32.33s-.36,62.53-3.09,70.02c-2.73,7.5-1.76,10.24-6.53,11.32s-28.85,2.55-34.88,1.27c-6.03-1.27-23.07-.45-27.67-4.54-4.6-4.09-6.72-5.77-6.5-13.32.22-7.56,8.69-64.5,8.69-64.5l14.86-66.21,13.78-49.32Z"/><path class="cls-7" d="M312.96,235.72c-.47,1.13-.99,2.24-1.64,3.28-.24.38-.4.79-.7,1.14-.9,1.3-2.15,2.36-3.47,3.2-.57.4-1.23.67-1.85.97-.44.1-.88.2-1.31.28-.44.06-.9-.06-1.33-.14-.27-.06-.23-.03,0-.14.11-.05.26-.15.43-.29.17-.15.36-.28.58-.34.74-.36,1.39-.74,2.07-1.09.33-.2.63-.44.96-.65.32-.23.6-.51.92-.75.37-.3.66-.72.98-1.1l.82-1.27c.56-.95,1.1-1.94,1.5-3,.27-.64.48-1.3.67-1.97.15-.51.25-1.03.37-1.54.1-.52.16-1.05.22-1.57.05-.81-.02-1.62-.12-2.4l-.05-.52c-.05-.64.07-.86.5-1.06.1-.05.19-.1.29-.14.33-.12.65.12.84.64.33.76.43,1.58.49,2.4.02.41.02.83.02,1.25-.03.41-.1.83-.16,1.24-.09.61-.27,1.21-.41,1.81-.18.59-.37,1.18-.57,1.77h-.05Z"/><path class="cls-7" d="M299.56,220.28c-.74.24-1.5.45-2.26.63-.28.07-.54.18-.82.23-1,.17-2.04.22-3.08.08-.46-.06-.93-.08-1.4-.24-.29-.1-.6-.22-.86-.42-.06-.05-.13-.09-.19-.15l-.12-.24c-.08-.14-.12-.33-.12-.51,0-.23-.05-.15.15-.13.09.01.28-.03.45-.07.09-.03.19-.06.28-.1.05-.02.08-.03.14-.06.02,0,.06,0,.08,0,.76.02,1.53.1,2.56.14.6.05,1.21-.18,1.82-.34.68-.17,1.36-.37,2.03-.61.41-.15.83-.3,1.23-.49.61-.28,1.22-.56,1.76-.94.41-.3.73-.71,1-1.08.07-.08.09-.17.15-.24.23-.22.45-.02.89.08.11.03.21.04.32.06.17.03.31.1.4.29.09.2.12.44.08.71-.19.7-.61,1.09-.99,1.5-.4.38-.84.7-1.3.98-.69.39-1.43.7-2.16.98l-.02-.05Z"/><path class="cls-2" d="M302.47,159.87s-.66,9.48-4.61,17.73c-2.81,5.88-6.12,10.59-6.12,10.59l-14.77-4.88s10.14-16.51,11.11-22.17,2.59-7.32,2.59-7.32l11.8,6.05Z"/><path class="cls-4" d="M283.32,156.33s3.51-1.99,4.13,1.41c.62,3.41-5.77,17.85-6.85,19.94-1.07,2.08-5.28,4.48-7.34,4.2-2.06-.28,4.53-5.2,4.34-7.65-.19-2.45,5.72-17.9,5.72-17.9Z"/><path class="cls-4" d="M271.27,156.21s2.62,6.92,3.29,12.62c.33,2.86-.17,9.53-1.29,11.84-1.12,2.31,6.46-16.21,7.34-18.34.88-2.13,1.93-7.65,1.93-7.65,0,0-3.41-.19-6.11,0s-5.16,1.55-5.16,1.55Z"/><path class="cls-1" d="M253.51,165.69s3.15-1.28,7.53,1.03,6.19,10.31,7.73,13.27c1.54,2.97,1.54,9.2,1.54,9.2,0,0-5.53-8.33-13.76-7.29-2.56.32-2.15-3.12-2.15-3.12,0,0,4.71-1.22,3.53-1.84s-2.26-3.78-2.26-3.78c0,0,4.76-.19,3.72-1.44-1.05-1.26-5.88-6.02-5.88-6.02Z"/><path class="cls-7" d="M273.26,181.88s3.08,0,5.85-3.1c1.29-1.44-2.16,4.53-2.16,4.53l-3.7-1.43Z"/><path class="cls-7" d="M268.79,189.76s1.56-1.43.21-5.37c-.66-1.94,0-6.71,0-6.71l2.26,4.72.55,4.66,6.49,3.62-7.06.96-2.47-1.88Z"/><path class="cls-7" d="M271.92,178.42s.97.36,1.82-.43c1.56-1.43,3.03-4.08,3.67-6.21,1.03-3.43-.61,4.35-.61,4.35,0,0-3.59,5.75-4.88,5.75s0-3.46,0-3.46Z"/><path class="cls-7" d="M279.36,170.76c-.43.88-.86,1.75-1.34,2.61-.17.31-.3.64-.49.95-.66,1.07-1.36,2.12-2.21,3.05-.36.42-.72.84-1.08,1.26l-.74.76c-.28.22-.6.39-.91.57-.2.11-.18.08-.1-.11.08-.18.17-.57.35-.94.83-1.11,1.48-2.29,2.3-3.39.51-.65.85-1.46,1.23-2.21.41-.84.81-1.69,1.17-2.56l.65-1.62c.31-.83.62-1.66.84-2.51.17-.66.23-1.34.32-2.01.02-.15.03-.3.05-.44.09-.55.31-.68.75-.7.1,0,.21-.02.31,0,.33.02.56.31.6.75,0,1.26-.28,2.54-.66,3.8-.28.93-.62,1.86-1,2.77h-.04Z"/><path class="cls-7" d="M217.28,227.52s-6.77,7.42-7.1,10.23c-.28,2.35,4.6,3.84,7.1,4.6,2.89.88-10.8-1.92-10.8-1.92l.87-4.35,9.93-8.56Z"/><path class="cls-7" d="M182.28,211.82s.82-2.24,1.82-3.07c1.47-1.22,3.58-.21,4.99-1.23,1.41-1.03-4.96,4.31-4.96,4.31h-1.85Z"/><path class="cls-7" d="M212.31,193.13c.68.49,1.34.99,2,1.5.24.18.51.32.74.52.84.66,1.61,1.4,2.39,2.13.35.32.72.61,1.09.89.48.36.92.77,1.23,1.32.1.17-.02.27-.28.34-.25.05-.71.16-1.02.01-.59-.22-1.06-.58-1.54-.93-.48-.36-.94-.74-1.37-1.15-.52-.5-1.18-.87-1.78-1.29-.66-.47-1.32-.94-1.99-1.39-.41-.28-.83-.55-1.26-.81-.65-.39-1.29-.8-1.98-1.11-.53-.24-1.12-.34-1.66-.53-.12-.04-.25-.06-.37-.11-.44-.18-.52-.37-.4-.89.03-.12.05-.24.08-.35.12-.39.44-.61.82-.59,1.14.05,2.18.51,3.16,1.07.74.4,1.44.87,2.14,1.33l-.02.04Z"/><path class="cls-7" d="M217.57,155.38c-5.8-.72-4.3-7.41-10.02-8.23-4.03-.58-10.18,5.08-10.18,5.08l13.97-13.3s-.44,4.22-.2,5.68,6.42,10.77,6.42,10.77Z"/><path class="cls-7" d="M207.55,99.76c-3.2-.75-14.89-6.21-14.89-16.56,0,0-.62-3.62,2.45-7.48,3.07-3.86,12.44-5.44,12.44-5.44l.96-8.3s1.38-7.03,4.92-9.57c3.54-2.54,11.54-5.33,14.44-4.87,2.9.46,13.9,7.2,13.9,7.2,0,0,3.32-5.28,6.33-7.25,3.01-1.97,10.83-6.27,14.21-5.14s11.11,3.04,12.05,5.19c.94,2.15,6.31,11.75,6.31,11.75,0,0,13.65,1.12,15.53.84,1.88-.28,8.89,6.89,9.37,8.96.47,2.07-3.38,14.64-3.38,14.64,0,0,2.37,2.35,3.07,4.23.7,1.89,3.57,12-8.31,14.93-5.34,1.32-13.6-2.45-15.14-6.53,0,0,.37-3.46-1.14-4.04s-13.07-11.18-14.05-12.29-5.03-5.3-5.03-5.3c0,0-6.23,3.64-7.83,3.79-1.6.16-10.19-2.82-10.19-2.82,0,0-4.22,8.05-6.95,10.12s-10.09,5.72-10.09,5.72c0,0,.91,5.95.75,7.26-.16,1.31-.43,3.52-1.81,3.34-1.38-.18-4.38-5.23-4.38-5.23,0,0-3.95-4.42-5.64-4.19s-6,3.32-6,3.32l-1.89,3.7Z"/><path class="cls-7" d="M314.3,463.25c4.16.13,8.36.06,12.49-.41,1.5-.18,2.98-.49,4.4-.81l.68-.15c.13-.03.26-.07.39-.12.13-.06.29-.13.34-.27.02-.15-.1-.25-.19-.34-.1-.09-.21-.18-.34-.25-.06-.04-.13-.08-.22-.13l-.13-.07-.26-.12c-.77-.35-1.59-.66-2.41-.95-1.66-.58-3.37-1.08-5.09-1.54-2.33-.62-4.72-1.08-7.09-1.51l-2.3-.4-1.18-.23c-.21-.05-.4-.07-.73-.21-.31-.12-.58-.34-.81-.57-.45-.48-.63-1.01-.75-1.48-.11-.47-.15-.91-.15-1.33-.03-.42.04-.83.1-1.22.08-.4.1-.78.22-1.16.39-.96.16-.86.66-.06.26.4.52,1,.9,1.65.19.32.3.67.46.96.15.3.32.57.43.66.02,0,.04.02.06.03,0,0,.03-.02,0,0-.04.03-.07.07-.11.11-.04.04-.04.04-.07.07-.01.02.04-.07.04-.09v-.03c.09-.28.07-.19.08-.2h0s.02,0,.02,0l.07.02.24.05.55.1,2.31.41c1.56.28,3.13.58,4.69.92,3.13.69,6.27,1.46,9.36,2.7l1.03.42.52.23.26.12.39.19c.53.23,1.04.53,1.54.83l.67.5c.2.17.37.36.56.54l.34.49c.09.17.16.35.23.52.12.35.11.85-.07,1.21-.32.71-.93,1.26-1.8,1.71-.42.22-.89.42-1.38.58-.24.08-.48.17-.74.24l-.51.14c-.63.17-1.26.31-1.89.43-4.36.81-8.71,1.07-13.06,1.11-2.68,0-5.36-.1-8.03-.33-2.03-.18-4.05-.45-6.07-.85-2.01-.41-4.01-.94-5.95-1.8-1.47-.65-3.07-1.67-4.05-3.16-1.03-1.46-1.53-3.11-1.88-4.69-.15-.7-.3-1.37-.37-2.06-.13-1.28-.15-2.09-.03-2.67.14-.59.37-.94.73-1.26.16-.15.32-.33.48-.43.27-.16.56-.01.88.42.32.43.67,1.14.86,2.05.32,1.35.6,2.67.91,3.89.31,1.22.76,2.28,1.34,3.09.6.79,1.32,1.29,2.45,1.83,1.1.5,2.35.89,3.65,1.21,3.88.92,8.1,1.3,12.28,1.39v.08Z"/><path class="cls-7" d="M172.09,474.79s-.02.11,0,.16c.01.03.03.05.05.07.01.01.02.03.04.03l.13.07c.7.3,1.69.5,2.66.64,2,.26,4.12.31,6.23.26,1.55-.05,3.1-.24,4.65-.36,5.47-.47,10.99-1.29,16.24-2.83,1.16-.34,2.29-.77,3.36-1.27,1.05-.49,2.08-1.14,2.65-1.79.35-.39.59-1.04.77-1.72.16-.69.3-1.41.41-2.15.11-.74.16-1.49.19-2.25.04-.76.02-1.52-.11-2.26-.19-.89-.06-.91.57-.23.31.35.68.9,1.07,1.62.4.72.73,1.62.84,2.63.21,1.81.2,3.58-.86,5.7-.67,1.15-1.57,1.85-2.37,2.36-.81.5-1.62.91-2.43,1.26-3.22,1.39-6.48,2.12-9.78,2.63-3.94.6-7.98,1.38-12.04,1.69-2.23.16-4.47.24-6.74.16-1.13-.03-2.27-.13-3.43-.29-.58-.09-1.16-.19-1.75-.34-.29-.06-.6-.17-.9-.27-.32-.09-.56-.21-.98-.41-.89-.51-1.69-1.24-1.94-2.21-.31-.96,0-2,.66-2.75.34-.36.74-.73,1.12-.97.33-.21.65-.41.98-.57.65-.35,1.31-.61,1.96-.88,3.93-1.5,7.94-2.44,11.58-4.01,1.39-.61,2.74-1.36,3.66-2.28l.3-.35.31-.42c.19-.28.39-.57.53-.86.31-.58.5-1.17.6-1.78.09-.54.05-1.09.01-1.69-.08-1.12-.2-1.95-.11-2.54.09-.61.32-.99.71-1.34.18-.16.34-.35.52-.45.31-.17.63-.02.97.39.33.42.7,1.09.91,2.07.32,1.42.59,3.15.1,4.99-.23.9-.63,1.75-1.1,2.51-.24.37-.49.73-.76,1.06-.23.31-.64.74-.98,1.04-1.44,1.24-2.89,1.92-4.33,2.56-1.44.62-2.88,1.12-4.3,1.6-2.11.71-4.22,1.31-6.2,2.04-.98.37-1.94.76-2.75,1.19-.21.11-.38.22-.56.33-.09.05-.18.13-.21.14,0,0,0,0-.01,0-.02.01-.05.03-.06.06h-.09Z"/><path class="cls-7" d="M251.31,247.57l-1.44.15-1.45.07-2.89.14c-1.92.02-3.85.02-5.77-.03-1.4-.07-2.8-.06-4.19-.14-4.91-.46-9.76-1.28-14.55-2.32-2.11-.53-4.26-.93-6.33-1.5-1.34-.36-2.69-.66-4.02-1.06-1.33-.4-2.6-.97-3.86-1.56-.76-.45-.52-.77.35-1.08.86-.29,2.34-.58,3.85-.21,1.32.39,2.68.65,4.01,1,1.33.36,2.68.63,4.03.93,1.34.34,2.67.69,4.03.96,1.35.28,2.7.66,4.07.91,3.27.68,6.74.89,10.14,1.04l2.81.13c.94.02,1.87,0,2.81,0,1.88.04,3.74-.11,5.61-.22,1.16-.04,2.29-.23,3.44-.34,1.15-.12,2.29-.26,3.42-.5l2.58-.47c.86-.17,1.7-.41,2.55-.62,1.71-.38,3.35-.96,4.98-1.55,2.51-.96,4.85-2.21,7.09-3.59.49-.31.99-.58,1.47-.92,1.8-1.19,2.5-1.37,3.38-.9.2.11.43.19.6.32.56.44.09,1.38-1.24,2.43-3.95,3.09-8.85,5.31-13.91,6.79-1.9.48-3.79,1.04-5.73,1.34-.96.17-1.93.36-2.89.51l-2.91.35v-.08Z"/><path class="cls-7" d="M291.89,218.25c.05.31.1.6.13.91,0,.11.07.2.06.32-.01.41-.05.81-.05,1.18,0,.17.06.32.07.48.01.1.04.2.04.3,0,.1-.01.21-.16.35-.08.08-.18.1-.39.09-.16,0-.31,0-.43,0-.15,0-.24-.03-.29-.08-.15-.15-.36-.29-.41-.46-.06-.17-.08-.36-.06-.57.03-.25-.16-.43-.25-.64-.1-.23-.13-.49-.2-.74-.04-.15-.07-.31-.13-.46-.08-.22-.15-.47-.3-.65-.12-.14-.36-.21-.55-.3-.04-.02-.08-.04-.1-.08-.06-.14.06-.27.49-.61l.29-.23c.33-.25.66-.4.88-.4.36-.02.56.08.71.22.16.14.27.31.36.48.14.27.22.56.32.85l-.05.03Z"/><path class="cls-7" d="M266.57,175.14c-.43-1-1.01-1.96-1.65-2.88-.25-.32-.55-.6-.8-.93-.91-1.14-1.95-2.18-3.05-3.2-.52-.41-1.05-.82-1.61-1.15-.37-.2-.71-.46-1.06-.7-.36-.23-.7-.49-1-.84-.19-.21-.12-.27.17-.35.29-.07.87-.27,1.37-.11.91.22,1.74.62,2.52,1.12.79.47,1.55,1.01,2.18,1.7.76.82,1.69,1.5,2.45,2.36.86.91,1.57,1.96,2.23,3.02.38.67.76,1.35,1.06,2.06.51,1.05.81,2.19,1.17,3.29.24.86.62,1.7.8,2.6.05.2.12.39.13.59.04.75-.18,1-.81,1.15-.15.03-.29.08-.43.1-.48.06-.91-.22-1.14-.68-.62-1.37-.85-2.73-1.31-4.1-.36-1-.7-2.03-1.24-2.99l.05-.03Z"/><path class="cls-7" d="M267.08,158.79v.04c-.09-.12.25.54.45.97.22.46.41.94.66,1.39.46.92.95,1.83,1.31,2.79.31.74.66,1.47.94,2.22.93,2.69,1.53,5.5,1.91,8.32.09.63.13,1.26.22,1.89.03.64.11,1.27.11,1.9-.03.41-.04.82-.08,1.22l-.18,1.22c-.23.8-.59,1.56-.99,2.27-.25.44-.21.37-.23-.06,0-.22-.05-.53-.11-.9-.08-.37-.23-.81-.3-1.24-.08-.77-.1-1.51-.23-2.25-.06-.74-.1-1.49-.18-2.24-.15-1.5-.44-3.02-.73-4.56-.34-1.86-1.17-3.65-1.84-5.47-.36-1-.79-1.99-1.16-2.99-.37-1.01-.81-2-1.29-2.96l-.58-1.13-.14-.5c0-.08-.11-.17-.01-.24,0-.09,0-.18.04-.25.14-.31.39-.6.67-.85.13-.13.28-.26.42-.37.11-.09.21-.17.32-.25.21-.16.44-.31.66-.46.89-.58,1.83-1.07,2.77-1.5.95-.43,1.9-.84,2.94-1.14,1.59-.47,3.21-.75,4.86-.73.36,0,.72,0,1.09.04,1.36.14,1.79.55,1.87,1.22,0,.14.06.33-.04.42-.04.03.03-.01.04-.02.02,0,.02,0,0,0-.03.02-.13.06-.23.19-.07.09-.06.11-.05.14.03.04-.02.05-.04.07l-.14.1c-.24.11-.58.2-1,.18-1.28-.03-2.59.05-3.86.23-.64.08-1.26.2-1.87.37-.61.15-1.17.39-1.84.66-.94.39-1.86.84-2.72,1.34-.43.25-.84.52-1.21.8l-.12.09h0s-.02.01-.02.01c0,0-.03.02-.03.03h-.07Z"/><path class="cls-7" d="M277.49,170.18c.67-1.85,1.28-3.73,1.81-5.64.19-.7.31-1.41.5-2.11.33-1.23.65-2.47.95-3.72l.44-1.88.21-.94.15-.7c.05-.24.1-.49.24-.64.22-.28.31-.68.76-.65.39-.05.84,0,1.27.01.67.05,1.18.11,1.78.18.74.08,1.48.17,2.21.4.73.21,1.47.46,2.1,1.03.38.38.24.36-.18.38-.22.03-.51.09-.87.22-.34.09-.72.15-1.12.17-.35,0-.72.02-1.08.04-.36.02-.72-.03-1.08-.04l-1.08-.04-.54-.02c-.26,0-.12-.02-.17-.03-.01-.01-.05-.04-.08-.05-.02,0-.05.03-.08.06l-.27,1.01-.3,1.1c-.51,1.74-.78,3.61-1.23,5.41-.5,1.98-1.07,3.94-1.71,5.88-.4,1.19-.82,2.38-1.28,3.56-.69,1.78-1.49,3.53-2.38,5.23-.68,1.32-1.35,2.65-2.28,3.87-.21.26-.42.53-.65.79-.91.92-1.43.99-1.94.68-.12-.07-.25-.14-.35-.22-.32-.31-.13-.86.34-1.47,1.44-1.82,2.63-4.05,3.69-6.43.79-1.76,1.55-3.58,2.17-5.46l.06.02Z"/><path class="cls-7" d="M287.76,155.25l.48-1.79c.45-.53.71-1.32,1.52-1.42.71-.2,1.58,0,2.38.18l.5.13.36.11.7.23c.46.16.91.33,1.36.51,1.78.73,3.49,1.59,5.12,2.71,1.28.92,2.45,1.75,3.58,2.78.72.64,1.39,1.37,2.02,2.15.31.4.62.8.91,1.25.29.46.54.86.81,1.67.01.34.02.67-.02,1.01-.02.24-.07.44-.1.66-.07.43-.17.83-.25,1.25-.18.82-.38,1.63-.61,2.43-.47,1.6-.99,3.17-1.61,4.7-.86,2.13-1.84,4.22-2.96,6.21l-1.14,1.88-1.29,1.78c-.46.57-.95,1.12-1.43,1.67-.48.55-1.09.99-1.63,1.48-.7.58-.7.4-.37-.33.34-.73.86-2.09,1.76-3.41,1.51-2.42,2.92-4.89,4.02-7.52,1.12-2.61,1.99-5.34,2.68-8.12.13-.56.26-1.13.32-1.71.08-.54.14-1.3.12-1.32,0-.06-.02-.08-.05-.14l-.18-.28c-.14-.2-.29-.4-.46-.61-.34-.41-.73-.8-1.13-1.18-.83-.75-1.68-1.53-2.58-2.25-.74-.6-1.53-1.21-2.27-1.71-.77-.51-1.59-.97-2.44-1.39-.85-.41-1.73-.79-2.62-1.11-.45-.16-.9-.31-1.34-.43l-.39-.11c-.11-.03-.22-.05-.33-.07-.1,0-.28-.06-.32.06l-.12.33-.11.32-.18.61-.41,1.38-.79,2.79c-1.01,3.59-2.18,7.19-3.67,10.64-1.15,2.68-2.39,5.29-3.98,7.73-.33.55-.67,1.08-1.07,1.59-.36.48-.67.87-.95,1.18-.3.29-.56.51-.8.67-.48.31-.86.4-1.29.35-.19-.02-.41-.01-.56-.07-.51-.17-.25-1.21.66-2.61,2.73-4.11,5.12-8.59,6.79-13.5,1.28-3.63,2.22-7.45,3.34-11.36l.07.02Z"/><path class="cls-7" d="M265.27,188.66c-.74-.44-1.55-.79-2.38-1.1-.3-.12-.62-.16-.93-.27-1.09-.35-2.22-.64-3.37-.79-.51-.08-1.03-.09-1.54-.11-.66,0-1.32-.08-1.98-.15-.21-.03-.19-.1-.02-.21.17-.11.48-.31.87-.42.68-.2,1.38-.23,2.08-.21.7.01,1.39.06,2.08.19.82.15,1.7.2,2.55.37.93.18,1.84.46,2.74.78.55.22,1.09.43,1.62.7.81.37,1.57.87,2.33,1.35.58.39,1.22.71,1.8,1.15.13.1.28.17.39.29.44.41.33.75-.04,1.17-.09.1-.17.2-.27.29-.32.29-.77.35-1.16.22-.94-.55-1.72-1.21-2.63-1.85-.67-.47-1.37-.97-2.14-1.35l.02-.04Z"/><path class="cls-7" d="M264.62,179.01c.54.35,1.06.74,1.57,1.12.49.42.98.82,1.42,1.29.33.33.71.6,1,.96,1.08,1.23,1.97,2.6,2.72,4,.35.61.63,1.26.96,1.88.42.79.61,1.69.73,2.58.04.28-.07.27-.3.11-.23-.16-.66-.44-.98-.83-.29-.34-.59-.67-.78-1.05-.22-.36-.48-.7-.7-1.06-.5-.68-.88-1.43-1.34-2.14-.53-.88-1.36-1.57-2.11-2.27-.86-.74-1.74-1.48-2.7-2.11-.57-.42-1.21-.75-1.83-1.09-.97-.47-1.97-.93-3.02-1.18-.81-.22-1.66-.19-2.48-.25-.18-.02-.36,0-.54-.02-.34-.03-.55-.12-.68-.3-.14-.16-.21-.37-.25-.67-.02-.14-.05-.27-.06-.4-.02-.42.31-.77.88-.96,1.67-.38,3.38.08,5.03.64,1.23.41,2.39,1.04,3.51,1.69l-.03.05Z"/><path class="cls-7" d="M220.05,195.83c.47-.58.94-1.15,1.41-1.73.17-.21.28-.46.46-.66.6-.73,1.26-1.43,1.88-2.14.27-.32.5-.67.71-1.03.13-.23.25-.47.44-.66.1-.1.17-.21.3-.28.13-.06.27-.13.43-.2.19-.08.27,0,.4.24.09.18.19.37.26.51.05.1.11.22.14.32.01.09.02.18,0,.26-.08.6-.44,1.02-.72,1.5-.31.46-.65.89-1.05,1.29-.49.47-.8,1.08-1.2,1.62l-1.36,1.76c-.28.36-.56.72-.82,1.09-.4.56-.82,1.11-1.15,1.71-.27.46-.37,1-.59,1.48-.05.1-.09.21-.15.31-.05.1-.12.16-.22.18-.09.03-.17.05-.26.06-.16.02-.32,0-.51-.07-.09-.03-.17-.04-.25-.07-.24-.09-.38-.38-.5-.82-.07-.59.08-1.07.29-1.53.2-.46.46-.89.73-1.32.4-.63.85-1.24,1.29-1.84l.05.03Z"/><path class="cls-7" d="M173.69,194.61c-2.79,9.04-4.61,18.54-4.11,27.9.19,3.4.85,6.75,1.97,9.84.96,2.74,2.49,5.21,4.57,7.04.24.25.54.42.81.64.29.19.53.43.85.59.62.34,1.21.73,1.88.98,1.28.62,2.67.93,4.07,1.18,2.83.37,5.79.09,8.63-.76,2.85-.83,5.59-2.11,8.19-3.66,4.61-2.76,8.75-6.4,12.32-10.4,4.62-5.17,8.22-11.1,11.34-17.24,1.02-1.91,1.16-1.6,1.1.37-.05,1.95-.65,5.61-2.78,9.24-3.81,6.37-8.7,12.03-14.46,16.75-2.9,2.34-6.05,4.42-9.49,6.02-3.44,1.58-7.17,2.75-11.09,2.91-4.67.22-9.62-1.09-13.4-4.26-1.88-1.59-3.34-3.59-4.42-5.71-1.07-2.13-1.78-4.38-2.28-6.63-.55-2.48-.82-4.99-.91-7.48-.1-2.5-.05-4.99.16-7.45.37-4.94,1.28-9.81,2.43-14.59,1.46-5.88,3.42-11.62,5.78-17.18,3.58-8.42,8.29-16.42,13.91-23.56,4.36-5.56,9.17-10.61,14.41-15.21,1.15-1.02,2.27-2.01,3.46-3,2.2-1.83,3.71-2.95,4.85-3.63,1.12-.7,1.89-.95,2.61-1.04.32-.04.7-.15.92-.15.69-.02-.68,2-3.8,4.77-4.66,4.06-9.41,8.17-13.75,12.76-2.17,2.29-4.27,4.68-6.24,7.18-1.95,2.52-3.82,5.11-5.55,7.82-5.11,8-9.1,16.83-11.91,25.98h-.08Z"/><path class="cls-7" d="M255.67,144.23c-2.72,3.36-11.17,4.66-17.66,2.17-5.78-2.22-8.26-7.34-12-10.72-2.87-2.6-6.09-2.98-12.08.03-2.57,1.29,6.33-5.33,8.2-5.54s6.25,2,7.26,3.55,7.17,6.61,9.36,7.68c3.23,1.58,16.92,2.84,16.92,2.84Z"/><path class="cls-7" d="M283.09,58.71c1.5-.02,3.31-.29,5.13-.42,1.84-.14,3.75-.18,5.7.03,1.95.21,3.93.79,5.74,1.68l1.33.75c.43.26.81.6,1.22.89.84.57,1.47,1.35,2.18,2.04,1.98,2.13,3.39,5.06,3.5,8.06.14,3.05-.71,5.9-1.9,8.42-.3.63-.62,1.25-.96,1.85l-.53.89-.45.72-.42.58s-.09.11-.08.16l.16.07c.1.05.21.1.31.17.07.05.17.1.21.14.22.17.46.32.67.5.43.35.83.72,1.21,1.12.75.79,1.38,1.68,1.9,2.62,1.05,1.88,1.56,4.02,1.59,6.13.02,2.25-.61,4.53-1.82,6.39-1.19,1.88-2.85,3.37-4.68,4.48-2.36,1.41-5.07,2.22-7.79,2.3l-1.02.03c-.34-.01-.68-.05-1.02-.08l-1.01-.09-.99-.21c-.33-.07-.66-.14-.99-.22l-.94-.38-.93-.38c-.29-.16-.6-.3-.87-.5-1.37-.96-1.16-.8.23-.63.36,0,.74.13,1.23.13.48,0,1,.02,1.56.03.57-.03,1.17-.03,1.79-.02.63-.03,1.28-.08,1.95-.1,2.39-.19,4.68-.94,6.68-2.07,1.97-1.16,3.67-2.77,4.53-4.71.18-.49.44-.96.51-1.47.05-.25.13-.5.17-.75l.04-.77c.08-1.03-.09-2.17-.38-3.19-.63-2.06-1.74-4.04-3.55-5.36-.35-.23-.69-.39-1.05-.6-1.24-.68-1.77-1.29-1.45-2.32.1-.51.51-1.1.9-1.65.19-.28.4-.55.58-.83.05-.07.1-.13.14-.2l.08-.12.15-.24c.77-1.26,1.43-2.58,1.93-3.94,1.01-2.71,1.31-5.61.43-8.13-.5-1.43-1.32-2.77-2.48-3.87l-.85-.85-.95-.71c-.3-.26-.65-.45-1-.63-.35-.18-.67-.42-1.05-.55-2.92-1.28-6.32-1.34-9.78-.98-1.18.1-2.37.25-3.63.34l-.96.05-1.01-.02c-.35,0-.69-.08-1.11-.14-.42-.05-.85-.29-1.27-.43-.65-.33-1.04-1.07-1.33-1.67-.23-.49-.42-.94-.62-1.4-.39-.91-.77-1.79-1.19-2.66-1.4-2.89-3.15-5.61-5.52-7.66-2.35-2.06-5.29-3.38-8.39-3.78-2.42-.33-4.86-.17-7.11.48-2.27.65-4.34,1.84-6.24,3.25-.82.65-1.58,1.34-2.33,2.08-1.39,1.38-2.23,2.36-2.9,3-.66.65-1.2.93-1.8,1.08-.27.07-.58.2-.8.2-.71.08-.52-1.87,1.4-4.51,1.4-1.96,3.15-3.74,5.18-5.26,2.02-1.54,4.41-2.71,6.99-3.36l.97-.24.99-.16c.66-.12,1.33-.16,2-.2,1.34-.08,2.63,0,3.97.16,2.65.34,5.31,1.21,7.67,2.62,3.09,1.84,5.53,4.54,7.34,7.42.9,1.45,1.68,2.95,2.35,4.44l.96,2.18.36.78s.01.03.03.05c.04.02-.05,0,.24.04l.19.03h.25s.51,0,.51,0v.09Z"/><path class="cls-7" d="M193.99,78.9c-.93,1.89-1.4,4.07-1.44,6.28-.05.81.14,1.61.19,2.42.31,2.81,1.45,5.6,3.21,7.97.77,1.06,1.72,2,2.75,2.81,1.33,1.04,2.74,1.92,4.18,2.88.45.31.3.53-.26.67-.55.13-1.62.3-2.62-.13-1.81-.7-3.41-1.86-4.78-3.23-1.4-1.35-2.53-2.99-3.29-4.79-.47-1.07-.91-2.16-1.3-3.29-.35-1.13-.67-2.32-.76-3.49-.28-2.58,0-5.23.83-7.7.57-1.5,1.25-2.97,2.27-4.24,1.46-1.96,3.51-3.44,5.69-4.41,1.69-.73,3.44-1.39,5.27-1.64.4-.06.79-.15,1.2-.19,1.51,0,1.98.31,2.24,1.04.06.17.14.34.17.51.09.56-.52,1.03-1.49,1.26-1.45.27-2.86.56-4.22.94-1.33.45-2.65.93-3.77,1.73-1.69,1.12-3.11,2.67-3.98,4.6l-.07-.03Z"/><path class="cls-7" d="M213.47,140.39c-.37,1-.63,2.04-.71,3.08l.03,1.65.25,1.63c.25.77.51,1.53.88,2.26.25.68.67,1.28,1.03,1.92.2.31.44.59.65.89.21.3.44.6.71.86.96,1.15,2.13,2.15,3.37,3.05,1.13.76,2.33,1.46,3.6,1.96.81.33,1.64.62,2.49.84.42.14.84.27,1.27.38.43.14.86.22,1.29.3.54.12.48.26,0,.46-.49.21-1.45.54-2.58.51-1.96-.19-3.88-.71-5.69-1.5-1.81-.8-3.44-2.01-4.86-3.42-1.64-1.73-3.3-3.68-4.25-6.01-1-2.57-1.34-5.37-.73-8.1.38-1.65,1.07-3.18,1.94-4.57,1.33-2.1,3.12-3.89,5.17-5.25,1.57-1.07,3.25-2.02,5.13-2.55.4-.15.81-.24,1.24-.32.79-.17,1.33-.08,1.7.06.37.14.58.38.74.76.07.17.16.34.2.51.12.57-.47,1.08-1.42,1.34-1.41.44-2.77.88-4.07,1.52-1.29.65-2.51,1.47-3.6,2.45-1.63,1.44-2.94,3.29-3.71,5.31l-.07-.02Z"/><path class="cls-7" d="M257,147.12c.07-.13.15-.25.24-.36.13-.16.38-.36.61-.46.23-.11.56-.17.85-.15.29.02.38.07.58.14.2.08.26.13.34.19.08.05.17.12.23.17.09.08.19.18.26.26.26.31.35.53.48.77.22.45.37.87.49,1.3.27.9.33,1.58.46,2.43.08.6.21,1.22.18,1.89-.03.59-.11,1.2-.33,1.8-.12.33-.21.51-.32.75l-.32.69c-.44.93-.96,1.88-1.66,2.7-.61.73-1.31,1.39-2.05,1.92-.47.36-1,.63-1.53.86-.55.19-1.07.44-1.67.45-.37.01-.35-.06-.16-.38.17-.35.51-.9.98-1.29.82-.73,1.64-1.31,2.3-2,.67-.69,1.16-1.49,1.65-2.44.15-.28.27-.58.39-.9l.17-.48c.06-.17.1-.33.13-.44.11-.49.07-1.06-.01-1.67-.09-.67-.26-1.37-.45-2.1-.16-.72-.33-1.39-.6-1.93-.04-.08-.08-.15-.11-.2,0-.04-.04-.02.01-.07.1-.12.18-.2.24-.27.06-.07.12-.2.15-.23.03-.05.04-.15.04-.14,0,0,0-.02,0-.03,0,.02.01.04.02.05,0,0,.08.07.15.11.05.03.21.07.15.05-.03-.02-.09-.01,0-.01l.08-.02c.07-.01.13-.03.19-.05.08-.04.07-.05.07-.03v.03s.03.06.04.09c.03.07.09.16.15.25.12.19.28.39.43.6.47.64.84,1.43.99,2.24l.08.57c.02.14.05.29.09.46.08.33.19.72.24,1.14.08.65.03,1.32-.11,1.92-.12.61-.33,1.18-.61,1.7-.12.22-.22.46-.37.67-.52.8-.87.91-1.34.81-.11-.02-.23-.04-.32-.08-.32-.13-.36-.61-.17-1.23.33-.9.54-1.84.72-2.57.07-.37.08-.67.03-.97-.03-.3-.19-.67-.33-1.39l-.09-.53c-.03-.12-.06-.25-.1-.36-.07-.24-.19-.46-.33-.69-.16-.23-.3-.49-.61-.76-.15-.15-.32-.31-.55-.68-.1-.16-.25-.45-.31-.82-.06-.43-.02-.81.19-1.27l.06.02Z"/><path class="cls-7" d="M259.04,177.41c0,.48-.14,1.08-.52,1.54-.19.21-.37.4-.61.51-.22.13-.44.23-.69.3-.5.14-1.12.17-1.8.1-.69-.08-1.43-.27-2.14-.48l-1.2-.36c-.31-.09-.61-.19-.9-.3-2.01-.85-4.03-1.7-6.04-2.54-.89-.38-1.83-.59-2.72-.92-1.15-.43-2.35-.59-3.42-1.41-.34-.23-.29-.26.08-.42.26-.13.54-.26.78-.38.16-.07.35-.18.53-.23.18-.03.36-.04.54-.03.65.04,1.3.11,1.95.19.32.04.65.08.96.15l.92.28c1.22.4,2.42.85,3.57,1.43,1.37.69,2.9,1.11,4.33,1.61l.59.2c.13.04.12.05.17.06l.11.04c.15.06.31.12.48.17.33.09.81.26,1.17,0,.2-.18.1-.44,0-.63-.11-.2-.26-.39-.45-.58-.14-.14-.28-.28-.45-.43l-.13-.11-.22-.18-.45-.35c-.61-.46-1.26-.9-1.93-1.27-1.04-.6-2.18-.95-3.27-1.38-.24-.1-.48-.16-.72-.27-.89-.36-1.06-.74-1.07-1.35,0-.14-.02-.28-.01-.4.03-.39.57-.71,1.39-.67,2.37.24,4.55,1.31,6.63,2.59.38.24.77.5,1.14.77.09.07.19.13.28.21l.47.4c.33.26.61.56.91.84.54.58,1.06,1.15,1.35,1.72.31.56.45,1.09.48,1.6l-.07-.02Z"/><path class="cls-7" d="M250.95,181.56c.42.16.84.32,1.25.44.21.07.4.11.59.16.08.01.21.04.24.05.03.01.04.02.06.03.08.02.19.04.28-.02.08-.06.11-.18.09-.28-.02-.09-.05-.14-.14-.24-.15-.21-.37-.43-.58-.65-1.56-1.6-3.75-2.91-5.93-4.01-.97-.5-1.99-.94-3.01-1.31-1.33-.43-2.61-.99-3.92-1.53-.38-.32-.34-.24.08-.43.42-.17,1.19-.36,2.05-.29.75.07,1.51.18,2.21.42.72.21,1.42.44,2.12.7,1.41.49,2.72,1.25,3.99,2.06,1.5,1.02,3.19,1.86,4.58,3.43l.29.38c.12.17.21.35.31.52.18.36.31.73.36,1.1.1.74-.13,1.51-.68,2-.54.49-1.3.67-2.07.62-.42,0-.67-.04-.94-.1-.27-.05-.53-.12-.79-.19-1.24-.36-2.38-.85-3.51-1.33-1.71-.74-3.35-1.58-5.02-2.31-1.29-.57-2.64-.94-3.92-1.45-.28-.11-.57-.19-.85-.31-1.03-.43-1.3-.69-1.32-1.37,0-.15-.03-.3-.02-.44.03-.45.64-.73,1.51-.57,1.29.24,2.6.51,3.82,1.01,1.22.48,2.43,1.02,3.62,1.57,1.76.81,3.51,1.66,5.24,2.29l-.02.06Z"/><path class="cls-7" d="M311.33,241.36c-.99,1.49-2.42,2.78-4.05,3.6-1.64.79-3.38,1.21-5.18,1.21-1.3,0-2.6-.18-3.8-.62-2.11-.79-3.92-2.07-5.42-3.57-1.53-1.48-2.75-3.2-3.78-5-.92-1.59-1.72-3.26-2.36-4.97-.43-1.09-.7-2.25-.87-3.42-.18-1.17-.16-2.38.1-3.53.3-.72.24-.6.56,0,.19.36.39.77.6,1.18.28.47.53,1.01.68,1.6.16.52.33,1.04.52,1.54.09.25.2.5.31.75.07.26.17.51.26.77.37,1.02.8,2.01,1.28,2.99.97,1.95,2.18,3.77,3.55,5.46,1.66,2.01,4.03,3.55,6.49,4.06,1.35.32,2.74.28,4.1-.08,1.37-.33,2.6-1.02,3.61-1.98,1.23-1.2,2.11-2.81,2.66-4.56.85-2.65,1.17-5.56,1.21-8.42.02-2.23-.22-4.42-.41-6.65-.04-.49-.11-.97-.13-1.47-.11-1.84.14-2.45.83-2.84.16-.09.32-.21.48-.26.54-.17,1,.57,1.22,1.89.56,3.94.87,8.19.5,12.59-.14,1.63-.39,3.28-.84,4.93-.44,1.65-1.08,3.3-2.09,4.83l-.06-.03Z"/><path class="cls-7" d="M195.72,457.99c-5.19-.55-10.37-1.3-15.51-2.43-2.57-.56-5.13-1.23-7.67-2.09-2.54-.88-5.07-1.88-7.49-3.59-.3-.24-.59-.49-.89-.74-.15-.14-.28-.23-.45-.4-.17-.2-.34-.41-.49-.62-.32-.43-.44-.8-.66-1.2-.15-.38-.26-.75-.39-1.12-.39-1.45-.56-2.83-.67-4.18-.21-2.71-.16-5.34-.06-7.96.24-5.24.78-10.41,1.4-15.56.94-7.51,2-14.99,3.29-22.43,4.59-26.21,10.43-52.13,16.81-77.91,2.84-11.44,5.8-22.91,8.88-34.2,3.99-14.48,8.05-29.07,13.84-42.98,1.97-4.27,1.92-3.6,1.12.31-.38,1.97-1.01,4.72-1.76,8.04-.78,3.31-1.8,7.15-3,11.29-4.33,14.65-8.42,29.39-12.22,44.24-3.85,14.84-7.56,29.74-11.07,44.77-4.19,17.97-7.8,36.86-10.74,55.49-.8,5.12-1.53,10.25-2.14,15.39-.6,5.13-1.1,10.29-1.24,15.41-.05,2.55-.05,5.13.3,7.55.16,1.18.45,2.44.92,3.15.12.25.68.66,1.07,1.02.5.31.95.68,1.5.95,2.12,1.18,4.52,2.05,6.95,2.78,2.43.74,4.94,1.31,7.46,1.82,6.21,1.24,12.54,2,18.87,2.46,6.34.44,12.71.59,19.03.22,2.39-.14,4.77-.37,7.1-.77,1.16-.19,2.31-.45,3.41-.77,1.05-.35,2.18-.76,2.82-1.35.21-.18.48-.67.68-1.17.21-.49.38-1.05.55-1.6.32-1.12.57-2.28.8-3.45.45-2.34.78-4.73,1.08-7.12,1.14-9.58,1.72-19.24,2.2-28.83.71-14.92.91-29.58,1.19-44.35.05-3.25.1-6.44.15-9.72.14-6.08.28-10.09.55-12.9.3-2.81.65-4.42,1.15-5.71.22-.59.45-1.37.66-1.71.35-.57.63.38.85,2.6.22,2.21.41,5.69.38,10.14-.1,26.44-.51,54.31-2.82,82.35-.48,5.21-1,10.42-1.97,15.7-.25,1.32-.54,2.65-.94,4.02-.21.69-.42,1.38-.77,2.14-.18.39-.35.76-.66,1.21-.12.2-.33.46-.56.7-.12.13-.22.22-.31.29l-.29.23c-1.59,1.17-3,1.58-4.39,1.97-1.39.39-2.74.62-4.09.83-5.39.77-10.68.89-15.97.82-5.28-.08-10.55-.41-15.79-.95l-.02-.08Z"/><path class="cls-7" d="M212.24,50.63c2.48-2.09,5.47-3.5,8.54-4.19l1.69-.34c.56-.14,1.13-.2,1.7-.22,4.03-.25,8.04.7,11.52,2.54,1.58.75,3.04,1.76,4.33,2.93.45.34.79.79,1.18,1.19.38.41.77.81,1.06,1.3.59.95,1.25,1.88,1.27,3.09.04.72.03.61-.56.28-.28-.17-.84-.31-1.21-.6-.38-.29-.89-.56-1.29-.94-.63-.73-1.44-1.29-2.17-1.88l-1.2-.77c-.19-.14-.4-.25-.62-.35-.22-.1-.4-.25-.61-.37-.39-.27-.79-.53-1.23-.73-.43-.21-.84-.47-1.28-.67-.9-.37-1.78-.79-2.74-1.07-2.27-.75-4.82-.72-7.23-.43-2.66.33-5.26,1.21-7.52,2.7-.64.51-1.38.97-1.94,1.53-.29.27-.58.55-.84.88-.27.31-.52.63-.75.98-.72,1.03-1.32,2.17-1.81,3.38-.5,1.2-.87,2.46-1.14,3.73-.41,1.99-.44,4-.39,5.99,0,.44.07.87.07,1.31.01.81,0,1.35-.17,1.73-.2.39-.47.62-.87.83-.18.09-.35.22-.52.28-.29.1-.57,0-.85-.31-.28-.3-.62-.79-.69-1.45-.66-3.86-.29-8.05,1.02-12.09.5-1.5,1.11-2.99,1.97-4.41.84-1.4,1.93-2.79,3.22-3.9l.06.06Z"/><path class="cls-7" d="M281.42,119c-.95,3.41-2.22,6.77-3.94,9.93-1.71,3.16-3.97,6.12-6.69,8.51-1.99,1.74-4.13,3.29-6.47,4.49-4.13,2.09-8.68,3.34-13.29,3.5-2.3.09-4.63-.07-6.89-.59-2.27-.51-4.42-1.33-6.47-2.34-3.61-1.82-6.95-4.21-9.73-7.12-1.76-1.88-3.39-3.93-4.55-6.26-1.19-2.3-2.01-4.83-2.09-7.41-.05-1.6,0-1.36.56-.14.15.3.3.67.56,1.07.3.39.5.85.8,1.32.63.94,1.31,2.01,1.98,3.18.61,1.04,1.32,2.01,2.03,2.97.71.96,1.47,1.89,2.3,2.76,1.66,1.74,3.48,3.32,5.45,4.72,1.97,1.38,4.1,2.56,6.34,3.45,2.23.9,4.55,1.44,6.98,1.64,5.82.46,12.01-1.44,17.04-4.7,2.76-1.81,5.26-4.06,7.21-6.72,1.97-2.65,3.46-5.7,4.63-8.86,1.43-3.91,2.39-8.02,2.98-12.17.44-3.15.7-6.34.69-9.51,0-1.58-.09-3.17-.29-4.69-.07-.35-.12-.8-.19-1.08-.05-.22-.23-.53-.41-.81-.39-.58-.9-1.16-1.44-1.71-3.44-3.42-7.5-6.25-11.16-9.68-.81-.75-1.62-1.5-2.35-2.36-2.75-3.21-3.02-4.9-2.68-5.97.08-.25.14-.55.24-.7.18-.26.49-.02.97.5.5.52,1.17,1.33,2.1,2.38,2.85,3.02,6.23,5.88,9.73,8.83,1.75,1.49,3.52,2.98,5.26,4.75.44.45.87.92,1.3,1.45.42.56.86,1.11,1.24,2.01.09.25.18.53.24.77l.08.48.16.97.19,1.87c.22,3.64.05,7.2-.35,10.75-.41,3.54-1.06,7.06-1.99,10.52h-.08Z"/><path class="cls-7" d="M251.05,76.96c.51.12,1.04.08,1.57.14.53,0,1.06-.03,1.6-.07.39-.06.76-.19,1.15-.24,1.36-.24,2.74-.65,3.99-1.33.54-.33,1.05-.69,1.5-1.11.32-.24.52-.59.82-.85.32-.25.55-.56.9-.83.21-.17.44-.03.6.33.16.34.34,1,.12,1.55-.43.92-1.11,1.69-1.83,2.36-.8.59-1.68,1.03-2.6,1.34-1.11.34-2.15.9-3.3,1.15l-.94.2-.96.09c-.63.08-1.28.04-1.91.04-.39.01-.78-.06-1.17-.1-.39-.05-.78-.07-1.16-.17-1.16-.22-2.3-.59-3.38-1.04-.87-.3-1.72-.62-2.58-1.01-.18-.09-.37-.18-.54-.3-.61-.46-.67-.78-.28-1.43.09-.15.17-.3.27-.44.35-.46.89-.64,1.36-.5,1.34.48,2.51,1.04,3.79,1.48l.71.24c.24.07.49.11.74.18.49.14,1.01.2,1.52.25v.07Z"/><path class="cls-7" d="M229.2,97.98c0,.62-.05,1.26-.15,1.93-.05.34-.14.69-.24,1.06-.17.45-.3.88-.61,1.31-.26.44-.63.78-1.03,1.09-.43.25-.88.49-1.37.55-.48.12-.98.09-1.47.03-.48-.13-.94-.3-1.34-.6-.82-.58-1.38-1.48-1.61-1.97-.31-.58-.53-1.1-.75-1.61-.44-1.01-.85-1.93-1.36-2.73-.37-.59-.81-1.07-1.29-1.49-.26-.19-.51-.38-.77-.55-.28-.12-.53-.33-.81-.4-.96-.38-2.01-.45-3.04-.03-1.02.39-1.98,1.14-2.71,2.1-1.48,1.92-1.97,4.61-1.29,7.04.64,2.16,2.17,4.09,4.07,5.36,1.19.87,2.58,1.44,3.99,1.8.7.19,1.43.34,2.17.37.19.01.38.05.56.04l.56-.04.58-.04c.18-.05.37-.09.55-.16.91-.29.9-.15.21.42-.18.13-.38.36-.65.52-.3.19-.62.38-.96.59-.37.21-.8.36-1.27.52-.48.16-.98.17-1.53.21-.95.04-1.92-.11-2.8-.44l-.68-.22-.64-.29c-.43-.2-.87-.38-1.26-.64-1.66-.9-3.03-2.28-4.1-3.86-1.06-1.59-1.78-3.45-1.98-5.41l-.02-1.47c0-.49.12-.97.19-1.45.12-.96.5-1.89.91-2.76,1.07-2.03,2.66-3.92,4.99-4.88,1.14-.47,2.46-.67,3.73-.48.64.08,1.24.29,1.82.51.55.29,1.11.56,1.56.94,1.07.78,1.91,1.82,2.54,2.86.64,1.05,1.1,2.14,1.54,3.14.22.51.44.96.67,1.37.21.34.32.49.53.62.42.21,1.01.02,1.19-.51.03-.1.07-.15.1-.28l.09-.4c.05-.29.09-.58.11-.89.05-.62.04-1.26,0-1.91-.03-.65-.09-1.31-.17-1.98l-.13-1-.18-1.21-.08-.55c-.05-.37.01-.67.04-.98.14-.3.44-.45.74-.63.62-.3,1.47-.57,1.82-.72.92-.35,1.81-.73,2.68-1.17,1.74-.87,3.38-1.92,4.84-3.18,2.34-2.01,4.09-4.54,5.37-7.26.28-.6.51-1.21.76-1.83.89-2.3,1.22-3.02,2.15-3.34.21-.07.42-.19.62-.22.64-.1.92,1.09.42,3.04-.75,2.88-2.11,5.75-4.05,8.28-1.93,2.53-4.44,4.68-7.21,6.31-1.18.7-2.41,1.31-3.66,1.83l-.94.38-.23.09-.12.04h-.01s-.03,0-.03.01v.02s.09.62.09.62l.2,1.47c.12.99.21,2,.21,3.08h-.08Z"/><path class="cls-7" d="M239.68,182.72c1.25.31,2.46.66,3.65,1l1.77.51,1.58.44c.25.09.41.07.67.12.12.02.28.06.41,0,.19-.14.07-.33,0-.48-.1-.16-.24-.33-.41-.51l-.14-.14-.34-.29c-.26-.21-.51-.41-.78-.61-.53-.4-1.08-.78-1.65-1.14-1.16-.73-2.41-1.33-3.67-1.85-1.64-.62-3.27-1.13-4.94-1.71-.53-.17-.46-.38.05-.66.26-.15.63-.3,1.08-.44.46-.14,1-.23,1.55-.15.99.09,1.94.35,2.86.66.92.31,1.83.65,2.69,1.09.86.44,1.7.92,2.51,1.46.4.27.8.55,1.19.85l.58.46.7.58c1,.82,1.87,1.72,2.35,2.57.26.43.39.82.45,1.23.08.4,0,.84-.25,1.29-.36.35-.64.55-1.06.68-.4.14-.91.18-1.47.16-.92-.05-2-.29-2.95-.53-.69-.18-1.25-.34-1.86-.52l-3.58-1.05c-.73-.2-1.46-.4-2.18-.56-.36-.08-.72-.16-1.07-.21-.33-.06-.76-.1-.97-.11-.06,0-.12,0-.17,0-.15-.02-.29.07-.38.17-.05.05-.1.11-.14.17l-.21.29c-.31.44-.65.93-1.03,1.38-.76.92-1.69,1.73-2.73,2.33-1.7.97-3.58,1.56-5.47,1.69-.41.02-.82.07-1.24.05-1.54-.07-2-.34-2.23-1.04-.05-.16-.13-.31-.15-.46-.07-.49.58-.85,1.59-.95,3.03-.37,5.91-.84,7.72-2.77.39-.39.74-.84,1.12-1.38l.3-.43.18-.25c.1-.14.21-.28.32-.41.43-.53,1.03-.9,1.69-1.01,1.27-.09,1.68,0,2.34.09.61.09,1.18.21,1.75.33v.07Z"/><path class="cls-7" d="M227.21,167.7c1.8-1.41,3.74-2.71,5.86-3.75,2.13-1,4.46-1.78,6.9-1.91,1.77-.12,3.52-.02,5.19.33,2.96.62,5.72,1.75,8.3,3.18,1.29.72,2.52,1.52,3.7,2.43.29.23.59.46.87.71.3.26.51.44.96.88.76.77,1.43,1.62,1.6,2.46.06.19.05.38.04.56-.01.19-.04.39-.12.59-.1.18-.26.32-.39.44l-.21.19c-.08.05-.18.08-.27.12-.36.16-.76.25-1.16.34-.44.02-.9.05-1.35.02l-.68-.07c-.23-.02-.47-.05-.61-.08-.32-.06-.65-.11-.97-.19-.64-.14-1.26-.3-1.88-.47-1.58-.43-3.13-.96-4.64-1.57-1.5-.62-3.01-1.26-4.25-2.41-.78-.7-.69-.56.22-.51.44.05,1.16-.08,1.9,0,.38.03.8.03,1.21.1.41.09.83.2,1.26.35,1.51.53,3.05.96,4.56,1.4.76.21,1.51.39,2.25.55l.95.17c.06.01.11.03.12.03.03.01.13.05.19,0,.04-.05.02-.11-.01-.19l-.03-.06c-.08-.09-.25-.24-.38-.36-.27-.25-.57-.49-.86-.73-.59-.48-1.23-.94-1.87-1.38-3.12-2.1-6.94-3.52-10.68-3.97-4.1-.62-8.17.89-11.75,3.28-2.2,1.47-4.27,3.2-6.22,5.07-2.96,2.83-5.76,5.89-8.45,8.99-2.09,2.41-4.03,4.89-6.18,7.26-.47.52-.93,1.04-1.42,1.55-.47.47-.87.84-1.22,1.14-.36.29-.69.48-.97.63-.56.29-.98.35-1.38.3-.19-.02-.4-.01-.53-.07-.46-.17.09-1.16,1.25-2.63,3.71-4.11,7.41-8.71,11.41-13.2,2.97-3.34,6.09-6.65,9.68-9.57l.05.05Z"/><path class="cls-7" d="M195.09,196.42c.71-1.28,1.46-2.63,2.63-3.9.57-.63,1.31-1.23,2.18-1.65.87-.41,1.85-.62,2.75-.61,1.38.04,2.48.32,3.55.69,1.85.69,3.52,1.58,5.15,2.54,1.62.97,3.18,2.01,4.67,3.15,1.34.98,2.62,2.07,3.84,3.18,1.54,1.43,3.2,2.96,3.67,5.22.35.55.17.56-.28.21-.42-.39-1.83-.55-2.68-1.28-1.51-1.32-3.07-2.59-4.69-3.79-1.58-1.25-3.19-2.52-4.89-3.7-2.02-1.42-4.45-2.43-6.73-3.09-.3-.06-.62-.16-.9-.2-.27-.02-.55-.09-.82-.06-.54,0-1.04.12-1.51.37-.94.49-1.76,1.52-2.48,2.67-.88,1.43-1.66,3.02-2.49,4.6-1.25,2.4-2.74,4.77-4.57,6.85-1.41,1.62-2.96,3.13-4.77,4.34-.4.26-.79.52-1.21.76-1.65.7-2.28.62-2.86.08-.13-.12-.28-.23-.37-.35-.3-.41.17-1.12,1.13-1.79.69-.55,1.41-1,2.1-1.51.69-.5,1.36-1.03,1.98-1.61,1.28-1.13,2.42-2.44,3.44-3.89,1.53-2.15,2.76-4.62,4.1-7.25l.07.03Z"/><path class="cls-7" d="M293.75,191.08c-1.49-.94-3.23-1.75-4.97-2.49-1.75-.73-3.55-1.4-5.37-2-1.33-.44-2.69-.77-4.03-1.14-1.18-.33-2.37-.63-3.56-.89-.59-.13-1.19-.24-1.78-.33-.29-.05-.59-.08-.88-.11l-.62-.05c-.22,0-.49-.03-.71.11-.17.19-.07.48.03.7.06.11.14.22.23.32l.21.21c.1.09.21.17.31.26.44.33.93.64,1.45.91,1.87.97,4,1.6,6.1,2.17,1.36.36,2.74.68,4.1,1.11,1.37.43,2.76.88,4.01,1.85.34.41.41.67.33.74-.09.1-.34.05-.8.16-.45.1-1,.14-1.66.18-.66.05-1.4.01-2.17-.19-2.76-.64-5.57-1.46-8.39-2.53-1.41-.56-2.82-1.19-4.2-2.18-.36-.28-.64-.49-1.06-.91-.45-.49-.83-1.03-1.08-1.59-.1-.28-.19-.57-.25-.85,0-.28-.09-.57-.03-.83,0-.54.3-1.08.73-1.38.5-.37,1.19-.54,1.94-.59.37-.03.75-.02,1.12,0l.72.06c.94.09,1.85.23,2.76.39,1.81.32,3.59.73,5.33,1.22,3.82,1.11,7.56,2.43,11.18,4.17,1.11.55,2.21,1.14,3.28,1.93.27.21.53.42.79.69.13.14.26.28.38.45.12.16.17.29.26.44l.49.85c.15.29.26.58.39.88,1.48,3.57,1.89,7.28,2.49,10.87.44,2.79.96,5.51,1.61,8.16.16.58.3,1.15.47,1.71.6,2.12.69,2.72.23,3.47-.1.17-.19.37-.3.5-.19.22-.48.17-.85-.15-.19-.16-.39-.39-.61-.68-.2-.29-.36-.65-.55-1.07-1.01-2.47-1.51-5.05-1.97-7.62-.45-2.58-.79-5.17-1.24-7.7-.33-1.88-.72-3.73-1.31-5.41-.13-.44-.31-.82-.48-1.22-.15-.42-.37-.75-.57-1.11l-.15-.27c-.06-.12-.05-.07-.09-.14-.06-.08-.19-.2-.32-.31-.27-.23-.63-.48-1-.71l.03-.06Z"/><path class="cls-7" d="M268.56,195.36c-.84-.4-1.4-.87-1.66-1.37-.16-.25-.19-.52-.26-.87-.05-.18.02-.37.07-.54.05-.16.11-.32.17-.44.29-.51.82-.88,1.59-1.18.74-.31,1.77-.46,2.72-.59l1.51-.16c.42-.04.84-.07,1.26-.08,2.95-.03,5.85.15,8.74.48,1.29.13,2.58.25,3.85.38.82.1,1.65.14,2.47.34.81.19,1.65.39,2.37.97.39.51.31.45-.23.75-.27.16-.62.32-1.02.5-.4.15-.82.21-1.27.18-.8-.04-1.58-.15-2.38-.26l-2.41-.28c-1.62-.18-3.25-.34-4.89-.56-1.97-.26-4.03-.13-6.01-.04-1.39.09-1.44.07-1.98.14-.23.04-.5.09-.72.24-.12.07-.15.23-.08.32.06.1.14.17.24.23.24.15.52.27.82.38l.51.17.98.25c2.01.49,4.07.92,6.13,1.26,1.6.27,3.19.39,4.82.65.36.06.71.1,1.08.19,1.34.32,1.79.72,1.78,1.42,0,.16,0,.32-.04.46-.2.46-.67.58-1.56.46-2.67-.36-5.68-.73-8.66-1.28-1.11-.2-2.23-.42-3.36-.67-.56-.12-1.13-.26-1.7-.41-.93-.26-2.08-.55-2.93-.98l.06-.04Z"/><path class="cls-7" d="M277.61,200.6l3.85,1.09c.46.14.94.26,1.37.41l.66.21.58.23.29.11.22.13c.14.08.29.17.41.25l.52.51c.12.16.22.31.29.48.04.09.08.17.11.3.02.13.04.3.01.46-.11.58-.38.81-.7,1.13-.35.29-.88.57-1.58.81-.76.22-1.65.39-2.56.53l-2.99.46-2.22.4-1.98.37c-.17.04-.34.09-.52.17-.16.08-.39.22-.36.41.12.22.39.3.65.38.13.04.28.08.42.11.18.03.2.05.68.11,1.54.19,3.12.28,4.7.35,1.18.05,2.37.05,3.57.08h.9s.47.02.47.02c.22,0,.44.02.67.05.46.01.8.35,1.11.65.15.16.27.36.4.55l.26.45c.77,1.36,1.46,2.59,2.39,3.61.95.96,2,1.77,3.39,2.15.85.24.8.43-.06.75-.22.09-.49.17-.81.21-.33.07-.7.1-1.12.06-.86,0-1.83-.37-2.65-1.03-1.44-1.17-2.48-2.65-3.25-4.01-.55-.9-.34-.58-.39-.66.14,0-.44,0-.78,0h-1.16c-1.56.02-3.14-.09-4.73-.21-.8-.07-1.59-.15-2.4-.25l-1.25-.18c-.69-.11-1.38-.23-1.99-.4-.43-.1-.79-.24-1.16-.37-.33-.15-.65-.31-.9-.49-.56-.36-.82-.73-1.2-1.31.02-.42.14-.87.29-1.19.19-.32.41-.62.73-.88.6-.53,1.57-.98,2.68-1.29.28-.07.55-.16.84-.22l.73-.16,1.05-.2c.7-.12,1.4-.23,2.09-.32l2.81-.4c.29-.05.6-.1.91-.21.14-.04.34-.19.23-.33-.09-.1-.23-.14-.35-.2-.43-.17-.9-.31-1.42-.46l-3.5-.94c-1.26-.35-2.52-.7-3.78-1.12l-.72-.25c-.27-.09-.65-.25-.97-.38-.67-.27-1.27-.58-1.8-.92-.5-.35-.89-.71-1.16-1.15-.13-.21-.25-.47-.24-.76.01-.14.02-.29.06-.43.05-.15.13-.25.2-.37.31-.4.78-.62,1.31-.83.56-.18,1.2-.32,1.89-.38.34-.04.69-.07,1.03-.09l.49-.03h.38s1.49-.02,1.49-.02c3.07.04,6.07.09,9.1.32.67.06,1.32.09,1.99.18,2.49.31,3.28.77,3.63,1.51.08.17.2.35.22.51.04.26-.21.41-.66.49-.46.08-1.15.11-2.03.01-2.61-.23-5.32-.39-8.06-.5-1.37-.05-2.75-.02-4.11.02l-1.02.05-.89.06c-.06,0-.02,0-.03,0,0,0-.05,0-.02.03,0,0,0,0,0,0l.29.11.71.25,1.46.47c.98.3,1.99.59,3,.86v.07Z"/><path class="cls-7" d="M300.46,220.54c-1.23.47-2.49.86-3.75,1.24-.46.13-.9.34-1.37.45-1.65.41-3.35.68-5.06.82-.77,0-1.53.08-2.3.03-.97,0-2.07-.17-2.81-.96-.21-.26-.15-.26.18-.4.16-.06.41-.24.63-.29.23-.09.45-.12.7-.17,1.65.05,3.33-.27,5.17-.41,1.1-.11,2.17-.57,3.25-.94,1.18-.41,2.37-.84,3.54-1.32.73-.29,1.45-.58,2.16-.92,1.08-.5,2.16-.99,3.17-1.61.78-.48,1.47-1.09,2.17-1.67.16-.13.3-.27.46-.39.61-.43.92-.37,1.42.12.12.11.24.22.34.34.35.41.32.95-.05,1.41-1.15,1.3-2.67,2.21-4.23,3.04-1.17.61-2.38,1.14-3.6,1.66l-.03-.06Z"/><path class="cls-7" d="M306.68,445.69c2.48-.62,4.94-1.32,7.36-2.12,2.42-.78,4.82-1.63,7.14-2.62,2.31-.98,4.57-2.09,6.54-3.42.95-.67,1.86-1.41,2.4-2.14.09-.17.26-.36.31-.5.02-.07.05-.14.09-.2l.07-.3c.1-.41.12-.97.12-1.52-.04-2.29-.6-4.81-1.2-7.26-.62-2.47-1.35-4.94-2.13-7.4-1.56-4.92-3.3-9.81-5.08-14.69-2.6-7.12-5.4-14.19-8.09-21.29-9.49-25.04-18.89-50.2-26.39-75.98-3.32-11.44-6.35-23.04-8.57-34.68-1.46-7.47-2.49-15.07-3.13-22.64-.67-7.57-1.07-15.29.12-22.86.23-1.17.43-2.01.55-2.54.12-.53.17-.77.18-.73.03.07-.14,1.22,0,3.23.13,2.01.4,4.84.8,8.23.22,1.69.46,3.53.71,5.47.2,1.95.41,4.02.64,6.17.36,3.81.86,7.65,1.3,11.46.45,3.79,1.01,7.58,1.68,11.35,1.34,7.55,3.01,15.06,4.91,22.52,3.81,14.93,8.44,29.72,13.4,44.47,5.93,17.65,13.12,35.68,19.94,53.51,3.71,9.82,7.48,19.62,10.64,29.72.78,2.53,1.51,5.08,2.1,7.7.3,1.31.55,2.63.72,4,.16,1.37.31,2.76.03,4.34l-.13.6c-.06.21-.15.42-.23.63-.16.44-.41.73-.62,1.09-.47.64-.98,1.2-1.52,1.67-1.08.97-2.23,1.76-3.4,2.46-2.35,1.4-4.79,2.52-7.26,3.53-6.09,2.47-12.41,4.19-18.79,5.53-6.39,1.31-12.88,2.21-19.46,2.26-2.49.01-5-.1-7.51-.5l-1.88-.36-.94-.25c-.33-.1-.57-.12-1.01-.32-.8-.33-1.38-.83-1.87-1.33-.5-.5-.91-1.04-1.28-1.58-1.47-2.17-2.47-4.47-3.41-6.78-.93-2.31-1.72-4.65-2.48-7-2.96-9.4-5.18-18.94-7.31-28.42-3.26-14.76-6.2-29.28-8.94-43.95-.6-3.23-1.18-6.4-1.78-9.66-2.11-12.11-2.49-16-1.99-18.76.12-.63.2-1.44.36-1.82.53-1.28,1.95,3.56,3.65,12.38,2.52,13.09,5.05,26.54,7.77,40.13,2.75,13.58,5.61,27.36,9.28,40.86,1.38,5,2.87,9.98,4.74,14.7.94,2.32,2,4.68,3.27,6.46.16.22.32.4.48.61.16.14.32.36.46.46l.2.17c.06.03.11.06.16.1.05.04.06.01.08.04-.04.01.21.06.32.1,1.12.31,2.29.56,3.51.7,4.87.62,10.04.35,15.12-.25,5.1-.62,10.18-1.59,15.18-2.88l.05.08Z"/><path class="cls-7" d="M283.16,169.57c.43-1.18.82-2.38,1.15-3.6.11-.45.17-.91.29-1.35.4-1.58.74-3.18,1.03-4.8.11-.72.19-1.45.22-2.16.03-.93.09-1.84.33-2.78.11-.3.1-.26.26-.02.2.23.53.69.63,1.24l.14.74c.04.25.02.49.03.73.01.49,0,.98-.02,1.46-.05.97-.13,1.95-.37,2.9-.27,1.14-.36,2.36-.6,3.53-.25,1.29-.58,2.56-.96,3.83-.21.78-.5,1.54-.74,2.32l-.64,1.73c-.24.57-.48,1.14-.7,1.71-.37.88-.69,1.77-1.14,2.63-.1.19-.17.39-.3.57-.46.66-.72.79-1.23.61-.11-.04-.23-.07-.34-.13-.35-.19-.44-.64-.25-1.14.55-1.49,1.1-3,1.79-4.52.49-1.13.95-2.3,1.36-3.5h.05Z"/><path class="cls-1" d="M409.34,199.07c.18,1.13,3.85,10.16,8.94,15.25,5.22,5.22,11.72,6.92,11.72,6.92,0,0-8.11,7.05-9.7,6.59s-19.12-16.57-20.57-20.32c-1.45-3.75-2.06-5.99-2.06-5.99l11.68-2.44Z"/><path class="cls-7" d="M417.07,225.94c-1.02-.44-2-.98-2.89-1.59-.33-.22-.68-.41-.99-.65-1.11-.84-2.04-1.88-2.97-2.85-.42-.43-.83-.86-1.24-1.3-.55-.53-1-1.15-1.43-1.79-.13-.2-.05-.23.16-.16.21.07.6.21.97.46.66.43,1.19.98,1.77,1.47.57.5,1.13,1.01,1.69,1.53.67.62,1.48,1.1,2.24,1.62.84.56,1.71,1.07,2.63,1.47.56.25,1.15.47,1.74.63.9.25,1.83.43,2.76.41.72-.01,1.41-.21,2.06-.43l.43-.14c.55-.12.74-.09,1.02.31.06.09.13.17.19.26.18.3.03.66-.4.94-1.29.82-2.95.89-4.46.71-1.14-.14-2.24-.46-3.29-.88v-.04Z"/><path class="cls-7" d="M422.95,224.63c2.08-1.09,4.13-2.4,6.08-3.78.49-.35.96-.7,1.42-1.06.16-.13.1-.07.15-.11l.08-.05.15-.12c.09-.06.27-.25.08-.28l-.39-.23-1.09-.66c-.41-.25-.8-.52-1.2-.78-.78-.54-1.53-1.12-2.24-1.75-4.99-4.46-8.35-10.15-11.16-15.91l-.63-1.33c-.05-.24-.26-.09-.41-.04l-.52.19c-1.34.46-2.67.92-4.02,1.35-1.74.53-3.5,1.01-5.3,1.35-.45.09-.9.16-1.35.23l-1.37.1c-.91.05-1.83.07-2.74,0-1.14-.09-.98-.11-.07-.46.46-.16,1.1-.49,1.86-.81.39-.17.8-.35,1.22-.54.21-.1.44-.17.66-.29.23-.07.47-.14.71-.21,1.72-.46,3.41-1.05,5.09-1.68.84-.33,1.69-.6,2.54-.92l1.28-.47.64-.24.62-.23c.21-.07.44-.21.62-.19l1.13-.09.28-.02h.14s.04-.01.04-.01h.02s0,0,0,0c.06-.15-.08.2-.06.16h.07c.16.07.36.04.49.16.28.23.5.62.7,1.01.19.38.41.85.52,1.1.37.83.73,1.65,1.12,2.46.76,1.63,1.62,3.21,2.54,4.76,2.2,3.7,5.25,7.07,8.71,9.62.48.35.96.68,1.46,1,.53.33.86.54,1.86,1.05,1,.41,1.78.99,2.05,1.47.1.11.12.38.09.55-.03.18-.09.36-.17.54-.16.35-.4.71-.74,1.06-.32.35-.69.68-1.07,1.01-.17.15-.41.35-.53.44l-.38.3c-.51.4-1.02.77-1.54,1.14-1.03.74-2.09,1.44-3.16,2.11-1.32.82-2.67,1.61-4.11,2.3-.36.17-.73.34-1.11.49-.41.15-.71.3-1.33.43-.28.09-.56.02-.84.01-.29-.04-.55-.15-.75-.2-.39-.15-.78-.29-1.14-.45-2.22-.99-4.24-2.27-6.14-3.71-.96-.7-1.84-1.5-2.75-2.26-.84-.83-1.74-1.6-2.51-2.49-2.48-2.68-4.71-5.54-6.5-8.71-.39-.7-.75-1.4-1.1-2.12-1.29-2.7-1.26-3.74-.86-4.55.1-.19.18-.41.3-.54.37-.42,1.29.51,2.21,2.36,1.48,2.7,3.04,5.41,5,7.87.98,1.23,1.98,2.44,3.09,3.57.52.6,1.09,1.14,1.66,1.68.55.56,1.16,1.07,1.76,1.58,1.79,1.5,3.73,2.86,5.76,3.93.5.28,1.02.5,1.52.73.24.09.52.22.71.27.07.02.08.03.08.03h.01s.01.01.02.01c.02,0-.02,0,.05-.01.11-.03.23-.08.35-.12.24-.09.49-.19.75-.31.51-.23,1.03-.49,1.55-.77l.04.06Z"/><path class="cls-7" d="M408.37,205.95c3.34,4.41,6.78,8.75,10.35,12.98.83.98,2.24-.44,1.41-1.41-3.47-4.1-6.8-8.29-10.04-12.57-.33-.43-.86-.65-1.37-.36-.42.25-.69.94-.36,1.37h0Z"/><path class="cls-7" d="M413.53,205.71c-1.89-.72-4.16.09-5.26,1.77-.5.77-.66,1.77-.32,2.63.42,1.05,1.39,1.75,2.43,2.1.81.27,1.66.27,2.51.28.73.01,1.46.05,2.19.13.79.08,1.71.24,2.5.57.13.06.59.32.67.38.21.19.34.34.41.68-.04-.18,0,.1,0,.13.02-.21,0,.04-.03.09-.03.08-.04.1-.12.18-.21.22-.53.42-.84.55-.94.4-1.95.53-2.95.54-1.29,0-1.29,2.01,0,2,1.73-.01,3.95-.34,5.2-1.67,1.37-1.47.59-3.56-1.02-4.45s-3.46-1.02-5.19-1.1c-.67-.03-1.35,0-2.01-.06-.27-.03-.73-.13-1.05-.28-.18-.09-.35-.2-.51-.34-.07-.06-.16-.15-.21-.22.07.09-.17-.3-.09-.13-.03-.06-.05-.13-.06-.2-.02-.12-.03-.13-.01-.03,0-.07,0-.13,0-.2-.03.18.13-.39.07-.28.16-.34.39-.6.68-.81.75-.54,1.61-.65,2.48-.32.5.19,1.1-.21,1.23-.7.15-.56-.19-1.04-.7-1.23h0Z"/><path class="cls-3" d="M368.62,124s7.48,4.94,8.75,4.94c4.69,0-8.82,26.74-17.56,30.81,0,0-13.16-3.45-10.71-8.59,2.44-5.14,5.14-3.33,9.22-8.6,4.07-5.27,10.31-18.56,10.31-18.56Z"/><path class="cls-7" d="M377.22,142.73c.93-1.76,1.78-3.55,2.48-5.36.35-.91.67-1.82.9-2.74.13-.46.22-.91.31-1.36l.1-.67c.02-.11.02-.22.03-.33,0-.12,0-.07.01-.11.02-.08-.02-.15-.07-.21-.04-.04-.02-.03-.13-.12-.1-.08-.23-.17-.36-.26-.53-.36-1.15-.7-1.77-1.04-1.74-.93-3.63-1.74-5.45-2.71-.77-.42-1.54-.86-2.3-1.33-.38-.24-.76-.48-1.13-.74l-.14-.1-.04-.03-.07-.06s-.1-.08-.15-.14c-.08-.06-.16-.13-.24-.21l-.12-.13s-.06.07-.08.1l-.25.6-.64,1.71-.76,1.92c-1.04,2.55-2.22,5.04-3.56,7.46-1.55,2.82-3.33,5.56-5.41,8.02-1.34,1.58-2.81,3.08-4.47,4.36-.83.63-1.75,1.17-2.68,1.65-.47.24-.94.45-1.42.65-.49.19-1.01.3-1.52.41-1.31.17-1.09.2-.25-.52.81-.81,2.21-2.2,3.8-3.7,3-2.46,5.45-5.57,7.52-8.95,2.15-3.34,3.95-6.95,5.55-10.7.24-.57.48-1.16.7-1.75l.33-.89.43-1.25c.34-.99.66-2.31,1.34-2.38l.22-.06s.07-.02.12-.03h.01s0,0,0,0c-.04-.12.08.27-.08-.27h0s.01,0,.01,0h.03s.05,0,.05,0c.14,0,.27-.01.42,0l.59.22c.09.01.21.11.32.2l.34.26c.43.35.83.73,1.25,1.06l.47.33.37.25c.49.33,1.01.64,1.53.94,1.04.61,2.13,1.17,3.22,1.74,1.2.62,2.43,1.2,3.66,1.87.62.33,1.24.67,1.87,1.11.16.11.31.22.49.37.2.17.42.36.59.57.18.21.33.43.43.69.1.25.12.52.14.79l-.04.76c-.01.2-.05.39-.07.58-.04.39-.12.77-.19,1.14-.15.75-.35,1.48-.57,2.19-.45,1.42-.99,2.79-1.58,4.14-1.42,3.21-3.13,6.25-4.97,9.2-1.4,2.23-2.9,4.41-4.51,6.49-1.64,2.08-3.28,4.13-5.46,5.87-.42.31-.85.63-1.54.9-.59.16-1.32.02-1.71-.05-.47-.08-.9-.19-1.35-.3-.88-.22-1.74-.46-2.59-.74-1.7-.54-3.38-1.16-5.02-1.9-.82-.37-1.63-.74-2.44-1.19-1.48-.86-2.4-1.55-2.93-2.18-.55-.6-.71-1.13-.7-1.66,0-.24-.02-.52.04-.71.25-.65,1.44-.06,3.36,1.07,2,1.17,4.2,2.14,6.48,2.99,1.14.43,2.3.83,3.47,1.18.58.17,1.17.34,1.74.47.29.08.55.12.82.17.12.02.08,0,.1,0-.14.08.41-.25.73-.52.37-.3.75-.65,1.13-1.02.76-.74,1.49-1.57,2.21-2.43,3.41-4.14,6.47-8.81,8.99-13.63l.07.03Z"/><path class="cls-7" d="M363.67,149.97c2.04-2.3,3.84-4.79,5.37-7.45,1.41-2.46,2.61-5.02,3.85-7.56.57-1.15-1.16-2.17-1.73-1.01-2.55,5.18-5.05,10.25-8.91,14.61-.85.96.56,2.38,1.41,1.41h0Z"/><path class="cls-7" d="M373.85,138.26c-.04-2.12-1.84-3.28-3.81-3.32-1.74-.03-3.78.78-3.93,2.76-.07.93.31,1.84.72,2.65.43.87.97,1.68,1.45,2.53.11.2.22.39.32.59.04.09.08.17.13.26,0,.01.06.15.02.05s.02.07.03.08c.03.08.05.16.07.23.01.04.06.27.04.12s0,.11,0,.16c0,.11,0,.22-.01.33.03-.25-.16.4-.04.15-.03.07-.08.14-.11.21-.08.15,0,.03.02,0-.03.04-.07.08-.1.12-.06.06-.11.11-.17.16.13-.11.01-.01-.06.03s-.14.08-.21.12c-.01,0-.14.07-.03.02s-.06.02-.08.03c-.2.06-.39.12-.6.16-.04,0-.09.02-.13.02.1-.01.08,0,0,0-.13,0-.25.02-.38.02-.23,0-.45,0-.67-.03-.16-.02.04.02-.17-.03-.11-.02-.22-.04-.34-.07-.22-.05-.44-.12-.65-.2-.05-.02-.09-.03-.13-.05-.15-.06.12.06-.02-.01-.11-.05-.23-.11-.33-.17-.09-.05-.19-.11-.28-.16-.05-.03-.25-.18-.19-.13s-.12-.11-.16-.15c-.08-.08-.16-.16-.23-.25-.35-.41-1.06-.36-1.41,0-.41.41-.35,1,0,1.41,2,2.38,8.04,2.88,8.49-1.1.2-1.75-1.13-3.32-1.93-4.76-.18-.32-.46-.87-.55-1.06s-.14-.38-.2-.58c-.03-.09-.05-.18-.07-.28-.02-.12-.02-.12,0,0,0-.06,0-.12-.01-.18,0-.09,0-.17,0-.25-.02.25,0-.01.03-.06.11-.25-.09.19.02-.06.02-.04.18-.23.04-.07.05-.05.09-.1.14-.14.17-.16-.18.1.03-.02.07-.04.13-.08.2-.12.23-.13-.02,0,.13-.06.19-.07.39-.12.59-.17.03,0,.32-.05.09-.02.12-.02.25-.03.37-.03.22,0,.44,0,.66.02.3.03-.19-.04.1.02.12.03.24.05.36.09.31.09.53.22.75.45.18.19-.08-.16.05.07.02.04.16.35.09.16.03.09.06.18.08.27.02.12.02.13,0,.03,0,.07,0,.14,0,.21.02,1.29,2.02,1.29,2,0h0Z"/><path class="cls-6" d="M90.98,160.77c2.76,10.46,7.79,5.05,10.4,3.69s16.06-13.3,18.59-16.94c2.53-3.64-4.53-15.48-4.05-14.78s-5.57,7.95-10.94,12.89-16.61,9.22-16.61,9.22l2.6,5.93Z"/><path class="cls-7" d="M105.42,133.57c.67-.94,1.29-1.93,1.91-2.92l.9-1.51.22-.38.39-.7.79-1.43,1.19-.93c.16-.22.51-.14.71-.11.24.05.48.14.72.28.5.27.99.78,1.45,1.29l1.2,1.33c1.03,1.27,1.94,2.61,2.82,3.97,1.12,1.75,2.24,3.5,3.13,5.44.77,1.71,1.43,3.5,1.63,5.6.04.53.04,1.08-.04,1.67-.04.29-.11.6-.2.88l-.31.77c-.21.5-.47.89-.7,1.33l-.78,1.19c-2.16,3.03-4.67,5.66-7.38,8.07-2.4,2.14-4.98,4.08-7.66,5.8-1.71,1.12-3.51,2.13-5.39,2.94-1.87.83-3.83,1.51-5.89,1.73-1.27.16-1.09.14-.18-.48.46-.3,1.06-.84,1.83-1.34.37-.28.76-.61,1.19-.9.44-.28.91-.54,1.4-.8,3.45-1.99,6.79-4.11,9.85-6.65,3.06-2.52,6.02-5.22,8.55-8.28.75-.91,1.45-1.88,2.02-2.87l.39-.73.25-.66c.1-.36.11-.84.05-1.35-.12-1.03-.49-2.16-.94-3.25-.44-1.1-.98-2.2-1.54-3.28-.99-1.87-2.12-3.7-3.35-5.45-.31-.44-.62-.87-.94-1.29l-.22-.33-.17-.24-.21-.26c-.14-.17-.29-.35-.47-.5-.12-.12-.16.08-.22.15l-.17.29-1.44,2.42c-1.8,2.96-3.76,5.86-6.06,8.5-1.74,2.01-3.69,3.85-5.83,5.44-2.13,1.6-4.44,2.94-6.8,4.1-.54.25-1.07.5-1.6.74-.39.17-.77.33-1.15.5l-.48.23c-.08.05-.04.17,0,.25.04.09.09.17.13.25.1.16.2.31.3.45l.15.22.28.45c.76,1.2,1.51,2.45,2.15,3.76.4.81.79,1.62,1.11,2.49,1.15,3.24.91,4.47.24,5.26-.16.18-.3.41-.45.52-.49.35-1.19-.88-1.91-2.98-.66-1.89-1.55-3.72-2.6-5.52l-.81-1.35-.43-.68-.6-.98c-.55-.91-1.08-1.9-1.01-2.7.02-.2.04-.39.11-.61.04-.11.08-.21.13-.29l.24-.21.96-.84,1.74-.78c.36-.15.41-.2.59-.29.16-.09.32-.16.48-.23.65-.29,1.29-.57,1.92-.9.64-.31,1.26-.63,1.87-.99.62-.33,1.22-.7,1.81-1.09,4.41-2.79,8.05-6.72,11.07-11.22l.06.03Z"/><path class="cls-7" d="M99.07,154.54c5.57-3.24,10.02-7.9,15.16-11.72,1.02-.76.03-2.49-1.01-1.73-5.14,3.81-9.6,8.48-15.16,11.72-1.11.65-.11,2.38,1.01,1.73h0Z"/><path class="cls-7" d="M113.03,146.62c-.02-1.8-.75-3.68-2.49-4.45-1.44-.64-3.19-.28-4.06,1.1-.44.71-.51,1.52-.48,2.34s.04,1.66,0,2.5-.13,1.56-.38,2.34c-.1.31-.2.54-.42.84-.08.11-.35.33-.49.37-.29.1-.55.11-.91.02s-.86-.41-1.23-.69c-.68-.51-1.64-1.42-1.67-2.27-.05-1.28-2.05-1.29-2,0,.07,2.05,2.05,3.9,3.82,4.68s3.62.13,4.47-1.56c.8-1.6.86-3.51.83-5.26,0-.38-.02-.75-.03-1.13-.01-.41-.01-.6.08-.9.02-.08.03-.09.13-.27.14-.23-.13.12.06-.08.04-.04.08-.08.12-.12.19-.18-.1.06.03-.03.06-.04.12-.07.18-.11.23-.13-.12.04.03-.02.09-.03.19-.06.28-.08.05-.01.19-.02-.01,0,.1,0,.2,0,.3,0,.06,0,.25.03.04,0,.09.02.17.04.26.06.21.05.1,0,.36.15.22.13.2.11.35.26.55.56.8,1.38.81,2.3.02,1.29,2.02,1.29,2,0h0Z"/><path class="cls-5" d="M137.19,309.02c-1.26,4.33-4.76,10.73-9.18,14.83-3.7,3.44-14.43,8.18-14.43,8.18,0,0,5.63,8.89,12.99,6.12,7.36-2.78,11.08-7.1,12.98-9.41,1.9-2.31,7.4-10.33,7.12-12.16-.27-1.83-9.49-7.56-9.49-7.56Z"/><path class="cls-7" d="M127.74,315.01c1.24-1.87,2.1-3.96,3.07-6.24.21-.47.51-.92.76-1.38.2-.51.66-.79,1.14-.94.49-.14,1.01-.18,1.54-.09.27.04.52.06.8.14.3.07.39.1.57.16,1.31.42,2.45.95,3.58,1.51,1.64.83,3.25,1.65,4.77,2.68.67.45,1.33.93,1.98,1.46.33.26.65.55.97.86l.25.25c.1.09.21.23.31.36.21.25.39.53.52.82.06.15.12.3.13.46.08.15.03.31.06.47l-.11.94c-.05.5-.22.87-.33,1.3-.11.43-.28.81-.44,1.2-.16.38-.31.78-.5,1.14-1.46,2.93-3.31,5.53-5.37,7.95-1.83,2.14-3.83,4.16-5.99,5.94-.71.56-1.39,1.15-2.15,1.65-.37.26-.74.52-1.12.77-.38.25-.8.44-1.19.66l-1.21.62-1.27.5c-.83.37-1.76.48-2.65.62-1.15.06-.97.04-.21-.61.37-.35.92-.74,1.5-1.32.59-.58,1.34-1.02,2.12-1.6.71-.48,1.4-.96,2.07-1.49l1.03-.75c.34-.26.66-.54.99-.81.67-.53,1.3-1.11,1.92-1.7.64-.57,1.22-1.21,1.82-1.82,2.41-2.45,4.58-5.19,6.37-8.13.29-.43.51-.89.74-1.35.25-.46.43-.92.62-1.39.37-.88.62-2.1.51-2.18-.05-.08-.09-.14-.18-.22-.14-.14-.33-.31-.52-.46-.38-.32-.81-.62-1.24-.92-.87-.6-1.78-1.17-2.7-1.72-1.01-.6-2.05-1.17-3.1-1.68-1.03-.5-2.16-.99-3.11-1.26-.2-.05-.48-.15-.7-.02-.08.09-.12.21-.18.32l-.08.18-.18.41c-.47,1.1-.96,2.25-1.51,3.38-1.34,2.79-3.17,5.41-5.42,7.56-1.69,1.64-3.59,3.05-5.62,4.19-2,1.2-4.13,2.11-6.25,2.98-.42.19-.61.23-.9.33-.26.09-.52.18-.77.27l-.46.2c-.05.05-.2.03-.16.14.04.08.11.15.17.22.25.27.52.5.76.7l2.8,2.44c.58.49,1.15.96,1.73,1.46,2.14,1.86,2.7,2.58,2.71,3.51,0,.21.04.45,0,.62-.14.59-1.32.17-3-1.09-1.58-1.18-3.15-2.43-4.7-3.76l-1.16-1.02-.47-.44-.53-.51c-.35-.35-.68-.7-.98-1.06-.6-.73-.8-1.39-.68-1.95.01-.07.03-.18.07-.25l.18-.17.37-.34.73-.68c1.43-.6,2.87-1.19,4.31-1.8.52-.23,1.06-.42,1.57-.68l1.52-.76c4.09-2.08,7.66-5,10.02-8.83l.07.03Z"/><path class="cls-7" d="M125.12,330.81c2.93-1.66,5.49-3.83,7.57-6.48,1.86-2.38,3.39-5,5.12-7.47.74-1.06-.99-2.06-1.73-1.01-1.64,2.34-3.07,4.84-4.83,7.09-1.97,2.52-4.36,4.57-7.14,6.14-1.12.63-.11,2.36,1.01,1.73h0Z"/><path class="cls-7" d="M138.93,321.07c-.08-3.5-5.41-5.41-7.53-2.47-1.13,1.56-.36,3.67.1,5.33.21.75.52,1.72.44,2.43-.03.3-.17.61-.31.77-.13.15-.41.25-.55.27-1.59.21-3.47-1.01-4.75-1.91-1.05-.74-2.06.99-1.01,1.73,2.23,1.57,7.19,3.97,8.46.03.56-1.72-.35-3.66-.75-5.32-.15-.63-.34-1.5-.11-1.99.21-.47.66-.69,1.18-.75,1.22-.15,2.81.63,2.84,1.88s2.03,1.29,2,0h0Z"/><path class="cls-7" d="M290.83,180.07c3.89-5.22,6.04-11.16,7.24-17.52.24-1.26-1.69-1.8-1.93-.53-.55,2.95-1.26,5.87-2.34,8.68-1.15,3-2.78,5.79-4.7,8.36-.77,1.03.97,2.03,1.73,1.01h0Z"/><path class="cls-7" d="M299.96,166.77c-.72-1.61-2.82-2.67-4.51-2.73-1-.04-2.02.34-2.73,1.06-.74.76-.98,1.79-.83,2.81.12.85.52,1.59.92,2.33.44.8.88,1.59,1.27,2.41.32.68.64,1.48.65,2.12,0,.22-.08.49-.15.6-.13.22-.18.25-.45.38.16-.08-.03.01-.07.02-.1.03-.19.05-.29.08-.16.04-.17.03-.42.04-.45.01-.71-.03-1.11-.12-.85-.2-1.59-.54-2.3-1.05-.44-.31-1.11-.08-1.37.36-.29.5-.08,1.05.36,1.37,2.26,1.62,7.34,2.58,7.78-1.37.19-1.7-.87-3.5-1.65-4.94-.35-.65-.8-1.31-1.05-2.01-.22-.63-.31-1.28.23-1.73,1.24-1.04,3.48.19,4,1.36.22.49.94.61,1.37.36.51-.3.58-.87.36-1.37h0Z"/><path class="cls-7" d="M247.55,104.46c.46,2.7,1.74,5.52,4.06,7.1,1.19.81,2.66,1.14,4.08.96s2.65-1.01,3.28-2.38c.77-1.66.83-3.57.65-5.36-.07-.67-.53-1.25-1.25-1.25-.62,0-1.32.57-1.25,1.25s.11,1.42.07,2.13c0,.16-.02.33-.04.49,0,.02-.03.3-.02.17.02-.11-.02.1-.02.1-.06.31-.12.62-.21.92-.04.13-.08.26-.14.39.08-.21-.05.09-.08.16-.05.09-.11.18-.16.27-.02.03-.15.21-.05.08.09-.12-.04.05-.06.07-.08.08-.16.16-.25.24.17-.17,0,0-.1.06s-.33.14-.1.06c-.13.04-.25.08-.39.11,0,0-.17.03-.07.01.13-.02-.14.01-.16.01-.13.01-.25.02-.38.02-.14,0-.29,0-.43-.02-.04,0-.25-.03-.02,0-.08-.01-.15-.03-.23-.04-.26-.06-.52-.13-.77-.23.21.08-.11-.06-.16-.09-.12-.06-.23-.13-.34-.2-.06-.04-.13-.09-.19-.13,0,0-.16-.12-.06-.04.12.09-.07-.06-.1-.08-.04-.04-.09-.07-.13-.11-.22-.19-.42-.4-.61-.62-.04-.04-.26-.33-.14-.16-.08-.11-.16-.23-.24-.34-.16-.23-.3-.48-.44-.72-.08-.14-.15-.29-.22-.43-.04-.07-.07-.15-.1-.22,0-.02-.1-.23-.06-.13.05.13-.04-.11-.05-.13-.03-.08-.06-.15-.09-.23-.06-.15-.11-.31-.16-.46-.2-.62-.36-1.25-.46-1.89s-.93-1.04-1.54-.87c-.71.19-.99.87-.87,1.54h0Z"/><path class="cls-7" d="M260.67,104.13c0,1.28.48,2.56,1.05,3.69.67,1.32,1.65,2.57,2.94,3.32,1.37.8,3.18.97,4.6.2,1.2-.65,1.81-1.97,2.02-3.26.12-.72.17-1.45.19-2.18,0-.31.02-.61.03-.92,0-.14.01-.28.03-.42,0-.04,0-.09.01-.13.03-.33-.04.24,0,.03.1-.67-.17-1.34-.87-1.54-.59-.16-1.44.2-1.54.87-.16,1.02-.12,2.05-.2,3.08,0,.12-.02.25-.03.37,0,.07,0,.14-.02.21,0-.02.05-.31.01-.09-.05.26-.09.53-.17.79-.03.11-.07.22-.11.33-.05.15.02.15.02-.05,0,.03-.06.12-.07.13-.06.1-.11.19-.17.29-.09.14,0,.12.04-.05-.01.05-.11.13-.15.16s-.08.07-.11.1c-.15.18.08-.08.08-.06,0,.05-.28.17-.33.2-.09.05-.16.02.08-.03-.05,0-.11.04-.16.05-.07.02-.14.04-.21.06-.04,0-.34.05-.15.03.21-.02-.11,0-.13,0-.07,0-.14,0-.21,0-.09,0-.57-.07-.24,0-.12-.02-.24-.05-.36-.08-.07-.02-.15-.05-.22-.07-.26-.08.03.03-.04-.01-.22-.14-.49-.31-.72-.42-.16-.08.22.19,0,0-.05-.04-.1-.08-.15-.12-.12-.11-.24-.22-.35-.33s-.22-.24-.32-.36c-.04-.05-.08-.1-.12-.15.17.21.03.04-.01-.02-.18-.26-.35-.51-.5-.78-.17-.3-.33-.62-.47-.94.13.28-.04-.11-.08-.21-.05-.14-.1-.27-.14-.41-.09-.28-.16-.56-.21-.85,0-.05-.01-.1-.02-.14-.05-.25.02.29,0,.06,0-.12-.02-.24-.02-.36,0-.68-.57-1.25-1.25-1.25s-1.25.57-1.25,1.25h0Z"/><path class="cls-7" d="M246.44,95.96c1.32-1.35,3.08-2.05,4.92-2.36.76-.13,1.66-.17,2.48-.13.43.02.89.04,1.29.2.17.07.26.16.41.26.3.21-.31.15.2-.27l.55-.32s.37.15-.11-.03c-.12-.05-.24-.11-.36-.17-.27-.15-.51-.33-.77-.5-.38-.25-.78-.46-1.19-.64-.98-.44-2.15-.96-3.24-.69-1.56.39-.9,2.8.66,2.41.07-.02.11.01,0,0-.2-.02.04.01.07.02.12.04-.03,0-.06,0,.06.01.12.02.18.04.33.09.66.19.98.32.15.06.39.17.63.29.22.11.43.23.64.37.79.52,1.58,1.07,2.56,1.11,1.2.05,1.97-1.01,1.81-2.14-.29-2.06-2.48-2.64-4.24-2.73-1.47-.07-2.99.1-4.41.5-1.78.5-3.46,1.4-4.76,2.72-1.13,1.15.64,2.92,1.77,1.77h0Z"/><path class="cls-7" d="M248.15,124.13c.3,1.96,1.48,3.69,3.08,4.83,1.68,1.19,3.89,1.52,5.88,1.06.7-.16,1.18-1.01.96-1.69-.24-.73-.94-1.13-1.69-.96-.1.02-.19.04-.29.06-.14.03-.24.03-.04.01-.2.02-.39.03-.59.04s-.39,0-.59-.02c-.04,0-.36-.05-.17-.02s-.13-.03-.17-.03c-.19-.04-.38-.09-.57-.14-.09-.03-.19-.06-.28-.09-.06-.02-.31-.13-.05-.01-.36-.16-.69-.35-1.02-.57-.12-.08-.08-.06,0,.01-.09-.07-.17-.14-.26-.22-.14-.13-.27-.26-.4-.39-.05-.06-.1-.11-.15-.17-.03-.04-.23-.33-.06-.07-.09-.14-.19-.28-.28-.42-.1-.16-.19-.32-.27-.49-.04-.08-.08-.17-.12-.25.12.27.02.02,0-.04-.13-.37-.23-.75-.29-1.14-.11-.71-1.04-1.17-1.69-.96-.78.25-1.08.93-.96,1.69h0Z"/><path class="cls-7" d="M267.13,95.79c-.79.17-1.62.54-2.2,1.03-.3.24-.48.46-.71.88-.26.35-.42.78-.59,1.22-.15.3-.18.67-.26,1.01-.08.34-.12.7-.17,1.06-.44,2.55-.18,5.35.19,8.1.2,1.22.53,2.43.85,3.62.41,1.54,1.05,2.99,1.11,4.69,0,.54.02.47-.38.17-.41-.28-1.3-.78-1.8-1.62-.75-1.52-1.52-3.05-1.98-4.7-.44-1.65-.79-3.34-.85-5.09-.04-2.08-.3-4.27.12-6.48.15-.61.24-1.21.5-1.81.11-.3.22-.6.34-.89l.48-.85.24-.42c.1-.14.21-.29.33-.43.23-.27.48-.52.74-.73.52-.44,1.08-.78,1.66-1.06.72-.34,1.47-.59,2.27-.72.79-.15,1.73-.08,2.48.12,1.17.31,2.2.81,3.18,1.62.24.22.48.43.71.8.11.15.22.42.29.69.02.17.03.34.02.51-.04.18-.11.38-.2.54-.18.27-.46.52-.64.59-.2.11-.41.22-.62.25-.22.05-.44.09-.63.07-.2,0-.39-.01-.55-.05-1.03-.22-1.73-.57-2.46-.78-.72-.23-1.4-.38-2.05-.43-.29-.03-.56,0-.84,0-1.01.07-1.39-.04-1.87-.64-.11-.13-.24-.25-.33-.38-.15-.22-.13-.47.05-.76.18-.29.54-.65,1.11-.82,1.67-.61,3.68-.35,5.22.12.75.22,1.52.47,1.77.47.01,0,.08.03.05.01-.03.15-.05.4-.02.61.02.14,0,.12,0,.17,0,.04,0,.08.02.12,0,.03.03.1.04.11,0-.02-.01-.04-.02-.05,0-.01-.02-.02-.03-.03h-.01s0,0,0,0h0c-.27-.37.36.5.3.41h0s0,.03,0,.03l.02.04c.06.11.25.2.19.18.11,0-.33-.03-.68.21-.14.08-.37.19-.52.31-.15.12-.36.31-.31.24-.01-.02-.02-.04-.08-.09-.07-.08-.22-.2-.37-.31-.3-.22-.67-.42-1.04-.58-.37-.16-.74-.26-1.03-.3-.27-.05-.63-.02-1.02.08l-.02-.07Z"/><path class="cls-7" d="M327.12,53.5c-.11.19-.37.16-.69.04-.1-.04-.29-.25-.28-.33.02-.15.04-.3.08-.44.02-.08.63-1.14.88-1.47.21-.34.47-.63.74-.91l1.63-1.72c.12-.13.26-.23.42-.32.54-.29.98-.69,1.41-1.12.07-.07.16-.13.18-.26.02-.22,1.27-1.28,1.48-1.35.52-.19.99-.42,1.49-.62.07-.03.11-.11.23-.06.29.12.39,0,.53-.09.19-.12.4-.21.65-.24.12-.02.3.05.46.09.15.04.32.38.32.44,0,.16.16.26.26.39.03.04.08.1.1.14.02.04-.11.41-.25.78-.16.34-.35.68-.4.72-.01.01-.36.32-.73.64-.36.33-.74.67-.81.75-.07.08-.2.1-.31.13-.05.01-1.1,1.04-1.15,1.07-.26.15-.44.41-.83.42-.08,0-.12.05-.17.08-.41.33-.88.56-1.34.83-.23.14-.43.32-.65.47-.04.03-.1.03-.14.05-.06.02-.12.04-.17.08-.49.39-1.06.71-1.51,1.15-.11.1-.77.4-.91.5-.07.06-.49.06-.53.14Z"/><path class="cls-7" d="M329.91,58.53c-.23.06-.34-.21-.39-.65-.02-.14.09-.53.16-.57.14-.09.28-.17.41-.23.08-.03,1.23-.06,1.62-.14.38-.05.75-.05,1.11-.02.74.04,1.48.04,2.21.04.16,0,.32.04.48.1.54.21,1.1.24,1.66.18.09,0,.19,0,.28-.09.16-.15,1.66-.22,1.85-.15.48.18.97.28,1.46.42.07.02.14-.02.21.11.16.31.31.25.46.27.21.03.43.06.64.15.11.05.22.22.34.35.1.12.08.59.05.64-.09.15,0,.37.03.56,0,.07.02.15.02.2,0,.12-1.24,1-1.39,1-.03.04-1.93.2-2.15.23-.11.02-.23-.06-.34-.11-.05,0-1.58.08-1.64.05-.31-.06-.63,0-.93-.29-.06-.05-.12-.05-.18-.05-.54-.04-1.06-.21-1.58-.37-.27-.08-.54-.11-.81-.17-.05-.01-.09-.05-.14-.08-.06-.03-.11-.08-.18-.09-.64-.13-1.25-.39-1.88-.48-.15-.02-.79-.43-.95-.45-.1-.01-.33-.39-.42-.36Z"/><path class="cls-7" d="M327.5,66.4c-.23-.09-.27-.35-.21-.69.02-.11.2-.33.28-.33.16.01.31.03.46.06.09.02,1.26.65,1.68.86.4.2.76.44,1.12.7.7.54,1.46,1.04,2.09,1.66.15.13.28.28.38.45.37.58.84,1.06,1.34,1.52.08.08.15.17.29.2.24.03,1.48,1.4,1.57,1.63.26.55.51,1.1.75,1.66.03.08.11.13.07.26-.09.29.04.41.13.57.13.22.23.45.31.7.04.12,0,.3-.03.46-.02.15-.34.29-.4.28-.15-.03-.24.14-.36.23-.04.03-.09.07-.13.09-.08.03-1.39-.74-1.49-.85,0,0-.1-.1-.23-.25-.14-.14-.32-.33-.51-.53-.39-.37-.74-.81-.84-.87-.09-.08-.12-.21-.16-.33-.02-.06-1.16-1.19-1.2-1.24-.19-.28-.47-.47-.53-.86-.01-.08-.07-.12-.11-.17-.4-.41-.73-.89-1.09-1.34-.19-.23-.4-.43-.59-.66-.03-.04-.05-.1-.08-.15-.03-.06-.06-.13-.11-.18-.48-.51-.9-1.08-1.44-1.53-.12-.11-.56-.78-.71-.89-.08-.07-.19-.47-.29-.5Z"/></svg>