<?xml version="1.0" encoding="UTF-8"?><svg id="Layer_1" xmlns="http://www.w3.org/2000/svg" width="520" height="520" viewBox="0 0 520 520"><defs><style>.cls-1{opacity:.2;}.cls-1,.cls-2,.cls-3,.cls-4{fill:#231f20;stroke-width:0px;}.cls-2,.cls-5{opacity:.25;}.cls-3{opacity:.4;}.cls-6{opacity:.55;}</style></defs><path class="cls-4" d="M173.04,108.49c.25.82.48,1.64.63,2.49.02.11.04.22.06.33.01.06.02.13.03.19,0-.04-.04-.31,0-.06s.05.48.06.72c.01.22.02.45.01.67,0,.14.04.58-.05.7.05-.06.05-.26,0-.08-.01.06-.02.12-.03.18-.02.1-.04.2-.07.3s-.06.19-.09.29c-.01.04-.03.08-.05.12-.04.15.13-.25.01-.04-.05.09-.09.17-.14.26-.03.05-.07.09-.09.14-.06.12.07-.1.08-.1-.01,0-.17.2-.2.22-.04.04-.08.08-.12.12-.17.17.03,0,.03-.02,0,.08-.49.29-.55.31.25-.11-.08.01-.17.04-.06.01-.11.03-.17.04-.33.08.13.01-.05,0-.13,0-.26,0-.4,0-.25,0-.04,0,.02,0-.06-.01-.11-.02-.17-.03-.13-.03-.26-.06-.38-.11-.07-.02-.14-.05-.22-.08.18.07.04.01-.05-.04-.14-.07-.28-.15-.41-.24-.05-.03-.1-.07-.15-.1-.31-.21.1.09-.07-.05-.27-.23-.52-.47-.75-.74-.06-.06-.11-.13-.16-.19.09.11.02.03-.02-.03-.1-.14-.19-.28-.28-.42-.1-.16-.19-.32-.28-.49-.03-.06-.06-.11-.08-.17,0-.02-.17-.38-.07-.14-.26-.64-.89-1.16-1.63-.93-.62.2-1.21.94-.93,1.63.63,1.55,1.6,2.89,2.99,3.85s3.13,1.18,4.68.5c2.37-1.03,2.86-3.79,2.58-6.1-.15-1.24-.43-2.45-.8-3.65-.21-.66-.93-1.15-1.63-.93s-1.15.92-.93,1.63h0Z"/><path class="cls-4" d="M168.23,111.16c.27.98.68,1.97,1.14,2.94.17.35.39.69.56,1.04.63,1.26,1.25,2.52,1.82,3.9.22.62.41,1.24.58,1.85.28.77.28,1.62.36,2.42.01.25-.06.23-.21.05-.15-.18-.42-.52-.66-.92-.52-.69-.72-1.45-1.09-2.15-.18-.35-.33-.7-.46-1.05-.16-.36-.31-.72-.47-1.09-.39-.9-.97-1.76-1.42-2.68-.5-1.01-.97-2.05-1.34-3.14-.23-.66-.4-1.39-.51-2.07-.18-1.01-.38-2.07-.36-3.17,0-.85.14-1.72.49-2.5.1-.16.18-.32.29-.47.43-.55.65-.65.89-.64.06,0,.12,0,.16,0,.15.04.1.33-.04.78-.1.33-.17.67-.22,1-.09.31-.16.61-.19.92-.08.61-.03,1.23.07,1.89.15.97.36,2.18.63,3.09h-.03Z"/><path class="cls-4" d="M310.97,462.33c-.78.13-1.41-.23-2-.52-.19-.1-.17-.37.05-.45.43-.15.88-.29,1.32-.42.27-.04,4.57-.35,6.02-.4,1.41-.08,2.82-.09,4.23-.08l8.6.02c.64,0,1.27.03,1.91.08,2.18.18,4.36.21,6.54.2.36,0,.74.01,1.09-.05.58-.11,6.5-.06,7.26,0,1.9.16,3.8.26,5.71.37.27.03.56.01.81.11.58.22,1.16.2,1.75.23.82.03,1.63.09,2.45.18.4.04.8.13,1.2.2.36.06.17.24.05.26-.37.07-.07.15-.03.23.01.03.03.06.01.08,0,.01-.31.06-.76.14-.46.08-1.07.18-1.68.29-1.24.17-2.55.36-2.81.37-.13.09-6.99.18-7.77.23-.41.02-.82-.03-1.23-.06-.2,0-5.68.1-5.9.11-1.14-.03-2.28.04-3.4-.16-.22-.04-.45-.03-.68-.03-1.95.02-3.91-.08-5.86-.16-1-.04-2-.03-2.99-.05-.18,0-.36-.03-.54-.05-.23-.02-.45-.05-.68-.05-2.36-.02-4.72-.15-7.08-.11-.54.02-3.14-.24-3.76-.24-.35,0-1.5-.3-1.81-.26Z"/><path class="cls-4" d="M428.54,449.97s4.68-1.39,5.39.03c.71,1.41-9.86,4.84-9.86,4.84l4.21-2.77.26-2.09Z"/><g class="cls-5"><path class="cls-4" d="M381.47,424.51l-17.14-.64-6.25-.14c-3.67-.12-7.34-.24-11.01-.31-3.66-.06-7.35-.13-10.95.09-.39.04-.8.06-1.17.12l-.56.09c-.17.03-.3.08-.45.12-.6.23-1.14.71-1.59,1.26-.9,1.14-1.47,2.63-1.75,4.1-.19.97-.22,1.87-.02,2.78.2.92.57,1.83,1.03,2.68.94,1.68,2.19,3.27,3.81,4.09.98.5.98.74-.3.91-1.25.12-3.71-.87-5.11-3.19-.63-1-1.14-2.08-1.48-3.25-.35-1.14-.47-2.57-.27-3.75.16-1.2.49-2.33.96-3.44.49-1.1,1.12-2.18,2.1-3.11.49-.47,1.09-.86,1.77-1.15.82-.28,1.35-.31,1.94-.38,1.13-.1,2.21-.15,3.3-.17,2.16-.04,4.31,0,6.46.07,5.14.17,10.47.16,15.71.3l17.27.58c3.54.11,7.08.22,10.62.33,2.68.06,5.37.13,8.04.13,1.34,0,2.67,0,3.98-.08.68-.04,1.19-.11,1.87-.28l1.94-.46c4.02-.97,7.86-2.19,11.65-3.64.83-.33,1.65-.65,2.49-.98,3.13-1.2,4.17-1.48,5.08-1.14.2.07.45.11.59.19.44.25-.65,1.22-2.93,2.2-3.35,1.5-6.91,2.89-10.63,3.99-1.85.55-3.73,1.05-5.62,1.51-.95.23-1.86.45-2.86.67-1.28.21-2.15.19-3.17.24-5.84.1-11.6-.13-17.38-.27v-.06Z"/></g><g class="cls-5"><path class="cls-4" d="M385.48,407.88l-16.63-.83c-2.02-.09-4.03-.1-6.05-.16-7.11-.19-14.24-.21-21.38-.24-1.6-.03-3.13.03-4.8-.05-.72-.05-1.32.06-1.79.46-.48.38-.83,1-1.07,1.68-.3.87-.51,1.86-.51,2.73,0,.9.23,1.8.61,2.64.38.84.88,1.64,1.52,2.32.31.35.67.65,1.04.93l.56.41c.19.12.4.22.6.36,1.06.63,1.05.33-.11.49-.57.04-1.48-.06-2.37-.58-.9-.49-1.84-1.3-2.54-2.43-.61-1-1-2.16-1.13-3.36-.06-.6-.05-1.22.03-1.83.09-.6.19-1.11.36-1.68.34-1.08.79-2.31,2-3.23.59-.45,1.35-.7,2.04-.75.69-.06,1.3.07,1.64.05,4.12,0,8.26.05,12.41.15,4.97.12,10.15.03,15.25.17,5.61.17,11.18.5,16.76.74,3.42.17,6.89.3,10.31.52,1.29.06,2.57.09,3.83-.02,1.23-.1,2.51-.41,3.79-.65,2.54-.52,5.05-1.14,7.5-1.9,3.82-1.17,7.43-2.71,11.07-4.28.8-.35,1.58-.7,2.39-1.05.75-.32,1.38-.58,1.91-.78.54-.19.99-.29,1.36-.38.75-.17,1.22-.18,1.62-.11.18.03.41.03.53.06.38.09-.71.96-2.81,2.13-3.21,1.52-6.54,3.05-10.04,4.39-3.49,1.34-7.17,2.44-10.88,3.28-1.38.32-2.77.6-4.16.85-.67.13-1.48.26-2.21.31-.75.06-1.49.07-2.21.06-1.46-.02-2.87-.13-4.25-.21l-4.17-.19v-.05Z"/></g><path class="cls-4" d="M421.5,396.11c-.13-.14-.29-.29-.49-.4-.07-.04-.15-.05-.22-.1-.26-.18-.55-.36-.85-.46-.14-.04-.27-.05-.41-.07-.18,0-.35,0-.53-.1-.06-.03-.08-.21-.05-.4.03-.19.1-.43.22-.5.2-.1.41-.2.62-.22.21-.01.42.02.63.1.24.1.51.03.77.08.28.06.56.18.84.31.17.08.34.19.5.29.26.18.5.39.73.7.19.21.42.52.51.87.02.08.06.16.06.23-.01.27-.19.32-.72.17l-.36-.11c-.4-.14-.73-.31-.85-.35-.02-.02-.11-.04-.06-.03.06,0,.06.01.1.01.06,0,.15-.02.1,0,0,0,0,0,0,0,0,0-.07.03-.1.05-.03.02-.06.05-.09.08-.05.04-.12.09-.16.14.04-.01-.05-.15-.17-.26l.02-.04Z"/><path class="cls-4" d="M337.82,400.02c.42-.39.85-.76,1.32-1.1.16-.13.3-.29.49-.39.66-.35,1.34-.65,2.05-.84.31-.08.61-.17.91-.27.38-.12.79-.16,1.2-.06.13.03.14.22.08.46-.06.23-.16.57-.32.7-.28.26-.56.43-.83.6-.14.07-.27.18-.42.23-.15.05-.31.09-.48.14-.41.1-.68.45-1,.72-.37.28-.74.57-1.08.9-.21.2-.42.42-.61.65-.29.35-.58.71-.78,1.12-.15.33-.18.7-.25,1.05-.02.08-.01.16-.04.23-.08.28-.32.27-.83.11l-.36-.11c-.39-.14-.67-.4-.74-.69-.09-.8.18-1.51.6-2.14.3-.48.67-.91,1.06-1.34l.04.03Z"/><path class="cls-4" d="M403.49,405.57c.24.44.42.87.51,1.3.03.16.09.3.1.46.03.56-.01,1.08-.06,1.57-.01.23-.02.43-.04.65-.02.27-.04.55-.14.81-.03.08-.11.06-.2-.02-.09-.08-.21-.21-.24-.36-.12-.53-.28-1.01-.33-1.5-.02-.3-.21-.57-.33-.82-.16-.27-.24-.57-.42-.81-.09-.16-.22-.29-.34-.42-.21-.17-.41-.38-.69-.44-.21-.08-.46.08-.66.04-.05,0-.1.02-.14.01-.09,0-.14-.07-.18-.2-.04-.12-.06-.25-.08-.42l-.03-.22c-.02-.22.07-.47.26-.72.58-.49,1.31-.32,1.92,0,.48.22.84.65,1.13,1.05l-.03.03Z"/><path class="cls-4" d="M406.26,405.77c-.2.24-.38.5-.52.78-.04.11-.06.22-.11.33-.2.37-.36.79-.44,1.24-.04.2-.05.4-.05.61,0,.13.04.26.01.39-.03.14-.09.28-.15.43-.05.09-.18.11-.37.07-.19-.04-.51-.13-.66-.28-.22-.27-.28-.58-.36-.89-.06-.31.04-.64.14-.95.14-.37.11-.78.23-1.16.13-.42.35-.81.57-1.17.15-.22.3-.44.46-.64.23-.31.51-.58.75-.88.17-.24.3-.52.45-.78.04-.06.06-.12.12-.16.2-.14.34-.09.65.21l.2.19c.21.22.33.51.31.71-.06.61-.36.89-.62,1.24-.19.25-.41.47-.57.73l-.04-.02Z"/><path class="cls-4" d="M382.3,326.05s.97-5.19,3.11-5.64c2.14-.45,2.35,5.13,1.32,5.4-1.03.27-4.42.25-4.42.25Z"/><path class="cls-3" d="M401.98,352.4c0,.3,5.05,6.9,10.79,6.9,4.45,0,9.35-2.98,10.67-5.46,1.31-2.48-8.43-2.19-9.25-2.16l-12.2.72Z"/><path class="cls-3" d="M365.27,353.28s-3.99,6.15-9.8,6.53c-4.43.29-7.99-1.98-9.12-2.85-1.14-.87-3.61-5.43-3.61-5.43l11.99.6,10.54,1.16Z"/><path class="cls-4" d="M345.36,351.49c.65-.3,1.27-.42,1.85-.5.21-.03.41-.09.62-.08.74.03,1.43.15,2.1.23.3.03.58.05.88.08.37.02.74.05,1.1.2.11.05.1.21,0,.4-.1.19-.27.44-.48.53-.37.14-.73.27-1.08.36-.36.03-.71.04-1.06,0-.43-.05-.84.14-1.23.24-.43.09-.86.17-1.23.32-.23.09-.44.2-.61.34-.26.2-.52.5-.64.89-.09.3-.02.66,0,.99,0,.07.03.15.03.23-.02.28-.19.34-.79.3l-.41-.03c-.46-.05-.82-.24-.91-.49-.28-.73-.2-1.56.23-2.43.16-.32.37-.64.65-.93.28-.29.63-.52.94-.69l.03.05Z"/><path class="cls-4" d="M421.23,355.56c.44-.3.79-.67.95-1.14.08-.19.03-.33.08-.47.03-.22.03-.4-.11-.67-.15-.25-.48-.51-.87-.68-.34-.17-.73-.29-1.13-.36-.51-.1-1.04-.1-1.58-.32-.17-.09-.15-.17-.01-.36.14-.21.41-.5.74-.59.59-.14,1.2-.25,1.85-.23.16,0,.33.02.5.04.16.03.33.1.49.16.33.13.66.31.96.57.36.3.75.66,1.01,1.15.28.47.37,1.02.36,1.49-.05,1.02-.49,1.93-1.08,2.63-.36.43-.78.78-1.22,1.08-.68.43-1.41.71-2.11.97-.54.2-1.06.48-1.61.64-.12.04-.24.09-.36.1-.47.04-.65-.13-.8-.53-.03-.09-.07-.18-.1-.27-.08-.27.06-.63.33-.85.4-.35.8-.56,1.19-.8.37-.22.73-.44,1.1-.67.52-.31.98-.63,1.39-.93l.04.04Z"/><path class="cls-4" d="M200.31,459.16c-.13,0-4.61,1.19-4.28,2.59.45,1.96,13.29,2.59,13.29,2.59l-6.96-3.24-2.04-1.95Z"/><path class="cls-4" d="M154.13,462.39s5.36.53,5.25,1.96c-.15,1.88-12.58,4.08-12.58,4.08l6.05-3.44,1.29-2.61Z"/><path class="cls-1" d="M174.83,173.24c-.89-1.42-11.54-5.81-18.09-3.74-5.23,1.65-8.54,6.68-10.53,9.68s-6.07,6.62-10.45,2.81c-4.38-3.81-7.13-6.95-13.68-5.65-5.94,1.19-11.45,5.36-11.45,5.36,0,0,9-14.29,14.24-13.64,5.24.65,10.69,4.89,12.3,6.98s5.22-2.94,5.22-2.94c0,0,4.94-7.72,10.45-9.37,5.51-1.65,11,.23,13.05,1.41,2.05,1.18,8.93,9.09,8.93,9.09Z"/><path class="cls-4" d="M184.74,250.91c-.47-.41-1.05-.75-1.7-.99-.24-.08-.49-.1-.74-.17-.87-.26-1.82-.36-2.8-.43-.43-.02-.87.03-1.3.09-.28.03-.55.13-.84.09-.29,0-.59-.09-.89-.15-.19-.05-.18-.12-.06-.3.12-.17.33-.57.62-.81.13-.08.26-.21.41-.25l.43-.12c.29-.08.59-.14.89-.19.6-.09,1.22-.15,1.85-.06.75.12,1.54.07,2.32.24.85.18,1.68.49,2.44.94.47.27.91.6,1.31.97.61.56,1.06,1.24,1.51,1.88.34.5.73.96,1.04,1.47.07.11.16.21.21.33.19.44.06.66-.39.94-.11.07-.21.14-.31.19-.36.19-.75.14-1.05-.09-.77-.73-1.31-1.48-1.77-2.19-.36-.52-.72-.98-1.22-1.35l.03-.05Z"/><path class="cls-4" d="M273.98,184.83c-.36-.35-.71-.71-1.04-1.09-.12-.14-.28-.24-.39-.39-.4-.53-.72-1.13-.95-1.76-.1-.28-.25-.54-.32-.83-.04-.19-.09-.38-.12-.57,0-.2.03-.4.09-.58.04-.12.26-.09.5-.01.24.08.56.19.64.32.39.44.58.85.8,1.44.14.34.45.59.71.88.28.32.58.64.91.94.2.19.41.37.63.54.33.26.67.52,1.04.72.29.16.62.22.93.33.07.02.14.03.21.07.24.13.25.29.11.68l-.1.26c-.13.28-.35.47-.59.49-.68.02-1.33-.17-1.9-.5-.42-.26-.8-.58-1.19-.89l.03-.04Z"/><path class="cls-4" d="M278.29,153.81c-.42-.02-.82-.11-1.21-.2-.14-.03-.29-.02-.43-.06-.5-.14-.97-.32-1.44-.48-.21-.07-.43-.09-.62-.22-.25-.15-.51-.22-.74-.4-.07-.05-.04-.12.06-.19.1-.07.26-.18.42-.2.27.04.6-.24.84-.16.25.05.5.11.75.21.3.12.64.07.95.08.34.02.7.03,1.04.05.21,0,.43.02.64,0,.32-.02.64-.05.93-.17.22-.1.4-.29.55-.47.03-.04.06-.08.1-.11.13-.1.24-.03.54.3l.2.23c.22.26.31.54.2.74-.32.6-.94.85-1.51.98-.43.09-.86.11-1.28.11v-.04Z"/><path class="cls-4" d="M276.7,163.13c0-.29.05-.58-.03-.83-.01-.09-.12-.18-.17-.29-.18-.42-.47-.8-.77-1.18-.14-.17-.32-.25-.48-.37-.22-.13-.43-.25-.72-.34-.09-.03-.1-.09-.04-.21.05-.12.21-.34.45-.43.85-.31,1.71,0,2.14.57.26.35.63.58.91.93.32.4.55.95.64,1.43.05.3.05.6.05.89,0,.43-.07.85-.07,1.25.01.31.06.63.06.93,0,.07.01.14,0,.2-.04.25-.18.31-.59.3h-.28c-.31-.03-.56-.17-.66-.36-.15-.28-.26-.55-.36-.8-.1-.26-.07-.5-.09-.73-.01-.34,0-.67-.05-.95h.05Z"/><path class="cls-4" d="M261,177.79c-.33-.32-.65-.66-.96-1.04-.15-.19-.31-.39-.46-.67-.16-.25-.24-.54-.34-.8-.11-.39-.22-.77-.23-1.15.01-1.33.39-2.45.87-3.48.22-.45.43-.9.64-1.35.22-.59.67-1.08,1.16-1.5.16-.13.19-.08.22.12.03.2.14.6.15.98-.02.16.02.34-.03.48l-.12.43c-.07.28-.15.56-.23.85-.07.27-.15.55-.22.82-.11.26-.22.52-.33.78-.27.63-.21,1.33-.11,1.9.05.31.13.6.29.84.13.25.41.58.66.86.32.36.69.7,1.07,1.03.58.49,1.19.99,1.84,1.39.51.32,1.06.56,1.59.86.12.06.24.12.35.2.42.29.49.51.31.91-.04.09-.08.19-.13.27-.18.28-.49.39-.84.3-1.04-.28-2.14-.68-3.09-1.36-.72-.48-1.42-1.03-2.11-1.64l.03-.04Z"/><path class="cls-4" d="M204.82,217.26c.02-.64.14-1.29.22-1.92.03-.23.02-.47.05-.7.14-.82.31-1.63.47-2.43.07-.36.1-.72.15-1.07.08-.45.06-.92.37-1.34.12-.13.23-.09.44.06.24.16.5.42.51.68.01.46.07.93,0,1.38-.06.45-.14.9-.25,1.35-.14.54-.08,1.12-.1,1.68-.03.62-.05,1.24-.08,1.86-.02.38-.04.77-.05,1.15,0,.58-.01,1.16.06,1.74.07.44.23.87.32,1.3.02.1.06.19.07.28.05.36-.05.49-.44.63-.09.03-.18.07-.27.09-.3.08-.58-.03-.74-.28-.23-.38-.41-.78-.54-1.2-.1-.42-.16-.85-.2-1.29-.06-.65-.05-1.3-.06-1.95h.04Z"/><g class="cls-5"><path class="cls-4" d="M217.37,463.8c-2.63-.39-5.26-.84-7.89-1.58-.48-.12-.97-.24-1.46-.38-.49-.15-.97-.24-1.46-.47-.44-.2-.82-.33-1.31-.59-.29-.17-.57-.36-.83-.55-.22-.2-.42-.41-.62-.63-.73-.86-1.17-1.75-1.51-2.63-.69-1.76-.96-3.53-1.09-5.28-.07-.78-.09-1.55-.14-2.33.02-.78.02-1.55.1-2.31.03-.49.08-.98.15-1.47.05-.49.15-.98.27-1.46.06-.24.11-.48.18-.72l.29-.69c.18-.46.44-.9.68-1.33.32-.53.47-.36.62.21.08.29.15.68.26,1.13.06.23.11.47.16.72.03.12.03.25.07.38-.01.12,0,.25,0,.38-.1,1.81.12,3.61.31,5.38.12,1.78.45,3.52.79,5.22.22.99.67,1.98,1.22,2.55.13.11.27.3.38.32.06.03.11.07.17.11l.38.14c.51.19,1,.38,1.55.54,2.35.74,4.89,1.25,7.43,1.69,1.57.26,3.15.49,4.74.65,2.41.26,4.84.49,7.25.52,1.87.03,3.71-.17,5.55-.33.4-.04.8-.1,1.21-.11,1.51-.05,1.97.14,2.36.94.09.18.2.36.25.54.2.6-.41,1.18-1.55,1.45-3.38.79-6.95.8-10.52.7-2.66-.09-5.32-.34-7.98-.64v-.09Z"/></g><g class="cls-5"><path class="cls-4" d="M139.94,465.89c2.35-.51,4.71-1.15,6.86-1.96.2-.07.39-.15.58-.24l.51-.27c.39-.19.57-.36.83-.49.84-.57,1.42-1.7,1.68-3.07.26-1.36.26-2.89.11-4.42-.08-.68-.17-1.36-.34-2.03-.13-.68-.29-1.36-.45-2.03-.23-.86-.49-1.71-.74-2.58-.21-.88-.38-1.77-.52-2.69-.07-.58.05-.55.48-.2.43.34,1.27.96,1.91,1.86.91,1.67,1.76,3.42,2.31,5.3.47,1.89.82,3.9.54,6.01-.2,1.26-.35,2.57-.91,3.91-.55,1.3-1.56,2.62-2.86,3.32-2.5,1.36-4.95,2-7.45,2.67-1.53.39-3.07.71-4.61,1.03-2.34.45-4.71.76-7.06,1.07-1.84.19-3.63.6-5.56.61-.42.03-.84.04-1.28-.01-.4-.06-.74-.12-1.01-.2-.28-.1-.5-.24-.66-.37-.33-.28-.45-.62-.46-1.09,0-.22-.03-.43,0-.63.12-.68.86-1.08,1.76-1.11,2.85-.26,5.98-.53,9.18-1.05,2.37-.37,4.77-.82,7.12-1.41l.03.09Z"/></g><path class="cls-4" d="M201.79,442.65c.68-.47,1.45-.8,2.2-1.03.27-.09.53-.22.81-.28.99-.2,1.96-.28,2.92-.26.42.01.84-.01,1.25-.03.53-.04,1.06.07,1.57.27.16.07.13.22,0,.43-.14.2-.38.52-.66.66-.5.27-.98.34-1.46.42-.24.04-.48.08-.72.11-.24,0-.49,0-.74,0-.6-.02-1.15.26-1.7.45-.61.21-1.18.48-1.74.78-.34.19-.68.41-.97.67-.45.39-.89.82-1.16,1.35-.21.41-.25.88-.27,1.31,0,.1,0,.19-.02.28-.08.33-.23.41-.78.44l-.37.02c-.41,0-.74-.21-.84-.6-.29-1.15.21-2.33.86-3.26.49-.7,1.13-1.28,1.8-1.78l.04.04Z"/><path class="cls-4" d="M201.73,443.64c.79-.58,1.63-1.01,2.51-1.24.32-.09.62-.22.94-.28,1.14-.2,2.25-.12,3.3-.03.47.04.93.04,1.39.05.59-.01,1.17.06,1.73.36.18.09.15.15,0,.3-.12.11-.23.23-.32.32-.13.14-.29.26-.45.3-.59.23-1.16.21-1.72.29-.56.05-1.11.09-1.66.09-.67.01-1.31.24-1.91.45-.67.23-1.32.5-1.93.84-.37.22-.71.48-1.01.79-.44.46-.82,1.03-1.02,1.68-.17.5-.17,1.05-.2,1.59,0,.12,0,.24-.03.36-.12.43-.29.56-.78.58-.11,0-.22.02-.33.02-.36,0-.64-.24-.76-.62-.2-.56-.19-1.13-.15-1.73.04-.6.21-1.22.5-1.82.41-.9,1.1-1.73,1.86-2.35l.04.04Z"/><path class="cls-4" d="M151.39,449.37c-.58-.46-1.33-.82-2.15-1.1-.3-.11-.62-.15-.92-.25-1.09-.35-2.22-.61-3.38-.71-.51-.06-1.03-.05-1.54-.02-.33.02-.65.06-.98.09-.33-.01-.67-.04-1.02-.12-.25-.19-.2-.1-.07-.37.14-.25.41-.63.79-.85,1.39-.4,2.88-.56,4.32-.23.86.18,1.76.19,2.64.38.96.19,1.92.54,2.84,1.03.56.3,1.09.7,1.57,1.16.73.71,1.18,1.66,1.46,2.57.23.71.46,1.41.59,2.12.03.16.05.31.04.47-.03.58-.21.75-.74.85-.12.02-.24.05-.36.06-.4.04-.74-.2-.91-.58-.3-.57-.41-1.11-.53-1.61-.12-.5-.24-.96-.42-1.35-.24-.57-.62-1.07-1.23-1.49l.03-.05Z"/><path class="cls-4" d="M152.3,449.04c0-.18-.02-.36-.08-.54-.02-.06-.08-.09-.09-.17-.06-.25-.17-.51-.35-.71-.07-.09-.18-.14-.27-.19-.13-.06-.26-.08-.38-.22-.04-.04,0-.2.07-.35.08-.15.21-.32.32-.33.39-.02.81.07,1.08.36.16.17.41.24.6.38.19.18.34.4.48.62.08.14.15.28.22.42.11.21.14.46.25.67.08.16.27.3.34.49.02.04.05.08.06.12.02.16-.1.23-.53.3l-.3.05c-.33.04-.63.02-.76-.03-.19-.08-.38-.13-.46-.19-.08-.07-.12-.15-.16-.23-.07-.11-.05-.27-.08-.43l.04-.03Z"/><path class="cls-4" d="M126.44,289.07s-8.29,41.47-10.8,50.53-8.03,44.65-9.06,54.54-2.71,31.21-.92,36.73c1.79,5.53,6.83,11.98,17.31,14.58s38,.79,42.67-1.48,9.46-2.21,8.85-6.08c-.61-3.87.38-16.94.38-16.94l.4-44.42-.16-23.96,4.37,26.97s3.71,40.13,5.01,44.16,2.67,15.57,7.33,16.83c4.66,1.25,18.99,2.85,30.14.09,11.14-2.76,22.87-8.46,25.73-11.61,2.86-3.16,1.73-13.7,1.73-13.7l-13.55-51.45-17.34-52.35-5.31-24.95s-21.66,4.89-21.43,1.93c.46-5.69-2.93-24.67-2.93-24.67,0,0-33.16,1.65-31.63,3.51,3.43,4.18,3.19,24.67-.53,23.66-6.61-1.81-30.25-1.91-30.25-1.91Z"/><path class="cls-4" d="M190.75,287.04c-.16-.68-.23-1.35-.28-2.01-.02-.24-.08-.47-.09-.71-.04-.84-.03-1.68-.06-2.5,0-.37-.06-.73-.08-1.09-.02-.46-.05-.93.03-1.4.03-.15.15-.14.32-.04.16.11.39.31.49.56.39.91.43,1.83.46,2.78,0,.57.18,1.13.28,1.69.11.61.24,1.22.37,1.82.09.36.18.74.31,1.04.2.46.5.87.95,1.09.35.17.77.18,1.18.18.09,0,.19-.02.28,0,.34.04.43.2.45.66,0,.11.01.21,0,.32-.01.35-.21.62-.52.71-.88.18-2.03-.06-2.96-.92-.68-.62-1.01-1.52-1.18-2.17h.04Z"/><path class="cls-2" d="M159.74,201.26c-3.18,1.91-21.31.98-23.46,5.88-1.48,3.37,3.85,17.66,3.85,17.66l-8.94,1.14s-5.79-21.36-4.59-23.1,16.07-1.58,16.07-1.58h17.06Z"/><path class="cls-4" d="M129.18,262.2c1.79.23,3.59.39,5.39.5l1.98.06c2.33.12,4.66.21,6.99.18,1.03-.02,2.07-.09,3.09-.2,1.32-.07,2.61-.32,3.94-.17.42.03.4.17.1.47-.15.15-.37.35-.65.58-.28.26-.61.42-1,.49-.68.15-1.36.27-2.04.38-.68.1-1.37.11-2.05.15-1.37.06-2.74.05-4.12-.02-1.65-.09-3.35.01-5.04-.03-1.85-.05-3.7-.16-5.54-.31-1.14-.11-2.27-.2-3.4-.35-.86-.09-1.72-.2-2.57-.36-.86-.13-1.71-.28-2.55-.45-.66-.11-1.32-.21-1.98-.36-.66-.14-1.33-.22-1.97-.49-.28-.1-.57-.19-.85-.3-1.04-.51-1.29-.88-1.25-1.34,0-.11,0-.23.03-.32.1-.32.64-.35,1.32-.14,2.13.47,4.43.92,6.81,1.27,1.77.23,3.55.54,5.36.7v.05Z"/><path class="cls-4" d="M150.02,269.35s3.53-.31,5.74.96c1.33.77,2.31,3.06,2.78,4.57,1.22,3.96.71-8.05-1.32-7.57-2.02.49-7.2,2.03-7.2,2.03Z"/><path class="cls-4" d="M185.63,211.48c0,.77-.04,1.54-.08,2.3-.02.28.03.55,0,.84-.09,1.01-.34,2.08-.93,3.08-.14.23-.31.46-.55.67-.24.2-.62.35-.97.32-.47-.02-.85-.32-1.03-.59-.2-.28-.29-.58-.33-.87-.02-.19.15-.22.4-.18.24.04.61.13.81.21.08.04.16.06.2.04.01,0,.02-.01.02-.02l-.03.07s-.02.07-.02.06c0,0,0-.02,0-.03h0s0-.06,0,.03h0s0,0,0,0c0,0,0-.02-.02-.06,0-.07-.23-.32-.17-.26.08-.06.28-.5.45-.92.2-.52.15-1.16.15-1.8.01-.72.02-1.44,0-2.16-.01-.45-.03-.89-.07-1.34-.07-.67-.13-1.35-.27-2.01-.11-.51-.37-.98-.55-1.46-.03-.11-.08-.21-.09-.32-.08-.42.06-.59.44-.8.09-.05.17-.1.26-.14.27-.12.63-.04.89.22.18.2.37.41.53.62.13.23.24.46.34.7.2.48.35.98.48,1.49.14.76.17,1.55.21,2.32h-.05Z"/><path class="cls-4" d="M186.27,217.04c-.1.3-.22.6-.37.9-.06.1-.07.22-.15.32-.26.35-.58.64-.89.89-.15.12-.26.22-.4.34-.16.14-.35.3-.61.27-.08,0-.18-.22-.26-.47-.08-.24-.18-.52-.16-.6.04-.14.07-.28.12-.39.04-.11.17-.16.3-.25.18-.09.15-.3.21-.46.06-.18.18-.36.24-.57.04-.13.09-.26.11-.4.03-.21.09-.43.04-.66-.05-.17-.17-.33-.25-.5-.02-.04-.05-.07-.06-.11-.02-.14.1-.2.58-.28l.32-.05c.36-.05.68-.02.82.07.42.29.6.64.57,1.04,0,.29-.06.6-.11.91h-.05Z"/><path class="cls-4" d="M163.63,235.32c-.75-.11-1.59-.39-2.25-.98-.24-.21-.48-.42-.64-.68-.53-.96-.46-1.91-.44-2.73,0-.36.04-.72.05-1.06,0-.43.02-.75.03-1.31,0-.14.06-.14.19-.06.13.08.37.26.51.51.24.45.43.92.58,1.35.11.44.11.84.15,1.22.02.48.35.82.53,1.11.22.31.57.56,1.07.68.3.07.63.12.97.11.52,0,1.08-.06,1.61-.2.42-.09.79-.3,1.18-.46.08-.04.17-.07.26-.09.34-.06.48.01.68.32.04.07.09.14.13.21.12.23.07.5-.14.73-.31.36-.67.61-1.07.82-.39.22-.81.38-1.25.45-.65.12-1.38.18-2.15.11v-.05Z"/><path class="cls-4" d="M126.37,207.55l-.22-1.46-.05-.38c-.04-.22-.05-.43-.06-.64-.03-.43.03-.8.21-1.15.31-.43.88-.74,1.45-.96,1.29-.42,2.47-.73,3.75-.94.56-.1,1.11-.21,1.67-.31.7-.12,1.51-.26,2.26.2.23.14.1.27-.13.45-.23.15-.52.52-.84.63-1.2.23-2.45.86-3.82,1.07-.41.08-.81.22-1.2.39-.36.16-.87.42-.9.41-.08.03-.17.05-.24.11-.03.08-.03.16-.03.26,0,.07,0,.05,0,.18l.04.35.1.7c.09.58.18,1.17.28,1.75.16.88.3,1.78.51,2.66.19.68.4,1.34.49,2.04.02.16.06.31.06.47.02.6-.12.83-.49.95-.09.03-.17.06-.25.08-.28.03-.51-.17-.69-.53-.3-.58-.57-1.12-.85-1.67-.23-.58-.35-1.2-.51-1.82-.22-.92-.4-1.87-.61-2.82h.05Z"/><path class="cls-4" d="M180.96,217.41c-.33-.84-.54-1.72-.71-2.58-.07-.31-.17-.61-.22-.92-.17-1.11-.27-2.21-.39-3.29-.03-.49-.07-.96-.1-1.44-.05-.61-.05-1.23-.12-1.83-.03-.38.19.07.46.73.27.58.54,1.16.78,1.73l.18.43c.04.15.07.3.1.45.06.3.12.6.16.9.11.73.42,1.43.66,2.12.26.77.56,1.51.87,2.25.19.46.39.91.63,1.34.36.65.75,1.3,1.26,1.83.4.41.92.68,1.41.94.11.06.23.09.33.15.32.3.33.53.07,1.08-.06.13-.11.25-.17.37-.21.4-.6.6-1.05.53-1.28-.3-2.17-1.31-2.9-2.33-.54-.77-.94-1.61-1.3-2.45l.05-.03Z"/><path class="cls-4" d="M158.16,239.82c.31-.78.67-1.53,1.07-2.25.13-.25.25-.58.43-.85.7-.94,1.62-1.7,2.63-2.22.44-.23.88-.47,1.34-.65.3-.11.59-.28.93-.26.17,0,.33,0,.49.04.16.01.33.18.48.27.19.16.14.28,0,.59-.07.16-.16.37-.25.64-.09.22-.18.38-.28.47-.18.19-.37.25-.57.31-.19.08-.39.15-.59.24-.39.17-.78.37-1.21.6-.52.28-.76.86-1.07,1.36-.36.59-.71,1.27-1,1.93-.17.42-.35.84-.47,1.28-.2.66-.38,1.35-.47,2.04-.08.54-.02,1.09-.03,1.64,0,.12.01.24,0,.36-.07.45-.29.57-.74.61-.11,0-.21.03-.31.03-.34,0-.61-.22-.77-.57-.19-.52-.26-1.03-.31-1.57-.04-.53-.06-1.08.04-1.62.13-.81.35-1.62.61-2.43l.06.02Z"/><path class="cls-4" d="M123.69,224.49c-.32-.38-.59-.77-.83-1.19-.09-.15-.19-.28-.25-.45-.2-.58-.32-1.17-.39-1.75-.04-.25-.09-.5-.15-.73-.1-.31-.06-.65.12-.95.12-.1.21-.08.44,0,.23.07.53.18.64.31.24.22.23.45.33.68.08.23.13.46.17.72.03.32.3.53.48.78.2.27.36.58.59.84.14.17.28.33.45.47.25.21.51.42.83.52.24.08.53-.03.76.01.05,0,.11,0,.16,0,.18.04.22.22.21.7v.32c-.02.34-.16.66-.39.78-.17.09-.35.17-.52.21-.18.05-.37.09-.53.05-.34-.06-.66-.19-.96-.35-.45-.24-.83-.58-1.19-.93l.03-.04Z"/><path class="cls-4" d="M152.62,163.35c1.42-.56,2.88-1.04,4.46-1.34.57-.12,1.14-.25,1.72-.27,2.04-.06,4.08.26,5.96,1.01.83.33,1.66.71,2.4,1.23.47.33.96.66,1.31,1.14.39.44.57,1.04.74,1.58.09.35-.04.36-.4.26-.24-.06-.49-.13-.7-.18-.16-.03-.31-.06-.45-.09-.08-.01-.14-.04-.23-.05l-.17-.1c-.45-.2-.81-.45-1.2-.68-.4-.21-.81-.4-1.23-.57-.82-.4-1.72-.73-2.68-1-1.16-.32-2.44-.2-3.64-.03-1.32.15-2.67.51-4.01.99-.82.29-1.64.63-2.44,1-1.21.57-2.41,1.19-3.55,1.9-.87.56-1.65,1.23-2.41,1.89l-.5.44c-.65.52-.92.6-1.36.4-.1-.04-.21-.08-.29-.13-.28-.17-.23-.63.15-1.19,1.18-1.59,2.73-2.99,4.4-4.18,1.29-.82,2.68-1.48,4.09-2.1l.03.06Z"/><path class="cls-4" d="M175.6,150.18c-.38.28-7.92,6.25-16.88,6.25-10.6,0-12.79-3.12-19.06-3.65-5.21-.44-5.85.05-10.11,2.11-4.36,2.11-.14-2.35-.14-2.35l7.58-3.98,3.34-.82,7.78,4.17s5.95,1.51,8.22,1.41,11.04-.5,11.04-.5l8.23-2.63Z"/><path class="cls-4" d="M113.1,123.16c-1.76,1.35-15.88.49-19.46-7.36-5.1-11.21,1.46-16.6,1.46-16.6l3.39-.65s-2-4.47-.46-7.91c1.53-3.44,5.12-8.29,7.52-8.88s8.25,0,8.25,0c0,0,.22-4.24,2.32-7.15s6.51-5.71,8.63-5.43,8.16,1.51,8.16,1.51c0,0,1.76-3.17,6.19-6.79,4.43-3.62,14.9-11.41,18.35-11.61s13.65-3.02,15.82-1.61c2.17,1.41,4.57,2.54,4.43,4.52-.14,1.98-.17,8.88-1.14,9.81s-1.54,3.89-1.54,3.89c0,0,8.19-2.24,10.87-1.12s7.65,8.73,7.86,9.95.04,6.85.04,6.85c0,0,4.07-1.71,6.49-.13,2.28,1.48,4.23,5.2,4.23,9.02,0,7.13-9.47,11.73-11.37,11.59-1.9-.14-1.75-3.81-1.75-3.81,0,0-7.24.04-9.9-2.38s-6.55-10.2-6.55-10.2c0,0-.16,1.63-8.58,2.31-8.43.67-18.11-.43-19.33-.82-1.22-.39-10.96-5.96-10.97-5.7s.44,4.79-2.01,10.24c-2.45,5.45-5.21,13.89-7.75,14.88-2.54.99-5.29-4.39-9.14-2.34-3.85,2.06-4.41,1.35-5.54,4.46s-1.41,3.25-.85,5.65,2.33,5.83,2.33,5.83Z"/><path class="cls-4" d="M323.27,432.46c-.07-1.63.14-3.28.59-4.79.16-.55.28-1.12.5-1.65.81-1.85,1.97-3.48,3.29-4.9.56-.65,1.18-1.25,1.81-1.81.79-.74,1.74-1.32,2.77-1.67.32-.11.41.13.36.55-.06.41-.2,1.05-.54,1.52-.59.85-1.22,1.58-1.82,2.33-.67.68-1.32,1.4-1.96,2.15-.77.91-1.16,2.09-1.51,3.21-.41,1.24-.64,2.53-.63,3.84,0,.81.08,1.62.27,2.41.28,1.2.71,2.39,1.42,3.39.55.78,1.33,1.34,2.08,1.82.16.11.35.19.51.29.64.33.55.89.37,1.55-.05.16-.08.32-.13.46-.09.24-.25.4-.51.52-.26.11-.64.22-1.03.16-2.05-.74-3.77-2.51-4.7-4.56-.72-1.52-1.1-3.17-1.22-4.82h.07Z"/><path class="cls-4" d="M319.59,453.54c-.11-1.58.07-3.15.44-4.64.13-.54.23-1.1.42-1.62.72-1.84,1.78-3.51,3.07-4.91.57-.62,1.14-1.25,1.72-1.83l.57-.56c.2-.17.43-.32.65-.47l.35-.21c.14-.04.27-.08.41-.12.28-.07.52-.18.79-.25.33-.09.37.06.3.43-.05.25-.1.51-.15.73-.03.14-.05.32-.08.49,0,.09-.04.16-.04.27l-.11.18-.42.62c-.13.21-.33.35-.48.53-.33.34-.64.7-.96,1.05-.3.36-.61.72-.91,1.08-.32.35-.64.71-.96,1.08-.77.89-1.13,2.05-1.49,3.17-.39,1.23-.61,2.53-.62,3.83,0,.8.07,1.61.25,2.39.23,1.04.94,2.16,1.77,3.02.66.68,1.47,1.17,2.27,1.5l.51.22c.61.3.76.46.85,1.04.02.13.06.25.07.37.06.35-.37.77-1.14.73-.56-.02-1.13-.1-1.65-.31-.51-.21-1-.46-1.46-.77-.92-.6-1.71-1.36-2.35-2.27-.48-.67-.91-1.38-1.23-2.3-.17-.52-.22-.84-.31-1.26-.08-.4-.13-.8-.17-1.2h.06Z"/><path class="cls-4" d="M426.11,446.11c-.4.07-.81.14-1.21.22-.14.03-.27.1-.42.13-.52.09-1.07.1-1.58.21-.23.04-.45.11-.66.18-.28.09-.55.19-.85.22-.09,0-.12-.09-.09-.23.03-.14.1-.33.24-.44.49-.36.99-.72,1.56-.89.35-.1.64-.35.99-.47.38-.14.76-.27,1.14-.4.24-.08.47-.16.71-.24.35-.13.72-.23,1.05-.4.26-.13.47-.37.7-.57.05-.04.09-.1.15-.14.2-.12.32-.05.57.45l.16.3c.15.31.23.75.1.9-.35.5-.84.72-1.35.9-.38.13-.79.2-1.18.31l-.02-.04Z"/><path class="cls-4" d="M389.18,449.42l-6.5.09c-.79.01-1.58.1-2.37.09-2.79-.01-5.58-.03-8.37-.04-1.24.02-2.48.03-3.71.05-.79,0-1.58.07-2.37-.02-.79-.06-1.59-.15-2.38-.24-.49-.06-.43-.11-.02-.26.41-.14,1.17-.48,2.07-.71.4-.08.8-.22,1.2-.26l1.2-.14,2.4-.25c1.61-.05,3.22-.06,4.85-.02,1.94.05,3.96-.15,5.94-.22l6.56-.08,4.04-.04c2.04-.03,4.08-.02,6.11-.09,1.57-.05,3.11-.21,4.67-.3.34-.02.68-.06,1.02-.07,1.28-.02,1.69.08,1.96.63.06.11.14.22.18.31.12.29-.4.77-1.33.85-2.76.36-5.67.47-8.6.57-2.18.06-4.36.12-6.54.18v-.05Z"/><path class="cls-4" d="M395.23,453.89c-1.47,0-2.93.03-4.4,0-.54,0-1.07.05-1.61.03-1.89-.06-3.79-.11-5.67-.17-.84-.04-1.68-.03-2.51-.03h-1.6c-.54.02-1.07-.14-1.61-.22-.33-.07-.29-.18,0-.36.28-.16.79-.55,1.4-.67,1.08-.12,2.16-.23,3.24-.32.54-.04,1.08-.08,1.63-.1.54,0,1.09.02,1.64.04,1.31.07,2.67-.1,4.01-.16,1.47-.07,2.95-.09,4.42-.11l2.73-.05c1.38-.04,2.76-.05,4.12-.15,1.06-.09,2.1-.23,3.15-.31.23-.02.46-.06.69-.03.44.04.72.09.93.2.2.12.32.25.42.4.04.07.1.13.13.19.04.1-.02.19-.17.32-.15.13-.39.31-.7.41-1.84.68-3.8.89-5.78.97-1.47.08-2.95.11-4.43.16v-.05Z"/><path class="cls-4" d="M404.92,454.22c0-.96.01-1.92-.01-2.89,0-.35-.08-.7-.07-1.05.02-1.25.05-2.51.05-3.76.02-.56.01-1.12-.01-1.67-.04-.71-.04-1.42.29-2.15.1-.23.07-.19.2-.01.07.09.19.22.36.37.14.15.27.33.36.53.52,1.4.74,2.8.61,4.27-.06.88.13,1.77.18,2.66.04.98.05,1.97.06,2.95v1.82c.02.92-.02,1.84,0,2.76,0,.36.05.71.09,1.06.02.35.03.71.04,1.06,0,.16,0,.31-.03.46-.08.58-.28.75-.65.85-.08.02-.16.05-.24.06-.22.04-.51-.22-.66-.64-.22-.62-.38-1.25-.49-1.88-.05-.63-.07-1.27-.08-1.91-.02-.96-.03-1.92-.05-2.88h.05Z"/><path class="cls-4" d="M349.12,460.79c7.85.19,15.71.27,23.57.26,2.87-.03,5.74-.06,8.6-.1,5.05-.03,10.11-.06,15.15-.17,2.52-.06,5.05-.12,7.53-.29.29-.03.62-.05.89-.09.26-.03.47-.07.77-.18.57-.19,1.16-.41,1.75-.63l3.52-1.37c4.16-1.65,8.32-3.42,12.37-5.23l1.94-.9.95-.46.33-.17c.06-.04.14-.07.18-.13.03-.13.05-1.02.06-1.7l.02-2.14c.03-2.86-.03-5.71.38-8.57.13-1.78.2-1.55.58-.05.41,1.5,1.32,4.28,1.23,7.6,0,1.47,0,2.93-.06,4.44l-.02.34c0,.18-.04.36-.07.53-.08.34-.08.73-.38.92-.19.28-.51.45-.82.64l-.62.31-2.02.95c-2.67,1.24-5.35,2.41-8.05,3.57-2.7,1.15-5.4,2.29-8.17,3.33-.7.26-1.39.52-2.12.76l-.58.18c-.23.07-.46.11-.7.14-.49.08-.8.08-1.21.12-1.51.09-2.98.12-4.46.15-7.07.11-14.4.35-21.62.4-7.93.04-15.87,0-23.8-.13-4.88-.08-9.77-.2-14.65-.41-1.85-.08-3.7-.18-5.56-.31-1.86-.16-3.69-.28-5.62-.67-.24-.05-.54-.17-.8-.26-.25-.11-.45-.25-.67-.38-.42-.28-.82-.58-1.18-.91-.74-.66-1.38-1.41-1.92-2.22-1.09-1.63-1.75-3.55-1.86-5.52-.05-1.56.22-3.01.63-4.44.43-1.43,1.12-2.83,2.1-3.99.98-1.17,2.13-2.12,3.42-2.9,1.35-.8,2.83-1.22,4.29-1.47,1.29-.21,2.56-.31,3.85-.31,2.39.05,3.92.3,4.99.53,1.06.23,1.65.5,2.11.83.21.15.49.3.61.42.41.41-1.55.57-4.89.44-2.47-.02-4.97,0-7.25.54-1.15.28-2.15.69-3.07,1.34-.98.67-1.85,1.45-2.53,2.33-.68.89-1.16,1.89-1.47,3.01-.31,1.11-.52,2.38-.48,3.41.06,2.19,1.19,4.34,2.73,5.98.3.29.6.57.92.81.3.24.7.47.85.49.66.19,1.68.36,2.61.45,1.91.2,3.88.32,5.85.42,3.94.2,7.9.31,11.86.38v.06Z"/><path class="cls-4" d="M420.96,428.13c-.54.1-1.1.15-1.64.24-.2.03-.38.1-.58.13-.7.12-1.41.17-2.11.28-.31.05-.61.14-.91.22-.38.12-.75.24-1.15.3-.12.02-.15-.07-.09-.21.06-.14.18-.35.38-.48.72-.44,1.46-.83,2.26-1.03.48-.13.95-.32,1.43-.48.53-.16,1.06-.3,1.6-.44.33-.08.66-.16.99-.24.49-.13,1-.24,1.47-.43.36-.15.69-.39,1.01-.6.07-.05.14-.11.21-.15.27-.15.41-.07.65.34.06.09.12.18.17.28.17.33.16.65-.03.84-.57.55-1.29.82-2.01,1.04-.54.16-1.09.28-1.63.41v-.04Z"/><path class="cls-4" d="M425.25,431.22l-.08,1.67-.08.97c-.11.47-.21.95-.41,1.36-.32.25-.71.43-1.08.63-.09.04-.19.11-.28.13l-.18.06-.35.12c-.47.16-.92.29-1.38.44-.72.22-1.42.49-2.14.7-2.54.71-5.07,1.41-7.62,2.07-1.13.29-2.24.66-3.35.98-1.44.38-2.83.88-4.34,1.05-.47.06-.43,0-.11-.29.22-.2.44-.41.65-.61.28-.23.62-.45,1.01-.64,1.39-.65,2.76-1.32,4.21-1.78,1.43-.5,2.88-.96,4.38-1.3,1.78-.43,3.55-1.12,5.32-1.7l1.98-.66.97-.34.29-.1c.07-.02.14-.05.2-.09.08-.11.07-.23.1-.4.02-.31.03-.62.04-.94l.06-3.77c0-1.92.05-3.84.01-5.75-.03-1.48-.17-2.94-.22-4.42-.01-.33-.04-.65-.03-.98,0-1.22.26-1.61.83-1.82.13-.05.25-.11.37-.14.36-.08.8.45.87,1.31.26,2.57.34,5.3.39,8.05.03,2.05.05,4.1.02,6.18h-.06Z"/><path class="cls-4" d="M393.04,430.98c-1.46-.01-2.92-.02-4.38,0-.53,0-1.06.07-1.6.08-1.88,0-3.76.05-5.65.04-.84,0-1.68.05-2.5.09l-1.6.09c-.53.05-1.07-.09-1.61-.16-.33-.06-.3-.17-.02-.38.27-.18.77-.6,1.37-.74,2.15-.26,4.3-.56,6.5-.52,1.31.03,2.67-.16,4.01-.24,1.47-.08,2.95-.14,4.43-.18l2.73-.05c1.38-.03,2.77,0,4.14-.06,1.07-.03,2.11-.17,3.17-.24.23-.02.46-.05.7-.05.44,0,.72.03.92.15.19.14.3.33.38.6.04.12.08.24.1.35.03.19-.05.36-.21.53-.16.16-.42.34-.73.36-1.86.28-3.79.29-5.75.32-1.46.02-2.92.03-4.39.05v-.05Z"/><path class="cls-4" d="M397.11,434.46c-.8-.08-1.59-.15-2.39-.2-.29-.02-.58.01-.87,0-1.03-.07-2.06-.12-3.1-.15-.46-.01-.92.01-1.37.04-.29.02-.59.04-.87.06-.29-.01-.59-.07-.89-.13-.19-.04-.17-.14-.02-.3.14-.15.41-.43.74-.57,1.18-.2,2.38-.33,3.59-.26.72.04,1.47-.07,2.21-.09.81-.02,1.63-.02,2.44,0,.5.01,1,.02,1.5.03.76.01,1.52.07,2.28.05.59-.01,1.17-.13,1.75-.2.13-.02.26-.05.39-.05.48.01.62.22.69.69.02.11.04.22.04.32.02.34-.2.66-.55.81-1.03.3-2.09.21-3.16.16-.8-.06-1.6-.12-2.4-.18v-.04Z"/><path class="cls-4" d="M404.85,427.42c-.03.76-.06,1.53-.1,2.29-.01.28.03.55.02.83-.06.98-.15,1.97-.18,2.95,0,.43-.02.87,0,1.3,0,.28.04.55,0,.83-.04.28-.12.56-.2.84-.06.18-.19.16-.39.03-.19-.13-.54-.38-.72-.69-.24-.55-.31-1.11-.42-1.67-.05-.56,0-1.13.07-1.71.09-.69-.05-1.39-.07-2.09-.03-.77-.02-1.53-.01-2.3,0-.47,0-.95,0-1.42-.01-.71,0-1.43-.07-2.14-.06-.55-.23-1.08-.36-1.62-.03-.12-.07-.23-.09-.35-.06-.45.06-.6.62-.73.12-.03.25-.07.37-.09.4-.07.8.09.94.41.43.95.54,1.97.6,3,.04.76.04,1.54.05,2.3h-.05Z"/><path class="cls-4" d="M333.51,438.58l.45.13.51.09,1.02.17c.67.13,1.38.19,2.08.28,1.39.18,2.81.29,4.22.42,2.83.24,5.68.41,8.53.56,2.08.1,4.16.11,6.24.2,7.34.28,14.69.45,22.04.44,3.26,0,6.54-.12,9.77-.17,2.08-.08,4.16-.08,6.24-.12l3.13-.02c1.04-.02,2.08-.02,3.13.05,1.3.08,1.13.1.05.39-1.08.33-3.07.92-5.47,1.19-8.49,1.17-17.03.99-25.61.75-5.13-.16-10.48-.12-15.73-.3-5.78-.21-11.55-.47-17.34-1.14-1.79-.24-3.56-.41-5.47-1.1-1.89-.88-3.19-2.47-4.02-4.18-1.27-2.58-1.64-5.62-.92-8.4.66-2.76,2.23-5.34,4.51-7.06.88-.67,1.84-1.23,2.94-1.59l.44-.11c.16-.02.35-.04.49-.05l.81-.02,1.56.02c2.06.05,4.1.13,6.15.23.9.04,1.79.09,2.7.13,3.37.2,4.43.49,5.12,1.04.16.13.37.25.45.37.3.36-1.1.66-3.58.64-3.66-.06-7.41-.12-11.21-.18-.89.01-2.04-.04-2.35.13-.66.24-1.4.66-2.03,1.16-1.3,1.01-2.31,2.37-2.98,3.89-.49,1.11-.79,2.42-.87,3.6-.06,1.21.11,2.46.49,3.63.39,1.17,1,2.27,1.73,3.16.36.45.78.82,1.22,1.1.22.16.44.24.67.35l.9.24v.06Z"/><path class="cls-4" d="M327.64,412.78c-.12-1.2-.08-2.42.14-3.58.08-.42.13-.85.26-1.26.48-1.44,1.21-2.74,2.08-3.89.4-.51.82-.98,1.25-1.44.28-.29.57-.57.88-.82.34-.22.73-.38,1.11-.53.24-.09.23-.04.15.19-.09.22-.17.7-.32,1.13-.41.64-.78,1.26-1.1,1.89l-.24.47-.29.44c-.19.3-.38.6-.58.9-.46.74-.59,1.65-.73,2.5-.15.94-.25,1.9-.16,2.87.04.6.13,1.19.3,1.77.25.88.57,1.76,1.1,2.51.41.59,1,1,1.56,1.39.12.09.26.15.38.24.41.36.42.61.04,1.29-.08.15-.15.29-.22.42-.23.4-.82.72-1.34.52-1.49-.63-2.59-2-3.3-3.48-.54-1.11-.86-2.31-1.04-3.52h.06Z"/><path class="cls-4" d="M423.73,407.37c-.5.13-1.01.22-1.52.33-.18.04-.36.12-.54.15-.66.12-1.3.26-1.97.33-.29.04-.58.11-.86.18-.36.09-.73.17-1.1.2-.12,0-.12-.05-.05-.16.07-.1.21-.27.4-.39.67-.37,1.33-.78,2.07-.96.45-.08.88-.3,1.32-.45.48-.16.97-.31,1.46-.47.3-.09.6-.19.9-.28.45-.15.91-.29,1.34-.49.33-.16.62-.4.93-.61.07-.05.13-.11.2-.14.26-.15.39-.09.62.28.05.08.11.17.15.25.16.3.15.59-.02.76-.5.5-1.14.78-1.8,1.01-.49.18-.99.31-1.49.46v-.03Z"/><path class="cls-4" d="M397.47,415.23c-.95-.05-1.89-.1-2.84-.14-.35-.01-.69.02-1.03,0-1.22-.06-2.44-.19-3.65-.24-.54-.03-1.08,0-1.62-.02-.69,0-1.38,0-2.07-.11-.22-.03-.19-.18-.02-.35.17-.17.5-.4.89-.47.7-.11,1.4-.26,2.1-.29.7-.03,1.41-.03,2.12.02.85.05,1.73-.06,2.6-.06.95,0,1.91.01,2.87.02.59,0,1.18,0,1.76.01.89,0,1.78.02,2.67-.04.69-.04,1.36-.2,2.04-.31.15-.02.3-.07.45-.08.56-.03.74.15.86.6.03.11.06.21.08.31.05.35-.17.65-.58.83-1.21.39-2.48.41-3.76.43-.95,0-1.9-.03-2.86-.05v-.04Z"/><path class="cls-4" d="M216.84,462.37c4.53.27,9.13.21,13.64-.29,1.64-.18,3.25-.55,4.8-.88.68-.15,1.34-.32,1.93-.54l.23-.1s.1-.05.14-.08c.09-.06.19-.14.22-.25.06-.23-.12-.44-.3-.59-.02-.02-.15-.11-.29-.2-.13-.09-.27-.17-.42-.25-.28-.17-.6-.31-.91-.47-2.59-1.15-5.5-1.91-8.37-2.63-2.57-.64-5.18-1.14-7.78-1.74-.84-.2-1.67-.4-2.55-.72-.43-.15-.97-.42-1.35-.75-.4-.34-.73-.73-1-1.15-.51-.84-.86-1.73-.98-2.63-.12-.9-.14-1.78-.12-2.64.05-1.08.16-.93.54-.08.2.42.49,1.02.9,1.68.19.33.45.66.66,1,.2.34.4.69.62,1,.37.57.85.92,1.27,1.13.2.1.58.23.95.34.38.11.77.22,1.17.32,1.62.4,3.31.74,4.99,1.12,3.38.75,6.8,1.51,10.2,2.77,1.02.39,2.04.79,3.09,1.36.28.16.49.28.83.51.35.28.71.54.98.88.58.64.83,1.47.75,2.28-.15.82-.78,1.45-1.5,1.94-.19.11-.38.24-.57.34-.18.09-.29.15-.44.22-.28.13-.55.24-.83.35-1.1.42-2.18.71-3.27.9-4.77.86-9.52,1.05-14.27.99-2.92-.05-5.85-.25-8.76-.64-2.21-.31-4.42-.73-6.59-1.56-1.07-.45-2.18-.91-3.1-1.94-.87-1.01-1.32-2.15-1.64-3.25-.5-1.72-.75-3.42-.95-5.12-.19-1.7-.3-3.39-.3-5.09,0-.75-.03-1.48,0-2.23.15-2.79.47-3.67,1.27-4.16.18-.11.36-.27.52-.32.53-.18.9.98.89,2.94.02,2.92.12,5.93.46,8.87.17,1.46.43,2.92.84,4.22.21.63.45,1.25.74,1.67l.2.31c.07.08.14.12.2.18.07.13.34.27.56.41,1.53.84,3.76,1.42,5.93,1.78,2.2.38,4.48.59,6.76.7v.08Z"/><path class="cls-4" d="M120.55,467.63c1.65.61,3.85.8,5.96.84,2.14.04,4.32-.08,6.5-.29,1.59-.15,3.16-.43,4.75-.65,2.79-.4,5.57-.91,8.28-1.63,1.35-.36,2.68-.78,3.9-1.31.58-.27,1.2-.58,1.57-.88.13-.08.12-.13.2-.18.06-.03.14-.24.21-.35.15-.27.3-.54.4-.85.43-1.06.66-2.27.78-3.49.13-1.22.15-2.47.12-3.7-.04-1.59-.17-3.19-.25-4.81-.09-1.61-.24-3.23-.05-4.89.11-1.04.09-.89.45-.07.38.82,1.33,2.28,1.66,4.15.33,1.65.62,3.33.71,5.04.12,1.71.16,3.45-.02,5.24l-.18,1.35c-.09.46-.2.92-.3,1.37-.16.47-.29.93-.48,1.39l-.34.7c-.06.12-.1.22-.19.36-.11.16-.23.32-.36.48-.5.57-.95.87-1.39,1.13-.45.28-.87.45-1.3.65-.85.35-1.69.65-2.53.89-4.01,1.15-8.09,2.16-12.23,2.76-2.27.33-4.55.52-6.85.6-2.3.07-4.61.06-6.97-.29-1.44-.23-2.92-.51-4.39-1.44-.36-.2-.71-.57-1.02-.93-.14-.21-.27-.44-.39-.66-.09-.24-.15-.5-.21-.75-.1-.52.01-1.08.19-1.55.11-.21.22-.43.35-.63l.41-.51c.89-.91,1.88-1.45,2.86-1.95.98-.5,1.97-.92,2.97-1.31,2-.77,4.01-1.4,6-2.03,1.55-.49,3.08-.99,4.57-1.52.74-.27,1.49-.54,2.18-.84.18-.07.34-.15.5-.23.16-.07.33-.17.38-.2.14-.08.23-.23.26-.38.13-.47.19-1.14.24-1.78.16-2.47.15-3.23.94-3.84.16-.14.28-.33.42-.43.38-.39,1.38.76,1.37,2.81.03.76.02,1.53-.06,2.32-.04.4-.1.81-.2,1.25-.06.23-.1.43-.22.71-.13.31-.26.62-.46.89-.21.27-.47.48-.75.67-.13.11-.29.18-.43.26-.1.05-.22.12-.31.16-.39.19-.77.34-1.13.49-.73.29-1.45.53-2.17.77-2.87.94-5.74,1.75-8.52,2.73-1.03.36-2.04.74-3.01,1.17-.97.4-1.89.92-2.59,1.5-.34.28-.65.58-.76.8-.04.06-.07.11-.07.14,0,.03-.05.07-.02.07,0,0,0,0,0,0-.07-.01-.14-.01-.11-.02,0,0,0,0,0,0h-.01s0,0,0,0h0s0,0,0,0h0s.15-.02.15-.02h0s-.03.01.02.03c.02,0-.02.03.02.05.04.03.07.05.1.09.04.07.24.15.35.24.15.08.36.15.53.23l-.02.07Z"/><path class="cls-4" d="M287.98,168.64s.12.06.21.02c.02,0,.05-.02.08-.04.04-.03.17-.17.25-.26.18-.2.36-.41.53-.63.25-.32.42-.7.65-1.04.41-.6.79-1.23,1.11-1.88.33-.65.58-1.25.71-1.97.06-.31.08-.63.07-.93,0-.31,0-.62-.04-.91-.05-.38-.16-.73-.3-1.04-.06-.17-.16-.28-.23-.45-.06-.16-.16-.34-.3-.47-.18-.18-.18-.27.13-.41.16-.07.41-.15.74-.15.36-.03.73.11.98.39.88.96,1.27,2.09,1.36,3.18,0,.55-.06,1.08-.16,1.59-.1.5-.29,1.08-.51,1.53-.57,1.1-1,2.21-1.65,3.22-.36.55-.75,1.08-1.2,1.59-.18.2-.57.64-.91.94-.36.31-.73.56-1.1.74-.44.2-.88.3-1.33.26-.45-.05-.9-.32-1.16-.68-.03-.05-.07-.09-.09-.14-.39-.61-.45-1.39-.31-2.19.07-.41.19-.79.3-1.17.11-.31.2-.58.31-.86.33-.86.58-1.73.91-2.57.07-.19.13-.37.21-.55.39-.62.67-.73,1.2-.61.12.03.25.05.36.09.38.14.54.56.46,1.11-.1.82-.42,1.53-.65,2.26-.13.36-.25.72-.36,1.07-.06.18-.11.35-.16.52l-.04.13-.02.06h0s0,.03,0,.03c0,.02-.03,0-.05.08,0,.02,0,.06.03.07l-.02.09Z"/><path class="cls-4" d="M283.22,168c.83-.56,1.71-1.67,2.41-2.78.28-.41.48-.85.74-1.28.91-1.49,1.74-3.09,2.21-4.74.2-.73.32-1.45.18-2.08-.08-.39-.25-.69-.39-.88-.17-.24-.59-.48-.97-.33-.22.11-.31.12-.24-.24.04-.17.18-.44.48-.67.3-.23.75-.42,1.28-.34.23.03.48.1.71.23.23.15.38.28.54.46.33.33.54.72.65,1.09.24.74.29,1.41.25,2.08-.02.66-.2,1.23-.39,1.79-.19.56-.43,1.08-.69,1.59-.63,1.21-1.09,2.51-1.78,3.7-.76,1.31-1.7,2.51-2.89,3.58-.38.32-.79.63-1.29.87-.48.24-1.22.4-1.84.19l-.17-.05-.61-.38c-.16-.17-.32-.36-.45-.55-.09-.22-.19-.44-.23-.67-.02-.24-.04-.46-.04-.66.05-.81.33-1.45.57-2.1.42-1.01.84-1.98,1.35-2.91.11-.21.21-.41.33-.61.57-.65.85-.77,1.34-.64.1.02.21.03.28.05.23.05.39.6.18,1.2-.1.48-.31.88-.5,1.29l-.58,1.22c-.37.79-.72,1.62-.85,2.27l-.03.33c.02.09-.01.06,0,.07,0,0,0,0,0,.01,0,0,.02-.03,0,.01,0,0,0,.03.03.02.04,0,.21-.1.36-.2l.03.05Z"/><path class="cls-4" d="M279.33,164.34s.02.06.04.08c.07.06.16.06.3,0,0,.04.35-.27.58-.47.24-.24.5-.47.73-.73.4-.44.73-.95,1.1-1.43.65-.85,1.25-1.75,1.75-2.69.51-.94.91-1.88.96-2.84.06-.83-.29-1.7-.74-2.12-.04-.16-.79-.17-1.34-.12-.56.12-1.24-.09-1.79.1-.3.12-.32.2-.19-.21.16-.33.63-1.25,1.45-1.6.37-.12.74-.21,1.14-.27.2-.03.42-.05.67-.05.15.01.25,0,.45.05.19.04.37.1.54.18,1.17.61,1.65,1.45,1.92,2.34.53,1.77.09,3.49-.55,4.8-.79,1.57-1.55,3.12-2.6,4.51-.57.76-1.21,1.47-1.94,2.14-.29.27-.95.81-1.51,1.11-.3.14-.59.34-.9.39l-.45.11c-.15.02-.29,0-.44,0-.18,0-.36-.02-.55-.06-.3-.08-.59-.24-.83-.46-.22-.24-.39-.51-.47-.81-.18-.59-.12-1.27.04-1.96.1-.38.25-.83.38-1.13.11-.27.22-.54.34-.8l.36-.78.4-.84c.09-.17.2-.34.33-.48.14-.13.31-.24.49-.33.17-.09.37-.17.54-.22l.43-.13c.33-.1.64-.19.93-.28.19-.07.32-.14.44-.23.29-.15.21-.57.04-.76-.08-.1-.16-.15-.24-.23-.24-.29-.5-.62-.56-.93-.05-.35,0-.65.24-.94.1-.11.26-.22.37-.18.14.04.07.03.13.05.02,0,.05,0,.09-.01.11,0,.26-.03.36-.1.17-.07.46-.02.75.23.24.21.41.32.77.76.3.4.6.85.72,1.33.27.95-.07,2.09-.92,2.66-.43.3-.97.49-1.52.66l-.85.26-.35.11c-.15.05-.06.02-.08.03h0s0,0,0,0l-.48,1.09c-.08.19-.16.39-.23.58l-.1.28-.04.13h0s-.07.06-.06.12l-.06.08Z"/><path class="cls-4" d="M151.24,447.24c-4.14.27-8.28.36-12.43.26-4.15-.1-8.3-.37-12.44-.95-4.13-.58-8.28-1.44-12.29-3.06-2-.81-3.98-1.87-5.71-3.42-.43-.38-.82-.85-1.23-1.27-.38-.47-.74-.99-1.01-1.51-.58-1.03-.98-2.09-1.29-3.15-.91-3.08-1.24-6.14-1.45-9.19-.2-3.04-.21-6.07-.12-9.08.38-10.63,1.7-21.11,3.23-31.54,1.55-10.43,3.4-20.8,5.37-31.15,1.74-9.18,3.57-18.39,5.44-27.47,1.22-5.83,2.35-11.69,3.71-17.49,1.4-5.8,2.86-11.58,4.77-17.25.98-3.58.83-3.1.33,0-.28,1.54-.3,3.82-.61,6.52-.13,1.35-.24,2.83-.43,4.37-.21,1.54-.45,3.18-.74,4.87-.26,1.5-.5,3-.78,4.49l-.93,4.46-1.84,8.92c-1.2,5.95-2.39,11.9-3.59,17.86-2.43,11.91-4.76,23.85-6.83,35.9-1.24,7.2-2.28,14.59-3.05,22.03-.75,7.44-1.29,14.96-1.09,22.34.06,2.03.19,4.04.45,6.03.26,1.98.65,3.93,1.31,5.7,1.11,3.53,4.76,5.49,8.45,6.82,1.86.67,3.81,1.19,5.79,1.58,1.97.42,3.98.71,6,.96,4.04.47,8.12.69,12.2.72,5.03.03,10.07-.19,15.07-.71,2.5-.26,4.99-.59,7.44-1.05,1.23-.23,2.44-.49,3.63-.81,1.16-.33,2.39-.69,3.29-1.22.55-.34,1.05-1,1.44-1.76.39-.76.68-1.62.94-2.5.5-1.76.8-3.63,1.04-5.5.48-3.75.67-7.58.77-11.4.19-7.65,0-15.31-.28-22.92-.43-11.84-1.21-23.43-1.61-35.17-.09-2.59-.18-5.11-.21-7.73-.06-4.84.07-8.04.32-10.28.24-2.24.58-3.52,1.04-4.53.21-.46.43-1.07.63-1.33.68-.88.89,3.05,1.08,10.07.36,20.85,2.17,42.85,2.37,65.16.02,4.15-.03,8.31-.27,12.5-.27,4.2-.61,8.41-2.01,12.76-.37,1.09-.82,2.2-1.58,3.33-.36.56-.88,1.12-1.49,1.63-.75.55-1.28.73-1.86,1-2.21.86-4.28,1.3-6.38,1.72-4.19.78-8.35,1.23-12.53,1.52l-.03-.08Z"/><path class="cls-4" d="M247.82,401.78c.94,3.9,1.79,7.83,2.43,11.85.31,2.01.57,4.04.71,6.11.12,2.08.16,4.19-.22,6.42-.2,1.11-.52,2.28-1.19,3.45-.34.64-.71.98-1.06,1.46-.34.47-.77.82-1.16,1.23-1.62,1.54-3.42,2.71-5.26,3.72-3.7,1.98-7.59,3.31-11.51,4.38-5.73,1.53-11.54,2.55-17.41,3.05-5.17.41-10.38.51-15.61-.07-2.62-.34-5.25-.73-7.89-2.05-.33-.18-.66-.41-.98-.63-.15-.08-.36-.31-.53-.46-.16-.17-.28-.34-.42-.51-.47-.67-.76-1.31-1.04-1.95-.53-1.28-.91-2.54-1.25-3.81-.67-2.53-1.18-5.06-1.64-7.59-.47-2.53-.88-5.06-1.26-7.6-.76-5.07-1.42-10.15-2.04-15.23-1.07-9.01-2.15-18.07-3.21-27.01-.67-5.74-1.33-11.49-2-17.25l-.99-8.62-.5-4.31c-.1-.71-.12-1.44-.18-2.16-.03-.72-.15-1.44-.12-2.17-.02-1.82-.05-2.6,0-2.56.04.05.19.92.67,2.39.45,1.47,1.18,3.56,1.72,6.14.56,2.57,1.18,5.59,1.62,8.9,3.44,23.38,5.05,47.01,9.12,70.3.34,1.73.71,3.45,1.15,5.15.44,1.68.95,3.4,1.65,4.85.17.35.37.68.55.93l.13.17s.08.06.11.1c.09.08.28.18.42.27.26.21.68.33,1.01.51.37.15.77.27,1.15.41,1.61.48,3.36.75,5.11.93,7.08.67,14.4.11,21.48-.96,3.9-.59,7.77-1.43,11.53-2.54,1.88-.56,3.74-1.18,5.53-1.93,1.8-.73,3.55-1.57,5.17-2.57,1.61-.99,3.12-2.14,4.27-3.51l.41-.52c.15-.18.27-.35.35-.51.2-.3.35-.69.48-1.09.28-.79.4-1.71.49-2.63.27-3.75-.3-7.72-.96-11.59-1.75-9.59-4.48-19.08-7.25-28.51-4.25-14.29-8.84-28.57-13.27-42.71-3.45-11-6.92-21.76-9.87-32.81-.65-2.43-1.28-4.82-1.86-7.29-1.08-4.59-1.54-7.68-1.76-9.86-.22-2.18-.1-3.47.18-4.54.13-.48.22-1.11.36-1.39.48-.96,1.52,2.72,3.11,9.34,4.72,19.65,11.36,40.03,17.87,60.56,4.83,15.26,9.82,30.56,13.73,46.27l-.08.04Z"/><path class="cls-4" d="M200.42,289.43c-1.4.32-2.8.67-4.19,1.04l-2.1.58-.91.26-.47.13-.44.04c-.31.05-.54-.04-.8-.05-.11-.03-.27,0-.37-.1-.11-.1-.19-.19-.28-.28-.56-.51-.78-1.5-1.04-2.37-.15-.57-.27-1.08-.36-1.63-.62-3.79-.87-7.56-1.12-11.33-.13-1.67-.18-3.36-.24-5.02-.05-1.07-.08-2.14,0-3.22.03-.54.07-1.07.13-1.61.04-.54.25-1.07.37-1.6.2-.66.18-.57.39,0,.1.28.29.68.55,1.16.21.48.36,1.03.46,1.63.4,2.13.57,4.25.87,6.37.2,2.13.27,4.28.4,6.44.13,2.58.7,5.24,1.17,7.78l.12.59c.03.12.05.26.12.38.11.06.24-.02.37-.03l.2-.04.11-.03.27-.07,4.29-1.14c1.77-.45,3.55-.85,5.34-1.22,2.72-.55,5.47-.95,8.23-1.2,2.14-.21,4.27-.4,6.47-.26.48.05.96.06,1.45.15,1.82.33,2.33.81,2.43,1.59.02.18.06.38.04.55-.03.29-.26.48-.6.57-.34.07-.81.08-1.39,0-3.42-.4-7.17-.15-10.95.37-2.81.4-5.65.94-8.46,1.64l-.02-.06Z"/><path class="cls-4" d="M124.32,287.87c2.39-.33,4.82-.65,7.3-.82,1.24-.08,2.5-.12,3.78-.08,1.24.05,2.47.13,3.69.25,1.79.17,3.57.32,5.33.61,3.1.51,6.17,1.2,9.17,1.9.75.17,1.5.34,2.22.47.21.04.32.06.49.07.08,0,.16,0,.24-.02.08-.02.07-.14.1-.23l.12-.57.2-1.07.39-2.27c.44-2.69.69-5.41.69-8.08-.02-1.72-.09-3.44-.22-5.17-.03-.43-.06-.86-.1-1.29l-.06-1.3-.07-1.31c0-.44.1-.9.13-1.34.14-1.13.02-.96.47-.1.58.84,1.57,2.43,1.92,4.48.25,1.81.52,3.65.5,5.5.02,1.85-.08,3.7-.28,5.53-.19,1.83-.47,3.63-.78,5.42l-.24,1.34-.61,2.05c-.06.16-.08.35-.17.49-.11.12-.28.23-.44.31-.32.15-.67.23-1.06.23-.74.03-1.71-.14-2.03-.22-4.32-.95-8.62-1.79-12.96-2.34-2.36-.31-4.75-.53-7.11-.59-2.32-.04-4.71.21-7.09.51-2.94.37-5.88.88-8.92,1.18l-.88.07-.44.02c-.14,0-.4.02-.59.01-.83,0-1.64-.09-2.3-.35-.33-.14-.61-.31-.86-.56-.07-.05-.12-.12-.17-.2l-.07-.11-.02-.03c.1-.06.03-.03.05-.05,0-.02,0-.04,0-.06.02-.15.05-.28.08-.43l.09-.45c.03-.15.13-.34.19-.5.18-.35.41-.71.61-1.06l.5-.88.4-.73c.26-.49.51-.99.74-1.48.47-1,.9-2.02,1.28-3.05,1.16-3.21,1.72-6.54,1.81-9.86.03-.73-.01-1.45-.03-2.18-.03-1.36-.09-2.25,0-2.9.11-.65.29-1.04.62-1.39.15-.16.28-.37.43-.47.25-.18.52,0,.82.49.31.49.62,1.3.76,2.38.96,6.44-.66,13.46-3.78,19.49l-.44.84-.23.42-.11.2h0s0,0-.01,0c-.02.01,0,.02.01.03-.06,0,.18,0,.29-.01l.42-.03.85-.07c.57-.05,1.16-.13,1.75-.2l3.58-.52.02.07Z"/><path class="cls-4" d="M183.08,264.97c-2.98.19-5.96.39-8.94.67l-3.24.39c-3.82.38-7.63.8-11.42,1.38-1.68.26-3.36.62-5,1.01-1.06.25-2.1.54-3.15.81-1.06.22-2.11.49-3.21.59-.74-.12-.68-.25-.26-.88.42-.61,1.32-1.41,2.52-1.83,4.33-1.24,8.75-2.14,13.25-2.6,2.7-.26,5.46-.74,8.2-1.05,3.02-.33,6.04-.58,9.06-.81l5.57-.39,1.88-.12.58-.03h.15s.06,0,.07-.02v-.07s-.05-.28-.05-.28l-.1-.58-.19-.94c-.14-.68-.29-1.37-.46-2.04-.5-2.1-1.13-4.13-1.8-6.14-.15-.44-.3-.87-.46-1.31-.26-.82-.41-1.37-.41-1.79.03-.43.16-.72.41-1.01.11-.13.21-.29.33-.39.2-.17.46-.12.77.12.31.24.68.66.95,1.27,1.64,3.63,2.72,7.57,3.31,11.7.12.74.27,1.48.4,2.21l.2,1.1.05.28s.02.1.02.13h-.14s-.56.06-.56.06l-2.24.19-1.58.11-4.51.33v-.06Z"/><path class="cls-4" d="M164.32,201.17l-14.6.9-5.32.43-9.38.61-4.69.33-1.97.17c-.18.01-.36.02-.54.05-.11,0-.04.15-.05.22,0,.09.02.18.03.27l.04.24.06.32.2,1.02.42,2.04c.3,1.36.6,2.72.89,4.07.36,1.74.74,3.48,1.05,5.24.16.88.29,1.76.4,2.66.13.89.09,1.81.09,2.71-.05,1.14-.31.99-.83.11-.25-.44-.62-1.05-1.02-1.78-.37-.74-.68-1.63-.92-2.61l-1.3-5.24c-.43-1.75-.81-3.52-1.19-5.3l-.28-1.34c-.04-.23-.1-.44-.13-.68l-.14-.83c-.08-.44-.07-.83-.11-1.24,0-.2-.04-.41-.03-.6l.09-.5c.02-.17.06-.33.14-.47.13-.1.27-.17.4-.25l.41-.23.54-.18.54-.18.64-.06.63-.05.35-.02,1.37-.08,2.74-.15c4.37-.2,8.89-.73,13.35-1.07l14.71-1.05c3.02-.21,6.04-.41,9.06-.62l3.43-.23c1.19-.05,2.1-.19,3.89-.17.2,0,.37.05.53.1.16.11.25.26.34.42.18.32.29.72.38,1.12l.23,1.03.17.85c.21,1.13.43,2.25.64,3.37.67,3.47,1.48,6.84,2.32,10.2.2.74.39,1.46.59,2.2.34,1.37.56,2.27.59,2.93,0,.67-.14,1.1-.38,1.5-.11.18-.19.41-.3.54-.19.22-.49.1-.9-.34-.41-.43-.91-1.18-1.24-2.21-1.04-3.04-1.79-6.19-2.47-9.39-.34-1.6-.65-3.21-.95-4.83l-.45-2.42-.45-2.24h0s0,0-.02,0h0s-.1,0-.1,0l-.46.03-3.67.23-7.36.5v-.07Z"/><path class="cls-4" d="M132.98,152.98c-.55.36-1.09.75-1.62,1.15-.55.39-1.05.83-1.56,1.27-.38.31-.67.71-1.02,1.05-1.29,1.17-2.42,2.5-3.5,3.89-.45.63-.89,1.29-1.2,1.99-.19.46-.47.87-.71,1.31-.12.22-.23.44-.39.64-.17.2-.34.4-.52.61-.23.25-.31.18-.43-.15-.09-.24-.18-.49-.25-.7-.12-.3-.18-.63-.12-.94.14-1.12.57-2.15,1.11-3.1.27-.48.53-.96.85-1.41.34-.43.7-.85,1.07-1.26.92-.94,1.66-2.07,2.59-3.04.5-.53,1.05-1.02,1.58-1.52.56-.48,1.12-.94,1.69-1.39.74-.52,1.46-1.06,2.24-1.52,1.14-.75,2.4-1.33,3.63-1.92.49-.21.98-.43,1.47-.67.53-.17,1.03-.41,1.61-.52.25-.04.51-.11.77-.14,1-.07,1.34.3,1.36,1,0,.17.02.33,0,.49-.07.52-.49.98-.92,1.09-1.35.38-2.84,1-4.36,1.78-1.11.62-2.26,1.25-3.31,2.06l-.04-.05Z"/><path class="cls-4" d="M205.72,90.58c.49,2.06.64,4.18.35,6.29-.13.77-.21,1.56-.51,2.32-.26.71-.56,1.21-.85,1.8-.32.57-.65,1.12-1.02,1.66-.72,1.09-1.64,2.05-2.63,2.89-.88.74-1.81,1.41-2.77,1.97-.61.37-1.24.7-1.89.97-.32.13-.65.26-.98.37-.33.12-.71.11-1.07.14-.5-.06-.41-.02-.2-.43.15-.28.3-.58.44-.85.19-.31.48-.57.79-.79,1.14-.78,2.25-1.43,3.2-2.25.97-.79,1.78-1.71,2.58-2.72.51-.58.88-1.3,1.21-2.04.16-.37.3-.76.45-1.14.1-.35.22-.69.29-1.06.37-1.6.32-3.4-.02-5.12-.22-1.06-.53-2.11-.98-3.1-.33-.75-.76-1.45-1.23-2.12-.5-.62-1.07-1.26-1.66-1.58-1.01-.54-2.3-.58-3.41-.43l-.71.13c-.43.07-.69.1-.91,0-.24-.11-.44-.3-.71-.61-.12-.14-.27-.27-.38-.41-.19-.24-.25-.51-.13-.84.12-.33.43-.7.92-.91,1.43-.67,3-.76,4.54-.47.77.15,1.55.41,2.33.84.19.12.39.24.58.36.19.14.4.3.55.44.28.27.57.54.83.83,1.54,1.72,2.47,3.75,3.08,5.8l-.07.03Z"/><path class="cls-4" d="M185.6,98.53c.94.3,1.92.55,2.94.73.51.11,1.01.19,1.55.28l.53.08c.23.05.45.13.67.19.43.13.9.25,1.13.66.2.26.34.58.46.9.13.32.25.69.29.85.13.42.23.82.31,1.24.26,1.45.39,2.9.44,4.34.07,1.41.02,2.99-.35,4.44-.3,1.3-.85,2.55-1.57,3.66-.47.71-1.01,1.38-1.66,1.94-.67.53-1.41.98-2.23,1.18-.61-.07-.48,0-.28-.52.22-.48.6-1.21,1.08-1.85.97-1.04,1.64-2.27,2.03-3.6.4-1.32.67-2.69.67-4.2.03-1.87-.41-3.82-.91-5.6l-.16-.55c-.02-.09-.05-.19-.1-.28-.05-.09-.17-.09-.26-.11l-.16-.03-.41-.05c-1.1-.13-2.23-.3-3.34-.58-1.37-.34-2.72-.76-4.01-1.38-1.96-.9-3.75-2.25-5.16-3.89-.52-.66-1.1-1.29-1.5-2.02-.22-.36-.47-.71-.67-1.08l-.5-1.16c-.13-.35-.33-.68-.39-1.04-.27-1.35-.12-1.83.55-2.19.15-.08.3-.18.45-.23.5-.17,1.09.27,1.44,1.08,1.06,2.38,2.17,4.53,4.07,6.12,1.4,1.17,3.14,2.05,5.06,2.6l-.02.07Z"/><path class="cls-4" d="M122.48,125.96c.22.03.43.01.64,0h.32s.14-.02.25-.03l.32-.05c.44-.08.81-.12,1.29-.23l1.45-.32,1.52,4.4c.4.89.75,1.8,1.18,2.68.47.86.89,1.75,1.4,2.59.54.82,1.01,1.69,1.6,2.47,2.27,3.21,5.04,6.09,8.19,8.46,2.59,1.95,5.46,3.53,8.47,4.66,2.66,1,5.43,1.68,8.25,1.94,2.82.18,5.69.03,8.43-.65,2.74-.66,5.34-1.86,7.62-3.54,2.28-1.67,4.23-3.81,5.84-6.19,2.85-4.26,4.59-9.27,5.64-14.3,1.37-6.5,1.72-13.19,1.89-19.86.13-2.1-.07-1.83.58-.11.61,1.72,1.57,5.04,1.58,9.02-.07,3.51-.35,7.04-.98,10.53-.68,3.48-1.66,6.92-3.08,10.23-1.43,3.3-3.24,6.51-5.72,9.24-2.45,2.74-5.5,5.03-8.95,6.43-4.13,1.63-8.61,2.3-13.06,1.99-4.45-.32-8.82-1.61-12.74-3.61-8.65-4.4-15.41-12.06-19-20.99l-.42-1.23c-.08-.22-.13-.45-.23-.64l-.4.09-.56.06c-.58.03-1.29.05-1.93,0-1.3-.1-2.56-.38-3.76-.8-2.41-.83-4.64-2.21-6.38-4.15-.8-.88-1.45-1.92-1.93-2.99-.48-1.08-.84-2.22-.98-3.4-.31-2.34.06-4.83,1.31-6.91.61-1.04,1.42-1.96,2.39-2.69.97-.71,2.07-1.24,3.27-1.52,1.19-.28,2.45-.25,3.61.03,1.17.28,2.24.78,3.22,1.36.16.09.31.19.46.28l.29.18c.16.07.31.28.5.2.2-.08.37-.21.53-.34l.32-.28.38-.36c.5-.5.97-1.04,1.43-1.6.91-1.13,1.73-2.32,2.49-3.56,1.52-2.47,2.76-5.1,3.71-7.82.46-1.34.82-2.67,1.14-4.05,1.13-5.11,1.11-6.78,1.84-7.97.14-.27.26-.63.37-.79.2-.28.41.13.73,1.14.3,1.01.48,2.64.37,4.74-.27,4.35-1.68,8.64-3.64,12.65-.99,2.01-2.15,3.95-3.49,5.79-.67.92-1.39,1.83-2.19,2.7-.4.44-.82.87-1.3,1.29-.16.17-.67.55-1.1.85-.22.15-.46.25-.69.38-.24.09-.48.14-.72.22-.43-.09-.8-.09-1.2-.25-.41-.09-.78-.42-1.17-.66-.41-.26-.71-.45-1.07-.63-.69-.36-1.4-.61-2.09-.73-.69-.13-1.36-.13-2,.03-.64.14-1.29.42-1.87.83-1.45.96-2.44,2.56-2.74,4.39-.3,1.82,0,3.79.88,5.48,1.66,3.28,5.81,5.63,9.69,5.84v.08Z"/><path class="cls-4" d="M187.42,67.17c1.86.97,3.46,2.32,4.77,3.97.26.29.46.61.68.92.23.3.43.63.58.97.6,1.19.97,2.44,1.19,3.68.25,1.24.3,2.49.27,3.72-.01,1.09-.07,2.18-.21,3.25-.08.69-.2,1.38-.43,2.04-.22.66-.51,1.32-1,1.86-.29.34-.39.2-.5-.23-.06-.22-.11-.5-.21-.84-.08-.33-.08-.66-.06-1.02.07-1.26.23-2.49.19-3.75-.02-1.25-.1-2.5-.27-3.74-.15-1.51-.88-2.93-1.7-4.13-.89-1.32-2.16-2.43-3.6-3.29-.9-.5-1.84-.96-2.85-1.26-1.52-.46-3.15-.68-4.73-.49-1.23.15-2.37.63-3.42,1.14-.24.1-.45.26-.68.37-.86.42-1.22.39-1.83-.15-.14-.12-.29-.23-.41-.36-.41-.42-.29-1.08.36-1.75,1.01-.87,2.24-1.55,3.58-2,1.35-.39,2.78-.52,4.2-.48,2.11.08,4.19.63,6.11,1.51l-.03.07Z"/><path class="cls-4" d="M98.17,85.64c1-1.65,2.29-3.21,3.95-4.32.3-.19.58-.4.87-.6.3-.19.61-.37.92-.53,2.28-1.04,4.88-1.41,7.27-.89,1.05.23,2.08.53,3.05.94l.92.43c.29.17.57.37.84.56.27.2.51.44.73.7.11.12.21.27.31.4.09.14.14.34.21.5.14.44.06.43-.42.48-.51.07-1.38.25-1.99.04-1.08-.38-2.01-.85-3.05-1.07-.51-.12-1.02-.21-1.54-.28l-.79-.1-.81-.05c-1.33-.04-2.62.62-3.79,1.32-1.33.78-2.44,1.78-3.38,3.06-.58.78-1.06,1.64-1.44,2.56-.57,1.38-.99,2.88-1.04,4.39-.04,1.17.21,2.31.55,3.37.06.24.18.46.25.69.25.86.17,1.17-.5,1.66-.15.11-.29.24-.45.33-.52.32-1.14.11-1.62-.62-.6-1.1-.98-2.34-1.15-3.63-.14-1.28-.09-2.6.1-3.89.31-1.92.98-3.77,1.93-5.49l.07.03Z"/><path class="cls-4" d="M123.59,70.81c-1.32.19-2.6.72-3.73,1.54-.42.29-.73.72-1.11,1.06-1.28,1.3-2.31,2.98-2.84,4.85-.19.83-.27,1.71-.15,2.54.03.55.25,1.03.3,1.56.15.5.25,1.02.38,1.6.06.37-.1.47-.55.4-.23-.04-.55-.11-.93-.25-.36-.15-.63-.44-.88-.79-.4-.62-.65-1.34-.74-2.04-.15-.71-.14-1.42-.14-2.12.1-1.4.45-2.77,1.07-4,.8-1.43,1.57-2.96,2.76-4.17,1.3-1.32,2.92-2.33,4.69-2.88.55-.13,1.1-.28,1.65-.37.54-.08,1.09-.13,1.63-.17,1.66-.08,3.3.14,4.89.5,1.24.28,2.5.56,3.71,1.15.27.12.54.25.79.42.93.65,1.02,1.14.54,1.85-.11.16-.21.33-.34.48-.45.49-1.07.56-1.61.33-1.62-.69-3.33-1.25-5.2-1.5-1.37-.17-2.82-.21-4.16.1l-.02-.07Z"/><path class="cls-4" d="M141.7,170.63c2.27-2.63,4.8-5.13,7.81-7.13,1.1-.72,2.23-1.45,3.48-1.96,2.2-.89,4.68-1.34,7.1-1.02,1.21.12,2.37.45,3.48.87,1.08.48,2.12,1.02,3.06,1.67,1.69,1.14,3.23,2.45,4.61,3.86,1.77,1.8,3.36,3.87,3.99,6.38.18.78.2.65-.34.22-.26-.22-.75-.46-1.25-.78-.27-.16-.54-.33-.82-.5-.15-.08-.28-.19-.44-.27-.11-.12-.23-.24-.35-.36-1.68-1.73-3.32-3.42-5.14-4.83-1.82-1.4-3.8-2.47-5.89-3.1-2.54-.83-5.41-.05-7.92,1.24-2.81,1.42-5.34,3.58-7.62,5.98-1.41,1.48-2.72,3.07-4,4.71l-.75.95c-.3.37-.6.74-.92,1.02-.16.14-.32.25-.49.34-.15.07-.37.22-.55.09l-1-.64-1.32-1.32-.99-.96c-.66-.64-1.35-1.23-2.04-1.8-1.85-1.5-3.9-2.56-6.05-3.22-.48-.14-.94-.25-1.43-.36-.45-.12-.82-.21-1.13-.29-.31-.09-.55-.24-.75-.34-.4-.22-.62-.5-.79-.89-.08-.18-.18-.36-.23-.52-.07-.28.11-.51.51-.68.4-.17,1.03-.33,1.82-.28,2.33.17,4.72.96,6.87,2.17,1.07.61,2.08,1.31,3.03,2.07.93.77,1.8,1.59,2.64,2.41l.75.75s.08.1.1.1c0,.02,0,.04,0,.04,0,0,.01,0,.02,0h0s-.03.04.04-.05l.3-.4c.81-1.06,1.65-2.14,2.52-3.2l.06.04Z"/><path class="cls-4" d="M183.65,159.39c.24,1.14.45,2.27.45,3.41.02.41.07.82.02,1.24-.1,1.45-.43,2.85-.81,4.2-.18.6-.29,1.2-.5,1.78-.12.37-.21.76-.38,1.11-.08.18-.21.34-.33.5-.11.17-.24.32-.43.45-.24.16-.14.17-.2-.08-.11-.26-.34-.74-.38-1.2.18-1.52.51-2.91.78-4.37.19-.87.05-1.8-.02-2.68l-.16-1.47c-.09-.48-.13-.98-.27-1.46-.13-.6-.32-1.18-.53-1.76-.37-.85-.73-1.73-1.29-2.47-.41-.59-1.03-1.01-1.54-1.48-.12-.1-.24-.19-.35-.3-.1-.1-.18-.19-.24-.28-.05-.1-.05-.21-.05-.31,0-.2.09-.4.23-.65.06-.11.12-.23.18-.33.21-.33.66-.44,1.22-.32,1.43.6,2.49,1.83,3.3,3.18.62,1,.99,2.14,1.34,3.25l-.06.02Z"/><path class="cls-4" d="M89,222.75c-.95,3.83-1.38,7.73-1.18,11.6.21,3.85,1.1,7.67,2.94,11,1.34,2.47,3.17,4.5,5.37,6.2,3.91,2.99,8.74,4.91,13.67,6.26,4.95,1.36,10.08,2.15,15.23,2.66,4.58.43,9.22.54,13.78.41,2.93-.1,5.87-.24,8.8-.45,2.93-.22,5.84-.52,8.78-.69,1.83-.16,1.61-.13.16.57-.73.32-1.76.9-3.07,1.33-.65.23-1.36.49-2.13.68-.77.19-1.59.33-2.44.46-6.07.89-12.19,1.05-18.31.81-6.12-.25-12.26-.94-18.29-2.39-3.6-.87-7.26-1.93-10.81-3.42-3.55-1.47-7-3.49-9.8-6.34-3-3.22-4.95-7.19-5.95-11.35-1-4.16-1.08-8.46-.58-12.62.64-5.14,2-10.07,3.76-14.87,2.69-7.26,6.54-14.06,10.92-20.3,3.39-4.87,6.96-9.48,10.86-13.87.86-.96,1.71-1.9,2.58-2.87,1.67-1.74,2.82-2.84,3.75-3.48.91-.67,1.56-.91,2.2-1,.29-.04.62-.14.82-.13.65.02-.32,1.83-2.61,4.46-6.91,7.68-13.99,15.93-19.45,25.23-2.05,3.43-3.85,7.01-5.34,10.71-.8,1.83-1.4,3.74-2.05,5.62-.55,1.92-1.13,3.83-1.52,5.79h-.07Z"/><path class="cls-4" d="M169.33,230.89c.63-1.6,1.23-3.34,2.08-5.03.3-.62.59-1.27,1.02-1.88.18-.27.42-.53.63-.78.27-.25.49-.51.81-.72.64-.49,1.31-.69,1.91-.88,1.23-.32,2.4-.43,3.57-.53,1.03-.08,2.06-.17,3.09-.25.66-.04,1.32-.06,1.99-.02.33.02.68.04,1.01.13l.51.18c.17.08.33.26.48.39.36.5.25.29-.13.5-.42.29-1.01,1.05-1.69,1.03l-1.86.2-1.88.12c-1.25.1-2.51.19-3.7.36-.72.11-1.4.31-1.78.63-.44.35-.84.94-1.22,1.55-.83,1.39-1.47,3.03-2.09,4.69l-.59,1.56c-.12.27-.22.53-.37.83-.06.13-.16.31-.28.48-.11.18-.28.3-.42.44-.88.65-1.69.89-2.53,1.18-.84.26-1.68.44-2.52.61-1.31.25-2.63.51-4.04.46-.31,0-.63-.03-.94-.08-1.19-.24-1.51-.66-1.41-1.35.02-.16.04-.32.09-.47.2-.5.72-.68,1.33-.63,1.86.12,4.02-.13,6.1-.68.75-.22,1.53-.49,2.08-.79.1-.06.25-.15.22-.13h0s.01,0,.05-.09c.13-.24.29-.67.43-1.06l.06.02Z"/><path class="cls-4" d="M193.78,232.74c-.23.9-.63,1.83-1.33,2.56-.27.25-.52.53-.79.68-.97.57-1.93.88-2.88,1.19-.43.11-.85.24-1.27.37-.53.17-1.07.31-1.63.38-.17.02-.18-.07-.09-.24.1-.16.28-.43.55-.61.97-.61,1.85-1.28,2.88-1.58.61-.22,1.12-.66,1.54-1.04.4-.37.68-.89.83-1.52.1-.38.13-.8.15-1.22,0-.32,0-.65-.04-.98-.02-.28-.05-.43-.11-.63-.02-.05-.04-.09-.06-.13-.06-.08-.09-.21-.25-.14-.14.07-.24.18-.33.26-.05.05-.09.11-.12.14-.12.11-.17-.02-.49-.47-.08-.1-.14-.2-.19-.31-.07-.19-.1-.34-.14-.55-.02-.28.14-.52.38-.77.5-.42,1.1-.73,1.58-.75.24,0,.49-.02.72.16.25.05.39.26.59.45.29.51.45,1.2.57,1.87.06.44.08.6.1.83,0,.22.03.44.02.67,0,.45-.03.91-.14,1.37h-.05Z"/><path class="cls-4" d="M186.16,248.51c-2.18.71-4.42.96-6.57,1.05-.79.04-1.56.11-2.33.12-2.72,0-5.36-.07-7.95.3-1.15.16-2.27.5-3.35.87-.72.18-1.38.51-2.09.76-.36.11-.68.3-1.04.41-.37.1-.74.2-1.12.31-.48.12-.44.07-.19-.29.12-.18.29-.46.5-.81.11-.17.21-.38.35-.55.15-.15.31-.33.51-.44,2.67-2.04,6.16-2.6,9.36-2.64,1.94.02,3.9-.13,5.79-.18,2.08-.06,4.12-.19,6.08-.68.59-.18,1.2-.3,1.76-.56.57-.23,1.15-.45,1.68-.77.83-.44,1.67-.91,2.18-1.53.26-.3.45-.66.67-1.12.11-.23.23-.46.36-.7.11-.22.2-.37.28-.59.5-1.28.57-2.77.49-4.14-.02-.3-.07-.6-.11-.89-.13-1.09-.14-1.28.39-1.79.11-.11.2-.24.29-.34.17-.16.38-.18.7-.01.34.16.57.56.75,1.08.47,1.53.47,3.05.25,4.6-.12.77-.3,1.55-.63,2.36-.14.38-.45.91-.53,1.07l-.47.95c-.3.6-.83,1.25-1.34,1.68-.52.44-1.03.79-1.54,1.06-.51.27-1.01.58-1.54.82l-1.61.66-.02-.05Z"/><path class="cls-4" d="M192.47,240.09c-.61.56-1.16.8-1.73,1.08-.2.1-.39.22-.6.3-.74.27-1.5.46-2.27.6-.35.06-.69.11-1.03.17-.22.03-.46.06-.7.05-.12-.01-.24-.03-.36-.06-.12-.03-.23-.14-.34-.22-.13-.12-.02-.28.16-.5.19-.22.37-.57.53-.58.3-.04.64-.13.99-.22.35-.08.74-.14,1.13-.19.48-.07.91-.34,1.34-.56.47-.24.95-.5,1.33-.79.13-.09.21-.18.3-.27.02-.03.05-.06.08-.1l.09-.21c.19-.43.3-.89.27-1.33-.03-.34-.22-.63-.41-.82-.04-.04-.09-.07-.12-.09-.03-.04-.04-.03-.04-.07,0,0,0,0,.01,0,.01-.01.04-.06.06-.09.04-.06.06-.14.09-.17.1-.21.08-.3.07-.32,0,0,.03.02,0-.01-.03-.03-.08-.05-.12-.06-.07-.03-.14-.04-.17-.12-.04-.07.02-.25.15-.36.06-.05.16-.11.27-.12.08-.02.13-.02.22-.02.18.02.25.03.39.1,1.15.6,1.51,1.81,1.41,2.84-.06.38-.16.74-.29,1.08l-.22.48c-.12.24-.32.52-.45.63l-.03-.03Z"/><path class="cls-4" d="M148.65,187.21c-.25-.62-.55-1.26-.85-1.8l-.19-.35.02-.24.02-.23c.01-.09.05-.24.09-.36.05-.12.12-.23.2-.33.06-.08.28-.27.46-.33.35-.15.75-.06.85,0,.34.14.4.23.51.32.09.09.16.16.22.23.24.28.39.55.53.81.24.44.5.86.68,1.31.33.8.62,1.59.81,2.48.1.5.1.87.14,1.29l.09,1.24c.04.74.11,1.47.05,2.25-.02.49-.17,1.02-.39,1.44-.2.43-.4.79-.65,1.2-.15.25-.14.22-.2-.04-.05-.2-.11-.41-.16-.58-.04-.24-.02-.52.03-.79.13-.47.1-.82.13-1.22.02-.39-.01-.83-.06-1.27-.11-.9-.21-1.8-.32-2.73-.09-.94-.73-1.98-1.26-2.92-.2-.34-.4-.67-.62-.97-.1-.14-.21-.3-.27-.36v-.02c.03-.05.13-.17.17-.26.12-.19.15-.33.13-.36,0,0,0,.01.07.06.03,0,.13.05.23.08.05.01.1.02.15.02l.2.03h0s-.13-.42-.13-.42c.25.44.44.84.63,1.26.33.74.63,1.5.87,2.27.38,1.17.63,2.37.81,3.58.14.94.29,1.87.27,2.84-.01.21,0,.42-.03.63-.11.79-.34,1-.75,1.07-.09.02-.19.04-.27.04-.27,0-.51-.36-.54-.88-.11-1.54-.24-3.06-.62-4.61-.27-1.14-.63-2.29-1.12-3.38l.04-.02Z"/><path class="cls-4" d="M182.65,207c-.48-2.33-.99-4.67-1.63-6.97-.22-.84-.53-1.66-.77-2.49-.41-1.48-.88-2.94-1.31-4.42-.48-1.46-.95-2.93-1.52-4.36-.46-1.29-1.1-2.5-1.6-3.77l-1.09-2.38c-.37-.79-.73-1.59-.98-2.45-.16-.53-.04-.52.39-.23.21.15.51.36.86.62.33.27.66.63.97,1.05.98,1.53,2.07,3.02,2.8,4.69.73,1.67,1.4,3.37,1.94,5.12.67,2.08,1.52,4.19,2.16,6.33.69,2.36,1.31,4.73,1.84,7.12.34,1.47.63,2.95.93,4.42.45,2.24.79,4.5,1.19,6.72.3,1.73.73,3.41,1.05,5.13.08.38.15.75.19,1.13.09.71.07,1.19-.06,1.54-.12.34-.3.55-.56.73-.12.08-.24.18-.35.24-.38.17-.83-.37-1.24-1.36-.87-2.98-1.29-6.16-1.89-9.33-.42-2.36-.85-4.73-1.37-7.07l.06-.02Z"/><path class="cls-4" d="M211.78,254.5c-1.57-3.51-2.79-7.26-3.74-10.97-.36-1.36-.73-2.71-1.03-4.07-.95-4.84-1.57-9.7-2.05-14.57-.22-2.16-.49-4.32-.65-6.46-.11-1.38-.26-2.75-.28-4.14l-.02-2.08c0-.69.11-1.39.16-2.08.1-.87.18-.76.5-.05.2.43.44.93.69,1.45.25.61.47,1.32.63,2.1.28,1.38.49,2.76.68,4.15.2,1.38.43,2.76.53,4.16.27,2.78.55,5.56.82,8.36.34,3.35,1.14,6.76,1.92,10.08.86,3.66,1.89,7.28,3.31,10.74.87,2.14,1.85,4.25,2.9,6.34,1.57,3.16,3.29,6.35,4.52,9.75.98,2.63,1.74,5.31,2.16,8.07.11.61.19,1.2.25,1.81.05.57.09,1.04.07,1.44-.02.4-.09.72-.16.98-.14.53-.38.83-.72,1.08-.15.11-.29.25-.43.32-.43.21-1.01-.69-1.28-2.27-.36-2.35-.74-4.71-1.34-7.02-.59-2.31-1.43-4.56-2.47-6.8-1.56-3.32-3.44-6.72-5.03-10.28l.06-.03Z"/><path class="cls-4" d="M211.89,186.43c1.33,1.52,2.74,2.94,4.33,4.06,1.59,1.12,3.35,1.94,5.24,2.37,1.38.32,2.8.33,4.2.24,2.49-.17,4.98-.99,7.33-2.15,2.35-1.16,4.56-2.68,6.66-4.34,1.86-1.49,3.61-3.14,5.23-4.88,2.15-2.17,4.06-4.57,6.28-6.72.72-.65.78-.45.54.4-.19.88-.77,2.36-1.85,3.8-.96,1.27-1.96,2.52-3,3.74-1.06,1.21-2.2,2.33-3.37,3.45-2.36,2.2-4.92,4.25-7.83,5.82-.89.44-1.74.96-2.67,1.35-.46.2-.91.43-1.39.62l-1.44.53c-1.95.63-4.03,1.13-6.14,1.03-2.3-.03-4.58-.58-6.66-1.54-2.08-.96-3.9-2.34-5.51-3.86-1.99-1.87-3.64-4-5.23-6.13-2.39-3.23-4.52-6.61-7.02-9.6-1.93-2.33-4.13-4.33-6.56-5.86-.53-.34-1.09-.61-1.64-.92-1.03-.54-1.72-.86-2.15-1.24-.45-.33-.67-.66-.81-1.1-.06-.19-.17-.4-.19-.57-.04-.29.21-.46.73-.53.53-.08,1.31-.01,2.26.29,2.76.99,5.31,2.74,7.44,4.81,2.17,2.06,3.99,4.41,5.71,6.75,2.55,3.49,4.83,7.07,7.54,10.12l-.05.05Z"/><path class="cls-4" d="M256.23,217.07c-3.47,2.7-7.2,5.12-11.23,7l-2.22,1c-.76.29-1.51.6-2.29.84-2.74.86-5.6,1.38-8.49,1.43-2.88.04-5.71-.26-8.48-.94-2.45-.6-4.88-1.39-7.09-2.58-2.84-1.47-5.58-3.38-7.33-6.1-.56-.83-.51-.68.21-.23.36.23.9.51,1.59.78.65.32,1.38.69,2.13,1.14,1.35.76,2.62,1.58,4.01,2.21,1.37.66,2.79,1.18,4.22,1.68,2.87.99,5.9,1.54,9,1.74,3.68.24,7.51-.7,11.04-2.1,3.91-1.53,7.58-3.73,11.02-6.25,2.11-1.57,4.15-3.24,6.09-5.02,2.95-2.7,5.76-5.59,8.33-8.64,2-2.37,3.74-4.87,5.5-7.37.39-.56.74-1.11,1.17-1.64.79-.99,1.33-1.62,1.81-2,.49-.36.87-.51,1.26-.55.18-.02.38-.08.51-.06.23.02.26.29.15.78-.12.48-.35,1.21-.83,2.01-1.3,2.47-3,4.76-4.74,7.09-1.76,2.31-3.66,4.57-5.66,6.75-2.97,3.25-6.19,6.31-9.64,9.11l-.05-.05Z"/><path class="cls-4" d="M284.4,142.46l.28-.65s.04-.06.06-.1c.04-.08.08-.18.07-.31-.04-.2-.24-.17-.38-.09-.07.03-.14.09-.19.15l-.7.64c-1.71,1.55-3.27,3.42-4.81,5.26-.68.83-1.3,1.71-1.89,2.59-.83,1.09-1.58,2.23-2.62,3.2-.31.31-.35.21-.33-.2.02-.28.05-.58.07-.85.03-.35.1-.74.27-1.1.29-.65.59-1.3.91-1.94.33-.63.74-1.21,1.13-1.8.8-1.17,1.64-2.33,2.64-3.37,1.19-1.26,2.21-2.73,3.57-3.99l.47-.41c.19-.16.4-.29.59-.44.4-.27.81-.49,1.21-.61.4-.12.78-.16,1.17-.07.39.08.76.34.99.66.5.76.46,1.78.21,2.81l-.19.65-.16.45c-.11.29-.23.57-.35.85-.24.56-.5,1.1-.76,1.63-.79,1.62-1.67,3.17-2.45,4.74-.61,1.22-1.07,2.48-1.54,3.72-.1.27-.21.54-.33.8-.12.24-.22.44-.32.6-.11.16-.25.26-.36.35-.24.18-.44.25-.7.29-.12.02-.24.05-.34.05-.32,0-.49-.54-.51-1.46.11-.63.2-1.29.41-1.89.2-.61.42-1.21.66-1.81.49-1.19,1.01-2.36,1.63-3.47.88-1.66,1.84-3.3,2.53-4.91l.06.02Z"/><path class="cls-4" d="M273.28,175.52c.88-.65,1.92-1.14,2.96-1.43.37-.1.71-.24,1.06-.29,1.22-.19,2.18-.23,3.16-.69.43-.2.8-.5,1.14-.82.23-.2.37-.47.66-.62.23-.2.64-.29.93-.5.21-.11.19-.1.24.14.05.19.09.38.13.53.02.11.12.28.13.41,0,.12.01.25-.01.37-.05.2-.06.45-.18.61-.11.17-.23.32-.36.48-.25.31-.54.6-.86.84-.64.49-1.37.85-2.16,1.04-.88.23-1.7.44-2.55.65-.83.18-1.51.43-2.2.86-.41.27-.81.59-1.18.95-.55.56-1.09,1.18-1.48,1.9-.32.55-.43,1.2-.67,1.79-.05.13-.09.27-.15.39-.25.46-.47.55-1.03.41-.13-.03-.26-.05-.38-.09-.41-.13-.64-.49-.64-.93-.04-1.33.54-2.52,1.26-3.69.54-.87,1.27-1.67,2.13-2.37l.04.05Z"/><path class="cls-4" d="M345.99,395.01c1.97-.83,3.92-1.64,5.97-2.4.4-.13.73-.28,1.19-.42.41-.15.92-.24,1.34-.28,1.49-.12,2.86-.05,4.24,0,1.38.07,2.74.12,4.1.23,1.21.1,2.42.14,3.62.17,1.54.02,3.07.06,4.62.46.48.08.42.08.02.23-.4.12-1.13.73-2.03.94-1.59.3-3.17.38-4.75.44-.79.02-1.58.06-2.36.01-.78-.06-1.57-.13-2.36-.19-.94-.09-1.9-.1-2.84-.05-.93.04-1.93.12-2.65.29-.85.24-1.89.66-2.86,1.04-.98.39-1.97.79-2.95,1.2-1.21.51-2.41,1.02-3.61,1.56-1.81.81-3.64,1.61-5.4,2.5-1.37.69-2.65,1.5-3.96,2.27-.29.17-.56.35-.86.51-1.1.59-1.53.62-2.05.17-.12-.1-.26-.19-.35-.31-.33-.38-.05-.97.7-1.51,2.24-1.6,4.78-2.93,7.37-4.2,1.92-.94,3.88-1.82,5.84-2.71l.03.05Z"/><path class="cls-4" d="M427.77,400.64c-.04.86-.08,1.73-.11,2.59,0,.32.03.63.02.95-.06,1.13-.14,2.26-.28,3.39-.06.5-.07,1-.11,1.49-.05.63-.16,1.27-.36,1.88-.06.19-.16.15-.29-.02-.12-.18-.32-.5-.39-.86-.04-.32-.12-.64-.16-.95-.02-.31-.04-.63-.06-.94-.02-.63-.06-1.25,0-1.89.07-.76-.08-1.55-.13-2.33-.05-.87-.09-1.74-.14-2.61,0-.54-.02-1.08-.03-1.62-.01-.82.02-1.65,0-2.47-.05-.64-.13-1.27-.12-1.9,0-.14-.01-.28,0-.42.08-.52.25-.67.73-.73.1-.02.18-.04.26-.05.21-.03.64.22.76.6.2.56.33,1.11.45,1.67.08.56.04,1.11.05,1.68,0,.84-.03,1.69-.03,2.54h-.05Z"/><path class="cls-4" d="M358.26,419.65c5.81.27,11.63.44,17.46.59l6.37.07,11.24.2,5.61.05c1.83-.01,3.66-.13,5.48-.4,3.23-.48,6.44-1.36,9.54-2.41,1.99-.7,3.98-1.41,5.97-2.12l2.99-1.08c.99-.38,2.05-.59,3.08-.88,1.3-.32,1.12-.29.16.33-.48.31-1.14.8-1.93,1.39-.82.55-1.81,1.08-2.93,1.61-3.94,1.87-8.06,3.43-12.37,4.51-2.15.54-4.36.96-6.6,1.18-1.12.12-2.26.16-3.38.18-1.1,0-2.19-.01-3.29-.04-5.23-.14-10.67-.02-16.02-.09-5.88-.07-11.76-.23-17.64-.46-3.62-.14-7.24-.31-10.86-.52-2.74-.16-5.49-.35-8.23-.62-1.37-.13-2.74-.28-4.11-.48-1.38-.23-2.72-.37-4.17-.93-.66-.3-1.08-.64-1.51-1.02-.42-.38-.82-.78-1.18-1.21-.72-.86-1.33-1.8-1.81-2.81-.48-1.01-.84-2.09-.99-3.25-.16-1.18-.06-2.3.18-3.42.22-.98.52-1.92.98-2.83.87-1.67,1.83-2.56,2.59-3.06.77-.49,1.37-.55,1.84-.43.21.04.46.12.57.2.31.31-.83.69-2.1,2.58-.94,1.37-1.49,3.05-1.62,4.7-.03.42-.03.83-.02,1.24,0,.4.05.77.13,1.17.16.78.44,1.57.82,2.32.38.75.85,1.46,1.39,2.1.27.32.56.62.86.88.27.24.7.58.8.57.03.04.31.1.46.16.17.06.37.12.6.16.43.1.87.19,1.34.26.91.16,1.88.28,2.83.39,5.73.61,11.62.9,17.48,1.12v.06Z"/><path class="cls-4" d="M405.19,408.9c0,.72,0,1.44.01,2.15,0,.26.06.52.05.78-.03.93-.07,1.88-.1,2.8,0,.41.03.83.03,1.24.06.52-.06,1.06-.27,1.59-.07.17-.17.15-.36.02-.18-.13-.53-.36-.72-.65-.19-.25-.26-.51-.32-.76-.06-.26-.17-.51-.17-.77-.02-.52-.01-1.05.04-1.59.07-.65-.11-1.29-.16-1.94-.07-.72-.07-1.44-.11-2.16-.02-.45-.04-.89-.06-1.34-.04-.67-.04-1.36-.14-2.02-.07-.52-.27-1.02-.35-1.54-.02-.11-.06-.22-.06-.34-.05-.43.22-.58.66-.69.11-.02.21-.06.31-.07.33-.05.66.11.9.4.23.44.45.88.56,1.34.1.46.14.93.19,1.41.06.7.08,1.42.12,2.14h-.05Z"/><path class="cls-4" d="M382.6,369.95l.27-11.09c.03-1.35-.03-2.7,0-4.05.09-4.75.37-9.51.49-14.26.05-2.11.09-4.23.08-6.32.02-2.69-.18-5.39.35-8.08.19-.84.32-.73.69-.02.4.71,1.06,2.01,1.2,3.56.17,2.75.31,5.49.38,8.25.07,2.75-.05,5.51-.18,8.28-.16,3.31-.05,6.76-.11,10.15l-.27,11.18c-.06,2.29-.12,4.59-.18,6.88-.08,3.47-.21,6.96-.27,10.41-.04,2.68.06,5.32.02,7.97-.01.59,0,1.16-.04,1.75-.11,2.19-.32,2.89-.92,3.32-.12.1-.24.23-.33.29-.27.19-.78-.74-.81-2.32-.34-4.72-.45-9.71-.52-14.71-.02-3.72.05-7.45.09-11.18h.07Z"/><path class="cls-4" d="M385.78,321.26c-.25-.33-.62-.58-1.29-.56-.12-.02-.21.03-.31.06-.09.04-.2.04-.29.08-.34.07-.65.29-.95.58-.29.31-.51.74-.7,1.2-.15.42-.24.87-.24,1.32,0,.15,0,.29.01.43v.43c-.02.14-.03.28-.04.43,0,.07-.01.13-.02.2-.01.07-.07.16-.1.22-.15.2-.13.28-.5.24-.43-.04-.96-.33-1.12-.76-.34-.74-.3-1.52-.23-2.29.08-.78.41-1.55.94-2.22.6-.78,1.39-1.67,2.46-1.97.58-.18,1.11-.19,1.69-.15.57.05,1.16.24,1.66.57.61.4,1.05.96,1.36,1.53.47.87.62,1.78.78,2.64.13.68.32,1.34.41,2.04.02.15.06.31.05.47-.05.29-.12.47-.29.58-.19.11-.4.14-.69.14-.13,0-.26,0-.37,0-.2-.02-.37-.09-.55-.22-.17-.12-.37-.28-.43-.46-.42-1.02-.42-2.01-.64-2.92-.15-.66-.36-1.26-.65-1.58l.04-.04Z"/><path class="cls-4" d="M363.32,342.67l-1.58-4.14c-.2-.5-.46-.98-.65-1.48-.66-1.79-1.32-3.58-1.98-5.37-.31-.79-.62-1.58-.95-2.35-.4-1-1-1.95-.8-3.18.22-.44.07-.33.49-.18.49.13,1.13.43,1.5.94.5.96.96,1.94,1.41,2.93.42,1.01.75,2.06,1.07,3.12.37,1.28,1.03,2.49,1.55,3.74l1.68,4.14,1.03,2.56c.54,1.28,1,2.61,1.55,3.88.42.99.95,1.92,1.39,2.92.09.22.2.44.28.67.08.22.13.4.16.55.01.17-.02.32-.05.44-.08.25-.22.4-.46.54-.11.06-.2.14-.31.18-.34.13-.78-.14-1.13-.61-.91-1.58-1.75-3.35-2.55-5.16-.62-1.34-1.14-2.73-1.71-4.1l.05-.03Z"/><path class="cls-4" d="M348.73,341.51c.71-1.29,1.43-2.58,2.12-3.89.25-.48.44-.99.7-1.46.9-1.68,1.93-3.31,2.9-4.96.43-.73.82-1.49,1.2-2.24.51-.95.9-1.99,1.82-2.71.28-.23.41-.1.55.31.07.2.15.48.23.8.05.31.01.61-.09.9-.85,2.01-1.84,3.93-2.98,5.82-.69,1.13-1.18,2.42-1.79,3.63l-2.05,3.98-1.29,2.45c-.64,1.24-1.34,2.46-1.96,3.7-.49.96-.82,1.99-1.3,2.95-.1.21-.19.43-.32.63-.22.38-.43.6-.68.69-.23.1-.46.1-.73.04-.12-.03-.25-.04-.35-.07-.32-.1-.49-.62-.41-1.31.43-1.91,1.4-3.59,2.29-5.36.69-1.3,1.38-2.61,2.07-3.92l.06.02Z"/><path class="cls-4" d="M417.33,342.41l-1.58-4.14c-.2-.5-.46-.98-.65-1.48-.66-1.79-1.32-3.58-1.98-5.37-.31-.79-.62-1.58-.95-2.35-.4-1-1-1.95-.8-3.18.22-.44.07-.33.49-.18.49.13,1.13.43,1.5.94.5.96.96,1.94,1.41,2.93.42,1.01.75,2.06,1.07,3.12.37,1.28,1.03,2.49,1.55,3.74l1.68,4.14,1.03,2.56c.54,1.28,1,2.61,1.55,3.88.42.99.95,1.92,1.39,2.92.09.22.2.44.28.67.08.22.13.4.16.55.01.17-.02.32-.05.44-.08.25-.22.4-.46.54-.11.06-.2.14-.31.18-.34.13-.78-.14-1.13-.61-.91-1.58-1.75-3.35-2.55-5.16-.62-1.34-1.14-2.73-1.71-4.1l.05-.03Z"/><path class="cls-4" d="M403.03,341.43c.7-1.29,1.39-2.58,2.05-3.91.24-.48.42-.99.67-1.47.85-1.71,1.84-3.36,2.78-5.04.41-.75.8-1.51,1.16-2.27.5-.96.88-2.01,1.81-2.73.28-.23.41-.1.55.31.07.2.15.48.24.8.05.31.02.61-.09.89-.83,2-1.77,3.94-2.86,5.86-.65,1.15-1.11,2.45-1.7,3.68-.64,1.35-1.3,2.69-1.99,4.03l-1.28,2.47c-.68,1.23-1.36,2.47-2.04,3.69-.52.95-.9,1.97-1.43,2.92-.11.21-.22.42-.36.62-.25.37-.47.58-.72.65-.23.09-.46.07-.73,0-.12-.03-.24-.05-.34-.09-.31-.12-.45-.66-.33-1.33.55-1.86,1.57-3.48,2.49-5.21.7-1.27,1.41-2.56,2.08-3.87l.06.02Z"/><path class="cls-4" d="M150.16,57.9c-2.76,1.55-5.39,3.33-7.81,5.34-2.41,2-4.61,4.28-6.2,6.83-1.11,1.87-1.82,3.93-1.66,5.83.17,1.76.77,3.78,1.71,5.22,1.05,1.62,2.4,3.06,3.95,4.27,3.11,2.42,7,3.89,10.99,4.65,3.56.68,7.26.81,10.87.51,2.32-.18,4.62-.61,6.89-1.08,1.13-.26,2.26-.53,3.35-.88,1.09-.35,2.19-.7,3.2-1.19,1.26-.57,1.25-.49.47.65-.4.57-1.12,1.21-2.06,1.9-.95.67-2.16,1.25-3.51,1.69-2.4.8-4.89,1.25-7.38,1.53-2.5.28-5.02.37-7.54.23-2.52-.13-5.06-.5-7.53-1.2-2.47-.68-4.89-1.66-7.11-3.04-1.34-.79-2.59-1.78-3.79-2.83-1.18-1.08-2.24-2.3-3.17-3.62-1-1.46-1.54-3-1.95-4.59-.19-.8-.34-1.61-.38-2.5l.06-1.31c.04-.43.14-.84.22-1.26.89-3.64,3.08-6.48,5.39-8.96,2.38-2.44,5.01-4.57,7.8-6.43,3.44-2.29,7.09-4.22,10.91-5.78,2.89-1.16,5.9-2.11,9.01-2.64,1.56-.25,3.14-.4,4.75-.37,1.6.07,3.23.3,4.79.94,1.23.44,2.3,1.3,3.21,2.27.88,1.02,1.43,2.27,1.77,3.54.53,2.57.2,5.17-.63,7.52-.36,1.04-.76,2.05-1.3,3.02-.99,1.81-1.92,2.84-2.66,3.45-.38.3-.71.5-1.01.63-.33.11-.62.14-.91.13-.27,0-.57.02-.76-.05-.66-.27.23-1.55,1.67-3.68,1.05-1.62,1.87-3.43,2.38-5.28.49-1.83.71-3.78.24-5.38-.19-.82-.61-1.48-1.08-2.09-.56-.54-1.13-1.07-1.95-1.36-1.54-.7-3.54-.84-5.53-.7-2.99.21-6.06,1.02-9.03,2.08-2.98,1.07-5.87,2.46-8.63,4.05l-.04-.06Z"/><path class="cls-4" d="M92.63,110.51c.08,1.14.26,2.29.59,3.36.17.54.36,1.07.6,1.56.25.5.54,1.03.84,1.53l.74,1.05c.28.33.55.65.81,1,1.91,2.36,4.39,4.36,7.23,5.71,1.24.66,2.6,1.05,3.95,1.38.44.09.88.16,1.31.26l1.32.22c.22.04.44.06.66.09.22.08.44.13.66.22.44.15.9.23,1.36.37.57.22.51.23.02.53-.24.16-.6.36-1.04.62-.22.13-.46.24-.73.36-.13.07-.27.1-.41.19-.14.01-.28.03-.42.04-2.04.09-4.07-.3-6-.95-1.95-.62-3.75-1.65-5.37-2.91-1.92-1.5-3.92-3.07-5.46-5.06-.43-.54-.79-1.13-1.17-1.7-.33-.62-.69-1.18-.97-1.84-.59-1.29-.95-2.64-1.18-3.99-.28-1.67-.31-3.35-.14-5.02.27-2.51,1.06-5.05,2.67-7.12,1.22-1.61,3.02-2.91,5.08-3.35.45-.08.89-.2,1.35-.21,1.7-.05,2.2.32,2.4,1.06.05.17.11.35.12.52.03.59-.65.88-1.62.99-1.46.14-2.76.57-3.79,1.31-1.03.75-1.85,1.82-2.41,3.15-.82,1.96-1.15,4.32-.94,6.61h-.07Z"/><path class="cls-4" d="M190.12,224.65l-.06-.23c-.02-.07-.06-.18-.04-.16,0-.02,0-.05,0-.08,0-.06-.02-.13-.04-.21-.03-.08-.11-.13-.18-.11-.07.01-.1.08-.16.14l-.02.02c-.08.11-.15.24-.22.36,0,.03-.15.21-.24.32l-.31.36c-.85.86-1.87,1.38-2.87,1.73-1.01.34-2.02.52-3.01.65-.88.1-1.75.2-2.62.3-1.11,0-2.22.18-3.32-.32-.34-.12-.3-.1-.02-.28.14-.09.34-.24.58-.44.12-.09.25-.25.39-.33.14-.06.29-.11.44-.15l1.62-.35c.53-.1,1.06-.13,1.59-.21,1.05-.14,2.07-.3,3.06-.54,1.21-.27,2.19-1.04,2.79-1.89l.63-1.05c.29-.32.57-.76.85-.98.3-.22.75-.32,1.17-.25.44.07.75.31,1,.62.27.31.48.75.67,1.17l.21.5.09.25.06.18c.08.24.15.49.2.73.12.49.2,1,.24,1.51.06.78,0,1.59-.26,2.37-.25.79-.72,1.51-1.3,2.08-.94.86-2.03,1.36-3.11,1.76-.24.08-.47.18-.72.23-.91.21-1.22.1-1.49-.4-.06-.12-.13-.23-.18-.35-.14-.4.17-.79.75-1.02.86-.36,1.72-.66,2.38-1.13.32-.24.58-.51.78-.76.23-.22.4-.47.54-.73.41-.78.42-2.07.06-3.29l.05-.02Z"/><path class="cls-4" d="M158.94,228.46c.01-.05-.02-.1-.07-.11-.02,0-.01-.01-.04-.02-.03,0-.02-.01-.15-.03-.2-.04-.41-.07-.63-.1-.87-.12-1.8-.19-2.73-.25-1.87-.11-3.76-.16-5.66-.21-1.39-.03-2.77.02-4.16,0-4.9-.13-9.82-.27-14.76-.7-2.2-.21-4.4-.36-6.65-.9-.73-.2-1.47-.39-2.26-.94-.7-.55-1.31-1.22-1.61-2.2-.16-.47-.16-1-.1-1.48.11-.47.29-.9.53-1.27.21-.39.55-.66.88-.9.35-.22.67-.45,1.07-.56.5-.13.73-.1.73-.06.01.05-.2.17-.35.54-.15.37-.32.93-.24,1.57.04.31,0,.55.07.77,0,.11.06.2.1.28.04.06.01.13.04.18.04.17.14.37.46.65.08.07.16.14.18.15.06.03.12.07.23.12.18.1.44.2.71.28,1.11.36,2.46.58,3.8.77,2.71.36,5.52.59,8.34.84,3.38.29,6.93.16,10.42.21,1.92.03,3.84.06,5.77.13,1.94.08,3.86.13,5.86.41l.47.08c.2.04.42.08.63.14.44.12.86.27,1.17.57.09.07.13.17.21.25l.12.3c.1.19.12.42.16.63.05.21.07.43.08.66.01.22.02.35.01.52,0,1.26-.13,2.45-.26,3.64-.4,3.59-1.02,7.13-1.49,10.65-.36,2.73-.57,5.43-.73,8.12-.03.59-.04,1.17-.06,1.75-.12,2.19-.19,2.69-.62,3.26-.08.13-.09.29-.13.42-.03.11-.09.15-.22.12-.13-.03-.35-.19-.52-.39-.4-.44-.59-1.17-.72-2.03-.29-2.58-.09-5.11.1-7.67.21-2.56.52-5.12.83-7.68.25-1.88.5-3.77.75-5.66.12-.94.21-1.87.28-2.79.04-.46.06-.91.07-1.34,0-.2.01-.44,0-.62,0-.07,0-.04,0-.07l.06-.03Z"/><path class="cls-4" d="M266.48,156.43c.78-1.22,1.58-2.49,2.98-3.62.37-.28.78-.54,1.28-.74.52-.2.99-.26,1.44-.3.89-.05,1.68.06,2.44.21,1.1.23,2.15.5,3.14.93,1.37.6,2.66,1.32,3.88,2.24.6.46,1.19.97,1.72,1.62.72.87,1.16,1.91.96,2.91-.21,1.13-1.33,1.71-2.46,1.82-.28.03-.63.06-.84.06-.22,0-.43,0-.64,0-.42-.01-.83-.04-1.24-.07-.81-.06-1.61-.17-2.38-.31-1-.19-2-.31-2.96-.67-.96-.32-1.9-.7-2.84-1.06-.58-.23-.49-.27.06-.36.55-.07,1.6-.32,2.77-.39l1.3-.05,1.26.1c.83.08,1.66.08,2.46.16.4.03.8.06,1.18.07h.56s.27,0,.27,0h.13s.02,0,.03,0c.07.03.24.08.35-.04.06-.09.07-.22.02-.38.02,0-.09-.15-.16-.23-.08-.1-.15-.19-.25-.29-.17-.19-.38-.37-.59-.55-.43-.35-.91-.67-1.41-.97-1.01-.58-2.1-1.06-3.2-1.45-1.18-.42-2.48-.74-3.51-.65-.84,0-1.71.87-2.48,1.91-.93,1.29-1.74,2.77-2.5,4.26-1.16,2.3-2.33,4.62-3.48,6.91-.91,1.79-1.78,3.59-2.96,5.28-.27.36-.53.73-.84,1.07-.28.32-.55.56-.78.76-.24.18-.48.29-.67.37-.39.16-.7.16-.99.08-.14-.04-.29-.06-.39-.11-.34-.18-.04-.85.49-1.86,1.73-2.83,3.29-5.95,4.92-9.24,1.21-2.44,2.38-4.95,3.86-7.47l.06.03Z"/><path class="cls-4" d="M264.55,177.89c1.1.71,2.22,1.42,3.38,2.08.42.25.89.4,1.31.64,1.5.86,3.05,1.63,4.59,2.46.68.37,1.42.63,2.12.94.9.4,1.81.81,2.65,1.39.26.18.14.38-.2.55-.34.17-.93.38-1.51.31-1.02-.14-2.06-.26-3.01-.63-.96-.34-1.92-.69-2.8-1.25-1.07-.64-2.3-1.01-3.44-1.56-1.25-.61-2.48-1.26-3.68-1.99-.74-.45-1.46-.91-2.18-1.38-1.1-.7-2.13-1.52-3.2-2.25-.8-.61-1.74-1.03-2.52-1.69-.18-.14-.37-.26-.52-.42-.59-.6-.63-.93-.27-1.51.08-.13.16-.27.25-.39.32-.4.86-.46,1.39-.21,1.64.69,2.94,1.73,4.39,2.71,1.07.73,2.14,1.48,3.28,2.14l-.03.06Z"/><path class="cls-4" d="M390.6,327.79l-8.77-.34c-1.07-.03-2.13,0-3.2-.06-3.76-.19-7.52-.39-11.28-.48-1.67-.04-3.35-.05-5-.03-1.06.02-2.13.03-3.19.05-.53,0-1.07-.07-1.6-.12l-.8-.08c-.27-.03-.54-.12-.8-.18-.67-.18-.58-.14-.02-.38.55-.29,1.58-.81,2.8-1.06,2.17-.21,4.35-.31,6.53-.4,2.18-.08,4.37,0,6.56.11,2.63.14,5.36,0,8.04.01,2.95.04,5.9.17,8.86.26l5.45.19c2.75.08,5.51.21,8.24.23,2.12.01,4.21-.13,6.31-.2.46-.02.92-.06,1.38-.06,1.72.11,2.27.31,2.62.98.08.14.19.27.23.39.16.37-.56.91-1.83,1.08-.94.18-1.89.24-2.85.29-.96.05-1.93.08-2.91.1-1.95.04-3.93.01-5.91-.02-2.94-.08-5.9-.15-8.85-.23v-.07Z"/><path class="cls-4" d="M418.62,357.34c1.24-.59,2.42-1.34,3.41-2.24.5-.45.94-.95,1.32-1.47l.13-.2s.02-.03.04-.05c.02-.03.05-.06.07-.1l.06-.11v-.11c.11-.08.06-.11.09-.17.05-.1-.07-.09-.13-.09h-.22s-1.11.02-1.11.02l-12.44-.12c-1.84-.01-3.7.04-5.53.08-1.18.03-2.36.02-3.54-.01-.59-.04-1.18,0-1.77-.14-.58-.15-1.17-.29-1.76-.44-.72-.25-.62-.22,0-.46.31-.13.76-.31,1.29-.57.27-.12.56-.3.86-.39.3-.06.63-.11.96-.14l3.56-.24,3.58-.08c2.39-.04,4.79-.05,7.2,0,1.44.03,2.92-.01,4.4-.08l2.23-.1,1.12-.03h1.41c.76-.01,1.56,0,2.07.26.1.09.18.18.27.27.04.05.09.08.13.15-.02.02.21-.17.11-.09h0s0,0,0,0h0s0,0,0,0h0s0,.04,0,.04v.05s.04.1.04.1c.06.28.17.53.18.83-.15.45-.28.91-.45,1.32-.17.42-.3.84-.55,1.25l-.32.52c-.08.14-.19.26-.28.39-.2.25-.38.52-.61.74-.84.95-1.82,1.72-2.85,2.4-1.78,1.15-3.75,1.95-5.77,2.43-3.07.69-6.31.73-9.36-.12-2.35-.66-4.58-1.69-6.51-3.2-.43-.33-.84-.66-1.24-1.04-1.44-1.44-1.59-2.24-1.26-2.91.08-.16.14-.33.24-.44.16-.18.43-.14.74.02.33.17.75.46,1.2.91,2.74,2.66,6.38,4.65,10.3,4.89,2.92.18,6-.33,8.66-1.61l.03.05Z"/><path class="cls-4" d="M347.61,359.37c-1.52-.76-2.98-1.74-4.16-3.1-.3-.33-.57-.7-.82-1.09-.12-.14-.28-.49-.43-.79-.14-.31-.33-.6-.4-.92l-.28-.93-.11-.91c-.05-.17.02-.27.06-.38l.13-.34.06-.17.02-.04v-.02s.24.19.13.1h0s0,0,0,0h0s.05-.08.05-.08l.21-.25c.23-.23.69-.28,1.14-.33.45-.08.95-.08,1.44-.06l1.03.02.86.04c4,.33,7.97.77,11.96,1.05,1.77.13,3.55.17,5.3.18,1.12.02,2.25.04,3.38.06.56.03,1.12,0,1.69.11.56.11,1.13.23,1.7.34.71.18.62.17.03.46-.38.2-.79.42-1.22.65-.26.13-.53.32-.83.42-.3.07-.61.13-.94.16-1.17.09-2.33.18-3.5.21-1.16,0-2.33-.03-3.49-.07-2.32-.09-4.64-.24-6.97-.49-2.78-.31-5.69-.25-8.51-.44l-.51-.04c-.14,0-.28-.02-.43-.02-.11.2,0,.52.1.79l.1.22c.03.07.18.26.26.39.17.29.43.54.65.81.49.5,1.03.98,1.64,1.39,1.48,1.01,3.2,1.74,5,2.19,1.36.36,2.78.55,4.19.66,1.4.1,2.8-.02,4.17-.3,2.13-.44,4.07-1.4,5.84-2.55.39-.26.75-.54,1.12-.81.7-.51,1.14-.85,1.51-1.01.39-.15.67-.15,1.03-.08.15.03.34.03.49.06.51.05.32,1.19-.73,2.18-3.1,2.95-7.52,4.76-12.14,4.9-1.74.02-3.36-.17-5.02-.49-1.65-.32-3.28-.86-4.83-1.59l.02-.06Z"/><path class="cls-4" d="M385.97,399.22c-1.08-.08-2.16-.15-3.25-.2-.4-.02-.79.04-1.19.02-1.4-.08-2.8-.23-4.2-.28-.62-.02-1.25.01-1.86.06-.79.02-1.58.12-2.4-.24-.26-.23-.22-.25-.02-.59.1-.18.24-.35.41-.54.17-.16.37-.42.6-.44l1.2-.25c.4-.06.81-.06,1.21-.07.81-.02,1.63,0,2.45.1.98.11,2-.06,3-.04,1.1.01,2.21.06,3.31.1l2.04.09c1.03.04,2.06.12,3.09.13.8,0,1.59-.12,2.42-.14.18,0,.36-.03.55-.02.69.12.89.35.89.98,0,.14.01.28,0,.41-.04.42-.4.82-.83.91-1.32.3-2.73.24-4.17.21-1.08-.04-2.16-.09-3.24-.13v-.06Z"/><path class="cls-4" d="M378.37,403.35c6.03.17,12.06.31,18.07.25,2.17-.03,4.41-.16,6.43-.36.39-.08.73-.07,1.17-.21.42-.12.85-.26,1.29-.4l2.6-.89c1.73-.62,3.47-1.26,5.19-1.91,1.73-.66,3.45-1.33,5.16-2.02l3.56-1.43.48-.21.59-.27.15-.07s.05-.02.07-.04c0-.03-.04-.03-.06-.04-.1-.03-.2-.04-.3-.05-.4-.05-.82-.09-1.24-.12-1.25-.07-2.49-.14-3.72-.21-4.38-.24-8.79-.28-13.15-.87-1.36-.3-1.18-.35-.01-.74.59-.2,1.42-.39,2.42-.6,1-.18,2.18-.28,3.45-.29,3.14,0,6.27.15,9.41.3l1.92.11c.79.03,1.57.09,2.34.15.75.07,1.6.1,2.25.21.57.14.88.35,1.03.55.12.21.35.35.39.53.03.09.04.17.04.28.02.18.01.21.02.32v.28c-.04.11-.17.26-.26.38l-.29.39-.08.1-.18.11-.36.23-1.62.79-1.72.77c-.57.25-1.13.52-1.72.76l-1.06.44c-1.27.52-2.56,1-3.85,1.48-2.54.97-5.14,1.95-7.74,2.94-1.31.49-2.62.98-3.98,1.43l-.51.17-.59.11c-.39.07-.81.16-1.17.19l-2.14.17c-6.16.26-12.24.15-18.34.06-3.75-.09-7.5-.18-11.25-.28-5.67-.19-11.38-.38-17.01-.57-4.38-.08-8.68-.15-13.02-.23-.96-.02-1.89-.03-2.85-.07-3.57-.16-4.7-.46-5.4-1.23-.16-.18-.38-.36-.47-.53-.3-.59,1.19-.95,3.78-.94,7.72,0,15.86.24,24.03.49,6.07.17,12.17.4,18.25.52v.07Z"/><g class="cls-6"><path class="cls-4" d="M123.9,174.25c1.13,0,1.13-1.75,0-1.75s-1.13,1.75,0,1.75h0Z"/></g><g class="cls-6"><path class="cls-4" d="M130.17,173.6l-.14-.14c-.08-.09-.17-.15-.28-.18-.1-.05-.22-.08-.34-.08-.12,0-.23.02-.34.08-.11.04-.2.1-.28.18l-.14.18c-.08.14-.12.28-.12.44l.03.23c.04.15.12.28.23.39l.14.14c.08.09.17.15.28.18.1.05.22.08.34.08.12,0,.23-.02.34-.08.11-.04.2-.1.28-.18l.14-.18c.08-.14.12-.28.12-.44l-.03-.23c-.04-.15-.12-.28-.23-.39h0Z"/></g><g class="cls-6"><path class="cls-4" d="M136.64,178.88v-.14c0-.12-.02-.23-.08-.34-.04-.11-.1-.2-.18-.28-.08-.09-.17-.15-.28-.18-.1-.05-.22-.08-.34-.08l-.23.03c-.15.04-.28.12-.39.23l-.14.18c-.08.14-.12.28-.12.44v.14c0,.12.02.23.08.34.04.11.1.2.18.28.08.09.17.15.28.18.1.05.22.08.34.08l.23-.03c.15-.04.28-.12.39-.23l.14-.18c.08-.14.12-.28.12-.44h0Z"/></g><g class="cls-6"><path class="cls-4" d="M142,179.87v-.14c0-.12-.02-.23-.08-.34-.04-.11-.1-.2-.18-.28-.08-.09-.17-.15-.28-.18-.1-.05-.22-.08-.34-.08l-.23.03c-.15.04-.28.12-.39.23l-.14.18c-.08.14-.12.28-.12.44v.14c0,.12.02.23.08.34.04.11.1.2.18.28.08.09.17.15.28.18.1.05.22.08.34.08l.23-.03c.15-.04.28-.12.39-.23l.14-.18c.08-.14.12-.28.12-.44h0Z"/></g><g class="cls-6"><path class="cls-4" d="M144.23,176.09c1.13,0,1.13-1.75,0-1.75s-1.13,1.75,0,1.75h0Z"/></g><g class="cls-6"><path class="cls-4" d="M150.02,171.71c1.13,0,1.13-1.75,0-1.75s-1.13,1.75,0,1.75h0Z"/></g><g class="cls-6"><path class="cls-4" d="M162.58,168.04c1.13,0,1.13-1.75,0-1.75s-1.13,1.75,0,1.75h0Z"/></g><g class="cls-6"><path class="cls-4" d="M154.96,167.61c1.13,0,1.13-1.75,0-1.75s-1.13,1.75,0,1.75h0Z"/></g><path class="cls-4" d="M164.17,179.73c-.35.41-.79.74-1.31.94-.52.21-1.11.23-1.59.12-.35-.08-.69-.15-.96-.34-.94-.65-1.3-1.91-.98-2.82.13-.4.33-.74.58-1.01.31-.36.76-.64,1.25-.58.15.02.15.24.12.49-.04.25-.04.57-.08.69-.1.21-.13.44-.1.59,0,.15-.01.18-.05.29-.04.18.26.22.36.25.15.03.15.08.3,0,.08-.05.17-.16.2-.27.02-.15.08-.25-.08-.3-.13-.05-.34.23-.3.33,0-.04-.02-.08-.03-.12-.13-.19.15.09-.53-.61-.13-.13-.27-.24-.41-.36-.46-.37-.74-.91-.41-1.43.51-.69,1.39-.95,2.17-.83.79.1,1.62.57,2.15,1.42.4.63.52,1.37.42,1.99-.09.62-.34,1.15-.67,1.59l-.06-.04Z"/><g class="cls-5"><path class="cls-4" d="M352.47,441.67c5.72.14,11.44.31,17.15.37l6.25-.02c7.34.03,14.67-.03,21.99-.47,3.24-.17,6.43-.6,9.47-1.47,1.95-.55,3.83-1.33,5.76-2.09.97-.38,1.95-.77,2.97-1.09.5-.19,1.04-.27,1.57-.36.54-.05,1.11,0,1.66.01,1.37.1,1.13-.08.15.53-.5.28-1.09,1-1.85,1.59-.77.56-1.71,1.06-2.79,1.55-1.92.85-3.97,1.73-6.12,2.31-2.14.61-4.33,1.01-6.52,1.25-2.2.25-4.34.33-6.48.42-2.15.08-4.29.11-6.45.12-5.15,0-10.49.2-15.74.16-5.78-.04-11.54-.19-17.31-.34-3.55-.09-7.09-.17-10.64-.26-2.69-.1-5.38-.2-8.07-.3l-2.02-.07c-.66-.02-1.38-.06-1.95-.03-1.19.08-2.36.52-3.33,1.26-1.52,1.14-2.57,2.86-3.11,4.68-.14.46-.23.92-.32,1.39l-.07.68v.69c.04.92.24,1.83.57,2.7.29.76.69,1.46,1.15,2.13.9,1.21,1.66,1.81,2.17,2.3.26.24.47.42.65.6.17.19.31.36.44.52.11.16.29.33.36.47.11.23-.18.33-.87.3-.67-.08-1.77-.37-2.89-1.22-1.63-1.29-2.78-3.13-3.41-5.15-.32-1.01-.47-2.1-.45-3.21.03-1.15.27-2.18.59-3.21.68-2.04,1.9-3.98,3.71-5.4.91-.7,1.97-1.26,3.13-1.57.58-.16,1.18-.25,1.78-.26.66-.03,1.04,0,1.55.01,2.87.08,5.75.17,8.62.25,2.88.1,5.78.11,8.66.17v.06Z"/></g><path class="cls-4" d="M169.2,102.3c-.17.06-.3.12-.41.18-.04.05-.06.02-.14.11l-.24.24c-.32.32-.57.68-.8,1.05-.43.76-.69,1.62-.73,2.58-.04.69.08,1.41.18,2.14.39,2.65,1.25,5.26,2.47,7.76.52,1.12,1.13,2.21,1.77,3.27.4.69.87,1.34,1.21,2.07.18.36.35.72.51,1.09.18.36.23.8.35,1.19.11.51.04.48-.4.24-.22-.12-.54-.27-.93-.46-.36-.2-.7-.49-1.01-.84-.26-.32-.56-.62-.78-.96l-.67-1.03c-.44-.69-.88-1.4-1.29-2.13-.85-1.44-1.49-3.02-2.02-4.65-.61-1.98-1.33-3.94-1.59-6.11-.12-1.19-.1-2.45.26-3.68.33-1.23,1.03-2.35,1.87-3.23l.19-.21.27-.23c.18-.16.38-.26.57-.37.38-.2.77-.33,1.15-.43.76-.18,1.52-.24,2.29-.19.59.05,1.16.12,1.83.47.31.16.78.55.85,1.18,0,.15,0,.3-.02.44-.04.15-.11.29-.18.43-.09.12-.2.23-.31.33-.1.07-.21.13-.32.19-.79.29-1.31.22-1.84.24-.52,0-1.02,0-1.45.07-.17.03-.33.06-.45.11-.16.05-.18.08-.36.19-.29.19-.55.38-.76.61-.43.44-.69.98-.86,1.59-.08.27-.11.55-.16.84-.08.54-.16.91-.36,1.16-.09.13-.18.24-.31.32-.14.09-.31.16-.47.22-.15.06-.27.14-.38.18-.26.13-1.06-.4-1.15-1.5-.03-.81.05-1.67.34-2.57.3-.89.86-1.8,1.64-2.49.39-.34.8-.64,1.21-.84.17-.09.64-.29.89-.34.31-.09.56-.11.82-.14.98-.09,1.78.01,2.35,0h.25s.04,0,.06,0c-.01-.1.04.24.13.45.14.41.3.59.35.64.06.04-.04-.02-.04,0h0s0,0,0,0h0c.1.03-.14-.03-.12-.03h0s.01,0,.01,0h.03s.05.02.08.02c.11-.02-.02,0-.03.02-.02.01-.01.02-.04.03-.05.03-.1.06-.15.1-.1.09-.1.14-.24.3-.06.07-.11.14-.15.21-.05.08-.09.17-.06.14,0,0-.05-.04-.1-.06-.08-.02-.13-.04-.22-.06-.7-.16-1.72-.08-2.37.16l-.02-.05Z"/><path class="cls-4" d="M149.88,114.13c.82,1.49,1.82,2.92,3.01,4.15s2.64,2.34,4.31,2.67,3.59-.05,4.73-1.38c1.02-1.19,1.21-2.78,1.03-4.28-.19-1.63-.69-3.18-1.12-4.76-.19-.68-.92-1.09-1.6-.91s-1.09.92-.91,1.6c.32,1.16.69,2.3.92,3.47.03.16.06.31.09.47.01.08.02.16.04.23,0-.05-.02-.25,0,0,.03.3.05.6.05.91,0,.15,0,.29-.02.44,0,.07-.01.14-.02.21.04-.29.01-.1,0-.04-.03.13-.06.26-.1.39-.02.06-.04.13-.06.19.05-.16.07-.13,0,0-.06.1-.11.2-.17.29-.12.2,0,0,.02-.03-.05.05-.09.1-.14.15s-.1.09-.15.14c.04-.04.21-.13.01-.01-.1.06-.35.21-.35.21-.13.06-.55.18-.81.23.26-.04-.19,0-.25,0-.08,0-.16,0-.24,0-.03,0-.35-.04-.18-.01.12.02-.23-.05-.3-.07-.16-.04-.31-.09-.46-.14-.23-.07-.09-.03-.03,0-.08-.03-.15-.07-.23-.11-.17-.08-.34-.18-.5-.28-.15-.09-.29-.18-.44-.28-.04-.03-.35-.27-.22-.16-.3-.24-.59-.5-.86-.78-1.17-1.16-1.98-2.35-2.8-3.83-.34-.61-1.18-.81-1.78-.47s-.81,1.16-.47,1.78h0Z"/><path class="cls-4" d="M154.53,134c.47,1.91,1.81,3.67,3.59,4.55,2.06,1.02,4.45.98,6.49-.08.7-.36.96-1.4.54-2.05-.46-.71-1.31-.93-2.05-.54-.09.05-.19.09-.29.14-.2.1.32-.11-.06.02-.18.06-.36.12-.55.16-.1.03-.21.05-.31.07-.16.03-.12.01.02,0-.19.02-.38.03-.57.03-.21,0-.42-.02-.64-.03s.23.05.02,0c-.1-.03-.21-.04-.31-.06-.19-.04-.37-.1-.55-.16-.13-.04-.25-.11-.06-.02-.09-.04-.17-.08-.26-.13-.15-.08-.3-.17-.45-.26-.06-.04-.13-.09-.19-.13-.3-.21.13.13-.02-.01-.27-.26-.53-.5-.77-.79.08.09.12.17.03.03-.05-.08-.11-.16-.16-.24-.09-.15-.18-.3-.26-.45,0,0-.16-.34-.07-.14s-.05-.13-.05-.14c-.06-.18-.12-.37-.16-.56-.19-.76-1.09-1.29-1.85-1.05-.79.26-1.25,1.03-1.05,1.85h0Z"/><path class="cls-4" d="M147.59,106.05c1.18-1.12,2.61-2.13,4.08-2.68s3.17-.91,4.6-.69c.12.02.44.12.45.13.15.06.19.09.13.09.12.13.14.14.04.01l-.06-.16c-.08-.37,0-.68.23-.93.17-.12.19-.14.06-.06.18-.07.19-.08.04-.02-.15.03-.29.08-.44.1.34-.06-.13,0-.2,0-.36,0-.41-.02-.79-.1-1.83-.41-3.59-1.23-5.49-.71-1.71.46-.98,3.12.73,2.65.61-.17,1.24-.05,1.96.14.8.21,1.58.49,2.4.64,1.35.24,3.48.23,4.08-1.31.4-1.02-.21-1.92-1.01-2.51s-1.72-.71-2.66-.72c-1.73-.02-3.49.29-5.1.93-1.87.75-3.52,1.87-4.98,3.26-1.28,1.22.66,3.17,1.94,1.94h0Z"/><path class="cls-4" d="M212.99,61.1c-.11.22-.39.18-.75.01-.12-.05-.34-.32-.33-.41.03-.16.06-.32.1-.46.03-.08.8-1.1,1.04-1.47.24-.36.52-.66.81-.96l1.77-1.8c.14-.12.3-.22.47-.3.59-.28,1.09-.67,1.55-1.12.08-.07.17-.13.2-.27.04-.23,1.38-1.32,1.6-1.4.54-.2,1.05-.45,1.58-.67.08-.03.12-.11.25-.06.29.12.4-.02.55-.11.21-.11.41-.24.68-.28.13-.02.32.04.48.07.15.03.32.37.32.43-.02.16.16.26.26.38.03.04.08.1.1.14.02.03-.11.44-.29.8-.18.36-.39.71-.45.75-.01.01-.39.34-.79.69-.39.35-.8.71-.88.8-.08.09-.21.11-.33.15-.06.02-1.2,1.1-1.25,1.14-.28.17-.48.44-.88.46-.08,0-.12.05-.17.1-.43.36-.91.65-1.41.92-.25.14-.47.33-.71.49-.04.03-.1.04-.15.05-.06.02-.13.04-.19.08-.54.4-1.16.72-1.66,1.18-.12.1-.85.4-.97.53-.07.07-.51.07-.55.16Z"/><path class="cls-4" d="M216.16,65.54c-.13.14-.33.01-.56-.25-.07-.08-.18-.38-.15-.44.06-.12.12-.24.19-.34.04-.06.87-.62,1.14-.83.26-.21.55-.36.84-.49l1.78-.84c.13-.06.27-.1.42-.11.51-.04.96-.22,1.42-.43.08-.03.16-.05.21-.16.08-.19,1.37-.62,1.55-.6.52.04.91.06,1.36.09.06,0,.12-.04.2.05.19.23.31.15.44.14.19-.02.38-.01.57.03.1.02.22.15.33.24.1.09.14.48.12.53-.05.14.05.3.09.46.01.05.03.12.04.17,0,.1-.84.99-.95,1.01-.02,0-1.39.55-1.59.63-.08.04-.18,0-.28-.01-.05,0-1.16.45-1.21.45-.25.03-.47.16-.77,0-.06-.03-.11,0-.15,0-.41.11-.86.12-1.29.16-.22.02-.43.09-.64.14-.04,0-.09,0-.13-.01-.05,0-.11-.01-.16,0-.5.13-1.04.17-1.52.36-.11.04-.73.02-.85.08-.07.03-.39-.12-.45-.06Z"/><path class="cls-4" d="M217.93,71.82c-.14.07-.17-.16-.14-.56,0-.13.11-.48.16-.53.09-.09.18-.17.26-.23.05-.03.7-.1.93-.15.22-.05.43-.03.63,0,.41.06.83.09,1.23.15.09.02.17.06.25.12.26.22.56.3.88.33.05,0,.1.03.17-.04.12-.11.94.07,1.03.16.22.22.46.38.69.57.03.03.08,0,.09.11.01.25.11.23.18.27.11.05.21.12.3.23.04.05.06.2.09.33.02.11-.11.46-.14.5-.08.1-.09.28-.13.43-.01.05-.03.12-.04.16-.03.09-.84.5-.91.47,0,0-.25-.03-.52-.06-.26-.03-.54-.06-.6-.06-.06,0-.1-.07-.15-.12-.02-.02-.82-.08-.85-.1-.15-.08-.32-.05-.42-.29-.02-.05-.05-.05-.09-.05-.27-.06-.52-.21-.77-.35-.13-.08-.27-.1-.4-.16-.02,0-.04-.05-.06-.07-.03-.03-.05-.06-.08-.07-.32-.1-.61-.32-.95-.37-.08-.01-.37-.33-.46-.34-.05,0-.13-.32-.19-.29Z"/><path class="cls-4" d="M163.04,215.27c-1.08.05-2.16.11-3.23.19-.39.03-.78.11-1.17.14-1.38.11-2.78.11-4.17.23-.62.05-1.23.15-1.83.25-.77.15-1.54.32-2.37.11-.26-.05-.24-.16-.07-.39.09-.12.21-.28.36-.46.15-.19.33-.36.55-.44,1.56-.45,3.16-.66,4.79-.75.97-.05,1.96-.27,2.95-.37,1.09-.11,2.18-.2,3.27-.28l2.01-.16c1.01-.09,2.04-.14,3.04-.28.78-.09,1.53-.34,2.3-.45.17-.02.33-.06.51-.07.64-.04.85.08,1.03.51.04.1.09.2.12.29.09.33-.14.64-.59.83-1.33.62-2.78.72-4.23.88-1.08.09-2.17.18-3.25.26v-.05Z"/><path class="cls-4" d="M164.35,220.83c-.4-.04-.8-.07-1.2-.07-.15,0-.28.06-.43.03-.53-.06-1.06-.11-1.59-.09-.23,0-.46.06-.68.11-.28.07-.56.17-.87.14-.19,0-.18-.79.13-.99.56-.29,1.15-.52,1.79-.54.38,0,.74-.19,1.12-.26.42-.04.84-.06,1.27-.08.26,0,.52-.01.78-.02.39-.02.79,0,1.17-.05.3-.04.59-.19.89-.3.07-.02.13-.06.2-.08.25-.04.33.09.38.62l.03.37c.02.42-.07.76-.24.88-.5.34-1.02.38-1.55.39-.39,0-.79-.02-1.19-.02v-.04Z"/></svg>