<svg id="Layer_1" data-name="Layer 1" xmlns="http://www.w3.org/2000/svg" width="520" height="520" viewBox="0 0 520 520"><defs><style>.cls-1{fill:#221f1f;}</style></defs><title>Notioly v2</title><g id="_71.Drawing" data-name="71.Drawing"><path class="cls-1" d="M178.18,148a14,14,0,0,0-1.83,2.65,30.4,30.4,0,0,0-1.44,3.05l.13-.64h0v.32l-.13.33-.14.34c-.17.4-1,2.23-1,2.45,0,0-.35.79-.71,1.61l-.87,2c-.07.14-.92,2.09-2,4.08a47,47,0,0,1-2.68,4.35,14,14,0,0,1-1.73,2c-.42.39-.85.78-1.22,1.08l-.85.65c-.2.18-.93-.8-.79-.94l.89-.9c.28-.32.58-.61.88-.91a17.44,17.44,0,0,0,2-2.7,20,20,0,0,0,1.23-2.26c.35-.82.66-1.66,1-2.51l.41-1.2c.38-1.11.74-2.23,1.08-3.37s.59-2.16,1-3.23c.2-.59.44-1.18.66-1.77l-.12.59h0v-.29l.12-.31c.39-1,.82-1.94,1.3-2.9a18.56,18.56,0,0,1,1.51-2.61,13,13,0,0,1,1.22-1.36c.32-.32.93-.11,1.56.27A2.33,2.33,0,0,1,178.18,148Z"/><path class="cls-1" d="M212.79,165.55c-3.67-8.69-10.67-17.38-14.39-25.84-8-1.29-23.1,7.45-26.72,11.25-12.17,12.72-15.16,21.71-17.05,25.47-1.63-.32-18.25-.74-16.42,14.62.86,7.2,8.8,9.09,16.09,9.64,3,6.92,8.19,15.67,16.22,20.52a1,1,0,0,1,0,1.85c-12.24,4.6-22.07,6.27-34.82,1.29C121.93,219,115,201.86,111.52,196.86c-.31-.44-18.72.84-25.1-2.75a23.39,23.39,0,0,1-11.73-16.63c-1.3-8.73,4.12-17.48,12-21.4C97,151,108.27,159.44,112.22,162c.21.09,5.64-12.32,6.08-13.3,8.57-19.17,22.57-30.41,43.17-33.76C203.25,108.19,219.57,150.22,212.79,165.55Z"/><path class="cls-1" d="M81.74,162c-4,4.18-6.25,10.14-5.2,15.79A21.67,21.67,0,0,0,86.1,192a15.13,15.13,0,0,0,1.82,1,14.23,14.23,0,0,0,2,.69,34.22,34.22,0,0,0,4.42.84,91.14,91.14,0,0,0,9.27.6c1.56,0,3.12,0,4.7,0h2.1a4.52,4.52,0,0,1,.52,0l.53,0,.47.15.2.12.1.06,0,0s0,.1.08-.07l0,0,.28.37.57.74.28.37a1.61,1.61,0,0,1,.18.28c1.64,2.8,3.07,5.55,4.7,8.21a56.33,56.33,0,0,0,8.11,10.7,33.75,33.75,0,0,0,5.06,4.21c.45.3.93.56,1.39.84a11.68,11.68,0,0,0,1.43.78,29.44,29.44,0,0,0,3,1.28,37.86,37.86,0,0,0,17.86,2.32,52.87,52.87,0,0,0,9-1.93c.74-.23,1.48-.45,2.21-.7l1.69-.57.47-.16a.37.37,0,0,0,.3-.26.36.36,0,0,0-.11-.35,3.62,3.62,0,0,0-.32-.22l-.13-.09-.06,0-.12-.09-.78-.58c-.53-.37-1-.8-1.51-1.21a37.22,37.22,0,0,1-2.8-2.67,44,44,0,0,1-4.74-6,60.06,60.06,0,0,1-3.76-6.61l-.8-1.68-.19-.44a1,1,0,0,0-.11-.21l-.23,0-.48,0-.95-.11c-.63-.07-1.26-.18-1.89-.28a23.28,23.28,0,0,1-7.44-2.43,11.4,11.4,0,0,1-3.19-2.59,10.07,10.07,0,0,1-1.93-3.73,17.77,17.77,0,0,1-.4-4,15.9,15.9,0,0,1,.55-4,11.63,11.63,0,0,1,4.77-6.48,17.34,17.34,0,0,1,6-2.41,22.77,22.77,0,0,1,3.17-.43c.53,0,1.07-.06,1.6-.06h.54l.37,0a1.88,1.88,0,0,0,.21-.4l.3-.65.82-1.77c.55-1.19,1.12-2.37,1.74-3.53a73,73,0,0,1,4.06-6.74,94.33,94.33,0,0,1,9.84-12.1,33.63,33.63,0,0,1,5.71-4.3,69.25,69.25,0,0,1,6.13-3.41,54.83,54.83,0,0,1,6.53-2.67,24.71,24.71,0,0,1,7.09-1.38,4.56,4.56,0,0,1,1,0l1.42.11.34,0h.09l0,.08.07.16.3.63.5,1.08c.48,1,1,2,1.54,3,1.08,2,2.25,3.95,3.44,5.9,2.37,3.92,4.85,7.83,6.91,12,1.28,2.62,1.53,3.89,1.24,3.92s-1.19-1.13-2.6-3.09l-5.85-8.11a84,84,0,0,1-7.64-12.35l-.09-.19h0l-.2,0-.83,0a10.06,10.06,0,0,0-1.7.19,15.31,15.31,0,0,0-1.74.35,41.49,41.49,0,0,0-6.93,2.45,61.28,61.28,0,0,0-6.63,3.45,33.61,33.61,0,0,0-5.83,4.22A91.47,91.47,0,0,0,163.58,164a67.85,67.85,0,0,0-3.91,6.42c-.59,1.11-1.14,2.24-1.68,3.38l-.81,1.74-.61,1.3-.82,1.69-1.59-.21-.77-.05H153c-.49,0-1,0-1.45,0a19.84,19.84,0,0,0-2.87.41,13.54,13.54,0,0,0-5.1,2.15,8.43,8.43,0,0,0-3.11,4.12,12.93,12.93,0,0,0-.54,5.52,6.9,6.9,0,0,0,2,4.58,12.62,12.62,0,0,0,4.85,2.68,33.5,33.5,0,0,0,5.93,1.2l.42.05.66.06,1.31.12c.28-.06.28.26.39.43l.26.59.52,1.17c.43.95.88,1.89,1.35,2.81a49,49,0,0,0,5.42,8.48,34.35,34.35,0,0,0,3.42,3.72c.6.59,1.25,1.12,1.9,1.66.33.26.68.5,1,.76l.25.19.13.09,0,0,.09,0,.12.08.94.62.79.75a1.61,1.61,0,0,1,.54.83,2.28,2.28,0,0,1-.25,2c-.13.28-.53.38-.85.55l-1,.47-1,.47-.5.23c-.15.07-.25.09-.38.14-1.92.65-3.86,1.28-5.85,1.8a45.4,45.4,0,0,1-12.32,1.63,41.07,41.07,0,0,1-12.31-2.14c-1-.33-1.95-.68-2.92-1.07s-2-.84-2.88-1.37a30.67,30.67,0,0,1-5.17-3.61c-5.06-4.29-8.78-9.74-12-15.28-.81-1.39-1.59-2.78-2.36-4.17-.38-.69-.77-1.38-1.16-2l-.28-.48-.16-.25-.16-.24a.38.38,0,0,0-.21-.05l-.83,0h-3.57q-2.4,0-4.8-.09a72.3,72.3,0,0,1-9.67-.9,22.54,22.54,0,0,1-4.84-1.37,9.41,9.41,0,0,1-1.19-.59l-1.07-.65c-.69-.46-1.37-.94-2-1.46a23.94,23.94,0,0,1-9.18-17.17A20.9,20.9,0,0,1,76.61,164a23.44,23.44,0,0,1,8.81-8.37,22.08,22.08,0,0,1,2.84-1.27c.49-.16,1-.27,1.51-.41a8,8,0,0,1,1.54-.27,17.94,17.94,0,0,1,6.16.22,26.36,26.36,0,0,1,5.79,1.83,43.2,43.2,0,0,1,5.31,2.78c.64.4,1.28.79,1.9,1.21l1.16.77c.08,0,.16.14.24.13a1.57,1.57,0,0,0,.14-.25l.26-.52.81-1.75,3.64-8.1a70.24,70.24,0,0,1,9-15.55,53.14,53.14,0,0,1,29.73-19.1,64.76,64.76,0,0,1,13.69-2,46.4,46.4,0,0,1,13.72,1.59,43.29,43.29,0,0,1,22.65,15.26,49,49,0,0,1,6.3,10.42,39.17,39.17,0,0,1,3.62,15.77,14.4,14.4,0,0,1-1.51,7.1,8.64,8.64,0,0,1-1.18,1.84c-.26.28-.35.11-.3-.43a10.87,10.87,0,0,1,.2-1.07c0-.46.14-1,.24-1.64a35.44,35.44,0,0,0-.8-11.82,46.67,46.67,0,0,0-10.93-20.77,40,40,0,0,0-20.25-12.13,45.29,45.29,0,0,0-12-1.22A61.73,61.73,0,0,0,156.7,118a55.71,55.71,0,0,0-11.6,4.16A49,49,0,0,0,134.89,129c-.6.48-1.15,1-1.7,1.54s-1.11,1.05-1.63,1.61c-1,1.14-2.09,2.23-3,3.46a58.44,58.44,0,0,0-5.19,7.62,86.93,86.93,0,0,0-4.13,8.38c-1.3,2.91-2.59,5.82-3.94,8.74l-.8,1.69a6.71,6.71,0,0,1-.56,1l-.15.22a.73.73,0,0,1-.21.06l-.41.11-.36.09-.17,0c0,.19-.13-.4.08.41h-.18l-.84-.07c-.14,0-.26,0-.42-.08l-.49-.32-1-.66-1.24-.82-1-.62c-.66-.42-1.32-.8-2-1.18a29.71,29.71,0,0,0-8.3-3.31,14.9,14.9,0,0,0-8.36.41,18.55,18.55,0,0,0-3.79,2,21.48,21.48,0,0,0-3.33,2.83Z"/><path class="cls-1" d="M218.88,191.1a54,54,0,0,1-2.23,12.73l-.75,2.24-.38,1.12-.49,1.08a30.28,30.28,0,0,1-1.92,3.71,26.74,26.74,0,0,1-2.3,3.47,40.45,40.45,0,0,1-5.53,6.14,65.91,65.91,0,0,1-5.61,4.68c-2.52,1.8-5.26,3.59-8.47,4.16-1,.17-1-.55-.39-1.4a8.63,8.63,0,0,1,3.09-2.6,42.14,42.14,0,0,0,7.38-4.89,50.68,50.68,0,0,0,6.5-6.27c.57-.69,1.14-1.41,1.7-2.15s1-1.57,1.43-2.37c.23-.41.48-.8.68-1.22l.57-1.28c.36-.86.82-1.68,1.1-2.57a44.75,44.75,0,0,0,2.78-12l.18-1.9c0-.64,0-1.28.06-1.92l.05-1.91-.08-1.92c0-1.94-.27-3.87-.47-5.8s-.59-3.85-1.06-5.72a60.38,60.38,0,0,0-2.77-8.44c-.25-.6-.52-1.18-.77-1.79-.91-2.24-1.1-3-.64-3.78a2.84,2.84,0,0,1,.3-.52c.41-.45,1.22.29,2.1,1.93a55.37,55.37,0,0,1,5.17,16.2,62.46,62.46,0,0,1,.84,13Z"/><path class="cls-1" d="M209.91,265.62c-1-2.7-2.14-5.39-3.39-8-.43-1-1-1.88-1.44-2.83-1.63-3.36-3.35-6.7-5.26-9.93-.83-1.44-1.79-2.82-2.73-4.18a48.39,48.39,0,0,1-3.6-5.26c-.62-1.19,2.44-1.33,3.9.7a77.64,77.64,0,0,1,6.78,11.36c1.17,2.39,2.59,4.75,3.8,7.18.66,1.34,1.27,2.7,1.9,4.05s1.21,2.73,1.75,4.12l1,2.55,1,2.58c.49,1.3.9,2.63,1.36,3.94s.85,2.64,1.27,3.95c.32,1,.67,2,1,3l1,3c.15.44.3.88.41,1.34.42,1.7.37,2.28-.25,2.79a3.2,3.2,0,0,1-.42.33c-.51.27-1.1-.32-1.53-1.51-1.27-3.51-2.35-7.25-3.61-11-.44-1.38-1-2.75-1.42-4.13s-1-2.74-1.57-4.09Z"/><path class="cls-1" d="M198.09,241c-.43-1.31-5.19-6.65-6.56-8.13-4.85-5.21,5.53-7.23,8.7-9.38a.1.1,0,0,1,.13.15,15.48,15.48,0,0,0-2.8,6A33.79,33.79,0,0,0,198.09,241Z"/><path class="cls-1" d="M211.09,311.84a111.94,111.94,0,0,1-8.53-14.26c-1.26-2.44-2.47-4.91-3.64-7.38l-1.77-3.67c-.29-.61-.59-1.2-.89-1.77l-1-1.82c-2.54-4.86-4.94-9.73-7.61-14.42a76,76,0,0,0-9.1-13.15,42.46,42.46,0,0,0-4.09-4.07c-.7-.66-1.49-1.21-2.23-1.81s-1.56-1-2.33-1.55a14.06,14.06,0,0,0-10.31-1.87,13.63,13.63,0,0,0-7.54,5.38,21,21,0,0,0-3.5,9.07c-.45,3.39-.77,6.94-1.17,10.4l-1.14,10.46q-2.28,20.91-4.71,41.8c-1.45,12.36-2.89,24.79-4.44,37-1,7.88-2,15.77-3.24,23.63-.61,3.94-1.27,7.87-2,11.78a92,92,0,0,1-2.94,11.68,9.85,9.85,0,0,1-1.25,2.57c-.4.51-.72.67-.79.55-.15-.28.25-1.47.5-3.54.62-4.12,1.43-11.72,2.88-20.7,2.55-15.93,4.57-32,6.56-48.07s3.85-32.24,5.78-48.44q.81-7.28,1.64-14.68.41-3.71.79-7.43l.39-3.73.2-1.86c0-.62.13-1.25.24-1.91a23.24,23.24,0,0,1,2.34-7.59,19.39,19.39,0,0,1,5-6.32,14.92,14.92,0,0,1,7.52-3.2,16.78,16.78,0,0,1,8,1.15c5.44,2.43,9.52,6.45,13.17,10.71a75.63,75.63,0,0,1,5,6.77c1.51,2.34,2.92,4.73,4.26,7.15,2.67,4.85,5.1,9.78,7.67,14.61,1.3,2.51,2.42,5,3.63,7.45s2.41,4.9,3.7,7.31c3.16,5.9,6.61,11.72,11.06,16.61a28.18,28.18,0,0,0,3.57,3.35,17.23,17.23,0,0,0,4.1,2.41,8.94,8.94,0,0,0,4.49.59,7.36,7.36,0,0,0,4-1.89,12.07,12.07,0,0,0,2.25-2.74,23,23,0,0,0,1.69-3.28c1-2.29,1.73-4.71,2.51-7.16q2.32-7.32,4.53-14.67c2.95-9.81,5.76-19.64,8.77-29.36,4.68-15.1,9.66-29.87,16.53-44,1.55-3.09,3-6.15,4.74-9.19a72.73,72.73,0,0,1,7.63-11.52c2-2.31,3.5-3.42,4.91-4a3.94,3.94,0,0,1,1.88-.36c.62.22-.26.39-1.76,1.95a53.76,53.76,0,0,0-6.11,8.37A170.18,170.18,0,0,0,271,221.79c-3,6.43-5.68,13.07-8.17,19.85-5,13.59-9.08,27.71-13.24,41.89-1.55,5.27-3.1,10.54-4.72,15.81l-2.47,7.89a65.57,65.57,0,0,1-2.9,8,22,22,0,0,1-2.26,3.9,12.48,12.48,0,0,1-3.47,3.35,9.63,9.63,0,0,1-4.79,1.57,11.65,11.65,0,0,1-4.83-.69,17.1,17.1,0,0,1-4.1-2.12,26.37,26.37,0,0,1-3.44-2.82,49.53,49.53,0,0,1-5.58-6.51Z"/><path class="cls-1" d="M274,295.18c-.93,5.73-1.95,11.48-3.28,17.18a115,115,0,0,1-5.18,16.82,71,71,0,0,1-5.81,11.56,58.4,58.4,0,0,1-7.08,9,35.84,35.84,0,0,1-9.09,7.1,28,28,0,0,1-11.1,3.3A33.15,33.15,0,0,1,221,359a58.7,58.7,0,0,1-18-8.84,84.52,84.52,0,0,1-18.49-17.57c-1.6-2.13-.77-2.3,1.2-1.05a59.15,59.15,0,0,1,8.51,7.15,78,78,0,0,0,20.24,14.72,40.24,40.24,0,0,0,11.73,3.69,27.14,27.14,0,0,0,12.08-1,26.48,26.48,0,0,0,6.66-3.29,36.45,36.45,0,0,0,5.75-5.05,57,57,0,0,0,9-12.69c5.38-10.12,8.15-21.51,10.23-32.92,1.28-7,2.29-14.14,3.4-21.24,1.66-10.75,3.64-21.6,7-31.94a88.54,88.54,0,0,0,2.15-12.14c.54-4.11,1-8.21,1.63-12.33.27-1.82.52-3.6.86-5.43,1.29-6.77,2.49-9,3.88-10a4.7,4.7,0,0,1,.94-.57c.41-.1.37.54,0,1.58s-.76,2.92-1.23,5.34c-1.43,7.13-2.21,14.7-3.28,22.37q-.39,2.88-.87,5.79a51.09,51.09,0,0,1-1.29,6c-1.18,3.74-2.21,7.39-3.08,11.18-2.62,11.22-4.1,22.81-5.92,34.39Z"/><path class="cls-1" d="M277.57,215.12c-1.1-1-1.12-1.55-.95-2a41.87,41.87,0,0,1,2.06-4.65c.69-1.29,1.51-2.5,2.29-3.73a63.33,63.33,0,0,1,4.31-6.22c.46-.59,1-1.15,1.46-1.72s.93-1.12,1.43-1.66c.08-.09.14-.22.26-.26.33-.1.8.31,1,.81,0,.11.12.28.08.32-.37.4-.1,1.27-.5,1.63a16.65,16.65,0,0,0-1.82,2.5,11.7,11.7,0,0,1-.76,1c-.34.4-.75.75-1.08,1.17a54.69,54.69,0,0,0-4,6.28c-1.62,2.88-2.94,5.75-3,5.88A5.65,5.65,0,0,1,277.57,215.12Z"/><path class="cls-1" d="M281.83,216.63c-1.26-.68-1.41-1.2-1.33-1.62a27.08,27.08,0,0,1,1.13-4.15c.41-1.16,1-2.25,1.53-3.36a51.55,51.55,0,0,1,3-5.62c.32-.54.71-1,1-1.57s.66-1,1-1.54c.05-.09.08-.21.18-.25.28-.11.8.24,1.06.68.05.1.16.24.14.28-.26.38.17,1.15-.13,1.5a12,12,0,0,0-1.23,2.29,5.33,5.33,0,0,1-.54.88c-.25.36-.56.69-.81,1.06a38.9,38.9,0,0,0-2.7,5.58c-1,2.55-1.75,5.08-1.79,5.2A4.5,4.5,0,0,1,281.83,216.63Z"/><path class="cls-1" d="M202.89,315.43c-.85,1.11-1.77,2.19-2.59,3.33s-1.6,2.33-2.37,3.51c-.52.89-1,1.82-1.5,2.71a69.91,69.91,0,0,0-4.8,9.84,23.4,23.4,0,0,0-.81,2.31c-.24.78-.47,1.55-.65,2.34-.52,2-.77,4.07-1.44,6-.19.58-.93.43-1.57-.25a3.54,3.54,0,0,1-.88-3.08,48.11,48.11,0,0,1,4.53-12.41l1.79-3.59.88-1.83c.34-.59.67-1.18,1-1.77l1.11-1.92,1.24-1.85,1.24-1.84c.43-.6.9-1.18,1.35-1.77l1.67-2.15,1.81-2,1.37-1.54c.46-.52,1-1,1.47-1.45,1-.95,1.94-2,3-2.87.8-.69,1.56-1.41,2.32-2.14l1.14-1.11c.39-.35.81-.66,1.22-1s.71-.59,1.09-.87c1.4-1,2-1.19,2.69-.74a3.3,3.3,0,0,1,.48.31c.45.42.16,1.24-.74,2.08-1.32,1.27-2.8,2.36-4.13,3.69-.69.63-1.39,1.26-2.1,1.87s-1.34,1.34-2,2c-1,1-2,1.95-2.93,3l-1.4,1.59a17.65,17.65,0,0,0-1.36,1.64Z"/><path class="cls-1" d="M230.32,383.7l1,6.58c.12.8.32,1.58.44,2.38.41,2.83.79,5.66,1.23,8.47.2,1.25.48,2.49.77,3.71a25.52,25.52,0,0,1,1,4.72c0,1-2.76.37-3.18-1.48a73.37,73.37,0,0,1-1.53-9.83c-.16-2-.67-4-1-6l-1-6.63-.65-4.08c-.34-2.05-.65-4.12-1.07-6.14-.32-1.58-.8-3.09-1.21-4.63-.09-.34-.2-.67-.27-1-.29-1.28-.19-1.72.46-2.13.15-.09.29-.2.44-.27.52-.22,1.07.22,1.4,1.13a54.68,54.68,0,0,1,2.17,8.58c.42,2.19.77,4.41,1.15,6.61Z"/><path class="cls-1" d="M194.22,403.39a135.23,135.23,0,0,1-19.12,1.93l-3.5.14c-1.16,0-2.33,0-3.49,0a159.48,159.48,0,0,1-24.42-2.56c-3.57-.64-7.16-1.28-10.68-2-2.26-.48-4.54-.92-6.78-1.5a60.89,60.89,0,0,1-6.55-2,1.84,1.84,0,0,1-.37-.17l-.13-.11s0-.05.06-.08a.27.27,0,0,0,0-.12v-.07a1.72,1.72,0,0,0-.06-.34c-.09-.4-.16-.56-.13-.51a2.17,2.17,0,0,0,.07.24c0,.12,0,.06,0,0v-.08a.6.6,0,0,1,.13-.33,2.69,2.69,0,0,1,.87-.58,10.09,10.09,0,0,1,6.39-.32,275.33,275.33,0,0,0,27.13,5.66,106.78,106.78,0,0,0,17,.9,133.55,133.55,0,0,0,18.73-1.36c1.92-.23,3.8-.64,5.71-1s3.77-.83,5.66-1.24a108.61,108.61,0,0,0,16.6-5.57c2.05-1,4.09-1.88,6-3l2.9-1.65c1-.56,1.88-1.19,2.82-1.77s1.62-1.07,2.47-1.57c3-2,4.15-2.44,5.42-2a5.21,5.21,0,0,1,.85.32c.77.49-.13,1.88-2.32,3.58A86.33,86.33,0,0,1,213,398.41a119.3,119.3,0,0,1-18.79,5.08Z"/><path class="cls-1" d="M296.58,189.25q.38,31.68.73,63.36.17,11.56.35,23.11l.19,18,.09,9,.05,4.51v1c0,.12,0,.25,0,.38a.36.36,0,0,0,.25.28,1,1,0,0,0,.38,0L343,301.13c11.87-2.09,23.79-4.27,35.55-6.43,15.1-2.79,30.25-5.74,45.41-8.15,9.45-1.51-2,3.44-19.41,6.61-30.87,5.61-61.74,11-92.94,16.26l-13.22,2.27a2.66,2.66,0,0,1-2.06-.32,2.43,2.43,0,0,1-1.06-1.76,11.24,11.24,0,0,1,0-1.17v-.78l0-1.4c0-1.85-.05-3.71-.08-5.58-.05-3.73-.11-7.48-.17-11.23-.12-7.51-.23-15-.34-22.52q-.4-31.92-.79-63.84-.24-19.64-.49-39.28l-.09-5.79,55.5-2.05c15.29-.62,30.27-1.4,45.38-2.11l9.93-.48c12.44-.53,16.41-.48,19.11.2A15.16,15.16,0,0,1,425,154c1.21.56-3.84,1.26-12.94,1.79-27,1.56-55.5,2.74-84.11,3.84l-31.67,1.17.39,28.38Z"/><path class="cls-1" d="M421.11,238c-.07-6.42-.12-12.84-.2-19.27,0-2.34-.13-4.68-.15-7-.07-8.26-.1-16.52-.18-24.77,0-3.67-.16-7.35-.29-11-.17-4.67-.47-9.35-.3-14,.11-2.91,2.78.72,2.93,6.1.28,9.53.39,19.06.25,28.69-.08,5.75.18,11.73.27,17.62q.13,9.69.24,19.4.07,6,.17,12c.1,6,.16,12.09.34,18.07.14,4.65.44,9.2.66,13.8.06,1,.13,2,.17,3,.13,3.78,0,5-.71,5.82a3.35,3.35,0,0,1-.47.55c-.55.37-1-1.16-1.27-3.92-.67-8.21-.95-16.88-1.16-25.58-.16-6.46-.25-13-.37-19.44Z"/><path class="cls-1" d="M288.86,252.29l-.09-24q-.07-4.38-.13-8.75l-.05-30.87c0-4.56-.13-9.15-.25-13.68-.06-2-.13-4-.19-6l-.08-3L288,162.5c1.29-1.16,1.73-1.55,2.48-2.2s1.41-1.2,2.12-1.79c1.25-1,1.65-.56,1.28.66a10.71,10.71,0,0,1-1.13,2.33c-.29.45-.62.93-1,1.42-.19.25-.38.5-.59.75-.08.08-.06.08-.06.09v0a.08.08,0,0,0,0,0l0,0h0V164c0,.36,0,.72,0,1.1.24,11.88.31,23.75.1,35.74-.12,7.17.13,14.62.19,22l.15,24.18c0,5,.07,9.93.11,14.88.07,7.51.11,15.06.27,22.52.13,5.79.43,11.47.65,17.2.05,1.23.1,2.44.16,3.68,0,.09,0,.17,0,.23l.63.65.83.88c.49.54.88,1,1.18,1.4a4.26,4.26,0,0,1,.91,2,4.65,4.65,0,0,1,.09.85c-.12.75-1.82-.27-4.38-2.6-.58-.54-.93-.84-2.11-2-.12-2.58-.25-5.2-.38-7.84q-.13-3.64-.28-7.37c-.15-4.95-.25-10-.33-15-.1-8.06-.19-16.15-.29-24.22Z"/><path class="cls-1" d="M271.87,211.41l-7.7,6c-.93.73-1.8,1.53-2.74,2.25l-10,7.59c-1.46,1.13-2.86,2.35-4.24,3.57a36.81,36.81,0,0,1-5.47,4.49c-1.28.77-2-3,.08-4.76a127.67,127.67,0,0,1,11.49-8.83c2.41-1.64,4.64-3.69,7-5.54l7.71-6,4.74-3.73c2.38-1.91,4.79-3.78,7.08-5.75,1.78-1.53,3.4-3.19,5.08-4.79.38-.36.72-.73,1.1-1.07,1.43-1.27,2.05-1.48,3-1a3.91,3.91,0,0,1,.61.32c.6.43.38,1.38-.56,2.44a89.83,89.83,0,0,1-9.47,8.82c-2.5,2.09-5.08,4.12-7.62,6.18Z"/><path class="cls-1" d="M239.15,239a10,10,0,0,0-.79-.89c-.05-.05-.18-.37-.23-.38a6.42,6.42,0,0,0-.23-.62,8.36,8.36,0,0,0-.59-1.47c-.11,0-.25-.71-.33-.81a7.37,7.37,0,0,1,.93-.82.7.7,0,0,1,.35.25,5.41,5.41,0,0,0,.65.74l.43.2.19.1.51.31a3.58,3.58,0,0,1,.52.25,7.34,7.34,0,0,1,.6.51c.11.1.26.17.36.28s0,.19.09.27a4.77,4.77,0,0,1-.9,1A6.5,6.5,0,0,1,239.15,239Z"/><path class="cls-1" d="M312.73,410.24,255,409.88c-7,0-14.06,0-21.08,0-24.76-.16-49.52-.39-74.28-.53-11-.07-22,0-32.93,0-14,.07-28.08.32-42.07-.05-8.73-.23,2.34-3.58,18.48-3.62,28.61-.06,57.19.09,86,.57,17.24.29,35.2.14,52.84.21q29.1.12,58.21.28,17.91.09,35.82.16c18.08.06,36.25.17,54.19.12,14,0,27.63-.28,41.42-.43,3,0,6-.1,9.07-.12,11.36-.06,15,.17,17.41,1.1a12.35,12.35,0,0,1,1.61.63c1.09.72-3.54,1.31-11.85,1.52-24.66.62-50.66.72-76.77.72-19.39,0-38.86-.08-58.3-.13C312.74,410.29,312.74,410.26,312.73,410.24Z"/><path class="cls-1" d="M349.65,317.89q-.88,11.75-1.76,23.48c-.2,2.86-.31,5.72-.53,8.57-.77,10.07-1.6,20.13-2.34,30.19-.34,4.47-.57,9-.78,13.4-.27,5.7-.36,11.44-1.07,17.11-.45,3.54-3.52-1.17-3.16-7.73.64-11.65,1.48-23.26,2.66-35,.71-7,1-14.31,1.5-21.48q.82-11.83,1.7-23.66c.35-4.86.71-9.71,1-14.56.5-7.36,1.05-14.74,1.44-22,.3-5.68.39-11.26.58-16.88,0-1.24,0-2.45.1-3.7.22-4.62.54-6.07,1.53-7a4.21,4.21,0,0,1,.67-.62c.74-.4,1.21,1.52,1.22,4.91,0,10.07-.52,20.65-1.15,31.27-.47,7.89-1,15.81-1.55,23.71Z"/><path class="cls-1" d="M383.51,314.08q1.47,11.82,2.95,23.64c.36,2.87.83,5.73,1.18,8.6,1.25,10.14,2.45,20.28,3.72,30.4.56,4.5,1.23,9,1.91,13.45.87,5.71,1.92,11.41,2.35,17.18.27,3.59-3.68-.46-4.63-7.05-1.7-11.67-3.18-23.36-4.36-35.2-.7-7.08-1.87-14.39-2.81-21.6q-1.54-11.89-3-23.8c-.63-4.89-1.25-9.77-1.89-14.65-1-7.39-1.91-14.82-3-22.14-.84-5.69-1.86-11.24-2.8-16.85-.2-1.24-.44-2.44-.63-3.69-.71-4.63-.68-6.14.1-7.26a4,4,0,0,1,.53-.74c.65-.55,1.5,1.26,2.18,4.62,2,10,3.6,20.59,5.1,31.25,1.11,7.91,2.14,15.87,3.2,23.82Z"/><path class="cls-1" d="M174.7,151.69c0,.37.28,1.8.43,3.22s.26,2.82.27,3.08,0,2.12,0,2.31-.27,2.83-.33,3.34a32.21,32.21,0,0,1-.8,3.74,26,26,0,0,1-1.5,4,8.43,8.43,0,0,1-1.18,1.88,13.86,13.86,0,0,1-1.59,1.63c-.16.16-.95-.76-.86-.89s.42-.53.63-.78.38-.56.59-.82a11,11,0,0,0,1.26-2.39,15.32,15.32,0,0,0,.6-2c.12-.71.19-1.44.24-2.16l.07-1c0-1,.06-1.9,0-2.85s-.16-1.77-.23-2.66c-.11-1.3-.2-2.6-.38-3.9-.1-.73-.25-1.46-.38-2.2-.07-.43,0-.88-.09-1.32s.5-.61,1.19-.89A2,2,0,0,1,174.7,151.69Z"/><path class="cls-1" d="M93.43,229.18h.17s0,0,.16,0c.52,0,1,0,1.55.08s1,.1,1.59.2c.88.14,1.73.34,2.57.53,0,.79.06,1.62.15,2.36,0,.45.1.81.16,1.22.13.8.28,1.61.45,2.42l.54,2.42a2.74,2.74,0,0,0,.24.7c.07-.24.13-.48.2-.68h0c.06-.16.15-.43.24-.7l.06-.21.16-.6.35-1.29,1.35-5.2q1.34-5.2,2.6-10.44c.74-3.09,1.41-6.23,2-9.33.82-4,1.5-8,2.63-11.91.71-2.44,2.56,1.24,1.59,5.83-1.73,8.13-3.63,16.21-5.88,24.29-.57,2-1.1,4.14-1.61,6.25-.27,1.09-.54,2.18-.82,3.28-.45,1.7-.85,3.42-1.35,5.11l-.62,1.05a4.07,4.07,0,0,1-.51.51l-.19.16-.09.09s-.11,0-.13,0a1.72,1.72,0,0,1-.41-.29,3.5,3.5,0,0,1-.43-.52,3.16,3.16,0,0,1-.47-.74,22.57,22.57,0,0,1-.84-2.49c-.26-.89-.51-1.81-.73-2.72l-.23-1-.2-.86c-.12-.58-.24-1.16-.35-1.74s-.2-1.18-.28-1.77l0-.45,0-.2,0-.37a2.3,2.3,0,0,0-.6-.15c-.45-.07-.93-.13-1.39-.17l-1.32-.06a19.59,19.59,0,0,0-2.1.1,3.17,3.17,0,0,1-.69,0,1.33,1.33,0,0,1-.51-.11,2,2,0,0,1-.35-.16l-.08,0,0,0h0l.15-.11h0l0,0,0-.18c-.28-.39.12-1.36.54-2.21l1-2.13.85-1.71c2.35-4.7,4.77-9.39,7-14.07,1.78-3.64,3.39-7.27,5.06-10.91l.54-1.2c.21-.47.43-.94.65-1.41l.08-.17.67-.61a5.72,5.72,0,0,1,.77-.44c.44,0,1,.05,1.24.08s.46.06.67.09a6.34,6.34,0,0,1,1,.25,2.22,2.22,0,0,1,1.16.79,1.8,1.8,0,0,1,.36.57c0,.29-.17.47-.77.59a14.86,14.86,0,0,1-2.69.18l-.19,0s-.12,0-.14.06a1,1,0,0,0,0,.17,2.13,2.13,0,0,1-.09.25l-.24.56-.5,1.14-1,2.28L103.88,208c-1.46,3.07-3,6.16-4.51,9.25l-3.77,7.56-1.87,3.78-.12.23,0,.11h0l0,0,0,0s-.06.09,0,.07Z"/><path class="cls-1" d="M187.74,172.36c.51,1.75-.64,3.84-2.76,2.84s-2.68-5.38-.42-6.64C186.17,167.66,187.3,170.88,187.74,172.36Z"/><path class="cls-1" d="M186.91,167.14a8.5,8.5,0,0,1,.44.92c.1.31.21.62.28.92s.18.42.22.64a9.65,9.65,0,0,1,0,2.34,7,7,0,0,0,0,1c0,.23,0,.47,0,.7a1,1,0,0,1-.33.64c-.13.12-.76-.17-1.37-.48s-1.2-.6-1.18-.71a6.69,6.69,0,0,1,.43-1.7c.17-.42-.05-.8-.13-1.19a5.91,5.91,0,0,0-.37-1.26,2.65,2.65,0,0,0-.38-.66,1.25,1.25,0,0,0-.79-.56.68.68,0,0,0-.32.11,3,3,0,0,0-.25.27s-.06.1-.1.14-.27,0-.71-.57l-.31-.39c-.34-.43-.47-.89-.26-1.19a2.27,2.27,0,0,1,1.43-.91,3.64,3.64,0,0,1,1,0,5.08,5.08,0,0,1,.94.28A4.61,4.61,0,0,1,187,167.1Z"/><path class="cls-1" d="M207.23,167.65c.51,1.75-.64,3.84-2.76,2.83s-2.66-5.4-.4-6.64C205.68,163,206.8,166.16,207.23,167.65Z"/><path class="cls-1" d="M206.46,162.21a8.75,8.75,0,0,1,.67,1.89c.05.23.17.43.21.65a11.33,11.33,0,0,1,0,2.4,7.5,7.5,0,0,0,0,1.06c0,.23,0,.48,0,.72a1,1,0,0,1-.33.67c-.13.13-.76-.17-1.37-.48s-1.2-.61-1.17-.72a7.69,7.69,0,0,1,.42-1.81,2.26,2.26,0,0,0-.14-1.26,6.74,6.74,0,0,0-.38-1.35,3.41,3.41,0,0,0-.37-.74c-.24-.29-.5-.63-.82-.66s-.45.17-.58.34a.48.48,0,0,0-.09.13c-.14.13-.27,0-.71-.58l-.31-.39c-.34-.43-.46-.89-.23-1.2a2.24,2.24,0,0,1,1.58-.87,3.25,3.25,0,0,1,2,.42,4.87,4.87,0,0,1,1.68,1.75Z"/><path class="cls-1" d="M193.1,167.36a43.11,43.11,0,0,1,6.19,6.89,17,17,0,0,1,2.81,4.25c.89,2.61-1.53,5.69-3.07,7.52-.53.64,1.83.35,2.24-.14,1.39-1.66,3.52-4.19,3.59-6.45,0-1.72-1.2-3.21-2.14-4.54a44.62,44.62,0,0,0-7.3-8.39c-.54-.45-2.75.5-2.32.86Z"/><path class="cls-1" d="M189.9,200.85c1.31-.52,1.62-.57,1.77-.43.51.43,1,.82,1.48,1.19a8.35,8.35,0,0,0,1.22.88,3.27,3.27,0,0,0,2.36.15,5,5,0,0,0,.7-.26,4.43,4.43,0,0,0,.6-.47s0-.09.11-.06a2.51,2.51,0,0,1,.74,1c0,.1.11.25.09.27-.18.14.06.94-.21,1.06s-.45.26-.69.41a3.38,3.38,0,0,1-.73.44,2,2,0,0,1-.68.14,4.53,4.53,0,0,1-.89-.12,6.85,6.85,0,0,1-1.47-.23,7.16,7.16,0,0,1-2.18-1.05,9.33,9.33,0,0,1-2.27-2.33A2.47,2.47,0,0,1,189.9,200.85Z"/><path class="cls-1" d="M179.76,154.36a19,19,0,0,1,2.49.65c.29.1.6.13.89.24a18.4,18.4,0,0,1,2.85,1.59,11.62,11.62,0,0,0,1.23.72c.26.16.55.28.81.45a1.83,1.83,0,0,1,.61.71c.16.37-2,1.95-2.35,1.65a20.74,20.74,0,0,1-2.38-1.91,5,5,0,0,0-1.78-.77,16.39,16.39,0,0,0-2.1-.62,12,12,0,0,0-1.34-.21,7.1,7.1,0,0,0-2.06,0,4.25,4.25,0,0,0-1.42.64c-.1.05-.18.13-.28.17-.35.18-.53.06-.9-.56l-.25-.43a1,1,0,0,1,.05-1.26,5.35,5.35,0,0,1,3.31-1.27,13.59,13.59,0,0,1,2.63.1Z"/><path class="cls-1" d="M201.56,154.15a8.2,8.2,0,0,0-1,.61c-.11.09-.17.22-.3.3a7.93,7.93,0,0,0-1.19,1,1.34,1.34,0,0,0-.28.59c-.06.27.05.55-.29.73a4,4,0,0,1-1.41-.34c-.62-.24-1.19-.62-1.13-.87a3.23,3.23,0,0,1,1.49-2c.44-.24.63-.67,1-1a10.84,10.84,0,0,1,1.17-.88l.74-.47c.37-.24.77-.44,1.11-.71a7.35,7.35,0,0,0,.71-.82,1.46,1.46,0,0,1,.16-.19c.25-.18.43-.06.77.57l.23.43a2,2,0,0,1,.28,1.16,2.31,2.31,0,0,1-1,1.25l-1,.65Z"/><path class="cls-1" d="M191.12,247.73c.43-.77,3.37,1.06,4.2,1.94s2.65,3.27,1.3,4.28C195.65,254.68,189,251.58,191.12,247.73Z"/><path class="cls-1" d="M195,252.38l.28.14c.06,0,.09,0,.08,0l0,0a.24.24,0,0,0,.11.08.21.21,0,0,0,.3,0c0-.08,0-.18,0-.26a.62.62,0,0,0,0-.13,2.05,2.05,0,0,0-.14-.34,7.2,7.2,0,0,0-.4-.78c-.15-.27-.32-.53-.49-.8a2.71,2.71,0,0,0-.51-.56,5.74,5.74,0,0,0-1.35-.86,6.4,6.4,0,0,0-.91-.34l-.36-.12c-.05,0-.1,0-.08,0s-.06-.28,0-.28a.32.32,0,0,0-.08-.2s0,0,0,0a.64.64,0,0,1-.4-.6.82.82,0,0,1,.24-.51,1.35,1.35,0,0,1,.45-.35,1.23,1.23,0,0,1,.94-.13,7.87,7.87,0,0,1,2.28,1.25,8.48,8.48,0,0,1,1,.87l.24.27.15.19a.87.87,0,0,1,.11.17l.27.52c.22.44.49.85.74,1.31a4.51,4.51,0,0,1,.66,1.92,2.08,2.08,0,0,1-1,1.91,2.77,2.77,0,0,1-2.18-.08,5.8,5.8,0,0,1-.55-.23c-.16-.07-.31-.15-.46-.23-.3-.17-.59-.34-.86-.53a8.83,8.83,0,0,1-2.23-2.13,4.58,4.58,0,0,1-1-2.42,3.3,3.3,0,0,1,0-.63c.15-.78.45-.92,1-.79.13,0,.26.06.38.11a1,1,0,0,1,.65.85,2.64,2.64,0,0,0,.34,1.15,4.6,4.6,0,0,0,.84,1.1,7.56,7.56,0,0,0,2,1.45Z"/><path class="cls-1" d="M205.23,272.17c-.49-1.06-4.14-4.56-5.53-2.49-.54.81.3,1.78.6,2.63.68,1.93,3.5,3.64,4.4,3.16C205.34,275.12,205.45,272.63,205.23,272.17Z"/><path class="cls-1" d="M200.34,274.77a5.9,5.9,0,0,1-1-1.55l-.17-.46-.08-.26c-.07-.18-.16-.4-.27-.65l-.13-.29c-.06-.14-.11-.28-.16-.43a2.11,2.11,0,0,1-.14-.89,2,2,0,0,1,.42-1.14,2.39,2.39,0,0,1,2.11-1,2.59,2.59,0,0,1,.6.1,2.63,2.63,0,0,1,.45.17,5.2,5.2,0,0,1,.78.41c.53.34,1,.68,1.49,1a3.77,3.77,0,0,1,1.55,1.79c.1.32-.46.44-1,.57s-1.09.28-1.31,0c-.42-.42-.88-.85-1.33-1.23a7.18,7.18,0,0,0-.67-.52c-.11-.1-.2-.13-.3-.21s-.07-.09-.14-.13a.28.28,0,0,0-.42.08.47.47,0,0,0-.05.35l0,.12s.07.18.11.28.19.44.3.72.14.44.22.63a2.92,2.92,0,0,0,.28.52,5.09,5.09,0,0,0,1.06,1.17l.49.37.46.27a.88.88,0,0,0,.74.1h0a.65.65,0,0,0,.17-.55,2.48,2.48,0,0,0,0-.27l0-.46c0-.13,0-.27,0-.4,0-.5.07-.55.61-.77a3.12,3.12,0,0,0,.35-.2.49.49,0,0,1,.61,0,1.05,1.05,0,0,1,.42.58,4.76,4.76,0,0,1,.2,1.72,2.84,2.84,0,0,1-1.16,2.32,3.57,3.57,0,0,1-.83.24,3.5,3.5,0,0,1-.91-.05l-.69-.21-.34-.15-.23-.11a8.36,8.36,0,0,1-.77-.48,8.7,8.7,0,0,1-1.32-1.18Z"/><path class="cls-1" d="M315.37,180.63c.07,0-.09,0,.85-.12s1.78-.19,2.67-.28c2.93-.27,5.87-.49,8.81-.7,8.6-.63,17.21-1.16,25.81-1.69q26.21-1.6,52.41-3c2.9-.16,4.79-3.5.78-3.28q-26.81,1.49-53.6,3.1c-8.63.53-17.26,1.07-25.88,1.71-4,.3-8.75.08-12.64,1.31-3.4,1.08-2.69,4.08.79,3Z"/><path class="cls-1" d="M318.09,195.6c26-2.67,52.1-2.65,78-5.95,2.86-.36,4.77-3.85.76-3.34-25.89,3.3-52,3.28-78,5.95-2.88.29-4.77,3.75-.75,3.34Z"/><path class="cls-1" d="M60.86,133.86c10.64-4.31,15.78-15.77,9.91-26.18-.6-1.06-4.18.27-3.76,1,4.92,8.74,2.25,20.08-7.52,24-2.46,1-.17,1.76,1.37,1.13Z"/><path class="cls-1" d="M76,131.19a26.53,26.53,0,0,0,9.47-13.44c.33-1.08-3.39-.58-3.74.55a24.54,24.54,0,0,1-8.69,12.49c-1.62,1.23,2.13,1,3,.4Z"/><path class="cls-1" d="M305.73,140.56c1.57-3.27,5.17-5.19,8.47-6.29.58-.19,1.68-.75,1.24-1.46s-2.35-.05-2.84.11c-4.31,1.43-9.14,4-11.18,8.31-.46,1,3.72.57,4.31-.67Z"/><path class="cls-1" d="M316.53,148.94c3.18-4.55,7.19-7.69,13-7.4,1.93.1,4.51-2.73,1.57-2.88-8.06-.41-14.14,3.47-18.65,9.94-1.27,1.83,3.14,1.74,4.11.34Z"/><path class="cls-1" d="M264.11,155.72l1.77-.92-2.24.17a1.21,1.21,0,0,1,.48,1.49c-.08.21-.07.19-.25.32-.51.35-.28.84.25.94a2.85,2.85,0,0,0,2.05-.55,2,2,0,0,0,.17-3.3,2.32,2.32,0,0,0-2.23.18l-1.77.92c-.39.2-.87.77-.28,1.05a2.61,2.61,0,0,0,2.05-.3Z"/><path class="cls-1" d="M291.52,250.16c0-7.46,0-14.91,0-22.36,0-2.72-.1-5.44-.09-8.15,0-9.59.13-19.17.14-28.75,0-4.25-.08-8.52-.2-12.74-.15-5.42-.47-10.85-.18-16.27.19-3.38,3.6.85,3.72,7.1.21,11.06.21,22.12-.11,33.29-.2,6.67.05,13.61.07,20.44,0,7.5,0,15,0,22.52,0,4.62,0,9.24,0,13.86,0,7,0,14,.17,21,.11,5.39.43,10.68.65,16,.05,1.18.14,2.33.17,3.51.12,4.39-.1,5.79-1,6.75a4.13,4.13,0,0,1-.62.63c-.71.43-1.33-1.35-1.58-4.56-.76-9.53-1-19.59-1.13-29.69-.11-7.5-.12-15-.18-22.55Z"/><path class="cls-1" d="M367,258.71c-2.08.2-4.16.39-6.24.61-.75.08-1.49.27-2.25.34-2.68.24-5.36.42-8,.68a30,30,0,0,0-3.51.61,13.47,13.47,0,0,1-4.5.68c-1-.12-.41-4.12,1.3-4.44a46.38,46.38,0,0,1,9.3-.85,44.23,44.23,0,0,0,5.68-.69c2.09-.24,4.18-.46,6.27-.69,1.29-.14,2.58-.27,3.86-.44,1.94-.24,3.9-.44,5.81-.81,1.48-.28,2.9-.8,4.34-1.21.32-.09.62-.22.95-.29,1.2-.27,1.63-.06,2.06.95a6.76,6.76,0,0,1,.29.69,1.57,1.57,0,0,1-1,1.94,32.13,32.13,0,0,1-8.07,2.15c-2.07.34-4.17.58-6.25.87Z"/></g></svg>