<svg id="Layer_1" data-name="Layer 1" xmlns="http://www.w3.org/2000/svg" width="520" height="520" viewBox="0 0 520 520"><defs><style>.cls-1{fill:#221f1f;}</style></defs><title>Notioly v2</title><g id="_88.404" data-name="88.404"><path class="cls-1" d="M119.05,300a1.26,1.26,0,0,1,.55-1,2.91,2.91,0,0,1,1.17-.52c.29-.06.94.28,1,.5.08.46.16.91.23,1.28,0,.13.07,1.11.17,2.09a4.78,4.78,0,0,0,.08.74c0,.24.06.48.12.71.15.44.22.83.34,1.08a26.7,26.7,0,0,0,1.33,2.89,14.45,14.45,0,0,0,2,2.68,18.59,18.59,0,0,0,2.68,2.22,13.6,13.6,0,0,1,1.26.93,10.5,10.5,0,0,0,5,2.1,2,2,0,0,0,.9,0,3.56,3.56,0,0,1,1,0c.26,0,.54,0,.85,0a7.39,7.39,0,0,0,.94,0,19.36,19.36,0,0,0,2.81-.43,9.92,9.92,0,0,0,4.18-1.58c.19-.12.32-.31.6-.32.61-.05.89-.49,1.26-.83l.7-.8c.24-.26.49-.52.71-.8a3.82,3.82,0,0,1,1-.69c.33-.19.72.21.72.35,0,.39.37.27.59.35a.7.7,0,0,1,.23.11,2.07,2.07,0,0,1-.15.8,9.09,9.09,0,0,1-.59,1.66,11.93,11.93,0,0,1-1.52,2.63l-.91.88a8.62,8.62,0,0,1-1,.82,12.74,12.74,0,0,1-1.2.86c-.44.25-.87.54-1.32.76l-1.26.58c-.79.31-1.41.49-1.62.58a5.11,5.11,0,0,1-1.36.14c-.05,0-.46.11-1.06.17l-1,.13-1.15.05c-.79.05-1.56-.05-2.16-.06s-1-.13-1.07-.14a8.68,8.68,0,0,1-3.47-1.22,3.27,3.27,0,0,0-.66-.3,18.27,18.27,0,0,1-5.29-3.22c-.39-.36-.8-.7-1.21-1l-1.16-1.1a3.14,3.14,0,0,1-.33-.48,5,5,0,0,0-.43-.6,18.18,18.18,0,0,1-3.54-6.85,8.82,8.82,0,0,1-.14-2.1c.07-.9.16-1.79.21-2.14a2.4,2.4,0,0,1,.45-1A2.6,2.6,0,0,0,119.05,300Z"/><path class="cls-1" d="M365.54,416.47c-.15.54-.76.75-1.44.81-.22,0-.65-.27-.66-.45,0-.35-.05-.69-.05-1s.69-3.13,1-4.11a18.18,18.18,0,0,1,1.06-2.77,58.94,58.94,0,0,1,2.79-5.56,6.21,6.21,0,0,1,.95-1.19c.33-.35.74-.73,1.15-1.12l2.62-2.5,1.33,3.13a8.31,8.31,0,0,1,.4,4.87,3.9,3.9,0,0,0-.14,1,4.52,4.52,0,0,1-.27,1.1,14.66,14.66,0,0,1-.82,1.72,12.71,12.71,0,0,1-1.67,2.37c-1.09,1-2.13,1.91-3.22,2.75-.16.12-.26.31-.51.31-.59,0-.82.35-1.13.62a10.33,10.33,0,0,1-1.35,1,2.82,2.82,0,0,1-.95.23c-.3.05-.64-.42-.64-.53,0-.32-.32-.36-.52-.5a.85.85,0,0,1-.2-.17,1.88,1.88,0,0,1,.13-.62c.13-.33.31-.74.5-1.17a15.28,15.28,0,0,1,.91-1.79l1.51-1.91a22.49,22.49,0,0,0,1.51-2.18,2,2,0,0,1,.54-.54,3,3,0,0,0,.29-.5,8.84,8.84,0,0,0,.48-1,5.88,5.88,0,0,0,.42-1.39c.22-.5,0-.77.36-1.12.07-.08,0-.12,0-.17a.66.66,0,0,1-.06-.2l4,.64A23.58,23.58,0,0,0,372,406.8a18.93,18.93,0,0,0-1,1.69,3.33,3.33,0,0,1-.25.28,2.06,2.06,0,0,0-.29.37c-.76,1.41-1.68,2.76-2.31,4.27-.12.36-1.39,1.75-1.58,2.15C366.46,415.79,365.6,416.25,365.54,416.47Z"/><path class="cls-1" d="M195.09,467.48c-.29-.3,0-.9.62-1.28a2.6,2.6,0,0,1,.93-.08l.67.14s.44.24.84.51a3.39,3.39,0,0,0,.57.34.58.58,0,0,0,.17-.05c.13-.1.13-.14.15-.13s0-.07,0-.07a.35.35,0,0,0,.13.07.31.31,0,0,0,.2,0l.06,0,.07-.24c.05-.18.05-.13.05-.18s0,0-.07-.13a.2.2,0,0,0-.2-.17c-.08,0-.16-.09-.24-.2s-.21-.18-.14-.23a4,4,0,0,0,1.43-1.62v0h0c.07-.3-.63,2.61-.33,1.38v0l0-.06,0-.12a2.24,2.24,0,0,0,0-.24c0-.15,0-.13,0-.18,0-.31-.07,0,.41.4a1.71,1.71,0,0,0,.2.18l.09.07,0,0h-.1a.79.79,0,0,0-.27.16c-.06,0,0,.12-.22.14-.48,0-.46.24-.53.42a5.08,5.08,0,0,1-.37.8,2.68,2.68,0,0,1-.54.41,1.54,1.54,0,0,1-.92,0c-.21-.15-.52,0-.8,0a1.43,1.43,0,0,1-.29,0,3.51,3.51,0,0,1-.65-1.3,4.28,4.28,0,0,1-.26-1.65s.06-.28.19-.7a5.36,5.36,0,0,1,.86-1.7,4.37,4.37,0,0,1,2.39-1.59,5.73,5.73,0,0,1,1.73-.1,2.38,2.38,0,0,1,.88.29,4.1,4.1,0,0,1,.71.53,8.84,8.84,0,0,1,.78.67,7.75,7.75,0,0,1,.95,1.19,8,8,0,0,1,.88,1.76l.13.66a4.3,4.3,0,0,1,.09.72,2,2,0,0,1-.35,1.31.56.56,0,0,0-.11.37c0,.31-.15.76-.23,1.13a7.8,7.8,0,0,1-.42,1.08,6,6,0,0,1-1.26,1.72,4.55,4.55,0,0,1-1.73,1.16.84.84,0,0,1-.39,0,3.89,3.89,0,0,0-.48,0,3.74,3.74,0,0,1-2.32-.51,8.71,8.71,0,0,1-1.09-.7c-.34-.31-.65-.67-1-1a14.51,14.51,0,0,1-.68-1.32,4.3,4.3,0,0,0-.33-1C194.9,468.41,195.22,467.58,195.09,467.48Z"/><path class="cls-1" d="M258.39,487.62c.1.43-.52.8-1.32.77a3.16,3.16,0,0,1-.92-.48c-.18-.15-.38-.34-.55-.5a9,9,0,0,1-.5-.91,1.27,1.27,0,0,0-.14-.24.49.49,0,0,0-.11-.07.3.3,0,0,0-.18,0c-.18,0-.21.07-.21.05s-.06,0-.05.07a.52.52,0,0,0-.07-.16c-.1-.16-.21-.19-.28-.17l-.05,0h0l-.84-.54h0l0,0,.09.06.35.21.36.19c.08,0,0,0,0,0v0l0,.14c0,.06-.06.14.09.26a.39.39,0,0,1,.11.29l0,.17a.35.35,0,0,0,0,.06H254a4.17,4.17,0,0,0-2.17.63l0,0h0c-.23.22,2-1.95,1.06-1h0l0,0-.1.1a1.25,1.25,0,0,0-.15.19.84.84,0,0,1-.11.15c-.14.3.05.07-.13-.57a2.53,2.53,0,0,0-.17-.51l.08.07a.71.71,0,0,0,.31,0c.07,0,.08-.09.27,0,.45.28.55.07.71-.05a4.86,4.86,0,0,1,.79-.48,3.17,3.17,0,0,1,.73,0,1.82,1.82,0,0,1,.88.51c.11.27.48.34.75.48l.28.16a3.81,3.81,0,0,1-.13,1.56,4.44,4.44,0,0,1-.69,1.64,6.27,6.27,0,0,1-.57.53,5.56,5.56,0,0,1-1.76,1.05,4.75,4.75,0,0,1-3.12.06,5.59,5.59,0,0,1-1.12-.54l-.52-.37a2.49,2.49,0,0,1-.64-.78A4.55,4.55,0,0,1,248,489a7.77,7.77,0,0,1-.51-2.7,8.36,8.36,0,0,1,.22-2.1,9.11,9.11,0,0,1,.55-1.31,2.4,2.4,0,0,1,1.18-1.08,1.24,1.24,0,0,0,.42-.4,6.49,6.49,0,0,1,3.93-2.29,5.36,5.36,0,0,1,2.15,0,1,1,0,0,1,.36.21,4.81,4.81,0,0,0,.41.27,4,4,0,0,1,1.76,1.68,8.79,8.79,0,0,1,.59,1.19c.09.21.15.44.24.65s.07.49.12.73a4,4,0,0,1,0,.62,7.82,7.82,0,0,1-.15,1c-.05.68-.27,1.19-.25,1.33S258.33,487.45,258.39,487.62Z"/><path class="cls-1" d="M333.31,277.66c-13.52,15.06-26.47,8.13-39.14,1.22-8.95-4.88-14.45,1.44-26.08-.39-11.26-1.78-15.53-7.45-17.7-13.3,20.44-7.23,26.38-33.45,29-35,12.42,3,17.15-12.94,14.16-16.88-3.76-4.93-7.74-2.63-10.48-1.69-.95.32-3.58-34.89-27.68-34.86-7.54,0-15.71,4.86-20.64,9-36.08-20.93,11.18-72.14,48.12-28.31,5.36-7.8,69.39-5.38,49.31,63.47C329.06,231.74,355.64,252.79,333.31,277.66Z"/><path class="cls-1" d="M250.87,141.75a29.16,29.16,0,0,0-17.58,6,28,28,0,0,0-6.41,6.85,22.19,22.19,0,0,0-3.36,8.65,18.38,18.38,0,0,0,.85,9.1l.39,1.09a7.64,7.64,0,0,0,.52,1l.55,1,.27.51.34.48,1.38,1.89,1.61,1.71a16.45,16.45,0,0,0,1.77,1.56,15.43,15.43,0,0,0,1.88,1.45l1.54,1c.07.1.16,0,.24-.07l.74-.57a46.06,46.06,0,0,1,8.74-5.25,30.93,30.93,0,0,1,7.16-2.33,21.06,21.06,0,0,1,3.82-.39,24.41,24.41,0,0,1,3.81.27,21.28,21.28,0,0,1,7.24,2.46,23.77,23.77,0,0,1,5.94,4.74,41.22,41.22,0,0,1,8,13.95,76.8,76.8,0,0,1,2.27,7.64c.31,1.29.6,2.58.87,3.86l.29,1.38c0,.1.05.2.09.3s.19,0,.28-.06l.48-.17c.36-.13.74-.25,1.12-.36a9.51,9.51,0,0,1,2.47-.38,7.13,7.13,0,0,1,4.77,1.83c.29.29.6.57.87.88s.51.57.78,1a6,6,0,0,1,.88,2.55,13.28,13.28,0,0,1-.37,4.77,16.71,16.71,0,0,1-4.57,8.12,11.6,11.6,0,0,1-8.8,3.26c-.4,0-.79-.08-1.18-.12s-.42-.08-.64-.12-.24.16-.34.26l-.05.09a1.59,1.59,0,0,0-.13.22l-.25.45c-.64,1.26-1.24,2.61-1.85,3.95-1.21,2.7-2.48,5.39-3.9,8a55.7,55.7,0,0,1-10.7,14.35,35.2,35.2,0,0,1-9.61,6.44c-.52.25-.69.3-1,.41l-.38.15-.2.07s0,.11,0,.16c.09.21.17.42.27.63q.27.63.6,1.23a16.85,16.85,0,0,0,3.19,4.33,20.3,20.3,0,0,0,9.52,5,31.2,31.2,0,0,0,5.4.89,29.2,29.2,0,0,0,5.45-.17c2.33-.28,4.65-.84,7.07-1.26a18.13,18.13,0,0,1,7.55,0,16.14,16.14,0,0,1,3.59,1.34c1.12.55,2.13,1.14,3.21,1.7,2.12,1.12,4.25,2.19,6.42,3.15,4.33,1.86,8.93,3.28,13.52,2.89l.86-.05.84-.16c.56-.12,1.13-.19,1.68-.34A19.9,19.9,0,0,0,324,283.8c.51-.26,1.05-.47,1.54-.77l1.47-.93.73-.47.69-.55,1.36-1.1c2.15-2,3.13-2.82,3.26-2.58s-.64,1.5-2.31,3.48a23,23,0,0,1-3.45,3.17c-.37.27-.73.59-1.15.84l-1.31.76a17,17,0,0,1-3,1.37c-4.37,1.68-10.24,1.4-15.63-.59a59.84,59.84,0,0,1-6.94-3c-1.13-.55-2.21-1.14-3.32-1.72l-1.62-.88-.82-.44-.75-.37a12.94,12.94,0,0,0-6.35-1.34,54.78,54.78,0,0,0-7,1.11,36.08,36.08,0,0,1-7.67.68,32.79,32.79,0,0,1-7.66-1.18,24.31,24.31,0,0,1-7.19-3.19,19.93,19.93,0,0,1-3.1-2.55,20.9,20.9,0,0,1-2.49-3.15c-.34-.57-.7-1.13-1-1.73a22.63,22.63,0,0,1-1-2.27l-.66-1.66a1.43,1.43,0,0,1-.13-.4l.38-.15.75-.3,1.51-.6.38-.15.32-.13.39-.18a31.1,31.1,0,0,0,6.06-3.57,43.18,43.18,0,0,0,9.68-10.43,86.61,86.61,0,0,0,7-12.79l1.56-3.39c.27-.57.54-1.14.87-1.73.09-.15.16-.29.26-.45a6.68,6.68,0,0,1,.46-.67l.57-.56.31-.25s.09-.12.15-.1l.18,0,1.44.19.89.11a10,10,0,0,0,1.64,0,9.3,9.3,0,0,0,3.15-.79c4-1.83,6.6-6.53,7-11.08a6.28,6.28,0,0,0-.42-3.08l-.16-.26-.26-.32a6.8,6.8,0,0,0-.56-.63,6.59,6.59,0,0,0-1.25-1,4.56,4.56,0,0,0-2.95-.64,7.73,7.73,0,0,0-1.64.34c-.28.08-.57.19-.85.29l-1.46.53a3.17,3.17,0,0,1-.48.1l-.41,0h-.21c0,.08,0-.1,0-.08h-.09l-.1,0c-.14,0-.21-.16-.3-.28a5.58,5.58,0,0,1-.67-2l-.58-2.66c-.38-1.71-.79-3.4-1.27-5.08a58.65,58.65,0,0,0-3.64-9.76,33.37,33.37,0,0,0-5.73-8.49,19.9,19.9,0,0,0-17.74-6.16,30.36,30.36,0,0,0-9.08,3.15,45.46,45.46,0,0,0-4.2,2.49c-.68.45-1.34.93-2,1.41l-1,.81-.77.63-.39.31-.19.16a2.53,2.53,0,0,1-.22-.13L232,185.16c-.35-.25-.72-.46-1.06-.72l-1-.83c-.65-.57-1.36-1.06-1.95-1.69L226.18,180a22.41,22.41,0,0,1-4.7-9.25,21.36,21.36,0,0,1,.24-10.36,25.38,25.38,0,0,1,4.68-9.18,31.2,31.2,0,0,1,7.61-6.89,31.88,31.88,0,0,1,11.74-4.52,33.17,33.17,0,0,1,12.56.34,40.87,40.87,0,0,1,11.58,4.8l2.63,1.7c.85.6,1.64,1.28,2.47,1.91l1.23,1c.41.32.77.7,1.15,1l2.28,2.13c.71.67,1.32,1.43,2,2.14l.87,1,.25.28.12.14c.05,0,.09.12.13,0a1.67,1.67,0,0,1,.43-.4,7.42,7.42,0,0,1,.91-.53,13.59,13.59,0,0,1,2.14-.81,25.36,25.36,0,0,1,4.37-.78,42,42,0,0,1,8.76.17,47.4,47.4,0,0,1,16.6,5.18,38.26,38.26,0,0,1,13.08,11.4,40.2,40.2,0,0,1,6.62,16c1.79,9.61.77,19.36-1.31,28.64-.29,1.16-.54,2.32-.85,3.47l-.47,1.73-.23.86-.15.75a13.76,13.76,0,0,0,1.27,6.44c1.72,4.29,4,8.47,5.82,12.93a43.85,43.85,0,0,1,3.29,12.3,28.66,28.66,0,0,1-.85,10.15,26.82,26.82,0,0,1-2.64,6.39,21.6,21.6,0,0,1-4.67,5.89c-.6.49-1.36,1.17-1.76,1.41-.67.4,0-.66,1.57-2.94a35.87,35.87,0,0,0,5.34-11.33,27.66,27.66,0,0,0,.23-12.15,53,53,0,0,0-4.08-11.92c-.89-2-1.84-3.89-2.78-5.89a46.88,46.88,0,0,1-2.53-6.27,15.76,15.76,0,0,1-.66-3.58,6.3,6.3,0,0,1,0-1,4.75,4.75,0,0,1,.1-1c.06-.33.13-.69.2-1l.21-.79c.59-2.09,1.12-4.2,1.57-6.32,1.83-8.47,2.66-17.31,1.16-25.83a39.21,39.21,0,0,0-4.16-12.13,34.33,34.33,0,0,0-8.1-9.85,41.64,41.64,0,0,0-18.27-8.56A43,43,0,0,0,293,156a27,27,0,0,0-5,.59,14.46,14.46,0,0,0-2.25.7l-.5.24-.22.12-.11.07a.56.56,0,0,0-.15.11l-.44.4-.22.2-.25.3-1,1.14-4.28-4.72c-1.05-1.11-2.21-2.1-3.31-3.16a20.33,20.33,0,0,0-1.76-1.46l-1.79-1.41c-1.22-.91-2.53-1.67-3.79-2.52a34.42,34.42,0,0,0-17.13-4.82Z"/><path class="cls-1" d="M234.66,261.53c-7.06,5.94-17.76,12-24.88,1.63-7-10.15,7-16.54,14.14-25.71C226,247,229,257.11,234.66,261.53Z"/><path class="cls-1" d="M219.93,243.89c-1.67,1.53-3.37,3-5,4.49a28.43,28.43,0,0,0-4.27,4.77,9.09,9.09,0,0,0-1.54,4,7.46,7.46,0,0,0,.57,3.61c.12.3.28.59.42.88l.5.85,1.2,1.63a9.92,9.92,0,0,0,6.71,3.75,13.35,13.35,0,0,0,7-1.42,56.75,56.75,0,0,0,8-5.1c.82-.57,1.13,0,.84,1a7,7,0,0,1-2.81,3.61,30.81,30.81,0,0,1-4.55,2.6,18.91,18.91,0,0,1-5.16,1.6,12.16,12.16,0,0,1-5.58-.31,10.29,10.29,0,0,1-1.35-.48l-1.26-.65a9.48,9.48,0,0,1-1.15-.81,7,7,0,0,1-1-.9l-1.15-1.19c-.34-.42-.65-.86-1-1.29a13.52,13.52,0,0,1-1.72-2.84,9.62,9.62,0,0,1-.85-3.37,9.12,9.12,0,0,1,.46-3.45,17.11,17.11,0,0,1,3.93-6c1.58-1.7,3.29-3.21,5-4.72,1-.93,2.06-1.85,3.06-2.79a42.15,42.15,0,0,0,3.3-3.42l1.81-2.19a107,107,0,0,0,3,11.8,36.83,36.83,0,0,0,4,8.49c.35.59.78,1.09,1.17,1.64s.72.88,1,1.24a7.17,7.17,0,0,1,.65.84,2.23,2.23,0,0,1,.45,1.27,3.8,3.8,0,0,1,0,.58c-.06.28-.35.32-.85.13a4.32,4.32,0,0,1-.89-.47,13.23,13.23,0,0,1-1.06-.88,25.7,25.7,0,0,1-5-7.7,57.92,57.92,0,0,1-3-8.75c-.14-.52-.27-1-.39-1.54l-.27-1.09,0-.18a1.13,1.13,0,0,0,0-.12v0a0,0,0,0,0,0,0l-.06,0-.32.33c-.87.9-1.77,1.76-2.67,2.59Z"/><path class="cls-1" d="M227,209.18a98.28,98.28,0,0,0-1.27,19.46,71.85,71.85,0,0,0,3,19.15,30,30,0,0,0,6.7,12A13.13,13.13,0,0,0,246,263.87,20.93,20.93,0,0,0,257,259.44a44.52,44.52,0,0,0,8.68-8.87A94.34,94.34,0,0,0,272.6,240c.93-1.62,1.83-3.27,2.73-4.93l1.37-2.49c.24-.42.47-.84.73-1.25.14-.21.25-.42.41-.63a4.35,4.35,0,0,1,.6-.75,2,2,0,0,1,.79-.63l.94.14.47.07.34,0,.66.07a10.1,10.1,0,0,0,2.58-.16,9.17,9.17,0,0,0,4.49-2.35,15.48,15.48,0,0,0,4.35-12.28,2.78,2.78,0,0,0-.5-1.28,1.84,1.84,0,0,0-.44-.52,2.15,2.15,0,0,0-.53-.41,5,5,0,0,0-2.9-.54,12.36,12.36,0,0,0-6.12,2.36c-1.07.83-1.39,1.23-1.62,1.07s-.1-1,.75-2a10.73,10.73,0,0,1,4.59-3.23,9.51,9.51,0,0,1,4-.64,5.86,5.86,0,0,1,1.2.19,4.58,4.58,0,0,1,1.22.47c.21.11.41.21.61.34l.55.45a5.11,5.11,0,0,1,.93,1.09,4.21,4.21,0,0,1,.59,1.18,7.75,7.75,0,0,1,.29,1.15,12.22,12.22,0,0,1,.13,2.15,18.75,18.75,0,0,1-4.23,11.16,12,12,0,0,1-7.2,4.18,7.48,7.48,0,0,1-1.06.12,7.37,7.37,0,0,1-1.05,0,9.23,9.23,0,0,1-1,0l-.93-.11-.26-.06c-.08,0,0,0-.06,0h0l-.06.09a3.15,3.15,0,0,0-.22.33c-.15.24-.31.47-.46.73-4.7,8.41-9.43,17.51-16.73,24.64a35.55,35.55,0,0,1-7.35,5.61,21.66,21.66,0,0,1-9,2.82,15.19,15.19,0,0,1-9.38-2.31,21.43,21.43,0,0,1-6.49-7c-3.55-6-5.18-12.66-6.12-19.31a84.86,84.86,0,0,1-.79-10.06,96.56,96.56,0,0,1,.28-10.06,87.27,87.27,0,0,1,5.13-24.19c.55-1.47,1.2-2.9,1.88-4.33a19.69,19.69,0,0,1,1.19-2.09c.22-.34.43-.68.67-1l.75-1a20.65,20.65,0,0,1,7.64-5.75,35,35,0,0,1,9.11-2.52c1.55-.24,3.11-.41,4.66-.52.76-.08,1.58-.08,2.38-.1a19.31,19.31,0,0,1,2.4.24,18.36,18.36,0,0,1,6.9,2.61,26.33,26.33,0,0,1,5.6,4.69,39.24,39.24,0,0,1,7.36,12.41A45,45,0,0,1,281.1,202a32,32,0,0,1,.8,8.42,9.25,9.25,0,0,1-.82,3.71,7.32,7.32,0,0,1-.56,1c-.67.65-.28-2.48-.9-8a44.32,44.32,0,0,0-3.24-12,36,36,0,0,0-6.7-10.55,19.12,19.12,0,0,0-10.4-6.08,12.55,12.55,0,0,0-1.5-.19,10.74,10.74,0,0,0-1.5,0l-.76,0-.82.06c-.54.05-1.09.08-1.63.15a46.4,46.4,0,0,0-6.38,1.06,28.21,28.21,0,0,0-4.47,1.48,18.71,18.71,0,0,0-4,2.27,18.93,18.93,0,0,0-1.76,1.46,17.56,17.56,0,0,0-1.52,1.7,19.08,19.08,0,0,0-2.43,3.92,59.56,59.56,0,0,0-3.37,9.12,79.82,79.82,0,0,0-2.12,9.58Z"/><path class="cls-1" d="M189.78,292.78c3.59-1.14,7.17-2.36,10.77-3.58,1.31-.45,2.6-1,3.92-1.39a128.39,128.39,0,0,1,14.21-3.89,46.39,46.39,0,0,1,6.57-.93l1.07-.06,1.09,0a12.79,12.79,0,0,1,2.2.25,7.91,7.91,0,0,1,4,2c.71.68.11,1-.82,1-.46,0-1-.05-1.56-.06-.29,0-.55-.1-.87-.12a4.36,4.36,0,0,1-.94-.19,21.48,21.48,0,0,0-7.72,0c-2.69.37-5.41,1-8.14,1.59-3.28.77-6.58,2-9.86,3.13l-10.84,3.69c-2.24.74-4.48,1.47-6.74,2.15-3.42,1.05-6.9,2-10.4,2.72a49.07,49.07,0,0,1-8.23,1.23c-.62,0-1.23,0-1.86,0-2.36-.2-3.08-.65-3.38-1.37a1.72,1.72,0,0,1-.18-.49c-.05-.55.9-.66,2.42-.55,4.56.25,9.47-.77,14.35-2,3.62-.93,7.26-2.05,10.86-3.25Z"/><path class="cls-1" d="M215.54,215a56.71,56.71,0,0,1-3.34,5.16c-.45.61-.86,1.25-1.35,1.83a20.18,20.18,0,0,1-6.28,5.08,14.48,14.48,0,0,1-3.44,1.26,7.94,7.94,0,0,1-4.68-.1c-.46-.17-.22-.76.27-1.28a3.32,3.32,0,0,1,.86-.67,1.83,1.83,0,0,1,1-.28,12.47,12.47,0,0,0,7.28-2.38,16.38,16.38,0,0,0,3.61-3.72,45,45,0,0,0,3.3-4.89c.63-1,1.23-2.12,1.82-3.21a19.3,19.3,0,0,1,1.53-2.55,8.14,8.14,0,0,1,2.52-1.78c1.35-.68,2.65-1.29,3.8-2,.24-.15.47-.32.69-.48.83-.58,1-.67,1.7-.44.15.06.31.09.45.16a.56.56,0,0,1,.33.62,1.9,1.9,0,0,1-.58,1.08,12.48,12.48,0,0,1-3.59,2.32,15.91,15.91,0,0,0-3.12,1.68c-.14.11-.25.24-.35.33s-.15.21-.26.38c-.22.36-.46.8-.7,1.23L215.59,215Z"/><path class="cls-1" d="M222.47,201.23a15.59,15.59,0,0,0-1.74.4c-.21.06-.39.19-.6.25a19,19,0,0,0-2.21.72,3.44,3.44,0,0,0-.85.55c-.32.29-.53.67-1,.74-.14,0-.58-.43-.9-.95s-.5-1.15-.26-1.36a5.68,5.68,0,0,1,2.8-1.3,10.1,10.1,0,0,0,1.68-.66c.62-.21,1.25-.38,1.89-.54l1.18-.27c.6-.13,1.22-.21,1.83-.35a10.27,10.27,0,0,1,1.56-.37,1.69,1.69,0,0,1,.45,0,.86.86,0,0,1,.64.41.71.71,0,0,1-.17.7,3,3,0,0,1-.3.32,3.06,3.06,0,0,1-.29.21l-.12.09,0,0a1.27,1.27,0,0,0-.22.37c-.07.21-.14.2-.25.28a2.08,2.08,0,0,1-.4.15c-.3.09-.65.17-1,.25-.53.12-1.1.23-1.67.38Z"/><path class="cls-1" d="M174.51,228.15c5.91-9.47,11.32-19.23,17-28.94,1.06-1.77,2.1-3.54,3.26-5.28a26.86,26.86,0,0,1,1.94-2.59,18.73,18.73,0,0,1,2.51-2.14,58.76,58.76,0,0,1,9.4-5.74,23.69,23.69,0,0,1,2.63-1.07,11.61,11.61,0,0,1,1.44-.39,6.26,6.26,0,0,1,1.62-.11,16.72,16.72,0,0,1,5.52,1.68,31.38,31.38,0,0,1,4.83,2.79,21.41,21.41,0,0,1,2.21,1.77,11.73,11.73,0,0,1,1,1.09,5,5,0,0,1,.54.8,3.44,3.44,0,0,1,.36.95,1.87,1.87,0,0,1-.54,1.81,3.21,3.21,0,0,1-1.83.79,3.92,3.92,0,0,1-.92,0,6,6,0,0,1-.76-.11,10.19,10.19,0,0,1-1.42-.41,18.29,18.29,0,0,1-2.58-1.17c-.4-.21-.85-.49-1.19-.68a4.73,4.73,0,0,0-1.06-.46c-2.26-.71-4.86.37-7,1.85a22.86,22.86,0,0,0-3,2.56c-.48.46-.93,1-1.36,1.45q-.33.38-.63.75a6.75,6.75,0,0,0-.46.65,8.58,8.58,0,0,0-.15,1.08l-.17,1.34a36.25,36.25,0,0,1-3.58,12,18.19,18.19,0,0,1-9.14,8.66c-1.24.49-1.85.46-1.88.24s.48-.72,1.31-1.41a32.25,32.25,0,0,0,3.17-2.87,29,29,0,0,0,3.53-4.67,27.75,27.75,0,0,0,3-7.1q.53-1.89.87-3.84c.11-.65.21-1.3.3-2l.13-1,.07-.53c0-.07.05-.29.09-.44a3.94,3.94,0,0,1,.14-.49,7.44,7.44,0,0,1,.84-1.21c.24-.3.48-.58.72-.86.5-.55,1-1.09,1.54-1.6a24.3,24.3,0,0,1,3.45-2.83,14.45,14.45,0,0,1,4.22-2,8.27,8.27,0,0,1,5.06.1,8,8,0,0,1,1.18.56l.89.52a17.74,17.74,0,0,0,1.74.88,10.48,10.48,0,0,0,1.73.6,6.47,6.47,0,0,0,.79.13h.22c.11,0,.23-.12.18-.24a.34.34,0,0,0-.07-.16,4.63,4.63,0,0,0-.55-.67,18.8,18.8,0,0,0-3-2.47,26,26,0,0,0-6.48-3.19,10.41,10.41,0,0,0-1.67-.36,3.79,3.79,0,0,0-1.53.1,17.53,17.53,0,0,0-3.35,1.28,53.69,53.69,0,0,0-6.52,3.83c-1,.71-2.07,1.45-3.06,2.22l-.74.59c-.25.2-.4.38-.6.57a6.35,6.35,0,0,0-.58.66c-.18.23-.38.45-.56.71-1.59,2.2-3,4.63-4.45,7l-4.21,7.32c-2.79,4.9-5.6,9.8-8.5,14.65q-5.33,9-11.09,17.67c-5.82,8.78-12.1,17.32-18.71,25.42-5.14,6.3-10.35,12.35-16,18.08L130.74,288c-4.85,4.53-6.63,5.71-8.11,6.16a5.77,5.77,0,0,1-1,.27c-.81,0,1-2,4.5-5.29A268.66,268.66,0,0,0,155.52,256c6.76-8.94,13-18.3,18.93-27.9Z"/><path class="cls-1" d="M219,176.63a41.42,41.42,0,0,1,7.78,3.52,28.71,28.71,0,0,1,2.68,1.64,14.3,14.3,0,0,1,2.17,1.92,5.55,5.55,0,0,1,.94,1.38,2.85,2.85,0,0,1,.28,1,3.44,3.44,0,0,1-.1,1.06,2.18,2.18,0,0,1-1.27,1.54,3.57,3.57,0,0,1-1.95.14,13.07,13.07,0,0,1-2.71-.93l-4.32-2c-.9-.4-1.82-.76-2.72-1.08a13.39,13.39,0,0,0-1.28-.41,4.29,4.29,0,0,0-.9-.15.76.76,0,0,1-.45-.23.89.89,0,0,1-.13-.94,2,2,0,0,1,1.41-1,3.51,3.51,0,0,1,1.9.09,49,49,0,0,1,5.72,2.63c.89.45,1.77.89,2.63,1.25a9.88,9.88,0,0,0,1.22.42c.29.07.31.11.47.08s.45-.48-.4-1.39a15.24,15.24,0,0,0-2.77-2.13,40.65,40.65,0,0,0-7.21-3.65,22.92,22.92,0,0,0-2.34-.78,5,5,0,0,0-2.17-.27,9.63,9.63,0,0,0-3.15,1.56,30.31,30.31,0,0,0-3,2.36,58,58,0,0,0-4.07,4.23c-.29.32-.56.65-.86,1-1.11,1.17-1.61,1.43-2.3,1.21a2.16,2.16,0,0,1-.47-.16c-.45-.25-.27-1,.46-1.92a46.24,46.24,0,0,1,7.86-7.91,16.66,16.66,0,0,1,4-2.39,6,6,0,0,1,1.37-.37,5.2,5.2,0,0,1,1.44,0,16.09,16.09,0,0,1,2.27.53Z"/><path class="cls-1" d="M150.06,307.66c3.87-5.72,7.27-11.88,10.62-18l3.56-6.79c4.25-8,8.46-16,12.87-23.86,2-3.51,3.92-7,6-10.48,2.65-4.38,5.27-8.92,9.21-12.5,1.27-1.09,1.47-.43.92.92a21.36,21.36,0,0,1-1.25,2.53,30.75,30.75,0,0,1-2.07,3.29c-3,4.14-5.6,8.62-8.22,13.1s-5.14,9.06-7.72,13.64c-3.08,5.48-5.95,11.36-9,17-3.33,6.25-6.69,12.5-10.42,18.56-1.16,1.86-2.35,3.71-3.64,5.5a31.6,31.6,0,0,1-4.36,5.09,11.57,11.57,0,0,1-4.6,2.5,17,17,0,0,1-5.11.69,20,20,0,0,1-9.76-2.68,14.94,14.94,0,0,1-5.63-5.53,12.71,12.71,0,0,1-1.52-7.83,16.7,16.7,0,0,1,.77-3.43,14.54,14.54,0,0,1,2.1-4.09,3.59,3.59,0,0,1,1.62-1.33,3.28,3.28,0,0,1,.69-.23c.31,0,.31.38,0,1.09s-.77,1.74-1.36,3.05c-1.78,3.86-2.28,8.39-.1,11.9s6.26,5.8,10.53,6.49a14.7,14.7,0,0,0,9.26-1.32,14,14,0,0,0,3.46-3.18,49.94,49.94,0,0,0,3.06-4.15Z"/><path class="cls-1" d="M136.14,338a33.16,33.16,0,0,1-9.28-.11A29.56,29.56,0,0,1,118,335c-1-.54-2-1.17-2.93-1.76s-1.83-1.37-2.64-2.18a23.52,23.52,0,0,1-6.23-10.16,29.39,29.39,0,0,1-.82-11.75,25.16,25.16,0,0,1,3.28-9.94,17.07,17.07,0,0,1,2.06-2.74,14.31,14.31,0,0,1,2.67-2.23,12.5,12.5,0,0,1,6.61-1.91c1.44,0,1.18.66.1,1.3s-2.86,1.47-4.72,2.52c-3.4,1.82-5.66,5.46-6.8,9.42a28.53,28.53,0,0,0-.73,12.48c.71,5,3.93,9.67,8,12.81a23.81,23.81,0,0,0,7.61,3.87,29.82,29.82,0,0,0,8.57,1.2,31.86,31.86,0,0,0,10.53-1.95,32.48,32.48,0,0,0,3.74-1.62c.61-.31,1.18-.69,1.77-1a19.19,19.19,0,0,0,1.72-1.09,35,35,0,0,0,6-5.5,23.41,23.41,0,0,0,3.42-5.17,11.86,11.86,0,0,0,1.27-5.69,7.93,7.93,0,0,0-.58-2.36,14.07,14.07,0,0,0-1.72-2.79,3.65,3.65,0,0,1-.76-1.5,4.66,4.66,0,0,1-.13-.65c0-.31.36-.33,1-.06a6.9,6.9,0,0,1,2.48,2,9.38,9.38,0,0,1,2.14,6.16,14.62,14.62,0,0,1-1.7,6.27,32.29,32.29,0,0,1-8,9.65,27.46,27.46,0,0,1-3.83,2.74c-.69.4-1.34.84-2.05,1.19l-2.13,1a35.41,35.41,0,0,1-9.06,2.53Z"/><path class="cls-1" d="M315.3,311.22a79.46,79.46,0,0,0-7-12.19,40.54,40.54,0,0,0-9.67-9.88,24.74,24.74,0,0,0-9.08-3.93,23.67,23.67,0,0,0-8.72-.2,30.7,30.7,0,0,0-8.4,2.82c-5.4,2.65-10.32,6.34-15.39,9.84a68.94,68.94,0,0,1-7,4.39,14.51,14.51,0,0,1-8.34,1.82,9.71,9.71,0,0,1-5.28-2.1,8.35,8.35,0,0,1-2.83-5,13.18,13.18,0,0,1,.33-5.57,23.43,23.43,0,0,1,2-5c1.08-1.95,1.47-1.35,1.19.53-.11.95-.38,2.22-.62,3.71a24.32,24.32,0,0,0-.4,4.87,5.95,5.95,0,0,0,5,6,10.86,10.86,0,0,0,4.57-.1,12.88,12.88,0,0,0,2.25-.74c.71-.29,1.49-.76,2.23-1.13,6-3.43,11.56-8,17.91-11.62a55.69,55.69,0,0,1,5.95-2.93c1-.47,2.12-.78,3.19-1.16.54-.16,1.1-.29,1.65-.43l.83-.21.86-.13a25.45,25.45,0,0,1,13.55,1.3,32.52,32.52,0,0,1,12.08,8.55,62.5,62.5,0,0,1,8.45,12,119.23,119.23,0,0,1,7.38,16.3,255,255,0,0,1,7.81,25.82c1.72,6.73,3.35,13.33,4.9,20,.35,1.47.7,2.9,1.05,4.38,1.26,5.48,1.61,7.18,1.35,8.51a5,5,0,0,1-.16.9c-.27.7-1.51-1.42-2.59-5.44-1.61-5.95-3-12.07-4.48-18.26s-3-12.43-4.8-18.62a172.57,172.57,0,0,0-9.76-26.92Z"/><path class="cls-1" d="M306.75,393c-.93-2.53-1.89-5-2.91-7.55-.37-.91-.82-1.79-1.19-2.7-1.34-3.2-2.71-6.39-4.25-9.48a42,42,0,0,0-2.29-4c-1.06-1.63-2.26-3.16-3.3-4.72-.32-.47.16-.87,1-.87a3.33,3.33,0,0,1,2.63,1.39,52.36,52.36,0,0,1,5.79,10.9c.91,2.27,2.08,4.53,3.07,6.83,1.07,2.52,2.08,5.07,3.06,7.63l1.77,4.74c.89,2.4,1.71,4.83,2.56,7.22.66,1.86,1.42,3.65,2,5.54.13.42.28.82.39,1.26.4,1.59.27,2.35-.45,2.73a.63.63,0,0,1-.49.08.67.67,0,0,1-.14-.09.43.43,0,0,0-.11-.08.85.85,0,0,1-.32-.17,2.76,2.76,0,0,1-.49-1.05c-1.06-3.1-2.35-6.55-3.55-10-.92-2.55-1.85-5.11-2.83-7.65Z"/><path class="cls-1" d="M410.56,337.84c2.89-2.13,7.08-4.12,10.75-3.82,2.51.21,1.51.94.07,1.86-1,.65-2.08,1.21-3.09,1.88-1.63,1.09.83,1.71,1.85,1,1.32-.89,8.86-4.62,4.41-6.2-5-1.77-11.86,1.29-15.84,4.22-1.58,1.16.85,1.76,1.85,1Z"/><path class="cls-1" d="M341.72,411.27a23.13,23.13,0,0,0,10.13,5.55,23.59,23.59,0,0,0,4.21.71,16,16,0,0,0,7.29-.92,14.65,14.65,0,0,0,6-4.36,17.52,17.52,0,0,0,3.15-5.92,17.75,17.75,0,0,0,.75-4.18,11.22,11.22,0,0,0,0-2,2.45,2.45,0,0,0-.47-1.34.45.45,0,0,1-.26-.46,1,1,0,0,1,.89-.68,1.61,1.61,0,0,1,1,.37,3.22,3.22,0,0,1,.85,1,5.15,5.15,0,0,1,.67,2.71,19.92,19.92,0,0,1-2.87,9.47,17.42,17.42,0,0,1-7.16,6.79,19.46,19.46,0,0,1-11.74,1.71,30.32,30.32,0,0,1-6.2-1.74,24.37,24.37,0,0,1-5.65-3.13,23.59,23.59,0,0,1-3-2.66,23.27,23.27,0,0,1-2.43-3.16,20.62,20.62,0,0,1-3.16-11.44,18,18,0,0,1,2.37-8.91,14.17,14.17,0,0,1,1.18-1.72,7.43,7.43,0,0,1,2-1.85,1.7,1.7,0,0,1,1.34-.22,2.54,2.54,0,0,1,.53.16c.23.14.2.44,0,.83a13,13,0,0,1-1.2,1.51,15.58,15.58,0,0,0-3.37,6.47,17.28,17.28,0,0,0-.19,7.51,18.45,18.45,0,0,0,5.41,9.89Z"/><path class="cls-1" d="M425.66,351.48c1.61.16,3.21.35,4.8.55l2.36.29,1.14.12.55,0h.38a23.06,23.06,0,0,0,8.47-2.79,12.79,12.79,0,0,0,1.78-1.24,7.21,7.21,0,0,0,.75-.7l.3-.34.09-.12c.08-.11.13-.33,0-.39a.59.59,0,0,0-.23,0l-1.11,0a43.79,43.79,0,0,1-4.82-.11l-2.44-.23-2.42-.35a125.36,125.36,0,0,1-13.76-3.11,110.33,110.33,0,0,0-11.82-2.87,18,18,0,0,0-2.89-.23l-1.39.1-1.41.29a28,28,0,0,0-5.52,2.11,74.78,74.78,0,0,0-10.31,6.4c-3.3,2.39-6.51,4.93-9.65,7.55-5.58,4.66-11,9.61-16.25,14.55-3.39,3.17-6.75,6.39-10.18,9.55-1.73,1.58-3.46,3.14-5.25,4.65a51.43,51.43,0,0,1-5.66,4.27c-.32.19-.6.36-.85.48a5.32,5.32,0,0,1-.66.23c-.35.09-.53.07-.56-.05s.09-.34.33-.62l1-1.1c1.69-1.79,4.69-5.09,8.63-8.68,7-6.36,13.87-12.93,21-19.22,3.58-3.14,7.23-6.24,11-9.2A115.37,115.37,0,0,1,392.9,343a48.57,48.57,0,0,1,7.93-4c.72-.26,1.46-.47,2.18-.7s1.52-.36,2.3-.46A17.77,17.77,0,0,1,410,338a77.52,77.52,0,0,1,8.74,1.94c2.85.76,5.68,1.54,8.49,2.25a91.59,91.59,0,0,0,9.35,1.89c.78.11,1.57.23,2.35.28s1.57.18,2.36.19,1.56.08,2.37.07l2.49-.07a4,4,0,0,1,1.77.32,1.91,1.91,0,0,1,1,1.33,2.88,2.88,0,0,1-.31,1.73,6.52,6.52,0,0,1-1,1.37,15.24,15.24,0,0,1-4.17,3,23.84,23.84,0,0,1-4.69,1.79c-.8.23-1.61.4-2.43.56a10.78,10.78,0,0,1-1.27.18c-.24,0-.51,0-.73,0l-.63-.05c-4-.42-7.87-1-11.81-1.23a48.11,48.11,0,0,0-11.64.42c-.36.07-.72.12-1.08.2l-1.05.28-1,.28-1,.4c-.33.14-.68.25-1,.4l-.92.53a14.17,14.17,0,0,0-1.82,1.19,52.91,52.91,0,0,0-6.74,5.77,92.18,92.18,0,0,0-11.08,13.91,234.5,234.5,0,0,0-13.45,23.84c-.92,1.78-1.75,3.57-2.64,5.39-1.67,3.36-2.76,5.59-3.61,7.11a11.58,11.58,0,0,1-2.11,2.93,7,7,0,0,1-.86.78c-.76.44.2-2.51,2.45-7.56,3.41-7.45,7.15-15,11.37-22.49a142.86,142.86,0,0,1,14.59-21.62,68.89,68.89,0,0,1,6.94-7.05c1.25-1.09,2.56-2.12,3.91-3.08.34-.24.66-.49,1-.72l1.17-.68a14.55,14.55,0,0,1,2.42-1.1,32.67,32.67,0,0,1,10-1.67,78.76,78.76,0,0,1,9.86.41Z"/><path class="cls-1" d="M340.38,438.34a24.35,24.35,0,0,1-7.42-3.46c-1.13-.75-2.14-1.61-3.18-2.44a36,36,0,0,1-2.91-2.76,27.76,27.76,0,0,1-3.67-4.6,22.8,22.8,0,0,1-3.25-9.85,26.08,26.08,0,0,1,1.27-10.18,43.62,43.62,0,0,1,3.66-8.22,38,38,0,0,1,6.88-9.14c.89-.81,1.2-.24,1,.88a12,12,0,0,1-2.24,4.48,48.18,48.18,0,0,0-5.71,9.47,28.15,28.15,0,0,0-2.64,10.55,17.63,17.63,0,0,0,1,6.52,23.51,23.51,0,0,0,3.21,5.93,33.31,33.31,0,0,0,5.23,5.39,27,27,0,0,0,6.32,4.06,18.17,18.17,0,0,0,8.93,1.59,24.9,24.9,0,0,0,12.82-5.37,54.84,54.84,0,0,0,7.85-7.61l1.58-1.82c2-2.25,2.94-3,4-2.79.22,0,.55.16.51.35a.42.42,0,0,1-.08.15s0,0,0,0a.37.37,0,0,0,0,.14.68.68,0,0,1,0,.12v.06c0,.05,0,.12-.08.21-.23.35-.73,1-1.42,1.87-4.08,5.08-9,10.56-15.46,14.09a24.87,24.87,0,0,1-7.82,2.76,20.46,20.46,0,0,1-8.39-.34Z"/><path class="cls-1" d="M171.12,337.16c3.15-.44,6.3-1,9.47-1.56,1.16-.2,2.29-.49,3.45-.68q6.14-1.05,12.32-1.84c1.82-.27,3.66-.5,5.46-.79a43.51,43.51,0,0,1,7-.72c1.47,0-.18,2.51-2.82,2.8L191.85,336c-2.86.31-5.77,1-8.66,1.52-3.19.58-6.37,1.18-9.6,1.69-1,.16-2,.32-3,.43s-2,.3-3,.36a42.87,42.87,0,0,1-9.2,0l-1.78-.27c-.29-.05-.59-.08-.88-.14l-.86-.23-1.74-.45c-.58-.16-1.12-.44-1.68-.65s-1-.39-1.47-.61c-1.69-1-2.13-1.52-2.1-2.26a2,2,0,0,1,0-.5c.14-.5,1-.42,2.21.17a27.13,27.13,0,0,0,11.58,2.83,59,59,0,0,0,9.39-.74Z"/><path class="cls-1" d="M204.16,371.67c.63-2.88,1.19-5.79,1.65-8.71.16-1.07.25-2.15.4-3.21a103,103,0,0,0,1.07-11.34,36.25,36.25,0,0,0-.23-5,25.6,25.6,0,0,0-.58-3.07,14,14,0,0,0-.93-2.74c-.22-.46.2-.92,1.06-.76a3.34,3.34,0,0,1,2.33,2.48,28.34,28.34,0,0,1,.78,6.95,52.87,52.87,0,0,1-.44,6.78c-.34,2.69-.49,5.49-.87,8.21-.41,3-.93,6-1.52,8.95-.36,1.82-.77,3.64-1.18,5.45-.64,2.74-1.38,5.47-2.12,8.17-.59,2.1-1.08,4.18-1.77,6.25-.15.46-.29.91-.46,1.36-.68,1.68-1.12,2.13-1.86,2.17a2.83,2.83,0,0,1-.5,0c-.51-.09-.54-.9-.15-2.08,1.14-3.54,2.22-7.33,3.23-11.19.74-2.86,1.44-5.76,2-8.68Z"/><path class="cls-1" d="M297.16,418.84c0-3.07,0-6.14-.1-9.22,0-1.12-.14-2.24-.17-3.36q-.15-6-.19-11.93c0-1.77-.06-3.55-.12-5.3a35.85,35.85,0,0,1,.23-6.79c.22-1.39,2.45.53,2.36,3.06-.09,4.51-.06,9.05-.17,13.66-.06,2.77.21,5.63.31,8.46.12,3.11.18,6.23.21,9.35,0,1.92,0,3.84,0,5.76,0,2.91-.15,5.83-.28,8.72-.06,2.24-.11,4.45-.17,6.68,0,.49,0,1-.08,1.46-.17,1.83-.39,2.39-1.07,2.7a3.67,3.67,0,0,1-.47.2c-.51.11-.83-.68-.83-2,0-3.93.25-8,.38-12.18.09-3.07.16-6.16.12-9.26Z"/><path class="cls-1" d="M159.53,171c-1.2-.92-2.32-1.92-3.42-2.93-.41-.37-.85-.69-1.23-1.08a47.53,47.53,0,0,1-3.79-4.36c-.54-.66-1.09-1.32-1.64-2a6.82,6.82,0,0,1-1.75-2.89c-.09-.37.58-.57,1.31-.61a2.08,2.08,0,0,1,1.79.47c1.06,1.61,2.32,3.26,3.53,5a19.29,19.29,0,0,0,2.72,2.78q1.56,1.47,3.24,2.84c.71.53,1.38,1.11,2.13,1.58a23.54,23.54,0,0,0,3.44,2.06,15.86,15.86,0,0,0,2.91.92c.21.07.43.07.64.13.79.21,1,.47,1,1.21,0,.17,0,.34,0,.5-.07.56-.54.88-1.22.83a14.2,14.2,0,0,1-5.79-1.94c-.67-.37-1.34-.76-2-1.19s-1.27-.86-1.88-1.31Z"/><path class="cls-1" d="M183.78,39a49.71,49.71,0,0,0-6.91-3.49l-3.61-1.41a13.71,13.71,0,0,0-1.85-.59l-1.87-.53a65.2,65.2,0,0,0-7.61-1.64c-1.28-.24-2.59-.29-3.88-.44a36.33,36.33,0,0,0-3.9-.28,84.64,84.64,0,0,0-30.84,4.67A83.09,83.09,0,0,0,103,45.53C91.77,53,83.41,64.24,78.28,76.67a68.68,68.68,0,0,0-4.94,19.51A52.53,52.53,0,0,0,75,116.11a44.78,44.78,0,0,0,3.34,8.26,46.36,46.36,0,0,0,5,7.38,49.84,49.84,0,0,0,6.38,6.2,57,57,0,0,0,7.41,4.92c1.64,1,3.38,1.74,5.1,2.55s3.53,1.46,5.35,2a81,81,0,0,0,11.09,2.89,142.9,142.9,0,0,0,22.91,2.21c4.79.08,4.18.77.08,1.45a69.3,69.3,0,0,1-20.72-.29,78.29,78.29,0,0,1-23.07-7.23,61.37,61.37,0,0,1-10.23-6.68A46.16,46.16,0,0,1,70.77,108a63.36,63.36,0,0,1,2.37-24.16,77.81,77.81,0,0,1,5.37-13.63,76.66,76.66,0,0,1,7.88-12.56,71.21,71.21,0,0,1,22.74-19l3.62-1.87c1.21-.63,2.49-1.1,3.73-1.66,2.46-1.15,5.06-2,7.62-2.87,1.27-.47,2.6-.75,3.9-1.14l2-.53,1-.27,1-.21c2.66-.53,5.31-1.14,8-1.41a83.34,83.34,0,0,1,16.26-.62,75.58,75.58,0,0,1,8.08,1l2,.37a16.78,16.78,0,0,1,2,.43l3.94,1.1,1.21.35,1.17.45,2.35.91c.77.31,1.57.58,2.33.94l2.26,1.1c.76.35,1.49.77,2.22,1.19L186,37.16l2.09,1.39c.7.47,1.4.92,2,1.45A49.39,49.39,0,0,1,194,43.15c.62.57,1.28,1.09,1.87,1.68l1.77,1.78a24.66,24.66,0,0,1,1.7,1.85l1.65,1.9,1.5,2a21,21,0,0,1,1.45,2,46.87,46.87,0,0,1,6.32,13.83,39.68,39.68,0,0,1,1.11,15.18,62.67,62.67,0,0,1-3.63,14.69,63.53,63.53,0,0,1-7.06,13.31,95.34,95.34,0,0,1-7.19,9.11c-2.56,2.88-5.22,5.63-7.86,8.37s-5.26,5.46-7.68,8.33a46.61,46.61,0,0,0-6.24,9.2,26.61,26.61,0,0,0-2.71,9.16c-.08.74-.08,1.46-.12,2.15,0,.34,0,.68,0,1s0,.65.06,1c0,.63.06,1.24.09,1.81s.16,1.12.24,1.64.14,1,.21,1.49.2.91.3,1.33c.2.85.34,1.62.51,2.3.4,1.37.68,2.46.87,3.38a21.53,21.53,0,0,1,.51,2.33c.09.63.25,1.44.25,1.83,0,.67-.63-.12-1.72-2.16a35.38,35.38,0,0,1-3.39-10.13,29.15,29.15,0,0,1,0-10.7,31.58,31.58,0,0,1,3.95-10.13c3.75-6.24,8.87-11.33,13.78-16.42a129.33,129.33,0,0,0,13.8-16,62.92,62.92,0,0,0,5.28-9,60.66,60.66,0,0,0,3.61-9.81l.87-3.8.63-3.85c.17-1.29.2-2.55.31-3.83s0-2.55-.06-3.83a40,40,0,0,0-4-14.78A54.39,54.39,0,0,0,183.77,39Z"/><path class="cls-1" d="M101,91.45,108,81.89l3.76-5.4.21-.3c.37-.18.73-.38,1.09-.57l.55-.31.27-.16.06,0h0c.37-1.09-.51,1.49-.42,1.22l0,0s-.07.1-.06.12a4.62,4.62,0,0,0,.81,2c.21,0,.11.4.11.66l0,.88c0,.58,0,1.11,0,1.65V84c0,1.32,0,2.64.07,4,.06,2.24.22,4.48.41,6.7a81.84,81.84,0,0,1,.57,8.57c0,1.79-2.8-.26-3.06-3.57-.23-2.92-.4-5.84-.5-8.78,0-1.47-.08-2.94-.08-4.42l0-2.22,0-1.12v-.28c0-.09,0-.2,0-.19l0-.14a4.34,4.34,0,0,0,.09-.59,9,9,0,0,1,.13-1.19c.08-.16,0,0-.07.06l-.16.24-.32.46-.35.47-6.43,8.91-3.93,5.46-1,1.34,2.15-.29,3.87-.59c2.82-.46,5.55-1.07,8.32-1.62.61-.12,1.2-.26,1.82-.36,2.28-.4,3-.34,3.64.29a3.14,3.14,0,0,1,.4.43c.3.51-.56,1.11-2.22,1.52-2.45.62-5,1.15-7.57,1.63l-3.9.68-4.06.64-8.16,1.23,6.89-9.8Z"/><path class="cls-1" d="M152.33,90.42l6.94-9.55,3.76-5.4.22-.31c.36-.18.73-.37,1.09-.57l.54-.31.27-.15.07,0,0,0h0c.38-1.1-.5,1.48-.41,1.22l0,0s-.08.11-.07.12a4.55,4.55,0,0,0,.82,2c.21,0,.1.4.11.67l-.05.87c0,.58,0,1.11,0,1.66V83c0,1.32,0,2.64.07,4,.06,2.24.22,4.49.4,6.71a78.86,78.86,0,0,1,.57,8.56c0,1.79-2.79-.26-3.05-3.56-.23-2.92-.41-5.85-.51-8.79,0-1.47-.07-2.94-.08-4.42l0-2.22,0-1.11v-.28a.72.72,0,0,1,0-.2l0-.14a4.44,4.44,0,0,0,.08-.59c.05-.39.05-.81.13-1.19.08-.16,0,0-.06.07l-.16.23-.33.46-.34.48L156,89.83l-3.93,5.46-1,1.34,2.16-.28,3.87-.6c2.81-.46,5.55-1.07,8.32-1.61.6-.12,1.2-.26,1.81-.37,2.29-.4,3.05-.33,3.65.3a3.19,3.19,0,0,1,.4.43c.3.51-.57,1.1-2.22,1.52-2.45.62-5,1.15-7.57,1.62l-3.91.68-4,.64-8.16,1.24,6.88-9.81Z"/><path class="cls-1" d="M128.15,82.11a9.54,9.54,0,0,0-2,8.25,9.92,9.92,0,0,0,1.25,3,8.8,8.8,0,0,0,1.82,2.17c.39.29.76.62,1.16.9s.83.5,1.27.71a7.69,7.69,0,0,0,5.6.37,8.11,8.11,0,0,0,4.08-3.11A14.25,14.25,0,0,0,143.45,88c.11-.7.8-.68,1.45,0a3.57,3.57,0,0,1,.83,1.5,4.25,4.25,0,0,1,0,2.21l-.31,1.05-.44,1a12,12,0,0,1-1.08,1.91,11.41,11.41,0,0,1-3.16,3.07,10,10,0,0,1-8.58,1.21,15.24,15.24,0,0,1-4.49-2.52,11.22,11.22,0,0,1-3.19-4.08,12.6,12.6,0,0,1,.26-10.89,14.72,14.72,0,0,1,4.52-4.95,11.33,11.33,0,0,1,4.72-2,8,8,0,0,1,5.1,1,12.89,12.89,0,0,1,5.27,5.72,11.88,11.88,0,0,1,.68,1.59c.63,2.08.42,2.86-.24,3.33a2.54,2.54,0,0,1-.47.31c-.56.2-1-.56-1.4-1.81a14.41,14.41,0,0,0-2.9-5.1,8.79,8.79,0,0,0-2.16-1.73,5.48,5.48,0,0,0-2.43-.72c-2.48-.09-5.4,1.71-7.22,4Z"/><path class="cls-1" d="M242.6,325a2,2,0,0,0-.73.46c0,.07-.09.1,0,.24a1.63,1.63,0,0,0,.3.59,1.73,1.73,0,0,0,.7.55,2.35,2.35,0,0,0,1.84-.1,7.8,7.8,0,0,0,2.17-1.33,8.32,8.32,0,0,0,1.57-1.78c.56-.85.93-1.79,1.43-2.52.14-.21.79-.1,1.32.37a1.78,1.78,0,0,1,.53,2,11.91,11.91,0,0,1-2.23,3,10.73,10.73,0,0,1-5.48,2.89,3.92,3.92,0,0,1-2.78-.56,4.35,4.35,0,0,1-1.07-1.07,4.13,4.13,0,0,1-.37-.59,5.14,5.14,0,0,1-.32-.74,3.66,3.66,0,0,1-.12-.88,2.86,2.86,0,0,1,.17-.87,3.08,3.08,0,0,1,1-1.32,4.91,4.91,0,0,1,3.2-1,3.63,3.63,0,0,1,2.45,1,3.21,3.21,0,0,1,1,2.52,3.45,3.45,0,0,1-.89,1.94,3.21,3.21,0,0,1-2,1.07h-.59a3.78,3.78,0,0,1-.62-.16,1.8,1.8,0,0,1-1.08-1.15.9.9,0,0,1,.39-.79,2.48,2.48,0,0,1,.39-.27,1.42,1.42,0,0,1,.72-.1,1.33,1.33,0,0,1,.3.06,1.35,1.35,0,0,1,.22,0c.16,0,.12-.14.21-.21a2,2,0,0,0,.33-.36.61.61,0,0,0,.12-.35c0-.05,0-.08-.1-.23s-.09-.14-.12-.16,0-.06-.1-.08a.5.5,0,0,0-.15-.08.77.77,0,0,0-.23-.06,2.24,2.24,0,0,0-1.26.14Z"/><path class="cls-1" d="M238.84,340.82a2,2,0,0,0-.73.46c0,.07-.09.11,0,.24a1.94,1.94,0,0,0,.3.6,1.79,1.79,0,0,0,.7.54,2.35,2.35,0,0,0,1.84-.1,7.8,7.8,0,0,0,2.17-1.33,8.32,8.32,0,0,0,1.57-1.78c.56-.84.93-1.79,1.43-2.52.14-.21.79-.1,1.33.38a1.78,1.78,0,0,1,.52,2,11.91,11.91,0,0,1-2.23,3,10.18,10.18,0,0,1-3.1,2.13,10.07,10.07,0,0,1-2.38.76,3.92,3.92,0,0,1-2.78-.56,4.35,4.35,0,0,1-1.07-1.07A4.13,4.13,0,0,1,236,343a5.14,5.14,0,0,1-.32-.74,3.66,3.66,0,0,1-.12-.88,2.87,2.87,0,0,1,.18-.87,3.13,3.13,0,0,1,1-1.32,4.9,4.9,0,0,1,3.2-1,3.58,3.58,0,0,1,2.45,1,3.21,3.21,0,0,1,1,2.52,3.45,3.45,0,0,1-.89,1.94,3.12,3.12,0,0,1-2,1.07h-.59a3.43,3.43,0,0,1-.61-.16,1.77,1.77,0,0,1-1.08-1.15.85.85,0,0,1,.38-.78,2,2,0,0,1,.39-.28,1.42,1.42,0,0,1,.72-.1,1.33,1.33,0,0,1,.3.06c.09,0,.17,0,.22,0s.12-.15.21-.22a2,2,0,0,0,.34-.36.82.82,0,0,0,.12-.35c0-.05,0-.08-.11-.23s-.08-.14-.12-.16,0-.06-.09-.08a.79.79,0,0,0-.16-.08.7.7,0,0,0-.23-.06,2.25,2.25,0,0,0-1.26.14Z"/><path class="cls-1" d="M181.77,410.87c-3.25-.37-5-.78-5.45-4.33s6.35-17.93,23.22-21.32c8.33-1.68,34.58,5.87,11.62,37.85-5.71,7.95-10,15.75-9.4,25.3-2.2.35-8.4,1.48-9-.67-5.93-19.78,12.93-32.33,14.28-41.45C208.27,397.64,197.41,388,181.77,410.87Z"/><path class="cls-1" d="M194.16,447.19s0,0,.08,0l.27.09.36.08.41.05a12.46,12.46,0,0,0,1.84,0c.63,0,1.28-.09,1.94-.17l1.17-.15s0,0,.06,0v-.48l.08-2a30.18,30.18,0,0,1,.64-4.26c1.23-5.63,4.05-10.65,7.15-15.23l3.41-4.93c.57-.8,1.07-1.65,1.59-2.48s1-1.67,1.49-2.52a39.25,39.25,0,0,0,3.93-9.42c.25-.82.32-1.65.49-2.47l.11-1.24a6.47,6.47,0,0,0,0-1.24,13.55,13.55,0,0,0-.76-4.83,13.87,13.87,0,0,0-6.27-7.33,21.29,21.29,0,0,0-9.6-2.83,14.63,14.63,0,0,0-2.2.06,18.37,18.37,0,0,0-2.19.48,31.45,31.45,0,0,0-4.35,1.39,30.17,30.17,0,0,0-7.74,4.68,28.79,28.79,0,0,0-7.24,8.93c-.21.43-.43.85-.62,1.29s-.36.87-.5,1.31a6.82,6.82,0,0,0-.45,2.49,4.26,4.26,0,0,0,.77,2.24,3.83,3.83,0,0,0,2.12,1.06c1.14.26,1.68.46,1.61.68s-.68.44-1.79.55a5.63,5.63,0,0,1-2.13-.2,3.78,3.78,0,0,1-1.32-.75,4.7,4.7,0,0,1-1-1.37,7.63,7.63,0,0,1-.57-1.6l-.09-.41,0-.53,0-.54c0-.17,0-.31.05-.47a12.48,12.48,0,0,1,1-3.56,30.91,30.91,0,0,1,7.66-10.27,32.89,32.89,0,0,1,11-6.38l1.51-.51,1.56-.38,1.55-.37a13,13,0,0,1,1.72-.2,21.42,21.42,0,0,1,6.52.73,19.7,19.7,0,0,1,10.93,6.9,15.8,15.8,0,0,1,2,3.49,16.45,16.45,0,0,1,1,3.89,21.88,21.88,0,0,1-.54,7.87,36.7,36.7,0,0,1-1.14,3.74c-.49,1.2-.94,2.42-1.53,3.57a59.9,59.9,0,0,1-3.79,6.68c-.77,1.17-1.59,2.31-2.38,3.45s-1.58,2.23-2.33,3.36a52.44,52.44,0,0,0-4,7.05,32.22,32.22,0,0,0-2.49,7.6,26.61,26.61,0,0,0-.43,4l0,.5v.6l0,1.49c0,.25,0,.5,0,.74l-.8.12-1.54.24a29.51,29.51,0,0,1-4.14.35,9,9,0,0,1-2.21-.23,3.51,3.51,0,0,1-1.23-.52,3.06,3.06,0,0,1-.56-.52c-.12-.22-.24-.45-.34-.68a27.32,27.32,0,0,1-.67-12.6A39.79,39.79,0,0,1,197.52,421c1.42-2.17,2.94-4.25,4.4-6.35a34,34,0,0,0,3.79-6.46c1.45-3.38.39-7.73-2.55-9.63a6.61,6.61,0,0,0-5-.8,14.4,14.4,0,0,0-4.95,2.27,31.64,31.64,0,0,0-3.78,3.21c-2.21,2.22-3.52,3.86-4.51,4.95a10.15,10.15,0,0,1-2.3,2.05,6.53,6.53,0,0,1-.89.5c-.38.11-.28-.43.26-1.5a26.87,26.87,0,0,1,3-4.55,31.58,31.58,0,0,1,8.14-7.47,14.18,14.18,0,0,1,5.65-2,9.92,9.92,0,0,1,3.24.26,8.21,8.21,0,0,1,3,1.48,9.58,9.58,0,0,1,3.39,5.48,11.53,11.53,0,0,1,.27,3.21,11,11,0,0,1-.7,3.14,27.14,27.14,0,0,1-2.78,5.21c-1.05,1.59-2.13,3.1-3.19,4.62-3.06,4.35-5.94,8.76-7.53,13.63a24.31,24.31,0,0,0-1.31,7.44,22.65,22.65,0,0,0,.22,3.77c.07.63.22,1.25.33,1.87.05.31.15.62.23.93l.22.84a.05.05,0,0,0,0,0Z"/><path class="cls-1" d="M205.65,469.37a9.58,9.58,0,0,1-2,3.14,5.6,5.6,0,0,1-3.7,1.66,6.26,6.26,0,0,1-2.8-.55,6.11,6.11,0,0,1-1.06-.58,5.32,5.32,0,0,1-1-.79l-.42-.43-.36-.48a5.6,5.6,0,0,1-.62-1,10.37,10.37,0,0,1-1.1-4.35,12.54,12.54,0,0,1,.44-3.9,7.43,7.43,0,0,1,1.14-2.33,4.19,4.19,0,0,1,1-.92,3.94,3.94,0,0,1,1.15-.64c.51-.2.59.23.49.83a9,9,0,0,1-.55,2,9.47,9.47,0,0,0-.85,7.56,4.3,4.3,0,0,0,1.26,2,1.78,1.78,0,0,0,.45.37c.17.09.31.22.49.3a6.92,6.92,0,0,0,1.13.44,3.1,3.1,0,0,0,2.34-.15,4.73,4.73,0,0,0,1.84-1.87,9.27,9.27,0,0,0,1.19-3.39,5.34,5.34,0,0,0,.07-1.3,8.16,8.16,0,0,0-.27-1.34,9.53,9.53,0,0,0-1.11-2.55,5.65,5.65,0,0,0-1.38-1.49,3.55,3.55,0,0,0-1.66-.59c-.24,0-.49.06-.73,0-.93.18-1.27.26-1.78-.25a3.81,3.81,0,0,1-.36-.33c-.33-.37-.05-1,1-1.48a4.77,4.77,0,0,1,1.26-.33l.69,0a5.71,5.71,0,0,1,.71.08,5.51,5.51,0,0,1,2.53,1.17,9.81,9.81,0,0,1,2.82,4.16,12.63,12.63,0,0,1,.52,1.75,9.15,9.15,0,0,1,.16,1,5.66,5.66,0,0,1,0,1.08,12.76,12.76,0,0,1-.82,3.59Z"/><path class="cls-1" d="M251.84,423.24c-3.18-1.29-4.86-2.2-4.29-5.91S259,401,277,402.34c8.88.65,33.26,15.66,1.08,41.48-8,6.42-15.5,13-17.6,22.82-2.32-.27-6.9-.73-7-3.07-.41-21.64,21.16-29.06,25.08-37.89C282.31,417.34,274.05,404.57,251.84,423.24Z"/><path class="cls-1" d="M255.05,463.61c0,.07.35.39.85.6a8.9,8.9,0,0,0,1.74.53l1,.19.63.1c.05,0,.09,0,.14,0l.09-.35,0-.18,0-.12.09-.27.36-1.06c.23-.72.56-1.4.84-2.09a31.67,31.67,0,0,1,2.17-3.91c3.28-5,7.7-8.89,12.12-12.5,1.65-1.31,3.23-2.62,4.78-3.94l2.26-2.06c.75-.69,1.44-1.43,2.17-2.14a39.77,39.77,0,0,0,6.41-8.44,17.82,17.82,0,0,0,2.3-9.91,15,15,0,0,0-4.57-9,22.57,22.57,0,0,0-8.95-5.36,14.81,14.81,0,0,0-2.23-.48c-.74-.1-1.57-.07-2.35-.11l-1.19,0-1.19.07c-.78.07-1.58.06-2.36.2A31.23,31.23,0,0,0,251.46,413a19.13,19.13,0,0,0-1.83,2.31,6.89,6.89,0,0,0-1.13,2.39,4.33,4.33,0,0,0,.19,2.47,4.07,4.07,0,0,0,1.85,1.66c1.08.57,1.57.92,1.44,1.11s-.8.23-1.94,0a6.31,6.31,0,0,1-2-.79,3.74,3.74,0,0,1-1.11-1.1,4.72,4.72,0,0,1-.66-1.64,7.38,7.38,0,0,1-.13-1.75,5.65,5.65,0,0,1,.41-2c.12-.29.25-.6.39-.9l.47-.82a16.56,16.56,0,0,1,1.11-1.57,33.09,33.09,0,0,1,23.24-11.58l1.66-.1c.55,0,1.11,0,1.66,0a20.56,20.56,0,0,1,3.41.27,21.88,21.88,0,0,1,6.36,2.42,21.24,21.24,0,0,1,9.25,9.69,16.7,16.7,0,0,1,1.23,8.15,22.51,22.51,0,0,1-2.51,7.81,46.89,46.89,0,0,1-10.19,12.34c-2.16,2-4.46,3.73-6.65,5.52a77.44,77.44,0,0,0-6.28,5.69,35.78,35.78,0,0,0-5.18,6.56c-.35.6-.71,1.19-1,1.82a16.73,16.73,0,0,0-.86,1.88c-.29.63-.48,1.3-.71,1.95l-.08.24-.1.36-.19.73-.37,1.47-2-.24-.77-.11-.67-.12a12.42,12.42,0,0,1-2.74-.78,4.88,4.88,0,0,1-1.36-.84,2.62,2.62,0,0,1-.9-1.65,3.57,3.57,0,0,1,0-.77v-.68c0-.46,0-.91.06-1.36a28.72,28.72,0,0,1,.84-5.37,29.65,29.65,0,0,1,1.84-5.11,41.33,41.33,0,0,1,10.05-12.75c2-1.82,4.06-3.53,6.07-5.26A33.52,33.52,0,0,0,277,427a9,9,0,0,0,1.71-5.35,7.44,7.44,0,0,0-1.91-5,6.55,6.55,0,0,0-2.2-1.51,8.61,8.61,0,0,0-2.67-.57,15.26,15.26,0,0,0-5.61.95,33,33,0,0,0-4.68,2.18c-2.83,1.62-4.6,2.89-5.89,3.71a10.92,10.92,0,0,1-2.86,1.43,7.29,7.29,0,0,1-1,.26c-.41,0-.15-.49.69-1.4a16.36,16.36,0,0,1,1.71-1.64c.71-.64,1.59-1.32,2.6-2.06A33.76,33.76,0,0,1,267,412.77a14.9,14.9,0,0,1,6.17-.49,10,10,0,0,1,3.16,1.06,8.82,8.82,0,0,1,2.62,2.21,9.88,9.88,0,0,1,2.06,6.33,11.47,11.47,0,0,1-2,6.27,27.46,27.46,0,0,1-4.11,4.56c-1.46,1.33-2.95,2.58-4.4,3.83-4.32,3.69-8.49,7.49-11.36,12.15a26.68,26.68,0,0,0-3.24,7.43c-.19.65-.29,1.32-.44,2s-.22,1.34-.28,2-.14,1.35-.13,2l0,1v.25s0,.11,0,.11h0v0s0,0,0,0Z"/><path class="cls-1" d="M259,489.54a8.58,8.58,0,0,1-3.15,2.36,5.57,5.57,0,0,1-4.19.05,7.28,7.28,0,0,1-2.45-1.53,9.57,9.57,0,0,1-.85-1,12,12,0,0,1-.59-1.19,9.37,9.37,0,0,1-.31-1.24,8.61,8.61,0,0,1-.08-1.24,10.8,10.8,0,0,1,1.13-4.5,15.88,15.88,0,0,1,2.21-3.38,10,10,0,0,1,.91-.93,4.6,4.6,0,0,1,1.05-.81l.58-.33.63-.24a4.79,4.79,0,0,1,1.3-.28c.56-.06.53.37.26.92a8.15,8.15,0,0,1-.54.89,3.65,3.65,0,0,1-.72.89,12.6,12.6,0,0,0-4.5,7,4,4,0,0,0,1.71,4.25,3.76,3.76,0,0,0,2.39.83,4.2,4.2,0,0,0,2.46-1.07,9.46,9.46,0,0,0,2.31-2.94,9.92,9.92,0,0,0,1-2.73,12.21,12.21,0,0,0,.3-2.93,5.41,5.41,0,0,0-.42-2.09,2.23,2.23,0,0,0-1.11-1.26c-.17-.13-.44-.11-.65-.18-.92-.11-1.32-.1-1.68-.73-.08-.14-.19-.27-.26-.41-.23-.44.22-1,1.39-1.17a3.94,3.94,0,0,1,1.4.07,3.27,3.27,0,0,1,.74.21c.24.12.47.25.71.39a4.83,4.83,0,0,1,1.78,2.46,11.09,11.09,0,0,1,.3,5.11,13.73,13.73,0,0,1-1,3.61,12.82,12.82,0,0,1-2,3.23Z"/><path class="cls-1" d="M264.68,204.45c-.71,1.62-1.2,4.39-2.65,5.52-2.27,1.77-4.8-2.85-5.31-4.57-.33-1.08-2.79-.41-2.47.66.91,3,3.7,6.69,7.28,6s4.29-4.65,5.5-7.37c.55-1.25-1.93-1.18-2.35-.24Z"/><path class="cls-1" d="M244.22,203.71c-.84,1.48-1.83,4.84-3.61,5.33-2.34.66-4.09-3.72-4.42-5.42-.21-1.08-2.68-.45-2.46.66.59,3.05,3,7,6.6,6.58s4.75-4.29,6.24-6.92c.65-1.16-1.84-1.12-2.35-.23Z"/><path class="cls-1" d="M246.88,202.78a16.76,16.76,0,0,0-.16-5.47,14.56,14.56,0,0,0-.57-1.92,9.46,9.46,0,0,0-1.48-3,7.4,7.4,0,0,0-2.66-2,6.69,6.69,0,0,0-3-.57,10.68,10.68,0,0,0-3.59,1c-.36.15-.74-.34-.75-1.06a2.17,2.17,0,0,1,1.45-2.05,9.26,9.26,0,0,1,9.6,2.53,11.65,11.65,0,0,1,1.78,2.51,14.36,14.36,0,0,1,1.12,2.71,19.24,19.24,0,0,1,.71,6.26,15.63,15.63,0,0,1-.2,1.92,14.9,14.9,0,0,1-.38,1.88,24,24,0,0,1-2.13,5.36c-.38.64-.7,1.3-1,1.95l-1.18,1.87a7.06,7.06,0,0,1-.57.78c-.79.92-1.17,1.1-1.79.84a2.8,2.8,0,0,1-.43-.19c-.42-.27-.4-.9,0-1.6.7-1,1.3-2.1,2-3.13q.43-.81.9-1.62c.31-.53.52-1.12.8-1.67a18.88,18.88,0,0,0,1.46-5.26Z"/><path class="cls-1" d="M249.07,219.92c-3.43-2.74-6.53-7.9-11.49-4.45-4.6,3.2,1.88,9.55,4.69,11.35.65.42,2.81-.58,2.3-.9-2.54-1.62-6.64-5.25-6-8.7.85-4.77,6.92,2.56,8.23,3.61.6.47,2.83-.48,2.3-.91Z"/><path class="cls-1" d="M256.91,191.64c-1-.94-1-1.5-.73-1.83a5.06,5.06,0,0,1,3.75-2.1,8.08,8.08,0,0,1,3.44.69,15,15,0,0,1,4.76,3,15.76,15.76,0,0,1,1.16,1.27,5.66,5.66,0,0,1,1,1.61c0,.14.14.24.1.42-.15.48-.76.44-1.22.3-.11,0-.28,0-.29-.07-.1-.35-1-.22-1.08-.48a4.68,4.68,0,0,0-1.45-1.29,5.05,5.05,0,0,1-.6-.53c-.24-.25-.45-.54-.72-.78a9,9,0,0,0-1.53-1,7.66,7.66,0,0,0-2.78-.85,3.57,3.57,0,0,0-2.36.54,5,5,0,0,0-.86.78A3.46,3.46,0,0,1,256.91,191.64Z"/><path class="cls-1" d="M245.05,243.34c1.17-.72,2.91.79,3.95,1.34a2.18,2.18,0,0,0,1.58-.16c.11,0,1.1-.47.74-.66a11,11,0,0,0-3.72-1.67,7.09,7.09,0,0,0-4.43,1.12c-.44.27-.26.42.14.5a3,3,0,0,0,1.74-.47Z"/><path class="cls-1" d="M346.34,147.43c6.44,1.07,12,5.36,11.63,12.37-.06,1.28,2.86.74,2.91-.32.37-7.72-5.65-12.55-12.79-13.73-1-.17-3.42,1.4-1.75,1.68Z"/><path class="cls-1" d="M351.09,141.36c6.24-3.82,18.73,5.61,15.2,12.76-.75,1.52,2.18,1.65,2.79.41,2.32-4.7-1.35-9.84-4.9-12.75-4-3.27-9.7-5.16-14.42-2.28-1.66,1-.14,2.75,1.33,1.86Z"/><path class="cls-1" d="M245.32,243.1c.09-.14.58-1,.12-.41-.28.34-.29,0,.1.2s.94.36,1.4.6c.7.38,1.36.82,2.06,1.19a2.18,2.18,0,0,0,1.58-.16c.11,0,1.1-.47.74-.66-1.37-.73-2.67-1.77-4.25-2a4.22,4.22,0,0,0-4.17,1.68c-.22.37.87.22,1,.2.43-.07,1.2-.23,1.45-.65Z"/></g></svg>