<svg xmlns="http://www.w3.org/2000/svg" width="520" height="520" viewBox="0 0 520 520"><defs><style>.cls-1{fill:#231f20;}.cls-2{fill:#221f1f;}</style></defs><title>notioly upgrade</title><g id="n.105_Job_application" data-name="n.105 Job application"><path class="cls-1" d="M440.65,456c-3.07-.34-6.16-.66-9.24-.92-1.13-.1-2.26-.08-3.39-.19-4-.35-7.94-.72-11.92-1-1.77-.11-3.54-.13-5.3-.12a46.16,46.16,0,0,1-6.75-.3c-.7-.11-.61-.77,0-1.45a4.54,4.54,0,0,1,3-1.46c1.15,0,2.31-.1,3.47-.13s2.31,0,3.46.08c2.31.1,4.63.27,6.95.54,2.77.33,5.67.24,8.51.38,3.13.16,6.26.38,9.38.61l5.78.45c1.46.12,2.92.26,4.39.42l2.2.25,1.13.15c.41.07.69.1,1.27.24a4.15,4.15,0,0,1,2,1.29,8.37,8.37,0,0,1,1.15,1.68,15.39,15.39,0,0,1,1.35,3.46,13.91,13.91,0,0,1,.36,1.55,4.07,4.07,0,0,1-.11,2.1,1.81,1.81,0,0,1-1.13.93,4.15,4.15,0,0,1-.73.24,1.3,1.3,0,0,1-1.09-.4,3.07,3.07,0,0,1-.8-1.37c-.25-.9-.57-1.78-.83-2.63a15.34,15.34,0,0,0-.92-2.29,3.37,3.37,0,0,0-.46-.69l-.06,0h0s.05,0,0,0l-.29-.06-.66-.11-1.46-.19c-3-.36-6.11-.69-9.2-1Z"/><path class="cls-1" d="M166.57,183.38c-14.76-.48-30-40.95-2.62-49.58,1.28-.66,2.48.63,3.61-.13,20.93-14,17.58-45.62,51.32-67.93,42.08-27.83,85,8,71.66,31.44,5.73,3.93,11.94,23.77-1.4,32.39-9.9,6.41-33.77,9.59-44.78,10.84-34.48,3.91-55.4,31.14-55.39,36.38C189,176.79,173.26,170.2,166.57,183.38Z"/><ellipse class="cls-1" cx="278.58" cy="336.59" rx="1.89" ry="3.22"/><path class="cls-1" d="M419,92.45q-7.2.22-14.39.35l-5.25.11q-9.26,0-18.5-.32l-8.2-.28c-3.49-.12-7-.23-10.45-.68-2.16-.28.71-1.72,4.7-1.55,7.08.35,14.15.51,21.3.8,4.27.16,8.73,0,13.11-.09q7.22-.12,14.44-.41c3-.1,5.92-.26,8.88-.42,4.48-.26,9-.51,13.43-.91,3.45-.32,6.82-.76,10.22-1.2.75-.09,1.48-.19,2.24-.27,2.81-.28,3.72-.1,4.38.41a2.83,2.83,0,0,1,.44.36c.31.41-.8.91-2.84,1.32-1.51.27-3.05.52-4.61.75s-3.14.39-4.73.54c-3.18.3-6.41.59-9.66.79-4.82.33-9.67.54-14.5.75Z"/><path class="cls-1" d="M395.2,153.54c4.61,0,9.25-.08,13.88-.24l5.06-.29q8.94-.34,17.9-.78c2.65-.14,5.31-.37,7.93-.59a75.21,75.21,0,0,1,10.18-.5c1.06.06.94.74.07,1.45a8.15,8.15,0,0,1-4.38,1.61c-6.84.54-13.72,1.1-20.69,1.27-4.17.08-8.48.55-12.74.78-4.69.24-9.38.42-14.08.51q-4.33.08-8.68.06c-4.38,0-8.79-.19-13.15-.47a78.11,78.11,0,0,1-10.16-1c-.75-.19-1.5-.27-2.25-.53-2.8-.87-3.59-1.79-3.56-2.9a3.42,3.42,0,0,1,0-.73c.1-.35.48-.5,1-.51a3.54,3.54,0,0,1,.9.14,7.05,7.05,0,0,1,1.18.3,50.44,50.44,0,0,0,8.47,1.49c3,.33,6.05.52,9.15.66,4.59.2,9.25.29,13.91.23Z"/><path class="cls-1" d="M240.28,303.29c-1.31-1.41-2.56-2.88-3.79-4.36l-1.36-1.59-4.65-5.75c-.69-.85-1.41-1.67-2.12-2.49-.93-1-1.88-2.05-2.78-3.11-.56-.66.6-.25,1.76.87,2,2.05,3.9,4.17,5.68,6.41,1.07,1.35,2.27,2.67,3.41,4s2.53,2.9,3.83,4.32c.8.87,1.6,1.74,2.44,2.58,1.25,1.27,2.56,2.5,3.92,3.64,1.07.87,2.16,1.66,3.29,2.41l.74.5c.94.61,1.17.91,1.26,1.22a.56.56,0,0,1,.07.19c0,.16-.45.08-1.21-.28a22.65,22.65,0,0,1-3.29-2l-1.57-1.16-1.49-1.29c-1.45-1.31-2.83-2.7-4.16-4.12Z"/><path class="cls-1" d="M246.41,303.43,243.48,300l-1.09-1.23-3.75-4.41c-.56-.65-1.15-1.28-1.73-1.9-.75-.79-1.52-1.56-2.22-2.4-.44-.52.59-.33,1.53.52a56,56,0,0,1,4.62,4.87c.86,1,1.85,2,2.78,3.05l3,3.36,1.89,2.05c1,1,1.92,2,2.93,3,.78.75,1.64,1.39,2.44,2.1l.53.45c.63.61.77.88.73,1.22a1.46,1.46,0,0,1,0,.22c-.07.22-.46.12-1-.22a24.47,24.47,0,0,1-4.6-3.9q-1.6-1.64-3.12-3.34Z"/><path class="cls-1" d="M229.31,293.83l.95-1.51.33-.56c.41-.63.84-1.26,1.22-1.91a7.49,7.49,0,0,0,.44-.9,6.67,6.67,0,0,1,.53-1.15c.16-.22.81.39.62.88a11.29,11.29,0,0,1-1.33,2.34c-.32.43-.56.93-.84,1.39l-.93,1.52c-.19.31-.38.62-.55.94a15.63,15.63,0,0,0-.73,1.48c-.15.39-.24.8-.35,1.19l-.09.26c-.12.32-.22.4-.42.42l-.13,0c-.14,0-.22-.18-.22-.45a5.24,5.24,0,0,1,.62-2.35c.26-.56.56-1.09.86-1.62Z"/><path class="cls-1" d="M234.71,297c.27-.53.55-1,.86-1.55.1-.18.19-.38.31-.56.4-.64.83-1.27,1.28-1.87.19-.29.38-.55.57-.83a4.6,4.6,0,0,1,.82-1c.2-.17.48.52.21.89-.49.68-.95,1.37-1.46,2.06a10.61,10.61,0,0,0-.77,1.36l-.8,1.54-.46,1c-.22.49-.44,1-.61,1.5a12.28,12.28,0,0,0-.28,1.2l-.06.26c-.1.32-.2.41-.45.41h-.17c-.18,0-.29-.19-.28-.46a6.4,6.4,0,0,1,.55-2.29c.21-.55.46-1.09.72-1.63Z"/><path class="cls-1" d="M244.75,307.64c.1-.18.19-.37.28-.54s0-.14.08-.21l.38-.7a1.15,1.15,0,0,0,.1-.33c0-.14,0-.3.15-.41s.86.29.82.46a2.13,2.13,0,0,1-.43.83,1.92,1.92,0,0,0-.22.51l-.27.56a3.73,3.73,0,0,1-.16.35c-.07.18-.16.35-.21.53a3.44,3.44,0,0,0-.05.45.31.31,0,0,1,0,.1c0,.12-.09.14-.3.09l-.15,0a.41.41,0,0,1-.3-.25,1.69,1.69,0,0,1,0-.84c.06-.19.15-.37.22-.56Z"/><path class="cls-1" d="M276.8,302c.19-.38.39-.74.6-1.09.07-.13.12-.27.2-.4l.85-1.31a3.5,3.5,0,0,0,.31-.61,2,2,0,0,1,.42-.76c.14-.13.89.5.75.81a6.62,6.62,0,0,1-.92,1.53,4.82,4.82,0,0,0-.51.95l-.55,1.05c-.11.22-.21.44-.31.66a6.63,6.63,0,0,0-.36,1,7.91,7.91,0,0,0-.06.83v.18c0,.22-.11.28-.38.3l-.19,0a.41.41,0,0,1-.41-.31,2.93,2.93,0,0,1,.09-1.71,9.31,9.31,0,0,1,.46-1.18Z"/><path class="cls-1" d="M279,304.46c.23-.45.48-.89.73-1.33.09-.16.16-.33.26-.49.33-.55.71-1.07,1.07-1.6.16-.24.31-.48.46-.72a5,5,0,0,1,.63-.89c.15-.17.35.32.17.68-.34.64-.68,1.28-1.08,1.89-.25.37-.41.8-.62,1.19s-.44.88-.65,1.32c-.12.28-.25.55-.36.83a8.92,8.92,0,0,0-.44,1.29,6.11,6.11,0,0,0-.11,1v.22c0,.27-.1.35-.37.39l-.18,0a.37.37,0,0,1-.39-.35,4.18,4.18,0,0,1,.26-2.07c.18-.48.39-1,.61-1.42Z"/><path class="cls-1" d="M280.81,303.35c-.19-.41-.37-.82-.56-1.22-.06-.15-.16-.28-.22-.43-.23-.52-.45-1-.71-1.54a5.11,5.11,0,0,0-.41-.62,3.23,3.23,0,0,1-.54-.77c-.07-.2.75-.54,1-.23a6.06,6.06,0,0,1,1,1.76,9.5,9.5,0,0,0,.58,1.09c.19.39.4.79.59,1.19l.38.72a12.23,12.23,0,0,0,.64,1.05c.18.25.43.45.63.68l.14.14a.34.34,0,0,1,0,.5l-.09.13a.37.37,0,0,1-.48.05,3.68,3.68,0,0,1-1.34-1.29,9.36,9.36,0,0,1-.68-1.19Z"/><path class="cls-1" d="M164.34,456.29s-1.65,8.5,40,6.35c29.75-1.54-6-7.8-6-7.8s-10.51,2.71-18.22,3.21C173.41,458.49,173.41,458.49,164.34,456.29Z"/><path class="cls-1" d="M254.54,368.22l-14.16,8.31c-1.73,1-3.41,2.09-5.15,3.08-6.12,3.49-12.3,6.9-18.64,10-2.82,1.38-5.66,2.77-8.58,3.95a31.31,31.31,0,0,1-5.86,1.87,11.45,11.45,0,0,1-3.22.16,4.81,4.81,0,0,1-3.11-1.47,1.6,1.6,0,0,1-.41-.7c0-.17,0-.26.06-.3s.49.12,1,.26a4.29,4.29,0,0,0,1.92.07c.75-.1,1.62-.28,2.62-.48A52,52,0,0,0,212,389c3.63-1.69,7.23-3.54,10.86-5.4,4.34-2.23,8.64-5,12.93-7.53l14.15-8.52,8.71-5.27c4.38-2.67,8.83-5.3,13.17-8,3.37-2.08,6.6-4.27,9.91-6.37.73-.47,1.43-.95,2.18-1.4,2.77-1.66,3.78-2,4.81-1.55a2.93,2.93,0,0,1,.69.3c.61.44-.27,1.56-2.22,2.89-5.78,3.95-12.07,7.76-18.41,11.59l-14.17,8.53Z"/><path class="cls-1" d="M222.72,238.83a94.56,94.56,0,0,0,7.85,6.13,75.22,75.22,0,0,0,8.46,5.19,52.35,52.35,0,0,0,9.06,3.83,35.4,35.4,0,0,0,9.51,1.68,22.3,22.3,0,0,0,3.47-.19,21.48,21.48,0,0,0,3.38-.66c.56-.15,1.08-.38,1.62-.56l.81-.29c.26-.12.51-.26.77-.39l1.53-.76,1.43-1,.63-.41c.21-.15.39-.33.59-.49l1.16-1c.78-.66,1.42-1.48,2.14-2.21a15,15,0,0,0,2.7-5.2A44.68,44.68,0,0,0,279.25,230a171.15,171.15,0,0,0-2.66-25.82c-1.26-7.63-2.83-15.25-4.35-22.79-1-4.84-2-9.7-2.8-14.61-.39-2.45-.71-4.93-.91-7.42-.12-1.25-.16-2.51-.2-3.76a30.43,30.43,0,0,1,.32-3.8c.23-1.58.55-2.23.68-2.15s.19.88.35,2.17.67,3.09,1.07,5.25,1,4.69,1.49,7.46c3.3,19.71,8.53,39.38,9.77,60,.13,3.09.26,6.2.09,9.37a42.38,42.38,0,0,1-1.39,9.57c-.28.79-.49,1.59-.84,2.36l-.56,1.16a5.49,5.49,0,0,1-.63,1.13,24,24,0,0,1-11.59,9.17,26.5,26.5,0,0,1-10.67,1.52,38.42,38.42,0,0,1-10.4-2.08,65.31,65.31,0,0,1-9.61-4.2,93.43,93.43,0,0,1-8.83-5.54,110.48,110.48,0,0,1-18.83-17.18,89.57,89.57,0,0,1-6-7.69c-1-1.33-1.83-2.71-2.7-4.09l-1.24-2.12-1.08-2.06a.83.83,0,0,0-.46-.46,6.72,6.72,0,0,0-.85-.29c-.71-.19-1.47-.34-2.24-.49l-4.66-.86a53.38,53.38,0,0,1-9.28-2.53,26,26,0,0,1-6.73-3.69,17.45,17.45,0,0,1-5-6,19.48,19.48,0,0,1-2-7.55l-.06-1c0-.33,0-.69,0-1s0-.71.08-1.05l.21-1a15,15,0,0,1,1.41-3.81,17.16,17.16,0,0,1,4.49-5.44c3.58-2.77,7-3.15,9.15-2.7a6.74,6.74,0,0,1,2.44,1,3.5,3.5,0,0,1,1.21,1.3,5.45,5.45,0,0,1,.59,1.2c.08.51-.68.47-1.89.06a10.38,10.38,0,0,0-5.46.08,13,13,0,0,0-7.68,7.72,10,10,0,0,0-.59,2.63,15.68,15.68,0,0,0,.11,2.85,14.5,14.5,0,0,0,1.73,5.47c1.86,3.29,5.18,5.68,9.07,7.29a62.39,62.39,0,0,0,12.79,3.34c.9.17,1.82.34,2.82.59l.78.22.42.14a5.61,5.61,0,0,1,.58.24,5.32,5.32,0,0,1,1.14.71c.17.15.28.35.43.51s.26.36.42.52l1.1,2.13,1.08,1.85c.34.62.75,1.22,1.13,1.82s.77,1.21,1.19,1.8c1.61,2.39,3.42,4.66,5.26,6.9a106.44,106.44,0,0,0,12.28,12.39Z"/><path class="cls-1" d="M268.14,139.77c-4.07.63-8.13,1-12.17,1.36-2,.17-4,.27-6,.5l-5.9.71a32.43,32.43,0,0,0-4.25.79c-1.41.31-2.82.61-4.23.89A72.73,72.73,0,0,0,208,156.54l-1.37,1-1.27,1.12-2.55,2.25a64.94,64.94,0,0,0-4.54,5l-1.35,1.68-1.22,1.78c-.4.6-.84,1.18-1.2,1.8L193.39,173c-.18.31-.37.62-.54.93l-.48,1c-.31.64-.67,1.27-1,1.92s-.55,1.3-.85,2-.48,1.32-.67,2c-.33,1.54-.82,1.52-1.18-.19a9.67,9.67,0,0,1-.07-1.5c0-.29,0-.61,0-.93s.11-.65.16-1a17.13,17.13,0,0,1,1.58-4.52,56.2,56.2,0,0,1,11.32-14.57c1.16-1,2.28-2.09,3.49-3l3.72-2.76c1.26-.88,2.61-1.63,3.92-2.44.67-.39,1.31-.81,2-1.17l2.08-1c3.27-1.72,6.77-3,10.27-4.47l5.39-1.72L234,141c.46-.13.92-.22,1.38-.33l2.75-.61a111.77,111.77,0,0,1,12.21-1.87c4.06-.35,8.08-.65,12.08-1.14a85.7,85.7,0,0,0,14.49-2.8,39.14,39.14,0,0,0,10.06-4.45,22.94,22.94,0,0,0,7.38-7.77,17.8,17.8,0,0,0,2.33-7.78,19.84,19.84,0,0,0-1.19-7.91l-.69-1.61c-.25-.52-.55-1-.81-1.55-1.1-1.88-1.94-3-2.48-3.88a4.81,4.81,0,0,1-.75-2.24,5.65,5.65,0,0,1,0-1c.07-.46.57-.51,1.48-.12a7.26,7.26,0,0,1,.74.37c.26.16.52.36.81.58a10.2,10.2,0,0,1,.9.78c.29.31.59.65.89,1a22.45,22.45,0,0,1,4.78,16.37,21.88,21.88,0,0,1-2.8,8.56,25.47,25.47,0,0,1-5.7,6.94,34.6,34.6,0,0,1-11.39,6.28,74.17,74.17,0,0,1-12.23,3Z"/><path class="cls-1" d="M151.44,150.09a25,25,0,0,0-.31,9.77,31.72,31.72,0,0,0,.81,3.57,36.53,36.53,0,0,0,5.37,11.82,21.63,21.63,0,0,0,3.88,4.27,28.62,28.62,0,0,0,6.14,3.8c.66.33.43.94-.42,1.34a4,4,0,0,1-1.71.34,4.88,4.88,0,0,1-2.14-.56,23.58,23.58,0,0,1-6.53-5.3,27.09,27.09,0,0,1-4.47-6.94,51.88,51.88,0,0,1-3.48-9.38,30.58,30.58,0,0,1-.63-11,22.66,22.66,0,0,1,1.81-6.59,20.74,20.74,0,0,1,6.37-8.07,29,29,0,0,1,6.78-4.06c.54-.21,1.06-.45,1.61-.64,2.08-.64,2.82-.5,3.42.26a4,4,0,0,1,.41.54c.31.65-.39,1.4-1.75,1.9-.51.18-1,.39-1.5.62l-1.48.63c-.49.23-1,.49-1.44.73a10.51,10.51,0,0,0-1.4.76,19.86,19.86,0,0,0-5,3.89l-.79.87-.68,1-.35.47-.3.51-.59,1a18.72,18.72,0,0,0-1.59,4.49Z"/><path class="cls-1" d="M251,53.59a60.54,60.54,0,0,0-27.91,8.24c-1.58.88-3,1.9-4.52,2.9s-2.85,2.15-4.2,3.33a65.45,65.45,0,0,0-6.77,6.66,85,85,0,0,0-6,7.5,157.28,157.28,0,0,0-10.14,16.44c-2.76,5-5.34,10.22-8.07,15.29a77.39,77.39,0,0,1-5.85,9.53c-.53.77-1.2,1.48-1.8,2.21a18.21,18.21,0,0,1-2.12,2,11.3,11.3,0,0,1-5.35,2.55c-2.57.15-2-.46-.29-1.23a13.83,13.83,0,0,0,3-2.3,47.49,47.49,0,0,0,3.43-4,66.08,66.08,0,0,0,5.8-9.23c1.77-3.25,3.46-6.59,5.19-9.93A186.43,186.43,0,0,1,196.9,83.85c5.15-7.54,11.11-15.23,18.76-20.93a63.73,63.73,0,0,1,13.57-7.65,62,62,0,0,1,7.34-2.58A56.76,56.76,0,0,1,244.18,51a54,54,0,0,1,19.1.38,48.46,48.46,0,0,1,7,2,45.05,45.05,0,0,1,6.57,3.15,41,41,0,0,1,11,9.42,45.92,45.92,0,0,1,5.91,9.45A22,22,0,0,1,296,86.57a23.65,23.65,0,0,1-.33,2.53,24.17,24.17,0,0,1-.66,2.46,21,21,0,0,1-3,5.89,7,7,0,0,1-1.19,1.29,5.13,5.13,0,0,1-1.12.63,5.77,5.77,0,0,1-.94.38c-.4.07-.37-.48,0-1.53s1.1-2.52,1.93-4.42a21.35,21.35,0,0,0,2.1-8.72,21,21,0,0,0-2.17-8.78,38.57,38.57,0,0,0-12-14.8c-7.77-5.68-17.7-8.24-27.47-7.83Z"/><path class="cls-1" d="M227.13,246.16s5,19.89,21.37,21.63S261.24,258,261.24,258A55.84,55.84,0,0,1,227.13,246.16Z"/><path class="cls-1" d="M162.71,380.89a225.19,225.19,0,0,0-7.53,38.68,76.81,76.81,0,0,0,.29,19.36,29.69,29.69,0,0,0,3,8.81,17.51,17.51,0,0,0,6.15,6.52,22.69,22.69,0,0,0,6.19,2.46,33.73,33.73,0,0,0,6.83.67c1.16,0,2.33-.08,3.49-.15s2.33-.21,3.49-.42l1.74-.27,1.75-.37,3.5-.74,1.54-.33,1.53-.4,3.06-.81,3.07-.82,3-.94c2-.64,4.07-1.21,6.07-1.9l6-2.07c2-.66,4-1.45,6-2.18s4-1.46,6-2.26c3.94-1.6,7.91-3.11,11.81-4.82l5.87-2.51,5.82-2.62c3.89-1.72,7.71-3.59,11.56-5.42s7.61-3.81,11.41-5.72l5.63-3,2.81-1.51,2.77-1.57,4.92-2.81c1.64-.94,3.23-2,4.84-2.94s3.25-1.94,4.8-3l4.7-3.15,1.17-.79,1.13-.84,2.26-1.68,2.26-1.68c.76-.55,1.44-1.19,2.16-1.79l2.12-1.81.74-.63c.11-.06,0-.2,0-.31l0-.47c-.07-1.86-.1-3.73-.19-5.58a93.33,93.33,0,0,0-2.05-14.15,72.61,72.61,0,0,0-4.4-13.54c-.51-1.07-.94-2.19-1.51-3.23L306.86,355l-1.9-3c-.65-1-1.38-1.92-2.07-2.88a47.12,47.12,0,0,0-10.1-9.89l-1.55-1.1c-.45-.28-.81-.53-1.08-.73-.55-.41-.76-.65-.67-.73s.49,0,1.16.21c.34.11.75.26,1.23.44s1,.47,1.55.76a38,38,0,0,1,8.7,6.33,48.5,48.5,0,0,1,9.24,12.4A72.44,72.44,0,0,1,316.92,371a90.18,90.18,0,0,1,2.57,14.9c.1,1.26.27,2.51.31,3.77l.12,3.77.06,2.26,0,.91v.23c0,.09-.09.11-.13.17l-.35.3-1.19,1-2.9,2.45a142.23,142.23,0,0,1-12.15,8.82c-1,.68-2.06,1.41-3.12,2.05l-3.19,2c-2.12,1.3-4.23,2.62-6.4,3.83l-6.49,3.68-6.58,3.52c-8.83,4.58-17.78,9-26.92,12.94-10.91,4.82-22.16,9.48-33.69,13.63-5.78,2.06-11.61,4-17.55,5.67L194.89,458c-1.48.42-3,.67-4.52,1a64,64,0,0,1-9.21,1.48,38.38,38.38,0,0,1-10.41-.52,23,23,0,0,1-9.71-4.31,21.73,21.73,0,0,1-6.45-8.44,17.16,17.16,0,0,1-1-2.46l-.44-1.24c-.14-.42-.21-.84-.32-1.27-.2-.84-.43-1.68-.59-2.53l-.39-2.57a94,94,0,0,1,.21-20.34c.71-6.71,1.84-13.35,3.21-19.93a323,323,0,0,1,14.2-47.46c2.22-5.84,4.65-11.61,7.17-17.34s5.26-11.37,8.14-16.92,5.89-11,9.13-16.38c1.57-2.7,3.29-5.3,4.94-7.94s3.42-5.2,5.25-7.72c.76-1.07,1.51-2.15,2.28-3.21l2.36-3.14c.77-1.05,1.56-2.08,2.38-3.09l2.62-3.27.66-.6a1.54,1.54,0,0,1,.87-.18,6.72,6.72,0,0,1,1.81.47c.92.37,1.68.73,2.49,1.11l4.7,2.31c3.1,1.54,6.19,3.06,9.32,4.48a124.42,124.42,0,0,0,19.19,7.11,62.21,62.21,0,0,0,12,2,35.65,35.65,0,0,0,9.38-.54,27.32,27.32,0,0,0,6-1.9,35.92,35.92,0,0,0,3.71-1.93l2.54-1.45c.69-.37,1.5-1,2-1.19s.45,0,.19.57a11,11,0,0,1-1.82,2.56,19.61,19.61,0,0,1-4.44,3.64,24.73,24.73,0,0,1-7.47,3,42.62,42.62,0,0,1-16.27.12,86.6,86.6,0,0,1-15.68-4.28c-5.1-1.87-10.08-4.09-15-6.46-2.44-1.18-4.88-2.41-7.29-3.62-1.2-.6-2.41-1.21-3.59-1.75-1.64-.72-1.1-.48-1.24-.48l-2.8,3.47c-1,1.35-2.07,2.74-3.11,4.11s-2,2.78-3,4.18-2,2.82-2.95,4.27c-3.88,5.73-7.5,11.67-10.91,17.75q-4.89,8.65-9.19,17.66t-8.1,18.23a336.15,336.15,0,0,0-13,37.75Z"/><path class="cls-1" d="M307.94,335l-27.56,17-10,6.29c-5.92,3.63-11.85,7.25-17.87,10.76s-11.94,7.06-17.85,10.69L219,389.54a100.08,100.08,0,0,1-10.42,5.77,23.5,23.5,0,0,1-5.83,1.86,7.5,7.5,0,0,1-6.17-1.44c-.25-.23-.45-.43-.62-.61a4.37,4.37,0,0,1-.32-.49c-.16-.27-.18-.41-.1-.45s.26,0,.53.17.63.35,1.08.56a6.7,6.7,0,0,0,.76.29c.28.08.59.13.9.19a6.73,6.73,0,0,0,2.12-.1,25.84,25.84,0,0,0,5.32-1.82,104.42,104.42,0,0,0,10.37-5.58c3.42-2,6.81-4.17,10.22-6.29,6.82-4.24,13.7-8.47,20.71-12.52,8.42-4.78,16.84-10.25,25.22-15.52l27.64-17.36,17.08-10.6q6.48-4,13-7.89,3.28-1.95,6.6-3.82c1.11-.62,2.22-1.23,3.36-1.83a32.32,32.32,0,0,1,3.55-1.65,21.66,21.66,0,0,1,12.1-.2,23.9,23.9,0,0,1,5.61,2.32,21.15,21.15,0,0,1,2.57,1.7l.31.26.23.17.59.45,1.16.93c1.35,1.09,2.65,2.19,3.92,3.43a21,21,0,0,1,4.36,5.57,7,7,0,0,1,.63,1.89,4,4,0,0,1-.11,1.44,3.38,3.38,0,0,1-.48,1c-.15.15-.32.1-.5-.09a2.5,2.5,0,0,1-.27-.38l-.12-.26c-.07-.09-.13-.19-.2-.3a24.12,24.12,0,0,0-2.89-3.85,55.66,55.66,0,0,0-7.49-6.81l-.51-.39-.25-.19a2.31,2.31,0,0,1-.23-.18l-.1-.08c-.29-.23-.62-.47-.95-.69a18.92,18.92,0,0,0-2.09-1.25,21.34,21.34,0,0,0-4.56-1.74,18.34,18.34,0,0,0-9.57.13l-.47.17-.57.25c-.37.15-.76.35-1.15.54-.78.37-1.57.81-2.36,1.22-1.57.86-3.15,1.75-4.72,2.66-9.34,5.43-18.64,11.17-27.89,16.92Z"/><path class="cls-1" d="M367.17,334.26a3.15,3.15,0,0,0,1.3.13,3,3,0,0,0,.63-.13l.33-.12.11,0c.12,0,.29-.11.28-.27a.89.89,0,0,0,0-.22.74.74,0,0,0-.08-.17c-.07-.13-.13-.25-.21-.38a19.14,19.14,0,0,0-1.78-2.18,38.72,38.72,0,0,0-3.73-3.74c-.66-.59-1.35-1.16-2.05-1.69-.36-.27-.71-.53-1.07-.78l-.55-.37a.72.72,0,0,0-.16-.09l-.22-.09a29.44,29.44,0,0,0-4.62-1.07,31.66,31.66,0,0,1-6.09-1.25c-1.23-.46,1-3.47,3.38-3,2.1.39,4.19.83,6.31,1.41.53.15,1.07.31,1.63.51l.46.16c.15.06.28.1.57.24l.37.19.19.13.35.25a25.19,25.19,0,0,1,2.63,2.16,64.24,64.24,0,0,1,5.92,5.67,16.84,16.84,0,0,1,1.39,1.94,8.11,8.11,0,0,1,.68,1.41,3.64,3.64,0,0,1,.25,1.65,2.43,2.43,0,0,1-.64,1.48,8.27,8.27,0,0,1-1.37,1l-.35.21-.31.13a4.8,4.8,0,0,1-.63.24,6.7,6.7,0,0,1-1.33.28,7,7,0,0,1-3.17-.46A13.27,13.27,0,0,1,363,336a26.73,26.73,0,0,1-3.31-2.6l-.71-.65c-.15-.16-.26-.18-.56-.28-.62-.2-1.26-.39-1.89-.57a42.83,42.83,0,0,0-6-1.06l-1.3-.13c-1.6-.21-2.05-.45-2.33-1.4a5.53,5.53,0,0,1-.2-.66c-.13-.71.65-1.29,2-1.31a26.75,26.75,0,0,1,5.84.6q1.44.3,2.88.69l1.43.41.71.22.66.22c.11,0,.23.07.34.12l.27.24,1,.9.77.65c.51.43,1,.85,1.55,1.21a9.85,9.85,0,0,0,3.05,1.59Z"/><path class="cls-1" d="M338.59,349.8a33.9,33.9,0,0,0,5-5.13c.52-.7,1-1.45,1.47-2.18s.91-1.3,1.33-2l.33-.51.46-.81c.32-.55.6-1.14.94-1.63a13.62,13.62,0,0,0,2,.23c.34,0,.7,0,1.07-.05l2.34-.23c.73-.07,1.49-.15,2.3-.16a4,4,0,0,1,.74,0,2.08,2.08,0,0,1,.78.19,2.91,2.91,0,0,1,.67.45,6.93,6.93,0,0,1,.52.48,9.87,9.87,0,0,0,1.9,1.46,8.85,8.85,0,0,0,2.06.94c.48.16.48.73-.06,1.34a3,3,0,0,1-3.18.78,8.18,8.18,0,0,1-2.87-1.93c-.49-.45-.33-.31-.35-.36v0a.78.78,0,0,0-.17,0,2.42,2.42,0,0,0-.27,0c-.74,0-1.63.15-2.55.25-.47,0-.95.08-1.46.1l-.78,0h-.41c-.07,0-.07,0-.11,0l-.26-.1c-.13.06-.23.27-.34.43l-.67,1.19a30.17,30.17,0,0,1-1.66,2.65,39.73,39.73,0,0,1-5.11,6c-.59.56-1.21,1.08-1.8,1.62l-1.92,1.49a35.12,35.12,0,0,1-6.39,3.57c-.89.34-1.73.78-2.63,1.07l-1.34.5c-.45.14-.92.24-1.38.36s-.81.23-1.23.31c-1.57.16-2.09-.11-2.42-1a3.63,3.63,0,0,1-.22-.6c-.13-.68.45-1.3,1.43-1.6a41.56,41.56,0,0,0,8.53-3.17,30.18,30.18,0,0,0,5.71-4Z"/><path class="cls-1" d="M211.28,367.06c-.38,1.42-.72,2.86-1,4.31-.11.54-.1,1.08-.2,1.61-.37,1.87-.74,3.77-.94,5.67a21.58,21.58,0,0,0,0,2.54,14,14,0,0,1,0,3.23c-.07.34-.65.36-1.27.12a2.07,2.07,0,0,1-1.39-1.4,18.83,18.83,0,0,1,.18-6.9c.29-1.36.23-2.8.42-4.19.22-1.54.51-3.06.82-4.57.21-.93.4-1.86.63-2.78.32-1.4.73-2.79,1-4.18.25-1.09.37-2.19.58-3.29a2.2,2.2,0,0,1,.19-.71c.41-.82.75-1,1.48-.94.17,0,.34,0,.49.05.52.1.84.61.92,1.31l.09.77a6,6,0,0,1,0,.74,14,14,0,0,1-.17,1.45c-.08.48-.14,1-.24,1.45l-.36,1.43c-.35,1.42-.76,2.84-1.06,4.29Z"/><path class="cls-1" d="M238.47,306.15a39.56,39.56,0,0,0,11.28,7.17c.76.26,1.54.5,2.3.75s1.57.33,2.35.53a19.16,19.16,0,0,0,8.22.06l1-.26a8.87,8.87,0,0,0,.89-.39,3.22,3.22,0,0,0,1.35-.9,2.44,2.44,0,0,0,.53-1.39,6.19,6.19,0,0,0-.2-1.86,23.44,23.44,0,0,0-3.49-6.79c-.48-.7-1-1.39-1.47-2.08s-.95-1.42-1.41-2.15a25.36,25.36,0,0,1-1.32-2.27,18.89,18.89,0,0,1-1-2.52c-.17-.57-.07-.89.12-.91s.51.17.93.45l1.6,1.16c.31.24.67.49,1,.79a10.4,10.4,0,0,1,.93,1l1.62,2c.54.69,1,1.44,1.51,2.18a43.33,43.33,0,0,1,2.77,4.72,13.85,13.85,0,0,1,1.67,5.9,5.84,5.84,0,0,1-1.2,3.64,5.5,5.5,0,0,1-1.42,1.28,12.74,12.74,0,0,1-1.44.71,8.89,8.89,0,0,1-1.73.6,9.73,9.73,0,0,1-1.74.4l-1.74.27-1.75.05a23.52,23.52,0,0,1-3.47-.2c-1.15-.12-2.25-.43-3.37-.66a37.34,37.34,0,0,1-13-6.79,35.05,35.05,0,0,1-3.42-2.89c-.55-.5-1.11-1-1.65-1.5l-1.52-1.62c-.76-.82-1.55-1.62-2.29-2.47l-2.09-2.63c-1.46-1.7-2.66-3.58-4-5.37-.49-.71-1-1.38-1.5-2.09l-1.4-2.13c-.92-1.43-1.94-2.8-2.77-4.28-.37-.66-.76-1.28-1.12-2a12.35,12.35,0,0,1-1.12-2.76,2.63,2.63,0,0,1,.14-1.53,3.22,3.22,0,0,1,.24-.55c.16-.23.46-.13.91.2a7,7,0,0,1,1.63,1.74c.88,1.22,1.67,2.5,2.46,3.8l2.55,3.81,1.25,1.94c.42.65.9,1.25,1.35,1.88.91,1.24,1.78,2.53,2.71,3.76l2.19,2.66,1.08,1.34c.38.44.79.84,1.18,1.25l2.36,2.5c.83.77,1.7,1.51,2.55,2.27Z"/><path class="cls-1" d="M273.84,293.62a22.62,22.62,0,0,1,1,2.55c.38,1.21.76,2.69,1.11,4.11s.52,2.81.77,3.87l.33,1.31c.1.33.17.57.2.68s.14.49.27.84c.07.18.13.38.2.58s.18.37.26.56a8.31,8.31,0,0,0,.53.94,2.13,2.13,0,0,0,.36.41,2.88,2.88,0,0,0,.47.51,3.24,3.24,0,0,0,.53.45,3,3,0,0,0,.5.31c.27.08.19.15.47,0a2.78,2.78,0,0,0,.61-.66,9.93,9.93,0,0,0,1-1.89,46.43,46.43,0,0,0,1.63-4.68l2.41-8.18a25.41,25.41,0,0,1,1.65-4.18,13.24,13.24,0,0,1,2.73-3.86c.36-.34,1.3.83,1.13,1.07A18.4,18.4,0,0,0,290,292a35.19,35.19,0,0,0-1.88,5.57c-.57,2.21-1,4.22-1.06,4.39-.3,1.54-.59,3.09-1,4.66-.17.73-.36,1.46-.6,2.2a14.22,14.22,0,0,1-1.36,3.12,5.75,5.75,0,0,1-1.38,1.55,3.72,3.72,0,0,1-2.41.77,5.2,5.2,0,0,1-2.06-.6c-.26-.15-.54-.3-.8-.47l-.68-.51a11,11,0,0,1-1.27-1.28,8.83,8.83,0,0,1-.94-1.46,17.37,17.37,0,0,1-1.5-4.4c-.32-1.45-.56-2.87-.76-4.24-.17-1.59-.37-3.13-.64-4.58-.09-.42-.14-.87-.24-1.27l-.14-.62-.21-.57a1.65,1.65,0,0,1-.05-.82,5.09,5.09,0,0,1,.31-.87c.16-.36.66-.28,1.25,0A3.32,3.32,0,0,1,273.84,293.62Z"/><path class="cls-1" d="M417.87,300.69l-6,7.91c-.73,1-1.39,2-2.13,2.94-2.62,3.36-5.3,6.68-8,10-1.19,1.47-2.29,3-3.41,4.53a41.8,41.8,0,0,1-4.57,5.63c-.54.53-1,0-1.1-.85a5,5,0,0,1,.85-3.37l2.12-3,2.23-2.91c1.51-1.94,3.05-3.85,4.66-5.74,1.92-2.26,3.58-4.85,5.37-7.3l5.93-8,3.66-5c1.82-2.51,3.71-5,5.48-7.54,1.38-2,2.59-4,3.93-6,.3-.44.57-.88.89-1.31,1.2-1.59,1.82-1.93,2.8-1.62a4.15,4.15,0,0,1,.62.19c.58.26.62,1.35-.15,2.51-2.15,3.58-4.67,7.22-7.27,10.85l-5.88,8.09Z"/><path class="cls-1" d="M362.61,373.24c-1.84,2.17-3.63,4.37-5.43,6.59-.65.8-1.23,1.67-1.89,2.48l-2.05,2.48c-.74.86-1.24,1.5-2.6,2.93l-1.8-.1-1.15-.1-2.29-.17c-1.62-.11-3.25-.12-4.85-.09-2.06,0-4.12.15-6.15,0-.63-.05-.63-.69-.13-1.39a3.92,3.92,0,0,1,2.74-1.55c1.08-.08,2.16-.16,3.23-.17s2.15,0,3.22.07,2.13.12,3.2.21l1.59.15.79.08.19.08.06,0a.5.5,0,0,0,.21-.12,2.38,2.38,0,0,0,.24-.26L350,384c.39-.48.77-1,1.15-1.49.75-1,1.48-2.07,2.25-3.08q2.61-3.43,5.36-6.79l3.38-4.12c1.69-2.08,3.48-4.11,5.15-6.2,1.3-1.61,2.44-3.32,3.69-5,.27-.37.51-.74.81-1.09,1.1-1.3,1.61-1.56,2.56-1.18.21.08.42.13.6.22.55.3.64,1.3-.05,2.32a100.63,100.63,0,0,1-6.82,9c-1.8,2.2-3.66,4.39-5.44,6.63Z"/><path class="cls-1" d="M386.6,342.12a5,5,0,0,0,2.5-.3A15.54,15.54,0,0,0,392,340.5c.7-.4,1.34-.9,2-1.35a30.13,30.13,0,0,0,3.38-2.68,17.67,17.67,0,0,0,2.81-3.2,6,6,0,0,0,1.11-3.24,2.49,2.49,0,0,0-.75-1.66,8,8,0,0,0-1.86-1.17c-.44-.23-.31-.63.26-.94a2.75,2.75,0,0,1,2.79.18,4.59,4.59,0,0,1,2,3.09,6.15,6.15,0,0,1-.42,3.36,13.74,13.74,0,0,1-3.41,4.66,42.64,42.64,0,0,1-5.13,4.34,17.46,17.46,0,0,1-6.94,2.95,4.72,4.72,0,0,1-2.73-.4c-.22-.15-.43-.31-.64-.48a5.7,5.7,0,0,1-.48-.62,3.74,3.74,0,0,1-.51-1.32,3.86,3.86,0,0,1,.26-2.09,6,6,0,0,1,1-1.61,13.18,13.18,0,0,1,2.69-2.25,22.18,22.18,0,0,1,4.72-2.43,11.08,11.08,0,0,1,1.16-.34c1.51-.3,2.22,0,2.38.8a1.78,1.78,0,0,1,.08.48,1,1,0,0,1-.4.63,2,2,0,0,1-.91.42,20.84,20.84,0,0,0-3.82,1.48,14.83,14.83,0,0,0-3.47,2.26,2.91,2.91,0,0,0-1.08,1.86,1.72,1.72,0,0,0,.18.63c.05.09.06.1.25.19Z"/><path class="cls-1" d="M385.65,353.55a18.25,18.25,0,0,1-5.49,1.79,7.17,7.17,0,0,1-2.37,0,4.1,4.1,0,0,1-1.28-.47,2.62,2.62,0,0,1-.57-.42,2.12,2.12,0,0,1-.45-.54,2.89,2.89,0,0,1-.42-1.32,2.08,2.08,0,0,1,0-.66,4.17,4.17,0,0,1,.08-.63,6.4,6.4,0,0,1,2.31-3.26,17.55,17.55,0,0,1,2.68-1.78,7.08,7.08,0,0,1,4-1.15c.5.05.35.65.09,1.26a2.59,2.59,0,0,1-1.18,1.47,15.06,15.06,0,0,0-3,1.51,7.44,7.44,0,0,0-2.19,2c-.26.5-.32.76-.19,1a.51.51,0,0,0,.31.21,4.62,4.62,0,0,0,.74.09,11.73,11.73,0,0,0,4.52-1.18,17.63,17.63,0,0,0,2.68-1.5,14.32,14.32,0,0,0,3.41-3.12,8.85,8.85,0,0,0,1.36-3.15c.06-.24.08-.48.15-.71.21-.85.41-1.07,1.34-1.14.2,0,.4,0,.59,0a1.21,1.21,0,0,1,1.15,1.41,8.07,8.07,0,0,1-1.1,3.81,14.39,14.39,0,0,1-2.43,3.15,20.71,20.71,0,0,1-4.69,3.4Z"/><path class="cls-1" d="M417.28,278.05c1.78.11,3.56.21,5.34.27.65,0,1.3-.06,1.94,0,2.29.08,4.59.22,6.87.17,1,0,2-.08,3-.2,1.24-.17,2.55-.4,3.62-.56.27,0,.58.29.45.89A2.41,2.41,0,0,1,437,280.2a26.5,26.5,0,0,1-4.06,1,24,24,0,0,1-4.07.08c-1.63-.1-3.29.16-4.94.17-1.82,0-3.63,0-5.44-.05l-3.34-.07c-1.69,0-3.38-.12-5.05-.07-1.3,0-2.58.31-3.88.38-.29,0-.57.07-.86.07a1.85,1.85,0,0,1-1.12-.37,2.7,2.7,0,0,1-.46-.95c0-.16-.1-.31-.12-.44a.89.89,0,0,1,.26-.7c.1-.13.23-.28.38-.45a1.08,1.08,0,0,1,.52-.29,20.91,20.91,0,0,1,7.06-.68l5.38.18Z"/><path class="cls-1" d="M376.57,327.5q7.83-9.9,15.56-19.87l5.54-7.34,9.89-12.84,4.87-6.46q2.38-3.27,4.86-6.53a51.64,51.64,0,0,1,4.81-5.62,18,18,0,0,1,6.36-4.25c.41-.13.81-.27,1.22-.38L431,264a11,11,0,0,1,1.29-.08c.22,0,.42,0,.66,0l.76.11.38.07.38.15a3.89,3.89,0,0,1,1.92,1.51,5,5,0,0,1,.7,1.4,7.15,7.15,0,0,1,.24,1.42,9.33,9.33,0,0,1-1.27,5.13,9.61,9.61,0,0,1-3.61,3.66c-1,.5-1.49.47-1.58.17s.19-.88.63-1.59a25.57,25.57,0,0,0,1.37-2.77,13.15,13.15,0,0,0,.89-3.62,3.64,3.64,0,0,0-.11-1.41,1.18,1.18,0,0,0-.4-.56,6.37,6.37,0,0,0-2.87.15,14.93,14.93,0,0,0-6.62,4.47,77.15,77.15,0,0,0-5.69,7.1c-1.87,2.47-3.73,5.07-5.71,7.52-4.69,5.93-9.26,12.31-13.95,18.43q-7.74,10.09-15.59,20.1-4.84,6.15-9.67,12.31l-14.66,18.6c-3.77,4.8-7.27,9.66-11.05,14.37-.85,1-1.64,2.07-2.52,3.09a28.8,28.8,0,0,1-3.71,3.83,5.11,5.11,0,0,1-2.33,1.07,3.52,3.52,0,0,1-.85.08c-.33-.08-.17-.52.25-1.24a24.28,24.28,0,0,1,2.26-3.4c6.33-8.62,13.33-17.56,20.34-26.53l15.67-20.05Z"/><path class="cls-1" d="M348.13,310.44c-1.66-1.5-21.2-26.79-26.05-22.91-3.63,2.9,15.9,22.77,18.51,25Z"/><path class="cls-1" d="M316.6,435.49c-.31-1.66-.62-3.33-.9-5-.11-.61-.3-1.2-.38-1.81-.3-2.17-.51-4.36-.61-6.55-.08-1-.14-1.94-.26-2.9,0-.62-.12-1.24-.15-1.86a7.43,7.43,0,0,1,.19-1.87c.09-.38.73-.3,1.37,0a2.2,2.2,0,0,1,1.3,1.57c.17,2.36.43,4.7.48,7.16a24.17,24.17,0,0,0,.79,4.41c.33,1.62.68,3.25,1.06,4.87.23,1,.47,2,.73,3,.39,1.51.74,3,1.23,4.53.36,1.15,1,2.22,1.33,3.36.07.26.18.5.23.76.21,1,.06,1.34-.6,1.73a4.91,4.91,0,0,1-.44.25c-.51.23-1.08,0-1.51-.66a17.46,17.46,0,0,1-2.69-6.09c-.46-1.61-.87-3.25-1.25-4.91Z"/><path class="cls-1" d="M376.05,453.63c-12.67.08-25.34.22-38,.49l-13.86.42c-8.15.19-16.25.49-24.42.79s-16.31.47-24.46.65l-21.69.55c-9.22.2-18.48.54-27.7.22-2.88-.1-2.5-.68-.08-1.36a54.61,54.61,0,0,1,12.2-1.7c18.81-.72,37.6-1,56.56-1.44,5.67-.11,11.44-.42,17.28-.71s11.68-.54,17.49-.72c12.77-.41,25.55-.68,38.33-.89l23.59-.29c11.91-.12,23.88-.1,35.71-.07l13.7.05c2.28,0,4.56.07,6.84.15s4.57.19,7,.51c.28,0,.58.08.86.13a2.75,2.75,0,0,1,.45.09,4.4,4.4,0,0,1,.6.18,6.31,6.31,0,0,1,1.15.52,3,3,0,0,1,.49.37.91.91,0,0,0,.24.2l.16.25a6.89,6.89,0,0,1,.57,2.11l.11.88.08.71a47,47,0,0,1,.38,8,6.68,6.68,0,0,1-1,3.59,5.09,5.09,0,0,1-.75,1c-.77.62-1.32-2.29-1.79-7.68-.11-1.19-.23-2.39-.37-3.6-.06-.6-.15-1.21-.25-1.8l-.06-.3,0-.1c0-.07-.06-.1,0-.19a.46.46,0,0,0-.24-.08c-.05,0-.09,0-.12,0l-.55-.09c-.75-.11-1.59-.19-2.42-.26-1.68-.14-3.41-.22-5.16-.29-3.49-.13-7.05-.2-10.63-.25-7.16-.1-14.44-.16-21.72-.17-12.74,0-25.55,0-38.33.16Z"/><path class="cls-1" d="M130.55,454.2l5.27.2c.64,0,1.28,0,1.92,0,2.26.14,4.53.31,6.79.41,1,0,2,.05,3,0a20.57,20.57,0,0,1,3.84.15c.4.08.34.46,0,.86a2.76,2.76,0,0,1-1.68.95c-1.29.14-2.59.26-3.88.34s-2.6,0-3.92,0a45.44,45.44,0,0,0-4.79.19c-1.77.05-3.54,0-5.31,0h-3.26c-1.65,0-3.31-.07-5,0-1.27,0-2.51.32-3.77.36a7.67,7.67,0,0,1-.83,0c-1-.05-1.38-.26-1.6-.9a3.52,3.52,0,0,1-.15-.42c-.1-.47.32-.89,1.07-1.14a22.27,22.27,0,0,1,6.93-1.09c.88,0,1.76-.08,2.64-.1s1.77,0,2.65,0Z"/><path class="cls-1" d="M245.76,194.28a8.48,8.48,0,0,1-.92,4.83,5.68,5.68,0,0,1-4.62,2.75,7.6,7.6,0,0,1-3.4-.63,17.47,17.47,0,0,1-4.28-2.93,40.19,40.19,0,0,1-3.44-3.47c-.95-1.06-1.93-2.09-2.89-3.11a21.75,21.75,0,0,1-3.31-4.23c-.26-.47.2-.82,1-.87a3.74,3.74,0,0,1,2.62.86,50,50,0,0,1,3.75,3.82l3.58,3.87a11.87,11.87,0,0,0,5,3.18,4.18,4.18,0,0,0,1.26.17,2.43,2.43,0,0,0,1-.35,2.2,2.2,0,0,0,.71-.8,3.87,3.87,0,0,0,.33-1.28,11.89,11.89,0,0,0-.56-4,33.16,33.16,0,0,0-2.5-6.19c-.81-1.56-1.92-2.91-2.84-4.41-.21-.33-.44-.64-.63-1a2.86,2.86,0,0,1-.43-1.56,1.55,1.55,0,0,1,.57-1,5.11,5.11,0,0,1,.43-.4c.46-.3,1.32-.11,2.07.63a28.85,28.85,0,0,1,5.31,8.36,25.05,25.05,0,0,1,2.26,7.81Z"/><path class="cls-1" d="M268.9,187.42a7.77,7.77,0,0,1-.61,2.39,3.67,3.67,0,0,1-2.24,2.09,2.19,2.19,0,0,1-.76.15l-.39,0a3.11,3.11,0,0,1-.32,0l-1.24-.2a1.7,1.7,0,0,1-.55-.14l-.5-.19a6,6,0,0,1-1-.41c-.42-.25-.89-.45-1.29-.72a13.84,13.84,0,0,1-1.17-.84,22.09,22.09,0,0,1-3.21-3.6,40.81,40.81,0,0,1-2.4-4l-1.93-3.57a16.85,16.85,0,0,1-1.88-4.82c-.1-.54.41-.64,1.09-.43a3.73,3.73,0,0,1,2,1.54c1.66,2.92,3.12,5.9,4.87,8.72a14.07,14.07,0,0,0,4,4.24,10.13,10.13,0,0,0,1.29.79c.22.11.45.17.67.27l.34.13a1.67,1.67,0,0,0,.29.06l.58.12a.88.88,0,0,0,.36,0,.85.85,0,0,0,.5-.56,5.87,5.87,0,0,0,.25-1.73,17.57,17.57,0,0,0-.11-2,35.67,35.67,0,0,0-1.33-6.23,44.73,44.73,0,0,0-1.94-4.55c-.15-.33-.33-.64-.46-1a2.5,2.5,0,0,1-.2-1.44,1.61,1.61,0,0,1,.54-.91,4.67,4.67,0,0,1,.4-.38c.45-.34,1.15,0,1.89.8a16,16,0,0,1,2.24,4.18,38.45,38.45,0,0,1,1.42,4.64,30.73,30.73,0,0,1,.67,3.66,21.35,21.35,0,0,1,.14,4Z"/><path class="cls-1" d="M245.83,181.87a39.77,39.77,0,0,1-3.25-11.44c-.07-.73-.21-1.44-.25-2.17s-.07-1.46-.07-2.19a18.51,18.51,0,0,1,1.7-7.7,14.92,14.92,0,0,1,5.13-6,20.81,20.81,0,0,1,6.25-2.83,19.66,19.66,0,0,1,4.33-.69,8.3,8.3,0,0,1,4.47.9c.47.26.58.61.4.81a3,3,0,0,1-1,.58c-.42.2-.94.46-1.51.69a5.82,5.82,0,0,1-1.88.35c-5,.13-10,2.14-12.75,6.24a10.67,10.67,0,0,0-1.62,4.27,21.46,21.46,0,0,0-.15,4.82A33.59,33.59,0,0,0,248,178.13c.42,1.05.88,2.09,1.37,3.12s1,2.05,1.63,3a51.22,51.22,0,0,0,6.12,8.43,54.55,54.55,0,0,0,5.92,5.37c.45.36.93.68,1.38,1.06,1.65,1.42,2,2.1,1.76,3.13a5,5,0,0,1-.15.69c-.27.68-1.35.56-2.85-.25a35.75,35.75,0,0,1-6-4.74,51,51,0,0,1-5.27-5.87,53.93,53.93,0,0,1-6.21-10.17Z"/><path class="cls-1" d="M233,161.5c.58.05.85.65.78,1.45a1.6,1.6,0,0,1-.59.89c-.32.07-.62.14-.88.17a12.59,12.59,0,0,0-1.33-.18,10.26,10.26,0,0,0-1.86.07c-.76.08-1.51.17-2.28.22a17.26,17.26,0,0,0-2.32.45,23.86,23.86,0,0,0-2.29.67c-.34.09-.68.21-1,.27a6.44,6.44,0,0,0-1.78.54,8.61,8.61,0,0,0-1.62.91,1.16,1.16,0,0,0-.46.42,14.62,14.62,0,0,1-1.54,1.3c-.74.55-1.4,1.21-1.61,1.3a9,9,0,0,0-1.36.92,11.69,11.69,0,0,0-1.27,1.06c-.12.11-.18.27-.39.3a1.31,1.31,0,0,0-.9.6,6.34,6.34,0,0,1-1,1.09,4.07,4.07,0,0,1-.75.41c-.23.11-.57-.21-.58-.3,0-.27-.3-.22-.48-.3a.51.51,0,0,1-.18-.09,9.59,9.59,0,0,1,.29-1.68,7.76,7.76,0,0,1,.63-1.83s.19-.27.44-.65l.44-.64.57-.7c.4-.48.78-1,1.13-1.36s.63-.66.72-.76a2.83,2.83,0,0,1,.69-.48s.76-.68,1.51-1.31a12.45,12.45,0,0,1,1.61-1.23c.34-.18.66-.42,1-.6a3.41,3.41,0,0,1,1.14-.33,1.14,1.14,0,0,0,.43-.17,15.63,15.63,0,0,1,3.76-1.29c.66-.17,1.31-.37,2-.49a1.53,1.53,0,0,1,.37,0,2.42,2.42,0,0,0,.47,0,27.17,27.17,0,0,1,4.87-.16,17.76,17.76,0,0,1,2.58.75C232.14,160.77,232.74,161.51,233,161.5Z"/><path class="cls-1" d="M265.08,223.41a7.39,7.39,0,0,1,0,1.14,6.52,6.52,0,0,1-.19,1,3.53,3.53,0,0,1-.78,1.46,2.48,2.48,0,0,1-.92.77,2.63,2.63,0,0,1-2.13,0,3.59,3.59,0,0,1-1.49-1.5l-.24-.44-.22-.47a8.53,8.53,0,0,1-.39-1,7.81,7.81,0,0,1-.33-1.28,1.88,1.88,0,0,1,.17-1.16c.14-.27.74,0,1.35.22s1.24.37,1.27.58l.06.24h0a.15.15,0,0,0-.05.07,1.2,1.2,0,0,0,0,.72c.12.56.47.37.64.26a.75.75,0,0,0,.35-.71,2.07,2.07,0,0,0-.11-.7,2.4,2.4,0,0,0-.27-.59.56.56,0,0,0-.21-.22h0l.06-.38h0v0s0,0,0,0a0,0,0,0,0,0,0l.3.33h0v0l0,0a1.83,1.83,0,0,0-.3,1.24,2.45,2.45,0,0,1,0,.27c0,.32-.25.41-1,.49l-.53.06a1.11,1.11,0,0,1-1.27-.68,3.22,3.22,0,0,1,.21-2.42,4.23,4.23,0,0,1,.78-1.1l.12-.12.09-.09.23-.18a2.48,2.48,0,0,1,1.05-.41,2.41,2.41,0,0,1,1,0,1.87,1.87,0,0,1,.4.13,4.14,4.14,0,0,1,1.73,1.9,8.86,8.86,0,0,1,.77,2.57Z"/><path class="cls-1" d="M364.39,150.08a86.7,86.7,0,0,0,11.44.85c3.89.1,7.8.08,11.71,0,2.85,0,5.71-.2,8.56-.27,10.08-.25,20.16-.61,30.26-1,4.47-.16,9-.4,13.42-.61,2.86-.13,5.72-.28,8.6-.32a49.15,49.15,0,0,1,8.7.45c.94.18,1.33.51,1.22.75s-.61.46-1.37.7a28.4,28.4,0,0,1-7.48,1.11c-11.56.28-23.21,1-35,1.25-7,.13-14.34.66-21.55.88-7.92.22-15.85.4-23.84-.07-1.67-.11-3.35-.25-5-.52a19.33,19.33,0,0,1-2.58-.57,7.46,7.46,0,0,1-1.36-.55,3.19,3.19,0,0,1-1.33-1.24l-.31-.65c-.09-.2-.19-.39-.26-.59-.14-.39-.29-.78-.42-1.18-.24-.79-.45-1.58-.62-2.36A72.12,72.12,0,0,1,355.85,135c-.2-3.71-.28-7.4-.33-11.07-.12-5.7-.23-11.28-.35-16.91,0-1.23-.07-2.44-.1-3.68-.07-4.61,0-6,.89-7a5.53,5.53,0,0,1,.54-.73c.61-.63,1.66,1.37,1.87,4.81.71,10.16.29,20.71.7,31.22.12,3.11.29,6.23.65,9.27.17,1.52.42,3,.72,4.47.15.73.34,1.42.54,2.1.11.34.23.65.34,1a4.68,4.68,0,0,0,.2.45l.1.21c0,.09,0,.06,0,.1s0,0,0,0a1.17,1.17,0,0,0,.29.13,2.59,2.59,0,0,0,.4.15,13.42,13.42,0,0,0,2,.45Z"/><path class="cls-1" d="M420.67,91.19l-16.11.29c-2,0-3.92.16-5.88.19-6.91,0-13.78.29-20.72.41-3.08,0-6.17.12-9.23.11a62.24,62.24,0,0,1-11.8-.82c-1.21-.24-1-.81.13-1.28a12.83,12.83,0,0,1,5.22-.77c7.84.4,15.75,0,23.79,0,4.82,0,9.84-.36,14.75-.51L417,88.31l10-.3c5.05-.16,10.12-.26,15.12-.46,3.89-.15,7.71-.5,11.56-.71.85,0,1.68-.09,2.53-.11,3.18-.07,4.19.29,4.87,1.06a3.52,3.52,0,0,1,.45.55c.31.59-1,1.14-3.29,1.46-1.71.18-3.45.35-5.2.5s-3.53.19-5.32.27c-3.57.15-7.19.25-10.83.34l-16.24.36Z"/><path class="cls-1" d="M417.21,65.72a12.53,12.53,0,0,0-8.59-1.29c-.54.12-1.08.3-1.62.45s-1.07.42-1.61.61A33.36,33.36,0,0,0,395,72.41a31.83,31.83,0,0,0-3.77,4.27c-1.42,2-2.76,4-4.23,5.95-.47.6-.94.25-1.16-.62a5.36,5.36,0,0,1,.5-3.63A32.39,32.39,0,0,1,390.9,72a31.54,31.54,0,0,1,6-5.26,38.18,38.18,0,0,1,8.59-4.86,19,19,0,0,1,5.48-1.08,15.52,15.52,0,0,1,5.58.82,19.58,19.58,0,0,1,5.89,3.35A36.61,36.61,0,0,1,429,72.36c1.47,2.06,2.93,4.08,4.25,6.19a15.19,15.19,0,0,1,.85,1.39,5.83,5.83,0,0,1,.72,2,1.83,1.83,0,0,1-.11.68,3.94,3.94,0,0,1-.36.63c-.12.18-.21.38-.32.51s-.46.23-1,.07a3,3,0,0,1-1.48-1.17c-1.43-1.74-2.51-3.63-3.73-5.45s-2.42-3.65-3.75-5.34a22.26,22.26,0,0,0-6.89-6.08Z"/><path class="cls-1" d="M460.3,127.61l.28-6.87c0-.83,0-1.67,0-2.5.12-2.95.24-5.89.26-8.84,0-1.3,0-2.61-.1-3.9-.09-1.66-.23-3.32-.17-5,0-.52.36-.48.73-.07a4,4,0,0,1,.91,2.16,81.51,81.51,0,0,1,.54,10.24c0,2.06.17,4.19.24,6.29.08,2.31.1,4.61.1,6.92l0,4.27c0,2.15,0,4.31.07,6.44.07,1.66.32,3.29.43,4.93,0,.36.09.71.1,1.08,0,1.35-.18,1.79-1,2.08-.18.06-.37.15-.55.19-.61.13-1.13-.42-1.34-1.4a36.61,36.61,0,0,1-.65-4.48c-.1-1.53-.16-3.07-.14-4.62,0-2.3.11-4.62.16-6.92Z"/><path class="cls-1" d="M378.11,113.23c5.93.21,11.7-1.39,17.62-1.41,2.73,0,2.74-4.25,0-4.25-5.92,0-11.69,1.62-17.62,1.41-2.74-.09-2.73,4.16,0,4.25Z"/><path class="cls-1" d="M386.2,112.17c.1,4.82,2.59,13.94-.61,18-2.6,3.31-9,2.55-12.77,2.42-2.73-.1-2.73,4.15,0,4.25,5.08.17,11.89.55,15.7-3.51,4.82-5.14,2.06-15,1.93-21.17-.05-2.73-4.3-2.74-4.25,0Z"/><path class="cls-1" d="M406.57,111.88c-12-2.63-13.65,18.83-3.25,22.06,13.7,4.25,16.51-18.66,3.61-21.36-2.67-.55-3.81,3.54-1.13,4.1,7.74,1.62,6.67,16.08-1.37,13.15-5.13-1.87-5.17-15.21,1-13.85,2.67.58,3.81-3.51,1.13-4.1Z"/><path class="cls-1" d="M428.16,134.31c-.18-7-2.54-14.14-1.57-21.18.33-2.4,1-3.59,3.65-3.23,1.1.14,5,1.42,4.73,2.8-.32,1.88-7.21,2.55-9,3.27a2.12,2.12,0,0,0,1.13,4.09c3-.63,13.25-1.49,13.42,3.4.17,4.74-11.46,5.26-14.54,6.45-2.52,1-1.43,5.09,1.13,4.1,5.75-2.22,19.52-2.34,17.52-12-1.56-7.49-13-7.24-18.66-6.06l1.13,4.09c3.56-1.39,11.16-1.41,12.46-6,1.46-5.16-6.33-8.42-10.24-8.56-12.19-.44-5.53,22.22-5.37,28.8.07,2.73,4.32,2.74,4.25,0Z"/><path class="cls-1" d="M239.86,302.1c.17-.33.35-.66.53-1,.06-.12.11-.25.17-.37l.73-1.28a3.92,3.92,0,0,0,.29-.58,2.15,2.15,0,0,1,.43-.71c.13-.13.61.43.48.69a11.15,11.15,0,0,1-.8,1.42,5.53,5.53,0,0,0-.43.92l-.48,1-.31.63c-.16.32-.33.64-.47,1s-.18.52-.28.78l-.06.18c-.11.2-.19.23-.43.15l-.15-.06a.36.36,0,0,1-.23-.4,5.79,5.79,0,0,1,.5-1.37l.48-1Z"/><path class="cls-1" d="M385.23,418.9a19.89,19.89,0,0,1-1.83,8.47l-.49,1c-.18.32-.38.63-.58.94a15,15,0,0,1-1.27,1.77c-.44.59-1,1.07-1.46,1.6-.24.26-.57.5-.85.75a6.31,6.31,0,0,1-.92.69,11.7,11.7,0,0,1-6.25,2.06,22.28,22.28,0,0,1-10.39-2.7,53.42,53.42,0,0,1-8.7-5.57c-2.39-1.86-4.7-3.84-6.89-5.89a39.11,39.11,0,0,1-7.47-8.87c-.59-1.09,0-1.18.95-.65a17.42,17.42,0,0,1,4,3.1,92.22,92.22,0,0,0,8.36,7.68,75.39,75.39,0,0,0,9.21,6.6,24.31,24.31,0,0,0,6.22,2.62,13.7,13.7,0,0,0,6.38.19,9.17,9.17,0,0,0,3-1.41,11.42,11.42,0,0,0,1.27-1.17l.63-.66c.2-.22.37-.47.56-.71a15,15,0,0,0,1.84-3.09,15.88,15.88,0,0,0,1-3.49,19.21,19.21,0,0,0,.22-4.56,28.15,28.15,0,0,0-.68-4.62,64.09,64.09,0,0,0-5-13.55c-1.64-3.39-3.57-6.57-5.35-9.9-.39-.74-.81-1.44-1.17-2.21-1.38-2.82-1.41-3.95-.73-4.89a4,4,0,0,1,.41-.61c.26-.25.61-.11,1.1.29a6.62,6.62,0,0,1,1.54,2.07,188.45,188.45,0,0,1,9.52,18.59,58.14,58.14,0,0,1,2.67,7.76,33.14,33.14,0,0,1,1.21,8.39Z"/><path class="cls-2" d="M111.79,132.26a69.6,69.6,0,0,1,7.1,2.51,4.09,4.09,0,0,0,2.79-.26c.17-.06,2-.94,1.3-1.22a75.78,75.78,0,0,0-7.62-2.71,4.83,4.83,0,0,0-3,.56c-.4.2-1.46.84-.53,1.12Z"/><path class="cls-1" d="M360.25,435.88a36.45,36.45,0,0,1-6.29-4.07c-.71-.54-1.45-1-2.11-1.64a76.82,76.82,0,0,1-6.4-6.76l-2.67-3.08a21.07,21.07,0,0,1-3.12-4.15c-.26-.49.19-.74.89-.73a3.76,3.76,0,0,1,2.39,1c1.24,1.22,2.4,2.49,3.58,3.73s2.27,2.58,3.4,3.9a30.74,30.74,0,0,0,4.7,4.18,37.77,37.77,0,0,0,5.66,3.87,20.41,20.41,0,0,0,3.81,1.67,14,14,0,0,0,6.13.76,10.78,10.78,0,0,0,4.34-1.64c.31-.15.55-.4.84-.56a3.08,3.08,0,0,1,1.26-.53,1.86,1.86,0,0,1,1.08.49c.17.14.36.25.5.38a1,1,0,0,1,.29.93,1.9,1.9,0,0,1-.68,1.24,12.83,12.83,0,0,1-4.55,2.59,15.41,15.41,0,0,1-5.45.62,20.85,20.85,0,0,1-7.64-2.09Z"/><path class="cls-1" d="M404.76,293.15l4.46-5c.55-.6,1-1.27,1.61-1.86,1-1,2.06-2.06,3.21-3a19.06,19.06,0,0,1,1.85-1.4,5.49,5.49,0,0,1,2.61-1,1.56,1.56,0,0,1,.29,0h.69l.94,0,1.9-.12c1.63-.09,3.42-.3,5.14.56.54.28.15.9-.44,1.46a3.38,3.38,0,0,1-2.09,1.13c-1.43,0-3,.13-4.67.19-.43,0-.85,0-1.3,0h-.24c0,.49,0-.67,0-.54h0v.16c0,.1,0,.21,0,.31l0,.06h0a1.43,1.43,0,0,0-.21,0,9.2,9.2,0,0,0-1.73.91,24,24,0,0,0-4.18,4.08c-1.5,1.61-3,3.27-4.46,4.94l-2.71,3.11c-1.36,1.58-2.79,3.13-4.13,4.72-1,1.23-1.94,2.56-3,3.77-.24.27-.47.54-.73.79-1,.95-1.52,1-2.17.65a2.76,2.76,0,0,1-.45-.25c-.42-.34-.3-1,.2-1.81.82-1.12,1.6-2.31,2.5-3.43s1.84-2.26,2.77-3.41c1.39-1.7,2.85-3.38,4.28-5.1Z"/><path class="cls-1" d="M382.24,355.93a13.74,13.74,0,0,1-2.62.79,5.3,5.3,0,0,1-1.06.14,4.27,4.27,0,0,1-1-.13l-.49-.13-.47-.24a3.07,3.07,0,0,1-1.36-1.47,4.38,4.38,0,0,1-.43-1.62,2.3,2.3,0,0,1,.73-2c.18-.15.41.14.6.48s.41.69.37.87a2.52,2.52,0,0,0,.6,2.1,1.92,1.92,0,0,0,1.57.22,7.84,7.84,0,0,0,2.15-.58,14.67,14.67,0,0,0,1.34-.62,16.65,16.65,0,0,0,1.94-1.17c.48-.35.86-.82,1.33-1.21a2.73,2.73,0,0,1,.31-.27c.42-.29.69-.25,1,.18.08.1.16.19.23.29a1,1,0,0,1,0,1,7.75,7.75,0,0,1-2.46,2.17,21.27,21.27,0,0,1-2.32,1.23Z"/><path class="cls-1" d="M390.35,345.5a15.43,15.43,0,0,1-1.72.42c-.22,0-.41.14-.64.16a4.26,4.26,0,0,1-2.48-.53,6.22,6.22,0,0,1-.94-.64,5.7,5.7,0,0,1-.48-.51,1.33,1.33,0,0,1-.22-.64c0-.15.41-.3.85-.41s.9-.22,1-.13c.39.27.48.23.89.5a.66.66,0,0,0,.46.08l.51-.13a8.29,8.29,0,0,0,1.27-.34,7.75,7.75,0,0,0,.79-.33,5.08,5.08,0,0,0,1.16-.65,3.81,3.81,0,0,0,.64-.84,2,2,0,0,1,.12-.19c.21-.18.39-.1.84.3l.31.27a1.17,1.17,0,0,1,.46,1,3.11,3.11,0,0,1-1.27,1.87,7.21,7.21,0,0,1-1.49.83Z"/><path class="cls-1" d="M353.73,382.28a15.41,15.41,0,0,1-1.63,1.4,6.55,6.55,0,0,1-1,.64,4.34,4.34,0,0,1-1.2.4,12.48,12.48,0,0,1-1.52.27c-1.75.12-3.43,0-5.11,0-.75,0-1.49,0-2.22,0a11.29,11.29,0,0,1-2.84-.18c-.3-.07-.23-.39,0-.72a1.92,1.92,0,0,1,1.24-.72,48.11,48.11,0,0,1,5.63-.25,15.64,15.64,0,0,0,3.36-.47c.29-.07.58-.13.85-.21a4.32,4.32,0,0,0,.66-.26,6.82,6.82,0,0,0,1.34-1c.55-.52,1.09-1.09,1.63-1.68l2.49-2.67c.63-.7,1.16-1.48,1.79-2.19.14-.16.26-.33.4-.48.57-.54.86-.58,1.4-.21.12.08.25.16.36.25a1,1,0,0,1,.12,1.3,35.23,35.23,0,0,1-3,4c-.85.93-1.73,1.86-2.67,2.85Z"/><path class="cls-1" d="M232.28,304.77c1,1.09,2,2.2,3,3.26l1.62,1.51a18.93,18.93,0,0,0,1.66,1.45c.86.65,1.72,1.3,2.59,1.91a30,30,0,0,0,10.23,4.7c.81.21,1.65.28,2.48.42s1.68.08,2.51.12c2.14-.08,4.27-.23,6.43-.49.67-.06.64.18.13.56a9,9,0,0,1-1.09.68,4.88,4.88,0,0,1-1.69.58,17.34,17.34,0,0,1-3.45.36l-1.74-.08-.88-.05-.86-.13-1.72-.27c-.57-.13-1.13-.29-1.69-.44a22,22,0,0,1-3.28-1.17,17.17,17.17,0,0,1-1.9-.88c-.63-.32-1.28-.61-1.89-1l-1.82-1.1-.9-.56c-.29-.2-.56-.42-.84-.63l-1.84-1.42a22.64,22.64,0,0,1-1.72-1.53L233.93,309l-1.56-1.7c-.62-.7-1.31-1.36-1.87-2.11L228.75,303c-.92-1.09-1.69-2.29-2.51-3.46s-1.64-2.31-2.36-3.52c-1.16-1.86-2.44-3.6-3.49-5.49l-.72-1.23a10.5,10.5,0,0,1-.79-1.72,1.86,1.86,0,0,1,0-.93,2,2,0,0,1,.08-.33c.07-.13.24-.06.5.16a5.52,5.52,0,0,1,1,1.14c2.12,3.21,4.18,6.66,6.46,10,.88,1.21,1.7,2.47,2.61,3.65s1.86,2.34,2.82,3.48Z"/><path class="cls-1" d="M287.22,302.45l-1,4.76c-.13.58-.22,1.18-.37,1.76a19,19,0,0,1-1.08,3.07,5.9,5.9,0,0,1-2.18,2.68,3.69,3.69,0,0,1-3.12.18,8.06,8.06,0,0,1-3.12-1.93c-.27-.26-.07-.43.35-.46a3.26,3.26,0,0,1,1.59.34,4.7,4.7,0,0,0,2.8.72c.73,0,1.4-.68,2-1.61a13.81,13.81,0,0,0,1.29-4c.36-1.55.65-3.15.95-4.75l.57-3c.3-1.5.67-3,1.08-4.48a22.34,22.34,0,0,1,1.18-3.42,5.64,5.64,0,0,1,.38-.73c.56-.88,1-1,1.42-.84a2.23,2.23,0,0,1,.31.12c.28.19.24.68-.07,1.21a24.37,24.37,0,0,0-2,5.65c-.36,1.52-.7,3.1-1,4.69Z"/><path class="cls-1" d="M282.1,332.93a16.84,16.84,0,0,1,.6,2.4,12.94,12.94,0,0,1,.14,1.3,7.45,7.45,0,0,1-.11,1.83,3.71,3.71,0,0,1-1.15,2.21,3.84,3.84,0,0,1-4.14.28,5,5,0,0,1-1.58-1.49,5.16,5.16,0,0,1-.44-.75,5.79,5.79,0,0,1-.32-.73,21.24,21.24,0,0,1-.84-2.56,5.1,5.1,0,0,1,0-3.51c.2-.41.82-.06,1.44.32S277,333,277,333.4a15.74,15.74,0,0,0,.6,2.46c.14.38.28.78.43,1.11.06.16.18.37.19.44a1.09,1.09,0,0,0,0,.25.56.56,0,0,0,1,0,1,1,0,0,0,.14-.32,1.34,1.34,0,0,0,0-.45,8.87,8.87,0,0,0-.33-1.82,11.88,11.88,0,0,0-.87-2.25,8.77,8.77,0,0,0-1.72-2.48l.17-.06a.64.64,0,0,0,.16-.2c0-.09.06-.22.06-.19a.06.06,0,0,0,0-.06.23.23,0,0,0,.06.15,2.05,2.05,0,0,0,.22.28l.15.11v0l0,.16a2.69,2.69,0,0,0,0,.52,9.21,9.21,0,0,0,.14,1.19l.13.48c.1.55-.15.64-.83,1.21l-.44.41a1,1,0,0,1-.87.26,1.58,1.58,0,0,1-.95-.7,5.74,5.74,0,0,1-.81-3.16,5.09,5.09,0,0,1,.46-1.91,3.91,3.91,0,0,1,.39-.66,3.43,3.43,0,0,1,.38-.42,2.47,2.47,0,0,1,.54-.42,3.11,3.11,0,0,1,.87-.35,3.26,3.26,0,0,1,1,0,2.59,2.59,0,0,1,.83.24,5.14,5.14,0,0,1,.64.38l.06.05.1.09a8.7,8.7,0,0,1,.73.77,14.89,14.89,0,0,1,2.47,4.36Z"/><path class="cls-1" d="M314.07,368.17a60.09,60.09,0,0,0-2.13-7.95c-.33-1-.79-1.84-1.13-2.78a41.46,41.46,0,0,0-5.11-9.23,23.35,23.35,0,0,0-1.5-1.82l-1.66-1.65c-.75-.67-1.54-1.29-2.28-2s-1.59-1.24-2.35-1.92c-1-.83,1.08-1.13,3.31,0,.9.61,1.86,1.16,2.71,1.86s1.63,1.46,2.42,2.23,1.47,1.64,2.15,2.5,1.23,1.83,1.79,2.77a77.87,77.87,0,0,1,3.72,7.07,54.69,54.69,0,0,1,2.7,8.3c.37,1.74.79,3.47,1.06,5.22l.35,2,.27,2,.28,2,.24,2c.29,2,.57,4.05.85,6.08a10,10,0,0,1,.11,1.34,5.45,5.45,0,0,1-.18,1.79,2,2,0,0,1-.69.82c-.13.08-.24.2-.35.25s-.37,0-.61-.33a3.21,3.21,0,0,1-.67-1.35,24.81,24.81,0,0,1-.63-2.68c-.18-.91-.34-1.82-.49-2.74s-.31-1.83-.46-2.75-.21-1.87-.37-2.79c-.4-2.75-.79-5.51-1.43-8.21Z"/><path class="cls-2" d="M447.82,259.74c2.15-1.87,4.32-3.71,6.61-5.4.62-.46,1-1.25.25-1.78a2.6,2.6,0,0,0-2.69.27c-2.53,1.86-4.91,3.9-7.28,6-.67.58-.27,1.4.44,1.65a2.83,2.83,0,0,0,2.67-.71Z"/><path class="cls-2" d="M452.71,272.11c2.31-.87,4.66-1.62,7-2.53.57-.23,1.49-.91,1-1.59s-1.9-.33-2.51-.09c-2.29.92-4.64,1.66-6.94,2.53-.58.22-1.49.92-1,1.59s1.89.32,2.51.09Z"/><path class="cls-2" d="M123,140.69a14.79,14.79,0,0,0-6.67,3.37c-.75.67.66.84,1.06.82a4.94,4.94,0,0,0,2.9-1.07,6.81,6.81,0,0,1,3.11-1.62c.45-.1,2.17-.62,2-1.33s-2-.26-2.38-.17Z"/></g></svg>