<svg xmlns="http://www.w3.org/2000/svg" width="520" height="520" viewBox="0 0 520 520"><defs><style>.cls-1{fill:#231f20;}</style></defs><title>Notioly New upgrade</title><g id="n.118_Settings" data-name="n.118 Settings"><path class="cls-1" d="M265.53,315.3c.19-.76.4-1.51.58-2.27.06-.27,0-.56.08-.83.27-1,.61-1.94.85-2.91a3.6,3.6,0,0,0,0-1.31c0-.56-.32-1.14.17-1.67.31-.32,4.4.39,4.39,1a6.31,6.31,0,0,1-.92,3.37,5.77,5.77,0,0,0-.39,2.08c-.15.77-.34,1.53-.5,2.29-.11.47-.22.94-.3,1.41a13.19,13.19,0,0,0-.28,2.15,7.52,7.52,0,0,0,.42,1.68,1.6,1.6,0,0,1,.12.37c.05.45-.25.58-1.39.6-.27,0-.53,0-.79,0a2.42,2.42,0,0,1-1.83-.59,4.67,4.67,0,0,1-.68-3.11c.05-.77.2-1.54.31-2.31Z"/><path class="cls-1" d="M235.25,351c.33-.9.69-1.79,1.07-2.67l.29-.65c0-.09.12-.27.13-.28l0,0,.15-.19a1.13,1.13,0,0,0-.09-.2l0-.05s0,0-.09-.13l-.4-.51-1.61-2.05c-.8-1-1.7-1.95-2.49-3l-2-2.65-.51-.67-.84-1.06-1.69-2.12,1.9-2.19.85-1,.58-.65,2.33-2.63c1.34-1.52,2.59-3.12,3.81-4.72a36.22,36.22,0,0,1,4.93-6c1.24-1.07,3.15,3.12,1.31,5.45-1.64,2.07-3.32,4.09-5.07,6.07-.88,1-1.77,2-2.68,2.93l-1.39,1.44-.7.71-.09.09h0l0,0-.12.07a2.11,2.11,0,0,0-.42.29,3.55,3.55,0,0,0,.31.49l.14.18.33.39.66.78c.88,1.05,1.78,2.08,2.63,3.15l2.37,3,1.18,1.49,1.87,2.31c-.36.76-.73,1.51-1.06,2.26l-.35.8-.3.69c-.4.95-.77,1.92-1.1,2.89-.17.49-.33,1-.48,1.49-.22.75-.41,1.53-.61,2.29l-.3.09-5.51,1.51c-1.6.45-3.2.9-4.78,1.4-.62.2-1.34.45-1.87.65a9.18,9.18,0,0,0-.88.42c0,.33.08.63.12.89a5.87,5.87,0,0,1,.06.73l0,.9c0,.56.09,1.11.09,1.67,0,2.09-.3,2.75-1.45,3.16a5,5,0,0,1-.79.28c-.89.17-1.59-.7-1.8-2.24-.15-1.08-.26-2.17-.34-3.28l-.05-.82,0-.45V361c0-1.08,0-2.17,0-3.26l5.47-1.78,3.62-1.12,3.2-.93,1.61-.44h0l0,0h0l.13-.43c.2-.69.42-1.37.66-2.05Z"/><path class="cls-1" d="M272.7,422.3l-.87-3.74-.43-1.87a1.13,1.13,0,0,1,0-.23v-.09l0-.2-.16-.07-.08,0,0,0-.22-.07c-.63-.19-1.26-.39-1.88-.61-1.37-.48-2.77-.89-4.1-1.5l-.51-.24a.69.69,0,0,1-.15-.09l-.27-.17-.4.18-1.29.79L259.55,416l-2.67,1.65-1.34.83-1.69,1.08-1.82,1.2-2.8-2.44-1.95-1.62a42.57,42.57,0,0,1-6.24-5.53c-1.11-1.35,3.25-3,5.69-.94,1.23,1.05,2.46,2.12,3.66,3.21l1.8,1.65.11.1s0,0,0,0h0v0s0,.06,0,.1l.13,0h0l.39-.24.79-.46c1.05-.61,2.11-1.2,3.19-1.79s1.92-1.1,2.86-1.71l1.41-.93,2.32-1.57,1.44.65,1.25.55,1.67.68q1.41.57,2.85,1.05c.51.16.91.3,1.51.47.82.23,1.65.43,2.47.64.81,3.15,1.05,4.26,1.49,6.06.56,2.3,1.11,4.6,1.67,6.89l.31,1.35,1.11,0,1.91-.09c1.37-.07,2.74-.16,4.1-.27,2.75-.24,5.43-.71,8.14-1.09.6-.08,1.18-.2,1.79-.26,2.24-.22,3,0,3.53,1.12a6.5,6.5,0,0,1,.37.75c.27.87-.59,1.66-2.22,2a99.67,99.67,0,0,1-15.11,1.9l-6.81.42-1.5-5.72-.87-3.44Z"/><path class="cls-1" d="M318.24,414.08c-.71-.44-1.42-.91-2.14-1.34-.26-.15-.57-.19-.83-.36-.9-.59-1.79-1.25-2.7-1.82a4.56,4.56,0,0,0-1.33-.5c-.59-.15-1.27-.09-1.65-.74-.24-.4,1.76-4,2.42-3.82a7.38,7.38,0,0,1,3.16,2.05,6.77,6.77,0,0,0,2,1.09c.73.41,1.45.85,2.18,1.27.45.26.89.53,1.35.77a14.45,14.45,0,0,0,2.1,1,8.67,8.67,0,0,0,1.85.18,1.94,1.94,0,0,1,.42,0c.48.11.51.44.18,1.53-.08.25-.15.5-.23.75-.29.83-.75,1.43-1.18,1.53a5.3,5.3,0,0,1-3.39-.42c-.77-.31-1.51-.73-2.26-1.1Z"/><path class="cls-1" d="M290.79,358.05a15.64,15.64,0,0,0-1.75-1.41,10.65,10.65,0,0,0-3.82-1.67,12.25,12.25,0,0,0-4.23-.27,7.89,7.89,0,0,0-1.45.24l-.58.16c-.18.08-.41-.08-.7-.38a2.13,2.13,0,0,1-.69-1.56,1.24,1.24,0,0,1,.32-.81c.37-.25.74-.49,1.13-.72s.82-.36,1.24-.52a8.47,8.47,0,0,1,1.71-.46l.88-.17c.29,0,.59-.05.89-.07,1-.1,2,.18,3,.06a6.88,6.88,0,0,1,2.26.33c.73.24,1.45.45,2.22.63a8,8,0,0,1,1.09.3c.34.15.68.31,1,.49.69.32,1.27.8,1.95,1.17a14.43,14.43,0,0,1,4.28,4.5c.18.3.41.57.61.87a6,6,0,0,1,.52,1,6.2,6.2,0,0,1,.35,1.47l.11.76.07.69a13.92,13.92,0,0,1,.14,3.68,10.94,10.94,0,0,1-2.55,5.69,9.23,9.23,0,0,1-1.28,1.45,11.43,11.43,0,0,1-2.28,1.11,12.13,12.13,0,0,1-3.57,1,1.57,1.57,0,0,0-.36.19,5.38,5.38,0,0,1-3.89,0,10.81,10.81,0,0,1-5.81-4.49,10,10,0,0,1-.83-1.81,11,11,0,0,1-.45-1.7,12.69,12.69,0,0,1-.19-2,15.62,15.62,0,0,1,.55-4.24,15.79,15.79,0,0,1,1.85-4.43,10.84,10.84,0,0,1,.92-1.26,8.67,8.67,0,0,1,1.46-1.32l.45-.3c.17-.1.36-.19.54-.28a5.34,5.34,0,0,1,1.16-.43,8,8,0,0,1,1.27-.21,8.17,8.17,0,0,1,1.21.05,5.24,5.24,0,0,1,1.05.23,5.17,5.17,0,0,1,.9.33,8.37,8.37,0,0,1,1.33.77,12.07,12.07,0,0,1,.95.78l.72.72a16.26,16.26,0,0,1,2.37,3.49l.14.26c.2.31,0,.76.75.83.26,0,.2.27.22.43s-.1.36.34.37c.2,0,.18.19.12.33-.34.77-.71,1.42,0,1.88.22.14,0,.4.11.58.42.84.09,1.75.68,2.63.22.34-.2.72-.34,1.07-.06.14-.17.28-.09.42a1.63,1.63,0,0,1-.08,1.64,10.06,10.06,0,0,0-.56,2.27,13.36,13.36,0,0,1-.79,2,21,21,0,0,1-1.74,2.55,5.2,5.2,0,0,1-.68,1,7.47,7.47,0,0,1-3.78,2.13,5.93,5.93,0,0,1-2.89-.35,5.84,5.84,0,0,1-1.42-.64,6.18,6.18,0,0,1-1.08-.8,7.61,7.61,0,0,1-.8-.82c-.2-.26-.4-.52-.59-.79a13,13,0,0,1-.85-1.52,10.37,10.37,0,0,1-.63-1.77,7.67,7.67,0,0,1-.38-2.76c.19-1.45.56-2.65.72-3.84a4.63,4.63,0,0,1,1.26-2.11,6.2,6.2,0,0,1,.83-1l1-.83c.53-.42,1.52.14,2.44.88a8.37,8.37,0,0,1,1.86,1.83,3.89,3.89,0,0,0-.17.69c-.05.35-.23.75-.34,1.24a8.55,8.55,0,0,0-.36,3,2.65,2.65,0,0,0,.34,1,2.05,2.05,0,0,0,.24.32l.32.36c.09.05.17.12.21.13h0l-.1.13-.2.27-.12.15a1.8,1.8,0,0,0-.35.71c0,.05,0,0,0,0v0a.88.88,0,0,0,0-.17l0-.08a.94.94,0,0,0,0-.16,1.45,1.45,0,0,0-.11-.29c-.05-.09-.11-.27-.18-.39a1.18,1.18,0,0,0-.11-.19l-.06-.09h0l0,0a2.35,2.35,0,0,0,.65-.7,4,4,0,0,0,.42-.88c.1-.31.18-.6.26-.92a6.17,6.17,0,0,0,.35-2.05,5,5,0,0,0-.57-1.65,1.06,1.06,0,0,1,0-.25,1.13,1.13,0,0,0,0-.32,3.54,3.54,0,0,0-.26-.41.36.36,0,0,0-.11-.16s-.2,0-.17-.07a.78.78,0,0,0-.12-1.08c-.06-.06,0-.17-.09-.22-.63-.56-1.45-.74-1.54-1.42,0-.14-.08-.27-.3,0s-.16.15-.12,0,.28-.39.4-.68.13-.32.19-.48.1-.21.13-.33a1.58,1.58,0,0,0,.09-.31,1.4,1.4,0,0,1,0-.26.75.75,0,0,0,0-.26c0,.06,0,0,0,.09a1.07,1.07,0,0,0,.2.36,2.19,2.19,0,0,0,.43.55,3.79,3.79,0,0,0,.71.68l.23.18c.07.06,0,0,0,0h0a.71.71,0,0,0,0,.15.74.74,0,0,1-.1.43,5.3,5.3,0,0,0-.36,1.42c-.06.37,0,.64-.07.91s0,.44,0,.54a4,4,0,0,0,0,.75.64.64,0,0,0,.17.36.35.35,0,0,0,.16.08,1.71,1.71,0,0,0,1.06-.24,3.11,3.11,0,0,0,.72-.29,2.71,2.71,0,0,0,1.1-2.32,5.44,5.44,0,0,0-.91-3.46c-.16-.25-.3-.5-.46-.7s-.32-.38-.44-.54A2.62,2.62,0,0,0,290.79,358.05Z"/><path class="cls-1" d="M248.73,236.43,223,265.64s-59.67,3.19-69.87-16.64c0,0-.8-104.15,38.55-146.47,0,0,17.94-27.79,57.41-9.47,0,0,4.18-11.69,16.12-16.42s36.68-.06,49.84,19.89c0,0,42.62,62.21,41.68,115.9,0,0,1.65,11.09.83,12.14s-22,23.15-57.05,27.65L280.3,237l1.48-4.11s16.71-5,23.57-43.53c0,0,3.57-20.48,0-30.13,0,0-41-10.2-49.58-37.36,0,0-.1,31.72-52.2,48.5,0,0,7.05,40.93,27.52,56.17C231.09,226.55,241.42,234.93,248.73,236.43Z"/><path class="cls-1" d="M283.27,233.51c-.55.4-1.08.84-1.66,1.22l-1.74,1.1a33.31,33.31,0,0,1-3.68,2,31.35,31.35,0,0,1-8,2.33,41.13,41.13,0,0,1-16.33-1,53,53,0,0,1-11.09-4.13,50.82,50.82,0,0,1-8.73-5.71l-1.94-1.77a22.83,22.83,0,0,1-1.87-1.81,50.22,50.22,0,0,1-3.4-3.92,87.09,87.09,0,0,1-10.49-17.6c-2.52-5.48-4.73-11.13-6.69-16.76-1.28-3.61-2.44-7.28-3.48-11a107.38,107.38,0,0,1-2.6-11.19c-.36-2.36.16-2.16,1.3-.37a38.51,38.51,0,0,1,2,3.76,45,45,0,0,1,2.1,5.56c2.29,7.38,4.59,14.74,7.43,21.88a110.13,110.13,0,0,0,10.38,20.49A47.91,47.91,0,0,0,234,227a50.5,50.5,0,0,0,12.07,7,45.57,45.57,0,0,0,14.88,3.35,29.84,29.84,0,0,0,14.69-3,35.44,35.44,0,0,0,4-2.41c.65-.45,1.26-.95,1.89-1.42l.94-.72.89-.79a44.3,44.3,0,0,0,6.46-6.94,70,70,0,0,0,11.79-26.3,106.23,106.23,0,0,0,2.55-22.12c0-1.63,0-3.22,0-4.86,0-3.05-.13-5-.06-6.43a8,8,0,0,1,.63-2.92c.15-.33.27-.74.37-1s.26-.29.51-.06a1,1,0,0,1,.21.23l.18.26a4.54,4.54,0,0,1,.35.73,18.23,18.23,0,0,1,1.12,5.22,102.25,102.25,0,0,1-.48,20.94,97.29,97.29,0,0,1-5,21.07,69.34,69.34,0,0,1-7.38,14.64,50.31,50.31,0,0,1-11.29,12.1Z"/><path class="cls-1" d="M244.75,147.66a61.2,61.2,0,0,1-8.11,7.75c-1.1.81-2.1,1.74-3.25,2.47a69.54,69.54,0,0,1-12.63,6.64l-2.93,1.16c-1,.39-2,.72-2.94,1.08a37.76,37.76,0,0,1-7.72,2.12c-.83.12-.85-.47-.32-1.22a6,6,0,0,1,3-2.1c1.24-.45,2.5-.85,3.73-1.31s2.48-.9,3.68-1.43,2.46-.94,3.66-1.48,2.43-1.05,3.64-1.6a45.66,45.66,0,0,0,8.18-5.22,59.27,59.27,0,0,0,8-7.15,50.12,50.12,0,0,0,4.2-5.1,52.17,52.17,0,0,0,5.12-8.63,53.81,53.81,0,0,0,2.56-7.25c.16-.55.28-1.09.46-1.64.68-2,1.18-2.65,2.17-2.75a2.89,2.89,0,0,1,.65,0c.66.14.84,1,.56,2.54a47.12,47.12,0,0,1-5.17,13.85,58.52,58.52,0,0,1-6.46,9.35Z"/><path class="cls-1" d="M282.8,153.35a83.65,83.65,0,0,1-8.62-5.54c-1-.73-2.05-1.42-3-2.21a60.27,60.27,0,0,1-4.84-4.47c-.79-.77-1.5-1.62-2.24-2.42s-1.42-1.67-2.06-2.56-1.18-1.55-1.74-2.35-1.1-1.59-1.64-2.39a22,22,0,0,1-3.24-6.67c-.21-.75.19-.79.87-.39a8.11,8.11,0,0,1,2.43,2.33,71.2,71.2,0,0,0,8.59,11.53,42.23,42.23,0,0,0,6.76,5.84,73.85,73.85,0,0,0,8.3,5.41c1.77,1,3.59,1.95,5.44,2.82a73.35,73.35,0,0,0,8.62,3.44,54.23,54.23,0,0,0,6.91,1.57l1.53.24a4.76,4.76,0,0,1,1.94.64,1.75,1.75,0,0,1,.75,1,5.06,5.06,0,0,1,.18.6c.1.63-.8,1.08-2.32,1.11a45.49,45.49,0,0,1-13.26-3.14,86.63,86.63,0,0,1-9.38-4.36Z"/><path class="cls-1" d="M152.17,210.92A332.9,332.9,0,0,1,160,165.76c1.37-5.41,2.82-10.82,4.61-16.11,1.57-4.67,3.33-9.29,5.25-13.82s3.86-9,6-13.45c4.26-8.86,9.46-17.55,16.71-24.49a57.91,57.91,0,0,1,10.59-8,40,40,0,0,1,12.37-4.94,48.55,48.55,0,0,1,8.5-1,43,43,0,0,1,8.54.73,21,21,0,0,1,2.09.46c.7.19,1.4.33,2.08.56a37.39,37.39,0,0,1,4,1.56,34.25,34.25,0,0,1,3.8,2,19.16,19.16,0,0,1,1.76,1.23A16.23,16.23,0,0,1,248,91.79c2.61,2.42,2,2.33-.78,1.18a98.18,98.18,0,0,0-13.5-4.17c-1.28-.36-2.61-.51-3.92-.75s-2.64-.31-4-.3a37.8,37.8,0,0,0-7.95.54,36,36,0,0,0-7.65,2.12,38.75,38.75,0,0,0-3.59,1.64c-1.16.69-2.35,1.35-3.5,2.06-9.17,5.81-16.23,14.56-21.56,24.39a187.58,187.58,0,0,0-8.68,18.65A197.88,197.88,0,0,0,166,156.73a285.82,285.82,0,0,0-9.27,44.7c-1.23,9.31-2.17,18.69-2.78,28-.22,3.54-.39,7.1-.42,10.63,0,1.77,0,3.54.15,5.27a22.88,22.88,0,0,0,.32,2.54,6.44,6.44,0,0,0,.29,1.15,1.81,1.81,0,0,0,.19.44l.09.16.2.22a26.67,26.67,0,0,0,8.29,6,59.25,59.25,0,0,0,9.77,3.77,109.32,109.32,0,0,0,15.9,3.32,144.53,144.53,0,0,0,16.1,1.28c2.37,0,4.69,0,7.07-.07,4.42-.13,7.29-.46,9.31-.58a36,36,0,0,1,4.25,0c.45,0,1.05,0,1.33,0,.47.06-.13.46-1.66,1.18a23.82,23.82,0,0,1-7.41,1.9,120.3,120.3,0,0,1-30.21-.85,113.2,113.2,0,0,1-15.22-3.27,61.2,61.2,0,0,1-14.75-6.17,21.84,21.84,0,0,1-4.89-4l-.55-.6a5.78,5.78,0,0,1-.7-1.1,10.09,10.09,0,0,1-.6-1.85,26.73,26.73,0,0,1-.44-3.15,103,103,0,0,1,0-11.78c.34-7.74,1-15.42,1.8-23.08Z"/><path class="cls-1" d="M351,183a257.81,257.81,0,0,0-12.65-41.87c-2-4.92-4.35-9.72-6.63-14.55a163.23,163.23,0,0,0-13.86-24.4A75.66,75.66,0,0,0,298.23,82.6a46.62,46.62,0,0,0-11.06-5.39,33.59,33.59,0,0,0-12-1.7,34.16,34.16,0,0,0-7.65,1.37,26.58,26.58,0,0,0-7,3.19,35,35,0,0,0-3.12,2.32,25.48,25.48,0,0,0-2.81,2.67A60.93,60.93,0,0,0,250,91.48c-1,1.39-1.53,1.89-1.63,1.75s.2-.93.75-2.23a50.38,50.38,0,0,1,2.54-5.36,18.48,18.48,0,0,1,2.44-3.34,28.39,28.39,0,0,1,3.38-3.12A27.6,27.6,0,0,1,265,75a35.65,35.65,0,0,1,4.1-1.23c.69-.17,1.38-.31,2.08-.45s1.42-.23,2.14-.32a36,36,0,0,1,16.85,2.49A55,55,0,0,1,304.66,84,75.39,75.39,0,0,1,316.42,96c8.37,10.45,14.79,22.78,20.46,35A228.84,228.84,0,0,1,351.54,173c1.12,4.43,2.11,8.88,3.14,13.31s2,8.9,2.86,13.39a116.82,116.82,0,0,1,2.28,20.72v2.14a1.64,1.64,0,0,1,0,.22l-.12.2-.25.38-.76,1.15-.81,1.06a42.36,42.36,0,0,1-3.53,3.91,65.14,65.14,0,0,1-8,6.71,90.71,90.71,0,0,1-13.73,8.2c-1.2.57-2.42,1.08-3.63,1.63-.61.26-1.21.54-1.83.79l-1.86.7c-1.25.45-2.48.95-3.74,1.37l-3.82,1.16c-.56.16-1.11.34-1.68.49l-1.69.4-3.42.8c-2.14.47-3.95.67-5.45.91l-2.05.28c-.62,0-1.18.07-1.69.08a17.56,17.56,0,0,1-4.16-.31c-.44-.1-1-.18-1.26-.28-.86-.35,2.63-1.12,8.78-2.25,2.28-.46,4.58-.87,6.84-1.52l3.42-.88,3.37-1.08a95.24,95.24,0,0,0,13.29-5.24l3.21-1.62c1.05-.58,2.09-1.19,3.13-1.79s2.06-1.26,3.07-1.91l1.52-1,1.47-1.06a60.25,60.25,0,0,0,10.65-9.61c.51-.69,1.11-1.36,1.54-2.06l.3-.46,0,0v-1c0-1.8-.06-3.6-.18-5.41-.24-3.62-.7-7.24-1.28-10.85-1.17-7.23-2.85-14.42-4.53-21.64Z"/><path class="cls-1" d="M153.92,357.77c6.48-11.16,13.5-22,20.81-32.57,2.67-3.86,5.29-7.76,8.05-11.55,9.7-13.41,19.92-26.41,30.45-39.15,4.67-5.64,9.36-11.33,14.08-16.87,3.07-3.53,6.14-7.07,9.33-10.52q2.37-2.58,4.86-5.09c1.64-1.67,3.41-3.22,5.2-4.76,2.28-1.87,2.24-1.28.84.81-.68,1.06-1.68,2.51-2.89,4.27S241.87,246,240.1,248q-4.71,5.34-9.27,10.81l-9.22,10.88q-9.17,10.95-18.18,22.15c-7.2,8.92-14.19,18.61-21,28.19-7.44,10.53-14.63,21.25-21.32,32.26-4.11,6.79-8,13.69-11.65,20.73-2.73,5.35-5.3,10.78-7.56,16.33a111.63,111.63,0,0,0-5.52,17,54.13,54.13,0,0,0-1.49,13.45,25.22,25.22,0,0,0,3.33,12.46,18.57,18.57,0,0,0,3.69,4.12c.34.27.66.54,1,.8l1,.62.87.59c.28.18.58.3.85.45.55.28,1,.58,1.46.83l1.25.61a15.93,15.93,0,0,1,3.05,1.87,7.78,7.78,0,0,1,.91.82c.29.39-.33.52-1.77.42a12.33,12.33,0,0,1-2.71-.43l-1.75-.47c-.61-.23-1.26-.48-1.93-.79l-.76-.34c-.24-.13-.47-.28-.71-.42l-1.44-.87a13.27,13.27,0,0,1-1.35-1,17,17,0,0,1-1.31-1.1,20.73,20.73,0,0,1-2.28-2.58c-.34-.47-.68-.93-1-1.41l-.83-1.52a28.79,28.79,0,0,1-3-13.26,59.81,59.81,0,0,1,1.58-13.31,105,105,0,0,1,3.79-12.75c4.49-12.36,10.54-24,17-35.33Z"/><path class="cls-1" d="M382.9,369.72c-2.95-6.5-6.19-12.87-9.65-19.14s-7.16-12.39-11.05-18.41c-2.85-4.39-5.84-8.67-8.85-12.94a439.51,439.51,0,0,0-34.61-43.14c-2.71-3.07-5.6-6-8.42-9s-5.79-5.8-8.66-8.67L296,253.06c-1.88-1.82-3.8-3.6-5.72-5.38L287.39,245a34.77,34.77,0,0,0-2.73-2.83c-1.91-1.79-3.85-3.54-5.71-5.38-2.21-2.42-1.79-2.25.66-.85A128.39,128.39,0,0,1,291.05,244c8.1,7.05,15.65,14.69,23.08,22.46s14.52,15.89,21.3,24.32c8.13,10.06,16.46,20.65,23.94,31.57a332.77,332.77,0,0,1,22.27,37.54,214.71,214.71,0,0,1,10.64,24.7,115.26,115.26,0,0,1,5.28,19.75,51.18,51.18,0,0,1,.69,10.29c-.05.87-.18,1.74-.27,2.6s-.38,1.73-.57,2.6a21,21,0,0,1-2.17,4.81,12.71,12.71,0,0,1-6.39,5.23,16.69,16.69,0,0,1-8.12.72,31.35,31.35,0,0,1-7.69-2.09A52.33,52.33,0,0,1,366,425a64.39,64.39,0,0,1-5.79-3.76,49.14,49.14,0,0,1-7-5.93,10.7,10.7,0,0,1-2.38-3.36,9.06,9.06,0,0,1-.46-1.24c-.09-1,2.56,1.19,7.34,5a77.32,77.32,0,0,0,11.4,7.54,35.9,35.9,0,0,0,12.7,4.34,13.13,13.13,0,0,0,6.16-.68,9.53,9.53,0,0,0,4.53-3.72c.29-.43.53-.9.8-1.35s.45-1,.65-1.47.37-1,.52-1.55l.35-1.56a29.08,29.08,0,0,0,.26-6.76c-.06-1.72-.34-3.46-.56-5.19s-.57-3.47-1-5.2c-.2-.86-.37-1.73-.59-2.59l-.7-2.58c-.43-1.73-1-3.43-1.52-5.14a180.76,180.76,0,0,0-7.87-20.05Z"/><path class="cls-1" d="M274.36,256.83a10.57,10.57,0,0,1-2.64,1.13,11,11,0,0,1-1.33.28c-.43.06-.85.15-1.28.19a17.85,17.85,0,0,1-5.21-.13,14.2,14.2,0,0,1-3.68-1,17.24,17.24,0,0,1-5.33-3.84,27.85,27.85,0,0,1-3.73-5.13c-.93-1.59-1.79-3.22-2.58-4.85-.5-1-1-2.09-1.45-3.15s-.83-2.14-1.24-3.17c-.26-.61.05-.75.7-.4a6.56,6.56,0,0,1,2.2,2.37c2.15,4.15,4.25,8.18,7.11,11.56a13.74,13.74,0,0,0,10.8,4.9,16.45,16.45,0,0,0,2.2-.18,17.51,17.51,0,0,0,2.12-.46,8.19,8.19,0,0,0,4.07-3,18.3,18.3,0,0,0,3-7.82,43.52,43.52,0,0,0,.34-6.67c0-.5,0-1,0-1.49.12-1.87.45-2.5,1.4-2.78a4.1,4.1,0,0,1,.65-.16c.72,0,1.16.72,1.27,2.06a36.61,36.61,0,0,1-1.17,12.91,19.43,19.43,0,0,1-2.13,4.89,12.49,12.49,0,0,1-4,4.09Z"/><path class="cls-1" d="M271.55,180.67c-.79,2.45.07,8,3.74,7.14,4.51-1.11,2.75-7.53-.36-9.2a1.92,1.92,0,0,0-2.27.29,4.3,4.3,0,0,0-1.18,2.9,1.89,1.89,0,0,0,1.88,1.87,1.91,1.91,0,0,0,1.87-1.87c.07-.63,0-.13.08-.25l-2.27.29c.16.11.17.1,0,0l.21.2a2.85,2.85,0,0,1,.33.39,4.63,4.63,0,0,1,.58,1.1c0-.07.16.64.13.42,0,.1-.07.62,0,.29s-.18,0-.05,0a1.22,1.22,0,0,1,.63,0c.3.08.31.21.53.38-.09-.07-.22-.42-.1-.12a3.48,3.48,0,0,1-.17-.61c0-.07-.11-.67-.08-.36a8.69,8.69,0,0,1,0-1.14c0-.17,0-.34,0-.51-.07.49,0-.06.08-.16.74-2.3-2.88-3.29-3.62-1Z"/><path class="cls-1" d="M246.22,181.67c-.79,2.45.07,8,3.74,7.14,4.51-1.11,2.75-7.53-.36-9.2a1.92,1.92,0,0,0-2.27.29,4.3,4.3,0,0,0-1.18,2.9,1.88,1.88,0,0,0,3.75,0c.07-.63,0-.13.08-.25l-2.27.29c.16.11.17.1,0,0a1.34,1.34,0,0,1,.21.2,4,4,0,0,1,.34.39,4.6,4.6,0,0,1,.57,1.1c0-.07.16.64.13.42,0,.1-.07.62,0,.29s-.18,0-.05,0a1.22,1.22,0,0,1,.63,0c.3.08.31.21.53.38-.09-.07-.22-.42-.09-.12a4.69,4.69,0,0,1-.18-.61c0-.07-.11-.67-.07-.36a6.21,6.21,0,0,1,0-1.14,4.36,4.36,0,0,1,0-.51c-.07.49.05-.06.08-.16.74-2.3-2.88-3.29-3.62-1Z"/><path class="cls-1" d="M261,174a27.14,27.14,0,0,1,1-9.26c.19-.56.32-1.12.54-1.67a11.2,11.2,0,0,1,.74-1.61,23.91,23.91,0,0,1,8.38-8.4,22,22,0,0,1,4.79-2.23,9.29,9.29,0,0,1,6.8.19c.66.3.35.71-.33,1.06a8.21,8.21,0,0,1-1.21.49,5.48,5.48,0,0,1-1.46.36,11.07,11.07,0,0,0-2.69.63,9.7,9.7,0,0,0-1.34.47,11,11,0,0,0-1.31.6,30.79,30.79,0,0,0-5,3.28,15.74,15.74,0,0,0-4.38,5.92,21.13,21.13,0,0,0-1.53,8.11,36.07,36.07,0,0,0,.32,5.28,43.37,43.37,0,0,0,1.76,7.88,44.64,44.64,0,0,0,2.47,5.66c.18.42.4.8.6,1.21a10.61,10.61,0,0,1,.41,1,3.22,3.22,0,0,1,.12.75,1.85,1.85,0,0,1-.24,1,3.6,3.6,0,0,1-.22.4c-.26.33-1-.09-1.92-1.06a32.93,32.93,0,0,1-4.88-11,46.62,46.62,0,0,1-1.49-9.09Z"/><path class="cls-1" d="M246.2,157.12c-7.1-3.34-14.93-2-21.41,2.14-2,1.29-.15,4.54,1.9,3.23,5.26-3.34,11.74-4.89,17.62-2.13,2.17,1,4.07-2.21,1.89-3.24Z"/><path class="cls-1" d="M300.06,369.52a14.54,14.54,0,0,0-1-11,14,14,0,0,0-2.5-3.32,14.22,14.22,0,0,0-19.72-1.42,20.22,20.22,0,0,0-4.94,6.94c-.38.8-1.16.51-1.65-.54a5,5,0,0,1,.52-4.69,17.57,17.57,0,0,1,8.13-6.77,17,17,0,0,1,10.45-.81,21.21,21.21,0,0,1,5.9,2.32,17.37,17.37,0,0,1,4.82,4.17,17.59,17.59,0,0,1,3.62,13.07,17.41,17.41,0,0,1-3,7.83,17.88,17.88,0,0,1-10.21,7.08l-1.18.29c-.4.08-.81.12-1.21.19a16.36,16.36,0,0,1-2.42.21,17.54,17.54,0,0,1-4.87-.61,15.14,15.14,0,0,1-2.06-.7c-2.48-1.16-3-2-2.92-3a2.8,2.8,0,0,1,.09-.68c.26-.67,1.31-.39,2.83.28a17,17,0,0,0,7.22,1.51,15.34,15.34,0,0,0,7.13-1.9A14.43,14.43,0,0,0,300,369.5Z"/><path class="cls-1" d="M238.8,323.65l8.13-9.09,13.12,7.69.4.24.79-.47q.83-.48,1.68-.93c1.13-.6,2.29-1.15,3.47-1.64l.91-.37.27-.09,2.26-15.16,15.11-.8,4-.24,4.94-.34q.93,3.29,1.84,6.53,1.17,4,2.36,8.12l.41.09.93.25c.7.19,1.39.41,2.08.64a33.63,33.63,0,0,1,4,1.66c1.7.86,1.09,1.49-.64,1.61a17.79,17.79,0,0,1-3.33-.1c-.66-.07-1.36-.17-2.09-.29l-1.12-.21-.58-.12-1.17-.27-1.36-.31-2.33-8.54-1-3.64-.48-1.83c0-.11,0-.09,0-.09h0v0l0,0h-.13l-.64,0-2.55.13-5.11.24-5.12.21-5,.17-.42,0c0,.17-.07.27-.12.54l-.28,1.86c-.17,1.24-.35,2.49-.53,3.75-.38,2.8-.75,5.62-1.13,8.43l-2.09.82-1.25.53c-.82.37-1.63.75-2.43,1.16-.58.29-1.15.6-1.72.92l-.42.24-.58.34-1.42.86-12.91-7.56c-.2.21-1.77,2-2.89,3.23l-10,11.19-.54.6,8.93,11.85-.46,1-.39.9c-.2.47-.38.94-.56,1.41-.36.94-.68,1.88-1,2.84-.16.53-.31,1.07-.45,1.6l-.24,1c-.1.4-.19.79-.28,1.18l-4,1.18-3.37,1-6.31,1.95-.36.13a13.72,13.72,0,0,1,.18,1.61c.38,4.77.26,6.3-.52,7.39a4.25,4.25,0,0,1-.54.71c-.62.5-1.3-1.41-1.73-4.89-.11-.94-.22-1.88-.34-2.84l-.08-.71-.09-1c-.08-.88-.16-1.76-.24-2.66l3.19-.95,1.78-.56,3.62-1.1,3.66-1.09c1.09-.33,3-.87,2.49-.75v0l.3-1.13c.22-.79.47-1.59.73-2.38s.55-1.57.86-2.34l.45-1.09h0l-.07-.09-.29-.37-9.07-11.94,8.68-9.83Z"/><path class="cls-1" d="M336.22,404.33l-10.72,12-13.16-7.69-1.73,1c-1.08.59-2.18,1.14-3.29,1.66-.56.26-1.13.5-1.69.74l-.77.32-.5,3.6-1.62,11.28-24.29,1.36-2.63-10L274.59,414l-.6-.15-1.26-.33c-.83-.24-1.66-.49-2.47-.77s-1.63-.57-2.43-.89l-1.2-.49-.57-.24-1.76,1.22-10,7-3.09-2.69-2.31-2c-1.53-1.37-3-2.75-4.52-4.17-3.53-3.37,3.16-1.63,10,4.28l.19.16c.06.05,0,0,0,0h0l11.16-7.6,2.23,1,1.11.47c.74.3,1.5.59,2.26.86s1.52.51,2.29.74l1.17.32,2.4.59,1.26,4.76.91,3.57.91,3.59.45,1.79c0,.17,0,.21.06.34l.29,0,1.78-.08,3.59-.14c2.44-.1,4.9-.23,7.38-.37l6.24-.38c.63-4.69,1.26-9.4,1.89-14.07l0-.22,2-.75,1.13-.46c.75-.32,1.49-.66,2.22-1s1.45-.73,2.16-1.13l1.07-.61,1.75-1.08,12.56,7.32,4.34-4.88,9-10.13-2.79-3.71-2.89-3.82-1.44-1.91-.83-1.09a3.19,3.19,0,0,1-.44-.71l-.19-.35a1.36,1.36,0,0,1,.08-.39,3.65,3.65,0,0,1,.26-.79l.31-.71.45-1.08c.29-.72.56-1.46.81-2.19s.48-1.49.69-2.23l.31-1.15.4-1.66,11.19-3.35,2-.61c-.57-6.53-1.13-12.94-1.69-19.4l-.08-.64-.6-.05-1.55-.18c-6.28-.82-8.25-1.31-9.48-2.34a5.45,5.45,0,0,1-.81-.7c-.52-.74,2.12-.93,6.74-.48l3.59.35,1.83.19,3.29.4q.53,6.08,1.07,12.31c.15,1.83.3,3.68.45,5.53.18,2.42.36,4.86.54,7.3l-13.83,4.17h0l-.08.3c-.13.52-.28,1-.43,1.55-.3,1-.64,2.05-1,3.06l-.59,1.5-.3.75,0,.09h0l.73,1,8.5,11.21-6.05,6.87Z"/><path class="cls-1" d="M254,366c-1.42,0-2.83,0-4.25.14-.34,0-.73,0-1,.08s-.58.08-.88.14l-.92.24-.93.33a38.76,38.76,0,0,0-7.36,4c-1.74,1.17-3.39,2.48-5.08,3.75-5.95,4.51-11.66,9.42-17.4,14.3-2.55,2.17-5.06,4.41-7.58,6.59a65.7,65.7,0,0,1-10.28,7.82c-1.19.65-1.33,0-.72-1.07a16.41,16.41,0,0,1,3.78-4.28c6.64-5.43,12.94-11.44,19.82-16.93,4.1-3.31,8.16-7,12.51-10.26a70.46,70.46,0,0,1,7.51-5,27.8,27.8,0,0,1,4.2-2c.37-.14.75-.25,1.14-.36a7.76,7.76,0,0,1,1.2-.27A22.87,22.87,0,0,1,250,363a63.19,63.19,0,0,1,11.09.23,53.81,53.81,0,0,1,7.81,1.42l1,.27c.4.13.84.26,1.27.41a13,13,0,0,1,2.37,1.06,4,4,0,0,1,1.5,1.42.92.92,0,0,1,.1.53,1.18,1.18,0,0,1-.22.45,2,2,0,0,1-.31.4,2.18,2.18,0,0,1-.38.36,8.15,8.15,0,0,1-.92.61,9.58,9.58,0,0,1-1.93.76c-.36.1-.72.2-1.09.27l-.56.11-.44.07c-1.09.17-2.16.28-3.23.37-2.13.18-4.24.23-6.33.25L257,372c-3.4.06-4.23.13-5.12-.33-.21-.11-.46-.14-.64-.25s-.18-.54.45-1a7.32,7.32,0,0,1,3-1c3.1-.48,6.16-.63,9.19-.81,1.51-.08,3-.18,4.44-.37l.53-.08.26,0h0v0a0,0,0,0,0,0,0h0l-.4-.12c-.66-.2-1.34-.36-2-.52-1.37-.32-2.77-.57-4.18-.78a57.87,57.87,0,0,0-8.53-.6Z"/><path class="cls-1" d="M268.83,376.63c-1.65.42-3.3.76-4.94,1.07-.6.12-1.18.31-1.78.4-2.13.31-4.27.55-6.42.67-.95.06-1.9.17-2.84.26a9.66,9.66,0,0,1-3.71-.06c-.39-.12-.27-.7.08-1.27a2.28,2.28,0,0,1,1.53-1.2c2.28-.18,4.6-.57,7-.58a25.07,25.07,0,0,0,4.35-.75c1.59-.32,3.19-.66,4.76-1.07l1.44-.39,1.12-.34c.38-.12.81-.26,1.23-.44s.89-.4,1-.79c0-.17-.16-.3-.36-.35a2.79,2.79,0,0,0-.64-.07,6.89,6.89,0,0,0-1.1.08l-.37.07c-.31.05-.38-.17-.51-.89l-.12-.48a.8.8,0,0,1,.3-.76,2.91,2.91,0,0,1,.55-.36,3.34,3.34,0,0,1,.38-.17l.48-.07.78-.09c.25,0,.49,0,.74,0a13.06,13.06,0,0,1,1.44.13,4.34,4.34,0,0,1,2,.8,2.07,2.07,0,0,1,.53.61,2.18,2.18,0,0,1,.3,1,2.54,2.54,0,0,1-.47,1.69,7.34,7.34,0,0,1-3.29,2.2c-.72.32-1.57.61-2.17.82l-.39.13-.31.09-.62.19Z"/><path class="cls-1" d="M252.58,388.89a26.62,26.62,0,0,1-9.72,7.18,29.39,29.39,0,0,1-4,1.6,33.33,33.33,0,0,1-3.67.91c-1.24.21-2.47.41-3.72.52s-2.48.22-3.72.18h-1.31c-.17-.06-.19.12-.27.22l-.28.49c-1.08,1.9-2.2,3.8-3.44,5.57a39.54,39.54,0,0,1-5.2,6.43c-.63.6-1,.1-1.08-.87a6.18,6.18,0,0,1,1.17-3.66c1.62-2.21,3.09-4.47,4.53-6.72.36-.57.7-1.14,1-1.72l.25-.43.13-.22.23-.42.47-.87.23-.42.12-.22c0-.05,0-.18.15-.15l2,0h1.16l1,0,1,0a28.74,28.74,0,0,0,9.58-2.12,27.8,27.8,0,0,0,9.16-5.53,14,14,0,0,0,2.05-2.43,1.3,1.3,0,0,0,.19-.31,4.12,4.12,0,0,1,.29-.5c.12-.19.21-.36.3-.52l.13-.25a.27.27,0,0,1,.2-.19l.55-.21a1.77,1.77,0,0,1,.59-.17l1-.18a64.19,64.19,0,0,0,9.91-3.08c.84-.36,1.66-.74,2.42-1.16.39-.21.75-.43,1.1-.66.17-.11.29-.22.44-.33a1.18,1.18,0,0,0,.22-.27,1.39,1.39,0,0,0,.27-.6h0l.15,0a.59.59,0,0,0,.23,0,.41.41,0,0,0,.17,0,.74.74,0,0,0-.16.14,2.38,2.38,0,0,0-.25.34,9.27,9.27,0,0,0-1.05-.1c-1.9-.08-2.67-.19-3.25-.71-.14-.12-.31-.22-.42-.33-.34-.35.42-1.13,2.13-1.77a7.25,7.25,0,0,1,1.59-.38,4.8,4.8,0,0,1,2,.09,3.12,3.12,0,0,1,1.47.85,2.88,2.88,0,0,1,.78,2.18,3.89,3.89,0,0,1-.39,1.48,4.85,4.85,0,0,1-.26.51c-.09.16-.17.28-.31.51l-.76.77-.65.46c-.4.26-.77.48-1.15.68-.75.4-1.48.74-2.22,1.06-1.48.65-3,1.2-4.48,1.71-1.83.62-3.69,1.18-5.61,1.65l-1.47.33-.36.06h0l0,0h0a.92.92,0,0,1-.09.19,12.72,12.72,0,0,1-1,1.46Z"/><path class="cls-1" d="M214.21,417.54l0-.51V417c0-.06,0-.12-.08-.12s0,0,0,0l-.15-.05-.67-.23c-.45-.16-.9-.3-1.35-.48-.89-.34-1.79-.66-2.68-1a42.74,42.74,0,0,1-5.29-2.55,14.85,14.85,0,0,1-4.39-3.71,27.9,27.9,0,0,1-2.31-4.21c-.16-.33-.33-.65-.5-1l-.37-.68-.13-.23c0-.1-.12-.05-.18-.08l-.67-.08a10.19,10.19,0,0,0-3.95.65,21.3,21.3,0,0,0-3.77,2.09c-2.19,1.49-4.35,3.21-6.65,4.67a29.48,29.48,0,0,1-9.59,4.25c-1.07.26-1-.28-.35-1.06a8.22,8.22,0,0,1,1.5-1.28,11.66,11.66,0,0,1,2.24-1.35,56.32,56.32,0,0,0,8.55-5.45c1.4-1,2.82-2.12,4.43-3.1a13.49,13.49,0,0,1,5.5-2.08,13.64,13.64,0,0,1,1.81-.11,5.37,5.37,0,0,1,.9.06l1.37.13c.55-.09.63.47.89.78l.66,1c.27.49.57,1,.82,1.48a16,16,0,0,0,3.32,5,21.08,21.08,0,0,0,5.71,3.4c1.07.45,2.14.9,3.25,1.29.55.2,1.09.41,1.65.59l1.9.63.23.07c.23.12.49.22.7.35a1.3,1.3,0,0,1,.45.62,4.85,4.85,0,0,1,.27,1.58c0,.31,0,.47,0,.67l0,.58c0,.38-.06.76-.11,1.14a29.13,29.13,0,0,1-.93,4.38,37.14,37.14,0,0,1-6.2,12.08,45,45,0,0,1-3.4,4A34.87,34.87,0,0,1,202.7,443c-.62.46-1.21.92-1.87,1.34a9.48,9.48,0,0,1-2.75,1.33,2.13,2.13,0,0,1-1.54-.08,2.43,2.43,0,0,1-.56-.26c-.47-.37.35-1.26,1.92-2.47a44.67,44.67,0,0,0,6.65-5.81A36.1,36.1,0,0,0,210,430a33.59,33.59,0,0,0,2.79-6.06,24.19,24.19,0,0,0,1.36-6.4Z"/><path class="cls-1" d="M316.22,334.74c-.54.33-1.1.65-1.72.95a7.39,7.39,0,0,1-2.53.76,3.23,3.23,0,0,1-2.68-.94,2.28,2.28,0,0,1-.41-.6,1.89,1.89,0,0,1-.3-.66l-.2-.72c0-.24,0-.48-.05-.71a4.54,4.54,0,0,1,.2-1.95,6.24,6.24,0,0,1,.63-1.43,22.79,22.79,0,0,1,2.93-3.73c1-1.1,2.13-2.16,3.05-3.22l2.55-3.08a30.15,30.15,0,0,1,3.36-3.76c.4-.34.79.06.94.76a3.17,3.17,0,0,1-.52,2.49c-1.05,1.37-2.12,2.69-3.17,4-.53.66-1,1.29-1.63,2s-1.19,1.29-1.8,1.9a21.49,21.49,0,0,0-1.95,2.33,13.6,13.6,0,0,0-1.42,2.43,2.06,2.06,0,0,0-.2.92.92.92,0,0,0,.17.65.69.69,0,0,0,.65.15,2.11,2.11,0,0,0,.41-.11c.22-.11.46-.2.69-.32a23.67,23.67,0,0,0,3.4-2.27,50.8,50.8,0,0,0,4.79-4.26c1.17-1.19,2.15-2.51,3.21-3.8.24-.28.44-.58.69-.85.92-1,1.52-1.14,2.28-.74a2.52,2.52,0,0,1,.5.32c.44.44.48,1.07,0,2a42.1,42.1,0,0,1-6.1,7,46.44,46.44,0,0,1-5.68,4.59Z"/><path class="cls-1" d="M324.52,337.87a25.32,25.32,0,0,1-4.9,3.88,6.53,6.53,0,0,1-2.55,1,4.09,4.09,0,0,1-1.49-.16c-.21-.08-.41-.16-.62-.26a4.74,4.74,0,0,1-.62-.41,3,3,0,0,1-.94-1.24,3.56,3.56,0,0,1-.19-1.49A6,6,0,0,1,314,337a13.86,13.86,0,0,1,1.09-1.71c.71-.93,1.39-1.86,2.15-2.7a15,15,0,0,1,3.23-2.93c.41-.24.61.13.6.69a3.34,3.34,0,0,1-.66,2c-.89,1.07-1.66,2.24-2.5,3.29a16.31,16.31,0,0,0-2,3.21c-.24.65-.22.83,0,1a1.68,1.68,0,0,0,.6.22,2.57,2.57,0,0,0,.77-.14,8.42,8.42,0,0,0,2.18-1.27,27.69,27.69,0,0,0,2.14-1.83c.86-.81,1.7-1.65,2.52-2.53,1.23-1.33,2.48-2.68,3.64-4.09.89-1.1,1.69-2.26,2.66-3.34.21-.23.41-.48.65-.71a4.48,4.48,0,0,1,.6-.49,1.76,1.76,0,0,1,.55-.18,1.25,1.25,0,0,1,.87.19,2.24,2.24,0,0,1,.34.23c.3.28.15.84-.2,1.59l-2.09,3c-.76,1-1.62,2-2.47,3q-1.92,2.24-4.05,4.41Z"/><path class="cls-1" d="M260.85,212.57c3.88,1.8,8.7,1.44,11.38-2.17,1.25-1.67-1.57-3.29-2.8-1.64-1.53,2.05-4.83,2-6.94,1-1.88-.87-3.53,1.93-1.64,2.81Z"/><path class="cls-1" d="M335.77,336.33a59.36,59.36,0,0,1-4.72,4.81,22.09,22.09,0,0,1-1.94,1.64l-1,.62c-.33.2-.68.38-1,.56a12.68,12.68,0,0,1-2.19.82,8.34,8.34,0,0,1-1.17.25,6.07,6.07,0,0,1-.63.07,7.13,7.13,0,0,1-.79,0,2.66,2.66,0,0,1-1.45-.6,2.26,2.26,0,0,1-.71-1.38,4.28,4.28,0,0,1,.05-1.35,7.74,7.74,0,0,1,.27-1,17,17,0,0,1,.74-1.85,14.57,14.57,0,0,1,2.66-4.12c.72-.71,1.67,1.58.81,3.06a20.38,20.38,0,0,0-1.9,3.93c-.09.3-.14.61-.16.55a.24.24,0,0,0,0,.15c.07.1,0,.25.8.16a5.75,5.75,0,0,0,1.25-.32,7.94,7.94,0,0,0,1.18-.55,16.91,16.91,0,0,0,2.22-1.64,41.85,41.85,0,0,0,4.55-4.49c.89-1,1.77-2,2.63-3l3.3-4c.28-.24.58-.55.83-.73l.7-.39a.6.6,0,0,1,.11-.06c.05,0,.09,0,.11.06l.13.17.23.36a5.65,5.65,0,0,1,.5,1,15.83,15.83,0,0,1,.36,1.73c.06.31.1.63.18.93,0,.13.07.35.1.42l.08.24a5.76,5.76,0,0,0,.34.74c.22.41.25.42.19.55a1.11,1.11,0,0,0,.16.69c.07.14.18.28.26.41s.12.48-.23.74a1.37,1.37,0,0,1-.83.18,2.14,2.14,0,0,1-1.1-.47,5.69,5.69,0,0,1-1.54-2.31l-.06-.14h0l0,0-.06,0h-.07c-.07,0-.09.15-.09.14h0s0,0-.05.07l-.26.32-.53.63-2.14,2.55Z"/><path class="cls-1" d="M112,414.54l-7,0c-.85,0-1.7.12-2.55.13l-9,0c-1.33,0-2.66.08-4,.17a19.5,19.5,0,0,1-5.12,0c-.54-.1-.46-.83,0-1.57a3,3,0,0,1,2.18-1.55,69.6,69.6,0,0,1,10.33-.21,62,62,0,0,0,6.37-.21l7-.17,4.34-.09c2.18-.07,4.38-.07,6.56-.21,1.69-.1,3.34-.4,5-.55a10.75,10.75,0,0,1,1.14-.05,3.06,3.06,0,0,1,1.55.36,1.33,1.33,0,0,1,.41.41,3.14,3.14,0,0,1,.17.67,2.49,2.49,0,0,1,.06.48c0,.21-.22.35-.45.71a.89.89,0,0,1-.44.39,3,3,0,0,1-.6.2c-.69.13-1.42.34-2.15.42s-1.49.17-2.25.24c-1.52.13-3.08.2-4.64.27l-7,.21Z"/><path class="cls-1" d="M428.25,414.59l-6.52.05c-.79,0-1.58.12-2.37.13l-8.41,0c-1.25,0-2.5.07-3.73.16a17.46,17.46,0,0,1-4.79,0c-.5-.1-.43-.84,0-1.57a2.83,2.83,0,0,1,2-1.55,61.83,61.83,0,0,1,9.64-.2,54,54,0,0,0,6-.21l6.58-.17,4-.1c2-.06,4.1-.08,6.14-.21,1.58-.1,3.11-.4,4.73-.54a6.17,6.17,0,0,1,1.06-.06,3,3,0,0,1,1.48.37,1.14,1.14,0,0,1,.41.44,2.46,2.46,0,0,1,.11.64c0,.19,0,.35,0,.47s-.2.35-.49.72a1.12,1.12,0,0,1-.39.38,1.86,1.86,0,0,1-.55.21l-1,.21a6.13,6.13,0,0,1-1,.2c-.67.08-1.38.18-2.09.24-1.41.12-2.86.21-4.32.27l-6.54.21Z"/><path class="cls-1" d="M440.12,171.11a3.63,3.63,0,0,0,.78.12,2.59,2.59,0,0,0,.76-.11,3.43,3.43,0,0,0,1.43-.85,2.81,2.81,0,0,0,.57-1,2.26,2.26,0,0,0,.13-1,2,2,0,0,0-.42-.88,3.19,3.19,0,0,0-1.87-1.26.93.93,0,0,0-.74.19,1.58,1.58,0,0,0-.41.73.62.62,0,0,0,0,.32,1.06,1.06,0,0,0,.31.27,1.65,1.65,0,0,0,.42.13c.11,0,.11.09.18,0s.31-.32.64,0a.72.72,0,0,1,.14.44,1.05,1.05,0,0,1-.3.63,1.58,1.58,0,0,1-1.44.43,2.5,2.5,0,0,1-1.24-.71,2.33,2.33,0,0,1-.45-.71,2.39,2.39,0,0,1-.1-.83,2.24,2.24,0,0,1,.16-.73,2.53,2.53,0,0,1,.29-.57,3.26,3.26,0,0,1,.39-.5,2,2,0,0,1,.54-.44,2.6,2.6,0,0,1,1.34-.39,3.39,3.39,0,0,1,1.18.21,4.93,4.93,0,0,1,1.71,1.14,5,5,0,0,1,1.35,2.16,4,4,0,0,1-.3,2.55,5.12,5.12,0,0,1-4.3,2.78,5.7,5.7,0,0,1-5.69-4.48,6.09,6.09,0,0,1,0-3.56,5.65,5.65,0,0,1,.35-.75c.59-.88,1-1,1.43-.75a1.25,1.25,0,0,1,.28.15c.27.23.17.65,0,1.11a5.24,5.24,0,0,0-.32,2.21,4.63,4.63,0,0,0,.62,2.1,3.48,3.48,0,0,0,1.06,1.16,3.56,3.56,0,0,0,.69.38c.27,0,.51.2.8.23Z"/><path class="cls-1" d="M80.28,281.7a5.61,5.61,0,0,1-1.42,0,5.25,5.25,0,0,1-1.38-.41,5.81,5.81,0,0,1-2.14-1.69,4.61,4.61,0,0,1-.93-1.83,4.27,4.27,0,0,1,0-1.85,3.71,3.71,0,0,1,1-1.57,4.76,4.76,0,0,1,3-1.46,2.36,2.36,0,0,1,1.61.54,2.82,2.82,0,0,1,.85,1.4,1.67,1.67,0,0,1-.18,1.23,2,2,0,0,1-.9.76,1.7,1.7,0,0,1-1.16.07,1.18,1.18,0,0,1-.59-.39,1,1,0,0,1-.21-.68c.11-.52.36-.25.64,0a.32.32,0,0,0,.24.06c.12-.06,0,0,.15-.14a2.23,2.23,0,0,1,.09-.23c0-.06.07-.13.11-.14s.13-.14.12-.17h0l0,0,0,0h-.12a1.19,1.19,0,0,0-.3-.47c-.07-.08-.28-.15-.65-.06a3.22,3.22,0,0,0-1.12.52,2.09,2.09,0,0,0-.88,1.12,2.39,2.39,0,0,0,.2,1.41,3.58,3.58,0,0,0,2.77,2,4.88,4.88,0,0,0,2.27-.45,4.05,4.05,0,0,0,2.16-2.75,4.34,4.34,0,0,0-.33-2.68c-.08-.17-.2-.31-.28-.49-.37-.58-.47-.77-.3-1.25,0-.1,0-.22.09-.32.12-.31.64-.34,1.26.17a4.73,4.73,0,0,1,1.6,3.15,6.28,6.28,0,0,1-.76,3.61,6.05,6.05,0,0,1-4.58,3.08Z"/><path class="cls-1" d="M409.69,133.77a4.3,4.3,0,0,1-1.79.91,4.73,4.73,0,0,1-1.92.08,2.89,2.89,0,0,1-1.44-.62,3.38,3.38,0,0,1-1.07-2.29,5.31,5.31,0,0,1,.33-2.22,5.42,5.42,0,0,1,1-1.73,2.73,2.73,0,0,1,1.17-.77,1.92,1.92,0,0,1,1.4.09c.27.12.07.45-.19.76s-.52.65-.68.71a1.81,1.81,0,0,0-.91.93,5.09,5.09,0,0,0-.53,1.68,1.58,1.58,0,0,0,.74,1.65,2.66,2.66,0,0,0,2.25-.15,2,2,0,0,0,1-1.05,2.44,2.44,0,0,0-.1-2.26,1.32,1.32,0,0,0-1.33-.61c-.1,0-.21.07-.31.09a.81.81,0,0,1-.47,0,1.72,1.72,0,0,1-.42-.43l-.2-.25a.53.53,0,0,1-.05-.48,1,1,0,0,1,.45-.57,2.89,2.89,0,0,1,2.84.22,3.67,3.67,0,0,1,1.54,2.49,4.62,4.62,0,0,1-.15,2.09,4.13,4.13,0,0,1-1.15,1.78Z"/><path class="cls-1" d="M92,219c-3.67-1.22-5,7.34.12,6,3.89-1,2.51-7.1-1.27-5.42"/><path class="cls-1" d="M116.35,241.77a4.24,4.24,0,0,1-1.79.91,4.72,4.72,0,0,1-1.92.08,3,3,0,0,1-1.44-.62,3.4,3.4,0,0,1-1.07-2.29,5.2,5.2,0,0,1,.34-2.23,5,5,0,0,1,1-1.72,2.65,2.65,0,0,1,1.16-.78,1.92,1.92,0,0,1,1.4.09c.27.13.07.45-.19.76s-.52.65-.68.71a1.9,1.9,0,0,0-.91.93,5.39,5.39,0,0,0-.53,1.69,1.56,1.56,0,0,0,.74,1.64,2.62,2.62,0,0,0,2.25-.14,2.07,2.07,0,0,0,1-1.05,2.41,2.41,0,0,0-.1-2.26,1.32,1.32,0,0,0-1.33-.61c-.09,0-.21.07-.31.08a.73.73,0,0,1-.47,0,1.91,1.91,0,0,1-.42-.43l-.2-.25a.51.51,0,0,1-.05-.47,1,1,0,0,1,.45-.58,2.92,2.92,0,0,1,2.84.22,3.69,3.69,0,0,1,1.54,2.5,4.58,4.58,0,0,1-.15,2.08,4.13,4.13,0,0,1-1.15,1.79Z"/><path class="cls-1" d="M413.09,198.71c-3.67-1.21-5,7.35.13,6,3.88-1,2.51-7.11-1.27-5.42"/><path class="cls-1" d="M403,179.83c-1.7-.56-2.3,3.4.06,2.78,1.8-.48,1.16-3.29-.59-2.51"/><path class="cls-1" d="M280.15,235.48c-2.45,13.72-13.9,13.58-13.9,13.58a19.52,19.52,0,0,1-19.1-12.63A36.8,36.8,0,0,0,280.15,235.48Z"/><path class="cls-1" d="M248.09,257.9a3.94,3.94,0,0,0-1.78,2.65c-.21,1.42,2.75,1,2.93-.24a1.58,1.58,0,0,1,.24-.67,1.46,1.46,0,0,1,.52-.47.88.88,0,0,0,.16-1.46,2,2,0,0,0-2.07.19Z"/><path class="cls-1" d="M283.91,255.23a6.49,6.49,0,0,1,1.69,1.08,1.81,1.81,0,0,0,2,.17c.38-.18,1.25-.92.71-1.41a8.81,8.81,0,0,0-2.1-1.44,2,2,0,0,0-2.07.2c-.41.29-.85,1.08-.19,1.4Z"/><path class="cls-1" d="M259.06,263.86a6.6,6.6,0,0,1-1.08,1.68c-.4.44-.34.91.28,1a2.42,2.42,0,0,0,2.05-.54,8.43,8.43,0,0,0,1.45-2.11c.6-1.27-2.28-1-2.7-.08Z"/><path class="cls-1" d="M278.3,265a5.24,5.24,0,0,1,.87,1.17c.37.67,3.1-.41,2.9-.77a6.5,6.5,0,0,0-1-1.36c-.12-.13-.6-.07-.73-.06a4.42,4.42,0,0,0-1.13.26c-.21.07-1.21.43-.88.76Z"/><path class="cls-1" d="M205.46,411.3c-.72-.74-1.44-1.49-2.14-2.26-.26-.28-.57-.5-.81-.81a21.49,21.49,0,0,1-2.3-3.39c-.3-.52-.6-1.06-.9-1.61a6.92,6.92,0,0,1-.49-1.11,3,3,0,0,1-.08-1.24c0-.26.57-.25,1.13-.14s1.16.29,1.27.58c.46,1,1.08,2.12,1.76,3.35a9.07,9.07,0,0,0,1.74,1.88c.69.67,1.39,1.35,2.13,2,.46.4.91.8,1.39,1.18a22.77,22.77,0,0,0,2.18,1.74c.6.4,1.28.67,1.91,1.06a4.63,4.63,0,0,1,.43.24c.48.38.51.66.15,1.28-.08.14-.16.28-.25.41a1.18,1.18,0,0,1-1.22.54,11.51,11.51,0,0,1-1.87-.65,13.65,13.65,0,0,1-1.7-1.05,20.6,20.6,0,0,1-2.38-1.94Z"/><path class="cls-1" d="M394.94,423.33s7-.78,11.36,2.36c4,2.93-14.52,7.79-23.84,5.06C382.46,430.75,393.36,427.08,394.94,423.33Z"/><path class="cls-1" d="M144.81,440.79c-7.51,3.2-16.14,1.78-19.33,1.28a6.46,6.46,0,0,1-1.77-.53c-9.56-4.5,10.93-8.9,10.93-8.9S140.82,439.74,144.81,440.79Z"/><path class="cls-1" d="M310.25,337.54a6.59,6.59,0,0,0,5.78-1l-1.88-1.88c-3.16,5.82.53,11.24,6.94,8.25l-2-1.55c-1.43,5.1,3.46,7.09,7.49,4.89,5.54-3,10.43-8.33,14.51-13.06,1.15-1.34-.79-3.29-1.95-2a88.68,88.68,0,0,1-6.9,7.08c-1.39,1.29-2.81,2.55-4.32,3.7a10.37,10.37,0,0,1-2.35,1.65c-.8.28-5.12,3-3.83-1.58a1.39,1.39,0,0,0-2-1.55q-6.29-.09-3.17-4.5a1.38,1.38,0,0,0-1.88-1.88l-3.66.7a1.38,1.38,0,0,0-.74,2.65Z"/><path class="cls-1" d="M307.24,304.91c2.05-2.7,4.2-5.33,7.17-7.05.6-.35.9-1.05.27-1.5s-1.86-.07-2.47.29c-3.41,2-5.89,5-8.24,8.09-.52.68.45,1.11,1,1.16a2.71,2.71,0,0,0,2.29-1Z"/><path class="cls-1" d="M241.82,299.25a34,34,0,0,1,7.39,4.61c.76.63,3.45-.49,2.7-1.12a35.94,35.94,0,0,0-7.77-4.86c-.81-.38-3.47.82-2.32,1.37Z"/></g></svg>