<svg xmlns="http://www.w3.org/2000/svg" width="520" height="520" viewBox="0 0 520 520"><defs><style>.cls-1{fill:#231f20;}</style></defs><title>Notioly New</title><g id="_155.Curiosity" data-name="155.Curiosity"><path class="cls-1" d="M215.21,172.54s-1.09,7.14-3.23,7.05-2.21-10.05-2.21-10.05Z"/><path class="cls-1" d="M210.75,178a3,3,0,0,0,.34.74c.11.07.17.22.33.27a1.4,1.4,0,0,0,.39.17.39.39,0,0,0,.26,0c.09,0,.17-.05.27-.08a2.53,2.53,0,0,0,1.1-1,6.85,6.85,0,0,0,.78-1.66,6.32,6.32,0,0,0,.26-1.67c0-.72-.11-1.42-.11-2.06,0-.2.38-.36.82-.28a1.27,1.27,0,0,1,1,1,8.18,8.18,0,0,1-.93,5.11,13.62,13.62,0,0,1-.92,1.42,3.45,3.45,0,0,1-1.53,1.2,3.33,3.33,0,0,1-2.21,0,4.35,4.35,0,0,1-1-.49,3.6,3.6,0,0,1-.75-.76,5.17,5.17,0,0,1-.86-2.19,15,15,0,0,1-.07-3.2c.05-.8,0-1.6.11-2.41a2,2,0,0,1,.08-.54.93.93,0,0,1,1.13-.69l.36,0c.37.09.61.45.78.92a6.9,6.9,0,0,1,.15,2c0,.63,0,1.25-.05,1.86a6.34,6.34,0,0,0,.25,2.34Z"/><path class="cls-1" d="M218.57,222.34s18.83,1.26,17.88,9.79-12.31,3.15-13.49,9.15S218.57,222.34,218.57,222.34Z"/><path class="cls-1" d="M101.58,478.41l-.92-1.15c-.11-.13-.25-.24-.36-.37-.38-.5-.73-1-1.12-1.47a3.09,3.09,0,0,0-.6-.54c-.27-.2-.6-.34-.75-.68s1.08-1.24,1.43-1a5.55,5.55,0,0,1,1.43,1.69,6,6,0,0,0,.87,1l.92,1.11c.19.22.38.45.58.66a9.25,9.25,0,0,0,1,.92,7.56,7.56,0,0,0,.89.47l.19.1c.22.15.23.29.06.65l-.11.24a.64.64,0,0,1-.62.37,3.34,3.34,0,0,1-1.82-.94c-.38-.33-.72-.7-1.06-1.06Z"/><path class="cls-1" d="M102.43,472.31l-1.57-2-.59-.71c-.67-.86-1.35-1.72-2-2.58-.3-.38-.62-.74-.94-1.1a12.34,12.34,0,0,1-1.18-1.42c-.21-.33.61-.39,1.08.14.82.95,1.62,1.92,2.37,2.95.44.62,1,1.2,1.47,1.79l1.61,2,1,1.22c.5.62,1,1.24,1.52,1.83s.84.88,1.25,1.33l.27.29c.33.38.39.53.3.75a.59.59,0,0,1-.06.14c-.09.14-.33.07-.6-.17A20.16,20.16,0,0,1,104,474.3l-1.62-2Z"/><path class="cls-1" d="M104.53,470.4l-1.87-2.84-.72-1c-.81-1.21-1.61-2.42-2.46-3.59-.38-.52-.8-1-1.22-1.49a18.6,18.6,0,0,1-1.59-1.86c-.29-.43,1-.79,1.7-.07a27.32,27.32,0,0,1,3.1,4.07c.54.87,1.23,1.67,1.83,2.52l2,2.82,1.19,1.74c.61.87,1.2,1.76,1.84,2.6.49.65,1,1.24,1.59,1.85.11.13.24.26.35.4.41.52.45.75.22,1.11a1.34,1.34,0,0,1-.16.23c-.2.24-.57.17-.94-.16a20,20,0,0,1-2.91-3.48l-1.94-2.83Z"/><path class="cls-1" d="M99.89,459.52c-.35-.5-.69-1-1.06-1.49-.13-.17-.31-.31-.44-.49-.46-.63-.91-1.27-1.41-1.87a4.53,4.53,0,0,0-.77-.69c-.35-.27-.77-.45-1-.89-.13-.27,1.33-1.49,1.76-1.15a7.44,7.44,0,0,1,1.85,2.17,10.16,10.16,0,0,0,1.11,1.33c.39.49.76,1,1.14,1.51l.66.94c.34.48.67,1,1,1.4a10.56,10.56,0,0,0,1,.91c.07.07.15.13.21.2.23.28.22.44,0,.76l-.18.21a.64.64,0,0,1-.77.15,7.38,7.38,0,0,1-1.93-1.58c-.42-.45-.81-.92-1.22-1.38Z"/><path class="cls-1" d="M94.39,447.19c-.37-.58-.74-1.16-1.12-1.72-.14-.21-.33-.38-.46-.59-.49-.73-1-1.48-1.47-2.19a6.37,6.37,0,0,0-.79-.85,3.49,3.49,0,0,1-1-1.1c-.13-.3,1.31-1.18,1.76-.78a9.32,9.32,0,0,1,1.93,2.43,13.92,13.92,0,0,0,1.18,1.48c.43.54.84,1.11,1.25,1.66l.75,1c.4.5.76,1,1.19,1.51a9.33,9.33,0,0,0,1.14.94l.26.2c.29.28.27.47-.08.89l-.24.29a.82.82,0,0,1-1,.27,6.79,6.79,0,0,1-2.14-1.77c-.47-.52-.84-1.11-1.26-1.66Z"/><path class="cls-1" d="M97.42,469.11c0-1.53.08-3.05.12-4.57,0-.55,0-1.1,0-1.65,0-1.94.07-3.88-.08-5.81a19.66,19.66,0,0,0-.36-2.54L96.72,453a9.67,9.67,0,0,1-.33-1.6c-.07-.69,1.6-.28,2,1a25.69,25.69,0,0,1,.71,6.92c0,1.38.07,2.81.06,4.21s0,3.08-.11,4.61c0,.94-.07,1.88-.07,2.82,0,1.42,0,2.85.1,4.25.11,1.09.29,2.14.47,3.2,0,.24.08.46.13.7.14.87.06,1.17-.13,1.41,0,.05-.09.12-.14.16s-.38-.2-.65-.83a19.12,19.12,0,0,1-.8-2.95c-.17-1-.29-2.07-.36-3.11-.12-1.55-.15-3.11-.16-4.65Z"/><path class="cls-1" d="M101.52,471.83c-.07-.95-.11-1.91-.14-2.86,0-.35,0-.69,0-1,0-1.22,0-2.45.08-3.67,0-.54,0-1.08,0-1.62a8.44,8.44,0,0,1,.1-2.07c.1-.42,1.13.18,1.12.95,0,1.39,0,2.76-.14,4.16a20,20,0,0,0,.08,2.56c0,.94.11,1.88.19,2.82,0,.57.11,1.15.19,1.72a25.07,25.07,0,0,0,.39,2.6c.16.66.36,1.29.53,1.93l.12.43c.13.53.11.72-.09.9a.74.74,0,0,1-.13.12c-.15.11-.36-.07-.56-.44a16.06,16.06,0,0,1-.8-1.73,15.31,15.31,0,0,1-.5-1.88,23.39,23.39,0,0,1-.43-2.87Z"/><path class="cls-1" d="M105,471.63c0-.74.09-1.46.14-2.18,0-.27,0-.52,0-.79.08-.92.19-1.83.23-2.74a9.63,9.63,0,0,0-.05-1.2,5.54,5.54,0,0,1-.11-1.52c.06-.33,1.4-.11,1.51.53a11.48,11.48,0,0,1,0,3.26,16,16,0,0,0,0,2c0,.71,0,1.42-.05,2.14,0,.43,0,.87,0,1.3a12.74,12.74,0,0,0,.15,2,11.14,11.14,0,0,0,.44,1.42l.11.29c.13.38.07.53-.21.73l-.19.14a.51.51,0,0,1-.69-.23,6.2,6.2,0,0,1-1.1-2.83,13.06,13.06,0,0,1-.16-2.24Z"/><path class="cls-1" d="M229.72,475.11c-.19-.37-.34-.76-.51-1.14-.07-.14-.16-.25-.22-.39-.22-.48-.43-1-.69-1.43a3.33,3.33,0,0,0-.43-.56c-.2-.21-.46-.37-.55-.68s1-.86,1.26-.58a4.71,4.71,0,0,1,1,1.7,8.06,8.06,0,0,0,.57,1c.19.38.38.77.55,1.16l.31.73c.17.36.32.72.52,1.06l.5.74a.91.91,0,0,1,.11.16.36.36,0,0,1-.07.49l-.1.1a.38.38,0,0,1-.46,0,6.36,6.36,0,0,1-.7-.56,3.48,3.48,0,0,1-.51-.7c-.23-.36-.43-.74-.64-1.1Z"/><path class="cls-1" d="M225,475.82c-.33-.68-.67-1.35-.94-2.05-.11-.25-.24-.49-.34-.75-.34-.9-.66-1.81-1-2.71-.15-.41-.3-.8-.45-1.19a8.56,8.56,0,0,1-.49-1.56c-.06-.33.57-.08.82.47.44,1,.91,2,1.3,3a15.85,15.85,0,0,0,.91,1.79l1,1.95c.22.4.43.8.66,1.19.35.59.7,1.18,1.08,1.75s.66.81,1,1.2l.23.26c.24.36.25.52.13.74,0,.05,0,.11-.08.15s-.33.1-.62-.08a9.7,9.7,0,0,1-2.13-2.16,20.26,20.26,0,0,1-1.15-2Z"/><path class="cls-1" d="M220.84,478.22c-.28-.75-.57-1.49-.85-2.23-.11-.27-.25-.52-.35-.8-.36-.95-.71-1.91-1.09-2.85a12.31,12.31,0,0,0-.59-1.21,7.35,7.35,0,0,1-.76-1.54c-.09-.36,1.07-.46,1.41.12a17.52,17.52,0,0,1,1.45,3.25,19.52,19.52,0,0,0,.89,2c.31.73.62,1.46.94,2.19.2.45.39.9.59,1.34a21.62,21.62,0,0,0,1,2,13.25,13.25,0,0,0,.95,1.4l.22.3a.67.67,0,0,1-.09.87,1,1,0,0,1-.13.16.33.33,0,0,1-.3.06.89.89,0,0,1-.46-.18,5.35,5.35,0,0,1-1.06-1.22,11.41,11.41,0,0,1-.8-1.41c-.35-.73-.66-1.48-1-2.22Z"/><path class="cls-1" d="M216.54,477.55l-.84-2c-.11-.24-.23-.48-.32-.73l-.9-2.67c-.14-.39-.29-.77-.45-1.15a7.17,7.17,0,0,1-.51-1.5c-.07-.32.7-.16,1,.37a27.07,27.07,0,0,1,1.29,2.91,13.57,13.57,0,0,0,.87,1.75c.3.66.61,1.31.92,2l.58,1.2c.31.59.61,1.21.93,1.79s.61.84.87,1.28l.16.3c.18.39.16.55,0,.75a1.71,1.71,0,0,1-.11.14c-.14.13-.37.06-.63-.15a8,8,0,0,1-1.88-2.24c-.37-.63-.66-1.31-1-2Z"/><path class="cls-1" d="M222.8,478.41l-.58-.33L222,478c-.24-.15-.47-.32-.7-.48l-.32-.19a1.23,1.23,0,0,1-.4-.27c-.06-.08.31-.4.46-.31a6.66,6.66,0,0,1,.76.58,3.12,3.12,0,0,0,.49.31l.56.32.35.19c.19.09.37.18.55.25a3.69,3.69,0,0,0,.45.11l.1,0c.12,0,.15.08.14.2v.08a.16.16,0,0,1-.18.13,2.6,2.6,0,0,1-.86-.22c-.21-.08-.41-.18-.61-.27Z"/><path class="cls-1" d="M221.84,474.68c-.56-.27-1.11-.55-1.67-.81l-.63-.27c-.72-.33-1.45-.64-2.2-.92a8.4,8.4,0,0,0-1-.34c-.43-.13-.87-.23-1.29-.38s.15-.33.67-.24a13.4,13.4,0,0,1,2.68.83c.51.22,1.07.4,1.6.62s1.16.49,1.73.75l1.05.48,1.6.73c.41.18.83.32,1.24.48l.28.1c.34.14.42.23.43.42a.57.57,0,0,1,0,.13c0,.13-.2.17-.46.1a15,15,0,0,1-2.35-.84l-1.69-.82Z"/><path class="cls-1" d="M224.1,472.84l-2.21-1c-.27-.12-.55-.22-.82-.36-.93-.47-1.85-1-2.77-1.49-.41-.22-.82-.43-1.24-.63a7,7,0,0,1-1.54-.9c-.28-.25.66-.9,1.24-.58,1,.55,2.06,1.12,3.09,1.76a18,18,0,0,0,2,.94l2.21,1,1.38.58c.7.29,1.4.59,2.11.84.56.19,1.13.31,1.69.46.12,0,.25.05.37.09.45.15.57.28.54.64a1.94,1.94,0,0,1,0,.24c-.05.26-.31.39-.66.34a16,16,0,0,1-3.09-.92c-.76-.3-1.52-.62-2.27-.94Z"/><path class="cls-1" d="M224,471.21l-2.1-1.11-.78-.37-2.72-1.4-1.22-.58a14.9,14.9,0,0,1-1.54-.79c-.31-.19.3-.38.9-.1,1.06.49,2.12,1,3.17,1.55.62.33,1.31.61,2,.92l2.16,1.05,1.31.67,2,1c.51.27,1,.49,1.55.74l.33.17c.42.23.52.35.49.58a.41.41,0,0,1,0,.16c0,.17-.28.19-.6,0-.92-.41-1.84-.92-2.78-1.43l-2.1-1.13Z"/><path class="cls-1" d="M221.52,475.58l-1.6-1.11c-.19-.13-.41-.23-.6-.37-.66-.51-1.3-1-1.95-1.56a7.35,7.35,0,0,0-.91-.63,3.09,3.09,0,0,1-1.11-.86c-.17-.25,1.05-1.23,1.47-.93a13.24,13.24,0,0,1,2.14,1.77,8.13,8.13,0,0,0,1.41,1l1.58,1.05c.33.22.66.43,1,.63.51.3,1,.61,1.55.86a11.83,11.83,0,0,0,1.32.4l.29.07c.35.13.41.29.29.73,0,.1-.05.21-.09.31a.66.66,0,0,1-.67.5,6.6,6.6,0,0,1-2.45-.83c-.58-.3-1.13-.64-1.69-1Z"/><path class="cls-1" d="M220.41,477.83l-1.44-.91-.54-.33c-.6-.41-1.2-.84-1.78-1.29l-.78-.58a5,5,0,0,1-1-.82c-.17-.19.41-.35.78-.07l2,1.47a14.22,14.22,0,0,0,1.31.79l1.48.83.92.5c.46.25.93.51,1.4.74s.76.3,1.15.45l.25.1c.3.14.37.25.29.53,0,.06,0,.13,0,.19a.41.41,0,0,1-.53.21,9.66,9.66,0,0,1-2-.93l-1.48-.86Z"/><path class="cls-1" d="M218.18,481.18l-.82-.57c-.1-.07-.21-.11-.31-.18l-1.05-.75a4.82,4.82,0,0,0-.5-.27,1.61,1.61,0,0,1-.62-.36c-.11-.12.45-.74.7-.61a5.22,5.22,0,0,1,1.23.83,6.17,6.17,0,0,0,.77.48l.85.54.52.33a8.06,8.06,0,0,0,.8.48,5,5,0,0,0,.68.24l.15.05c.18.08.2.16.12.4l-.06.16a.36.36,0,0,1-.37.25,3.48,3.48,0,0,1-1.24-.48l-.86-.53Z"/><path class="cls-1" d="M334.19,476.19c-.85.28-1.69.58-2.53.9-.31.12-.6.27-.9.39-1.08.41-2.15.85-3.19,1.34-.47.21-.91.47-1.35.72a14.32,14.32,0,0,1-1.7,1c-.38.16-.35-.76.28-1.2a21.25,21.25,0,0,1,3.59-1.9c.76-.31,1.5-.73,2.25-1.08s1.68-.72,2.53-1.06l1.57-.61,2.39-.89c.61-.23,1.18-.56,1.8-.75a2.7,2.7,0,0,1,.4-.14c.52-.16.71-.1.9.1l.12.13c.1.14-.05.4-.38.62a12.52,12.52,0,0,1-1.55.9c-.54.24-1.1.47-1.66.7l-2.55.89Z"/><path class="cls-1" d="M335.77,478.66l-2.08.67-.75.27-2.7.83c-.4.13-.79.28-1.17.43a12.69,12.69,0,0,1-1.5.53c-.32.09-.09-.44.45-.74a22.62,22.62,0,0,1,3-1.31c.61-.22,1.23-.51,1.85-.76l2-.79,1.27-.48c.64-.24,1.3-.44,1.93-.71.48-.2.94-.45,1.41-.68l.32-.13c.42-.12.57-.1.73.06a.52.52,0,0,1,.11.1c.09.12,0,.31-.28.52a5.43,5.43,0,0,1-1.22.79c-.43.23-.88.43-1.33.64l-1,.43-1.05.36Z"/><path class="cls-1" d="M330.52,475l-1.42.51-.51.2c-.6.23-1.21.46-1.81.72-.26.11-.52.24-.77.37a8.2,8.2,0,0,1-1,.5c-.22.07-.2-.5.18-.71a14.29,14.29,0,0,1,2.08-.92c.43-.15.85-.36,1.29-.53s.95-.37,1.43-.54l.89-.32,1.35-.46,1-.39.22-.08c.28-.09.38-.09.48,0s0,0,.06.06,0,.17-.23.27c-.58.3-1.21.57-1.84.84l-1.43.51Z"/><path class="cls-1" d="M335.51,482.16c-.54.13-1.07.25-1.59.39-.2.05-.37.15-.56.2a16.71,16.71,0,0,0-2,.59,3.77,3.77,0,0,0-.79.43,4.42,4.42,0,0,1-1,.63c-.25.08-.72-.95-.34-1.32a6,6,0,0,1,2.31-1.21c.5-.13.95-.4,1.44-.56s1.08-.33,1.62-.48l1-.28a11.76,11.76,0,0,0,1.45-.49,6.38,6.38,0,0,0,1-.63c.07-.05.13-.11.2-.15.27-.16.4-.11.66.25l.17.24a.63.63,0,0,1,0,.78,4.85,4.85,0,0,1-2,1.15c-.53.2-1.08.34-1.61.5Z"/><path class="cls-1" d="M329.8,481l-1.44-1.8c-.17-.22-.37-.42-.54-.64l-1.8-2.33c-.28-.34-.57-.66-.86-1a7.71,7.71,0,0,1-1.09-1.26c-.18-.3.78-.57,1.22-.1a23,23,0,0,1,2.15,2.65c.39.56.9,1.06,1.35,1.59l1.48,1.77.92,1.07c.47.54.93,1.09,1.43,1.59s.81.73,1.22,1.09l.28.23c.31.32.36.48.26.71l-.06.16c-.09.16-.33.14-.63,0a12.92,12.92,0,0,1-2.34-2c-.54-.55-1.07-1.12-1.57-1.72Z"/><path class="cls-1" d="M331.69,478c-.38-.51-.75-1-1.1-1.56-.12-.2-.28-.37-.4-.57l-1.29-2.08a8.83,8.83,0,0,0-.64-.87,4.71,4.71,0,0,1-.79-1.12c-.11-.27.91-.58,1.25-.18a14.11,14.11,0,0,1,1.6,2.3,11.24,11.24,0,0,0,1,1.38c.37.51.75,1,1.11,1.53q.33.48.69.93a16.37,16.37,0,0,0,1.12,1.35l1,.9.22.19c.26.26.29.39.18.63a1.19,1.19,0,0,1-.08.16c-.1.17-.32.19-.58.06a6.57,6.57,0,0,1-2.07-1.56c-.45-.47-.86-1-1.26-1.47Z"/><path class="cls-1" d="M334.91,475.73c-.21-.36-.38-.75-.58-1.11-.07-.14-.18-.24-.25-.37-.23-.48-.45-1-.71-1.41a2,2,0,0,0-.44-.52c-.22-.2-.5-.32-.56-.66s1.31-1.22,1.59-1a3.85,3.85,0,0,1,1,1.66,4.44,4.44,0,0,0,.6,1l.62,1.09c.12.23.23.46.36.68a6.26,6.26,0,0,0,.63.95c.2.21.44.39.65.58l.14.12c.15.18.12.3-.08.58l-.14.18a.57.57,0,0,1-.6.22,3.88,3.88,0,0,1-.86-.38,3.36,3.36,0,0,1-.66-.59c-.29-.32-.53-.68-.79-1Z"/><path class="cls-1" d="M317.79,77.68l-.46,9.48c-.05,1.15,0,2.31-.09,3.46-.23,4.06-.47,8.12-.61,12.17-.07,1.8,0,3.61,0,5.4,0,2.29.16,4.58,0,6.88-.05.71-.51.64-1,.06a5.55,5.55,0,0,1-1.13-3,90.74,90.74,0,0,1,.12-14.18c.23-2.83.16-5.78.27-8.68l.38-9.54.21-5.88c.08-3,.17-5.94.12-8.88,0-2.29-.22-4.52-.36-6.77,0-.49-.07-1-.09-1.48-.1-1.84,0-2.44.57-2.87a2.29,2.29,0,0,1,.36-.29c.41-.21.81.52,1.06,1.89a54.93,54.93,0,0,1,.75,6.23c.16,2.13.19,4.28.18,6.43,0,3.19-.12,6.4-.22,9.59Z"/><path class="cls-1" d="M419.66,256.92q-.2,15.91,1.16,31.82c.33,3.86.79,7.71,1.25,11.55,1.63,13.56,4.19,27,6.83,40.47,1.18,6,2.38,12,3.55,17.88,1.47,7.62,2.93,15.29,3.74,23,.24,2.41,0,2.12-.66.14a91.4,91.4,0,0,1-2.39-10c-1.41-7.77-3.08-15.49-4.65-23.26s-3.15-15.56-4.56-23.43c-1.68-9.41-3.48-19.22-4.6-28.95a307.5,307.5,0,0,1-2.07-32.24q-.12-9.94.35-19.88c.47-10,1.43-20,2.12-29.94.55-7.7.84-15.26.88-22.86,0-1.68,0-3.31,0-5-.09-6.25,0-8.23.6-9.61a5.24,5.24,0,0,1,.42-.91c.46-.64,1.08,1.9,1.37,6.53.75,13.75-.42,28.2-1.56,42.58-.85,10.7-1.63,21.39-1.68,32.1Z"/><path class="cls-1" d="M424.47,483c-37.06.31-45-16.69-45-16.69s14.75,12.38,29.2,13.35,22.26,1,22.26,1l-1.21.76A10.16,10.16,0,0,1,424.47,483Z"/><path class="cls-1" d="M336.65,486.22S312,481,314.51,472.68s23.49-2.59,26.88-.23c0,0-17.82-1.86-18.25,3C322.66,480.72,336.65,486.22,336.65,486.22Z"/><path class="cls-1" d="M370.12,405.41s-2.44,15.24,0,26,5.15,30,3.07,36.14c-3.4,10.07-17.77,9.45-27,5.9,0,0,18.43,8.24,23.63,4.17s9.26-8.51,8.26-17.47-7.09-27.48-7.54-36.63S370.12,405.41,370.12,405.41Z"/><path class="cls-1" d="M315.86,370.8c.68-10.65,1.17-21.36,1.57-32,.1-3.9.21-7.8.31-11.7.39-13.74.53-27.49.21-41.23-.06-3.05-.2-6.1-.31-9.15s-.31-6.09-.54-9.11c-.14-1.93-.28-3.88-.41-5.82l-.47-5.82c-.39-3.87-.65-7.75-1-11.63-.19-2.42,0-2.11.49-.11a74.66,74.66,0,0,1,2.05,10.17c.46,4,.9,7.92,1.2,11.9s.49,8,.67,11.94c.36,8,.42,16,.35,24-.09,9.59-.12,19.58-.4,29.39-.3,10.78-.78,21.57-1.33,32.34-.37,6.63-.81,13.27-1.44,19.88-.9,10-2.14,20.05-3.31,30-.9,7.7-1.7,15.26-2.24,22.87-.09,1.68-.2,3.32-.26,5-.37,6.26-.34,8.23-.76,9.61a9,9,0,0,1-.26.91c-.15.31-.32-.17-.52-1.31-.09-.57-.2-1.31-.3-2.2s-.11-1.93-.15-3.09c0-1.73-.05-3.47,0-5.22s.16-3.5.3-5.26c.25-3.51.58-7.06,1-10.61.76-7.11,1.65-14.3,2.49-21.49,1.23-10.69,2.37-21.43,3-32.18Z"/><path class="cls-1" d="M79.68,387.56a177.88,177.88,0,0,0,2.92,19.49c.5,2.35,1.12,4.66,1.69,7,1,4.09,2.18,8.17,3.51,12.17L92,438.27c1.24,3.59,2.43,7.24,3.4,10.9.6,2.36,1.19,4.73,1.62,7.12a63.17,63.17,0,0,1,.9,7.23c.1,1.51-.28,1.36-.9.16A21.58,21.58,0,0,1,96,461.2a22.89,22.89,0,0,1-1.14-3.58c-.55-2.38-1.12-4.74-1.8-7.06s-1.32-4.67-2.09-7c-1.49-4.63-3.31-9.19-4.87-13.95C84.19,424,82.28,418,80.85,412.06a179,179,0,0,1-3.53-19.85c-.21-2.06-.45-4.11-.63-6.17s-.36-4.12-.44-6.18c-.4-6.25-.42-12.53-.31-18.73,0-2.41.12-4.8.15-7.18s.21-4.75.41-7.13c.09-1.05.16-2.07.27-3.13.5-3.89.9-5.1,1.51-5.87a3.23,3.23,0,0,1,.42-.5c.43-.32.58,1.3.49,4.16-.08,2.11-.12,4.26-.23,6.41s-.12,4.34-.17,6.54c-.12,4.38-.24,8.83-.15,13.28.08,6.61.41,13.25,1.11,19.84Z"/><path class="cls-1" d="M103.82,488.23a11,11,0,0,0,3.32,0c20.36-5.11,36.53,2.87,37,2.69a1,1,0,0,0,.69-1.16,1.55,1.55,0,0,0-.92-.81c-6.76-3.15-14.91-5.31-22.41-4.5A87.84,87.84,0,0,0,103.82,488.23Z"/><path class="cls-1" d="M179.37,376.54c1.57,6.82,2,13.42,4.66,19.8,2.95,7,7.21,13.74,9.19,21.09,3.06,11.32,7.88,25,8.21,36.7.36,12.73-2.52,10-2.56,10.52s-8.26-47.64-14.08-59.24S179.37,376.54,179.37,376.54Z"/><path class="cls-1" d="M143.61,423.5c0,.47,4.33,29.84,7.11,37.57s4.24,18.11,2.5,22.05-2.11,2.2-2.11,2.2-2.47-26-4.29-35.6S143.61,423.5,143.61,423.5Z"/><path class="cls-1" d="M153,490c.31-.1,1.79-1.47,3.16-1.37s13.05,2.71,21.26.85c4.83-1.1,11.64-5.3,14.71-9.46,0,0-9.17,9.21-15.59,10.78S153,490,153,490Z"/><path class="cls-1" d="M137.4,271.93c.15,4.05.45,8.07.78,12.12.11,1.48.28,2.95.37,4.43a108.66,108.66,0,0,1,0,15.73c-.17,2.33-.49,4.64-.79,6.93q-.59,4.39-1.26,8.76c-.14.91-.33.77-.47,0a16.09,16.09,0,0,1,0-4A174.73,174.73,0,0,0,137.52,298c.06-3.61-.32-7.37-.62-11.06-.32-4.07-.69-8.15-.92-12.25-.12-2.53-.23-5-.49-7.51-.37-3.78-.88-7.56-1.49-11.29-.48-2.9-1.08-5.72-1.57-8.59-.11-.63-.23-1.25-.32-1.89-.34-2.38-.32-3.15,0-3.71a2.41,2.41,0,0,1,.22-.37c.27-.27.64.67,1,2.38,1.1,5.07,2,10.46,2.85,15.92.59,4.06,1,8.18,1.26,12.31Z"/><path class="cls-1" d="M209.14,468.65s21.29,1.28,21.79,6.79c.47,5.28-16.58,8.1-17.06,7.68s12.5,5,20.78,0,9.27-7.51,2.91-10.44S213.71,466.13,209.14,468.65Z"/><path class="cls-1" d="M226.24,400.73a59,59,0,0,1-1.21-7.11c-.25-2.35-.49-4.71-.64-7.07-.37-4.71-.53-9.43-.63-14.15-.06-3.44-.14-6.88-.11-10.31.12-12.11.73-24.17.83-36.23,0-5.35-.07-10.72-.37-16-.31-6.78-1.31-13.57-1.72-20.39-.13-2.13.35-1.9,1.05-.16a36.8,36.8,0,0,1,2.14,8.88c.41,3.48.79,7,1,10.5s.28,7,.32,10.52c.06,7-.12,14-.41,21.07-.34,8.42-.43,17.16-.41,25.74a250.54,250.54,0,0,0,1.47,28.22,71.33,71.33,0,0,0,1.68,8.45c.7,2.8,1.5,5.6,2.31,8.39,2.47,8.45,5.11,16.92,7.5,25.35,1.87,6.56,3.71,13,5,19.67.25,1.47.5,2.92.76,4.41s.26,2.56.35,3.53a14.51,14.51,0,0,1,0,2.42,6.14,6.14,0,0,1-.62,2.66,4.49,4.49,0,0,1-.45.78c-.26.26-.51-.18-.72-1.17-.11-.49-.2-1.12-.29-1.88s-.19-1.63-.34-2.62c-1.53-11.73-5.14-23.88-8.75-36-2.68-9.05-5.63-18.07-7.88-27.42Z"/><path class="cls-1" d="M212.9,211.68q-1.1-7.11-2.28-14.23l-.94-5.17L206.61,174c-.47-2.71-1-5.41-1.56-8.08-.66-3.43-1.46-6.86-1.78-10.36-.1-1.09.38-1,1-.21a10.72,10.72,0,0,1,2,4.34l1.14,5.23c.36,1.75.66,3.51,1,5.27.62,3.53,1.2,7.07,1.71,10.63.62,4.27,1.55,8.66,2.31,13q1.25,7.17,2.4,14.35c.47,3,.93,5.89,1.4,8.84l.52,3.35L217,222c.1.54.17,1.07.31,1.61.49,2.16,1.15,4.31,1.81,6.45,1,3.33,2.21,6.56,3,10,.19.75.37,1.49.5,2.27.48,2.9.17,4-.53,4.53a2.58,2.58,0,0,1-.48.37c-.27.1-.5-.14-.67-.64a16.38,16.38,0,0,1-.46-2.2,75.93,75.93,0,0,0-2.31-8.9c-.92-3-1.94-6.1-2.83-9.31a36.86,36.86,0,0,1-.85-3.72l-.56-3.59-1.15-7.18Z"/><path class="cls-1" d="M192.29,78.71c-.39-3.42-.76-6.85-1.07-10.29-.11-1.25-.29-2.5-.38-3.75q-.48-6.64-.38-13.33l0-3,.12-3a32.93,32.93,0,0,1,1.12-7.5c.22-.76.56-.57.85.16a7,7,0,0,1,.39,3.37c-.42,5-.63,10-.63,15.1,0,1.53.08,3.09.2,4.66s.27,3.14.41,4.7c.31,3.43.66,6.86,1.07,10.3l.77,6.33c.42,3.2.82,6.42,1.29,9.59.37,2.46.83,4.86,1.23,7.3.09.53.19,1.06.26,1.6.26,2,.19,2.68-.31,3.17a2.54,2.54,0,0,1-.35.32c-.4.24-.85-.54-1.14-2-.85-4.31-1.53-8.88-2.18-13.49q-.68-5.15-1.37-10.31Z"/><path class="cls-1" d="M191.51,124.86c-1,0-1.89,2.6-2.19,3.31-1,2.4-.53,5.9,2.64,4.17,1.74-1-2.22-1.22-1-4.34S191.52,124.87,191.51,124.86Z"/><path class="cls-1" d="M191.52,131.4s-3.91,5.84-1.7,7.86,5,0,5,0-4.89.09-2.81-4.42,1-3.44,1-3.44Z"/><path class="cls-1" d="M193.64,139.18s-2.12,5.37,1.23,7.37c2.42,1.44,4.84-1.56,4.84-1.56s-5.3-.13-4-3.87-.09-2.81-.09-2.81Z"/><path class="cls-1" d="M217.11,274.89s-.58,2.18,2,3.34,6.16-.53,6.16-.53-4.89.6-6-1.09l-1.11-1.69Z"/><path class="cls-1" d="M218.67,274.89c-5,1.76-6.55-4.17-5.51-4.27l2.54-.26s-2,2.65,1.55,3.68Z"/><path class="cls-1" d="M214.47,253.74s3.68,1.54,3.56,2.86-7.39,4.37-8.63,7.95.92,5.47,2.95,6.07c0,0-2.64-4.57.41-6.95s9.71-5.21,10.16-7.07C223.61,253.74,214.47,253.74,214.47,253.74Z"/><path class="cls-1" d="M215.23,153s6.54-1.79,7.8,3.53,2.48,14.87,5.53,14.77,4.26-4.46,4.73-9.72,7.28-13.87,13-15.93,20.29-5.36,27.62,0,12,9.95,9.17,18.75-11.44,26.49-6.23,32.8,18.21,7.87,20.53,7a38.59,38.59,0,0,1,3.8-1.18s-4.91-2.06-4-5.86,1.26-7.59,7.42-16.11,8.62-21.46,2.72-30.72c-6-9.42-16.42-12.85-27.35-11.88-.1,0-.12-10.9-8.84-18.09-9.43-7.76-28.6-12.84-49.34,1.94-10.45,7.45-6.8,10.29-6.62,19.75s.38,11.65.38,11.65"/><path class="cls-1" d="M256.47,213.4a39.26,39.26,0,0,1-8.35,4.3,31.33,31.33,0,0,1-3.27,1.09,29.54,29.54,0,0,1-12,.39c-.87-.17-1.75-.28-2.61-.52a24.72,24.72,0,0,1-2.56-.68c-.54-.17-1.08-.33-1.61-.52l-1.57-.65a17.68,17.68,0,0,1-2.95-1.63c-.58-.39-.25-.77.5-1a5.45,5.45,0,0,1,3,.28c1,.36,2,.76,3.05,1s2,.62,3.07.89a32.94,32.94,0,0,0,6.36.9,23.2,23.2,0,0,0,7.82-1.26,34.94,34.94,0,0,0,8-3.66,48.16,48.16,0,0,0,4.51-3.17,49.6,49.6,0,0,0,6.07-5.79c.71-.81,1.37-1.66,2-2.53s1.25-1.72,1.87-2.6l.79-1.16c1-1.42,1.52-1.76,2.16-1.8a2.16,2.16,0,0,1,.43,0c.41.07.31.86-.25,2.09a39.15,39.15,0,0,1-3.15,5.2,50.6,50.6,0,0,1-4.11,4.73,51.41,51.41,0,0,1-7.22,6.08Z"/><path class="cls-1" d="M279.9,152.46a15.47,15.47,0,0,0-5.3-4.48,31.72,31.72,0,0,0-7-2.53,33.73,33.73,0,0,0-14.92-.42,24.55,24.55,0,0,0-9.72,4.55,27,27,0,0,0-6.36,7.13c-.38.7-.84,1.44-1.17,2.09a8.1,8.1,0,0,0-.67,2.07,36.48,36.48,0,0,0-.4,4.87,12.8,12.8,0,0,1-1.29,5.43,6.39,6.39,0,0,1-.92,1.29,4.29,4.29,0,0,1-1.51,1,3.66,3.66,0,0,1-1.85.14,4.78,4.78,0,0,1-1.54-.57,8.56,8.56,0,0,1-3.7-4.38,9.84,9.84,0,0,1-.7-2.75l-.21-2.55a29.69,29.69,0,0,0-.6-4.3,7.76,7.76,0,0,0-1.66-3.55,3.58,3.58,0,0,0-3.27-1,10.49,10.49,0,0,0-1.89.5,7.68,7.68,0,0,0-1.66,1,10.31,10.31,0,0,0-3.34,9.34,8,8,0,0,0,2.33,4.42,10.75,10.75,0,0,0,2.09,1.54,14,14,0,0,0,2.48,1c2.18.59,1.91,1-.23,1.12a10.06,10.06,0,0,1-4.41-1,9,9,0,0,1-4.58-5.07,12.69,12.69,0,0,1,2.81-12.73,10.66,10.66,0,0,1,2.85-2.14,8.85,8.85,0,0,1,1.71-.65,14.38,14.38,0,0,1,1.76-.32,7.64,7.64,0,0,1,2.95.29c.33.13.65.28,1,.43a7.09,7.09,0,0,1,2.74,2.84,17.72,17.72,0,0,1,1.7,6.33c.11,1,.18,2,.24,3l.06.71c0,.24,0,.47.06.64A6.65,6.65,0,0,0,226,167a6.13,6.13,0,0,0,2.63,3.59,1.83,1.83,0,0,0,.73.28.7.7,0,0,0,.47-.08,3.08,3.08,0,0,0,1.11-1.54c.77-1.76.69-4.09.86-6.58a16,16,0,0,1,.69-3.88,10.58,10.58,0,0,1,.84-1.86l.92-1.64a27,27,0,0,1,18.67-13.16,33.39,33.39,0,0,1,8.22-.52,40,40,0,0,1,8.07,1.28,32.38,32.38,0,0,1,7.67,3c.77.43,1.43,1,2.14,1.45a17.72,17.72,0,0,1,1.93,1.75,15.09,15.09,0,0,1,1.67,2l.67,1.15c.22.38.36.81.55,1.21a17.69,17.69,0,0,1,.45,10.22c-1.05,5-3.11,9.56-4.73,14.18a48.92,48.92,0,0,0-2,7,18.09,18.09,0,0,0-.2,7,12.67,12.67,0,0,0,2,4.87,12.82,12.82,0,0,0,3.83,3.54,19.71,19.71,0,0,0,10.22,2.58,27.56,27.56,0,0,0,4.7-.42,32.83,32.83,0,0,0,3.65-.81l2.46-.67a10.68,10.68,0,0,1,2.89-.54,5.63,5.63,0,0,1,1,0c.4.07.1.52-.82,1.27a16.93,16.93,0,0,1-4.76,2.5,29.18,29.18,0,0,1-10.61,1.54,21.34,21.34,0,0,1-10.77-3.28,16,16,0,0,1-4.27-4.19,15.77,15.77,0,0,1-2.34-5.56,24.12,24.12,0,0,1,.85-11.49c1.48-5.31,3.7-10.17,5.13-15.07a25,25,0,0,0,1.25-7.23,11.35,11.35,0,0,0-.47-3.37,10.07,10.07,0,0,0-.59-1.55c-.12-.25-.27-.48-.41-.72a4.05,4.05,0,0,0-.45-.71Z"/><path class="cls-1" d="M310.7,145.49a27,27,0,0,1,3.56,7.32,28.11,28.11,0,0,1,.91,3.94,31.54,31.54,0,0,1,.42,4c0,1,0,1.95,0,2.92s-.15,1.94-.24,2.9a36.54,36.54,0,0,1-2.95,9.75c-.38.75-.71,1.54-1.14,2.27L310,180.77c-.93,1.44-1.93,2.73-2.91,4a53.35,53.35,0,0,0-4.65,7.13,19.91,19.91,0,0,0-1.81,4.83,8.7,8.7,0,0,0-.24,2.35,6.63,6.63,0,0,0,.37,2.27c.41.88,0,1.23-1.13.71a5.1,5.1,0,0,1-1.88-1.75,5.76,5.76,0,0,1-.68-3.52,12.06,12.06,0,0,1,.8-3.18,25,25,0,0,1,1.28-2.82,45.45,45.45,0,0,1,3.18-5c1.13-1.57,2.31-3.06,3.44-4.54.57-.73,1.12-1.46,1.62-2.19l1.45-2.28a30.4,30.4,0,0,0,3.65-12.67,28.55,28.55,0,0,0-.38-7.27l-.15-.9c-.07-.3-.16-.59-.24-.88l-.49-1.76a26.63,26.63,0,0,0-1.43-3.34,23.9,23.9,0,0,0-11.22-10.76,21.63,21.63,0,0,0-6.61-1.61,38.68,38.68,0,0,0-10.56.84c-.78.15-1.52.34-2.3.49a13.6,13.6,0,0,1-3.11.44,2.91,2.91,0,0,1-1.53-.32,4.68,4.68,0,0,1-.51-.28c-.38-.32.69-1.06,2.77-1.89a47.49,47.49,0,0,1,10-2.23,28.19,28.19,0,0,1,10.9.86c.66.24,1.34.43,2,.71s1.31.55,1.92.91a28.52,28.52,0,0,1,3.5,2.29,14.36,14.36,0,0,1,1.59,1.33c.5.48,1,.91,1.52,1.42a29.08,29.08,0,0,1,2.63,3.22Z"/><path class="cls-1" d="M225.32,117.21a36.38,36.38,0,0,1,8.17-4,43.92,43.92,0,0,1,8.79-2c1.09-.12,2.18-.26,3.27-.31a27.25,27.25,0,0,1,3.26-.06,47.58,47.58,0,0,1,11.33,1.73c.92.28,1.83.57,2.74.87s1.83.68,2.69,1.12a28.38,28.38,0,0,1,5,3,30.49,30.49,0,0,1,7.09,7.38,20.37,20.37,0,0,1,3.61,9.16,18.1,18.1,0,0,1,.05,3.29c-.11,1.37-.68,1.13-1.36.06-.34-.53-.7-1.26-1.15-2.09a28.13,28.13,0,0,1-1.2-2.82,27.21,27.21,0,0,0-16.15-16.16,39.7,39.7,0,0,0-15-2.15A38.72,38.72,0,0,0,230.27,118a28.51,28.51,0,0,0-8.22,6.12,20.53,20.53,0,0,0-4.23,6.42,18.63,18.63,0,0,0-1.3,7.56c0,2,.33,4,.57,6.11a18.49,18.49,0,0,1-.09,6.54,9,9,0,0,1-1.21,2.88,7.35,7.35,0,0,1-3,2.71,2.5,2.5,0,0,1-1.84.25,3.21,3.21,0,0,1-.66-.21c-.27-.17-.16-.53.24-1,.2-.24.47-.51.76-.84l.5-.5c.16-.18.33-.38.52-.57a7.39,7.39,0,0,0,1.29-1.91,6.84,6.84,0,0,0,.62-2.19,21.41,21.41,0,0,0-.18-5.18c-.21-1.87-.49-3.84-.54-5.91a24.08,24.08,0,0,1,.6-6.34,21.68,21.68,0,0,1,1.69-4.53,23.84,23.84,0,0,1,2.61-4,31.51,31.51,0,0,1,6.85-6.3Z"/><path class="cls-1" d="M228.17,402.5a72.94,72.94,0,0,1-1.42-7.71c-.25-2.56-.55-5.11-.7-7.67-.41-5.12-.58-10.24-.66-15.35-.06-3.73-.15-7.46-.09-11.18.19-13.12.92-26.17.91-39.21,0-5.78-.18-11.61-.73-17.29-.62-7.33-1.78-14.68-2.08-22.11-.08-2.31.52-2.05,1.34-.17a37.34,37.34,0,0,1,2.5,9.58c.49,3.75,1,7.5,1.36,11.29.2,1.9.32,3.81.43,5.73l.2,5.71c.19,7.62,0,15.24-.31,22.86-.39,9.11-.51,18.58-.51,27.87a246,246,0,0,0,1.57,30.5,93.26,93.26,0,0,0,1.91,9.13c.78,3,1.62,6.07,2.48,9.09,2.61,9.18,5.31,18.41,7.56,27.65,1.73,7.2,3.4,14.3,3.89,21.74a47.49,47.49,0,0,1,.1,4.93,21.26,21.26,0,0,1-1.15,6.54,11,11,0,0,1-.85,1.61,3.61,3.61,0,0,1-1,.89,3.73,3.73,0,0,1-.88.53c-.41.11-.49-.46-.31-1.49s.47-2.61.74-4.66a47.79,47.79,0,0,0,0-9.49c-.3-3.23-.79-6.49-1.41-9.77-1.25-6.56-2.92-13.18-4.74-19.79-2.66-9.84-5.77-19.62-8.24-29.73Z"/><path class="cls-1" d="M213.16,208.69c-.77-5.12-1.56-10.24-2.41-15.34-.3-1.87-.71-3.72-1-5.58l-3.24-19.72c-.5-2.92-1.09-5.83-1.68-8.7A98,98,0,0,1,203,148.17c-.09-1.18.5-1.13,1.31-.27a10.3,10.3,0,0,1,2.37,4.64l1.24,5.64c.39,1.88.71,3.78,1,5.68.66,3.8,1.27,7.61,1.79,11.46.63,4.61,1.66,9.33,2.47,14q1.33,7.72,2.56,15.47c.5,3.18,1,6.36,1.49,9.54.39,2.41.68,4.83,1.16,7.16s1.05,4.73,1.61,7.08c.87,3.67,1.91,7.22,2.63,10.93.16.82.33,1.62.44,2.46.41,3.13.08,4.26-.82,4.87a3,3,0,0,1-.61.39c-.34.11-.63-.16-.85-.69a12.16,12.16,0,0,1-.56-2.38c-.52-3.14-1.28-6.4-2.07-9.73s-1.6-6.74-2.41-10.15c-.29-1.28-.57-2.57-.82-3.92s-.41-2.61-.62-3.92l-1.22-7.73Z"/><path class="cls-1" d="M192.72,77.67c-.15-4.23-.24-8.45-.3-12.68,0-1.54-.11-3.08-.11-4.62.05-5.44.22-10.88.59-16.32l.23-3.62c.05-1.21.13-2.42.24-3.62l.2-2.32c.09-.77.21-1.54.32-2.31a22.69,22.69,0,0,1,.43-2.3c.19-.76.45-1.51.71-2.25.33-.93.86-.64,1.31.3a8.25,8.25,0,0,1,.59,1.8,6.75,6.75,0,0,1,.11,1.12,6.56,6.56,0,0,1,0,1.25l-.23,2.27c-.08.75-.1,1.53-.16,2.29s-.15,1.52-.23,2.29l-.17,2.3-.2,2.31-.16,2.33-.36,4.67c-.14,1.87-.18,3.78-.15,5.71s.06,3.86.1,5.78c0,4.22.14,8.45.3,12.68.08,2.6.22,5.21.35,7.81.24,3.93.46,7.89.86,11.79.32,3,.84,6,1.3,9,.11.65.21,1.29.32,2,.34,2.46.21,3.26-.59,3.89a3,3,0,0,1-.55.42c-.64.32-1.3-.63-1.7-2.42a126.22,126.22,0,0,1-2.3-16.68c-.36-4.24-.59-8.5-.81-12.76Z"/><path class="cls-1" d="M205.68,140.7a38.77,38.77,0,0,1-4.11,3.88,10.88,10.88,0,0,1-1.86,1.34l-.55.23c-.18.08-.46.13-.69.2a3.78,3.78,0,0,1-1.42.06,2.93,2.93,0,0,1-2.15-1.6,4.21,4.21,0,0,1-.42-1.3,5.24,5.24,0,0,1-.07-1.09,8.94,8.94,0,0,1,.31-1.94A11,11,0,0,1,196,137.3a8.67,8.67,0,0,1,2.92-2.84c.35-.21.69.2.84.84a2.82,2.82,0,0,1-.27,2.12c-.19.25-.35.5-.51.74a5.82,5.82,0,0,1-.44.66,6.56,6.56,0,0,0-.69,1.28,9.71,9.71,0,0,0-.66,2.83.43.43,0,0,0,.36.57.8.8,0,0,0,.39-.08,5.92,5.92,0,0,0,.75-.45,25.55,25.55,0,0,0,3.69-3.43,27.77,27.77,0,0,0,2-2.46,13.44,13.44,0,0,0,2.18-4.12,2.73,2.73,0,0,0-.45-2.63c-.09-.11-.25-.15-.35-.24s-.18-.15-.28-.22a.89.89,0,0,1-.11-.38,2.68,2.68,0,0,1,0-1c0-.2,0-.4.07-.58a1,1,0,0,1,.55-.71,1.84,1.84,0,0,1,1.34-.14,4.43,4.43,0,0,1,2.08,1.79,5.42,5.42,0,0,1,.75,2.69,9.71,9.71,0,0,1-1.1,4.39,24.26,24.26,0,0,1-3.34,4.84Z"/><path class="cls-1" d="M193.69,137.21h.07l.26-.12c.18-.08.35-.13.53-.23a11.8,11.8,0,0,0,1.06-.63,16.09,16.09,0,0,0,2-1.61c.49-.43.9-.94,1.37-1.4a34.29,34.29,0,0,0,2.37-2.6c.38-.46.74-.92,1.07-1.4a14.15,14.15,0,0,0,.87-1.35,7.23,7.23,0,0,0,.42-2.84,4.52,4.52,0,0,0-.35-1.64c-.23-.42-.3-.53-.73-.69-.24-.08-.43-.63,0-1.2a1.42,1.42,0,0,1,1.22-.57,2.17,2.17,0,0,1,1.67,1,6.11,6.11,0,0,1,.87,2.76,10.68,10.68,0,0,1-.08,2.47,7.59,7.59,0,0,1-.27,1.25,5.56,5.56,0,0,1-.26.74l-.3.57a12.41,12.41,0,0,1-1.37,1.86c-1.17,1.36-2.19,2.87-3.46,4.19a19.06,19.06,0,0,1-4.86,3.7l-.91.41-1.23.36a2.41,2.41,0,0,1-2.28-.77,3.5,3.5,0,0,1-.75-1.75,6.92,6.92,0,0,1-.07-.85,7.78,7.78,0,0,1,.07-.82,8.33,8.33,0,0,1,1.13-2.78,19.24,19.24,0,0,1,2.55-3.51c.22-.22.42-.46.67-.67,1-.68,1.43-.71,1.94-.43a1.77,1.77,0,0,1,.33.19c.31.25.15.79-.26,1.5a17.63,17.63,0,0,1-1,1.51c-.31.5-.63,1-.94,1.45a9.86,9.86,0,0,0-1.37,2.74,3.69,3.69,0,0,0-.16.74c0,.39,0,.26,0,.3s0,.11.11.06Z"/><path class="cls-1" d="M193.39,129.47l.06,0h.1a.54.54,0,0,0,.25,0,2.31,2.31,0,0,0,.72-.4,13.91,13.91,0,0,0,1.73-1.72c.43-.49.89-1.14,1.41-1.63,1.85-1.72,3.72-3,4.4-5a3.75,3.75,0,0,0,.24-1.33,4.78,4.78,0,0,0-.23-1.35,3.12,3.12,0,0,0-.77-1.36,1.21,1.21,0,0,0-1.1-.35c-.3,0-.55-.38-.33-1a1.38,1.38,0,0,1,.86-.81,2,2,0,0,1,1.76.25,4.91,4.91,0,0,1,1.68,2.34,7.17,7.17,0,0,1,.42,2.54,7.36,7.36,0,0,1-1.9,4.56c-1.23,1.39-2.43,2.64-3.42,3.85s-2.08,3.24-4.52,4.18a6,6,0,0,1-1.2.2,3.82,3.82,0,0,1-1.25-.26,3.48,3.48,0,0,1-1.78-1.61,4.76,4.76,0,0,1-.43-3.17,7.86,7.86,0,0,1,.4-1.46,12.37,12.37,0,0,1,.67-1.31,12.93,12.93,0,0,1,2.86-3.37c.25-.2.49-.41.76-.59,1-.58,1.49-.54,2,0a4.47,4.47,0,0,1,.35.41,1.29,1.29,0,0,1-.39,1.66c-.81.79-1.55,1.54-2.2,2.29a7.09,7.09,0,0,0-1.34,2.31,2.91,2.91,0,0,0-.12,1.48,1,1,0,0,1,.08.22c.05,0,.06.12.09.14s0,.08.06.06,0,0,.06,0Z"/><path class="cls-1" d="M214.2,262.28c1.72-1.07,3.46-2,5.11-3a24.78,24.78,0,0,0,2.34-1.52,8.82,8.82,0,0,0,.95-.83,2.54,2.54,0,0,0,.47-.67.34.34,0,0,0,0-.24A.28.28,0,0,0,223,256l-.24-.21-.14-.12h0a3.83,3.83,0,0,0-1.39-.67,20.09,20.09,0,0,0-3.47-.58c-1.23-.11-2.48-.21-3.77-.4a14.88,14.88,0,0,1-2-.37,3.78,3.78,0,0,1-2.29-1.35,2.37,2.37,0,0,1,.28-2.64,7.62,7.62,0,0,1,1.5-1.62,12.82,12.82,0,0,1,6.63-2.48,17.3,17.3,0,0,1,8.7,1c.86.36.61.6-.2.72a29.29,29.29,0,0,1-3.74.29c-1.38,0-2.75.07-4.08.23a15.79,15.79,0,0,0-3.8.95,6.53,6.53,0,0,0-2.82,2l-.11.12-.06.06a.23.23,0,0,0,0,.18.4.4,0,0,0,.14.15s.17.06.24.1l.44.12c1.55.37,3.36.41,5.17.64.91.1,1.84.22,2.79.42a8.28,8.28,0,0,1,2.91,1.11,4.22,4.22,0,0,1,.47.39l.06.06,0,0a3.15,3.15,0,0,1,.68.72,2.52,2.52,0,0,1,.49,1,2.75,2.75,0,0,1-.49,2.08,8.78,8.78,0,0,1-2.31,2.16c-1.59,1.14-3.24,2.05-4.85,3-1,.61-2.06,1.23-3,1.89a13,13,0,0,0-1.34,1.06,6,6,0,0,0-.56.57,3.54,3.54,0,0,0-.37.52.79.79,0,0,0,.46,1.17,3.45,3.45,0,0,0,1,.12,9,9,0,0,0,1.25-.13,21.26,21.26,0,0,0,5-1.68,25.17,25.17,0,0,0,6.67-4.46,6.16,6.16,0,0,0,.9-1.25,7.69,7.69,0,0,0,.64-1.82,2.84,2.84,0,0,1,.17-.58,1.93,1.93,0,0,1,.19-.47,3.6,3.6,0,0,1,.22-.4c.13-.17.32-.06.61.35a3.66,3.66,0,0,1,.6,2.2,5.93,5.93,0,0,1-.64,2.26,9.48,9.48,0,0,1-1.31,1.85,14.79,14.79,0,0,1-3.33,2.6,30,30,0,0,1-7.54,3.47,13.62,13.62,0,0,1-3.33.56,5.35,5.35,0,0,1-2.23-.37,2.21,2.21,0,0,1-.62-.35,3,3,0,0,1-.55-.45,2.33,2.33,0,0,1-.42-.57c-.09-.21-.17-.43-.28-.64a3.6,3.6,0,0,1,.45-2.76,6.32,6.32,0,0,1,1.25-1.48,19.93,19.93,0,0,1,2.6-1.92Z"/><path class="cls-1" d="M220.15,272.12a18.4,18.4,0,0,0,3.83-.93c.46-.17.89-.42,1.35-.61a21.53,21.53,0,0,0,4.59-2.56,7.41,7.41,0,0,0,1.55-1.67,10,10,0,0,0,1.26-2.48c.1-.27.41-.27.75,0a1.82,1.82,0,0,1,.46.71,1.73,1.73,0,0,1,.1,1,6.69,6.69,0,0,1-1.73,3.26,11.37,11.37,0,0,1-2.69,2.22c-1.2.67-2.33,1.51-3.58,2.12a20.67,20.67,0,0,1-4.32,1.51,14.82,14.82,0,0,1-2.87.37,6.73,6.73,0,0,1-2.34-.35,3.42,3.42,0,0,1-1.14-.7,3,3,0,0,1-.47-.53c-.12-.19-.2-.35-.31-.53a2.78,2.78,0,0,1-.3-2.17,3.26,3.26,0,0,1,1.31-1.61,5.31,5.31,0,0,1,.61-.4c.81-.33,1.1-.28,1.49,0l.25.16c.24.18.11.66-.32,1.2s-.64.74-.85,1a.81.81,0,0,0-.19.39.08.08,0,0,0,0,.1,1.21,1.21,0,0,0-.2-.09h.09a2.63,2.63,0,0,0,.33,0s.11.06.17.14c.24.31.2.15.3.2a4.45,4.45,0,0,0,1.08.22,7.16,7.16,0,0,0,1.75-.11Z"/><path class="cls-1" d="M228.37,277.35a33,33,0,0,1-3.26.81c-.4.06-.78.21-1.2.25a11.76,11.76,0,0,1-2.23.09,4.84,4.84,0,0,1-1.17-.16,5,5,0,0,1-1.13-.42,3,3,0,0,1-.93-.76A2.31,2.31,0,0,1,218,276a4.43,4.43,0,0,1,.51-2.48c.11-.22.43-.11.71.18a1.55,1.55,0,0,1,.45,1.16,3.62,3.62,0,0,0,0,.9.61.61,0,0,0,.17.38,1.59,1.59,0,0,0,.56.31c.29.12.59.15.91.25a7.58,7.58,0,0,0,2.68-.24,30.76,30.76,0,0,0,3-.77c.62-.2,1.24-.4,1.85-.65a19.63,19.63,0,0,0,2.67-1.24,9.15,9.15,0,0,0,1.74-1.37c.13-.11.22-.23.33-.32a.8.8,0,0,1,1.07-.14l.33.14c.34.16.42.59.12,1.11a5.77,5.77,0,0,1-1.62,1.71,10.1,10.1,0,0,1-2,1.2,27.36,27.36,0,0,1-3.14,1.25Z"/><path class="cls-1" d="M238.15,479.32a17.27,17.27,0,0,0,1.51-1.2c.47-.41.89-1,1.29-1.35a.25.25,0,0,0,.05-.28,3.33,3.33,0,0,0-.75-1,13.84,13.84,0,0,0-2.71-1.89,37.31,37.31,0,0,0-3.69-1.66,55.61,55.61,0,0,0-14.14-3.45,44.11,44.11,0,0,0-6.5-.24c-2.76.12-5.52.4-8.28.79-.86.11-.81-.16-.15-.61a10.4,10.4,0,0,1,3.57-1.45,38.87,38.87,0,0,1,8.75-.76,40.48,40.48,0,0,1,8.75,1,62.47,62.47,0,0,1,10.37,3,24.66,24.66,0,0,1,4.55,2.49,9,9,0,0,1,2,1.94,6.94,6.94,0,0,1,.41.71,2.84,2.84,0,0,1,.25.93,2.52,2.52,0,0,1-.52,1.81l-1.25,1.41a20.09,20.09,0,0,1-6.25,4.1,32.13,32.13,0,0,1-10.84,2.38,39.7,39.7,0,0,1-8.51-.25,17,17,0,0,1-1.85-.32c-2.28-.64-2.89-1.2-3.15-1.92a2.79,2.79,0,0,1-.15-.5c0-.51,1-.57,2.56-.33a63.7,63.7,0,0,0,7.22.65,41.22,41.22,0,0,0,7.35-.38,23.4,23.4,0,0,0,10-3.77Z"/><path class="cls-1" d="M187.68,419.91c-1.85-6.16-3.88-12.27-5.73-18.51-.35-1.12-.66-2.29-1-3.44s-.59-2.37-.81-3.54c-1.43-8.3-1.76-16.66-2.18-24.94-.1-1.84-.21-3.68-.34-5.51s-.22-3.72-.24-5.56c-.14-4.74.29-9.42.45-14.08,0-1.46.39-1.28.83-.05a23,23,0,0,1,1,6.25l.1,3.6c0,1.19,0,2.38,0,3.56,0,2.38.13,4.65.32,7.07.33,4.81.55,9.6.83,14.4a107.61,107.61,0,0,0,2.47,17.3c1.61,6.17,3.75,12.35,5.69,18.55,1.2,3.83,2.38,7.66,3.49,11.52,1.68,5.84,3.18,11.77,4.43,17.68.54,2.29.93,4.59,1.44,6.86l.59,3.44c.2,1.14.41,2.29.52,3.45s.27,2,.35,3.06c.24,3.85,0,5.1-.72,5.92a3.25,3.25,0,0,1-.47.54c-.52.36-1.06-1.18-1.38-3.9-.09-1-.25-2-.43-3.05s-.28-2-.41-3.08q-.51-3.09-1-6.23c-.8-4.17-1.64-8.39-2.69-12.6-1.52-6.25-3.28-12.49-5.21-18.68Z"/><path class="cls-1" d="M170.4,490.63a14.53,14.53,0,0,0,2-.31c.65-.13,1.31-.23,1.95-.38l1.92-.55c.32-.1.64-.18,1-.29l.92-.36a26.51,26.51,0,0,0,2.65-1.21,32.85,32.85,0,0,0,8.59-5.74c.55-.54,1.09-1.1,1.63-1.66a6.9,6.9,0,0,0,.74-.88l.72-.91c1.28-1.52,2.24-3.26,3.5-4.82.39-.48.68-.24.74.42a5.22,5.22,0,0,1-.65,2.78,28.14,28.14,0,0,1-8.49,9.45c-1.06.73-2.16,1.43-3.23,2.21s-2.27,1.34-3.45,1.91a35.15,35.15,0,0,1-4,1.54l-2.07.63-2.1.44a21.16,21.16,0,0,1-2.61.42,25.79,25.79,0,0,1-2.62.25l-2,.1-2-.05-1,0-1-.08-2-.16c-1-.15-2-.21-3-.35l-1.52-.23a8.64,8.64,0,0,1-1.5-.29c-.44-.12-.88-.22-1.31-.35a3.42,3.42,0,0,1-1.59-.88,1.54,1.54,0,0,1-.47-.92c0-.16-.07-.31-.07-.43,0-.36.81-.58,2-.49,1.71.29,3.43.55,5.15.87l2.63.36,2.66.24c.66,0,1.33,0,2,.05l1,0,1,0c.66,0,1.33,0,2-.09l2-.25Z"/><path class="cls-1" d="M147,457.78c-.67-4-1.48-7.95-2.19-12-.26-1.47-.58-2.93-.78-4.41l-1-7.77c-.36-2.59-.69-5.2-.93-7.82-.21-2.32-.41-4.67-.48-7a39.72,39.72,0,0,1,.64-8.92c.17-.92.41-.76.63,0a18.51,18.51,0,0,1,.55,3.94c.15,3,.16,5.91.46,8.87s.71,5.92,1,8.94c.2,1.81.49,3.64.78,5.49s.59,3.68.89,5.51c.66,4,1.51,8,2.28,12,.47,2.47.86,5,1.26,7.47.61,3.76,1.21,7.57,1.65,11.36a57.94,57.94,0,0,1,.61,8.84,18.54,18.54,0,0,1-.11,2c-.28,2.45-.71,3.19-1.3,3.58a2.38,2.38,0,0,1-.41.25c-.44.12-.49-.88-.43-2.58a91.27,91.27,0,0,0-1.18-15.74c-.3-2-.63-4-1-6s-.65-4.07-1-6Z"/><path class="cls-1" d="M140,273.1c.17,5.24.19,10.49,0,15.72-.06,1.92,0,3.83-.16,5.74-.39,6.72-1.17,13.43-2.09,20.07-.38,2.95-.76,5.91-1,8.84-.36,3.76-.56,7.53-.71,11.3-.05,1.17-.37,1-.72,0a15.61,15.61,0,0,1-.73-5.07c.05-3.92.32-7.81.7-11.68s1-7.7,1.43-11.55c.58-4.61.71-9.45.87-14.2q.27-7.83.08-15.68c-.08-3.23-.22-6.43-.54-9.62-.46-4.84-1.18-9.7-2-14.49-.62-3.72-1.41-7.35-2-11.07-.13-.81-.26-1.61-.36-2.44-.32-3.08-.18-4.09.37-4.79a2.65,2.65,0,0,1,.37-.47c.45-.32.92.9,1.32,3.09,1.21,6.52,2.44,13.39,3.52,20.41a143.74,143.74,0,0,1,1.64,15.85Z"/><path class="cls-1" d="M118.75,483.13c2.45-.12,4.91-.11,7.37,0,.89,0,1.79,0,2.69.12a42.7,42.7,0,0,1,9.33,1.9,24.56,24.56,0,0,1,4,1.6,11.37,11.37,0,0,1,4.3,3.39c.34.47,0,.66-.65.61a5.23,5.23,0,0,1-2.25-.78A21.51,21.51,0,0,0,139,487.8a43.35,43.35,0,0,0-4.91-1.58,33.14,33.14,0,0,0-6.42-.75c-2.38-.13-4.78-.13-7.19-.05-1.48.06-3,.14-4.43.29a66.88,66.88,0,0,0-6.67.93c-1.7.35-3.33.86-5,1.33l-1.07.33c-1.36.36-1.82.34-2.28-.14a3.28,3.28,0,0,1-.31-.34c-.26-.39.2-.92,1.18-1.35a36.63,36.63,0,0,1,4.56-1.61c1.59-.4,3.22-.73,4.86-1,2.44-.39,4.91-.63,7.38-.8Z"/><path class="cls-1" d="M79.44,386.08q1.28,11.84,3.56,23.58c.52,2.85,1.25,5.67,1.84,8.51,1.11,5,2.24,10,3.74,14.86s3.13,9.74,4.71,14.66c1.41,4.35,2.77,8.77,3.91,13.18,1.61,5.87.84,11.85,2.32,17.24.56,1.62.18,1.64-.84.36a16.91,16.91,0,0,1-2.61-7.54,62.72,62.72,0,0,0-1.23-8.56c-.77-2.83-1.56-5.66-2.43-8.47-1.73-5.63-3.79-11.21-5.52-17-1-3.46-2.07-7-3-10.59-.47-1.79-.89-3.59-1.33-5.39s-.85-3.59-1.22-5.39c-1.69-7.91-3.07-15.9-4.09-23.92l-.46-3.71-.37-3.72c-.27-2.48-.44-5-.62-7.44-.51-7.53-.6-15.11-.37-22.59a170.32,170.32,0,0,1,1.2-17.25c.17-1.26.35-2.49.52-3.76a35.76,35.76,0,0,1,1.13-4.91,6,6,0,0,1,1-2.08,3.89,3.89,0,0,1,.47-.58c.46-.37.44,1.59,0,5-.25,2.53-.51,5.1-.77,7.69-.1,1.29-.19,2.6-.29,3.91l-.14,2-.09,2-.24,4c0,1.33-.08,2.66-.13,4-.12,2.66,0,5.35-.09,8a231.68,231.68,0,0,0,1.49,23.95Z"/><path class="cls-1" d="M313.76,373c.78-12,1.36-24.07,1.8-36.1.13-4.4.22-8.79.32-13.18.39-15.49.5-31-.1-46.46-.23-6.86-.73-13.75-1.36-20.53-.76-8.73-2-17.42-3.08-26.11-.35-2.71-.11-2.39.61-.17a71.37,71.37,0,0,1,3,11.33c.69,4.45,1.36,8.91,1.83,13.38.25,2.24.41,4.48.59,6.73s.35,4.48.46,6.73c.29,4.5.45,9,.6,13.51s.16,9,.13,13.55c0,10.82,0,22.08-.29,33.14-.33,12.15-.86,24.31-1.5,36.45-.41,7.48-.94,14.95-1.55,22.41-.91,11.3-2.09,22.62-3,33.82a249,249,0,0,0-1,25.81c.05,1.89.17,3.72.35,5.59a67.86,67.86,0,0,0,.91,7.3,27.19,27.19,0,0,1,.46,3.29c0,.36.1.83.08,1.07,0,.41-.46,0-1.18-1.15a21.17,21.17,0,0,1-2.06-5.76,58.25,58.25,0,0,1-1.2-11.88c-.08-4,.05-8,.26-12.07.43-8.07,1.18-16.21,1.92-24.35,1.11-12.09,2.24-24.22,3-36.34Z"/><path class="cls-1" d="M372.54,383c-.33,8-.68,16.08-.85,24.1-.08,4-.12,8,0,12a51.78,51.78,0,0,0,1.65,11.62c.7,2.79,1.61,5.58,2.42,8.44s1.51,5.76,2.09,8.66a62.41,62.41,0,0,1,1.43,15.78,23.9,23.9,0,0,1-1.78,8,13.32,13.32,0,0,1-5.54,6.31,16,16,0,0,1-3.94,1.49,17.9,17.9,0,0,1-4.12.42,34.11,34.11,0,0,1-7.92-1.16,115.36,115.36,0,0,1-14.78-5.19c-2.13-.86-4.22-1.74-6.38-2.39a33.75,33.75,0,0,0-6.56-1.38,22.56,22.56,0,0,0-6.57.24,17.43,17.43,0,0,0-3.1,1,10.71,10.71,0,0,0-1.45.69,5.77,5.77,0,0,0-1.24.8,2.05,2.05,0,0,0-.26,2.82,10.91,10.91,0,0,0,2.73,2.93,32.42,32.42,0,0,0,7.41,4.18,49,49,0,0,0,8.21,2.6,38.36,38.36,0,0,0,8.53,1c1.78,0,2.56,0,2.54.18s-.88.54-2.44.82a31.61,31.61,0,0,1-15.74-1.49,39.83,39.83,0,0,1-8.42-4,20.53,20.53,0,0,1-3.8-3.08,9.74,9.74,0,0,1-1.56-2.25,5,5,0,0,1-.46-3.3A4.94,4.94,0,0,1,314.6,470l.61-.43.54-.3c.37-.19.72-.41,1.1-.57a19,19,0,0,1,4.7-1.48,26.38,26.38,0,0,1,9.55.18,45.76,45.76,0,0,1,8.91,2.71c2.8,1.13,5.54,2.27,8.32,3.32a80.7,80.7,0,0,0,8.41,2.72,28.48,28.48,0,0,0,8.46,1.07A13.1,13.1,0,0,0,370,476a10.21,10.21,0,0,0,3.76-3c2-2.63,2.8-6.16,3-9.69a51.75,51.75,0,0,0-.74-10.79c-.58-3.6-1.38-7.21-2.28-10.72-1-3.88-2.3-7.72-3.25-11.76a54.78,54.78,0,0,1-1.08-6.12c-.25-2.06-.33-4.13-.4-6.17-.16-8.18.15-16.29.43-24.4q.62-15,1.24-29.93c.59-15.1,1.13-30.28,1.13-45.27q0-8.73-.33-17.33c-.23-5.74-.55-11.46-1.12-17.17-.09-1.26-.27-2.49-.41-3.73s-.28-2.49-.46-3.75c-1.25-9.32-2.06-12.17-2.35-14.22-.07-.47-.19-1.07-.21-1.36-.15-1,2,2.44,3.73,9.32a115.38,115.38,0,0,1,2.42,15.6q.76,7.94,1.05,16c.45,10.78.43,21.7.22,32.63-.31,16.23-1,32.51-1.68,48.75Z"/><path class="cls-1" d="M416.67,482.34c-1.84-.22-3.68-.3-5.49-.69a49.71,49.71,0,0,1-5.4-1.11c-.66-.16-1.31-.31-2-.45a12,12,0,0,1-1.93-.54,56.62,56.62,0,0,1-6.59-2.58c-1.07-.5-2.16-.94-3.2-1.49L389,473.75c-1.86-.94-3.56-2.18-5.32-3.25L382,469.42l-1.56-1.23c-1-.83-2-1.7-3-2.62-.59-.58-.17-.89.71-.86a6.62,6.62,0,0,1,3.41,1.22,31.74,31.74,0,0,0,3.24,2.19c1.11.69,2.19,1.42,3.27,2.14s2.27,1.29,3.39,2l1.7,1c.57.35,1.18.58,1.77.89s1.43.67,2.16,1a16.68,16.68,0,0,0,2.26.86c1.55.46,3.09,1,4.65,1.41l2.59.63a25.82,25.82,0,0,0,2.61.57l2.63.45c.44.07.88.16,1.32.21l1.33.13c1.09.1,2.19.22,3.28.3l3.3.09c1.67.05,3.34-.07,5-.11s3.33-.25,5-.53c1.27-.19,2.53-.4,3.77-.71l1.86-.43,1.84-.48,1.62-.42c2-.44,2.79-.33,3.35,0a2.26,2.26,0,0,1,.38.24c.29.29-.45.86-1.88,1.57a39.15,39.15,0,0,1-6.85,2.2,45,45,0,0,1-7.34,1.2c-1.84.23-3.71.2-5.57.29-.93,0-1.86,0-2.79-.06s-1.87,0-2.79-.13Z"/><path class="cls-1" d="M421.92,260A328,328,0,0,0,424,297.6c.52,4.57,1.22,9.08,1.9,13.63,2.35,16,5,32.06,7.38,48.11,1.07,7.13,2.16,14.29,3.1,21.38.6,4.52,1.49,9,2.21,13.58a72.58,72.58,0,0,1,1.15,13.82c-.15,2.89-.43,2.46-.78.05s-1.17-6.81-2.05-11.91c-.76-4.59-1.73-9.18-2.45-13.86l-2.07-13.91q-2.14-13.9-4.29-27.89c-1.7-11.17-3.83-22.74-5.56-34.2a311.56,311.56,0,0,1-3.31-38.1q-.3-11.78.22-23.54c.54-11.87,1.75-23.73,2.51-35.45a265.68,265.68,0,0,0,.48-27c-.05-2-.2-3.9-.32-5.89-.08-1.84-.23-3.37-.3-4.64s-.08-2.32-.12-3.18a9.74,9.74,0,0,1,.38-3.56,7.56,7.56,0,0,1,.41-1.11c.26-.4.6.14,1,1.46a37.38,37.38,0,0,1,1.16,6.16,173.21,173.21,0,0,1,.87,25c-.26,8.47-.92,17-1.59,25.53-1,12.67-2,25.31-1.91,38Z"/><path class="cls-1" d="M221.47,257.49a1.56,1.56,0,0,0,0-.7c0-.11-.09-.19-.1-.3-.05-.39-.09-.82-.18-1.24a1.18,1.18,0,0,0-.24-.49c-.14-.2-.37-.36-.25-.67s2.11-.84,2.23-.63a2.13,2.13,0,0,1,.26,1.4c0,.34.18.57.26.88a6.88,6.88,0,0,1,.2,1.11,5,5,0,0,1,0,.77,4.51,4.51,0,0,1-.31,1.15c-.13.26-.1.6-.27.81a1,1,0,0,1-.1.15c-.18.14-.34.1-.7-.15l-.24-.17a1.54,1.54,0,0,1-.5-.63,2.34,2.34,0,0,1-.24-1c0-.07.08-.11.1-.27Z"/><path class="cls-1" d="M316.48,76.73,316.24,88c0,1.37,0,2.75,0,4.12-.12,4.84-.29,9.67-.28,14.5,0,2.15.12,4.3.23,6.41.09,1.36.17,2.72.3,4.07.06.67.11,1.35.14,2s.12,1.33.15,2c0,.84-.5.85-1.14.22a6.2,6.2,0,0,1-1.65-3.51,91.44,91.44,0,0,1-.55-16.94c.15-3.38,0-6.89,0-10.34l.15-11.38c0-2.33.06-4.67.05-7,0-3.53,0-7.08-.14-10.57-.12-2.72-.4-5.38-.68-8-.06-.58-.14-1.16-.18-1.75-.21-2.18-.1-2.88.49-3.44a2.74,2.74,0,0,1,.41-.37c.46-.28,1,.57,1.35,2.19a56.34,56.34,0,0,1,1.16,7.41c.28,2.53.37,5.09.43,7.65.08,3.81.06,7.63.05,11.43Z"/><path class="cls-1" d="M260.11,172.89c-1-4.28-8.48-5.12-11.94-5-1.6.05-1.61,2.55,0,2.5a17.17,17.17,0,0,1,5.7.75c1.18.36,3.51,1,3.83,2.41.37,1.57,2.78.9,2.41-.66Z"/><path class="cls-1" d="M257.36,174.84c-.34,2.23-3,4.3-5.28,3.57C244.38,176,258.69,166.14,257.36,174.84Z"/><path class="cls-1" d="M276.5,179.59c-.09-5.3-5.85-5-9.7-5.55-1.58-.23-2.26,2.18-.67,2.41,2.33.32,7.81-.22,7.87,3.14a1.25,1.25,0,0,0,2.5,0Z"/><path class="cls-1" d="M273.5,181c-.4,2.22-2.33,3.68-4.49,2.61C262.8,180.54,275.26,171.32,273.5,181Z"/><path class="cls-1" d="M265.48,156.15c-2.26-6.86-10-7.05-15.68-4.47-1.76.79-.23,3.38,1.51,2.59,3.81-1.73,9.69-2.13,11.27,2.68.6,1.82,3.5,1,2.9-.8Z"/><path class="cls-1" d="M274.89,162.9a4.62,4.62,0,0,1,4.32-.27c1.81.68,2.59-2.22.8-2.9a7.42,7.42,0,0,0-6.63.58c-1.61,1.05-.11,3.65,1.51,2.59Z"/><path class="cls-1" d="M262.52,191.65a13.15,13.15,0,0,1-1,4.11l-.37.76a4.3,4.3,0,0,1-.5.73,2.87,2.87,0,0,1-.59.56,3.63,3.63,0,0,1-.66.47,5.2,5.2,0,0,1-1.46.53,5.07,5.07,0,0,1-3-.36,19.55,19.55,0,0,1-2.1-1,10.87,10.87,0,0,1-2.24-1.59c-.19-.21.05-.59.49-.88a1.79,1.79,0,0,1,1.61-.24c1.77.79,3,1.82,4.25,1.91a1.73,1.73,0,0,0,1.12-.34c.19-.11.29-.26.46-.37s.25-.33.4-.49a7.61,7.61,0,0,0,1.13-3.13,18.27,18.27,0,0,0,.22-2.24,24,24,0,0,0-.11-3.49,23.21,23.21,0,0,0-.57-2.63,4.08,4.08,0,0,1-.11-.59,2.54,2.54,0,0,1,0-.47,1,1,0,0,1,.13-.34,1.11,1.11,0,0,1,.44-.42,1.65,1.65,0,0,1,.26-.14c.26-.11.6.15,1,.64a9,9,0,0,1,.82,2.42,24.1,24.1,0,0,1,.39,2.59,27,27,0,0,1,.05,4Z"/><path class="cls-1" d="M241.29,203.57a3.08,3.08,0,0,0-1.66,3.66,2.66,2.66,0,0,0,3.44,1.72,3.85,3.85,0,0,0,2.61-3.46,2.59,2.59,0,0,0-2.42-2.45c-1.7-.12-2.81,1.37-3.17,2.86s2,2.23,2.41.67c0-.17.09-.34.14-.51s.06-.15,0,0l.1-.19c0-.06.07-.12.11-.17-.1.12-.11.13,0,0l.19-.18c-.24.23,0,0,.08,0-.27.18-.08.06,0,0-.28.12-.2,0,0,0s-.27-.06,0,0-.19-.09,0,0,.3.24,0,0l.14.14c-.24-.22-.1-.11,0,0-.18-.29-.07-.11,0,0-.11-.32,0-.16,0,0s0,.05,0-.14a1.24,1.24,0,0,1,0,.16,1.42,1.42,0,0,1,0,.16c.07-.16.07-.18,0,0s-.28.38-.1.17l-.24.26a1.41,1.41,0,0,1-.28.23s-.48.24-.21.12l-.19,0c.18,0,.2,0,.06,0s-.31-.09,0,0c-.34-.11.11.09-.08,0s.16.2-.05-.05.17.18,0,0a1,1,0,0,1-.08-.14c.07.17.08.2,0,.07a.94.94,0,0,1,0-.16c0,.19,0,.22,0,.08,0-.33-.08.09,0-.09s.05-.17.08-.25c-.15.39.2-.23,0,.06,0,0,.34-.32.13-.16a2.75,2.75,0,0,1,.41-.24A1.26,1.26,0,0,0,243,204a1.28,1.28,0,0,0-1.71-.45Z"/><path class="cls-1" d="M338,145.72c0,.36-.47.3-1.23,0a2.7,2.7,0,0,1-.87-.71,3.65,3.65,0,0,1-.15-.73c0-.13.68-1.6.89-2.12a5.9,5.9,0,0,1,.83-1.34l1.94-2.51a2,2,0,0,1,.52-.48,6.24,6.24,0,0,0,1.65-1.75.58.58,0,0,0,.16-.38,8.06,8.06,0,0,1,1.54-2.14c.62-.4,1.15-.86,1.72-1.3.08-.06.11-.17.28-.16.4,0,.48-.16.63-.32a3.65,3.65,0,0,1,.7-.59,1.44,1.44,0,0,1,.59-.11c.19,0,.55.34.57.41s.3.26.48.37a1.4,1.4,0,0,1,.18.13,7.71,7.71,0,0,1-.37,2.15l-.7,1.16c-.36.58-.73,1.19-.79,1.33a.93.93,0,0,1-.35.3c-.06,0-1.1,1.81-1.16,1.87-.29.31-.46.72-1,.85-.1,0-.14.11-.19.18a12.1,12.1,0,0,1-1.46,1.58,9.52,9.52,0,0,0-.68.86c0,.05-.12.07-.18.11a1,1,0,0,0-.2.15,20.67,20.67,0,0,0-1.6,2c-.1.18-1,.7-1.07.91S338,145.58,338,145.72Z"/><path class="cls-1" d="M345.66,159c-.27.15-.44-.22-.56-.92a2.23,2.23,0,0,1,.13-.95,3.77,3.77,0,0,1,.49-.43c.1-.07,1.59-.21,2.1-.28a5.38,5.38,0,0,1,1.45.05c1,.14,1.93.26,2.88.42a2,2,0,0,1,.61.2,5.91,5.91,0,0,0,2.11.56.52.52,0,0,0,.38,0,6.54,6.54,0,0,1,2.37.38c.57.34,1.16.59,1.74.87.08,0,.18,0,.24.16.13.33.33.32.52.37a3.33,3.33,0,0,1,.76.32,1.34,1.34,0,0,1,.33.42c.1.14,0,.58-.08.62s-.08.35-.09.54,0,.15,0,.2a7.48,7.48,0,0,1-1.89.61l-1.24-.08c-.61,0-1.26-.08-1.39-.07a.88.88,0,0,1-.39-.16c-.07,0-1.91-.12-2-.16-.37-.11-.76-.07-1.07-.42a.29.29,0,0,0-.21-.08,12.33,12.33,0,0,1-1.87-.51,7.76,7.76,0,0,0-1-.19.86.86,0,0,1-.16-.1,1,1,0,0,0-.21-.09,14.76,14.76,0,0,0-2.27-.39c-.18,0-1-.44-1.18-.43S345.77,159,345.66,159Z"/><path class="cls-1" d="M415.38,111a1.82,1.82,0,0,0,.44-1.48,7.47,7.47,0,0,0-.65-2.34,9.09,9.09,0,0,0-.47-.87,6.58,6.58,0,0,1-.47-.7,5.17,5.17,0,0,0-5.48-1.94,4,4,0,0,0-2.34,1.57,6.5,6.5,0,0,0-1,3.48c-.06.41-.57.47-1.12.13a2.48,2.48,0,0,1-.79-.84,2.55,2.55,0,0,1-.25-1.41,6.6,6.6,0,0,1,3.06-4.65,7.28,7.28,0,0,1,5.35-1,8.48,8.48,0,0,1,5.43,3.55,13.32,13.32,0,0,1,1.42,3,6.73,6.73,0,0,1,.26,3.65,5.86,5.86,0,0,1-2.83,3.46c-1.76,1.08-3.57,1.63-5.13,2.51a8,8,0,0,0-2.81,2.55c-.13.21-.22.43-.36.62a3.8,3.8,0,0,1-.32.45,1.25,1.25,0,0,1-.4.24,2.21,2.21,0,0,1-1,.19,4.84,4.84,0,0,1-.53,0,.78.78,0,0,1-.67-.45,2.24,2.24,0,0,1-.25-1.36,6.77,6.77,0,0,1,2.78-4,19.47,19.47,0,0,1,3.86-2.11c.92-.4,1.81-.76,2.56-1.14a4.78,4.78,0,0,0,1.63-1.17Z"/><path class="cls-1" d="M405.19,127.05a2.92,2.92,0,0,1-.35,1.88,3.72,3.72,0,0,1-1,1.1,4.28,4.28,0,0,1-.72.53c-.23.12-.46.19-.68.28l-.4.17-.15,0a3.84,3.84,0,0,1-1.34-.42,1.82,1.82,0,0,1-.73-.75,2.07,2.07,0,0,1-.15-.54,3.59,3.59,0,0,1,0-.47,5.17,5.17,0,0,1,.57-1.38c.27-.47.52-1,1.09-1.15.18,0,.55.44.86,1s.59,1.06.48,1.21-.42.55-.53.66.06.06-.3,0l-.35,0a1.49,1.49,0,0,0-.24,0l-.1,0,0,0c.13-.1.16-.2.31-.49,0-.05,0,.06.1.07l.27,0-.54.13c.21-.11.4-.25.59-.36a1.9,1.9,0,0,0,.77-.68.38.38,0,0,0-.07-.41.84.84,0,0,0-.33-.27c-.14,0-.14,0-.16-.1s.08.08.12.1l.06.09.19.34c0,.06.09.12.12.19.05.25-.17.43-.75.69l-.41.19a1.21,1.21,0,0,1-1.24-.09,2.29,2.29,0,0,1-.63-1.92,2.42,2.42,0,0,1,.9-1.64,2.65,2.65,0,0,1,1.93-.55,3.17,3.17,0,0,1,1.87.92,3.39,3.39,0,0,1,.94,1.76Z"/><path class="cls-1" d="M293.5,72.71a2.86,2.86,0,0,0,1.1-1,4.25,4.25,0,0,0,.54-1.72,3.64,3.64,0,0,0,0-.74,5.85,5.85,0,0,0,0-.73,5.23,5.23,0,0,0-.6-2.4,3.73,3.73,0,0,0-1.75-1.67,3.93,3.93,0,0,0-2.26-.22,13.65,13.65,0,0,0-2.87,1.17c-.31.12-.58-.27-.61-.83a1.9,1.9,0,0,1,.92-1.74,7.12,7.12,0,0,1,4.18-.89A5.56,5.56,0,0,1,296,64.15a8.53,8.53,0,0,1,1.74,4.78,9,9,0,0,1-.28,2.71A5.68,5.68,0,0,1,296,74.19a6.81,6.81,0,0,1-3,1.68c-1.55.48-3.07.59-4.43,1a5.24,5.24,0,0,0-2.52,1.45c-.13.13-.19.3-.3.42-.36.48-.61.57-1.41.46-.18,0-.35,0-.51-.05a.81.81,0,0,1-.62-.47,1.39,1.39,0,0,1,0-1.13,4.49,4.49,0,0,1,1.21-1.78,6.81,6.81,0,0,1,1.72-1.13,13.53,13.53,0,0,1,3.41-1,12.79,12.79,0,0,0,3.9-1Z"/><path class="cls-1" d="M280,84.69c.11,0,.22-.21.17-.5A2.29,2.29,0,0,0,280,84l1.35.6h-.09a1.79,1.79,0,0,0-1.14.14.41.41,0,0,0-.11.4c0,.22.23.4.07.75a2.69,2.69,0,0,1-1.23.39c-.6.09-1.24,0-1.32-.32a3,3,0,0,1,.17-1.93,2.5,2.5,0,0,1,1.51-1.39,12.83,12.83,0,0,1,1.71-.52l.89-.12.31.66.05.09a3.59,3.59,0,0,1,.37,2.1,2.56,2.56,0,0,1-.58,1.33,1.9,1.9,0,0,1-1.05.67,1.58,1.58,0,0,1-1.41-.38,2.93,2.93,0,0,1-.59-.75,2.64,2.64,0,0,1-.32-.75,1,1,0,0,1-.09-.31c0-.38.25-.49.89-.49h.44a2.42,2.42,0,0,1,1.13.36,1.16,1.16,0,0,0,.31.29l.12.08s0,0,0,0l-.08,0a1.59,1.59,0,0,0-.27.12l-.18.07a.75.75,0,0,0-.17.1c-.05.06-.09.1-.11.1s-.11.18-.1.09a.8.8,0,0,0-.25-.49,1.15,1.15,0,0,0-.4-.22Z"/><path class="cls-1" d="M196.16,217.2c-.33-2.58-.69-5.15-1.11-7.72l-.5-2.8c-.52-3.31-1.07-6.62-1.73-9.91-.28-1.46-.63-2.91-1-4.35-.45-1.84-1-3.67-1.26-5.56-.18-1.17,1.48,0,2.06,2.08,1,3.76,1.88,7.54,2.52,11.41.39,2.32,1,4.69,1.42,7.05.49,2.59.86,5.2,1.23,7.82.22,1.61.42,3.22.61,4.83.3,2.45.51,4.91.76,7.34.2,1.89.42,3.74.57,5.61,0,.41.09.82.1,1.23.06,1.55,0,2.05-.45,2.39a1.49,1.49,0,0,1-.28.23c-.31.15-.61-.47-.78-1.58-.49-3.31-.94-6.78-1.28-10.27-.28-2.59-.58-5.2-.95-7.79Z"/><path class="cls-1" d="M212.86,348.81l.33-5.88.06-2.15c.15-2.52.31-5,.46-7.55.06-1.12.06-2.24.06-3.35a38.17,38.17,0,0,1,.08-4.28c.1-.89,1.41.24,1.46,1.89a83,83,0,0,1-.23,8.77c-.13,1.75-.11,3.58-.18,5.38l-.28,5.93-.16,3.64c-.08,1.84-.19,3.69-.22,5.51,0,1.42,0,2.82.08,4.22l0,.92c0,1.16-.14,1.53-.46,1.77a1.7,1.7,0,0,1-.23.17c-.24.11-.45-.37-.56-1.21a69.3,69.3,0,0,1-.39-7.84c0-2,0-4,.11-5.94Z"/><path class="cls-1" d="M333.15,308.07c0-3.57,0-7.14-.09-10.71,0-1.3-.14-2.6-.19-3.9-.1-2.27-.25-4.6-.27-6.92l0-6.91c0-2-.11-4.08-.29-6.09a48.49,48.49,0,0,0-1.31-7.6c-.2-.78.05-.76.49-.18a8.71,8.71,0,0,1,1.4,3.26c1.16,5.32,1.2,10.72,1.24,16.05,0,1.6,0,3.22.18,4.84s.28,3.3.36,4.94c.2,3.61.29,7.23.33,10.84,0,2.23,0,4.45,0,6.67,0,3.37-.07,6.75-.11,10.08,0,2.6.13,5.14.1,7.7v1.69c0,2.11-.15,2.78-.5,3.23a1.57,1.57,0,0,1-.24.3c-.26.2-.49-.66-.62-2.2-.44-4.59-.47-9.43-.5-14.27l-.06-10.82Z"/><path class="cls-1" d="M410.15,224.4c.28-1.69.54-3.38.77-5.07.09-.62.12-1.24.2-1.86.29-2.17.59-4.35.81-6.54.1-1,.14-1.94.17-2.91a35.8,35.8,0,0,1,.16-3.73c.09-.77,1.14.21,1.2,1.66a50.74,50.74,0,0,1-.38,7.69c-.2,1.53-.28,3.13-.45,4.7-.19,1.72-.42,3.43-.66,5.15l-.45,3.16c-.22,1.59-.5,3.19-.69,4.77-.15,1.23-.2,2.46-.3,3.68,0,.27,0,.54-.06.81-.11,1-.27,1.3-.72,1.46a1.39,1.39,0,0,1-.31.1c-.34.06-.56-.39-.56-1.14a53.2,53.2,0,0,1,.51-6.81c.2-1.71.47-3.42.72-5.13Z"/></g></svg>