<?xml version="1.0" encoding="UTF-8"?>
<svg id="Layer_45" data-name="Layer 45" xmlns="http://www.w3.org/2000/svg" viewBox="0 0 520 520">
  <defs>
    <style>
      .cls-1 {
        fill: #231f20;
      }
    </style>
  </defs>
  <path class="cls-1" d="M307.36,355.91c.42-.24,.85-.46,1.28-.67,.15-.08,.28-.2,.44-.27,.56-.25,1.17-.39,1.75-.54,.26-.07,.49-.19,.73-.27,.32-.09,.64-.18,1.01-.11,.12,.02,.16,.2,.16,.44,0,.23-.03,.58-.15,.74-.39,.65-.92,.82-1.52,.99-.36,.09-.65,.35-.96,.55-.35,.21-.71,.41-1.05,.64-.21,.14-.42,.28-.62,.45-.3,.25-.61,.49-.83,.8-.16,.25-.22,.58-.33,.86-.02,.06-.03,.13-.06,.19-.12,.2-.29,.17-.82-.13l-.36-.2c-.4-.24-.66-.55-.67-.8-.01-.38,.06-.72,.19-1.03,.16-.28,.38-.54,.61-.77,.35-.34,.75-.63,1.15-.91l.04,.04Z"/>
  <path class="cls-1" d="M317.73,359.12c.3-.19,.61-.37,.91-.56,.11-.07,.19-.17,.3-.23,.4-.22,.81-.41,1.22-.6,.18-.08,.34-.2,.49-.32,.19-.15,.36-.35,.66-.36,.18,0,.68,1.12,.51,1.32-.35,.34-.69,.66-1.21,.77-.3,.08-.49,.33-.73,.5-.26,.19-.54,.38-.8,.57-.16,.12-.33,.24-.48,.37-.24,.19-.5,.37-.69,.6-.15,.18-.26,.39-.4,.58-.03,.04-.05,.09-.09,.13-.14,.14-.25,.12-.52-.05l-.18-.12c-.2-.14-.31-.33-.29-.52,.05-.53,.17-1.07,.52-1.4,.23-.27,.49-.52,.78-.73l.03,.03Z"/>
  <path class="cls-1" d="M351.5,371.52c1-1.8,66.2,97.35,66.2,97.35,0,0-1.3,1.45-4.56-1.98-15.53-16.38-63.3-92.38-61.64-95.37Z"/>
  <g>
    <path class="cls-1" d="M170.44,180.04c2.47,2.53,5.53,14.88,1.63,22.06,0,0,6.76,.27,6.29-3.03-.47-3.3-3.3-4.01-2.39-10.54,.91-6.52,1.41-7.82,1.41-7.82l-6.94-.67Z"/>
    <path class="cls-1" d="M152.86,179.3s4.32,4.14,5.27,12.14c.95,8-2.63,12.41-2.63,12.41,0,0,12.48,.62,14.95-5.26,3.35-7.99-.92-17.04-2.89-19.76s-13.84-.92-13.84-.92l-.85,1.39Z"/>
    <path class="cls-1" d="M170.59,178.57c.49,.12,.98,.25,1.49,.32,.18,.03,.36-.02,.55,0,.65,.12,1.32,.22,1.99,.29,.3,.04,.59,0,.88-.04,.37-.08,.75-.05,1.18,.23,.13,.09,.16,.29,.11,.61-.05,.29-.15,.86-.34,1.08-.35,.36-.75,.45-1.15,.52-.4,.09-.82,.04-1.24-.09-.5-.15-1,.02-1.51,0-.55-.02-1.11-.07-1.66-.14-.34-.04-.68-.09-1.01-.13-.51-.06-1.01-.17-1.51-.17-.39,0-.8,.19-1.19,.25-.09,0-.18,.05-.26,.04-.31-.08-.36-.42-.35-1.04v-.43c.04-.46,.22-.87,.49-1.16,.38-.35,.73-.46,1.06-.49,.34-.03,.67,0,1.01,.03,.49,.06,.98,.18,1.47,.25v.07Z"/>
    <path class="cls-1" d="M161.14,175.7c1.51,.16,3.02,.41,4.61,.9,.74,.24,1.48,.53,1.98,1.04,.92,.87,1.46,1.85,1.87,2.8,.41,.96,.67,1.91,.88,2.86,.18,.84,.4,1.66,.53,2.49,.07,.53,.14,1.07,.16,1.61-.03,.54-.16,1.09-.32,1.62-.11,.33-.3,.28-.62,.02-.3-.27-.87-.72-1.18-1.24-.76-1.88-1.13-3.71-1.73-5.46-.35-1.04-1.21-1.86-1.89-2.18-.19-.13-.34-.18-.57-.28-.3-.08-.6-.18-.92-.24-.63-.15-1.29-.25-1.97-.34-.83-.1-1.68-.16-2.53-.18-1.29-.02-2.61-.04-3.9,.13-1,.14-1.97,.47-2.95,.71-.22,.05-.42,.14-.65,.14-.83-.01-1.13-.28-1.41-1-.06-.16-.13-.3-.18-.44-.14-.43,.12-1.08,.69-1.49,1.69-1.18,3.64-1.4,5.62-1.55,1.47-.1,2.97-.06,4.49,.02v.09Z"/>
    <path class="cls-1" d="M162.46,201.81c1.02-.16,2.05-.46,3.04-.96,.18-.09,.35-.21,.52-.33l.12-.09,.06-.05s.08-.06,.13-.08c.36-.22,.77-.74,1.13-1.34,.36-.61,.65-1.31,.89-2.04,.23-.65,.34-1.33,.42-2.02,.13-.88,.31-1.76,.68-2.65,.12-.28,.42-.22,.78,.04,.35,.26,.86,.74,1.01,1.29,.11,.49,.24,.98,.28,1.48,0,.49-.03,.98-.1,1.48-.1,1-.43,1.98-.91,2.95-.29,.57-.55,1.19-.89,1.82-.37,.62-.83,1.29-1.54,1.8-1.14,.76-2.43,1.38-3.76,1.79-.83,.24-1.67,.43-2.51,.52-1.28,.17-2.57,.08-3.81,.02-.97-.05-1.96,.04-2.94-.05-.22-.02-.43-.03-.64-.09-.37-.14-.61-.26-.71-.53-.08-.34-.07-.67-.02-1.05,.03-.18,.04-.35,.07-.5,.06-.26,.19-.46,.41-.7,.11-.12,.24-.24,.39-.38,.16-.16,.27-.15,.41-.19l.61-.1c.2-.05,.4-.08,.58-.07l1.1,.02c.7,.04,1.41,.08,2.11,.12,1.03,.02,2.05,.02,3.06-.2l.03,.08Z"/>
    <path class="cls-1" d="M151.84,199.63c.63,.96,1.49,1.83,2.36,2.33,.1,.05,.22,.15,.3,.17,.1,.03,.04,.04,.09,.06,.06,.03,.13,.03,.2,.02,.14-.01,.39-.19,.63-.56,.37-.53,.53-1.39,.74-2.24,.38-1.53,.48-3.25,.46-4.96-.02-1.72-.21-3.46-.53-5.16-.27-1.52-.7-3.02-1.3-4.4-.87-1.69-1.54-3.57-2.99-4.53-.47-.23-.5-.4,.14-.61,.31-.09,.83-.13,1.41,0,.61,.11,1.24,.42,1.76,.9,.45,.42,.86,.86,1.23,1.32,.37,.46,.62,.98,.89,1.48,.52,1.01,.94,2.05,1.28,3.1,.18,.52,.32,1.06,.47,1.59,.11,.54,.22,1.08,.3,1.62,.17,1.09,.26,2.18,.29,3.28,.04,1.32,.09,2.65,.07,4.02-.03,1.37-.11,2.77-.53,4.2-.28,.78-.56,1.57-1.15,2.34-.57,.75-1.44,1.5-2.59,1.68-.56,.12-1.12,.09-1.66-.11-.57-.19-.85-.39-1.24-.61-.35-.22-.66-.48-.99-.72l-.86-.81c-1.35-1.38-2.31-3.06-2.93-4.81-.98-2.66-1.11-5.49-.93-8.17,.1-2.1,.35-4.15,.85-6.17,.09-.45,.17-.89,.34-1.32,.6-1.59,1.07-1.99,1.8-2.08,.17-.02,.35-.06,.5-.05,.51,.04,.7,.83,.58,2.03-.03,.45-.13,.87-.22,1.3-.1,.43-.12,.87-.19,1.3-.11,.87-.31,1.73-.35,2.59-.09,.86-.26,1.72-.26,2.57l-.07,1.28,.06,1.26c.14,2.47,.73,4.92,2.11,6.81l-.06,.05Z"/>
    <path class="cls-1" d="M170.93,200.55c.62,.02,1.23,.04,1.85,.03,.22,0,.44-.07,.66-.06,.79,0,1.6,.11,2.39,.11,.35,0,.7-.04,1.04-.09,.44-.05,.89-.04,1.35,.07,.15,.04,.15,.22,.07,.46-.08,.23-.25,.58-.48,.73-.21,.12-.42,.26-.63,.35-.22,.06-.44,.11-.66,.15-.45,.08-.9,.12-1.36,.1-.55-.02-1.1,.17-1.65,.23-.61,.06-1.22,.1-1.83,.15-.38,.03-.76,.05-1.13,.08-.57,.04-1.15,.05-1.71,.16-.43,.08-.84,.3-1.25,.45-.09,.03-.18,.08-.28,.09-.35,.06-.49-.08-.65-.61-.04-.12-.08-.24-.11-.36-.1-.41,0-.78,.23-.97,.7-.6,1.5-.75,2.31-.92,.6-.1,1.21-.2,1.83-.21v.06Z"/>
    <path class="cls-1" d="M151.32,190.45c.09-.31,.21-.62,.35-.92,.05-.11,.06-.23,.11-.34,.17-.39,.36-.77,.51-1.17,.07-.17,.09-.36,.15-.53,.07-.22,.15-.45,.31-.66,.05-.06,.17-.03,.29,.07,.12,.09,.29,.25,.32,.39,.15,.53-.04,.98-.25,1.43-.14,.27-.14,.58-.22,.86-.09,.32-.17,.63-.29,.94-.07,.19-.14,.38-.21,.57-.09,.29-.2,.58-.26,.88-.04,.23-.06,.46-.1,.69-.01,.05-.01,.1-.03,.15-.05,.18-.15,.22-.36,.22h-.14c-.14-.02-.28-.13-.32-.28-.13-.46-.23-.93-.11-1.35,.06-.32,.14-.64,.22-.96h.03Z"/>
    <path class="cls-1" d="M153.45,193.49c.1-.31,.2-.63,.3-.94,.03-.11,.05-.23,.08-.35,.13-.4,.27-.8,.41-1.21,.06-.18,.1-.36,.13-.54,.05-.23,.07-.47,.18-.69,.06-.14,.45,.13,.45,.41-.03,.49-.09,.97-.24,1.44-.11,.28-.13,.58-.19,.88-.08,.32-.16,.64-.23,.96-.05,.2-.1,.4-.15,.59-.07,.3-.15,.6-.19,.9-.03,.24,0,.48-.02,.71,0,.05,0,.1,0,.16-.03,.19-.1,.24-.34,.23h-.16c-.18-.02-.32-.13-.35-.28-.11-.45-.06-.89,.06-1.32,.07-.32,.17-.64,.26-.96h.02Z"/>
  </g>
  <path class="cls-1" d="M297.8,360.78s9.08-3.9,23.06,3.36c7.7,4,4.8,4.34,4.8,4.34,0,0-1.03,.54-3.3,.55,0,0-8.16-8.25-24.55-8.25Z"/>
  <path class="cls-1" d="M341.76,243.39c-.56-.19-22.59-2.56-32.56,8.76-4.92,5.57-1.48-4.41,2.27-6.12s14.39-5.51,20.88-5.18c6.49,.33,9.41,2.55,9.41,2.55Z"/>
  <path class="cls-1" d="M306.89,251.5c-5.36,16.23-14,22.07-20.61,22.72-7.32,.72-13.77-2.93-15.11-5.08,0,0,5.6,9.44,16.7,9.66,11.11,.22,14.78-8.67,14.78-8.67l4.24-18.63Z"/>
  <path class="cls-1" d="M361.49,297.31c-.96,2.46,7.26,10.67,9.44,13.05,3.73,4.06-9.21-15.64-9.35-15.82-.08-.09,.25,1.88-.09,2.77Z"/>
  <path class="cls-1" d="M256.34,332.81c2.12-2.55,7.2-9.61,8.12-12.57s-1-4.46-1-4.46l-7.12,17.03Z"/>
  <path class="cls-1" d="M182.02,278.09c-1.64-.68-3.25-1.4-4.84-2.18-.58-.29-1.17-.54-1.73-.86-1.98-1.12-3.89-2.35-5.76-3.6-.82-.58-1.68-1.11-2.47-1.71-.51-.39-1.05-.73-1.52-1.16-.45-.46-.89-.94-1.33-1.41-.27-.3-.22-.27,.1-.14,.32,.14,.98,.29,1.67,.56,1.18,.54,2.23,1.25,3.35,1.87,1.07,.68,2.14,1.36,3.23,2.05,1.3,.83,2.78,1.46,4.2,2.12,1.57,.72,3.12,1.49,4.73,2.13,.98,.42,1.99,.78,2.99,1.15,1.53,.51,3.07,1.04,4.64,1.37,.61,.14,1.22,.24,1.83,.3,.61,.07,1.21,.16,1.82,.22,.27,.03,.53,.05,.8,.09,.98,.2,1.28,.39,1.46,.83,.04,.1,.1,.19,.12,.28,.07,.28-.37,.54-1.16,.65-.59,.11-1.17,.09-1.76,.08-.59-.01-1.19-.04-1.78-.14-1.18-.18-2.36-.44-3.52-.77-1.73-.46-3.42-1.08-5.1-1.69l.02-.05Z"/>
  <path class="cls-1" d="M186.53,280.09s9.61,6.33,13.58,1.66c2.45-2.87-11.67-10.36-11.67-10.36l-1.91,8.69Z"/>
  <path class="cls-1" d="M289.16,202.11s-.81,13.51,2.31,17.66c3.12,4.15,5.27,6.11,8.35,4.79,3.08-1.32,23.81-18.03,29.18-37.32,5.37-19.29,7.41-34.83,4.13-44.69-6.06-18.23-26.95-26.26-41.35-18.23,0,0-8.05-8.53-14.1-12.26-14.22-8.77-34.49-14.38-54.54,3.38-8.02,7.1-8.07,19.15-8.07,19.15,0,0-22.65-10.27-29.74,7.91-6.15,15.75,16.38,23.04,23.44,21.26,0,0,23.88-.89,31.85-7.69,7.97-6.8,19.07-5.39,25.1-3.98,6.02,1.41,9.61,8.42,9.44,15.34-.17,6.92-2.64,15.39,.15,16.36s4.78,1.89,9.36-4.04,11.05-1.24,11.99-.02c.94,1.23,4.16,5.19,1.2,12.34-3.65,8.81-8.69,10.01-8.69,10.01Z"/>
  <path class="cls-1" d="M286.1,118.6c-.1-1.02-.31-2.04-.64-3.05-.11-.37-.34-.69-.47-1.06-.49-1.29-1.1-2.57-1.87-3.78-.35-.53-.75-1.03-1.18-1.49-.5-.64-1.05-1.24-1.43-2-.12-.24,.14-.44,.55-.53,.41-.09,1.02-.1,1.43,.17,.36,.25,.71,.52,1.05,.8,.33,.28,.59,.64,.87,.97,.55,.68,1.04,1.42,1.44,2.22,.47,.96,1.19,1.81,1.68,2.8,.55,1.07,.97,2.22,1.29,3.4l.26,1.09,.2,1.1c.17,1.12,.17,2.25,.23,3.35,.05,.86,.23,1.72,.3,2.59,.03,.2,0,.38-.04,.57-.04,.17-.09,.31-.15,.43-.08,.11-.2,.19-.31,.26-.23,.13-.48,.18-.81,.19-.15,0-.3,.02-.43,.02-.43-.01-.86-.37-1.24-.89-.13-.36-.33-.74-.37-1.08-.06-.35-.09-.69-.11-1.03-.07-.68-.05-1.36-.11-2.03-.05-1-.1-2-.24-3.01l.07-.02Z"/>
  <path class="cls-1" d="M293.88,116.52c.85-.74,1.76-1.42,2.65-2.11,.32-.25,.59-.56,.93-.8,1.18-.83,2.41-1.59,3.62-2.36,.52-.34,1.04-.76,1.65-1.1,.38-.22,.78-.48,1.27-.57,.49-.07,1.02-.02,1.48,.2,.29,.15,.18,.41-.04,.78-.23,.36-.44,.98-.62,1.26-.05,.06-.09,.13-.14,.18l-.17,.11-.35,.26c-.25,.18-.49,.42-.79,.62-.62,.42-1.31,.85-2.03,1.21-.86,.45-1.52,1.21-2.25,1.84-.81,.7-1.63,1.39-2.42,2.12-.49,.45-.99,.88-1.45,1.36-.71,.71-1.43,1.42-2.02,2.23-.48,.61-.77,1.34-1.21,1.96-.09,.14-.17,.29-.28,.42-.39,.49-.67,.54-1.27,.29-.14-.06-.28-.1-.4-.17-.42-.22-.61-.67-.51-1.19,.26-1.56,.92-2.99,1.96-4.12,.73-.88,1.54-1.68,2.35-2.48l.06,.05Z"/>
  <path class="cls-1" d="M235.58,242.18c2.09,2.06,4.44,3.89,7.06,5.22,.48,.23,.97,.46,1.47,.65,.5,.18,1,.37,1.5,.57,3.53,1.31,7.39,1.9,11.23,1.51,1.71-.13,3.4-.56,5.03-1.06,1.04-.36,2.06-.76,3.08-1.19,1.04-.36,2.08-.75,3.22-.98,.71-.14,.77,.15,.47,.85-.15,.35-.4,.82-.72,1.36-.34,.52-.82,.97-1.42,1.32-4.29,2.3-9.41,3.27-14.35,2.63-2.93-.39-5.98-.89-8.78-2.03-3.08-1.22-5.86-3.07-8.34-5.18-1.51-1.32-2.9-2.77-4.18-4.29-1.92-2.33-3.53-4.9-4.91-7.53-1.07-2.05-2.13-4.08-2.9-6.26-.16-.48-.35-.94-.47-1.45-.47-1.85-.32-2.5,.27-3.02,.14-.12,.27-.26,.42-.34,.49-.26,1.08,.39,1.57,1.6,.38,.9,.77,1.8,1.2,2.69,.39,.9,.78,1.8,1.22,2.69,.86,1.78,1.79,3.55,2.88,5.22,1.57,2.51,3.39,4.88,5.51,6.94l-.05,.06Z"/>
  <path class="cls-1" d="M222.67,209.91c-.36,.82-.72,1.66-.92,2.35-.21,.72-.26,1.39-.16,1.77,.02,.15,.08,.26,.16,.36,.05,.05,.12,.09,.17,.15,.05,.06,.1,.13,.2,.18,.54,.47,1.6,.81,2.67,.96,1.09,.18,2.27,.18,3.44,.13,1.04-.04,2.08-.27,3.12-.42l1.98-.4c.65-.17,1.37-.13,2.05-.2,.44-.02,.44,.15,.18,.53-.13,.19-.32,.45-.56,.73-.12,.14-.26,.29-.41,.43-.07,.07-.16,.13-.23,.21l-.27,.14c-.66,.3-1.34,.57-2.02,.83-.69,.25-1.38,.5-2.11,.6-1.44,.26-2.93,.4-4.47,.27-.92-.09-1.86-.12-2.87-.33-.99-.21-2.12-.5-3.07-1.45-.52-.47-.91-1.16-1.11-1.82-.18-.67-.2-1.32-.15-1.91,.11-1.18,.47-2.21,.85-3.12,.46-1.12,.97-2.22,1.51-3.29,.82-1.63,1.77-3.19,2.75-4.72,.78-1.18,1.46-2.46,2.55-3.53,.23-.24,.49-.47,.77-.67,1.09-.74,1.68-.65,2.17-.03,.11,.14,.24,.28,.32,.43,.26,.54,.04,1.11-.38,1.62-1.19,1.61-2.52,3.37-3.73,5.43-.89,1.51-1.7,3.13-2.37,4.8l-.08-.03Z"/>
  <path class="cls-1" d="M216.22,161.62c2.97-.35,5.94-.87,8.88-1.59,2.81-.66,5.57-1.83,8.4-3.06,5.64-2.46,11.34-5.31,17.67-6.92,2.29-.63,4.71-.97,7.15-1.11,1.24,.05,2.48-.04,3.72,.23,.62,.11,1.24,.17,1.85,.33l1.81,.57c2.11,.71,4.12,1.89,5.76,3.49,1.66,1.58,2.88,3.55,3.72,5.59,1.63,4.13,1.84,8.44,1.62,12.55-.11,2.06-.37,4.11-.64,6.08l-.18,1.44c-.06,.44-.03,.88-.06,1.32,.03,.84,.14,1.69,.43,2.21,.3,.5,.59,.65,1.16,.68,.57-.02,1.29-.35,1.78-.8,.09-.12,.24-.23,.28-.35,.04-.07,.06-.08,.13-.2l.2-.36c.26-.49,.56-.95,.88-1.41,.65-.9,1.41-1.74,2.29-2.44,1.56-1.25,3.5-2.09,5.51-2.29,2.01-.22,4,.13,5.85,1,1.83,.88,3.33,2.34,4.35,4.01,1.03,1.67,1.65,3.55,1.9,5.45,.35,2.44,.04,4.99-.96,7.33-.27,.56-.59,1.17-.92,1.66-.32,.5-.67,.99-1.03,1.47-.74,.95-1.55,1.87-2.48,2.68-1.85,1.62-4.1,2.8-6.42,3.46-2.31,.71-4.71,.84-7.03,.71-2.89-.27-2.45-.57-.12-1.31,1.16-.41,2.78-1.01,4.57-1.76,1.79-.74,3.76-1.58,5.56-2.89,1.62-1.13,2.94-2.67,4.09-4.45,.94-1.51,1.43-3.39,1.35-5.32-.05-1.92-.59-3.86-1.59-5.38-.97-1.58-2.44-2.58-4.09-3.02-1.79-.43-3.6-.26-5.16,.57-.78,.41-1.5,.98-2.12,1.67-.31,.35-.6,.72-.87,1.11-.12,.2-.26,.4-.38,.61l-.17,.32-.26,.46c-.52,.9-1.18,1.48-1.9,1.95-.71,.47-1.51,.8-2.42,.96-.88,.17-1.98,.08-2.95-.38-.51-.22-.91-.55-1.29-.92-.35-.36-.63-.77-.86-1.17-.81-1.62-.87-3.09-.82-4.42,.03-1.41,.27-2.52,.41-3.67,.38-2.71,.66-5.42,.57-8.11-.08-2.68-.5-5.35-1.49-7.73-.99-2.37-2.58-4.38-4.73-5.69-1.06-.67-2.25-1.16-3.49-1.5-.31-.09-.61-.21-.92-.28l-.96-.15c-.64-.1-1.27-.24-1.93-.22-2.86-.16-5.83,.3-8.73,1.14-2.91,.83-5.77,1.94-8.62,3.16-2.85,1.21-5.68,2.56-8.59,3.81-1.46,.62-2.93,1.24-4.46,1.78-1.52,.55-3.14,.99-4.67,1.33-7.63,1.76-15.69,2.47-23.51,.83-5.88-1.23-11.66-3.99-15.79-8.58-4.16-4.47-6.47-10.85-5.4-16.98,.4-2.37,1.3-4.66,2.72-6.62,.7-.98,1.51-1.89,2.43-2.67,.9-.8,1.9-1.48,2.95-2.04,4.21-2.3,9.1-2.9,13.77-2.31,2.06,.27,4.06,.72,6.03,1.48,3.64,1.44,5.73,3.1,6.98,4.4,1.21,1.37,1.64,2.38,1.84,3.26,.08,.41,.24,.89,.24,1.15-.01,.45-.56,.14-1.63-.61-1.08-.74-2.7-1.87-4.82-3.16-3.18-1.88-6.88-2.95-10.61-3.18-3.72-.2-7.54,.5-10.63,2.32-3.09,1.8-5.21,4.81-5.81,8.36-.64,3.51,.12,7.3,1.94,10.52,1.32,2.42,3.28,4.49,5.5,6.22,2.27,1.68,4.86,2.97,7.61,3.87,5.52,1.83,11.61,2.06,17.58,1.43l.03,.09Z"/>
  <path class="cls-1" d="M234.27,104.3c1.3-.52,2.6-1.04,3.93-1.46l2.03-.55c.34-.09,.67-.19,1.01-.26l1.04-.17,2.07-.34c.69-.09,1.4-.1,2.1-.15,1.41-.13,2.77-.06,4.13-.02,1.98,.1,3.97,.16,5.93,.5,3.45,.58,6.84,1.48,10.09,2.73,3.25,1.27,6.37,2.84,9.29,4.72,2.59,1.68,5.03,3.62,7.27,5.72,.69,.71,1.36,1.44,2.03,2.17,.62,.78,1.22,1.57,1.81,2.37,1.12,1.64,1.97,3.46,2.55,5.35,.38,1.17-.13,1.18-1.13,.55-.5-.32-1.15-.77-1.79-1.35-.32-.3-.72-.58-1.07-.91-.18-.17-.36-.34-.54-.51-.15-.19-.31-.39-.46-.6-.54-.73-1.17-1.4-1.75-2.1-.57-.71-1.29-1.29-1.89-1.96-1.27-1.3-2.62-2.53-4.08-3.64-2.89-2.25-6.11-4.16-9.53-5.76-4.11-1.92-8.81-2.84-13.41-3.36-1.27-.08-2.54-.27-3.82-.27l-1.92-.05-1.87,.11c-1.26,0-2.49,.3-3.73,.48-.63,.07-1.23,.29-1.84,.44-.61,.17-1.22,.32-1.83,.5-2.95,1.01-5.79,2.39-8.42,4.12-3.94,2.66-7.42,6.13-9.88,10.18-1.91,3.14-3.11,6.6-3.6,10.13-.19,.76-.15,1.54-.25,2.32-.07,.73-.19,1.32-.24,1.83-.04,.51-.08,.91-.18,1.26-.22,.68-.52,1.09-.95,1.44-.2,.16-.38,.37-.57,.47-.31,.17-.6-.05-.89-.62-.28-.57-.59-1.49-.69-2.7-.19-3.57,.46-7.29,1.74-10.84,1.38-3.5,3.39-6.79,5.82-9.71,3.67-4.3,8.31-7.73,13.44-10.11l.05,.08Z"/>
  <path class="cls-1" d="M291.83,215.88c.16,1,.3,2.01,.53,3,.19,1,.43,1.99,.69,2.97,.17,.72,.47,1.41,.67,2.12,.7,2.53,1.52,5.05,2.63,7.46,.23,.54,.51,1.06,.8,1.57,.28,.51,.55,1.04,.85,1.54,.82,1.25,1.59,2.54,2.13,4,.17,.46-.15,.62-.75,.56-.58-.07-1.54-.32-2.25-.94-.32-.27-.57-.58-.81-.91l-.73-.97c-.48-.65-.93-1.32-1.31-2.03-.74-1.44-1.38-2.93-1.86-4.48-.6-1.84-1.47-3.65-2.08-5.53-.35-1.03-.58-2.09-.86-3.13-.21-1.06-.48-2.11-.65-3.18l-.33-1.96-.26-1.97c-.26-1.99-.37-4-.53-5.98-.03-.77-.1-1.53-.18-2.3-.06-.76-.1-1.53-.14-2.29-.02-.34-.04-.67-.02-1.01,.02-.32,.05-.58,.09-.79,.06-.22,.16-.39,.25-.53,.19-.28,.42-.43,.73-.54,.14-.05,.27-.12,.4-.15,.41-.09,.81,.45,1.14,1.35,.23,1.33,.47,2.66,.64,4.01,.22,1.35,.39,2.7,.5,4.06,.08,1.01,.23,2.02,.32,3.03,.16,1,.27,2.02,.47,3.02l-.08,.02Z"/>
  <path class="cls-1" d="M336.72,147.29c1.46,9.05,.44,18.11-1.6,26.72-.77,3.15-1.61,6.28-2.71,9.32-.98,2.68-2.08,5.31-3.3,7.88-1.24,2.59-2.6,5.05-3.99,7.5-2.8,4.9-5.84,9.7-9.45,14.09-3.19,3.9-6.77,7.56-10.93,10.49-1.35,.96-2.87,1.76-4.55,2.24-1.67,.48-3.65,.51-5.37-.31-1.72-.8-2.95-2.29-3.7-3.83-.38-.77-.67-1.58-.84-2.4-.11-.4-.19-.81-.25-1.22l-.09-.61-.05-.3c0-.05-.05-.09,.02-.16v-.16c.11-1.04,.19-1.48,.28-1.46,.1,.02,.25,.49,.69,1.25,.46,.75,.98,1.82,1.74,2.92,.72,1.1,1.59,2.3,2.69,3.01,.96,.65,2.06,.84,3.3,.63,1.23-.22,2.5-.83,3.72-1.58,.6-.41,1.21-.81,1.81-1.31l.91-.71,.87-.76c1.17-1,2.28-2.1,3.35-3.22,2.15-2.25,4.11-4.71,5.98-7.26,1.88-2.54,3.64-5.21,5.33-7.94,2-3.26,3.91-6.77,5.52-10.31,1.63-3.56,2.96-7.29,4.11-11.02,2.51-8.21,3.95-16.83,3.47-25.36-.32-5.23-1.41-10.44-3.63-15.13-1.71-3.53-4.04-6.77-6.96-9.39-.75-.63-1.46-1.31-2.28-1.86l-1.19-.86-1.26-.77c-1.67-1.05-3.44-1.84-5.29-2.45-5.75-1.9-11.99-1.67-17.42,.45-1.19,.49-2.32,1.02-3.43,1.68-2.1,1.13-3.37,2.08-4.37,2.64-.51,.26-.91,.49-1.29,.63-.39,.13-.76,.18-1.11,.21-.33,.02-.7,.12-.94,.09-.41-.04-.33-.51,.12-1.43,.41-.96,1.44-2.12,2.95-3.46,4.56-3.88,10.84-5.98,17.14-5.99,3.16,0,6.34,.49,9.39,1.47,.77,.22,1.52,.51,2.26,.83,.75,.28,1.48,.64,2.2,1.01,.74,.34,1.41,.77,2.09,1.17l1.02,.61,.98,.69c1.97,1.32,3.74,2.96,5.36,4.7,1.59,1.78,2.99,3.72,4.18,5.78,2.34,4.13,3.84,8.65,4.6,13.21l-.09,.03Z"/>
  <path class="cls-1" d="M202.33,234.34c.3-1.51,.59-3.02,.66-4.51,.09-1.5,0-2.94-.19-4.53-.09-.82-.22-1.68-.2-2.65-.02-.47,.06-.97,.1-1.46,.1-.47,.17-.97,.32-1.42,.55-1.82,1.4-3.38,2.31-4.8,1.38-2.2,2.9-3.99,4.37-5.84,1.29-1.6,2.61-3.22,3.51-4.84,.27-.51,.25-.48,.32-.69,.04-.15,.04-.37-.11-.47-.13-.1-.34-.12-.53-.17-.42-.04-.89-.15-1.34-.12-1.81-.07-3.63,.53-5.15,1.61-1.52,1.09-2.77,2.62-3.65,4.37-.41,.77-.75,1.58-1.03,2.42l-.2,.63-.1,.32c-.06,.17-.12,.35-.2,.5-.33,.62-.77,1.02-1.18,1.34-.84,.64-1.67,1.08-2.47,1.54-.8,.46-1.58,.91-2.31,1.4-1.88,1.28-3.56,2.76-4.8,4.64-1.25,1.86-2.03,4.04-2.49,6.31-.26,1.42-.49,1.23-.69-.06-.15-1.26-.28-3.78,.94-6.52,.54-1.2,1.26-2.33,2.1-3.36,.42-.52,.87-1.01,1.34-1.47,.49-.44,1-.85,1.53-1.24,1.04-.77,2.14-1.43,3.18-2.05,.52-.31,1.02-.6,1.46-.9,.44-.28,.81-.6,.93-.77,.05-.05,.02-.06,.05-.07,0,0-.01,0,0,0l.08,.03h.04s.01,.01,.01,.01h0c.13,.04-.17-.04-.14-.04v-.03s.04-.12,.04-.12l.28-.94c.17-.63,.45-1.24,.68-1.86,.55-1.21,1.17-2.41,2.03-3.48,1.63-2.17,4.01-3.94,6.77-4.61,.82-.19,1.66-.31,2.5-.33,.42,.01,.85-.02,1.26,.04l.63,.07c.11,.01,.2,.02,.32,.04l.44,.12,.87,.23,.43,.12,.37,.22c.47,.32,.84,.82,.96,1.39,.14,.56,.07,1.17-.09,1.76-.1,.3-.17,.59-.31,.88-.1,.23-.18,.4-.28,.59-.77,1.48-1.67,2.72-2.58,3.95-.91,1.22-1.85,2.4-2.76,3.56-.5,.64-1,1.27-1.47,1.9-.47,.63-.86,1.25-1.27,1.94-.79,1.34-1.5,2.71-1.79,4.07-.17,.68-.18,1.36-.16,2.09,.05,.74,.16,1.52,.27,2.36,.22,1.66,.3,3.43,.16,5.13-.02,.53-.09,1.05-.16,1.57-.06,.52-.13,1.04-.23,1.55-.17,1.02-.39,2.05-.69,3.08-.6,2.05-1.57,4-2.74,5.74-1.79,2.63-3.85,4.85-5.55,7.31-1.71,2.45-3.17,5.04-4.25,7.8-1.73,4.28-2.68,8.77-3.48,13.26-.14,.99-.28,1.97-.43,2.97-.46,3.71-.93,4.83-1.64,5.63-.17,.18-.34,.42-.5,.53-.5,.38-1.06-1.23-1.14-4.15,.16-4.28,.77-8.64,1.95-12.94,1.17-4.28,2.8-8.64,5.23-12.63,1.76-2.97,4.01-5.62,5.93-8.1,1.95-2.47,3.26-4.94,3.86-7.88h.08Z"/>
  <path class="cls-1" d="M167.87,242.34c-.16-3.36-.06-6.8,.51-10.18,.11-.61,.2-1.23,.3-1.85,.09-.62,.27-1.22,.42-1.82,.15-.53,.29-1.06,.45-1.59l.57-1.54,.57-1.53,.68-1.48c.85-1.99,1.94-3.9,3.08-5.72,1.01-1.59,2.03-3.2,3.04-4.78,1.3-2.01,2.33-4.14,4.07-5.85,.57-.52,.74-.33,.87,.47,.17,.82,.29,2.27-.38,3.52-2.54,4.29-5.41,8.09-7.64,12.25-1.36,2.52-2.17,5.39-2.8,8.21-.66,3.12-.9,6.32-.84,9.57,.02,1.99,.17,4.01,.34,6.03,.28,3.06,.55,6.17,.77,9.25,.18,2.4,.39,4.77,.23,7.17-.02,.53-.01,1.05-.07,1.58-.12,.98-.28,1.62-.5,2.05-.2,.43-.42,.67-.69,.84-.13,.08-.25,.19-.36,.23-.36,.14-.63-.7-.81-2.11-.02-1.04-.12-2.09-.2-3.14-.05-1.05-.18-2.11-.29-3.17-.15-2.12-.29-4.28-.49-6.45-.31-3.24-.68-6.54-.9-9.93h.07Z"/>
  <path class="cls-1" d="M193.62,283.68c-3.56-.6-6.82-1.73-10-3.02-1.16-.47-2.33-.9-3.45-1.43-3.96-1.9-7.72-4.14-11.27-6.66-1.58-1.1-3.15-2.25-4.66-3.42-.97-.76-1.92-1.54-2.84-2.37-.87-.88-1.67-1.82-2.42-2.81-.46-.62-.23-.68,.43-.43,.33,.13,.78,.32,1.28,.58,.51,.25,1.1,.55,1.66,.95,3.76,3.08,7.82,5.72,12.02,8.27,2.51,1.54,5.36,2.71,8.15,3.81,3.06,1.22,6.21,2.27,9.39,2.93,1.94,.39,3.97,.67,5.74,.39,.18-.01,.31-.08,.47-.11,.15-.04,.32-.07,.4-.12,.21-.07,.39-.19,.55-.32,.32-.31,.4-.74,.26-1.24-.14-.53-.45-1.19-.86-1.76-.38-.59-.87-1.16-1.37-1.69-1.6-1.66-3.56-2.94-5.51-4.15-.44-.25-.87-.5-1.31-.75-.77-.54-1.26-.9-1.52-1.31-.23-.47-.3-.86-.3-1.32,0-.21-.04-.42-.02-.59,.04-.29,.28-.44,.75-.54,.47-.1,1.2-.16,1.9,.15,1.1,.36,2.12,.91,3.11,1.51,1,.59,1.96,1.27,2.89,2,.94,.73,1.81,1.59,2.66,2.51,.84,.93,1.64,1.97,2.32,3.27,.13,.23,.25,.49,.35,.77l.16,.41c.05,.13,.1,.27,.13,.48l.2,1.11-.07,1.24c-.2,1.67-1.64,3-3.14,3.48-.61,.21-1.19,.35-1.72,.39-.54,.08-1.05,.09-1.54,.09-.99,0-1.92-.09-2.83-.22v-.08Z"/>
  <path class="cls-1" d="M191.38,311.94c.6-3.07,1.29-6.12,2.12-9.1,.29-1.09,.5-2.2,.83-3.28,1.11-3.81,2.49-7.5,3.51-11.25,.44-1.67,.76-3.37,.99-5.05,.21-1.07,.25-2.16,.38-3.24,.21-1.08,.32-2.16,.54-3.26,.14-.69,.43-.62,.84-.04,.21,.29,.45,.71,.71,1.23,.24,.52,.53,1.15,.6,1.82,.07,2.37-.06,4.77-.62,7.05-.49,2.29-1.15,4.52-1.92,6.7-.91,2.62-1.54,5.38-2.31,8.06-.81,2.95-1.62,5.89-2.2,8.88-.4,1.83-.68,3.69-.94,5.54-.2,1.41-.28,2.83-.42,4.24-.13,1.42-.09,2.84-.13,4.25-.04,1.1,.11,2.18,.2,3.26,.13,1.08,.18,2.15,.36,3.22,.07,.47,.14,.93,.19,1.41,.17,1.77-.03,2.36-.63,2.83-.14,.11-.26,.24-.4,.31-.42,.23-.98-.44-1.35-1.75-.26-.97-.54-1.96-.74-2.97-.18-1.01-.29-2.04-.41-3.08-.28-2.08-.3-4.21-.26-6.34,.04-1.58,.21-3.16,.33-4.74,.19-1.57,.41-3.15,.64-4.71h.08Z"/>
  <path class="cls-1" d="M152.42,286.19l1.07-4.77c.12-.58,.17-1.17,.3-1.75,.48-2.04,.97-4.08,1.45-6.11,.2-.91,.34-1.83,.46-2.74,.11-.58,.19-1.17,.31-1.75,.15-.58,.36-1.14,.59-1.7,.15-.35,.39-.25,.67,.11,.26,.36,.67,1.01,.76,1.72,.01,.61-.03,1.22-.05,1.82-.05,.6-.16,1.19-.25,1.79-.2,1.19-.45,2.37-.77,3.55-.38,1.41-.5,2.92-.77,4.38l-.93,4.81-.57,2.96c-.27,1.5-.58,3-.77,4.5-.18,1.16-.17,2.32-.3,3.48-.05,.25-.07,.5-.13,.75-.24,.93-.47,1.21-1.01,1.34-.12,.03-.25,.08-.36,.09-.38,.04-.66-.39-.79-1.12-.08-.54-.18-1.08-.24-1.63,0-.54,0-1.08,.02-1.63,.03-1.09,.14-2.19,.34-3.27,.27-1.62,.61-3.23,.92-4.84h.07Z"/>
  <path class="cls-1" d="M170.68,288.83c1.42,.81,2.92,1.51,4.47,2.12,.57,.22,1.16,.36,1.74,.56,2.02,.72,4.13,1.33,6.28,1.65,.95,.15,1.92,.21,2.88,.21,1.23-.05,2.44-.06,3.69,.06,.39,.04,.4,.37,.12,.8-.28,.42-.85,1.01-1.6,1.22-2.67,.58-5.42,.38-8.02-.34-1.55-.43-3.2-.64-4.78-1.11-1.73-.5-3.4-1.21-5.02-2.01-1-.49-1.96-1.04-2.91-1.63-1.44-.88-2.76-1.96-4.01-3.11-.97-.89-1.96-1.78-2.7-2.94-.16-.26-.34-.5-.45-.78-.38-1.08-.26-1.51,.17-1.87,.1-.08,.19-.18,.29-.24,.34-.19,.79,.11,1.26,.62,1.44,1.49,2.8,2.87,4.55,4.12,1.28,.9,2.61,1.83,4.07,2.58l-.03,.07Z"/>
  <path class="cls-1" d="M170.22,285.39c-.06-.47-.1-.94-.11-1.4,0-.17-.07-.33-.05-.5,.05-.6,.16-1.18,.28-1.75,.04-.25,.06-.5,.07-.75,.02-.32-.01-.65,.21-.94,.13-.17,1.33,.32,1.36,.62,.02,.56,.01,1.09-.14,1.67-.1,.35,.05,.69,.09,1.03,.03,.38,.06,.77,.13,1.15,.04,.24,.09,.47,.16,.7,.1,.35,.21,.71,.41,1.01,.14,.25,.37,.43,.56,.63,.04,.05,.09,.08,.13,.13,.11,.19,.04,.33-.28,.63l-.22,.21c-.25,.22-.54,.31-.77,.23-.35-.11-.62-.3-.89-.51-.12-.11-.25-.22-.35-.35-.08-.14-.15-.29-.22-.43-.19-.44-.31-.91-.42-1.37l.05-.02Z"/>
  <path class="cls-1" d="M176.48,287.33c-.02-.47-.01-.94,0-1.4,0-.17-.06-.32-.04-.49,.07-.59,.21-1.18,.31-1.74,.04-.25,.05-.5,.04-.75,0-.32-.09-.65,.15-.95,.13-.18,1.71,.24,1.76,.55,.06,.57,.06,1.12-.14,1.71-.13,.36,.05,.7,.06,1.06,.02,.39,.03,.79,.07,1.18,.02,.24,.05,.49,.1,.73,.07,.36,.13,.74,.3,1.07,.12,.26,.41,.44,.58,.67,.03,.05,.09,.09,.11,.15,.09,.21-.03,.35-.51,.65l-.33,.21c-.37,.22-.75,.3-.99,.2-.77-.27-1.08-.85-1.26-1.45-.14-.45-.2-.92-.26-1.39h.06Z"/>
  <path class="cls-1" d="M348.2,245.75c-8.43-3.05-17.75-3.63-26.52-1.48-3.2,.78-6.28,2.01-9.23,3.42l-.96,.49-.48,.25-.36,.2c-.08,.04-.19,.08-.22,.18l-.06,.14s-.09,.29-.14,.44c-.4,1.38-.79,2.86-1.18,4.32-.79,2.93-1.63,5.87-2.59,8.78-.97,2.91-2.06,5.8-3.47,8.61-.71,1.4-1.5,2.78-2.5,4.07-.51,.64-1.04,1.28-1.69,1.85-.62,.6-1.4,1.08-2.11,1.47-2.65,1.41-5.67,1.78-8.5,1.54-2.85-.24-5.56-1.04-8.1-2.1-6.47-2.78-12.41-7.1-16.26-12.98-1.19-1.83-.73-1.77,.8-.71,1.53,1.09,4.47,2.72,7.47,4.96,2.62,2.05,5.46,3.83,8.44,5.18,2.97,1.34,6.13,2.25,9.17,2.29,3,.04,5.95-.92,7.67-3.09,1.93-2.33,3.38-5.49,4.64-8.65,1.5-3.82,2.63-7.92,3.65-12.09l.77-3.16c.14-.53,.27-1.07,.44-1.63,.03-.11,.12-.4,.19-.59l.25-.62c.13-.18,.25-.36,.41-.52l.03-.03h0c-.08-.08-.02-.03-.03-.05h.02s.06-.06,.06-.06l.13-.1,.26-.2,.99-.58,.75-.4c.5-.27,1-.53,1.51-.77,1.01-.5,2.04-.93,3.07-1.35,9.12-3.6,19.3-4.38,28.82-2.27,1.46,.32,2.9,.75,4.34,1.15,1.41,.51,2.83,.95,4.22,1.53,1.37,.62,2.77,1.17,4.06,1.91l1.97,1.05c.64,.37,1.27,.77,1.9,1.15,3.83,2.35,7.44,5.02,10.84,7.89,3.43,2.85,6.71,5.84,9.84,8.94,4.88,4.81,9.61,9.61,13.85,14.92,.95,1.15,1.86,2.3,2.72,3.55,3.13,4.65,3.85,6.31,3.9,7.7,.03,.3,.12,.67,.13,.86,.05,.59-1.76-.92-4.34-4-.98-1.13-1.97-2.26-3.01-3.36-.53-.54-1-1.13-1.5-1.7l-1.52-1.7c-1.01-1.14-2.03-2.28-3.09-3.39-1.04-1.13-2.05-2.29-3.12-3.4-4.21-4.52-8.65-8.94-13.35-13.05-3.49-3.04-7.11-5.97-10.94-8.5-3.84-2.55-7.79-4.74-12.06-6.18l.02-.09Z"/>
  <path class="cls-1" d="M222.38,313.52c2.09-4.95,4.13-9.95,6.28-14.92,.78-1.82,1.5-3.66,2.33-5.46,2.96-6.32,6.25-12.56,10.41-18.27,1.85-2.53,3.86-4.98,6.15-7.15,1.47-1.39,3.04-2.7,4.79-3.78,.86-.56,1.78-1.03,2.75-1.39,.94-.41,1.94-.68,2.98-.76,1.28-.13,1.15,.16,.34,.99-.8,.89-2.13,2.32-3.86,3.45-3.15,1.96-5.86,4.63-8.28,7.59-2.48,2.92-4.69,6.17-6.78,9.53-2.51,4.04-4.46,8.63-6.42,13.12-2.16,4.94-4.19,9.97-6.23,15-1.26,3.1-2.53,6.2-3.85,9.28-2,4.67-4.16,9.32-6.7,13.75-1.99,3.42-4.07,6.84-7.31,9.54-.35,.3-.73,.56-1.1,.84-.38,.26-.8,.49-1.22,.71-1.6,.78-2.82,.96-3.65,.93-.43-.06-.76-.14-1.03-.25-.27-.13-.48-.28-.67-.44-.17-.15-.38-.29-.47-.43-.15-.23,.1-.46,.62-.75,.26-.13,.58-.32,.95-.52,.37-.19,.78-.38,1.25-.59,2.67-1.38,4.95-3.58,6.92-6.32,1.97-2.72,3.67-5.81,5.25-9,2.34-4.75,4.42-9.74,6.47-14.75l.08,.02Z"/>
  <path class="cls-1" d="M369.92,310.72c-.49-1.38-1.02-2.77-1.68-4.11-.23-.49-.53-.95-.78-1.44-.82-1.75-1.76-3.48-2.8-5.15-.45-.75-.97-1.45-1.5-2.14-.67-.89-1.49-1.66-1.88-2.78-.13-.34,.16-.53,.68-.57,.26-.02,.58-.02,.92,.04,.35,.04,.67,.16,.9,.4,1.66,1.62,3.24,3.36,4.29,5.51,.65,1.26,1.59,2.39,2.33,3.64,.8,1.38,1.49,2.82,2.11,4.3,.4,.9,.72,1.84,1.07,2.75,.24,.71,.45,1.43,.68,2.14,.17,.73,.4,1.44,.59,2.16,.13,.57,.3,1.11,.49,1.67,.15,.56,.3,1.13,.38,1.7,.03,.25,.06,.5,.05,.77-.04,.97-.32,1.28-.95,1.48-.14,.05-.28,.1-.41,.13-.23,.04-.44-.03-.65-.19-.21-.16-.45-.4-.59-.71-.23-.46-.44-.9-.71-1.34-.2-.45-.36-.89-.49-1.34-.33-.9-.57-1.81-.82-2.74-.36-1.38-.79-2.77-1.3-4.15l.07-.04Z"/>
  <path class="cls-1" d="M254.45,332.2c.66-1.49,1.28-3.03,1.89-4.59,.22-.57,.36-1.17,.59-1.74,.41-1,.85-2.01,1.32-3.01,.49-.99,1-1.97,1.53-2.95,.47-.87,.94-1.74,1.47-2.58,.67-1.07,1.43-2.17,2.56-2.87,.35-.22,.59,.15,.69,.71,.05,.28,.07,.6,.05,.92-.01,.33-.08,.65-.24,.92-.57,.97-1.03,2.01-1.49,3.07-.53,1.03-1.06,2.1-1.64,3.17-.69,1.29-1.08,2.79-1.59,4.22-.57,1.57-1.16,3.16-1.78,4.75-.38,.98-.79,1.95-1.21,2.93-.65,1.47-1.37,2.93-2.23,4.34-.66,1.09-1.28,2.24-2.25,3.23-.22,.21-.44,.42-.68,.6-.49,.3-.85,.46-1.17,.4-.31-.03-.54-.18-.77-.43-.11-.11-.22-.22-.3-.34-.26-.4-.08-.96,.27-1.53,.56-.77,1.05-1.49,1.54-2.29,.49-.8,.92-1.69,1.39-2.6,.71-1.35,1.38-2.81,1.98-4.34l.07,.02Z"/>
  <path class="cls-1" d="M287.8,382.25c.13-2.5,.59-4.92,1.34-7.28,.3-.85,.51-1.74,.93-2.57,.71-1.46,1.58-2.88,2.79-4.08,.15-.15,.29-.31,.44-.45l.5-.41,.5-.4,.25-.2,.33-.2c.85-.53,2.03-.8,3.08-.58,.94,.16,1.69,.61,2.34,1.07,.67,.47,1.18,1.02,1.68,1.58,1.1,1.49,2.35,3.09,1.82,5.1-.04,.58-.39,.58-1.04,.32-.36-.11-.65-.35-1.37-.45-.33-.06-.46-.21-.67-.33-.19-.13-.37-.26-.5-.43-.39-.61-.74-1.22-1.16-1.71-.39-.51-.76-.98-1.12-1.27-.37-.3-.56-.39-.76-.45-.05-.03-.12-.03-.19-.02-.07-.02-.16,.02-.26,.05-.05,.02-.09,.01-.16,.05l-.22,.14-.45,.27c-1.45,.94-2.35,2.76-3.08,4.53-.82,1.98-1.37,4.14-1.64,6.32-.09,.67-.13,1.35-.15,2.02,0,.33-.02,.68,0,1.01l.06,.91c.03,.28,.07,.57,.16,.86,.1,.26,.21,.62,.53,.69,.3,.06,.58-.12,.81-.31,.24-.19,.44-.43,.62-.67,.91-1.22,1.52-2.74,2.06-4.2,.11-.33,.21-.65,.32-.98,.29-.57,.54-.91,.82-1.11,.14-.1,.28-.18,.44-.23,.18-.04,.37-.06,.56-.08,.17-.02,.33-.06,.46-.07,.35-.06,.97,.74,.87,1.87-.03,.84-.28,1.61-.56,2.37-.28,.76-.62,1.51-1.02,2.24-.4,.74-.85,1.45-1.41,2.17-.94,1.18-2.13,2.28-3.36,2.56-.87,.25-1.96,.05-2.68-.52-.2-.12-.32-.34-.49-.5-.14-.19-.35-.31-.43-.57l-.32-.71c-.11-.24-.23-.46-.27-.76l-.36-1.64-.09-1.03c-.03-.65-.06-1.29-.04-1.93h.08Z"/>
  <path class="cls-1" d="M281.22,383.76c.15-2.29,.49-4.5,.92-6.7,.16-.8,.23-1.62,.44-2.41,.36-1.4,.79-2.78,1.34-4.17,.28-.7,.57-1.38,1-2.1,.46-.74,1.09-1.51,1.97-1.98,.77-.4,1.6-.59,2.39-.63,.77,0,1.52,.04,2.2,.25,1.7,.51,3.44,1.05,4.3,2.74,.24,.55,.04,.68-.64,.93-.72,.31-1.86,.79-2.6,.55-1.28-.54-2.59-.78-3.31-.85-.37,0-.56,0-.85,.16-.16,.06-.29,.23-.48,.42-.18,.23-.37,.53-.56,.83-.9,1.52-1.21,3.51-1.63,5.36-.45,2.06-.83,4.17-1.03,6.27-.12,1.29-.21,2.6-.14,3.86,.05,.95,.16,1.91,.44,2.67,.13,.36,.33,.67,.45,.73,.03,0,.05,.01,.08,.04,.04,0,.07,0,.1,0,.1-.03,.26-.04,.38-.12l.1-.05c.31-.21,.58-.72,.82-1.38,.24-.64,.45-1.35,.75-2.09,.14-.34,.26-.7,.47-1.05,.37-.66,.83-1.05,1.24-1.2,.45-.11,.79-.02,1.1,.21,.14,.1,.28,.19,.38,.3,.16,.19,.16,.45,.16,.73,0,.15,0,.3,0,.47,0,.16-.04,.31-.09,.46-.23,.71-.46,1.59-.77,2.62-.16,.52-.35,1.07-.66,1.69l-.27,.48-.36,.52c-.32,.4-.73,.76-1.18,1.04-.72,.33-1.3,.7-2.43,.6-.52-.01-1.07-.23-1.53-.48-.41-.27-.81-.6-1.02-.9-.69-.87-.94-1.63-1.13-2.3-.19-.69-.28-1.32-.35-1.95-.13-1.24-.13-2.42-.09-3.58h.08Z"/>
  <path class="cls-1" d="M271.44,386.46c.18-2.58,.77-5.01,1.53-7.36,.27-.86,.5-1.73,.83-2.56,1.19-2.93,2.71-5.68,4.38-8.3,.76-1.19,1.6-2.47,2.9-3.46,.42-.31,.9-.59,1.46-.8,.57-.17,1.22-.23,1.86-.09,.31,.09,.64,.18,.9,.36,.27,.18,.5,.4,.69,.63,.38,.47,.6,.99,.71,1.49,.12,.65-.32,.64-.97,.48-.32-.08-.74-.16-1.12-.14-.18,0-.37,.05-.5,.1-.07,.02-.13,.07-.18,.11-.03,0-.06,.02-.09,.03-.08,.01-.14,.07-.26,.14-.11,.05-.31,.12-.52,.24-.43,.25-.93,.71-1.38,1.25-.24,.26-.44,.58-.68,.88l-.73,1.06c-.48,.71-.96,1.43-1.45,2.15-1.15,1.73-1.89,3.77-2.62,5.73-.8,2.17-1.46,4.4-1.8,6.66-.2,1.39-.29,2.8-.1,4.12,.07,.49,.19,.98,.36,1.38,.14,.33,.3,.57,.59,.72,.65,.25,1.11-.21,1.8-1.07,.96-1.29,1.55-2.88,2.31-4.43,.17-.35,.31-.7,.51-1.05,.86-1.21,1.55-1.52,2.24-1.21,.16,.07,.33,.14,.44,.24,.34,.4,.32,.88,.02,1.76-.2,.67-.51,1.33-.85,2.02-.33,.69-.69,1.4-1.09,2.12-.4,.72-.87,1.44-1.42,2.19-.29,.37-.6,.75-1.01,1.13-.55,.51-1.28,.97-2.03,1.12-1.13,.26-2.32-.18-3.13-1.02-.21-.2-.38-.44-.55-.69-.17-.24-.3-.53-.39-.7-.17-.39-.3-.77-.4-1.14-.37-1.46-.4-2.81-.35-4.12h.07Z"/>
  <path class="cls-1" d="M263.06,386.44c.36-2.58,.99-5.02,1.78-7.42,.29-.87,.51-1.77,.86-2.63,1.27-2.99,2.77-5.95,5.21-8.42,1.09-1.05,2.4-2.18,4.2-2.52,.56-.11,1.15-.15,1.73-.09,.52,.06,.99,.12,1.57,.31,.56,.18,1.16,.59,1.57,1.08,.22,.23,.35,.53,.42,.8,.09,.28,.13,.54,.17,.8,.05,.66-.34,.7-1.1,.6-.38-.04-.9-.11-1.38,0-.46,.05-.61,.25-.78,.27-.14,0-.41-.08-.77-.11-.21-.03-.27-.02-.38-.02-.1,0-.19,.01-.29,.03-.38,.06-.81,.26-1.35,.55-1.07,.62-2.22,1.8-3.28,3.1-1.28,1.58-2.01,3.66-2.75,5.66-.81,2.21-1.48,4.49-1.92,6.81-.26,1.4-.45,2.92-.42,4.19,0,.29,.02,.6,.09,.91,.07,.3,.2,.65,.5,.77,.3,.09,.64-.02,.88-.22,.26-.19,.46-.45,.65-.71l.26-.42c.11-.17,.21-.36,.31-.54,.2-.36,.39-.75,.58-1.14,.37-.78,.75-1.58,1.2-2.39,.22-.36,.38-.72,.67-1.07,.25-.31,.52-.56,.77-.74,.23-.18,.48-.31,.71-.36,.45-.09,.83,.04,1.1,.24,.13,.1,.26,.18,.33,.28,.13,.17,.08,.41,.01,.7-.03,.14-.07,.28-.11,.49-.03,.21-.12,.31-.2,.53-.53,1.12-1.13,2.52-1.8,4.01-.18,.38-.35,.75-.57,1.15-.11,.2-.2,.39-.32,.59l-.18,.3c-.1,.15-.2,.33-.32,.49-.97,1.3-2.2,2.34-3.51,2.48-.24,.05-.49,.05-.74,.05h-.38s-.37-.07-.37-.07c-.49-.14-.94-.39-1.3-.72-.72-.64-1.2-1.63-1.41-2.8-.12-.56-.17-1.21-.19-1.76-.01-.36,0-.7,0-1.05,.02-.69,.07-1.35,.14-2.01h.08Z"/>
  <path class="cls-1" d="M252.5,371.44c-.3-.39-.53-.76-.8-1.24-.38-.65-.58-1.35-.66-2.04-.08-.7,.1-1.4,.45-1.98,.4-.56,.94-1.01,1.57-1.29,.23-.11,.47-.19,.71-.27,.3-.09,.44-.12,.64-.16,.38-.07,.74-.11,1.1-.11,.33,0,.61,.04,.86,.06,.27,.02,.53,.06,.79,.11,.53,.08,1.06,.18,1.58,.29,1.05,.22,2.09,.49,3.1,.81,.9,.28,1.82,.51,2.68,.84,.56,.2,1.13,.39,1.66,.64,.52,.29,.99,.69,1.44,1.1,.27,.27,.09,.55-.37,.82-.45,.26-1.22,.64-1.9,.64-.56-.1-1.09-.26-1.63-.37-.54-.13-1.07-.22-1.58-.41-1.04-.33-2.08-.65-3.14-.99-.64-.2-1.32-.28-2.01-.31l-1.04-.04c-.31-.01-.58-.01-.85,0-.13,0-.32,.03-.37,.04-.06,0-.14,.02-.2,.04-.14,.04-.28,.12-.37,.25-.18,.28-.13,.59,.07,.97,.4,.74,.95,1.43,1.62,2.02,1.01,.89,2.24,1.6,3.58,1.98,1.06,.31,2.11,.31,3.17,.27,.24,0,.47-.05,.71-.04,.9,.04,1.19,.25,1.35,1.01,.04,.17,.09,.35,.11,.52,.06,.58-.33,1.05-1.04,1.22-1.04,.27-2.21,.29-3.41,.11-1.2-.19-2.3-.53-3.44-1.05-1.65-.78-3.24-1.89-4.45-3.42l.05-.05Z"/>
  <path class="cls-1" d="M315.25,362.96l-1.22-.42-1.26-.34c-.83-.25-1.7-.39-2.56-.56-.63-.14-1.27-.11-1.9-.21-2.23-.33-4.52-.52-6.79-.43-1.01,0-2.02,.16-3.01,.32-.63,.11-1.24,.32-1.88,.41-.32,.03-.63,.1-.95,.14-.32,.05-.67-.01-1.01-.02-.44-.05-.48-.32-.28-.84,.1-.26,.26-.6,.48-.96,.23-.34,.54-.62,.91-.8,2.69-1,5.57-1.28,8.39-.92,1.68,.19,3.43,.13,5.14,.34,.94,.09,1.87,.31,2.8,.46,.92,.19,1.84,.44,2.75,.67,1.11,.36,2.23,.67,3.3,1.13,.41,.16,.83,.31,1.23,.49l1.19,.59c.81,.35,1.55,.85,2.33,1.26,1.16,.72,2.42,1.33,3.47,2.3,.23,.21,.5,.37,.69,.63,.71,.95,.61,1.48,.28,1.99-.08,.12-.15,.24-.23,.34-.14,.16-.36,.19-.64,.17-.28-.03-.65-.11-.98-.3-.27-.12-.46-.29-.68-.45l-.71-.41c-.47-.27-.84-.63-1.33-.89-.47-.27-.87-.62-1.38-.87l-1.45-.81c-1.51-.72-3.05-1.45-4.72-1.92l.02-.07Z"/>
  <path class="cls-1" d="M309.38,348.82c.66-.12,1.31-.25,2-.28l.98-.07c.23,0,.52-.02,.82-.04,1.2-.08,2.47-.11,3.72-.09,.91,.02,1.83-.02,2.74,.08,3.2,.4,6.31,1.31,9.2,2.62,.63,.32,1.26,.63,1.9,.92,.63,.31,1.24,.65,1.86,.96,1.57,.82,3.14,1.78,4.09,3.4,.32,.48,.08,.64-.57,.75-.33,.06-.77,.11-1.27,.16-.24,.02-.52,.06-.76,.03-.23-.04-.45-.11-.67-.22l-1.16-.49c-.38-.16-.71-.41-1.09-.57-.74-.34-1.45-.76-2.2-1.07-.74-.34-1.48-.67-2.22-1.01-.73-.37-1.5-.68-2.27-1.02-1.86-.77-3.96-.92-5.99-1.06-2.23-.19-4.54,0-6.87,.17-1.32,.15-2.66,.44-3.96,.96-1.97,.73-3.92,1.72-5.65,2.98-.68,.49-1.29,1.04-1.89,1.6-.6,.56-1.18,1.13-1.75,1.71-.24,.26-.48,.51-.73,.77-.96,.91-1.39,1.02-2.12,.82-.17-.05-.35-.07-.5-.13-.5-.18-.51-.98,.02-1.99,.83-1.43,1.9-2.69,3.07-3.89,1.23-1.13,2.59-2.14,4.05-3.05,2.17-1.33,4.54-2.45,7.2-3.04l.02,.08Z"/>
  <path class="cls-1" d="M354.91,77.72c-5.19-3.56-10.65-6.7-16.2-9.64-5.61-2.84-11.35-5.42-17.25-7.63-5.92-2.14-11.91-4.1-18.05-5.52-3.04-.82-6.15-1.34-9.23-2-1.55-.28-3.11-.5-4.67-.76-1.56-.25-3.11-.51-4.68-.66-12.51-1.53-25.21-1.8-37.8-.65-12.62,1.1-25.07,3.32-37.08,7.22-17.54,5.67-34.03,14.42-49,25.14-6.58,4.77-12.82,10-18.74,15.56-5.93,5.57-11.34,11.65-16.4,18-10.09,12.73-18.1,27.09-23.83,42.3-11.58,30.43-13.35,64.39-5.76,96.08,1.72,7.03,3.87,13.95,6.45,20.73,2.59,6.77,5.7,13.34,9.13,19.71,3.42,6.39,7.37,12.46,11.6,18.31l1.6,2.18c.53,.73,1.06,1.46,1.65,2.13l3.44,4.12,.86,1.03,.93,.97,1.87,1.93,1.86,1.93,.93,.96,.99,.9,5.11,4.63,5.38,4.33,1.35,1.08,1.41,1.01,2.81,2.01,2.81,2.01,2.91,1.87,2.92,1.87c.97,.63,1.94,1.25,2.95,1.81l6.01,3.44c2.03,1.1,4.11,2.12,6.16,3.18,2.04,1.09,4.15,2.02,6.25,2.98,4.17,2,8.49,3.62,12.78,5.34l6.54,2.27,1.64,.56,1.66,.49,3.32,.98c8.86,2.52,17.88,4.53,27.02,5.45,11.37,.84,10.01,1.66,.04,2.46-1.24,.02-2.62,.03-4.12,0-1.5-.04-3.14,.01-4.86-.15-3.44-.33-7.38-.6-11.59-1.42-4.26-.64-8.76-1.85-13.56-3.13-2.36-.76-4.79-1.55-7.27-2.35-2.47-.85-4.94-1.89-7.48-2.89-8.92-3.76-17.6-8.08-25.9-13.09-8.26-5.07-16.17-10.73-23.52-17.13l-5.39-4.94-5.08-5.3-.63-.66-.59-.71-1.18-1.42-2.35-2.84-1.17-1.42-1.07-1.47-2.15-2.94c-5.64-7.9-10.6-16.28-14.82-25.03-8.45-17.49-13.89-36.44-15.96-55.77-2.09-19.33-.85-39.04,3.78-57.96,5.47-22.63,15.89-44.57,30.64-63.35,7.34-9.41,15.69-18.05,24.82-25.76,9.11-7.72,18.96-14.55,29.32-20.36,2.81-1.66,5.76-3.07,8.67-4.57,1.44-.77,2.95-1.4,4.43-2.08l4.47-2.01c6.05-2.46,12.16-4.8,18.46-6.58,1.57-.45,3.13-.94,4.71-1.35l4.77-1.14,2.39-.57c.8-.17,1.61-.3,2.41-.46l4.83-.89c1.61-.3,3.23-.46,4.84-.7,1.62-.21,3.23-.47,4.85-.64l4.87-.47,2.43-.23,2.44-.14c13.01-.79,26.14-.42,39.04,1.62,1.61,.26,3.23,.49,4.83,.78l4.8,.97c1.61,.3,3.19,.69,4.77,1.09,1.58,.4,3.17,.76,4.75,1.2,3.13,.93,6.28,1.78,9.35,2.89,1.54,.55,3.1,1.01,4.62,1.62l4.56,1.78c14.87,6.09,28.85,14.34,41.32,24.45,12.46,10.13,23.44,22.03,32.62,35.16,3.48,4.97,6.67,10.15,9.65,15.44,.74,1.33,1.43,2.68,2.14,4.02,.72,1.34,1.42,2.69,2.06,4.06l1.98,4.1,1.79,4.21c4.72,11.24,7.94,23.05,9.89,35.02,3.91,23.95,3.17,48.57-2.09,72.06l-.78,3.42-.39,1.71-.48,1.69c-.63,2.25-1.27,4.49-1.9,6.74-1.5,4.41-2.87,8.87-4.69,13.14-1.62,4.36-3.71,8.51-5.65,12.73-2.23,4.07-4.29,8.23-6.84,12.1-2.34,4.01-5.13,7.71-7.8,11.5-1.42,1.83-2.91,3.61-4.36,5.41-.74,.89-1.44,1.82-2.22,2.68l-2.37,2.55-2.37,2.55c-.79,.85-1.56,1.72-2.43,2.49l-5.08,4.77-1.27,1.19-1.35,1.1-2.7,2.21c-1.81,1.45-3.56,3-5.5,4.29-3.36,2.35-6.6,4.81-10.13,6.82-1.74,1.06-3.47,2.12-5.22,3.18-1.81,.94-3.64,1.88-5.47,2.83-1.71,.85-3.32,1.76-4.92,2.46-1.61,.69-3.16,1.35-4.64,1.98-1.48,.63-2.89,1.22-4.24,1.79-1.35,.56-2.69,.96-3.94,1.4-2.52,.85-4.8,1.61-6.86,2.31-2.08,.64-4,1.05-5.71,1.49-1.72,.42-3.26,.77-4.65,1.08-.7,.15-1.36,.28-1.98,.41-.64,.08-1.24,.16-1.82,.23-2.3,.26-4.15,.38-5.81,.4-1.51,.02-3.47,.13-4.36,.02-1.5-.19,.72-1.12,5.96-2.63,1.31-.38,2.81-.79,4.49-1.23,1.67-.45,3.48-1.11,5.48-1.71,1.99-.62,4.15-1.28,6.46-2,2.27-.84,4.68-1.73,7.24-2.68l2.85-1.04c.94-.37,1.86-.81,2.79-1.21,1.85-.82,3.71-1.64,5.57-2.46,1.89-.76,3.65-1.78,5.46-2.71,1.8-.94,3.61-1.89,5.42-2.84,1.76-1.04,3.48-2.13,5.23-3.19,1.73-1.09,3.53-2.07,5.16-3.32,3.32-2.4,6.75-4.67,9.86-7.38,1.57-1.32,3.22-2.57,4.74-3.96,1.5-1.41,3-2.83,4.51-4.24,.74-.72,1.54-1.38,2.23-2.15l2.11-2.27c1.4-1.53,2.85-3.01,4.21-4.57,1.31-1.61,2.62-3.22,3.93-4.83,.64-.82,1.35-1.58,1.94-2.44l1.81-2.54c1.19-1.71,2.47-3.36,3.59-5.12l3.32-5.32c4.23-7.21,8.09-14.7,11.1-22.57l1.18-2.93c.39-.98,.69-1.99,1.05-2.99l2.04-6c1.11-4.08,2.42-8.11,3.26-12.27l.71-3.1c.25-1.03,.48-2.07,.64-3.12l1.11-6.27c.37-2.09,.56-4.21,.86-6.32l.41-3.16,.26-3.18c.83-8.48,.86-17.03,.48-25.54-.65-12.65-2.57-25.25-5.88-37.46-3.4-12.19-8.36-23.85-14.74-34.87-12.58-22.05-30.1-41.33-51.14-55.53l.02-.13Z"/>
  <path class="cls-1" d="M168.05,279.65c0,.31,.01,.63,.05,.95,.01,.12,.09,.21,.1,.32,.06,.4,.08,.84,.16,1.27,.04,.19,.15,.34,.24,.5,.12,.2,.28,.37,.26,.68,0,.1-.28,.28-.6,.42-.32,.14-.71,.25-.85,.15-.51-.33-.76-.86-.82-1.45-.03-.35-.22-.64-.32-.97-.09-.36-.15-.74-.2-1.1-.03-.23-.05-.46-.07-.68-.03-.34-.02-.69-.09-1.02-.06-.25-.18-.5-.25-.76-.02-.06-.04-.11-.05-.17,0-.22,.12-.29,.56-.35l.3-.04c.34-.03,.62,.05,.76,.17,.41,.39,.64,.76,.7,1.16,.07,.3,.11,.59,.16,.9h-.05Z"/>
  <path class="cls-1" d="M389.31,432.83l-10.08-15.78c-1.23-1.92-2.58-3.75-3.8-5.67l-12.8-20.39c-1.9-3.01-3.93-5.96-5.94-8.86-1.3-1.86-2.57-3.74-3.82-5.64l-.92-1.44-.82-1.5c-.54-1.01-1.06-2.03-1.56-3.06-.61-1.29-.03-1.46,1.26-.89,.65,.28,1.49,.74,2.41,1.35,.46,.31,.94,.65,1.43,1.04,.25,.19,.47,.41,.73,.61,.2,.24,.42,.48,.62,.74,1.41,1.84,2.84,3.67,4.21,5.55,1.32,1.9,2.63,3.82,3.91,5.75,2.57,3.87,5.09,7.78,7.44,11.82,2.81,4.85,6.26,9.53,9.39,14.31l10.27,15.82c2.11,3.25,4.21,6.49,6.32,9.74,3.22,4.89,6.39,9.85,9.72,14.62,2.57,3.72,5.4,7.15,7.97,10.81,.57,.8,1.18,1.55,1.68,2.41,.95,1.58,1.54,2.64,1.78,3.51,.09,.45,.14,.83,.12,1.17,.02,.32-.02,.62-.09,.9-.06,.26-.08,.56-.16,.74-.14,.31-.51,.22-1.16-.15-.32-.19-.72-.43-1.18-.74-.48-.29-.88-.75-1.36-1.23-5.7-5.78-10.39-12.78-15.19-19.74-3.54-5.19-6.99-10.47-10.48-15.71l.1-.08Z"/>
  <path class="cls-1" d="M383.44,437.93l-9.42-14.41c-1.15-1.75-2.41-3.43-3.54-5.18l-11.96-18.64c-1.77-2.76-3.64-5.46-5.51-8.13-1.2-1.71-2.38-3.44-3.53-5.18l-.85-1.32-.76-1.38c-.5-.92-.99-1.85-1.46-2.79-.58-1.18-.08-1.31,1.07-.76,.57,.27,1.32,.71,2.15,1.29,.41,.29,.85,.62,1.28,.98,.21,.19,.43,.38,.65,.57,.19,.22,.38,.44,.56,.68,1.29,1.7,2.6,3.38,3.86,5.1l3.62,5.27c2.38,3.54,4.72,7.12,6.93,10.81,2.63,4.42,5.83,8.71,8.76,13.08l9.6,14.45c1.97,2.97,3.93,5.94,5.9,8.9,3,4.48,5.96,9.01,9.03,13.39,2.38,3.41,4.97,6.58,7.34,9.94,.53,.74,1.08,1.43,1.55,2.22,.88,1.45,1.43,2.42,1.67,3.2,.18,.82,.19,1.36,.1,1.86-.04,.23-.05,.5-.11,.66-.11,.27-.44,.18-1.02-.17-.28-.18-.64-.41-1.06-.7-.43-.28-.79-.7-1.23-1.15-5.16-5.37-9.5-11.78-13.94-18.16-3.28-4.75-6.5-9.58-9.75-14.37l.08-.07Z"/>
  <path class="cls-1" d="M238.49,186.79c-.11-.26,0,0,.03,.12,.04,.13,.08,.27,.12,.4,.08,.31,.14,.62,.19,.93,.03,.19,0-.03,0-.06,.01,.08,.02,.15,.03,.23,.02,.18,.04,.36,.05,.54,.03,.34,.04,.68,.05,1.03,.04,1.31-.01,2.62,.04,3.93s.19,2.59,.79,3.74,1.65,1.79,2.85,2.04c4.84,1.04,7.79-4.13,9.37-7.86,.74-1.76,1.37-3.57,1.84-5.43,.51-2.03-2.62-2.89-3.13-.86-.36,1.41-.81,2.79-1.32,4.15-.08,.21-.16,.42-.25,.62-.05,.12-.09,.23-.14,.35,.16-.38,0,.01-.03,.08-.21,.47-.42,.93-.66,1.39-.46,.9-.98,1.76-1.58,2.58,.25-.34-.13,.15-.19,.23-.15,.18-.31,.35-.47,.51s-.32,.31-.49,.45c-.05,.05-.11,.09-.17,.14,.36-.3-.02,0-.1,.06-.17,.11-.36,.2-.54,.31-.29,.19,.35-.1,.02,0-.06,.02-.13,.05-.19,.07-.19,.06-.38,.1-.58,.14,.46-.1,.17-.02,.03-.02s-.27,0-.41,0c-.05,0-.38-.05-.1,0s-.06-.02-.1-.03c-.22-.06-.44-.12-.65-.2,.4,.16,.08,.04,0-.02-.29-.22,.29,.24,.01,.01-.05-.04-.09-.1-.14-.14,.31,.27,.06,.05-.04-.09-.06-.09-.17-.41-.02,0-.04-.11-.08-.21-.11-.32-.07-.21-.11-.43-.16-.65-.02-.11-.04-.21-.05-.32,.06,.42,0-.04,0-.11-.03-.34-.05-.67-.06-1.01-.1-2.88,.22-5.82-.95-8.53-.35-.81-1.53-.99-2.22-.58-.83,.49-.93,1.41-.58,2.22h0Z"/>
  <path class="cls-1" d="M236.28,231.12c.31-.49,.36-.58,.77-1.01s.44-.46,.91-.71c.08-.04,.34-.13,.13-.06,.1-.03,.21-.06,.31-.09,.03,0,.25-.05,.1-.03,.16-.03,.33-.04,.5-.05,.51-.04,1.02-.06,1.54-.02,.1,0,.2,.02,.3,.03,.26,.02-.25-.04,0,0,.21,.03,.41,.07,.62,.12,.41,.09,.81,.22,1.21,.35,.99,.32,1.96,.66,2.97,.92,.85,.22,1.76-.28,2-1.13s-.28-1.77-1.13-2c-2.14-.57-4.18-1.51-6.43-1.55-1.32-.02-2.72,.11-3.88,.79-1.14,.66-2,1.7-2.7,2.8-.47,.74-.16,1.79,.58,2.22,.78,.46,1.75,.16,2.22-.58h0Z"/>
  <path class="cls-1" d="M241.62,171.22c.92-.51,1.85-1,2.79-1.46,.44-.21,.89-.42,1.33-.62,.19-.09,.38-.17,.58-.26,.13-.06,.26-.11,.39-.17-.16,.06-.12,.05,.1-.04,1.88-.78,3.8-1.45,5.75-2.01,1-.29,1.73-1.42,1.4-2.46s-1.38-1.71-2.46-1.4c-4.13,1.2-8.13,2.87-11.89,4.96-.92,.51-1.29,1.84-.72,2.74,.6,.93,1.76,1.26,2.74,.72h0Z"/>
  <path class="cls-1" d="M231.02,170.6c-2.49-1.63-4.98-3.25-7.47-4.88-.88-.57-2.25-.21-2.74,.72-.53,1-.22,2.12,.72,2.74,2.49,1.63,4.98,3.25,7.47,4.88,.88,.57,2.25,.21,2.74-.72,.53-1,.22-2.12-.72-2.74h0Z"/>
  <g>
    <path class="cls-1" d="M292.65,292.34c.38,.63,.76,1.25,1.13,1.88,.12,.22,.28,.39,.48,.53,.18,.17,.39,.28,.64,.34,.25,.08,.5,.09,.75,.03,.25-.01,.48-.09,.7-.22l.38-.29c.23-.23,.39-.51,.48-.83l.07-.5c0-.34-.09-.65-.26-.95-.38-.63-.76-1.25-1.13-1.88-.12-.22-.28-.39-.48-.53-.18-.17-.39-.28-.64-.34-.25-.08-.5-.09-.75-.03-.25,.01-.48,.09-.7,.22l-.38,.29c-.23,.23-.39,.51-.48,.83l-.07,.5c0,.34,.09,.65,.26,.95h0Z"/>
    <path class="cls-1" d="M290.98,292.31c-.05-.66-.04-1.25,.2-2.07,.23-.74,.64-1.4,1.18-1.88,.39-.34,.82-.68,1.34-.78,.92-.23,1.85,.24,2.51,.84,.15,.2,.31,.36,.44,.54,.15,.17,.22,.41,.35,.58,.18,.38,.27,.6,.38,.87,.19,.45,.42,.89,.66,1.31,.31,.54,.65,1.06,.79,1.7,.04,.2-.23,.34-.6,.38-.37,.04-.87,0-1.14-.26-.46-.46-.91-.93-1.31-1.42-.2-.24-.37-.53-.52-.78-.05-.1-.18-.28-.14-.29,.01-.04,.02-.1,.02-.16-.02-.35-.36-.42-.59-.32-.14,.03-.27,.13-.38,.26-.05,.06-.1,.14-.14,.22l-.05,.12c-.02,.07-.02,.14-.03,.21-.03,.36,0,.75,.14,1.11,.21,.55,.59,1.06,1.15,1.27,.44,.18,.94,0,1.32-.11,.09-.02,.17-.07,.25-.08,.08,0,.14-.01,.21,0,.07,.04,.14,.12,.2,.2,.14,.16,.26,.36,.43,.64l.22,.36c.21,.36,.2,.89-.2,1.42-1.34,1.12-3.45,.8-4.89-.4-1.08-.9-1.69-2.16-1.88-3.47l.07-.02Z"/>
  </g>
  <g>
    <path class="cls-1" d="M298.85,305.88c.51,.62,1.02,1.25,1.52,1.87,.17,.18,.37,.31,.6,.39,.22,.12,.46,.17,.72,.16,.26,0,.5-.04,.72-.16,.23-.08,.43-.2,.6-.39,.33-.36,.57-.83,.55-1.33l-.07-.5c-.09-.32-.25-.59-.48-.83-.51-.62-1.02-1.25-1.52-1.87-.17-.18-.37-.31-.6-.39-.22-.12-.46-.17-.72-.16-.26,0-.5,.04-.72,.16-.23,.08-.43,.2-.6,.39-.33,.36-.57,.83-.55,1.33l.07,.5c.09,.32,.25,.59,.48,.83h0Z"/>
    <path class="cls-1" d="M297.36,305.01c-.11-.53-.16-1.04-.17-1.54,0-.26,0-.47,.01-.77,.01-.37,.08-.71,.21-1.08,.1-.27,.21-.57,.48-.92,.25-.34,.78-.73,1.37-.78,.47-.06,.99,.11,1.26,.31,.29,.19,.44,.38,.56,.52l.46,.69c.3,.45,.6,.89,.91,1.32,.29,.37,.6,.72,.92,1.06,.41,.43,.86,.82,1.12,1.4,.08,.18-.18,.41-.55,.57-.37,.15-.88,.26-1.19,.09-.53-.33-1.05-.67-1.52-1.05-.45-.41-.86-.86-1.21-1.38-.2-.3-.5-.58-.75-.79-.02-.02-.04-.03-.06-.04,0,0-.01,0-.01,0,0,0-.01,.01,0-.01l.07-.1c.18-.27,.24-.42,.26-.5,.01-.02,.01-.11,0,0,0-.04,0-.08,0-.08,0-.02,0,.02,.08,.11,.08,.09,.23,.19,.42,.28l.14,.06s0,0,0,0c0,0-.01,.01-.02,.03-.03,.05-.05,.14-.07,.23-.02,.35-.02,.7,.02,1.05,.05,.42,.13,.84,.29,1.21,.25,.56,.58,1.08,1.12,1.31,.2,.09,.44,.11,.65,.09,.21,0,.4-.03,.57-.06,.08-.02,.14-.06,.21-.07,.25-.03,.37,.1,.75,.67l.27,.38c.29,.41,.3,.94-.16,1.3-.67,.5-1.57,.75-2.44,.69-.85-.14-1.64-.54-2.31-1.12-.98-.88-1.48-1.99-1.77-3.04l.07-.02Z"/>
  </g>
  <g>
    <path class="cls-1" d="M204.11,200.9c6.82-8.95-.46-22.99-3.31-23.41,0,0,28.63,5.19,30.09,6.63,1.45,1.44,3.07,8.07,0,11.3-3.07,3.23-5.18,3.65-5.18,3.65l-21.6,1.83Z"/>
    <path class="cls-1" d="M201.66,198.97c5.98-11.38-3.44-22.32-3.44-22.32,0,0-13.83-2.47-17.31-.88,0,0,4.98,4.99,5.62,9.08,.64,4.09,.27,13.23-4.35,16.71,0,0,10.23,.42,12.47,.22,1.16-.1,2.76-.3,4.04-.47,1.34-.18,2.34-1.14,2.97-2.34Z"/>
    <path class="cls-1" d="M227.61,181c.67,.19,1.33,.39,2.02,.63,.34,.11,.69,.25,1.07,.4,.15,.07,.52,.21,.75,.39,.27,.16,.5,.35,.73,.56,.36,.49,.65,1.17,.74,1.45,.14,.37,.25,.73,.36,1.1,.2,.73,.37,1.47,.47,2.22,.2,1.5,.23,3.06-.11,4.58-.34,1.66-1.02,3.29-2.06,4.64-.5,.56-.96,1.15-1.55,1.59l-.84,.7-.91,.57-.53,.33c-.22,.11-.43,.35-.72,.3l-1.21,.05-1.94,.08c-2.59,.13-5.19,.34-7.79,.53-2.31,.17-4.62,.42-6.91,.68-2.94,.34-5.88,.61-8.91,.42-1.04-.12-.77-.33-.04-.65,.75-.32,2.11-1.03,3.78-1.39l2.22-.42,1.11-.21,1.12-.15,4.49-.56c3-.37,6.03-.6,9.09-.7,.92-.04,1.84-.09,2.77-.14l1.41-.08c.13-.01,.17,.02,.24-.03l.38-.25c1.42-.92,2.6-2.12,3.32-3.55,.73-1.39,1.01-3,.94-4.64-.01-.82-.17-1.64-.35-2.46-.11-.4-.22-.81-.36-1.19-.06-.2-.15-.38-.22-.56-.05-.11-.07-.19-.13-.28-.14-.15-.26-.2-.73-.37-2.23-.78-4.73-1.35-7.15-1.9-3.71-.82-7.45-1.62-11.17-2.27-2.89-.52-5.78-.8-8.66-1.25-.63-.1-1.26-.17-1.9-.3-2.35-.52-3.03-1.03-3.39-1.78-.08-.18-.2-.36-.23-.51-.12-.52,.93-.76,2.7-.74,2.62,.1,5.26,.46,7.93,.89,2.67,.43,5.37,.94,8.08,1.47,4.02,.81,8.03,1.68,12.1,2.75v.07Z"/>
    <path class="cls-1" d="M191.69,173.44c1.65,.41,3.28,.97,4.86,1.79,.29,.16,.59,.26,.88,.43,.29,.17,.57,.35,.84,.55,1.04,.84,1.73,1.84,2.27,2.83,.54,1,.93,2.01,1.26,3.02,.29,.9,.61,1.77,.84,2.66,.14,.57,.28,1.14,.37,1.73,.05,.59-.02,1.2-.09,1.79-.06,.37-.26,.35-.62,.1-.33-.25-.97-.69-1.35-1.24-1.02-2.02-1.63-4.04-2.5-5.92-.26-.55-.62-1.07-1.06-1.45-.45-.4-.84-.64-1.41-.94-1.15-.7-2.51-1.26-3.94-1.65-.88-.25-1.79-.44-2.71-.58-1.39-.2-2.82-.34-4.22-.22-1.09,.1-2.13,.42-3.13,.72-.22,.06-.43,.17-.65,.19-.85,.06-1.15-.13-1.58-.79-.09-.14-.2-.27-.27-.4-.23-.39-.06-1.09,.59-1.62,1.93-1.46,4.3-1.67,6.56-1.66,1.7,.02,3.39,.25,5.07,.59v.09Z"/>
    <path class="cls-1" d="M191.21,200.87c1.41-.06,2.85-.22,4.18-.54,.48-.12,.94-.35,1.3-.48,.2-.06,.26-.11,.38-.15,.12-.07,.25-.17,.39-.27,.27-.24,.57-.53,.85-.86,.56-.67,1.06-1.46,1.5-2.29,.4-.74,.7-1.53,.95-2.32,.35-1.02,.74-2.02,1.24-3.02,.16-.31,.45-.22,.77,.14,.31,.35,.72,1.02,.74,1.71,0,.61,0,1.22-.07,1.82-.13,.58-.29,1.16-.47,1.73-.36,1.15-.96,2.23-1.7,3.26-.48,.61-.88,1.28-1.47,1.94-.31,.33-.63,.66-1.09,.96-.23,.17-.41,.24-.6,.35-.2,.11-.39,.18-.57,.25-1.63,.61-3.19,.89-4.78,1.11-.98,.12-1.96,.21-2.94,.25-1.49,.08-2.98,0-4.47-.09-.58,0-1.16-.05-1.75-.03-.59-.04-1.19-.03-1.8-.13-.27-.04-.53-.09-.79-.17-.47-.16-.76-.37-.89-.65-.09-.37-.08-.7,0-1.09,.04-.18,.06-.35,.1-.5,.08-.25,.25-.44,.52-.64,.13-.1,.29-.21,.46-.33,.18-.14,.31-.11,.47-.14,.94-.1,1.78-.07,2.65,0,.88,.04,1.77,.13,2.69,.15,1.36,.05,2.78,.07,4.19-.06v.09Z"/>
    <path class="cls-1" d="M179.05,197.7c.3,.55,.63,1.09,1.01,1.54,.19,.22,.39,.44,.59,.61,.13,.12,.12,.12,.14,.14,.02,.02,.04,.04,.07,.07,.05,.04,.12,.08,.18,.06,.09-.04,.06,.02,.33-.16,.48-.27,.87-.69,1.27-1.11,.55-.66,.89-1.51,1.28-2.36,1.33-3.06,1.55-6.88,.96-10.45-.26-1.59-.72-3.18-1.42-4.58-.98-1.76-1.91-3.54-3.63-4.55-.54-.29-.5-.45,.17-.6,.17-.05,.37-.08,.61-.08,.24,0,.53-.02,.82,.04,.61,.07,1.32,.31,1.9,.77,.53,.39,1.01,.83,1.44,1.3,.24,.22,.4,.49,.57,.75,.17,.26,.34,.52,.49,.79,.62,1.07,1.1,2.18,1.47,3.33,.79,2.27,.98,4.69,.88,7.06-.18,2.82-.33,5.85-1.73,8.66-.79,1.51-2,2.9-3.57,3.83-.47,.26-1.05,.54-1.6,.64-.58,.08-1.15-.14-1.65-.43-.26-.13-.49-.33-.73-.49-.21-.19-.35-.31-.51-.47-.31-.31-.59-.63-.84-.96-1.27-1.62-2.07-3.46-2.58-5.35-.77-2.88-.73-5.87-.33-8.7,.29-2.21,.73-4.37,1.47-6.45,.17-.46,.29-.92,.49-1.36,.35-.84,.73-1.32,1.05-1.62,.33-.3,.64-.41,1.02-.42,.18,0,.36-.04,.51,0,.51,.09,.58,.93,.29,2.16-.47,1.81-.98,3.59-1.32,5.4-.41,1.79-.67,3.61-.71,5.41-.06,2.66,.43,5.34,1.67,7.55l-.07,.04Z"/>
    <path class="cls-1" d="M179.4,188.28c.25-.43,.5-.87,.74-1.3,.09-.16,.15-.33,.24-.49,.33-.55,.66-1.11,.98-1.65,.14-.25,.26-.5,.37-.76,.14-.33,.27-.67,.49-.96,.14-.18,.59,.33,.48,.73-.23,.7-.5,1.39-.89,2.03-.23,.38-.38,.82-.58,1.23-.22,.44-.45,.89-.67,1.34-.14,.28-.28,.55-.41,.82-.2,.42-.42,.83-.59,1.26-.13,.33-.19,.69-.28,1.04-.02,.08-.05,.15-.09,.22-.15,.25-.28,.3-.56,.24-.06-.01-.13-.02-.19-.04-.2-.06-.32-.24-.34-.48-.05-.37,.03-.69,.15-1,.11-.31,.25-.62,.39-.92,.22-.45,.46-.89,.69-1.33h.03Z"/>
    <path class="cls-1" d="M180.67,191.22c.2-.32,.41-.65,.61-.97,.07-.12,.11-.25,.18-.37,.26-.41,.54-.82,.78-1.24,.12-.18,.21-.38,.3-.57,.11-.25,.2-.51,.41-.72,.12-.14,.63,.32,.59,.65-.12,.56-.25,1.11-.63,1.56-.21,.28-.29,.62-.44,.94-.17,.34-.34,.68-.51,1.02-.11,.21-.21,.42-.32,.63-.15,.32-.34,.63-.47,.95-.11,.25-.11,.54-.23,.78-.02,.05-.04,.11-.07,.16-.11,.19-.22,.22-.47,.17l-.17-.04c-.18-.05-.3-.2-.33-.39-.02-.27-.1-.57-.03-.82,.05-.25,.13-.49,.22-.74,.11-.36,.35-.68,.53-1.01h.03Z"/>
  </g>
  <path class="cls-1" d="M209.25,69.24c-8.12,2.77-16,6.29-23.58,10.36-7.58,4.07-14.88,8.69-21.81,13.82-2.48,1.93-5.01,3.81-7.36,5.9-1.19,1.03-2.4,2.03-3.57,3.07l-3.46,3.19c-16.35,14.94-29.24,33.64-37.22,54.37-3.54,9.2-5.96,18.87-7.37,28.54l-.6,4.67c-.23,1.55-.28,3.13-.43,4.69-.32,3.13-.36,6.28-.5,9.42-.07,1.57-.01,3.14-.03,4.71,0,1.57-.04,3.14,.04,4.71,.06,1.57,.08,3.14,.09,4.71,.03,1.57,.16,3.14,.17,4.71,.02,3.93-.81,3.52-2.15,.27-.66-1.63-1.47-3.97-2-6.87-.28-1.45-.51-3.03-.69-4.71-.12-1.69-.18-3.48-.18-5.34,.3-26.38,7.58-52.88,21.95-75.27,4.29-6.68,9.04-13.23,14.31-19.43,5.31-6.15,11.11-11.92,17.23-17.2,6.73-5.8,13.92-11.08,21.46-15.77,7.54-4.7,15.41-8.85,23.56-12.38,10.04-4.32,20.51-7.67,31.23-9.79,1.01-.2,2.03-.43,3.04-.6l3.06-.48c2.04-.31,4.07-.68,6.13-.9l6.15-.73,6.17-.52c8.24-.55,16.49-.61,24.68-.09,1.59,.11,3.18,.22,4.76,.33,1.58,.17,3.15,.35,4.73,.52,.79,.09,1.57,.16,2.36,.27l2.34,.36c1.56,.25,3.13,.44,4.68,.73,6.21,1.12,12.34,2.64,18.39,4.54,1.32,.46,2.62,.91,3.93,1.36,1.31,.45,2.62,.9,3.91,1.47,4.85,1.94,7.88,3.61,9.96,4.83,2.03,1.33,3.06,2.33,3.75,3.37,.31,.47,.77,1.02,.9,1.38,.21,.62-.69,.58-2.48,0-.9-.29-2.01-.73-3.31-1.3-1.31-.55-2.85-1.15-4.55-1.91-.63-.27-1.25-.57-1.89-.82l-1.93-.75c-1.29-.5-2.58-1-3.88-1.5-1.32-.45-2.64-.89-3.96-1.34-.66-.22-1.32-.46-1.99-.67l-2.02-.59c-1.35-.39-2.7-.78-4.05-1.18-1.37-.34-2.74-.68-4.12-1.01-.69-.17-1.37-.35-2.06-.5l-2.09-.42c-1.39-.28-2.79-.56-4.19-.84-11.25-1.93-22.86-2.76-34.49-2.33-8.64,.26-17.29,1.2-25.87,2.61-8.56,1.38-16.93,3.5-25.1,6.38l-.06-.09Z"/>
  <path class="cls-1" d="M145.06,166.74c.2,.27-.18,.47-.91,.68-.23,.07-.94,.07-1.04-.02-.19-.16-.38-.33-.51-.5-.1-.1-.33-1.77-.39-2.34-.07-.55-.02-1.09,.07-1.62,.17-1.08,.36-2.13,.6-3.17,.05-.23,.14-.45,.26-.67,.41-.73,.63-1.5,.79-2.28,.03-.13,.08-.26,.02-.41-.12-.25,.51-2.33,.68-2.56,.41-.6,.74-1.21,1.11-1.82,.05-.09,.05-.2,.2-.24,.35-.11,.37-.32,.45-.52,.12-.27,.26-.53,.44-.78,.09-.12,.3-.21,.47-.3,.16-.08,.56,.12,.59,.18,.09,.17,.32,.13,.5,.18,.06,.02,.14,.04,.18,.06,.1,.05,.31,1.89,.25,2.06,0,.02-.13,.63-.27,1.27-.13,.64-.25,1.31-.27,1.45-.01,.15-.12,.26-.2,.39-.04,.06-.33,1.99-.36,2.06-.13,.37-.13,.79-.49,1.1-.07,.06-.07,.14-.09,.22-.13,.67-.38,1.31-.59,1.95-.1,.33-.14,.68-.21,1.01-.01,.06-.06,.11-.09,.17-.04,.07-.09,.14-.1,.22-.12,.8-.38,1.58-.35,2.39,.01,.18-.4,1.02-.35,1.24,.02,.12-.49,.48-.4,.59Z"/>
  <path class="cls-1" d="M139.56,170.82c.27,.1,0,.41-.62,.83-.2,.13-.85,.4-.97,.39-.22-.02-.43-.04-.6-.08-.09-.03-.81-.78-1.09-.99-.27-.21-.43-.47-.6-.74-.32-.54-.72-1.04-1.1-1.53-.09-.11-.15-.24-.19-.39-.14-.51-.46-.89-.84-1.2-.06-.05-.11-.12-.24-.1-.2,.02-1.18-.86-1.27-1.03-.2-.44-.46-.81-.73-1.21-.04-.06-.11-.06-.09-.2,.06-.32-.08-.36-.18-.46-.14-.14-.28-.29-.39-.48-.05-.09-.04-.29-.05-.46,0-.15,.27-.5,.33-.52,.15-.07,.2-.28,.3-.44,.03-.05,.07-.12,.1-.16,.06-.1,1.5-.06,1.62,.04,.01,0,.42,.23,.85,.47,.42,.24,.86,.5,.97,.56,.1,.05,.14,.17,.2,.27,.03,.03,1.3,.86,1.34,.92,.2,.24,.5,.4,.52,.8,0,.08,.05,.12,.1,.16,.4,.37,.66,.85,.93,1.31,.13,.24,.33,.43,.49,.66,.03,.04,.02,.1,.03,.16,.02,.06,.02,.14,.06,.18,.39,.51,.59,1.14,1.01,1.64,.11,.11,.12,.89,.24,1.01,.07,.07-.25,.55-.14,.59Z"/>
  <path class="cls-1" d="M136.64,174.81c.28-.09,.38,.27,.36,.9,0,.2-.2,.76-.29,.82-.18,.11-.35,.22-.51,.29-.1,.04-1.41-.08-1.87-.09-.44-.01-.85-.11-1.26-.22-.83-.23-1.67-.42-2.51-.62-.19-.04-.36-.12-.54-.21-.59-.33-1.23-.49-1.89-.58-.11-.02-.21-.05-.34,.01-.2,.1-1.94-.24-2.16-.35-.53-.28-1.08-.48-1.62-.71-.08-.03-.17-.01-.23-.13-.13-.27-.32-.26-.49-.31-.24-.07-.48-.14-.71-.26-.12-.06-.22-.22-.32-.34-.09-.12,.02-.47,.06-.51,.13-.1,.06-.28,.07-.44,0-.05,0-.12,.02-.16,.02-.09,1.56-.51,1.72-.48,.04,0,2.15,.14,2.43,.16,.13,0,.24,.08,.36,.14,.08,0,1.78,.16,1.84,.17,.34,.1,.71,.08,1.01,.37,.06,.06,.13,.06,.2,.07,.6,.1,1.18,.32,1.75,.51,.3,.1,.6,.15,.91,.22,.05,.01,.1,.06,.15,.09,.06,.04,.12,.08,.19,.1,.72,.16,1.4,.47,2.13,.57,.17,.02,.87,.51,1.06,.53,.11,.01,.33,.5,.44,.46Z"/>
  <path class="cls-1" d="M256.17,296.06c.32-.58,.65-1.14,1-1.7,.31-.47,.66-.91,.97-1.38-.05,.07-.25,.32-.08,.11,.04-.05,.08-.1,.12-.16,.08-.1,.17-.21,.25-.31,.17-.21,.35-.42,.53-.62,.42-.48,.85-.95,1.28-1.43,.57-.63,.67-1.68,0-2.3-.62-.57-1.69-.67-2.3,0-.88,.98-1.76,1.96-2.56,3-.76,.99-1.42,2.04-2.02,3.14-.41,.75-.21,1.81,.58,2.22s1.79,.21,2.22-.58h0Z"/>
  <path class="cls-1" d="M237.96,315.97c1.52,1.81,3.05,3.62,4.57,5.43,.27,.33,.83,.51,1.24,.51s.94-.19,1.24-.51,.53-.77,.51-1.24-.2-.87-.51-1.24c-1.52-1.81-3.05-3.62-4.57-5.43-.27-.33-.83-.51-1.24-.51s-.94,.19-1.24,.51-.53,.77-.51,1.24,.2,.87,.51,1.24h0Z"/>
  <path class="cls-1" d="M276.76,325.88c1.38,1.13,2.76,2.26,4.15,3.38,.37,.3,.74,.51,1.24,.51,.43,0,.94-.19,1.24-.51s.53-.77,.51-1.24c-.02-.44-.16-.95-.51-1.24-1.38-1.13-2.76-2.26-4.15-3.38-.37-.3-.74-.51-1.24-.51-.43,0-.94,.19-1.24,.51s-.53,.77-.51,1.24c.02,.44,.16,.95,.51,1.24h0Z"/>
  <path class="cls-1" d="M338.61,275.83c1.47-1.7,2.78-3.54,3.85-5.5,.44-.8,.22-1.94-.63-2.39s-1.93-.23-2.39,.63c-.74,1.35-1.57,2.63-2.51,3.84l.27-.35c-.34,.44-.7,.88-1.07,1.31-.31,.35-.51,.76-.51,1.24,0,.43,.19,.94,.51,1.24,.66,.6,1.83,.74,2.47,0h0Z"/>
  <path class="cls-1" d="M335.05,296.97c1.81,1.82,3.84,3.42,6.02,4.77,.78,.48,1.96,.19,2.39-.63s.2-1.88-.63-2.39c-.9-.56-1.77-1.16-2.6-1.8l.35,.27c-1.08-.83-2.1-1.73-3.06-2.7-.65-.65-1.84-.7-2.47,0s-.69,1.78,0,2.47h0Z"/>
  <path class="cls-1" d="M318.81,327.47c.31-.58,.67-1.14,1.07-1.66l-.27,.35c.6-.77,1.29-1.46,2.06-2.07l-.35,.27c.2-.15,.4-.3,.61-.44,.38-.26,.68-.59,.8-1.05,.12-.42,.06-.98-.18-1.35s-.6-.7-1.05-.8-.96-.09-1.35,.18c-1.81,1.23-3.34,2.85-4.37,4.79-.22,.41-.3,.89-.18,1.35,.11,.41,.43,.85,.8,1.05,.81,.43,1.94,.24,2.39-.63h0Z"/>
  <path class="cls-1" d="M345.58,333.2c2.38,1.34,4.96,2.14,7.67,2.48,.41,.05,.96-.23,1.24-.51,.3-.3,.53-.8,.51-1.24s-.17-.92-.51-1.24c-.37-.34-.75-.45-1.24-.51-.2-.02-.16-.02,.1,.01-.08-.01-.16-.02-.24-.04-.12-.02-.24-.04-.36-.06-.28-.05-.56-.11-.84-.17-.57-.13-1.14-.29-1.7-.47-.27-.09-.54-.18-.8-.29-.13-.05-.26-.1-.4-.16-.33-.13,.33,.15-.09-.04-.54-.24-1.06-.51-1.58-.8-.8-.45-1.95-.22-2.39,.63s-.22,1.91,.63,2.39h0Z"/>
  <path class="cls-1" d="M376.84,290.05c2.36,1.17,4.72,2.35,7.09,3.52,.82,.41,1.93,.25,2.39-.63,.42-.79,.25-1.96-.63-2.39-2.36-1.17-4.72-2.35-7.09-3.52-.82-.41-1.93-.25-2.39,.63-.42,.79-.25,1.96,.63,2.39h0Z"/>
</svg>