<svg xmlns="http://www.w3.org/2000/svg" width="520" height="520" viewBox="0 0 520 520"><defs><style>.cls-1{fill:#231f20;}</style></defs><title>Notioly New</title><g id="_152.Study-Group" data-name="152.Study-Group"><path class="cls-1" d="M63.57,266.44q-2.62,2.31-5.06,4.83c-.6.61-1.14,1.27-1.72,1.89-2,2.22-4,4.47-5.87,6.86a38.4,38.4,0,0,0-2.25,3.3c-.44.72-.85,1.46-1.23,2.21a13.41,13.41,0,0,0-1,2.22c-.09.38-.39.44-.63-.1a3.41,3.41,0,0,1,.25-2.46A41.8,41.8,0,0,1,52,276.3c1.37-1.63,2.74-3.37,4.2-5,1.6-1.78,3.28-3.48,5-5.13,1.07-1,2.17-2,3.28-3,1.69-1.46,3.46-2.83,5.25-4.14,1.4-1,2.74-2,4.2-3,.32-.21.63-.4,1-.58,1.25-.67,1.74-.71,2.19-.45a1.72,1.72,0,0,1,.3.19c.26.25-.13.75-1,1.3C74,258.27,71.42,260,69,262c-1.83,1.43-3.65,2.91-5.38,4.49Z"/><path class="cls-1" d="M56.53,297l4.78-8.7s13,35.58,42,35.58a13.42,13.42,0,0,0,8.1-4.16c3.27-3.74-3.63,13.57-3.63,13.57S77.33,337.58,60.68,305Z"/><path class="cls-1" d="M48.19,345.84c.54-.38,1.07-.78,1.58-1.19s1-.84,1.53-1.28.69-.68,1.05-1c1.27-1.15,2.51-2.35,3.68-3.61A18.58,18.58,0,0,0,57.45,337a23.52,23.52,0,0,1,1.71-2.35c.21-.23.46,0,.62.35a2,2,0,0,1-.07,1.53,21,21,0,0,1-3.83,4.85c-.9.85-1.73,1.83-2.64,2.7s-2.07,1.85-3.15,2.72c-.68.51-1.35,1-2.05,1.53-1,.75-2.15,1.44-3.24,2.12-.84.55-1.65,1.11-2.51,1.63a4.79,4.79,0,0,1-.58.33c-.76.34-1.06.29-1.4-.12a2,2,0,0,1-.23-.28c-.2-.34,0-.77.44-1.12,1.4-1,2.9-1.82,4.39-2.78,1.1-.71,2.2-1.44,3.25-2.26Z"/><path class="cls-1" d="M44,350.44c-1.62,1.34-7.78,4.3-8.85,2.77s6.26-8,6.26-8Z"/><path class="cls-1" d="M132.17,251.94v.22a1.2,1.2,0,0,0,2.4,0v-.22a1.2,1.2,0,0,0-2.4,0Z"/><path class="cls-1" d="M127.67,261.2a2.51,2.51,0,0,0-.77,1.9,1.22,1.22,0,0,0,1.2,1.2,1.21,1.21,0,0,0,1.2-1.2c0-.18-.09-.05.07-.2,1.1-1.08-.59-2.78-1.7-1.7Z"/><path class="cls-1" d="M132,223.49c.08,0,.29,0,.3.15.12,2.73,4.38,13.09,10.39,14,2.38.36,3.65-.88,4.32-2.78.38-1.09,1-4.56,2.49-4.72,1-.1,0,7.38-3,9.85-4.54,3.73-8.46-1.93-10.56-5.6-1.68-2.92-3.76-4.17-4.15-7.5C131.75,226.37,131.32,223.45,132,223.49Z"/><path class="cls-1" d="M192.11,190.66a11.94,11.94,0,0,1-.28-1.86c0-.22-.05-.45-.05-.68a13.22,13.22,0,0,1,.26-2.36c.06-.35.14-.69.2-1a5,5,0,0,1,.43-1.27c.12-.25.45.26.32.71-.21.84-.34,1.69-.47,2.56a8.55,8.55,0,0,0,0,1.6,10.21,10.21,0,0,0,.22,1.75,7.88,7.88,0,0,0,.28,1.06,6.94,6.94,0,0,0,.69,1.49,5.26,5.26,0,0,0,.83.93l.19.19c.24.23.28.35.22.53s0,.09,0,.12-.24.11-.48,0a4.54,4.54,0,0,1-1.66-1.91,8.33,8.33,0,0,1-.68-1.8Z"/><path class="cls-1" d="M188.49,186.55a14.8,14.8,0,0,1-5.22,1.8,12.49,12.49,0,0,1-8.71-1.85,19.39,19.39,0,0,1-2.52-1.78,12.94,12.94,0,0,1-2.67-2.86c-.44-.68.95-.44,1.92.56a17,17,0,0,0,6.13,4.21,11.33,11.33,0,0,0,4.53.64,12.52,12.52,0,0,0,4.91-1.29,17.66,17.66,0,0,0,2.72-1.66,23.23,23.23,0,0,0,3.6-3.27,29.41,29.41,0,0,0,2.22-3l.45-.68c.58-.84.83-1.06,1.22-1.08a1.15,1.15,0,0,1,.26,0c.25,0,.2.51-.13,1.21a21,21,0,0,1-4.3,5.74,22.56,22.56,0,0,1-4.39,3.35Z"/><path class="cls-1" d="M187.14,176.48s-4,4.3-2.08,4.51,4.48-3.23,4.48-3.23Z"/><path class="cls-1" d="M198.28,186.17s-3.43-1.86-3.52,1.42C194.72,189.14,198.28,186.17,198.28,186.17Z"/><path class="cls-1" d="M154.36,147.76s-6.21,16.13-9,15.19-.72-8.78-3.59-17.48c-1.76-5.33-6.84-7-9.1-5.19,0,0-6.85-20,4.5-34.4s23.1-13.75,32.32-11.44c9.92,2.48,21.11,12.35,25.89,23,44.46-7.72,62.09,11.47,55.21,27.66,0,0,10,7.43,4.44,18.22a27.45,27.45,0,0,1-24.25,15.6c-18.13.71-30.51-25.36-33.54-33.42s-6.63-5.93-6.63-5.93S163.34,149.61,154.36,147.76Z"/><path class="cls-1" d="M293.47,367.74c-30.74-9.19-115.89-4.48-118.37-.58-3.75,5.91,4.58,89,4.58,89H294.91C297.93,433,293.47,367.74,293.47,367.74Zm-53.79,50.18c-6.79,1.45-14.84-3.65-13.9-12s9.26-7.57,9.26-7.57c7-2.46,11.36,5.95,12,8.45S246.47,416.48,239.68,417.92Z"/><path class="cls-1" d="M185.36,263a9.7,9.7,0,0,0-2.38,9.34c1.44,5.69,3.76,13.66,14.56,15.95-4.14-1.31-19.33-11.05-10.49-25.82Z"/><path class="cls-1" d="M239.91,276l-1.63,2L236.53,280l-1.33,1.37a28,28,0,0,1-5.44,3.94c-.44.24-.87.49-1.33.69s-.9.43-1.37.6a8.82,8.82,0,0,1-3.77.67c-.41,0-.34-.23,0-.48a3.37,3.37,0,0,1,.62-.37,3.77,3.77,0,0,1,.87-.35,25.13,25.13,0,0,0,6.52-3.15,20.8,20.8,0,0,0,3.41-3l.88-.91.83-1c.56-.63,1.08-1.3,1.58-2,.65-.82,1.23-1.69,1.81-2.57.45-.65.85-1.33,1.26-2s.82-1.36,1.15-2.07c.53-1.11,1-2.21,1.46-3.34.1-.24.19-.49.3-.74.44-.89.71-1.12,1.09-1.19a1.32,1.32,0,0,1,.26-.05c.25,0,.28.46.12,1.2-.12.55-.3,1.08-.47,1.63a10.79,10.79,0,0,1-.6,1.61c-.5,1-1,2.12-1.57,3.13-.45.75-.86,1.53-1.35,2.25l-1.5,2.17Z"/><path class="cls-1" d="M259,282.43a43.77,43.77,0,0,1-3.51-4.07,17.76,17.76,0,0,1-1.17-1.57,30.89,30.89,0,0,1-3.17-6.12c-.32-1-.76-1.89-1-2.88a15.44,15.44,0,0,1-.53-1.88,14.35,14.35,0,0,1-.21-2c0-.4.31-.38.68-.09a2.72,2.72,0,0,1,1,1.5,44.9,44.9,0,0,0,2.39,7.16c.34.69.72,1.37,1.12,2.05l1.34,1.95a42.15,42.15,0,0,0,3.33,4c.73.79,1.51,1.53,2.3,2.25a38.28,38.28,0,0,0,3.82,3c1,.72,2.14,1.28,3.21,1.91.24.13.48.25.71.39.87.53,1.09.81,1.14,1.19a1.18,1.18,0,0,1,0,.26c0,.25-.48.23-1.23,0a22.7,22.7,0,0,1-6.15-3.55,40.48,40.48,0,0,1-4.09-3.55Z"/><path class="cls-1" d="M232.42,336.17c-.54-.45-6.65,2.4-5.84,4s6.68,16.4,23.36,13.88,21.15-15,21.15-15-7.33-3.78-9.27-2.4-9.27,5.27-16.82,5.27A15.61,15.61,0,0,1,232.42,336.17Z"/><path class="cls-1" d="M226.68,294.82s-.05,4.06,1.67,4.49c2.56.64,1.65-4.49,1.65-4.49Z"/><path class="cls-1" d="M248.84,294.36s-1,4.66.52,5,3.37-3.44,3.27-5S248.84,294.36,248.84,294.36Z"/><path class="cls-1" d="M395.49,338.09s2.17-10.36,4.65-10.83-.81,5.06-.81,5.06Z"/><path class="cls-1" d="M410,369.48s25.2,6.81,40.53-8.34c0,0,9.1-6.46,12.11-12.06,0,0,18.91,58.63,21.7,79.8s2,22.8,2,22.8-5.16-4.84-14.08-1.05-15.67,3.65-24.08,3.72-2.31.7-13.68,3S418.87,461,414,459.05s-4-1.32-2.44-13.92,2.06-49.51.8-59.31S410,369.48,410,369.48Z"/><path class="cls-1" d="M420.26,187.14c6.45.42,16.13-.14,19.27-7,2.45-5.38,1.57-11.38-1.5-16.3-4-6.39,6.59,2.06,7.25,9s-3.3,12-6.4,13.76-17.45,2.65-19.38,1.52S420.26,187.14,420.26,187.14Z"/><path class="cls-1" d="M377.3,192.44s3.12,4,6,1.8,4.41-8.1,4.41-8.1-.34,8.38-3.59,10.93-7-3.09-7-3.09Z"/><path class="cls-1" d="M321.1,179.7l-1.46.46c-.5.13-1,.23-1.49.35-1,.26-2,.39-3,.55-.73.14-1.47.2-2.2.27a38.54,38.54,0,0,1-7.75-.28c-1.14-.14-2.27-.34-3.39-.52l-2.14-.45a20.92,20.92,0,0,1-2.07-.69c-.85-.32.58-1,2.15-.67a69.35,69.35,0,0,0,8.54,1.19c.43,0,.87.06,1.31.08l1.33-.06c.89,0,1.77-.16,2.65-.26s1.93-.31,2.89-.46,1.89-.45,2.83-.73l1.7-.58c.56-.2,1.1-.47,1.65-.71a22.07,22.07,0,0,0,2.41-1.26c.79-.46,1.51-1,2.23-1.54.52-.47,1-.94,1.52-1.42s.88-1.06,1.33-1.57a6.51,6.51,0,0,0,.55-.72c.69-.88,1-1.08,1.54-1a3.27,3.27,0,0,1,.35.05c.35.1.3.65-.12,1.44a16.27,16.27,0,0,1-5.71,5.9c-.87.57-1.81,1-2.73,1.52s-1.9.87-2.9,1.17Z"/><path class="cls-1" d="M345.37,178.2a33.13,33.13,0,0,1-3.74-1.56c-.45-.21-.88-.43-1.31-.67a19.79,19.79,0,0,1-4-3.26c-.53-.55-1-1.12-1.52-1.7a10.91,10.91,0,0,1-1.6-2.38c-.26-.55,1.15-.57,1.81.26a38.39,38.39,0,0,0,3.7,4.06,6.84,6.84,0,0,0,1.35,1,14.48,14.48,0,0,0,1.49.83,20.62,20.62,0,0,0,3.49,1.47c.73.28,1.51.4,2.27.61.57.15,1.17.2,1.76.31a11.8,11.8,0,0,0,1.77.18,15.63,15.63,0,0,0,2.74-.15l.6-.05c.75,0,1,.15,1.17.64a3.4,3.4,0,0,1,.12.34c.08.37-.22.69-.79.84a13.55,13.55,0,0,1-5.32.17l-2-.37-2-.55Z"/><path class="cls-1" d="M365,192.17c-.31.1-4.19,3.21-1.45,5.52s6.17.72,6.77-1.37S367.53,191.31,365,192.17Z"/><path class="cls-1" d="M372.24,126.79s4-4,10.77-.33,6.39,12,6.48,15.08a8,8,0,0,1-3.05,6.76s-8.64-16.38-11.85-19.3S372.24,126.79,372.24,126.79Z"/><path class="cls-1" d="M323.93,459.31l-67.48-.26c-8.21,0-16.41,0-24.61,0q-43.38-.18-86.74-.4c-12.83,0-25.73,0-38.46.05-16.36.07-32.78.29-49.13,0-10.19-.19,2.73-3,21.58-3.08,33.41-.07,66.79,0,100.47.42,20.13.23,41.1.1,61.7.14l68,.2q20.92.06,41.83.11c21.12,0,42.33.12,63.29.06,16.29,0,32.27-.25,48.37-.39,3.55,0,7-.09,10.59-.11,13.26-.05,17.48.14,20.33.92a17.62,17.62,0,0,1,1.88.54c1.27.6-4.13,1.11-13.84,1.29-28.79.54-59.16.64-89.64.66-22.64,0-45.39,0-68.09-.07A.25.25,0,0,0,323.93,459.31Z"/><path class="cls-1" d="M255.42,353.87a24.65,24.65,0,0,1-9.26,2.07h-.88l-.88,0a11.42,11.42,0,0,1-1.75-.19,19,19,0,0,1-10.43-6,35.75,35.75,0,0,1-3.33-4.08,22.56,22.56,0,0,1-3.09-5.89c-.22-.65.13-.71.73-.36a7.78,7.78,0,0,1,2.15,2.09c1.25,1.76,2.45,3.52,3.82,5.12a27.68,27.68,0,0,0,4.58,4.28,13.91,13.91,0,0,0,7.11,2.55,19.8,19.8,0,0,0,8.44-1.14,31.48,31.48,0,0,0,4.9-2.27,39.46,39.46,0,0,0,6.72-4.83,56.12,56.12,0,0,0,4.44-4.56c.31-.35.62-.69.95-1a7.51,7.51,0,0,1,1.38-1.25,2,2,0,0,1,1-.24c.14,0,.29,0,.4,0s.19.25.11.6a4.12,4.12,0,0,1-.65,1.41,36.44,36.44,0,0,1-8.35,8.87,40.15,40.15,0,0,1-8.06,4.9Z"/><path class="cls-1" d="M218,348c-.87.63-1.76,1.27-2.63,1.93-.32.24-.59.53-.91.78-1.13.85-2.24,1.73-3.31,2.65-.47.42-.91.88-1.34,1.32a9.78,9.78,0,0,1-1.75,1.65c-.22.14-.47-.13-.6-.54a1.63,1.63,0,0,1,.11-1.36,16.17,16.17,0,0,1,1.61-1.9,18.84,18.84,0,0,1,1.91-1.63c.82-.59,1.49-1.39,2.26-2.07s1.7-1.47,2.61-2.14l1.68-1.24c.85-.63,1.74-1.21,2.61-1.8.68-.46,1.3-1,2-1.43.17-.08.32-.18.5-.26a1.16,1.16,0,0,1,.78-.07.82.82,0,0,1,.45.31c.05.08.12.15.16.22.14.24,0,.59-.33,1a11.79,11.79,0,0,1-1.53,1.39c-.27.24-.54.46-.82.67a9.14,9.14,0,0,1-.84.67c-.86.62-1.75,1.24-2.6,1.92Z"/><path class="cls-1" d="M326.79,404.91a181.09,181.09,0,0,0-8-20.27c-1.1-2.42-2.4-4.73-3.61-7.08q-3.29-6.19-7.12-12.05a104.3,104.3,0,0,0-8.58-11.05,61.93,61.93,0,0,0-22.89-16c-1.5-.66-1.23-.88.23-.77.72.05,1.75.17,3,.37a22.17,22.17,0,0,1,4.05,1.39l3.69,2,3.51,2.29c1.12.83,2.2,1.71,3.3,2.57s2.09,1.84,3.13,2.77a82,82,0,0,1,10.82,12.64A150.23,150.23,0,0,1,319,379a178.39,178.39,0,0,1,8.86,20.44c1.53,4.31,3,8.64,4.22,13,1.92,6.65,3.48,13.42,4.74,20.17,1,5.25,1.84,10.42,2.29,15.71.11,1.17.18,2.31.25,3.49,0,4.39-.36,5.8-1.13,6.67-.16.21-.31.47-.42.59-.34.38-.92-1.42-1.07-4.51a184.44,184.44,0,0,0-4.13-28.5,200.44,200.44,0,0,0-5.83-21.17Z"/><path class="cls-1" d="M267.49,361.21c-15.9-.93-31.9-1.12-47.86-1-5.83.06-11.65.26-17.47.45-5.2.16-10.39.38-15.57.73-2.59.18-5.18.38-7.73.68-1.28.14-2.55.31-3.79.54-.61.12-1.22.25-1.76.41-.19.07-.53.15-.47.43l-.11,1.57c0,.61,0,1.25-.07,1.87,0,1.26-.08,2.51-.07,3.78,0,2.52,0,5.05,0,7.58.05,5.06.16,10.12.3,15.18.25,9.12.68,18.28,1.15,27.32l1,17.43c.39,5.81.62,11.63,1,17.42.21,3.6-.35,3.18-1.18.17a85.7,85.7,0,0,1-2.45-15.3c-.8-11.88-1.44-23.74-1.87-35.65S169.79,381,170,369l.1-2.95c0-.49,0-1,.08-1.51s.09-1.23.13-1.85a2.74,2.74,0,0,1,.29-.89,2.51,2.51,0,0,1,.7-.64,6.43,6.43,0,0,1,1.63-.65c.84-.22,1.63-.37,2.43-.51,1.6-.26,3.18-.45,4.76-.62,3.17-.33,6.35-.57,9.53-.78,6.37-.41,12.76-.68,19.11-.84,16.13-.39,32.27-.35,48.41.21,5,.19,9.93.43,14.89.79s9.93.8,14.88,1.66a26.65,26.65,0,0,1,5.65,1.52l.36.18a4.68,4.68,0,0,1,.44.27,2.65,2.65,0,0,1,.67.78,7.66,7.66,0,0,1,.59,1.53,25.23,25.23,0,0,1,.59,2.87c.56,3.78.78,7.55,1,11.31.37,7.53.48,15,.55,22.5.09,11.6.14,23,0,34.43-.06,2.53-.1,5-.19,7.54-.17,4.72-.35,7.83-.58,10a23,23,0,0,1-.87,4.42,12.36,12.36,0,0,1-.44,1.31c-.22.44-.34-.31-.43-2s-.16-4.4-.11-7.85c0-20.45.42-42.05-.29-63.64-.15-4-.33-8-.67-12-.17-2-.37-3.95-.68-5.86a20,20,0,0,0-.6-2.65c-.06-.16-.13-.37-.18-.46s0,0,0,0a4.84,4.84,0,0,0-.75-.32A33,33,0,0,0,285.4,363c-1.95-.31-3.93-.55-5.91-.75-4-.41-8-.71-12-.94Z"/><path class="cls-1" d="M230.73,400.46a8,8,0,0,0-2.72,3.18,9.15,9.15,0,0,0-.88,4.22l.06.79c0,.27.13.52.19.77a9.85,9.85,0,0,0,.52,1.5,10.4,10.4,0,0,0,9.29,6,9,9,0,0,0,4.95-1.51,10.28,10.28,0,0,0,3.67-5.3c.22-.64.9-.5,1.42.3a3.81,3.81,0,0,1-.13,3.86,10.62,10.62,0,0,1-3.07,3.26,9.06,9.06,0,0,1-1.95,1.07,11.06,11.06,0,0,1-2.09.67,12.2,12.2,0,0,1-4.34.18,13.18,13.18,0,0,1-2.08-.52l-1-.36-.95-.48a15.14,15.14,0,0,1-4.06-3.08,11.8,11.8,0,0,1-2.59-4.47,11.12,11.12,0,0,1,8.24-14,12.9,12.9,0,0,1,9.76,1.87,12,12,0,0,1,4.7,6.19,10.91,10.91,0,0,1,.45,1.7,5.32,5.32,0,0,1-.05,2.33,1.33,1.33,0,0,1-.8.93,2.27,2.27,0,0,1-.52.21c-.59.08-.84-.75-1-2a11.19,11.19,0,0,0-2.17-5.24,8.82,8.82,0,0,0-4.59-3.13,9.33,9.33,0,0,0-8.18,1.13Z"/><path class="cls-1" d="M314.4,442.83c-1.25.78-2.46,1.63-3.66,2.51-.44.32-.82.7-1.24,1a39.41,39.41,0,0,0-4.33,3.73,14.8,14.8,0,0,0-1.61,1.94c-.61.88-1.06,1.83-1.75,2.64-.22.25-.67,0-1-.5a1.85,1.85,0,0,1-.14-1.84,19.43,19.43,0,0,1,4.65-5.26c1.09-.87,2.06-1.92,3.15-2.82s2.45-1.9,3.72-2.78c.8-.52,1.57-1.06,2.39-1.55.6-.39,1.21-.77,1.85-1.11s1.25-.71,1.88-1.06l1.43-.85c.47-.29.95-.57,1.45-.82l.66-.34c.88-.33,1.21-.28,1.55.15a1.6,1.6,0,0,1,.22.31c.2.36,0,.8-.57,1.13l-4.9,3.12c-1.21.83-2.52,1.54-3.73,2.4Z"/><path class="cls-1" d="M268.38,286.62a25.65,25.65,0,0,0,3.66,2.55,8.77,8.77,0,0,0,1.85.8,2.24,2.24,0,0,0,.74.11c.17,0,.2,0,.27-.08l1.33-1.12c.47-.36,1-.68,1.47-1a10.39,10.39,0,0,1,4.94-1.74,7,7,0,0,1,4.58,1.46,8.67,8.67,0,0,1,2.71,3.73,11.9,11.9,0,0,1,0,8.67,10.78,10.78,0,0,1-2,3.33,12.85,12.85,0,0,1-1.4,1.36,14.08,14.08,0,0,1-1.62,1.06,14.74,14.74,0,0,1-9.43,1.47c-1-.14-.79-.53.05-.9a10,10,0,0,1,1.67-.5c.67-.22,1.45-.28,2.26-.46a10.78,10.78,0,0,0,7.25-3.82,10,10,0,0,0,1.73-7.94,8,8,0,0,0-.88-2.38,7.57,7.57,0,0,0-.72-1,5.8,5.8,0,0,0-.9-.82,5,5,0,0,0-4.61-.65,13.27,13.27,0,0,0-4.78,3,3,3,0,0,1-1.17.63,3.59,3.59,0,0,1-1.16.07,7.17,7.17,0,0,1-1.89-.49,17.06,17.06,0,0,1-3.1-1.69,44.86,44.86,0,0,1-6.23-5.13,66.86,66.86,0,0,1-7.86-9.22,39.54,39.54,0,0,1-4.72-8.09,18.72,18.72,0,0,1-.7-2c-.64-2.61-.31-3.59.3-4.09a2.4,2.4,0,0,1,.44-.33c.51-.16.69.82,1.08,2.45a25.88,25.88,0,0,0,3.21,7.16,56.83,56.83,0,0,0,4.87,6.73c1.34,1.6,2.76,3.13,4.22,4.63a52.14,52.14,0,0,0,4.62,4.19Z"/><path class="cls-1" d="M291.91,252.93a31.25,31.25,0,0,0-2.28-5.16,23.3,23.3,0,0,0-3.33-4.5,13.23,13.23,0,0,0-1.51-1.39l-.79-.64-.83-.59a18.58,18.58,0,0,0-6.54-2.93,20.5,20.5,0,0,0-13.51,1.63,21.19,21.19,0,0,0-3.58,2.11,7.4,7.4,0,0,0-2.55,2.79c-.21.66-.61.71-.88-.2a4.43,4.43,0,0,1,1.71-4,24.6,24.6,0,0,1,8.3-4.14,22.77,22.77,0,0,1,19.7,3.84,22.41,22.41,0,0,1,4.31,4.5,27.08,27.08,0,0,1,3.09,5.34,33.32,33.32,0,0,1,2.22,7.2,36.9,36.9,0,0,1,.33,11.34,35.22,35.22,0,0,1-2,8.52c-.26.6-.46,1.21-.77,1.79-1.18,2.13-1.86,2.63-2.66,2.68a2.53,2.53,0,0,1-.54,0c-.52-.1-.34-1.13.34-2.61a48.1,48.1,0,0,0,2.39-7,35,35,0,0,0,1-7.47,38.32,38.32,0,0,0-.35-5.66,33.85,33.85,0,0,0-1.32-5.52Z"/><path class="cls-1" d="M236.65,279.33a43.53,43.53,0,0,1-6.55,5.11,26.37,26.37,0,0,1-2.58,1.6,39.21,39.21,0,0,1-10,3.65c-1.54.31-3.07.71-4.62.87a16,16,0,0,1-6,.1c-.62-.12-.52-.43,0-.87a9.39,9.39,0,0,1,1-.76,4,4,0,0,1,1.46-.49,104,104,0,0,0,11.37-2.08,33.87,33.87,0,0,0,3.34-1.25l3.18-1.68a40.53,40.53,0,0,0,6.46-4.6,39.14,39.14,0,0,0,3.52-3.42,38.49,38.49,0,0,0,4.42-6l.71-1.24.59-1.3.58-1.29.5-1.33c.15-.38.27-.77.43-1.16.51-1.45.87-1.85,1.44-2a2.09,2.09,0,0,1,.39-.11c.4,0,.5.67.28,1.86a30.74,30.74,0,0,1-4.62,10l-1.21,1.72-1.33,1.63-.66.81-.73.76-1.44,1.53Z"/><path class="cls-1" d="M193.32,254.75c4-4.77,7.08-10.44,10.88-15.74a42.37,42.37,0,0,1,4.6-5.57,24.38,24.38,0,0,1,11.29-6.06,27.39,27.39,0,0,1,12.7.16A29.78,29.78,0,0,1,243,232.22a24.7,24.7,0,0,1,2.79,2.3l1.29,1.29c.4.44.75.94,1.13,1.42s.75,1,1.07,1.45l.9,1.58a16.71,16.71,0,0,1,1.38,3.33c.47,1.41.09,1.31-.8.36-.46-.47-1-1.17-1.69-1.95a15.25,15.25,0,0,1-1.09-1.25c-.37-.45-.7-1-1.15-1.42a28.31,28.31,0,0,0-10.58-8.05A27,27,0,0,0,223,229.16a19.76,19.76,0,0,0-7.88,2.46l-.93.49c-.3.19-.57.41-.86.61-.56.42-1.15.81-1.7,1.25s-1,.94-1.54,1.44L208.64,237c-4.11,4.78-7.2,10.53-11,15.82a34.18,34.18,0,0,1-8.46,8.72c-.64.44-1.37.76-2,1.15-.37.21-.59.32-.88.5a4.48,4.48,0,0,0-.72.66,7.56,7.56,0,0,0-1.68,3.73,16.19,16.19,0,0,0,1,8.5,18.41,18.41,0,0,0,8.71,9.64,20.82,20.82,0,0,0,2.66,1.13c1.7.6,2.87.9,3.68,1.16a4.89,4.89,0,0,1,1.65.77,3.12,3.12,0,0,1,.5.4c.16.2-.14.34-.86.4a11.85,11.85,0,0,1-3.26-.21,20.08,20.08,0,0,1-11.37-6.52,20.39,20.39,0,0,1-5-12.73,13.13,13.13,0,0,1,.92-5.33,7.61,7.61,0,0,1,1.56-2.48,6.53,6.53,0,0,1,1.19-1l1.19-.67a22.63,22.63,0,0,0,6.9-5.87Z"/><path class="cls-1" d="M212.55,247.86a16.22,16.22,0,0,1,6.08-5.73,19.11,19.11,0,0,1,2.73-1.33,20.46,20.46,0,0,1,10.42-.84,18.62,18.62,0,0,1,4.46,1.32,11.82,11.82,0,0,1,4.76,3.5c.4.48.07.63-.53.53a4.73,4.73,0,0,1-1.07-.35,7,7,0,0,1-1.26-.66,16.24,16.24,0,0,0-4.94-2.15,20.61,20.61,0,0,0-5.45-.68,17.38,17.38,0,0,0-6.6,1.63,15.05,15.05,0,0,0-6,4.43,16.07,16.07,0,0,0-2.35,4,62.81,62.81,0,0,0-2.29,6.95,27.6,27.6,0,0,1-2,5.36,6.62,6.62,0,0,1-.64,1.09l-.6.81c-.18.2-.34.36-.48.49a2.11,2.11,0,0,1-.62.44,1.07,1.07,0,0,1-.23.1c-.18,0,.12-.54.69-1.49a22.35,22.35,0,0,0,1.72-4.68l1.23-5.09c.32-1.29.68-2.61,1.13-3.91.26-.65.49-1.3.81-1.93a16.17,16.17,0,0,1,1-1.88Z"/><path class="cls-1" d="M262.79,268.78a34.4,34.4,0,0,1-1.42-3.25c-.16-.4-.33-.79-.46-1.2a27.15,27.15,0,0,1-1-4.41c-.12-.65-.2-1.32-.3-2-.05-.42-.09-.85-.14-1.27a7.83,7.83,0,0,1,0-1.28c.06-.52,1,.16,1.09,1.06.17,1.65.46,3.26.79,4.9a15.56,15.56,0,0,0,1,2.9,32.9,32.9,0,0,0,1.44,3.07c.33.61.67,1.22,1,1.8a28.13,28.13,0,0,0,1.84,2.59c.53.63,1.16,1.14,1.72,1.71l.38.37c.46.47.53.7.37,1.08a1.36,1.36,0,0,1-.11.25c-.15.25-.51.23-1,0a9.82,9.82,0,0,1-1.87-1.42,17,17,0,0,1-1.56-1.82,21.24,21.24,0,0,1-1.89-3.05Z"/><path class="cls-1" d="M248,343.37a17.85,17.85,0,0,1-9-1,27.26,27.26,0,0,1-7.64-4.52,38.17,38.17,0,0,1-4.62-4.36,67.13,67.13,0,0,1-11.32-18.81,91.34,91.34,0,0,1-3.28-9.14,45.82,45.82,0,0,1-1.46-6,32.43,32.43,0,0,1-.5-6.22c0-1.3.41-1.11.88-.06a32.89,32.89,0,0,1,1.59,5.17,89.17,89.17,0,0,0,8.55,23,50.53,50.53,0,0,0,9,12,31.68,31.68,0,0,0,6.44,5,17.82,17.82,0,0,0,7.57,2.45,15.29,15.29,0,0,0,2.44,0c.83-.1,1.66-.25,2.49-.37a17.14,17.14,0,0,0,2.45-.59c.4-.12.81-.21,1.2-.35l1.16-.49a26.15,26.15,0,0,0,11.58-9.71,49.29,49.29,0,0,0,5.21-10.64c.32-.82.56-1.64.87-2.47,1.09-3.09,1.65-4,2.57-4.44a2.84,2.84,0,0,1,.63-.28c.62-.12.65,1.31,0,3.68a60.44,60.44,0,0,1-4,10.53,38.31,38.31,0,0,1-6.78,9.73,28.53,28.53,0,0,1-7.3,5.37c-.67.36-1.4.61-2.09.91l-1.06.44-1.1.31c-.73.19-1.46.42-2.2.59l-2.23.35Z"/><path class="cls-1" d="M221.65,294c3.9,1.26,8.84,1.93,12.86.93a1.13,1.13,0,0,0-.6-2.17c-3.63.9-8.16.2-11.66-.93-1.38-.45-2,1.73-.6,2.17Z"/><path class="cls-1" d="M224.68,294.82c.12,2-.08,5.58,2.56,6.07,2.92.53,3.85-3.81,3.77-5.89,0-1.44-2.3-1.45-2.25,0a6.47,6.47,0,0,1-.38,2.51,3,3,0,0,1-.49.95c-.18.21-.25.23-.29.21-.41-.17-.49-1.16-.53-1.52-.11-.77-.1-1.56-.14-2.33-.09-1.44-2.34-1.45-2.25,0Z"/><path class="cls-1" d="M244.78,294a29.38,29.38,0,0,0,11.85.41c1.43-.2.82-2.37-.6-2.17a26.53,26.53,0,0,1-10.65-.41,1.13,1.13,0,0,0-.6,2.17Z"/><path class="cls-1" d="M247,295a5,5,0,0,0,.44,3.65,3.12,3.12,0,0,0,3.47,1.37c2.32-.68,2.36-3.66,2.52-5.61.11-1.45-2.14-1.44-2.25,0-.08.88.05,2.69-.71,3.33-1.17,1-1.44-1.51-1.3-2.15.31-1.41-1.86-2-2.17-.59Z"/><path class="cls-1" d="M225.89,314.6a6.23,6.23,0,0,1-.49-3.87,13.48,13.48,0,0,1,.94-3.26c.3-.73.56-1.44.9-2.13,1.16-2.4,2.49-4.7,3.73-7,.56-1,1.07-2.09,1.57-3.15a19.91,19.91,0,0,1,2.24-3.92c.3-.39.56-.14.7.39a3.69,3.69,0,0,1-.12,2.15c-.53,1.42-1.24,2.76-1.9,4.13s-1.38,2.71-2.14,4.05c-.9,1.59-1.59,3.38-2.35,5.07-.21.46-.41.92-.59,1.38a10.73,10.73,0,0,0-.46,1.35,7.4,7.4,0,0,0-.29,2.72,2.43,2.43,0,0,0,.5,1.31,1.58,1.58,0,0,0,.53.45,2.67,2.67,0,0,0,.71.37,7.37,7.37,0,0,0,5.13-.36,27.08,27.08,0,0,0,3.84-2,6.42,6.42,0,0,1,.85-.48c1.13-.51,1.61-.49,2.08,0a3.38,3.38,0,0,1,.31.35c.26.43,0,.95-.74,1.47a20.37,20.37,0,0,1-3.49,2.08,17.43,17.43,0,0,1-4.25,1.45,8.68,8.68,0,0,1-3.76,0,6.29,6.29,0,0,1-1.89-.8,4.29,4.29,0,0,1-1.61-1.66Z"/><path class="cls-1" d="M241.14,328.34c3.35,1.33,6.84-1,9.4-2.94,1.14-.87,0-2.82-1.13-1.94-2.08,1.59-4.93,3.8-7.67,2.71-1.35-.54-1.93,1.64-.6,2.17Z"/><path class="cls-1" d="M247.07,278.36c2.06-1.82,5.09-3.09,7.71-1.61,1.82,1,3.46-1.78,1.64-2.81-4-2.23-8.46-.69-11.65,2.12-1.57,1.39.73,3.68,2.3,2.3Z"/><path class="cls-1" d="M335.54,242.45a21.1,21.1,0,0,0,9.84.21c.59-.15,1.18-.3,1.76-.48l1.72-.62a27,27,0,0,0,5.75-3.07,28.36,28.36,0,0,0,5-4.3,30.81,30.81,0,0,0,3.6-4.68c1.32-2.14,2.46-4.4,3.62-6.65.38-.7.7-.46.79.31a6.81,6.81,0,0,1-.69,3.48,37,37,0,0,1-4.18,6.89,30.69,30.69,0,0,1-5.73,5.77,32.69,32.69,0,0,1-8.73,4.87,23.22,23.22,0,0,1-5.41,1.17,22.66,22.66,0,0,1-5.52-.09,23.32,23.32,0,0,1-6.52-1.86,28.19,28.19,0,0,1-8.31-5.82,41.19,41.19,0,0,1-5-5.92c-.32-.47-.62-.95-.91-1.44-1.06-1.86-1.12-2.59-.73-3.27a2.86,2.86,0,0,1,.28-.45c.39-.39,1.15.19,1.94,1.43,1.27,1.8,2.49,3.65,3.95,5.34a35.16,35.16,0,0,0,4.75,4.7,23.06,23.06,0,0,0,8.78,4.42Z"/><path class="cls-1" d="M369.33,164.39a7.56,7.56,0,0,0-2.42-1.15,5.36,5.36,0,0,0-1.24-.17,7.12,7.12,0,0,0-1.31.17,5,5,0,0,0-2.32,1.14,7,7,0,0,0-1.7,2.17,15,15,0,0,0-1.33,4.14,21.92,21.92,0,0,0-.37,2.56c0,.43-.06.86-.09,1.3s0,.74,0,1.62c-.08.35,0,.73-.35,1a2.43,2.43,0,0,1-1,.48l-.57.13-.41.07-.74.08a21.94,21.94,0,0,1-2.92.06,29.6,29.6,0,0,1-5.71-.77,26.26,26.26,0,0,1-7-2.71,16.66,16.66,0,0,1-6.77-6.87c-.43-.92,0-1,.79-.47a20.33,20.33,0,0,1,3.07,2.66c4.19,4.31,10.49,6.14,16.64,6.26a15.62,15.62,0,0,0,2.17-.11l.49-.08.17,0a.36.36,0,0,0,.17-.07s0-.12,0-.17a.75.75,0,0,1,0-.15V175l0-.93c0-.62.06-1.24.1-1.86a23.58,23.58,0,0,1,.63-3.71,11.45,11.45,0,0,1,3.59-6,7.9,7.9,0,0,1,7-1.39,10.76,10.76,0,0,1,3.8,2.09,12.2,12.2,0,0,1,2.8,3.26,14.6,14.6,0,0,1,1.58,6.19,30,30,0,0,1-.24,6.22,26,26,0,0,1-1.07,4.72,11.68,11.68,0,0,1-2.51,4.38,6.75,6.75,0,0,1-1.94,1.45,4.89,4.89,0,0,1-3.2.49,2.33,2.33,0,0,1-.79-.35,1.5,1.5,0,0,1-.43-.55,2.06,2.06,0,0,1-.24-.56c-.05-.3.22-.5.65-.62s1.06-.22,1.75-.4c2-.53,3.33-2.63,4.2-5a24.78,24.78,0,0,0,1.29-7.9,18.07,18.07,0,0,0-.79-5.79,9.24,9.24,0,0,0-3.43-4.2Z"/><path class="cls-1" d="M319.15,179.58a44.48,44.48,0,0,1-7.55,1.29c-.92.07-1.84.2-2.76.2a41.83,41.83,0,0,1-9.68-1c-1.4-.3-2.8-.68-4.16-1.1a17.15,17.15,0,0,1-5-2.28c-.48-.33-.2-.64.42-.78a4.67,4.67,0,0,1,2.46.23,51.71,51.71,0,0,0,10.26,2.56,29.42,29.42,0,0,0,6.57.06,42.35,42.35,0,0,0,7.16-1.13,33,33,0,0,0,4.26-1.36A23.46,23.46,0,0,0,327,173a16.39,16.39,0,0,0,3.43-3.69l.58-.91c.76-1.11,1.08-1.41,1.82-1.39a3.85,3.85,0,0,1,.49,0c.51.08.63.81.24,1.92a16.06,16.06,0,0,1-7.14,7.66,31.57,31.57,0,0,1-7.25,3Z"/><path class="cls-1" d="M282.61,140.55a26.65,26.65,0,0,0-13.07,14.51,32,32,0,0,0-1.78,7.15,28.7,28.7,0,0,0,1.17,12.88,29.2,29.2,0,0,0,6.85,11.09,16.85,16.85,0,0,0,10.16,4.92,22.79,22.79,0,0,0,7.39-.55,48.69,48.69,0,0,0,7.25-2.28c1.48-.56,1.47-.11.4.84a13.3,13.3,0,0,1-2.38,1.68,12.85,12.85,0,0,1-1.74.89,14.83,14.83,0,0,1-2.07.78,25.52,25.52,0,0,1-8.25,1.19c-.72-.05-1.43-.13-2.14-.2s-1.42-.29-2.12-.45-1.36-.48-2-.72-1.29-.64-1.94-1a23.69,23.69,0,0,1-6.4-5.53,33.53,33.53,0,0,1-4.41-7,32.51,32.51,0,0,1-2-19.9,34,34,0,0,1,4.22-10.25,27.4,27.4,0,0,1,7.58-8.07,15.4,15.4,0,0,1,1.41-1l1.5-.83a16.82,16.82,0,0,1,1.52-.79l1.59-.63c.53-.19,1.06-.44,1.59-.6l1.63-.44a29.85,29.85,0,0,1,3.26-.81l2.51-.44c.84-.15,1.7-.15,2.55-.24a37.88,37.88,0,0,1,5.11,0,49.72,49.72,0,0,1,9.92,1.91c5,1.43,9.72,3.16,14.6,3.89,1.07.22,2.12.22,3.2.34,4,.21,5.28,0,6.25.62a4.29,4.29,0,0,1,.66.38c.24.23-.05.49-.8.76a10.79,10.79,0,0,1-1.45.41c-.3.07-.62.15-1,.2l-1.12.08a38.72,38.72,0,0,1-14.17-2.06c-4.57-1.38-9-2.92-13.54-3.55a36.12,36.12,0,0,0-10.12.09l-2.52.46c-.84.16-1.65.44-2.48.66l-1.24.35-.62.18-.58.23-2.31.93Z"/><path class="cls-1" d="M387,156.13a55.64,55.64,0,0,0-8.18-20,47.57,47.57,0,0,0-5-6.16,23.77,23.77,0,0,0-11.46-7.26,32.11,32.11,0,0,0-13.84-.73,38,38,0,0,0-11.8,3.91,30.62,30.62,0,0,0-6.51,4.51,25.94,25.94,0,0,0-2.71,2.84,16.9,16.9,0,0,0-2.05,3.31c-.58,1.48-.85,1.26-.73-.25A10.09,10.09,0,0,1,325,135a13,13,0,0,1,.64-1.64,13.84,13.84,0,0,1,2.56-3.61,35.74,35.74,0,0,1,14.73-8.45,36.53,36.53,0,0,1,17-1.21,29.45,29.45,0,0,1,9.83,3.63l1.14.7c.37.25.72.53,1.08.79a24.06,24.06,0,0,1,2.06,1.72,47.75,47.75,0,0,1,3.6,3.8,54.77,54.77,0,0,1,10.68,20.05,71.05,71.05,0,0,1,2.62,13.74,84,84,0,0,1-.75,21.08c-.21,1.35-.48,2.68-.78,4-.15.66-.32,1.33-.51,2a12.31,12.31,0,0,1-.8,2.07,22.69,22.69,0,0,1-2.42,3.44,10.1,10.1,0,0,1-1.64,1.54,4.44,4.44,0,0,1-2.52.92,3.9,3.9,0,0,1-2.38-.78,7.12,7.12,0,0,1-1.51-1.49,13.17,13.17,0,0,1-1.51-2.55,14,14,0,0,1-.7-1.81,4.44,4.44,0,0,1-.24-2.19,4.12,4.12,0,0,1,.15-.75c.29-.61,1.38.91,3.07,3.53a15.84,15.84,0,0,0,2,2.54,2.19,2.19,0,0,0,.89.57.83.83,0,0,0,.59-.1,6.69,6.69,0,0,0,2-1.89c.34-.43.66-.9,1-1.38l.48-.73.22-.34a1.51,1.51,0,0,1,.11-.22,21.16,21.16,0,0,0,1-3.19c.28-1.15.53-2.33.73-3.53.41-2.39.71-4.83.89-7.28a77,77,0,0,0-1.31-21.84Z"/><path class="cls-1" d="M299.36,201.5c.24,3.2,2.93,11.06,7.42,7.7,3.55-2.65,4.27-9.15,4.71-13.19.16-1.44-2.09-1.42-2.25,0a27.76,27.76,0,0,1-2.44,9.5c-.77,1.52-1.94,3.07-3.38,1.25a10.38,10.38,0,0,1-1.81-5.26c-.11-1.43-2.36-1.44-2.25,0Z"/><path class="cls-1" d="M313.84,195.89c.39,3.5,2.58,10.71,7.55,8.8,3.71-1.43,5.47-6.92,6.31-10.4.34-1.41-1.83-2-2.17-.6-.65,2.69-1.68,5.75-3.57,7.83-3.41,3.73-5.57-2.94-5.87-5.63-.16-1.42-2.41-1.44-2.25,0Z"/><path class="cls-1" d="M324.76,228.62a3,3,0,0,0,3,3,1.12,1.12,0,0,0,1-.56,3.06,3.06,0,0,0,.25-2.18,3,3,0,0,0-1.39-1.58,1.13,1.13,0,0,0-1.13,2,1.29,1.29,0,0,1,.3.21l0,0,0,.07c0-.07,0-.05,0,.07,0-.11,0-.09,0,.05,0-.17-.06.24-.06.23l1-.55a1.06,1.06,0,0,1-.38-.07c-.17-.07.11.06,0,0s.15.16-.08-.07a1,1,0,0,1-.22-.54,1.15,1.15,0,0,0-1.12-1.12,1.13,1.13,0,0,0-1.13,1.12Z"/><path class="cls-1" d="M366.74,199.57a6,6,0,0,1-3.91-.93,4.33,4.33,0,0,1-1.14-1.12,4.58,4.58,0,0,1-.64-2.57,5.24,5.24,0,0,1,.67-2.37,4.57,4.57,0,0,1,1.54-1.68l.34-.2.39-.13a2.44,2.44,0,0,1,.81-.11,2.22,2.22,0,0,1,1.41.55c.24.2-.11.6-.52,1-.2.18-.41.37-.58.5s-.28.28-.37.25a1.2,1.2,0,0,0-.75.44,4.35,4.35,0,0,0-.8,1.41,2.05,2.05,0,0,0,.46,1.9,3,3,0,0,0,2.19.94,5.34,5.34,0,0,0,1.72-.21,4.77,4.77,0,0,0,2.27-1.3,1.59,1.59,0,0,0,.32-1.53c0-.1-.09-.2-.15-.3a.88.88,0,0,1,0-1,2.1,2.1,0,0,1,.13-.26c.15-.25.54-.28,1,.09a2.8,2.8,0,0,1,.94,2.82,4.59,4.59,0,0,1-1.65,2.45,7.18,7.18,0,0,1-3.64,1.42Z"/><path class="cls-1" d="M307.58,222.14a11,11,0,0,0-.13,4.45,3.48,3.48,0,0,0,.62,1.23,2.64,2.64,0,0,0,2.13,1,5.83,5.83,0,0,0,2.71-.93,12.1,12.1,0,0,0,2.16-1.69c.85-.83,1.6-1.74,2.44-2.59.26-.26.48-.05.53.4a2.39,2.39,0,0,1-.53,1.69,18.14,18.14,0,0,1-2.74,2.73,9,9,0,0,1-3.64,1.83,4.6,4.6,0,0,1-4.92-1.88,8.48,8.48,0,0,1-.79-5.41,27.19,27.19,0,0,1,.6-3.14c.38-1.55.92-3.05,1.43-4.54.41-1.16.73-2.32,1.21-3.46a4.53,4.53,0,0,1,.38-.72c.56-.85.9-1.05,1.36-1a1.46,1.46,0,0,1,.31,0c.29.11.29.56.13,1.25a50.52,50.52,0,0,1-2,6.12,31.71,31.71,0,0,0-1.25,4.63Z"/><path class="cls-1" d="M387.7,133.81a14.54,14.54,0,0,0-2.48-4.25,15.35,15.35,0,0,0-1.3-1.25,12.73,12.73,0,0,0-2.6-1.81,11.35,11.35,0,0,0-3-1,9.14,9.14,0,0,0-2.86,0,35.71,35.71,0,0,0-3.57,1c-.38.09-.51-.28-.35-.77a2.27,2.27,0,0,1,1.39-1.38,11.17,11.17,0,0,1,8.44.23,16.8,16.8,0,0,1,4.38,2.79,16.21,16.21,0,0,1,3.3,4.56,18.68,18.68,0,0,1,1.19,3.23,17,17,0,0,1,.47,5.17,12.65,12.65,0,0,1-.77,4,4,4,0,0,1-.38.81,6.89,6.89,0,0,1-.4.6,1.92,1.92,0,0,1-.41.3,1.07,1.07,0,0,1-.66.16,2,2,0,0,1-.27,0c-.25-.07-.2-.58-.05-1.31a19.9,19.9,0,0,0,.72-3.08,15.84,15.84,0,0,0,.22-3.17,15.14,15.14,0,0,0-1-4.75Z"/><path class="cls-1" d="M440.41,166.26c-2.58-3.65-6.47-6.86-8.91-11.58a19.66,19.66,0,0,1-1.42-3.66,15.4,15.4,0,0,1-.6-3.94,34.91,34.91,0,0,1,1-7.45,28.25,28.25,0,0,0,.51-5l0-2.52c0-.84-.14-1.68-.19-2.52,0-.36-.05-.74-.1-1.1l-.19-1.1c-.14-.73-.22-1.47-.4-2.18a33.1,33.1,0,0,0-1.27-4.26A34.91,34.91,0,0,0,427,116.9a30.2,30.2,0,0,0-2.41-3.71,23.3,23.3,0,0,0-6.46-6,22.46,22.46,0,0,0-8.23-3.21l-1-.19c-.32-.07-.66-.06-1-.1l-2-.14a16.53,16.53,0,0,0-2,.05c-.67,0-1.34,0-2,.11a25.65,25.65,0,0,0-7.65,2,21.43,21.43,0,0,0-4.32,2.57,24.45,24.45,0,0,0-3.59,3.53,25.68,25.68,0,0,0-4.6,9c-.58,2.06-.71,1.77-.58-.1a13.93,13.93,0,0,1,.2-1.68l.18-1c.07-.36.18-.73.28-1.13a18.2,18.2,0,0,1,2.19-5.22,18.43,18.43,0,0,1,3.63-4.34,22.38,22.38,0,0,1,4.68-3.22,26.8,26.8,0,0,1,10.82-2.9,26.23,26.23,0,0,1,20.71,7.38A33,33,0,0,1,431.25,120a38,38,0,0,1,2.53,13.38,33,33,0,0,1-.67,7.45,25.25,25.25,0,0,0-.68,6.84,16.54,16.54,0,0,0,2.06,6.34,35.36,35.36,0,0,0,4.22,5.57,42,42,0,0,1,5.56,7.25,16.06,16.06,0,0,1,2.08,9.14,14.65,14.65,0,0,1-2.41,6.75,17.17,17.17,0,0,1-5.1,4.91,23.17,23.17,0,0,1-13.36,3.46,31.16,31.16,0,0,1-10.36-2.35,28.57,28.57,0,0,1-4.76-2.45,23.61,23.61,0,0,1-4.15-3.46,23.19,23.19,0,0,1-2.91-3.78,19.38,19.38,0,0,1-2.43-5.76,5.31,5.31,0,0,1-.07-2.82,4.7,4.7,0,0,1,.28-.91c.21-.33.58,0,1.06.94s1.13,2.34,2,4.12a24.17,24.17,0,0,0,5.09,7,23.48,23.48,0,0,0,7.47,4.56A40.87,40.87,0,0,0,421,187.6a23.57,23.57,0,0,0,4.4.63,20.7,20.7,0,0,0,8.68-1.4,17.64,17.64,0,0,0,5.46-3.4,12.61,12.61,0,0,0,3.35-5.2,11.25,11.25,0,0,0,.23-6.12,15.76,15.76,0,0,0-2.78-5.8Z"/><path class="cls-1" d="M393.6,229.71c-.61-.26-1.22-.48-1.83-.68l-.92-.27-.43-.1-.13,0s0,0,0,0a2.55,2.55,0,0,0-.31,0l-.37.06-.74.11a11,11,0,0,0-1.48.36,24.63,24.63,0,0,0-2.93,1,36.09,36.09,0,0,0-3.32,1.73,44,44,0,0,0-10.47,8.25c-.67.73-1.31,1.5-1.94,2.27s-1.21,1.58-1.71,2.43a36.5,36.5,0,0,0-3.37,6.73c-.31.72-.69.54-.9-.24a5.85,5.85,0,0,1-.13-1.57,7.28,7.28,0,0,1,.53-2.06,34.64,34.64,0,0,1,10-12.81,52.87,52.87,0,0,1,8.17-5.73,25.51,25.51,0,0,1,8.81-2.92,6.62,6.62,0,0,1,.68.06l.48.11.93.24a30.57,30.57,0,0,1,14.15,9.14l.67.73c.21.25.4.53.6.79l1.19,1.56,1.05,1.67c.17.29.35.56.51.85l.42.89c.25.52.52,1,.76,1.57.73,2,.72,2.77.25,3.36a2.27,2.27,0,0,1-.33.4c-.42.3-1.07-.4-1.65-1.75-.38-1-1-2-1.47-2.95a12.77,12.77,0,0,0-.86-1.42c-.31-.47-.58-.95-.9-1.4a34,34,0,0,0-4.43-5,28.4,28.4,0,0,0-8.55-5.32Z"/><path class="cls-1" d="M372.6,262.31a22.65,22.65,0,0,0-2-2c-.26-.22-.55-.42-.82-.63a14.74,14.74,0,0,0-3-2.05,7,7,0,0,0-1.54-.52c-.34-.06-.68-.1-1-.17a3.39,3.39,0,0,1-1-.28c-.2-.1-.13-.58.12-1s.69-.88,1.15-.83a9.7,9.7,0,0,1,4.48,1.72c.78.56,1.68,1,2.46,1.54a20.41,20.41,0,0,1,2.36,2.08c.46.45.87.94,1.31,1.4l1.87,2.18c.48.55,1.09,1,1.53,1.57.1.13.21.24.3.38.32.5.32.74,0,1.12a1.73,1.73,0,0,1-.21.25c-.24.26-.63.24-1,0l-.86-.54a3.4,3.4,0,0,1-.78-.61c-.48-.44-.92-.93-1.36-1.41-.63-.72-1.27-1.45-1.94-2.13Z"/><path class="cls-1" d="M410.41,384.88c-1-9.85-2.57-19.66-4.53-29.39-.35-1.78-.78-3.54-1.17-5.31s-.81-3.52-1.22-5.29A381.65,381.65,0,0,0,393.17,308c-1.77-5.39-3.76-10.74-5.83-16-2.69-6.71-5.56-13.4-8.7-19.86-1-2-.57-1.94.76-.47a39.07,39.07,0,0,1,5.08,8.27,279.09,279.09,0,0,1,15.57,41.86c2.44,8.61,5,17.57,7.06,26.5,2.21,9.83,4,19.76,5.31,29.75.38,3.08.79,6.16,1.05,9.25l.45,4.63.33,4.63a254.15,254.15,0,0,1,.28,28.14l-.27,5.41c-.14,1.8-.29,3.58-.43,5.37l-.22,2.68-.33,2.67c-.23,1.77-.4,3.56-.69,5.34-.26,1.56-.53,3.09-.8,4.66-.14.73-.26,1.39-.38,2s-.3,1.15-.44,1.65c-.29,1-.54,1.78-.78,2.43a7,7,0,0,1-1.38,2.52,4.93,4.93,0,0,1-.65.69c-.64.41-.52-2,.22-6.23A235.6,235.6,0,0,0,412,414.78a260.14,260.14,0,0,0-1.62-29.88Z"/><path class="cls-1" d="M487.29,313a114.87,114.87,0,0,0-15.17-20.65c-1-1.17-2.13-2.3-3.24-3.41s-2.22-2.2-3.33-3.31a172.28,172.28,0,0,0-25.85-20.82c-4.13-2.67-8.41-5.17-12.72-7.48-5.55-2.94-11.31-5.48-17-8.25-1.79-.82-1.46-1,.21-.64.83.15,2,.46,3.42.74.72.16,1.49.34,2.29.59s1.61.57,2.46.91a148.53,148.53,0,0,1,17.43,8.74,156.21,156.21,0,0,1,16.1,11.12A202.17,202.17,0,0,1,470,286.31a134.42,134.42,0,0,1,16.73,20.42,79.63,79.63,0,0,1,7.58,14.46c.35,1,.74,1.94,1,2.94l.45,1.5.36,1.52c.28,1,.38,2.07.56,3.1a27.87,27.87,0,0,1,.16,3.16,37.57,37.57,0,0,1-2.28,12.2,88.8,88.8,0,0,1-8.4,16.87c-.73,1.17-1.45,2.3-2.22,3.45a41.24,41.24,0,0,1-3.23,4.37,11.63,11.63,0,0,1-1,1.05,6.59,6.59,0,0,1-.88.58c-.24.14-.52.35-.69.42-.5.26.11-1.84,2-5.1,2.79-4.82,5.82-9.6,8.4-14.64s4.7-10.36,5.32-15.86l.16-1.53c0-.5,0-1,0-1.52a21.67,21.67,0,0,0-.14-3,34.93,34.93,0,0,0-1.39-6,60.24,60.24,0,0,0-5.24-11.6Z"/><path class="cls-1" d="M470.56,328c-.85-1.39-1.74-2.77-2.71-4.09-.34-.49-.75-.92-1.11-1.39a44.5,44.5,0,0,0-4.09-4.8,20.24,20.24,0,0,0-2.1-1.83l-1.45-1c-.48-.34-1-.65-1.43-1-.29-.25-.08-.51.36-.64a2.47,2.47,0,0,1,1.78.26,24.91,24.91,0,0,1,5.76,4.92c1,1.15,2.1,2.25,3.09,3.43s2.08,2.67,3,4.06c.59.85,1.17,1.72,1.73,2.59.87,1.31,1.65,2.68,2.49,4,.65,1,1.41,1.95,2,3a5.79,5.79,0,0,1,.42.67c.42.89.41,1.26,0,1.7a2.57,2.57,0,0,1-.28.29c-.33.27-.84.08-1.34-.45a21.4,21.4,0,0,1-2-2.56c-.58-.93-1.14-1.87-1.69-2.83-.84-1.4-1.66-2.83-2.56-4.21Z"/><path class="cls-1" d="M478,340.28l-1.18,4.1c-.15.5-.24,1-.39,1.52-.54,1.76-1.11,3.52-1.68,5.28-.26.78-.48,1.58-.72,2.36a11.42,11.42,0,0,1-1.17,3c-.18.28-.51.08-.74-.33a1.94,1.94,0,0,1-.23-1.53c.62-1.95,1.14-4,1.84-6a38.07,38.07,0,0,0,.9-3.79c.31-1.4.69-2.79,1.06-4.18l.7-2.57c.35-1.31.81-2.58,1.17-3.87.29-1,.49-2,.82-3a3.11,3.11,0,0,1,.22-.65c.36-.77.59-1,1-1l.27,0c.28,0,.38.44.32,1.07a45.29,45.29,0,0,1-1.06,5.51c-.29,1.39-.71,2.75-1.07,4.13Z"/><path class="cls-1" d="M474.72,394.14c-.92-3.74-1.81-7.48-2.83-11.19l-1.5-5.58c-.5-1.85-1.06-3.69-1.59-5.54q-1.19-4.05-2.47-8.05-4.27-14.22-9.57-28.1l-2.47-6.11c-.83-2-1.79-4-2.67-6-1.12-2.57-2.43-5-3.67-7.55s-2.61-4.94-3.87-7.43c-.79-1.55-.32-1.58.79-.51a21.65,21.65,0,0,1,2.06,2.36,23,23,0,0,1,2.4,3.72c2.74,5.09,5.1,10.35,7.32,15.67,1.06,2.68,2.19,5.33,3.17,8.05s2,5.43,2.93,8.16c1.07,3.3,2.24,6.63,3.41,10s2.25,6.76,3.32,10.13c1.11,3.73,2.27,7.45,3.33,11.2s2.12,7.49,3.07,11.26l1.77,7c.58,2.32,1.09,4.67,1.64,7,.4,1.77.84,3.53,1.21,5.31l1.11,5.34c.79,3.54,1.41,7.11,2.09,10.65.57,2.74,1,5.48,1.5,8.2.23,1.37.51,2.72.71,4.09s.41,2.74.57,4.12c.15,1.22.3,2.4.45,3.63a32.39,32.39,0,0,1,.1,4.86,6.15,6.15,0,0,1-.45,2.18,5.38,5.38,0,0,1-.3.66c-.33.45-.82-1.38-1.36-4.65-.26-2.44-.72-4.89-1.13-7.37-.18-1.24-.36-2.49-.53-3.74l-.66-3.77c-.79-5-1.82-10.14-2.79-15.25-1.58-7.57-3.23-15.16-5.15-22.68Z"/><path class="cls-1" d="M433.18,369.28c1.43-.4,2.88-.78,4.3-1.25s2.82-1,4.17-1.71c1-.5,1.92-1.07,2.9-1.57a25.49,25.49,0,0,0,2.51-1.49l2.48-1.56c1.56-1.18,3.14-2.35,4.66-3.59,1.28-1.18,2.53-2.42,3.76-3.64.79-.79,1.44-1.71,2.2-2.53s1.53-1.63,2.35-2.41c.51-.48.67-.24.54.42a8.23,8.23,0,0,1-1.29,2.83c-.68,1-1.43,1.84-2.18,2.73l-2.46,2.5a41.09,41.09,0,0,1-5.35,4.57c-1.08.91-2.34,1.62-3.51,2.47l-1.79,1.25-1.9,1.06-2.09,1.14c-.71.37-1.46.63-2.19,1l-2.2.92c-.75.25-1.52.48-2.28.72a47.85,47.85,0,0,1-5.7,1.39,46.91,46.91,0,0,1-8.85.51,38.33,38.33,0,0,1-6.83-.64c-.5-.12-1-.21-1.49-.34-1.87-.56-2.27-1.36-2.33-2a2,2,0,0,1,0-.48c.1-.47.9-.46,2.17-.35a48.69,48.69,0,0,0,11.54,1.19,41,41,0,0,0,8.85-1.12Z"/><path class="cls-1" d="M383,346.29c-.32-.79-.7-1.56-1-2.36l-.43-1.21c-.07-.22-.14-.38-.21-.64l-.1-.47,0-.39a15,15,0,0,1,.21-2.68c.12-.85.28-1.67.44-2.49.23-1.2.44-2.4.72-3.58,1-4.15,2.14-8.24,3.26-12.34.48-1.83.95-3.66,1.43-5.47.3-1.16.56-2.33.88-3.49s.68-2.3,1-3.44c.23-.71.46-.57.62.12a9.47,9.47,0,0,1,0,3.29c-.45,2.42-1,4.8-1.61,7.19s-1.31,4.73-2,7.1c-.84,2.83-1.46,5.84-2.08,8.78-.34,1.61-.67,3.23-.89,4.83a11.43,11.43,0,0,0-.12,2.29,7.48,7.48,0,0,0,.34,1l.41,1.15a33.73,33.73,0,0,0,2.72,5.36,42.65,42.65,0,0,0,5.67,7.18c1.65,1.72,3.46,3.19,5.19,4.83.38.36.76.71,1.13,1.09,1.35,1.45,1.63,2.07,1.54,2.69a2.33,2.33,0,0,1-.07.41c-.17.37-.88-.06-1.95-1a75.55,75.55,0,0,1-9.54-9.16,40,40,0,0,1-5.64-8.62Z"/><path class="cls-1" d="M396.64,335.48l1.11-2c.13-.24.21-.51.35-.75.48-.85,1-1.69,1.46-2.55a7.75,7.75,0,0,0,.51-1.19,4.21,4.21,0,0,1,.68-1.49c.25-.28,1.67.78,1.44,1.4a13.25,13.25,0,0,1-1.63,3,12.42,12.42,0,0,0-.93,1.86l-1.06,2-.64,1.26c-.31.64-.65,1.27-.9,1.93a14.61,14.61,0,0,0-.43,1.57c0,.11-.05.23-.09.34-.16.41-.31.48-.77.43l-.31,0a.68.68,0,0,1-.55-.71,7.62,7.62,0,0,1,.73-3c.29-.71.66-1.39,1-2.08Z"/><path class="cls-1" d="M159.84,219.58a19.82,19.82,0,0,1-11.68-3,20.17,20.17,0,0,1-3.53-2.64,29.48,29.48,0,0,1-7.48-13.07,58.33,58.33,0,0,1-1.51-6.44c-.25-1.38-.48-2.77-.6-4.17A34.8,34.8,0,0,1,135,186c0-.87.39-.76.81-.05a11.38,11.38,0,0,1,1.2,3.56,63.4,63.4,0,0,0,4.25,15.9,21.71,21.71,0,0,0,6.11,7.77,19,19,0,0,0,2.25,1.53A15.34,15.34,0,0,0,152,216l1.27.5a12.17,12.17,0,0,0,1.32.34c.44.1.88.22,1.33.3l1.36.12.84.07.84,0c.57,0,1.13,0,1.7-.09a21.18,21.18,0,0,0,3.33-.69,31.65,31.65,0,0,0,9.4-4.53,54.91,54.91,0,0,0,6.17-5.2c.45-.39.84-.83,1.27-1.24,1.62-1.52,2.19-1.95,2.9-1.93a1.82,1.82,0,0,1,.47,0c.42.1,0,1-1,2.3a48.86,48.86,0,0,1-5.3,5.5A42.5,42.5,0,0,1,171.4,216a26.41,26.41,0,0,1-11.55,3.68Z"/><path class="cls-1" d="M193.47,197.58a8.43,8.43,0,0,1-.45,3,3.93,3.93,0,0,1-1,1.47,3.39,3.39,0,0,1-1.58.82c-.39.08-.75.11-1.12.16s-.73,0-1.08-.06a10.83,10.83,0,0,1-3.33-1.21,26.1,26.1,0,0,1-2.87-1.79l-2.4-1.71a28.68,28.68,0,0,1-2.95-2.29c-.58-.51.82-.77,2,0,2.09,1.43,4.11,2.89,6.23,4.12a8.09,8.09,0,0,0,4.09,1.16,2.3,2.3,0,0,0,1.75-.59,3.18,3.18,0,0,0,.61-1.92,13.33,13.33,0,0,0-.23-3,44.69,44.69,0,0,0-1.07-4.62c-.36-1.18-.84-2.31-1.23-3.51-.09-.26-.19-.52-.26-.8-.2-1,0-1.46.54-1.72a2,2,0,0,1,.4-.16c.46-.09.83.25,1.11.88a47.14,47.14,0,0,1,2.08,6.37,27.15,27.15,0,0,1,.76,5.38Z"/><path class="cls-1" d="M141.45,150.88a14.71,14.71,0,0,0-1.19-5.42,7.08,7.08,0,0,0-1.48-2.13,7.16,7.16,0,0,0-2.21-1.42,7.51,7.51,0,0,0-3.8-.56c-2.21.31-4,2.13-5,4.34a15.8,15.8,0,0,0-1.09,3.54,18.11,18.11,0,0,0-.26,3.75,10.11,10.11,0,0,0,2.38,6,19.68,19.68,0,0,0,6.88,5c.81.38.59.68-.28.73a7.15,7.15,0,0,1-3.93-1.16,14.36,14.36,0,0,1-6.21-7.3,12.61,12.61,0,0,1-.58-4.88,17,17,0,0,1,.9-4.71,12.39,12.39,0,0,1,3-5.09,7.2,7.2,0,0,1,5.76-2.09,7.58,7.58,0,0,1,1.66.28,8.7,8.7,0,0,1,1.59.52,9,9,0,0,1,2.8,1.88,10.88,10.88,0,0,1,2.87,5.87,42.58,42.58,0,0,1,.49,7.67,33,33,0,0,0,.14,3.34,6.52,6.52,0,0,0,.33,1.49,1.28,1.28,0,0,0,.67.81.75.75,0,0,0,.62-.05,3.69,3.69,0,0,0,.76-.52,11.42,11.42,0,0,0,1.46-1.56,44.79,44.79,0,0,0,4.37-7.38l.82-1.7c1.1-2.1,1.54-2.7,2.35-2.88a3.13,3.13,0,0,1,.52-.14c.5,0,.53,1.09-.14,2.74A47.17,47.17,0,0,1,152,157a33.85,33.85,0,0,1-2.42,3.51,16,16,0,0,1-1.55,1.69,7.07,7.07,0,0,1-1,.8,4.44,4.44,0,0,1-.78.41,3.49,3.49,0,0,1-1,.2,3.28,3.28,0,0,1-1-.13c-.21-.11-.43-.21-.64-.33l-.57-.45a3.9,3.9,0,0,1-.46-.56,3.76,3.76,0,0,1-.29-.5,6.41,6.41,0,0,1-.54-1.83,22.21,22.21,0,0,1-.22-3.16c0-2,0-3.92-.11-5.79Z"/><path class="cls-1" d="M177.5,144.51c-2.07.42-4.16.79-6.26,1.13-.76.14-1.52.29-2.29.39a57.28,57.28,0,0,1-8.19.5c-.61,0-1.22,0-1.83,0l-1.83-.09a23.39,23.39,0,0,1-2.34-.3,10.11,10.11,0,0,1-2.26-.73c-.46-.2-.24-.55.27-.83a3.26,3.26,0,0,1,2.09-.31,54.34,54.34,0,0,0,9,.37,38.94,38.94,0,0,0,5.62-.72c2.07-.34,4.12-.75,6.18-1.18,1.26-.29,2.53-.55,3.79-.87,1.9-.46,3.82-.93,5.69-1.49,1.46-.42,2.85-1,4.29-1.45.32-.1.63-.22,1-.31,1.21-.31,1.64-.25,2,.22a1.91,1.91,0,0,1,.25.33c.21.38-.2.84-1,1.2a52.71,52.71,0,0,1-7.9,2.67c-2,.56-4.12,1.06-6.2,1.53Z"/><path class="cls-1" d="M240.22,179.75a29.27,29.27,0,0,1-17.3-.77,26.92,26.92,0,0,1-5.7-2.86,40.55,40.55,0,0,1-8.16-7.4,63.52,63.52,0,0,1-6.3-8.88,85.33,85.33,0,0,1-4.32-8.6c-1.65-3.72-3.3-7.39-5-11-.54-1.12-.09-1.22.85-.51a12.19,12.19,0,0,1,3.39,4.37c1.81,3.77,3.34,7.6,5.18,11.2a69.74,69.74,0,0,0,6.53,10.24,35.93,35.93,0,0,0,11.08,9.66,24.44,24.44,0,0,0,7.56,2.62,27.62,27.62,0,0,0,8.07.1,29.38,29.38,0,0,0,9.53-3,27.8,27.8,0,0,0,6.24-4.32,21.7,21.7,0,0,0,4.52-6,17.69,17.69,0,0,0,1.71-5.46,13.48,13.48,0,0,0-.26-5.49,11.42,11.42,0,0,0-.85-2.19,26.92,26.92,0,0,0-1.58-2.68,2.85,2.85,0,0,1-.49-1.56,4.25,4.25,0,0,1,0-.71c.07-.33.44-.38,1.07-.12a6.65,6.65,0,0,1,2.31,1.94,13.05,13.05,0,0,1,2.5,5.49,16,16,0,0,1,0,6.12,22.6,22.6,0,0,1-5.36,10.81,27.51,27.51,0,0,1-7,5.64,32.14,32.14,0,0,1-8.22,3.37Z"/><path class="cls-1" d="M226.68,111.84A46.55,46.55,0,0,1,239.05,115a32.19,32.19,0,0,1,4.26,2,15.11,15.11,0,0,1,1.75,1.1l1.71,1.18c1.06.88,2.11,1.78,3.11,2.73l1.38,1.55a17.27,17.27,0,0,1,1.32,1.6,24,24,0,0,1,2,3.61,25.66,25.66,0,0,1,2.22,7,11.59,11.59,0,0,1-.22,4.82,6.5,6.5,0,0,1-1.17,2.24,6.35,6.35,0,0,1-2,1.54c-1,.41-.92,0-.46-.71a11.45,11.45,0,0,0,.74-1.42c.24-.57.44-1.17.67-1.83a9,9,0,0,0,.21-3.92,22.18,22.18,0,0,0-1-4.12,27.24,27.24,0,0,0-1.77-4,15.73,15.73,0,0,0-2.5-3.53,22.38,22.38,0,0,0-3.95-3.69l-2.31-1.5c-.77-.48-1.63-.84-2.43-1.28a42.14,42.14,0,0,0-11.59-3.62c-1.25-.15-2.49-.38-3.75-.47s-2.52-.21-3.79-.21a66.75,66.75,0,0,0-11.48.71,68.54,68.54,0,0,0-8.57,2.05c-.62.18-1.21.38-1.84.56-2.3.71-3.08.77-3.78.3a2.42,2.42,0,0,1-.47-.32c-.38-.4.45-1.08,2.13-1.78a61.44,61.44,0,0,1,16.33-3.8,66.28,66.28,0,0,1,12.83.06Z"/><path class="cls-1" d="M138.7,98.82A35.1,35.1,0,0,1,155,91.48a36.22,36.22,0,0,1,6.49-.63A31.18,31.18,0,0,1,172.73,93a38.9,38.9,0,0,1,9.84,5.7,49,49,0,0,1,7.18,7,33.61,33.61,0,0,1,6.39,11c.42,1.26-.07,1.23-.94.41a19.7,19.7,0,0,1-1.56-1.76,24.19,24.19,0,0,1-1.89-2.57,45.3,45.3,0,0,0-7.81-9.48,42.52,42.52,0,0,0-10.08-7,27.55,27.55,0,0,0-3.46-1.41c-.59-.2-1.2-.34-1.81-.51l-.92-.24-.93-.15a30,30,0,0,0-7.58-.35,33.35,33.35,0,0,0-15.85,5,29.54,29.54,0,0,0-7.6,7A28.79,28.79,0,0,0,130,120.09a34.24,34.24,0,0,0,1,12c.2.86.51,1.68.73,2.54,1,3.16,1.17,4.23,1,5.08a3.49,3.49,0,0,1-.1.57c-.09.22-.33,0-.71-.48a12,12,0,0,1-1.45-2.52A36.93,36.93,0,0,1,127.59,126a33.26,33.26,0,0,1,1.16-12.07,31.19,31.19,0,0,1,9.9-15.16Z"/><path class="cls-1" d="M135.54,233.76a15,15,0,0,0,4.37,5.35,7.27,7.27,0,0,0,2.12,1,3.69,3.69,0,0,0,1.85.14,4.07,4.07,0,0,0,1.71-.84,4.35,4.35,0,0,0,1.62-3.6c.07-1.37-.13-2.87-.06-4.41a8.21,8.21,0,0,1,2.1-5.58c.43-.47.82,0,1,.74a4.33,4.33,0,0,1,.12,1.21,3.13,3.13,0,0,1-.21,1.25,12.59,12.59,0,0,0-.57,4.93,16.61,16.61,0,0,1-.14,3.09,6.48,6.48,0,0,1-1.47,3.23l-.77.74c-.27.21-.55.4-.83.6a6.06,6.06,0,0,1-2,.9,6.83,6.83,0,0,1-4.15-.41,15,15,0,0,1-6.09-5.52,23.12,23.12,0,0,1-2.27-4.39,26.86,26.86,0,0,1-1.66-7.22,25.35,25.35,0,0,1,0-5.71,7.83,7.83,0,0,1,.19-1.26c.39-1.54.79-1.94,1.47-2.05a2.63,2.63,0,0,1,.47-.06c.5,0,.68.73.58,1.78a35.65,35.65,0,0,0,.3,9.39,22.77,22.77,0,0,0,2.37,6.68Z"/><path class="cls-1" d="M57,271c2.12-2,4.27-4,6.52-5.87.81-.68,1.58-1.42,2.41-2.07,2.92-2.35,5.94-4.55,8.93-6.77,1.35-1,2.65-2,4-3A38.89,38.89,0,0,1,84,249.63c.57-.32.7,0,.48.64a5.42,5.42,0,0,1-1.71,2.38c-3.35,2.66-6.72,5.28-10.22,7.79-1,.77-2,1.6-3.06,2.45l-3,2.62c-2.16,1.92-4.34,3.82-6.41,5.83l-1.91,1.86-1.84,1.93c-.92,1-1.78,2-2.67,3s-1.69,2.08-2.4,3.21A21.91,21.91,0,0,0,49.69,284a29.55,29.55,0,0,0-1.3,2.73c-.17.4-.32.81-.5,1.21-.59,1.52-.9,1.95-1.66,2.08a3.55,3.55,0,0,1-.52.09c-.54,0-.7-.79-.39-2.07A29.27,29.27,0,0,1,51,277.56c.89-1.21,1.91-2.29,2.88-3.42s2-2.17,3.08-3.22Z"/><path class="cls-1" d="M50.18,310.78c.21,1.09.47,2.17.75,3.25s.56,2.15.88,3.22c.24.78.53,1.54.79,2.31.86,2.74,1.77,5.47,2.89,8.13a30.08,30.08,0,0,0,1.72,3.4c.81,1.38,1.73,2.76,2.58,3.92.26.37,0,.72-.65.74a2.56,2.56,0,0,1-1.14-.28,3.5,3.5,0,0,1-1.08-.91,36.65,36.65,0,0,1-4.72-9.18c-.32-1-.73-1.94-1.14-2.91s-.77-2-1.12-2.94l-1-3.3L48,312.9c-.32-1.38-.68-2.75-.92-4.15-.43-2.1-.73-4.24-1-6.35-.09-.83-.21-1.65-.34-2.46l-.19-2.48a5.74,5.74,0,0,1,0-1.1c.09-1.38.27-1.81.85-2a3.12,3.12,0,0,1,.39-.15c.43-.07.76.51.86,1.45.08,1.39.37,2.83.52,4.26.3,1.43.45,2.89.74,4.35l.28,1.63.35,1.63.34,1.64.41,1.62Z"/><path class="cls-1" d="M97.21,378.86q2-14.52,5.4-28.82l1.22-5.21,1.33-5.18a246.56,246.56,0,0,1,12.6-35.52c1.16-2.53,2.27-5.1,3.52-7.6l1.82-3.76,1.93-3.69A118.92,118.92,0,0,1,136.34,271c1.33-1.77,1.53-1.25.87.57A61.51,61.51,0,0,1,133,280a232.57,232.57,0,0,0-18.58,38.88,239.19,239.19,0,0,0-7.73,25.42c-2.42,9.46-4.37,19.05-6,28.7-1,5.93-1.78,11.91-2.47,17.89-1,9.06-1.71,18.2-2,27.25-.2,7-.1,13.94.2,20.88.08,1.53.16,3,.24,4.56.29,5.71.34,7.52-.17,8.8a5.55,5.55,0,0,1-.34.85c-.37.59-1-1.71-1.44-5.92a265.11,265.11,0,0,1-.47-38.94c.53-9.83,1.52-19.67,2.85-29.45Z"/><path class="cls-1" d="M28,418q-.08-7.54,0-15.09c0-1.84,0-3.68.05-5.51.22-6.47.61-12.93,1.27-19.38.31-2.86.61-5.74,1.07-8.56A53.93,53.93,0,0,1,31.46,364a19.47,19.47,0,0,1,2.11-5.2c.65-1,.83-.64.66.36s-.48,2.67-1,4.65a80.56,80.56,0,0,0-1.84,10.85c-.41,3.67-.72,7.38-1,11.12-.35,4.46-.33,9.14-.4,13.72q-.12,7.58,0,15.15c.05,3.11.1,6.22.2,9.32.14,4.71.3,9.43.6,14.1.24,3.62.62,7.17.95,10.74l.23,2.35c.24,2.95.18,3.9-.33,4.58a2.31,2.31,0,0,1-.34.44c-.41.32-.86-.85-1.18-3-.45-3.19-.82-6.48-1.12-9.83s-.46-6.74-.63-10.14c-.24-5.06-.37-10.15-.47-15.22Z"/><path class="cls-1" d="M53.37,345.61a50.36,50.36,0,0,1-5.87,5.14c-.76.57-1.5,1.16-2.31,1.67a23.81,23.81,0,0,1-4.53,2.3,9.46,9.46,0,0,1-5.28.68,2.73,2.73,0,0,1-2.08-1.88,4.37,4.37,0,0,1,.3-2.54,14.13,14.13,0,0,1,3.11-4.78c.41-.41.67-.1.7.53a4.79,4.79,0,0,1-.64,2.46,18.25,18.25,0,0,0-1.14,2.31,3.47,3.47,0,0,0-.3,1.56.59.59,0,0,0,.33.31,1.31,1.31,0,0,0,.38.13c.17,0,.32,0,.5,0a9.13,9.13,0,0,0,2.4-.44,21.86,21.86,0,0,0,5.76-3.19,45.6,45.6,0,0,0,5.69-4.8c1.1-1.08,2.14-2.22,3.13-3.4A43.7,43.7,0,0,0,57.61,336a36,36,0,0,0,2.26-4.84c.14-.37.25-.74.4-1.1a4.12,4.12,0,0,1,.8-1.34,1.46,1.46,0,0,1,.94-.35,4.46,4.46,0,0,1,.5,0c.25,0,.41.22.5.55a2.89,2.89,0,0,1,0,1.37,31.09,31.09,0,0,1-4.57,9.28,52,52,0,0,1-5,6.09Z"/><path class="cls-1" d="M82.49,329.12A62.34,62.34,0,0,1,74,323.37c-1-.77-2-1.53-2.9-2.37a57.74,57.74,0,0,1-8.65-9.9,55.73,55.73,0,0,1-3.07-5,26.48,26.48,0,0,1-2.83-6.88c-.18-.76.23-.76.82-.28a8.52,8.52,0,0,1,1.94,2.66,61.51,61.51,0,0,0,7.81,12.27,44.35,44.35,0,0,0,6.5,6.26,68.31,68.31,0,0,0,8.14,5.76,59,59,0,0,0,5.44,2.89,44.65,44.65,0,0,0,8.75,3.09,28.28,28.28,0,0,0,7,.68c.51,0,1,0,1.51,0,1.87-.11,2.47,0,3,.47a2.81,2.81,0,0,1,.35.33c.14.18,0,.4-.3.64a4.23,4.23,0,0,1-1.65.68,20.52,20.52,0,0,1-6.91.21A37.7,37.7,0,0,1,92,333.33a56.07,56.07,0,0,1-9.57-4.16Z"/><path class="cls-1" d="M73.49,400.52c-.49,4.36-.95,8.73-1.3,13.11l-.27,4.8c-.37,5.64-.82,11.29-1,16.95-.1,2.51,0,5,0,7.52,0,1.6.12,3.21.12,4.81s0,3.2,0,4.81c0,1-.48.89-1,.06a10.5,10.5,0,0,1-1.24-4.22c-.27-3.29-.3-6.58-.31-9.87s.09-6.59.32-9.9c.24-4,.25-8.09.53-12.13.27-4.45.66-8.89,1.12-13.33.3-2.73.64-5.45,1-8.17.56-4.12,1.2-8.25,1.94-12.31.27-1.59.51-3.16.82-4.72s.59-3.12,1-4.67c.17-.68.33-1.35.52-2,.81-2.51,1.28-3.25,2-3.58a2.5,2.5,0,0,1,.48-.22c.49-.07.49,1.05.06,2.87-.63,2.72-1.11,5.54-1.6,8.4-.29,1.42-.52,2.87-.76,4.32s-.49,2.9-.69,4.37l-.48,3.27-.42,3.28c-.3,2.19-.52,4.4-.75,6.59Z"/><path class="cls-1" d="M191.4,177.63c-1.49-2.3-3.88-3.84-6.12-5.34-1.28-.86-2.48,1.22-1.21,2.07,1.88,1.26,4,2.55,5.25,4.48.84,1.3,2.92.1,2.08-1.21Z"/><path class="cls-1" d="M186.8,174.61a6.12,6.12,0,0,0-3.39,4.75,2.81,2.81,0,0,0,3.48,3.14,5.75,5.75,0,0,0,3.52-3.15c.71-1.52.18-3.34-1.76-3.27-1.54,0-1.55,2.45,0,2.4.27,0-.06-.1-.22-.31s-.05-.21-.05-.2c-.15.13-.24.59-.38.8a3.44,3.44,0,0,1-1.6,1.37c-.62.21-.7-.27-.53-.9a4,4,0,0,1,1.57-2.31c1.42-.56.8-2.89-.64-2.32Z"/><path class="cls-1" d="M200.89,186.41c-.46-2.78-3.14-4-5.12-5.55-1.2-1-2.91.73-1.7,1.7,1.58,1.25,4.14,2.29,4.5,4.49.26,1.52,2.57.88,2.32-.64Z"/><path class="cls-1" d="M196.8,183.21a5.78,5.78,0,0,0-4,3.81,2.68,2.68,0,0,0,3.25,3.1,4.86,4.86,0,0,0,3.18-3,2.18,2.18,0,0,0-2-3.18c-1.55-.08-1.54,2.32,0,2.4.16,0,.07,0,.09,0s0,0-.11-.06-.13-.21-.2-.28c.11.11,0,0,0-.06a.69.69,0,0,1,0,.2c.1-.21,0,0,0,.05a1,1,0,0,1-.14.33,2.67,2.67,0,0,1-1.34,1.22c-.15,0-.24,0-.31-.05s-.1-.19,0-.46a3.76,3.76,0,0,1,2.16-1.73,1.2,1.2,0,0,0-.64-2.32Z"/><path class="cls-1" d="M167.82,204.28a2.78,2.78,0,0,0-1.37,3.1c.49,1.55,2.52,1.46,3.51.47a3.2,3.2,0,0,0,.72-3.07c-.48-1.48-2.05-1.63-3.25-.91a1.17,1.17,0,0,0,1.18,2l.26-.15c.12-.05-.18,0,0,0h-.08c.25,0-.2-.05-.08,0s-.28-.13-.08,0c0,0-.23-.17-.11-.07-.11-.15-.14-.18-.09-.11s0,0,0-.05,0-.07,0,.05.05-.21,0-.06a.81.81,0,0,0,0,.15c0,.06,0,.13,0,.19,0-.12.05-.21,0,0s-.06.23-.1.35c.09-.27,0,0-.1.13l.09-.11-.05.05c0,.2-.21,0,0,.05s.08-.06,0,0,0,0,.12,0l-.23.07c-.25.09.08,0,0,0s.22.06.27.09a1,1,0,0,1,.24.25c-.12-.18.06.2,0,.08s0,.28,0,.07,0,.18,0,0,.17-.36,0-.15l.11-.19c0-.05,0-.05,0,0s0,.06,0,0,.1-.09.12-.12c-.19.18,0,0,0,0,1.34-.71.15-2.74-1.18-2Z"/><path class="cls-1" d="M170.59,168.18a21.45,21.45,0,0,0-1.3,8.55,11.65,11.65,0,0,0,1,4.05,10.36,10.36,0,0,0,2.47,3.3,13.65,13.65,0,0,0,5.55,2.74c3.51,1.16,7.33,0,10.48-2.15a25.55,25.55,0,0,0,7.74-8.43c.21-.32.18-.34.09-.74a7.92,7.92,0,0,0-.46-1.11,18,18,0,0,0-1.33-2.17,27.65,27.65,0,0,0-3.39-3.86,31.59,31.59,0,0,0-11.17-6.78c-1.29-.43-1.05-.73.2-.76a13.11,13.11,0,0,1,5.9,1.65A29.07,29.07,0,0,1,196.84,172a15.51,15.51,0,0,1,.92,1.6c.14.28.28.57.4.88a5.47,5.47,0,0,1,.31,1.14,2.12,2.12,0,0,1-.35,1.47l-.46.77c-.29.52-.65,1-1,1.5a26.83,26.83,0,0,1-4.84,5.26,26.55,26.55,0,0,1-3.58,2.49,18.48,18.48,0,0,1-4.13,1.69,11.69,11.69,0,0,1-4.57.31,18.66,18.66,0,0,1-4.32-1.18,12.7,12.7,0,0,1-7-6.76,17.17,17.17,0,0,1-.76-9.65c.18-.78.33-1.58.53-2.36l.71-2.29.87-2.23c.14-.38.33-.73.49-1.09l.36-.78c.35-.38-.16-.53-.43-.72-4.95-2.92-10-5.91-14.86-8.95-3.8-2.36-7.56-4.64-11.2-7.23-.8-.57-1.59-1.13-2.37-1.75-2.88-2.31-3.58-3.38-3.65-4.39a3.13,3.13,0,0,1,0-.68c.18-.6,1.37.24,3.4,1.85,3,2.38,6.35,4.63,9.76,6.86s6.92,4.42,10.48,6.58l5.68,3.41,2.86,1.7,1.8,1.09a4.35,4.35,0,0,1,.64.46,1.21,1.21,0,0,1,.19.61l0,.15v0h0c.11,0-.24.08.25-.07v.12l0,.33c0,.22-.05.44-.05.67l-.82,1.76c-.19.39-.37.78-.52,1.18-.29.8-.66,1.59-.89,2.41Z"/><path class="cls-1" d="M194,193.2a6.08,6.08,0,0,0,3.36,1.08,9.42,9.42,0,0,0,3.72-.83l.66-.29.63-.36c.43-.23.84-.51,1.25-.78a24.77,24.77,0,0,0,4-3.36c.3-.32.62-.63.9-1l.43-.51c.17-.2.18-.18.21-.3a1.77,1.77,0,0,0-.23-.89,7.69,7.69,0,0,0-.63-1.11,18.8,18.8,0,0,0-3.15-3.47,43.25,43.25,0,0,0-4.89-3.52c-.53-.33-.31-.62.34-.68a4.66,4.66,0,0,1,2.77.83,25.05,25.05,0,0,1,4.92,4.28,13.27,13.27,0,0,1,1.95,2.76,5.06,5.06,0,0,1,.37.88,2.62,2.62,0,0,1,.1,1.29,2.2,2.2,0,0,1-.3.64l-.31.36-.54.62a28.19,28.19,0,0,1-6,5.23,14.08,14.08,0,0,1-4.16,1.7,8.34,8.34,0,0,1-4.59-.16,12,12,0,0,1-1.32-.58c-.4-.26-.79-.53-1.18-.8l-1-1a3.35,3.35,0,0,1-.85-1.37,4.43,4.43,0,0,1,0-1.11,1.67,1.67,0,0,0-.06-.38l-.09-.51a5.61,5.61,0,0,1-.14-1.07,5.53,5.53,0,0,1,0-1.08,10.87,10.87,0,0,1,1.27-4,30.92,30.92,0,0,1,3.47-5.17c.29-.35.55-.7.85-1,1.11-1.26,1.56-1.54,2.2-1.44a1.84,1.84,0,0,1,.43.07c.42.15.22.9-.52,1.88-1.1,1.45-2.24,2.87-3.29,4.33a14,14,0,0,0-2.33,4.56,4.43,4.43,0,0,0-.16.87l-.05.44,0,.43c0,.63.19.9.28,2.15a4.43,4.43,0,0,1,0,.54c0,.08,0,0,0,.06a1.67,1.67,0,0,0,.37.5,7.37,7.37,0,0,0,1.37,1.2Z"/><path class="cls-1" d="M130.45,263.12a3,3,0,0,1-2.9,1.49,2.57,2.57,0,0,1-2-3.2c.15-.58.69-1.16,1.25-1.08.18,0,.25.55.34,1.07a6,6,0,0,0,.15.68l.06.13s0,.07,0,0-.06-.09-.06-.1c-.16-.18-.09,0,.12-.06l.11,0,0,0a.3.3,0,0,0-.08.18c0,.21.21.21.4.24a.65.65,0,0,0,.56-.13.54.54,0,0,0,.21-.34.53.53,0,0,0-.27-.58.7.7,0,0,0-.3,0l.44,0a.43.43,0,0,0-.14.24s0,.08,0,.1-.17,0-.69-.25l-.36-.17c-.4-.19-.68-.51-.57-.87a2,2,0,0,1,1.32-1.22l.32-.09.51.16a2.72,2.72,0,0,1,1.41,1,2.75,2.75,0,0,1,.27,2.83Z"/><path class="cls-1" d="M135.8,252.3a3,3,0,0,1-1.35,2.15c-.14.07-.26.17-.39.24a3.36,3.36,0,0,1-.45.14,2.21,2.21,0,0,1-.81,0,2,2,0,0,1-.77-.18,2.94,2.94,0,0,1-1.18-.88,2.72,2.72,0,0,1-.56-1.2,1.38,1.38,0,0,1,.49-1.5c.16-.09.55.29.94.66a3.65,3.65,0,0,0,.85.69.92.92,0,0,0-.27-.06h0l.23-.12h0c-.06,0-.11.13-.08.29s.24.13.38.13a.59.59,0,0,0,.48-.31.78.78,0,0,0,.09-.43.91.91,0,0,0-.09-.36.58.58,0,0,0-.11-.15s-.06,0-.09,0-.11.2-.17.4a.39.39,0,0,1,0,.13c-.08.15-.23,0-.77-.44l-.38-.32c-.42-.36-.64-.78-.5-1.1a1.43,1.43,0,0,1,.48-.65,3.67,3.67,0,0,1,.38-.27,2.09,2.09,0,0,1,.55-.18A2.39,2.39,0,0,1,134,249a2.93,2.93,0,0,1,1,.64,3.43,3.43,0,0,1,.88,2.66Z"/><path class="cls-1" d="M104.18,82c-.24.06-.32-.24-.3-.77a1.43,1.43,0,0,1,.25-.67,1.88,1.88,0,0,1,.46-.21,16,16,0,0,1,1.7.21,4.73,4.73,0,0,1,1.13.32l2.19.84a1.7,1.7,0,0,1,.45.26,4.9,4.9,0,0,0,1.59.74.36.36,0,0,0,.29,0,7.13,7.13,0,0,1,1.83.55,13.19,13.19,0,0,0,1.32.75c.06,0,.14,0,.18.13s.26.25.4.3a3.56,3.56,0,0,1,.61.25,1.15,1.15,0,0,1,.26.33c.08.1,0,.43-.07.46s-.06.26-.07.4,0,.11,0,.14a5.15,5.15,0,0,1-1.59.35c-.05,0-2-.36-2.19-.41a.77.77,0,0,1-.31-.16c-.06,0-1.57-.38-1.62-.42-.29-.13-.62-.17-.84-.47a.26.26,0,0,0-.16-.09,9.79,9.79,0,0,1-1.46-.7c-.24-.13-.5-.2-.75-.31a1.06,1.06,0,0,1-.12-.1l-.15-.11a16.76,16.76,0,0,0-1.77-.71c-.14,0-.71-.5-.87-.52S104.28,81.93,104.18,82Z"/><path class="cls-1" d="M129.18,71.61c.21.14,0,.37-.57.69a2.07,2.07,0,0,1-.81.25,3,3,0,0,1-.51-.23,11.5,11.5,0,0,1-.84-1.52,3.64,3.64,0,0,1-.34-1.14c-.11-.79-.24-1.57-.29-2.34a1.3,1.3,0,0,1,.05-.52A4.82,4.82,0,0,0,126,65a.38.38,0,0,0-.09-.29,5,5,0,0,1-.05-1.94c.2-.5.34-1,.52-1.49,0-.07,0-.15.12-.21.27-.13.24-.29.28-.44A2.45,2.45,0,0,1,127,60c0-.11.21-.2.34-.29a.79.79,0,0,1,.54,0c.11.1.3,0,.47.05l.17,0a6,6,0,0,1,.69,1.39l0,.92a9.87,9.87,0,0,0,.1,1c0,.1,0,.2-.09.3s.17,1.42.17,1.47c0,.29.07.56-.16.85-.05,0,0,.11,0,.17a8.83,8.83,0,0,1-.05,1.45,4.59,4.59,0,0,0,.06.73.65.65,0,0,1,0,.13.55.55,0,0,0,0,.17,8,8,0,0,0,.24,1.7c0,.12-.1.79,0,.92S129.09,71.56,129.18,71.61Z"/><path class="cls-1" d="M324.06,98c.12.2-.22.22-.85.16a3,3,0,0,1-.83-.27,2.86,2.86,0,0,1-.34-.39c-.05-.07-.06-1-.09-1.34a2.57,2.57,0,0,1,.13-.88l.5-1.69a1,1,0,0,1,.2-.34,2.26,2.26,0,0,0,.56-1.2.21.21,0,0,0,0-.24,3,3,0,0,1,.35-1.4c.28-.3.57-.6.84-.91,0,0,0-.11.15-.12a.4.4,0,0,0,.38-.25,3.33,3.33,0,0,1,.36-.4,1.56,1.56,0,0,1,.36-.15.73.73,0,0,1,.45.12c.08.1.25.08.39.11l.14,0a3.56,3.56,0,0,1,.31.62,2.75,2.75,0,0,1,.29.69l-.07.78c0,.39-.11.78-.1.87s-.1.15-.16.22-.19,1.17-.22,1.21c-.11.21-.09.46-.4.6-.06,0-.07.07-.08.12a5,5,0,0,1-.52,1.07,3.9,3.9,0,0,0-.21.57s-.06,0-.08.08-.09.07-.1.11a8.2,8.2,0,0,0-.47,1.34c0,.11-.45.5-.45.64S324,97.89,324.06,98Z"/><path class="cls-1" d="M309,100.33c.24.13.08.44-.32.83a1.58,1.58,0,0,1-.69.34,3.47,3.47,0,0,1-.51-.12c-.08,0-.89-.88-1.22-1.11a5.21,5.21,0,0,1-.77-.79,20,20,0,0,0-1.58-1.61,1.78,1.78,0,0,1-.31-.4,4.1,4.1,0,0,0-1.23-1.29c-.08-.06-.15-.14-.28-.13a6.1,6.1,0,0,1-1.63-1.22c-.29-.5-.65-.91-.94-1.41,0-.07-.13-.1-.1-.24.06-.32-.09-.4-.2-.53a2.55,2.55,0,0,1-.41-.6,1.38,1.38,0,0,1,0-.47c0-.15.31-.4.37-.41s.22-.21.33-.34l.11-.12a7.23,7.23,0,0,1,1.64.36l.27.18.58.39,1,.67c.11,0,.15.18.21.29s1.34.94,1.38,1c.22.25.53.41.62.81a.25.25,0,0,0,.12.16,8,8,0,0,1,1.13,1.33c.18.24.4.45.6.68,0,0,0,.1.07.15a.84.84,0,0,0,.09.19c.47.54.81,1.18,1.28,1.72.12.13.31.94.44,1.08S308.85,100.28,309,100.33Z"/><path class="cls-1" d="M373,251.67c-.14.15-.27-.09-.47-.56a1.62,1.62,0,0,1-.1-.68,1.94,1.94,0,0,1,.3-.38,5.36,5.36,0,0,1,1.61-.31,2.92,2.92,0,0,1,1.14.15,9.36,9.36,0,0,1,2.07.91,1.27,1.27,0,0,1,.38.32,10.91,10.91,0,0,0,1.23,1.13.47.47,0,0,0,.25.14c.22,0,1.2,1.17,1.25,1.38.16.49.34,1,.45,1.45,0,.07.08.12,0,.21a.5.5,0,0,0,0,.48,1.85,1.85,0,0,1,.07.62.85.85,0,0,1-.15.34c-.06.1-.36.12-.4.1s-.23,0-.35.07l-.12,0a2.46,2.46,0,0,1-.44-.39,4.45,4.45,0,0,1-.44-.4,6.58,6.58,0,0,0-.39-.57,4,4,0,0,0-.53-.59c-.06-.05-.07-.14-.1-.22a7.59,7.59,0,0,0-.88-.71c-.14-.18-.36-.24-.42-.52,0,0,0-.07-.09-.1-.32-.19-.59-.46-.91-.68a3,3,0,0,0-.51-.25s-.05,0-.08-.08-.06-.07-.1-.08a3.5,3.5,0,0,0-1.28-.35.94.94,0,0,1-.32-.13,1.13,1.13,0,0,0-.34-.09C373.33,251.92,373.1,251.6,373,251.67Z"/><path class="cls-1" d="M384,243.8c-.09.14-.17-.11-.32-.58a2.24,2.24,0,0,1-.07-.69,1.37,1.37,0,0,1,.21-.36,3.79,3.79,0,0,1,1.22-.28,2,2,0,0,1,.84.12,7.84,7.84,0,0,1,1.49.7.88.88,0,0,1,.26.25,3.81,3.81,0,0,0,.85.85.26.26,0,0,0,.19.09c.17,0,.89.82.91,1,.09.38.21.72.26,1.09,0,.05.06.09,0,.17s-.07.26,0,.37a1.12,1.12,0,0,1,0,.45.65.65,0,0,1-.17.26c-.06.08-.36.11-.4.1s-.23.05-.35.08l-.12,0c-.07,0-.74-.4-.77-.43a3.8,3.8,0,0,0-.66-.69c-.05,0,0-.1-.05-.15a5.27,5.27,0,0,0-.62-.43c-.08-.12-.24-.14-.24-.37,0,0,0-.05-.05-.07a4.32,4.32,0,0,1-.57-.47,1,1,0,0,0-.33-.17s0-.05,0-.07,0-.06-.06-.07c-.27-.09-.52-.28-.8-.24-.06,0-.32-.26-.4-.22S384,243.74,384,243.8Z"/><path class="cls-1" d="M393.79,275.58a19.34,19.34,0,0,0,4-4.72c.86-1.72-1.73-3.24-2.59-1.51a16.82,16.82,0,0,1-3.56,4.11,1.5,1.5,0,0,0,2.12,2.12Z"/><path class="cls-1" d="M431.78,272.11a20.91,20.91,0,0,0,4.09,2.45,1.55,1.55,0,0,0,2.05-.54,1.5,1.5,0,0,0-.54-2,17.86,17.86,0,0,1-3.48-2,1.54,1.54,0,0,0-2.12,0,1.5,1.5,0,0,0,0,2.12Z"/><path class="cls-1" d="M420.48,305.58a23,23,0,0,0,3.07-3.46,1.5,1.5,0,0,0-.53-2.05,1.54,1.54,0,0,0-2.06.54,19.51,19.51,0,0,1-2.6,2.85c-1.4,1.34.72,3.46,2.12,2.12Z"/><path class="cls-1" d="M437.76,333.62c1.31.67,2.45,1.62,3.79,2.21a1.55,1.55,0,0,0,2.06-.54,1.52,1.52,0,0,0-.54-2.05c-1.35-.59-2.48-1.54-3.79-2.21-1.72-.88-3.24,1.71-1.52,2.59Z"/><path class="cls-1" d="M420.39,348.82a12.48,12.48,0,0,1,1.74-2.8,1.51,1.51,0,0,0-.54-2,1.52,1.52,0,0,0-2,.53,14.9,14.9,0,0,0-2,3.52,1.51,1.51,0,0,0,1,1.84,1.52,1.52,0,0,0,1.85-1Z"/><path class="cls-1" d="M471.87,307.62c1.3.33,2.5.94,3.79,1.27,1.56.39,2.23-2,.67-2.41-1.3-.33-2.5-.94-3.79-1.27-1.56-.39-2.23,2-.67,2.41Z"/><path class="cls-1" d="M483.86,341.15a23.84,23.84,0,0,1,1.14,3.5,1.25,1.25,0,0,0,2.41-.67,28.14,28.14,0,0,0-1.39-4.09c-.69-1.45-2.84-.18-2.16,1.26Z"/><path class="cls-1" d="M389.32,328.14a15.79,15.79,0,0,1,1.39,2,1.25,1.25,0,0,0,2.15-1.26,17.83,17.83,0,0,0-1.77-2.46,1.25,1.25,0,0,0-1.77,1.76Z"/><path class="cls-1" d="M395.81,254.12c-1.07.55-2.1,1.15-3.11,1.8-.37.23-.71.51-1.07.76a43.83,43.83,0,0,0-3.71,2.79c-.53.44-1,.92-1.53,1.39s-1.23,1.26-1.89,1.83c-.42.36-.34-.52.35-1.29a35.07,35.07,0,0,1,4-3.68c.87-.67,1.73-1.41,2.63-2.08s2-1.41,3.08-2c.65-.39,1.31-.76,2-1.11,1-.55,2.08-1,3.12-1.46.83-.33,1.61-.72,2.45-1,.18-.07.35-.15.54-.21.71-.19,1-.13,1.18.13,0,.06.11.12.15.18.11.21-.12.48-.59.71-1.4.61-2.9,1.12-4.36,1.78-1.08.48-2.17,1-3.23,1.56Z"/><path class="cls-1" d="M227.36,352.56l-.91-1.05c-.11-.13-.25-.24-.35-.37-.38-.47-.74-.95-1.09-1.44-.16-.21-.33-.41-.51-.61a2.22,2.22,0,0,1-.59-.83c-.07-.21.86-.54,1.1-.26a13.34,13.34,0,0,1,1.17,1.57,5.94,5.94,0,0,0,.83.91l1,1,.59.59a11.13,11.13,0,0,0,.95.87c.25.21.57.34.84.53a2,2,0,0,0,.19.12c.2.18.21.3,0,.59-.05.06-.08.13-.13.19a.52.52,0,0,1-.58.22,3.88,3.88,0,0,1-1.52-1c-.34-.32-.66-.66-1-1Z"/><path class="cls-1" d="M271.23,351.78c-.67.38-1.34.76-2,1.12-.24.13-.47.3-.72.42-.89.45-1.8.83-2.72,1.2l-1.19.55a4.24,4.24,0,0,1-1.59.55c-.36,0-.31-1.33.21-1.55,1-.42,1.93-.87,3-1.24a10.82,10.82,0,0,0,1.75-1c.64-.38,1.27-.77,1.9-1.17.39-.25.77-.5,1.15-.77.56-.41,1.16-.78,1.68-1.24s.74-.77,1.13-1.14c.08-.08.15-.17.24-.25.33-.28.51-.29.83-.07l.22.15a.59.59,0,0,1,.09.79,9.4,9.4,0,0,1-.87,1.29,10.36,10.36,0,0,1-1.14,1.05,18,18,0,0,1-1.91,1.32Z"/><path class="cls-1" d="M198,163.09c.25.19.16.52-.12.94-.09.14-.47.36-.56.31a3.55,3.55,0,0,1-.55-.28c-.12-.06-1.13-1.44-1.48-1.89a11.74,11.74,0,0,1-.87-1.34,19.63,19.63,0,0,0-1.69-2.46,6,6,0,0,1-.36-.52,2.85,2.85,0,0,0-.67-.83,3.88,3.88,0,0,0-.88-.62c-.1-.05-.19-.14-.33-.12a4.57,4.57,0,0,1-1.09-.44c-.51-.19-1-.43-1.15-.47-.29-.16-.6-.31-.91-.46s-.65-.22-1-.36c-.1,0-.2,0-.28-.13s-.4-.24-.62-.28a5,5,0,0,1-.89-.27,2.82,2.82,0,0,1-.44-.26.21.21,0,0,1,0-.32c.15-.07,0-.18,0-.28v-.1s.48-.15,1-.32a3.69,3.69,0,0,1,1.15-.26l.47,0,1,.06c.75.12,1.55.22,1.72.27a1.88,1.88,0,0,1,.48.22s.63.13,1.21.38a6.09,6.09,0,0,1,1.2.53c.41.3.9.51,1.14,1a.7.7,0,0,0,.21.21,7.94,7.94,0,0,1,1.64,1.94l.7,1a.94.94,0,0,1,.07.22,1.25,1.25,0,0,0,.1.27c.49.83.76,1.73,1.23,2.51.1.19.31,1.18.44,1.37S197.92,163,198,163.09Z"/><path class="cls-1" d="M204,169.45c-.17.07-.24-.17-.26-.61a1.54,1.54,0,0,1,.15-.59,1.65,1.65,0,0,1,.33-.23,11.79,11.79,0,0,1,1.29,0,3,3,0,0,1,.89.14c.58.18,1.17.35,1.74.58a1.13,1.13,0,0,1,.36.22,4.82,4.82,0,0,0,1.21.73.29.29,0,0,0,.24.06,3.65,3.65,0,0,1,1.38.83c.25.38.51.72.73,1.09,0,.05.1.07.07.18s0,.3.13.4a1.57,1.57,0,0,1,.25.48,1,1,0,0,1,0,.36c0,.11-.31.29-.36.3s-.21.15-.32.25l-.11.09a5.16,5.16,0,0,1-1.11-.28,7.27,7.27,0,0,0-1.14-.77c-.07,0-.1-.11-.14-.18a8.1,8.1,0,0,0-.93-.47c-.16-.14-.37-.17-.46-.43,0,0-.06-.06-.1-.08a8.08,8.08,0,0,1-.92-.56,4.61,4.61,0,0,0-.51-.22s0-.05-.08-.08a.39.39,0,0,0-.1-.08,7,7,0,0,0-1.26-.44c-.1,0-.52-.35-.65-.36S204,169.41,204,169.45Z"/><path class="cls-1" d="M308.85,184.34c-2.63-1.68-6.12-.37-8.71.73-1.62.7-.22,3.07,1.39,2.38s4.26-1.81,5.93-.74c1.49,1,2.88-1.42,1.39-2.37Z"/><path class="cls-1" d="M318.15,183.62c1.1-3.67,5.37-3.91,8.58-3.56,1.76.19,1.75-2.56,0-2.75-4.57-.5-9.76.66-11.23,5.58-.51,1.7,2.15,2.42,2.65.73Z"/><path class="cls-1" d="M26,274.72a133.56,133.56,0,0,1,19.79-26.24c2.73-2.93,5.59-5.72,8.53-8.43A155.81,155.81,0,0,1,70.91,227a119.43,119.43,0,0,1,18.35-10.42,79.06,79.06,0,0,1,17.8-5.87,43.67,43.67,0,0,1,12-.73,28.26,28.26,0,0,1,11.58,3.46c2.2,1.27,1.6,1.48-.43.89-.52-.12-1.08-.39-1.79-.53s-1.47-.37-2.3-.61-1.78-.35-2.75-.58-2-.28-3.11-.48a41.47,41.47,0,0,0-11.71.33,63.51,63.51,0,0,0-11.51,3,110.32,110.32,0,0,0-21.56,10.67,145.17,145.17,0,0,0-23.19,18.45A146.77,146.77,0,0,0,31.4,269.65c-.88,1.43-1.83,2.81-2.64,4.28l-1.25,2.18a13.27,13.27,0,0,0-1,2.2A33.24,33.24,0,0,0,24.77,288a91,91,0,0,0,.66,15.2,127.15,127.15,0,0,0,2.71,15,92.2,92.2,0,0,0,3.44,11.14,50.38,50.38,0,0,0,2.35,5.24c.29.5.25.62.51.66l.52.09c.21,0,.44,0,.67.06a20,20,0,0,0,2.79-.06,22,22,0,0,0,4.82-1A19.9,19.9,0,0,0,49,331.42a24.13,24.13,0,0,1,2.44-1.69,6.28,6.28,0,0,1,.83-.5c.34-.14.23.39-.44,1.41a12.9,12.9,0,0,1-4.12,3.79,22,22,0,0,1-10.59,3,14.79,14.79,0,0,1-2.93-.17,2.68,2.68,0,0,1-1.14-.43,2.23,2.23,0,0,1-.71-.95c-.22-.41-.45-.82-.64-1.24a48.62,48.62,0,0,1-2.19-5.1A116.2,116.2,0,0,1,24,308a108.34,108.34,0,0,1-1.39-16.62,55.77,55.77,0,0,1,.6-8.43,29.93,29.93,0,0,1,1-4.2,20.82,20.82,0,0,1,.76-2.08c.32-.68.65-1.36,1-1.94Z"/><path class="cls-1" d="M41.56,346.63c-.32-.8-.57-1.64-.85-2.45-.1-.29-.25-.57-.35-.87l-.9-3.18c-.14-.47-.32-.92-.5-1.37a4.68,4.68,0,0,1-.53-1.82c0-.21.42-.28.87-.23s.92.18,1.05.49a22.14,22.14,0,0,1,1.13,3.51,12.09,12.09,0,0,0,.84,2.13c.32.77.64,1.55,1,2.33.19.48.39,1,.61,1.43a18.46,18.46,0,0,0,1.06,2.08c.35.49.75.92,1.12,1.37.08.1.17.19.24.29a.77.77,0,0,1-.08,1c-.06.08-.11.16-.17.23s-.53.24-1,.08a2.82,2.82,0,0,1-.77-.52,8,8,0,0,1-.68-.61,9.18,9.18,0,0,1-1-1.49c-.43-.77-.78-1.57-1.14-2.37Z"/><path class="cls-1" d="M48.47,334.11c-.87.42-1.76.82-2.64,1.21-.32.14-.63.31-1,.44A35.86,35.86,0,0,1,41.34,337l-1.61.48a3.49,3.49,0,0,1-2.27.08c-.26-.14-.06-.33.18-.52a1.61,1.61,0,0,1,.79-.46,34.53,34.53,0,0,0,3.9-1.08,21.12,21.12,0,0,0,2.38-1c.87-.39,1.74-.78,2.6-1.2.53-.26,1-.53,1.57-.81.78-.42,1.57-.84,2.31-1.33.56-.39,1.07-.83,1.6-1.24l.33-.28c.43-.32.63-.32.89-.23a1,1,0,0,1,.18.06c.17.08.13.39-.11.78a8.43,8.43,0,0,1-1.38,1.42c-.52.39-1.08.75-1.64,1.09-.84.5-1.71.95-2.58,1.4Z"/><path class="cls-1" d="M57.5,294.59c1.15-1.95,2.3-3.91,3.51-5.83.43-.71.83-1.43,1.28-2.13,1.58-2.46,3.26-4.85,5-7.24.8-1,1.49-2.14,2.29-3.17a19.47,19.47,0,0,1,1.56-2,11.13,11.13,0,0,1,.88-.94c.35-.28.72-.54,1.09-.78s.67.19.64.86a3.59,3.59,0,0,1-.81,2.12c-2.08,2.38-4,5.14-6,7.8-1.2,1.62-2.21,3.46-3.28,5.22l-3.54,5.82c-.72,1.2-1.42,2.41-2.12,3.62-1.05,1.84-2.12,3.68-3.09,5.55-.76,1.45-1.4,2.92-2.12,4.38-.17.31-.32.63-.5.94-.66,1.16-1,1.48-1.5,1.52a1.93,1.93,0,0,1-.33,0c-.33-.05-.29-.65,0-1.56a54.49,54.49,0,0,1,3.7-8.23c1.06-2,2.19-4,3.3-6Z"/><path class="cls-1" d="M71.84,351.41a4.6,4.6,0,0,1,2-1.15c.21-.07.32.14.15.33-.34.35-.69.71-1,1.05l-2.11,2c-1,1-2.19,2.14-2.75,2.74l-3.37,3.38c-2.3,2.28-4.55,4.6-6.79,6.94-.5.52-1,1-1.54,1.51-1.83,1.65-3.56,3.4-5.24,5.2a8.84,8.84,0,0,0-.81.93c-.38.54-4.94,5.42-5.56,6-1.55,1.49-3.07,3-4.56,4.56a3.57,3.57,0,0,1-.65.64,7.16,7.16,0,0,0-1.45,1.35l-1.88,2a12.91,12.91,0,0,1-1,.9c-.32.27-.36,0-.3-.17.2-.37-.1-.18-.21-.21s-.08,0-.09-.06a50.48,50.48,0,0,1,3.26-5.07l.85-1c.49-.59,1.15-1.36,1.84-2.14l3.11-3.51c.3-.35.66-.66,1-1,.16-.15,4.36-4.75,4.55-4.91a29.44,29.44,0,0,1,2.8-2.67,4.64,4.64,0,0,0,.56-.53c1.53-1.6,3.17-3.1,4.81-4.59.84-.76,1.65-1.55,2.47-2.32.15-.14.32-.26.48-.4s.4-.32.58-.5c2-1.83,4-3.59,6-5.41.45-.42,2.78-2.24,3.31-2.72C70.46,352.35,71.59,351.66,71.84,351.41Z"/><path class="cls-1" d="M67.4,383.92a3.32,3.32,0,0,1,1.37-1.25A.2.2,0,0,1,69,383c-.18.36-.35.72-.55,1.08s-2.32,3.47-3.11,4.54-1.54,2.07-2.35,3.07c-1.66,2-3.36,4-5.12,5.95-.38.44-.79.86-1.2,1.26-1.43,1.38-2.79,2.83-4.11,4.31a5.65,5.65,0,0,0-.62.77c-.29.46-3.9,4.43-4.4,4.91-1.25,1.19-2.43,2.44-3.67,3.65a2.81,2.81,0,0,1-.54.5,4.85,4.85,0,0,0-1.17,1.09c-.51.54-1,1.09-1.52,1.62a9.72,9.72,0,0,1-.86.7c-.27.2-.37-.11-.32-.21.15-.31-.12-.19-.23-.23s-.08,0-.09-.07a3.83,3.83,0,0,1,.35-.61l.82-1.31c.62-1,1.3-2,1.45-2.14l.66-.82c.38-.48.91-1.1,1.46-1.74l2.46-2.84a7.46,7.46,0,0,1,.81-.78l3.58-4A23.81,23.81,0,0,1,53,399.49a4.57,4.57,0,0,0,.44-.44c1.2-1.3,2.46-2.55,3.69-3.82.63-.65,1.22-1.33,1.83-2,.11-.12.24-.22.36-.33a6.09,6.09,0,0,0,.44-.44c1.43-1.58,2.93-3.12,4.26-4.79.32-.37,1.93-2.09,2.26-2.55C66.47,384.87,67.26,384.17,67.4,383.92Z"/><path class="cls-1" d="M58,425.12a1.63,1.63,0,0,1,1.09-.79c.14,0,.36.14.31.28s-.2.55-.32.82-1.55,2.53-2,3.34-1,1.53-1.53,2.28c-1.07,1.52-2.21,3-3.36,4.43a11.84,11.84,0,0,1-.81.92,33.42,33.42,0,0,0-2.73,3.22,2.35,2.35,0,0,0-.38.6,39.43,39.43,0,0,1-2.86,3.69c-.89.86-1.72,1.76-2.57,2.65-.13.12-.21.29-.39.36a2.13,2.13,0,0,0-.84.76c-.34.4-.69.8-1.06,1.17a3.46,3.46,0,0,1-.67.46c-.22.13-.4-.16-.38-.25.06-.25-.18-.19-.3-.25a.54.54,0,0,1-.12-.09,25.75,25.75,0,0,1,1.57-3.08l3-4.07a3.69,3.69,0,0,1,.55-.57l2.32-3a10,10,0,0,1,1.52-1.6,1.52,1.52,0,0,0,.3-.32c.79-1,1.65-1.9,2.49-2.84.43-.47.82-1,1.23-1.48a2.83,2.83,0,0,1,.25-.24l.31-.31c1-1.16,2-2.26,3-3.47.22-.27,1.41-1.46,1.65-1.79S57.92,425.3,58,425.12Z"/><path class="cls-1" d="M89.09,368.77c-.07.22-.34.19-.73,0a1,1,0,0,1-.39-.42,2,2,0,0,1,.07-.45c0-.09.73-1.05,1-1.38a5,5,0,0,1,.79-.87L91.52,364a1.84,1.84,0,0,1,.43-.3,6.64,6.64,0,0,0,1.41-1.11.5.5,0,0,0,.19-.24A7.55,7.55,0,0,1,95,361l1.4-.75c.06,0,.11-.11.21-.09s.35-.08.48-.17a3.72,3.72,0,0,1,.58-.35,1.64,1.64,0,0,1,.4,0c.12,0,.26.25.26.29s.13.18.21.26l.08.1a6.94,6.94,0,0,1-.72,1.36s-1.32,1.34-1.5,1.51a.79.79,0,0,1-.29.18c-.05,0-1.1,1.09-1.15,1.12a2.05,2.05,0,0,1-.78.5.46.46,0,0,0-.16.11,13.08,13.08,0,0,1-1.26,1,7.72,7.72,0,0,0-.61.53l-.14.07a1.29,1.29,0,0,0-.16.09A17.27,17.27,0,0,0,90.44,368c-.1.1-.74.44-.85.58S89.12,368.67,89.09,368.77Z"/><path class="cls-1" d="M80.21,411.61c-.11.23-.37.23-.71.11-.11,0-.31-.27-.29-.35a2,2,0,0,1,.13-.43c0-.08.83-1.07,1.07-1.42a10.56,10.56,0,0,1,.8-.95c.57-.62,1.12-1.25,1.67-1.89a3,3,0,0,1,.4-.39,7.92,7.92,0,0,0,1.29-1.42.61.61,0,0,0,.16-.28A10.24,10.24,0,0,1,86,402.9c.43-.37.83-.77,1.25-1.16.06-.05.09-.13.19-.15s.32-.19.44-.32a5,5,0,0,1,.51-.52,1,1,0,0,1,.37-.16c.12,0,.28.14.28.19s.14.13.23.19l.09.06a8.4,8.4,0,0,1-.57,1.54l-1.31,1.93a1.28,1.28,0,0,1-.26.26s-1,1.39-1.05,1.43a2.78,2.78,0,0,1-.75.7.43.43,0,0,0-.15.15,16.26,16.26,0,0,1-1.24,1.25c-.22.21-.42.44-.63.65a.45.45,0,0,1-.13.1,1,1,0,0,0-.16.13c-.49.52-1,1-1.51,1.5-.11.13-.78.56-.91.7S80.26,411.53,80.21,411.61Z"/><path class="cls-1" d="M37.61,367.83a3.22,3.22,0,0,1-1.11-1.49.21.21,0,0,1,.3-.25c.34.22.69.44,1,.68a40.13,40.13,0,0,1,4.08,3.83,29.11,29.11,0,0,1,2.53,3,78.47,78.47,0,0,1,4.44,6.65,15.4,15.4,0,0,1,.85,1.54q1.34,2.71,2.8,5.34a5,5,0,0,0,.53.85c.33.43,2.94,5.15,3.25,5.77.38.79.75,1.57,1.13,2.34l1.22,2.28a3.23,3.23,0,0,1,.35.66,5.72,5.72,0,0,0,.73,1.41c.37.65.8,1.26,1.18,1.9.19.31.34.66.5,1s-.12.29-.21.21c-.26-.22-.17.06-.22.14s0,.06-.07.06a5.89,5.89,0,0,1-.51-.49l-1.11-1.11a20.86,20.86,0,0,1-1.75-2s-.28-.36-.62-.88-.81-1.21-1.29-1.91c-.91-1.43-1.86-2.93-2-3.24a9.63,9.63,0,0,1-.5-1l-2.65-4.73a23.49,23.49,0,0,1-1.35-2.82,2.89,2.89,0,0,0-.27-.56c-.87-1.56-1.64-3.16-2.47-4.73-.42-.81-.91-1.56-1.36-2.35-.08-.14-.15-.29-.22-.44s-.2-.36-.31-.53c-.59-.89-1.13-1.82-1.76-2.68L41.8,373c-.32-.43-.66-.84-1-1.25-.17-.18-.56-.78-1-1.33s-.93-1.11-1.12-1.31A12.37,12.37,0,0,0,37.61,367.83Z"/><path class="cls-1" d="M52.45,357.39a1.17,1.17,0,0,1-.43-1.17c0-.16.29-.4.42-.34s.49.24.72.38a32.07,32.07,0,0,1,2.52,2.51,17.07,17.07,0,0,1,1.57,1.94c1,1.38,1.92,2.77,2.8,4.2a7.11,7.11,0,0,1,.53,1,33.68,33.68,0,0,0,1.83,3.34,2.1,2.1,0,0,0,.36.52,27.31,27.31,0,0,1,2.08,3.65c.4,1,.84,2,1.28,3.05a1.06,1.06,0,0,1,.16.45,2.16,2.16,0,0,0,.33,1c.2.43.4.85.58,1.29a5,5,0,0,1,.19.69c0,.21-.18.22-.24.17s-.17.06-.23.12,0,.05-.08.05a1.94,1.94,0,0,1-.32-.32l-.66-.74c-.49-.55-1-1.13-1.09-1.26s-.57-.88-1.14-1.78l-1.28-2a3.83,3.83,0,0,1-.3-.65l-1.73-2.92a9.56,9.56,0,0,1-.84-1.77,1.89,1.89,0,0,0-.17-.35c-.58-1-1.08-2-1.62-2.94-.26-.51-.59-1-.89-1.46,0-.09-.09-.19-.13-.28a3.65,3.65,0,0,0-.18-.34,36.15,36.15,0,0,0-2.3-3.31c-.18-.24-1-1.5-1.22-1.75S52.61,357.49,52.45,357.39Z"/><path class="cls-1" d="M31.55,412.43A4.13,4.13,0,0,1,30.6,411c-.05-.16.1-.26.25-.13l.86.76c.18.16,2.71,2.91,3.55,3.85s1.63,1.85,2.4,2.8c1.59,1.94,3.15,3.89,4.67,5.87.34.44.66.9,1,1.35,1.06,1.56,2.16,3.17,3.19,4.79A6.28,6.28,0,0,0,47,431c.35.4,3,4.82,3.3,5.37q1.2,2.16,2.56,4.18a4.77,4.77,0,0,1,.37.59,5.21,5.21,0,0,0,.88,1.21c.45.54.93,1,1.41,1.54.25.24.47.5.7.76s0,.24-.1.19c-.28-.17-.12.05-.13.12s0,.06,0,.06l-.16-.1-.41-.26c-.35-.22-.76-.57-1.2-.91a22.56,22.56,0,0,1-1.82-1.71s-.29-.32-.67-.78-.87-1.08-1.36-1.72c-1-1.31-1.85-2.72-2.05-3a10.63,10.63,0,0,1-.53-.93L45,431.32c-.5-.84-1.08-1.62-1.52-2.48a3.82,3.82,0,0,0-.33-.49c-1-1.36-1.91-2.79-2.88-4.18-.49-.71-1-1.4-1.52-2.1l-.25-.39c-.11-.17-.22-.33-.34-.49-1.22-1.64-2.42-3.3-3.72-4.88-.3-.37-1.63-2.19-2-2.6C32.28,413.48,31.74,412.62,31.55,412.43Z"/><path class="cls-1" d="M78.68,420.61c-.06-.18-.06-.34-.1-.48s0,0,0,0a2,2,0,0,0,.17.27,5.93,5.93,0,0,0,.91,1.14,6,6,0,0,1,.7.74c.42.52.87,1,1.34,1.5a3,3,0,0,1,.27.35,6.54,6.54,0,0,0,1,1.2c.06.06.11.14.21.16a7.5,7.5,0,0,1,1.21,1.24c.18.45.38.89.58,1.32,0,.06.09.11.07.2a.53.53,0,0,0,.14.44,2.35,2.35,0,0,1,.27.55,1.18,1.18,0,0,1,0,.34c0,.1-.17.18-.21.17s-.13.08-.19.14L85,430a10.08,10.08,0,0,1-1.2-.63l-.67-.58-.49-.4-.26-.26a.77.77,0,0,1-.14-.27c-.05,0-.94-1-1-1.06a2,2,0,0,1-.41-.74.34.34,0,0,0-.09-.15,9.27,9.27,0,0,1-.7-1.28l-.36-.66s0-.08,0-.13a1,1,0,0,0-.06-.16,9.13,9.13,0,0,1-.68-1.64c0-.13-.16-.78-.2-.93S78.7,420.68,78.68,420.61Z"/><path class="cls-1" d="M83.42,380.79c-.18-.07-.09-.29.14-.61a1,1,0,0,1,.44-.29,1.59,1.59,0,0,1,.38.07c.06,0,.75.67,1,.89a3.48,3.48,0,0,1,.58.69L87,383a1.49,1.49,0,0,1,.17.36,3.48,3.48,0,0,0,.68,1.16s.08.12.18.14a3.72,3.72,0,0,1,.87,1.16c.1.39.29.72.41,1.12,0,.05.07.08,0,.17s0,.28.09.39a2.73,2.73,0,0,1,.24.45.76.76,0,0,1,0,.31c0,.1-.17.23-.21.23s-.13.11-.19.18a.23.23,0,0,1-.07.07,5.92,5.92,0,0,1-1.2-.44l-.21-.16a4.28,4.28,0,0,1-.42-.37l-.66-.64a.55.55,0,0,1-.12-.24s-.83-.93-.84-1c-.11-.22-.29-.4-.28-.69,0-.06,0-.1,0-.14a6.41,6.41,0,0,1-.56-1.11,5.89,5.89,0,0,0-.32-.54s0-.08,0-.12,0-.1,0-.14a11.17,11.17,0,0,0-.75-1.25,7.38,7.38,0,0,0-.29-.73C83.41,381.15,83.49,380.82,83.42,380.79Z"/><path class="cls-1" d="M68.55,337a1.54,1.54,0,0,1-.53-1.42c0-.19.33-.43.47-.34a8.88,8.88,0,0,1,.83.52c.17.11,2.3,2.34,3,3.11s1.34,1.51,2,2.3L78.09,346c.28.36.54.74.78,1.12a32.61,32.61,0,0,0,2.78,3.71,2.82,2.82,0,0,0,.53.56c.17.13.93,1,1.68,1.87s1.53,1.76,1.68,2c.77,1.11,1.61,2.16,2.45,3.21a1.41,1.41,0,0,1,.35.46,3.08,3.08,0,0,0,.73,1c.38.44.78.87,1.14,1.32a7.17,7.17,0,0,1,.46.75c.14.24-.14.33-.22.29-.25-.12-.18.11-.23.21l-.07.09a4,4,0,0,1-.49-.29l-1-.67A16.09,16.09,0,0,1,87,360.47s-.25-.24-.61-.57l-1.28-1.25L83,356.53a4.77,4.77,0,0,1-.53-.72c-.1-.1-2.71-3.07-2.79-3.21a11.68,11.68,0,0,1-1.39-2,2.21,2.21,0,0,0-.28-.4c-.86-1.1-1.64-2.26-2.43-3.41-.41-.58-.85-1.14-1.27-1.71-.08-.11-.13-.22-.2-.33s-.16-.28-.26-.41c-1-1.33-2-2.72-3.06-4-.24-.3-1.25-1.85-1.55-2.18S68.73,337.17,68.55,337Z"/><path class="cls-1" d="M80.33,397.78a.73.73,0,0,1-.1-.77c0-.09.22-.19.29-.14s.27.21.39.32,1,1.32,1.3,1.74.59.83.86,1.26l1.67,2.62a5.76,5.76,0,0,1,.33.6,16.11,16.11,0,0,0,1.14,2.08,1.18,1.18,0,0,0,.23.32,15.07,15.07,0,0,1,1.27,2.32c.24.71.46,1.32.69,2a.57.57,0,0,1,.07.29,1.23,1.23,0,0,0,.13.64,8.47,8.47,0,0,1,.25.86,3.59,3.59,0,0,1,0,.47c0,.14-.19.14-.23.11s-.15,0-.21.08l-.07,0s-.3-.34-.6-.69a8.33,8.33,0,0,1-.65-.8L86.5,410c-.33-.56-.67-1.15-.75-1.27a2,2,0,0,1-.16-.4c0-.07-1.06-1.74-1.09-1.8a4.18,4.18,0,0,1-.48-1.13,1.09,1.09,0,0,0-.09-.23c-.34-.61-.62-1.25-.93-1.88-.15-.33-.34-.63-.51-.95a1.27,1.27,0,0,1-.06-.18c0-.08-.06-.16-.1-.23-.41-.74-.77-1.51-1.22-2.24-.1-.16-.45-1-.57-1.23S80.41,397.87,80.33,397.78Z"/><path class="cls-1" d="M228.94,245.72a14.35,14.35,0,0,1,4.23-.75l.8,0c.27,0,.54,0,.8.08l.7.1.68.21a5.37,5.37,0,0,1,1.31.53,10.08,10.08,0,0,1,2.25,1.6,17.76,17.76,0,0,1,1.61,1.76,9,9,0,0,1,1.58,2.55c.11.29-.18.39-.57.31a1.91,1.91,0,0,1-1.21-.73,14.35,14.35,0,0,0-3.88-3.78l-.71-.39a5.16,5.16,0,0,0-.79-.24,8.11,8.11,0,0,0-1.64-.24,11.35,11.35,0,0,0-3.72.46,8.92,8.92,0,0,0-1.14.37,11.72,11.72,0,0,0-1.11.45,21.08,21.08,0,0,0-3.26,1.71,27.16,27.16,0,0,0-2.23,1.74l-.47.41c-.61.48-.86.56-1.22.38-.08,0-.18-.07-.24-.11-.24-.17-.13-.55.26-1a19.93,19.93,0,0,1,4.15-3.55,15.69,15.69,0,0,1,3.8-1.89Z"/><path class="cls-1" d="M138.86,307.27c2.51-5.78,4.52-11.87,6.47-17.94.71-2.22,1.34-4.47,2-6.7,2.35-7.86,4.45-15.82,6.08-23.86A104.62,104.62,0,0,0,155,248c.1-1.15.18-2.3.21-3.45s.08-2.31,0-3.45a21,21,0,0,0-.35-3.38,6.14,6.14,0,0,0-1.28-2.94c-.46-.45-.72-.58-.66-.68s.44-.09,1,.25a4.79,4.79,0,0,1,1.74,2.11,12.06,12.06,0,0,1,1,3.68,37.28,37.28,0,0,1,.13,7.31c-.16,2.41-.44,4.81-.79,7.19s-.77,4.74-1.24,7.1-1.06,4.7-1.66,7c-1.45,5.58-2.86,11.4-4.54,17.05-1.83,6.21-3.89,12.36-6.26,18.4-.74,1.86-1.51,3.71-2.41,5.53-.23.45-.46.9-.73,1.35s-.59.88-.89,1.31c-.64.79-1.28,1.57-1.95,2.31-4.06,4.5-8.35,8.75-12.39,13.13-3.16,3.41-6.13,6.85-9,10.39l-1.86,2.36c-2.32,2.94-3,3.87-3.87,4.29a3.52,3.52,0,0,1-.54.28c-.47.13.13-1.34,1.69-3.66,4.7-6.85,10.64-13.23,16.55-19.6,2.2-2.36,4.43-4.7,6.58-7.08,1.08-1.18,2.13-2.39,3.07-3.6a18,18,0,0,0,2.16-4Z"/><path class="cls-1" d="M120.9,309.4a10.15,10.15,0,0,0,1.17-2.12c.09-.29.16-.57.25-.87.3-1,.5-2.15.71-3.27l.25-1.5a6,6,0,0,1,.59-1.88c.1-.18.25-.08.36.14a1.48,1.48,0,0,1,.12.89c-.24,1.22-.29,2.48-.52,3.79-.14.77-.15,1.61-.32,2.44a9.71,9.71,0,0,1-.94,2.63,14,14,0,0,1-.92,1.43c-.49.7-1.05,1.33-1.56,2s-.7,1-1.06,1.55a3.81,3.81,0,0,1-.24.32c-.33.39-.5.47-.79.4l-.19,0c-.2-.07-.23-.34-.11-.73s.2-.57.31-.86.28-.53.43-.78c.31-.51.65-1,1-1.48a24.08,24.08,0,0,0,1.46-2Z"/><path class="cls-1" d="M164.46,442.29c.56-1.25,1.15-2.48,1.76-3.7.23-.44.39-.91.62-1.35.84-1.55,1.76-3,2.71-4.51.42-.65.82-1.32,1.21-2a9.68,9.68,0,0,1,1.77-2.4c.46-.41,1.31,1.24.73,2.13-1,1.6-2,3.24-3.14,4.88a22,22,0,0,0-1.59,3.23c-.55,1.21-1.09,2.42-1.59,3.66-.31.76-.61,1.53-.9,2.29-.43,1.17-.87,2.35-1.19,3.54-.25.93-.38,1.87-.57,2.81,0,.2-.07.4-.13.61-.25.74-.53.93-1,1-.1,0-.2,0-.3,0-.3,0-.5-.38-.59-1a11.2,11.2,0,0,1,.12-2.71,13.88,13.88,0,0,1,.62-2.68c.39-1.31.87-2.6,1.38-3.88Z"/></g></svg>