<?xml version="1.0" encoding="UTF-8"?>
<svg id="Layer_29" data-name="Layer 29" xmlns="http://www.w3.org/2000/svg" viewBox="0 0 520 520">
  <defs>
    <style>
      .cls-1, .cls-2 {
        fill: #231f20;
      }

      .cls-3, .cls-2 {
        opacity: .35;
      }
    </style>
  </defs>
  <path class="cls-1" d="M344.19,251.61c0-.38,2.98-11.48,2.98-11.48,0,0,4.99,4.49,6.37,8.83,1.39,4.34-.3,5.11-4.44,4.04-4.14-1.07-4.91-1.38-4.91-1.38Z"/>
  <path class="cls-1" d="M368.05,191.81c.05,.04,.14,.04,.24-.02,.02-.01,.05-.03,.08-.05l.03-.02c.03-.05,.08-.12,.11-.18,.14-.26,.31-.51,.44-.78,.2-.39,.29-.83,.46-1.24,.59-1.45,1-3.09,.81-4.54-.08-.63-.38-1.18-.75-1.41-.06-.03-.12-.06-.18-.1-.07-.01-.14-.03-.21-.05-.14-.04-.28-.13-.46-.15-.12-.02-.12-.05-.34-.06-.25-.02-.43-.08-.57-.14-.14-.06-.25-.13-.32-.17-.05-.05-.1-.07-.16-.06-.06,.02-.1-.03-.15-.17-.04-.12-.1-.38,0-.67,.05-.13,.15-.25,.3-.37,.17-.09,.34-.17,.49-.24,.15-.08,.28-.15,.32-.24v-.03s.02-.04,.01,.04c-.01,.1,0,.25-.01,.3v.11s0,.03,0,.03h0c.01,.13-.11-1.14-.06-.6h0s0,0,0,0h0s.04-.02,.04-.02l.15-.05c.18-.05,.37-.1,.56-.14,.21-.02,.42-.03,.63-.04,.22-.03,.44,.07,.65,.13,.22,.06,.42,.16,.62,.28,.81,.45,1.39,1.16,1.73,1.84,.67,1.37,.67,2.67,.48,3.84-.24,1.39-.34,2.78-.77,4.11-.25,.72-.54,1.42-.91,2.1-.48,.9-1.16,1.83-1.82,2.49-.84,.83-1.71,1.34-2.62,1.63-.69,.2-1.43,.26-2.12,.07-.17-.05-.35-.14-.48-.28-.13-.13-.18-.28-.2-.41-.05-.26-.03-.5-.03-.75,.02-.39-.06-.72-.09-1.32-.05-.59,.28-1.55,.3-2.34,0-.09,0-.18-.02-.25-.01-.03-.02-.05-.04-.08-.04-.04-.05-.09-.08-.13-.08-.31,.02-.51,.57-1.2l.32-.45c.31-.43,1.12-.69,1.8,.07,.23,.27,.47,.59,.59,.94,.07,.17,.13,.35,.17,.53,.03,.03,.05,.03,.08,.05,.09,.04,.15,.04,.2,.02,.09-.04,.13-.1,.13-.1-.01,0-.05,.18,.02,.18l.02,.12Z"/>
  <path class="cls-1" d="M356.88,186.63c.39-.74,.74-1.54,.8-2.29,.04-.48,.06-.41,.05-.55,0-.1-.04-.23-.14-.29-.16-.1-.34,.02-.49,.07-.32,.16-.8,.52-1.21,.89-.43,.38-.86,.81-1.29,1.26-.87,.89-1.73,1.86-2.79,2.73-.92,.76-1.89,1.46-2.9,2.07-.65,.39-1.32,.76-2.02,1.04-.35,.15-.71,.26-1.07,.36-.36,.1-.73,.17-1.13,.08-.51-.17-.51-.42-.31-1.09,.19-.73,.62-1.51,1.29-1.8,1.19-.54,2.29-1.19,3.32-1.95,.53-.38,1-.78,1.48-1.21,.5-.43,1.01-.92,1.54-1.42,.65-.59,1.24-1.29,1.92-1.99,.33-.35,.71-.71,1.12-1.05,.36-.3,1.11-.79,1.8-.94,.78-.2,1.58-.1,2.25,.27,.66,.4,1.09,1.09,1.26,1.85,.1,.37,.13,.78,.14,1.16,0,.36-.03,.61-.07,.91-.08,.57-.22,1.1-.34,1.62-.36,1.28-.9,2.47-1.55,3.59-1,1.7-2.34,3.17-3.88,4.43-1.19,.98-2.49,1.94-4.06,2.47-.34,.13-.68,.23-1.05,.31-.68,.02-1.14-.05-1.44-.27-.3-.24-.46-.54-.56-.95-.05-.19-.11-.37-.13-.54-.03-.3,.08-.56,.28-.83,.2-.28,.49-.53,.83-.72,.25-.13,.48-.31,.72-.4,.23-.1,.47-.2,.69-.32,.45-.2,.87-.48,1.31-.71,.87-.47,1.72-1.09,2.52-1.83,1.17-1.1,2.28-2.47,3.04-3.99l.07,.02Z"/>
  <path class="cls-1" d="M364.51,188.41c.97-1.54,1.69-3.44,2.03-5.31,.12-.69,.11-1.38,.13-2.03,.08-1.48-.32-2.91-1.16-3.67-.15-.22-1.22-.25-2.14-.2-1.16,.05-2.34,.32-3.49,.57-1.47,.35-2.99,.74-4.38,1.14-.38,.12-.58-.11-.38-.65,.21-.52,.78-1.3,1.62-1.74,1.45-.73,2.93-1.41,4.53-1.74,.8-.18,1.61-.34,2.48-.4,.45,0,.89-.02,1.41,.04,.22,0,.61,.1,.94,.2,.17,.03,.33,.11,.48,.2,.15,.09,.31,.15,.45,.25,.13,.08,.26,.22,.34,.29,.97,.89,1.59,2.05,1.96,3.18,.37,1.14,.5,2.28,.47,3.37-.1,2.41-.8,4.63-1.77,6.73-.3,.64-.65,1.27-1.06,1.89-.05,.08-.1,.15-.16,.23l-.22,.31c-.15,.2-.32,.38-.47,.57-.32,.36-.68,.66-1.06,.91-.43,.27-.9,.42-1.41,.44-.54-.03-1.09-.21-1.5-.56-.42-.34-.71-.81-.92-1.33-.2-.52-.33-1.09-.38-1.67-.04-.32-.04-.52-.05-.74,0-.22-.01-.44,0-.66,.03-1.65,.03-3.26,.35-4.85,.07-.35,.13-.7,.23-1.05,.1-.32,.21-.59,.32-.8,.13-.21,.31-.36,.46-.47,.31-.23,.62-.31,.98-.28,.17,.01,.33,.01,.46,.06,.39,.19,.59,.69,.73,1.62-.04,.64-.07,1.3-.09,1.96-.02,.66-.11,1.31-.15,1.96-.05,.65-.09,1.29-.09,1.89,0,.29,.01,.63,.03,.83h0s-.02,.01,0,.04c0,.02,.02,.03,.05,.03,0,0,.03-.02,.03,0,0,.01,.12-.17,.17-.25,.07-.11,.14-.21,.2-.32l.07,.04Z"/>
  <path class="cls-1" d="M352.72,173.19c-4.99,3.08-9.59,7.08-10.72,12.8-.56,2.12-.93,4.3-1.31,6.47-.69,3.85-1.15,7.77-1.82,11.73-.33,1.97-.76,3.98-1.3,5.91-.53,1.91-1.07,3.82-1.63,5.73-1.02,3.38-2.11,6.79-3.5,10.05-1.79,4.15-3.99,8.36-7.49,11.35-1.03,.97-1.02,.71-.53-.41,.24-.56,.62-1.33,.91-2.35,.38-.96,.92-1.98,1.51-3.08,.27-.49,.54-.96,.78-1.46,.26-.49,.54-.96,.78-1.46,.51-.98,.97-1.99,1.42-3,.88-2.04,1.63-4.13,2.33-6.27,.69-2.14,1.32-4.31,1.96-6.5l.94-3.3c.32-1.1,.59-2.15,.83-3.25,1.15-5.27,1.38-11.08,2.47-16.71,.29-1.55,.63-3.09,1.04-4.62l.31-1.15c.12-.4,.25-.81,.4-1.21,.3-.79,.66-1.55,1.07-2.28,1.66-2.91,4.01-5.24,6.53-7.2,3.12-2.42,6.55-4.32,10.08-5.93,2.07-.94,4.19-1.76,6.35-2.45,.54-.17,1.09-.34,1.64-.49l.83-.22c.29-.08,.75-.18,1.12-.26,.77-.16,1.56-.28,2.2-.19,.32,.06,.62,.08,.88,.31,.12,.12,.14,.3,.21,.44,.07,.15,.11,.31,.14,.48,.11,.84,.08,1.72-.23,2.6-.11,.44-.37,.85-.55,1.28-.22,.33-.39,.65-.62,.94-1.52,1.99-3.53,3.31-5.59,4.37-.52,.24-1.04,.51-1.57,.72l-1.5,.62c-.89,.4-1.72,.94-2.55,1.56-.73,.55-1.41,1.18-2.17,1.8-1.43,1.14-2.58,1.83-3.46,2.14-.89,.3-1.49,.27-2.01,.04-.24-.11-.52-.2-.67-.33-.25-.23-.06-.59,.4-1.01,.46-.46,1.18-1.03,2.11-1.85,1.26-1.12,2.51-2.43,4.13-3.65,.8-.61,1.69-1.19,2.69-1.66l1.4-.59c.4-.16,.8-.32,1.18-.51,1.54-.72,3-1.59,4.12-2.62,.29-.25,.53-.53,.76-.8,.1-.14,.23-.27,.31-.41l.21-.32s0-.01,0-.01h0s0,0,0,0h0s0,0,0,0l-.13,.03-.26,.07c-.7,.18-1.41,.39-2.12,.62-1.42,.45-2.83,.97-4.22,1.53-2.78,1.13-5.49,2.46-8.01,4.03l-.05-.06Z"/>
  <path class="cls-1" d="M350.55,225.08c-.49,2.19-.93,4.41-1.34,6.63-.15,.81-.21,1.64-.36,2.45-.5,2.87-1.17,5.73-1.69,8.61-.22,1.28-.44,2.57-.65,3.84-.15,.82-.21,1.65-.48,2.45-.23,.81-.52,1.6-.84,2.39-.21,.49-.37,.38-.57-.11-.18-.48-.52-1.35-.6-2.32-.01-.43-.09-.86-.05-1.28l.09-1.25,.22-2.51c.26-1.66,.57-3.33,.95-4.99,.45-1.99,.6-4.11,.98-6.17,.4-2.26,.84-4.53,1.31-6.78,.29-1.39,.6-2.78,.93-4.16,.49-2.1,1.08-4.19,1.68-6.26,.46-1.61,.91-3.23,1.73-4.77,.2-.34,.35-.68,.61-1,.92-1.19,1.57-1.34,2.1-1.11,.12,.05,.26,.1,.35,.17,.16,.12,.17,.34,.1,.6-.03,.13-.09,.26-.16,.42-.06,.17-.14,.35-.25,.53-.55,1.15-.96,2.48-1.31,3.85-.39,1.36-.83,2.76-1.19,4.21-.55,2.14-1.06,4.35-1.5,6.57h-.07Z"/>
  <path class="cls-1" d="M311.41,459.97c1.96-.09,3.93-.11,5.89-.15,.72-.02,1.43-.09,2.14-.1,2.52-.01,5.04,.05,7.55,.12,1.11,.03,2.23-.01,3.34-.04,1.42-.12,2.85,.07,4.27,.23,.44,.06,.39,.18,.02,.38-.37,.19-1.04,.56-1.85,.76l-1.08,.25c-.36,.08-.72,.08-1.08,.12l-2.16,.17c-1.44,.09-2.89,.15-4.34,.14-1.74-.05-3.54,.17-5.32,.28l-5.85,.36-3.6,.25c-1.82,.16-3.65,.29-5.44,.55-1.39,.2-2.74,.58-4.12,.78-.3,.05-.6,.12-.9,.15-.57,.06-.95,.07-1.23-.03-.28-.12-.46-.3-.62-.55-.07-.11-.16-.22-.21-.33-.08-.18-.01-.36,.17-.57,.18-.21,.48-.47,.89-.59,1.2-.43,2.44-.87,3.72-1.14,1.28-.24,2.59-.42,3.91-.57,1.96-.23,3.93-.37,5.91-.53v.07Z"/>
  <path class="cls-1" d="M294.5,461.84c3.82,.23,7.66,.38,11.49,.54,1.4,.06,2.8,0,4.2,.05,4.94,.16,9.88,.2,14.83,.25,2.2,0,4.4-.05,6.58-.11,1.4-.03,2.8-.12,4.2-.1,1.4,.04,2.81,.13,4.21,.2,.87,.06,.76,.1,.03,.28-.73,.16-2.08,.57-3.68,.87-.36,.06-.71,.13-1.07,.17l-1.07,.09-2.14,.17-4.28,.29c-2.86,.16-5.73,.31-8.62,.25-3.45-.05-7.04,.17-10.58,.2-3.88,.03-7.77-.03-11.66-.17-2.39-.11-4.78-.19-7.17-.33-3.62-.18-7.25-.45-10.84-.73-2.79-.15-5.53-.31-8.3-.46-.61-.04-1.21-.07-1.81-.17-2.25-.35-2.95-.65-3.36-1.29-.09-.15-.22-.3-.27-.43-.16-.46,.81-.73,2.48-.79,.62-.02,1.24-.03,1.87-.05,.62-.01,1.25,.04,1.88,.04,1.26,.03,2.52,.07,3.8,.14,2.55,.11,5.13,.23,7.72,.34,3.84,.24,7.7,.53,11.56,.67v.07Z"/>
  <path class="cls-1" d="M321.07,457.46c-1.1-.09-2.2-.18-3.29-.21-.4-.02-.8,.06-1.2,.02-1.41-.1-2.84-.16-4.26-.12-.63,.02-1.26,.11-1.89,.15-.8,.09-1.61,.2-2.44,.13-.26-.03-.26-.29-.1-.61,.17-.31,.51-.73,.96-.89,.8-.25,1.61-.53,2.44-.66,.83-.1,1.68-.16,2.53-.13,1.02,.04,2.06-.18,3.1-.21,1.14,0,2.28,.04,3.42,.1l2.09,.12c1.05,.05,2.1,.15,3.15,.15,.81-.02,1.61-.11,2.41-.14,.18,0,.35-.03,.53-.02,.65,.14,.85,.35,.98,.8,.03,.11,.07,.21,.08,.31,.05,.33-.23,.62-.72,.85-1.45,.58-2.95,.66-4.45,.58-1.11-.03-2.23-.12-3.34-.17v-.06Z"/>
  <path class="cls-1" d="M96.28,443.43c-3.01,0-6.03,.05-9.04,.12-1.1,.03-2.2,.13-3.3,.14-3.88,.06-7.77,.11-11.65,.26-1.72,.05-3.45,.22-5.16,.3-1.1,.07-2.2,.13-3.29,.2-1.1,.09-2.21-.06-3.32-.11-.69-.06-.61-.25-.05-.58,.28-.17,.68-.38,1.16-.61,.24-.11,.5-.23,.78-.34,.14-.06,.28-.1,.43-.16,.15-.03,.3-.05,.46-.08,4.45-.69,8.93-.94,13.47-.97,2.71-.01,5.52-.32,8.29-.45,3.04-.14,6.1-.2,9.14-.28l5.63-.09c2.84-.02,5.7-.04,8.53-.06,2.2-.04,4.35-.2,6.53-.17,.48,0,.95-.03,1.43,.04,1.79,.24,2.34,.48,2.69,1,.08,.12,.19,.24,.23,.35,.15,.36-.6,.66-1.91,.86-1.94,.37-3.9,.39-5.9,.54-2,.02-4.03,.04-6.06,.06-3.02,.03-6.06,.02-9.1,.09v-.07Z"/>
  <path class="cls-1" d="M99.59,445.43l-7.52-.09c-.91,0-1.83,.05-2.74,.04-3.22-.06-6.45-.12-9.67-.17-1.43-.02-2.87,.02-4.28,.06-.91,.03-1.82,.07-2.73,.1-.91-.02-1.83-.08-2.74-.23-.57-.25-.5-.24-.03-.6,.47-.34,1.34-.8,2.39-1,3.72-.26,7.43-.38,11.19-.27,2.25,.1,4.58-.06,6.87-.09l7.57-.05,4.66-.03c2.35-.03,4.72-.03,7.05-.13,1.81-.07,3.59-.34,5.38-.45,.39-.03,.78-.07,1.18-.09,1.48-.07,1.95,.19,2.28,.74,.08,.13,.17,.26,.22,.38,.15,.42-.44,.82-1.51,1.08-3.19,.65-6.57,.74-9.97,.81-2.52,.05-5.06,.03-7.58,.05v-.06Z"/>
  <path class="cls-1" d="M317.55,303.91c-14.56,9.1-33.29-2.31-33.29-2.31,0,0,5.76,9.05,16.26,8.99,9.15-.05,17.04-6.67,17.04-6.67Z"/>
  <path class="cls-1" d="M290.01,370.23c8.56,6.24,14.47,8.88,22.85,15.36,8.05,6.23,18.74,16.59,23.95,25.51,4.64,7.94,5.62,14.9,2.42,24.87-1.38,4.29,8.8-8.55,8.16-15.85-.64-7.3-3.94-16.52-9.27-21-5.33-4.48-12.63-13.77-34.08-23.43-8.09-3.64-14.04-5.46-14.04-5.46Z"/>
  <path class="cls-1" d="M163.31,392.72s-5.43-8.51,3.52-28.98c0,0,22.4,8.52,27.4,8.31,0,0,3.66,6.21,9.38,4.49,4.75-1.43,10.25-7.83,12.2-10.68,0,0,11.8-.03,15.96,3.32s13.12,8.3,21.34,6.05c0,0,16.36,.87,21.51,4.09,.68,1.34,7.83,.27,9.66-2.92,.62-1.09,1.05,.5,7.06,3.92,0,0,18.24,11.08,27.15,21.48,8.9,10.4,18.53,21.23,18.96,33.31,.44,12.08-14.19,21.16-18.12,23.66s-26.48,5.54-56.81,1.3c-30.33-4.24-65.93-14.28-144.29-15.33,0,0,5.57-24.92,31.82-39.22,10.73-5.85,84.15-3.49,139.97,22.25,0,0-21.89-18.25-59.46-25.23,0,0-67.41,.51-67.24-9.83Z"/>
  <path class="cls-1" d="M234.24,251.64s-2.37-3.15-2.64,.23c-.27,3.38,.4,5.12,2.24,4.68s.4-4.91,.4-4.91Z"/>
  <path class="cls-1" d="M233.66,258.73s.66-3.59-2.23-1.51c-2.88,2.09-2.84,4.02-1.8,5.07s3.17,1.26,3.73,.3,.3-3.87,.3-3.87Z"/>
  <path class="cls-1" d="M183.53,291.48s-1.26-4.31,.73-5.12,5.68-2.99,5.68-2.99l-6.4,8.11Z"/>
  <path class="cls-1" d="M145.62,404.19s-6.39-5.82-18.17-1.63c-11.46,4.08-16.08,20.05-16.08,20.05,0,0-4.74-1.1-14.54,1.65-9.8,2.76-17.89,4.62-19.65,8.35-1.75,3.73-5.13,7.22,5.1,8.53,10.23,1.31,34.12-4.44,38.06-1.79,0,0,10.49-26.45,25.28-35.17Z"/>
  <path class="cls-1" d="M285.33,425.15s-29.7-26.58-95.67-27.76l10.11,3.18s53.33,5.33,80.77,23.19l4.79,1.39Z"/>
  <path class="cls-1" d="M209.31,367.28s20.34,0,23.39,3.85c2.16,2.72,9.08,6.55,15.95,5.77,9.67-1.09,16.27-.22,22.5,2.01,6.24,2.22,3.29-2.46-3.11-3.75-6.4-1.29-10.21-.45-16.47-.91s-8.22,.26-12.97-3.54c-4.75-3.8-4.18-2.84-9.89-4.36-5.71-1.52-16.29-2.6-16.29-2.6l-3.11,3.54Z"/>
  <path class="cls-1" d="M192.21,371.51s-12.04-1.05-17.53,.83c-11.91,4.08-7.17,28.56-10.59,20.85-3.56-8.04,.99-21.7,2.28-24.89,1.28-3.19,3.69-2.24,3.69-2.24l22.15,5.45Z"/>
  <path class="cls-1" d="M207.25,352.81c-.89,1.04-1.73,2.12-2.5,3.26-.28,.42-.49,.87-.76,1.29-.96,1.48-1.85,3.03-2.56,4.65-.33,.72-.59,1.46-.8,2.21-.17,.96-.67,1.92-.74,2.8-.01,.17-.03,.34-.33,.11-.25-.24-.58-.83-.66-1.49-.03-.29-.05-.58-.07-.87-.01-.29,.06-.56,.1-.83,.09-.55,.21-1.08,.36-1.6,.26-1.06,.75-2.04,1.27-2.99,.63-1.13,1.1-2.39,1.74-3.55,.7-1.27,1.48-2.49,2.31-3.67,.51-.73,1.05-1.44,1.59-2.14,.84-1.05,1.76-2.04,2.61-3.07,.34-.39,.64-.82,.95-1.23,.3-.42,.61-.84,.98-1.2,.16-.16,.3-.34,.47-.49,.64-.56,1-.57,1.51-.27,.12,.07,.24,.13,.34,.21,.34,.26,.34,.77,.06,1.34-.46,.79-.85,1.66-1.45,2.33-.57,.7-1.16,1.39-1.75,2.09-.88,1.04-1.74,2.09-2.6,3.16l-.05-.04Z"/>
  <path class="cls-1" d="M197.83,362.82c-.2,.54-1.82,9.42,1.94,9.44s10.46-5.95,11.83-8.52-13.77-.92-13.77-.92Z"/>
  <path class="cls-1" d="M341.25,250.45c-1.43-.73-2.8-1.56-4.15-2.4-.5-.3-1-.6-1.48-.93-1.67-1.19-3.28-2.47-4.77-3.86-.67-.61-1.31-1.26-1.97-1.87-.39-.42-.83-.8-1.19-1.26-.32-.49-.61-1.01-.9-1.51-.17-.32-.11-.31,.19-.17,.29,.15,.9,.35,1.48,.68,1.8,1.43,3.47,2.9,5.17,4.46,.5,.47,1.07,.88,1.66,1.27,.58,.41,1.19,.76,1.79,1.14,1.3,.84,2.65,1.6,4.03,2.33,.86,.42,1.71,.86,2.6,1.22,1.33,.58,2.69,1.1,4.08,1.49,1.08,.29,2.17,.44,3.26,.56,.24,.02,.47,.09,.71,.14,.88,.2,1.13,.43,1.27,.87,.03,.1,.08,.2,.09,.3,.05,.31-.36,.52-1.08,.61-1.07,.16-2.13,0-3.19-.22-1.06-.21-2.1-.54-3.14-.89-1.52-.56-3.02-1.2-4.47-1.92l.02-.04Z"/>
  <path class="cls-1" d="M297.52,272.11s7.54,3.63,8.83,4.21c1.9,.86,3.44,5.84,.41,4.71-6.23-2.32-9.23-8.92-9.23-8.92Z"/>
  <path class="cls-1" d="M235.52,251.39c-.18,.83-.36,1.67-.54,2.5-.07,.3-.08,.61-.16,.92-.34,1.05-.74,2.09-1.11,3.12-.16,.46-.31,.91-.46,1.37-.2,.58-.42,1.16-.74,1.69-.1,.17-.18,.1-.23-.09-.05-.19-.11-.52-.04-.86,.22-1.2,.34-2.4,.63-3.59,.19-.71,.14-1.49,.25-2.23,.12-.81,.26-1.63,.36-2.45,.07-.51,.13-1.01,.18-1.52,.06-.77,.19-1.55,.2-2.32,0-.6-.11-1.19-.09-1.78,0-.13-.01-.26,0-.39,.02-.49,.26-.64,.6-.74,.08-.02,.16-.05,.24-.06,.25-.04,.5,.16,.71,.53,.19,.54,.41,1.1,.49,1.66,.05,.56,.07,1.13,.06,1.71,.02,.85-.18,1.7-.29,2.55h-.05Z"/>
  <path class="cls-1" d="M241.27,224.31c-1.83,3.2-6.42,6.01-10.88,6.01-12.3,0-25.95-9.56-25.95-10.8,0,0,15.51,7.02,20.08,7.46,5.75,.54,16.74-2.66,16.74-2.66Z"/>
  <path class="cls-1" d="M282.88,112.62c-2.44,6.09-11.85,28.84-55.52,16.35-9.27-2.65-14.79-7.36-22.25-9.97,8.29,21.38-3.23,42.16-4.29,41.58-1.06-.57-9.71-8.54-17.31-3.84-6.22,3.84-1.06,12.4-1.06,12.4,0,0,.56,3.22-7.36,4.66-7.91,1.46-16.72-6.58-18.26-15.63-1.54-9.05,8.36-18.24,11.1-19.83s-.56-3.77-5.6-8.56c-5.04-4.79-8.45-8.13-4.22-21.04,4.43-13.53,17.22-14.38,26.64-11.03,1.15,.41,6.35,4.59,7.46,5.25-1.54-11.1-.73-19.17,7.31-25.61,15.75-12.61,27.85-1.62,33.74,9.42,3.13,5.87-8.65,3.16-5.58,16.19,.86,3.66,11.7,16.05,27.98,9.9,1.32-.5,16.01-7.68,5.62-16.96-4.85-4.34-20.07-1.9-19.16,7.06,.39,3.84,3.54,4.98,8.37,4.04-5.08,1.47-14.68,2.69-17.99-7.31-6.05-18.27,22.33-16.43,26.23-15.36,0,0,12.75,2.25,17.88,9.26,5.12,6.99,8.7,12.94,6.26,19.03Z"/>
  <path class="cls-1" d="M239.64,205.42c3.05,0,6.12-.56,8.86-1.74,1.36-.59,2.63-1.36,3.63-2.29,.25-.21,.5-.5,.74-.78l.74-.84c.42-.63,.92-1.19,1.27-1.87,1.16-1.89,1.91-4.03,2.52-6.23,1.05-3.9,1.41-8.07,1.44-12.25,.01-4.19-.27-8.42-.68-12.65-.34-3.76-.92-7.52-1.27-11.28-.23-2.41-.45-4.85-.48-7.31-.03-1.23,.04-2.47,.22-3.7,.06-.61,.21-1.23,.32-1.84,.16-.61,.39-1.2,.63-1.77,.69-1.41,.61-1.17,.59,.13,.06,1.33,.49,3.61,.7,6.28,.23,4.77,1.22,9.58,1.72,14.48,.59,4.9,1.12,9.87,1.21,14.92,.04,3.02,.05,6.11-.18,9.25-.23,3.13-.75,6.31-1.82,9.34l-.46,1.25-.56,1.21c-.34,.82-.84,1.58-1.27,2.36-1.02,1.51-2.05,2.9-3.5,4.17-2.9,2.39-6.33,3.59-9.78,4.22-4.27,.74-8.63,.41-12.75-.62-6.27-1.6-11.91-4.99-16.71-9.05-3.76-3.15-7.14-6.59-10.13-10.41-.64-.85-1.32-1.65-1.9-2.55-1.1-1.66-1.78-2.79-2.07-3.68-.28-.9-.3-1.5-.16-2.07,.06-.26,.09-.57,.19-.75,.16-.31,.55-.18,1.15,.28,.6,.46,1.4,1.26,2.23,2.4,2.55,3.31,5.22,6.62,8.17,9.69,2.96,3.06,6.2,5.89,9.78,8.17,5.29,3.37,11.41,5.54,17.6,5.44v.09Z"/>
  <path class="cls-1" d="M183.83,158.43c-1.42,1.49-1.67,4.31-1.05,6.95,.06,.49,.3,.93,.46,1.39,.15,.47,.4,.89,.61,1.33,1.46,3.15,4.37,5.62,7.79,6.93,1.53,.58,3.2,.7,4.81,.63,.51-.07,1.03-.12,1.54-.21,.5-.12,1.01-.23,1.52-.33,.97-.36,2.04-.52,3.11-.86,.68-.17,.73,.02,.42,.66-.16,.32-.4,.77-.74,1.31-.17,.28-.38,.54-.63,.77-.26,.21-.56,.4-.89,.57-2.33,1.16-5.05,1.43-7.63,1.13-2.58-.33-5.12-1.29-7.16-2.93-2.38-1.95-4.71-4.31-5.86-7.3-.27-.82-.62-1.63-.74-2.48l-.25-1.27-.12-1.28c-.1-1.72,.12-3.55,.94-5.22,.49-1.02,1.19-1.97,2.07-2.67,.88-.72,1.88-1.23,2.91-1.55,3.17-.94,6.4-.37,9.22,.79,2.2,.9,4.27,2.14,5.99,3.9,.36,.4,.75,.76,1.06,1.21,1.1,1.71,1.04,2.48,.44,3.16-.14,.16-.26,.33-.41,.45-.51,.38-1.28-.1-2.07-.99-1.2-1.32-2.42-2.55-3.91-3.51-1.46-.96-3.12-1.71-4.84-2.06-2.53-.62-5.24-.03-6.54,1.55l-.07-.05Z"/>
  <path class="cls-1" d="M203.07,145.05c.24-2.09,.41-4.22,.38-6.37-.02-.79-.08-1.56-.12-2.35-.07-2.78-.22-5.58-.55-8.37-.11-1.24-.43-2.46-.67-3.68-.28-1.57-1-3.04-.49-4.78,.18-.55,.41-.53,1.04-.24,.68,.28,1.8,.85,2.12,1.73,.42,1.6,.79,3.22,.99,4.88,.19,1.66,.32,3.33,.31,5.02,0,2.02,.35,4.08,.42,6.14,.05,2.27,.03,4.54-.2,6.81-.1,1.4-.34,2.79-.56,4.18-.41,2.1-1.02,4.17-1.8,6.16-.32,.77-.64,1.54-.96,2.31l-.58,1.12c-.19,.38-.38,.76-.66,1.09-.23,.3-.44,.6-.68,.89-.45,.54-.89,.76-1.27,.83-.36,.08-.64,.04-.94-.08-.14-.06-.28-.09-.38-.16-.34-.2-.24-.9,.07-1.82,.37-.54,.58-1.21,.9-1.77,.32-.56,.58-1.17,.9-1.73,.26-.6,.52-1.21,.78-1.82,.2-.64,.47-1.25,.66-1.91,.6-1.93,.96-3.99,1.23-6.08h.08Z"/>
  <path class="cls-1" d="M273.38,122.67c3.32-3.24,5.79-7.37,6.65-11.84,.41-2.22,.4-4.53-.13-6.7-.53-2.18-1.56-4.28-2.92-6.19-1.99-2.8-4.72-5.08-7.64-7.03-2.59-1.72-5.44-3.08-8.4-4.11-2.96-1.01-6.06-1.71-9.18-1.86-3.11-.15-6.27,.09-9.2,1.06-2.92,.95-5.63,2.55-7.65,4.85l-.68,.76-.59,.83c-.42,.56-.75,1.1-.98,1.67-.48,1.15-.62,2.43-.45,3.7,.34,2.55,1.86,4.95,3.88,6.59,2.65,2.05,6.16,3.18,9.56,3.11,1.71-.04,3.41-.31,5.03-.84,.8-.28,1.6-.6,2.34-1.01,.74-.41,1.51-.81,2.16-1.36,.83-.66,1.22-.96,1.39-.79,.13,.14,.05,.76-.45,1.7-.48,.94-1.4,2.25-2.94,3.32-.76,.54-1.66,1.04-2.67,1.44-.5,.21-1.04,.35-1.59,.53-.56,.12-1.14,.21-1.74,.28-4.25,.42-8.56-.69-12.13-3.09-1.81-1.26-3.32-2.91-4.41-4.83-.55-.96-.96-2.01-1.27-3.1-.27-1.1-.43-2.25-.37-3.42,.08-1.17,.3-2.35,.79-3.44,.22-.54,.54-1.09,.83-1.54l.91-1.28c1.3-1.64,2.79-3.16,4.55-4.3,3.48-2.35,7.57-3.49,11.56-3.74,4.8-.29,9.65,.4,14.26,1.86,4.62,1.44,9.02,3.71,12.81,6.79,2.07,1.7,3.97,3.66,5.51,5.91,1.54,2.25,2.73,4.8,3.3,7.54,1.13,5.5-.28,11.2-3.11,15.78-3.53,5.68-9.03,9.83-15.05,12.29-4.59,1.82-9.51,2.73-14.39,2.87-4.89,.11-9.75-.52-14.43-1.61-7.27-1.77-14.2-4.35-20.71-7.83-1.42-.79-2.86-1.49-4.25-2.35-1.29-.81-2.35-1.49-3.22-2.08-.88-.59-1.49-1.19-2.02-1.67-.51-.49-.89-.91-1.17-1.31-.26-.43-.42-.83-.55-1.19-.12-.33-.33-.7-.38-.92-.23-.65,2.37-.08,6.07,2.14,5.52,3.26,11.35,6.26,17.48,8.6,6.12,2.33,12.58,4.03,19.1,4.37,4.84,.31,9.69-.21,14.25-1.59,4.55-1.39,8.78-3.78,12.15-7.03l.08,.06Z"/>
  <path class="cls-1" d="M198.04,74.76c3.52-2.56,7.71-3.92,11.86-4.16,1.51-.12,3.03-.14,4.54,0,2.65,.33,5.23,1.07,7.63,2.19,2.4,1.11,4.62,2.67,6.43,4.61,1.59,1.73,2.93,3.73,3.81,5.9,1.13,2.79,1.29,5.93,.49,8.72-.23,.88-.47,.7-.83-.06-.19-.38-.38-.91-.66-1.51-.27-.6-.61-1.28-.77-1.99-.25-1.28-.78-2.44-1.26-3.56-.5-1.11-1.03-2.22-1.79-3.19-.72-.99-1.56-1.9-2.48-2.75-.91-.87-1.94-1.64-3.05-2.33-2.66-1.7-6.07-2.26-9.3-2.38-3.57-.09-7.21,.57-10.39,2.22-1.95,1.02-3.71,2.41-5.08,4.13-2.12,2.73-3.96,5.79-4.58,9.13-.5,2.59-.2,5.19,.56,7.63,.15,.54,.38,1.05,.53,1.6,.3,1.02,.52,1.69,.55,2.22,0,.55-.1,.93-.31,1.29-.09,.17-.16,.36-.25,.48-.16,.2-.43,.14-.83-.13-.39-.28-1-.73-1.4-1.52-1.42-2.22-2.25-4.96-2.42-7.83-.21-2.88,.37-5.84,1.44-8.51,.8-1.99,1.86-3.83,3.05-5.53,.57-.83,1.27-1.71,2.01-2.54l1.18-1.17,1.27-1.06,.06,.07Z"/>
  <path class="cls-1" d="M156.55,109.3c1.03-3.93,3.12-7.65,6.15-10.41,1.1-1,2.26-1.96,3.55-2.7,2.25-1.25,4.74-2.11,7.31-2.45,2.57-.34,5.22-.13,7.67,.66,2.18,.69,4.19,1.8,5.96,3.15,.59,.41,1.11,.9,1.64,1.37,.54,.47,1.02,.99,1.46,1.55,.46,.54,.79,1.18,1.17,1.77,.09,.15,.19,.3,.26,.46l.18,.51,.35,1c.27,.84,.04,.82-.72,.46-.74-.39-2.24-.88-3.25-1.86-.25-.2-.5-.39-.74-.6-.22-.22-.43-.45-.66-.65-.48-.38-.92-.82-1.42-1.17-.5-.34-.97-.74-1.5-1.01l-.77-.46c-.26-.14-.54-.25-.81-.38-1.06-.54-2.19-.91-3.34-1.23-1.17-.24-2.36-.43-3.6-.4-2.97-.05-6,1.42-8.55,3.09-2.8,1.9-4.98,4.71-6.24,7.96-.78,1.99-1.26,4.14-1.36,6.31-.17,3.28,.37,6.68,1.77,9.65,1.09,2.31,2.77,4.22,4.66,5.74,.44,.31,.85,.63,1.31,.92,1.59,1.19,2.08,1.62,2.11,2.59,0,.22,.05,.45,.03,.65-.04,.34-.31,.52-.79,.56-.48,.04-1.18-.07-1.99-.43-.61-.24-1.19-.55-1.76-.89-.54-.37-1.11-.74-1.62-1.18-1.06-.84-1.98-1.86-2.84-2.93-1.66-2.2-2.89-4.75-3.59-7.42-1.07-3.98-1.09-8.21-.12-12.22l.09,.02Z"/>
  <path class="cls-1" d="M159.02,156.08c-.22,2.67,.2,5.44,1.44,7.87,.25,.43,.51,.85,.78,1.27,.26,.42,.6,.77,.87,1.18,2.18,2.69,5.32,4.97,8.92,5.78,1.59,.35,3.25,.36,4.86,.16,.51-.11,1.02-.2,1.53-.32l1.5-.48c.49-.2,1-.35,1.52-.51,.51-.17,1-.41,1.52-.61,.64-.25,.71-.03,.4,.58-.31,.59-.95,1.73-2.13,2.56-2.17,1.22-4.73,1.94-7.3,1.91-2.57-.07-5.11-.77-7.3-2.02-1.31-.75-2.62-1.54-3.82-2.51-1.18-.98-2.32-2.07-3.22-3.36-1.96-2.79-3-6.14-3.18-9.45-.02-.51-.05-1.02-.05-1.53l.12-1.52c.02-.51,.11-1.01,.21-1.51,.1-.5,.17-1,.3-1.49,.75-2.98,2.21-5.72,4.05-8.11,.38-.45,.74-.9,1.1-1.37,.36-.46,.8-.85,1.19-1.29l.61-.64,.67-.57c.45-.38,.9-.77,1.4-1.08,.45-.26,.87-.55,1.34-.8,.84-.49,1.51-.58,1.97-.62,.47-.01,.8,.14,1.12,.44,.15,.14,.31,.27,.42,.42,.35,.51-.15,1.28-1.16,1.98-1.48,1.12-2.83,2.33-4.08,3.61-1.29,1.26-2.35,2.75-3.23,4.32-1.3,2.35-2.09,5-2.26,7.69h-.09Z"/>
  <path class="cls-1" d="M221.74,234.8c1.69,.66,3.44,1.2,5.23,1.55,.66,.11,1.32,.15,1.97,.26,2.3,.38,4.69,.5,6.96,.03,1.01-.21,1.94-.64,2.78-1.13,.55-.32,1-.74,1.44-1.18,.42-.44,.92-.88,1.24-1.47,.24-.35,.37-.28,.49,.16,.05,.21,.15,.55,.14,.94,0,.39-.04,.87-.25,1.32-.4,.76-1,1.38-1.63,1.94-.64,.53-1.34,1.02-2.1,1.28-1.5,.6-3.06,.86-4.59,.89-1.82,.03-3.69,.17-5.52-.02-2-.25-3.94-.73-5.84-1.34-1.17-.36-2.3-.83-3.43-1.29-1.7-.73-3.34-1.61-4.91-2.54-1.22-.73-2.48-1.38-3.65-2.23-.26-.18-.52-.36-.76-.57-.91-.77-.98-1.24-.66-1.89,.08-.15,.14-.31,.24-.45,.32-.44,.98-.45,1.67-.05,2.04,1.19,4.09,2.39,6.25,3.49,1.59,.84,3.24,1.62,4.96,2.23l-.02,.07Z"/>
  <path class="cls-1" d="M175.39,309.06c.96-2.65,2.03-5.26,3.17-7.83,.41-.94,.76-1.91,1.21-2.83,1.62-3.25,3.36-6.42,5.28-9.49l1.23-2.07c.4-.69,.78-1.4,1.22-2.06,.56-.86,1.08-1.74,1.65-2.59,.65-.8,1.41-1.52,2.18-2.21,.5-.42,.83-.06,1,.73,.15,.78,.27,2.05-.15,3.12-1.86,3.56-4.03,6.88-6.26,10.32-.68,1.02-1.24,2.13-1.75,3.28-.53,1.13-1,2.3-1.5,3.45-1.12,2.51-2.17,5.06-3.18,7.63-.58,1.6-1.2,3.19-1.69,4.81-.8,2.45-1.55,4.93-2.09,7.44-.41,1.95-.57,3.91-.76,5.86-.04,.43-.06,.86-.13,1.28-.29,1.58-.75,2.03-1.58,2.26-.2,.05-.39,.13-.57,.15-.61,.07-1.04-.67-1.22-1.92-.14-.93-.08-1.85-.02-2.78,.07-.93,.16-1.86,.31-2.79,.26-1.87,.67-3.73,1.12-5.59,.7-2.75,1.53-5.48,2.45-8.18l.09,.02Z"/>
  <path class="cls-1" d="M181.27,288.03c.09-.89,.27-1.78,.48-2.65,.09-.31,.07-.64,.19-.95,.37-1.08,.86-2.08,1.37-3.03,.24-.42,.42-.85,.62-1.27,.21-.56,.47-1.1,.95-1.52,.15-.13,.44,.04,.71,.34,.27,.3,.57,.75,.53,1.09-.1,.59-.25,1.13-.42,1.67-.14,.55-.4,1.04-.71,1.53-.37,.59-.38,1.3-.51,1.95-.14,.72-.24,1.45-.29,2.2-.02,.46-.03,.93-.02,1.41,.02,.72,.03,1.47,.18,2.19,.11,.56,.35,1.1,.52,1.65,.04,.12,.06,.24,.06,.37-.02,.48-.2,.66-.75,.85-.13,.04-.25,.09-.37,.12-.41,.11-.81-.02-1.11-.32-.2-.23-.48-.44-.6-.69-.15-.24-.27-.49-.39-.74-.26-.51-.35-1.05-.43-1.61-.1-.83-.18-1.7-.11-2.6h.07Z"/>
  <path class="cls-1" d="M166.98,262.85c-7.19,10.57-13.64,21.69-19.01,33.29-1.94,4.24-3.64,8.58-5.23,12.94-1.39,3.85-2.59,7.75-3.5,11.71-.89,3.94-1.49,7.98-1.27,11.88l.11,1.46,.06,1.64c.06,.47,.09,.94,.17,1.41l.3,1.41c.51,1.86,1.23,3.69,2.23,5.4l.77,1.27,.38,.64,.46,.59c.62,.78,1.22,1.58,1.85,2.36,1.43,1.41,2.74,2.95,4.38,4.16l2.09,1.71c.73,.53,1.5,1,2.26,1.51l2.27,1.49c.76,.49,1.6,.86,2.39,1.3l2.41,1.27,1.2,.63,1.25,.54c1.67,.71,3.34,1.42,5,2.13,4.38,1.57,8.78,3.13,13.32,4.25l3.38,.93c1.11,.36,2.25,.63,3.39,.9l6.82,1.67c2.83,.72,2.4,.94-.1,.85-1.25-.04-3.03-.15-5.17-.33-2.14-.2-4.68-.35-7.31-1.11-9.42-2.15-18.75-5.23-27.38-10.04-4.21-2.57-8.42-5.31-11.84-9.08l-.67-.67c-.22-.23-.4-.49-.6-.74l-1.19-1.5c-.84-.96-1.44-2.11-2.13-3.2-.16-.28-.35-.54-.49-.83l-.41-.88-.8-1.77c-.41-1.24-.86-2.47-1.08-3.78-.19-.76-.24-1.57-.33-2.36l-.03-.6c0-.21-.02-.42-.01-.48,0-.06,0-.09,0-.16l-.03-.29-.05-.58c-.05-.77-.18-1.56-.15-2.33l.02-2.31c.21-3.05,.61-6.08,1.27-9.04,1.25-5.93,3.16-11.68,5.35-17.24,4.88-12.2,11.06-23.78,17.98-34.87,4.28-6.81,8.86-13.44,13.79-19.8,3.73-4.82,7.7-9.47,11.93-13.89,4.23-4.41,8.71-8.58,13.63-12.21,.79-.56,1.55-1.14,2.34-1.69,.88-.56,1.75-1.13,2.61-1.68,.3-.11,.56-.34,.9-.34,.33,0,.64,.08,.96,.18,.31,.11,.63,.25,.93,.38l.65,.3,2.5,1.2c1.65,.78,3.31,1.49,4.99,2.11,3.36,1.24,6.81,2.17,10.33,2.53,1.94,.2,3.84,.21,5.79,.06,3.6-.3,5.9-.97,7.55-1.36,1.66-.37,2.67-.58,3.54-.65,.4-.03,.89-.15,1.15-.14,.43,0,.03,.5-1.12,1.37-1.15,.85-3.08,2.12-5.91,2.96-5.4,1.69-11.38,1.6-17.01,.32-2.83-.62-5.58-1.58-8.23-2.73-1.33-.57-2.63-1.19-3.9-1.81l-1.84-.89c-.07-.02-.05-.01-.08,0-.01,.01-.02,.02-.03,.03l-.44,.28-.92,.59c-.62,.37-1.21,.83-1.81,1.26l-1.79,1.31-1.74,1.4c-2.33,1.87-4.55,3.92-6.73,6.02-9.11,8.9-17.07,19.16-24.3,29.83l-.09-.04Z"/>
  <path class="cls-1" d="M201.24,354.89c2.81-4.1,6.12-7.74,9.66-11.1l1.26-1.21,.2-.19c.07-.06,.08-.08,.12-.13,.08-.08,.09-.21,0-.28-.14-.11-.32-.16-.52-.21-.08-.02-.03-.02-.26-.05l-.53-.08-1.12-.14-4.58-.47c-3.08-.31-6.18-.67-9.26-1.21-2.73-.48-5.49-1.03-8.16-1.87-1.72-.53-3.43-1.18-5.02-2.11-.8-.46-1.56-.99-2.28-1.58-.37-.28-.68-.64-.96-1.01-.29-.37-.56-.75-.81-1.14-.58-1.02-.25-1.03,.72-.69,.5,.15,1.17,.36,1.98,.53,.76,.22,1.51,.58,2.33,1,2.88,1.47,6.08,2.58,9.44,3.33,3.36,.77,6.83,1.29,10.36,1.77,2.11,.3,4.29,.47,6.52,.68,.56,.05,1.11,.11,1.71,.19l.55,.08c.23,.04,.46,.07,.68,.12,.45,.09,.89,.2,1.28,.35,.79,.3,1.37,.7,1.7,1.36,.16,.35,.16,.76,.08,1.07-.1,.32-.18,.64-.48,.92l-1.84,1.85-.44,.44-.32,.31-.65,.61c-.87,.82-1.71,1.66-2.54,2.51-1.65,1.71-3.23,3.49-4.68,5.37-1.78,2.31-3.41,4.75-4.67,7.35-.93,1.97-1.72,4.04-1.99,6.13-.12,1.03-.13,2.11,.19,2.94,.16,.41,.39,.74,.67,.91,.28,.17,.59,.21,1.04,.12,1.55-.31,3.05-1.04,4.39-1.96,1.35-.92,2.59-2.01,3.73-3.19,.5-.52,.95-1.07,1.45-1.59,.93-.98,1.49-1.66,1.96-2.09,.51-.41,.87-.62,1.24-.76,.17-.06,.36-.17,.49-.19,.22-.04,.26,.23,.17,.79-.09,.56-.31,1.43-.88,2.37-.41,.71-.85,1.4-1.33,2.07-.49,.67-1.06,1.27-1.64,1.87-1.18,1.19-2.49,2.28-3.96,3.21-1.48,.93-3.12,1.72-5.03,2.11-.13,.02-.22,.05-.38,.07l-.53,.04c-.35,.02-.75-.03-1.12-.12-.79-.18-1.48-.69-1.96-1.23-.93-1.13-1.16-2.3-1.27-3.31-.14-1.53,.07-2.89,.37-4.2,.31-1.3,.73-2.55,1.24-3.73,1.01-2.38,2.26-4.58,3.65-6.68l.06,.03Z"/>
  <path class="cls-1" d="M283.5,261.02l-8.11-9.72-3.04-3.46c-1.74-2.07-3.48-4.14-5.26-6.17-1.76-2.05-3.55-4.07-5.4-6.02-1.64-1.74-3.41-3.36-5.2-4.89-2.34-1.95-4.79-3.62-7.05-5.68-.72-.64-.55-.73,.35-.68,.44,.03,1.12,.03,1.89,.15,.75,.15,1.59,.43,2.39,.89,.35,.21,.71,.4,1.06,.62l.97,.73c.65,.48,1.27,.99,1.89,1.51,1.24,1.02,2.43,2.09,3.57,3.2,2.3,2.2,4.47,4.53,6.53,6.96,2.45,2.91,5.17,5.77,7.7,8.7l8.24,9.73c1.69,1.99,3.38,3.98,5.11,5.93,2.62,2.95,5.25,5.92,8.06,8.63,2.18,2.11,4.53,3.95,6.89,5.71,.52,.4,1.06,.71,1.58,1.11,2,1.31,2.37,2.1,2.51,2.93,.03,.19,.09,.4,.09,.56,0,.27-.28,.35-.8,.33-.51-.04-1.33-.12-2.18-.56-5.03-2.66-9.27-6.74-13.26-10.89-2.97-3.1-5.78-6.34-8.58-9.56l.05-.06Z"/>
  <path class="cls-1" d="M324.49,299.59c-2.08,2.28-4.3,4.46-6.73,6.44-2.44,1.97-5.11,3.75-8.17,4.94-1.12,.41-2.29,.76-3.5,.96-.6,.13-1.24,.12-1.85,.17-.62,.03-1.18-.06-1.77-.1-4.13-.36-7.98-1.69-11.59-3.34-3.62-1.66-6.99-3.72-10.21-5.97-2.85-2-5.65-4.1-8.28-6.33-3.39-2.83-6.75-5.84-9.09-9.69-.74-1.18-.54-1.08,.43-.38,.48,.35,1.18,.83,2.05,1.35,.82,.57,1.78,1.24,2.73,2.04,6.57,5.86,13.63,11.22,21.34,15.5,.59,.29,1.18,.59,1.77,.89l.9,.44,.93,.37c.62,.24,1.24,.48,1.87,.73,.63,.21,1.28,.38,1.92,.57,1.27,.43,2.59,.56,3.89,.83,.65,.07,1.3,.09,1.95,.14,.32,.02,.65,.06,.97,.06l.92-.06c.34,0,.67-.07,1.01-.14,.33-.07,.67-.11,1.01-.21,.66-.22,1.34-.38,1.98-.69,1.32-.51,2.56-1.26,3.79-2.04,2.44-1.6,4.68-3.58,6.79-5.69,2.59-2.61,4.99-5.44,7.25-8.38,3.41-4.46,6.59-9.16,9.44-13.98,2.22-3.75,4.11-7.58,6-11.44,.41-.85,.78-1.7,1.26-2.53,.43-.77,.8-1.41,1.12-1.94,.34-.52,.66-.91,.93-1.24,.55-.64,.96-.97,1.39-1.19,.19-.1,.4-.25,.55-.3,.46-.16,.25,1.35-.47,3.92-.34,.92-.68,1.84-1.03,2.77-.36,.92-.8,1.81-1.22,2.72-.85,1.81-1.77,3.6-2.72,5.4-1.91,3.58-3.99,7.15-6.26,10.61-3.37,5.15-7.05,10.15-11.2,14.8l-.06-.05Z"/>
  <path class="cls-1" d="M317.5,248.06c-1.08,2-2.24,3.97-3.46,5.89-.47,.69-.84,1.44-1.33,2.1-1.69,2.39-3.7,4.51-5.62,6.64-.86,.94-1.65,1.94-2.47,2.89-1.09,1.2-2,2.55-3.47,3.41-.55,.19-.56,.09-.63-.53-.04-.32-.02-.7,.02-1.14,.03-.22,.05-.46,.12-.67,.08-.21,.18-.42,.31-.61,1.79-2.8,4.03-5.17,6.26-7.57,1.35-1.43,2.42-3.16,3.55-4.78,1.25-1.79,2.38-3.66,3.42-5.6,.62-1.2,1.23-2.41,1.78-3.66,.84-1.88,1.66-3.79,2.32-5.74,.49-1.52,.82-3.07,1.23-4.59,.09-.34,.15-.68,.25-1.01,.41-1.23,.8-1.54,1.6-1.57,.18,0,.37-.03,.54-.02,.58,.06,.87,.72,.82,1.71-.12,1.46-.43,2.91-.81,4.36-.39,1.44-.96,2.86-1.5,4.28-.85,2.1-1.82,4.18-2.86,6.23l-.07-.03Z"/>
  <path class="cls-1" d="M346.81,254.99c-2.88-1-5.5-2.34-8.02-3.83-.92-.55-1.86-1.04-2.74-1.64-3.1-2.12-5.96-4.57-8.58-7.24-1.14-1.2-2.33-2.37-3.39-3.65-1.32-1.65-2.74-3.34-3.27-5.47-.19-.65,.22-.75,.94-.52,.36,.11,.81,.29,1.27,.54,.24,.12,.5,.24,.72,.41,.21,.17,.4,.36,.57,.59,2.57,3.05,5.21,6.04,8.2,8.91,1.78,1.73,4,3.08,6.15,4.41,2.37,1.46,4.83,2.81,7.39,3.85,1.56,.64,3.21,1.19,4.75,1.35,.37,.04,.72,.05,1.06-.11,.34-.2,.31-.64,.29-.98-.01-.1,0-.17-.04-.3l-.08-.44c-.08-.29-.15-.59-.25-.88-.2-.59-.43-1.17-.71-1.74-.86-1.77-2.14-3.27-3.46-4.67-.29-.31-.62-.58-.91-.89-1.11-1.12-1.21-1.73-.94-2.55,.06-.19,.1-.39,.18-.54,.13-.27,.4-.37,.8-.33,.39,.04,.96,.17,1.49,.57,1.58,1.14,2.93,2.65,4.11,4.32,1.16,1.7,2.14,3.56,2.72,5.78,.16,.59,.49,2.38,.1,3.59-.07,.14-.06,.33-.19,.44l-.22,.44c-.06,.16-.19,.26-.3,.38-.12,.11-.22,.25-.37,.32-.28,.17-.53,.38-.86,.47-.31,.11-.61,.24-.97,.26-.34,.03-.68,.11-1.03,.11l-.89-.05c-.42-.06-.87-.11-1.26-.2-.81-.16-1.57-.37-2.3-.61l.02-.08Z"/>
  <path class="cls-1" d="M248.87,314c.2-3.18,.53-6.34,.87-9.5,.13-1.15,.18-2.31,.33-3.45,.57-4.04,1.25-8.06,2.09-12.03,.37-1.77,.66-3.55,.99-5.31,.22-1.13,.32-2.28,.65-3.39,.29-1.11,.64-2.22,1.04-3.3,.26-.67,.66-.48,1.03,.21,.36,.69,.76,1.91,.67,3.22-.15,2.33-.62,4.59-.95,6.88-.36,2.29-.75,4.57-1.29,6.85-.62,2.73-.78,5.64-1.07,8.48-.34,3.12-.62,6.25-.82,9.39-.11,1.93-.22,3.86-.23,5.79-.04,2.92-.08,5.87,.19,8.75,.2,2.24,.7,4.4,1.2,6.53,.13,.46,.29,.91,.36,1.38,.14,.89,.25,1.45,.18,1.89-.08,.45-.28,.76-.59,1.06-.14,.14-.27,.3-.41,.41-.24,.17-.52,.11-.86-.15-.33-.26-.73-.72-1.04-1.38-.94-1.94-1.41-4.06-1.79-6.18-.37-2.13-.57-4.3-.7-6.48-.19-3.22-.12-6.46,.04-9.67h.09Z"/>
  <path class="cls-1" d="M233.03,259.1c.38-1.21,.68-2.48,.86-3.81,.07-.48,.05-.97,.11-1.46,.24-1.72,.4-3.48,.57-5.25,.07-.79,.07-1.58,.06-2.36-.07-1,.02-2.01,.3-3.02,.09-.31,.47-.27,.89,0,.41,.27,.94,.75,1.07,1.33,.27,1.02,.25,2.03,.29,3.06,.02,1.02-.01,2.05-.21,3.09-.21,1.24-.08,2.54-.17,3.83-.12,1.42-.28,2.85-.6,4.27-.08,.44-.19,.87-.32,1.31-.11,.43-.23,.87-.38,1.29-.41,1.3-1.09,2.5-1.67,3.71-.26,.45-.47,.92-.69,1.4-.26,.45-.52,.89-.82,1.31-.13,.19-.26,.37-.42,.53-.6,.6-.91,.69-1.41,.49-.11-.05-.23-.08-.33-.13-.33-.19-.38-.66-.2-1.25,.14-.43,.29-.86,.39-1.3l.43-1.23c.16-.39,.33-.77,.52-1.15,.15-.39,.31-.77,.47-1.15,.19-.58,.45-1.14,.6-1.74,.08-.3,.22-.58,.31-.88l.26-.91h.08Z"/>
  <path class="cls-1" d="M161.03,383.27c-.04-1.79,.09-3.57,.28-5.33,.09-.64,.08-1.29,.18-1.93,.41-2.25,1.04-4.43,1.74-6.56,.31-.95,.6-1.9,.88-2.85,.17-.61,.35-1.22,.56-1.82,.25-.58,.65-1.11,1.19-1.57,.41-.25,.64-.09,1.08,.44,.22,.27,.46,.61,.7,1,.21,.38,.33,.76,.33,1.12-.28,1.18-.65,2.32-.99,3.47-.15,.58-.4,1.14-.62,1.71-.21,.57-.46,1.14-.69,1.71-.56,1.38-.66,2.92-.85,4.4-.25,1.63-.38,3.28-.46,4.94,0,1.02-.06,2.05,.05,3.07,.05,.77,.1,1.55,.22,2.32,.09,.77,.22,1.54,.43,2.29,.27,1.17,.84,2.24,1.28,3.33,.12,.24,.22,.47,.31,.71,.3,.92,.19,1.29-.41,1.75-.14,.11-.27,.22-.41,.31-.47,.29-1.05,.07-1.53-.56-.33-.47-.75-.94-.99-1.47-.26-.53-.49-1.07-.71-1.63-.24-.55-.39-1.13-.56-1.71-.16-.58-.33-1.16-.44-1.76-.17-.88-.35-1.77-.42-2.68l-.14-1.35-.07-1.35h.08Z"/>
  <path class="cls-1" d="M242.45,454.72c7.92,1.18,15.84,2.39,23.75,3.46,7.91,1.1,15.84,2.1,23.71,2.66l4.3,.22c1.43,.04,2.81-.07,4.21-.09,1.39,0,2.83-.15,4.25-.3,1.42-.15,2.83-.34,4.23-.55,4.93-.76,9.74-2.06,14.01-4.39,2.12-1.17,4.1-2.58,5.88-4.22,1.74-1.68,3.27-3.57,4.58-5.63,2.55-4.15,4.13-8.91,3.93-13.78-.09-2.42-.46-4.86-1.25-7.2-.75-2.35-1.75-4.64-3-6.81-2.17-3.88-4.93-7.47-7.98-10.79-3.04-3.33-6.35-6.42-9.77-9.35-8.76-7.57-18.53-13.96-27.74-21.11-2.86-2.25-2.38-2.09,.44-.78,2.83,1.3,8.06,3.67,13.67,7.44,9.82,6.8,19.51,14.09,27.55,23.37,2,2.32,3.9,4.76,5.55,7.39,1.65,2.63,3.15,5.4,4.22,8.41,1.06,2.99,1.74,6.18,1.82,9.42,.07,3.23-.39,6.51-1.52,9.53-1.31,3.62-3.25,6.96-5.71,9.96-2.46,2.99-5.52,5.53-8.91,7.42-3.39,1.91-7.05,3.24-10.75,4.17-3.71,.91-7.46,1.43-11.16,1.77-2.07,.11-4.18,.14-6.25,.17l-6.13-.32c-2.04-.14-4.05-.37-6.07-.55l-3.03-.3-3.01-.37-6.03-.74-6.01-.82c-4.01-.54-8-1.12-12-1.7-9.83-1.43-19.66-2.86-29.48-4.29-14.88-2.1-29.85-4.09-44.69-5.45-11.53-1.12-22.89-1.54-34.3-1.79-2.51,0-4.97,.01-7.51,.02-4.7-.11-7.78,.06-9.95-.14-2.18-.19-3.44-.52-4.48-1.03-.47-.23-1.09-.45-1.37-.68-.47-.38,.24-.76,1.95-1.14,1.71-.38,4.41-.77,7.89-.96l1.94-.12,1.94-.04c1.3-.02,2.6-.04,3.91-.06,2.61-.02,5.25-.09,7.89-.04,2.64,.08,5.29,.16,7.96,.24,1.33,.05,2.67,.09,4.01,.14,1.33,.08,2.67,.17,4.01,.25,2.68,.18,5.37,.35,8.06,.53,2.69,.19,5.38,.47,8.09,.7,5.4,.46,10.81,1.07,16.22,1.68,16.07,1.85,32.12,4.19,48.12,6.49v.11Z"/>
  <path class="cls-1" d="M174.33,396.32c10.34,.45,20.63,1.49,30.84,2.95,3.73,.54,7.46,1.04,11.16,1.71,13.05,2.42,25.94,5.68,38.51,9.92,5.57,1.9,11.13,3.93,16.53,6.18,3.46,1.47,6.92,2.95,10.27,4.67,1.69,.83,3.3,1.82,4.94,2.74,.4,.24,.83,.45,1.21,.73l1.11,.89c.74,.59,1.5,1.15,2.25,1.72,1.85,1.45,1.54,1.33-.39,.74-.97-.28-2.35-.69-4.07-1.04-1.68-.42-3.49-1.17-5.41-2.07l-2.58-1.14-2.55-1.2-5.17-2.25-5.23-2.11-5.29-1.99c-7.08-2.61-14.27-4.98-21.6-7.11-8.76-2.57-18.14-4.25-27.35-5.77-10.14-1.64-20.37-2.86-30.63-3.52-6.31-.4-12.65-.63-18.94-.44-2.36,.1-4.79,.21-7,.59-.55,.11-.93,.2-1.5,.46-.53,.21-1.05,.44-1.57,.71-1.05,.49-2.05,1.1-3.05,1.71-3.97,2.51-7.61,5.58-10.83,9.01-4.94,5.39-8.96,11.41-12.16,17.88-.68,1.44-1.38,2.83-2.04,4.29-1.19,2.73-2.04,4.49-2.64,5.75-.64,1.23-1.22,1.88-1.81,2.36-.26,.22-.54,.54-.73,.65-.33,.2-.37-.31-.29-1.45,.02-.58,.16-1.29,.34-2.13,.19-.84,.41-1.82,.82-2.88,.58-1.57,1.11-3.17,1.75-4.74,.68-1.55,1.32-3.15,2.07-4.69,1.55-3.08,3.25-6.13,5.23-9.05,1.91-2.97,4.19-5.72,6.6-8.37,2.48-2.6,5.13-5.06,8.03-7.26,2.15-1.64,4.45-3.11,6.93-4.39l.94-.47,1-.42c.33-.14,.64-.28,1.13-.41l.67-.18c.21-.05,.37-.07,.56-.1,.75-.14,1.44-.22,2.12-.29,.69-.09,1.35-.12,2.03-.18,5.34-.34,10.56-.27,15.79-.11v.09Z"/>
  <path class="cls-1" d="M118.74,405.56c.42-.49,.88-.94,1.33-1.4,.51-.46,1.04-.96,1.58-1.33,1.07-.82,2.21-1.43,3.36-2.03,.85-.39,1.66-.88,2.56-1.17,3.1-1.14,6.52-1.39,9.78-.91,.73,.09,1.44,.31,2.16,.46,.69,.25,1.4,.47,2.07,.76,1.75,.71,3.24,2.02,4.19,3.6,.31,.48,.02,.61-.6,.58-.31-.02-.71-.07-1.13-.15-.21-.04-.43-.1-.64-.16-.22-.06-.45-.1-.66-.19-.37-.16-.76-.27-1.08-.46l-1.05-.43c-.33-.17-.71-.24-1.07-.35-.36-.09-.71-.24-1.09-.27-1.46-.38-3.03-.47-4.65-.49-.98,0-1.97,.2-2.95,.48-.48,.15-.98,.29-1.46,.46l-1.43,.55c-2.06,.86-4.09,1.96-5.63,3.47-1,.99-1.93,2.07-2.77,3.24-1.27,1.77-2.44,3.66-3.45,5.63-.78,1.54-1.44,3.12-2.23,4.67-.18,.34-.33,.69-.53,1.02-.8,1.17-1.35,1.49-2.04,1.33-.16-.03-.33-.05-.46-.11-.23-.1-.34-.34-.37-.66-.03-.33,.01-.68,.17-1.19,.97-2.89,2.16-5.8,3.79-8.7,1.19-2.16,2.59-4.31,4.27-6.29l.07,.05Z"/>
  <path class="cls-1" d="M79.79,432.32c-.83,.57-1.51,1.21-1.94,1.83-.42,.64-.55,1.13-.42,1.66,.08,.49,.52,1.06,1.27,1.48,.74,.42,1.66,.74,2.62,.93,.35,.08,.7,.13,1.06,.17,.37,.03,.79,.05,1.18,.07,.79,.05,1.58,.09,2.38,.11,5.62,.33,11.4-.25,17.21-.93,2.58-.29,5.18-.71,7.77-1.02,1.66-.22,3.34-.43,5.04-.45,.84-.03,1.7-.03,2.55,.08,.85,.1,1.69,.32,2.52,.54,1.04,.29,.85,.71-.05,1.34-.45,.31-1.08,.72-1.81,1.1-.37,.2-.76,.43-1.18,.57-.42,.12-.85,.19-1.31,.23-3.23,.37-6.51,.59-9.84,.99-3.33,.36-6.73,.73-10.19,.88-2.08,.12-4.2,.24-6.33,.36-1.07,.06-2.16,.06-3.23,.09-1.09-.06-2.17-.05-3.25-.2l-1.78-.2c-.64-.09-1.26-.22-1.88-.39-1.23-.36-2.46-.86-3.59-1.68-.56-.43-1.1-.91-1.55-1.53-.45-.62-.77-1.38-.89-2.16-.28-1.58,.36-3.14,1.16-4.2,1-1.36,2.27-2.24,3.48-3.07,1.23-.83,2.52-1.55,3.85-2.16,4.02-1.89,8.3-2.86,12.39-3.97,3.18-.86,6.22-1.91,9.12-3.15,.64-.27,1.23-.58,1.88-.85,.58-.26,1.06-.49,1.47-.65,.43-.14,.79-.22,1.09-.29,.61-.12,1.05-.05,1.51,.15,.21,.09,.45,.15,.61,.26,.27,.18,.23,.51-.07,.98-.15,.24-.37,.51-.65,.82-.28,.31-.62,.65-1.05,.93-1.29,.86-2.66,1.61-4.09,2.26-1.44,.62-2.91,1.14-4.4,1.61-2.97,.93-5.97,1.63-8.87,2.43-4.3,1.16-8.41,2.6-11.74,5.1l-.06-.06Z"/>
  <path class="cls-1" d="M323.24,386.33c4.3,2.83,8.49,5.9,12.33,9.43,1.41,1.27,2.81,2.58,4.08,4.02,2.22,2.54,4.2,5.36,5.64,8.47,.36,.78,.72,1.56,.98,2.37,.14,.41,.3,.8,.43,1.21l.34,1.24c.25,.82,.37,1.67,.53,2.51,.09,.85,.21,1.69,.23,2.55,.16,3.02-.19,6.06-1.01,8.94-.56,1.84-1.3,3.65-2.36,5.27-.53,.81-1.13,1.58-1.8,2.27-.17,.17-.32,.36-.5,.52l-.57,.45c-.37,.3-.76,.59-1.17,.84-1.01,.64-.93,.44-.42-.44,.27-.43,.57-1.09,.9-1.86,.16-.39,.36-.78,.57-1.18,.22-.4,.41-.85,.66-1.27,1.69-3.06,2.69-6.48,2.85-9.98,.1-1.74,0-3.5-.29-5.24-.05-.44-.14-.87-.21-1.3-.06-.44-.16-.87-.28-1.29-.11-.43-.2-.86-.32-1.28l-.42-1.27c-.72-2.01-1.8-3.96-3.1-5.78-1.32-1.81-2.85-3.5-4.41-5.12-3.48-3.56-7.44-6.72-11.61-9.59-2.56-1.77-5.2-3.46-7.89-5.06-4.08-2.42-8.25-4.76-12.46-6.92-3.27-1.68-6.56-3.17-9.82-4.83-.72-.37-1.43-.7-2.15-1.09-2.63-1.48-3.32-2.23-3.49-3.18-.04-.21-.13-.44-.12-.61,.01-.56,1.32-.37,3.31,.51,5.88,2.66,12.08,5.56,18.18,8.85,4.54,2.41,9.03,5,13.42,7.8l-.04,.07Z"/>
  <path class="cls-1" d="M259.43,355.28c-3.78-.48-7.7-.53-11.66-.59-1.45-.03-2.9,.03-4.36-.04-2.57-.12-5.17-.33-7.75-.76-.64-.12-1.29-.23-1.93-.37l-1.91-.46c-1.35-.4-2.5-.9-3.7-1.39-2.09-.86-4.19-1.73-6.27-2.59-1.33-.53-2.67-1.06-4.01-1.59l-1-.41-.97-.47c-.64-.32-1.29-.63-1.93-.95-.8-.4-.61-.62,.23-.72,.42-.06,1.01-.08,1.7-.07,.35,0,.72,.03,1.11,.07,.2,.02,.4,.05,.6,.07,.19,.06,.39,.11,.59,.18,2.8,.96,5.55,2,8.29,3.06,1.35,.55,2.69,1.09,4.04,1.64,.67,.26,1.33,.52,1.92,.7l2.06,.52c3.35,.75,6.99,.76,10.58,.76,3.95,.01,7.97-.03,12.01,.22,2.49,.17,4.99,.49,7.45,1.05,3.72,.81,7.36,2.29,10.53,4.49,2.46,1.69,4.65,3.69,6.56,5.9,.43,.48,.85,.95,1.24,1.46,.65,1,1.02,1.7,1.16,2.26,.1,.59,.05,1-.12,1.4-.08,.18-.12,.39-.21,.53-.15,.23-.44,.2-.88-.01-.44-.21-1.06-.6-1.64-1.21-.43-.46-.92-.87-1.31-1.36-.41-.47-.81-.94-1.22-1.41-.82-.93-1.66-1.83-2.54-2.68-1.75-1.7-3.68-3.16-5.88-4.23-1.63-.8-3.38-1.43-5.21-1.92-1.81-.46-3.67-.83-5.58-1.03v-.07Z"/>
  <path class="cls-1" d="M268.86,361.11l.92,.31c.53,.32,.66,.43,.91,.61l.7,.5,1.36,1.03c.39,.31,.85,.54,1.23,.88,1.35,1.16,2.64,2.4,3.83,3.73,.53,.59,1.11,1.13,1.66,1.71,.7,.71,1.59,1.43,1.48,2.72-.02,.38-.23,.45-.77,.48-.37,.03-.74,.06-1.06,.09-.37,0-.65-.06-.89-.2-.71-.56-1.21-1.3-1.87-1.96-.61-.69-1.26-1.38-1.85-2.17-.73-.92-1.78-1.55-2.71-2.29l-1.57-1.19-.8-.58-.76-.53-.06-.04-.14-.06-.26-.09-.54-.18-1.1-.34c-1.19-.34-2.39-.7-3.6-.87-.94-.15-1.89-.09-2.8-.09-.2-.01-.4,0-.59-.02-.73-.1-.93-.28-1.12-.93-.04-.15-.1-.29-.12-.44-.1-.48,.22-.92,.87-1.14,.47-.15,.95-.28,1.43-.37,.48-.05,.95-.06,1.43-.06,.95,0,1.88,.16,2.8,.35,1.36,.28,2.69,.67,4.02,1.07l-.02,.07Z"/>
  <path class="cls-1" d="M269.55,377.68c-.82-.26-1.62-.5-2.4-.71l-1.83-.49c-.79-.21-1.58-.4-2.37-.57-1.59-.34-3.18-.6-4.77-.7-.56-.04-1.19-.04-1.69,0l-.33,.03-.43,.07-.9,.13c-2.2,.3-4.56,.39-6.85,.09-2.29-.31-4.55-.94-6.58-2-.47-.19-.89-.48-1.33-.73-.43-.26-.9-.48-1.3-.77l-1.23-.88-.61-.44-.56-.5c-1.99-1.6-3.7-3.56-4.68-5.93-.29-.75-.12-.72,.59-.44,.35,.15,.9,.3,1.4,.6,.53,.27,1.05,.66,1.61,1.05,3.43,3.28,7.15,6,11.71,7.08,1.36,.29,2.8,.43,4.26,.31,1.48-.09,2.87-.38,4.5-.62,.26-.02,.54-.05,.78-.07h.67c.45,0,.89,.02,1.34,.04,.89,.05,1.77,.14,2.64,.26,1.74,.24,3.45,.59,5.13,1.01l.29,.08,.17,.05,.36,.11,.75,.24,1.63,.54,.69,.23,.36,.11,.18,.05s.18,.03,.12-.04c-.15-.37-.33-.74-.6-1.08-.46-.62-1.12-1.2-1.84-1.67-.29-.2-.61-.36-.91-.51l-.26-.11-.39-.19c-.26-.13-.53-.23-.8-.34-1.07-.44-2.17-.78-3.28-1.08-.49-.12-.98-.22-1.47-.36-.9-.28-1.5-.45-1.9-.72-.41-.22-.61-.54-.77-.94-.07-.18-.18-.35-.21-.5-.14-.44,.77-1.02,2.34-.95,2.33,.04,4.64,.72,6.88,1.66,.28,.12,.56,.24,.83,.38l.42,.21c.24,.12,.48,.25,.72,.39l1.4,.89c.23,.15,.48,.3,.69,.45l.59,.49c1.7,1.3,2.73,2.63,3.5,3.83,.24,.39,.46,.79,.67,1.2l.19,.54c.01,.16,0,.32,0,.48-.01,.15,.02,.33-.03,.46l-.16,.4-.08,.2-.09,.17c-.04,.07-.08,.13-.13,.18-.08,.12-.25,.19-.39,.3-.25,.24-.74,.48-1.79,.43-.55-.05-1.36-.31-2.12-.54l-2.29-.71-.06-.1Z"/>
  <path class="cls-1" d="M213.64,361.52c1.82,.19,3.65,.41,5.47,.67,.66,.08,1.34,.12,2,.24,2.33,.44,4.66,.94,6.92,1.69,1,.31,2.02,.6,3.02,.89,.63,.21,1.3,.35,1.91,.64,.3,.16,.61,.28,.89,.5,.27,.22,.53,.44,.81,.66,.33,.29,.22,.39-.22,.55-.3,.11-.61,.22-.89,.33-.18,.06-.38,.14-.57,.17-.18,.01-.37,.01-.55-.02-.32-.08-.67-.07-.97-.16l-.94-.26c-.62-.19-1.26-.32-1.88-.5-.63-.17-1.26-.34-1.89-.51-.63-.18-1.25-.4-1.89-.59-1.51-.51-3.18-.61-4.79-.84-1.77-.25-3.56-.46-5.37-.62-1.11-.1-2.22-.19-3.33-.25-1.69-.09-3.39-.21-5.08-.21-1.31,.01-2.6,.13-3.91,.18-.29,.01-.57,.05-.86,.04-.54,0-.89-.08-1.13-.25-.24-.16-.37-.38-.47-.7-.05-.15-.11-.29-.13-.43-.08-.46,.38-.87,1.16-1.1,2.32-.42,4.74-.6,7.19-.48,1.82,.05,3.66,.18,5.5,.31v.07Z"/>
  <g>
    <path class="cls-1" d="M428.38,305.24c3.81,.71,7.62,1.4,11.45,2.03l4.2,.62c4.92,.82,9.85,1.59,14.78,2.34,2.19,.34,4.4,.62,6.58,.89,1.4,.16,2.81,.33,4.2,.57,1.4,.2,2.79,.51,4.17,.86,.85,.26,.74,.25-.03,.36-.46,.06-1,.14-1.58,.22-.66,.11-1.42,.16-2.23,.11-2.89-.09-5.75-.48-8.62-.79-2.87-.32-5.74-.72-8.61-1.22-3.43-.58-7.04-.94-10.56-1.43-3.87-.55-7.75-1.15-11.61-1.78-2.38-.4-4.75-.8-7.13-1.2-3.59-.66-7.2-1.31-10.76-1.96-2.77-.5-5.52-.86-8.27-1.32-.61-.1-1.21-.17-1.81-.3-2.25-.47-2.91-.87-3.25-1.59-.08-.17-.19-.34-.22-.5-.11-.52,.9-.73,2.57-.58,4.94,.58,10.05,1.6,15.21,2.52,3.83,.7,7.68,1.41,11.52,2.11v.06Z"/>
    <path class="cls-1" d="M424.44,317.99c3.59,.67,7.18,1.33,10.79,1.91l3.96,.58c4.64,.76,9.29,1.49,13.95,2.19,2.06,.32,4.15,.58,6.21,.83,1.32,.15,2.65,.31,3.96,.53,1.32,.19,2.63,.5,3.93,.83,.8,.26,.69,.25-.03,.37-.44,.07-.96,.16-1.49,.24-.62,.12-1.34,.18-2.11,.13-2.73-.06-5.42-.43-8.13-.7-2.71-.3-5.41-.66-8.12-1.13-3.24-.54-6.64-.86-9.97-1.32-3.66-.51-7.31-1.06-10.96-1.66-2.24-.38-4.49-.76-6.73-1.13-3.39-.62-6.79-1.25-10.15-1.87-2.62-.47-5.21-.8-7.8-1.23-.57-.09-1.14-.16-1.71-.28-2.12-.45-2.74-.84-3.04-1.58-.07-.17-.17-.35-.2-.5-.09-.53,.86-.76,2.45-.64,4.67,.51,9.49,1.48,14.35,2.35,3.61,.67,7.24,1.34,10.85,2.01v.06Z"/>
    <path class="cls-1" d="M420.19,344.81c3.29,.63,6.59,1.24,9.91,1.77,1.21,.2,2.43,.32,3.64,.52,4.26,.69,8.54,1.35,12.81,1.99,1.9,.29,3.81,.52,5.7,.75,1.22,.14,2.43,.28,3.64,.49,1.21,.17,2.41,.46,3.6,.78,.74,.25,.64,.24-.03,.36-.42,.07-.89,.16-1.38,.25-.57,.12-1.23,.19-1.94,.14-2.51-.04-4.98-.38-7.47-.62-2.49-.27-4.97-.6-7.46-1.03-2.97-.5-6.1-.77-9.16-1.18-3.36-.46-6.72-.96-10.07-1.52l-6.18-1.05c-3.11-.59-6.23-1.18-9.32-1.76-2.4-.43-4.78-.75-7.17-1.13-.53-.08-1.04-.15-1.57-.26-1.95-.41-2.51-.79-2.78-1.5-.06-.16-.15-.33-.18-.49-.08-.51,.8-.75,2.26-.65,4.3,.45,8.72,1.35,13.18,2.18,3.31,.63,6.64,1.26,9.96,1.89v.06Z"/>
    <path class="cls-1" d="M416.35,332c2.65,.54,5.32,1.02,8,1.47,.98,.16,1.97,.26,2.94,.42,3.45,.59,6.91,1.2,10.35,1.84,1.53,.29,3.07,.53,4.59,.78,.98,.15,1.96,.29,2.93,.52,.97,.19,1.93,.49,2.87,.83,.58,.25,.5,.24-.05,.36-.36,.07-.75,.15-1.13,.23-.47,.11-1.01,.17-1.58,.12-2.03-.08-4.01-.43-6.01-.69-2-.27-3.99-.6-5.99-1.01-2.39-.47-4.91-.68-7.38-1.01-2.71-.37-5.43-.76-8.15-1.21-1.67-.28-3.34-.57-5-.87-2.52-.44-5.04-1.01-7.53-1.47-1.94-.35-3.87-.59-5.81-.88-.43-.07-.85-.11-1.27-.19-1.57-.33-2.02-.68-2.21-1.37-.04-.16-.11-.32-.12-.48-.04-.51,.69-.77,1.88-.73,3.5,.28,7.07,1.01,10.67,1.72,2.67,.5,5.34,1.09,8.02,1.57v.06Z"/>
    <path class="cls-1" d="M405.2,365.38c1.75,.38,3.5,.75,5.25,1.09,.64,.12,1.29,.18,1.93,.31,2.26,.44,4.52,.88,6.78,1.32,1,.19,2.02,.33,3.03,.46,.65,.07,1.29,.15,1.93,.29,.64,.1,1.27,.33,1.9,.58,.38,.2,.33,.2-.04,.36-.26,.11-.52,.22-.76,.32-.32,.15-.68,.25-1.05,.25-1.35,.1-2.66-.11-3.99-.23-1.33-.14-2.64-.34-3.96-.64-1.57-.35-3.24-.45-4.87-.69-1.79-.26-3.57-.56-5.35-.86l-3.29-.56c-1.66-.28-3.32-.63-4.98-.88-1.29-.2-2.58-.26-3.89-.46-.29-.04-.58-.07-.88-.14-.56-.12-.91-.35-1.15-.59-.23-.25-.35-.57-.26-.96,.03-.18,.14-.36,.3-.35,.05,0,.01,0,.05,0,0,0,.01,0,.01,0,.03,0,.06-.02,.09-.04,.03-.03,.18-.13,.29-.28,.03-.03,.05-.09,.07-.1l.03-.02,.05-.05c.05-.02,.1-.04,.16-.06,.12-.03,.27-.04,.44-.04,2.1,.13,4.51,.51,6.86,.92,1.76,.29,3.52,.67,5.29,1.01v.06Z"/>
    <g class="cls-3">
      <path class="cls-1" d="M381.78,343.03l2.5-12.31c.3-1.5,.51-3.01,.82-4.5,1.06-5.27,2.13-10.53,3.02-15.82,.41-2.34,.75-4.72,1.03-7.06,.18-1.51,.31-3.02,.54-4.52,.1-.75,.21-1.51,.33-2.26l.19-1.12c.07-.37,.22-.74,.32-1.11,.31-.92,.49-.78,.84,.06,.42,.85,.86,2.38,.78,4.15-.39,6.23-1.23,12.43-2.61,18.57-.8,3.67-1.34,7.54-2.05,11.31l-2.41,12.41c-.49,2.54-.98,5.09-1.43,7.64-.68,3.86-1.38,7.74-1.88,11.59-.39,3-.56,5.96-.78,8.94-.04,.66-.08,1.3-.12,1.96-.07,1.23-.32,2.01-.52,2.57-.11,.27-.23,.49-.37,.66-.16,.17-.33,.3-.51,.42-.16,.11-.31,.25-.44,.31-.37,.2-.93-.86-.99-2.69-.06-5.41,.66-11.06,1.49-16.69,.62-4.19,1.42-8.35,2.18-12.51h.07Z"/>
    </g>
    <g class="cls-3">
      <path class="cls-1" d="M433.88,389.31l-13.5-2.16c-1.64-.26-3.3-.43-4.94-.69-5.79-.95-11.58-1.93-17.35-3.05-2.57-.47-5.15-.94-7.7-1.41-1.64-.35-3.28-.61-4.9-1.11-1.6-.49-3.26-.9-4.73-1.82-.92-.53-.71-.61,.25-.67,.98-.1,2.58-.09,4.45,.2,6.61,1.13,13.21,2.26,19.9,3.41,4,.78,8.23,1.18,12.36,1.74l13.64,1.91c2.8,.4,5.6,.8,8.4,1.2,4.24,.63,8.5,1.26,12.71,1.88,3.27,.49,6.52,.76,9.78,1.23,.72,.1,1.43,.14,2.14,.32,1.32,.31,2.19,.55,2.76,.87,.56,.36,.85,.72,1.05,1.15,.09,.2,.22,.4,.26,.57,.06,.29-.2,.49-.73,.65-.53,.15-1.35,.32-2.32,.21-2.9-.18-5.85-.56-8.84-.95-1.5-.19-3-.4-4.51-.62-1.52-.21-3.04-.41-4.56-.65-4.52-.7-9.06-1.41-13.6-2.12v-.08Z"/>
    </g>
    <g class="cls-3">
      <path class="cls-1" d="M480.44,339.85l-2.49,11.94c-.3,1.45-.51,2.92-.82,4.37-1.11,5.11-2.16,10.23-3.33,15.33-.5,2.27-.9,4.56-1.34,6.82-.56,2.9-1.13,5.82-1.89,8.68-.24,.89-.47,.73-.65-.09-.17-.82-.35-2.31-.2-4.01,.29-3.01,.56-6.03,1.07-9.01,.48-2.98,.94-5.98,1.66-8.94,.83-3.55,1.33-7.31,2.01-10.97l2.3-12.07c.48-2.47,.97-4.95,1.45-7.42,.71-3.75,1.47-7.51,2.07-11.25,.48-2.91,.8-5.78,1.21-8.66,.09-.64,.15-1.26,.26-1.9,.41-2.36,.77-3.07,1.59-3.45,.19-.09,.38-.21,.55-.25,.59-.13,.9,.92,.83,2.69-.3,5.23-.92,10.69-1.94,16.11-.71,4.03-1.5,8.06-2.25,12.09h-.08Z"/>
    </g>
    <g class="cls-3">
      <path class="cls-1" d="M449.11,297.83c-4.53-.74-9.09-1.36-13.65-1.96-1.66-.23-3.34-.34-5-.57-5.87-.78-11.74-1.52-17.63-2.22-2.61-.31-5.24-.57-7.84-.81-1.67-.17-3.35-.29-5.02-.48-1.67-.22-3.33-.48-4.98-.81-1.03-.21-.84-.6,.09-.94,.93-.33,2.6-.67,4.53-.55,6.81,.58,13.6,1.33,20.44,2.28,4.09,.58,8.38,.89,12.58,1.37,4.61,.55,9.22,1.17,13.83,1.83,2.83,.44,5.66,.85,8.49,1.34,4.28,.69,8.56,1.54,12.78,2.38,3.28,.69,6.51,1.29,9.73,2.13,.71,.18,1.41,.31,2.12,.53,2.59,.91,3.36,1.35,3.77,1.96,.09,.14,.23,.29,.27,.41,.14,.39-1.01,.35-2.96,0-1.45-.27-2.89-.59-4.37-.88-1.47-.31-2.94-.64-4.44-.9-2.99-.57-6.03-1.15-9.07-1.74-4.53-.82-9.09-1.64-13.68-2.29v-.06Z"/>
    </g>
  </g>
  <path class="cls-1" d="M221.91,158.41c.96,2.21,2.4,4.27,4.04,6.02s3.82,3.44,6.33,3.73c2.24,.27,4.5-.95,5.5-2.98,1.08-2.19,.93-4.75,.58-7.1-.36-2.37-1.07-4.75-2.13-6.91-.38-.78-1.48-.99-2.19-.57-.79,.46-.96,1.41-.57,2.19,.08,.15,.15,.31,.22,.46,.04,.09,.08,.19,.12,.28-.02-.05-.12-.31-.01-.02,.15,.41,.31,.81,.45,1.22,.31,.93,.58,1.88,.78,2.85,.37,1.71,.59,3.79,.2,5.32-.05,.21-.12,.41-.19,.61-.08,.25,.18-.32-.02,.06-.04,.08-.08,.16-.12,.24-.08,.15-.18,.3-.28,.44,.2-.28-.17,.16-.27,.25-.3,.27,.16-.1-.07,.05-.09,.06-.17,.11-.26,.16-.11,.06-.22,.12-.33,.17,.07-.03,.26-.09-.02,0-.18,.06-.36,.1-.55,.14,.34-.06-.27,0-.41,0-.09,0-.19-.01-.28-.02,.33,.04,.01,0-.07-.02-.21-.06-.43-.11-.64-.18-.1-.03-.19-.07-.28-.11,.24,.1,0,0-.04-.03-.24-.12-.47-.24-.7-.38-.84-.51-1.47-1.05-2.23-1.83-1.58-1.62-2.86-3.49-3.79-5.64-.34-.79-1.51-.97-2.19-.57-.82,.48-.92,1.39-.57,2.19h0Z"/>
  <path class="cls-1" d="M243.42,159.49c-1.72-2.77-3.43-5.62-4.8-8.74-.49-1.14-1.03-2.29-1.36-3.54-.28-1.11-.47-2.27-.5-3.48,0-1.21,.2-2.49,.7-3.66,1.02-2.24,2.68-4.01,4.7-5.13,1.75-1.02,3.64-1.68,5.51-2.1,.6-.15,1.21-.24,1.81-.35,.61-.07,1.22-.13,1.83-.15,.61-.02,1.21-.04,1.82,.05,.6,.1,1.2,.23,1.78,.36,.73,.18,.63,.46,.01,.92-.31,.23-.75,.52-1.26,.85-.26,.16-.53,.34-.82,.47-.29,.11-.6,.19-.91,.24-1.13,.19-2.21,.44-3.27,.64-1.07,.23-2.07,.56-3.03,.94-.93,.42-1.82,.89-2.6,1.48-.75,.61-1.47,1.27-2.06,2.09-.17,.24-.39,.5-.48,.73l-.18,.36-.12,.4c-.17,.53-.2,1.14-.2,1.75,.05,1.24,.41,2.55,.86,3.84,1.01,2.86,2.59,5.65,4.27,8.38,1.04,1.68,2.13,3.35,3.23,5.03,.74,1.14,1.48,2.3,2.17,3.52,.34,.61,.67,1.25,.96,1.93,.33,.83,.6,1.8,.44,2.7-.03,.22-.19,.39-.31,.56-.07,.08-.13,.17-.2,.24l-.26,.2c-.3,.26-.69,.44-1.05,.65l-.5,.25c-.14,.07-.28,.13-.42,.2-.56,.26-1.12,.49-1.7,.71-1.14,.43-2.31,.79-3.54,1.02-.54,.1-1.08,.21-1.64,.24-2.11,.14-2.82-.43-3.03-1.4-.06-.2-.14-.38-.16-.54-.03-.26,.18-.45,.55-.74,.19-.18,.4-.24,.65-.34,.25-.12,.52-.13,.82-.16,1.5-.19,3.04-.54,4.56-1.04,.76-.24,1.52-.53,2.23-.85,.17-.07,.38-.17,.49-.23v-.02s0-.02,0-.02c0,0-.01,0-.01,0l-.12-.25c-.55-1.17-1.42-2.54-2.26-3.87l-2.66-4.07,.07-.05Z"/>
  <path class="cls-1" d="M243.4,159.19c1.26,1.77,3.38,3.31,5.67,2.92,1.52-.26,2.89-1.44,3.6-2.78,1.42-2.69,1.03-5.96,.59-8.84-.11-.69-.23-1.37-.35-2.06-.05-.31-.11-.61-.16-.92-.01-.08-.07-.51-.03-.21s-.01-.12-.02-.2c-.08-.86-.68-1.6-1.6-1.6-.8,0-1.68,.73-1.6,1.6,.09,.97,.28,1.94,.45,2.9,.1,.56,.19,1.12,.28,1.68,0,.06,.06,.45,.04,.29s.03,.23,.04,.29c.04,.32,.07,.64,.09,.95,.05,.61,.07,1.22,.06,1.83,0,.31-.04,.62-.06,.93s.04-.18-.02,.13c-.03,.16-.05,.31-.09,.47-.06,.26-.13,.51-.21,.76-.02,.06-.04,.12-.07,.18,0-.01,.12-.25,.04-.09-.06,.13-.13,.27-.2,.39-.06,.11-.14,.21-.2,.32-.14,.25,.15-.13-.05,.07-.09,.09-.17,.18-.26,.27-.04,.04-.09,.08-.14,.13-.16,.15,.21-.14,.02-.02-.13,.08-.25,.17-.39,.24-.06,.03-.12,.06-.18,.09-.21,.11,.26-.07-.02,0-.31,.09-.4,.07-.74-.03-.6-.19-1.4-.83-1.74-1.32-.5-.7-1.4-1.04-2.19-.57-.69,.41-1.08,1.48-.57,2.19h0Z"/>
  <path class="cls-1" d="M237.57,187.32c3.22,2.24,7.78,2.3,11.09,.21,.77-.49,1.15-1.58,.63-2.39-.5-.77-1.57-1.15-2.39-.63-.32,.2-.66,.36-.99,.54,.13-.07,.21-.08,.03-.01-.11,.04-.22,.08-.33,.12-.18,.06-.36,.12-.54,.16s-.36,.09-.55,.13c-.09,.02-.19,.03-.28,.05-.25,.05,.3-.03,.05,0-.4,.03-.8,.06-1.2,.05-.19,0-.38-.01-.56-.03-.08,0-.21,0-.28-.03,.11,.05,.27,.04,.05,0-.37-.07-.74-.15-1.1-.26-.18-.06-.36-.12-.53-.18-.31-.11,.15,.08-.04-.01-.08-.04-.17-.08-.25-.12-.36-.18-.7-.39-1.03-.61-.75-.52-1.98-.16-2.39,.63-.47,.89-.18,1.83,.63,2.39h0Z"/>
  <path class="cls-1" d="M229.99,137.55c-1.95-2.32-5.21-3.26-8.16-2.94-3.5,.39-6.5,2.23-9.3,4.25-.76,.55-1.14,1.52-.63,2.39,.44,.76,1.62,1.18,2.39,.63,2.26-1.63,4.73-3.36,7.56-3.77,2.04-.3,4.26,.25,5.66,1.91,.61,.72,1.85,.63,2.47,0,.72-.72,.61-1.75,0-2.47h0Z"/>
  <path class="cls-1" d="M249.52,106.99c1.27-.37,2.26-.74,2.8-.97-.08,.04-.17,.09-.27,.14-.77,.39-1.63,.66-2.53,.83Z"/>
  <path class="cls-1" d="M323.33,253.78c.06-.24,.16-.47,.24-.7,.03-.08,.02-.17,.05-.26,.12-.3,.25-.59,.35-.89,.04-.13,.05-.27,.06-.41,0-.18-.05-.36,.1-.52,.09-.1,1.16,.19,1.16,.39,0,.36-.08,.71-.28,1.05-.12,.2-.09,.43-.14,.65-.06,.24-.11,.48-.19,.71-.05,.14-.09,.29-.13,.44-.06,.22-.13,.44-.15,.66-.02,.17,.03,.35,.04,.53,0,.04,0,.08,0,.11-.03,.14-.12,.17-.4,.17h-.18c-.2-.02-.37-.1-.45-.21-.24-.34-.27-.68-.25-1,.02-.24,.07-.48,.12-.72h.03Z"/>
  <path class="cls-1" d="M328.59,257.9c0-.16-.02-.33-.03-.5,0-.06-.05-.11-.05-.17-.03-.22-.06-.46-.16-.67-.04-.1-.11-.17-.18-.24-.1-.09-.23-.13-.25-.29-.02-.11,.64-.73,.82-.61,.28,.21,.49,.51,.56,.87,.04,.21,.18,.37,.25,.57,.08,.21,.12,.44,.13,.66,.01,.14,.02,.28,.02,.41,.01,.21-.02,.41-.02,.61,0,.15,.04,.31,.03,.47,0,.03,0,.07,0,.1-.03,.13-.1,.16-.31,.14h-.14c-.16-.04-.29-.12-.34-.2-.15-.25-.23-.47-.31-.67-.04-.15-.02-.31-.05-.47h.03Z"/>
  <path class="cls-1" d="M333.31,260.01c.04-.12,.11-.23,.16-.34,.02-.04,.02-.09,.04-.13,.07-.14,.16-.3,.23-.43,.03-.06,.04-.13,.05-.2,.01-.09,0-.19,.08-.26,.05-.04,.61,.18,.6,.28-.03,.18-.1,.35-.23,.51-.08,.09-.08,.21-.12,.32-.04,.11-.1,.23-.14,.35-.03,.07-.07,.15-.1,.21-.04,.11-.1,.21-.12,.33-.02,.09,0,.18,0,.27,0,.02,0,.04,0,.06-.01,.07-.06,.08-.2,.06l-.1-.02c-.11-.02-.19-.07-.21-.14-.06-.18-.05-.35-.02-.52,.02-.12,.06-.24,.09-.36h.02Z"/>
  <path class="cls-1" d="M191.57,363.21c-.25-.07-.49-.15-.73-.24-.09-.03-.18-.01-.27-.06-.29-.16-.57-.35-.84-.52-.12-.07-.25-.11-.39-.13-.17-.03-.38,0-.47-.23-.05-.14,.72-1.53,.86-1.5,.28,.06,.52,.2,.74,.49,.14,.18,.34,.14,.51,.2,.19,.08,.38,.17,.58,.24,.12,.04,.25,.09,.37,.12,.19,.04,.39,.09,.58,.09,.15-.01,.29-.12,.43-.14,.03,0,.06-.02,.09-.02,.12,0,.17,.1,.25,.41l.05,.21c.05,.23,.02,.44-.07,.57-.13,.18-.28,.35-.44,.45-.16,.08-.33,.13-.51,.17-.26,.02-.51-.02-.77-.05v-.04Z"/>
  <path class="cls-1" d="M195.44,357.73c-.12-.06-.25-.12-.37-.17-.05-.02-.09,.02-.14,0-.16-.09-.32-.21-.48-.29-.07-.03-.14-.02-.21,0-.09,.04-.18,.16-.27-.03-.06-.12,.02-1.79,.12-1.82,.18-.04,.37,.02,.55,.26,.11,.14,.23,.06,.34,.1,.12,.04,.25,.1,.37,.15,.08,.03,.15,.07,.23,.09,.12,.03,.23,.09,.35,.06,.09-.02,.18-.14,.27-.22,.02-.02,.04-.05,.06-.06,.07-.03,.1,.09,.11,.56v.32c.02,.36-.01,.66-.07,.77-.16,.32-.33,.37-.49,.38-.12,0-.25-.04-.38-.06v-.04Z"/>
  <path class="cls-1" d="M229.5,255.29c-.45-1.01-.46-2.27,0-3.27,.15-.37,.31-.73,.56-1.02,.9-1.03,2.15-1.38,3.27-1.42,.5-.03,1.01,0,1.5,.08,.63,.1,1.32,.39,1.65,.99,.11,.18-.19,.39-.54,.57-.35,.17-.73,.37-.91,.34-.67-.14-1.36,0-2.15,.14-.48,.12-.81,.51-1.03,.84-.27,.36-.4,.82-.29,1.32,.05,.3,.18,.63,.41,.91,.33,.42,.8,.82,1.35,.95,.43,.13,.84-.04,1.18-.1,.08,0,.15-.05,.22-.07,.27-.07,.5,.15,.78,.43l.2,.19c.18,.19,.2,.53-.06,1.01-.48,.48-1.18,.89-1.92,.91-.74,.08-1.45-.14-2.08-.47-.94-.49-1.71-1.27-2.21-2.3l.05-.03Z"/>
  <path class="cls-1" d="M228.2,260.73c-.04-1.17,.41-2.15,.96-2.92,.2-.28,.4-.57,.66-.79,.97-.8,2.1-1.07,3.11-1.17,.45-.04,.89-.09,1.32-.11,.55-.03,1.11-.06,1.62,.19,.16,.08,.09,.41-.08,.73-.17,.32-.44,.67-.7,.71-.95,.12-1.76,.31-2.55,.48-.51,.11-.79,.52-1.04,.89-.29,.4-.54,.86-.6,1.32-.03,.28-.05,.56,.05,.82,.1,.32,.46,.7,.93,.77,.36,.06,.71-.12,.87-.27,.04-.02,.08-.06,.12-.07,.16-.04,.32,.02,.8,.24l.33,.14c.35,.14,.58,.51,.37,1.03-.15,.37-.42,.71-.75,.99-.34,.22-.73,.4-1.12,.47-.8,.2-1.61,.02-2.34-.36-.54-.29-1.05-.73-1.42-1.31-.38-.61-.53-1.16-.6-1.76h.07Z"/>
  <g>
    <path class="cls-2" d="M434.51,171.3s22.88,3.05,32.72,1.68c2.06-.29-2.5,25.55-1.32,27.92s-33.69,2.51-33.57-.13c.12-2.64,2.17-29.47,2.17-29.47Z"/>
    <g class="cls-3">
      <path class="cls-1" d="M350.39,128.4c.46-4.39,.91-8.78,1.29-13.17,.15-1.6,.18-3.21,.33-4.82,.5-5.65,1.09-11.3,1.48-16.97,.18-2.51,.27-5.05,.34-7.54,.04-1.61,.14-3.21,.24-4.82l.08-1.2,.18-1.2c.13-.8,.26-1.6,.39-2.4,.18-1,.37-.86,.69,0,.16,.43,.37,1.04,.61,1.77,.12,.37,.23,.77,.34,1.19,.06,.21,.09,.43,.17,.65,.02,.22,.03,.45,.05,.68,.06,1.65,.14,3.29,.15,4.94-.05,1.64-.12,3.29-.2,4.93-.16,3.29-.4,6.58-.75,9.88-.4,3.95-.47,8.08-.8,12.12-.35,4.45-.77,8.89-1.2,13.33-.27,2.73-.55,5.46-.82,8.19-.41,4.13-.9,8.28-1.26,12.39-.31,3.19-.34,6.35-.64,9.5-.07,.69-.12,1.38-.21,2.07-.39,2.58-.79,3.37-1.43,3.86-.15,.11-.29,.26-.42,.32-.42,.2-.74-.9-.87-2.83-.09-1.43-.06-2.87-.09-4.33-.02-1.46,.13-2.91,.22-4.38,.2-2.94,.49-5.91,.76-8.88,.43-4.42,.86-8.86,1.29-13.29h.08Z"/>
    </g>
    <g class="cls-3">
      <path class="cls-1" d="M421.09,74.82c-5.15-.38-10.31-.66-15.48-.89l-5.66-.13c-6.65-.23-13.3-.43-19.95-.47-2.95-.02-5.92,.04-8.85,.13-1.88,.07-3.77,.11-5.65,.14h-2.83c-.94,.02-1.89-.11-2.83-.17-1.18-.12-1.03-.35-.05-.77,.49-.21,1.19-.47,2.03-.76,.85-.25,1.84-.41,2.93-.49,3.85-.29,7.7-.38,11.56-.4,3.86-.04,7.73,0,11.61,.14,4.64,.16,9.48,.04,14.23,.14,5.23,.09,10.45,.31,15.67,.55,3.21,.18,6.43,.34,9.64,.56,4.86,.29,9.74,.76,14.56,1.15,1.88,.14,3.73,.27,5.59,.41,1.86,.1,3.71,.27,5.56,.47,.82,.09,1.62,.14,2.44,.26,1.52,.19,2.49,.55,3.17,.79,.68,.27,1.05,.53,1.33,.86,.13,.15,.3,.3,.37,.43,.23,.43-1.06,.64-3.32,.7-6.65-.08-13.54-.87-20.51-1.41-5.17-.38-10.37-.88-15.57-1.16v-.07Z"/>
    </g>
    <g class="cls-3">
      <path class="cls-1" d="M457.9,130.27c.44-4.05,.83-8.1,1.13-12.17,.12-1.48,.12-2.97,.23-4.46,.38-5.24,.7-10.48,1.01-15.73,.14-2.33,.2-4.68,.25-6.99,.04-1.49,0-2.98,.12-4.47,.05-.74,.11-1.49,.18-2.23,.06-.74,.25-1.48,.38-2.22,.2-.92,.4-.79,.76,0,.18,.4,.43,.96,.69,1.64,.23,.68,.37,1.47,.43,2.33,.11,1.52,.1,3.04,.08,4.56l-.08,4.56c-.04,1.52-.1,3.04-.17,4.57-.1,1.52-.22,3.05-.36,4.58-.34,3.66-.33,7.48-.56,11.23-.24,4.12-.56,8.25-.94,12.37-.23,2.53-.51,5.07-.77,7.59-.47,3.82-.94,7.66-1.4,11.46-.34,2.95-.57,5.86-.87,8.79-.07,.64-.11,1.28-.24,1.92-.45,2.38-.78,3.1-1.56,3.5-.17,.09-.34,.22-.49,.27-.47,.16-.87-.9-.82-2.68,.01-.66,.02-1.32,.04-1.99,.02-.67,.1-1.33,.14-1.99,.11-1.33,.24-2.68,.39-4.03,.26-2.7,.64-5.43,.96-8.17,.51-4.06,.99-8.15,1.4-12.23h.07Z"/>
    </g>
    <g class="cls-3">
      <path class="cls-1" d="M406.19,195.81l-7.3-.62c-.89-.07-1.78-.08-2.67-.18-3.13-.34-6.25-.8-9.36-1.27-1.38-.21-2.78-.33-4.14-.54-1.75-.29-3.59-.14-5.16-1.52-.52-.24-.45-.23,.05-.36,.24-.05,.63-.35,1.08-.67,.44-.26,.93-.38,1.45-.45,1.79,.13,3.57,.23,5.34,.51,1.77,.27,3.54,.58,5.32,.92,2.13,.42,4.39,.44,6.59,.62,2.43,.19,4.86,.38,7.3,.52,1.5,.09,3,.19,4.51,.25,2.28,.09,4.57,.23,6.85,.27,1.77,.03,3.52-.12,5.29-.15,.39,0,.77-.05,1.17-.04,1.45,.1,1.88,.48,2.1,1.33,.05,.2,.12,.4,.14,.58,.07,.63-.58,1.14-1.63,1.33-3.1,.35-6.31,.14-9.58-.02-2.43-.12-4.88-.34-7.33-.45v-.07Z"/>
    </g>
    <path class="cls-1" d="M414.7,95.23l-11.37-.78c-1.38-.09-2.77-.11-4.15-.2l-14.62-1.1c-2.16-.17-4.34-.31-6.48-.43-2.76-.14-5.53-.35-8.25-.98-.85-.23-.73-.23,.01-.4,.45-.1,.98-.22,1.54-.35,.32-.07,.66-.16,1.03-.2,.36-.04,.75-.06,1.15-.07,2.83-.11,5.63,.11,8.45,.2,1.41,.07,2.82,.15,4.23,.22,1.41,.11,2.82,.23,4.24,.34,3.39,.31,6.92,.31,10.4,.46l11.46,.53c2.35,.11,4.71,.23,7.06,.34,3.56,.16,7.14,.41,10.68,.53,2.75,.1,5.46,.04,8.19,.08,.6,0,1.19-.02,1.8,.01,2.24,.13,2.93,.45,3.36,1.18,.1,.17,.23,.34,.28,.51,.17,.55-.77,.96-2.42,1.09-4.87,.23-9.97-.03-15.1-.26-3.81-.17-7.64-.43-11.46-.65v-.07Z"/>
    <path class="cls-1" d="M397.32,124.43l-7.57-.58c-.92-.06-1.85-.06-2.77-.13-3.25-.27-6.51-.53-9.75-.8-1.44-.13-2.89-.21-4.33-.29-1.84-.08-3.69-.22-5.5-.76-.56-.2-.48-.2,.02-.39,.33-.12,.69-.25,1.03-.37,.43-.17,.93-.3,1.46-.31,1.89-.17,3.75-.02,5.63,.02,1.88,.06,3.75,.17,5.64,.38,2.26,.23,4.62,.18,6.93,.27l7.65,.34,4.71,.23c2.38,.11,4.76,.3,7.13,.38,1.84,.07,3.65-.02,5.47-.02,.4,0,.8-.03,1.2,0,1.5,.1,1.95,.4,2.21,1.1,.06,.16,.14,.33,.17,.48,.1,.53-.55,.93-1.65,1.08-3.25,.28-6.64,.09-10.05-.07-2.53-.12-5.08-.32-7.62-.48v-.06Z"/>
    <path class="cls-1" d="M392.51,157.35c-2.31-.23-4.63-.4-6.96-.54-.85-.05-1.7-.02-2.55-.08-3.01-.2-6.01-.39-9.02-.59-1.33-.1-2.68-.15-4-.21-1.7-.05-3.42-.17-5.09-.7-.52-.2-.44-.2,.02-.39,.31-.12,.64-.25,.95-.38,.4-.17,.85-.3,1.34-.32,1.74-.19,3.45-.06,5.18-.07,.86,.02,1.73,.05,2.6,.07,.87,.05,1.73,.12,2.61,.19,2.08,.18,4.26,.07,6.41,.12,2.36,.05,4.72,.14,7.08,.26,1.45,.08,2.91,.18,4.36,.28,2.2,.15,4.41,.45,6.59,.66,.85,.1,1.69,.16,2.54,.2l2.54,.21c.37,.03,.74,.05,1.12,.12,1.38,.26,1.76,.61,1.9,1.33,.03,.17,.08,.34,.09,.5,.01,.53-.64,.86-1.65,.89-2.98-.08-6.02-.53-9.12-.82-2.3-.23-4.61-.49-6.94-.66v-.06Z"/>
    <path class="cls-1" d="M410.72,108.77l-10.63-.69c-1.29-.08-2.59-.09-3.88-.18-4.56-.32-9.12-.64-13.68-1.01-2.02-.17-4.06-.28-6.06-.41-2.58-.13-5.17-.33-7.72-.93-.79-.22-.68-.22,.01-.39,.43-.1,.92-.22,1.44-.34,.6-.16,1.29-.27,2.03-.26,2.64-.11,5.26,.1,7.9,.18,1.32,.07,2.63,.13,3.95,.2,1.32,.11,2.64,.21,3.96,.32,3.16,.29,6.47,.28,9.72,.4l10.72,.45c2.2,.1,4.4,.2,6.6,.3,3.33,.14,6.68,.37,9.99,.47,2.57,.09,5.1,.03,7.66,.06,.56,0,1.11-.01,1.68,.01,2.1,.12,2.74,.43,3.14,1.13,.09,.16,.21,.33,.26,.49,.16,.53-.72,.92-2.26,1.05-4.56,.23-9.32-.02-14.12-.22-3.56-.15-7.14-.39-10.71-.58v-.06Z"/>
    <path class="cls-1" d="M409.6,143.29l-11.07-.74c-1.35-.08-2.7-.1-4.04-.19-4.75-.33-9.5-.67-14.24-1.06-2.11-.17-4.22-.3-6.32-.42-2.69-.14-5.39-.34-8.04-.95-.82-.22-.71-.22,.01-.39,.44-.1,.96-.21,1.5-.34,.62-.16,1.34-.26,2.12-.26,2.75-.1,5.48,.11,8.23,.2,1.37,.07,2.74,.14,4.12,.21,1.37,.11,2.75,.22,4.13,.33,3.3,.3,6.74,.3,10.13,.44l11.16,.5c2.29,.11,4.58,.22,6.87,.32,3.47,.15,6.95,.39,10.4,.5,2.68,.1,5.32,.04,7.97,.08,.59,0,1.16-.01,1.75,.01,2.18,.12,2.86,.44,3.28,1.14,.09,.16,.22,.33,.27,.49,.17,.53-.75,.92-2.35,1.05-4.75,.22-9.71-.04-14.71-.25-3.71-.16-7.44-.41-11.16-.62v-.06Z"/>
    <path class="cls-1" d="M400.22,168.98l5.25,.39c.38,.03,.77,.04,1.11,.12,.34,.1,.58,.27,.84,.39,.06,.04,.14,.05,.18,.12l.09,.21,.17,.41c.13,.29,.15,.65,.15,1.03v1.08s-.03,.63-.03,.63l-.05,1.26c-.06,1.23-.04,2.45-.14,3.68-.04,.58-.1,1.16-.19,1.75-.07,.46-.14,.96-.25,1.4-.11,.45-.35,.78-.64,1.05l-.86,.21c-.29,.07-.64,.01-.95,.02-.75,0-.98-.04-1.42-.06l-2.37-.18-4.72-.36c-1.9-.16-3.82-.23-5.7-.4-1.21-.1-2.43-.19-3.64-.33-.61-.08-1.21-.21-1.81-.35l-.9-.21c-.3-.08-.59-.23-.88-.33-.72-.31-.62-.26,.05-.43,.68-.22,1.89-.6,3.29-.7,4.91,.05,9.82,.43,14.77,.85,.7,.05,1.41,.09,2.12,.1h.79c.14,.02,.25,.02,.37,.01,.12-.05,.08-.23,.11-.34l.02-.27,.03-.59c.05-.79,.11-1.58,.16-2.37l.15-2.49,.1-1.97c0-.15,.06-.41-.16-.37l-.54-.07-2.47-.2-6.18-.42c-3.12-.18-6.25-.38-9.35-.45-.6-.02-1.2,0-1.8-.03-.6-.07-1.19-.02-1.79-.03l-3.56,.05c-.52,.02-1.03,.03-1.56,.05-.49,0-.89,0-1.23-.02-.34-.03-.61-.11-.83-.17-.45-.12-.7-.31-.92-.52-.11-.09-.22-.17-.33-.18-.06,.02-.1,.06-.12,.02,0-.01-.02-.05,.01-.11,.04-.07,.08-.08,.08-.12,.11-.12,.23-.21,.42-.34,.37-.26,.94-.42,1.67-.58,2.16-.22,4.36-.3,6.59-.38,2.24-.24,4.49-.09,6.75-.04,3.36,.11,6.73,.31,10.09,.49v.06Z"/>
    <path class="cls-1" d="M430.83,195.99c.53-5.7,.84-11.4,1.19-17.1l.37-6.23,.25-3.59,.11-1.79,.05-.91,.06-1.51,.4-1.17v-.02s0,0,0,0c.29,.29,.08,.08,.15,.14h0s.02-.03,.03-.04l.05-.05,.1-.09,.21-.18c.15-.11,.38-.14,.62-.15,.49,0,1.01,.05,1.52,.09l1.05,.11,3.69,.43c2.45,.29,4.91,.56,7.36,.81,3.24,.3,6.49,.62,9.71,.8,2.07,.13,4.14,.18,6.2,.28,1.03,.04,2.07,.07,3.1,.09,1.03,0,2.07,.14,3.1,.11,1.29,0,1.13-.04,.06,.31-.61,.2-1.37,.46-2.23,.75-.94,.26-2.06,.43-3.27,.53-2.15,.18-4.29,.2-6.43,.17-2.14-.02-4.28-.09-6.41-.19-4.26-.27-8.51-.78-12.75-1.31-.99-.13-1.98-.24-2.98-.34l-.53-.06h-.12c-.05-.02-.08,0-.07,.06v.24c-.05,1.39-.1,2.78-.14,4.18-.06,1.61-.12,3.22-.21,4.82-.15,2.88-.33,5.75-.59,8.62l-.65,8.62-.48,7.19c-.01,.06,0,.11,0,.17,.02,.04,.1,.03,.14,.04h.32s.73,.02,.73,.02c5.36-.06,10.77-.07,16.11,0,4.16,.05,8.24,0,12.4,.3,.92,.07,1.82,.12,2.75,.24,1.71,.27,2.84,.62,3.57,1.03,.72,.47,1.09,.87,1.32,1.33,.11,.21,.26,.42,.3,.58,.07,.27-.26,.38-.89,.44-.63,.05-1.6,.17-2.78,.04-7.02-.68-14.69-.9-22.37-1-2.15-.02-4.3-.03-6.45-.05h-3.24s-.82-.01-.82-.01c-.47-.02-1.06,0-1.55-.04l-.71-.13c-.13-.01-.22-.06-.3-.12l-.25-.16-.47-.29-.06-.04h0s-.21,.19-.11,.1h0s-.01-.02-.01-.02l-.02-.03-.08-.1c-.06-.07-.1-.14-.17-.21l-.13-.91c-.04-.31-.11-.59-.07-.96l.11-1.68,.16-2.16h.07Z"/>
    <path class="cls-1" d="M470.17,188.88c.15-1.47,.34-2.93,.53-4.4,.06-.54,.05-1.07,.12-1.61,.25-1.88,.52-3.77,.74-5.66,.13-.84,.18-1.68,.23-2.51-.02-1.08,.29-2.14,.59-3.2,.11-.33,.25-.28,.48,.02,.21,.29,.61,.84,.79,1.47l.21,.83c.07,.28,.04,.55,.06,.83,.02,.55,.03,1.1,.02,1.65,.02,1.1-.15,2.19-.34,3.29-.24,1.31-.18,2.69-.27,4.04-.11,1.48-.22,2.97-.38,4.45l-.26,2.74c-.11,1.38-.26,2.77-.28,4.14,0,1.07,.09,2.13,.07,3.19-.02,.23-.02,.46-.05,.69-.07,.43-.15,.71-.28,.91-.16,.19-.34,.29-.56,.37-.1,.04-.2,.08-.3,.1-.16,.03-.3-.05-.45-.22-.15-.17-.34-.43-.42-.75-.73-1.94-.7-3.93-.61-5.93,.07-1.48,.2-2.97,.31-4.45h.07Z"/>
    <path class="cls-1" d="M444.34,183.52c.77-.77,1.55-1.53,2.34-2.27,.28-.28,.54-.58,.83-.85,1.02-.95,2.05-1.9,3.07-2.85,.45-.43,.88-.88,1.29-1.33,.53-.58,1.04-1.19,1.68-1.66,.4-.3,.74,.9,.15,1.59-1.06,1.2-2.16,2.37-3.37,3.44-.73,.64-1.35,1.44-2.02,2.16l-2.25,2.36-1.38,1.46c-.69,.75-1.39,1.48-2.03,2.26-.51,.6-.87,1.3-1.36,1.89-.11,.13-.2,.27-.31,.4-.2,.25-.38,.37-.57,.4-.18,.04-.33,.03-.5-.03-.08-.02-.16-.04-.22-.07-.2-.09-.22-.45-.11-.96,.55-1.36,1.5-2.47,2.48-3.57,.73-.82,1.49-1.61,2.25-2.4l.03,.03Z"/>
    <path class="cls-1" d="M448.41,187.31l3.13-2.76c.38-.34,.71-.72,1.1-1.05,1.36-1.15,2.73-2.31,4.09-3.46,.6-.52,1.16-1.08,1.71-1.64,.7-.72,1.33-1.53,2.22-2.05,.55-.33,1.37,1.7,.55,2.52-1.46,1.45-2.99,2.8-4.68,4.03-1.01,.73-1.86,1.7-2.79,2.56l-3.08,2.82-1.88,1.75c-.94,.9-1.9,1.78-2.77,2.73-.67,.74-1.28,1.52-1.92,2.28-.14,.17-.27,.34-.42,.5-.61,.54-.89,.64-1.39,.4-.1-.04-.21-.07-.29-.11-.22-.11-.35-.69-.04-1.22,.86-1.63,2.03-3.11,3.39-4.42,.98-.99,2.02-1.94,3.03-2.91l.04,.04Z"/>
    <path class="cls-1" d="M456.73,190.55c.84-.73,1.68-1.46,2.5-2.23,.3-.28,.56-.6,.85-.87,1.05-.99,2.12-1.96,3.15-2.98,.46-.45,.88-.93,1.3-1.41,.53-.62,1.03-1.28,1.69-1.78,.41-.32,.86,.96,.28,1.7-1.05,1.3-2.14,2.55-3.4,3.7-.75,.68-1.39,1.52-2.1,2.27-.79,.82-1.59,1.63-2.42,2.42l-1.53,1.45c-.77,.73-1.58,1.43-2.33,2.17-.58,.58-1.08,1.23-1.62,1.84-.12,.14-.22,.28-.36,.4-.26,.21-.45,.33-.64,.34-.21,0-.4-.1-.61-.24-.1-.06-.19-.11-.27-.18-.13-.1-.18-.25-.21-.47-.03-.22,0-.49,.13-.69,.78-1.28,1.93-2.22,3.04-3.23,.83-.74,1.67-1.48,2.51-2.22l.03,.03Z"/>
  </g>
  <g>
    <path class="cls-2" d="M64.61,238.37c.41-2.76-27.7,2.85-27.7,2.85l4.04,26.97,28.19-4.93s-5.43-18.75-4.53-24.89Z"/>
    <path class="cls-1" d="M38.81,264.43c-.53-4.91-1.26-9.78-1.94-14.65l-.76-5.33-.41-3.07-.21-1.53-.11-.79-.21-1.28,.14-1.06v-.03s0-.02,0-.02c-.03-.02,.28,.19,.15,.1h0s0-.01,0-.01c.01-.02,.02-.03,.03-.05l.07-.09,.14-.18c.1-.13,.27-.21,.47-.26,.4-.1,.86-.14,1.29-.19l.95-.09,3.2-.28,6.37-.58c2.79-.3,5.59-.6,8.34-1,1.77-.25,3.53-.56,5.29-.84,.88-.14,1.76-.29,2.63-.46,.87-.18,1.77-.23,2.64-.43,1.09-.22,.95-.23,.11,.26-.49,.29-1.09,.64-1.76,1.03-.75,.39-1.67,.73-2.67,1.02-1.79,.53-3.59,.91-5.41,1.26-1.81,.35-3.63,.67-5.45,.95-3.65,.51-7.33,.81-11.01,1.09-.86,.06-1.73,.14-2.59,.23-.24,.04-.72-.05-.53,.32,.2,1.17,.41,2.35,.61,3.53,.23,1.37,.45,2.73,.65,4.1,.37,2.46,.72,4.92,.99,7.39l.93,7.39,.83,6.13c0,.05,.01,.1,.02,.14,.02,.04,.08,.01,.12,.01l.27-.04,.6-.12c4.52-.98,9.09-1.91,13.62-2.78,3.52-.68,6.97-1.43,10.53-1.9,.79-.1,1.56-.21,2.36-.27,1.49-.07,2.51,.03,3.2,.26,.7,.28,1.07,.56,1.35,.92,.13,.16,.29,.31,.35,.44,.1,.22-.16,.38-.68,.55-.53,.16-1.32,.44-2.34,.53-6.04,.66-12.56,1.79-19.07,3.03-1.82,.36-3.64,.72-5.46,1.07l-2.75,.55-.72,.14c-.45,.07-.91,.19-1.34,.24-.21,0-.41,0-.62,0-.21,0-.33-.1-.51-.15l-.45-.17h-.03s-.01-.02-.01-.02h0s0,0,0,0c-.15,.22-.04,.06-.08,.11l-.04-.04-.09-.07c-.06-.05-.11-.1-.18-.15l-.28-.74c-.09-.25-.2-.48-.22-.8l-.21-1.48-.24-1.85h.06Z"/>
    <path class="cls-1" d="M89.72,178.8l-10.46,1.22c-1.27,.15-2.53,.37-3.81,.51l-13.47,1.46c-1.99,.21-3.99,.45-5.96,.71-2.53,.34-5.08,.62-7.66,.52-.81-.07-.7-.08-.06-.37,.4-.17,.86-.37,1.33-.58,.55-.26,1.21-.49,1.93-.62,2.55-.58,5.13-.86,7.71-1.25,2.58-.37,5.17-.68,7.79-.92,3.13-.29,6.35-.88,9.53-1.33l10.5-1.45,6.47-.89c3.26-.46,6.55-.86,9.78-1.37,2.51-.39,4.96-.92,7.43-1.38,.54-.1,1.08-.23,1.63-.31,2.05-.29,2.74-.13,3.26,.46,.12,.14,.27,.27,.35,.41,.26,.47-.52,1.01-1.99,1.43-4.38,1.1-9.05,1.77-13.75,2.46-3.49,.51-7.01,.93-10.52,1.38v-.06Z"/>
    <path class="cls-1" d="M93.12,191.67l-9.87,1.12c-1.2,.14-2.39,.35-3.59,.48l-12.71,1.33c-1.88,.19-3.77,.42-5.63,.65-2.39,.32-4.79,.58-7.23,.46-.76-.07-.66-.09-.06-.37,.38-.17,.81-.37,1.26-.57,.52-.25,1.13-.48,1.82-.6,2.4-.56,4.84-.82,7.27-1.19,2.43-.35,4.88-.63,7.35-.84,2.95-.26,5.98-.82,8.98-1.24l9.9-1.35,6.1-.83c3.08-.43,6.18-.8,9.23-1.28,2.37-.37,4.67-.88,7.01-1.32,.51-.1,1.01-.22,1.53-.3,1.93-.28,2.58-.11,3.08,.48,.11,.14,.26,.27,.33,.41,.25,.47-.48,1-1.87,1.41-4.12,1.07-8.53,1.69-12.97,2.34-3.29,.48-6.61,.86-9.93,1.28v-.06Z"/>
    <path class="cls-1" d="M96.54,214.08c-3.01,.35-6.02,.73-9.04,1.14-1.1,.15-2.19,.37-3.29,.51-3.88,.5-7.77,1-11.66,1.44-1.73,.19-3.46,.44-5.17,.66-2.19,.32-4.41,.57-6.65,.43-.7-.08-.61-.09-.06-.37,.35-.17,.75-.37,1.15-.56,.47-.25,1.04-.47,1.66-.59,2.2-.55,4.43-.8,6.66-1.18,1.11-.16,2.23-.33,3.35-.49,1.12-.13,2.25-.26,3.38-.39,2.71-.28,5.48-.88,8.22-1.32,3.02-.49,6.05-.96,9.09-1.41l5.61-.79c2.84-.35,5.69-.7,8.51-1.05,2.19-.29,4.33-.68,6.5-1.01,.48-.07,.94-.16,1.43-.21,1.79-.16,2.38,.05,2.81,.66,.1,.14,.22,.28,.28,.43,.2,.48-.49,.97-1.78,1.3-3.82,.8-7.86,1.23-11.92,1.75-3.02,.37-6.06,.74-9.08,1.11v-.06Z"/>
    <path class="cls-1" d="M100.18,202.67c-2.43,.24-4.86,.53-7.29,.87-.89,.12-1.76,.32-2.65,.44-3.14,.43-6.28,.86-9.41,1.29-1.39,.18-2.79,.42-4.16,.65-.88,.16-1.76,.32-2.66,.4-.89,.12-1.8,.13-2.71,.1-.57-.06-.5-.08-.07-.36,.29-.18,.6-.38,.9-.57,.37-.25,.81-.47,1.31-.6,1.76-.56,3.56-.83,5.35-1.19,1.79-.35,3.6-.63,5.43-.84,2.19-.26,4.42-.8,6.64-1.19,2.44-.42,4.9-.82,7.37-1.16l4.55-.59c2.3-.3,4.62-.48,6.9-.77,1.77-.23,3.5-.58,5.24-.87,.38-.06,.76-.15,1.15-.19,1.45-.15,1.93,.05,2.29,.65,.08,.14,.19,.28,.24,.42,.18,.47-.37,.94-1.41,1.26-3.08,.78-6.37,1.13-9.66,1.5-2.44,.27-4.9,.53-7.35,.8v-.06Z"/>
    <path class="cls-1" d="M109.87,232.94c-1.6,.18-3.21,.38-4.81,.61-.59,.08-1.16,.23-1.74,.31-2.07,.27-4.15,.53-6.22,.8-.92,.11-1.84,.28-2.75,.44-.58,.11-1.17,.22-1.76,.25-.59,.07-1.2,.01-1.81-.09-.38-.11-.33-.12-.05-.37,.2-.17,.4-.35,.58-.5,.24-.23,.52-.42,.84-.52,1.13-.45,2.3-.62,3.47-.89,1.17-.25,2.35-.45,3.57-.56,1.45-.14,2.9-.56,4.36-.84,1.6-.31,3.21-.58,4.82-.86l2.98-.49c1.51-.23,3.03-.46,4.54-.69,1.17-.19,2.31-.52,3.54-.69,.28-.03,.54-.09,.84-.09,1.08,.02,1.61,.46,1.55,1.19-.02,.16-.04,.32-.11,.45-.11,.22-.33,.37-.46,.53-.04,.07-.16,.15-.24,.21-.07,.05-.21,.11-.34,.15-1.69,.38-3.87,.73-5.97,1.05-1.58,.25-3.19,.44-4.8,.68v-.06Z"/>
    <g class="cls-3">
      <path class="cls-1" d="M130.06,244.23c.62-.24,1.2-.53,1.8-.78,.32-.12,.55-.3,.82-.45,.23-.14,.6-.37,.68-.39,.03-.03,.06-.06,.08-.1-.01,.04,.04-.12,.06-.24,.03-.12,.05-.26,.08-.4,.09-.58,.14-1.24,.16-1.91,.04-1.34,0-2.74-.07-4.13-.14-2.8-.4-5.62-.7-8.43-.28-2.58-.67-5.14-.99-7.71-1.14-9.08-2.44-18.16-3.74-27.24-.59-4.03-1.25-8.07-1.9-12.05-.43-2.56-.85-5.13-1.19-7.71-.18-1.29-.34-2.58-.49-3.87l-.21-1.94c-.06-.65-.06-1.3-.1-1.95-.04-1.63,.13-1.43,.66-.12,.59,1.3,1.47,3.71,2.04,6.64,1.09,5.18,1.9,10.41,2.8,15.64,.87,5.23,1.71,10.49,2.43,15.78,.83,6.34,2.02,12.89,2.89,19.39,.47,3.57,.91,7.16,1.22,10.77,.15,1.81,.28,3.62,.31,5.46,.02,.92,.01,1.85-.06,2.81-.03,.48-.09,.97-.18,1.48-.08,.44-.29,1.27-.72,1.78-.14,.12-.25,.28-.4,.37-.33,.22-.57,.37-.81,.52l-.75,.47c-.5,.29-1.02,.49-1.54,.74-1.02,.52-2.08,.8-3.12,1.2-1.05,.33-2.11,.62-3.16,.92l-3.18,.75c-6.63,1.39-13.33,2.23-19.95,3-5.14,.64-10.18,1.26-15.26,1.9-1.12,.13-2.21,.29-3.34,.37-2.1,.16-3.48,.22-4.47,.12-.99-.14-1.57-.36-2.05-.69-.22-.15-.5-.28-.63-.42-.22-.24,.08-.5,.82-.81,.74-.31,1.91-.72,3.43-.94,4.51-.82,9.17-1.32,13.88-1.9,4.71-.55,9.48-1.12,14.23-1.74,3.53-.44,7.05-.96,10.52-1.61,3.47-.64,6.92-1.42,10.06-2.63l.04,.07Z"/>
    </g>
    <g class="cls-3">
      <path class="cls-1" d="M41.63,199.75c.37,2.65,.71,5.31,1.12,7.96,.15,.97,.38,1.92,.52,2.89,.49,3.43,1.04,6.85,1.45,10.3,.19,1.53,.47,3.05,.69,4.56,.3,1.94,.57,3.89,.67,5.85,.03,.61-.2,.57-.54,.1-.34-.47-.85-1.34-1.16-2.43-1.1-3.86-1.94-7.74-2.47-11.74-.28-2.39-.9-4.83-1.35-7.25-.49-2.67-.96-5.35-1.35-8.04l-.7-4.98c-.31-2.52-.63-5.04-.94-7.54-.29-1.93-.58-3.83-.87-5.75-.05-.42-.13-.83-.17-1.26-.14-1.59,.01-2.11,.6-2.5,.14-.09,.27-.2,.4-.26,.46-.19,.92,.42,1.22,1.56,.79,3.38,1.45,6.92,1.86,10.51,.33,2.66,.69,5.34,1.08,8h-.07Z"/>
    </g>
    <g class="cls-3">
      <path class="cls-1" d="M71.48,163.84c4.34-.64,8.68-1.24,13.03-1.78,1.59-.19,3.16-.49,4.75-.64,5.61-.61,11.23-1.04,16.86-1.39l3.75-.24c1.25-.07,2.5-.14,3.74-.21,1.59-.11,3.2-.16,4.8-.18,1.6-.03,3.21,.14,4.8,.28,.99,.11,.84,.52-.02,.94-.86,.43-2.39,.89-4.19,1.01-6.42,.22-12.85,.62-19.36,1.02-1.95,.14-3.93,.34-5.91,.58-1.99,.26-3.98,.53-5.96,.79-4.36,.55-8.71,1.13-13.06,1.78-2.68,.39-5.35,.81-8.02,1.26-4.04,.68-8.1,1.38-12.09,2.19-3.1,.62-6.11,1.37-9.15,2.09-.67,.16-1.32,.32-2,.48-2.53,.46-3.37,.46-4.01,.13-.15-.08-.33-.14-.42-.22-.31-.27,.64-.8,2.44-1.44,1.33-.5,2.7-.88,4.08-1.26,1.39-.38,2.79-.76,4.21-1.1,1.42-.34,2.85-.68,4.29-1.02,1.44-.32,2.9-.59,4.36-.88,4.33-.83,8.71-1.55,13.07-2.25l.02,.06Z"/>
    </g>
    <path class="cls-1" d="M71.17,245.35l.35,3.37c.06,.41,.15,.81,.18,1.22,.09,1.46,.18,2.91,.32,4.36,.04,.65,.13,1.29,.22,1.92,.13,.81,.26,1.62,.25,2.46,0,.26-.2,.26-.47,.1-.26-.17-.63-.5-.81-.95-.59-1.59-1.22-3.17-1.28-4.87-.07-1.01-.41-2.01-.61-3.03-.2-1.12-.34-2.24-.51-3.37l-.31-2.07c-.17-1.04-.3-2.1-.55-3.12-.18-.79-.56-1.54-.77-2.32-.05-.17-.12-.33-.16-.51-.07-.32-.03-.55,.07-.73,.14-.18,.36-.32,.62-.44,.11-.06,.21-.12,.29-.15,.15-.06,.29-.04,.56,.03,.28,.07,.52,.21,.66,.43,.24,.32,.39,.66,.57,1,.17,.34,.32,.69,.42,1.06,.21,.72,.36,1.47,.5,2.22,.2,1.11,.34,2.25,.51,3.37h-.06Z"/>
    <path class="cls-1" d="M53.78,259.39l-3.04-1.66c-.37-.21-.76-.35-1.13-.56-1.29-.74-2.57-1.5-3.88-2.19-.58-.31-1.18-.57-1.78-.82-.77-.32-1.57-.59-2.26-1.08-.44-.29,.67-1.21,1.6-.94,1.62,.54,3.21,1.15,4.72,2,.9,.51,1.94,.81,2.9,1.21,1.07,.44,2.1,.97,3.15,1.46l1.93,.91c.99,.43,1.93,.98,2.92,1.37,.77,.31,1.58,.5,2.34,.79,.17,.06,.35,.1,.5,.21,.58,.36,.71,.6,.68,1.05,0,.1,0,.21-.02,.3-.06,.31-.43,.46-.97,.47-.82,.06-1.56-.13-2.33-.28-.74-.21-1.48-.47-2.2-.74-1.1-.37-2.11-.95-3.15-1.46l.02-.06Z"/>
    <path class="cls-1" d="M55.95,253.44c-1.05-.76-2.07-1.57-3.09-2.36-.38-.28-.78-.53-1.15-.82-1.28-1.06-2.56-2.12-3.83-3.18-.57-.46-1.16-.9-1.75-1.33-.75-.55-1.54-1.06-2.17-1.77-.4-.43,.98-.99,1.87-.42,1.57,1.05,3.1,2.12,4.56,3.35,.87,.74,1.92,1.3,2.89,1.94l3.21,2.1c.66,.43,1.31,.87,1.99,1.27,1.01,.62,2.03,1.26,3.09,1.79,.81,.43,1.68,.72,2.51,1.09,.18,.09,.37,.15,.54,.25,.64,.39,.74,.72,.69,1.2-.01,.11-.02,.23-.04,.33-.08,.33-.5,.48-1.11,.46-.89-.07-1.71-.32-2.53-.62-.41-.15-.82-.31-1.22-.48-.4-.18-.77-.41-1.15-.63-1.13-.66-2.22-1.39-3.31-2.11l.03-.05Z"/>
    <path class="cls-1" d="M56.07,247.72l-2.36-1.66c-.29-.2-.6-.36-.87-.58-.95-.78-1.9-1.57-2.85-2.35-.42-.34-.87-.64-1.32-.93-.58-.37-1.19-.7-1.63-1.27-.28-.34,1.08-1.29,1.77-.93,1.19,.68,2.35,1.4,3.4,2.32,.63,.56,1.44,.88,2.17,1.3l2.38,1.46c.49,.3,.98,.59,1.49,.86,.76,.42,1.53,.83,2.32,1.18,.62,.25,1.29,.35,1.93,.54,.14,.04,.29,.06,.42,.11,.51,.2,.6,.43,.47,1.07-.03,.15-.05,.3-.09,.44-.13,.48-.49,.78-.94,.79-.66,.02-1.32-.05-1.96-.19-.62-.17-1.24-.38-1.83-.67-.86-.43-1.69-.95-2.52-1.45l.03-.06Z"/>
  </g>
  <path class="cls-1" d="M278.67,69.72c.14,.21-.13,.41-.62,.61-.16,.06-.64,.09-.71,.03-.15-.12-.29-.24-.4-.37-.06-.07-.47-1.34-.62-1.79-.16-.43-.21-.86-.25-1.29-.05-.87-.03-1.75,0-2.63,0-.19,.05-.39,.12-.57,.25-.64,.33-1.3,.36-1.97,0-.11,.04-.22-.05-.34-.07-.1-.05-.6,.03-1.1,.1-.5,.24-.99,.31-1.09,.34-.52,.59-1.06,.92-1.57,.05-.07,.05-.16,.18-.2,.32-.09,.33-.27,.41-.43,.11-.22,.24-.44,.4-.65,.08-.1,.25-.17,.39-.25,.13-.07,.44,.09,.46,.13,.07,.14,.26,.1,.4,.13,.05,.01,.11,.03,.15,.04,.05,.04,.41,1.53,.41,1.67,.03,.05-.17,1.97-.12,2.2,.01,.12-.07,.22-.13,.32-.02,.05-.05,1.59-.07,1.65-.09,.31-.03,.63-.32,.91-.06,.06-.05,.12-.06,.18-.03,.54-.19,1.07-.3,1.61-.06,.28-.04,.56-.07,.83,0,.05-.04,.1-.06,.15-.02,.06-.06,.12-.06,.19,.01,.66-.23,1.32-.16,1.99,0,.15-.29,.89-.26,1.07,0,.1-.35,.44-.28,.53Z"/>
  <path class="cls-1" d="M292.16,88.29c-.2,.18-.44-.04-.7-.49-.08-.15-.17-.62-.12-.71,.09-.16,.18-.31,.28-.43,.07-.06,1.15-.59,1.49-.82,.33-.22,.69-.34,1.04-.49,.72-.27,1.41-.62,2.09-.96,.15-.08,.31-.14,.48-.17,.59-.12,1.11-.41,1.58-.77,.08-.06,.17-.1,.2-.23,.05-.22,1.38-1.07,1.59-1.16,.52-.17,1.01-.39,1.56-.56,.08-.03,.13-.09,.25-.06,.28,.08,.39-.04,.54-.13,.21-.11,.42-.22,.64-.31,.11-.04,.28-.03,.42-.03,.13,0,.27,.24,.26,.29-.02,.14,.13,.18,.21,.26,.03,.03,.07,.06,.08,.09,.03,.04-.59,1.43-.69,1.55-.01,.01-.35,.42-.7,.85-.39,.38-.8,.77-.9,.87-.08,.09-.22,.12-.34,.16-.03,0-.35,.3-.68,.59-.34,.27-.69,.54-.72,.55-.32,.14-.58,.4-.99,.37-.08,0-.14,.04-.2,.07-.51,.31-1.1,.49-1.66,.67-.29,.09-.56,.24-.85,.34-.05,.02-.11,0-.17,.01-.07,0-.15,0-.21,.03-.67,.27-1.38,.37-2.04,.65-.15,.07-.97,.02-1.14,.09-.1,.04-.51-.22-.59-.15Z"/>
  <path class="cls-1" d="M289.91,79.34c0,.23-.32,.21-.81,.06-.16-.05-.55-.32-.58-.4-.05-.17-.1-.34-.12-.49-.01-.09,.35-1.2,.46-1.6,.11-.38,.28-.72,.49-1.05,.39-.67,.86-1.3,1.38-1.88,.11-.13,.25-.24,.41-.32,.54-.29,.95-.7,1.33-1.14,.06-.07,.14-.13,.14-.27,0-.23,1.12-1.3,1.35-1.33,.52-.16,.96-.38,1.48-.53,.07-.02,.11-.09,.23-.04,.29,.1,.38-.02,.51-.09,.19-.1,.38-.19,.59-.26,.11-.03,.27,0,.41,0,.13,0,.29,.27,.29,.32,0,.14,.15,.2,.24,.29,.03,.03,.07,.07,.09,.1,.03,.05-.39,1.38-.45,1.5,0,0-.07,.11-.17,.25-.1,.14-.21,.36-.36,.54-.29,.37-.58,.76-.63,.85-.05,.09-.17,.12-.27,.16-.05,.02-.9,1.09-.93,1.12-.23,.16-.35,.43-.71,.44-.07,0-.1,.05-.14,.09-.3,.36-.69,.62-1.06,.93-.18,.16-.32,.36-.47,.53-.03,.03-.08,.04-.12,.06-.05,.03-.12,.04-.15,.09-.38,.42-.87,.76-1.17,1.26-.08,.1-.68,.45-.75,.59-.04,.07-.5,.11-.5,.2Z"/>
</svg>