<svg xmlns="http://www.w3.org/2000/svg" width="520" height="520" viewBox="0 0 520 520"><defs><style>.cls-1{fill:#231f20;}</style></defs><title>Notioly New</title><g id="_150.Cubes" data-name="150.Cubes"><path class="cls-1" d="M167.1,208.36l3.35-3.23a10.81,10.81,0,0,1,2.76-2l2.26-1.15-3-2.57-5.06,5.23Z"/><path class="cls-1" d="M217.4,293.3c-15.89-3.72-11.83-37.4-11.83-37.4l7.53-2.31s-5.73,19-2.33,26.49S217.4,293.3,217.4,293.3Z"/><path class="cls-1" d="M162.57,221.59c.3-1.65.57-3.32.83-5,.09-.61.1-1.23.21-1.85.35-2.17.82-4.34,1.35-6.49q.34-1.45.69-2.88a10.15,10.15,0,0,1,1.44-3.55c.23-.33.58-.07.83.41a2.57,2.57,0,0,1,.24,1.79c-.66,2.26-1,4.65-1.59,7.09a42.1,42.1,0,0,0-.52,4.56c-.18,1.69-.36,3.39-.58,5.09-.12,1.05-.28,2.11-.43,3.16a48.18,48.18,0,0,1-1,4.8,11,11,0,0,1-1.42,3.79,3.91,3.91,0,0,1-.63.79c-1,.88-1.58.8-2,.2a3,3,0,0,1-.31-.42,1.32,1.32,0,0,1-.1-.8,2.36,2.36,0,0,1,.29-.7,8.41,8.41,0,0,0,.94-2.28,26.55,26.55,0,0,0,.8-2.89c.35-1.54.68-3.17.93-4.83Z"/><path class="cls-1" d="M143.5,194.74a57.2,57.2,0,0,1,4.65-7.84c1.7-2.47,3.49-4.83,5.34-7.19l2-2.55,2.1-2.49c2.57-2.86,5.25-5.59,8-8.24s5.67-5.13,8.65-7.54c2.68-2.08,5.38-4.17,8.2-6,1.81-1.2,3.65-2.38,5.58-3.4a26.85,26.85,0,0,1,3-1.36,25.78,25.78,0,0,1,3.1-1.07c1.31-.39,1.26.09.37.95a16.74,16.74,0,0,1-1.86,1.53,22.67,22.67,0,0,1-2.73,1.85,85.14,85.14,0,0,0-10.72,7.07c-3.42,2.64-6.8,5.36-10.08,8.26a108.4,108.4,0,0,0-11,11.62c-1,1.12-1.86,2.28-2.79,3.42s-1.79,2.32-2.66,3.53a82.88,82.88,0,0,0-4.86,7.32,34.89,34.89,0,0,0-4,9.86,157.22,157.22,0,0,0-3,16.25c-.55,4.23-.86,8.4-1.24,12.61-.09.93-.14,1.84-.28,2.77-.48,3.45-.83,4.52-1.55,5.18a3.18,3.18,0,0,1-.49.44c-.5.27-.73-1.19-.67-3.74,0-3.79.41-7.65.78-11.58s.9-7.91,1.51-11.9c.46-3,1-5.92,1.64-8.87.33-1.47.65-2.95,1.14-4.49a36.3,36.3,0,0,1,1.71-4.39Z"/><path class="cls-1" d="M180,216.29a35.75,35.75,0,0,0-1-4.54c-.17-.55-.39-1.08-.59-1.63a39.14,39.14,0,0,0-2.36-5.7,22.24,22.24,0,0,0-1.46-2.33,30.17,30.17,0,0,1-2-2.86c-.17-.33.2-.59.76-.64a2.13,2.13,0,0,1,1.77.64,25,25,0,0,1,4,6.32c.58,1.39,1.4,2.72,2,4.14a27.79,27.79,0,0,1,1.55,4.86c.11.51.24,1,.33,1.54l.23,1.56c.13.79.11,1.61.17,2.4s0,1.62,0,2.42c-.07.63-.1,1.25-.12,1.89a12.82,12.82,0,0,1-.36,1.89,2.82,2.82,0,0,1-.25.81c-.47,1-.82,1.18-1.57,1a4.1,4.1,0,0,1-.5-.14,1.32,1.32,0,0,1-.7-1.46c.2-.93.15-1.91.29-2.81,0-.47.08-.94.15-1.4l0-1.45c0-.72-.07-1.47-.07-2.21s-.17-1.5-.31-2.26Z"/><path class="cls-1" d="M249.49,248.88s1.65,60.56-1.31,62.84-8.42,2.95-8.42,2.95,9.13-21,6.79-38.95c-1.75-13.39-5.66-13.4-5.66-13.4Z"/><path class="cls-1" d="M213.7,346.76c-.15.51.8.65,2.47.54,15.22-1.06,26.75,9.9,27.59,25.14.79,14.41-5,32.1-5,32.1l11-7.29.87-66Z"/><path class="cls-1" d="M393.18,204.21s25.64-13.74,24.8-58.75l26.87,21.88s-7.17,2.16-8.44,12.69,1.27,17.62-4.21,24.18-16,4.45-16.42,11.61-5.89,4.26-5.89,4.26Z"/><path class="cls-1" d="M188.57,149.24c-17.21,7.26-28.26,22.08-28.26,22.08l1.56.75Z"/><path class="cls-1" d="M203,223.53l4.29,1.3c.52.16,1.06.27,1.58.43l5.53,1.68,2.46.68a32.18,32.18,0,0,1,3.14.93c.32.12.23.33-.09.49a2.77,2.77,0,0,1-1.52.19c-1.09-.2-2.2-.34-3.29-.56s-2.15-.61-3.22-1c-1.27-.43-2.65-.68-4-1l-4.37-1.18-2.69-.73c-1.36-.37-2.72-.76-4.08-1.06-1.05-.24-2.12-.36-3.18-.54a5.37,5.37,0,0,1-.7-.11c-.86-.2-1.1-.39-1.16-.91a1.34,1.34,0,0,1,0-.35c0-.38.43-.59,1.09-.56a31,31,0,0,1,5.86,1.07c1.46.37,2.91.79,4.36,1.19Z"/><path class="cls-1" d="M149.2,415.12c-14.73.41-52.23-3.82-54.57-10.2-1.91-5.21,21.15-7.37,21.15-7.37l.63,7.37Z"/><path class="cls-1" d="M152.58,416.67q-6.27-1.73-12.5-3.69c-1.51-.49-3.05-.86-4.54-1.4A98,98,0,0,1,120,405l-.82-.46-.42-.22a2.61,2.61,0,0,1-.52-.41,4.65,4.65,0,0,1-1.12-1.93,16.3,16.3,0,0,1-.72-3.8,91,91,0,0,1-.09-9.47c0-.92.27-.89.72-.09a12.41,12.41,0,0,1,1.08,4.16c.14,1.6.28,3.18.5,4.71a18.42,18.42,0,0,0,.94,4.16,2,2,0,0,0,.33.52s0,0,0,0,0,0,0,0l.13.06.51.27,2.06,1.09c1.44.64,2.83,1.37,4.31,2a103.45,103.45,0,0,0,11.08,3.89c4.14,1.28,8.3,2.52,12.49,3.65,2.58.7,5.16,1.39,7.76,2,3.93,1,7.88,2,11.82,2.77,3.06.63,6.1,1,9.14,1.58.67.11,1.32.2,2,.33,2.49.47,3.26.75,3.71,1.4a2.24,2.24,0,0,1,.3.43c.17.45-.91.64-2.79.52-2.78-.22-5.64-.47-8.5-.93s-5.74-1-8.63-1.55c-4.29-.84-8.55-1.9-12.78-3Z"/><path class="cls-1" d="M128.84,241.59a2,2,0,0,1-1.15-.2.11.11,0,0,1,0-.22c.25,0,.5-.09.76-.12s2.63-.13,3.47-.11,1.63,0,2.44.07c1.66.11,3.31.25,5,.45.37,0,.73.1,1.09.17q1.86.35,3.72.63a3.18,3.18,0,0,0,.62.07c.34,0,3.69.59,4.12.7l3.19.79a2.83,2.83,0,0,1,.44.12,3.78,3.78,0,0,0,1,.28l1.37.3a5.11,5.11,0,0,1,.66.22c.2.07.07.17,0,.18-.22,0-.06.09-.05.15a0,0,0,0,1,0,.05,2.27,2.27,0,0,1-.45,0l-1-.05c-.71,0-1.46-.09-1.61-.12l-2.08-.27-2.34-.36c-.23,0-.46-.1-.68-.15l-3.34-.52a15.36,15.36,0,0,1-1.91-.38,2.7,2.7,0,0,0-.39-.08c-1.1-.17-2.19-.39-3.29-.58-.56-.09-1.13-.15-1.7-.23l-.3-.06c-.13,0-.25-.05-.38-.06-1.34-.15-2.68-.34-4-.38-.31,0-1.78-.18-2.14-.17C129.67,241.69,129,241.57,128.84,241.59Z"/><path class="cls-1" d="M139.31,238.8a2.9,2.9,0,0,1-.92-.39c-.08,0,0-.13.07-.11l.64.1c.13,0,2.19.48,2.89.59l2,.39c1.38.27,2.76.51,4.15.72.31.05.62.11.92.18a30.7,30.7,0,0,0,3.16.55,3.07,3.07,0,0,0,.53,0c.29,0,3.16.35,3.53.44.91.19,1.83.34,2.76.49a1.29,1.29,0,0,1,.39.08,3.48,3.48,0,0,0,.84.17l1.19.19a5.45,5.45,0,0,1,.58.14c.18.05.08.14,0,.15s0,.09,0,.13,0,0,0,.05l-.38,0-.84.05a11.46,11.46,0,0,1-1.39,0l-1.8-.13-2-.17a4.21,4.21,0,0,1-.6-.11l-2.89-.38a11.82,11.82,0,0,1-1.65-.35,1.65,1.65,0,0,0-.32-.07c-1-.16-1.9-.39-2.83-.62l-1.44-.34-.26-.07-.32-.09c-1.14-.28-2.26-.59-3.39-.88l-1.78-.54C140,239.05,139.46,238.83,139.31,238.8Z"/><path class="cls-1" d="M148.37,234.91a1.6,1.6,0,0,1-.75-.37c-.07,0,0-.15.07-.14l.54.07c.11,0,1.82.41,2.41.48l1.7.29,3.47.52.77.12c.88.17,1.77.29,2.66.38a3.4,3.4,0,0,0,.45,0c.24,0,2.66.26,3,.31L165,237a1.21,1.21,0,0,1,.33.07,2.1,2.1,0,0,0,.7.16l1,.19a3.9,3.9,0,0,1,.48.17c.14,0,0,.16,0,.16s0,.09,0,.14a0,0,0,0,1,0,.05h-.32l-.69,0-1.15-.06-1.48-.17-1.69-.17a4.17,4.17,0,0,1-.49-.08l-2.42-.25a10.74,10.74,0,0,1-1.38-.23l-.28,0c-.8-.1-1.59-.24-2.39-.38l-1.22-.2-.21,0-.28-.07c-1-.18-1.91-.41-2.86-.62-.22,0-1.25-.37-1.5-.44S148.49,234.93,148.37,234.91Z"/><path class="cls-1" d="M161.65,230.91a.75.75,0,0,1-.63-.24c-.06,0,0-.21,0-.23l.42-.11c.09,0,1.48-.08,2-.08a8.92,8.92,0,0,1,1.37.08c.92.12,1.84.24,2.75.4a5.27,5.27,0,0,1,.6.14c.68.2,1.37.34,2.06.47a1.32,1.32,0,0,0,.34,0,17.58,17.58,0,0,1,2.28.44l1.74.57a.54.54,0,0,1,.25.09,1.17,1.17,0,0,0,.52.21c.26.06.51.13.76.21a2,2,0,0,1,.35.19c.1.07,0,.21,0,.22s0,.11,0,.18,0,0,0,.06a12.42,12.42,0,0,1-1.72,0l-2.45-.43a2.38,2.38,0,0,1-.38-.11l-1.85-.36a6.19,6.19,0,0,1-1-.3.56.56,0,0,0-.21-.06c-.61-.12-1.21-.28-1.81-.42-.31-.08-.62-.12-.93-.18l-.17-.05-.21,0c-.73-.12-1.47-.26-2.21-.33-.17,0-1-.2-1.17-.2A4.3,4.3,0,0,0,161.65,230.91Z"/><path class="cls-1" d="M174.43,226.64c-.26,0-.45-.13-.61-.41,0-.09,0-.32.07-.35a3.84,3.84,0,0,1,.46-.11c.09,0,1.52.07,2,.12a9.33,9.33,0,0,1,1.39.21c.94.19,1.87.39,2.79.61a3.8,3.8,0,0,1,.6.18,15.35,15.35,0,0,0,2.08.59,1,1,0,0,0,.35.06,19.42,19.42,0,0,1,2.31.57c.58.23,1.17.43,1.76.63.09,0,.18,0,.25.1a1.13,1.13,0,0,0,.53.23c.26.08.52.15.77.24a1.88,1.88,0,0,1,.36.21c.11.06,0,.2,0,.21s-.05.12-.05.18V230a6.78,6.78,0,0,1-.84,0,6.27,6.27,0,0,1-.94,0l-2.54-.45a2.52,2.52,0,0,1-.39-.12l-1.91-.39a4,4,0,0,1-1.06-.36.57.57,0,0,0-.22-.07c-.62-.16-1.22-.36-1.84-.55-.31-.1-.63-.16-.94-.24l-.17-.07a.86.86,0,0,0-.21-.07c-.75-.17-1.49-.4-2.25-.51-.17,0-1-.3-1.18-.32S174.53,226.62,174.43,226.64Z"/><path class="cls-1" d="M188.8,224.25c-.17.06-.28-.1-.39-.39a.66.66,0,0,1,0-.41,1.39,1.39,0,0,1,.31-.18,11.28,11.28,0,0,1,1.34-.06,4.05,4.05,0,0,1,.92.1c.62.12,1.23.25,1.83.41a1.74,1.74,0,0,1,.38.14,5.35,5.35,0,0,0,1.33.45.35.35,0,0,0,.23,0,8.22,8.22,0,0,1,1.48.37c.35.2.72.34,1.08.52.05,0,.12,0,.15.09s.21.17.33.21a4.78,4.78,0,0,1,.48.19,1,1,0,0,1,.21.2c.07.06,0,.24,0,.25s-.05.14-.05.22,0,.06,0,.08a6,6,0,0,1-1.2.16s-1.5-.24-1.66-.28a.74.74,0,0,1-.24-.11L194.1,226a1.78,1.78,0,0,1-.66-.29.34.34,0,0,0-.14,0c-.39-.1-.77-.26-1.16-.4-.19-.07-.4-.1-.59-.16s-.07,0-.11-.05l-.13,0a7.63,7.63,0,0,0-1.42-.3,5.77,5.77,0,0,0-.74-.22C189.08,224.44,188.87,224.22,188.8,224.25Z"/><path class="cls-1" d="M159.53,232.86a.61.61,0,0,1-.6-.38c-.05-.08,0-.3.07-.32l.44-.11c.09,0,1.5.08,2,.11a12.85,12.85,0,0,1,1.37.18l2.75.47q.3.06.6.15a13.32,13.32,0,0,0,2.07.42,1,1,0,0,0,.35,0,17.53,17.53,0,0,1,2.31.32c.59.16,1.19.28,1.79.4a.71.71,0,0,1,.25.06,1.11,1.11,0,0,0,.55.15c.26,0,.52.05.78.1a1.37,1.37,0,0,1,.38.15c.12.05.06.22,0,.23s0,.14,0,.21,0,.05,0,.07a11,11,0,0,1-1.74.27l-1.2,0-1.36-.08a1.79,1.79,0,0,1-.4-.09c-.06,0-1.86-.2-1.92-.23a4.4,4.4,0,0,1-1.08-.28.87.87,0,0,0-.22-.05c-.63-.11-1.24-.28-1.86-.43-.31-.08-.63-.14-1-.2a1.15,1.15,0,0,1-.17-.06l-.21-.06c-.75-.15-1.49-.35-2.24-.45-.18,0-1-.28-1.18-.29S159.63,232.85,159.53,232.86Z"/><path class="cls-1" d="M172.36,228.85c-.2,0-.31-.17-.35-.51,0-.12.08-.42.14-.44a2,2,0,0,1,.36-.14c.07,0,1.08.09,1.43.1a5.31,5.31,0,0,1,1,.16l2,.41a2.35,2.35,0,0,1,.43.13,5.86,5.86,0,0,0,1.49.4.46.46,0,0,0,.26,0,6.5,6.5,0,0,1,1.69.34c.41.21.84.38,1.26.56.06,0,.13,0,.17.1s.24.18.38.23a4.08,4.08,0,0,1,.54.22,1.29,1.29,0,0,1,.24.23c.07.08,0,.27-.06.28s-.06.16-.07.25,0,.06,0,.08a7.09,7.09,0,0,1-1.3.14l-.85-.12c-.43-.05-.88-.11-1-.11a.68.68,0,0,1-.27-.1l-1.39-.19a1.83,1.83,0,0,1-.76-.27.44.44,0,0,0-.15,0,10.21,10.21,0,0,1-1.34-.37c-.23-.07-.47-.11-.7-.17l-.11,0a.51.51,0,0,0-.15-.07c-.55-.12-1.08-.32-1.64-.41-.13,0-.69-.33-.84-.35S172.44,228.84,172.36,228.85Z"/><path class="cls-1" d="M185.21,225.42c-.2,0-.31-.15-.38-.39a.36.36,0,0,1,.1-.28,2.21,2.21,0,0,1,.35,0l1.41.23c.33.05.66.13,1,.21l2,.46a3.66,3.66,0,0,1,.44.13,10,10,0,0,0,1.51.43.78.78,0,0,0,.26,0,11.42,11.42,0,0,1,1.69.49l1.27.6c.06,0,.13,0,.17.1a.83.83,0,0,0,.37.22,5.44,5.44,0,0,1,.54.27c.08.05.15.13.23.19s0,.15-.05.15,0,.08-.06.13l0,0s-.29,0-.59-.08-.61-.08-.67-.1l-.83-.22-1-.21a.88.88,0,0,1-.27-.1s-1.33-.25-1.38-.26a2.69,2.69,0,0,1-.77-.26.44.44,0,0,0-.15-.05c-.46-.11-.9-.26-1.35-.4l-.69-.18a.43.43,0,0,1-.12-.05.76.76,0,0,0-.16-.06c-.55-.14-1.09-.33-1.64-.45-.13,0-.71-.3-.86-.34S185.29,225.42,185.21,225.42Z"/><path class="cls-1" d="M148.79,237.36a1.32,1.32,0,0,1-.88-.69c-.06-.11.05-.32.17-.31s.48,0,.71.08,2.3.69,3.06.8l2.16.49c1.48.32,3,.58,4.47.81.33.05.66.11,1,.19a32.9,32.9,0,0,0,3.44.57,2.82,2.82,0,0,0,.58,0c.16,0,1,.09,1.9.21s1.76.33,2,.38c1,.3,2,.53,3,.88a1.26,1.26,0,0,1,.42.16,2.89,2.89,0,0,0,.88.35c.42.13.84.28,1.25.45a6.36,6.36,0,0,1,.58.3c.17.09,0,.17,0,.17s-.07.08-.06.13,0,0,0,.06l-.41,0-.9-.11c-.65-.08-1.35-.13-1.48-.16s-1-.12-1.9-.29-2-.28-2.16-.29a4.56,4.56,0,0,1-.64-.14l-3.11-.4a11,11,0,0,1-1.78-.37,2.29,2.29,0,0,0-.36-.07c-1-.15-2.06-.36-3.09-.58l-1.58-.31-.28-.08-.35-.1c-1.25-.26-2.48-.6-3.72-.93-.29-.06-1.59-.61-1.92-.71C149.48,237.78,149,237.4,148.79,237.36Z"/><path class="cls-1" d="M191.07,226a23.16,23.16,0,0,1,2.24-.74c.22,0,.23.05,0,.17-.47.21-.93.46-1.42.66-.14.06-1.4.56-2.85,1s-3.1.93-3.93,1.15c-1.61.44-3.23.81-4.86,1.18a101,101,0,0,0-9.77,2.59l-2.14.69c-2.45.77-4.88,1.62-7.31,2.5-.4.15-.82.29-1.2.46-.62.29-7.23,2.59-8.12,2.82-2.15.66-4.32,1.29-6.51,1.85-.31.08-.64.18-.93.23a20.42,20.42,0,0,0-2,.48c-.94.23-1.89.46-2.83.65-.47.1-.94.17-1.4.25s-.21-.06-.07-.1c.42-.13.06-.08,0-.11s0,0,0,0l.87-.25c.51-.14,1.2-.33,1.91-.55,1.4-.4,2.86-.9,3.15-1l1.3-.41,2.78-.91c2-.68,4.17-1.41,4.6-1.57s.92-.3,1.38-.44l6.56-2.34c1.27-.43,2.53-.89,3.82-1.26.25-.07.51-.16.77-.25q3.27-1.12,6.61-2.11c1.14-.33,2.29-.62,3.44-.9l.63-.13.79-.17c2.73-.61,5.47-1.12,8.18-1.77.63-.14,3.6-.84,4.3-1.09C189.42,226.52,190.73,226.18,191.07,226Z"/><path class="cls-1" d="M186.05,228.86a5.15,5.15,0,0,1,1.91-.61c.2,0,.25.15.06.27l-1.14.67c-.22.16-4.1,2-5.46,2.54s-2.61,1.06-3.94,1.55c-2.69,1-5.41,1.9-8.15,2.72-.61.19-1.22.37-1.84.52-2.11.55-4.2,1.16-6.28,1.79-.35.11-.7.21-1,.34-.54.21-6.18,1.92-6.91,2.12-1.83.49-3.64,1-5.46,1.58a6,6,0,0,1-.78.21,10,10,0,0,0-1.68.47c-.78.25-1.54.52-2.32.75-.39.12-.78.21-1.17.31s-.2-.06-.09-.12c.33-.17,0-.11,0-.13s0,0,0,0l2.2-1.09c1.13-.52,2.33-1,2.57-1.13l1.08-.42,2.34-.83,3.92-1.29c.38-.12.78-.22,1.18-.32l5.63-1.73c1.09-.3,2.17-.66,3.28-.88.22,0,.44-.11.65-.17l5.61-1.62c1-.27,1.89-.59,2.84-.89l.52-.13.65-.19c2.23-.74,4.47-1.44,6.65-2.31.51-.18,2.93-1.06,3.5-1.32C184.68,229.35,185.78,229,186.05,228.86Z"/><path class="cls-1" d="M171.05,228.5a6.48,6.48,0,0,1,1.74-.54c.17,0,.2.1,0,.2-.35.19-.69.39-1.06.57-.11.06-1.06.48-2.16.92s-2.33.86-3,1.08c-1.22.42-2.45.8-3.69,1.15L155.42,234l-1.66.45c-1.9.51-3.78,1.14-5.64,1.81-.31.12-.63.22-.92.36-.47.22-5.52,2.08-6.19,2.29-1.65.52-3.3,1.1-5,1.55a6.88,6.88,0,0,1-.72.18,12.56,12.56,0,0,0-1.55.39c-.72.2-1.44.38-2.17.55-.36.08-.72.13-1.08.19s-.17-.08-.06-.12c.31-.12,0-.1,0-.13s0,0,0,0l.65-.22,1.45-.5c1.06-.38,2.16-.81,2.38-.88l3.1-1.12,3.51-1.29c.34-.13.7-.24,1.06-.36l5-1.86c1-.33,1.95-.7,3-1l.59-.18c1.69-.56,3.42-1,5.15-1.47l2.63-.69.48-.11.6-.13c2.08-.54,4.17-1,6.21-1.68.47-.13,2.73-.79,3.26-1C169.78,228.89,170.79,228.63,171.05,228.5Z"/><path class="cls-1" d="M183.49,233.79a1.61,1.61,0,0,1,1-.2.12.12,0,0,1,.06.21l-.54.35c-.11.08-2,.94-2.65,1.21s-1.26.52-1.9.76c-1.3.48-2.6.95-3.91,1.4-.29.1-.59.2-.88.28-1,.29-2,.62-3,1a3.56,3.56,0,0,0-.49.19c-.26.13-2.95,1-3.31,1.15-.88.25-1.75.53-2.63.8a1.73,1.73,0,0,1-.37.11,3.84,3.84,0,0,0-.82.23l-1.11.38a5.43,5.43,0,0,1-.58.13c-.17,0-.12-.11-.07-.14s0-.1,0-.14a.05.05,0,0,1,0,0l.33-.18.73-.36c.55-.26,1.12-.52,1.24-.56L168,239c.18-.07.37-.11.56-.17l2.69-1c.52-.16,1-.36,1.57-.47l.31-.09c.89-.31,1.79-.59,2.69-.87l1.36-.47.25-.07.31-.1c1.07-.39,2.15-.74,3.2-1.18.24-.09,1.43-.48,1.7-.61S183.36,233.87,183.49,233.79Z"/><path class="cls-1" d="M179.7,225.9a5.62,5.62,0,0,1,1.72-.62c.18,0,.23.12.06.24s-.66.47-1,.68c-.11.06-1,.56-2.11,1.06s-2.31,1-2.93,1.26c-1.21.48-2.43.91-3.65,1.33-2.5.79-4.95,1.67-7.43,2.54-.55.19-1.1.37-1.66.54-1.91.59-3.8,1.21-5.68,1.88a9.38,9.38,0,0,0-.93.35c-.48.23-5.59,2-6.26,2.23-1.66.52-3.31,1.08-4.95,1.65a7.3,7.3,0,0,1-.71.23,9.28,9.28,0,0,0-1.52.49l-2.1.78c-.35.12-.71.21-1.06.31s-.2-.1-.1-.16c.29-.16,0-.12,0-.16s0,0,0-.05l.17-.09.45-.22,1.4-.67c1-.48,2.12-1,2.34-1.06l6.61-2.63c.35-.14.71-.25,1.06-.36l5.06-1.91c1-.34,2-.73,3-1,.2-.05.39-.13.59-.2,1.69-.59,3.39-1.12,5.09-1.67l2.6-.88.48-.13.6-.18c2.06-.68,4.15-1.23,6.18-1.94.47-.15,2.72-.86,3.24-1.1C178.44,226.34,179.45,226,179.7,225.9Z"/><path class="cls-1" d="M147.62,343.4c3.88.89,7.76,1.74,11.66,2.5,1.43.28,2.86.5,4.29.75,5,1,10.06,1.78,15.12,2.5,2.25.3,4.52.47,6.76.65l4.33.18c1.44,0,2.87,0,4.32.13.89.05.79.42,0,.81a10,10,0,0,1-3.87.85,109,109,0,0,1-17.86-1.53c-1.77-.33-3.58-.59-5.4-.86l-5.44-.87-5.94-1.13-5.91-1.22-7.26-1.61c-3.65-.83-7.31-1.74-10.93-2.61-2.81-.69-5.61-1.21-8.39-2-.62-.17-1.22-.31-1.84-.49a11.53,11.53,0,0,1-2.36-1,2.09,2.09,0,0,1-.8-1.09,1.46,1.46,0,0,1-.11-.45c0-.21.27-.28.71-.28a5.89,5.89,0,0,1,.78.06,7,7,0,0,1,1.1.21l15.3,3.7c3.88.94,7.79,1.87,11.71,2.72Z"/><path class="cls-1" d="M228.31,343.17q-3.06,1.23-6.15,2.38c-.75.29-1.49.62-2.24.88q-4,1.43-8.12,2.53c-1.21.35-2.44.67-3.65,1a15.46,15.46,0,0,1-4.79.73c-.51,0-.46-.32-.09-.75a3.14,3.14,0,0,1,1.91-1.18l2.31-.54,2.31-.6,4.69-1.22a58.71,58.71,0,0,0,5.62-2q3.07-1.16,6.14-2.39l3.76-1.56c1.88-.8,3.79-1.6,5.65-2.42,1.45-.65,2.82-1.38,4.26-2l1-.4c1.22-.45,1.65-.48,2-.29a1.34,1.34,0,0,1,.24.12c.2.15-.2.56-1,1.06l-1.83,1.12-1.92,1c-1.29.66-2.62,1.31-4,2-2,.9-4,1.76-6.09,2.62Z"/><path class="cls-1" d="M250.62,380.67c-.47,5.35-1,10.68-1.67,16l-.22,1.48-.07.39c0,.2-.13.39-.2.59a1.35,1.35,0,0,1-.15.26c0,.14-.12.16-.18.25a5,5,0,0,1-.47.32c-.83.54-1.66,1.07-2.51,1.56-6,3.5-12.14,6.63-18.38,9.6-2.77,1.3-5.54,2.64-8.31,3.89a102.23,102.23,0,0,1-10.87,4.42c-1.17.38-1.13,0-.29-.69a20.8,20.8,0,0,1,4.53-2.55c7.28-3.11,14.4-6.59,21.58-10.12,4.29-2.12,8.62-4.61,12.74-7.19l.72-.45a.14.14,0,0,0,.09-.13l0-.08,0-.22c.11-.64.2-1.31.29-2l.46-4c.28-2.68.54-5.37.77-8.05.28-3.31.54-6.62.76-9.93.33-5,.63-10,.75-15,.1-3.88,0-7.68-.08-11.5,0-.84-.06-1.67-.1-2.51-.07-3.15,0-4.15.45-4.85a3.68,3.68,0,0,1,.25-.46c.22-.32.77.94,1,3.27a177.42,177.42,0,0,1,.19,21.43c-.23,5.4-.62,10.82-1,16.22Z"/><path class="cls-1" d="M197.5,397.74c.18-3.38.34-6.77.46-10.15l.07-3.71c.13-4.35.3-8.71.38-13.07,0-1.93,0-3.87,0-5.79,0-2.47-.12-4.94-.05-7.4,0-.77.27-.68.56,0a10,10,0,0,1,.76,3.25A142,142,0,0,1,200,376c-.09,3,0,6.21-.06,9.32q-.08,5.13-.26,10.26l-.25,6.31c-.12,3.19-.35,6.39-.51,9.55-.08,1.23-.13,2.45-.16,3.67l-.2,3.66c-.06.55-.1,1.08-.17,1.62s-.13.92-.21,1.27a6.35,6.35,0,0,1-.29.85,1.42,1.42,0,0,1-.77.82,2.37,2.37,0,0,1-.4.19c-.37.09-.66-.82-.49-2.2.21-4.33.44-8.83.67-13.36l.51-10.22Z"/><path class="cls-1" d="M217.19,327.3l-4.41,1.4c-.54.17-1.06.39-1.59.56L205.51,331c-.84.27-1.67.57-2.49.88a25.23,25.23,0,0,1-3.17,1.09c-.68.16-.16-1.14,1-1.65a66.06,66.06,0,0,1,6.46-2.3c1.32-.38,2.64-1,4-1.43l4.39-1.49,2.71-.92c1.36-.48,2.73-.93,4.07-1.45,1-.41,2-.9,3-1.35.22-.1.43-.21.66-.3.84-.34,1.15-.33,1.5,0a2.84,2.84,0,0,1,.24.26c.21.31,0,.72-.62,1.05a36.25,36.25,0,0,1-5.65,2.42c-1.46.52-3,1-4.42,1.5Z"/><path class="cls-1" d="M176.7,332.23,169,330.6c-.94-.2-1.89-.32-2.82-.54-3.3-.73-6.59-1.52-9.87-2.3-1.46-.35-2.94-.65-4.4-.93a34.58,34.58,0,0,1-5.56-1.41c-.57-.22-.38-.65.22-1a4.15,4.15,0,0,1,2.69-.42c1.92.31,3.8.76,5.69,1.21s3.78.94,5.67,1.47c2.27.63,4.68,1,7,1.48l7.76,1.55c1.59.3,3.19.61,4.78.89,2.42.43,4.85.87,7.27,1.19,1.88.25,3.75.33,5.61.48.41,0,.82,0,1.23.07a6.16,6.16,0,0,1,1.59.4,1.49,1.49,0,0,1,.66.68,2.5,2.5,0,0,1,.18.37c.06.19-.08.35-.38.49a3.44,3.44,0,0,1-1.34.33,51.38,51.38,0,0,1-10.47-.92c-2.61-.41-5.22-.91-7.83-1.4Z"/><path class="cls-1" d="M130.85,246.27l-1.88-.12c-.23,0-.46,0-.69,0a17.11,17.11,0,0,1-2.45-.39l-1.07-.23a3.93,3.93,0,0,1-1.33-.48c-.25-.15.39-.72.85-.62.85.19,1.7.3,2.59.47a9.12,9.12,0,0,0,1.66.06l1.87,0h1.17c.59,0,1.19,0,1.78,0s.92-.06,1.39,0a3,3,0,0,1,.31,0c.38.09.48.21.49.54,0,.07,0,.15,0,.22a.55.55,0,0,1-.48.47,7.27,7.27,0,0,1-2.37.14l-1.85-.08Z"/><path class="cls-1" d="M148.92,250.69q5.33,1.2,10.69,2.29l3.93.71c4.6.9,9.21,1.79,13.84,2.55,2.05.33,4.12.6,6.17.82,2.64.29,5.29.53,7.9,1,.81.15.66.6-.08,1a6.86,6.86,0,0,1-3.62.68c-2.73-.18-5.43-.55-8.13-1s-5.38-.91-8.07-1.48c-3.21-.68-6.59-1.14-9.88-1.76q-5.44-1-10.85-2.16L144.16,252l-10-2.29c-2.59-.59-5.16-1-7.72-1.71-.57-.14-1.13-.27-1.7-.45a7.81,7.81,0,0,1-2.15-1,1.73,1.73,0,0,1-.7-1.05,1.28,1.28,0,0,1,0-.46c0-.18.33-.21.63-.19a5.09,5.09,0,0,1,.72.06,9,9,0,0,1,1,.18c4.44,1,9.24,2.1,14,3.21,3.57.82,7.16,1.65,10.75,2.41Z"/><path class="cls-1" d="M250.28,290.85c-.35,5.22-.73,10.43-1.25,15.66-.1.95-.18,1.9-.31,2.88l-.06.39c0,.19-.13.38-.19.57a.82.82,0,0,1-.14.26s-.07,0,0,.1l-.05.05-.11.1a2.74,2.74,0,0,1-.49.35l-1.22.76a171.52,171.52,0,0,1-18.12,9c-2.74,1.2-5.48,2.41-8.21,3.56-3.51,1.48-7,3-10.67,4.11-2.26.71.14-1.51,4.16-3.15,7.17-2.9,14.23-6,21.31-9.28,2.11-1,4.23-2,6.32-3.2,1-.58,2.09-1.16,3.1-1.78.51-.31,1-.6,1.53-.92l.75-.48.22-.14a.12.12,0,0,0,.08-.11s.08-.44.11-.73l.12-1,.2-1.95.34-3.92c.21-2.62.39-5.24.56-7.86q.31-4.85.54-9.69c.22-4.89.43-9.81.47-14.67,0-3.78-.07-7.48-.22-11.21l-.12-2.44c-.09-3.07,0-4,.43-4.73a5,5,0,0,1,.26-.45c.22-.31.76.92,1,3.18A189.23,189.23,0,0,1,251,275c-.13,5.27-.41,10.55-.71,15.83Z"/><path class="cls-1" d="M197.12,306.08c.16-3.48.31-7,.4-10.46l0-3.82c.1-4.48.25-9,.29-13.46,0-2,0-4-.07-6-.06-2.54-.17-5.08-.13-7.62,0-.8.26-.71.56-.05A11.27,11.27,0,0,1,199,268a145.33,145.33,0,0,1,.5,15.63c-.07,3.13,0,6.39,0,9.6q0,5.28-.2,10.57-.1,3.26-.2,6.5c-.1,3.29-.31,6.58-.44,9.84-.12,2.54-.13,5-.27,7.56,0,.55-.08,1.1-.14,1.66s-.12,1-.18,1.31a7.34,7.34,0,0,1-.27.88,1.49,1.49,0,0,1-.74.87,2.6,2.6,0,0,1-.4.21c-.37.11-.69-.81-.55-2.25.11-4.4.33-9.08.5-13.8.15-3.5.29-7,.44-10.53Z"/><path class="cls-1" d="M197.79,304.38c.07-3.71.1-7.43.1-11.14,0-1.36-.1-2.71-.1-4.07,0-4.78,0-9.56,0-14.35,0-2.12-.15-4.25-.23-6.35-.13-2.7-.3-5.42-.26-8.12,0-.84.34-.76.75-.07a9.64,9.64,0,0,1,1.1,3.53,145.92,145.92,0,0,1,1,16.61c0,3.34.25,6.8.35,10.21.1,3.76.15,7.51.17,11.27,0,2.31,0,4.62,0,6.93,0,3.5-.09,7-.12,10.5,0,2.7.09,5.36,0,8.07,0,.6,0,1.18-.08,1.79a7,7,0,0,1-.49,2.36,1.54,1.54,0,0,1-.94.9,2.63,2.63,0,0,1-.51.21c-.49.1-1-.91-.88-2.42-.06-4.63-.06-9.63,0-14.64,0-3.72.1-7.47.1-11.21Z"/><path class="cls-1" d="M183.52,226q-7.77,2-15.51,4.12l-5.62,1.63q-10,2.73-19.88,5.6c-2.93.86-5.85,1.8-8.72,2.76l-10.95,3.79c-1,.39-1.25-.08-.53-1a7.3,7.3,0,0,1,1.74-1.51,12.49,12.49,0,0,1,2.76-1.4c3.76-1.39,7.54-2.65,11.35-3.85s7.64-2.33,11.53-3.34c4.65-1.22,9.39-2.79,14.11-4.15,5.19-1.5,10.4-2.93,15.61-4.35l9.64-2.55c2.46-.63,4.87-1.24,7.39-1.82a2.3,2.3,0,0,1,1.3,0l.94.31,1.8.59L204,222c1.85.6,3.69,1.15,5.53,1.7l5.48,1.69c.81.25,1.6.47,2.41.74,2.95,1.11,3.83,1.63,4.31,2.34a3.51,3.51,0,0,1,.33.49c.19.46-1.18.47-3.48,0-1.71-.29-3.4-.74-5.1-1.19s-3.42-.93-5.13-1.43c-3.41-1.07-6.85-2.24-10.27-3.37l-.94-.31-.17,0h0l-1.73.41c-1.3.3-2.6.64-3.91,1-2.61.65-5.22,1.33-7.82,2Z"/><path class="cls-1" d="M252,292c-.23,6.27-.42,12.46-.93,18.81,0,.1,0,.4-.08.64a5.71,5.71,0,0,1-.13.72,2.91,2.91,0,0,1-.17.3l-.1.14-.05.06,0,0h0l.07.05h0l0,0-.54.43-1.86,1c-1,.51-2.07,1-3.11,1.48-3.69,1.65-7.41,3.18-11.14,4.69s-7.47,3-11.23,4.39l-9.95,3.87a121,121,0,0,1-12.9,4.54c-1.38.36-1.35-.23-.38-1.11a17.74,17.74,0,0,1,5.28-3c8.62-3.28,17.18-6.76,25.9-10.05,5.22-2,10.5-4.4,15.6-6.84l1.05-.51.84-.43.19-.09a.53.53,0,0,0,.06-.19l0-.24.05-.56c.12-1.54.2-3.11.28-4.67.14-3.12.26-6.26.35-9.4.11-3.86.2-7.72.25-11.59.07-5.84.13-11.73,0-17.53-.1-4.51-.42-8.93-.77-13.36-.09-1-.17-1.93-.26-2.91-.25-3.64-.2-4.79.48-5.66a5.6,5.6,0,0,1,.38-.57c.33-.41,1.25,1,1.64,3.72a189.88,189.88,0,0,1,1.5,24.94c.05,6.3-.08,12.62-.22,18.93Z"/><path class="cls-1" d="M198.42,396q.22-5.41.33-10.85c0-1.32,0-2.64,0-4,.07-4.66.2-9.32.23-14,0-2.07-.07-4.14-.11-6.19-.08-2.64-.2-5.28-.13-7.91,0-.81.35-.74.75-.07a9.08,9.08,0,0,1,1,3.46,132.69,132.69,0,0,1,.71,16.21c-.05,3.25.12,6.63.14,9.95,0,3.66,0,7.32-.06,11,0,2.25-.09,4.5-.13,6.75-.06,3.41-.24,6.84-.35,10.23-.07,2.63,0,5.22-.15,7.86,0,.59-.06,1.16-.13,1.74a6.39,6.39,0,0,1-.55,2.3,1.5,1.5,0,0,1-1,.85,3.23,3.23,0,0,1-.52.18c-.48.07-.93-.93-.81-2.38.05-4.51.15-9.38.28-14.25.11-3.63.23-7.28.34-10.92Z"/><path class="cls-1" d="M115.17,395.43c-.51-11.93-.78-23.87-.63-35.83.07-4.36.11-8.73.45-13.11.19-2.29.42-4.58.84-6.89.11-.58.23-1.17.38-1.76a13.57,13.57,0,0,1,.6-1.85,4,4,0,0,1,1.69-2.11,2.21,2.21,0,0,1,1.28-.23,4.79,4.79,0,0,1,1.27.5l.31.14.21.08.43.16.91.31c.63.2,1.25.4,1.9.57,1.27.38,2.57.72,3.87,1.06,2.59.67,5.21,1.31,7.82,1.93q7.86,1.85,15.77,3.54c6.63,1.43,13.34,2.73,20,4,8.51,1.56,17.07,3.08,25.54,4.79,2.64.53,2.19,1.09-.17,1.35a45.48,45.48,0,0,1-11.56-.59c-8.75-1.41-17.44-3.12-26.12-4.93s-17.37-3.74-26-5.93l-6.82-1.74c-1.14-.3-2.29-.61-3.45-.94l-1.75-.53-.88-.3-.82-.32a1.28,1.28,0,0,0-.34-.14.38.38,0,0,0-.3.19,1.29,1.29,0,0,0-.17.33,9.86,9.86,0,0,0-.31,1,31.33,31.33,0,0,0-.77,4.37c-.35,3-.53,6.09-.66,9.15-.46,11.92-.2,23.92.23,35.89q.19,5.52.5,11l.16,2.76.07,1.21a.86.86,0,0,0,.36.57,11.54,11.54,0,0,0,2.15,1.29c.79.39,1.62.75,2.46,1.08a163,163,0,0,0,15.88,5.06c5.38,1.47,10.79,2.8,16.2,4,8.4,1.9,16.72,3.41,25.1,4.87l5.51.91c3.44.64,5.7,1.07,7.27,1.49a11.34,11.34,0,0,1,3.16,1.26,8.17,8.17,0,0,1,.93.58c.3.28-.27.45-1.57.52a35.6,35.6,0,0,1-5.9-.24c-3.82-.38-7.66-1-11.53-1.62s-7.75-1.36-11.66-2.15c-7.81-1.58-15.69-3.37-23.55-5.39-5.83-1.52-11.65-3.13-17.44-5.13-1.44-.5-2.89-1-4.33-1.65a20.32,20.32,0,0,1-4.45-2.39,3.09,3.09,0,0,1-.31-.25,5.29,5.29,0,0,1-.41-.41,4.58,4.58,0,0,1-.62-.89,1.59,1.59,0,0,1-.17-.52l0-.13v0s0,0,0,0v-.07l0-.26-.06-.79-.13-2.26-.24-4.52Z"/><path class="cls-1" d="M229.49,341l-7.08,2.77c-.86.34-1.69.74-2.55,1.07q-4.58,1.74-9.19,3.37l-4.07,1.53c-.88.31-1.72.69-2.63,1a7.16,7.16,0,0,1-2.82.49c-.61,0-.57-.41-.2-1a3.66,3.66,0,0,1,2-1.75c1.71-.59,3.44-1.28,5.18-1.92s3.54-1.21,5.35-1.78c2.16-.66,4.29-1.68,6.43-2.55l7.09-2.84,4.36-1.76,6.59-2.7c1.69-.71,3.29-1.56,5-2.26.38-.15.73-.31,1.12-.44,1.42-.48,1.94-.47,2.38-.19a2.16,2.16,0,0,1,.3.18c.23.22-.23.73-1.17,1.3l-2.11,1.29-2.23,1.15c-1.51.74-3,1.48-4.6,2.2-2.33,1-4.7,2-7.06,2.94Z"/><path class="cls-1" d="M208.84,255.24l-2.23.72c-.28.09-.52.24-.79.32l-2.91.89a9.32,9.32,0,0,0-1.23.5,4.59,4.59,0,0,1-1.61.59c-.37,0-.51-1.52.05-1.83a14.65,14.65,0,0,1,3.23-1.26,13.34,13.34,0,0,0,2-.78l2.22-.83,1.36-.51c.69-.26,1.39-.5,2.06-.8s1-.6,1.5-.87a3.65,3.65,0,0,1,.34-.18c.44-.18.64-.08.9.43a3.78,3.78,0,0,1,.17.35.9.9,0,0,1-.17,1,8.35,8.35,0,0,1-2.66,1.48c-.72.28-1.46.53-2.19.8Z"/><path class="cls-1" d="M137.93,328.88c-1.6.48-3.2,1-4.78,1.5-.58.19-1.14.44-1.72.63l-6.16,2c-.91.3-1.79.67-2.69,1a22.06,22.06,0,0,1-3.48,1.12c-.38.07-.44-.27-.26-.71a2.51,2.51,0,0,1,1.24-1.29,44.56,44.56,0,0,1,7-2.59c1.44-.41,2.86-1.07,4.29-1.61l4.76-1.71c1-.35,2-.69,2.95-1,1.49-.5,3-1,4.48-1.5,1.14-.42,2.24-.88,3.38-1.28.25-.08.49-.19.75-.26,1-.29,1.31-.2,1.62.13a2.19,2.19,0,0,1,.21.23c.18.27-.13.65-.76,1a47.42,47.42,0,0,1-6.06,2.7c-1.57.58-3.14,1.16-4.73,1.72Z"/><path class="cls-1" d="M252.6,363.9c-.1,7.61-.34,15.21-.67,22.8-.13,2.78-.19,5.55-.37,8.32l-.13,1.84-.07.92,0,.49a2.6,2.6,0,0,1,0,.39l-.12.35c0,.11-.08.24-.13.35l-.08.15,0,0c-.08,0,.11.07.08.07h0l0,0-.06.07a2.42,2.42,0,0,1-.57.48l-.92.59c-.53.33-1,.67-1.57,1-2.11,1.27-4.25,2.49-6.4,3.66-4.3,2.35-8.67,4.56-13.07,6.69-3.9,1.89-7.83,3.79-11.73,5.61A113.86,113.86,0,0,1,201.23,424c-1.69.47-1.63-.2-.44-1.22a25,25,0,0,1,6.35-3.69c10.3-4.36,20.46-9.16,30.55-14.26,3-1.55,6-3.23,8.95-5.06l2.08-1.35.18-.12a1.52,1.52,0,0,0,0-.21l.08-1.16c.09-1.74.18-3.47.28-5.2.37-7.61.62-15.25.75-22.88.08-4.7.11-9.4.05-14.09a188.85,188.85,0,0,0-1.19-21.21c-.09-.68-.19-1.35-.31-2l-.07-.37c0-.09,0-.19-.08-.26a1.2,1.2,0,0,0-.24-.15l-.31-.15c-1.17-.53-2.46-1-3.73-1.42-2.55-.86-5.14-1.66-7.72-2.47L233,325.66c-4.24-1.39-5.55-2-6.28-2.86a2.82,2.82,0,0,1-.47-.57c-.26-.54,1.56-.29,4.73.55,4.69,1.26,9.48,2.64,14.34,4.27,1.22.43,2.41.83,3.71,1.43.46.26,1.17.53,1.41,1.07l.06.1,0,.05,0,0h0c-.05,0,.08,0,.07,0l.08.21a2.71,2.71,0,0,1,.14.43l.14.76c.12.65.23,1.29.32,1.94.37,2.59.65,5.18.82,7.77.51,7.69.56,15.39.53,23.07Z"/><path class="cls-1" d="M159.59,327.7a.8.8,0,0,1,.47-.11.06.06,0,0,1,0,.11l-.26.18c-.05,0-1,.51-1.28.65s-.61.27-.92.4l-1.9.73c-.14.06-.29.1-.43.15a12.49,12.49,0,0,0-1.44.54.68.68,0,0,0-.22.12l-1.52.73-1.21.54a.65.65,0,0,1-.17.08,1,1,0,0,0-.38.17c-.16.09-.32.2-.48.3a2.21,2.21,0,0,1-.27.12c-.08,0-.08-.05-.07-.07s0-.06,0-.07l0,0,.41-.43c.22-.21.46-.42.51-.46a2.55,2.55,0,0,1,.22-.17l.5-.34.88-.47.28-.1s1.24-.56,1.29-.57a5.44,5.44,0,0,1,.78-.25l.16-.05c.43-.15.88-.28,1.32-.42l.67-.22.13,0,.15-.05c.53-.18,1.06-.34,1.57-.55.12,0,.71-.23.84-.3S159.52,327.74,159.59,327.7Z"/><path class="cls-1" d="M164.66,328.28a1.17,1.17,0,0,1,.46-.09s.06.05,0,.08l-.27.16-1.27.61a8,8,0,0,1-.92.36l-1.87.68-.42.13a8.45,8.45,0,0,0-1.41.51.59.59,0,0,0-.22.12c-.12.07-1.31.67-1.47.73a12.12,12.12,0,0,0-1.15.55.48.48,0,0,1-.16.08.61.61,0,0,0-.36.17,5.21,5.21,0,0,1-.46.3,2.29,2.29,0,0,1-.28.08c-.09,0-.14-.09-.13-.12s-.05-.08-.09-.11l0,0A3.09,3.09,0,0,1,155,332a4.25,4.25,0,0,1,.49-.49,12.91,12.91,0,0,1,1.62-.94,1.25,1.25,0,0,1,.27-.1s1.24-.53,1.29-.54a4.28,4.28,0,0,1,.78-.21l.15,0c.44-.14.88-.26,1.32-.37l.67-.19.13,0,.15,0c.53-.16,1.06-.29,1.58-.45.12,0,.71-.16.85-.21A2.47,2.47,0,0,0,164.66,328.28Z"/><path class="cls-1" d="M169.5,328.76a.65.65,0,0,1,.53,0c.06,0,.08.13,0,.16l-.3.18c-.06,0-1.08.41-1.42.57s-.66.27-1,.39c-.68.25-1.35.52-2,.8a3.47,3.47,0,0,1-.45.17,9.13,9.13,0,0,0-1.53.59.84.84,0,0,0-.24.14c-.12.09-1.43.75-1.61.83-.44.17-.87.37-1.3.58-.06,0-.11.08-.18.07a.73.73,0,0,0-.41.18l-.52.31a1.4,1.4,0,0,1-.31.09c-.1,0-.16-.12-.14-.16s-.06-.1-.11-.14l0,0a3.93,3.93,0,0,1,.41-.52,6.68,6.68,0,0,1,.54-.52l.8-.52c.41-.25.85-.49.94-.54a1,1,0,0,1,.3-.12s1.31-.67,1.37-.68a3.61,3.61,0,0,1,.84-.28l.17-.05a10.06,10.06,0,0,1,1.44-.46l.74-.23.13,0,.18,0,1.75-.49c.13,0,.79-.15.94-.2S169.43,328.79,169.5,328.76Z"/><path class="cls-1" d="M174.75,329.78a.77.77,0,0,1,.5-.1.06.06,0,0,1,0,.1L175,330l-1.35.66c-.31.16-.63.3-1,.44l-1.95.85-.44.17a13,13,0,0,0-1.49.63,1.12,1.12,0,0,0-.24.13c-.12.08-1.41.77-1.58.84-.43.17-.86.37-1.29.56-.06,0-.11.07-.18.07a.83.83,0,0,0-.42.13,5.45,5.45,0,0,1-.55.25,1,1,0,0,1-.31.05c-.09,0-.12-.14-.1-.17s-.05-.1-.08-.15l0-.05a7.43,7.43,0,0,1,1-.86l.81-.41c.41-.19.83-.39.94-.43a1.42,1.42,0,0,1,.29-.1l1.36-.57a4.46,4.46,0,0,1,.8-.28.44.44,0,0,0,.16-.06c.45-.18.92-.33,1.37-.49l.7-.26.13,0,.16-.05c.55-.21,1.11-.39,1.65-.61.12,0,.74-.25.88-.31S174.68,329.81,174.75,329.78Z"/><path class="cls-1" d="M181,330.92a.49.49,0,0,1,.37-.05s.06.07,0,.09l-.2.14s-.75.37-1,.47l-.72.3-1.45.56-.32.11a6.86,6.86,0,0,0-1.09.43.56.56,0,0,0-.17.09c-.09.06-1,.55-1.13.61-.3.14-.6.29-.89.46,0,0-.07.06-.12.07a.57.57,0,0,0-.28.14l-.35.25a.76.76,0,0,1-.21.08c-.07,0-.11-.07-.1-.09s-.05-.07-.08-.1l0,0a3.54,3.54,0,0,1,.64-.76,11.28,11.28,0,0,1,1.22-.79,2,2,0,0,1,.22-.09s.95-.46,1-.46a2.34,2.34,0,0,1,.6-.19l.12,0c.33-.13.68-.22,1-.32l.52-.17.09,0,.12,0c.41-.13.82-.24,1.22-.39.1,0,.55-.15.65-.19A2.49,2.49,0,0,0,181,330.92Z"/><path class="cls-1" d="M188.38,331.12a.54.54,0,0,1,.56,0c.07,0,.11.19.06.23l-.27.24-1.41.72a7.52,7.52,0,0,1-1,.46l-2.08.83-.48.16a11.23,11.23,0,0,0-1.6.56.94.94,0,0,0-.26.14,12.54,12.54,0,0,1-1.75.71l-1.45.37a.39.39,0,0,1-.21,0,.81.81,0,0,0-.47.08,6.25,6.25,0,0,1-.62.16,1.29,1.29,0,0,1-.34,0c-.11,0-.12-.18-.1-.21s0-.13-.07-.19l0-.06a8.32,8.32,0,0,1,1.18-.77l1.87-.78c.1,0,.21-.05.31-.08l1.43-.58a3.35,3.35,0,0,1,.86-.24l.18-.05c.47-.19,1-.33,1.46-.48l.73-.26.14,0,.18,0,1.75-.61c.13-.05.8-.19,1-.25A3.46,3.46,0,0,0,188.38,331.12Z"/><path class="cls-1" d="M192.26,333a.42.42,0,0,1,.42-.08s.1.11.07.14l-.18.21s-.75.54-1,.71-.49.3-.74.44c-.51.27-1,.54-1.54.79a2.17,2.17,0,0,1-.35.15,8.6,8.6,0,0,0-1.21.51.45.45,0,0,0-.19.11,8.83,8.83,0,0,1-1.32.6l-1.1.32a.29.29,0,0,1-.16,0,.62.62,0,0,0-.36,0l-.48.11a1.15,1.15,0,0,1-.26,0c-.08,0-.08-.12-.07-.14s0-.09,0-.13l0,0s.19-.16.39-.33a3.73,3.73,0,0,1,.47-.34l1.42-.6.24-.06,1.08-.46a2.8,2.8,0,0,1,.64-.2.28.28,0,0,0,.13,0c.36-.15.73-.27,1.09-.41l.54-.23.1,0,.13,0c.43-.2.86-.37,1.27-.6.09-.05.57-.23.68-.3S192.21,333.07,192.26,333Z"/><path class="cls-1" d="M197.83,332.81a.54.54,0,0,1,.51,0,.13.13,0,0,1,0,.17l-.26.19c-.06,0-.94.52-1.22.73s-.57.36-.86.52c-.59.34-1.23.69-1.86,1a3,3,0,0,1-.42.16,10.24,10.24,0,0,0-1.46.56.64.64,0,0,0-.22.14c-.11.1-1.35.69-1.51.76a10.8,10.8,0,0,0-1.23.48c-.05,0-.1.07-.17.06s-.27.07-.39.13a3.43,3.43,0,0,1-.49.28.88.88,0,0,1-.3.07c-.09,0-.18-.15-.17-.18s-.08-.12-.13-.17l-.06-.06a4.53,4.53,0,0,1,.87-1.05s1.5-.91,1.67-1a1,1,0,0,1,.29-.09s1.25-.6,1.3-.61a3.67,3.67,0,0,1,.8-.23.42.42,0,0,0,.15,0,13.7,13.7,0,0,1,1.33-.43c.23-.07.43-.16.65-.25l.13,0,.15,0c.51-.22,1-.42,1.55-.67.12-.06.73-.24.87-.3S197.76,332.85,197.83,332.81Z"/><path class="cls-1" d="M214.67,329.46a2.74,2.74,0,0,1,.78-.22c.08,0,.09.05,0,.09l-.47.24-2.22,1c-.52.23-1,.45-1.57.66L208,332.54l-.71.28a22.12,22.12,0,0,0-2.39,1,3.41,3.41,0,0,0-.38.21c-.21.13-2.27,1.23-2.54,1.37-.68.32-1.33.69-2,1.06a1.08,1.08,0,0,1-.28.15,1.86,1.86,0,0,0-.62.33c-.27.17-.52.37-.81.53a2.32,2.32,0,0,1-.46.18c-.14.06-.18-.11-.15-.16s-.06-.11-.11-.16l0-.05.2-.24a6.69,6.69,0,0,1,.47-.52c.37-.36.79-.7.87-.76a3.43,3.43,0,0,1,.39-.27l.86-.55,1.47-.84a3.19,3.19,0,0,1,.46-.2c.06-.06,2.08-1,2.17-1a9.67,9.67,0,0,1,1.31-.46,1.34,1.34,0,0,0,.26-.09c.74-.28,1.49-.52,2.24-.77l1.14-.39.21-.06.26-.07c.9-.31,1.81-.59,2.71-.91.2-.07,1.2-.38,1.44-.47S214.56,329.51,214.67,329.46Z"/><path class="cls-1" d="M220.05,329.72a1.64,1.64,0,0,1,.9-.2.12.12,0,0,1,.06.2,5.72,5.72,0,0,1-.49.37c-.1.09-1.89,1-2.51,1.2s-1.19.49-1.78.72-1.21.46-1.78.71-1.13.55-1.73.82c-.26.12-.53.23-.8.33a21.72,21.72,0,0,0-2.69,1.22,1.86,1.86,0,0,0-.43.25c-.2.18-2.59,1.39-2.91,1.53-.8.31-1.59.66-2.39,1a.73.73,0,0,1-.35.12,1.68,1.68,0,0,0-.76.26,10.88,10.88,0,0,1-1,.4,3.35,3.35,0,0,1-.55.11c-.17,0-.16-.14-.12-.18s0-.13-.07-.17,0,0,0-.06a1.69,1.69,0,0,1,.26-.24l.6-.52a8.76,8.76,0,0,1,1-.79l3.11-1.71a4.55,4.55,0,0,1,.51-.21l2.39-1.24a9.14,9.14,0,0,1,1.45-.58,1.45,1.45,0,0,0,.29-.11c.8-.38,1.64-.71,2.47-1l1.3-.5.25-.05.3-.08c1-.34,2.1-.58,3.11-.91.24-.07,1.38-.34,1.64-.45A7.06,7.06,0,0,0,220.05,329.72Z"/><path class="cls-1" d="M159.3,328.69a2.13,2.13,0,0,1-.66-.31c-.06-.05,0-.11.05-.09l.48.08c.09,0,1.6.38,2.13.44l1.51.24,3.08.48.68.13c.78.16,1.56.28,2.35.38a1.84,1.84,0,0,0,.4,0c.22,0,2.36.32,2.63.39l2,.52a.66.66,0,0,1,.28.09,2.27,2.27,0,0,0,.62.21c.29.07.57.16.86.26a3,3,0,0,1,.4.2.09.09,0,0,1,0,.17c-.14,0-.05.08-.05.14a.11.11,0,0,1,0,.05l-.28,0-.6-.08-1-.13-1.29-.25-1.47-.24a3.48,3.48,0,0,1-.44-.1c-.06,0-2-.28-2.12-.3a8.76,8.76,0,0,1-1.22-.24l-.24,0c-.71-.11-1.41-.25-2.11-.38l-1.08-.2-.19-.05-.24-.06c-.85-.18-1.69-.41-2.52-.63-.2,0-1.1-.36-1.32-.43S159.41,328.72,159.3,328.69Z"/><path class="cls-1" d="M159.43,331.37c-.63,0-1.13,0-1.62,0-.15,0-.16-.11,0-.17a4.5,4.5,0,0,1,1.09-.23,10.06,10.06,0,0,1,2.15.12c1.07.15,2.23.42,2.81.54,1.15.25,2.21.46,3.38.6,2.33.31,4.66.68,7,1,.51.08,1,.17,1.54.27,1.76.34,3.53.62,5.31.88a8.78,8.78,0,0,0,.88.1c.48,0,5.29.77,5.91.9l4.61.88a4.13,4.13,0,0,1,.65.15,8.25,8.25,0,0,0,1.41.32c.66.11,1.32.25,2,.4.33.07.64.17,1,.26s.11.18,0,.17c-.3,0-.07.09-.05.14s0,0,0,.05l-.63,0-1.39-.1c-1-.08-2.09-.19-2.3-.22l-6.31-.92c-.33,0-.66-.12-1-.19l-4.8-.71c-.92-.16-1.85-.27-2.75-.5l-.55-.1c-1.59-.24-3.16-.53-4.74-.81l-2.43-.39-.44-.09-.55-.1-2.86-.51c-1-.15-2-.41-2.88-.65-.43-.13-2.46-.73-3-.79A10.79,10.79,0,0,0,159.43,331.37Z"/><path class="cls-1" d="M178.35,332a2.68,2.68,0,0,1-.93-.44c-.08-.05,0-.1.07-.07l.64.16c.13.05,2.26.46,3,.52s1.42.17,2.12.3l4.32.68c.32.05.63.11,1,.18,1.08.25,2.17.43,3.28.58a2.5,2.5,0,0,0,.55,0,31.47,31.47,0,0,1,3.65.64l2.82.77a1.28,1.28,0,0,1,.39.13,2.68,2.68,0,0,0,.85.33,11.09,11.09,0,0,1,1.2.38,3.71,3.71,0,0,1,.56.29c.17.09,0,.19,0,.19s-.07.1-.06.16,0,.05,0,.06-.61,0-1.24-.07-1.3-.08-1.43-.1l-.58-.09-1.24-.21-2.07-.32a4.39,4.39,0,0,1-.6-.15c-.1,0-2.86-.43-3-.49a10.93,10.93,0,0,1-1.68-.44,1.87,1.87,0,0,0-.34-.08c-1-.2-1.94-.45-2.9-.68l-1.49-.33-.27-.08-.33-.09c-1.18-.26-2.35-.55-3.52-.86l-1.84-.57C179.05,332.28,178.5,332,178.35,332Z"/><path class="cls-1" d="M159.91,332.66a4.18,4.18,0,0,1-1.24-.44c-.11-.06-.06-.13.08-.1s.55.11.84.15,2.93.53,3.87.66l2.72.49,5.53,1c.41.07.82.15,1.22.25,1.39.31,2.8.56,4.2.82.24,0,.48.09.71.11.38,0,4.18.76,4.67.88l3.64.87a2.73,2.73,0,0,1,.51.14,5.9,5.9,0,0,0,1.11.32c.52.12,1,.24,1.56.38.25.07.5.17.75.26s.07.15,0,.14c-.24,0-.06.08,0,.12a0,0,0,0,1,0,0l-3.42-.42-.74-.12-1.6-.29-2.66-.47-.78-.18L177,336.6c-.73-.15-1.47-.27-2.18-.49a2.07,2.07,0,0,0-.43-.1c-1.25-.26-2.5-.55-3.75-.82l-1.91-.41-.35-.09-.43-.1-4.53-1-2.4-.61C160.83,333,160.11,332.7,159.91,332.66Z"/><path class="cls-1" d="M197.62,334.07a.36.36,0,0,1-.28-.32c0-.05,0-.17.09-.17h.27c.05,0,.82.25,1.09.3s.52.13.77.21c.51.15,1,.28,1.56.4l.35.11a6.18,6.18,0,0,0,1.2.29.71.71,0,0,0,.21,0,9.78,9.78,0,0,1,1.36.21c.34.12.69.21,1,.32a.27.27,0,0,1,.15.05.45.45,0,0,0,.32.13l.45.13a1.28,1.28,0,0,1,.21.14c.06.05,0,.18,0,.19s0,.1,0,.16a.13.13,0,0,1,0,.06,5.44,5.44,0,0,1-1,.07l-1.48-.21a1,1,0,0,1-.23-.08l-1.12-.19a2.88,2.88,0,0,1-.63-.2.19.19,0,0,0-.12,0,10.56,10.56,0,0,1-1.09-.34l-.56-.16-.09-.05-.12-.05c-.44-.14-.87-.31-1.3-.46-.1,0-.55-.28-.66-.32S197.68,334.08,197.62,334.07Z"/><path class="cls-1" d="M205.32,332.16c-.17,0-.28-.09-.38-.33,0-.07,0-.28.06-.3l.3-.12c.06,0,1,0,1.3.06a5.29,5.29,0,0,1,.9.16c.6.15,1.19.3,1.78.47a3,3,0,0,1,.38.15,7.33,7.33,0,0,0,1.29.46.62.62,0,0,0,.23,0,9.14,9.14,0,0,1,1.46.41c.36.18.72.32,1.09.48.05,0,.11,0,.15.08s.21.14.33.18l.48.18a.78.78,0,0,1,.21.17c.07.05,0,.19,0,.2s0,.11,0,.17,0,.05,0,.07a6.12,6.12,0,0,1-1.16.05s-1.47-.32-1.63-.36a.82.82,0,0,1-.24-.1l-1.2-.32a1.94,1.94,0,0,1-.66-.28.34.34,0,0,0-.14-.05c-.39-.11-.77-.27-1.15-.41a5.76,5.76,0,0,0-.59-.18L208,333l-.13-.06a13.41,13.41,0,0,0-1.42-.36c-.1,0-.61-.22-.74-.23S205.38,332.15,205.32,332.16Z"/><path class="cls-1" d="M210.82,330.17a.52.52,0,0,1-.5-.28c0-.07,0-.24,0-.26a2.42,2.42,0,0,1,.36-.1c.07,0,1.23,0,1.62.06a8.54,8.54,0,0,1,1.13.16c.75.15,1.5.31,2.24.5a3.82,3.82,0,0,1,.48.15,12.14,12.14,0,0,0,1.66.49.9.9,0,0,0,.28,0,16.67,16.67,0,0,1,1.84.48c.46.19.94.35,1.41.51a.5.5,0,0,1,.2.08.87.87,0,0,0,.42.18l.62.2a2.64,2.64,0,0,1,.29.15.07.07,0,0,1,0,.13c-.1,0,0,.07,0,.11s0,0,0,0l-.21,0-.46.06a7,7,0,0,1-.77,0s-1.85-.3-2.05-.34a1.12,1.12,0,0,1-.31-.1c-.05,0-1.48-.3-1.53-.33a3.63,3.63,0,0,1-.85-.32.85.85,0,0,0-.17-.06c-.49-.13-1-.31-1.46-.47-.25-.08-.51-.13-.76-.2l-.13-.06L214,331a17.83,17.83,0,0,0-1.79-.4c-.14,0-.79-.22-.95-.23S210.9,330.15,210.82,330.17Z"/><path class="cls-1" d="M217.36,328.87c-.13,0-.19-.11-.22-.32s.05-.25.09-.26a1.13,1.13,0,0,1,.24-.08s.69.09.92.12a4.31,4.31,0,0,1,.62.15l1.25.38.26.11a4,4,0,0,0,.93.34.29.29,0,0,0,.16,0,5.75,5.75,0,0,1,1,.26,7.92,7.92,0,0,0,.78.37s.08,0,.11.06.15.11.24.14a2.3,2.3,0,0,1,.34.12.7.7,0,0,1,.16.14c.05,0,0,.16,0,.17s0,.1,0,.15a.07.07,0,0,1,0,0,4,4,0,0,1-.84.1l-1.19-.18a.53.53,0,0,1-.17-.08l-.89-.19a1.46,1.46,0,0,1-.48-.21.13.13,0,0,0-.1,0,8.36,8.36,0,0,1-.83-.32c-.14-.06-.29-.09-.43-.14l-.07,0-.1-.05c-.34-.11-.66-.26-1-.34-.08,0-.43-.22-.52-.24S217.41,328.86,217.36,328.87Z"/><path class="cls-1" d="M142.93,373.86c1-1,1.95-1.91,2.93-2.85.36-.35.69-.72,1-1.06l3.87-3.53c.57-.52,1.1-1.08,1.62-1.65a17.11,17.11,0,0,1,2.07-2.1c.5-.37,1.05,1.23.26,2.06a44.69,44.69,0,0,1-4.46,4.12c-1,.77-1.8,1.7-2.69,2.56s-2,1.88-2.93,2.84c-.59.6-1.18,1.19-1.75,1.8-.86.92-1.72,1.87-2.5,2.85-.6.77-1.12,1.57-1.65,2.37l-.35.53c-.44.65-.66.8-1,.76a2.06,2.06,0,0,1-.26,0c-.25-.08-.25-.47,0-1a20.78,20.78,0,0,1,3-4.61c.89-1.06,1.84-2.08,2.79-3.07Z"/><path class="cls-1" d="M163.53,371.31l2.28-1.95c.28-.24.52-.51.8-.74l3-2.46c.43-.37.84-.77,1.23-1.18a8.27,8.27,0,0,1,1.58-1.49c.4-.23,1.05,1.27.44,1.86a28,28,0,0,1-3.47,2.83,26.94,26.94,0,0,0-2.1,1.77L165,371.88l-1.41,1.21c-.71.61-1.42,1.23-2.08,1.88-.52.5-1,1-1.44,1.59l-.31.35c-.4.43-.6.5-.92.35l-.22-.1c-.22-.14-.2-.46.05-.82a22,22,0,0,1,2.66-3c.72-.7,1.48-1.38,2.22-2.06Z"/><path class="cls-1" d="M139.94,280.72l2.31-2.37c.28-.29.54-.6.83-.89,1-1,2-2,3.08-2.92.46-.44.9-.89,1.33-1.34a11.39,11.39,0,0,1,1.74-1.66c.42-.28.78,1,.14,1.66-1.13,1.16-2.3,2.28-3.55,3.34-.75.64-1.39,1.43-2.09,2.15l-2.26,2.4c-.46.5-.92,1-1.36,1.51-.67.78-1.39,1.53-2,2.33-.49.62-.92,1.27-1.37,1.91-.1.14-.19.28-.3.42-.41.49-.61.61-.89.57a1,1,0,0,1-.19,0c-.19-.07-.16-.38,0-.81a23.62,23.62,0,0,1,2.37-3.73,29,29,0,0,1,2.16-2.56Z"/><path class="cls-1" d="M153.31,285.16l1.48-1.44c.18-.17.34-.36.52-.53l2-1.75c.29-.26.57-.53.83-.81a5.79,5.79,0,0,1,1.09-1c.26-.17.59.75.2,1.15a22.71,22.71,0,0,1-2.25,2,16,16,0,0,0-1.32,1.29l-1.43,1.45c-.3.3-.58.6-.86.91-.43.47-.86.94-1.24,1.44a14.1,14.1,0,0,0-.77,1.23l-.16.27c-.22.33-.35.39-.64.29l-.2-.08c-.21-.1-.26-.34-.14-.62a10,10,0,0,1,1.52-2.28c.45-.53.92-1,1.4-1.54Z"/><path class="cls-1" d="M252.5,243.39a205,205,0,0,0-10.28,21.38c-.77,1.83-1.53,3.67-2.26,5.52l-.56,1.39c-.16.43-.31.84-.46,1.29-.29.89-.54,1.83-.8,2.78a88,88,0,0,1-3.59,11.73,20.08,20.08,0,0,1-2.36,4.21A9.43,9.43,0,0,1,228,295a8.09,8.09,0,0,1-2.76.47l-1.23-.05c-.41,0-.82-.11-1.23-.16a14.35,14.35,0,0,1-4.69-1.65,16.68,16.68,0,0,1-5.95-6.06,28.85,28.85,0,0,1-3.06-7.57,41.79,41.79,0,0,1-1.21-7.92,32.36,32.36,0,0,1,.46-8,40.81,40.81,0,0,1,2.18-7.67,73.3,73.3,0,0,1,3.19-7.17c2.32-4.66,4.92-9.09,7.12-13.68a62.1,62.1,0,0,0,2.63-6.19c.73-2.08,1.33-4.3,1.91-6.47a76.69,76.69,0,0,0,2.34-13.22c.07-1.42.18-2.84.11-4.25a37.13,37.13,0,0,0-2.23-12.44,34.84,34.84,0,0,0-1.62-3.9c-.6-1.28-1.38-2.47-2-3.74a41.74,41.74,0,0,0-5.07-6.93c-2.39-2.67-1.87-2.57.61-.67a20.68,20.68,0,0,1,2.15,1.8l1.28,1.19a16.07,16.07,0,0,1,1.39,1.36,26.4,26.4,0,0,1,5.44,7.72,23,23,0,0,1,.92,2.16l.43,1.1.22.54.16.57.63,2.27c.21.76.31,1.54.47,2.31a45.64,45.64,0,0,1,.59,4.66c0,.77.05,1.55.07,2.33l0,1.17-.05,1.16-.1,2.32-.25,2.3c-.13,1.55-.43,3-.67,4.56-.61,3-1.32,6-2.18,8.86l-.64,2.17-.75,2.22c-.54,1.45-1.12,2.89-1.76,4.28-1.26,2.8-2.67,5.48-4.1,8.11-2.84,5.27-5.76,10.41-7.75,15.84a31.63,31.63,0,0,0-2.07,10.08,38.05,38.05,0,0,0,1.23,10.44,22,22,0,0,0,4.58,9.11,11,11,0,0,0,8.6,3.78,5,5,0,0,0,3.95-2.17,17.5,17.5,0,0,0,2.55-4.88c1.34-3.63,2.13-7.55,3.19-11.51.28-1,.58-2,1-3l1.1-2.83q1.13-2.82,2.29-5.62c1.55-3.74,3.19-7.46,4.94-11.12A123.31,123.31,0,0,1,260,225.31a23.57,23.57,0,0,1,4.48-3.93q2.4-1.65,4.87-3.06c3.29-1.91,6.63-3.67,9.95-5.42,6.67-3.5,13.29-7,19.68-10.75a157.62,157.62,0,0,0,14.28-9.46A99,99,0,0,0,326,181.56c.84-.9,1.69-1.78,2.45-2.73S330,177,330.71,176c2.81-3.61,4.34-6.18,5.51-7.94a22.7,22.7,0,0,1,1.57-2.11,8.34,8.34,0,0,1,1.3-1.34,10.25,10.25,0,0,1,1.2-1c.57-.28.64.53.25,2.28-.1.44-.21.94-.38,1.49s-.41,1.12-.66,1.76a30.34,30.34,0,0,1-2.11,4.26A63.93,63.93,0,0,1,327.46,186a103.92,103.92,0,0,1-12.39,10.51,221.47,221.47,0,0,1-28,16.85L276.38,219a98.74,98.74,0,0,0-10.09,6l-1.11.83-1,.86c-.3.29-.56.58-.85.86s-.61.75-.92,1.12c-.62.75-1.23,1.52-1.81,2.31s-1.18,1.56-1.73,2.38a115.82,115.82,0,0,0-6.28,10Z"/><path class="cls-1" d="M180.71,190.6c2.86-1.84,5.74-3.63,8.67-5.33,1.07-.62,2.09-1.32,3.18-1.92,3.81-2.13,7.71-4.1,11.68-5.94,1.77-.8,3.52-1.66,5.32-2.41a24.12,24.12,0,0,1,3.55-1.26,12.27,12.27,0,0,1,3.84-.47c.84,0,.67.52.08,1.08a9.46,9.46,0,0,1-2.78,1.76c-.55.21-1.09.45-1.64.67l-.82.38-.84.33c-1.11.46-2.22.94-3.34,1.44l-6.73,3.14a83.38,83.38,0,0,0-7.92,4.6q-4.32,2.64-8.58,5.38c-1.74,1.13-3.48,2.27-5.18,3.46-2.59,1.79-5.19,3.61-7.61,5.57a67.89,67.89,0,0,0-5.25,4.89l-1.07,1.13c-1.36,1.37-1.9,1.6-2.84,1.33a4,4,0,0,1-.64-.18c-.65-.25-.54-1.33.38-2.57a55.08,55.08,0,0,1,10.07-9.24c2.74-2.06,5.58-4,8.42-5.91Z"/><path class="cls-1" d="M229.78,101.62a434.48,434.48,0,0,0,60.81-.67l5.52-.53,5.48-.73c3.67-.42,7.28-1.16,10.92-1.72,3.2-.57,6.35-1.3,9.54-1.94,1.67-.3,3.32-.69,5-.92l2.54-.27a21.53,21.53,0,0,1,2.54-.18,55.26,55.26,0,0,1,20,3l2.37.84a23.61,23.61,0,0,1,2.34.91l4.58,2,4.43,2.3,1.11.57L368,105l2.14,1.26c2.9,1.63,5.6,3.54,8.38,5.33,1.36.93,2.68,1.92,4,2.87s2.7,1.9,4,2.93c9.32,7.06,18.3,14.63,26.91,22.35l2.09,1.84c.67.6,1.37,1.2,2.08,1.79l4.29,3.51,8.68,7c5.8,4.65,11.54,9.36,17,14.42,1.66,1.64,2.25,2.53,2,2.65s-1.26-.43-3-1.37-4.14-2.41-7-4.23c-1.41-.92-2.94-1.92-4.52-3.05s-3.2-2.39-4.87-3.72l-8.86-7.12c-2.95-2.41-5.88-4.76-8.82-7.37l-8.45-7.51c-2.88-2.43-5.69-4.95-8.62-7.32s-5.81-4.8-8.82-7.06c-1.5-1.13-2.95-2.34-4.49-3.41l-4.58-3.29a135.34,135.34,0,0,0-19.32-11.41l-3.06-1.37c-1-.47-2.1-.78-3.15-1.17l-1.58-.57a13,13,0,0,0-1.61-.5l-3.25-.86a12.13,12.13,0,0,0-1.65-.35L342.33,99a25.24,25.24,0,0,0-3.34-.44c-1.12-.08-2.25-.19-3.37-.23l-3.38.07-.85,0-.84.09-1.68.19-1.69.19-1.67.34c-1.12.23-2.19.43-3.36.69l-3.48.75c-4.62,1.09-9.3,1.79-13.94,2.54-10.25,1.47-20.56,2.25-30.86,2.69s-20.62.46-30.92.19c-6.34-.15-12.67-.45-19-.8l-9.46-.58-1.15,0a7.54,7.54,0,0,0-1,0,8.4,8.4,0,0,0-2,.47,31.5,31.5,0,0,0-4.13,1.87,124.4,124.4,0,0,0-12,7.58c-3.9,2.74-7.73,5.6-11.49,8.54-7.53,5.87-14.83,12-21.85,18.39-5.45,4.95-10.69,10-15.64,15.32-2.47,2.65-4.87,5.35-7.07,8.17a49,49,0,0,0-3,4.32,16,16,0,0,0-1.15,2.2,5,5,0,0,0-.33,1,1.61,1.61,0,0,0,0,.4c0,.1,0,.39,0,.57a29.78,29.78,0,0,0,2.09,8.78,69.84,69.84,0,0,0,3,6.75c.91,1.82,1.69,3.28,2.32,4.49a29,29,0,0,1,2.32,5.16c.16.61.5,1.33.54,1.74.27,1.39-3.86-1.9-8.25-9.8a58.66,58.66,0,0,1-4.2-9.28,33.81,33.81,0,0,1-1.32-5.13c-.07-.45-.15-.89-.2-1.35l-.09-1.4a5.91,5.91,0,0,1,.12-1.77,8.79,8.79,0,0,1,.49-1.57,25.93,25.93,0,0,1,2.73-4.8c1-1.45,2.07-2.83,3.17-4.17,2.19-2.67,4.5-5.22,6.87-7.72a354.35,354.35,0,0,1,30.57-28.05,273.1,273.1,0,0,1,25-18.6,77.72,77.72,0,0,1,6.93-4,27,27,0,0,1,4-1.64,10.05,10.05,0,0,1,2.52-.49l.38,0a2.42,2.42,0,0,1,.27,0l.53,0,1,.05c5.18.31,10.27.65,15.39.87Z"/><path class="cls-1" d="M158.49,171.66a7.85,7.85,0,0,0-.58-1.16c-.07-.14-.21-.21-.29-.35a6.61,6.61,0,0,0-1-1.33,2,2,0,0,0-.61-.38c-.29-.12-.6-.13-.81-.45s.74-1.77,1.19-1.65a3.51,3.51,0,0,1,1.91,1.32,8.15,8.15,0,0,0,1,.93,10.05,10.05,0,0,1,.93,1.16c.18.24.32.5.49.75a8.28,8.28,0,0,0,.73,1.09c.24.24.52.44.76.67.05.05.12.09.16.14.16.22,0,.42-.34.78l-.26.24a1.24,1.24,0,0,1-.93.35,4.22,4.22,0,0,1-1-.36,2.24,2.24,0,0,1-.66-.64c-.28-.34-.5-.72-.76-1.06Z"/><path class="cls-1" d="M389.05,204.52c-3.5-3-7.15-5.82-10.87-8.54-1.35-1-2.82-1.84-4.19-2.81a155,155,0,0,0-15.16-9.34l-1.74-.94c-.59-.29-1.2-.56-1.79-.83l-3.6-1.6L347,178.68c-1.58-.56-3.16-1.09-4.7-1.78-1-.42-.65-1,.4-1.41a8.21,8.21,0,0,1,4.78,0,85,85,0,0,1,19,9l5.47,3.36c1.86,1.09,3.69,2.27,5.48,3.47,3.93,2.63,7.7,5.49,11.42,8.4l3.37,2.77c1.13.91,2.23,1.85,3.33,2.81l2.49,2.17,2.43,2.24c1.63,1.47,3.21,3,4.79,4.51L409,217.8c1.24,1.13,2.42,2.33,3.6,3.55.51.53,1,1,1.54,1.6,1.76,2.17,2.13,3,1.78,4a3.42,3.42,0,0,1-.25.68c-.39.62-1.55.11-3-1.26-1-1-2.16-2-3.23-3.09l-1.61-1.59-1.66-1.57c-2.18-2.14-4.47-4.23-6.71-6.38-1.72-1.55-3.38-3.16-5.15-4.67l-2.61-2.3L389,204.59Z"/><path class="cls-1" d="M409.87,183.42a46.09,46.09,0,0,0,2.34-4.66l1-2.4.84-2.48a17.59,17.59,0,0,0,.55-1.84c.13-.62.27-1.25.43-1.86a57.08,57.08,0,0,0,1.32-6.65l.28-3.39a12.22,12.22,0,0,0,.06-1.71v-1.7l0-1.52c0-.51-.12-1-.19-1.51-.14-1-.27-2-.45-3-.33-1.24-.65-2.49-1-3.74s-.83-2.43-1.13-3.7c-.2-.79.32-.92,1.08-.48a6.51,6.51,0,0,1,2.42,2.93,37.13,37.13,0,0,1,2.19,16.55,82.48,82.48,0,0,1-1.44,10.14,25.32,25.32,0,0,1-.76,2.71c-.28.9-.54,1.8-.85,2.69l-1.07,2.6a23.59,23.59,0,0,1-1.16,2.56l-1.58,3.08L410.94,189c-.24.37-.45.75-.7,1.11l-.79,1.05-1.56,2.09c-1.1,1.36-2.29,2.63-3.42,3.95-1,.95-1.89,1.9-2.81,2.88s-2,1.78-3,2.66l-.68.58c-.23.18-.48.34-.73.51-1.9,1.17-2.65,1.31-3.51.68a5.5,5.5,0,0,1-.58-.44c-.52-.57-.08-1.57,1.07-2.55a78.36,78.36,0,0,0,9.7-9.59,20.84,20.84,0,0,0,1.61-2l1.57-2.07,1.38-2.21a18.9,18.9,0,0,0,1.32-2.25Z"/><path class="cls-1" d="M71.29,243c-.33.14-.51-.27-.61-1a2.07,2.07,0,0,1,.2-1,3.56,3.56,0,0,1,.6-.41c.12-.06,1.88-.08,2.49-.1a6.93,6.93,0,0,1,1.7.19l3.34.7a2.52,2.52,0,0,1,.71.26,7.26,7.26,0,0,0,2.45.76.67.67,0,0,0,.44,0,9.86,9.86,0,0,1,2.76.47c.67.37,1.35.64,2,1,.1,0,.22,0,.28.18.16.37.4.35.61.42a4.27,4.27,0,0,1,.9.34,1.65,1.65,0,0,1,.41.45.84.84,0,0,1-.07.68c-.16.14-.07.38-.09.59a1.25,1.25,0,0,1,0,.21,8.37,8.37,0,0,1-2.25.68l-1.48-.09c-.74-.08-1.51-.17-1.67-.17a1.07,1.07,0,0,1-.46-.21c-.08,0-2.27-.29-2.35-.32-.43-.15-.9-.14-1.26-.54a.39.39,0,0,0-.25-.1,15.29,15.29,0,0,1-2.2-.72,11,11,0,0,0-1.13-.29,1,1,0,0,1-.19-.12,1.08,1.08,0,0,0-.24-.12,22.53,22.53,0,0,0-2.67-.64c-.21,0-1.12-.55-1.36-.56S71.42,242.94,71.29,243Z"/><path class="cls-1" d="M104.62,233c.41.22.11.71-.6,1.4a2.84,2.84,0,0,1-1.2.61,4.52,4.52,0,0,1-.9-.29,25.79,25.79,0,0,1-2-2.46,8.14,8.14,0,0,1-1.06-1.91c-.55-1.37-1.12-2.72-1.6-4.11a3.55,3.55,0,0,1-.19-1,11.68,11.68,0,0,0-.73-3.27c-.06-.18-.08-.37-.27-.5a11,11,0,0,1-1-3.6c.1-1,.07-2,.19-3,0-.15-.06-.29.1-.44.37-.35.27-.63.27-.93a6.08,6.08,0,0,1,.13-1.27,2.3,2.3,0,0,1,.41-.64c.15-.2.73-.15.8-.09s.46,0,.7-.05a1.18,1.18,0,0,1,.26,0,5.75,5.75,0,0,1,.78,1.09,10,10,0,0,1,.75,1.25s.05.22.15.53.21.71.33,1.13c.24.84.51,1.7.59,1.87a1.18,1.18,0,0,1,0,.59c0,.1.92,2.54,1,2.64.09.53.38,1,.18,1.62a.44.44,0,0,0,0,.32,22.37,22.37,0,0,1,.68,2.71,13.4,13.4,0,0,0,.48,1.34,1.2,1.2,0,0,1,0,.27,1.19,1.19,0,0,0,0,.33,20.54,20.54,0,0,0,1.28,3.11c.13.22.25,1.52.44,1.76S104.46,232.89,104.62,233Z"/><path class="cls-1" d="M117.32,305.69c-.65-11.68-.66-23.31-.21-35,.18-4.25.35-8.5.81-12.75a79.52,79.52,0,0,1,1.27-8.29,25.65,25.65,0,0,1,1.22-4.18,8.35,8.35,0,0,1,1.22-2.16,3.07,3.07,0,0,1,3-1.23l13.86,3.52,13.7,3.42c6.42,1.56,12.91,3,19.32,4.39,4.12.85,8.25,1.7,12.38,2.52,2.07.38,4.13.82,6.19,1.17s4.13.74,6.15,1c2.42.18,2.29.8,0,1.37a33.42,33.42,0,0,1-11.36-.31c-8.54-1.46-16.95-3.38-25.35-5.38s-16.78-4.14-25.17-6.39l-5-1.32-4.94-1.24a.51.51,0,0,0-.4.07.71.71,0,0,0-.15.15,2,2,0,0,0-.25.35,9.48,9.48,0,0,0-.9,2.13,38,38,0,0,0-1.11,5c-.54,3.45-.86,7-1.12,10.5a346.69,346.69,0,0,0-.45,34.88c.13,3.58.31,7.16.61,10.71.07.89.16,1.78.25,2.66,0,.27,0,.29.06.42a.64.64,0,0,0,.16.29,4.39,4.39,0,0,0,.78.61,27.91,27.91,0,0,0,4.67,2.2c5,1.9,10.26,3.4,15.5,4.84s10.51,2.71,15.77,3.91c8.18,1.85,16.27,3.33,24.43,4.8l5.37.93c3.34.66,5.54,1.12,7.06,1.56a10.51,10.51,0,0,1,3,1.33,8.45,8.45,0,0,1,.89.6c.29.3-.28.45-1.54.49a38.83,38.83,0,0,1-5.74-.34c-3.7-.42-7.43-1-11.18-1.67s-7.54-1.36-11.34-2.14c-7.6-1.55-15.27-3.3-22.92-5.25-5.68-1.47-11.35-3-17-4.93-1.41-.48-2.82-1-4.23-1.55a29.62,29.62,0,0,1-4.27-2.06,10.35,10.35,0,0,1-1.15-.84,3.89,3.89,0,0,1-1.2-1.7,3.48,3.48,0,0,1-.2-1l-.07-.56-.11-1.11c-.14-1.48-.25-3-.35-4.43Z"/></g></svg>