<svg xmlns="http://www.w3.org/2000/svg" width="520" height="520" viewBox="0 0 520 520"><defs><style>.cls-1{fill:#231f20;}</style></defs><title>Notioly New</title><g id="_174.Project" data-name="174.Project"><path class="cls-1" d="M144.13,254.93c.19-.8-7.78-.6-9-1.39s9.68-1.28,9.68-1.28Z"/><path class="cls-1" d="M141.38,253.54h-2.1c-.26,0-.52.08-.78.07-.93,0-1.87-.05-2.79-.15a8.42,8.42,0,0,0-1.23,0,3.27,3.27,0,0,1-1.55-.08c-.32-.12.09-1.8.65-1.91a8.92,8.92,0,0,1,3,0,7.45,7.45,0,0,0,1.88-.1l2.13-.11,1.33-.06c.67,0,1.35,0,2-.08s1-.26,1.53-.37a2,2,0,0,1,.33-.09c.43,0,.56.13.65.79,0,.15,0,.3.06.45a1.14,1.14,0,0,1-.43,1.1,6,6,0,0,1-2.69.58l-2,.06Z"/><path class="cls-1" d="M336.54,255l-8.69-.34-3.17-.07-11.17-.44c-1.66-.06-3.32-.07-5-.07-2.1,0-4.22,0-6.33-.18-.65-.06-.56-.38,0-.7a6.25,6.25,0,0,1,2.8-.69c4.3-.1,8.61,0,12.95.27,2.59.15,5.29.1,8,.15l8.76.21,5.39.14c2.72.06,5.45.15,8.15.16,2.1,0,4.16-.11,6.24-.11l1.37,0c1.7,0,2.25.18,2.6.59a2.78,2.78,0,0,1,.24.28c.16.29-.55.59-1.8.71-1.86.15-3.77.29-5.7.34s-3.89,0-5.85,0c-2.92,0-5.85-.1-8.77-.19Z"/><path class="cls-1" d="M334.46,253.91l-10.65-.1-3.88.06-13.7-.11c-2,0-4.07.06-6.08.12a65,65,0,0,1-7.77,0c-1.6-.13.43-2.09,3.38-2.24,2.63-.1,5.27-.2,7.91-.22s5.29,0,7.95.14c3.19.12,6.49-.05,9.75-.07h10.74l6.61,0c3.33,0,6.69.05,10,0,2.57,0,5.1-.18,7.66-.24.57,0,1.12,0,1.69,0,2.11,0,2.84.31,3.2,1a2.22,2.22,0,0,1,.24.49c.12.53-.76.88-2.23.92-4.49.24-9.28.3-14.08.31l-10.73,0Z"/><path class="cls-1" d="M311.33,233.64s6.32-12.94,6.24-17.75-4.7,4.41-4.7,4.41Z"/><path class="cls-1" d="M226.94,234.81c.06-.88-7.42-20.37-6.72-23.37s4.33-.79,4.33-.79l2.39,23Z"/><path class="cls-1" d="M209.4,212.33c-.16.25-14.81,1.11-14.3-20.28,0,0,2.39-10,8.08-11.47a7.13,7.13,0,0,1,8.22,3.4S200,148.55,237.5,134.86c0,0,10-2.18,17.53-.63s21.23,12.69,21.23,12.69,12.4-21.12,31.91-19.64c13.47,1,27,11.69,25.66,33l.09,4s10.87-9,14.66,1.66-6.66,31.07-15.45,36.2-20.79,11.34-18.11-8.7c0,0,4.55-18.5,7.83-23.58,0,0-14.62,16.78-23.78,10.58,0,0-36.94,18.35-30.33-8.72,0,0-6.73,18.3-23,25.47s-21.5,8.36-21.5,8.36l-.33,6.79s-8.83-4.73-11.65-2.36Z"/><path class="cls-1" d="M236.08,254.33c-2.48,0-5,0-7.45,0l-2.72.07-9.59,0-4.25.1c-.9,0-1.81.07-2.72.08a18.78,18.78,0,0,1-2.76-.26.85.85,0,0,1-.35-.13c-.08,0-.09-.1-.07-.14s.23-.14.46-.27a9.17,9.17,0,0,1,2.37-.73c1.83-.12,3.67-.22,5.51-.3s3.7,0,5.57,0c2.22.05,4.54-.11,6.82-.16l7.51-.1,4.63,0,7,0c1.81,0,3.58-.07,5.37,0,.4,0,.78,0,1.18.06,1.48.14,1.94.33,2.22.71a1.71,1.71,0,0,1,.18.25c.11.28-.5.45-1.57.52-3.16.27-6.49.35-9.85.34l-7.5,0Z"/><path class="cls-1" d="M296,423.8l-54.72,1.43-19.95.64q-35.19.93-70.38,1.67c-10.4.18-20.87.49-31.21.57-6.64.08-13.29.13-20,0a159.16,159.16,0,0,1-20-1.2c-4.18-.81-3.43-1.1,0-1s9.92-.39,17.54-.35c13.51,0,27-.43,40.61-.59l40.81-.76c16.33-.28,33.33-1,50-1.52l55.13-1.62,33.93-.87c17.13-.42,34.35-.72,51.35-1,13.23-.19,26.19-.49,39.29-.38,2.88,0,5.7,0,8.62.12,10.78.35,14.24,1,16.44,2.18a14,14,0,0,1,1.45.72c.48.36-.4.55-2.35.67-1,.08-2.23.06-3.72,0s-3.24,0-5.2-.1c-11.61-.34-23.59-.3-35.74-.23s-24.48.21-36.84.43c-18.35.33-36.79.74-55.19,1.24Z"/><path class="cls-1" d="M313.46,228.65q-.84,3.27-1.8,6.51c-.22.8-.38,1.6-.65,2.38-.86,2.77-1.92,5.48-3,8.17-.53,1.18-1,2.4-1.56,3.56-.19.38-.34.76-.53,1.14l-.65,1.1a7.57,7.57,0,0,1-1.66,2c-.41.37-.72-.08-.84-.76a4.16,4.16,0,0,1,0-1.12,3.55,3.55,0,0,1,.36-1.15,42.2,42.2,0,0,0,2-4.22c.64-1.48,1.28-3,1.94-4.46.37-.91.67-1.87,1-2.84s.5-2,.78-2.94c.58-2.15,1.14-4.3,1.66-6.47.3-1.34.62-2.68.89-4,.4-2,.83-4.09,1.09-6.14.22-1.59.23-3.17.31-4.75,0-.35,0-.7,0-1,.12-1.29.39-1.67,1.13-1.89a2.57,2.57,0,0,1,.5-.15c.56-.09,1,.48,1.12,1.49a25.65,25.65,0,0,1,0,4.47,36.74,36.74,0,0,1-.57,4.52c-.38,2.23-.9,4.45-1.41,6.66Z"/><path class="cls-1" d="M227.12,223.63c.3,2.56.57,5.14,1,7.69.13.94.39,1.85.54,2.78.52,3.3,1.16,6.57,1.85,9.84.32,1.45.74,2.88,1.19,4.27.59,1.77,1.26,3.58,1.86,5.21.18.51-.19.74-.83.53a3.24,3.24,0,0,1-1.1-.69,4.55,4.55,0,0,1-.93-1.28,51.57,51.57,0,0,1-3.55-11.27c-.39-2.34-1.11-4.68-1.59-7-.53-2.6-1-5.21-1.35-7.84-.25-1.61-.39-3.24-.6-4.86l-.34-3.7c-.1-1.23-.15-2.47-.27-3.7-.11-1.92-.33-3.8-.26-5.74,0-.43,0-.85,0-1.28.24-1.62.63-2.08,1.34-2.27a3.17,3.17,0,0,1,.49-.12c.52,0,.88.69,1,1.77,0,.4,0,.78.05,1.19l.13,1.23c.07.82.12,1.64.25,2.48l.14,1.26c0,.42,0,.83.08,1.26.06.85.13,1.71.19,2.56.22,2.55.46,5.14.8,7.71Z"/><path class="cls-1" d="M330.07,218.73a11.3,11.3,0,0,1-.08,2.2l-.12,1-.21,1a16.45,16.45,0,0,1-.52,2,18,18,0,0,1-.68,1.91c-.17.46-.35.92-.55,1.36a11.4,11.4,0,0,1-.62,1.32,28.68,28.68,0,0,1-6.45,7.81c-.57.48-1.14,1-1.75,1.39l-.91.67-.94.6a11.75,11.75,0,0,1-5.37,2c-.6.06-.59-.38-.25-1a5.75,5.75,0,0,1,1.79-1.85,43.73,43.73,0,0,0,8.12-6.39,19.14,19.14,0,0,0,3.47-5.46,19.52,19.52,0,0,0,1.89-6.8,5.58,5.58,0,0,0-.69-3.75c-1-1.49-3.33-1.73-5.37-1.1a13.23,13.23,0,0,0-4.35,2.46l-.85.69a7.76,7.76,0,0,1-.72.49,2,2,0,0,1-.61.21,1.78,1.78,0,0,1-1-.11c-.16-.07-.33-.11-.46-.18s-.3-.35-.26-.71a3.74,3.74,0,0,1,.52-1.38,15.4,15.4,0,0,1,1.85-2,14.33,14.33,0,0,1,2.31-1.55,12.16,12.16,0,0,1,5.79-1.56,8,8,0,0,1,2.55.39,6.5,6.5,0,0,1,2.45,1.45,7.27,7.27,0,0,1,2.12,4.78Z"/><path class="cls-1" d="M210.56,214.42a6,6,0,0,0-.44,2.94c0,.56.11,1.13.16,1.71s.23,1.13.38,1.7c.13.41.29.81.44,1.21s.37.78.53,1.19a21,21,0,0,0,1,2.07c.42.65.8,1.35,1.28,2a22.48,22.48,0,0,0,3.15,3.54,18.69,18.69,0,0,0,3.42,2.47c1.58.86,3.19,1.63,4.86,2.34.52.25.37.66-.23,1a4,4,0,0,1-2.84.32,17,17,0,0,1-5.55-2.66,20.57,20.57,0,0,1-4.34-4.35,32.62,32.62,0,0,1-4-6.37,17.47,17.47,0,0,1-1.35-8.27,7.83,7.83,0,0,1,2.61-4.84,11.52,11.52,0,0,1,13.42-.33,7,7,0,0,1,1,1,5,5,0,0,1,.63,1,2.26,2.26,0,0,1,.15.78,1.4,1.4,0,0,1-.38,1,2.41,2.41,0,0,1-.33.37c-.39.3-1-.14-1.85-.67a6.54,6.54,0,0,0-1.63-1.13,8.6,8.6,0,0,0-1.77-.74,9.26,9.26,0,0,0-4-.21,5.59,5.59,0,0,0-4.39,3Z"/><path class="cls-1" d="M258.65,190.3a58.69,58.69,0,0,1-8.43,6.59c-1.08.72-2.16,1.45-3.29,2.08a59.19,59.19,0,0,1-6.18,2.94,61.91,61.91,0,0,1-6.45,2.18c-1.94.54-3.89,1-5.85,1.46a25.21,25.21,0,0,1-7.65.6c-.79-.07-.7-.46-.06-1a8.37,8.37,0,0,1,3.15-1.56,99.69,99.69,0,0,0,14.49-3.71,40.9,40.9,0,0,0,8.21-4.22,60.55,60.55,0,0,0,8.17-6.11,55.08,55.08,0,0,0,4.44-4.47,42.08,42.08,0,0,0,5.47-7.77,26.36,26.36,0,0,0,2.32-6.77c.12-.51.2-1,.29-1.51.26-1.86.81-2.39,1.49-2.81.16-.09.31-.22.45-.28s.44.06.67.46a4,4,0,0,1,.58,1.86,19.41,19.41,0,0,1-.33,3.64c-.13.6-.3,1.18-.46,1.78s-.39,1.16-.59,1.74a35,35,0,0,1-3.4,6.54,52.46,52.46,0,0,1-7,8.37Z"/><path class="cls-1" d="M292.14,186.39a44.31,44.31,0,0,1-10.42,4.35,25.81,25.81,0,0,1-4.15.81,14.48,14.48,0,0,1-7.63-1.25,7.74,7.74,0,0,1-3.06-2.89,10.38,10.38,0,0,1-1.24-3.74,24.07,24.07,0,0,1,.08-6.52,17.18,17.18,0,0,1,2.74-7.65c.51-.7.85-.36,1.06.5a13.92,13.92,0,0,1,.27,1.62,6,6,0,0,1-.06,2c-.31,1.21-.48,2.45-.68,3.67a24.88,24.88,0,0,0-.34,3.61,12.05,12.05,0,0,0,.35,3.35,5.28,5.28,0,0,0,1.39,2.56,6.22,6.22,0,0,0,3.64,1.43,16.6,16.6,0,0,0,4.48-.23,34,34,0,0,0,9.79-3.44,48.41,48.41,0,0,0,5.6-3.38,45,45,0,0,0,7.49-6.46,28.5,28.5,0,0,0,4.13-6.2c.24-.47.45-1,.68-1.43.83-1.76,1.12-2.26,2.06-2.49a4,4,0,0,1,.63-.17c.34,0,.58.19.72.65a3.4,3.4,0,0,1,.11.86,7.35,7.35,0,0,1-.14,1.14,19.44,19.44,0,0,1-1.24,3.63,24.21,24.21,0,0,1-2,3.28,37.38,37.38,0,0,1-5.1,5.71,54.16,54.16,0,0,1-9.13,6.73Z"/><path class="cls-1" d="M317.48,179.42a28.72,28.72,0,0,1-4,3.29,19,19,0,0,1-1.58,1.07,14.15,14.15,0,0,1-6.56,1.87,11.13,11.13,0,0,1-3.05-.3,6.63,6.63,0,0,1-3.41-1.71c-.29-.29.06-.67.61-.95a2.71,2.71,0,0,1,1.82-.34,10.68,10.68,0,0,0,2.9.52,11.54,11.54,0,0,0,3-.1,9.54,9.54,0,0,0,3.62-1.74,28.48,28.48,0,0,0,3.64-2.91,27,27,0,0,0,2-2.1,26.67,26.67,0,0,0,2.7-3.56,28.86,28.86,0,0,0,1.45-3.09c.1-.22.17-.46.29-.68a2,2,0,0,1,.7-.73,1.77,1.77,0,0,1,.83-.11,2.5,2.5,0,0,1,.4,0c.2,0,.34.17.46.42a1.75,1.75,0,0,1,.19,1,13.13,13.13,0,0,1-2.73,6.21,34.46,34.46,0,0,1-3.3,4Z"/><path class="cls-1" d="M346.23,188.44a55.73,55.73,0,0,1-10.29,13.32,33.31,33.31,0,0,1-4.81,3.94,21.63,21.63,0,0,1-5,2.51,12.29,12.29,0,0,1-5.77.68,7.57,7.57,0,0,1-1.47-.32,6.37,6.37,0,0,1-1.47-.57,6.21,6.21,0,0,1-2.3-2.19,11.49,11.49,0,0,1-1.49-5.54,36.4,36.4,0,0,1,1-9.49c.22-1,.48-2,.75-2.93s.63-1.92,1-2.86a27.11,27.11,0,0,1,2.75-5.39c.75-1,.91-.69.74.39a35.66,35.66,0,0,1-1.13,5.12,59.21,59.21,0,0,0-2.4,11.4,19,19,0,0,0,.21,5.51,4.94,4.94,0,0,0,2.41,3.69,2.76,2.76,0,0,0,.67.23l.73.2a8.91,8.91,0,0,0,1.56.08,7.51,7.51,0,0,0,1.61-.22c.27-.06.54-.11.81-.19l.8-.29a22.77,22.77,0,0,0,6-3.61A51.27,51.27,0,0,0,346,181.09a31.56,31.56,0,0,0,1.79-7.16,13.93,13.93,0,0,0-.74-7c-.2-.39-.37-.8-.6-1.17s-.5-.71-.78-1l-.93-.88c-.36-.27-.72-.57-1.09-.8a5.15,5.15,0,0,0-4.31-1.11,4.84,4.84,0,0,0-1.64.94,7,7,0,0,0-.7.59c-.22.19-.41.37-.59.55-.37.33-.68.6-1,.82a2.54,2.54,0,0,1-1.66.54,5.48,5.48,0,0,1-.82,0c-.4-.1-.54-.5-.41-1.15a6.26,6.26,0,0,1,1.35-2.6,10.8,10.8,0,0,1,2.26-2.14,7.08,7.08,0,0,1,3.36-1.3,7.63,7.63,0,0,1,3.68.53,13,13,0,0,1,2.84,1.64,15.28,15.28,0,0,1,1.21,1c.4.4.81.81,1.2,1.23s.66.94,1,1.41a14.36,14.36,0,0,1,.76,1.52,16.47,16.47,0,0,1,1.17,6.32,29.36,29.36,0,0,1-1.59,8.76,48.54,48.54,0,0,1-3.45,7.91Z"/><path class="cls-1" d="M323.88,130.26a21.16,21.16,0,0,0-6.57-2.27,17.55,17.55,0,0,0-1.77-.26,15.4,15.4,0,0,0-1.8-.12l-1.82-.07c-.61,0-1.21,0-1.82.06a38.66,38.66,0,0,0-5.26.71,42.21,42.21,0,0,0-9,2.84,42.4,42.4,0,0,0-14.38,10.68,102.5,102.5,0,0,0-6.42,8.76c-.66.93-1.08.56-1.13-.58a9.59,9.59,0,0,1,.24-2.24,10,10,0,0,1,1.19-2.77,46.65,46.65,0,0,1,7.57-9,43.24,43.24,0,0,1,9.76-6.61,46.92,46.92,0,0,1,13.66-4.58c.66-.08,1.31-.23,2-.26l2-.11a35.21,35.21,0,0,1,4,0,27.74,27.74,0,0,1,7.87,1.54,21.55,21.55,0,0,1,8.31,5.35A26.68,26.68,0,0,1,337,144.57a40.2,40.2,0,0,1,.86,11.2c-.08.82-.16,1.63-.32,2.46a11,11,0,0,1-1,3.14,2.51,2.51,0,0,1-1.06,1.2,3.06,3.06,0,0,1-.53.28c-.53.13-.51-1.14-.36-3.27.11-1.58.21-3.16.17-4.76a47.81,47.81,0,0,0-.11-4.78,33.31,33.31,0,0,0-2-9.34,22.35,22.35,0,0,0-3.47-6,17.61,17.61,0,0,0-5.29-4.34Z"/><path class="cls-1" d="M239.42,135.58a41.47,41.47,0,0,0-14.81,5.54,39.45,39.45,0,0,0-4.58,3.52,34.83,34.83,0,0,0-6.56,7.79,39.21,39.21,0,0,0-4.35,9.38,32.06,32.06,0,0,0-1.36,9.05c-.07,3.93.87,7.73,1.65,11.61.24,1.21-.33,1.28-1.3.48a8.58,8.58,0,0,1-3-4.94,32,32,0,0,1-.37-13.1,37.11,37.11,0,0,1,4.66-12.2,65.42,65.42,0,0,1,4.41-6.56,32.83,32.83,0,0,1,5.68-5.68,43.21,43.21,0,0,1,15.6-7.51,46.16,46.16,0,0,1,10.51-1.47,40.72,40.72,0,0,1,15.77,2.7,41.57,41.57,0,0,1,5.61,2.64c.86.56,1.78,1,2.6,1.68l1.26.92,1.19,1a23.68,23.68,0,0,1,2,1.88,15.21,15.21,0,0,1,1.38,1.67,5.43,5.43,0,0,1,.76,1.27,2.73,2.73,0,0,1,.15,1.83,3.83,3.83,0,0,1-.23.7c-.36.59-1.58-.19-3.16-1.84a35.58,35.58,0,0,0-8-6.36,35.12,35.12,0,0,0-9.74-3.74,39.9,39.9,0,0,0-15.78-.19Z"/><path class="cls-1" d="M193.14,194.35a18.88,18.88,0,0,1,.63-4.77,19.54,19.54,0,0,1,1.79-4.46,13.61,13.61,0,0,1,2-3,10.6,10.6,0,0,1,2.61-2,9.12,9.12,0,0,1,3.22-1,7.61,7.61,0,0,1,.83,0,4.2,4.2,0,0,1,.86,0,8.43,8.43,0,0,1,.9.18l.84.3a10.33,10.33,0,0,1,2.59,1.88,37.39,37.39,0,0,1,3.39,3.95c.66.86,1.3,1.72,1.91,2.6s1.06,1.86,1.56,2.78c.31.59,0,.74-.68.56a6.74,6.74,0,0,1-2.71-1.55c-1.4-1.69-2.68-3.39-4-4.87s-2.87-2.73-4.12-2.94c-2.12-.29-4.14,1.08-5.56,3a15.69,15.69,0,0,0-3,7.5,17.38,17.38,0,0,0,.09,5.14,18.43,18.43,0,0,0,2.8,7.32,16.51,16.51,0,0,0,4.24,4.18l1.09.7c1.32.93,1.7,1.29,1.74,2a3,3,0,0,1,0,.5c0,.5-.87.59-2.18.14-3.83-1.48-7-4.91-8.83-8.79a21.83,21.83,0,0,1-2.13-9.4Z"/><path class="cls-1" d="M284.35,242a36.48,36.48,0,0,1,2.87,8.65c.1.56.16,1.14.25,1.7l.11.84V254l0,1.51c0,.29-.07.6-.12.89a8.42,8.42,0,0,1-.24.86,6.89,6.89,0,0,1-1.92,2.85,9.47,9.47,0,0,1-5.8,2.31,10.8,10.8,0,0,1-5.23-1.15,31.45,31.45,0,0,1-5.42-3.38c-.52-.38-.25-.73.46-.86a5.06,5.06,0,0,1,3,.55,17.85,17.85,0,0,0,5.39,2.13,7.43,7.43,0,0,0,5-1,3.89,3.89,0,0,0,1.82-2.3,4.51,4.51,0,0,0,.09-1.56c-.06-.61,0-1.22-.13-1.83a29.58,29.58,0,0,0-2.25-8c-.68-1.62-1.43-3.22-2.24-4.82-1.2-2.43-2.37-4.94-3.43-7.48a32.5,32.5,0,0,1-2.05-6.11c-.06-.48-.14-1-.18-1.44-.12-1.81.28-2.39.83-2.72a2.17,2.17,0,0,1,.38-.22c.2-.07.39.08.58.39a3.88,3.88,0,0,1,.48,1.35,42,42,0,0,0,3.89,10.1l2,3.79c.66,1.3,1.32,2.63,2,4Z"/><path class="cls-1" d="M181.76,254.13a24,24,0,0,1,6.24,1.36c2.21,1,7.18,1.8,8.21.59s-9.32-3.43-9.32-3.43l-6.5-.39Z"/><path class="cls-1" d="M169,267.43a9.91,9.91,0,0,0,4.28-2,1.47,1.47,0,0,1,1.82-.23c1,.59,2.47,1.2,3.62.64,2-.94-6.6-8.5-6.6-8.5l-1.61,5.34Z"/><path class="cls-1" d="M164.87,267.29c-1.85-.52-4.21-2.31-4.82-3.7-.26-.6-3.89,1.65-6.47.43l2.12-1.92,5.42-6a17.82,17.82,0,0,0,1.09,2.25s.19,2.9.29,3.21S169,268.45,164.87,267.29Z"/><path class="cls-1" d="M152.92,263.07c-4.26.85-4.62-6.65-4.62-6.65l4.62-2-.49,7.14Z"/><path class="cls-1" d="M143.51,253.54a23.87,23.87,0,0,1,2.33-4.66c.33-.52.61-1.08,1-1.58a22.34,22.34,0,0,1,2.17-2.5,12.33,12.33,0,0,1,2.71-2.1,5.24,5.24,0,0,1,3.35-.84,3,3,0,0,1,2,1.27c.11.16.22.31.31.47l.16.5a7.48,7.48,0,0,1,.19,1c0,.41-.31.46-.83.34-.26-.05-.55-.16-.88-.24a3.56,3.56,0,0,1-.87-.25c-.31-.3-.59-.13-.64-.2a1,1,0,0,0-.59,0,10.65,10.65,0,0,0-2.47,1.43,12.46,12.46,0,0,0-2.68,3.15,24.14,24.14,0,0,0-2.33,4,9.43,9.43,0,0,0-.75,2.3c0,.37,0,.91.43,1.09a1.43,1.43,0,0,0,1.13-.49c.09-.08.35-.34.52-.53s.38-.43.57-.65a14.42,14.42,0,0,1,1.18-1.35,7.26,7.26,0,0,1,.64-.58,2,2,0,0,1,1.38-.45.78.78,0,0,1,.75.68.8.8,0,0,1,0,.44,1.67,1.67,0,0,1-.18.28,1.3,1.3,0,0,0-.12.19.45.45,0,0,0,0,.11.71.71,0,0,0,0,.23.46.46,0,0,1-.06.25,24,24,0,0,1-1.79,2.19l-.59.6-.32.3-.17.15-.31.25a8.27,8.27,0,0,1-1.31.87,3.47,3.47,0,0,1-1.35.37,2.68,2.68,0,0,1-1.86-.61,3.91,3.91,0,0,1-1.07-1.73,3.74,3.74,0,0,1-.13-1.12,6.55,6.55,0,0,1,.07-1.11c0-.17.06-.36.09-.52l.09-.35c.06-.23.12-.46.2-.68Z"/><path class="cls-1" d="M150.74,258.58a23.39,23.39,0,0,1,1.33-6.28,20.49,20.49,0,0,1,.79-2.15,22.11,22.11,0,0,1,2-3.53,12.06,12.06,0,0,1,2.94-3c.26-.19.58-.34.86-.51a6.47,6.47,0,0,1,1-.36,4.07,4.07,0,0,1,2.16.08,5.43,5.43,0,0,1,3.36,3.43c.17.46-.19.57-.76.48a4.63,4.63,0,0,1-1-.26,2.37,2.37,0,0,1-1-.49,3.51,3.51,0,0,0-1.31-.75,2.09,2.09,0,0,0-1.05.07,6.92,6.92,0,0,0-2.73,2.08,14.88,14.88,0,0,0-2.38,4.52,24.24,24.24,0,0,0-1.52,5.51,9,9,0,0,0,0,3.33c.06.15.11.38.17.48a1.18,1.18,0,0,0,.19.32.71.71,0,0,0,.68.26,2,2,0,0,0,.79-.4,7.61,7.61,0,0,0,.95-.86,20,20,0,0,0,2.32-3.47c.16-.26.3-.54.47-.81.63-1,1-1.24,1.71-1a1.79,1.79,0,0,1,.46.16c.44.27.51.82.15,1.59a24.62,24.62,0,0,1-2,3.48c-.4.58-.86,1.12-1.33,1.71-.25.28-.51.57-.81.85a6.87,6.87,0,0,1-1.14.89,3.5,3.5,0,0,1-2.82.43,3.54,3.54,0,0,1-2.06-2,10.41,10.41,0,0,1-.38-1c-.06-.32-.15-.66-.18-1a13.46,13.46,0,0,1-.09-1.77Z"/><path class="cls-1" d="M171.47,262.6a17.59,17.59,0,0,1-.76,2.93,7.49,7.49,0,0,1-.74,1.55,3.72,3.72,0,0,1-.74.84,3.56,3.56,0,0,1-1.06.59c-.34,0-.67.1-.89.1a3,3,0,0,1-.79-.06l-.39-.06-.37-.14A3.69,3.69,0,0,1,165,268a6.38,6.38,0,0,1-2.22-2.62,20,20,0,0,1-1.37-5c-.13-.83-.21-1.66-.28-2.48a24,24,0,0,1-.06-2.54,25.58,25.58,0,0,1,.49-4.46,10.79,10.79,0,0,1,2.38-5.23c.41-.45.68-.12.77.51a6,6,0,0,1-.21,2.48,23.85,23.85,0,0,0-.93,10.31,13.93,13.93,0,0,0,1.82,6.08,3.1,3.1,0,0,0,.93,1,1.59,1.59,0,0,0,.52.17,1.71,1.71,0,0,0,.48,0,.44.44,0,0,0,.33-.18,2.78,2.78,0,0,0,.33-.57,9.06,9.06,0,0,0,.5-1.62,24.37,24.37,0,0,0,.49-4.47,34.42,34.42,0,0,0-.47-6.89,12.55,12.55,0,0,0-1.88-4.62,5.12,5.12,0,0,0-.59-.62c-.35-.31-.41-.3-.53-.47s-.12-.18-.21-.3-.18-.24-.29-.41-.25-.3-.35-.45a.61.61,0,0,1,.15-.86,2,2,0,0,1,2-.31,5.24,5.24,0,0,1,2.63,2.2,11.54,11.54,0,0,1,1.25,2.61,23.3,23.3,0,0,1,1.11,5.34,30.48,30.48,0,0,1-.26,8Z"/><path class="cls-1" d="M178,262.15a5.18,5.18,0,0,0,1.25.87l.36.14c.07,0,.13,0,.21,0a1,1,0,0,0,.55-.56,4.08,4.08,0,0,0,.17-1.58,11.73,11.73,0,0,0-.63-3.61,18,18,0,0,0-1.54-3.63,13.18,13.18,0,0,0-2-2.81,6.64,6.64,0,0,0-1.63-1.25,1.84,1.84,0,0,0-1.7-.39c-.38.13-.55,0-.37-.54a1.17,1.17,0,0,1,.27-.44,1.55,1.55,0,0,1,.54-.46,2.9,2.9,0,0,1,1.79-.43c4.2,1.28,6.28,4.46,7.42,7.83.34,1,.67,2.05.95,3.14a10.7,10.7,0,0,1,.39,3.49,6.11,6.11,0,0,1-.67,2.32,4.59,4.59,0,0,1-1.9,1.88,3.74,3.74,0,0,1-2.32.32,5.57,5.57,0,0,1-1.84-.71,12.49,12.49,0,0,1-3.29-3.08,23.31,23.31,0,0,1-3.17-5.65,13.31,13.31,0,0,1-1.22-5.07,5.1,5.1,0,0,1,.14-1.27,2.73,2.73,0,0,1,.17-.55,3.65,3.65,0,0,1,.27-.41,1.89,1.89,0,0,1,.57-.51,1.33,1.33,0,0,1,1.06-.09,2.16,2.16,0,0,1,.43.15.85.85,0,0,1,.34.63c0,.29.13.68.15,1a10.3,10.3,0,0,0,.44,3.18,18.51,18.51,0,0,0,1.46,3.49,16,16,0,0,0,3.45,4.49Z"/><path class="cls-1" d="M197.22,247.86a6.85,6.85,0,0,1,2.07,3.38,5.82,5.82,0,0,1,.13,1.12,6.47,6.47,0,0,1-.15,1.15,7.88,7.88,0,0,1-.47,1.07,5.12,5.12,0,0,1-.41.54c-.16.15-.33.3-.51.44a4.82,4.82,0,0,1-2.93.72,17.78,17.78,0,0,1-4-.88l-3.64-1.22a23.52,23.52,0,0,0-3.21-.8,25.27,25.27,0,0,0-3.89-.35c-.35,0-.56-.42-.31-1a2.4,2.4,0,0,1,2-1.34,14.5,14.5,0,0,1,4.66.73c1.44.42,2.83.93,4.19,1.45a13.19,13.19,0,0,0,2.49.69,9.14,9.14,0,0,0,2.33.14c.76-.15.8-.22,1-.86A2.41,2.41,0,0,0,196,251a7,7,0,0,0-2.48-1.93,12.64,12.64,0,0,0-5-1.3,8.53,8.53,0,0,0-1,0l-1,.11a19.31,19.31,0,0,0-2,.36l-.87.2c-1.09.18-1.49-.1-1.87-.81a3.77,3.77,0,0,1-.26-.48c-.22-.54.16-1.14,1-1.57a15.32,15.32,0,0,1,8.44-.65,13.49,13.49,0,0,1,6.33,2.9Z"/><path class="cls-1" d="M372.7,265.72l-3.4,2.88a5.85,5.85,0,0,0,5.57-.16C376.94,267.19,372.7,265.72,372.7,265.72Z"/><path class="cls-1" d="M367.84,268.8c-2.89-.48-3.16-6.36-4.46-5.53s-6.31,1-6.63,1.22c0,0,.16,1.25,2.9,2,1.05.3,2.44,0,2.44.3C362.09,267.37,364.68,269.35,367.84,268.8Z"/><path class="cls-1" d="M372,256.69a25.07,25.07,0,0,1-5.89,6.09,17.51,17.51,0,0,1-2.61,1.71,13.7,13.7,0,0,1-2.6,1,11.05,11.05,0,0,1-1.4.33,3.26,3.26,0,0,1-2-.27,2.71,2.71,0,0,1-1.27-1.53,4,4,0,0,1-.18-1.79,7.7,7.7,0,0,1,.9-2.79,12.12,12.12,0,0,1,3.2-3.76,11.4,11.4,0,0,1,2.72-1.59,8.52,8.52,0,0,1,3.08-.44c.64,0,.57.49.14,1.06a7.5,7.5,0,0,1-2,1.8,10.11,10.11,0,0,0-3.94,2.86,8.86,8.86,0,0,0-1.24,2,4.42,4.42,0,0,0-.32,1,2.73,2.73,0,0,0-.05.42.86.86,0,0,0,0,.21.38.38,0,0,0,.34.33,1.14,1.14,0,0,0,.46-.07,5.69,5.69,0,0,0,.78-.22,13.34,13.34,0,0,0,3-1.46,21.09,21.09,0,0,0,5.5-5.13,17.74,17.74,0,0,0,2.34-4,7.08,7.08,0,0,0,.6-3.16,1.7,1.7,0,0,0-.51-1.08,1.63,1.63,0,0,0-1.1-.39,4.2,4.2,0,0,0-2.12.84,21.81,21.81,0,0,0-2.07,1.66c-.3.27-.58.56-.89.83-1.16,1-1.77,1.12-2.48.78a3,3,0,0,1-.47-.25c-.44-.34-.26-1.08.43-2a19,19,0,0,1,4.06-3.84,6.31,6.31,0,0,1,3.55-1.11,4.86,4.86,0,0,1,2.28.58,4.64,4.64,0,0,1,1.78,1.79,5.63,5.63,0,0,1,.59,3.07,9.65,9.65,0,0,1-.52,2.46,18.4,18.4,0,0,1-2,4Z"/><path class="cls-1" d="M371.05,264.55a18,18,0,0,0,4-4c.43-.57.74-1.22,1.14-1.82a22.83,22.83,0,0,0,1.84-3.32,10.26,10.26,0,0,0,1-3.49,1.8,1.8,0,0,0-.25-1.15.55.55,0,0,0-.35-.22,1.2,1.2,0,0,0-.23,0c-.12,0-.24,0-.36,0-1.23,0-2.32.72-3.64,1.39-.42.21-.71-.26-.71-.94a2.45,2.45,0,0,1,1.23-2.15,6.5,6.5,0,0,1,2.89-.83c.76-.1,2.9.24,3.48,1.71a5.31,5.31,0,0,1,.44,3.22,11.28,11.28,0,0,1-.68,2.54,38.51,38.51,0,0,1-2.49,5.51,23.45,23.45,0,0,1-4.22,5.11,14.58,14.58,0,0,1-3.49,2.36,7.64,7.64,0,0,1-3.26.74,5.83,5.83,0,0,1-1.77-.28,3.56,3.56,0,0,1-1.63-1.11,4.51,4.51,0,0,1-.89-2.78,6.77,6.77,0,0,1,.49-2.64,5.12,5.12,0,0,1,.54-1.07,3.82,3.82,0,0,1,.68-.74,1.64,1.64,0,0,1,.66-.35,1,1,0,0,1,1.05.29,1.79,1.79,0,0,1,.33.42,1.63,1.63,0,0,1,.09.81,3.19,3.19,0,0,1-.05.37,3.62,3.62,0,0,1-.13.4,8.3,8.3,0,0,0-.41,1.41,4.17,4.17,0,0,0-.13,1.36,1.12,1.12,0,0,0,.2.62l.43.1a6.14,6.14,0,0,0,4.17-1.46Z"/><path class="cls-1" d="M382.15,263.35a21,21,0,0,0,3.94-3.88,18.86,18.86,0,0,0,1.05-1.69,7.75,7.75,0,0,0,1.17-3,1.56,1.56,0,0,0-1.22-1.88,3.43,3.43,0,0,0-2.68.34,21.05,21.05,0,0,0-3.28,2.25c-.34.26-.69-.08-.8-.71a2.59,2.59,0,0,1,.71-2.23A10.74,10.74,0,0,1,383.1,251a6.62,6.62,0,0,1,2.71-.76,5.37,5.37,0,0,1,1.54.12,5.65,5.65,0,0,1,1.46.57,3.77,3.77,0,0,1,1.88,2.79,7.83,7.83,0,0,1-.41,3.32,12.77,12.77,0,0,1-1.23,2.73,22.74,22.74,0,0,1-4.05,4.83,22,22,0,0,1-3.06,2.35,13.17,13.17,0,0,1-5.59,2.11l-.61.05h-.63a3.33,3.33,0,0,1-1.43-.32,2.84,2.84,0,0,1-1.68-2.63,3,3,0,0,1,.3-1.42c.81-1.42,1.47-1.35,2.06-1.08a3,3,0,0,1,.4.2.77.77,0,0,1,.25.64,3.07,3.07,0,0,1-.12.94,1.36,1.36,0,0,0-.07.6.29.29,0,0,0,.1.22.23.23,0,0,0,.23.06c-.08-.06.5,0,1,0a7.14,7.14,0,0,0,1.47-.33,14.91,14.91,0,0,0,4.53-2.63Z"/><path class="cls-1" d="M398.05,263.08s.08,0,.14-.09a3,3,0,0,0,.28-.72,6.13,6.13,0,0,0,.15-1.89,10.72,10.72,0,0,0-.31-1.45,10,10,0,0,0-2.59-4.82,3.8,3.8,0,0,0-.47-.43,4,4,0,0,0-.46-.35,2.31,2.31,0,0,0-1-.26,18.73,18.73,0,0,0-3.19.39c-.34,0-.46-.31-.31-.8a2.19,2.19,0,0,1,1.31-1.39,7.53,7.53,0,0,1,2.08-.43,4.4,4.4,0,0,1,2.53.6,9.66,9.66,0,0,1,2.94,2.79,14.82,14.82,0,0,1,2.29,4.39,9.1,9.1,0,0,1-.17,5.66,3.81,3.81,0,0,1-1.38,1.76,2.92,2.92,0,0,1-2.11.43l-.34-.08a7.13,7.13,0,0,1-.74-.25l-.6-.28a6.63,6.63,0,0,1-1.07-.75,8,8,0,0,1-1.56-1.92,27.06,27.06,0,0,1-1.76-3.29c-.1-.24-.23-.47-.31-.72a1.16,1.16,0,0,1,.62-1.69c.16-.1.31-.2.46-.28a1.06,1.06,0,0,1,.82,0,1.46,1.46,0,0,1,.79.59,29.18,29.18,0,0,1,1.49,2.64,7.94,7.94,0,0,0,1.33,1.92,2.83,2.83,0,0,0,.56.42l.32.16c.12.05.06,0,.08.05a.08.08,0,0,0,.1,0Z"/><path class="cls-1" d="M346.81,248.69a1.54,1.54,0,0,0-.61,1.25,1.79,1.79,0,0,0,.21.69,1.23,1.23,0,0,0,.53.47,4.84,4.84,0,0,0,1.56.28,22.53,22.53,0,0,0,3.46-.07l3.65-.3,3.29-.3a18.87,18.87,0,0,1,2.13-.09,8.65,8.65,0,0,1,2.13.37c.43.14.3.56-.11,1a3.33,3.33,0,0,1-1.83,1c-2.64.1-5.32.44-8.19.6a34.43,34.43,0,0,1-5.49.24,5.71,5.71,0,0,1-1.71-.5,3.71,3.71,0,0,1-1.49-1.32,4,4,0,0,1-.61-1.83,3.64,3.64,0,0,1,.36-1.88,5.92,5.92,0,0,1,3.11-2.67,12.23,12.23,0,0,1,5.62-.74,16.38,16.38,0,0,1,4.27.82,8.79,8.79,0,0,1,.9.34c1.08.55,1.27,1,1.14,1.6a2.71,2.71,0,0,1-.1.43c-.18.44-.77.49-1.51.28A16.81,16.81,0,0,0,351,247.2a6.71,6.71,0,0,0-4.13,1.53Z"/><path class="cls-1" d="M237.37,254.4l-8.21-.18c-1,0-2,.05-3,0-3.53-.11-7-.24-10.58-.3-1.57-.05-3.14,0-4.69,0-1,0-2,.08-3,0s-2-.16-3-.27c-.62-.09-.54-.4,0-.78a7.41,7.41,0,0,1,2.62-1.1,69.55,69.55,0,0,1,12.25-.29c2.45.15,5,0,7.52,0,2.77,0,5.54.07,8.3.13l5.11.11c2.58.05,5.17.16,7.74.18,2,0,4-.15,5.93-.09.44,0,.87,0,1.31,0a4,4,0,0,1,1.7.45,1.66,1.66,0,0,1,.71.67,3.29,3.29,0,0,1,.2.34c.12.34-.57.64-1.76.94a81.1,81.1,0,0,1-10.86.34l-8.26-.12Z"/><path class="cls-1" d="M219.19,298.44s-4.87-7.1-1.27-8.88c2.57-1.27,1.69-1.54.41-1.54s-3.41,0-3.82,2.09C213.72,294.18,216.75,297.37,219.19,298.44Z"/><path class="cls-1" d="M231,300.19s8.76-8,5.44-8.54c-2.86-.48-.08-2.66,2.29-1.73s2.56,3.36.84,5.84C237.74,298.44,231,300.19,231,300.19Z"/><path class="cls-1" d="M217.91,287.34a8.11,8.11,0,0,1,2.51.5,10,10,0,0,1,2.14,1,16,16,0,0,1,1.87,1.36l.44.37.28.28.11.15c.09.06.15.23.24.3a1.35,1.35,0,0,0,.12-.34c0,.23.42-1.76.85-3a14,14,0,0,1,3.13-5.87,6.52,6.52,0,0,1,2-1.32,6.92,6.92,0,0,1,1.18-.34,6.84,6.84,0,0,1,1.57-.08,2.67,2.67,0,0,1,2.34,1.56,4.28,4.28,0,0,1-.09,2.91,17.2,17.2,0,0,1-1.3,2.87,13,13,0,0,0-.75,1.41,1.69,1.69,0,0,0-.1.34c0,.06.07,0,.1,0l.11-.09a2.68,2.68,0,0,1,.52-.32,5.43,5.43,0,0,1,1.34-.48,8.26,8.26,0,0,1,2.75-.2,6.8,6.8,0,0,1,.76.15,5.82,5.82,0,0,1,.77.34,4.25,4.25,0,0,1,.7.57,4.19,4.19,0,0,1,.52.75,6.55,6.55,0,0,1,.27.82l.07.79a6.72,6.72,0,0,1-.17,1.42,7.42,7.42,0,0,1-1.14,2.48,14.07,14.07,0,0,1-4.92,4.21,13.54,13.54,0,0,1-3,1.13,8.87,8.87,0,0,1-3.29.1c-1.39-.33-1-.75.06-1.2l.88-.44c.32-.19.66-.37,1-.6.73-.4,1.54-.85,2.44-1.3a12.05,12.05,0,0,0,3.78-2.91,5.82,5.82,0,0,0,1.09-1.76,2.64,2.64,0,0,0,.14-1.33s0,0,0-.05h0s.08-.07,0,0,0,0,0,0-.1,0-.13-.06a2.11,2.11,0,0,1-.3-.07l-.43,0-.5,0-.53.08a.69.69,0,0,0-.16,0l-.32.1-.63.21a3.41,3.41,0,0,0-.64.24l-.69.39a10.86,10.86,0,0,1-1.34.7l-.64.29-.32.14-.16.07h-.08l-.66-.08a3.17,3.17,0,0,0-.69-.08c-.09,0-.12.05-.36-.08a4.92,4.92,0,0,1-.45-.28c.1-.45.21-.88.32-1.32a13.51,13.51,0,0,1,.42-1.42,28.56,28.56,0,0,1,1.4-2.84l.76-1.44.4-.8c.12-.27.24-.53.34-.79s.11-.27.15-.39l.09-.28a.75.75,0,0,0,0-.59.58.58,0,0,0-.55-.17,1.79,1.79,0,0,0-.46.09,2.82,2.82,0,0,0-.63.24,5.78,5.78,0,0,0-2.16,2.13,17.23,17.23,0,0,0-2,5.22c-.09.33-.3,1.3-.45,2a5,5,0,0,1-.68,2,2.28,2.28,0,0,1-.45.51l-.13.1a.23.23,0,0,1-.19,0l-.25-.12a2.49,2.49,0,0,1-.59-.36l-.38-.28-.18-.14a2.76,2.76,0,0,1-.21-.25,11.81,11.81,0,0,0-1.3-1.41c-.32-.3-.56-.48-.86-.72a12.51,12.51,0,0,0-1.82-1.17,9.48,9.48,0,0,0-2.11-.91,3.26,3.26,0,0,0-1.9-.05,1.5,1.5,0,0,0-.57.5,1.58,1.58,0,0,0-.26.8,4.71,4.71,0,0,0,.54,2.09,19.33,19.33,0,0,0,4.12,5.31,11,11,0,0,0,2.78,1.81c.25.12.51.22.77.33s.45.19.92.34l.59.21c.21.06.3.23.45.33l.19.17,0,0h0c-.08.06.13-.07.11,0h0v0l0,.14.1.56c0,.32,0,.64,0,1v.68c0,4,0,7.92-.11,11.89,0,.87,0,1.73-.1,2.61a13.17,13.17,0,0,1-.56,3.46,2.6,2.6,0,0,1-1,1.43,3.07,3.07,0,0,1-.56.36c-.58.17-.78-1.14-.79-3.48.08-2.82.11-5.74.16-8.69,0-1.48,0-3,0-4.47,0-.74,0-1.49,0-2.24v-1.62h0s0,0,0,0a19.31,19.31,0,0,1-2-1c-.65-.42-1.33-.81-2-1.3a15.5,15.5,0,0,1-1.72-1.58,23.37,23.37,0,0,1-2.78-3.5,12.64,12.64,0,0,1-1.1-2.1,6.62,6.62,0,0,1-.58-2.64,7.47,7.47,0,0,1,0-.8,6.36,6.36,0,0,1,.22-.83,5.55,5.55,0,0,1,.43-.79,6,6,0,0,1,.57-.66,4.81,4.81,0,0,1,.77-.54,5.21,5.21,0,0,1,.82-.33,5.54,5.54,0,0,1,1.52-.17Z"/><path class="cls-1" d="M195.11,368.39s0-2.48,2.52-.81,2.78-.27,1.15-2.1-3.78-3-4.91-2S195.11,368.39,195.11,368.39Z"/><path class="cls-1" d="M203.18,375.18s4.56-1.81,3.61,1-4.5,5.36-4.5,5.36,8.05-3,7.89-7.05-4-3.6-4.89-2.42S203.18,375.18,203.18,375.18Z"/><path class="cls-1" d="M207,373.06a10.71,10.71,0,0,0-1.76.88l-.84.56a12.82,12.82,0,0,0-1.65,1.39,1.52,1.52,0,0,1-.22.22l-.2.1-.39.18c-.12.06-.27.14-.38.18h-.48a.45.45,0,0,1-.29-.06,1.47,1.47,0,0,1-.46-.36,2.78,2.78,0,0,1-.66-1.57c-.11-.75-.17-1.53-.28-2.27a17.54,17.54,0,0,0-1.08-4.5,4.84,4.84,0,0,0-2.8-2.93,2.72,2.72,0,0,0-.57-.14.4.4,0,0,0-.36.12.61.61,0,0,0-.05.4,5.91,5.91,0,0,0,.27,1c.15.56,1,2.4,1.54,3.75a13.8,13.8,0,0,1,.78,3.39l-.23.2-.13.1a.26.26,0,0,1-.18,0,3.43,3.43,0,0,0-.47-.23,5.37,5.37,0,0,0-.69-.2,2.41,2.41,0,0,1-1-.39l-1.34-.78-.67-.4c-.22-.11-.42-.18-.63-.27l-.58-.23-.38-.11a6.52,6.52,0,0,0-.74-.16,3,3,0,0,0-1.45.07.89.89,0,0,0-.54.81,4.27,4.27,0,0,0,1.13,3,12.43,12.43,0,0,0,3.76,3,14.45,14.45,0,0,0,2.21,1,12.49,12.49,0,0,0,2.31.61c1,.11,1,.55,0,1.12a5.65,5.65,0,0,1-2.17.61,6.59,6.59,0,0,1-3-.59,15,15,0,0,1-4.87-3.42,9,9,0,0,1-1.81-2.74,5.73,5.73,0,0,1-.46-1.83,4.77,4.77,0,0,1,0-1,5.71,5.71,0,0,1,.27-1.21l.29-.58a1.56,1.56,0,0,1,.16-.28l.23-.23.45-.45c.18-.12.37-.22.56-.33a3.18,3.18,0,0,1,1.12-.41,4.69,4.69,0,0,1,1-.1,7.18,7.18,0,0,1,1.73.22,6.39,6.39,0,0,1,.78.22l.33.11.06,0a2.23,2.23,0,0,1,.42.32,2.16,2.16,0,0,1,.28.26c.06,0,.1.12.17.15a.2.2,0,0,0,0-.08v0a1.9,1.9,0,0,0-.17-.71l-.3-.77c-.1-.27-.2-.54-.3-.83s-.18-.55-.28-1a3.64,3.64,0,0,1,.17-2.57,2.41,2.41,0,0,1,2.18-1.17,5.29,5.29,0,0,1,1.34.15,5.54,5.54,0,0,1,1,.35,5.91,5.91,0,0,1,1.69,1.16,9.53,9.53,0,0,1,2,3.14,18.05,18.05,0,0,1,1,3.33c.11.55.22,1.15.3,1.64l.07.67,0,.35,0,.18c0,.05.06.15.1.08a4.29,4.29,0,0,1,.49-.46l.25-.2.42-.3a12.49,12.49,0,0,1,3.65-1.62,6.09,6.09,0,0,1,2.16-.17l.6.15a5,5,0,0,1,.61.31c.16.17.34.31.49.48s.22.4.32.61a6.25,6.25,0,0,1,.35,1.75,5.77,5.77,0,0,1-1.1,3.64,10.56,10.56,0,0,1-2.61,2.52,25.89,25.89,0,0,1-3,1.79c-.52.26-1.05.5-1.58.73l-.59.24-.23.09c-.05,0-.19,0-.16.13,0,.71-.07,1.43-.1,2.14,0,.86,0,1.72-.06,2.57,0,1.72,0,3.43,0,5.14,0,.75.05,1.48.08,2.24.11,2.79-.08,3.64-.66,4.31a3.17,3.17,0,0,1-.41.46c-.45.36-1.12-.78-1.44-2.92a69.41,69.41,0,0,1-.35-9.6c0-.81.06-1.62.08-2.44l.07-1.23.06-.93c.06-.38.19-.72.28-1.08l.07-.26,0-.07v0h0l.21.14h0l.07-.1.29-.41c.06-.06.09-.16.17-.21l.27-.13a3.11,3.11,0,0,1,.56-.22L202,380l.54-.19a21.49,21.49,0,0,0,2.1-.86,10.4,10.4,0,0,0,3.52-2.71,3.54,3.54,0,0,0,.65-3.42s.09,0-.36-.05a4.89,4.89,0,0,0-1.5.36Z"/><path class="cls-1" d="M187.29,279.42c.32.23,1.16,21.18.39,23.84s1.89-1.07,1.89-1.07.44-24.12-.41-24.75S187.29,279.42,187.29,279.42Z"/><path class="cls-1" d="M190.93,287.31l-.22,4.2c0,.51,0,1,0,1.53-.1,1.79-.25,3.59-.41,5.39-.06.79-.07,1.6-.07,2.39a14.21,14.21,0,0,1-.18,3.05c-.07.32-.44.26-.82,0a1.9,1.9,0,0,1-.8-1.35,41.38,41.38,0,0,1,0-6.2,34.52,34.52,0,0,0,0-3.81l.07-4.21,0-2.59c0-1.31,0-2.63,0-3.92-.07-1-.29-2-.39-3,0-.22-.07-.44-.08-.66,0-.82.13-1.09.77-1.28.14,0,.29-.1.44-.13a1,1,0,0,1,1.1.83,15.78,15.78,0,0,1,.58,2.73c.09.92.11,1.87.12,2.81,0,1.41,0,2.82-.06,4.23Z"/><path class="cls-1" d="M174.46,280l1.68-1c.2-.13.37-.29.58-.41.71-.45,1.43-.89,2.12-1.37a7.24,7.24,0,0,0,.84-.72,5,5,0,0,1,1-.94c.27-.14.89,1,.48,1.42a10.37,10.37,0,0,1-2.42,1.8,14.88,14.88,0,0,0-1.49,1.05l-1.66,1.1-1,.67c-.52.33-1.05.66-1.54,1s-.72.61-1.08.9a2.31,2.31,0,0,1-.24.2c-.31.22-.46.23-.68.08a.78.78,0,0,1-.15-.1c-.15-.13-.12-.36.05-.6a9.15,9.15,0,0,1,1.86-1.92c.53-.41,1-.82,1.61-1.18Z"/><path class="cls-1" d="M170.76,278.83c.41-.26.81-.52,1.21-.81.14-.1.26-.24.41-.34L174,276.6a6.65,6.65,0,0,0,.65-.54,2.33,2.33,0,0,1,.88-.64c.22-.08.68,1,.39,1.27a9.64,9.64,0,0,1-1.73,1.27,7.5,7.5,0,0,0-1,.85q-.57.48-1.17.93l-.74.56c-.38.28-.77.53-1.14.82s-.51.52-.77.78l-.17.17c-.24.19-.37.15-.65-.17l-.18-.22a.66.66,0,0,1-.11-.73,5.36,5.36,0,0,1,1.37-1.32l1.17-.82Z"/><path class="cls-1" d="M167.79,277.8l1-.71c.12-.09.22-.21.34-.29.45-.3.9-.59,1.34-.9a4,4,0,0,0,.52-.48c.21-.22.38-.5.7-.59s.86,1.05.6,1.29a5.6,5.6,0,0,1-1.53,1.07,5.07,5.07,0,0,0-.91.69l-1,.74-.65.45c-.32.22-.64.45-.95.69s-.44.41-.66.61a1,1,0,0,1-.15.14.33.33,0,0,1-.5,0l-.12-.12a.39.39,0,0,1,0-.49,5.83,5.83,0,0,1,1-1.32c.31-.27.64-.52,1-.78Z"/><path class="cls-1" d="M176.53,279.16l-2.65-.34-1-.08-.85-.1c-.25,0-.54-.05-.82-.06l-1.72-.1-1.55-.05a4,4,0,0,1-2.05-.44c-.22-.16,0-.33.25-.5a1.33,1.33,0,0,1,.86-.3c1.19.12,2.51.08,3.84.21.41,0,.81,0,1.26.07s.83,0,1.24.08l2.68.3,1.65.18c.83.08,1.67.18,2.5.21.64,0,1.27,0,1.91,0h.41c.53,0,.69.1.8.38,0,.07.05.13.07.19s-.18.38-.57.45a13.83,13.83,0,0,1-3.59.2c-.9-.07-1.8-.17-2.7-.26Z"/><path class="cls-1" d="M175.86,281.23l-2.07-.24c-.26,0-.51,0-.76-.05-.89-.1-1.78-.28-2.67-.4-.39-.06-.79-.09-1.18-.12a4.42,4.42,0,0,1-1.56-.29c-.17-.09-.05-.25.14-.41a1,1,0,0,1,.68-.3,26.5,26.5,0,0,1,3,.25c.61.1,1.26.06,1.89.11l2.09.17,1.28.09c.65,0,1.3.09,1.95.09.5,0,1,0,1.49-.05h.33c.41,0,.54.14.61.4a.61.61,0,0,1,0,.18c0,.2-.14.37-.44.46a8.06,8.06,0,0,1-2.77.3c-.7,0-1.4-.1-2.1-.15Z"/><path class="cls-1" d="M185.3,275.91a33.92,33.92,0,0,1-4.12,4c-2.29,1.87-7.29,5.62-7.79,5.79-.94.31,3.77.81,3.77.81l11.94-10.41Z"/><path class="cls-1" d="M179,303.64l-.2,5.27c0,.64,0,1.28,0,1.92-.13,2.27-.28,4.53-.35,6.79,0,1,0,2,.05,3a29.55,29.55,0,0,1,.07,3.74c0,.29-.42.47-.9.19a2.53,2.53,0,0,1-1.09-1.68c-.16-1.33-.29-2.63-.33-3.94s0-2.63.1-3.95c.12-1.58-.06-3.22-.07-4.83,0-1.77,0-3.55.08-5.32l.07-3.28c0-1.65.08-3.31,0-4.95,0-1.27-.26-2.52-.34-3.78,0-.28-.06-.55-.07-.83.07-1,.29-1.37.88-1.59a2.17,2.17,0,0,1,.4-.15c.43-.1.83.32,1.08,1.08a24,24,0,0,1,.76,7c0,1.76,0,3.54-.06,5.31Z"/><path class="cls-1" d="M178.43,283.39l4.21-3.1,2.07-1.57,1-.8.3-.22.1-.08a3.84,3.84,0,0,0,.29-.27c-.07-.11-.24-.09-.34-.14l-.39-.08-.13,0-.41,0-.83-.08-3.33-.26q-3.36-.24-6.72-.39c-2-.08-4-.1-6-.12a70.09,70.09,0,0,1-7.65-.37c-.82-.13-.65-.38,0-.63a12.15,12.15,0,0,1,3.37-.66l3.88-.16c1.3,0,2.6,0,3.9,0,2.6,0,5.2,0,7.82.2,1.57.09,3.17.12,4.79.2l1.22.06c.59,0,1.34.08,2,.16a5.57,5.57,0,0,1,1.7.41,2,2,0,0,1,.91.76.45.45,0,0,1,0,.45l-.15.39a2.77,2.77,0,0,1-.6.89c-.42.4-.87.79-1.32,1.17l-.67.57a2,2,0,0,1-.26.23L187,280l-1.7,1.38-3.45,2.69-5.17,4-.13.09c-.44.44-1.18.26-1.66.23l-1.22-.13-2.45-.27c-1.64-.18-3.26-.34-4.89-.48-2.52-.21-5-.23-7.51-.38-.55,0-1.09-.05-1.65-.1-2-.19-2.68-.44-3-1.14a2.69,2.69,0,0,1-.24-.48c-.14-.51.74-.86,2.26-.91a104.07,104.07,0,0,1,13.9.61l3.21.31,1.61.17.39,0v0h0l3.08-2.3Z"/><path class="cls-1" d="M154.88,302.64l-.07,6.3c0,.77,0,1.54,0,2.31-.09,2.7-.19,5.42-.29,8.12-.05,1.21-.1,2.42-.15,3.61a15.58,15.58,0,0,1-.69,4.64c-.18.47-.34.31-.46-.15a5.22,5.22,0,0,1-.14-.84,4.84,4.84,0,0,1-.09-1.17c0-1.52,0-3.07-.06-4.61s0-3.11.05-4.68c.08-1.87-.1-3.83-.15-5.75-.07-2.11-.06-4.23-.09-6.34l0-3.91c0-2,0-4-.08-5.93,0-1.52-.22-3-.27-4.56,0-.34,0-.67,0-1a2.84,2.84,0,0,1,.27-1.36,1,1,0,0,1,.7-.51c.13,0,.26-.1.37-.12.32-.06.84.53.89,1.37a81.26,81.26,0,0,1,.35,8.24c0,2.11,0,4.23,0,6.34Z"/><path class="cls-1" d="M158.63,297.35a12.44,12.44,0,0,0,3.46.39c.42-.09.55-6.68-.07-7.69-.22-.38-3.43-.49-3.43-.49C158.27,289.68,158.33,297.15,158.63,297.35Z"/><path class="cls-1" d="M158.63,310a12.46,12.46,0,0,0,3.46.38c.42-.09.55-6.68-.07-7.69-.22-.37-3.43-.49-3.43-.49C158.27,302.31,158.33,309.78,158.63,310Z"/><path class="cls-1" d="M158.63,322.21a12.83,12.83,0,0,0,3.46.39c.42-.1.55-6.68-.07-7.7-.22-.37-3.43-.48-3.43-.48C158.27,314.53,158.33,322,158.63,322.21Z"/><path class="cls-1" d="M167.12,298a12.88,12.88,0,0,0,3.46.39c.43-.1.55-6.68-.06-7.7-.23-.37-3.43-.49-3.43-.49C166.76,290.35,166.82,297.82,167.12,298Z"/><path class="cls-1" d="M167.12,310.39a12.88,12.88,0,0,0,3.46.39c.43-.1.55-6.68-.06-7.7-.23-.37-3.43-.49-3.43-.49C166.76,302.71,166.82,310.18,167.12,310.39Z"/><path class="cls-1" d="M167.12,323a12.88,12.88,0,0,0,3.46.39c.43-.1.55-6.69-.06-7.7-.23-.37-3.43-.49-3.43-.49C166.76,315.31,166.82,322.78,167.12,323Z"/><path class="cls-1" d="M349.54,277.71l-1.78-1.13c-.22-.13-.46-.23-.68-.37l-2.28-1.51c-.34-.22-.7-.42-1.06-.61a3.2,3.2,0,0,1-1.34-1c-.12-.18.18-.35.51-.5.17-.07.32-.15.47-.2a.52.52,0,0,1,.41,0,23.56,23.56,0,0,1,2.56,1.66,15.44,15.44,0,0,0,1.67,1l1.83,1.12,1.12.7c.57.35,1.12.72,1.7,1.06s.91.47,1.36.76l.3.17c.35.29.4.46.24.76l-.11.21a.55.55,0,0,1-.69.15,15.6,15.6,0,0,1-2.45-1.17l-1.8-1.09Z"/><path class="cls-1" d="M355.67,277.38l-1.42-1.24c-.18-.15-.38-.26-.55-.42-.61-.53-1.22-1.07-1.86-1.57a8.73,8.73,0,0,0-.91-.58,4.18,4.18,0,0,1-1.15-.76c-.2-.22.71-1,1.19-.78a10.73,10.73,0,0,1,2.34,1.64,14.67,14.67,0,0,0,1.43,1c.52.38,1,.78,1.52,1.2l.91.75c.46.38.91.78,1.39,1.12s.81.45,1.19.7c.09.06.18.1.26.16.3.23.32.39.15.74l-.12.24a.6.6,0,0,1-.71.26,6.34,6.34,0,0,1-2.21-1.24l-1.47-1.2Z"/><path class="cls-1" d="M361.91,277.15l-1.15-1c-.14-.12-.32-.2-.46-.32-.47-.47-.93-1-1.38-1.46a6.27,6.27,0,0,0-.66-.6,2.14,2.14,0,0,1-.75-.85c-.09-.23,1.07-.88,1.37-.65a8.91,8.91,0,0,1,1.51,1.44,5.22,5.22,0,0,0,1.06.79l1.18.93c.24.2.49.39.74.58s.73.61,1.12.9.66.35.95.58c.06.05.13.09.19.15a.53.53,0,0,1,0,.69c0,.06-.07.13-.11.18a.73.73,0,0,1-.63.24,4.35,4.35,0,0,1-1.84-.71c-.41-.24-.77-.58-1.17-.87Z"/><path class="cls-1" d="M356.88,275.57l-3.41-.05c-.42,0-.83,0-1.25,0l-4.4-.09c-.65,0-1.3,0-1.95,0a8.3,8.3,0,0,1-2.52-.16c-.26-.07-.21-.15,0-.28l.44-.27a1.43,1.43,0,0,1,.63-.24c.84-.1,1.68-.26,2.52-.29s1.7-.05,2.55,0c1,0,2.09-.06,3.13-.08l3.45,0h2.13c1.07,0,2.15,0,3.22,0,.83,0,1.64-.12,2.47-.07.19,0,.36,0,.55,0,.68.07.89.21,1,.52a1,1,0,0,1,.08.2c0,.21-.25.41-.74.49a19.91,19.91,0,0,1-2.21.29c-.75.05-1.51,0-2.28,0l-3.43,0Z"/><path class="cls-1" d="M360.52,278.23l-3.07-.05-1.12,0c-1.31,0-2.63-.07-3.94-.09-.59,0-1.17,0-1.75,0a21.06,21.06,0,0,1-2.24-.08c-.23,0-.2-.1,0-.21a3.4,3.4,0,0,1,1-.34,21.62,21.62,0,0,1,4.55-.36c.91,0,1.86-.06,2.8-.09l3.09-.05,1.9,0c1,0,1.92,0,2.87,0,.75,0,1.47-.09,2.2-.11h.49c.6,0,.8.08.92.29l.09.14c.06.16-.19.3-.63.38a26.39,26.39,0,0,1-4,.51c-1,.07-2.06.09-3.09.09Z"/><path class="cls-1" d="M346.76,303.27a3.18,3.18,0,0,1,1.37,1.54c.4,1.18.83,27.76,0,29.74s-3.42.68-3.42.68Z"/><path class="cls-1" d="M357.31,300a17.8,17.8,0,0,1-4.27-.19c-.52-.11-.6-7.48.15-8.73.27-.46,4.1.19,4.1.19C357.7,291.38,357.67,299.72,357.31,300Z"/><path class="cls-1" d="M368.76,300.53a18.39,18.39,0,0,1-4.27-.2c-.52-.11-.6-7.47.15-8.73.27-.46,4.11.19,4.11.19C369.15,291.93,369.12,300.27,368.76,300.53Z"/><path class="cls-1" d="M357.31,312.36a18.39,18.39,0,0,1-4.27-.2c-.52-.11-.6-7.47.15-8.73.27-.46,4.1.2,4.1.2C357.7,303.76,357.67,312.1,357.31,312.36Z"/><path class="cls-1" d="M368.76,312.91a18.9,18.9,0,0,1-4.27-.19c-.52-.12-.6-7.48.15-8.74.27-.46,4.11.2,4.11.2C369.15,304.32,369.12,312.65,368.76,312.91Z"/><path class="cls-1" d="M357.31,324.59a18.39,18.39,0,0,1-4.27-.2c-.52-.11-.6-7.47.15-8.73.27-.46,4.1.19,4.1.19C357.7,316,357.67,324.33,357.31,324.59Z"/><path class="cls-1" d="M368.76,325.14a18.39,18.39,0,0,1-4.27-.2c-.52-.11-.6-7.47.15-8.73.27-.46,4.11.2,4.11.2C369.15,316.54,369.12,324.88,368.76,325.14Z"/><path class="cls-1" d="M374.66,315.57c-.13,4-.33,7.93-.52,11.9-.07,1.46-.1,2.91-.23,4.39l-.13,1.1a7.64,7.64,0,0,1-.12.78l-.18.9-.3.52-.07.13v0s-.18-.18-.1-.09h0l0,0,0,.05-.23.18-.24.17-.33.07a5.05,5.05,0,0,1-.68.07l-.64,0h-.42l-.84,0h-3.3l-6.56,0c-2.25,0-4.52.07-6.76.17l-4.31.2c-.71,0-1.43,0-2.15,0a12.08,12.08,0,0,1-2.16-.11c-.9-.12-.8-.54-.08-1.14a6.35,6.35,0,0,1,3.77-1.44c1.48-.1,2.95-.18,4.42-.23s3-.05,4.42-.05c2.95,0,5.9.05,8.86.15,1.15,0,2.32,0,3.48,0l.88,0,.73,0c.16,0,.46,0,.43-.23a3.16,3.16,0,0,0,.05-.35l.09-.92c.08-.6.11-1.23.16-1.85.3-3.93.46-7.92.58-11.9q.1-3.67.19-7.35c.07-3.71.16-7.44.12-11.12,0-2.87-.14-5.68-.2-8.51,0-.63,0-1.24,0-1.87,0-2.33.38-3.08.82-3.57a2,2,0,0,1,.3-.33c.29-.21.64.73.92,2.44a133.29,133.29,0,0,1,.73,15.77c0,4-.11,8-.2,12Z"/><path class="cls-1" d="M353.59,284.94l-2.62-.09-1.31-.05-.65,0h-.33c-.14,0-.14-.08-.47.1,0-.23,0-.06,0-.11h-.14l-.14,0c-.08-.05-.18,0-.27-.06a3.22,3.22,0,0,1-.51-.21c-.31-.16-.45-.26-.66-.39-.37-.25-.72-.5-1.06-.75-.78-.57-1.57-1.09-2.31-1.68-1.31-1-2.58-2.1-3.86-3.17l-3.66-3.05a4.31,4.31,0,0,0-.86-.63,2.5,2.5,0,0,0-.11,1l.1,2.47c.05.92.07,1.86.06,2.73,0,.29-.14.32-.34.39a.86.86,0,0,1-.79-.22,3.47,3.47,0,0,1-1.25-2.47q0-.74-.06-1.47l0-.73v-1a7.42,7.42,0,0,1,.35-2.59,1.64,1.64,0,0,1,.53-.7.67.67,0,0,1,.41-.16c0-.12.11-.07.16-.1a.47.47,0,0,1,.17,0,3.16,3.16,0,0,1,2,.93l1.09.84.58.49c.73.62,1.46,1.25,2.18,1.89,1.72,1.54,3.68,2.92,5.54,4.33.56.41,1.11.83,1.67,1.22.28.2.56.39.83.56l.32.19.09,0h.1s0,.09,0-.08c0,0,0,.07,0,.09h.78l.9,0,1.78,0,4.8.1c2.42,0,4.85.11,7.25.07,1.87,0,3.7-.23,5.54-.29.41,0,.81-.06,1.22-.06,1.52,0,2,.18,2.33.78a2.48,2.48,0,0,1,.21.39c.15.42-.47.86-1.58,1a46,46,0,0,1-5,.49c-1.71.07-3.45.08-5.19.07-2.58,0-5.18-.08-7.77-.12Z"/><path class="cls-1" d="M351.86,270.89c2,0,4,0,6.07,0,.74,0,1.48-.08,2.23-.07s1.32,0,2,.08l.55.05a2.8,2.8,0,0,1,.7.16,3.11,3.11,0,0,1,.65.29c.16.11.36.21.5.32a20.92,20.92,0,0,1,3.05,2.76l2.44,2.54a11.87,11.87,0,0,1,2.6,3.8c.16.56-.22.51-.72.37a4.35,4.35,0,0,1-1.88-.92c-.5-.5-1-1-1.58-1.49s-1-1-1.55-1.55l-3.07-3a5.3,5.3,0,0,0-.91-.7,1.43,1.43,0,0,0-.3-.13l-.24,0h-.31c-.86,0-1.8,0-2.72,0l-6.13.06-3.79,0c-1.91,0-3.84-.09-5.75-.15-1.49-.05-3,0-4.52-.16a6.36,6.36,0,0,1-1-.18,3.67,3.67,0,0,1-.81-.33,1.3,1.3,0,0,1-.51-.4,1.15,1.15,0,0,1-.19-1,1.45,1.45,0,0,1,.11-.4.87.87,0,0,1,.56-.35l.43-.11a1.6,1.6,0,0,1,.49,0c2.2.16,4.89.28,7.55.34,2,0,4,.09,6.05.06Z"/><path class="cls-1" d="M373.5,293.94v8.82s10.38-15.84,10.22-15.61-2.72-3.08-2.72-3.08Z"/><path class="cls-1" d="M378.23,284.94l.72-.82.64-.66c.21-.22.47-.37.69-.56a3,3,0,0,1,.78-.22,2.05,2.05,0,0,1,.82.14,4.38,4.38,0,0,1,1.41,1l.63.68a6,6,0,0,1,.51.62,41.15,41.15,0,0,1,2.67,4.72c.36.7.78,1.37,1.18,2a8.55,8.55,0,0,1,1.35,2.72c.13.63-2.15.83-2.7-.1a57.7,57.7,0,0,1-2.74-5.31,17,17,0,0,0-2-3c-.13-.18-.27-.35-.41-.52s-.12-.15-.19-.22-.35-.3-.5-.13-.13.09-.19.15l-.1.09-.05.05-.1.11c-.55.6-1.09,1.24-1.61,1.9-.78,1-1.57,2-2.28,3.07-.55.81-1,1.68-1.47,2.53-.1.18-.19.38-.31.56-.43.67-.68.81-1.2.69a3.58,3.58,0,0,1-.35-.09c-.37-.13-.48-.59-.27-1.17a23.1,23.1,0,0,1,2.5-4.93c.78-1.15,1.63-2.27,2.51-3.39Z"/><path class="cls-1" d="M380.07,289.82l.6-.85.44-.59.58-.73a3.52,3.52,0,0,1,1.24-1.06,3.88,3.88,0,0,1,.63-.21,3,3,0,0,1,.35-.09c.09,0,.19,0,.29,0,.38.35.77.78,1.17,1.22a5.72,5.72,0,0,1,.56.7l.4.56c.43.62.92,1.19,1.33,1.83,1.46,2.22,2.76,4.55,4,6.9l1.71,3.13a7.81,7.81,0,0,1,1.33,4.59c-.05.56-.62.41-1.24.09a8.87,8.87,0,0,1-.94-.55,2.07,2.07,0,0,1-.75-.81c-.57-1.2-1.17-2.51-1.84-3.8s-1.35-2.63-2-4a44.72,44.72,0,0,0-3-4.63l-.94-1.4a4.66,4.66,0,0,1-.36-.62c-.05,0-.05-.09-.1-.06a.24.24,0,0,0-.11.06.79.79,0,0,0-.2.17,4,4,0,0,0-.38.42c-.72.91-1.48,2-2.17,3-1.06,1.58-2.12,3.19-3.05,4.84-.73,1.28-1.34,2.6-2,3.9-.14.29-.26.58-.41.86-.64,1-.95,1.27-1.43,1.32-.11,0-.23,0-.32,0-.29,0-.36-.6-.12-1.49a11.34,11.34,0,0,1,.66-1.91c.27-.63.55-1.25.84-1.87.59-1.24,1.23-2.48,1.92-3.69,1-1.81,2.1-3.58,3.26-5.34Z"/><path class="cls-1" d="M393.26,306.81c-.55.22-18.08-1.23-18.79-1.86s.32-1.89.32-1.89l18.24.76Z"/><path class="cls-1" d="M382.5,316.57a12.13,12.13,0,0,1-2.95-.11c-.36-.07-.46-5.17.05-6,.19-.32,2.85.11,2.85.11C382.73,310.62,382.75,316.39,382.5,316.57Z"/><path class="cls-1" d="M390.35,317.06a12.64,12.64,0,0,1-3-.11c-.36-.07-.46-5.17.05-6.05.19-.32,2.84.12,2.84.12C390.57,311.11,390.6,316.88,390.35,317.06Z"/><path class="cls-1" d="M395.24,313.78c0,3.7,0,7.39-.07,11.09,0,1.34,0,2.69-.06,4-.05,1.19-.11,2.38-.2,3.58-.05.59-.1,1.19-.16,1.81a10.11,10.11,0,0,1-.22,1.25c-.15.41-.35.86-.8,1a4.15,4.15,0,0,1-1.38.2h-.93l-1.8-.09-3.55-.25c-2.09-.15-4.2-.24-6.27-.29-2.67-.08-5.33.07-8-.14-.82,0-.76-.42-.08-.92a7,7,0,0,1,1.44-.75,5.45,5.45,0,0,1,2.12-.4c5.54-.07,11,.49,16.42.84l.55,0h.17c.06,0,.14,0,.17-.05a.85.85,0,0,0,.06-.17c0-.09,0,0,0-.31l0-.6c0-.41.06-.82.07-1.24.07-1.67.09-3.36.12-5,.06-3.69.08-7.39,0-11.08,0-2.27-.09-4.55-.22-6.8-.06-.86-.12-1.71-.21-2.55l-.07-.6c0-.11,0-.23-.05-.35s-.07-.56-.37-.51-1.41.07-2.22.06l-2.6,0a77.9,77.9,0,0,1-8.08-.19c-.59-.07-1.18-.12-1.77-.23a6.38,6.38,0,0,1-2.28-.72,1.93,1.93,0,0,1-.77-1.12,4.33,4.33,0,0,1-.17-.51c0-.24.19-.39.64-.57a3.65,3.65,0,0,1,1.85-.17c1.14.11,2.28.21,3.44.28s2.33.18,3.51.24c2.37.14,4.76.12,7.25.17l.72.06,1.33.16c.44,0,.7.38,1.07.53.17.11.23.32.33.49a1.92,1.92,0,0,1,.22.61,7.94,7.94,0,0,1,.28,1.34c.05.32.07.51.1.77.05.49.08,1,.12,1.44.13,1.9.2,3.77.24,5.64Z"/><path class="cls-1" d="M393.93,301.86s-.05,6.47.67,6.54,18,.62,18,.62-4.18-6.74-4.42-6.74Z"/><path class="cls-1" d="M402.13,300.67c1.27.09,2.53.17,3.81.23.46,0,.92,0,1.39,0l.81.05a6.77,6.77,0,0,0,1,.22,2.62,2.62,0,0,1,.71.7c.19.27.41.57.49.72l1.23,2.19a14.77,14.77,0,0,0,1.21,1.79,9.15,9.15,0,0,1,1.48,2.22c.1.25-.27.61-.83.8a2,2,0,0,1-1.8-.22,9.66,9.66,0,0,1-1.77-2.36,22.5,22.5,0,0,1-1.31-2.53c-.06-.13-.12-.25-.19-.37s-.16-.27-.16-.29a.92.92,0,0,0-.17-.24,1.38,1.38,0,0,0-.29,0h-.88c-1.28-.05-2.58-.13-3.87-.21l-2.39-.15c-1.21-.07-2.41-.19-3.62-.24-.94,0-1.87.07-2.84,0a2.94,2.94,0,0,1-.65-.07,2.24,2.24,0,0,1-.49-.14.87.87,0,0,1-.32-.27,1,1,0,0,1-.19-.7,2.34,2.34,0,0,1,0-.38,1.27,1.27,0,0,1,1-.82,24.46,24.46,0,0,1,4.87-.14l3.79.15Z"/><path class="cls-1" d="M394.84,313c-.08.37,1.35,19.06.71,21.45-.21.8-1.88.59-1.88.59Z"/><path class="cls-1" d="M399.13,316.61a9.28,9.28,0,0,1,0-2.57c.07-.36,9.27-.24,10.14.28.32.18-.12,2.45-.12,2.45C409.09,317.05,399.31,316.86,399.13,316.61Z"/><path class="cls-1" d="M399.13,322.66a9.21,9.21,0,0,1,0-2.56c.07-.36,9.27-.24,10.14.27.32.19-.12,2.45-.12,2.45C409.09,323.1,399.31,322.91,399.13,322.66Z"/><path class="cls-1" d="M398.9,328.34a9.17,9.17,0,0,1,0-2.56c.08-.36,9.27-.24,10.15.27.32.19-.13,2.45-.13,2.45C408.85,328.79,399.08,328.59,398.9,328.34Z"/><path class="cls-1" d="M410.39,307.86c.23,0,1,0,1.56,0a7.6,7.6,0,0,1,.88.18l.76.33a8.63,8.63,0,0,1,.48.75l.15.46.09.5c.07.33.09.66.13,1l0,.6c0,.78.07,1.54.09,2.29s.11,1.62.11,2.42c0,2.85-.13,5.67-.31,8.5-.07,1.25-.08,2.51-.1,3.76,0,.8,0,1.61,0,2.41a12.2,12.2,0,0,1-.46,2.38c-.15.49-.55.38-1-.07a4.07,4.07,0,0,1-1-2.17c0-3.19.08-6.39.35-9.64a49.3,49.3,0,0,0-.07-5.95c0-1-.07-2-.13-2.93l-.09-1.33a2.05,2.05,0,0,0-.1-.65.71.71,0,0,0-.26-.07h-.5l-1,0-2.06,0c-2.09,0-4.18-.13-6.24-.29-1.61-.12-3.21-.14-4.81-.33-.35,0-.7-.06-1.05-.12-1.31-.23-1.66-.61-1.74-1.37a3.27,3.27,0,0,1,0-.53c0-.57.66-.92,1.6-.91,2.75.13,5.54.45,8.39.59,2.11.12,4.22.16,6.41.09Z"/><path class="cls-1" d="M341.55,287.47a12.69,12.69,0,0,0-4.1-1.66,69.87,69.87,0,0,0-11.76-1.34c-5.39-.16,12.94-1,12.94-1Z"/><path class="cls-1" d="M320.12,298.36s22.31.08,23.5-1.08a7.32,7.32,0,0,0,1.51-1.81l-24.81.3Z"/><path class="cls-1" d="M312.34,288.26a5.4,5.4,0,0,0,0,1.71c.2.93,7.53,8.39,7.53,8.39l.37-3.21Z"/><path class="cls-1" d="M321.49,310.78q-.09,3.2-.1,6.42c0,.78.08,1.56.06,2.34l-.18,8.29c0,1.22,0,2.46.06,3.67a28.37,28.37,0,0,1-.13,4.7c-.08.49-.48.43-.9,0a3.45,3.45,0,0,1-1-2.06,64.64,64.64,0,0,1-.21-9.55c.11-1.92-.11-3.91-.14-5.88,0-2.16,0-4.33,0-6.5l.06-4c0-2,.13-4.05.15-6.06,0-1.56-.08-3.1-.08-4.66a8.68,8.68,0,0,1,0-1c.11-1.28.33-1.67,1-1.88a3.81,3.81,0,0,1,.45-.13c.49-.07.86.48,1,1.41a79.07,79.07,0,0,1,.12,8.46c0,2.14-.09,4.29-.09,6.44Z"/><path class="cls-1" d="M347.79,322.32c-.19,2.9-.36,5.8-.69,8.76l-.19,1.65c0,.14,0,.29-.06.44a5.66,5.66,0,0,1-.14.62c-.06.21-.12.44-.2.65s-.2.39-.31.58l0,0a2.89,2.89,0,0,1-1,.56,6.93,6.93,0,0,1-1.14.22l-1.42.15-2.8.22-5.57.39c-1.64.13-3.29.3-4.92.5-2.07.27-4.19.6-6.19.72-.52.05-.72-.46-.27-1.15a4.21,4.21,0,0,1,2.63-1.61c2.15-.37,4.29-.66,6.44-.89s4.3-.3,6.47-.37c1.09,0,2.2-.12,3.3-.25l1.64-.22.48-.08c.08,0,.2,0,.24-.11a1.34,1.34,0,0,0,.07-.18l.06-.26c.23-1.32.34-2.78.45-4.21s.17-2.89.24-4.34l.21-5.38c.08-2.71.21-5.44.24-8.15,0-2.1-.13-4.17-.15-6.26,0-.46,0-.92,0-1.38,0-1.73.37-2.27,1.15-2.56a3,3,0,0,1,.54-.2c.6-.1,1,.63,1.16,1.87.27,3.68.24,7.55.15,11.47-.06,2.9-.21,5.83-.33,8.76Z"/><path class="cls-1" d="M331.34,296.71c-2,0-4-.11-6.09-.2-.75,0-1.49,0-2.25-.06s-1.33-.12-2.07-.24l-.61-.14a6.92,6.92,0,0,1-.66-.26,5.64,5.64,0,0,1-1-.65,30.47,30.47,0,0,1-2.93-2.84c-.8-.85-1.61-1.69-2.41-2.53a27.17,27.17,0,0,1-2.87-3.37c-.25-.38,0-.59.6-.57a3.37,3.37,0,0,1,2,.79c1.12,1,2.26,2,3.31,3s2.09,2.07,3.12,3a4.33,4.33,0,0,0,.47.4,3.12,3.12,0,0,0,.47.33l.22.14.17.08a2.28,2.28,0,0,0,.46.1c.79.11,1.73.14,2.63.2,2,.12,4,.21,6.07.27,1.25,0,2.5.08,3.76.09,1.89,0,3.8.08,5.69,0,1.46,0,2.9-.22,4.36-.31.32,0,.63-.07,1-.07,1.2.16,1.59.41,1.82.9a2.41,2.41,0,0,1,.15.33c.1.34-.4.65-1.26.92a7.31,7.31,0,0,1-2,.37c-.65.06-1.32.12-2,.16-1.34.09-2.7.13-4.07.15-2,0-4.08,0-6.12,0Z"/><path class="cls-1" d="M311.58,301.92c-.07,1.68-.14,3.36-.18,5,0,.61,0,1.22,0,1.83-.1,2.16-.23,4.33-.28,6.49,0,1,0,1.92.06,2.87a25,25,0,0,1-.13,3.67c-.06.38-.32.35-.64,0a3.19,3.19,0,0,1-.85-1.59l-.3-1.87c-.08-.62-.08-1.25-.1-1.87,0-1.25,0-2.51.05-3.77.1-1.51-.09-3.07-.09-4.61l.05-5.09.05-3.13c0-1.58,0-3.17.05-4.74,0-1.22-.14-2.42-.17-3.65,0-.27,0-.54,0-.81,0-1,.31-1.41.88-1.51a2.85,2.85,0,0,1,.39-.06c.43,0,.74.44.84,1.09a48.37,48.37,0,0,1,.51,6.6c0,1.69-.05,3.38-.08,5.07Z"/><path class="cls-1" d="M327.41,282.18c1.9.05,3.8.08,5.71.07.69,0,1.39-.08,2.09-.07l1.51,0c.26,0,.5,0,.8.05l.44.05.6.12a6,6,0,0,1,.78.47,5.19,5.19,0,0,1,.52.47c.3.31.56.61.81.91.5.6,1,1.21,1.4,1.82l2,2.66c.43.56.87,1.12,1.26,1.71a5.46,5.46,0,0,1,.54.94,8.83,8.83,0,0,1,.33,1.1c.1.54-.34.54-.92.44a6.12,6.12,0,0,1-1-.26,2.3,2.3,0,0,1-.53-.23,1.85,1.85,0,0,1-.39-.4c-1.58-2.19-3.28-4.49-4.89-6.56a4.63,4.63,0,0,0-.42-.45c-.13-.12-.14-.14-.23-.18a.27.27,0,0,0-.16-.05l-.39,0h-.88l-1.85.05c-1.92,0-3.86,0-5.79,0l-3.58-.06c-1.8,0-3.62-.14-5.41-.15-1.39,0-2.76.11-4.15.14-.31,0-.61,0-.91,0-1.14,0-1.49-.25-1.67-1a4.54,4.54,0,0,1-.12-.5c-.05-.56.44-1,1.27-1.08a58.63,58.63,0,0,1,7.53-.21c1.9,0,3.81.09,5.72.08Z"/><path class="cls-1" d="M331,307.44c0,2.88-.53,4.44-2,4.43-2.59,0-2.46-5.1-2.11-7,.23-1.2,1.19-2.73,2.59-1.92C330.52,303.58,331,305.48,331,307.44Z"/><path class="cls-1" d="M342.24,307.75c0,2.89-.53,4.44-1.95,4.44-2.59,0-2.46-5.11-2.11-7,.23-1.2,1.2-2.73,2.59-1.92C341.78,303.89,342.25,305.79,342.24,307.75Z"/><path class="cls-1" d="M249.89,342.34c.16.23,6.42,8.63,6.31,9s-31-.08-31.61-.47-8.61-8.3-7.73-8.8,32.22-1.22,32.22-1.22Z"/><path class="cls-1" d="M235.6,366.5a10.13,10.13,0,0,1-3.11.21c-.41-.12-.45-7.19.23-8.16.24-.36,3.27-.27,3.27-.27C236.31,358.42,235.91,366.31,235.6,366.5Z"/><path class="cls-1" d="M243.07,366.62a9.85,9.85,0,0,1-3.11.2c-.41-.12-.46-7.18.22-8.15.25-.36,3.27-.27,3.27-.27C243.77,358.54,243.38,366.43,243.07,366.62Z"/><path class="cls-1" d="M250.54,366.74a9.85,9.85,0,0,1-3.11.2c-.41-.12-.46-7.18.22-8.15.25-.36,3.27-.27,3.27-.27C251.24,358.66,250.85,366.55,250.54,366.74Z"/><path class="cls-1" d="M235.6,378.38a9.82,9.82,0,0,1-3.11.21c-.41-.12-.45-7.18.23-8.16.24-.36,3.27-.26,3.27-.26C236.31,370.3,235.91,378.19,235.6,378.38Z"/><path class="cls-1" d="M243.07,378.5a10.13,10.13,0,0,1-3.11.21c-.41-.12-.46-7.19.22-8.16.25-.36,3.27-.27,3.27-.27C243.77,370.42,243.38,378.31,243.07,378.5Z"/><path class="cls-1" d="M250.54,378.62a9.85,9.85,0,0,1-3.11.2c-.41-.12-.46-7.18.22-8.15.25-.36,3.27-.27,3.27-.27C251.24,370.54,250.85,378.43,250.54,378.62Z"/><path class="cls-1" d="M235.39,390.12a9.85,9.85,0,0,1-3.11.2c-.41-.12-.45-7.18.22-8.15.25-.36,3.28-.27,3.28-.27C236.1,382,235.7,389.93,235.39,390.12Z"/><path class="cls-1" d="M242.86,390.24a9.85,9.85,0,0,1-3.11.2c-.41-.12-.46-7.18.22-8.16.25-.35,3.27-.26,3.27-.26C243.56,382.16,243.17,390.05,242.86,390.24Z"/><path class="cls-1" d="M250.33,390.36a10.15,10.15,0,0,1-3.11.2c-.42-.12-.46-7.18.22-8.16.25-.36,3.27-.26,3.27-.26C251,382.27,250.63,390.17,250.33,390.36Z"/><path class="cls-1" d="M225,383.92c.08,3.82.15,7.69.51,11.42l.16,1a1.21,1.21,0,0,0,0,.21l0,.12c0,.07,0,.19.12.21a1.83,1.83,0,0,0,.25.06h.18l.42,0,.88,0,1.82.07,3.7,0h7.46l6.65-.06c1.41,0,2.84.06,4.26.21a25.74,25.74,0,0,1,4.23.84c.86.28.66.61-.14.92a13,13,0,0,1-3.76.85c-1.4.1-2.8.08-4.21.16s-2.81,0-4.23.05c-2.84,0-5.7.07-8.59,0-1.74,0-3.5,0-5.3.11-.9,0-1.8.06-2.74.05l-.72,0c-.35,0-.73-.07-1.09-.13a2.32,2.32,0,0,1-1.75-1l-.34-.75c-.05-.39-.12-.78-.17-1.16l-.07-.86-.11-1.43c-.06-.94-.14-1.88-.17-2.81-.1-1.87-.15-3.73-.19-5.59q0-3.62-.08-7.21c0-3.63.05-7.28.07-10.89,0-2.81-.1-5.57,0-8.37,0-.62,0-1.23.06-1.86.22-2.32.7-3.09,1.52-3.4a2.57,2.57,0,0,1,.55-.19c.29,0,.51.22.64.65a7,7,0,0,1,.21,1.85c0,4.91-.05,10-.07,15.17,0,3.85,0,7.73.09,11.6Z"/><path class="cls-1" d="M251.8,352.77c-6.84.38-13.7.75-20.66.47-1.2-.05-2.42-.14-3.63-.24l-1.86-.25a8.48,8.48,0,0,1-1-.2l-1.44-.35-.42-.61-.47-.66-.35-.46-.7-.92-1.44-1.85-1.49-1.88-2.48-3.06c.1-.35.13-.65.18-.9a2.19,2.19,0,0,1,.38-.41,2,2,0,0,1,.41-.34,8.21,8.21,0,0,1,3.08-.67l1.42-.11,1.07-.06,2.13-.1c2.83-.11,5.66-.17,8.49-.2,3.91,0,7.83-.12,11.74,0,.63,0,1.26.05,1.91.1.32,0,.64.05,1,.1a3.67,3.67,0,0,1,.53.09,2.33,2.33,0,0,1,.66.22,4.28,4.28,0,0,1,.94.78c.24.24.45.48.67.72.42.48.83,1,1.22,1.45,1.58,1.95,3.05,4,4.54,5.91.93,1.19.49,1.36-.75.68a21.55,21.55,0,0,1-5-4.38c-.83-.93-1.68-1.91-2.48-2.66-.1-.11-.19-.17-.24-.22h0c.1,0-.25-.05-.49-.07-.55-.06-1.16-.09-1.78-.12-2.45-.08-5,0-7.5,0-5,.1-10.12.24-15.17.48l-1.57.1h-.52l-.51.06c-.29,0-.06.2,0,.31l2.05,2.51,1.57,1.93.78,1c.32.42.39.51.45.61a14.74,14.74,0,0,0,1.74.34,68.39,68.39,0,0,0,10.08.47c3.41,0,6.83-.19,10.25-.39l4.08-.25,2.05-.13.65,0,.77,0c.45.06.93.1,1.37.18.76.58.81,1.83.91,2.92.05.77.07,1.53.09,2.3.1,6.47-.18,12.89-.27,19.27,0,4.94-.07,9.8-.1,14.69v3.21c-.05,4-.33,5.29-1.08,6.14a3.25,3.25,0,0,1-.51.57c-.56.39-1.07-1.27-1.23-4.23-.19-4.39-.22-8.88-.29-13.44s.12-9.17.19-13.78c.05-2.81.09-5.62.14-8.43,0-1.4,0-2.8,0-4.17l0-1,0-.89s0-.06,0-.08h-.12l-1.85.13Z"/><path class="cls-1" d="M217,365.61c-.09,2.57-.17,5.15-.21,7.72,0,.94.06,1.88,0,2.82-.05,3.31-.14,6.62-.15,9.93,0,1.47.09,2.94.21,4.39.07.93.18,1.86.27,2.78,0,.47,0,.94.06,1.39s0,.85,0,1.28-.41.71-1,.33a2.64,2.64,0,0,1-.49-.43,4.85,4.85,0,0,1-.43-.54,3.91,3.91,0,0,1-.62-1.46,72.43,72.43,0,0,1-.49-11.59c.09-2.32-.09-4.72-.11-7.09,0-2.61,0-5.21.06-7.81l.09-4.81c0-2.43.14-4.87.14-7.28,0-.94,0-1.87-.07-2.8s-.1-1.86-.07-2.8c0-.41,0-.81,0-1.23.11-1.55.47-2,1.17-2.27a3.06,3.06,0,0,1,.49-.15c.52-.08.92.59,1.08,1.68a72.64,72.64,0,0,1,.27,10.17c-.05,2.59-.11,5.18-.16,7.77Z"/><path class="cls-1" d="M291.58,347.07c.24.08,17.26-.31,19.08-2.44,1.41-1.66-20.2-.4-20.2-.4Z"/><path class="cls-1" d="M291.82,362.52c0,.26,2.39,28.55,1.27,33.4l-2.42.07Z"/><path class="cls-1" d="M281.36,340.81c3,1,6,3.88,6.37,6.5.1.63,0,8.15.1,8.15h2.63l0-11.75-8.89-7.37S281.41,339.81,281.36,340.81Z"/><path class="cls-1" d="M282.75,339.43c0,.68-.08,1.37-.1,2.06,0,.25.05.5,0,.75-.09.9-.21,1.81-.26,2.71a7.78,7.78,0,0,0,.06,1.18,2.74,2.74,0,0,1,0,1.53c-.07.16-.58.19-1.12.1s-1.1-.28-1.18-.56a8.88,8.88,0,0,1-.3-1.52,6.08,6.08,0,0,1,.14-1.58,8.24,8.24,0,0,0-.07-1.92c0-.71,0-1.42.07-2.13,0-.44.05-.87.07-1.31,0-.66.07-1.32,0-2s-.18-1-.22-1.51a1.24,1.24,0,0,1,0-.33c0-.21.15-.34.26-.44a1.18,1.18,0,0,1,.52-.19l.29-.06a1.14,1.14,0,0,1,.92.42,4.75,4.75,0,0,1,.67,1.33,9.44,9.44,0,0,1,.26,1.37c.05.68,0,1.37,0,2.06Z"/><path class="cls-1" d="M291.09,341.46l-1.17-1.55c-.15-.18-.33-.33-.46-.52-.5-.66-.91-1.38-1.38-2.05a7,7,0,0,0-.7-.83,4.09,4.09,0,0,1-.86-1.07c-.13-.27.93-.77,1.37-.45a9.44,9.44,0,0,1,1.92,2.07,12.43,12.43,0,0,0,1.14,1.28l1.23,1.43.77.86a6.3,6.3,0,0,0,2.37,1.93c.08.05.17.09.25.15.26.25.26.44.1.8a1.73,1.73,0,0,1-.1.24.72.72,0,0,1-.74.34,4.72,4.72,0,0,1-2.36-1.23,11.41,11.41,0,0,1-1.41-1.37Z"/><path class="cls-1" d="M295,340.6c-.28-.46-.57-.92-.86-1.38-.11-.17-.25-.3-.35-.47-.35-.61-.68-1.23-1.06-1.81a5,5,0,0,0-.59-.7,2.14,2.14,0,0,1-.74-.91c-.08-.26,1.34-1.11,1.68-.79a6.63,6.63,0,0,1,1.41,2,7.07,7.07,0,0,0,.88,1.21c.32.45.61.92.91,1.38l.55.84a12.12,12.12,0,0,0,.9,1.23,10.8,10.8,0,0,0,.89.76c.07.06.14.1.2.16.22.24.18.39-.13.75l-.22.24a.75.75,0,0,1-.81.24A4.16,4.16,0,0,1,296,342c-.35-.43-.65-.89-1-1.33Z"/><path class="cls-1" d="M298.9,341c-.22-.48-.44-1-.68-1.44-.09-.18-.23-.31-.31-.49-.3-.61-.58-1.24-.91-1.84a4.21,4.21,0,0,0-.55-.71c-.26-.27-.59-.49-.67-.92-.06-.26,1.51-1.17,1.84-.84a5.69,5.69,0,0,1,1.28,2.06,6.53,6.53,0,0,0,.81,1.23c.28.46.55.93.82,1.39l.49.86a10.91,10.91,0,0,0,.78,1.28c.24.3.55.55.81.82l.18.18c.18.26.12.42-.26.76l-.26.24a.89.89,0,0,1-.88.21,4.63,4.63,0,0,1-1-.59,3.61,3.61,0,0,1-.7-.81,10.59,10.59,0,0,1-.84-1.36Z"/><path class="cls-1" d="M298,339.28c-1.11,0-2.22,0-3.33,0-.4,0-.8.07-1.21.07-1.43,0-2.86,0-4.29,0a17,17,0,0,0-1.89.16,8.23,8.23,0,0,1-2.43.16c-.51-.08,0-1.86.92-2a28.38,28.38,0,0,1,5-.12,28.58,28.58,0,0,0,3.06-.13l3.37-.07,2.07,0c1.05,0,2.11,0,3.15-.05.81,0,1.6-.16,2.41-.2l.54,0c.67,0,.87.25,1,.64,0,.1.06.19.07.28.05.3-.24.57-.71.73a19.54,19.54,0,0,1-4.35.51l-3.34.06Z"/><path class="cls-1" d="M297.58,341.7c-.88-.06-1.77-.14-2.65-.19-.32,0-.64,0-1,0-1.14-.07-2.27-.14-3.4-.13a8.16,8.16,0,0,0-1.48.15,8.3,8.3,0,0,1-1.84.29c-.2,0-.29-.4-.21-.82a1.13,1.13,0,0,1,.7-1,12.86,12.86,0,0,1,4.09-.23c.81.09,1.64,0,2.46,0s1.8,0,2.7.07l1.65.07c.83,0,1.67.08,2.49,0,.63,0,1.26-.18,1.88-.22a2.75,2.75,0,0,1,.41,0c.51,0,.68.12.82.45a1.46,1.46,0,0,1,.1.23c.08.25-.11.5-.49.68a7.15,7.15,0,0,1-1.76.59c-.6.08-1.21.1-1.81.12-.9,0-1.8,0-2.7,0Z"/><path class="cls-1" d="M304.81,341.52c-.26-.49-.51-1-.76-1.47-.1-.17-.23-.33-.32-.5-.32-.63-.66-1.27-1-1.89a5.85,5.85,0,0,0-.5-.79,3.85,3.85,0,0,1-.65-1c0-.12.15-.26.4-.32a.8.8,0,0,1,.75.11,7.19,7.19,0,0,1,1.42,2A11.39,11.39,0,0,0,305,339l.84,1.45.51.89.78,1.34c.21.34.48.64.7,1,0,.08.1.15.13.23a.47.47,0,0,1-.09.63l-.11.11c-.11.1-.32.06-.57-.06A8.05,8.05,0,0,1,305.6,343c-.29-.46-.54-1-.82-1.43Z"/><path class="cls-1" d="M305.71,359.44a15.42,15.42,0,0,1-3.82.21c-.41-.12-.46-7.18.22-8.16.25-.36,4-.27,4-.27C306.41,351.35,306,359.25,305.71,359.44Z"/><path class="cls-1" d="M305.71,373a14.92,14.92,0,0,1-3.82.22c-.41-.12-.46-7.18.22-8.16.25-.36,4-.27,4-.27C306.41,364.92,306,372.81,305.71,373Z"/><path class="cls-1" d="M305.71,386.41a14.92,14.92,0,0,1-3.82.22c-.41-.12-.46-7.18.22-8.16.25-.36,4-.27,4-.27C306.41,378.33,306,386.23,305.71,386.41Z"/><path class="cls-1" d="M312.9,396.45c-.35.08-.78.15-1.08.2l-.62.09-1.22.14-2.4.23c-1.59.14-3.18.25-4.77.35-3.18.19-6.33.35-9.58.34a15.78,15.78,0,0,1-2.56-.18,2.53,2.53,0,0,1-.62-.22.93.93,0,0,1-.48-.4,1.68,1.68,0,0,1-.25-.56,1.94,1.94,0,0,1-.18-.63c-.06-.47-.09-1-.11-1.48l-.06-.89c0-.57-.05-1.15-.05-1.73,0-8.13.29-16.23.37-24.34,0-3.59,0-7.21-.07-10.78l-.18-6.88c0-2.28,0-4.59,0-6.84,0-1.35.65-1.3,1.37-.12a13.79,13.79,0,0,1,1.58,6.08c.28,9.39.27,18.74,0,28.19-.1,2.82-.1,5.7-.07,8.6,0,1.45,0,2.9.05,4.35v2.17c0,.7,0,1.49,0,2.1,0,.13,0,.27,0,.4s0,.15,0,.2l.19,0a2.73,2.73,0,0,0,.41,0h1.09c1.55,0,3.12-.12,4.69-.22,3.15-.2,6.31-.47,9.43-.82,1-.11,1.92-.22,2.86-.37l.65-.1.35-.06c.11,0,.24,0,.32-.14a.9.9,0,0,0,.13-.32,2,2,0,0,0,.08-.35,6.69,6.69,0,0,0,.11-.67c.07-.46.12-.93.17-1.41.09-.95.15-1.91.21-2.88.3-5.86.37-11.82.3-17.68-.05-4.57-.38-9-.51-13.56,0-1-.1-2-.11-3a21.16,21.16,0,0,1,.2-4,3.31,3.31,0,0,1,.89-1.76,4.11,4.11,0,0,1,.52-.51c.28-.17.52.12.78.79a11.31,11.31,0,0,1,.6,3.08c.76,8,1,16.57,1,25.14,0,3.19-.05,6.39-.18,9.61-.06,1.61-.14,3.23-.29,4.88l-.13,1.25-.09.65-.12.74a5.54,5.54,0,0,1-.76,2.12,3,3,0,0,1-1.81,1.13Z"/><path class="cls-1" d="M285.42,336.07A1.9,1.9,0,0,0,285,336h-.14s0,.05,0,.07l.08.17c.05.09.12.19.23.35,0,0,.17.19.27.3l.36.39.71.77c.82.87,1.72,1.66,2.55,2.47.37.35.74.7,1.1,1l.52.42a.79.79,0,0,1,.13.09l.11.07a8.23,8.23,0,0,0,1.18.08l1.59.05,6.44.09c1.91,0,3.83,0,5.73-.09a21.1,21.1,0,0,1,7.42.56c.82.28.53.73-.17,1.24a6.65,6.65,0,0,1-3.19,1.37,15.87,15.87,0,0,1-1.82.11l-1.84.05-3.69.07c-2.48,0-5-.07-7.48-.22-.75-.05-1.51-.07-2.28-.08h-1.17l-.63,0a8.05,8.05,0,0,1-.92-.1,5,5,0,0,1-.89-.39c-.27-.16-.44-.27-.62-.4-.38-.26-.68-.52-1-.78-.63-.53-1.21-1.07-1.78-1.62-.8-.78-1.57-1.58-2.32-2.4l-1.37-1.51c-.56-.63-1.16-1.29-1.64-1.93l-.33-.5a2.2,2.2,0,0,1-.17-.44l-.14-.42-.07-.36,0-.17a.25.25,0,0,1,.09-.21,1.48,1.48,0,0,1,.3-.26,6.47,6.47,0,0,1,.79-.39,5.42,5.42,0,0,1,1-.23l1.18-.08,2.38-.06,3.13,0,9.43.18c2.43,0,4.81-.11,7.23-.1.54,0,1.06,0,1.6,0,2,.11,2.65.43,3,1.25a3.44,3.44,0,0,1,.2.56c.08.61-.74,1-2.15,1-4.21.18-8.7.13-13.2.07-1.67,0-3.34,0-5,0l-4.15.07Z"/><path class="cls-1" d="M256.47,365.48s2.11,26.51.92,31.8c-.39,1.77-.21,1.07-.63,1.14a2.07,2.07,0,0,1-1.56-.56Z"/><path class="cls-1" d="M281.14,352.15a1.68,1.68,0,0,1,.08,1.61c-.54,1.05-2.28,1.06-3.32,1.15-2.81.24-5.6.47-8.42.69-1.21.09-3,0-4.09.53-2.21,1.12,23.45,1.11,23.45,1.11l-7.53-9.41h-6.62l1.26.48C277.17,348.77,280.24,350.42,281.14,352.15Z"/><path class="cls-1" d="M280.93,349.55l-.64-.07-.72-.07-1.47-.13-3-.23c-.72-.05-1.44,0-2.16-.08l-7.61-.66c-1.13-.09-2.26-.11-3.39-.11-.72,0-1.44,0-2.16,0a10.76,10.76,0,0,1-2.16-.33c-.45-.12-.36-.64.05-1.17a3,3,0,0,1,1.95-1.17,57.82,57.82,0,0,1,8.79.46c1.77.25,3.61.17,5.42.26,2,.1,4,.23,6,.37l1.07.09a4.7,4.7,0,0,1,.72.1l.37.1.09,0h0s0,0,0,0l0,0,.16.1a5.46,5.46,0,0,1,.44.38l.35.35.55.6c1.27,1.45,2.37,3,3.48,4.5.86,1.18,1.81,2.28,2.63,3.52a7.15,7.15,0,0,1,.5.84c.52,1.12.46,1.59-.12,2.09a3.89,3.89,0,0,1-.39.32c-.44.28-1.09,0-1.59-.61A36.34,36.34,0,0,1,286,356.1c-.73-1-1.47-2.06-2.24-3.08-.5-.66-1-1.3-1.52-1.94-.26-.31-.52-.62-.78-.91l-.39-.42-.07-.1,0,0Z"/><path class="cls-1" d="M270.78,369.66c0,2.88-.69,4.43-2.35,4.41-3,0-2.77-5.13-2.33-7,.28-1.2,1.44-2.72,3-1.9C270.3,365.79,270.82,367.7,270.78,369.66Z"/><path class="cls-1" d="M283.47,370.18c-.05,2.88-.69,4.43-2.34,4.42-3,0-2.78-5.14-2.34-7,.29-1.2,1.44-2.72,3-1.89C283,366.31,283.51,368.22,283.47,370.18Z"/><path class="cls-1" d="M291.54,366.51c.25,5,.44,10.06.35,15.09,0,1.84,0,3.67-.05,5.51-.07,1.62-.13,3.24-.26,4.87-.06.82-.14,1.64-.25,2.47-.05.42-.11.83-.2,1.27a4.47,4.47,0,0,1-.65,1.72,1.26,1.26,0,0,1-.34.31c-.13.09-.3.07-.45.12l-.92.16-1.32.05-2.43,0-4.84,0c-2.85,0-5.72,0-8.55.1-3.62.12-7.3.07-10.87.1-1,.06-1.06-.27-.1-.81a13.91,13.91,0,0,1,4.8-1.21c3.73-.35,7.44-.39,11.16-.43l11.14,0h.9c.08,0,.1-.13.13-.2a1.85,1.85,0,0,0,.1-.44,26.35,26.35,0,0,0,.28-3.29c.1-2.25.06-4.55,0-6.83,0-2.5-.1-5-.18-7.51s-.14-5-.26-7.52c-.16-3.08-.33-6.18-.71-9.19l-.14-1c0-.18-.07-.36-.11-.55l-.08-.18a.55.55,0,0,0-.18-.06l-.4,0-1.26-.06c-1,0-2,0-3-.06l-6,0c-3.64,0-7.21.12-10.83,0-.8,0-1.59,0-2.39-.08-3-.19-3.93-.69-4.41-1.63a3.11,3.11,0,0,1-.31-.64c-.09-.34.19-.59.75-.75a7.25,7.25,0,0,1,2.45-.23c6.28.19,13,.29,19.73.42l3.5.08,2,0a4.77,4.77,0,0,1,1.65.24l.58.44.07.06h0l.09-.1h0l0,0,.13.13.23.3a6.3,6.3,0,0,1,.59,1.84c.08.39.1.5.13.69l.08.54c.09.71.17,1.4.24,2.09.13,1.39.23,2.76.33,4.13Z"/><path class="cls-1" d="M281,395.92c-.31-2.66-1-5.54-2.71-7.64-5-6-9.24,3.77-9.93,8.11Z"/><path class="cls-1" d="M276.85,399.17c-7.22.34-14.48.7-21.72.77-2.64,0-5.28.16-7.91.18-9.3.06-18.59.06-27.87.2-4.12.07-8.26.26-12.33.48-5.23.29-10.5.55-15.66,1.14-1.6.25-1.44.12-.14-.42.66-.3,1.61-.57,2.76-1a28.7,28.7,0,0,1,4.06-.9c2.68-.38,5.36-.73,8-1s5.38-.39,8.07-.52q8.07-.44,16.18-.53c6.47,0,13.2-.4,19.81-.61,7.27-.24,14.51-.5,21.78-.88l13.41-.77c6.77-.42,13.58-.8,20.32-1.16,5.24-.28,10.39-.65,15.65-.55,1.17.06,2.31.06,3.49.16s2,.29,2.75.44a18.83,18.83,0,0,1,1.86.6,3.4,3.4,0,0,1,1.13.69,2.76,2.76,0,0,1,.62.79,2.83,2.83,0,0,1,.34.74c.06.36-.38.51-1.14.5-.4,0-.81-.09-1.39-.1s-1.23-.08-1.95-.18a133.13,133.13,0,0,0-13.85,0c-4.76.19-9.61.45-14.48.73l-21.81,1.3Z"/><path class="cls-1" d="M87.72,352.52,98.31,328.4l3.78-8.83q6.84-15.49,13.78-30.95c2-4.57,4-9.2,6-13.76,1.27-2.94,2.52-5.89,3.84-8.81a93.11,93.11,0,0,1,4.5-8.55,4.1,4.1,0,0,1,.74-.91c.27-.22.47-.26.49-.16a9.66,9.66,0,0,1-.22,1.59,49.6,49.6,0,0,1-2.36,8.19c-5.2,11.91-10.31,23.91-15.83,35.84-3.31,7.13-6.39,14.72-9.58,22.1L92.88,348.48q-3.25,7.5-6.52,15c-3.27,7.57-6.61,15.15-9.81,22.68-2.5,5.85-4.74,11.68-7.22,17.47-.55,1.27-1.07,2.53-1.65,3.8-2.15,4.73-3.09,6.13-4.26,6.8a5.28,5.28,0,0,1-.78.43c-.74.18-.23-1.9,1.13-5.42,3.94-10.51,8.64-21.39,13.32-32.33L87.64,352.5Z"/><path class="cls-1" d="M430.82,331.18l7,21.2c.86,2.58,1.81,5.12,2.65,7.7l8.86,27.32c1.29,4.05,2.63,8.11,4,12.1a108.65,108.65,0,0,1,4.4,15.73c.31,1.69-.22,1.54-1.1.29a22.15,22.15,0,0,1-1.53-2.62,25.32,25.32,0,0,1-1.76-3.85c-.44-1.29-1-2.57-1.41-3.88l-1.32-3.91L448,393.41c-1.78-5.24-3.4-10.54-5-15.87-1.92-6.38-4.34-12.89-6.53-19.34q-3.59-10.67-7.18-21.32l-4.43-13.11c-2.25-6.62-4.44-13.29-6.74-19.84-1.77-5.09-3.72-10-5.48-15.06-.37-1.11-.74-2.21-1.08-3.35a20.83,20.83,0,0,1-1.05-4.58,5.64,5.64,0,0,1,.15-2.21,4.62,4.62,0,0,1,.23-.69c.3-.49,1.16,1.12,2.48,4q1.35,3.31,2.74,6.69c.84,2.28,1.68,4.59,2.54,6.92,1.68,4.66,3.35,9.4,5,14.16,2.47,7.07,4.87,14.2,7.28,21.31Z"/><path class="cls-1" d="M303.1,422.92l-59.27,1-21.63.48q-38.12.62-76.23.89c-11.28,0-22.62.21-33.82.11-7.19-.05-14.4-.12-21.61-.38-3.61-.13-7.21-.32-10.82-.59a88.32,88.32,0,0,1-10.79-1.42,11.21,11.21,0,0,1-2.41-.75c-.49-.23-.68-.38-.62-.47s1.28,0,3.17,0c3.79.13,10.72-.11,19,.11,14.62.38,29.28.07,44,.12l44.21-.2c17.69-.08,36.1-.67,54.2-1.06l59.71-1.23,36.76-.69c18.55-.33,37.19-.56,55.61-.78,14.33-.15,28.37-.47,42.56-.31,3.12,0,6.18.06,9.34.18a90.08,90.08,0,0,1,12.42,1.1,22.72,22.72,0,0,1,3.27.82,12.76,12.76,0,0,1,2.1,1.06,13.27,13.27,0,0,1,1.45,1.05c.42.51-.52.53-2.58.51s-5.32-.22-9.55-.37c-12.54-.5-25.52-.46-38.67-.44s-26.51.16-39.9.32c-19.88.26-39.85.58-59.79,1Z"/><path class="cls-1" d="M294.12,429.32q-27.22.48-54.45,1.18l-19.86.58q-35,.82-70,1.52c-10.36.18-20.78.47-31.06.54l-9.92.07q-5,0-9.94-.06A154.08,154.08,0,0,1,79,431.91c-4.15-.82-3.41-1.11.06-1s9.87-.37,17.45-.31c13.44.06,26.91-.4,40.4-.54l40.62-.7c16.25-.25,33.16-.92,49.79-1.4q27.42-.76,54.86-1.39l33.77-.67c17.05-.3,34.18-.46,51.11-.55,13.16-.07,26.07-.21,39.1.07,2.87,0,5.67.13,8.57.23,10.73.49,14.13,1.13,16.33,2.27a14.15,14.15,0,0,1,1.45.71c.48.36-.38.56-2.34.69s-5,0-8.89-.1c-23.13-.84-47.63-.77-72.21-.63-18.26.17-36.61.45-54.93.84Z"/><path class="cls-1" d="M247.61,221.59c1.12,5.56,4.34,16.16,11.64,16,8.86-.22,9.19-11.14,9.42-17.5.08-2-3.07-2-3.15,0-.15,4.18,0,15.73-7.13,14.28-4.87-1-6.93-9.54-7.74-13.59-.4-2-3.44-1.14-3,.84Z"/><path class="cls-1" d="M278,235.48c3.39,3,7.72,1.32,10.51-1.7,3.51-3.8,4.17-9.22,4.47-14.15.13-2-3-2-3.15,0-.21,3.4-.54,6.67-2.13,9.74-1.18,2.28-4.69,6.34-7.47,3.89-1.52-1.34-3.75.88-2.23,2.22Z"/><path class="cls-1" d="M261.28,200c-8.26-6.23-19.85-2.24-27.92,2.37-2.24,1.28-.23,4.73,2,3.45,6.9-3.94,16.8-7.72,23.9-2.37,2.05,1.55,4.05-1.92,2-3.45Z"/><path class="cls-1" d="M307.37,194c-8.53-5.61-17.61-6.54-26.33-.78-2.13,1.41-.13,4.88,2,3.46,7.58-5,14.91-4.08,22.3.77,2.15,1.42,4.16-2,2-3.45Z"/><path class="cls-1" d="M152.45,299.61c0,.41-.42,23.82-2.42,26.73-1.65,2.38,3.59.15,3.59.15l-.18-26.3Z"/><path class="cls-1" d="M142.84,327.65c-.07-6,.79-13-5.59-13s-4.59,13-4.59,13Z"/><path class="cls-1" d="M128.84,296.55s11.45-14.22,11.61-15.09-2.14-1.06-2.14-1.06L127,295.84Z"/><path class="cls-1" d="M135.74,285.31,129,293.88l-.59.8-.35.49a3.35,3.35,0,0,1-.29.4c-.18.15,0,.22.12.26a1.82,1.82,0,0,0,.39.11c.08,0,.12,0,.25,0l.74,0c1,.07,2,.09,3,.11l6.19.1c2.09,0,4.21.06,6.31.21,2.67.2,5.55.46,8,2,.78.48.25,1-.67,1.35a6.69,6.69,0,0,1-3.52.23,45.43,45.43,0,0,0-7.63-.86l-8.06-.3c-1.12-.05-2.25-.07-3.42-.11a16.25,16.25,0,0,1-2.11-.14c-.46-.06-.94-.09-1.38-.18l-1.21-.37-.23-.11-.16-.16-.34-.32-.16-.15,0,0h0l.18-.07h0v0l0-.1-.08-.36c-.17-.5.39-1.31.88-2l1.18-1.64.83-1.11,1.67-2.19,3.4-4.33c1.4-1.77,2.81-3.54,4.18-5.33l1.61-2.11a3.25,3.25,0,0,1,1-.84,1.61,1.61,0,0,1,1.29.09,4.88,4.88,0,0,1,1.14.75l.51.49c.16.16.25.27.38.41.92,1,1.72,2.1,2.53,3.15,1.61,2.1,3.28,4.09,5,5.95.38.41.78.78,1.16,1.17,1.28,1.56,1.55,1.9,1.49,2.87,0,.19.05.39.06.54s-.22.37-.8.43a3.54,3.54,0,0,1-2-.76,13.7,13.7,0,0,1-2.82-2.53c-.82-.92-1.6-1.87-2.35-2.84-1.5-1.92-2.9-4-4.34-5.69l-.31-.36-.13-.15h0a0,0,0,0,0,0,0h0l-.08.1-.52.65-1,1.31c-.7.88-1.39,1.75-2.06,2.64Z"/><path class="cls-1" d="M149.22,329.62c-4-.1-8.17,0-12.28.05-1.51,0-3,.16-4.51.19l-3.43,0h-1.72l-1,0c-.47,0-.92-.08-1.37-.13a1.9,1.9,0,0,1-1.17-1.13,4,4,0,0,1-.23-.87,7.5,7.5,0,0,1-.13-.88c-.07-.82-.08-1.6-.09-2.37,0-1.54,0-3.06.06-4.58,0-2.36,0-4.72-.07-7-.14-3-.44-5.94-.65-8.8-.09-.88.62-1,1.47-.31a5.71,5.71,0,0,1,1.91,3.89,91.39,91.39,0,0,1,.26,9.33c0,3.07-.22,6.18-.2,9.11v.32c0,.11,0,.21,0,.21a1.21,1.21,0,0,0,0,.19c0,.12,0,.33.21.31l.32,0h1l2.12-.08,4.28-.19c4.15-.14,8.32-.26,12.51-.23l2.2,0c.7,0,1.63.05,1.84.08s.28,0,.42,0,.14-.23.19-.36a4.11,4.11,0,0,0,.1-.41c0-.09.07-.44.1-.68a104.2,104.2,0,0,0,.72-11.48c0-3-.18-5.91-.35-8.85,0-.64-.12-1.27-.15-1.92.07-2.42.23-3.14,1-3.71A2.91,2.91,0,0,0,153,299c.16-.25.48,0,.83.46a2.34,2.34,0,0,1,.45.86,11.51,11.51,0,0,1,.31,1.2,24.07,24.07,0,0,1,.48,4.05c.08,1.36.13,2.74.15,4.12,0,2.77-.05,5.58-.19,8.4-.1,1.82-.22,3.64-.42,5.48-.1.93-.2,1.84-.38,2.84a6.58,6.58,0,0,1-.76,2.39,2.61,2.61,0,0,1-.37.44,1,1,0,0,1-.49.3l-1.11.26-1.49-.06h-.81Z"/><path class="cls-1" d="M141.75,289.2a1.41,1.41,0,0,1,0-.18s0-.08,0-.12-.06,0-.09,0,0,.05-.13.11a3.5,3.5,0,0,1-1,.54,1.26,1.26,0,0,1-.7,0,1.23,1.23,0,0,1-.6-.32,1.4,1.4,0,0,1-.53-1,1.16,1.16,0,0,1,.69-1.17c.14-.05.2.12.24.32a2.81,2.81,0,0,1,.07.55c0,.21,0,.24.1.35a1,1,0,0,0,.16.23s0,.08.13.1a.68.68,0,0,0,.44-.15,2.27,2.27,0,0,0,.25-.18l.35-.28a1.53,1.53,0,0,1,.93-.46c.38,0,.39.41.52.74v0a1.36,1.36,0,0,0,.4.74,1.46,1.46,0,0,0,1.07.26,2.57,2.57,0,0,0,.89-.36l.18-.09a.45.45,0,0,1,.52.05l.13.08c.13.1.13.3,0,.52a2.43,2.43,0,0,1-2.23,1,2.06,2.06,0,0,1-1.76-1.28Z"/><path class="cls-1" d="M146.83,334.7l-15.63-.43c-2.61-.11-5.23-.16-7.86-.3-1.32-.05-2.64-.21-4-.27a12.53,12.53,0,0,1-2.09-.17,9.29,9.29,0,0,1-1.13-.28,3.89,3.89,0,0,1-1.47-.74,1.85,1.85,0,0,1-.39-.4,2.16,2.16,0,0,1-.35-.66,2.43,2.43,0,0,1-.1-.91,3.15,3.15,0,0,1,.22-.74,3.21,3.21,0,0,1,.57-.77,6.77,6.77,0,0,1,.54-.43,7.73,7.73,0,0,1,1.76-.77,19.84,19.84,0,0,1,3-.63c2-.28,3.9-.41,5.83-.5,6.77-.26,13.47-.13,20.18,0l20.09.42c5.93.11,11.9.11,17.78,0,7.54-.23,15.14-.58,22.47-1.51,2.27-.25,2.12,0,.33,1.14a16,16,0,0,1-4,1.76,30.32,30.32,0,0,1-5.92,1.15c-3.91.39-7.8.56-11.69.67s-7.77.15-11.66.14c-7.77,0-15.53-.26-23.32-.52-4.66-.16-9.41-.21-14.18-.16s-9.57.16-14.19.61a28.15,28.15,0,0,0-3.65.58,4.72,4.72,0,0,0-1.19.43s0,0,0,0-.09-.08-.1-.11a1,1,0,0,0-.15-.14.62.62,0,0,0-.19-.12l0,0-.1-.06h0l0,0-.07,0a.34.34,0,0,0-.18,0h0c-.07,0,.19-.06.24-.16s.13-.13.22-.23a1.33,1.33,0,0,0,.23-.3c0-.08,0,0,.06,0a1.62,1.62,0,0,0,.25.11c.45.18,1.07.27,1.66.44.3.07.6.15.91.21.16,0,.32.06.47.11l.48.06c1.27.14,2.56.24,3.86.33,2.6.18,5.21.26,7.83.3l7.86.12c6.46.08,12.92.14,19.39.37a115.24,115.24,0,0,1,14.76,1.24c.62.11,1.24.24,1.86.4.31.07.63.17.94.26a11.28,11.28,0,0,1,1.16.44A3.73,3.73,0,0,1,180,336a2.25,2.25,0,0,1-.1,2.27,4.35,4.35,0,0,1-1.89,1.55,5.05,5.05,0,0,1-.59.26l-.49.18c-.31.1-.62.21-.92.29-1.23.34-2.45.58-3.66.8-1.87.34-3.73.62-5.52,1a17.36,17.36,0,0,0-2.54.68,2.81,2.81,0,0,0-.7.38.39.39,0,0,0-.11-.06l-.06,0c.1.05-.16-.06-.13-.05h0s-.19,0-.17,0h0l0,0c.11-.05.12-.09.23-.2s.1-.12.12-.13l.06,0,.21.08a9.56,9.56,0,0,0,2.52.36c.9,0,1.82,0,2.73,0,1.84,0,3.69-.12,5.55-.2l2.46-.12a24.48,24.48,0,0,1,2.57,0,26.18,26.18,0,0,1,4,.5,16.6,16.6,0,0,1,2.64.73,5.94,5.94,0,0,1,2.6,1.68,5.64,5.64,0,0,1,.62.72c.16.32-.33.19-1.41.06s-2.72-.42-4.88-.66c-1.61-.16-3.23-.31-4.85-.34s-3.3.1-5,.14-3.45.1-5.22.07c-.89,0-1.78-.05-2.7-.13-.46-.05-.94,0-1.45-.12-.25,0-.52-.08-.81-.14l-.47-.14c-.17-.08-.37-.15-.58-.27a2.47,2.47,0,0,1-.81-.76,2.16,2.16,0,0,1-.32-1.63,2.8,2.8,0,0,1,1-1.61,6.22,6.22,0,0,1,1.68-.94,17.47,17.47,0,0,1,2.78-.81c1.78-.39,3.5-.68,5.19-1,.84-.17,1.67-.34,2.46-.55.4-.1.78-.21,1.15-.32l.55-.19.25-.09.17-.07s0,0,0,0h0l-.07,0-.4-.12c-.54-.16-1.12-.29-1.72-.41-1.2-.24-2.46-.42-3.72-.58-2.54-.3-5.13-.49-7.72-.65-5.2-.31-10.45-.46-15.69-.58Z"/><path class="cls-1" d="M382.76,336.69q-7.8-.29-15.62-.4c-1.9,0-3.8,0-5.7,0-6.69-.09-13.39-.05-20.09.06-3,.07-6,.21-8.89.41-3.78.23-7.55.67-11.33.8-1.18,0-1.07-.28-.12-.76a15.38,15.38,0,0,1,2-.81,12,12,0,0,1,2.93-.67c3.87-.46,7.74-.8,11.63-1.05,1.94-.11,3.89-.22,5.83-.29s3.91-.07,5.86-.08c4.68,0,9.55-.24,14.33-.3,5.26-.06,10.53,0,15.79,0l9.71.16c4.9.1,9.82.31,14.69.44,3.79.1,7.51.05,11.27.17.82,0,1.64,0,2.47.07,3.1.2,4.08.58,4.62,1.5a3,3,0,0,1,.36.64c.21.7-1.1,1.12-3.32,1.08-6.62,0-13.63-.26-20.67-.47l-15.73-.48Z"/><path class="cls-1" d="M342.8,105.45c.4.13.22.63-.28,1.36a2.55,2.55,0,0,1-1,.71,4.38,4.38,0,0,1-.85-.11c-.15,0-1.69-1.37-2.23-1.82a8,8,0,0,1-1.32-1.48c-.78-1.09-1.58-2.17-2.31-3.29a3,3,0,0,1-.39-.81,10.59,10.59,0,0,0-1.37-2.73c-.1-.15-.16-.31-.36-.38A10.32,10.32,0,0,1,331,94c-.15-.93-.4-1.79-.56-2.7,0-.13-.11-.23,0-.41a.86.86,0,0,0,0-.89,4.88,4.88,0,0,1-.21-1.14,2.46,2.46,0,0,1,.21-.69c.08-.21.56-.32.64-.29s.38-.12.56-.22a1,1,0,0,1,.2-.08,12.54,12.54,0,0,1,2.06,1.64c.06,0,1.64,2.64,1.89,2.89a1.13,1.13,0,0,1,.15.53c0,.09,1.46,2,1.51,2.13.21.46.6.81.54,1.42a.44.44,0,0,0,.11.29,19.3,19.3,0,0,1,1.18,2.31,11.68,11.68,0,0,0,.7,1.12,1,1,0,0,1,.06.25.92.92,0,0,0,.11.29,22.73,22.73,0,0,0,1.75,2.6c.16.18.52,1.34.73,1.54S342.64,105.4,342.8,105.45Z"/><path class="cls-1" d="M365.76,105.78c.08.34-.41.35-1.25.18a2.91,2.91,0,0,1-1.06-.53,4.61,4.61,0,0,1-.32-.69,20.74,20.74,0,0,1,.46-2.35,4.92,4.92,0,0,1,.66-1.54A24.5,24.5,0,0,1,366.19,98a2.23,2.23,0,0,1,.58-.52,8.7,8.7,0,0,0,1.94-1.72c.09-.11.21-.19.22-.39a6.75,6.75,0,0,1,2-1.93c.72-.25,1.36-.57,2-.83.1,0,.15-.14.33-.06.41.18.54,0,.73-.11a3.25,3.25,0,0,1,.85-.36,1.73,1.73,0,0,1,.63.09c.2,0,.5.53.5.61s.27.37.43.54.12.14.16.2a8.69,8.69,0,0,1-.75,2.12c0,.06-1.77,1.81-1.92,2s-.26.14-.41.19-1.31,1.47-1.34,1.52c-.32.22-.49.58-1,.6-.1,0-.14.07-.19.13a14.48,14.48,0,0,1-1.41,1.3,6.44,6.44,0,0,0-.61.77s-.11.07-.16.11a.45.45,0,0,0-.19.14,9.92,9.92,0,0,0-1.29,2c-.07.16-.83.77-.89,1S365.73,105.64,365.76,105.78Z"/><path class="cls-1" d="M374,125.36c-.2.24-.4-.18-.6-1a3.81,3.81,0,0,1-.05-1.19,3.15,3.15,0,0,1,.33-.61,15.87,15.87,0,0,1,1.67-.74,3,3,0,0,1,1.21-.23c.83,0,1.68-.08,2.54,0a1.29,1.29,0,0,1,.56.14,4.53,4.53,0,0,0,1.94.4c.12,0,.22,0,.35-.07s2,.15,2.25.34c.51.42,1,.78,1.49,1.2.07,0,.17,0,.18.22,0,.41.21.42.35.54a2.21,2.21,0,0,1,.55.55,1.54,1.54,0,0,1,.12.54,1.3,1.3,0,0,1-.33.63c-.17.09-.21.34-.3.53a1,1,0,0,1-.11.2,4,4,0,0,1-.82.27,3.19,3.19,0,0,1-.84.21,2.62,2.62,0,0,0-.28,0l-.59-.08a9.63,9.63,0,0,0-1,0c-.1,0-.17-.1-.25-.18a14,14,0,0,0-1.45,0c-.26-.09-.55,0-.79-.35-.05-.07-.11-.06-.17-.06a6.25,6.25,0,0,1-1.46-.27,6.78,6.78,0,0,0-.78,0s-.09,0-.13-.07-.12-.08-.18-.07a9,9,0,0,0-1.87,0c-.14,0-.85-.32-1-.26S374.06,125.26,374,125.36Z"/><path class="cls-1" d="M189.68,309.23c.08-.07,3.71-2.81,6.12-5.15a41.88,41.88,0,0,0,3.5-3.85l12.83.37-10.84,8.87Z"/><path class="cls-1" d="M185.45,309.23a7.45,7.45,0,0,0,0,1.57H200l-2.37-1.57Z"/><path class="cls-1" d="M208.39,302.15c.14-.11,0-.11,0-.16l-.19-.06-.13,0a1.63,1.63,0,0,0-.23,0h-.32c-.63,0-1.25,0-1.87-.06l-6.58-.52c-1-.06-2-.08-2.92-.12a13.75,13.75,0,0,1-3.79-.38c-.44-.15-.23-.5.14-.84a2.55,2.55,0,0,1,1.65-.74c1.24,0,2.5-.07,3.76,0s2.52.13,3.79.26c1.52.17,3.11.05,4.67.07l3.12.07,1,0a3.38,3.38,0,0,1,.9.07l.7.18a2.28,2.28,0,0,1,.33.08l.19.11.24.13c.07.06.18,0,.21.21a1.47,1.47,0,0,1-.21.65,5.09,5.09,0,0,1-1.14,1.41c-.41.38-.88.76-1.33,1.13l-.68.54-.52.4L207.28,306c-1,.77-1.83,1.66-2.8,2.43-.21.17-.41.35-.63.51-.83.59-1.21.62-1.73.23a3.24,3.24,0,0,1-.35-.27c-.33-.34-.21-.89.29-1.44a26.33,26.33,0,0,1,2.38-2.34c.86-.72,1.76-1.41,2.66-2.11l.93-.72h0a.38.38,0,0,0,.18-.08Z"/><path class="cls-1" d="M215,311.34c-.09,1-.17,2-.23,3,0,.37,0,.73,0,1.1-.09,1.29-.2,2.59-.22,3.88a16,16,0,0,0,.11,1.7,10.84,10.84,0,0,1,.18,2.1c0,.21-.4.32-.84.23a1.42,1.42,0,0,1-1.07-.86,11.86,11.86,0,0,1-.28-4.62,21.66,21.66,0,0,0,0-2.79c0-1,0-2.05.07-3.07l.06-1.88c0-.95.1-1.9.07-2.85,0-.73-.2-1.44-.23-2.16,0-.16,0-.32,0-.48a.85.85,0,0,1,.68-.92l.29-.09c.32-.06.62.18.86.61a8.35,8.35,0,0,1,.57,2,19.59,19.59,0,0,1,.14,2c0,1,0,2,0,3Z"/><path class="cls-1" d="M187.52,319.55c.23.15,2.91.63,3.25.17a12.06,12.06,0,0,0-.09-4c-.14-.41-3.14-.45-3.14-.45C187.21,315.36,187.22,319.35,187.52,319.55Z"/><path class="cls-1" d="M194.22,320c.24.15,2.91.62,3.25.16a12,12,0,0,0-.08-4c-.14-.42-3.15-.46-3.15-.46C193.92,315.81,193.92,319.8,194.22,320Z"/><path class="cls-1" d="M190.26,304.26c-.4.39-.85.75-1.27,1.12-.16.14-.26.32-.42.46l-1.72,1.39a6.31,6.31,0,0,0-.66.71c-.27.32-.47.71-1,.85-.15,0-.48-.35-.75-.8s-.53-.93-.4-1.12a5.27,5.27,0,0,1,.78-.93,6.51,6.51,0,0,1,1.08-.71,5.41,5.41,0,0,0,1.14-1.05l1.28-1.14c.27-.23.54-.46.8-.7a14.94,14.94,0,0,0,1.15-1.1c.28-.3.49-.66.77-1a1.73,1.73,0,0,1,.17-.21.62.62,0,0,1,.78,0l.18.13a.78.78,0,0,1,.2.7,4.22,4.22,0,0,1-.36,1.14c-.08.17-.16.35-.26.52l-.35.44c-.35.44-.75.84-1.13,1.26Z"/><path class="cls-1" d="M199.68,310.82c-2.68-.32-5.4-.62-8.1-.86-1-.08-2-.09-3-.17l-2.39-.2-.44-.06c-.1.08-.08.25-.11.39s0,.11,0,.29l0,.65,0,1.31c0,.87,0,1.75-.06,2.62,0,1.56,0,3.12,0,4.67a29,29,0,0,1-.35,6c-.06.31-.18.48-.28.44s-.2-.21-.34-.47a9.46,9.46,0,0,1-.9-2.6l-.24-1.51c-.08-.5-.08-1-.12-1.51l-.17-3c0-1-.09-2-.06-3s.08-2.05.15-3.08l0-.47,0-.76a4.72,4.72,0,0,1,.21-1.46.83.83,0,0,1,.38-.44h0l-.08-.09H184l.16,0,.32-.07.65-.15a6.37,6.37,0,0,1,.76,0l2.1,0,1.88.07c2.76.15,5.5.35,8.25.58l2.41.21.61.06c.21,0,.57.05.85.09a12.82,12.82,0,0,1,1.7.29l.06.37c.08.47.13.93.19,1.39l0,.7,0,.49,0,1.95c0,1.29,0,2.57,0,3.85,0,2,.19,3.94.2,5.94,0,.44,0,.88,0,1.33a8.52,8.52,0,0,1-.13,1.06,2.61,2.61,0,0,1-.32.71,1.41,1.41,0,0,1-1,.64,2.4,2.4,0,0,1-.49.07c-.24,0-.4-.22-.58-.51a3.36,3.36,0,0,1-.38-1.28c-.15-3.32-.22-7-.29-10.62L201,312l0-.63v-.26h0a.08.08,0,0,0,0-.05l0,0-1.3-.14Z"/></g></svg>