<svg xmlns="http://www.w3.org/2000/svg" width="520" height="520" viewBox="0 0 520 520"><defs><style>.cls-1{fill:#231f20;}</style></defs><title>Notioly New</title><g id="_153.Mention" data-name="153.Mention"><path class="cls-1" d="M181.81,131.21c.19.25,0,.54-.44.83a1.09,1.09,0,0,1-.67.09,3.19,3.19,0,0,1-.43-.37,19.53,19.53,0,0,0-.92-1.81c-.26-.4-.44-.81-.65-1.21a11.74,11.74,0,0,0-1.5-2.29,2.78,2.78,0,0,1-.33-.51,4.72,4.72,0,0,0-.6-.86,7.36,7.36,0,0,0-.79-.69.63.63,0,0,0-.33-.15,12.57,12.57,0,0,1-1.92-1.28,10.21,10.21,0,0,0-1.48-1.2c-.07-.06-.17-.07-.22-.19s-.3-.31-.48-.4-.49-.28-.73-.44a1.89,1.89,0,0,1-.34-.35c-.1-.11,0-.33.07-.35s.08-.2.09-.3a.31.31,0,0,1,0-.11,8.18,8.18,0,0,1,1-.15,4.85,4.85,0,0,1,1.12,0s.18,0,.43.12.58.17.92.29c.66.24,1.36.53,1.5.6a1.33,1.33,0,0,1,.38.29l1,.55c.47.31.93.65,1,.68a3.25,3.25,0,0,1,.87,1,.45.45,0,0,0,.16.22,9.45,9.45,0,0,1,1.34,1.86c.18.34.43.65.61,1a1.52,1.52,0,0,1,.06.2,1.45,1.45,0,0,0,.09.25c.46.8.71,1.68,1.08,2.5.11.19.14,1.21.23,1.43S181.73,131.11,181.81,131.21Z"/><path class="cls-1" d="M152.5,205a17.07,17.07,0,0,1-1.85-5.9,17.26,17.26,0,0,1-.11-2.27,12.51,12.51,0,0,1,2.78-7.42,9.31,9.31,0,0,1,2.87-2.21,5.49,5.49,0,0,1,2.35-.47,3.93,3.93,0,0,1,2.24.82c.39.31.14.49-.33.61s-1.15.29-1.72.36a3.72,3.72,0,0,0-1.53.52,7.05,7.05,0,0,0-1.44.93,7.64,7.64,0,0,0-1.24,1.3c-.33.49-.7,1.05-1,1.61a10,10,0,0,0-.95,4.75,13.57,13.57,0,0,0,1.08,5.38,9.59,9.59,0,0,0,.74,1.55,9.22,9.22,0,0,0,.94,1.45,6.66,6.66,0,0,0,.82,1c.3.32.58.65.9,1a12.09,12.09,0,0,0,2.09,1.56,9.68,9.68,0,0,0,.88.49l.94.36a13.78,13.78,0,0,0,1.9.55,7.9,7.9,0,0,0,.84.2c1.08.16,1.4.33,1.6.77a1.51,1.51,0,0,1,.13.3c.09.33-.4.52-1.29.51a12.55,12.55,0,0,1-7.61-2.87,15.34,15.34,0,0,1-4-4.82Z"/><path class="cls-1" d="M315,236.54a17.22,17.22,0,0,1-3.38-3.22,15.22,15.22,0,0,1-1.26-1.93l-.56-1-.45-1.06a12.43,12.43,0,0,1-.58-1.58,7.61,7.61,0,0,1-.4-1.63c0-.25-.1-.49-.14-.73l-.06-.75a10.57,10.57,0,0,1,0-1.48c0-.47,0-1,0-1.43a2.47,2.47,0,0,1,0-1.45,18.53,18.53,0,0,1,.76-2.81,14.08,14.08,0,0,1,1.29-2.61,16.83,16.83,0,0,1,3.19-4,13.27,13.27,0,0,1,2.7-1.93,9.36,9.36,0,0,1,1.52-.67c.26-.08.52-.17.79-.24a3.82,3.82,0,0,1,.83,0c.73.12.68.43.33,1.18a3.88,3.88,0,0,1-2,2,11.65,11.65,0,0,0-4.43,3.24c-.28.38-.56.75-.81,1.16a11.53,11.53,0,0,0-.58,1.29c-.35.88-.64,1.8-.93,2.74a12.44,12.44,0,0,0-.32,1.76,4,4,0,0,0-.39,1.83,17.77,17.77,0,0,0,.1,1.8,12.66,12.66,0,0,0,.44,1.74,16,16,0,0,0,4.4,6.61,12.75,12.75,0,0,0,4.15,2.62,10.75,10.75,0,0,0,3.62.76,16.54,16.54,0,0,0,1.85-.18l.89-.24.45-.12.42-.2a10.09,10.09,0,0,0,1.27-.65,4.94,4.94,0,0,0,1-.87,8.05,8.05,0,0,0,1.4-2.35c.16-.38.26-.77.39-1.17.46-1.49.64-2,1.27-2.22a2.94,2.94,0,0,1,.43-.17c.46-.09.72.66.54,2a10.29,10.29,0,0,1-2.53,5.69,7.06,7.06,0,0,1-1.36,1.12c-.49.32-1,.51-1.46.77a7.05,7.05,0,0,1-1.55.58,7.67,7.67,0,0,1-1.63.36l-1.24.13c-.42,0-.83,0-1.25,0a12.55,12.55,0,0,1-2.44-.4,14.46,14.46,0,0,1-4.35-2.09Z"/><path class="cls-1" d="M415.93,264.42a34.28,34.28,0,0,0,10.26-10.69c4,1.72,14.84,5.74,23.63,6.4l-8.79,9Z"/><path class="cls-1" d="M67.31,220.62A4.94,4.94,0,0,0,65,223.8a3.38,3.38,0,0,0,1,3.51,6.58,6.58,0,0,0,2.91,1.39,7.88,7.88,0,0,0,5.78-.65A4.48,4.48,0,0,0,76.5,226a5.69,5.69,0,0,0,.31-2.95A10,10,0,0,0,74.35,218c-1.61-1.84-4-3-6.2-2.3-.66.22-.87-.18-.37-.9a3,3,0,0,1,1.43-1,4.13,4.13,0,0,1,2.5-.06,9.8,9.8,0,0,1,4,2.4,11.62,11.62,0,0,1,2.6,3.72,10.45,10.45,0,0,1,1,4.57,7.34,7.34,0,0,1-.5,2.46,6.2,6.2,0,0,1-1.4,2.15,8.89,8.89,0,0,1-5.19,2.43,10.92,10.92,0,0,1-5.54-.66A8.62,8.62,0,0,1,64,229.05a6,6,0,0,1-1.68-2.89,6.45,6.45,0,0,1,.07-3.27,8.51,8.51,0,0,1,1.36-2.83A8.13,8.13,0,0,1,70.52,217a8.35,8.35,0,0,1,5.33,1.9,4.84,4.84,0,0,1,1,1.2,3.91,3.91,0,0,1,.5,1.57,4.59,4.59,0,0,1-.85,3l-.32.46a4.52,4.52,0,0,1-2,1.29,8.07,8.07,0,0,1-2,.44,5.81,5.81,0,0,1-2.2-.19,3.32,3.32,0,0,1-1.2-.63,3.53,3.53,0,0,1-.83-1.13,3,3,0,0,1,0-2.73,2.73,2.73,0,0,1,1.85-1.35,2.23,2.23,0,0,1,1.55.24,1.22,1.22,0,0,1,.7,1.34,1.63,1.63,0,0,1-.16.54c-.15.22-.46.22-.78.15s-.66,0-.74.15a.3.3,0,0,0,0,.43s.08.08.11.13l.09.09,0,0h0c-.09.07.21-.15-.2.16h0l0,0,.06-.05.09-.11h.09l.26,0a4.91,4.91,0,0,0,1.75-.13,4,4,0,0,0,.81-.3c.12-.06.19-.12.26-.16s0,0,0,0a2.84,2.84,0,0,0,.48-1,.9.9,0,0,0-.06-.61,2.47,2.47,0,0,0-1-1,5.68,5.68,0,0,0-1.9-.64,6,6,0,0,0-4,.64Z"/><path class="cls-1" d="M374.26,132.85a8.43,8.43,0,0,1-1.28,3.34,6,6,0,0,1-3,2.41,6.74,6.74,0,0,1-3.63.14,11.26,11.26,0,0,1-3-1.19,14.71,14.71,0,0,1-1.94-1.27,11.9,11.9,0,0,1-4.54-9.16,10,10,0,0,1,4-6.86,11.84,11.84,0,0,1,6.39-2.61,6.69,6.69,0,0,1,4.45,1.2,6,6,0,0,1,2.22,4c.13.93-.34.82-.94.24a23.26,23.26,0,0,0-2.28-2.27,4,4,0,0,0-3-.87,9,9,0,0,0-3.38,1,9.16,9.16,0,0,0-4.74,5.17,6,6,0,0,0-.26,2.08,6.67,6.67,0,0,0,.56,2.11,11.85,11.85,0,0,0,2.8,3.69,9.27,9.27,0,0,0,4.45,2.23,3.25,3.25,0,0,0,3.68-1.69,5.62,5.62,0,0,0-.12-5.71,7.21,7.21,0,0,0-3.4-3.11,3.13,3.13,0,0,0-2-.18,2.23,2.23,0,0,0-1.36,1.27,4.23,4.23,0,0,0-.29.8,1.42,1.42,0,0,0,0,.65,4.51,4.51,0,0,0,.64,1.54c.58,1,1.63,1.81,2,1.56a.63.63,0,0,0,.51-.34.8.8,0,0,0,0-.62c-.08-.21-.24-.49-.41-.85-.08-.16-.22-.32-.29-.47s0-.51.59-.68a2.19,2.19,0,0,1,1.17.11,2.57,2.57,0,0,1,1.33,1.32,3,3,0,0,1-.5,3.16,3.33,3.33,0,0,1-1.36,1,3.51,3.51,0,0,1-.75.21,3.22,3.22,0,0,1-.8.06,4.47,4.47,0,0,1-2.74-1.28,8.3,8.3,0,0,1-1.5-1.93,7.1,7.1,0,0,1-.87-2.44,4.1,4.1,0,0,1,0-.81,6.12,6.12,0,0,1,.12-.9,9,9,0,0,1,.43-1.23,5.41,5.41,0,0,1,1.9-2.33,5.12,5.12,0,0,1,3-.83,7.45,7.45,0,0,1,3.7,1.26,10.15,10.15,0,0,1,2.59,2.42,9.3,9.3,0,0,1,1.93,6.8Z"/><path class="cls-1" d="M434.49,249.08a2.76,2.76,0,0,1,0-1.08,3,3,0,0,1,.29-.78l.14-.28,0,0s0,0,.05-.07c.06-.24.12-.24-1.37-.42-.37,0-.66,0-1.22-.14a8.8,8.8,0,0,1-1.13-.36,7,7,0,0,1-3.35-2.65,4,4,0,0,1-.63-2.22,2.47,2.47,0,0,1,.08-.6l.07-.29.06-.12a1.17,1.17,0,0,1,.28-.38l.14-.1c.09-.05-.06,0-.09-.05l-.17,0-.36-.05-.18,0h-.08l-.18,0c-.26-.06-.52-.13-.77-.21a6.36,6.36,0,0,1-2.06-1.08,5.72,5.72,0,0,1-1.36-1.82c-.2-.42,0-.47.46-.31a13.45,13.45,0,0,1,1.68.8,5.24,5.24,0,0,0,2,.88l.29.05.14,0h.23c.45.06.91.11,1.39.15l1.45.14.74.07a5.67,5.67,0,0,1,.63.08c-.54.52-2.46,2.18-2.47,2.58a2.17,2.17,0,0,0,0,1,3,3,0,0,0,1.26,1.6,7,7,0,0,0,2.16,1,1.78,1.78,0,0,0,.43.1l.59.05c.4,0,.82.06,1.26.13a4.21,4.21,0,0,1,1.74.53,1.41,1.41,0,0,1,.56.65,1.75,1.75,0,0,1,0,.85,6.28,6.28,0,0,1-.24.69l-.16.35-.14.27a1.79,1.79,0,0,0-.21.58.53.53,0,0,0,.11.42,3.34,3.34,0,0,0,1,1.07,13.78,13.78,0,0,0,4.8,1.92,26.53,26.53,0,0,0,4.08.45c.3,0,.59,0,.89.08a2.69,2.69,0,0,1,1.17.33,1.35,1.35,0,0,1,.46.66,1.89,1.89,0,0,1,.13.35c0,.18-.07.32-.29.48a2,2,0,0,1-1,.37,15.74,15.74,0,0,1-1.95.08c-.65,0-1.31-.12-2-.22a23.47,23.47,0,0,1-4-1,14.77,14.77,0,0,1-3-1.35,8.12,8.12,0,0,1-1.43-1.14,4.28,4.28,0,0,1-.63-.8c-.1-.16-.19-.31-.28-.48a3.49,3.49,0,0,1-.22-.69Z"/><path class="cls-1" d="M382.73,205.14l5.79,4.55c.34.33,16.78,7.1,16.78,7.1s15,13.75,15.64,13.91l3.3,1-19.19-17.63Z"/><path class="cls-1" d="M390.25,242.38l-6.45-7.44-2.39-2.68c-2.75-3.2-5.4-6.48-8.13-9.7-1.2-1.44-2.45-2.85-3.68-4.23-1.59-1.78-3.24-3.53-4.67-5.43-.43-.58-.09-.79.63-.58a6.47,6.47,0,0,1,2.71,1.82c3.3,3.6,6.52,7.24,9.6,11.06,1.86,2.28,3.95,4.51,5.92,6.77l6.51,7.47c1.34,1.53,2.68,3.05,4,4.56l3.1,3.43c1,1.14,2.06,2.28,3.12,3.37,1.63,1.73,3.35,3.3,5,4.94l1.12,1c1.35,1.37,1.72,1.82,1.83,2.36a3.08,3.08,0,0,1,.07.35c0,.31-.74,0-2-.84a84.07,84.07,0,0,1-9.7-8.89c-2.31-2.38-4.49-4.89-6.71-7.34Z"/><path class="cls-1" d="M421.4,252.73c-.31.56-6.09,7-6.21,7.4a12,12,0,0,0-.21,2.66l7.87-8.87Z"/><path class="cls-1" d="M404.51,237.13l-6.57-7.34c-.8-.89-1.63-1.75-2.42-2.65l-8.23-9.61-3.68-4.22a55.91,55.91,0,0,1-4.55-5.53c-.43-.6-.27-.63.33-.33.3.15.72.38,1.2.67a6.25,6.25,0,0,1,1.5,1.16c1.7,1.75,3.42,3.48,5,5.29s3.18,3.71,4.73,5.61c1.85,2.28,4,4.47,6,6.72l6.59,7.38c1.36,1.51,2.74,3,4.12,4.49,2.1,2.24,4.21,4.49,6.39,6.62.84.84,1.72,1.61,2.59,2.39s1.75,1.54,2.65,2.28l1.18,1a10.36,10.36,0,0,1,1.47,1.39,2,2,0,0,1,.4,1,3.4,3.4,0,0,1,.06.39c0,.17-.21.18-.57.07a5.56,5.56,0,0,1-1.51-.73,78,78,0,0,1-9.86-8.72c-2.33-2.36-4.6-4.79-6.86-7.21Z"/><path class="cls-1" d="M439.29,258l-3.63-1.1c-.44-.13-.89-.21-1.34-.34L429.68,255c-.69-.22-1.39-.39-2.09-.55a9.55,9.55,0,0,1-2.62-1c-.26-.16-.11-.39.22-.59a2.35,2.35,0,0,1,1.36-.39c.46,0,.94.07,1.39.14l1.35.37c.9.26,1.79.55,2.68.89,1.06.41,2.23.58,3.34.91l3.67,1.06,2.26.65c1.14.32,2.28.67,3.43.93.89.22,1.79.32,2.69.51.19.05.38.08.58.14.72.23.91.43.94.89a1.62,1.62,0,0,1,0,.31c0,.33-.4.51-.95.51s-.84,0-1.25,0-.83-.09-1.25-.15A22.05,22.05,0,0,1,443,259c-1.23-.31-2.45-.66-3.68-1Z"/><path class="cls-1" d="M358.82,286.47l-8.88,2-3.22.79c-3.8.88-7.6,1.73-11.39,2.66-1.68.4-3.36.88-5,1.33a43.2,43.2,0,0,1-6.45,1.53c-.69.1-.68-.19-.21-.68a7.39,7.39,0,0,1,2.58-1.68c2.16-.66,4.31-1.34,6.51-1.87s4.4-1,6.64-1.47c2.67-.54,5.39-1.32,8.1-2l8.95-2.06,5.52-1.22,8.35-1.82,6.38-1.53,1.41-.3A6.26,6.26,0,0,1,380,280a1.44,1.44,0,0,1,.92.47,2.16,2.16,0,0,1,.26.28c.08.14-.07.28-.37.49a1.72,1.72,0,0,1-.56.26,6.38,6.38,0,0,1-.81.27c-3.71.88-7.7,1.83-11.7,2.71l-8.94,2Z"/><path class="cls-1" d="M392.4,311.61s16.79-14.06,17-16.58S406,275.08,406,275.08l6,21.56-14.27,11.91Z"/><path class="cls-1" d="M354.61,326.72l1.13-2.71c1.29-1.7,29.14-7.55,30.56-9.77,1.58-2.47,1.79,1.42,0,3.42S354.61,326.72,354.61,326.72Z"/><path class="cls-1" d="M336.84,329.24c0-1.61,6.22-14.94,9.28-16.7s.45,2.38.45,2.38l-7.66,13.41Z"/><path class="cls-1" d="M308,326.72c.58.21,2.69,5.21,4.84,5.83,3.42,1,25.63-4.47,25.63-4.47l-3.07,4.22-23.56,3.55Z"/><path class="cls-1" d="M183.54,289.6c-2.61-11.73-9.44-13-9.44-13-8.65-7.62-3.79-19.25-3.79-19.25s-5.33,2.15-3.12,11.94c1,4.29,1.75,10.58,7.91,12.45S183.54,289.6,183.54,289.6Z"/><path class="cls-1" d="M367.06,375.63a56.28,56.28,0,0,1-8.47,5.57,31,31,0,0,1-3.38,1.64,22.48,22.48,0,0,1-6.51,1.58c-1.15.1-2.17.09-3.26.1s-2.16,0-3.24-.09a43,43,0,0,1-5.74-.67,13.74,13.74,0,0,1-6.84-3c-.59-.54-.13-.87.69-.93a7.33,7.33,0,0,1,3.11.5,24.48,24.48,0,0,0,6.63,1.44c2.32.22,4.69.23,7.12.24a14,14,0,0,0,4.13-.64,28.51,28.51,0,0,0,4-1.62,38.55,38.55,0,0,0,4.2-2.34c1.36-.86,2.71-1.77,4-2.75,1.62-1.19,3.19-2.46,4.71-3.78,2.32-2,4.59-4.1,6.74-6.27,1.68-1.69,3.19-3.47,4.84-5.18.36-.38.72-.75,1.11-1.11,1.46-1.32,2.12-1.57,2.84-1.34a2.82,2.82,0,0,1,.49.16c.44.28.09,1.06-.79,2.14-1.3,1.63-2.69,3.26-4.15,4.89s-3,3.27-4.61,4.82c-2.4,2.33-4.93,4.58-7.57,6.71Z"/><path class="cls-1" d="M302.93,379.59c.55,1.32,1.11,2.64,1.7,3.94l.69,1.4c.74,1.68,1.52,3.35,2.29,5,.35.73.75,1.45,1.15,2.15a26.87,26.87,0,0,1,1.5,2.73c.28.59-1.08.47-1.78-.53a38.62,38.62,0,0,1-3.16-5.61c-.5-1.19-1.2-2.33-1.8-3.51s-1.26-2.6-1.87-3.92l-1.1-2.43c-.56-1.23-1.08-2.49-1.65-3.7-.45-.94-1-1.83-1.45-2.76-.11-.2-.23-.39-.32-.6-.33-.8-.29-1.1.14-1.45a2.17,2.17,0,0,1,.29-.24c.35-.21.79,0,1.13.51a40.41,40.41,0,0,1,2.55,5.05c.57,1.3,1.14,2.62,1.73,3.93Z"/><path class="cls-1" d="M194.59,420.67c-1.72-1.47-3.41-3-5.09-4.48-.61-.56-1.27-1.06-1.87-1.62-2.11-2-4.09-4.16-6.06-6.3-.87-1-1.76-1.89-2.6-2.87a21.46,21.46,0,0,1-3-4c-.26-.46,0-.58.59-.43a4.44,4.44,0,0,1,1.93,1.2c1.12,1.19,2.28,2.33,3.45,3.48s2.29,2.37,3.42,3.59c1.36,1.46,3,2.74,4.52,4.11s3.35,3,5.08,4.43c1.05.9,2.13,1.77,3.21,2.64,1.65,1.29,3.29,2.62,5,3.83,1.32.94,2.72,1.7,4,2.58l.89.57a4.72,4.72,0,0,1,1.07.91,1.28,1.28,0,0,1,.22.8,2.14,2.14,0,0,1,0,.36c0,.17-.21.24-.49.24a2.72,2.72,0,0,1-1.15-.27,44,44,0,0,1-7.79-4.56c-1.88-1.3-3.63-2.77-5.41-4.19Z"/><path class="cls-1" d="M305.53,391s7.29,14,12,13.11-5-21.73-5-21.73Z"/><path class="cls-1" d="M233.31,292.51s-6.56-6.26-13.1-4,0,10,3.15,10.77,7,2.95,9.95-2.8S233.31,292.51,233.31,292.51Z"/><path class="cls-1" d="M239.9,314.76s-3-4.94-8-3.41.66,7.23,2.87,7.08S239.9,319,239.9,314.76Z"/><path class="cls-1" d="M159.69,187.28a8.93,8.93,0,0,1,6.69,4.91c2.47,4.62,10.29,17.51,15.16,14.18S180.05,188.8,177.7,185s.61-19.55,8.75-26.14,5.42-6.24,10.87-8,11.82,18,49.87,17.11c0,0,28.65-3.69,37.21-21.62,12.58-26.36-18.9-27.7-18.9-27.7s2-18.62-15-23.31S206.78,99.24,194.7,109a36.36,36.36,0,0,0-13.16,23.36s-15.26-14.45-28-6.15c0,0-13.57,7.2-15.44,21.81s8.2,26.06,17.37,35.5Z"/><path class="cls-1" d="M199.59,250.19a38.34,38.34,0,0,0,14.22,5.7,26.71,26.71,0,0,0,5.57.3,18.26,18.26,0,0,0,9.19-2.63,21,21,0,0,0,6.68-7.12,38.78,38.78,0,0,0,3.6-8.24c1.23-3.67,2.11-7.48,3.43-11.18.4-1.16.54-1,.6.11,0,.54.06,1.3.06,2.21,0,.46,0,1,0,1.47s-.13,1.06-.23,1.62c-.39,2-.79,4-1.34,5.93a52.26,52.26,0,0,1-2.07,5.81,31.89,31.89,0,0,1-3,5.52,22,22,0,0,1-4.4,4.69,21.57,21.57,0,0,1-6.91,3.67,24.08,24.08,0,0,1-7.74,1,38.26,38.26,0,0,1-16.08-4.42,52.76,52.76,0,0,1-8.56-5.56A55.12,55.12,0,0,1,182,237.94a41,41,0,0,1-5.78-10.37,16.22,16.22,0,0,1-.81-2.5c-1-3.18-.38-4.37.13-5.09a3.66,3.66,0,0,1,.37-.49c.21-.17.46.06.79.59a7.52,7.52,0,0,1,1,2.41,45.35,45.35,0,0,0,4.17,9.12,54.72,54.72,0,0,0,6,8.36,51.88,51.88,0,0,0,11.75,10.15Z"/><path class="cls-1" d="M248.41,218.45a9,9,0,0,0,0-3.62,23,23,0,0,0-1.09-4c-.34-1-.81-1.92-1.21-2.89-1.42-3.43-3.09-6.85-4.64-10.34-.68-1.55-1.42-3.1-2-4.71a22.82,22.82,0,0,1-.94-3.21,8.24,8.24,0,0,1,.05-3.46c.2-.73.62-.47,1,.14a9.41,9.41,0,0,1,1.13,2.53,34.84,34.84,0,0,0,2.18,5.76c.89,2,1.77,3.93,2.67,5.92,1.05,2.41,2.48,4.78,3.61,7.3a25,25,0,0,1,2.46,9,7.54,7.54,0,0,1-2.18,5.86,6.93,6.93,0,0,1-4.55,1.6,15.17,15.17,0,0,1-4.41-.66,34.67,34.67,0,0,1-6.29-2.26c-.43-.23-.88-.43-1.31-.68a3.94,3.94,0,0,1-1.46-1.33,1.78,1.78,0,0,1,0-1.36,5.06,5.06,0,0,1,.24-.66,1.11,1.11,0,0,1,.93-.55,2.75,2.75,0,0,1,1.5.28c1.61.75,3.23,1.5,4.89,2.12a20.49,20.49,0,0,0,4.91,1.31,6,6,0,0,0,2.91-.11,2.11,2.11,0,0,0,.91-.64,4.91,4.91,0,0,0,.34-.61,5.62,5.62,0,0,0,.22-.73Z"/><path class="cls-1" d="M184,195.1a19.67,19.67,0,0,1,1,5.74,9,9,0,0,1,0,1.47,12.44,12.44,0,0,1-.14,1.52,6.11,6.11,0,0,1-1.6,3.3,5.06,5.06,0,0,1-1.7,1.11,5.14,5.14,0,0,1-1.9.35,7.6,7.6,0,0,1-3.28-.83,15.24,15.24,0,0,1-4.58-3.73,31.09,31.09,0,0,1-4.42-6.84c-.25-.53-.48-1.08-.72-1.61s-.43-1-.69-1.42a12.62,12.62,0,0,0-1.74-2.57,8.67,8.67,0,0,0-5.08-3.05,6,6,0,0,0-5.4,1.78,9,9,0,0,0-2.18,5.76,17.49,17.49,0,0,0,.72,5.77,11.62,11.62,0,0,0,2.94,4.83,16.71,16.71,0,0,0,13.54,4.79c1.52-.24,1.45.09.16.71a6,6,0,0,1-1.21.43,8.19,8.19,0,0,1-1.65.32,11.57,11.57,0,0,1-4.26-.29,17,17,0,0,1-4-1.5,18.63,18.63,0,0,1-3.46-2.47,14.66,14.66,0,0,1-2.74-3.32,6.89,6.89,0,0,1-.53-1,9.13,9.13,0,0,1-.45-1l-.36-1.06-.25-1a16.65,16.65,0,0,1,0-8.5,9.91,9.91,0,0,1,2.2-3.93,8.07,8.07,0,0,1,4-2.37,9.1,9.1,0,0,1,5.44.37,12.07,12.07,0,0,1,4.45,3,16.06,16.06,0,0,1,3,4.37c.7,1.48,1.39,2.86,2.19,4.21a24.1,24.1,0,0,0,3,4.09,11.06,11.06,0,0,0,3.83,2.83,3.91,3.91,0,0,0,2,.28,2,2,0,0,0,1.39-.9,3.86,3.86,0,0,0,.57-2l.07-1.24c0-.42,0-.83,0-1.25a19.51,19.51,0,0,0-1.45-6.05c-.78-2-1.78-3.95-2.67-6a26,26,0,0,1-1.63-4.91,16.88,16.88,0,0,1-.25-5.26,32.19,32.19,0,0,1,2.86-9.79,39.76,39.76,0,0,1,9.2-12.53l1.28-1.14c.45-.35.89-.71,1.35-1.06.85-.65,1.61-1.13,2.23-1.53a17.34,17.34,0,0,1,1.65-.84,4.32,4.32,0,0,1,2-.46,3.51,3.51,0,0,1,.7.06c.57.21-.79,1.28-3.14,3.13a53.78,53.78,0,0,0-5,4.45,43,43,0,0,0-4.39,5.12,33.07,33.07,0,0,0-3.45,5.81,28,28,0,0,0-2.16,6.39c-.19.82-.27,1.65-.41,2.47a14.94,14.94,0,0,0,1,7c1.14,3.13,3.05,6.23,4.28,9.92Z"/><path class="cls-1" d="M282.73,153a58.17,58.17,0,0,1-20.05,12.35,65.08,65.08,0,0,1-8.18,2.55,51.85,51.85,0,0,1-15.06,1.28,58.48,58.48,0,0,1-14.74-2.92A77.35,77.35,0,0,1,212.52,161c-1.26-.64-2.46-1.38-3.7-2.07s-2.41-1.48-3.56-2.29S203,155,201.9,154.06l-1.62-1.37-1.52-1.47c-1.25-1.24-.76-1.42.72-.89a37.9,37.9,0,0,1,6.59,3.38c2.29,1.57,4.68,3,7.09,4.36s4.94,2.53,7.5,3.58a71.39,71.39,0,0,0,7.83,2.79,62.09,62.09,0,0,0,8.15,1.72c6.61,1,13.61,0,20.2-1.92a59.54,59.54,0,0,0,20.09-10.15,38.23,38.23,0,0,0,5-4.71,29.2,29.2,0,0,0,3.82-5.69,24.6,24.6,0,0,0,2.82-9.91,17,17,0,0,0-.43-5.08c-.05-.2-.08-.41-.14-.62l-.2-.59c-.15-.39-.26-.8-.43-1.17l-.57-1.11a8.73,8.73,0,0,0-.68-1A11.15,11.15,0,0,0,280,120a20.87,20.87,0,0,0-7.65-.57c-1.14.1-2.24.32-3.38.53-2.11.39-3.51.77-4.53.92a5.38,5.38,0,0,1-2.26-.07c-.26-.08-.58-.11-.76-.19s0-.48.64-1a12.72,12.72,0,0,1,3.45-1.83,28,28,0,0,1,7.66-1.74,20.42,20.42,0,0,1,8.28.93,16.83,16.83,0,0,1,4,2,18.8,18.8,0,0,1,1.75,1.46l.79.83.38.43.33.47a17,17,0,0,1,3,8.29,25.82,25.82,0,0,1-2,12.34A32.47,32.47,0,0,1,282.8,153Z"/><path class="cls-1" d="M212.42,95a74.72,74.72,0,0,1,19.08-5.55c1.19-.2,2.4-.32,3.6-.49s2.41-.24,3.63-.26a55.46,55.46,0,0,1,12.78,1,21.92,21.92,0,0,1,6.2,2.19,26.82,26.82,0,0,1,5.38,3.68,22.18,22.18,0,0,1,6.58,9.49,15,15,0,0,1,.5,7.49,16.37,16.37,0,0,1-3.07,6.7c-.94,1.21-1.11.79-.83-.49s.84-3.49,1.2-5.89a15.68,15.68,0,0,0,.16-3.2,16.42,16.42,0,0,0-.59-3.11,16.69,16.69,0,0,0-3-5.69,25.37,25.37,0,0,0-10.76-7.85,15.14,15.14,0,0,0-1.95-.56l-2.1-.42c-1.42-.2-2.86-.41-4.31-.48a59.31,59.31,0,0,0-8.74.11,70.71,70.71,0,0,0-29.5,9.34,58.65,58.65,0,0,0-14,11.19,41.9,41.9,0,0,0-7.3,11.49c-.38.92-.73,1.82-1,2.77-.15.44-.29.84-.43,1.2l-.3,1c-.2.61-.44,1.09-.6,1.49a4,4,0,0,1-1,1.59,3.43,3.43,0,0,1-.52.46c-.26.15-.41-.18-.47-.91a12.42,12.42,0,0,1,.24-3.31,36.58,36.58,0,0,1,2-6.23,41,41,0,0,1,3.21-5.88,50,50,0,0,1,8.94-10.17,68.75,68.75,0,0,1,17-10.83Z"/><path class="cls-1" d="M136.12,153.84a28.13,28.13,0,0,1,.66-8.67c.19-.7.44-1.38.66-2.07a18.44,18.44,0,0,1,.72-2,32.54,32.54,0,0,1,1.89-3.84,30.41,30.41,0,0,1,3.55-5.15,29.4,29.4,0,0,1,8.63-6.81,25.3,25.3,0,0,1,10.6-2.84,21.72,21.72,0,0,1,9.59,1.71,21.45,21.45,0,0,1,5.34,3.25,17.31,17.31,0,0,1,4,4.76c.65,1.11.08,1.25-1,.78a24.16,24.16,0,0,1-4.44-2.68,19.17,19.17,0,0,0-9.8-4.38,21.76,21.76,0,0,0-10.92,1.24c-4.32,1.56-8.07,4.89-10.89,8.67a31.22,31.22,0,0,0-3.86,6.83l-.61,1.85a11.1,11.1,0,0,0-.54,1.87,22,22,0,0,0-.55,3.87,27,27,0,0,0,.12,4.84l.44,2.4.11.6.17.59.35,1.18A42.08,42.08,0,0,0,147.17,173a64.87,64.87,0,0,0,7.87,8.43c.62.58,1.24,1.13,1.88,1.69,2.28,2.19,3,2.95,3,3.93a3,3,0,0,1,.06.64c-.07.57-1.36.07-3.31-1.32a58.63,58.63,0,0,1-8.08-7.29,56.09,56.09,0,0,1-6.86-9c-.37-.61-.75-1.21-1.1-1.83l-1-1.91c-.69-1.25-1.15-2.64-1.72-4-.27-.67-.44-1.39-.66-2.08a16.72,16.72,0,0,1-.58-2.1,28.82,28.82,0,0,1-.68-4.34Z"/><path class="cls-1" d="M165.75,266.35c0-.48,0-1,.05-1.45s0-1,.13-1.45a21,21,0,0,1,.56-2.84c.09-.34.16-.69.23-1a9.06,9.06,0,0,1,.34-1,20.7,20.7,0,0,1,3.8-6.25c.33-.43.72-.79,1.06-1.21s.69-.81,1.08-1.17.95-1,1.46-1.42a11.31,11.31,0,0,1,1.69-1.13c.38-.19.64.28.7.92a2.39,2.39,0,0,1-.61,1.94,55.62,55.62,0,0,0-5.08,5.56,12.92,12.92,0,0,0-1.91,4.2,20.06,20.06,0,0,0-.84,5.07l0,.8,0,.8a14.69,14.69,0,0,0,.11,1.62,22.65,22.65,0,0,0,1,4.81,25.06,25.06,0,0,0,1.61,3.44c.12.25.27.48.38.74.4.95.32,1.36-.12,1.82-.11.11-.2.23-.31.32-.35.29-.89.07-1.45-.55a12.61,12.61,0,0,1-1.12-1.49c-.29-.54-.56-1.1-.83-1.67A17.18,17.18,0,0,1,167,274a14.11,14.11,0,0,1-.55-1.85l-.32-1.4c-.09-.48-.15-1-.22-1.44a25.57,25.57,0,0,1-.25-2.91Z"/><path class="cls-1" d="M245.07,262.09a19.59,19.59,0,0,1,.47,2.72l.12,1.36v1.36a11.68,11.68,0,0,1-.06,2,20.72,20.72,0,0,1-1.9,6.51c-.18.47-.4.91-.62,1.36s-.4.9-.64,1.33-.6,1.12-.93,1.67a9.42,9.42,0,0,1-1.25,1.44c-.29.26-.65-.11-.87-.69a2.21,2.21,0,0,1,0-1.88,45,45,0,0,0,2.88-6.31,12.86,12.86,0,0,0,.68-4.24c.05-.78,0-1.57,0-2.36l-.14-1.18-.07-.59-.14-.57c-.12-.47-.2-1-.36-1.41l-.51-1.37c-.32-.66-.67-1.31-1-1.94l-.66-.89a4.38,4.38,0,0,0-.73-.82,10.14,10.14,0,0,0-1.33-1l-1.48-.79c-.2-.13-.47-.16-.68-.28-.8-.42-.94-.75-.77-1.58,0-.19.07-.39.12-.57.18-.62.77-.89,1.56-.69a10.66,10.66,0,0,1,6,4.35,14.55,14.55,0,0,1,1.47,2.46,10.1,10.1,0,0,1,.53,1.32,13.32,13.32,0,0,1,.47,1.34Z"/><path class="cls-1" d="M192.45,417.48a166.75,166.75,0,0,1-16.2-18.76,226.74,226.74,0,0,1-13.7-20.57c-3.05-5.18-6-10.42-8.64-15.82a184.87,184.87,0,0,1-11.56-29.61A119.19,119.19,0,0,1,139,317.13a68.69,68.69,0,0,1-.53-16,36.33,36.33,0,0,1,4-13.86,24.11,24.11,0,0,1,10.49-10,18.43,18.43,0,0,1,9.3-2,21.78,21.78,0,0,1,9.12,2.52,29.93,29.93,0,0,1,12.83,13c.89,1.68,1.11,2.49.93,2.52s-.83-.67-1.87-1.85a37.82,37.82,0,0,0-4.76-4.3,51.89,51.89,0,0,0-7.13-5l-.9-.52-.94-.44-.93-.43c-.32-.13-.65-.22-1-.35a18.34,18.34,0,0,0-3.87-1.06A15.74,15.74,0,0,0,156,280a21,21,0,0,0-6.81,4.29,21.31,21.31,0,0,0-4.69,6.7c-2.33,5.1-3.12,11-3,16.9a87.7,87.7,0,0,0,2.2,17.78c3.14,14.13,9.21,28.18,16.12,41.33a233.74,233.74,0,0,0,12.59,21.09,193.45,193.45,0,0,0,14.9,19.52,130.93,130.93,0,0,0,10.5,10.83,83.21,83.21,0,0,0,11.85,9.2,43.23,43.23,0,0,0,10.15,4.86,33.58,33.58,0,0,0,11.09,1.4,96.46,96.46,0,0,0,22.41-3.69c11.4-3.08,22.21-7.31,33-11.76l7.08-3c4.44-1.86,7.38-3.08,9.51-3.79a16.07,16.07,0,0,1,4.54-.95,8.81,8.81,0,0,1,1.46,0c.52.13-.11.56-1.64,1.4s-4,2.1-7.2,3.53c-9.55,4.3-19.49,8.55-29.83,12.24-5.17,1.84-10.45,3.56-15.83,5a119.43,119.43,0,0,1-16.52,3.39,56.88,56.88,0,0,1-12.8.32c-1.08-.12-2.17-.29-3.25-.5a31.18,31.18,0,0,1-3.19-.85c-1.06-.3-2-.74-3.07-1.12s-2-.85-2.93-1.36c-7.68-3.91-14.22-9.38-20.22-15.21Z"/><path class="cls-1" d="M212.18,374.18c-2-2.5-3.9-5.07-5.72-7.69-.66-1-1.38-1.88-2-2.85a99.8,99.8,0,0,1-6-10.73c-.8-1.63-1.58-3.29-2.26-5a16.62,16.62,0,0,1-1.64-6.89c0-.78.48-.63,1-.07a8.62,8.62,0,0,1,1.49,2.65,47.74,47.74,0,0,0,2.72,6.16c1,2,2.06,4.09,3.15,6.14a63.29,63.29,0,0,0,4.65,7.15c1.8,2.57,3.69,5.09,5.66,7.53,1.22,1.5,2.46,3,3.77,4.41a64.52,64.52,0,0,0,6.25,6.13,44.32,44.32,0,0,0,5.46,3.73c.42.23.84.44,1.25.69s.7.39,1,.56a5.43,5.43,0,0,1,.58.52,1.66,1.66,0,0,1,.43,1.07,2.88,2.88,0,0,1,0,.57c0,.56-.95.73-2.37.33a26.5,26.5,0,0,1-5.78-3,45.89,45.89,0,0,1-5-4.21,90.86,90.86,0,0,1-6.59-7.16Z"/><path class="cls-1" d="M281.39,366.72a41.11,41.11,0,0,1,4.83-1.71,18,18,0,0,1,5.38-.74,8.87,8.87,0,0,1,3,.62,7.56,7.56,0,0,1,1.41.79l.63.51a4.42,4.42,0,0,1,.65.82,17.11,17.11,0,0,1,1.2,2.45c.33.78.62,1.55.92,2.32.86,2.25,1.72,4.46,2.53,6.69,1.41,3.93,2.88,7.83,4.58,11.6a41.93,41.93,0,0,0,6.25,10.47,7.8,7.8,0,0,0,4.12,2.64,1.9,1.9,0,0,0,1.8-.37,3.38,3.38,0,0,0,.61-2.05,17.75,17.75,0,0,0-.23-3.37c-.15-1.15-.34-2.31-.53-3.48s-.38-2.35-.53-3.55a17.27,17.27,0,0,1-.14-3.68c.09-.8.34-1.13.45-1.06s.17.47.32,1.08c.28,1.22,1,3.33,1.77,6a32.46,32.46,0,0,1,1.38,7.41,10.24,10.24,0,0,1-.16,2.16,4.6,4.6,0,0,1-1.23,2.45,4.06,4.06,0,0,1-2.77,1.11c-.42,0-.82-.05-1.23-.08a11.19,11.19,0,0,1-1.14-.29,10.92,10.92,0,0,1-3.67-2.27,21.86,21.86,0,0,1-2.61-3,41.58,41.58,0,0,1-3.79-6.56c-2.55-5.38-4.93-11-7-16.63l-1.73-4.59c-.29-.76-.58-1.51-.89-2.24-.16-.36-.31-.72-.48-1a3.67,3.67,0,0,0-.24-.45,1.59,1.59,0,0,0-.11-.18s-.05,0,0-.09a5.12,5.12,0,0,0-3.66-1.19,16.52,16.52,0,0,0-4.51.79,62.82,62.82,0,0,0-10.89,4.81c-5.35,2.89-10.62,6.07-15.83,9.22-4.07,2.43-8,5-12.31,7-1,.43-1.91.85-2.94,1.2a19.57,19.57,0,0,1-2.47.65,9.05,9.05,0,0,1-1.8.09,3.26,3.26,0,0,1-1.95-.67,2.72,2.72,0,0,1-.48-.49c-.23-.51,1.23-.43,3.68-1.36A34.46,34.46,0,0,0,247,386c1.85-.93,3.7-2,5.56-3,3.71-2.15,7.46-4.44,11.25-6.73a156.28,156.28,0,0,1,17.55-9.57Z"/><path class="cls-1" d="M349.21,349.19a87.3,87.3,0,0,0-12.34,9.12q-2.1,1.88-4.14,3.84c-4.87,4.53-9.54,9.33-14,14.31-2,2.19-3.92,4.49-5.79,6.76-2.46,2.88-4.64,6-7.32,8.72-.82.85-1,.48-.77-.59a13.16,13.16,0,0,1,.73-2.07,14.39,14.39,0,0,1,1.55-2.55c2.34-3.1,4.82-6.1,7.29-9.1s5.16-5.86,7.93-8.64c3.28-3.36,6.6-7,10.08-10.29a98,98,0,0,1,12.36-10,81.85,81.85,0,0,1,8.48-5c2.19-1.13,4.39-2.17,6.43-3.43a36.5,36.5,0,0,0,5.72-4.29,30.43,30.43,0,0,0,6.46-8.69c.33-.72.66-1.41,1-2.15,1.11-2.72,1.53-3.55,2.52-3.95a5.13,5.13,0,0,1,.6-.28c.3-.07.46.22.56.85a5.94,5.94,0,0,1-.32,2.69,28.6,28.6,0,0,1-5,9.5,37.61,37.61,0,0,1-8.1,7.52,58.35,58.35,0,0,1-7.05,4c-2.34,1.19-4.63,2.35-6.8,3.72Z"/><path class="cls-1" d="M343.52,322.23c-1.06,2.21-2.11,4.46-3.42,6.67a16.11,16.11,0,0,1-2.38,3.22,5.06,5.06,0,0,1-.8.72l-.46.33a2,2,0,0,1-.65.38l-1,.26-.91.21a45.54,45.54,0,0,0-5,1.37,10.26,10.26,0,0,0-3.68,2,6.24,6.24,0,0,0-1.28,1.53c-.15.3-.31.59-.45.91s-.25.68-.37,1c-.45,1.41-.73,2.95-1.16,4.54a12.55,12.55,0,0,1-2.16,4.55,29.19,29.19,0,0,1-6.26,5.92,60,60,0,0,1-9.28,5.53c-1,.48-1.05.09-.43-.72a16,16,0,0,1,3.59-3.18,63.54,63.54,0,0,0,8.39-6.48,14.85,14.85,0,0,0,3-3.9,23.57,23.57,0,0,0,1.49-4.94,21.88,21.88,0,0,1,1.06-3.38,9.2,9.2,0,0,1,2.22-3.15,15,15,0,0,1,6.5-3.21c1.23-.33,2.46-.58,3.66-.85l.89-.2.37-.08c.05,0,.1-.05.17-.1s.42-.27.62-.44l.59-.57a23.53,23.53,0,0,0,3.71-6.06c1.31-2.72,2.53-5.53,4-8.24.28-.53.6-1,.92-1.56s.67-1,1-1.5a13.26,13.26,0,0,1,1.18-1.42,4.5,4.5,0,0,1,.65-.66l.76-.7a2,2,0,0,1,2.25-.21,3.08,3.08,0,0,1,.94.7,3.6,3.6,0,0,1,.59.83,7.6,7.6,0,0,1,.84,3.6,21,21,0,0,1-.76,5.47,32.17,32.17,0,0,1-1.78,5.11c-.31.72-.62,1.43-1,2.14-1.5,2.55-2.21,3.2-3,3.47a2.54,2.54,0,0,1-.51.17c-.47,0-.14-1.14.62-3.1,1.1-2.92,2.4-5.78,3.21-8.75a17.19,17.19,0,0,0,.69-4.39,6.79,6.79,0,0,0-.25-1.93,3,3,0,0,0-.32-.71,1.86,1.86,0,0,0-.23-.29h0s0,0,0,0l-.07.07-.26.23a3.76,3.76,0,0,0-.5.48c-.31.38-.66.7-.95,1.11a26.81,26.81,0,0,0-1.69,2.51c-1.05,1.77-2,3.7-2.89,5.64Z"/><path class="cls-1" d="M260.47,293.19c1.7,1.8,3.33,3.64,5,5.48.59.67,1.24,1.29,1.82,2l6,7.26c.9,1.06,1.85,2.09,2.8,3.08,1.23,1.25,2.55,2.5,3.63,3.67.32.36,0,.83-.68,1a2.77,2.77,0,0,1-1.29-.08,3.49,3.49,0,0,1-1.3-.74,82.73,82.73,0,0,1-7.25-8.23c-1.33-1.73-3-3.31-4.47-4.94-1.66-1.8-3.32-3.6-5-5.35-1.05-1.07-2.09-2.15-3.2-3.17-.82-.78-1.64-1.57-2.5-2.31a33.21,33.21,0,0,0-2.61-2.16,23.38,23.38,0,0,0-2.16-1.46L247,285.9c-.32-.19-.67-.32-1-.5-1.22-.67-1.49-1.07-1.34-2a4.1,4.1,0,0,1,.11-.61c.19-.64,1-.79,2-.38a30.25,30.25,0,0,1,8.34,5.5c1.9,1.64,3.68,3.41,5.43,5.19Z"/><path class="cls-1" d="M314.6,336.64c-.38,0-.77.05-1.16.06-.63,0-1.37,0-2,0a9.37,9.37,0,0,1-1-1.75l-.52-1q-1-2.06-1.88-4.15c-.43-1-.91-2-1.3-3-1.38-3.62-2.56-7.29-3.76-10.94-.53-1.61-1.13-3.21-1.71-4.8a59.3,59.3,0,0,1-2.15-6.13c-.17-.65.34-.76,1-.41a4.7,4.7,0,0,1,2.05,2.31c.84,2.06,1.67,4.12,2.37,6.23s1.36,4.22,2,6.35a74.26,74.26,0,0,0,2.9,7.58c.57,1.38,1.17,2.73,1.79,4.08l1,2,.26.49.12.24.05.11.11.22c0,.11.1.11.19.1h.31l.63,0,1.36-.1c.91-.08,1.83-.18,2.74-.28,2.76-.33,5.54-.68,8.26-1.2,2.11-.42,4.14-1,6.18-1.58.44-.14.88-.26,1.33-.37,1.69-.41,2.25-.4,2.79.12a4,4,0,0,1,.36.35c.3.42-.28,1-1.5,1.54a33.53,33.53,0,0,1-5.68,1.79c-2,.47-4,.85-6,1.18-3,.49-6,.83-9.08,1.08Z"/><path class="cls-1" d="M374.26,322.68l-5.3,1.48c-.65.18-1.27.43-1.91.6-2.29.61-4.58,1.17-6.88,1.72-1,.25-2,.54-3,.86l-1.92.59a15.23,15.23,0,0,1-2,.23c-.43,0-.47-.41-.23-.94a3.37,3.37,0,0,1,1.42-1.52,80.76,80.76,0,0,1,7.86-2c1.61-.3,3.2-.91,4.81-1.38l5.3-1.54,3.26-1c1.65-.51,3.31-1,4.92-1.55,1.25-.43,2.44-1,3.67-1.49a6.85,6.85,0,0,1,.82-.31,2.41,2.41,0,0,1,1.17-.14,1.38,1.38,0,0,1,.67.49c.08.11.17.2.23.3a.57.57,0,0,1-.08.6,1.7,1.7,0,0,1-.72.71,40.57,40.57,0,0,1-6.73,2.7c-1.75.57-3.52,1.09-5.29,1.64Z"/><path class="cls-1" d="M383.37,304.66l-1.26-4.46c-.16-.54-.37-1.06-.52-1.61-.53-1.91-1.07-3.83-1.65-5.74-.26-.84-.56-1.67-.87-2.49a21.17,21.17,0,0,1-1.06-3.21c-.15-.7,1.26-.24,1.77.94a60.42,60.42,0,0,1,2.32,6.5c.37,1.34.95,2.66,1.43,4s1,3,1.47,4.44l.86,2.75c.45,1.39.86,2.79,1.33,4.16.37,1.06.86,2.07,1.25,3.13a7.43,7.43,0,0,1,.26.71,2.84,2.84,0,0,1,.08.59,1.36,1.36,0,0,1-.1.45,1,1,0,0,1-.45.53,1.41,1.41,0,0,1-.27.18c-.29.12-.69-.2-1.11-.72a30.45,30.45,0,0,1-2.18-5.67l-1.35-4.46Z"/><path class="cls-1" d="M366.58,286q-8.22,1.47-16.42,3.23c-2,.41-4,.93-6,1.36-7,1.53-14,3.1-21,4.78-3.1.73-6.2,1.55-9.26,2.38-3.92,1.07-7.83,2.26-11.79,3.14-2.47.57,0-2.27,4.57-3.6,8-2.3,16.06-4.38,24.28-6,4.92-1,10-2.35,15-3.45,5.51-1.23,11-2.39,16.59-3.44,1.7-.33,3.42-.64,5.13-.94s3.43-.59,5.15-.85c1.3-.22,2.62-.39,3.93-.55l1-.12.24,0h.25c0,.31-.08-.69.08.7l-.08-.71h0v0l0,0,.11-.07c.56-.31,1.11-.65,1.67-1,2.24-1.37,4.45-2.78,6.65-4.18,3.41-2.2,6.68-4.46,10.09-6.59.75-.46,1.47-.95,2.25-1.4a18.24,18.24,0,0,1,3.16-1.59,3.82,3.82,0,0,1,1.68-.21,3,3,0,0,1,.53.08c.2.08,0,.32-.43.7a17.94,17.94,0,0,1-2.15,1.69l-9.05,6.18c-3.12,2-6.3,4.08-9.51,6.11-1.21.75-2.37,1.49-3.66,2.25l-.12.07-.3.14a3.23,3.23,0,0,1-.66.23l-.53.08-1,.13-2.06.27c-2.77.42-5.54.87-8.3,1.39Z"/><path class="cls-1" d="M406.52,301c.75-.63,1.46-1.3,2.18-2l1.05-1,.51-.52.26-.26.05,0c.1-.05.08-.13.08-.25,0-.38-.11-.79-.18-1.19-.17-1-.45-2-.66-3-.73-3.55-1.45-7.14-2.37-10.66-.41-1.57-.88-3.12-1.33-4.66l-1.84-5.9c-.19-.61.07-.63.54-.24a6.93,6.93,0,0,1,1.7,2.31c.87,2,1.71,3.92,2.39,5.94s1.19,4.09,1.66,6.18c.55,2.51,1.39,5,1.94,7.61.16.74.3,1.48.44,2.24l.09.58c0,.22.05.32.09.66a2.07,2.07,0,0,1-.4,1.65l-.9.9-.75.73c-.51.48-1,.95-1.54,1.41-1.34,1.18-2.68,2.35-4.06,3.48-2.08,1.71-4.27,3.3-6.45,4.84-1.71,1.19-3.35,2.42-5.12,3.52a12.63,12.63,0,0,1-1.19.68c-1.54.77-2.16.73-2.71.37-.12-.07-.26-.12-.34-.18s-.06-.28.12-.62a2.93,2.93,0,0,1,1-1c2.93-2.08,6.1-4,9.11-6.31,2.24-1.67,4.46-3.43,6.56-5.31Z"/><path class="cls-1" d="M381.31,269.27l5.74-.89c.7-.11,1.39-.27,2.09-.37,2.46-.36,4.94-.68,7.42-1,1.1-.13,2.21-.28,3.29-.43a22.3,22.3,0,0,1,4.24-.3c.45,0,.41.31.06.65a3.62,3.62,0,0,1-1.77.9c-.7.15-1.39.28-2.1.38l-2.1.33c-1.41.24-2.83.42-4.27.54-1.72.16-3.48.58-5.22.89l-5.75,1-3.54.62c-1.78.33-3.59.62-5.36,1-1.37.28-2.7.67-4.06,1-.3.07-.59.17-.89.22-1.13.2-1.52.11-1.84-.42A2.6,2.6,0,0,1,367,273c-.17-.42.23-.85,1-1.11a56.14,56.14,0,0,1,7.47-1.72l5.76-1Z"/><path class="cls-1" d="M368,371.47a149.26,149.26,0,0,0,13.53-13.67c1.55-1.76,3-3.6,4.52-5.4,5.31-6.37,10.38-12.95,15.13-19.76,1.06-1.51,2.08-3.05,3.08-4.6.49-.77,1-1.55,1.46-2.33l.7-1.17.34-.59.17-.33,0,0c.16-.25,0-.53-.25-.68l-.16-.11-.3-.18c-.23-.12-.47-.25-.72-.36-1-.49-2.09-.93-3.17-1.4a15.88,15.88,0,0,1-6.11-4.05c-.5-.65-.54-1.06-.38-1.12s.56.14,1.13.4a21.38,21.38,0,0,0,2.35.86,30.45,30.45,0,0,1,3.34,1.12c1.18.48,2.4.92,3.68,1.47.33.14.65.31,1,.48a7.44,7.44,0,0,1,1.18.78,3,3,0,0,1,1.26,3.25,8.29,8.29,0,0,1-.57,1.16l-.35.6-.71,1.14-1.44,2.25c-1,1.47-2,2.94-3,4.38q-3,4.35-6.32,8.55c-3.59,4.58-7.17,9.48-11,14.06A177.29,177.29,0,0,1,373,370.62a101.15,101.15,0,0,1-9.25,7.9,54.18,54.18,0,0,1-7.9,4.89,23.53,23.53,0,0,1-9.06,2.53,33.54,33.54,0,0,1-7.17-.55,42.15,42.15,0,0,1-6.92-1.79c-1-.36-2-.71-2.94-1.17-3.59-1.77-4.37-3.07-4.52-4.15a3.62,3.62,0,0,1-.1-.72c.07-.57,1.54,0,3.91,1.16a46.24,46.24,0,0,0,11.48,3.81,29.13,29.13,0,0,0,6.06.58L348,383a12.14,12.14,0,0,0,1.44-.27,20.91,20.91,0,0,0,2.87-.87,40.18,40.18,0,0,0,8.14-4.49,74.53,74.53,0,0,0,7.5-6Z"/><path class="cls-1" d="M458.33,253.34a17.61,17.61,0,0,1-2.91,8.07,42.74,42.74,0,0,1-4.92,6.45,39.63,39.63,0,0,1-4.24,4.15c-2.72,2.1-5.44,4-8.12,6.07s-5.29,4.12-7.83,6.31a68.92,68.92,0,0,0-6.37,6.18,63.17,63.17,0,0,0-6.73,9c-.61,1-.83.76-.75-.32a10.45,10.45,0,0,1,1.69-5,51.34,51.34,0,0,1,7.81-9.05,95.58,95.58,0,0,1,9.12-7.57c1.89-1.41,3.81-2.86,5.71-4.34s3.87-2.9,5.52-4.48a45.39,45.39,0,0,0,5.14-5.76,25,25,0,0,0,3.72-6.62,8.52,8.52,0,0,0,.5-4.31,5,5,0,0,0-2.29-3.31,15.74,15.74,0,0,0-6.61-2,29.34,29.34,0,0,0-3.59-.23,8.82,8.82,0,0,0-3.31.56,2.07,2.07,0,0,0-1.38,1.49c-.14.58.29,1.08,1,1.52a17.12,17.12,0,0,0,5,1.6c.8.16,1.59.28,2.4.46a16.39,16.39,0,0,1,3.21.89,3.09,3.09,0,0,1,1.26,1.06,1.58,1.58,0,0,1,.27.48c0,.22-.22.22-.76.22a13,13,0,0,1-2.52-.14c-1.65-.22-3.35-.43-5.08-.83a24.67,24.67,0,0,1-2.64-.71,10.38,10.38,0,0,1-2.73-1.33,4.56,4.56,0,0,1-1.31-1.45,3.58,3.58,0,0,1-.34-2.31,4.29,4.29,0,0,1,.92-1.92,5.12,5.12,0,0,1,1.54-1.18,8.72,8.72,0,0,1,3.12-.86,20.55,20.55,0,0,1,2.92-.08,23.85,23.85,0,0,1,8.4,1.57,9.49,9.49,0,0,1,3.82,3,7.83,7.83,0,0,1,1.39,4.79Z"/><path class="cls-1" d="M448.41,256.63c-.17.31-.35.61-.53.92-.07.11-.1.23-.18.34a8.32,8.32,0,0,1-.92,1.06,4.83,4.83,0,0,0-.42.47c-.1.1-.18.22-.29.32a.86.86,0,0,1-.42.16c-.1,0-.23-.34-.34-.69s-.23-.69-.18-.73a5.46,5.46,0,0,1,.85-.67,1.68,1.68,0,0,0,.43-.67c.15-.26.3-.53.44-.81s.16-.35.24-.53a6.23,6.23,0,0,0,.28-.83,2.65,2.65,0,0,0,0-.69.76.76,0,0,1,0-.15c0-.18.13-.22.51-.2h.25a.66.66,0,0,1,.59.31,2.45,2.45,0,0,1,.12,1.41,6.8,6.8,0,0,1-.37,1Z"/><path class="cls-1" d="M430.91,245a6.76,6.76,0,0,1-2.59-2.1l-.54-1a4.52,4.52,0,0,1-.25-.49,3.47,3.47,0,0,1-.08-.55,2.56,2.56,0,0,1,.9-1.93,8.05,8.05,0,0,1,.66-.49,5.85,5.85,0,0,1,.67-.36,7.44,7.44,0,0,1,1.05-.39,22.12,22.12,0,0,1,7.08-.39c1,.09,2.06.15,3.08.28a8,8,0,0,1,3.85,1.31c.36.29,0,.6-.45.83a3.28,3.28,0,0,1-1.78.4c-2.3-.32-4.79-.41-7.28-.51a11.36,11.36,0,0,0-4.33.71l-.38.14a2.25,2.25,0,0,0-.21.12.42.42,0,0,0-.2.42,2.09,2.09,0,0,0,.26.52,4.1,4.1,0,0,0,.75.75,6.71,6.71,0,0,0,2.61,1.22,19.44,19.44,0,0,0,4.73.54c1.26,0,2.5-.15,3.82-.14a6.82,6.82,0,0,1,.9,0,2.48,2.48,0,0,1,1.2.38.83.83,0,0,1,.3.79,1.93,1.93,0,0,1-.06.42.88.88,0,0,1-.48.45,1.8,1.8,0,0,1-.74.14c-1.9,0-4.33.27-6.77.13a15.82,15.82,0,0,1-5.74-1.17Z"/><path class="cls-1" d="M426.15,238.57a14.65,14.65,0,0,1-1.5-.6,8.41,8.41,0,0,1-1.6-.9,4.75,4.75,0,0,1-.92-.85,3.15,3.15,0,0,1-.54-1.14,2.54,2.54,0,0,1,.79-2.27,6.18,6.18,0,0,1,2.42-1.51,27.23,27.23,0,0,1,8-1.18c1.17,0,2.36-.07,3.54,0a16.8,16.8,0,0,1,2.31.25,5.23,5.23,0,0,1,2.21,1.15c.41.4,0,.7-.61,1a4.76,4.76,0,0,1-2,.59,32.91,32.91,0,0,0-4-.32c-1.39-.05-2.81-.06-4.25,0a13.69,13.69,0,0,0-4.94,1.2l-.53.25-.25.17a.47.47,0,0,0-.17.5.67.67,0,0,0,.16.24l.11.12.21.15a3.65,3.65,0,0,0,.52.33,4,4,0,0,0,.62.32,14.36,14.36,0,0,0,3.35,1.19,28.33,28.33,0,0,0,5.45.7c1.44.06,2.86-.07,4.35,0a6.87,6.87,0,0,1,1,.09c1.24.21,1.65.58,1.69,1.15a1.64,1.64,0,0,1,0,.38c0,.2-.19.33-.43.41a3.21,3.21,0,0,1-.92.1,71.89,71.89,0,0,1-7.84-.09,25.52,25.52,0,0,1-6.24-1.3Z"/><path class="cls-1" d="M403.7,235.62l-7.42-7.77c-.9-.94-1.86-1.83-2.75-2.78-3.15-3.36-6.23-6.81-9.23-10.31-1.31-1.58-2.75-3-4.05-4.62-.85-1-1.71-2-2.48-3.08a16.87,16.87,0,0,1-1.13-1.63c-.28-.61-.56-1.23-.85-1.84s-.07-.77.6-.38l1.34.77c.27.16.55.33.84.53a7.39,7.39,0,0,1,.78.72q5.44,5.58,10.65,11.66c2,2.46,4.47,4.74,6.74,7.09l7.49,7.76,4.63,4.77c2.35,2.4,4.68,4.83,7.07,7.16,1.85,1.82,3.78,3.48,5.65,5.27.41.39.82.78,1.22,1.2,1.48,1.52,1.77,2.33,1.43,3.12a2.6,2.6,0,0,1-.2.5c-.27.41-1.27.13-2.32-.87-3.39-2.95-6.92-6.24-10.38-9.61-2.57-2.5-5.13-5.05-7.68-7.6Z"/><path class="cls-1" d="M389.06,241.69l-8.54-9.51-3.14-3.45-10.8-12.38-1.13-1.29c-.41-.46-.69-.74-1.3-1.5a3.55,3.55,0,0,1-.34-.55,1,1,0,0,1,.11-.6,5.76,5.76,0,0,1,.88-1.09c.47-.47.93-.92,1.41-1.36a37.88,37.88,0,0,1,7.53-5.64c.88-.45.94,0,.46.71a14.1,14.1,0,0,1-2.82,3c-1.14.93-2.26,1.9-3.34,2.91-.54.5-1.07,1-1.57,1.53-.34.36-.23.25-.27.27v0s.05,0,0,0c.08,0,0,0,0,0h0l.05.05.42.46.81.94,1.63,1.88,3.22,3.8c2.45,2.92,5.2,5.78,7.82,8.66l8.65,9.51,5.38,5.8c2.73,2.92,5.48,5.83,8.29,8.62,2.19,2.17,4.45,4.17,6.72,6.18l1.52,1.28a16.88,16.88,0,0,1,1.87,1.86,3.34,3.34,0,0,1,.51,1.23c0,.16.08.35.08.46s-.24.18-.7,0a6.43,6.43,0,0,1-1.94-1,121.68,121.68,0,0,1-12.61-11.49c-3-3.07-6-6.19-8.89-9.36Z"/><path class="cls-1" d="M400.12,210.77l3.66,1.55.91.37.44.18a1.55,1.55,0,0,1,.76.42l1.48,1.48,2.11,2q3.64,3.57,7.37,7.1c1.1,1,2.24,2.06,3.36,3.07a38.8,38.8,0,0,1,4.16,4.05c.78.93-1.46,1-3.08-.47-2.88-2.65-5.78-5.28-8.6-8.1-1.68-1.68-3.6-3.25-5.38-4.92l-1.46-1.38-1.28-1.24L401,213.44l-4.58-1.85c-2.31-.93-4.62-1.91-6.93-2.79-1.79-.69-3.6-1.25-5.41-1.89-.39-.14-.79-.26-1.18-.41-1.47-.58-1.87-.94-1.92-1.65a2.61,2.61,0,0,1,0-.48c.07-.5.81-.59,1.9-.27,3.24,1,6.58,2.25,9.91,3.59l7.42,3Z"/><path class="cls-1" d="M434.05,256.93c-2-.67-4-1.4-6-2l-2.22-.63-1-.29-.31-.11a3.7,3.7,0,0,0-.29.29l-.68.78c-.92,1-1.85,2-2.79,3l-2.46,2.71a15.76,15.76,0,0,1-3.52,3.18c-.44.26-.68-.21-.67-.85a3,3,0,0,1,.81-2.07c1.08-1.07,2.13-2.2,3.19-3.33l3.33-3.34a31,31,0,0,0,2.29-2.6,14.14,14.14,0,0,1,2.06.5c.48.14.94.3,1.41.45l6.08,2.07,3.75,1.24c1.89.61,3.79,1.23,5.7,1.74,1.48.39,3,.66,4.44.92l1,.16a5.4,5.4,0,0,1,1.22.43,1.53,1.53,0,0,1,.5.56,2.52,2.52,0,0,1,.15.27c.05.13,0,.24-.3.35a2.75,2.75,0,0,1-1.14.23,9.56,9.56,0,0,1-1.07,0l-1-.15c-.71-.11-1.4-.26-2.1-.41-1.4-.32-2.79-.7-4.18-1.1-2.06-.6-4.11-1.27-6.15-1.92Z"/><path class="cls-1" d="M438.35,268.85l-5.62-1.11c-.69-.13-1.38-.21-2.07-.35l-7.23-1.52c-1.07-.22-2.15-.4-3.23-.57a15.6,15.6,0,0,1-4.14-1.1c-.46-.25-.17-.53.3-.78a3.56,3.56,0,0,1,.84-.34,3,3,0,0,1,1.09-.08c.68.1,1.38.17,2.07.28l2.08.4c1.39.28,2.78.59,4.17.94,1.66.43,3.43.61,5.16.91l5.68,1,3.5.65.66.13c.11,0,.23.08.35,0a1.43,1.43,0,0,0,.3-.2c.15-.13.32-.28.47-.43a25.58,25.58,0,0,0,1.83-1.92c.92-1,1.66-2.2,2.57-3.24.2-.23.38-.47.59-.7a2.51,2.51,0,0,1,1-.75,1,1,0,0,1,.4-.06,2.25,2.25,0,0,1,.42.13,2.63,2.63,0,0,1,.32.13c.23.12.3.84-.15,1.51a23.83,23.83,0,0,1-2.23,3c-.84,1-1.76,1.88-2.67,2.85-.35.35-.7.7-1.12,1.07a3,3,0,0,1-1.18.73l-.17,0c-.05.07-.11,0-.17,0h-.34c-.21,0-.53-.1-.65-.11l-2.82-.53Z"/><path class="cls-1" d="M286.81,203.87a41.42,41.42,0,0,1,9.7-12.66,35.53,35.53,0,0,1,14-7.49,29.49,29.49,0,0,1,5.76-1c1,0,2-.13,2.94-.1l2.93.27a29.68,29.68,0,0,1,9.71,3.33c.72.46,1.46.89,2.19,1.34a7.57,7.57,0,0,1,1.05.73l1,.78a7.47,7.47,0,0,1,2.07,1.53c.59.62,1.24,1.18,1.78,1.85a35.58,35.58,0,0,1,8.51,18.18,28.35,28.35,0,0,1,.17,9,20.86,20.86,0,0,1-1.14,4.44,10.33,10.33,0,0,1-2.66,4,6.65,6.65,0,0,1-2.93,1.56,6.45,6.45,0,0,1-1.74.13,9.23,9.23,0,0,1-1.6-.3,13.49,13.49,0,0,1-5.27-3.06,18.54,18.54,0,0,1-3.7-4.63,19.73,19.73,0,0,1-1.27-2.67,8.51,8.51,0,0,1-.43-1.41,11.47,11.47,0,0,1-.29-1.44c-.15-2.46.32-2.11,1.58-.46.33.4.72.87,1.13,1.4s.85,1.12,1.33,1.73c.92,1.26,2,2.63,3.27,4a11.93,11.93,0,0,0,3.76,2.89,5.34,5.34,0,0,0,1.91.57l.4,0a1.8,1.8,0,0,1,.32-.06,2.4,2.4,0,0,0,.4-.14,1.14,1.14,0,0,0,.4-.19,6.4,6.4,0,0,0,2.57-3.3,18,18,0,0,0,1.18-5,17.43,17.43,0,0,0,.09-2.6c-.06-.88-.07-1.77-.16-2.65l-.49-2.62-.72-2.58a39.53,39.53,0,0,0-4.73-9.63,23.16,23.16,0,0,0-2-2.58,25.26,25.26,0,0,0-2.27-2.36,14.8,14.8,0,0,0-2.35-2.33,12.8,12.8,0,0,0-1.35-1c-.46-.31-.92-.62-1.4-.91a23.59,23.59,0,0,0-12.75-3.05,29.24,29.24,0,0,0-13.87,4.28,37.56,37.56,0,0,0-17.48,26.82,29.76,29.76,0,0,0,1.34,13.64,28,28,0,0,0,7.53,11.41,31.36,31.36,0,0,0,18.95,8.39,21.75,21.75,0,0,0,2.28,0,17.43,17.43,0,0,0,2.28-.13,43.25,43.25,0,0,0,6-1c.67-.1,1.18-.23,1.63-.28a4.4,4.4,0,0,1,1.21,0,6.11,6.11,0,0,1,1,.15c.39.16.07.58-.88,1.2a11.94,11.94,0,0,1-1.91,1,26.31,26.31,0,0,1-2.88,1,30.55,30.55,0,0,1-20.58-2.06,34.51,34.51,0,0,1-15.82-14.57,31.61,31.61,0,0,1-3.74-15.9,37.9,37.9,0,0,1,3.9-15.75Z"/><path class="cls-1" d="M321.27,241.24a13.06,13.06,0,0,1-7-2.21,17.15,17.15,0,0,1-4.81-5.1l-.66-1.06-.56-1.12a16,16,0,0,1-.93-2.32,22.9,22.9,0,0,1-.89-8.71,15.35,15.35,0,0,1,.55-2.12,15,15,0,0,1,.79-2q.22-.5.48-1l.59-.92a14.71,14.71,0,0,1,1.29-1.76,15.36,15.36,0,0,1,6.09-4.76,11.89,11.89,0,0,1,5.07-.8,11.28,11.28,0,0,1,2.53.62c.39.17.8.33,1.18.52a7.68,7.68,0,0,1,1,.84c.68.88.28,1.08-.84,1.41a8.44,8.44,0,0,1-1.89.39,4,4,0,0,1-1,0,6.53,6.53,0,0,1-1-.11,7.28,7.28,0,0,0-3.59.1,8.61,8.61,0,0,0-3.4,1.74,13.66,13.66,0,0,0-1.46,1.39,9.69,9.69,0,0,0-.57.85,6,6,0,0,0-.53.88l-.48.92c-.15.3-.26.64-.42.95a15.81,15.81,0,0,0-.77,2,7.26,7.26,0,0,0-.31,1.24,6.85,6.85,0,0,0-.2,1.27,5.73,5.73,0,0,0-.4,1.3c0,.44,0,.88,0,1.31a14.55,14.55,0,0,0,1.42,5.11,14.07,14.07,0,0,0,8.31,7.48,9.79,9.79,0,0,0,6.77-.68,9.32,9.32,0,0,0,4-3.35,10,10,0,0,0,1.5-5.13,20.2,20.2,0,0,0-1.9-8.34c-.24-.6-.53-1.15-.8-1.73-1-2.16-1.27-2.88-.87-3.72a2.75,2.75,0,0,1,.28-.57c.37-.51,1.33.12,2.36,1.72a26.46,26.46,0,0,1,3.46,8,16.37,16.37,0,0,1-.34,9.57,11.92,11.92,0,0,1-4.88,5.87,9.42,9.42,0,0,1-1.65.89,9.54,9.54,0,0,1-1.75.7,11.61,11.61,0,0,1-1.85.45c-.64.06-1.28.14-1.93.17Z"/><path class="cls-1" d="M179.59,409.61l1.09,7.19c.13.87.35,1.73.47,2.6.45,3.09.88,6.17,1.41,9.24.24,1.36.56,2.7.88,4a43.76,43.76,0,0,1,1.12,5.12c.08.53-.33.61-.88.29a3.85,3.85,0,0,1-1.63-2,44.39,44.39,0,0,1-1.44-5.25c-.38-1.77-.72-3.55-1-5.35-.3-2.16-.92-4.33-1.36-6.51-.5-2.39-.91-4.79-1.34-7.19l-.81-4.44c-.41-2.23-.81-4.48-1.3-6.68-.38-1.71-.94-3.35-1.42-5-.11-.37-.21-.72-.29-1.1-.27-1.4-.14-1.89.53-2.35a3.2,3.2,0,0,1,.45-.3c.52-.25,1.11.21,1.57,1.19a23,23,0,0,1,1.62,4.53c.43,1.56.8,3.15,1.12,4.76.46,2.4.84,4.82,1.26,7.22Z"/><path class="cls-1" d="M175.85,440.76c-3-.29-6.16-.36-9.31-.65-.78-.07-1.57-.15-2.37-.26-.27,0-1.12-.14-1.77-.26a15.82,15.82,0,0,1-1.91-.44,6.1,6.1,0,0,1-2.53-1.29,2.7,2.7,0,0,1-.63-.87,1.54,1.54,0,0,1-.2-.58,1.16,1.16,0,0,1,.2-.6,2.13,2.13,0,0,1,1-.94l.39-.19c.14-.06.34-.1.5-.16a10.28,10.28,0,0,1,1.19-.25c.88-.14,1.87-.22,2.86-.28l1.18-.05.86,0c2,0,4,0,6,0l5.55.07c.37,0,.77,0,1.19,0a.66.66,0,0,0,.58-.23.37.37,0,0,0-.09-.53c-.17-.09-.35-.16-.54-.24l-.61-.15a17,17,0,0,0-2.06-.23,77.42,77.42,0,0,0-10.54.25l-6.79.53a33.31,33.31,0,0,1-6.91-.08c-1.51-.35-1.11-.66.08-.83a56,56,0,0,1,5.89-.84c4.58-.34,9.18-.94,13.88-1.12,1.17-.06,2.36-.05,3.55-.05l1.8.09h.23l.36.06.73.11,1.46.22a4.59,4.59,0,0,1,1.3.36l1.2.43.3.11.13.14.27.29a4.51,4.51,0,0,1,.51.58,2.14,2.14,0,0,1,0,1.95,1.43,1.43,0,0,1-.54.59,1.5,1.5,0,0,1-.31.19,1.82,1.82,0,0,1-.37.18,9.32,9.32,0,0,1-3.07.41l-1.71,0h-5.44l-4.29,0-3.37.09c-.27,0-.54,0-.83.05a3.58,3.58,0,0,0-.43.08c-.12,0-.33.08-.33.23s.36.38.6.49a6.7,6.7,0,0,0,.83.22l.45.08,1,.13q1.14.12,2.31.21c1.55.12,3.11.2,4.67.29l2.91.16c1,.09,1.91.18,2.89.23l.92.07,1.08.1c.71.08,1.37.19,2,.32a10.25,10.25,0,0,1,3,1.1c.3.17.61.36.92.57l.4.69a1,1,0,0,1-.43.77,5.91,5.91,0,0,1-1.56.67,27.94,27.94,0,0,1-5.33.64l-2.24.14-2,.16-1,.11-.5.06-.42.06a6.89,6.89,0,0,0-1.13.26,1.21,1.21,0,0,0-.75.5.4.4,0,0,0,.06.43,1.22,1.22,0,0,0,.41.25,4.17,4.17,0,0,0,.89.23l.43.06.62.08c2.16.25,4.37.3,6.59.4l2.93.14a23.1,23.1,0,0,1,3.9.46,4.77,4.77,0,0,1,1.7.64,3.82,3.82,0,0,1,.48.34c.29.31-1.18.32-3.86.48l-6.06.14a62.23,62.23,0,0,1-6.32-.3l-.64-.08-.74-.14a10,10,0,0,1-1.43-.35,4.37,4.37,0,0,1-1.94-1.17,1.43,1.43,0,0,1-.38-.8c0-.15-.08-.35-.09-.53a3.31,3.31,0,0,1,0-.55,2.53,2.53,0,0,1,1.06-1.61l.21-.16.27-.15a6.05,6.05,0,0,1,.57-.28,11,11,0,0,1,1.4-.41c.49-.11,1-.23,1.52-.3l.82-.11c1.1-.13,2.17-.22,3.24-.29l1.29-.08.31,0h0s.12,0,.12,0,0,0-.05-.05l-.08,0-2.07-.15Z"/><path class="cls-1" d="M176,428.59c-1.28-.09-2.6-.13-3.91-.12-.48,0-1,.07-1.44.09-1.7,0-3.4.07-5.11.17a21.25,21.25,0,0,0-2.25.27,13.27,13.27,0,0,1-2.88.35c-.61,0-.1-1.73,1-2a30.44,30.44,0,0,1,6-.59c1.21,0,2.45-.18,3.68-.24s2.72-.07,4.08,0c.84,0,1.68.07,2.53.14a16.53,16.53,0,0,1,1.94.29,5.82,5.82,0,0,1,1,.31,2.26,2.26,0,0,1,.55.29,1.21,1.21,0,0,1,.52.78,1.11,1.11,0,0,1-.19.79.7.7,0,0,1-.14.19c0,.19.08.28.12.74a5.58,5.58,0,0,1,0,1.16,3.68,3.68,0,0,1-.07.73,1.54,1.54,0,0,1-.55.92.69.69,0,0,1-.66.1,1.17,1.17,0,0,1-.3-.1c-.28-.19-.32-.56-.39-1s-.06-.82-.13-1.28c0-.22-.08-.45-.11-.68l-.19-1.46.43-.34c.07-.05.18-.14.15-.09v0h0l.76.36h0c.29.13.23,0-.06.21l-.22.22a2.77,2.77,0,0,0-.21.31c-.07.1,0,.05-.05.06h0l-.28-.1a16.74,16.74,0,0,0-3.62-.47Z"/><path class="cls-1" d="M346.28,430.42a16.71,16.71,0,0,1,4.71-.34,19.26,19.26,0,0,0,4.1,0c.17,0,.14,0,.22,0a.59.59,0,0,0,.13-.05c.08,0,.2,0,.17-.15a.66.66,0,0,0-.22-.35.72.72,0,0,0-.1-.08l-.25-.16a7.77,7.77,0,0,0-1.12-.55,13.94,13.94,0,0,0-2.56-.68,31.05,31.05,0,0,0-5.47-.39A42.35,42.35,0,0,0,341,428c-2.09.25-4.16.63-6.26.87-.65.07-.62-.23-.13-.62a6.41,6.41,0,0,1,2.67-1.12,42.72,42.72,0,0,1,13.14-.82,21.67,21.67,0,0,1,4.07.84,10.86,10.86,0,0,1,1,.41c.16.08.33.16.5.26a3.75,3.75,0,0,1,.56.37,3.59,3.59,0,0,1,1.08,1.16,1.88,1.88,0,0,1,.29,1.37l-.12.3a1,1,0,0,1-.22.2l-.49.36c-.5.19-1,.33-1.48.48s-.71.15-1.06.18a16.17,16.17,0,0,1-2.07.12c-1.35,0-2.64-.07-3.87,0a9.17,9.17,0,0,0-3.52,1l.11-.07,0,0s0,0-.08-.06l-.13-.1a.52.52,0,0,0-.19-.11c-.08-.06-.17,0-.1-.05a.33.33,0,0,0,.11-.08,2.11,2.11,0,0,0,.15-.19c.13-.25.1-.15.12-.16l.09,0a1.63,1.63,0,0,0,.26.07,37.52,37.52,0,0,0,4,.36l4.1.25a39.11,39.11,0,0,1,6.39.73,11.54,11.54,0,0,1,1.42.44,4.06,4.06,0,0,1,1.72,1.17,1.34,1.34,0,0,1,.24,1.08,1.6,1.6,0,0,1-.12.42c-.11.18-.33.17-.64.11a6.12,6.12,0,0,1-1.21-.36c-3.06-1-7-1.21-10.82-1.43-1.1-.06-2.21-.12-3.35-.21a17.67,17.67,0,0,1-1.8-.2,4.69,4.69,0,0,1-1.2-.32l-.25-.13a1.85,1.85,0,0,1-.35-.26,1.79,1.79,0,0,1-.57-1.51,1.88,1.88,0,0,1,.45-1,2.77,2.77,0,0,1,.38-.35l.1-.09.1-.05a10.81,10.81,0,0,1,2.31-.89Z"/><path class="cls-1" d="M267.18,332.64c1.18,1.32,2.4,2.61,3.63,3.9.45.46,1,.87,1.41,1.34,1.6,1.65,3.22,3.3,4.88,4.9.74.71,1.51,1.39,2.29,2.06a16.42,16.42,0,0,1,2.83,2.76c.5.66-1.54,1.27-2.7.38s-2-1.66-3.06-2.54-1.94-1.83-2.86-2.82c-1.09-1.2-2.44-2.21-3.65-3.34s-2.62-2.53-3.87-3.86c-.78-.81-1.52-1.66-2.29-2.48-1.14-1.26-2.23-2.59-3.35-3.86-.43-.5-.87-1-1.33-1.46l-1.31-1.47a7.5,7.5,0,0,1-.56-.68c-.62-.89-.66-1.28-.18-1.85a3.87,3.87,0,0,1,.32-.37c.41-.37,1-.25,1.58.28,1.63,1.59,3.19,3.3,4.73,5.1,1.14,1.33,2.32,2.66,3.54,4Z"/><path class="cls-1" d="M224.69,301.15A12.35,12.35,0,0,1,221,299.5a11.31,11.31,0,0,1-2.86-2.83,9.59,9.59,0,0,1-.78-1.27,6.12,6.12,0,0,1-.59-1.39,8.17,8.17,0,0,1,.24-5.26,6.44,6.44,0,0,1,.63-1.26,3.92,3.92,0,0,1,1.13-1.09,4.45,4.45,0,0,1,2.82-.58,41.74,41.74,0,0,1,4.12.76c.83.16,1.64.23,2.43.35a11.92,11.92,0,0,0,2.39,0c.5,0,.58.29.24.8a3.1,3.1,0,0,1-.86.82,3.34,3.34,0,0,1-1.48.56,12.6,12.6,0,0,1-1.49.11,12.91,12.91,0,0,1-1.42-.13c-.94-.13-1.8-.31-2.62-.45a14.19,14.19,0,0,0-2.09-.26,1.31,1.31,0,0,0-1.15.53,3.54,3.54,0,0,0-.53,1.12,3,3,0,0,0-.14.66,3.05,3.05,0,0,0-.07.67,6.35,6.35,0,0,0,.51,2.67,7.75,7.75,0,0,0,1.75,2.6,8.86,8.86,0,0,0,2.66,1.86,7.56,7.56,0,0,0,3.91.68,6.51,6.51,0,0,0,5.05-2.86,3.88,3.88,0,0,0,.46-2.08,4.66,4.66,0,0,0-.72-1.94c-.18-.26-.41-.49-.59-.74a4,4,0,0,1-.72-1.11,1.4,1.4,0,0,1-.1-.44,3.54,3.54,0,0,1,.07-.47c0-.14,0-.28,0-.38,0-.25.89-.42,1.87.24a6.29,6.29,0,0,1,2.54,5,6.53,6.53,0,0,1-.84,3,7.83,7.83,0,0,1-2,2.24,9.45,9.45,0,0,1-3.92,1.64,9.7,9.7,0,0,1-4.19-.13Z"/><path class="cls-1" d="M234.7,319.83a7.23,7.23,0,0,1-4.53-2.7,6.38,6.38,0,0,1-1-1.7,5.56,5.56,0,0,1-.13-3.49c.08-.28.19-.54.29-.81a4.37,4.37,0,0,1,.46-.84,3,3,0,0,1,1.75-1.15,7.17,7.17,0,0,1,2.9.21c1.09.16,2,.56,2.89.73.28.06.36.39.12.82a2.2,2.2,0,0,1-1.64,1,6.15,6.15,0,0,1-1.74-.07,12,12,0,0,0-1.37-.15,2,2,0,0,1-.61,0c-.07-.05-.26,0-.47.4a2.45,2.45,0,0,0-.34,1.43,5,5,0,0,0,.38,1.47,4.83,4.83,0,0,0,2.59,2.45,4,4,0,0,0,2.26.22,3.74,3.74,0,0,0,2.77-1.89,2.13,2.13,0,0,0-.3-2.22,4.27,4.27,0,0,1-.36-.38,1.26,1.26,0,0,1-.32-.69.93.93,0,0,1,0-.33c0-.14.09-.28.14-.41l.11-.32c.07-.23.76-.53,1.47-.13a4.06,4.06,0,0,1,1.81,3.39,5,5,0,0,1-1.76,3.73,6.63,6.63,0,0,1-5.36,1.51Z"/><path class="cls-1" d="M212,190.14c1.16,5.28,6.32,12.7,12.11,13.37,8.41,1,9-10.92,8.78-16.49-.06-1.7-2.71-1.71-2.65,0,.16,4.27-.25,17-7.66,13.24-3.78-1.89-7.13-6.75-8-10.83-.36-1.66-2.92-1-2.56.71Z"/><path class="cls-1" d="M239.12,193.13c1.16,2.53,2.16,4.44,4.6,5.89,1.75,1,3.57,1.1,5-.51,2.68-3,3.1-9.62,1.94-13.33-.51-1.62-3.07-.93-2.56.7a15.47,15.47,0,0,1-.67,9.64c-1.86,4.38-5.14-1.83-6-3.73-.72-1.54-3-.2-2.29,1.34Z"/><path class="cls-1" d="M226.62,166.24c-5.54-6.91-16.51-1.18-22.52,2-1.84,1-.2,3.79,1.64,2.8,4.57-2.44,14.25-8,18.58-2.54,1.31,1.63,3.6-.69,2.3-2.3Z"/><path class="cls-1" d="M225,233.22c3.43,2.75,6.92,4.35,11.27,2.78,1.66-.59.94-3.25-.73-2.65-3.39,1.23-5.9.09-8.59-2.07-1.37-1.1-3.33.83-1.95,1.94Z"/><path class="cls-1" d="M343.72,277.51c.28.05.22.4-.05.92a2.07,2.07,0,0,1-.58.57c-.19,0-.38.05-.54.05s-1.15-.58-1.54-.72a5.18,5.18,0,0,1-1-.59c-.64-.46-1.31-.88-2-1.32a1.74,1.74,0,0,1-.4-.37,5.17,5.17,0,0,0-1.47-1.16.45.45,0,0,0-.31-.1,5.7,5.7,0,0,1-1.74-1.23c-.34-.5-.7-.95-1-1.42-.05-.07-.14-.1-.12-.23,0-.31-.13-.39-.24-.52a2.21,2.21,0,0,1-.42-.61,1.23,1.23,0,0,1-.06-.45c0-.15.28-.36.34-.36s.2-.19.3-.3a.55.55,0,0,1,.1-.11,8.14,8.14,0,0,1,1.58.4l.27.17.58.36c.43.25.89.5,1,.54a.79.79,0,0,1,.23.25c0,.05,1.43.72,1.47.77.23.21.56.32.68.7a.29.29,0,0,0,.14.13,8.88,8.88,0,0,1,1.31,1.07c.22.19.47.34.7.51a.71.71,0,0,1,.1.14,1,1,0,0,0,.13.16c.57.39,1,.91,1.65,1.28.14.09.55.79.71.89S343.62,277.5,343.72,277.51Z"/><path class="cls-1" d="M353.33,272.23c.27.17.12.52-.25,1-.12.16-.59.44-.7.39a2.6,2.6,0,0,1-.61-.28,13.39,13.39,0,0,1-1.49-2.15,7,7,0,0,1-.7-1.67,31.05,31.05,0,0,1-.81-3.53,2.68,2.68,0,0,1,0-.8,14.53,14.53,0,0,0,0-2.72.8.8,0,0,0-.1-.45,9.71,9.71,0,0,1,0-3c.25-.78.54-1.55.84-2.3,0-.11,0-.24.16-.32.31-.18.33-.42.41-.65a2.89,2.89,0,0,1,.46-.93,2.69,2.69,0,0,1,.44-.37c.14-.11.41.07.44.13s.24.1.37.13l.14.05a15.72,15.72,0,0,1,.32,2.1c0,.05-.09,2.59,0,2.89a1.19,1.19,0,0,1-.11.44c0,.07.14,2.12.15,2.19,0,.43.1.84-.12,1.27a.46.46,0,0,0,0,.26c.1.72.08,1.45.11,2.18a8.12,8.12,0,0,0,.17,1.1.75.75,0,0,1,0,.21,1.13,1.13,0,0,0,0,.26,12.43,12.43,0,0,0,.65,2.52,11.46,11.46,0,0,0,.3,1.36C353.38,271.61,353.2,272.16,353.33,272.23Z"/><path class="cls-1" d="M376.43,278.5c1.28-1.32,2.58-2.62,3.68-4l.17-.21,0-.05.09-.1a1.18,1.18,0,0,0,.15-.25.19.19,0,0,0-.1-.25,1,1,0,0,0-.29,0,.88.88,0,0,0-.22.1l-.14.09-.36.27a15.56,15.56,0,0,0-1.39,1.22c-1.62,1.56-3.06,3.44-4.65,5.25a23.17,23.17,0,0,1-2.63,2.61,8.67,8.67,0,0,1-1.65,1.07,5.88,5.88,0,0,1-1,.36,5.07,5.07,0,0,1-.6.11l-.66,0a3,3,0,0,1-1.07-.25,1,1,0,0,1-.69-.73,2.91,2.91,0,0,1,.49-2.12,27.7,27.7,0,0,1,1.86-2.7c.81-1.07,1.63-2.14,2.38-3.21a17.86,17.86,0,0,0,1-1.58,3.56,3.56,0,0,0,.32-.72c0-.24.06-.23,0-.31s-.14-.13-.2-.19a.25.25,0,0,1-.06-.23.34.34,0,0,1,.19-.22.77.77,0,0,1,.54-.11,1,1,0,0,1,.43.18,1.33,1.33,0,0,1,.35.48,2.53,2.53,0,0,1,.15,1.21,5.53,5.53,0,0,1-.82,2.24c-.79,1.22-1.65,2.3-2.47,3.38-.42.54-.82,1.07-1.2,1.6-.19.26-.37.53-.54.79l-.11.19-.08.12h0s-.06.09,0,.11l.08,0,.24,0,.35-.12a10,10,0,0,0,2.88-2.19c1.11-1.13,2.15-2.45,3.22-3.78a26.07,26.07,0,0,1,3.61-3.85c.19-.16.4-.31.61-.46l.31-.22.49-.3c.33-.19.67-.31,1-.47a8,8,0,0,1,1-.28l.46-.05.23,0,.19,0a1.46,1.46,0,0,1,.75.27,1.42,1.42,0,0,1,.54.7,2.06,2.06,0,0,1,.07.82,4.29,4.29,0,0,1-.68,1.79,10.45,10.45,0,0,1-.62.91c-.19.27-.31.41-.47.61-.61.74-1.24,1.45-1.88,2.14l-2.35,2.49c-.39.42-.77.83-1.13,1.25-.17.21-.34.42-.48.62a1.86,1.86,0,0,0-.17.25s0,0,0,0h0l-.1,0-.2-.05c-.23-.06-.36,0-.3,0a.72.72,0,0,0,.08-.39c0-.12,0-.27,0-.22h0l.11,0a2.34,2.34,0,0,1,.26,0,3.35,3.35,0,0,0,.54-.08,4.55,4.55,0,0,0,1.06-.35,9.4,9.4,0,0,0,2-1.33,29.63,29.63,0,0,0,3.47-3.68c.86-1,1.67-2.08,2.58-3.08a16.39,16.39,0,0,1,3.1-2.8A7.62,7.62,0,0,1,390,270a4.5,4.5,0,0,1,2.67-.11,1.48,1.48,0,0,1,1,.78,2.13,2.13,0,0,1,.19.42c0,.47-.88.32-2.13.57-1.87.37-3.46,2-5,3.79s-3.06,3.76-4.91,5.66a18,18,0,0,1-2.36,2,8.14,8.14,0,0,1-3.16,1.35l-.46.06-.2,0s.1,0,0,0a2.42,2.42,0,0,1-1,0,1.82,1.82,0,0,1-.64-.28,1.71,1.71,0,0,1-.6-.79,1.58,1.58,0,0,1-.1-.43,2.44,2.44,0,0,1,0-.27,2.1,2.1,0,0,1,.07-.41,2.77,2.77,0,0,1,.31-.71c.1-.16.19-.28.27-.4s.34-.43.51-.63c.65-.76,1.3-1.44,1.95-2.12Z"/><path class="cls-1" d="M372,284.51a6.5,6.5,0,0,1-1,.21l-1,.08a4.74,4.74,0,0,1-.24-.65,2.43,2.43,0,0,1-.16-.67,3.18,3.18,0,0,1,.05-.74,3.52,3.52,0,0,1,.27-.79c.12-.25.27-.6.36-.73l.29-.45c.2-.29.41-.56.62-.83.84-1.07,1.75-2,2.64-3,.75-.79,1.49-1.61,2.14-2.39a5,5,0,0,0,.36-.48l.05-.09v0s0,0,.11,0a.77.77,0,0,0,.26.07H377a.1.1,0,0,0,.1,0,.19.19,0,0,0-.07.08v0a.38.38,0,0,0-.06.13,1,1,0,0,0-.06.29c0,.13,0,.1,0,.1h0c-.06,0-.07,0-.28,0a1.09,1.09,0,0,1-.31,0l-.26,0a.74.74,0,0,0-.26,0,5,5,0,0,0-2.35.68,28.75,28.75,0,0,0-4.55,3.33c-1.3,1.1-2.57,2.27-3.89,3.38a13.54,13.54,0,0,1-5.85,3.3c-.72.11-.64-.18-.18-.61a22.1,22.1,0,0,1,2.19-1.81,51.05,51.05,0,0,0,5.07-4.07,46.62,46.62,0,0,1,5.34-4.26,13.41,13.41,0,0,1,1.91-1.05,5.63,5.63,0,0,1,2.33-.56,1.83,1.83,0,0,1,.33,0l.22,0h.09a1.34,1.34,0,0,1,.33,0,1.36,1.36,0,0,1,.48,0l.16,0a.88.88,0,0,1,.21.1,1,1,0,0,1,.39.43,1.15,1.15,0,0,1,.11.52,1.91,1.91,0,0,1-.06.33,2.7,2.7,0,0,1-.17.38,10.55,10.55,0,0,1-1.42,1.75c-1.06,1.12-2.13,2.17-3.13,3.27a21.84,21.84,0,0,0-1.39,1.69c-.11.15-.2.29-.3.44l-.15.27a1.09,1.09,0,0,0-.16.48c0,.06,0,.12,0,.17l0,.08h.08a1.73,1.73,0,0,0,.54-.11,1.83,1.83,0,0,0,.29-.14,3.43,3.43,0,0,0,.49-.28,12.78,12.78,0,0,0,1.81-1.45c.51-.47,1-1,1.57-1.44s1.11-.9,1.68-1.34c1.13-.86,2.29-1.68,3.45-2.48,1.82-1.24,3.6-2.44,5.48-3.55.41-.24.81-.49,1.23-.72,1.58-.85,2.15-1,2.71-.68a1.63,1.63,0,0,1,.37.21c.33.29-.19.87-1.3,1.53-3.27,2-6.71,3.95-9.95,6.29L378,280.16a20,20,0,0,0-1.66,1.41c-.56.51-1.14,1-1.78,1.54a11.09,11.09,0,0,1-1,.72,6.22,6.22,0,0,1-.56.32c-.26.14-.65.27-1,.4Z"/><path class="cls-1" d="M243.75,170.7a9,9,0,0,1,5.52-1.11c1,.13,3.55.59,3.66,2,.18,2.06,3.43,2.08,3.25,0-.52-6.39-10.05-6-14.07-3.67-1.82,1-.18,3.84,1.64,2.81Z"/><path class="cls-1" d="M181.92,257.4c.06-.28.41-.22.89.07a1.77,1.77,0,0,1,.5.59,3.24,3.24,0,0,1,.05.5,8.61,8.61,0,0,0-.49,1.34,5,5,0,0,1-.34.91,10,10,0,0,0-.56,1.93,1.79,1.79,0,0,1-.16.44,3.11,3.11,0,0,0-.33,1.58.37.37,0,0,0,.06.28,7.2,7.2,0,0,1,0,1.8,9.12,9.12,0,0,0-.3,1.47c0,.07,0,.14-.06.22s-.16.32-.16.48a4.86,4.86,0,0,1,0,.65,1.36,1.36,0,0,1-.2.37c-.07.11-.4.14-.44.12s-.26,0-.39.08l-.14,0a6.09,6.09,0,0,1-1-1.35s-.12-.52-.24-1.05-.2-1.07-.23-1.2a.8.8,0,0,1,.06-.37c0-.05-.19-1.68-.15-1.75a1.74,1.74,0,0,1,.27-1,.35.35,0,0,0,0-.2,6.92,6.92,0,0,1,.46-1.7c.09-.3.18-.58.26-.87a1.21,1.21,0,0,1,.1-.14,1.08,1.08,0,0,0,.11-.18c.24-.68.64-1.29,1-2a2.57,2.57,0,0,1,.4-.44,2.39,2.39,0,0,0,.45-.42C181.39,257.53,181.89,257.5,181.92,257.4Z"/><path class="cls-1" d="M198.48,266c0-.18.22-.18.61-.07a1.46,1.46,0,0,1,.48.29,2.16,2.16,0,0,1,.14.33c0,.06-.11.75-.09,1a2.77,2.77,0,0,1-.12.65,11.24,11.24,0,0,0-.26,1.31,1.08,1.08,0,0,1-.11.28,1.82,1.82,0,0,0-.26,1c0,.06,0,.12,0,.18a3.29,3.29,0,0,1,0,1.17,8,8,0,0,0-.34.93c0,.05,0,.09-.07.14s-.15.19-.17.29a1.53,1.53,0,0,1-.1.41c0,.07-.14.14-.22.21a.63.63,0,0,1-.4,0c-.09-.06-.23,0-.35,0h-.12a3.3,3.3,0,0,1-.59-.92s-.13-1.21-.15-1.4,0-.15.06-.22-.06-1.05,0-1.09c0-.21,0-.43.2-.61,0,0,0-.08,0-.12a3.57,3.57,0,0,1,.29-1.05c.06-.18.1-.36.15-.54a.47.47,0,0,1,.06-.09.26.26,0,0,0,.07-.11c.13-.42.36-.81.48-1.24,0-.1.41-.46.44-.57S198.49,266,198.48,266Z"/><path class="cls-1" d="M229.3,268.14c-.1,0,0-.14.29-.33a1.8,1.8,0,0,1,.41-.19,1,1,0,0,1,.26,0,3,3,0,0,1,.47.5,1.06,1.06,0,0,1,.2.43,6.08,6.08,0,0,1,.16.95.39.39,0,0,1,0,.21,1.74,1.74,0,0,0-.11.7s0,.08,0,.12,0,.69-.1.75-.25.34-.37.5,0,.05-.08.06-.14.08-.17.13a.53.53,0,0,1-.15.19.43.43,0,0,1-.19.06.54.54,0,0,1-.27-.08.52.52,0,0,0-.23-.08l-.09,0a2,2,0,0,1-.26-.56,5,5,0,0,0,0-.68s0-.06,0-.09a3.73,3.73,0,0,0,0-.48c0-.08,0-.17.12-.25a.06.06,0,0,0,0-.05,1.4,1.4,0,0,1,.06-.45,1.5,1.5,0,0,0,0-.22s0,0,0,0,0,0,0-.05a1.41,1.41,0,0,0-.12-.53s.05-.27,0-.31S229.35,268.15,229.3,268.14Z"/><path class="cls-1" d="M263.6,423.87l-1.53.32-.55.14c-.66.13-1.31.25-2,.4a6.36,6.36,0,0,0-.85.25,4.62,4.62,0,0,1-1.08.32c-.24,0-.21-.87.2-1a11.78,11.78,0,0,1,2.28-.52,13.36,13.36,0,0,0,1.39-.33l1.53-.34.94-.22c.48-.12.95-.23,1.41-.38s.69-.29,1-.44l.22-.1c.29-.12.4-.09.54.12a1.1,1.1,0,0,1,.09.14.36.36,0,0,1-.17.48,7.7,7.7,0,0,1-1.94.8c-.51.15-1,.27-1.54.39Z"/><path class="cls-1" d="M407.75,224.35c1.18,1.93,2.63,3.76,4,5.63l.76,1,.42.59a4.93,4.93,0,0,1,.54.91,1,1,0,0,1,.07.57c0,.13-.22.44-.45.26l-.67-.22a2.85,2.85,0,0,1-.72-.29c-.71-.39-1.32-.77-2-1.19a33.06,33.06,0,0,1-3.57-2.77,37.77,37.77,0,0,1-2.82-2.84,26.42,26.42,0,0,1-3-4.1c-.53-.91.45.06,1.67,1.54a41,41,0,0,0,7.42,7,24.92,24.92,0,0,0,2.61,1.66l.23.12c.06,0,.2.13.19,0a.7.7,0,0,0-.11-.23c-.07-.1,0-.06-.23-.34-1.37-1.87-2.88-3.67-4.25-5.58-.41-.58-.82-1.17-1.18-1.8a5.41,5.41,0,0,1-.48-1,1.25,1.25,0,0,1-.05-.76.69.69,0,0,1,.54-.47l.09,0a1.69,1.69,0,0,1,1,.12,4.51,4.51,0,0,1,.78.44,11.2,11.2,0,0,1,1.3,1.07c.82.75,1.55,1.57,2.29,2.36,1.14,1.23,2.31,2.4,3.52,3.49.26.25.52.48.79.72,1,.9,1.25,1.18,1.32,1.62a1.55,1.55,0,0,1,0,.29c0,.28-.64.19-1.53-.39a18,18,0,0,1-3.51-3.08l-3.14-3.45a19.91,19.91,0,0,0-1.4-1.48,5.14,5.14,0,0,0-.73-.58,1.7,1.7,0,0,0-.34-.16l-.08,0h0v0l.08.23a8,8,0,0,0,.58,1.12Z"/><path class="cls-1" d="M95.89,343.07a8,8,0,0,1-.8.74,7.56,7.56,0,0,1-.93.58,5,5,0,0,1-1,.37,5.68,5.68,0,0,1-1,.17,13.2,13.2,0,0,1-3.59-.14,7.18,7.18,0,0,1-2.66-.9A5.55,5.55,0,0,1,84,342a5.41,5.41,0,0,1-.69-2.5,8,8,0,0,1,1.4-4.45,11.94,11.94,0,0,1,2.69-2.93,9.13,9.13,0,0,1,2.18-1.32,6.83,6.83,0,0,1,2.47-.52c.53,0,.49.41.17.91a4.67,4.67,0,0,1-1.56,1.49,15.7,15.7,0,0,0-1.77,1.07,11.06,11.06,0,0,0-1.5,1.4,7.83,7.83,0,0,0-1.8,3.53A2.89,2.89,0,0,0,86,340.8a3.39,3.39,0,0,0,1.74,1.36,7.84,7.84,0,0,0,2.8.49c.5,0,1,0,1.52-.07l.62-.11c.18-.09.38-.15.57-.25a3.74,3.74,0,0,0,1.18-1.07,4,4,0,0,0,.64-1.52,2.19,2.19,0,0,0-.55-2,2.51,2.51,0,0,0-2.2-.25,1.92,1.92,0,0,0-1.22,1.08,1.23,1.23,0,0,0-.11.6.82.82,0,0,0,.17.44.6.6,0,0,0,.33.16c.21.06.33.05.47.16a1.6,1.6,0,0,1,.61.54c.11.13.24.26.34.39a.61.61,0,0,1,0,.77,1.85,1.85,0,0,1-.47.45,4.42,4.42,0,0,1-1,.28,6.73,6.73,0,0,1-.89,0,5.63,5.63,0,0,1-.85-.28,2.75,2.75,0,0,1-1.21-1.37,3.35,3.35,0,0,1-.27-1.92,7.69,7.69,0,0,1,.25-1c.12-.27.27-.51.4-.78a4.78,4.78,0,0,1,2.71-2,3.17,3.17,0,0,1,.79-.16,3.59,3.59,0,0,1,.8-.05l.79.05a7,7,0,0,1,.85.21,4.57,4.57,0,0,1,1.23.65,4.2,4.2,0,0,1,.94,1.08,4.59,4.59,0,0,1,.63,2.46,6.63,6.63,0,0,1-1.59,4Z"/><path class="cls-1" d="M434.29,189.41c.11.14.24.26.36.4a4.56,4.56,0,0,0,.42.31,1.92,1.92,0,0,0,.46.21,2.48,2.48,0,0,0,.57.14,10.37,10.37,0,0,0,2.87.13,5.21,5.21,0,0,0,1.8-.57,3.06,3.06,0,0,0,1.69-2.4,5.83,5.83,0,0,0-.72-3.47,7.36,7.36,0,0,0-2.22-2.52,10.63,10.63,0,0,0-1.89-1.06,21.65,21.65,0,0,0-2-.81c-.43-.16-.34-.56.15-.92a2.88,2.88,0,0,1,2.44-.37,10,10,0,0,1,4.48,3.09,8.55,8.55,0,0,1,2,5.18,6.26,6.26,0,0,1-.88,3.52,5.44,5.44,0,0,1-2.86,2.24,9.52,9.52,0,0,1-3.62.45c-.59,0-1.16-.11-1.73-.18-.31-.06-.66-.16-1-.25a9.44,9.44,0,0,1-.9-.45,5.67,5.67,0,0,1-1.67-1.71,6,6,0,0,1-.8-2.2,3.73,3.73,0,0,1,1.17-3.5,4.4,4.4,0,0,1,.87-.49,4.6,4.6,0,0,1,.93-.21,5,5,0,0,1,1.8.12,4.15,4.15,0,0,1,2.43,1.62,3.36,3.36,0,0,1,.41,3.33,2.15,2.15,0,0,1-1.1,1.12l-.34.16-.33.05a2.6,2.6,0,0,1-.6.06,4.2,4.2,0,0,1-.87-.22,1.09,1.09,0,0,1-.53-.91,2.19,2.19,0,0,1,0-.51.9.9,0,0,1,.47-.59,1.56,1.56,0,0,1,.37-.17c.1-.05.16-.11.22-.14a.37.37,0,0,0,.2-.45.3.3,0,0,0-.1-.14l-.05,0-.11-.16a1.44,1.44,0,0,0-.76-.5,1,1,0,0,0-.27-.06.92.92,0,0,0-.29,0h-.3c-.1,0-.14,0-.22,0s-.13.07-.23.06-.11,0-.14.13a1.18,1.18,0,0,0-.23.64,3.09,3.09,0,0,0,.68,2Z"/><path class="cls-1" d="M296.54,101c-.11.23-.38.11-.78-.2a1.32,1.32,0,0,1-.35-.57,2.25,2.25,0,0,1,.16-.48,12.15,12.15,0,0,1,1.4-1.19,4.77,4.77,0,0,1,1.13-.62,24,24,0,0,1,2.42-.86,1.77,1.77,0,0,1,.56-.09,8.59,8.59,0,0,0,1.9-.33.52.52,0,0,0,.3-.12,7.19,7.19,0,0,1,2.05-.43c.56,0,1.11,0,1.65.08.08,0,.16,0,.24,0a.58.58,0,0,0,.52.11,3.29,3.29,0,0,1,.7,0,1.25,1.25,0,0,1,.37.18c.11.07.1.38.07.41s0,.24.05.36a.83.83,0,0,1,0,.13,6.45,6.45,0,0,1-1.38.82l-1,.24c-.5.12-1,.25-1.12.29a.78.78,0,0,1-.34,0c-.06,0-1.52.43-1.57.44a2.07,2.07,0,0,1-.93.08.31.31,0,0,0-.19,0c-.51.16-1,.22-1.55.33-.26,0-.51.17-.76.24a.38.38,0,0,1-.15,0,1,1,0,0,0-.18,0,9.54,9.54,0,0,0-1.74.73,9.82,9.82,0,0,0-1,.32C297,101,296.59,100.91,296.54,101Z"/><path class="cls-1" d="M283.31,85c.15.21-.16.36-.75.49a2,2,0,0,1-.83-.06,3.5,3.5,0,0,1-.38-.4,13.73,13.73,0,0,1-.24-1.79,3.89,3.89,0,0,1,.08-1.23c.15-.82.3-1.63.5-2.42a1.94,1.94,0,0,1,.2-.5,5.37,5.37,0,0,0,.62-1.73c0-.1.07-.19,0-.31a6.76,6.76,0,0,1,.54-1.91,15.08,15.08,0,0,0,.79-1.4c0-.06,0-.15.13-.19s.24-.27.3-.42a3.19,3.19,0,0,1,.31-.61,1.36,1.36,0,0,1,.3-.28c.09-.08.33,0,.36.06s.2.06.31.07l.11,0A6.43,6.43,0,0,1,286,74s-.06.51-.11,1-.12,1.06-.12,1.17a.76.76,0,0,1-.13.31c0,.06-.17,1.59-.18,1.65-.1.3-.1.62-.37.86a.23.23,0,0,0-.07.17,11.15,11.15,0,0,1-.47,1.52,6.76,6.76,0,0,0-.17.78s-.06.08-.08.13a.53.53,0,0,0-.08.17,10.38,10.38,0,0,0-.3,1.84c0,.14-.33.78-.31,1S283.25,85,283.31,85Z"/></g></svg>