<svg xmlns="http://www.w3.org/2000/svg" width="520" height="520" viewBox="0 0 520 520"><defs><style>.cls-1,.cls-2{fill:#231f20;}.cls-2,.cls-3{opacity:0.2;}</style></defs><title>Notioly New</title><g id="_144.Paperboy" data-name="144.Paperboy"><g id="n.136_Trading" data-name="n.136 Trading"><path class="cls-1" d="M385.51,479c-.11-.09,0-.22.33-.37a1.16,1.16,0,0,1,.45-.09,1.38,1.38,0,0,1,.27.11s.35.52.48.68a1.64,1.64,0,0,1,.27.48c.15.35.32.68.49,1a.72.72,0,0,1,.07.25,1.76,1.76,0,0,0,.32.83s0,.1.11.11a2,2,0,0,1,.49.89c0,.3,0,.57.06.86,0,0,0,.07,0,.13a.26.26,0,0,0,0,.29,1.51,1.51,0,0,1,0,.37.61.61,0,0,1-.1.22.41.41,0,0,1-.27.11c-.08,0-.16.05-.24.09l-.08,0a4.51,4.51,0,0,1-.75-.45l-.27-.42c-.14-.2-.3-.42-.34-.46s0-.11,0-.17-.42-.67-.42-.7-.17-.28-.1-.48a.16.16,0,0,0,0-.1,4,4,0,0,1-.26-.8,2.74,2.74,0,0,0-.15-.4s0-.06,0-.08a.4.4,0,0,0,0-.11c-.13-.31-.18-.66-.33-1,0-.08,0-.49,0-.57S385.56,479,385.51,479Z"/><path class="cls-1" d="M263.65,97.09a9.57,9.57,0,0,0-.61,2.23,1.23,1.23,0,0,0,.84,1.47,1.2,1.2,0,0,0,1.47-.83,9.65,9.65,0,0,1,.61-2.24,1.2,1.2,0,1,0-2.31-.63Z"/><path class="cls-1" d="M251.19,98c-.34.69-.65,1.39-.94,2.11a1.22,1.22,0,0,0,.84,1.48,1.24,1.24,0,0,0,1.48-.84c.21-.52.44-1,.69-1.54a1.23,1.23,0,0,0-.43-1.64,1.2,1.2,0,0,0-1.64.43Z"/><polygon class="cls-1" points="100.13 151.17 109.32 140.97 118.36 135.58 100.13 152.96 100.13 151.17"/><path class="cls-1" d="M400.81,249.36c.28-.32.57-.62.88-.93.11-.11.19-.25.31-.35a6.08,6.08,0,0,1,1.48-1,4.07,4.07,0,0,1,.81-.28,1.18,1.18,0,0,1,1.13.2c.1.09-.09.37-.29.65a4.39,4.39,0,0,1-.42.58l-1,.27a2.27,2.27,0,0,0-.74.62c-.26.27-.53.54-.79.84s-.31.37-.46.57a7.41,7.41,0,0,0-.64.91c-.16.25-.2.55-.35.82a1,1,0,0,1-.08.18c-.15.21-.28.22-.6,0l-.21-.13a.67.67,0,0,1-.34-.55,2.72,2.72,0,0,1,.52-1.5c.22-.34.48-.67.74-1Z"/><path class="cls-1" d="M378.9,258.44c-.61-.11-1.22-.24-1.82-.37-.22-.06-.48-.09-.7-.17a15.39,15.39,0,0,1-2.2-1,8.88,8.88,0,0,0-.94-.44c-.4-.17-.81-.29-1.2-.5s.28-.67.81-.52a14,14,0,0,1,2.49,1.1,6,6,0,0,0,1.5.48c.56.1,1.18.19,1.78.27l1.11.13c.56,0,1.13.11,1.69.1a11.24,11.24,0,0,0,1.3-.15l.29,0c.35,0,.46.1.54.44a2,2,0,0,1,.05.24.53.53,0,0,1-.38.58,5.83,5.83,0,0,1-2.46.17c-.62-.05-1.24-.15-1.86-.25Z"/><path class="cls-1" d="M396.79,267.39a43.55,43.55,0,0,1-4.76,1.45c-.59.14-1.18.29-1.78.41s-1.06.15-1.59.21a12.33,12.33,0,0,1-1.61.12l-1.61,0-1.6-.15a9.77,9.77,0,0,1-1.42-.23,11.07,11.07,0,0,1-1.39-.29c-.59-.18-1.16-.38-1.73-.61s-1.05-.62-1.55-.95c-.32-.21-.17-.34.2-.38a4.26,4.26,0,0,1,1.6.19c1.13.25,2.2.56,3.33.7a13.79,13.79,0,0,0,1.7.17l.86.09.88,0h1.06l1.07-.15c.35-.06.71-.1,1.07-.17l1.06-.25a36.14,36.14,0,0,0,4.61-1.34c.92-.35,1.85-.7,2.76-1.11a40,40,0,0,0,4-2,31.09,31.09,0,0,0,2.84-2,6.26,6.26,0,0,1,.62-.43c.8-.5,1.12-.57,1.52-.36a1.61,1.61,0,0,1,.26.15c.24.19.07.62-.44,1.13a14.75,14.75,0,0,1-2.52,2.05,28.3,28.3,0,0,1-2.88,1.7,43.6,43.6,0,0,1-4.57,2.05Z"/><path class="cls-2" d="M346.1,220.39s-20.21,5.93-20.39,8.31,6.74,15.74,6.74,15.74,20.25-6.32,20.44-7.87-2.88-12-4.83-14.11Z"/><path class="cls-2" d="M341.26,254.48c-1.27.42-3.52.23-3.81,3.75s4.68,13.85,4.68,13.85,17.37-2.42,19.53-7.11-5.89-10.47-7.58-12.54l-1.69-2.07Z"/><path class="cls-2" d="M132.13,191.57s3.41-7.14,6.21-5.88,20.3,23.71,20.3,23.71-1.67,7-4.82,4.57-16.68-14.06-19.18-18.23Z"/><path class="cls-2" d="M158,188.86l5.61-5.46,13.52,16.48s-3.44,5.75-5.22,5.29c-4.24-1.08-11.09-12.31-12.23-13.26A6.94,6.94,0,0,1,158,188.86Z"/><path class="cls-1" d="M172,192.68c.88,1.2,1.76,2.39,2.66,3.55.33.42.69.82,1,1.23l.78.93.4.45.2.22.34.35.16.24.08.13c0,.05,0,.09,0,.14a1.12,1.12,0,0,1-.2.57,5.76,5.76,0,0,1-.63.81c-.37.41-.75.8-1.14,1.19l-1.81,1.8a11.88,11.88,0,0,1-2.54,2.12c-.35.17-.43-.15-.36-.54a2.18,2.18,0,0,1,.71-1.31c.81-.7,1.6-1.45,2.39-2.19l1.17-1.13.57-.57.27-.28c.09-.09.2-.23.21-.21s.16-.16.05-.22l-.94-1c-.36-.39-.7-.78-1-1.18-1-1.17-1.85-2.36-2.76-3.56L170,192c-.84-1.1-1.68-2.21-2.59-3.24a18.27,18.27,0,0,0-2.25-2.16l-.52-.39-.59-.42a.61.61,0,0,1-.1-.14.64.64,0,0,0-.13-.17.77.77,0,0,0-.2-.13c-.11-.07-.13-.2.11-.4a1.24,1.24,0,0,1,1,0,7.71,7.71,0,0,1,2.51,1.87,29.12,29.12,0,0,1,2,2.28c1,1.16,1.85,2.37,2.76,3.55Z"/><path class="cls-1" d="M149.53,196.75l3.22,4.6L154,203a55.23,55.23,0,0,0,4.45,5.6l.32.31a1.66,1.66,0,0,1,.36.45,1.32,1.32,0,0,1-.32,1.09,9.86,9.86,0,0,1-1.14,1.25,13.22,13.22,0,0,1-3.35,2.49c-.4.19-.49-.11-.33-.55a3.26,3.26,0,0,1,1.12-1.47c.54-.4,1.06-.83,1.56-1.27l.71-.67.31-.35.12-.15h0s0,0,0-.07c-.26-.26-.49-.53-.74-.8-.47-.54-.91-1.09-1.34-1.66-1-1.36-2.14-2.72-3.16-4.1-1.12-1.53-2.2-3.08-3.29-4.62l-2-2.84c-1-1.42-2.07-2.85-3.17-4.19a23.19,23.19,0,0,0-2.78-2.82c-.22-.19-.44-.34-.65-.51-.41-.3-.66-.43-.79-.52s-.21-.2-.35-.29a1.67,1.67,0,0,0-.23-.12c-.13-.06-.13-.2.13-.41a1.07,1.07,0,0,1,.56-.15,1.9,1.9,0,0,1,.68.15,9.7,9.7,0,0,1,3.09,2.42c.87.93,1.68,1.93,2.46,2.94,1.17,1.51,2.26,3.06,3.37,4.6Z"/><path class="cls-1" d="M197.47,185.77c.26-1.2.5-2.42.72-3.65.08-.45.13-.9.22-1.36a17.43,17.43,0,0,1,.69-2.4,4,4,0,0,1,1.68-2.23,3.26,3.26,0,0,1,2.53,0,5.8,5.8,0,0,1,2.43,1.53c.19.23-.05.44-.43.54a1.89,1.89,0,0,1-1.32-.07,4.46,4.46,0,0,0-2.05-.62,1,1,0,0,0-.32,0,.67.67,0,0,0-.25.13,3.18,3.18,0,0,0-.65.8,10.66,10.66,0,0,0-.92,3.08c-.27,1.21-.48,2.44-.71,3.67-.15.76-.31,1.52-.47,2.28-.26,1.15-.58,2.29-.94,3.42a14.17,14.17,0,0,1-1,2.6c-.11.18-.2.36-.32.53-.5.62-.8.7-1.12.62l-.21-.07c-.21-.1-.14-.45,0-.93a38.19,38.19,0,0,0,1.54-4.35c.32-1.14.59-2.34.82-3.55Z"/><path class="cls-1" d="M210.74,177.21a3.51,3.51,0,0,0-1.65.39c-.21.1-.38.25-.58.37a6.49,6.49,0,0,0-1.87,1.68,2.94,2.94,0,0,0-.48,1,12.69,12.69,0,0,1-.3,1.36c-.06.14-.47.14-.85,0s-.77-.5-.72-.87a5.21,5.21,0,0,1,1.75-3.28,19.56,19.56,0,0,1,1.66-1.47,6.68,6.68,0,0,1,2.28-.95,4,4,0,0,1,1.62,0,3.31,3.31,0,0,1,2,1.42,6.35,6.35,0,0,1,.86,1.57c0,.12.08.24.11.37a.53.53,0,0,1-.1.51.85.85,0,0,1-.4.26l-.25.08a.93.93,0,0,1-.8-.33,10.47,10.47,0,0,0-1.21-1.74,1.37,1.37,0,0,0-1.06-.34Z"/><path class="cls-1" d="M299.17,443.37l3.14,1.87a7.3,7.3,0,0,0,3.37,1l3.2.16s-22,38.43-23.8,36.64c-2.05-2-2.95-6.4-2.95-6.4s-20.47-5.12-24.55-12.75,24.27,5.88,24.27,5.88Z"/><path class="cls-1" d="M374.29,445.7s8.74-1.38,8.63-3.37,4.32,37.48,4.32,37.48-23.51,10.81-31.58,9.85-12.07-1.27-6.83-4.06,29.46-9.74,29.46-9.74S373.34,448.54,374.29,445.7Z"/><path class="cls-1" d="M362.76,290.3s10,4.77,12.74,5.47,9,19.38,12,29.21,19.79,70.67,17.26,96.56l-.94,7.63s-11.34,15.58-42.62,12.5c0,0-7.72-2.08-13.69-23.38,0,0-3.24,22.27-12.06,25.47s-14,5.71-23.42,1.69-23.16-4.23-20.64-33.49,19.7-81,18.19-96.84Z"/><path class="cls-1" d="M349.08,272.07a14.84,14.84,0,0,1-5.23.66,3.66,3.66,0,0,1-2.08-.81,2.32,2.32,0,0,1-.61-.94l-.25-.76-.5-1.52-1-3.05c-.3-.9-.64-1.79-1-2.67a28.84,28.84,0,0,1-1.23-3.41c-.2-.74,1.14-.23,1.66,1.06.91,2.3,1.77,4.62,2.5,7,.22.71.48,1.43.75,2.14a8.5,8.5,0,0,0,.38.94,1.41,1.41,0,0,0,.61.46,5.23,5.23,0,0,0,2.18.24,14.14,14.14,0,0,0,2.39-.38,23.07,23.07,0,0,0,2.9-.89,28.45,28.45,0,0,0,4.18-2,21,21,0,0,0,2.83-2.08l.58-.51c.71-.62,1-.76,1.39-.64a2.14,2.14,0,0,1,.27.09c.27.13.15.59-.36,1.14a19.68,19.68,0,0,1-5.53,4,29.46,29.46,0,0,1-4.81,1.93Z"/><path class="cls-1" d="M339.07,243a49.75,49.75,0,0,1-5.28.9l-1,.12-1.26.12-.36,0c-.09,0-.12-.2-.18-.29l-.33-.67c-.14-.31-.23-.54-.35-.82-.22-.53-.43-1.06-.63-1.6-.4-1.07-.75-2.15-1.1-3.23s-.64-1.91-1-2.85c-.44-1.2-.92-2.37-1.26-3.6-.21-.77,1.16-.23,1.7,1.17.94,2.46,1.69,4.94,2.51,7.4a18.61,18.61,0,0,0,.89,2.19l.4.82c0,.09.08.07.15.06l.42,0a50.58,50.58,0,0,0,5.18-.78c1.05-.21,2.1-.48,3.13-.77a33.18,33.18,0,0,0,4.6-1.67,27,27,0,0,0,3.24-1.83c.24-.14.45-.31.68-.45.86-.54,1.16-.67,1.56-.48.09.05.19.08.26.13.24.18,0,.61-.58,1.1a24.52,24.52,0,0,1-6.26,3.46,42,42,0,0,1-5.18,1.62Z"/><path class="cls-1" d="M359.56,240.33A65,65,0,0,1,358,231.8c-.13-1-.32-2.08-.4-3.12-.31-3.67-.46-7.33-.7-11-.11-1.62-.28-3.24-.44-4.84-.12-1-.25-2.05-.37-3.07s-.11-2.07-.13-3.11c0-.65.22-.6.58-.1a8.87,8.87,0,0,1,1.27,2.61,61.37,61.37,0,0,1,.81,6.34c.15,2.12.24,4.24.29,6.37.06,2.55.38,5.18.64,7.76a72.11,72.11,0,0,0,1.25,8.42,35.8,35.8,0,0,0,1.49,5,26.89,26.89,0,0,0,3.82,6.82,27.35,27.35,0,0,0,4.25,4.22c.33.28.69.53,1,.81,1.24,1.05,1.57,1.5,1.63,2a1.55,1.55,0,0,1,0,.35c0,.16-.18.18-.51.12a4.58,4.58,0,0,1-1.37-.54,21.37,21.37,0,0,1-4.54-3.58,27.1,27.1,0,0,1-3.73-4.68,31.5,31.5,0,0,1-3.35-8.28Z"/><path class="cls-1" d="M283.26,164.67a10.75,10.75,0,0,1-.45-2.88,6.63,6.63,0,0,1,0-1.09,7.22,7.22,0,0,1,1.57-3.39c.33-.43.65-.85,1-1.25a18.86,18.86,0,0,1,1.28-1.51c.29-.3.58.55.15,1.22-.76,1.16-1.65,2.12-2.31,3.2a4.72,4.72,0,0,0-.57,2.18,8.52,8.52,0,0,0,.26,2.6,12.84,12.84,0,0,0,.5,1.56,16.54,16.54,0,0,0,1.11,2.28,19.17,19.17,0,0,0,1.12,1.6c.08.12.18.23.25.35.3.45.27.67.09.91a1.11,1.11,0,0,1-.11.16c-.13.13-.45.07-.73-.22a14.29,14.29,0,0,1-2.07-3.06,16.46,16.46,0,0,1-1.12-2.65Z"/><path class="cls-1" d="M275.21,175.18c-.55.08-1.11.13-1.66.16-.21,0-.41,0-.61,0a11.72,11.72,0,0,1-2.13-.19l-.93-.17a2.32,2.32,0,0,1-1.17-.48.25.25,0,0,1-.08-.12.12.12,0,0,1,.06-.08,1.12,1.12,0,0,0,.22-.11.84.84,0,0,1,.57-.17c.69.16,1.43.17,2.18.32a5.49,5.49,0,0,0,1.4,0c.52,0,1-.11,1.55-.2.32,0,.64-.11.95-.19a10.9,10.9,0,0,0,1.41-.41,8.78,8.78,0,0,0,1-.55l.21-.12a.48.48,0,0,1,.6.17l.11.13c.1.15.05.36-.12.56a2.25,2.25,0,0,1-.89.65,8.69,8.69,0,0,1-1,.42,14.77,14.77,0,0,1-1.62.41Z"/><path class="cls-1" d="M282.23,176.4c.2.37.4.74.62,1.09.09.13.2.24.28.36a9.43,9.43,0,0,0,1,1.28,3.38,3.38,0,0,0,.55.45,2.73,2.73,0,0,1,.75.52c.13.16-.54.85-.9.66a4.54,4.54,0,0,1-1.53-1.39c-.24-.34-.56-.61-.81-.93s-.53-.74-.77-1.11l-.43-.71c-.21-.35-.4-.72-.63-1.06s-.42-.48-.6-.73l-.13-.17c-.13-.22-.1-.33.14-.53l.16-.13a.48.48,0,0,1,.58,0,4,4,0,0,1,1.12,1.31c.21.37.43.73.65,1.1Z"/><path class="cls-1" d="M303.56,170.19l1.44-1.05.73-.53.39-.27a3,3,0,0,1,.69-.34,6.43,6.43,0,0,1,1.52-.27,17.27,17.27,0,0,1,4.73.55c.68.15,1.36.32,2,.52a5.05,5.05,0,0,1,2.39,1.29c.21.21-.08.52-.5.76a1.9,1.9,0,0,1-1.36.28,32.21,32.21,0,0,0-4.54-1.33,8.77,8.77,0,0,0-3,0c-.13,0-.25,0-.37.06s-.22,0-.26,0a.34.34,0,0,0-.17.09l-.35.26-1.38,1.07-1.69,1.36c-.84.69-1.69,1.38-2.46,2.15-.61.58-1.08,1.28-1.63,1.9-.12.14-.22.29-.35.42-.48.48-.73.53-1.21.27l-.33-.17c-.34-.24-.39-.67-.13-1.15a13.92,13.92,0,0,1,3-3.65c.88-.8,1.79-1.57,2.72-2.32Z"/><path class="cls-1" d="M303.58,113.53s-2.26,1.83-.83,4,8.45,5.28,15.1,0,20-19.47,20.84-34.21S331,37.75,295.55,48.51l-8.63,2.74s-9.13-20-28.2-15.58c0,0-9.66,1.43-10.3,8.37,0,0-.57,4.34,4.26,8.46,0,0-21.15-7.65-31.7,1.89s-2.5,26.36,3,30S244.3,90,256.74,83.33s20.54-10.52,20.54-10.52,7.21.11,10.25,4.19,5.93,8.48,5.1,12.59-4.06,12.83-.32,14.18,8.41-1.09,10.44-8.8a5.87,5.87,0,0,1,7.05,1.22s4.12,5.41,1.75,9.94-3.28,5.58-5.15,6.37A25.45,25.45,0,0,1,303.58,113.53Z"/><path class="cls-1" d="M278,146a22.86,22.86,0,0,1-8.76-1.59,26.88,26.88,0,0,1-2.94-1.35,29.33,29.33,0,0,1-8.39-7.39c-1-1.3-2-2.62-2.88-4-.55-.89-1.12-1.77-1.59-2.7a20.75,20.75,0,0,1-1.16-2.91c-.19-.63.22-.7.85-.4a5.91,5.91,0,0,1,2.12,1.94,58.31,58.31,0,0,0,7.07,9.77,21.1,21.1,0,0,0,6,4.24,20,20,0,0,0,7.79,2.11,22.61,22.61,0,0,0,5.06-.21,35.71,35.71,0,0,0,7.52-2,51.81,51.81,0,0,0,5.43-2.56l1.15-.63c1.49-.71,2-.77,2.6-.46a3.25,3.25,0,0,1,.37.21c.32.29-.13.9-1.14,1.62a41.25,41.25,0,0,1-10.37,4.81,32.17,32.17,0,0,1-8.77,1.49Z"/><path class="cls-1" d="M245.08,122.14a5.63,5.63,0,0,1-.52-3.89,13.32,13.32,0,0,1,1.06-3.25,20,20,0,0,1,1.07-2.18,37,37,0,0,1,5.22-6.47l2.53-2.61a25.23,25.23,0,0,1,3.45-3.08c.4-.27.61.06.58.63a3.34,3.34,0,0,1-.91,2c-2.13,2.25-4.35,4.35-6.43,6.61a21,21,0,0,0-3.12,4.62c-.92,1.76-1.76,3.77-1.57,5.55a2.25,2.25,0,0,0,1.18,1.85,1.88,1.88,0,0,0,.68.22,8.56,8.56,0,0,0,2.71-.2c.94-.18,1.89-.44,2.84-.7,1.47-.41,2.9-1,4.48-1.26a7.45,7.45,0,0,1,1.07-.16,3,3,0,0,1,1.46.19,1.08,1.08,0,0,1,.53.75,1.6,1.6,0,0,1,.07.42c0,.44-.55.73-1.32.84-2.32.35-4.95,1.18-7.81,1.83a15,15,0,0,1-3.49.42,4.31,4.31,0,0,1-3.8-2.1Z"/><path class="cls-1" d="M305.49,128a18.29,18.29,0,0,0,.88,2.1c.12.26.3.47.43.72a23.89,23.89,0,0,0,1.52,2.58,6.93,6.93,0,0,0,.87,1,5.47,5.47,0,0,1,1.16,1.24c.19.32-1.18,1.16-1.74.7a10.08,10.08,0,0,1-2.31-2.88c-.34-.66-.86-1.23-1.25-1.87a20.12,20.12,0,0,1-1.15-2.21c-.21-.46-.41-.93-.59-1.41-.29-.72-.51-1.47-.73-2.21A16.59,16.59,0,0,1,302,124a1.83,1.83,0,0,1,0-.4.75.75,0,0,1,.59-.79l.23-.08c.24,0,.5.14.76.44s.28.44.44.66a4.33,4.33,0,0,1,.3.66c.17.45.37.89.51,1.36.22.69.43,1.4.73,2.1Z"/><path class="cls-1" d="M298.89,160.87c1.85-1.74,3.83-3.28,5.74-4.84l2.05-1.74c2.51-2,5.11-3.79,7.37-5.92a17.09,17.09,0,0,0,2.65-3.08,10.64,10.64,0,0,0,1.77-4.6c.07-.51.4-.51.77,0a3.26,3.26,0,0,1,.51,2.7,11.73,11.73,0,0,1-2.95,5.19,26.58,26.58,0,0,1-4.28,3.75c-.91.67-1.8,1.36-2.68,2.07s-1.7,1.45-2.58,2.18c-1.92,1.58-3.86,3.12-5.66,4.78a43.48,43.48,0,0,0-3.16,3.21,24.94,24.94,0,0,0-3.78,5.58,22.23,22.23,0,0,0-1,2.4c-.23.83-.5,1.64-.67,2.49-.08.36-.14.73-.24,1.1a5.12,5.12,0,0,1-.47,1.42,1.3,1.3,0,0,1-.75.54,2.41,2.41,0,0,1-.41.13c-.42.07-.73-.6-.66-1.71a21.11,21.11,0,0,1,3.36-9.67,33.08,33.08,0,0,1,5-6Z"/><path class="cls-1" d="M330.2,152.76a28.72,28.72,0,0,0,2.78-6.62c.13-.42.16-.84.25-1.26s.12-.85.16-1.27a8.7,8.7,0,0,0,.1-1.07,3.4,3.4,0,0,0-.09-.9l-.12-.44a4,4,0,0,0-.21-.41c-.09-.14-.14-.29-.24-.42l-.32-.38a9.54,9.54,0,0,0-3.7-2.36,19.63,19.63,0,0,0-4-1l-5.35-.67c-.56-.08-.51-.38,0-.74a4.92,4.92,0,0,1,2.51-.89,13.58,13.58,0,0,1,2.92.11,26.36,26.36,0,0,1,2.9.53,13.39,13.39,0,0,1,5.51,2.7,12,12,0,0,1,1.39,1.45l.55.9a5.8,5.8,0,0,1,.4,1,3.22,3.22,0,0,1,.21,1.06,5.25,5.25,0,0,1,.06,1,16.1,16.1,0,0,1-.16,1.85,25.92,25.92,0,0,1-2.5,7.49,44.59,44.59,0,0,1-2.34,4.17c-1.26,2-2.69,4-4.09,5.89-1.11,1.47-2.08,3-3.25,4.42-.25.31-.49.62-.76.93s-.47.5-.67.68a3.08,3.08,0,0,1-.58.34,1.44,1.44,0,0,1-.92.1,2.15,2.15,0,0,1-.4-.09c-.35-.15-.21-.85.3-1.84,1.71-2.73,3.8-5.31,5.72-8a55.74,55.74,0,0,0,3.94-6.23Z"/><path class="cls-1" d="M303.24,168.47l1.4-1.06,1.5-1.11A2.09,2.09,0,0,1,307,166a3.13,3.13,0,0,1,.44,0h.32a12.4,12.4,0,0,1,1.78.16,34.89,34.89,0,0,1,5.67,1.66c.82.3,1.64.59,2.46.91a6.32,6.32,0,0,1,2.89,1.94c.23.35-.17.54-.65.64a2.45,2.45,0,0,1-1.56,0c-1.75-.85-3.77-1.62-5.8-2.38a16.45,16.45,0,0,0-3.85-.78c-.31,0-.62-.06-.9-.07h-.28a.39.39,0,0,0-.18.06l-.91.7-1,.77-2.13,1.76c-1.06.9-2.13,1.8-3.1,2.78-.75.75-1.37,1.63-2,2.42-.14.18-.27.37-.42.54-.55.63-.81.74-1.35.57-.12,0-.25-.07-.36-.12-.38-.16-.43-.67-.1-1.29a18,18,0,0,1,3.86-4.7c1.1-1.05,2.25-2,3.42-3Z"/><path class="cls-1" d="M282.28,165.49a10.58,10.58,0,0,1-1-4.45,5.77,5.77,0,0,1,.29-1.78,7.55,7.55,0,0,1,1.56-2.48,22.57,22.57,0,0,1,1.9-1.89c.57-.52,1.12-1.07,1.65-1.61a12.68,12.68,0,0,1,2.12-2c.52-.34,1.28,1.49.5,2.33-1.38,1.45-2.84,2.72-4.21,4a5.39,5.39,0,0,0-1.52,2.68,6.2,6.2,0,0,0,.42,3.39,13.32,13.32,0,0,0,1,2.13,23.54,23.54,0,0,0,2.06,3c.61.74,1.33,1.36,2,2.06.15.15.31.29.46.45.52.61.54.94.11,1.44a3.24,3.24,0,0,1-.29.34,1,1,0,0,1-1.32,0,19.58,19.58,0,0,1-3.59-3.95,23.77,23.77,0,0,1-2.2-3.67Z"/><path class="cls-1" d="M269.22,170q1.66-2.62,3.21-5.32l1.09-2,2-3.48,1-1.74c.19-.3.35-.58.57-.89a2.11,2.11,0,0,1,.18-.24,2.83,2.83,0,0,1,.29-.3,3.69,3.69,0,0,0,.35-.27c.87-.73,1.69-1.63,2.53-2.46a12.92,12.92,0,0,1,3.65-2.91c.49-.2.52.12.33.58a5.14,5.14,0,0,1-1.14,1.66c-1.07,1-2.08,2.16-3.15,3.29-.27.28-.55.57-.85.85-.15.15-.3.29-.48.44l-.14.11-.07.06,0,0h0c.45.61-.62-.84-.51-.68l0,0,.06.08.11.16c.48.6.31.33.35.38s0,0,0,0c-.37.51-.79,1.22-1.2,1.86-1,1.58-1.78,3.35-2.68,5q-1.49,2.78-3.08,5.51c-.52.89-1.25,2.1-1.44,2.36l-.17.27-.11.16s0,.06,0,.09l.09,0,.36.07c.27,0,.49.06.82.07a15.75,15.75,0,0,0,2.83-.15,13.65,13.65,0,0,0,4.07-1.3c.28-.12.54-.27.81-.41,1.06-.44,1.43-.54,1.9-.31a1.8,1.8,0,0,1,.31.14c.29.18.07.75-.67,1.42a9.35,9.35,0,0,1-3.92,2,18.06,18.06,0,0,1-4.45.65h-.58l-.75,0a13.1,13.1,0,0,1-2.08-.23l-.23-.06-.17-.1c-.14-.05-.16-.17-.18-.29L268,174l0-.14,0-.06v0h0l-.37.18h0v0l.09-1.34,1.54-2.53Z"/><path class="cls-1" d="M283.35,175.59a8.56,8.56,0,0,0,.76,1.09c.1.13.25.2.35.33a13.46,13.46,0,0,0,1.17,1.35,2.78,2.78,0,0,0,.65.42c.31.13.64.18.86.49s-.71,1.57-1.17,1.44a4.07,4.07,0,0,1-1.94-1.32c-.3-.37-.73-.6-1.06-.94a12.7,12.7,0,0,1-1-1.19l-.55-.78c-.27-.4-.51-.82-.76-1.24s-.48-.59-.65-.94a.84.84,0,0,1-.12-.23c0-.33.09-.47.44-.64l.24-.11a1.08,1.08,0,0,1,.79,0,3.7,3.7,0,0,1,1.35,1.14c.22.34.43.71.69,1.05Z"/><path class="cls-1" d="M390.06,199a165.42,165.42,0,0,0-11.89-17.16c-.78-1-1.61-2-2.46-2.9s-1.66-1.93-2.51-2.87a117.73,117.73,0,0,0-9.35-9.6,54.14,54.14,0,0,0-10.72-7.79,24.08,24.08,0,0,0-5.42-2,12.9,12.9,0,0,0-5.53,0A10.13,10.13,0,0,0,339,158a12.82,12.82,0,0,0-2.55,2.39,15.38,15.38,0,0,0-1.88,3,17.93,17.93,0,0,0-1.26,3.36c-.17.71-.29,1-.52,1s-.48-.4-.66-1.14a8.53,8.53,0,0,1-.09-3.07,10,10,0,0,1,1.6-4.08,12.74,12.74,0,0,1,7-5.33,13.09,13.09,0,0,1,2.22-.47,16.57,16.57,0,0,1,2.22-.07l1.1.07c.36,0,.72.12,1.07.17a14.44,14.44,0,0,1,2.09.49c5.45,1.64,9.9,4.89,13.95,8.37a138.89,138.89,0,0,1,13.73,13.82,152.93,152.93,0,0,1,12.74,17.15q3.58,5.52,6.71,11.31a113.07,113.07,0,0,1,8,18.24c.78,2.45,1.52,4.89,2.06,7.39a44.14,44.14,0,0,1,1.09,7.62c.11,1.13.07,2.26.07,3.41-.29,4.3-1,5.61-1.91,6.28a3,3,0,0,1-.59.44c-.29.12-.43-.26-.47-1a7.94,7.94,0,0,1,.06-1.41c0-.57.08-1.22.16-1.94a44.7,44.7,0,0,0-1.08-13.2,79.54,79.54,0,0,0-4.24-13.18A132.22,132.22,0,0,0,390,199Z"/><path class="cls-1" d="M351.63,195.61l1.5,1,1.58.89c.4.2.81.35,1.21.55a42.86,42.86,0,0,0,4.33,1.88c.66.24,1.34.43,2,.61a9.43,9.43,0,0,1,2.63.9c.27.18,0,.47-.32.71a1.64,1.64,0,0,1-1.31.32,30.57,30.57,0,0,1-5.28-1.76c-1-.47-2.16-.79-3.21-1.26-.59-.25-1.16-.53-1.73-.83s-1.13-.6-1.67-.92-1.33-.85-2-1.27c-1-.69-1.91-1.44-2.82-2.22-.36-.28-.71-.58-1.06-.88s-.71-.59-1-.92c-.14-.15-.3-.29-.43-.45-.49-.59-.53-.87-.18-1.3a3.5,3.5,0,0,1,.24-.3.89.89,0,0,1,1.18.07c1.15,1,2.39,1.94,3.53,3l1.38,1.11,1.46,1Z"/><path class="cls-1" d="M360.75,241.5a55.64,55.64,0,0,1-1.66-9.9c-.12-1.2-.25-2.4-.31-3.6-.18-4.23-.18-8.44-.38-12.62,0-.93-.11-1.86-.2-2.79s-.16-1.84-.28-2.75c-.13-1.18-.31-2.35-.49-3.51s-.21-2.36-.28-3.55c0-.74.22-.7.68-.16a9.78,9.78,0,0,1,1.61,2.95c.27,1.21.48,2.43.64,3.65s.33,2.44.39,3.67c.16,2.46.19,4.92.17,7.38,0,2.94.2,6,.39,8.94a63.8,63.8,0,0,0,1.15,9.68,21.68,21.68,0,0,0,.77,2.87,22.68,22.68,0,0,0,1.05,2.78,27,27,0,0,0,5,7.44,28.13,28.13,0,0,0,5.34,4.3c.41.28.86.5,1.28.77a12.45,12.45,0,0,1,1.61,1.17,2,2,0,0,1,.56.88,2.43,2.43,0,0,1,.12.39c0,.19-.18.26-.57.24a4.53,4.53,0,0,1-1.67-.37,15,15,0,0,1-3-1.51,26.05,26.05,0,0,1-2.74-2,28.7,28.7,0,0,1-4.79-5,28.17,28.17,0,0,1-4.43-9.36Z"/><path class="cls-1" d="M385,266.37a39.38,39.38,0,0,0,11.09-2.22c1.32-.45,2.59-1,3.86-1.58a32.61,32.61,0,0,0,6.34-3.59,12.55,12.55,0,0,0,2.55-2.43,4.33,4.33,0,0,0,1.07-2.93,4,4,0,0,0-1.36-2.43,5,5,0,0,0-2.63-1.18,5.16,5.16,0,0,0-3.58.91,8.51,8.51,0,0,0-2.59,2.92c-.43.73-.72.52-.72-.33a5.48,5.48,0,0,1,.06-.75,8.21,8.21,0,0,1,.3-.93,5.3,5.3,0,0,1,1.46-2,7,7,0,0,1,4.78-1.73,6.67,6.67,0,0,1,4.73,2.17,7,7,0,0,1,.79,1.08c.11.2.22.39.32.59l.24.7a5.08,5.08,0,0,1,.2,1.45,6.41,6.41,0,0,1-.25,1.4,9.54,9.54,0,0,1-2.86,4,35.29,35.29,0,0,1-9.44,5.76,47.14,47.14,0,0,1-11.61,3.18,24.89,24.89,0,0,1-7.51-.05,8.79,8.79,0,0,1-5.22-2.74l-.25-.29-.2-.34-.39-.67a7.44,7.44,0,0,1-.51-1.44,4.43,4.43,0,0,1-.05-1.63,3.49,3.49,0,0,1,.7-1.54,7.49,7.49,0,0,1,4.11-2.13,24.38,24.38,0,0,1,4.3-.57c.64,0,1.25-.07,1.89-.06,2.35.05,3.08.3,3.53.92a3.32,3.32,0,0,1,.29.44c.17.48-.79.75-2.45.79a37.08,37.08,0,0,0-7.29.73,5.13,5.13,0,0,0-2.62,1.26,1.1,1.1,0,0,0-.27.81,3.3,3.3,0,0,0,.34,1.28,5,5,0,0,0,3.48,2.64,17.41,17.41,0,0,0,5.36.48Z"/><path class="cls-1" d="M383.44,282.25a6.85,6.85,0,0,0,1.19-1.1,8.13,8.13,0,0,0,.84-1.43,6.74,6.74,0,0,0,.39-1.2,14.33,14.33,0,0,0,.52-4.62,15.19,15.19,0,0,0-.28-2.12,8.3,8.3,0,0,1-.37-2.83c0-.35.41-.25.81-.05a1.84,1.84,0,0,1,1,1,18,18,0,0,1,.5,5.86,20.88,20.88,0,0,1-.53,3.7,9.07,9.07,0,0,1-2.08,3.65,8.73,8.73,0,0,1-2.06,1.54,4.55,4.55,0,0,1-.91.46,6.28,6.28,0,0,1-1,.23c-.63.11-1.24.17-1.86.23-.95.08-1.88.23-2.88.22a5.08,5.08,0,0,1-.67,0c-.84-.14-1.15-.46-1.06-1a2,2,0,0,1,.08-.37.92.92,0,0,1,.38-.44,1.16,1.16,0,0,1,.56-.17c1.39-.11,3.07-.15,4.61-.36.28,0,.55-.08.8-.14l.31-.08.1,0,.18-.1a7.15,7.15,0,0,0,1.36-.87Z"/><path class="cls-1" d="M383.07,293.82a27.49,27.49,0,0,0,7.39-3.13l1.21-.83c.33-.31.65-.55,1-.89a20.06,20.06,0,0,0,2.92-4.23,50.82,50.82,0,0,0,2.38-4.79c.65-1.46,1.2-3,1.73-4.46a46.52,46.52,0,0,1,2.33-5.73c.45-.68.55-.3.6.26a8,8,0,0,1-.2,2.78c-.28,1-.54,2-.85,3s-.69,2-1.07,3a48.78,48.78,0,0,1-2.61,5.83c-1.26,2.24-2.33,4.73-4.56,6.71a27.86,27.86,0,0,1-7.74,4.15,30.25,30.25,0,0,1-5.21,1.36,24.56,24.56,0,0,1-8.16,0,20.76,20.76,0,0,1-6.05-1.94c-.41-.24-.82-.46-1.22-.72a3.64,3.64,0,0,1-1.35-1.31,1.28,1.28,0,0,1-.15-1,2.24,2.24,0,0,1,.13-.48c.22-.44,1-.32,2,.24a8.43,8.43,0,0,0,1.11.6c.38.18.73.41,1.12.57.79.29,1.55.65,2.37.88a18.63,18.63,0,0,0,5,1,23.4,23.4,0,0,0,7.85-.86Z"/><path class="cls-1" d="M238.11,181.34c1.17-.17,2.34-.43,3.52-.69s2.33-.58,3.47-1c.83-.3,1.66-.6,2.47-.95a78.66,78.66,0,0,0,8.63-3.82c1.23-.68,2.46-1.37,3.63-2.14,1.52-.95,3-2,4.57-2.84.51-.26.69.13.54.76a4,4,0,0,1-1.47,2.12c-1.5,1.09-3,2.16-4.64,3.12a49.12,49.12,0,0,1-5,2.58c-1,.43-2.07.94-3.11,1.45s-2.11,1-3.2,1.37-2.38.9-3.62,1.21l-1.84.52-1.87.41-1.16.25-1.17.16c-.78.09-1.55.26-2.34.28a28.49,28.49,0,0,1-3.58.1,35.26,35.26,0,0,1-3.56-.23,37.33,37.33,0,0,1-5.43-.92,6,6,0,0,1-1.17-.33c-1.4-.59-1.77-1-1.79-1.65a2.49,2.49,0,0,1,0-.47c.09-.49.81-.63,1.82-.4a50.77,50.77,0,0,0,9.2,1.51,34.92,34.92,0,0,0,3.54,0,28.36,28.36,0,0,0,3.55-.4Z"/><path class="cls-1" d="M248,220.19a46.39,46.39,0,0,0,9-3.05c1-.52,2.08-1,3.11-1.59a116.3,116.3,0,0,0,10.7-6.36c1.56-1,3.09-2.1,4.62-3.15a23.58,23.58,0,0,1,6.37-3.44c.73-.24.78.25.4.94a7,7,0,0,1-2.27,2.28c-4,2.39-7.9,5.32-12.16,7.77-1.26.76-2.56,1.52-3.83,2.33s-2.61,1.56-4,2.23a56.93,56.93,0,0,1-9.28,3.73,46.28,46.28,0,0,1-6,1.26,43.88,43.88,0,0,1-9.3.31,39.64,39.64,0,0,1-7.1-.9c-.52-.13-1-.25-1.54-.43a6,6,0,0,1-1.9-1,1.91,1.91,0,0,1-.56-1,2.46,2.46,0,0,1-.08-.39c0-.19.21-.23.58-.22a5.9,5.9,0,0,1,1.57.23c1,.22,1.95.43,2.95.6s2,.29,3.06.44,2.09.26,3.14.31l3.16.13c.79,0,1.57-.07,2.36-.09a18.57,18.57,0,0,0,2.35-.17,35.32,35.32,0,0,0,4.66-.85Z"/><path class="cls-1" d="M208.32,174.13a5.49,5.49,0,0,1,.68-.24,6.36,6.36,0,0,1,.75-.08,2.34,2.34,0,0,1,.74.08,2.2,2.2,0,0,1,.69.19,5.51,5.51,0,0,1,2,1.49,6.57,6.57,0,0,1,1,1.33A14.8,14.8,0,0,1,215.5,182c.07.76.19,1.51.2,2.27a6.08,6.08,0,0,1-.47,2.93c-.14.29-.48.11-.79-.22a2.13,2.13,0,0,1-.64-1.26,50.19,50.19,0,0,0-.47-5.2,7.44,7.44,0,0,0-1.25-2.89,4.82,4.82,0,0,0-1.07-1.13,5.45,5.45,0,0,0-.6-.35c-.2,0-.4-.13-.61-.07a2.35,2.35,0,0,0-1.57.79,7.88,7.88,0,0,0-1.81,2.78,15.25,15.25,0,0,0-.61,2.55c-.05.18-.06.37-.1.56-.15.69-.29.89-.73,1a1.47,1.47,0,0,1-.28.08c-.29.06-.56-.27-.66-.88a9,9,0,0,1,.09-2.73,11.85,11.85,0,0,1,1-2.67,9,9,0,0,1,1.21-1.88,7.73,7.73,0,0,1,.85-.87,5.13,5.13,0,0,1,1.15-.73Z"/><path class="cls-1" d="M195.76,186.44c.23-1.5.36-3.05.55-4.65.06-.58.08-1.19.18-1.78a11,11,0,0,1,1-3.22,5.48,5.48,0,0,1,.52-.77,3.65,3.65,0,0,1,.29-.37l.38-.34a4.18,4.18,0,0,1,1.76-.8,6.48,6.48,0,0,1,3.11.17,4.54,4.54,0,0,1,3,2.38c.17.4-.24.5-.75.5a4,4,0,0,1-1.56-.22,4.51,4.51,0,0,0-1.24-.46,4.57,4.57,0,0,0-1.25-.19,2.85,2.85,0,0,0-1.05.18,1.91,1.91,0,0,0-.83.58c-.75.74-.93,2.16-1.12,3.5-.22,1.51-.36,3.09-.55,4.68-.13,1-.28,2-.45,3a27.88,27.88,0,0,1-1.23,4.4,21.36,21.36,0,0,1-1.39,3.28,4.66,4.66,0,0,1-.4.68c-.6.79-.92.94-1.49.7-.12-.06-.26-.1-.38-.17-.38-.24-.43-.78-.15-1.35a29.23,29.23,0,0,0,2.11-5.31,26.32,26.32,0,0,0,.83-4.38Z"/><path class="cls-1" d="M206.83,204.94a9.67,9.67,0,0,0,.4-1.22c0-.15,0-.32.06-.47.14-.55.29-1.12.38-1.7a2.91,2.91,0,0,0,0-.78c0-.33-.16-.66,0-1s1.85.06,1.88.44a4.84,4.84,0,0,1-.27,2.07,5.64,5.64,0,0,0-.16,1.3c-.08.47-.19.95-.31,1.42-.09.29-.17.58-.27.87a11.92,11.92,0,0,1-.51,1.29c-.14.34-.2.71-.36,1.06a.57.57,0,0,1-.13.21.44.44,0,0,1-.34.16,1.27,1.27,0,0,1-.42-.18l-.18-.11a.77.77,0,0,1-.23-.27,1,1,0,0,1-.16-.4c0-.15-.05-.33,0-.46s0-.25,0-.38.09-.49.15-.74.29-.72.39-1.12Z"/><path class="cls-1" d="M158.24,151.52a11,11,0,0,1,3.57.1,14.71,14.71,0,0,1,3.24,1.09,15.87,15.87,0,0,1,1.51.8c.48.3.93.62,1.36.94.85.64,1.67,1.29,2.48,2,1.17,1,2.36,1.9,3.5,2.89,4,3.49,7.91,7.05,12,10.4,1.81,1.48,3.7,2.87,5.6,4.19a45.8,45.8,0,0,0,7.61,4.29c.81.28.71.61-.19.83a5.55,5.55,0,0,1-1.83.06,7.49,7.49,0,0,1-2.36-.75,51.71,51.71,0,0,1-7.87-5.09c-2.46-1.89-4.82-3.88-7.12-5.95C177,164.8,174,162.39,171.1,160c-1.59-1.32-3.18-2.65-4.81-3.82a12.75,12.75,0,0,0-2.52-1.42,10.88,10.88,0,0,0-2.75-.83,8.64,8.64,0,0,0-6.59,1.71,25.57,25.57,0,0,0-4.09,3.85,11.48,11.48,0,0,0-1.55,2.23,2.36,2.36,0,0,0-.31,1.09.63.63,0,0,0,.37.65c.92.56,2.31.17,3.44-.55a20.81,20.81,0,0,0,3.29-2.64c.46-.44.89-.9,1.35-1.35,1.7-1.69,2.49-2.09,3.32-1.91a2.11,2.11,0,0,1,.55.13c.47.28,0,1.15-1.14,2.49a26.51,26.51,0,0,1-6.47,5.46,7.76,7.76,0,0,1-2.42.83c-.24,0-.46.07-.71.07s-.52,0-.77-.06a2.65,2.65,0,0,1-.77-.2,2.84,2.84,0,0,1-.77-.34,2.65,2.65,0,0,1-.77-.64,2.47,2.47,0,0,1-.55-1,3.29,3.29,0,0,1,0-1.86,7.74,7.74,0,0,1,1.11-2.38,20.64,20.64,0,0,1,2.09-2.63,28.59,28.59,0,0,1,2.35-2.31,15.37,15.37,0,0,1,2.85-2,11.45,11.45,0,0,1,3.43-1.14Z"/><path class="cls-1" d="M196.2,201.59c-3.15-3-6.14-6.15-9-9.36-1.07-1.17-2.16-2.31-3.18-3.51-3.61-4.24-7-8.63-10.32-13.08-1.47-2-3-3.93-4.43-5.9-.91-1.28-1.91-2.49-2.71-3.86s-1.61-2.7-2.37-4.08c-.46-.87-.17-.9.59-.43a18.57,18.57,0,0,1,3.3,2.75c4.21,4.79,7.73,10,11.56,15.2,2.26,3.1,4.94,6.05,7.53,9,2.86,3.22,5.78,6.38,8.84,9.4,1.9,1.85,3.82,3.68,5.82,5.4a77,77,0,0,0,9.57,7.2,41.66,41.66,0,0,0,8.18,3.84c.62.22,1.24.4,1.87.58a17.09,17.09,0,0,1,2.44.87,2.14,2.14,0,0,1,1,.83c.1.15.24.29.3.4s-.11.32-.61.48a5.29,5.29,0,0,1-2.25.08A26.53,26.53,0,0,1,214,214.7a56,56,0,0,1-7.64-4.62,104.41,104.41,0,0,1-10.17-8.44Z"/><path class="cls-1" d="M147.17,137.4l-2.57-4.35c-.31-.54-.69-1-1-1.57-1.06-1.9-2-3.85-3-5.81l-1.33-2.58a9.55,9.55,0,0,1-.75-1.7,16.31,16.31,0,0,1-.41-1.84c-.06-.4.18-.44.61-.27a4.78,4.78,0,0,1,1.59,1,28.38,28.38,0,0,1,3.44,6.49,34.82,34.82,0,0,0,2.27,4l2.59,4.34,1.62,2.67c.84,1.33,1.65,2.7,2.53,4,.68,1,1.48,1.92,2.18,2.91a7.52,7.52,0,0,1,.47.64,2,2,0,0,1,.37,1,1,1,0,0,1-.27.71c-.08.11-.13.21-.2.29s-.85.15-1.39-.36a30.9,30.9,0,0,1-4.09-5.27c-.92-1.41-1.81-2.85-2.72-4.27Z"/><path class="cls-1" d="M140.61,229.17q-7.83-7-15.12-14.55c-1.78-1.83-3.58-3.63-5.29-5.53a215.73,215.73,0,0,1-16.9-21c-2.32-3.25-4.57-6.57-6.67-9.93-.69-1.07-1.32-2.18-2-3.27s-1.31-2.19-1.89-3.32-1.22-2.24-1.77-3.4l-1.49-3.52c-.6-1.46-.27-1.38.65-.34.46.51,1.08,1.27,1.77,2.19a32.18,32.18,0,0,1,2.21,3.26c1.24,2.24,2.66,4.38,4,6.56s2.82,4.28,4.28,6.4c2.85,4.26,5.91,8.41,9,12.53a181.86,181.86,0,0,0,12.45,14.37q7.16,7.63,14.88,14.76c3.18,2.89,6.39,5.77,9.71,8.51,5,4.17,10.16,8.23,15.48,11.9a119.87,119.87,0,0,0,12.74,7.67c1,.51,1.93.93,2.91,1.41,3.63,1.73,4.72,2.1,5.47,2.79.18.14.44.27.55.37s-.1.29-1,.43a9.78,9.78,0,0,1-3.57-.57,28,28,0,0,1-3.22-1.27c-1.06-.47-2.09-1-3.12-1.52-2.06-1.07-4.07-2.24-6.08-3.46-4-2.47-7.89-5.18-11.7-8-5.67-4.2-11.14-8.71-16.43-13.39Z"/><path class="cls-1" d="M119.91,135.21c-2.26,2.45-4.57,4.84-6.91,7.21-.85.86-1.66,1.76-2.53,2.6-3.06,3-6.24,5.85-9.48,8.64-1.45,1.23-2.88,2.49-4.35,3.68a20,20,0,0,1-6.26,3.9c-.78.23-.73-.14-.29-.7a13.56,13.56,0,0,1,2.26-2.23c3.81-2.87,7.46-6.13,11.16-9.37,2.22-1.95,4.32-4.19,6.43-6.35q3.48-3.56,6.85-7.23c1.39-1.51,2.74-3,4.08-4.59,2-2.35,4-4.74,5.8-7.22a49.1,49.1,0,0,0,3.64-6c.26-.45.44-.9.67-1.34a10.39,10.39,0,0,1,1-1.66,4,4,0,0,1,.76-.68c.12-.08.23-.2.32-.26s.28,0,.41.48a3.12,3.12,0,0,1,.13.81,3.7,3.7,0,0,1-.12,1.07,20.62,20.62,0,0,1-2.94,6.1,66.88,66.88,0,0,1-4,5.49c-2.09,2.64-4.31,5.18-6.56,7.68Z"/><path class="cls-1" d="M206.19,232.46c-2,1.82-3.9,3.71-5.78,5.65-.68.71-1.31,1.47-2,2.18-2.37,2.53-4.73,5.08-6.93,7.77-1,1.18-1.9,2.43-2.77,3.68-.56.81-1.09,1.63-1.6,2.45a23.9,23.9,0,0,0-1.4,2.46c-.17.42-.53.43-.73-.22a4,4,0,0,1,.57-2.77,63,63,0,0,1,7.36-9.78c1.64-1.81,3.23-3.79,4.92-5.63,1.86-2,3.78-4,5.75-5.9,1.2-1.18,2.44-2.33,3.69-3.47,1.89-1.73,3.87-3.38,5.86-5,1.55-1.23,3.05-2.49,4.73-3.58.37-.23.73-.48,1.12-.7,1.48-.77,2.08-.79,2.58-.42a2.23,2.23,0,0,1,.33.26c.27.35-.22.86-1.17,1.43a78.2,78.2,0,0,0-8.45,6.21c-2.06,1.71-4.1,3.51-6.06,5.38Z"/><path class="cls-1" d="M114,135.91c-1.63,2.08-3.28,4.13-5,6.15-.61.74-1.21,1.5-1.84,2.22q-3.36,3.83-6.94,7.43l-3.17,3.2-2.06,2c-.71.64-1.44,1.27-2.19,1.86-.94.74-.56-1.1,1-2.64l8.16-8.3c1.65-1.66,3.15-3.58,4.68-5.42,1.68-2,3.33-4.08,4.93-6.17,1-1.29,2-2.59,2.91-3.9,1.44-2,2.88-4,4.22-6,1-1.59,2-3.2,3-4.8l.64-1.06c.83-1.3,1.2-1.64,1.76-1.68a2.47,2.47,0,0,1,.38,0c.38.06.28.75-.24,1.77-.76,1.51-1.61,3-2.5,4.53s-1.92,3-2.94,4.44c-1.51,2.17-3.11,4.31-4.72,6.43Z"/><path class="cls-1" d="M137.93,230.77q-5.58-5.72-10.91-11.64c-1.31-1.44-2.63-2.85-3.91-4.31-4.51-5.14-8.76-10.49-12.91-15.93-1.83-2.41-3.67-4.85-5.4-7.31A44.47,44.47,0,0,1,99,181.46c-.4-1.17-.12-1.06.49-.22s1.73,2.32,2.93,4.15c4.31,6.47,9.21,12.61,14.16,18.77,3,3.69,6.3,7.33,9.52,10.94q5.33,6,10.88,11.71,3.4,3.56,6.94,7c3.57,3.46,7.21,6.87,11,10a97.06,97.06,0,0,0,9.13,6.7c.68.46,1.38.86,2.09,1.29a27,27,0,0,1,2.71,1.8,3.07,3.07,0,0,1,1.06,1.1,3.61,3.61,0,0,1,.27.5c.06.24-.22.29-.82.19a10.51,10.51,0,0,1-2.56-.86,54.37,54.37,0,0,1-8.92-5.68c-2.86-2.16-5.63-4.48-8.32-6.9-4-3.57-7.88-7.32-11.66-11.13Z"/><path class="cls-1" d="M202.68,237.89l-2.31,2.2c-.74.77-1.5,1.52-2.23,2.3-.53.57-1,1.18-1.56,1.74-1.87,2-3.71,4.08-5.45,6.22-.77,1-1.51,2-2.21,2.94a31.16,31.16,0,0,1-3,3.7c-.36.36-.54.09-.53-.44a4.07,4.07,0,0,1,.65-2.07,57.66,57.66,0,0,1,5.9-7.66c1.3-1.44,2.52-3.06,3.85-4.53.74-.81,1.48-1.61,2.26-2.39s1.53-1.56,2.33-2.3c1-.95,2-1.84,3-2.73.75-.7,1.56-1.32,2.35-2s1.6-1.26,2.41-1.87c1.23-1,2.51-1.86,3.79-2.77.3-.18.58-.37.89-.54,1.13-.62,1.55-.72,2-.49a1.48,1.48,0,0,1,.28.17c.25.22-.09.71-.84,1.24-2.26,1.5-4.45,3.32-6.71,5.06l-2.45,2.06c-.79.72-1.6,1.42-2.37,2.16Z"/><path class="cls-1" d="M392.51,178.21c-.73.39-1.47.74-2.21,1.09-.27.12-.51.3-.79.41-1,.41-1.95.73-2.93,1.07a10.61,10.61,0,0,0-1.24.55,3.1,3.1,0,0,1-1.66.52c-.21,0-.29-.29-.29-.68s.07-.93.34-1.11a12.5,12.5,0,0,1,3.16-1.37,10.4,10.4,0,0,0,1.89-.94c.68-.36,1.37-.71,2-1.1.41-.24.82-.48,1.21-.75a11.52,11.52,0,0,0,1.72-1.29,8.57,8.57,0,0,0,1-1.33,1.61,1.61,0,0,1,.21-.3c.3-.32.57-.27,1.05,0l.26.15a.93.93,0,0,1,.3.41.79.79,0,0,1,.07.61,3.59,3.59,0,0,1-.83,1.46,9.56,9.56,0,0,1-1.21,1.17,19.49,19.49,0,0,1-2.06,1.44Z"/><path class="cls-1" d="M317,217c-4.71,1.51-9.43,3-14.2,4.25-1.74.47-3.46,1-5.21,1.44-6.15,1.58-12.37,2.81-18.6,4-2.77.47-5.54,1.06-8.29,1.52A78,78,0,0,1,260,229.66c-1.12,0-1-.28-.13-.82a12.94,12.94,0,0,1,4.53-1.67c7.15-1.3,14.3-2.56,21.49-4,2.15-.43,4.32-1,6.51-1.49L299,220c4.74-1.34,9.48-2.7,14.17-4.26,2.89-.93,5.75-1.95,8.61-3,4.31-1.62,8.63-3.25,12.8-5.13q2.43-1.07,4.77-2.27c1.57-.78,3.12-1.59,4.67-2.41.68-.36,1.34-.73,2-1a17.53,17.53,0,0,1,2.83-1.2,2.67,2.67,0,0,1,1.52,0c.19.05.4.06.52.11s.07.32-.29.78a7.29,7.29,0,0,1-1.92,1.56c-1.34.85-2.73,1.67-4.16,2.41s-2.89,1.51-4.38,2.22-3,1.43-4.51,2.1-3.06,1.35-4.61,2c-4.59,1.93-9.3,3.62-14,5.27Z"/><path class="cls-1" d="M282.91,282.47q-3-6.36-6.28-12.64l-2.45-4.53c-2.82-5.34-5.73-10.65-8.88-15.81-1.41-2.27-2.87-4.54-4.42-6.69-1-1.4-2-2.73-3.09-4.06a22.39,22.39,0,0,0-3.37-3.61c-.76-.51-.64-.81.38-.67a8.57,8.57,0,0,1,4.06,2.56,90.22,90.22,0,0,1,11.9,17.61c2,3.72,4.3,7.5,6.36,11.31q3.39,6.29,6.51,12.71c1.29,2.64,2.55,5.28,3.79,7.94,1.89,4,3.68,8.1,5.43,12.14,1.34,3.16,2.78,6.21,3.92,9.43.26.7.51,1.4.73,2.13a15.32,15.32,0,0,1,.66,2.93,2.79,2.79,0,0,1-.28,1.43,3,3,0,0,1-.25.45c-.31.31-.85-.72-1.54-2.58-1-2.79-2.28-5.59-3.45-8.47s-2.46-5.78-3.76-8.68c-1.94-4.31-3.94-8.62-6-12.87Z"/><path class="cls-1" d="M272.49,273.3c2.26,3.25,4.48,6.52,6.64,9.84.8,1.2,1.61,2.39,2.38,3.6q4.07,6.47,7.8,13.1l3.37,5.86c.7,1.26,1.44,2.49,2.12,3.76s1.29,2.58,1.86,3.9c.36.82-.05.89-.75.41a9.3,9.3,0,0,1-2.55-2.95l-8.58-15.29c-1.72-3.07-3.79-6.1-5.75-9.12-2.17-3.31-4.38-6.6-6.66-9.84-1.4-2-2.81-4-4.25-6-2.18-3-4.4-6-6.69-8.82-1.8-2.22-3.63-4.33-5.46-6.48l-1.2-1.4c-1.41-1.85-1.77-2.51-1.81-3.13a2,2,0,0,1,0-.4c0-.32.85.23,2.09,1.41a116.63,116.63,0,0,1,10.34,11.89c2.46,3.13,4.83,6.35,7.17,9.59Z"/><path class="cls-1" d="M272.4,266c2.38,3.79,4.67,7.63,6.94,11.48l2.49,4.22q4.25,7.5,8.19,15.17c1.18,2.25,2.34,4.54,3.5,6.8.7,1.47,1.5,2.89,2.14,4.4l1,2.26c.29.77.54,1.56.79,2.34.3,1-.17,1-.88.33a12.12,12.12,0,0,1-2.4-3.61c-2.7-6-5.77-11.82-8.79-17.76-1.81-3.55-4-7.1-6-10.62q-3.39-5.82-6.94-11.53c-1.47-2.34-2.95-4.67-4.47-7-1.17-1.73-2.3-3.5-3.52-5.2l-1.8-2.56-1.88-2.48c-.84-1.14-1.75-2.2-2.67-3.25-.46-.52-.89-1.07-1.38-1.56l-.73-.74-1.09-1.14-.31-.61-.15-.3,0-.08h0l.12,0v-.06l0-.14c.07-.31.53-.58,1.05-.79l1.39-.54c2.45-.93,3.16-1.17,3.87-1a4.9,4.9,0,0,1,.5.1c.48.16-.38,1.16-2.18,2l-1.12.5c-.34.15-.89.37-.83.37l-.16.11s0,0,0,.07l.08.07.09.06s.13.12.21.2l.29.29c.38.39.75.78,1.09,1.19l2.11,2.49c1.33,1.71,2.69,3.43,3.95,5.22s2.62,3.69,3.86,5.58,2.48,3.78,3.7,5.68Z"/><path class="cls-1" d="M421.44,267.6c-1.23.35-2.46.74-3.69,1.13-.45.14-.88.34-1.33.48-1.58.49-3.18,1-4.75,1.52a20.43,20.43,0,0,0-2,.86l-1.3.55a8.21,8.21,0,0,1-1.41.3c-.31,0-.38-.25-.29-.66a2.73,2.73,0,0,1,.77-1.4c.41-.26.84-.47,1.27-.7s.89-.37,1.35-.54a28.07,28.07,0,0,1,2.78-.87,35.62,35.62,0,0,0,3.35-1.24c1.24-.44,2.49-.83,3.75-1.23l2.32-.7c1.18-.36,2.38-.66,3.55-1,.92-.26,1.79-.64,2.76-.88a6,6,0,0,1,.64-.15c.84-.13,1.19.14,1.29.71a2.58,2.58,0,0,1,.07.34,1.16,1.16,0,0,1-.75,1c-1.4.47-3,1-4.64,1.45-1.22.38-2.46.73-3.68,1.14Z"/><path class="cls-1" d="M352.66,296.86l-12.73,5.76c-1.55.7-3.08,1.46-4.63,2.14-5.5,2.39-11,4.72-16.61,6.95-2.47,1-4.95,2-7.43,3-1.61.57-3.21,1.18-4.87,1.64a20.65,20.65,0,0,1-5.16.79c-1.13,0-.93-.37-.08-.81a38.11,38.11,0,0,1,4-1.95c6.36-2.26,12.77-4.81,19.23-7.37,3.88-1.52,7.77-3.43,11.64-5.2l12.79-5.84,7.87-3.63c4-1.85,8-3.68,11.86-5.57,3-1.47,5.95-3,8.93-4.55.65-.33,1.28-.68,1.95-1a12.08,12.08,0,0,1,2.71-1.08,2.2,2.2,0,0,1,1.46.06,3.25,3.25,0,0,1,.51.19c.39.21-.39,1.19-2.14,2.19-5.21,2.91-10.86,5.65-16.55,8.38l-12.75,6Z"/><path class="cls-1" d="M420.48,226.5c-1.61-4.23-3.35-8.43-5.17-12.59l-2.09-4.51q-3.6-8-7.35-16c-1.11-2.34-2.3-4.67-3.46-7a71.75,71.75,0,0,1-4.17-9.08c-.34-1,.09-1,.81-.36a13.47,13.47,0,0,1,2.65,3.58c3.08,6,6.23,12,9.06,18.2,1.7,3.73,3.63,7.52,5.38,11.32q2.88,6.27,5.48,12.68c1.06,2.63,2.07,5.28,3.05,7.94,1.49,4,2.79,8.16,4,12.27a83.78,83.78,0,0,1,2.35,9.62c.1.72.26,1.42.32,2.16.27,2.73,0,3.63-.49,4.22a3.35,3.35,0,0,1-.35.38c-.38.25-.78-.83-1.07-2.73-.44-2.82-1.23-5.66-1.91-8.56s-1.55-5.81-2.49-8.71c-1.39-4.31-2.9-8.62-4.58-12.87Z"/><path class="cls-1" d="M388.42,172.89l-1.85,1.29c-.22.16-.42.36-.65.51-.83.48-1.66,1-2.49,1.47l-1.1.65a8.79,8.79,0,0,1-1.47.74c-.16.06-.18,0-.13-.19a2.55,2.55,0,0,1,.33-.76,10.46,10.46,0,0,1,1.09-1.29,6.09,6.09,0,0,1,1.37-.92,18.29,18.29,0,0,0,1.61-1.21l1.81-1.29c.36-.27.73-.54,1.09-.83.54-.43,1.07-.86,1.57-1.34a14.62,14.62,0,0,0,1-1.18,2.53,2.53,0,0,1,.22-.26c.31-.29.48-.31.81-.15l.17.07a.66.66,0,0,1,.13.74,7.4,7.4,0,0,1-.77,1.34,6.25,6.25,0,0,1-1,1.17c-.56.52-1.16,1-1.76,1.47Z"/><path class="cls-1" d="M324.73,209.16c-3.1,1.2-6.24,2.29-9.38,3.34-1.16.37-2.29.8-3.44,1.16-4.09,1.23-8.23,2.28-12.37,3.28-1.84.44-3.7.83-5.53,1.23-2.35.52-4.74.92-7.12,1.27-.74.1-.66,0-.06-.24a29.79,29.79,0,0,1,3-1.11l7.05-2.08c2.35-.7,4.75-1.22,7.13-1.85,1.43-.34,2.87-.8,4.31-1.24l4.31-1.42c3.16-1,6.29-2.11,9.4-3.26,1.91-.73,3.82-1.45,5.7-2.24,2.88-1.15,5.67-2.51,8.45-3.84,2.15-1,4.22-2.13,6.34-3.18l1.38-.7c1.77-.81,2.38-1,2.93-.81a2.49,2.49,0,0,1,.34.05c.23,0-.31.73-1.54,1.45-1.82,1.1-3.74,2.14-5.68,3.2s-3.93,2.11-6,3.06l-2.26,1.08c-.76.35-1.54.66-2.31,1-1.54.67-3.1,1.29-4.66,1.91Z"/><path class="cls-1" d="M296.67,389.25c-1,4.92-1.92,9.84-2.71,14.77s-1.45,9.89-1.72,14.82a35.14,35.14,0,0,0,.72,10.48,10.24,10.24,0,0,0,.74,1.95c.39.62.83,1.25,1.24,1.88s1,1.16,1.47,1.75,1.1,1.08,1.64,1.62a36.13,36.13,0,0,0,7.72,5.22,44.08,44.08,0,0,0,8.85,3.25,35.89,35.89,0,0,0,9.33,1.12,23.19,23.19,0,0,0,8.12-1.39,11.31,11.31,0,0,0,3.47-1.92c.49-.44,1-.9,1.43-1.39s.88-1,1.24-1.59a38.78,38.78,0,0,0,4.39-9.7c1.11-3.44,2.12-7,3.46-10.42.89-2.14,1.11-1.7.91.25-.08,1-.23,2.36-.44,4a34.35,34.35,0,0,1-1.1,5.64c-.52,1.83-1.07,3.66-1.76,5.47a28.49,28.49,0,0,1-2.55,5.32,18.38,18.38,0,0,1-4,4.66l-1.3.94c-.47.27-1,.5-1.44.75a7.83,7.83,0,0,1-1.44.57l-1.44.49a30.35,30.35,0,0,1-11.78.82,42.93,42.93,0,0,1-11.27-2.93,40.86,40.86,0,0,1-12.08-7.3L295,437.16c-.43-.43-.81-.91-1.22-1.36a24.42,24.42,0,0,1-2.18-2.95,18.1,18.1,0,0,1-.85-1.77c-.22-.6-.36-1.21-.53-1.81a16.77,16.77,0,0,1-.32-1.81,13.81,13.81,0,0,1-.2-1.79,80.25,80.25,0,0,1,.76-15.38c.65-5.06,1.5-10.07,2.42-15.06,1.14-6.14,2.42-12.26,3.71-18.35,2-9.24,4.08-18.48,6-27.65,1.46-7.13,2.71-14.16,3.79-21.25.25-1.56.42-3.09.66-4.66.77-5.84,1.18-7.66,1.87-8.88a5.63,5.63,0,0,1,.47-.81c.24-.27.41.2.51,1.3a31.51,31.51,0,0,1,0,5c-1.23,12.93-4.08,26.25-6.88,39.58-2.1,9.9-4.3,19.81-6.24,29.74Z"/><path class="cls-1" d="M348.09,424.68a154.8,154.8,0,0,1-5.92-26.57c-.48-3.27-.95-6.54-1.3-9.82-1.25-11.56-1.8-23.16-2-34.76-.08-5.14-.14-10.32-.1-15.43,0-3.28.07-6.57.21-9.86a76.13,76.13,0,0,1,.93-9.85c.19-1,.47-1.47.58-1.39s.14.61.19,1.47c.07,1.74.19,4.91.05,8.66-.43,13.32-.09,26.67.49,40.11.38,8,1.17,16.38,2.21,24.54a191.33,191.33,0,0,0,5,26.6,69.78,69.78,0,0,0,6,15.39,29,29,0,0,0,3.57,5c.35.37.72.73,1.07,1.09l.58.5c.22.17.23.27.42.29l1.45.32.76.16.77.1a44.11,44.11,0,0,0,12.41-.2,52.55,52.55,0,0,0,9.32-2.25c1.52-.46,3-1.09,4.45-1.67s2.9-1.27,4.3-2c1.26-.6,2.39-1.36,3.61-2.05l2.74-1.8c.72-.54,1.32-1,1.82-1.29a10.77,10.77,0,0,1,2.16-1.3,5.69,5.69,0,0,1,.77-.3c.31-.05.13.34-.47,1.13A16.23,16.23,0,0,1,403,431q-.83.8-2,1.8a48.58,48.58,0,0,1-16,8.37c-1.45.51-3,.85-4.46,1.26s-3,.68-4.57.88a47.52,47.52,0,0,1-9.4.59l-1.77-.09-1.77-.21a15,15,0,0,1-1.76-.28l-1.83-.4c-.22-.08-.56,0-.75-.28l-.52-.45-.7-.61c-.42-.44-.88-.86-1.27-1.32a25.9,25.9,0,0,1-2.21-2.85,53.87,53.87,0,0,1-6-12.66Z"/><path class="cls-1" d="M399.15,376.35q-1.87-10.31-4.27-20.52c-.57-2.49-1.26-4.95-1.87-7.42-2.2-8.71-4.59-17.39-7.43-25.92-1.24-3.79-2.64-7.54-4.12-11.21-1.95-4.68-4-9.34-6.34-13.81-.72-1.4-.3-1.43.74-.48a14.18,14.18,0,0,1,1.92,2.15,21.75,21.75,0,0,1,2.16,3.42,161.11,161.11,0,0,1,10.88,29.53c1.67,6.07,3.54,12.35,5.09,18.6q2.56,10.31,4.6,20.73,1.26,6.4,2.3,12.86c1.06,6.51,1.91,13.09,2.53,19.61a137.34,137.34,0,0,1,.79,15.16c0,1.12,0,2.21-.14,3.35-.32,4.2-1.08,5.49-1.77,6.22a3.59,3.59,0,0,1-.47.48c-.22.14-.31-.23-.31-1a13.46,13.46,0,0,1,.09-1.41c0-.57,0-1.23.12-2a91.18,91.18,0,0,0,0-13.53c-.29-4.61-.73-9.29-1.3-14-.86-7-2-13.93-3.26-20.86Z"/><path class="cls-1" d="M374.67,463.4c-.25-1.76-.46-3.53-.68-5.3-.08-.65-.2-1.29-.27-1.93q-.35-3.44-.51-6.87c0-1-.13-2-.21-3.05a18.83,18.83,0,0,1-.07-3.9c.1-.8,1.65.22,1.71,1.67.14,2.59.32,5.17.41,7.81a41.79,41.79,0,0,0,.6,4.79q.38,2.64.79,5.28l.51,3.25c.28,1.64.53,3.29.87,4.91.25,1.26.61,2.48.92,3.72a7.48,7.48,0,0,1,.18.82c.15,1,0,1.4-.41,1.69-.1.07-.2.15-.29.2-.32.14-.73-.22-1-.95a21,21,0,0,1-1-3.34c-.26-1.15-.48-2.32-.7-3.5-.33-1.75-.61-3.52-.91-5.29Z"/><path class="cls-1" d="M358.32,490.52a37.35,37.35,0,0,1-5.92.39,15.77,15.77,0,0,1-3.09-.33,9.47,9.47,0,0,1-1.62-.52c-.35-.21-.73-.39-1.07-.62a2.33,2.33,0,0,1-.67-.95,2.13,2.13,0,0,1,.11-1.66,5,5,0,0,1,1-1.32,10.51,10.51,0,0,1,1.86-1.38A44.56,44.56,0,0,1,355.8,481c2.34-.86,4.7-1.62,7.08-2.31,2.12-.61,4.24-1.23,6.37-1.72,2.73-.61,5.52-1.33,8.41-1.06.9.09.76.46,0,.91a13.86,13.86,0,0,1-1.44.76,7.34,7.34,0,0,1-2,.67c-2.72.48-5.41,1.24-8.12,1.92s-5.42,1.47-8.11,2.32a38.7,38.7,0,0,0-4.77,1.88,25.74,25.74,0,0,0-4.35,2.5,4.69,4.69,0,0,0-.45.38,1.11,1.11,0,0,0-.19.2.38.38,0,0,0,0,.47,1.16,1.16,0,0,0,.21.16,1.84,1.84,0,0,0,.37.16,7.51,7.51,0,0,0,1.22.33,21.63,21.63,0,0,0,5.52.07,59.06,59.06,0,0,0,6.93-1.1,102.21,102.21,0,0,0,10.34-2.75c2.62-.85,5.13-1.88,7.64-2.93l1.64-.71c2.05-.87,2.76-1,3.44-.62a2.19,2.19,0,0,1,.46.23c.38.29-.28,1.1-1.78,1.87a83.43,83.43,0,0,1-14.4,5.4,91.14,91.14,0,0,1-11.47,2.55Z"/><path class="cls-1" d="M384.7,468.17l-.79-7.23c-.1-.88-.24-1.75-.31-2.63-.25-3.11-.45-6.22-.67-9.34-.09-1.38-.25-2.76-.39-4.13a27.79,27.79,0,0,1-.21-5.33c.06-.56.47-.47.91,0a4.19,4.19,0,0,1,1,2.25q.71,5.28,1,10.69c.1,2.17.49,4.39.76,6.58l.79,7.26c.17,1.49.33,3,.53,4.46.28,2.25.56,4.52.94,6.73.3,1.72.74,3.39,1.14,5.06.09.37.2.72.28,1.1a4.52,4.52,0,0,1,.19,1.46.78.78,0,0,1-.12.38,3.05,3.05,0,0,1-.29.36c-.1.12-.18.26-.26.35s-.33.13-.63-.08a1.27,1.27,0,0,1-.43-.5,3.41,3.41,0,0,1-.3-.66,55.67,55.67,0,0,1-2.21-9.48c-.4-2.41-.71-4.84-1-7.27Z"/><path class="cls-1" d="M294.23,467.66l4-6c.48-.73.91-1.5,1.39-2.24l5.19-7.72c.76-1.14,1.49-2.32,2.2-3.49A29.47,29.47,0,0,1,310,443.8c.36-.42.59-.17.65.42a4.57,4.57,0,0,1-.5,2.42c-1.77,3.09-3.55,6.2-5.63,9.15-1.26,1.76-2.33,3.73-3.5,5.6l-3.9,6.16-2.4,3.78c-1.19,1.92-2.44,3.82-3.59,5.75-.89,1.5-1.64,3.05-2.47,4.57-.18.34-.34.68-.54,1-.72,1.24-1.15,1.51-1.85,1.41a3.7,3.7,0,0,1-.48-.07c-.48-.17-.52-.88-.1-1.83a77.4,77.4,0,0,1,4.63-8.39c1.26-2.07,2.61-4.1,3.91-6.15Z"/><path class="cls-1" d="M287.32,459.33q1.57-2.32,3.11-4.68c.37-.58.69-1.18,1.07-1.75l4-6.07c.58-.9,1.11-1.84,1.65-2.75a19.35,19.35,0,0,1,2.31-3.44c.29-.33.56-.05.67.46a3,3,0,0,1-.25,2,55.34,55.34,0,0,1-4.39,7.11c-1,1.37-1.79,2.92-2.7,4.39s-2,3.2-3,4.8l-1.92,2.93-2.92,4.42c-.75,1.15-1.4,2.33-2.17,3.48-.18.25-.34.51-.54.75a2,2,0,0,1-1,.76,1,1,0,0,1-.74,0,1.7,1.7,0,0,1-.3-.12c-.27-.16-.14-.72.16-1.41a9.08,9.08,0,0,1,.87-1.52c.31-.52.63-1,1-1.53.66-1,1.37-2.07,2.06-3.12,1-1.56,2.09-3.12,3.11-4.71Z"/><path class="cls-1" d="M265.57,472.22a33.9,33.9,0,0,1-7.87-6.17,9.21,9.21,0,0,1-1.18-1.63,4.72,4.72,0,0,1-.53-1.16c-.05-.25-.11-.5-.14-.76l.06-.75a5.57,5.57,0,0,1,.55-1.22c.08-.06.12-.17.23-.19l.23-.19c.17-.11.36-.19.53-.28l.6-.13.61,0a8.92,8.92,0,0,1,1.7.2,29.22,29.22,0,0,1,2.93.79c1.88.62,3.7,1.33,5.5,2.08s3.43,1.4,5.11,2.14c2.15,1,4.42,1.76,6.19,3.57.58.58.2.78-.55.82-.39,0-.89.05-1.47.05a5.75,5.75,0,0,1-1.78-.4c-2.09-1-4.25-1.91-6.4-2.84s-4.3-1.91-6.48-2.77a19.74,19.74,0,0,0-3-.94,10.19,10.19,0,0,0-1.47-.21.93.93,0,0,0-.32,0,.23.23,0,0,0-.22.14.44.44,0,0,0-.11.31,1.08,1.08,0,0,0,.09.4,10.23,10.23,0,0,0,2.78,3.33,35.52,35.52,0,0,0,3.78,2.84,51.4,51.4,0,0,0,5.1,2.93,40.36,40.36,0,0,0,8.27,3.22,15.7,15.7,0,0,0,3.29.46h.62l.3,0a2,2,0,0,1,.63.12,1.94,1.94,0,0,1,.59.3,2.51,2.51,0,0,1,.81,1.06c.06.19.12.39.17.58l.08.52a10.51,10.51,0,0,1,0,1.67c-.15,1.92-.59,2.36-1,2.79-.1.1-.18.22-.27.29s-.28,0-.47-.4a4.43,4.43,0,0,1-.46-1.67,21.07,21.07,0,0,0-.18-2.8c0-.07-.05-.1-.06-.15s0,0,0-.05l-.08,0h-.15l-.88,0a25.51,25.51,0,0,1-6.68-1.54,53.82,53.82,0,0,1-9-4.29Z"/><path class="cls-1" d="M286.45,209.94l-.6-2.52c-.07-.31-.18-.6-.25-.91-.22-1.09-.36-2.19-.52-3.29-.07-.48-.18-1-.3-1.44a4.9,4.9,0,0,1-.26-1.87c.06-.4,1.69-.1,1.84.55a26.48,26.48,0,0,1,.58,3.65,14.51,14.51,0,0,0,.51,2.24c.19.82.39,1.65.6,2.47.14.5.27,1,.43,1.5a18.35,18.35,0,0,0,.78,2.23c.26.55.56,1.07.84,1.58.06.12.13.22.18.34a.79.79,0,0,1,.1.53,1.41,1.41,0,0,1-.25.4,1.77,1.77,0,0,0-.14.16.39.39,0,0,1-.33.06.93.93,0,0,1-.52-.21A8.42,8.42,0,0,1,288,214a7.82,7.82,0,0,1-.76-1.6c-.31-.81-.56-1.65-.81-2.49Z"/><path class="cls-1" d="M300.68,201.64a3.12,3.12,0,0,1-.34,1.27,2.62,2.62,0,0,1-.84,1,2.86,2.86,0,0,1-.77.53,1.75,1.75,0,0,1-1.5-.14,2.27,2.27,0,0,1-.88-1.2,6.15,6.15,0,0,1-.24-1.14,1.66,1.66,0,0,1,.23-1.31c.1-.12.43.06.76.27s.67.4.67.53l0,.36a2.8,2.8,0,0,1,0,.3.55.55,0,0,0-.09.32c0,.26.25.17.36.11a.81.81,0,0,0,.44-.52,1,1,0,0,0,0-.56,1.1,1.1,0,0,0-.54-.73.37.37,0,0,0-.11,0s0,0,0,0a1,1,0,0,0,0-.11v-.05a.33.33,0,0,0,.16.17.67.67,0,0,0,.17.12l0,0c0,.06-.17.1-.8,0l-.43,0c-.47,0-.84-.23-.91-.62a.94.94,0,0,1,0-.49,1.58,1.58,0,0,1,.24-.54,1.93,1.93,0,0,1,.57-.53,2.23,2.23,0,0,1,.8-.27,2.48,2.48,0,0,1,.73,0,3.6,3.6,0,0,1,.58.2,3.2,3.2,0,0,1,.78.59,3.48,3.48,0,0,1,.94,2.37Z"/><path class="cls-1" d="M296.53,190.56a2.25,2.25,0,0,1-1.22,1.76,1.72,1.72,0,0,1-.75.26,1.79,1.79,0,0,1-1.25-.43,2.51,2.51,0,0,1-.62-.83,5.56,5.56,0,0,1-.32-.8,1.1,1.1,0,0,1,.17-1.18c.11-.1.44.16.78.39a3,3,0,0,0,.48.27,1.29,1.29,0,0,0,.25.08,2.05,2.05,0,0,1,.11.59c0,.1.06.12.08.13h.05a.28.28,0,0,0,.25-.15.62.62,0,0,0,0-.35c0-.2-.15-.44-.27-.44a0,0,0,0,0,0,0v0h0a1.56,1.56,0,0,0,.12.24l0,.07c0,.07-.16,0-.67-.28l-.35-.19c-.39-.2-.64-.49-.59-.8a1.24,1.24,0,0,1,.37-.65,1.72,1.72,0,0,1,1-.44,2.08,2.08,0,0,1,1.79.74,2.78,2.78,0,0,1,.62,2Z"/><path class="cls-1" d="M235.49,87.29a46.33,46.33,0,0,0,16.36-3.39,99.58,99.58,0,0,0,15.35-7.52c.9-.53,1.79-1.08,2.67-1.64l1.32-.85.66-.43a8.27,8.27,0,0,1,.71-.43,10.73,10.73,0,0,1,6.86-1.37,14.29,14.29,0,0,1,5.68,2,16,16,0,0,1,2.42,1.75c.38.32.71.7,1.07,1l.52.54.46.58a18.29,18.29,0,0,1,2.91,5.14,20.35,20.35,0,0,1,.77,2.85L293.5,87l.09,1.46a10.07,10.07,0,0,1-.19,3c-.21,1-.49,1.88-.77,2.77a32.66,32.66,0,0,0-1.41,5.21,4.66,4.66,0,0,0,.2,2.27,2.49,2.49,0,0,0,1.54,1.33,3.64,3.64,0,0,0,4.18-1.1,13.28,13.28,0,0,0,2.42-4c.31-.74.59-1.5.85-2.27l.4-1.19a2.09,2.09,0,0,1,.41-.8,1.88,1.88,0,0,1,.79-.46,8.4,8.4,0,0,1,5.3-.58A7,7,0,0,1,311.54,96a12.89,12.89,0,0,1,1.73,6.4,12.32,12.32,0,0,1-1.52,6.5,10.42,10.42,0,0,1-2.34,2.47,14.45,14.45,0,0,1-2.8,1.75,11.14,11.14,0,0,1-3.16,1,6.42,6.42,0,0,1-3.41-.26c-.33-.16-.61-.33-.83-.46a3.08,3.08,0,0,1-.48-.44c-.22-.25-.28-.39-.22-.43a1.1,1.1,0,0,1,.56.14,5.32,5.32,0,0,0,1.21.4,7.15,7.15,0,0,0,4.12-.71,16,16,0,0,0,4.85-3.53,5.69,5.69,0,0,0,1.32-2.32,12.53,12.53,0,0,0-.34-8.45,5.32,5.32,0,0,0-3.63-3.34,5.7,5.7,0,0,0-2.55.12,6.3,6.3,0,0,0-.67.2c-.11,0-.22.06-.33.11l-.2.09s0,0,0,0h0l0,.07-.12.38a25.8,25.8,0,0,1-2.77,6.21,9.25,9.25,0,0,1-2.63,2.71,5.92,5.92,0,0,1-2,.78,5.59,5.59,0,0,1-2.12,0,6.16,6.16,0,0,1-1-.28l-.46-.18-.47-.28a3.31,3.31,0,0,1-.9-.66,3.48,3.48,0,0,1-.72-.9,6.19,6.19,0,0,1-.61-4,42.81,42.81,0,0,1,1.76-6.45,10.76,10.76,0,0,0,.63-3.47l-.09-1.85L291,85.59A16.12,16.12,0,0,0,287.83,79a14.59,14.59,0,0,0-5.91-4.34,10.12,10.12,0,0,0-7-.2,4.52,4.52,0,0,0-.86.41,8.22,8.22,0,0,0-.87.5l-1.85,1.18c-1.24.78-2.49,1.55-3.76,2.29C265,80.3,262.46,81.7,259.81,83a69.6,69.6,0,0,1-16.66,5.86,39.67,39.67,0,0,1-5.44.7,29.13,29.13,0,0,1-5.52-.17,24,24,0,0,1-5.4-1.29,22.46,22.46,0,0,1-4.91-2.61,24.18,24.18,0,0,1-9.23-13.64,21,21,0,0,1,2.25-16.16,18.55,18.55,0,0,1,4.37-4.76A19.14,19.14,0,0,1,225,48a28.4,28.4,0,0,1,12.62-.91c.92.15,1.83.27,2.74.44l2.71.64c6.67,1.92,8.51,3.26,9.66,4.26a7.15,7.15,0,0,1,.73.72c.21.31-.35.26-1.53-.09-.6-.18-1.34-.43-2.23-.76s-1.94-.61-3.1-1A48.29,48.29,0,0,0,235.86,49a26.27,26.27,0,0,0-10.74,1.15,18.77,18.77,0,0,0-4.68,2.54,17,17,0,0,0-3.59,3.89,17.82,17.82,0,0,0-2.66,10.29,21.61,21.61,0,0,0,6.49,14.53,19.42,19.42,0,0,0,6.75,4.4,23.4,23.4,0,0,0,8,1.39Z"/><path class="cls-1" d="M334.35,58.44A31.87,31.87,0,0,1,339,68.58a36.15,36.15,0,0,1,1.06,11l-.14,2c-.05.67-.17,1.33-.25,2a32.78,32.78,0,0,1-.74,3.93,53.19,53.19,0,0,1-2.15,6.65c-.4,1.09-.9,2.14-1.34,3.21s-1,2.1-1.51,3.14A49.75,49.75,0,0,1,326,111.91a36.3,36.3,0,0,1-4.59,4.17,28.14,28.14,0,0,1-5.29,3.25,23.1,23.1,0,0,1-3.76,1.37,15.28,15.28,0,0,1-4,.57,9.24,9.24,0,0,1-4.07-.79,5.75,5.75,0,0,1-.94-.57,4.34,4.34,0,0,1-.77-.83,2.94,2.94,0,0,1-.55-2.21,2,2,0,0,1,.3-.94c.11-.18.19-.24.25-.2s.1.17.12.38a4.7,4.7,0,0,0,.1.79,2.49,2.49,0,0,0,1.35,1.79,7.52,7.52,0,0,0,3.33.69,16.43,16.43,0,0,0,7.06-1.67,28.45,28.45,0,0,0,6.34-4,44.11,44.11,0,0,0,9.7-11.79A57,57,0,0,0,337,84.08a33.11,33.11,0,0,0-2.51-20.24,29.23,29.23,0,0,0-7.9-9.91A32.35,32.35,0,0,0,308.69,47a35,35,0,0,0-7.46.35,43.36,43.36,0,0,0-7.17,1.84c-1,.33-2,.78-3,1.2s-1.7.77-2.35,1.06-1.2.48-1.63.68a5.33,5.33,0,0,1-2,.53,4,4,0,0,1-.68,0c-.27,0-.09-.35.49-.89a16.58,16.58,0,0,1,2.86-2.13,36.06,36.06,0,0,1,13.48-4.91l1.84-.25c.62-.05,1.24-.08,1.87-.12,1.24-.11,2.5,0,3.75,0a37.32,37.32,0,0,1,7.47,1.22,33.78,33.78,0,0,1,10.22,4.8,32.69,32.69,0,0,1,8,8Z"/><path class="cls-1" d="M269.46,35.2a24.24,24.24,0,0,0-9.63-.86,23,23,0,0,0-3.49.72,17.52,17.52,0,0,0-5.63,2.55,8.56,8.56,0,0,0-3.54,4.73,6.41,6.41,0,0,0,1.06,5.06,21,21,0,0,0,5.14,5c.6.47.35.69-.38.62a6.51,6.51,0,0,1-3.19-1.36,14.62,14.62,0,0,1-2.86-2.91,9.28,9.28,0,0,1-1.68-3.95,7.7,7.7,0,0,1,.59-4.37A9.71,9.71,0,0,1,248.41,37a20.49,20.49,0,0,1,8.77-4.33,26.47,26.47,0,0,1,10.6-.16A27.16,27.16,0,0,1,274,34.48a27.62,27.62,0,0,1,8,5.64,35.05,35.05,0,0,1,4.8,5.81c.3.47.59.93.88,1.41,1,1.84,1,2.53.62,3.18A2.07,2.07,0,0,1,288,51c-.4.37-1.09-.23-1.81-1.45A35.41,35.41,0,0,0,278,39.65a24.29,24.29,0,0,0-8.56-4.4Z"/><path class="cls-1" d="M244.6,101.61c.08.72.17,1.45.29,2.16.05.26.14.51.18.78a26.71,26.71,0,0,0,.49,2.79,8.15,8.15,0,0,0,.39,1.18,6.42,6.42,0,0,1,.55,1.48c0,.18-.27.32-.63.36a1.19,1.19,0,0,1-1-.32,6.64,6.64,0,0,1-1.28-3.23,18.48,18.48,0,0,0-.52-2c-.16-.75-.26-1.52-.35-2.28-.06-.47-.11-.95-.17-1.41-.06-.72-.13-1.43-.19-2.14-.06-.54-.22-1.07-.29-1.62a2.2,2.2,0,0,1,0-.36.67.67,0,0,1,.56-.7l.23-.07c.24,0,.48.14.69.45A5,5,0,0,1,244,98c.13.47.23.94.33,1.42.1.72.18,1.44.3,2.16Z"/><path class="cls-1" d="M341.62,223.05l-3.93,1.27c-.48.16-.94.35-1.42.5l-5.1,1.48c-.75.21-1.51.43-2.25.66a16.08,16.08,0,0,1-2.93.72c-.32,0-.31-.17-.11-.45a2.72,2.72,0,0,1,1.12-.83,46.93,46.93,0,0,1,5.75-2c1.18-.31,2.35-.81,3.53-1.24l3.87-1.41,2.36-.9c1.19-.48,2.39-.95,3.52-1.51a23.89,23.89,0,0,0,2.49-1.51c.18-.11.35-.23.54-.33.66-.39.94-.4,1.32-.15.08.06.18.11.25.17.24.2.12.62-.33,1.07a9.52,9.52,0,0,1-2.25,1.65c-.81.47-1.67.87-2.52,1.26-1.28.56-2.58,1.07-3.89,1.56Z"/><path class="cls-1" d="M339.6,243.73a53.53,53.53,0,0,1-6.42,1.39l-1.2.18c-.26,0-1.16.14-1.78.19a1.48,1.48,0,0,1-.21,0l-.1-.2-.2-.41-.38-.8-.42-1c-.25-.66-.49-1.32-.71-2-.45-1.32-.86-2.64-1.27-4s-.76-2.34-1.17-3.48a43.86,43.86,0,0,1-1.5-4.4c-.25-.95,1.65-.36,2.31,1.34,1.14,3,2.08,6,3,9.07a22.42,22.42,0,0,0,1,2.69c.56,1.12.36,1.17.9,1.09a46.55,46.55,0,0,0,6.23-1.2c1.27-.32,2.53-.7,3.78-1.11a52.21,52.21,0,0,0,5.57-2.17,37.39,37.39,0,0,0,4-2.24l.82-.55c1.05-.65,1.42-.77,1.95-.47a2,2,0,0,1,.35.21c.34.26.09.84-.66,1.45a32,32,0,0,1-7.6,4.25,64.75,64.75,0,0,1-6.23,2.19Z"/><path class="cls-1" d="M348.72,253l-3,.85c-.37.11-.72.26-1.09.36l-3.91,1c-.58.14-1.16.31-1.73.47a9.86,9.86,0,0,1-2.24.51c-.25,0-.25-.19-.11-.45a1.78,1.78,0,0,1,.82-.75,24.41,24.41,0,0,1,4.37-1.47,26.7,26.7,0,0,0,2.7-.9l3-1,1.82-.63c.92-.32,1.85-.64,2.73-1,.69-.3,1.32-.71,2-1.06.15-.07.28-.16.44-.22.56-.24.79-.18,1.08.14a1.86,1.86,0,0,1,.19.22c.18.25.07.61-.29.92s-.54.45-.83.66-.6.34-.92.5c-.62.31-1.28.59-1.94.85-1,.39-2,.73-3,1.07Z"/><path class="cls-1" d="M349.61,272.65a23.2,23.2,0,0,1-6.34,1.16,7.06,7.06,0,0,1-1.33-.12,3.06,3.06,0,0,1-1.47-.69,2,2,0,0,1-.35-.41l-.13-.24-.06-.12,0-.06s0,0,0,0v0h0l-.19.08.19-.08h0V272l0-.11-.06-.22-.14-.43-.27-.87-.54-1.73-1.1-3.45c-.36-1.11-.77-2.2-1.18-3.28a29.47,29.47,0,0,1-1.48-4.2c-.22-.91,1.63-.37,2.27,1.22,1.11,2.82,2.13,5.67,3,8.62.19.65.4,1.3.64,1.94l.35,1,.19.49.09.24,0,.12,0,.06v0h0l.17-.07-.17.07h0v0l0,.05s.05.06.09.09a1.09,1.09,0,0,1,.15.08l.22.08a7.26,7.26,0,0,0,2.68,0,23.33,23.33,0,0,0,2.92-.61,34.84,34.84,0,0,0,3.54-1.16,38.13,38.13,0,0,0,5.16-2.35,25.85,25.85,0,0,0,3.53-2.46l.71-.6c.89-.73,1.21-.88,1.76-.67a2.15,2.15,0,0,1,.38.15c.37.2.25.82-.39,1.51a24.22,24.22,0,0,1-6.91,4.75,44.86,44.86,0,0,1-5.88,2.37Z"/><path class="cls-1" d="M300.1,259.38a3.16,3.16,0,0,1-.69-2,2.94,2.94,0,0,1,.8-2,7.25,7.25,0,0,1,1.12-.92,3.3,3.3,0,0,0,.55-.44.2.2,0,0,0,.05-.19c0-.09-.05-.17-.26-.33a5.44,5.44,0,0,0-2.05-.53l-.62-.08a4.91,4.91,0,0,0-.59,0c-.44,0-.92,0-1.42-.06-.27,0-.46-.05-.84-.11a3.21,3.21,0,0,1-1-.38,2,2,0,0,1-1.05-1.7,2.37,2.37,0,0,1,.49-1.39,4.6,4.6,0,0,1,.48-.55l.41-.37c.52-.45,1.07-.83,1.49-1.2a1.33,1.33,0,0,0,.41-.55.66.66,0,0,0,.1-.3.46.46,0,0,0,0-.26c0-.32-.45-.68-1-.9a6.27,6.27,0,0,0-2.27-.4,5.31,5.31,0,0,0-2.24.34c-.37.18-.62,0-.42-.59a3,3,0,0,1,2.26-1.6,6.81,6.81,0,0,1,3.15.27c.27.08.55.22.82.33a4.68,4.68,0,0,1,.81.58,2.93,2.93,0,0,1,1,2.18,3,3,0,0,1-.24,1.13l-.21.47a2.38,2.38,0,0,1-.34.49,7.28,7.28,0,0,1-1.21,1c-.36.26-.7.51-1,.74a.61.61,0,0,1-.2.15.51.51,0,0,0-.12.13l0,.05a.29.29,0,0,0,.2.35,1.1,1.1,0,0,0,.36.08c.22,0,.45,0,.7,0,.51,0,1-.06,1.68,0a12.82,12.82,0,0,1,1.7.19,5.68,5.68,0,0,1,1.66.55,2.81,2.81,0,0,1,1.43,1.63,2.44,2.44,0,0,1-.11,1.74,3.58,3.58,0,0,1-.95,1.13c-.65.5-1.12.86-1.18,1.12a.44.44,0,0,0,0,.2.75.75,0,0,0,.54.77c.48.24,1.14.34,1.9.63a7,7,0,0,1,1,.53,3,3,0,0,1,.87.81,1.14,1.14,0,0,1,.09,1.09c-.06.19-.16.37-.23.56a1,1,0,0,0-.07.21.93.93,0,0,0,0,.13,1.58,1.58,0,0,0,.05.94.48.48,0,0,0,.41.22,4.75,4.75,0,0,0,.52,0,8.42,8.42,0,0,1,2.85.34,4.74,4.74,0,0,1,1.42.75,4.45,4.45,0,0,1,1.08,1.26,5.28,5.28,0,0,1,.55,1.22c.36,1.53.19,2-.33,2.39a2.26,2.26,0,0,1-.36.27c-.42.22-.9-.31-1.3-1.23a8.06,8.06,0,0,0-.93-1.65,2.07,2.07,0,0,0-1.13-.7,5.33,5.33,0,0,0-.85-.17,7.16,7.16,0,0,0-1,0h-.5a5.68,5.68,0,0,1-.59,0,2.88,2.88,0,0,1-1.08-.3,2.46,2.46,0,0,1-1.23-1.79,5.32,5.32,0,0,1,0-1.78,5.79,5.79,0,0,1,.19-.72h0s0,0,0,0l-.17-.11a.72.72,0,0,0-.18-.09c-.19-.08-.45-.16-.75-.25a7.45,7.45,0,0,1-1.06-.34,3.55,3.55,0,0,1-1.34-.91Z"/><path class="cls-1" d="M145.6,190c1.76,2.13,3.41,4.31,5.08,6.48l1.85,2.34c2.13,2.77,4.22,5.61,6.55,8.15l.35.37.5.49c.85.55,0,1.77-.28,2.21s-.73,1-1.12,1.5a17.47,17.47,0,0,1-4.42,4.23c-.63.33-.71-.14-.53-.77a5.38,5.38,0,0,1,1.36-2.27c.79-.78,1.56-1.61,2.27-2.46a15.77,15.77,0,0,0,1-1.28c.2-.3.12-.15.15-.2a0,0,0,0,0,0,0s-.43-.47-.7-.76-.59-.68-.87-1c-.57-.68-1.12-1.38-1.65-2.08-1.48-2-3.13-3.91-4.67-5.89-1.69-2.17-3.36-4.35-5.08-6.48-1.06-1.31-2.13-2.6-3.28-3.82a13.93,13.93,0,0,0-2.75-2.4,1.09,1.09,0,0,0-.57-.19.41.41,0,0,0-.25.11l-.3.24c-.48.39-1,.81-1.42,1.23a49.81,49.81,0,0,0-4,4.25l-.82,1c-1.06,1.19-1.45,1.5-2,1.49a2.35,2.35,0,0,1-.38,0c-.37-.09-.2-.8.49-1.8a31.19,31.19,0,0,1,3.47-4.2c.65-.67,1.31-1.32,2-2l1.07-.95.55-.46.41-.32a2.11,2.11,0,0,1,.6-.3,2.25,2.25,0,0,1,1,0,3.86,3.86,0,0,1,.88.31,6.25,6.25,0,0,1,1.06.68,18.46,18.46,0,0,1,1.65,1.49c1,1,1.93,2.07,2.83,3.14Z"/><path class="cls-1" d="M168.39,185.59c1.38,1.66,2.65,3.36,3.93,5l1.43,1.81,2.2,2.89c.37.48.74.95,1.13,1.41l.58.68.29.33.48.49.32.48c.1.17,0,.38,0,.56a4.85,4.85,0,0,1-.73,1.06l-.62.7c-.42.45-.83.9-1.25,1.34a16.18,16.18,0,0,1-3.56,3.11c-.51.26-.61-.2-.53-.76a3.16,3.16,0,0,1,1-1.91c.84-.76,1.67-1.57,2.47-2.37.41-.41.8-.82,1.17-1.22a.57.57,0,0,1,.13-.12,0,0,0,0,0,0-.08,8.12,8.12,0,0,0-.54-.67c-.26-.31-.51-.63-.76-1-1.15-1.54-2.44-3-3.63-4.57s-2.58-3.38-3.91-5a32.47,32.47,0,0,0-2.55-2.89,7.1,7.1,0,0,0-1-.82c-.19-.15-.49-.29-.69-.07l-.19.16-.27.26-.54.56-1.07,1.15a42.31,42.31,0,0,1-3.22,3.35,9.87,9.87,0,0,1-.8.65c-1.06.75-1.51.83-2,.58a1.46,1.46,0,0,1-.3-.17c-.28-.24,0-.73.67-1.32,1-.89,1.93-1.79,2.87-2.76s1.85-2,2.89-3.09l.4-.41.26-.24.4-.33.28-.16.06,0c.05.05.06,0,.09,0l.14-.06a1.17,1.17,0,0,1,.62-.08,3.31,3.31,0,0,1,1.2.42,8.78,8.78,0,0,1,1.27,1c.7.67,1.3,1.35,1.9,2Z"/><path class="cls-1" d="M126.29,152c-1,1.06-2,2.11-3,3.13-.37.38-.72.78-1.1,1.14-1.35,1.28-2.74,2.52-4.17,3.7-.63.53-1.24,1.09-1.87,1.61a16.62,16.62,0,0,1-2.54,1.87c-.29.16-.41-.08-.36-.46a2.41,2.41,0,0,1,.7-1.33c1.51-1.47,3.12-2.8,4.77-4.14a32.42,32.42,0,0,0,2.76-2.74c1-1,2-2.07,2.93-3.14l1.75-2c.86-1,1.73-2,2.52-3.12.61-.83,1.14-1.71,1.71-2.55l.38-.56c.48-.69.77-.81,1.15-.76a1.09,1.09,0,0,1,.26,0c.25.08.24.5,0,1.08-.41.84-.87,1.67-1.37,2.5s-1.11,1.59-1.7,2.37c-.88,1.15-1.81,2.29-2.77,3.39Z"/><path class="cls-1" d="M130.9,162.77c-.82.8-1.66,1.58-2.5,2.36-.31.28-.59.59-.9.87-1.11,1-2.26,1.89-3.41,2.79l-1.5,1.25a11.64,11.64,0,0,1-2,1.44c-.24.11-.36-.11-.35-.46a1.72,1.72,0,0,1,.47-1.16,31.89,31.89,0,0,1,3.82-3.2,23.21,23.21,0,0,0,2.25-2.09c.81-.78,1.62-1.57,2.4-2.38l1.45-1.51c.72-.77,1.44-1.55,2.09-2.37.5-.65.93-1.33,1.4-2,.1-.15.19-.3.3-.44.4-.53.66-.6,1-.51l.25.07c.24.11.25.46.07.94a19.36,19.36,0,0,1-1.1,2c-.43.63-.91,1.24-1.4,1.84-.73.88-1.49,1.75-2.29,2.59Z"/><path class="cls-1" d="M183.62,229l-1.84,1.48c-.22.18-.42.39-.64.57-.81.61-1.64,1.19-2.46,1.77-.36.26-.69.56-1.05.83a5.48,5.48,0,0,1-1.42.94c-.17.07-.3-.15-.35-.46a1.2,1.2,0,0,1,.21-.94,12.25,12.25,0,0,1,2.66-2.14,12.71,12.71,0,0,0,1.6-1.35l1.74-1.54,1.06-1a20.09,20.09,0,0,0,1.54-1.52c.36-.42.66-.9,1-1.33.07-.09.14-.2.22-.29a.58.58,0,0,1,.82-.2,2.35,2.35,0,0,1,.22.1.63.63,0,0,1,.16.78,9.84,9.84,0,0,1-.75,1.39c-.31.42-.65.82-1,1.22-.53.58-1.1,1.14-1.68,1.68Z"/><path class="cls-1" d="M259.2,98.07c1.83-.21,3.91-.73,5.75-.34a2.16,2.16,0,0,1,.63.23c.16.34-.53,1.29-.74,1.55a1.93,1.93,0,0,1-.72.67s.23.42,0,0a2.85,2.85,0,0,1-.21-1.36c.21-1.51-2.1-2.16-2.32-.64s.09,4.18,2,4.49c2.12.35,4-2.21,4.35-4,.91-4.57-6.31-3.19-8.7-2.92-1.52.18-1.54,2.58,0,2.4Z"/><path class="cls-1" d="M247.69,99.25A24.56,24.56,0,0,1,250.4,99c.31,0,1.71,0,1.8.17.27.59-.93,1.35-1.08,1.76-.05.12,0,.62,0,.33a2.1,2.1,0,0,0-.14-.47,3.38,3.38,0,0,1-.11-.86c.23-1.51-2.08-2.16-2.31-.63-.19,1.2,0,3.23,1.16,3.94,1.79,1.09,3.67-.94,4.37-2.41s.55-3.19-1.14-3.87-3.62-.34-5.31-.13c-1.51.2-1.53,2.6,0,2.4Z"/><path class="cls-1" d="M259,86.77c.17-.16.25-.2.35-.2a.41.41,0,0,0,.18,0c.05,0,.1-.06.15,0a.6.6,0,0,0,.42-.18,6.45,6.45,0,0,1,1.05-.36l1.05-.35a6.82,6.82,0,0,0,1.27-.55c.12-.15,1-.31,1.21-.41a.51.51,0,0,1,.27-.06c.38,0,.72-.41,1.12-.4.24,0,.48,0,.73,0a.47.47,0,0,1,.17,0c.62.09,1.25,0,1.86.05l.38.08a.61.61,0,0,0,.23,0,2.56,2.56,0,0,1,1.27.3c.05,0,.1.06.16,0,.34-.08.61.15.92.2a1.72,1.72,0,0,1,.29.11.85.85,0,0,0,.22.09,5,5,0,0,1,1,.32l.07,0c.41,0,.68.3.95.56s.32.34.59.32a.1.1,0,0,1,.12,0,2.4,2.4,0,0,0,.5.46.06.06,0,0,1,0,0,3.35,3.35,0,0,1-.29.63c-.06.1-.91,1.26-1,1.29a.38.38,0,0,1-.12,0c-.09,0-.2,0-.37.21s-.16.1-.19.06c-.26-.29-.65-.33-.95-.56a1.78,1.78,0,0,0-.43-.18,13.66,13.66,0,0,0-2.21-.74,1,1,0,0,1-.38-.17.89.89,0,0,0-.37-.14c-.21,0-.44,0-.65-.06s-.62-.07-.93-.08a11.6,11.6,0,0,0-1.56,0,.05.05,0,0,0-.05,0c-.27.25-1.26.33-1.26.36-.23.07-.5.19-.79.26s-.57.22-.9.28a7.31,7.31,0,0,0-.84.26l-.12,0c-.25,0-.87.16-1.53.21a4.87,4.87,0,0,1-1.51-.18.28.28,0,0,1-.16-.16,2.39,2.39,0,0,1-.13-.21c0-.08,0-.19-.05-.26a.61.61,0,0,0-.12-.15c0-.06,0-.16.05-.25S258.94,86.87,259,86.77Z"/><path class="cls-1" d="M252.53,89c-.16.26-.25.35-.32.33s-.09,0-.14.06-.08,0-.11,0-.19,0-.3.09a2.24,2.24,0,0,1-1.19-.06c-.15,0-.6-.11-.68,0s-.46,0-.56.12a.13.13,0,0,1-.13,0c-.18-.06-.33.37-.51.33a1.82,1.82,0,0,0-.33,0s0,0-.08,0c-.3-.12-.57.1-.86.07l-.19,0s-.08,0-.11,0c-.18.17-.41.07-.63,0,0,0-.06,0-.08,0-.12.21-.3,0-.44.12s-.1,0-.15,0-.09,0-.12,0-.33.08-.49.15,0,0,0,0c-.14.2-.37,0-.59-.13s-.26-.12-.33,0,0,0-.06,0a1.23,1.23,0,0,0-.41-.21l0,0a5.66,5.66,0,0,1-.23-.64c0-.09-.34-1.44-.34-1.51s0-.1,0-.13a.74.74,0,0,0,0-.46c0-.15,0-.21,0-.22a2.47,2.47,0,0,0,.36-.11,1.35,1.35,0,0,1,.35-.14c.1,0,.19-.1.29-.14.52-.13,1-.23,1.56-.33a.39.39,0,0,1,.29,0,.48.48,0,0,0,.28,0c.14,0,.29-.09.43-.11s.42-.06.64-.08.72,0,1.08,0c0,0,0,0,0,0,.2-.29.89-.17.94-.16a3.12,3.12,0,0,1,.61,0,3.18,3.18,0,0,1,.62,0,1.69,1.69,0,0,0,.55.06h.08c.29.17,1.46.66,1.6.77s.05.07.05.18,0,.16,0,.26,0,.24,0,.32,0,.1,0,.16a1,1,0,0,1-.09.36Z"/><path class="cls-1" d="M207.7,204.2c-.14.24-.28.48-.41.73,0,.09-.06.19-.11.28-.18.31-.38.63-.54,1a1.76,1.76,0,0,0-.14.46c0,.2,0,.41-.2.58s-1.05-.33-1-.57a2.68,2.68,0,0,1,.48-1.19,3.31,3.31,0,0,0,.28-.74c.12-.27.25-.53.38-.79l.24-.48c.12-.25.26-.49.37-.73s.09-.42.19-.6a.75.75,0,0,1,.06-.13c.11-.14.2-.15.42-.07l.15.05a.46.46,0,0,1,.28.34,2,2,0,0,1,0,1.16c-.09.26-.24.5-.35.75Z"/><path class="cls-1" d="M195.23,188.24a21.45,21.45,0,0,0,.31-2.41c0-.31,0-.6,0-.9.06-1.06.08-2.13.09-3.2,0-.48,0-1,0-1.43a8,8,0,0,1,.05-1.83c.06-.38.83.1.92.78a17.08,17.08,0,0,1,.13,3.72c-.07.75,0,1.53,0,2.31a24.56,24.56,0,0,1-.22,2.56c-.07.52-.16,1-.28,1.56-.16.78-.38,1.55-.6,2.31-.16.59-.31,1.18-.48,1.76,0,.13-.09.26-.14.38-.2.46-.33.58-.6.57a1.2,1.2,0,0,1-.19,0c-.19,0-.26-.29-.2-.65.19-1.06.5-2.09.75-3.15.18-.78.34-1.58.45-2.38Z"/><path class="cls-1" d="M157,163.14a17.94,17.94,0,0,1-1.61,1,5.2,5.2,0,0,1-.6.35,15.52,15.52,0,0,1-2.27.85l-1,.33a3.19,3.19,0,0,1-1.33.26c-.28,0-.09-1,.35-1.16L153,164a6.24,6.24,0,0,0,1.4-.73,16.68,16.68,0,0,0,1.47-.95c.29-.21.58-.43.85-.67a9.24,9.24,0,0,0,1.18-1.16,6.57,6.57,0,0,0,.63-1.09l.12-.25c.17-.3.31-.33.69-.16l.26.11a.58.58,0,0,1,.33.68,5.32,5.32,0,0,1-1.4,2.12,11.6,11.6,0,0,1-1.46,1.25Z"/><path class="cls-1" d="M262.34,130.5c3.31,2,6.4.5,8.67-2.22,1-1.18-.7-2.89-1.7-1.7-1.55,1.85-3.37,3.28-5.75,1.84-1.33-.81-2.54,1.28-1.22,2.08Z"/><g class="cls-3"><path class="cls-1" d="M392.36,262.45c-.92.26-1.85.48-2.78.7-.34.08-.67.19-1,.25a34.82,34.82,0,0,1-3.67.51l-1.65.15a3.46,3.46,0,0,1-2.21-.39c-.22-.14,0-.37.27-.59a1.66,1.66,0,0,1,.9-.46c1.16,0,2.53-.1,3.89-.2a14.3,14.3,0,0,0,2.47-.52c.9-.23,1.8-.47,2.7-.73l1.64-.52a24.57,24.57,0,0,0,2.44-.93,14.56,14.56,0,0,0,1.71-1l.36-.24c.46-.28.66-.28.95,0l.21.18c.2.23.12.55-.19.84a12.28,12.28,0,0,1-3.3,2,22.08,22.08,0,0,1-2.71,1Z"/></g><g class="cls-3"><path class="cls-1" d="M199.58,191.17c.12-.6.2-1.22.27-1.87,0-.23,0-.47,0-.71a19.31,19.31,0,0,1,.5-2.54c.1-.39.19-.76.29-1.14s.13-.5.21-.74a2.25,2.25,0,0,1,.43-.64c.12-.12.42.1.68.39s.49.64.39.84c-.3.76-.53,1.56-.83,2.45a7.35,7.35,0,0,0-.18,1.71c0,.64-.11,1.3-.2,2-.05.41-.13.82-.21,1.23a12.29,12.29,0,0,1-.56,1.85c-.09.23-.18.47-.28.71s-.22.45-.35.68a1.26,1.26,0,0,1-.19.28.55.55,0,0,1-.78.13l-.18-.11a.72.72,0,0,1-.19-.7c.24-.77.45-1.41.7-2.11a10.21,10.21,0,0,0,.4-1.69Z"/></g><path class="cls-1" d="M336.48,234.84a.85.85,0,0,1-.09-.24,3,3,0,0,1,0-1.86c0-.19.06-.37.12-.55l.14-.4.07-.16,0-.08c0-.1.12-.29,0-.41s-.25,0-.37,0-.1.08-.23.15a1,1,0,0,1-.48.11c-.22,0-.54-1.24-.13-1.47l.13-.07.24-.07.5-.13a1,1,0,0,1,.47,0,2,2,0,0,1,.44,0,1.23,1.23,0,0,1,.85,1.34c-.12.8-.19,1.26-.26,1.64a3.66,3.66,0,0,0-.13,1.07v.08a.32.32,0,0,0,.16.3.65.65,0,0,0,.35.08,2.12,2.12,0,0,0,.59-.09,9.8,9.8,0,0,0,1-.44,1.34,1.34,0,0,1,.24-.09c.34-.07.54.07.56.53a1.6,1.6,0,0,1,0,.31,1.94,1.94,0,0,1-.1.47.52.52,0,0,1-.12.29,2.86,2.86,0,0,1-1.75.68,3.17,3.17,0,0,1-1.24-.12,1.62,1.62,0,0,1-1-.85Z"/><path class="cls-1" d="M348.08,262.27a3.31,3.31,0,0,0-.45-.53s-.1,0-.15-.08a3.12,3.12,0,0,0-.91-.47,5.52,5.52,0,0,1-.66-.26c-.34-.16-.68-.55-.56-.88,0-.12.46-.16.88-.22a5.05,5.05,0,0,0,.56-.11l.1,0,0,0-.11.05-.09.06a.12.12,0,0,0,0,0,1.27,1.27,0,0,0,.12-.2c.08-.18,0-.12.06-.11a2.56,2.56,0,0,0,.4.3c.24.18.59.16.91.32a3.58,3.58,0,0,1,.83.62c.15.14.29.29.43.43s.37.49.56.7a5.89,5.89,0,0,0,.57.41s.08.05.11.09,0,.27-.36.54l-.25.18a1.18,1.18,0,0,1-.75.27,1.21,1.21,0,0,1-.9-.54,4.1,4.1,0,0,0-.37-.48Z"/><path class="cls-1" d="M180.07,54c-.24,0-.26-.28-.14-.81a1.94,1.94,0,0,1,.37-.66,2.73,2.73,0,0,1,.45-.19c.09,0,1.1.22,1.46.26a3.75,3.75,0,0,1,.95.29c.62.26,1.26.48,1.89.7a1.44,1.44,0,0,1,.4.22,3.47,3.47,0,0,0,1.42.59.36.36,0,0,0,.27,0,5.5,5.5,0,0,1,1.66.36,12,12,0,0,0,1.22.66c.06,0,.14,0,.17.13s.24.24.37.29a3,3,0,0,1,.55.25,1,1,0,0,1,.25.31.57.57,0,0,1-.06.44c-.1.09-.06.26-.07.39a.52.52,0,0,1,0,.14,5.56,5.56,0,0,1-1.41.48s-1.78-.18-2-.2a.56.56,0,0,1-.29-.14s-1.44-.21-1.49-.24c-.27-.1-.58-.11-.79-.39a.21.21,0,0,0-.15-.08,7.26,7.26,0,0,1-1.37-.59c-.23-.11-.47-.18-.71-.27,0,0-.07-.07-.11-.1a1.21,1.21,0,0,0-.14-.1c-.56-.21-1.07-.54-1.64-.71-.14,0-.62-.54-.78-.58S180.16,54,180.07,54Z"/><path class="cls-1" d="M198.23,31c-.21-.1,0-.31.55-.63a2.55,2.55,0,0,1,.79-.27,2.62,2.62,0,0,1,.49.14,9.5,9.5,0,0,1,.83,1.19,2.65,2.65,0,0,1,.35.92c.14.65.29,1.3.37,2a.94.94,0,0,1,0,.44,4.27,4.27,0,0,0,0,1.51.33.33,0,0,0,.09.25,3.56,3.56,0,0,1,.08,1.66c-.18.43-.31.86-.48,1.28,0,.06,0,.13-.11.17s-.23.24-.26.37a1.67,1.67,0,0,1-.21.52.91.91,0,0,1-.32.23.75.75,0,0,1-.49-.07c-.1-.09-.28,0-.43-.07l-.16,0a5.17,5.17,0,0,1-.58-1.15,12.28,12.28,0,0,0-.16-1.57c0-.08,0-.16.07-.25s-.22-1.13-.22-1.17c0-.23-.09-.44.1-.68,0,0,0-.1,0-.14a6.62,6.62,0,0,1-.05-1.18,4,4,0,0,0-.1-.59.61.61,0,0,1,0-.11.36.36,0,0,0,0-.14,5.91,5.91,0,0,0-.33-1.38c0-.1.06-.67,0-.78S198.31,31,198.23,31Z"/></g></g></svg>