<svg width="400" height="400" viewBox="0 0 400 400" fill="none" xmlns="http://www.w3.org/2000/svg">
<path fill-rule="evenodd" clip-rule="evenodd" d="M214.293 124.976C214.293 129.997 211.655 134.399 207.695 136.863C207.634 138.275 207.699 146.554 207.699 146.554H265.417C266.585 146.584 268.16 146.916 269.548 148.08C271.042 149.332 272.028 151.285 271.967 153.913C271.908 156.494 270.899 158.841 269.308 159.982C267.905 160.989 266.313 161.215 265.173 161.123H258.203L283.31 215.166C283.589 215.772 283.728 216.395 283.746 217.005C285.072 217.108 286.27 217.77 287.021 218.852C287.848 220.045 288.011 221.577 287.44 222.983C286.946 224.203 286.338 225.631 285.78 226.869C285.256 228.032 284.686 229.232 284.288 229.848C281.873 233.576 279.055 235.374 277.305 235.931C277.276 235.94 277.246 235.949 277.217 235.958C276.777 236.085 276.383 236.11 276.092 236.11H234.007C232.294 236.11 230.744 235.476 229.579 234.811C228.395 234.134 227.412 233.313 226.777 232.674C226.461 232.355 226.227 232.015 226.054 231.701L221.78 223.964C220.329 221.336 221.686 218.204 224.27 217.269C224.249 216.555 224.394 215.818 224.734 215.106L250.745 161.123H208.149C208.044 161.123 207.98 161.135 207.949 161.143C207.933 161.147 207.923 161.15 207.917 161.152C207.912 161.154 207.909 161.156 207.909 161.156L207.909 161.156C207.909 161.156 207.907 161.157 207.905 161.16C207.9 161.164 207.887 161.178 207.869 161.204C207.83 161.263 207.784 161.361 207.748 161.495C207.712 161.631 207.703 161.745 207.703 161.794V259.142H227.51L227.675 259.164C228.787 259.317 230.405 259.788 231.838 260.776C233.319 261.797 234.769 263.508 234.913 266.045C235.03 268.087 235.03 270.398 234.996 272.223H240.932C243.176 272.223 244.691 273.669 245.545 274.85C246.424 276.067 246.965 277.473 247.239 278.474C247.375 278.971 247.399 279.488 247.423 280.003C247.426 280.064 247.428 280.124 247.431 280.185C247.435 280.25 247.438 280.315 247.442 280.38L247.442 280.381C247.504 281.427 247.601 283.072 247.595 284.497C247.591 285.462 247.543 286.54 247.359 287.433C247.272 287.859 247.113 288.453 246.776 288.998C246.422 289.572 245.618 290.447 244.273 290.447H155.839C154.544 290.447 153.705 289.66 153.285 289.026C152.902 288.446 152.718 287.804 152.615 287.33C152.5 286.187 152.502 283.269 152.503 280.835V280.83C152.504 280.381 152.504 279.949 152.503 279.548L152.503 279.543C152.503 279.542 152.503 279.541 152.504 279.542C152.504 277.031 153.787 275.379 155.07 274.372C156.461 273.28 158.412 272.223 160.24 272.223H165.084V267.08C165.084 264.161 166.373 262.095 168.073 260.821C169.662 259.631 171.503 259.197 172.778 259.144L172.829 259.142H192.26V161.119L192.241 161.114L192.219 161.109C192.176 161.099 192.133 161.093 192.094 161.09C192.055 161.086 192.03 161.086 192.024 161.087L191.975 161.089H150.542L174.901 215.284C175.163 215.866 175.296 216.464 175.317 217.049C178.424 217.539 180.252 221.03 178.677 223.933L174.457 231.712C174.456 231.714 174.455 231.717 174.453 231.722C174.45 231.727 174.447 231.734 174.443 231.744C174.437 231.757 174.431 231.77 174.424 231.787L174.413 231.812L174.406 231.828C174.391 231.863 174.37 231.911 174.347 231.963C173.394 234.086 170.63 236.11 165.955 236.11H124.78C123.111 236.15 119.573 235.381 117.86 231.81C117.333 230.711 116.228 228.783 115.036 226.704C114.488 225.748 113.922 224.76 113.385 223.806C111.731 220.868 113.656 217.49 116.703 217.041C116.725 216.465 116.856 215.877 117.11 215.303L141.18 161.089H135.027C133.821 161.199 132.103 160.998 130.59 159.955C128.859 158.762 127.772 156.728 127.772 153.933C127.772 151.138 128.854 149.105 130.527 147.872C132.029 146.765 133.758 146.487 134.976 146.554H192.26V136.336C188.741 133.799 186.449 129.656 186.449 124.976C186.449 117.257 192.682 111 200.371 111C208.06 111 214.293 117.257 214.293 124.976ZM200.371 138.951C201.108 138.951 201.831 138.894 202.537 138.783C202.53 139.141 202.522 139.5 202.513 139.861C202.463 142.102 202.41 144.394 202.659 146.554C202.733 147.202 202.866 147.839 203.152 148.555C203.429 149.246 203.97 150.202 205.044 150.755C206.159 151.33 207.4 151.512 208.228 151.473H265.253C265.537 151.487 266.03 151.539 266.408 151.856C266.69 152.093 267.096 152.58 267.068 153.799C267.053 154.464 266.925 155.314 266.812 155.544C266.703 155.767 266.577 155.895 266.458 155.98C266.175 156.184 265.775 156.242 265.549 156.218L265.417 156.204H208.149C206.113 156.204 204.65 157.187 203.795 158.47C203.028 159.622 202.803 160.914 202.803 161.794V259.142H197.16V161.089C197.16 159.159 196.215 157.769 194.961 156.985C193.883 156.312 192.697 156.146 191.885 156.169H134.755L134.611 156.187C134.262 156.228 133.73 156.152 133.364 155.9C133.208 155.793 133.059 155.64 132.937 155.388C132.81 155.128 132.673 154.677 132.673 153.933C132.673 152.524 133.15 152.042 133.427 151.838C133.833 151.539 134.389 151.443 134.726 151.467L134.813 151.473H192.483C195.066 151.473 197.16 149.371 197.16 146.778V138.578C198.191 138.822 199.266 138.951 200.371 138.951ZM209.17 125.087C209.17 130.027 205.18 134.032 200.259 134.032C195.338 134.032 191.349 130.027 191.349 125.087C191.349 120.148 195.338 116.143 200.259 116.143C205.18 116.143 209.17 120.148 209.17 125.087ZM178.115 272.223H169.984V267.08C169.984 265.795 170.477 265.159 171.005 264.763C171.626 264.297 172.43 264.092 172.94 264.061H227.154C227.68 264.156 228.446 264.405 229.064 264.831C229.692 265.264 229.987 265.732 230.021 266.326C230.13 268.252 230.129 270.479 230.094 272.223H222.554V277.142H240.932C242.249 277.142 242.664 278.943 242.664 279.734C242.728 281.064 242.704 282.569 242.682 283.889V283.889V283.889C242.673 284.484 242.664 285.041 242.664 285.528H157.301V285.372V285.372V285.371C157.301 283.199 157.301 281.257 157.393 279.215C157.393 277.813 159.161 277.142 160.297 277.142H178.115V272.223ZM254.461 164.272L229.305 216.914H278.716L254.461 164.272ZM121.726 216.991L145.86 162.633L170.292 216.991H121.726ZM119.144 224.005C118.734 223.291 118.327 222.581 117.948 221.911H174.194L170.147 229.37C170.065 229.522 170.003 229.659 169.962 229.751C169.926 229.833 169.916 229.857 169.908 229.875C169.902 229.89 169.897 229.901 169.879 229.942C169.882 229.935 169.881 229.936 169.874 229.945L169.874 229.946C169.797 230.054 168.989 231.191 165.955 231.191H124.703L124.661 231.192C124.504 231.197 124.019 231.15 123.499 230.899C123.023 230.67 122.575 230.3 122.275 229.676C121.667 228.407 120.393 226.184 119.144 224.006L119.144 224.005ZM230.311 229.263L226.25 221.911H282.58C282.178 222.879 281.73 223.919 281.315 224.841C280.75 226.094 280.334 226.926 280.179 227.167C278.427 229.871 276.626 230.92 275.963 231.191H234.007C233.465 231.191 232.771 230.974 232.003 230.535C231.296 230.131 230.688 229.631 230.311 229.263Z" fill="#060C84"/>
</svg>
