<?xml version="1.0" standalone="no"?>
<!DOCTYPE svg PUBLIC "-//W3C//DTD SVG 20010904//EN"
 "http://www.w3.org/TR/2001/REC-SVG-20010904/DTD/svg10.dtd">
<svg version="1.0" xmlns="http://www.w3.org/2000/svg"
 width="640.000000pt" height="640.000000pt" viewBox="0 0 640.000000 640.000000"
 preserveAspectRatio="xMidYMid meet">
<metadata>
Created by potrace 1.14, written by Peter Selinger 2001-2017
</metadata>
<g transform="translate(0.000000,640.000000) scale(0.100000,-0.100000)"
fill="#000000" stroke="none">
<path d="M0 3200 l0 -3200 3200 0 3200 0 0 3200 0 3200 -3200 0 -3200 0 0
-3200z m3282 2549 c265 -57 399 -361 262 -595 -14 -23 -47 -63 -75 -89 l-50
-46 3 -132 3 -132 855 -5 c933 -5 881 -2 937 -62 47 -50 67 -149 44 -211 -15
-39 -72 -99 -111 -115 -20 -9 -81 -18 -141 -21 l-107 -6 360 -792 c297 -655
364 -793 380 -793 50 0 98 -50 98 -101 0 -35 -159 -337 -197 -376 -20 -19 -59
-46 -87 -59 l-51 -24 -641 0 c-717 0 -695 -2 -778 71 -36 32 -62 73 -126 199
-92 182 -98 214 -51 261 19 18 40 29 58 29 27 1 35 16 380 778 193 427 355
785 358 795 7 16 -25 17 -589 17 l-596 0 0 -154 0 -155 -26 -20 c-30 -24 -43
-26 -78 -10 -42 20 -47 51 -44 257 3 170 5 192 22 211 l19 21 881 0 c782 0
884 2 904 16 25 17 30 65 9 83 -10 7 -271 11 -901 13 l-888 3 -24 28 c-23 27
-24 34 -24 178 l0 149 -70 0 -70 0 0 -149 c0 -144 -1 -151 -24 -178 l-24 -28
-888 -3 c-630 -2 -891 -6 -901 -13 -21 -18 -16 -66 9 -83 20 -14 122 -16 904
-16 l881 0 19 -21 c18 -21 19 -61 22 -1475 l2 -1454 70 0 70 0 0 1094 c0 1091
0 1093 21 1120 26 33 79 36 109 6 20 -20 20 -33 20 -1119 l0 -1099 303 -4
c287 -3 304 -4 342 -24 98 -53 135 -119 142 -256 l6 -98 84 0 c96 0 141 -15
191 -63 69 -65 77 -94 77 -265 0 -149 -1 -154 -24 -173 -23 -18 -58 -19 -1341
-19 -1283 0 -1318 1 -1341 19 -23 19 -24 24 -24 173 0 171 8 200 77 265 50 48
95 63 191 63 l84 0 6 98 c7 137 44 203 142 256 38 20 55 21 343 24 l302 4 0
1399 0 1399 -596 0 c-564 0 -596 -1 -589 -17 3 -10 165 -368 358 -795 345
-762 353 -777 380 -778 18 0 39 -11 58 -29 47 -47 41 -79 -51 -261 -64 -126
-90 -167 -126 -199 -83 -73 -61 -71 -778 -71 l-641 0 -51 24 c-28 13 -67 40
-87 59 -38 39 -197 341 -197 376 0 51 48 101 98 101 17 0 82 137 380 793 l359
792 -106 6 c-60 3 -121 12 -141 21 -39 16 -96 76 -111 115 -23 62 -3 161 44
211 56 60 4 57 937 62 l855 5 3 132 3 132 -50 46 c-95 88 -138 197 -128 322
18 242 244 412 479 362z"/>
<path d="M3131 5599 c-136 -42 -212 -187 -166 -319 51 -143 210 -210 343 -144
83 41 142 134 142 223 0 90 -61 186 -144 225 -46 22 -129 29 -175 15z"/>
<path d="M1632 4270 c-6 -14 -161 -358 -346 -764 -185 -407 -336 -743 -336
-748 0 -4 313 -8 695 -8 382 0 695 1 695 3 0 1 -157 348 -349 772 -306 674
-351 767 -359 745z"/>
<path d="M4410 3528 c-190 -419 -346 -765 -348 -769 -2 -5 309 -9 692 -9 383
0 696 4 696 8 0 9 -685 1520 -691 1527 -2 1 -159 -339 -349 -757z"/>
<path d="M899 2493 c40 -77 66 -114 90 -130 l34 -23 620 0 c606 0 620 0 653
20 24 16 47 49 89 130 l56 110 -799 0 -799 0 56 -107z"/>
<path d="M4015 2490 c42 -81 65 -114 89 -130 33 -20 47 -20 653 -20 l620 0 34
23 c24 16 50 53 90 130 l56 107 -799 0 -799 0 56 -110z"/>
<path d="M2414 1383 c-12 -2 -32 -15 -45 -29 -20 -22 -23 -35 -24 -107 l0 -82
120 -3 c106 -2 122 -5 142 -24 38 -35 29 -89 -18 -113 -22 -12 -79 -15 -288
-15 l-260 0 -28 -24 c-26 -23 -28 -31 -32 -110 l-3 -86 1222 0 1222 0 -3 86
c-4 79 -6 87 -32 110 l-28 24 -730 0 c-621 0 -734 2 -758 15 -47 24 -56 78
-18 113 23 22 24 22 613 24 l589 3 0 83 c-1 76 -3 84 -28 110 l-27 27 -783 1
c-430 1 -792 0 -803 -3z"/>
</g>
</svg>
