<?xml version="1.0" standalone="no"?>
<!DOCTYPE svg PUBLIC "-//W3C//DTD SVG 20010904//EN"
 "http://www.w3.org/TR/2001/REC-SVG-20010904/DTD/svg10.dtd">
<svg version="1.0" xmlns="http://www.w3.org/2000/svg"
 width="512.000000pt" height="512.000000pt" viewBox="0 0 512.000000 512.000000"
 preserveAspectRatio="xMidYMid meet">
<metadata>
Created by potrace 1.14, written by Peter Selinger 2001-2017
</metadata>
<g transform="translate(0.000000,512.000000) scale(0.100000,-0.100000)"
fill="#000000" stroke="none">
<path d="M2460 5106 c-116 -32 -211 -113 -263 -224 -26 -55 -31 -81 -34 -149
-3 -128 27 -202 123 -303 l52 -55 -1 -127 c0 -71 -3 -129 -6 -129 -3 -1 -384
-3 -846 -4 -787 -1 -842 -3 -875 -19 -86 -45 -124 -109 -118 -200 5 -69 32
-120 84 -156 45 -30 86 -38 193 -36 50 0 91 0 91 -1 0 -1 -113 -251 -250 -555
-138 -304 -257 -566 -264 -583 -8 -16 -33 -70 -56 -120 -23 -49 -67 -145 -97
-212 -43 -96 -60 -123 -75 -123 -50 0 -98 -50 -98 -103 0 -25 130 -284 170
-339 34 -48 67 -73 127 -100 47 -21 55 -22 678 -22 709 1 692 -1 779 75 35 31
62 74 123 192 43 84 81 161 84 172 15 54 -37 125 -92 125 -16 0 -29 4 -29 9 0
5 -16 45 -36 88 -226 489 -674 1486 -670 1491 4 4 1141 7 1177 3 3 -1 6 -631
6 -1401 0 -1284 -1 -1400 -16 -1401 -9 0 -144 -2 -301 -3 -267 -2 -288 -4
-325 -23 -110 -57 -143 -130 -145 -314 l0 -36 -90 -1 c-101 -2 -144 -17 -198
-73 -57 -59 -66 -89 -70 -249 -3 -132 -1 -147 17 -170 l20 -25 1331 0 1332 0
19 24 c18 22 20 39 18 162 -1 120 -4 143 -24 187 -46 100 -120 143 -252 146
l-85 1 -2 95 c-2 75 -7 104 -24 137 -29 56 -66 91 -121 116 -42 19 -67 21
-321 23 -151 1 -285 3 -296 3 l-21 1 0 1093 c0 793 -3 1099 -11 1114 -14 26
-60 43 -87 33 -52 -20 -50 40 -55 -1144 l-5 -1101 -67 0 -68 0 0 85 c-1 47 -1
701 -1 1453 l0 1368 -23 26 -23 27 -885 0 c-949 1 -918 -1 -918 50 0 12 6 31
14 41 13 18 44 19 901 19 l887 1 23 27 c22 25 24 36 24 140 0 62 0 130 0 151
l1 37 70 0 70 0 0 -142 c0 -79 3 -152 6 -163 13 -51 -15 -49 933 -50 853 -1
884 -2 897 -20 8 -10 14 -29 14 -41 0 -51 31 -49 -917 -50 l-885 -1 -21 -22
c-21 -20 -22 -32 -25 -213 -2 -128 1 -200 8 -219 15 -34 57 -53 91 -40 47 17
50 30 51 190 1 146 2 151 22 152 127 5 1166 2 1166 -4 0 -6 -113 -258 -315
-702 -13 -27 -82 -180 -154 -340 -275 -607 -241 -541 -285 -551 -48 -11 -80
-50 -78 -96 1 -20 34 -96 81 -188 91 -175 135 -226 224 -256 47 -16 105 -18
652 -17 330 0 618 1 640 3 55 5 128 43 173 89 40 42 192 335 192 371 0 51 -40
91 -103 102 -12 2 -38 48 -83 148 -36 80 -74 165 -86 190 -11 25 -43 95 -70
155 -27 61 -65 144 -85 185 -19 41 -73 158 -118 260 -46 102 -131 289 -188
415 -58 127 -104 231 -102 233 1 1 49 4 106 6 141 3 195 29 239 115 53 100 9
220 -100 277 -33 17 -87 18 -880 18 l-845 1 -2 135 -1 136 26 18 c45 30 100
106 124 170 18 48 23 81 23 151 0 81 -4 97 -33 160 -64 137 -191 222 -338 229
-44 2 -99 -1 -124 -8z m205 -161 c126 -61 181 -221 115 -340 -32 -58 -54 -79
-116 -110 -48 -24 -63 -27 -119 -23 -106 9 -185 70 -220 169 -47 132 31 275
175 322 31 10 127 0 165 -18z m-1573 -1489 c17 -39 43 -98 58 -131 15 -33 38
-82 50 -110 13 -27 36 -78 51 -112 16 -35 42 -91 58 -125 33 -72 21 -48 221
-488 84 -184 156 -345 161 -357 l9 -23 -695 0 c-382 0 -695 4 -695 8 0 7 347
777 442 982 11 25 54 119 95 210 41 91 88 194 105 230 17 36 35 76 40 89 8 23
11 20 39 -39 16 -35 44 -95 61 -134z m3090 54 c31 -69 183 -404 338 -745 156
-341 285 -628 287 -637 5 -17 -33 -18 -691 -18 l-696 0 9 23 c5 12 65 146 134
297 69 151 137 301 151 333 14 31 38 83 52 115 78 170 323 712 335 739 7 18
16 29 19 25 4 -4 31 -63 62 -132z m-2382 -1553 c0 -4 -86 -171 -101 -195 -8
-13 -29 -33 -48 -44 -34 -21 -40 -21 -645 -21 -535 0 -615 2 -641 15 -42 22
-55 40 -113 151 l-50 97 799 0 c439 0 799 -1 799 -3z m3068 -94 c-57 -111 -71
-129 -113 -151 -26 -13 -107 -15 -641 -15 -714 0 -654 -10 -720 116 -20 39
-46 87 -56 105 -10 18 -18 35 -18 37 0 3 360 5 799 5 l800 0 -51 -97z m-1481
-1145 c24 -25 27 -34 27 -110 l1 -83 -587 -1 -588 0 -23 -22 c-42 -40 -28
-104 27 -121 19 -6 313 -10 749 -9 649 0 720 -2 743 -17 33 -21 41 -46 43
-132 l2 -73 -1221 0 -1221 0 2 72 c3 79 18 121 50 138 13 7 110 11 276 11 276
0 308 6 317 52 8 38 3 56 -21 79 -21 20 -34 22 -141 22 l-117 1 1 82 c0 72 3
86 23 107 13 14 33 26 45 28 11 2 373 3 803 3 l783 0 27 -27z"/>
</g>
</svg>
